ply
format ascii 1.0
comment Created by Open3D
element vertex 400
property double x
property double y
property double z
property double nx
property double ny
property double nz
end_header
0.378901 0.00743537 -0.280966 0.512909 -0.065125 -0.855969
0.28771 -0.119169 0.334879 0.42409 -0.00959006 0.905569
0.0221421 -0.128897 -0.370789 -0.000423551 -0.999201 0.0399664
0.373909 -0.129005 -0.0517956 0.0171179 -0.999754 -0.014105
0.31038 -0.127476 0.0853427 -0.00802717 -0.999955 0.00504646
-0.182295 -0.0148546 -0.155679 0.820414 0.0103937 0.571675
0.118864 0.0884952 -0.184349 -0.304286 -0.871252 0.385137
-0.135726 -0.128111 -0.40651 0.0625684 -0.996452 -0.056283
-0.00831369 -0.068031 0.225789 0.0973566 -0.886574 -0.452226
-0.229163 -0.128014 -0.317493 0.0370404 -0.999132 -0.0190457
0.0499055 0.128759 -0.182635 0.00510198 0.998939 -0.0457754
-0.434362 -0.123234 -0.0524347 -0.999955 -0.00724982 0.00611926
0.0238587 0.127533 -0.42469 -0.000379994 0.999985 0.00539118
-0.37796 -0.128697 -0.0425564 0.0252249 -0.999404 -0.0235459
-0.432962 0.0310349 -0.180035 -0.999995 0.00104064 -0.00289952
-0.265316 -0.129253 -0.063793 0.000932708 -0.999986 -0.0052551
-0.21277 -0.0638891 0.37668 -0.478357 -0.036094 0.877424
0.313928 0.127838 0.113453 0.0510055 0.998499 -0.0199624
0.125386 0.122171 0.168246 -0.395634 0.88728 -0.237083
0.197272 0.129135 -0.298668 -0.0201357 0.999671 0.0158583
0.434177 -0.0212077 -0.0457464 0.998566 0.0333348 -0.0418989
-0.287214 0.12971 -0.0154985 0.0419813 0.997222 -0.0615293
0.127832 0.000735727 0.425009 0.518896 0.00307583 0.854832
-0.0771406 -0.0288196 -0.457897 -0.481291 -0.0380275 -0.875735
0.151016 -0.0210495 0.0858674 -0.335258 -0.876649 -0.345092
0.117133 0.128897 0.264593 0.0763168 0.995928 -0.047984
0.419162 -0.0181749 0.25733 0.503072 -0.0127943 0.86415
-0.372864 -0.127324 0.228147 -0.45374 -0.857441 0.242723
-0.43211 -0.0920514 0.237316 -0.456154 -0.856362 0.242009
0.244847 -0.128615 0.239792 0.0118721 -0.999834 -0.0138462
-0.219291 0.13011 -0.165402 -0.0116028 0.999385 0.0330906
0.40485 0.114632 -0.265601 0.474585 0.0251702 -0.87985
0.123956 -0.0286856 -0.196655 -0.283054 -0.880906 0.379322
-0.223657 0.128774 0.202717 0.0169923 0.999771 -0.013001
-0.229488 0.0871655 0.368784 -0.489668 -0.0352526 0.871196
0.381576 0.129955 -0.196733 -0.118323 0.992735 0.0218503
-0.134667 0.13003 -0.350327 0.0170405 0.999817 -0.00867406
0.428413 -0.109051 -0.179701 0.474156 -0.861346 -0.182372
-0.293104 -0.125126 -0.324667 -0.331668 -0.858467 -0.391193
0.144654 -0.128906 0.289378 -0.00481301 -0.999958 0.00779584
0.210433 -0.130042 0.297517 0.0684715 -0.9969 -0.0387603
-0.123295 0.129855 0.282423 0.0184882 0.999367 -0.0304102
-0.195394 0.130015 0.345239 -0.000232567 0.999996 0.0028754
0.0248786 -0.127201 0.394392 -0.0181896 -0.999811 0.00692532
0.0570684 0.0530869 -0.205647 -0.0902773 0.84385 0.52893
-0.380932 0.0272075 -0.281462 -0.516551 0.0154546 -0.856117
0.0580757 0.0925812 0.467003 0.48913 0.0503153 0.870758
0.190936 -0.0335335 -0.134045 -0.376531 -0.905204 0.197053
0.360283 0.0267685 0.292177 0.467779 0.0122433 0.883761
0.22598 -0.0457593 -0.0801638 -0.943659 0.0739883 0.322542
-0.105358 -0.0837488 -0.16463 0.366121 -0.699786 0.613396
0.0578602 -0.0659426 -0.466171 0.527617 -0.0110527 -0.849411
0.203366 0.130832 0.0392446 -0.0183402 0.999821 0.00469316
0.27743 -0.00854173 0.339113 0.527283 -0.00321126 0.849683
-0.194718 -0.0218626 -0.387159 -0.55646 -0.0237551 -0.830535
-0.297546 -0.0705589 0.328342 -0.518057 0.0475305 0.854024
-0.433931 0.104949 0.0461653 -0.999829 0.0160824 -0.00916635
0.235778 0.0581813 -0.0223625 -0.995931 -0.00122701 0.0901073
-0.424263 0.0110289 0.256829 -0.583025 0.0645554 0.809885
-0.0950418 0.0676118 -0.191487 0.345272 0.860882 0.373722
-0.376266 -0.130651 0.113429 0.0237675 -0.999699 -0.00614645
-0.0500205 0.128343 0.401275 -0.0602437 0.998124 0.0109235
-0.411995 0.128824 0.20363 0.0235955 0.99956 -0.0179837
0.110833 0.131791 0.429475 0.00392162 0.999961 -0.00786508
-0.270817 0.130355 -0.129843 0.0029622 0.999446 -0.0331391
0.0979116 0.128699 0.328777 -0.0865809 0.995685 0.0333994
0.209327 -0.128276 0.115275 -0.602231 -0.698207 -0.387073
0.254301 0.128799 0.102716 -0.021286 0.999556 0.0208487
-0.431957 -0.0426689 0.128452 -0.999632 0.0193872 -0.0189646
-0.00806247 0.129318 -0.494454 -0.0158057 0.999402 0.0307523
-0.212134 0.127543 -0.368156 -0.00228728 0.998776 0.0494026
-0.28363 -0.12962 -0.200209 0.0943196 -0.995537 -0.00307106
0.226886 -0.127649 -0.223025 0.0251517 -0.998319 -0.0522169
-0.314022 -0.130214 -0.250458 -0.0297758 -0.999087 0.0306441
-0.43472 -0.112324 0.0135109 -0.999835 -0.008455 0.0160828
-0.088672 0.131147 -0.277991 -0.019838 0.999784 0.00619475
0.282331 -0.128905 0.0202509 0.00258351 -0.999996 -0.000802111
0.0471462 0.129645 -0.266853 -0.0216542 0.999723 0.00926141
0.160728 0.130131 0.222913 -0.000847655 0.999999 0.000738242
-0.213623 0.129717 -0.0387762 0.00798388 0.997667 -0.0677946
-0.434467 0.128158 -0.0327603 -0.999999 -0.000952855 0.00108587
-0.0186383 -0.0135201 0.488271 -0.513296 0.0247483 0.857855
0.102225 0.11561 -0.138666 -0.361129 -0.867896 0.34109
-0.147187 -0.12969 0.323321 -0.0641543 -0.996902 0.0454986
0.0613995 -0.0995735 0.464755 0.496122 0.0277015 0.867811
0.189318 -0.00748613 0.391233 0.492936 0.0161892 0.869915
-0.106537 -0.0754885 0.437631 -0.523198 0.0334053 0.851556
0.416682 0.0388317 0.259449 0.577907 0.013374 0.815993
-0.432158 -0.107227 0.077581 -0.994796 0.0912781 -0.0452589
0.0568937 -0.130103 0.328684 -0.0727535 -0.988226 0.134596
-0.12339 -0.129405 0.399503 0.00218512 -0.999995 -0.00210097
-0.358227 -0.128849 -0.177341 -0.0551662 -0.998338 0.0166519
0.221491 -0.128211 -0.349098 -0.00482156 -0.999979 0.00427317
-0.142441 -0.0754173 0.167036 0.411456 -0.845735 -0.339759
0.235703 0.127767 -0.204752 -0.0268467 0.999476 0.0180928
-0.0621259 0.0155343 0.463393 -0.526876 0.0306425 0.84939
-0.358615 0.128342 0.26111 0.0264237 0.999395 -0.0225975
0.0580151 0.095879 -0.466898 0.517324 -0.0293461 -0.855286
0.432354 0.0419037 -0.0669501 0.997103 -0.0637383 0.0415142
-0.0635404 -0.00279643 0.197339 0.0865442 0.864564 -0.495014
-0.0339839 -0.0746407 -0.479849 -0.520522 0.013693 -0.853738
0.213875 0.130237 -0.120441 -0.00493165 0.999981 0.00361992
0.0746032 -0.13029 -0.27165 0.0718018 -0.997213 -0.0202867
0.0880078 -0.000104776 -0.448877 0.487286 0.013101 -0.873144
-0.367374 0.0503108 0.288784 -0.499678 -0.0233585 0.865896
0.38033 -0.125596 0.217853 0.393368 -0.87315 0.287873
-0.311508 0.0787837 -0.319787 -0.486411 0.0237619 -0.873407
0.231348 -0.124825 -0.0212301 -0.692232 -0.718418 0.0684869
-0.435919 -0.0750269 -0.0840026 -0.999993 -0.00381194 0.000159446
-0.0453873 -0.1287 -0.383175 0.0655617 -0.997843 -0.00341669
-0.433914 -0.0183156 -0.124774 -0.999514 -0.0208825 0.023165
-0.233805 -0.130934 0.14904 0.00632294 -0.999458 -0.0323104
-0.433835 0.0190836 0.0360982 -0.997329 -0.0730134 0.00176118
-0.413892 -0.129292 -0.121238 -0.0170683 -0.999664 0.0195059
0.212581 0.052681 -0.101691 -0.432761 0.832994 0.34473
0.162395 -0.123868 0.406438 0.194973 -0.805429 0.559705
-0.160233 0.0743775 0.0815331 0.360011 0.886016 -0.292178
0.0402069 -0.0762058 -0.183154 -0.134594 -0.71209 0.689067
0.215346 0.0489009 0.376451 0.499646 0.00527666 0.866214
-0.113243 0.0383262 0.431606 -0.47766 -0.0230778 0.878242
0.139863 0.0276955 0.18723 -0.372713 0.871971 -0.317413
0.210222 0.126751 0.266302 0.0255374 0.999118 -0.0333178
0.358196 -0.129508 -0.1199 0.00618322 -0.999671 -0.024881
0.335572 -0.123995 -0.291541 0.406434 -0.830303 -0.381325
-0.111212 -0.019237 0.433704 -0.496563 -0.00433638 0.86799
-0.272112 0.037939 0.343668 -0.501447 0.00615236 0.865167
-0.253536 -0.00532757 -0.353966 -0.517564 -0.00509979 -0.855629
-0.166319 -0.128509 -0.355706 -0.0402457 -0.997493 0.0582074
0.238289 -0.0545087 -0.0189501 -0.996745 0.0299207 0.0748662
-0.139462 -0.127765 -0.25137 0.00361713 -0.996877 -0.0788811
-0.320855 0.00486854 -0.315089 -0.473785 0.00938734 -0.880591
0.366368 0.071369 -0.288501 0.508535 -0.0521598 -0.85946
0.406271 0.129732 -0.0802973 -0.0345994 0.998596 0.040119
-0.204357 0.0836245 -0.0685291 0.476936 0.872264 0.108113
-0.202653 0.130083 0.267561 -0.0230242 0.999435 0.0244792
-0.16225 0.128711 -0.181526 -0.00848604 0.999816 0.0172203
0.200564 0.0897576 -0.38196 0.538869 -0.0331557 -0.841737
0.0899545 0.0288269 -0.150131 -0.212639 0.820336 0.530879
0.207272 0.00826482 -0.382138 0.518109 -0.00806843 -0.855277
-0.177903 -0.103 -0.129207 0.303619 -0.865427 0.398561
-0.433126 0.0480345 0.0944089 -0.997992 0.0501 -0.0387659
0.431699 0.083559 0.213816 0.999675 -0.011759 0.0226017
0.00251324 0.129982 0.489519 -0.0114495 0.999775 0.017835
0.340897 -0.12776 -0.189552 -0.0137922 -0.999391 0.0320683
-0.0571778 0.127214 0.319365 0.0642998 0.997889 -0.00910713
0.014795 0.13027 -0.349211 -0.0155968 0.999858 0.00637291
-0.104289 0.116895 0.209369 0.168994 0.861946 -0.478006
-0.431875 0.0611302 -0.0959588 -0.998013 0.0456424 -0.0434321
0.248864 0.129523 -0.351377 -0.0235608 0.99972 0.00219439
0.304756 0.12762 -0.170561 -0.00247136 0.999984 0.00517583
0.294775 0.12809 0.219929 -0.00903092 0.99987 0.0133708
-0.118931 -0.00192922 -0.187521 0.187984 -0.86856 0.458547
0.363714 0.129057 0.145464 -0.01841 0.998888 0.0434014
-0.334918 0.128926 -0.23315 0.0096599 0.999938 -0.00558138
-0.154259 0.0780743 0.412898 -0.491524 -0.0083957 0.870824
0.0715538 -0.041608 -0.223473 -0.0380016 0.891893 0.450647
0.346959 -0.128875 0.154574 -0.0172679 -0.99972 0.0161542
-0.229913 -0.122356 0.365269 -0.376483 -0.03259 0.92585
0.350875 0.126975 0.295167 -0.00320518 0.996728 0.0807605
-0.206742 -0.0951355 -0.065953 0.504417 -0.858678 0.09075
-0.0990849 -0.0890828 -0.443176 -0.454043 -0.0234322 -0.890672
-0.176051 0.0212346 0.15607 0.413131 -0.86407 -0.287587
0.354513 0.127289 -0.133597 0.011324 0.999868 -0.0116117
0.431408 0.00477546 -0.122858 0.997856 0.0571751 -0.0318453
-0.323819 -0.131112 -0.0191841 -0.031678 -0.998978 0.032247
-0.148152 0.130809 -0.237117 -0.00439278 0.99999 0.000105037
0.262282 0.129767 -0.0214695 0.0246353 0.999696 -0.00121722
-0.202625 -0.12872 -0.225233 -0.0141852 -0.999823 0.0123556
-0.220526 0.127684 0.0926962 -0.0790727 0.996557 0.0249402
0.359199 -0.130947 0.02005 -0.00500847 -0.999966 0.00658948
-0.433056 -0.0525093 -0.00992223 -0.999993 -0.00168957 0.00336106
-0.430343 -0.117816 0.137129 -0.467726 -0.874127 0.130898
-0.333263 -0.12982 -0.106021 -0.028641 -0.999414 0.0187335
-0.22078 -0.0913773 0.061834 0.473992 -0.878094 -0.0654354
-0.043603 -0.0565408 -0.18834 0.197938 0.849821 0.488493
-0.0755144 0.0593095 0.164014 0.344952 -0.815267 -0.465131
0.432531 0.0416513 0.1425 0.999832 0.0168874 -0.00706966
0.152016 0.103816 -0.412304 0.501004 -0.00704192 -0.865417
-0.211994 -0.130256 0.304297 0.00800861 -0.999888 -0.0126078
0.366876 -0.0304306 0.288224 0.501747 0.00228603 0.865011
-0.0490372 -0.127959 0.424323 0.0175501 -0.999603 -0.0220591
-0.0117504 0.128964 0.35775 -0.00338185 0.999988 0.00365329
-0.345679 0.128034 0.200548 0.0360174 0.999218 -0.0163196
0.229131 0.129506 0.167403 0.011412 0.999905 -0.00768577
0.0980071 -0.00236365 0.148013 -0.341676 0.866909 -0.362943
0.217595 -0.130351 -0.148415 -0.0480786 -0.998815 0.00753472
-0.282308 0.128992 0.236121 -0.0574893 0.996317 0.0636237
-0.0526518 0.0235743 -0.16074 0.0808907 -0.864409 0.496239
-0.165364 0.0943238 -0.403139 -0.480366 -0.0171897 -0.8769
0.0254676 0.129896 0.29534 -0.00718804 0.999974 0.000673481
0.216903 0.110726 0.371981 0.518372 1.9003e-05 0.855155
-0.411487 0.12838 -0.168965 -0.0416964 0.997052 0.064417
0.107271 0.0699916 -0.437704 0.412337 0.102693 -0.905225
-0.123366 0.0473827 -0.118065 0.42809 0.860956 0.274762
-0.384309 0.129564 0.0986715 0.00235232 0.999979 -0.00605343
-0.376316 -0.107163 0.281596 -0.391549 -0.865234 0.313146
-0.195395 -0.0890404 0.131376 0.441099 -0.888527 -0.126297
0.300341 0.0822063 -0.326017 0.509024 -0.0288703 -0.860268
0.0272901 0.0997277 0.185967 -0.116051 0.856855 -0.502326
-0.310043 -0.129122 0.23456 0.0361571 -0.99915 -0.0197813
0.385074 0.129315 0.225026 0.0155094 0.99886 -0.0451418
-0.211199 0.0882983 0.023677 0.490955 0.857065 -0.156216
-0.230176 -0.129149 -0.165677 -0.000926175 -0.999994 0.00340708
0.196843 -0.0600059 0.137496 -0.808386 0.0082223 -0.588595
-0.190322 -0.0342176 0.0053956 0.504163 0.850251 -0.151303
-0.267496 -0.128148 0.283414 0.0268264 -0.999632 -0.00400136
-0.402425 0.128822 -0.250768 0.00644605 0.992553 -0.121641
0.0503204 -0.0115643 0.47205 0.414508 0.133235 0.90024
0.205659 -0.128899 -0.281364 0.0045543 -0.99998 -0.0044627
0.152255 -0.127726 -0.34959 0.0660865 -0.997078 -0.0383044
0.11676 -0.129049 0.346969 0.0563521 -0.998321 -0.0133983
0.333861 -0.0559305 -0.306898 0.498101 0.0104316 -0.867056
-0.118908 -0.128241 0.26527 0.0266043 -0.996451 -0.0798577
0.434466 -0.0629534 -0.106121 0.999965 0.00575881 -0.00607144
-0.0544189 -0.0677851 0.468752 -0.518163 0.0228247 0.854977
-0.231798 -0.128932 0.223971 -0.0313237 -0.999377 0.0162774
0.244009 -0.131316 0.0675438 0.0666812 -0.997686 -0.013251
-0.43038 -0.0892578 -0.168073 -0.994859 -0.0104823 0.100724
0.433264 0.0563224 -0.156519 0.999388 0.00217151 -0.0349231
-0.03019 0.0555462 -0.201999 0.13431 0.854627 0.501571
0.124041 0.0875464 0.117092 -0.297409 -0.860439 -0.413755
-0.131449 0.129048 0.351452 -0.0591966 0.997593 0.0361219
-0.0520107 0.130065 0.237729 0.0118869 0.999911 -0.00599286
0.364005 0.130351 0.0646731 -0.00675662 0.999938 0.0088259
-0.143908 -0.130005 0.211789 -0.0994633 -0.994986 0.0104665
-0.022065 0.129352 -0.27909 -0.0327601 0.994211 0.102325
-0.00223157 -0.128026 0.312487 -0.000416471 -0.998179 0.0603132
-0.374857 -0.0315737 -0.284816 -0.452829 -0.0354285 -0.890893
0.120267 -0.0717537 -0.428543 0.526872 -0.0300917 -0.849412
-0.261395 0.129933 0.0400414 -0.0440252 0.998054 0.0441545
0.139709 -0.000492122 -0.105485 -0.439957 -0.869192 0.225705
0.368989 -0.109365 0.287139 0.393291 -0.865036 0.311505
0.279196 -0.0462718 -0.337732 0.481333 0.014635 -0.876416
0.434288 -0.0309245 0.140864 0.999307 -0.0320935 0.0188627
0.00530321 0.0456054 0.499657 0.444888 -0.0502724 0.894174
0.433497 0.0485286 0.00252401 0.999919 -0.0107696 0.00674279
0.431671 -0.0103389 -0.247717 0.999992 -0.00355286 0.00161768
0.155955 0.0380944 -0.406777 0.505069 -0.008389 -0.863038
-0.123144 0.0199184 0.20666 0.509542 -0.0154923 -0.860306
-0.0949102 -0.114845 -0.211013 0.166098 -0.873125 0.458327
0.39221 -0.105696 -0.264808 0.418019 -0.880702 -0.222767
0.0987898 0.0521181 0.444379 0.466003 0.0488768 0.883432
0.151389 -0.0932725 0.140147 -0.428438 0.864399 -0.263165
-0.271697 0.131458 -0.272123 0.0414348 0.998887 -0.0225461
-0.00569148 0.0544502 0.201199 0.0846721 -0.844308 -0.529126
-0.160963 0.102065 0.147204 0.276758 0.895968 -0.347341
0.103596 0.129103 -0.231793 0.0810115 0.996678 -0.00838079
-0.0771019 0.129194 -0.164573 0.184639 -0.863752 0.468872
0.171326 0.129281 -0.160505 -0.00936527 0.999943 0.00515386
0.259975 0.12887 0.297032 -0.0105251 0.998371 0.0560766
0.427361 -0.126223 -0.00259851 0.0176438 -0.999738 -0.0145601
-0.056054 -0.0159056 -0.230849 0.0970387 -0.879444 0.466007
-0.340834 0.127521 -0.154161 0.00871514 0.997039 -0.0764068
0.432977 -0.0333095 -0.168884 0.999979 0.00351356 -0.00541469
-0.129602 0.0537642 -0.425528 -0.57258 -0.0245953 -0.81948
-0.00404576 -0.00273659 0.199952 -0.0685347 0.860945 -0.504061
0.277902 -0.127537 -0.158929 0.0176119 -0.999709 -0.0164659
0.433604 -0.0740997 -0.0359599 0.999897 0.0139598 -0.0033684
0.0807761 0.12744 0.211199 -0.238681 0.862483 -0.446267
0.277208 0.0585103 0.33968 0.53975 0.00269184 0.841821
0.433902 -0.0718987 0.0322485 0.999988 -0.00485249 0.000367598
-0.0798974 0.0319423 -0.456313 -0.530001 0.0735536 -0.844801
0.410471 0.128163 0.10048 0.00202504 0.999996 -0.00205083
-0.387589 -0.0514382 0.276195 -0.480981 -0.058915 0.874749
0.295813 0.130045 -0.23673 -0.0345648 0.999258 0.016972
0.326805 -0.06952 0.311678 0.479208 -0.00259074 0.877698
-0.433598 0.0712191 -0.231537 -0.99942 0.0151264 -0.03052
-0.0572497 0.127684 -0.337 0.054606 0.997247 -0.050173
0.229573 -0.0421095 0.367624 0.497416 0.00532641 0.867496
-0.432006 -0.023336 0.193637 -0.999447 0.0264672 -0.0201509
-0.0221319 0.130865 -0.210366 0.0358168 0.998368 -0.0444913
-0.0523506 -0.127902 0.273486 0.00561292 -0.999982 -0.00227197
-0.412023 0.100718 0.260326 -0.457421 -0.02335 0.888944
0.433118 0.0528331 -0.225313 0.997712 0.0657624 -0.0156689
0.156257 -0.105346 -0.148812 -0.561868 -0.684298 0.464801
0.308024 -0.130785 0.236277 0.0126053 -0.99959 -0.0257025
0.16146 -0.0715748 0.405722 0.534687 0.0151155 0.844915
-0.190785 0.0115816 -0.100822 0.458965 -0.861082 0.218833
-0.215501 -0.0218657 -0.0572179 0.401959 0.903165 0.150741
-0.34508 -0.0802851 -0.300277 -0.538193 0.0455932 -0.841588
-0.434021 0.0954959 0.132472 -0.999982 -0.00054713 0.00604824
0.432928 0.103011 0.0451338 0.999987 -0.00141999 0.00479795
0.163235 0.0682783 0.407033 0.500654 0.000474523 0.865647
-0.402856 -0.10313 -0.254893 -0.405237 -0.857576 -0.316773
0.207826 -0.0972502 0.0264445 -0.707425 -0.694071 -0.133477
0.0182502 -0.127151 0.23765 -0.0542876 -0.713077 -0.698981
0.246641 -0.131576 -0.0870008 0.0851249 -0.995877 -0.031344
0.187369 -0.0981736 -0.0922925 -0.650103 -0.68035 0.338364
-0.241336 0.0798041 -0.359066 -0.498974 -0.0116758 -0.866539
0.129948 -0.0605432 0.192997 -0.202592 -0.875724 -0.438252
-0.17198 0.0799136 -0.143986 0.466593 0.846748 0.255556
0.177634 -0.0843887 -0.397757 0.49991 0.000501053 -0.866077
-0.137673 -0.0463452 0.100108 0.796447 0.0226052 -0.604286
-0.295573 0.129287 0.117311 -0.0393582 0.999196 0.00764661
0.0148254 -0.115542 -0.455638 0.0351705 -0.858576 -0.511478
-0.150887 -0.121614 -0.186317 0.600963 0.0643054 0.796686
-0.267468 -0.0671009 -0.345486 -0.476609 -0.00139035 -0.879114
0.432616 -0.0155154 0.0732121 0.999433 -0.000506991 0.0336546
0.187172 0.0490862 0.148782 -0.792788 0.00125606 -0.609496
-0.215736 0.128265 -0.241995 0.110297 0.992715 -0.0484985
0.433152 0.104693 -0.026705 0.999318 0.0165547 -0.0330007
0.162156 0.114514 -0.0555548 -0.956763 0.0226228 0.289989
0.234551 -0.0501735 0.0438126 -0.477107 -0.856499 -0.196925
0.28229 -0.129079 -0.258026 -0.0042731 -0.999851 0.0167446
-0.0113435 -0.108804 0.470515 -0.0941305 -0.842837 0.529873
0.0594648 0.0235954 0.228731 -0.199187 0.867256 -0.45628
0.0778763 0.0710059 0.170131 -0.126262 -0.864571 -0.486389
-0.325965 0.129578 0.0598008 -0.0666311 0.997717 0.0110152
-0.37523 0.12823 -0.00465372 -0.0277216 0.999226 0.0279058
-0.104043 -0.0213362 0.151777 0.284887 0.840897 -0.460142
0.0767465 -0.130159 -0.334729 0.0682219 -0.997401 -0.0231649
0.197065 -0.128683 0.175133 -0.0192275 -0.999813 0.00225578
-0.0629493 0.128589 -0.402353 0.0665568 0.996798 -0.0443214
0.155865 -0.0175948 -0.410167 0.483008 0.0719413 -0.872656
-0.434382 -0.0326067 0.0605434 -0.999776 -0.00620721 0.0202572
0.216551 -0.12947 0.373049 0.0251224 -0.998678 -0.0448444
0.0786854 -0.12953 0.271575 -0.0470571 -0.998302 0.0343254
0.170119 -0.13044 0.232011 0.00202152 -0.999952 -0.00959314
0.284075 -0.129156 0.136794 0.0421689 -0.998661 -0.0299575
0.0227142 0.0434316 -0.485435 0.494623 0.115652 -0.861378
0.102767 -0.119377 0.204112 -0.265044 -0.705758 -0.657006
-0.0752718 -0.131105 0.347271 -0.0107394 -0.999695 0.0222314
0.125346 0.129043 -0.298265 0.0301648 0.999498 -0.00968936
-0.351416 -0.127725 0.0502447 0.00534897 -0.999417 -0.0337067
0.171496 0.128375 -0.246582 -0.0222546 0.998846 0.042567
0.166059 -0.129554 -0.225517 -0.0466101 -0.998889 0.00693924
-0.267165 0.127388 0.325609 0.0687754 0.996524 -0.0470157
0.100738 0.131927 -0.395544 0.0199681 0.999007 -0.0398276
-0.211558 0.018387 0.0971441 0.483385 -0.861421 -0.155864
0.167681 0.00473458 -0.00918785 -0.998447 -0.0237478 0.0504036
-0.324695 -0.129376 0.144248 -0.0337263 -0.996327 0.078707
0.0967107 -0.13019 0.420968 -0.00675563 -0.999883 0.0137601
0.05721 -0.0401589 0.177211 -0.0377407 -0.885522 -0.463063
0.167473 0.127908 -0.349254 -0.0267158 0.999169 0.030783
0.431883 -0.126291 -0.0816778 0.487116 -0.871221 -0.0607596
0.253365 0.128861 -0.278195 -0.0424189 0.999096 0.00264364
-0.32607 -0.127126 0.291438 -0.361286 -0.86819 0.340174
0.421711 -0.129577 0.105841 0.476205 -0.869354 0.132111
-0.205812 0.0422976 -0.381241 -0.409005 -0.00514546 -0.912518
0.0593318 -0.0855019 0.230397 -0.220797 0.871139 -0.438595
-0.232626 -0.118872 -0.0120516 0.496221 0.86759 -0.0324498
-0.282194 0.12697 -0.334992 0.056593 0.997955 -0.0297157
-0.432994 0.023782 -0.0436122 -0.999645 0.00774253 -0.0254937
0.00285383 -0.038201 -0.22855 0.0436733 0.855111 0.516602
-0.144592 -0.00378842 -0.416407 -0.477785 0.0109824 -0.878408
0.324123 0.0750942 0.311673 0.51234 -0.0267185 0.858367
0.00077214 0.0883468 -0.23912 -0.0358103 0.0122558 0.999283
0.176288 0.123915 0.104589 -0.406749 0.879579 -0.246773
-0.175951 0.0387916 -0.0300698 0.501264 -0.850553 0.159041
-0.132116 -0.0575514 -0.10549 0.414832 0.848857 0.327654
0.0480675 0.128622 0.364776 0.0174562 0.999249 -0.0346009
-0.431309 0.0393965 0.159028 -0.999951 0.00904287 -0.00404338
-0.177188 -0.0854056 -0.396916 -0.553697 0.0310625 -0.832138
-0.02146 -0.0107451 -0.489062 -0.519512 -0.0281952 -0.853998
-0.282102 0.128319 -0.193363 0.0129083 0.99991 -0.0035806
0.431441 -0.0808652 0.178172 0.998067 0.0370063 -0.0499329
-0.360992 0.0805957 -0.291454 -0.481132 0.0403318 -0.87572
0.432666 -0.0822401 -0.234492 0.996345 -0.0854156 0.000776491
-0.194783 0.127534 -0.29764 0.0121982 0.999874 -0.0101428
-0.165481 0.13008 -0.111302 0.00266654 0.999963 -0.00822554
-0.0643177 0.119081 0.463541 -0.501354 0.00227057 0.865239
0.169506 0.12935 0.312477 -0.0304347 0.99952 0.00586282
0.375329 0.129326 -0.0198373 0.0107395 0.99994 -0.00235545
-0.332036 0.0984021 0.30836 -0.494825 -0.127993 0.859515
-0.165523 -0.0344349 0.404623 -0.501388 0.0487645 0.863847
0.129919 -0.128725 -0.28268 0.00623769 -0.999978 -0.00232407
0.107003 -0.122296 -0.204889 -0.323017 -0.706502 0.629694
0.434198 0.12511 0.163998 0.999774 0.0102807 -0.0185942
0.164409 0.0942087 -0.10845 -0.416095 -0.886109 0.204148
0.283104 0.128905 -0.0987994 0.000640228 1 -0.000232093
-0.194274 0.0336601 0.0407241 0.506854 -0.860754 -0.0469235
-0.0329296 -0.115208 -0.223963 0.0794781 -0.697886 0.711785
0.22108 -0.0584664 -0.372749 0.536529 -0.0529592 -0.842218
-0.061094 0.107871 -0.463225 -0.505414 0.00943484 -0.862826
-0.319744 0.0303011 0.315774 -0.43902 -0.0992323 0.89298
-0.0818872 -0.114258 0.210459 0.271541 -0.704975 -0.655192
0.305708 -0.130657 -0.0352725 -0.0225496 -0.999367 0.0275309
0.100359 -0.0771703 -0.159032 -0.388417 -0.703556 0.595097
-0.431345 0.0721973 -0.0026303 -0.999998 -0.000525274 0.00187935
-0.120467 0.118343 0.432122 -0.495157 -0.0380442 0.86797
-0.246864 -0.0161875 0.358454 -0.511887 0.0114698 0.858976
0.139292 -0.127832 -0.407978 0.00827563 -0.999965 -0.00120341
-0.429719 0.125327 -0.0947914 -0.996343 0.0144138 -0.0842186
-0.271339 -0.128119 0.100639 -0.0553422 -0.998242 0.0212024
0.0901894 -0.115178 -0.45046 0.0785483 -0.865529 -0.494661
-0.118517 -0.130681 -0.307993 0.0292421 -0.999515 -0.0107267
-0.182233 0.0215122 0.39451 -0.569042 0.085066 0.817897
0.423491 0.12876 -0.156615 0.00782802 0.999893 -0.0123687
0.320565 0.0248782 -0.314704 0.496438 0.0397081 -0.867164
0.286085 -0.123258 -0.333499 0.346327 -0.855456 -0.385035
0.203474 0.0264238 0.052878 -0.490166 0.868431 -0.074599
-0.237407 -0.0045082 -0.00462469 0.999644 0.00235591 0.0265925
0.330041 0.127963 -0.292448 -0.000284875 0.999229 0.0392512
0.020308 -0.129386 -0.252236 -0.0059484 -0.999976 0.00346268
-0.0102237 -0.13016 -0.298389 0.0319768 -0.999335 -0.0175427
-0.434325 0.0639203 0.214189 -0.999999 -0.000959005 0.000475203
-0.427216 -0.0187163 -0.252887 -0.433891 -0.00824094 -0.900928
0.109076 -0.0537282 0.437275 0.548582 -0.0587839 0.834028
-0.334859 0.129961 -0.0741278 -0.0172216 0.999797 0.0104202
0.16221 0.128209 0.376324 0.00625118 0.999947 -0.00820785
