ply
format ascii 1.0
comment Created by Open3D
element vertex 400
property double x
property double y
property double z
property double nx
property double ny
property double nz
end_header
0.0627322 0.424811 -0.232458 0.0028014 0.999992 -0.00292628
-0.142099 -0.264293 -0.182649 -0.288073 -0.877077 0.384382
-0.173618 0.0373947 0.326324 -0.713973 -0.603216 0.355492
-0.0346536 0.426377 -0.12703 0.0130374 0.999646 -0.0231714
0.194693 0.413482 0.0746531 0.469732 0.882611 -0.0186729
0.0263383 0.0668571 0.405589 -0.0569654 -0.0231881 0.998107
0.322741 0.160985 -0.358093 -0.901357 -0.428669 -0.0616312
0.292043 -0.160112 -0.198877 0.791022 -0.530573 0.304591
0.0611666 -0.0683267 0.113647 -0.159688 0.871796 -0.46311
-0.320353 -0.373451 -0.446529 -0.543649 0.838829 0.0284844
0.289597 -0.206182 -0.265735 0.705721 -0.598346 0.379393
0.310411 -0.0347897 -0.25748 -0.930167 0.172451 -0.324114
-0.100253 0.425804 0.0143131 0.0158587 0.998118 -0.0592361
-0.160968 0.0110322 0.177734 0.73318 0.563499 -0.380678
0.127355 0.427016 0.0502412 -0.00170479 0.99994 0.0108368
-0.163602 0.125731 0.393284 0.283066 0.958775 -0.0250018
-0.285821 -0.100596 -0.252056 0.846368 0.405304 -0.345529
0.242157 0.360542 0.388469 0.916897 0.398892 -0.0136407
-0.378039 0.416534 -0.485022 -0.434828 0.900226 -0.0227346
0.38375 -0.319594 -0.500105 0.00200055 -0.0154941 -0.999878
0.242307 -0.126581 -0.057083 0.720466 -0.634835 0.279129
-0.117833 -0.0452951 0.122478 0.369139 0.797033 -0.47799
0.148402 -0.206266 -0.199129 -0.395371 0.78797 -0.472001
-0.197705 -0.317592 -0.329956 -0.447538 -0.78076 0.436032
-0.022992 -0.294783 -0.306748 0.0506042 0.884466 -0.463852
0.173789 -0.094026 -0.0275777 -0.546205 0.721837 -0.424983
-0.243047 0.285907 -0.439512 0.44754 -0.476795 -0.756554
-0.358063 0.0551249 -0.404822 0.960542 -0.154494 -0.231279
0.33016 0.0835882 -0.310863 -0.962187 -0.112623 -0.248015
0.131031 -0.425583 -0.469221 -0.0734462 -0.994534 0.0742089
0.236285 0.372657 0.188241 0.855548 0.517658 -0.00819597
0.0660462 -0.274038 -0.161634 0.183753 -0.86963 0.458234
-0.0812954 0.0280517 0.283862 0.215646 0.86188 -0.458977
-0.341885 0.188655 -0.200686 -0.945371 0.266061 0.188375
-0.163303 0.424819 0.0648168 -0.171358 0.985096 0.0149356
-0.240674 0.0515383 -0.00837692 0.956059 0.0709534 -0.28446
-0.0767953 0.39707 -0.494836 0.20224 -0.979146 -0.0192835
0.0469562 0.323509 -0.427184 0.000469593 -0.999999 -0.00100181
-0.232767 0.380695 -0.291574 -0.822239 0.568178 0.0331202
0.229207 0.206614 0.0247039 -0.942671 -0.0424788 -0.331009
0.138028 -0.230359 -0.121345 0.335581 -0.825638 0.453549
-0.259414 -0.415113 -0.436196 0.0288146 -0.029362 0.999153
0.210172 0.276378 0.417064 -0.997218 0.0573179 -0.0476547
0.298258 0.223395 -0.436651 -0.559703 -0.47966 -0.675765
-0.133915 0.425569 -0.435469 0.054116 0.99371 -0.0980393
0.237827 -0.218412 -0.332286 -0.634293 0.662187 -0.398976
0.0243512 0.412922 -0.498328 0.00853751 -0.0218072 -0.999726
0.177305 0.419832 0.487065 -0.964819 -0.026708 0.261554
0.241044 0.0721098 0.166692 0.932722 -0.143629 0.330756
-0.221484 0.0868669 0.0603941 0.954304 0.0381712 -0.29639
0.211758 0.223874 0.153253 -0.999476 0.0148877 -0.0287504
0.392509 -0.101323 -0.498872 0.0268481 -0.0261057 -0.999299
-0.132384 -0.098245 0.0145099 0.379249 0.81489 -0.438321
0.099274 -0.111368 0.0123745 -0.266463 0.851132 -0.452296
0.0863913 0.426979 0.33175 0.035937 0.999089 -0.0230254
-0.00945809 -0.0664622 0.12292 0.0366827 0.865921 -0.498833
0.262853 0.2564 0.0748362 0.961264 0.184087 0.205141
-0.162515 -0.371715 -0.496898 0.39107 0.920359 -0.00175239
-0.0665796 0.00909925 0.375509 -0.128264 -0.878043 0.461074
0.417408 -0.34187 -0.43538 -0.0272865 0.0337869 0.999057
-0.394547 -0.341283 -0.437018 -0.000574628 0.00856298 0.999963
0.024422 0.41144 -0.342871 -0.635982 0.00738313 -0.771669
0.215748 0.189954 0.497739 -0.0138779 0.00880521 0.999865
-0.306246 -0.0538838 -0.0928677 -0.901156 -0.293232 0.31927
0.150835 0.387243 0.257824 -0.102556 -0.994681 -0.00957323
-0.143455 -0.216247 -0.0974995 -0.36462 -0.812504 0.454851
-0.326832 -0.150642 -0.413566 0.85982 0.37794 -0.343323
0.234835 0.28542 -0.373189 -0.689904 -0.723889 0.00418932
-0.263989 0.236054 -0.22685 0.80193 -0.594034 -0.063491
0.245348 0.355044 -0.0261479 0.958437 0.284954 0.014103
-0.334968 0.0778611 -0.325661 0.959687 -0.0927252 -0.265335
0.219389 0.288425 -0.217614 -0.64246 -0.764259 -0.0561633
0.304336 0.229404 -0.0846952 0.92921 0.279491 0.241771
0.0634843 0.385584 0.232088 0.063919 -0.997738 -0.0208369
0.0792504 -0.246803 -0.228578 -0.245167 0.873442 -0.420704
0.0262107 0.0760692 0.391291 -0.035128 0.880815 -0.472155
0.287701 -0.00741237 -0.179585 -0.940463 0.137242 -0.310958
-0.104223 0.0727135 0.424593 0.350119 -0.000183462 0.936705
0.245258 0.15619 0.329254 0.947467 -0.319844 0.00233267
0.163061 0.424769 -0.391553 0.170162 0.985354 0.0110226
-0.406101 -0.395733 -0.495397 -0.760021 -0.649887 0.00394654
-0.269277 0.0605385 -0.094729 0.956202 0.0451976 -0.289198
-0.182973 0.0938462 0.486689 -0.39905 -0.916893 -0.00809884
-0.174105 -0.425641 -0.442649 0.0398984 -0.999055 -0.0172567
-0.0244707 -0.0149863 0.219703 0.0590105 0.882994 -0.465659
0.248179 0.163253 0.489977 0.953856 -0.292078 0.0696408
0.380128 -0.0672616 -0.315339 0.916161 -0.205266 0.34426
-0.21868 -0.239647 -0.339462 0.583132 0.695458 -0.419876
-0.251248 0.263486 0.341114 -0.999514 0.0143242 -0.027682
0.14442 -0.342544 -0.438492 -0.275537 0.655739 -0.702913
-0.0348954 0.386506 0.0887123 0.063722 -0.997963 -0.0030409
-0.15876 0.116804 0.269594 0.972247 0.0182253 -0.233246
-0.109365 -0.315099 -0.258975 -0.265712 -0.828995 0.492102
-0.374507 0.164894 -0.331833 -0.934999 0.313386 0.166033
0.213291 0.226076 0.263226 -0.999992 -0.00394913 0.000615603
-0.211371 -0.20735 -0.149466 -0.489929 -0.776037 0.39716
0.270516 0.0831696 -0.100702 -0.95912 0.0174909 -0.282458
0.339477 0.240077 -0.350349 0.798347 0.60095 0.0387423
-0.185125 0.371675 -0.455938 0.628027 -0.77726 -0.0380807
0.0104624 0.425403 0.38351 0.0243482 0.999662 -0.00912757
0.0632321 -0.0440678 0.273175 0.148863 -0.882571 0.445992
0.179858 0.420935 -0.00463041 0.254851 0.966783 -0.0195156
0.264779 0.421084 -0.435836 0.00392088 -0.0427301 0.999079
-0.417578 -0.135518 -0.501279 0.0229503 -0.0160462 -0.999608
0.0594245 -0.199246 -0.131658 -0.188313 0.875161 -0.445681
-0.0360782 0.0065747 0.372785 -0.0243038 -0.886588 0.461921
0.161525 0.424597 -0.248031 0.165514 0.986201 0.0037071
0.379844 0.00395675 -0.283157 0.939269 -0.0986206 0.328705
-0.109867 0.385954 0.113619 -0.0429153 -0.998737 0.026136
0.403026 -0.106587 -0.416084 0.923389 -0.223032 0.312426
0.315726 0.390249 -0.500783 -0.0037669 0.00182251 -0.999991
0.41608 0.314978 -0.499688 0.00636308 -0.000854528 -0.999979
0.238337 0.370587 -0.341515 0.862868 0.504666 0.0277697
-0.212747 0.299795 0.283231 0.998186 -0.0469514 0.0376901
-0.200133 0.150232 0.144946 0.823298 0.566848 0.0294009
0.196657 -0.0165665 0.198562 0.736607 -0.589959 0.330695
0.0676982 -0.161364 -0.0646939 -0.222196 0.869145 -0.441833
-0.299156 0.232659 -0.0602244 -0.924276 0.285556 0.253322
-0.284145 0.105501 -0.150102 0.944833 -0.0014856 -0.327549
0.425689 0.0927097 -0.440734 0.999778 0.00928979 -0.0189167
-0.172157 0.423012 0.143539 -0.218752 0.972431 -0.0807833
0.282224 0.0625608 0.0385461 0.938392 -0.109413 0.327794
-0.0191077 0.387139 0.397609 -0.00389203 -0.999594 0.0282395
-0.221425 -0.104294 0.0124568 -0.647246 -0.654373 0.390985
-0.316575 0.238185 -0.46365 0.699016 -0.444764 -0.559966
0.203887 -0.00228724 0.203195 0.802245 -0.504478 0.319225
-0.426179 0.266281 -0.448578 -0.99781 0.0630018 -0.0201676
-0.178064 -0.164514 -0.035311 -0.461888 -0.76828 0.443177
-0.329811 -0.232662 -0.383207 -0.759089 -0.541004 0.362075
-0.225601 -0.340808 -0.40004 -0.466012 -0.772056 0.432159
-0.0633627 -0.120225 0.127608 -0.150288 -0.864561 0.479529
-0.295792 0.00280719 -0.0312949 -0.938726 -0.173876 0.297591
0.354063 -0.158783 -0.332965 0.795885 -0.472485 0.378583
0.173282 -0.136352 -0.101208 -0.536747 0.745939 -0.394306
-0.19722 0.413891 -0.0764835 -0.550718 0.832699 0.0576389
-0.195719 0.0975935 0.49033 -0.400399 -0.914199 -0.0626137
0.349094 0.221617 -0.499356 0.0521462 -0.0112269 -0.998576
0.285951 0.327173 -0.436216 0.00424684 -0.00426813 0.999982
0.382062 -0.414262 -0.444048 0.490158 -0.870979 0.0337672
0.217002 -0.340335 -0.476973 -0.483088 0.834143 -0.266141
-0.18991 0.415486 0.384894 -0.386485 0.921123 -0.0464999
0.244222 -0.0786855 -0.136663 -0.8004 0.472693 -0.368675
-0.285207 -0.00862534 -0.172577 0.908631 0.215408 -0.357757
0.116642 -0.159083 0.0301648 0.322847 -0.849273 0.417739
-0.245835 -0.261684 -0.419169 0.553257 0.726736 -0.407139
0.176159 -0.293498 -0.386216 -0.422386 0.789659 -0.445005
0.251727 0.173741 0.220892 0.989945 -0.137262 -0.0341859
-0.323311 0.172719 -0.122455 -0.959682 0.159521 0.231438
-0.16296 0.423372 0.23135 -0.201223 0.979241 0.024432
-0.0665545 0.426683 -0.322074 0.00721951 0.999769 -0.0202243
0.149486 -0.18506 -0.0435123 0.315405 -0.805915 0.501019
-0.32349 -0.188768 -0.309635 -0.783961 -0.501523 0.365896
-0.0724871 0.325313 -0.329862 -0.1362 -0.983283 0.120845
-0.0813763 -0.149289 -0.0476865 0.16806 0.878588 -0.447033
-0.212618 0.2261 0.226448 0.999276 -0.0380496 0.000248782
-0.19404 0.414782 -0.186541 -0.420329 0.906203 -0.0460386
0.206833 0.342605 0.47402 -0.931845 -0.362855 0.000492226
-0.137797 -0.335403 -0.427548 0.310731 0.836252 -0.451807
-0.0581458 0.418895 -0.499225 0.0466322 -0.00693236 -0.998888
0.420821 -0.00573155 -0.501364 -0.0124456 0.0127275 -0.999842
-0.314406 0.00741953 -0.251477 0.953526 0.066496 -0.293882
0.25194 0.295097 0.214079 0.998417 0.0285995 -0.0484316
-0.331292 0.375274 -0.500781 -0.286236 -0.957268 -0.0413267
-0.207462 -0.0315538 0.153049 -0.698154 -0.593436 0.400519
0.135961 -0.0974061 0.130869 0.367416 -0.830603 0.418454
0.230885 0.123804 0.0361694 -0.964081 -0.01239 -0.265318
-0.41608 -0.0474145 -0.498822 0.00135527 -0.00107018 -0.999999
0.364997 -0.291494 -0.438342 -0.00800864 0.00717707 0.999942
0.267145 0.161163 -0.0996675 -0.958845 -0.134609 -0.249995
0.306111 0.0244614 -0.0527475 0.924538 -0.135148 0.356321
0.0250629 0.386847 -0.147319 0.0360419 -0.999275 -0.0122473
-0.311707 0.108043 -0.256248 0.962084 -0.0957403 -0.2554
-0.233076 0.280448 0.500246 0.0566884 -0.0564621 0.996794
-0.417982 0.181036 -0.435681 -0.0385876 0.00303672 0.999251
0.163044 -0.0217694 0.111636 -0.648231 0.649867 -0.396824
-0.425262 -0.281823 -0.499515 -0.998909 -0.0432219 0.0176558
-0.246686 0.27158 -0.312834 0.724349 -0.686475 -0.0638087
-0.07423 0.425587 -0.329307 -0.00570872 0.999892 0.0135207
-0.385217 0.0212409 -0.302649 -0.953634 -0.0288198 0.299586
-0.326174 0.269132 -0.382227 -0.789356 0.608233 0.0834853
-0.257538 0.329739 -0.220885 -0.679275 0.733042 0.0351496
0.152679 0.416783 -0.498726 0.0125089 -0.0107718 -0.999864
-0.335872 0.0337077 -0.138838 -0.949177 -0.0726718 0.30624
-0.186807 0.41575 -0.0566121 -0.437243 0.898498 0.038985
0.145135 0.425346 -0.0900071 0.0258922 0.998964 -0.0374166
0.238972 -0.26694 -0.283374 0.53853 -0.725072 0.429251
0.286512 0.211278 -0.288676 -0.881636 -0.471928 0.00143671
-0.0414259 -0.111549 0.0330906 0.0870862 0.88108 -0.46488
-0.243874 0.35792 -0.0238837 -0.928096 0.361581 -0.0888666
0.242145 0.357861 -0.266128 0.90527 0.424437 -0.0184537
-0.288956 -0.157232 -0.188129 -0.758079 -0.535931 0.371611
-0.31847 0.182128 -0.399767 0.871891 -0.47945 -0.0996623
-0.212191 0.179067 0.462418 0.97557 0.219687 -0.000484617
-0.231634 0.294504 0.500122 0.0404628 -0.0421437 0.998292
0.231412 0.377351 0.28832 0.800047 0.599875 0.00866743
-0.0986481 0.421101 0.421821 0.324998 0.0125619 0.945631
-0.346566 -0.0615057 -0.215269 -0.94878 -0.179807 0.259781
0.183448 0.09862 0.50066 -0.0453556 0.0562011 0.997389
0.247182 0.0716852 -0.0300549 -0.978312 0.0628973 -0.197355
0.040373 0.427062 -0.0493357 -0.0663121 0.997757 0.00918744
-0.359414 0.0732948 -0.41674 0.959433 -0.191178 -0.207218
0.104688 0.387978 -0.00809423 -0.00640641 -0.994561 0.103963
-0.131493 -0.361925 -0.358774 -0.310004 -0.830155 0.4634
-0.409784 -0.0888259 -0.413961 -0.933161 -0.184579 0.30845
-0.0766086 -0.25016 -0.233264 0.166182 0.882364 -0.440247
0.165174 0.00739004 0.292355 0.59862 -0.679762 0.423766
0.212001 0.309311 0.313398 -0.999979 -0.00459926 0.00447298
9.95432e-05 -0.311807 -0.223689 0.0230957 -0.884536 0.465901
-0.265222 0.148352 0.0964145 -0.961392 0.00513901 0.275135
-0.21289 0.310348 0.143485 0.998987 0.0331516 -0.0304248
-0.249802 0.169107 0.348507 -0.968888 -0.247481 -0.00316213
-0.266653 0.205249 -0.153667 0.916695 -0.380945 -0.120626
0.292784 0.144142 0.00559638 0.979517 0.0309308 0.198973
0.26596 0.122142 0.0946133 0.955543 -0.0130893 0.29456
0.159834 -0.337225 -0.3301 0.360887 -0.826308 0.432407
-0.336307 -0.284535 -0.500756 -0.0277374 0.00669235 -0.999593
0.160305 -0.260738 -0.312053 -0.350475 0.767803 -0.536327
0.213161 0.301109 0.119966 -0.99553 -0.0944397 0.00120518
-0.183511 -0.200956 -0.226336 0.460516 0.781599 -0.420747
-0.253518 0.234758 0.13336 -0.962766 0.0828112 0.25734
-0.0422556 0.427199 -0.217973 0.0901917 0.995701 -0.0210864
-0.211287 0.0463123 0.250993 -0.893677 -0.308745 0.325604
0.427362 0.343903 -0.481987 0.994518 0.0877963 -0.0568019
0.252769 -0.413453 -0.500569 0.0142893 -0.0197116 -0.999704
-0.249869 0.415472 -0.500959 -0.00242493 0.0816152 -0.996661
-0.0123383 -0.0351918 0.299425 -0.0267026 -0.910269 0.413156
-0.167704 0.0443778 0.347467 -0.729775 -0.569347 0.378515
0.106274 0.367866 -0.426277 0.701358 -0.71225 0.0282309
-0.0574094 -0.332723 -0.381417 0.0810899 0.891855 -0.444993
0.348196 0.162467 -0.206964 0.951432 0.255823 0.171264
-0.12834 0.387749 -0.128521 0.0151692 -0.999842 -0.00927037
0.160853 0.385629 0.347338 -0.253 -0.967439 0.00731158
-0.368876 -0.0767518 -0.291434 -0.934341 -0.204445 0.291905
0.303465 -0.31649 -0.501266 -3.88213e-05 1.41283e-05 -1
0.194321 -0.096142 0.06706 0.596349 -0.720186 0.354541
-0.222534 -0.4203 -0.499943 -0.0256893 0.024677 -0.999365
-0.254214 -0.225241 -0.239075 -0.561685 -0.689556 0.457189
-0.013565 0.389301 0.183166 0.0226292 -0.999066 -0.0368033
0.154487 0.387053 0.162576 -0.132654 -0.99112 0.00921416
0.160419 0.386564 0.14977 -0.207247 -0.976228 -0.0634659
0.242696 0.088916 0.17676 0.965043 -0.0730636 0.2517
0.176268 0.131232 0.247838 -0.503485 0.863919 0.0121052
-0.0802597 0.0863669 0.402832 0.0647324 0.906289 -0.417673
0.23836 -0.190822 -0.15506 0.621415 -0.68092 0.387545
-0.143412 0.42664 0.297439 -0.0225171 0.999706 0.00896332
0.225844 0.123208 0.408721 0.76936 -0.638323 -0.0250797
0.312043 -0.228689 -0.343828 0.686573 -0.604189 0.404442
0.367896 0.382341 -0.436149 -0.0294244 0.018994 0.999387
-0.296366 0.0934421 -0.00311671 -0.942778 -0.0924827 0.320339
0.246296 0.157013 0.322863 0.971296 -0.224888 -0.077521
-0.0133834 0.423663 0.291532 -0.0515349 0.998564 0.014633
0.0321548 -0.356573 -0.31021 0.0580571 -0.879715 0.471944
-0.402164 0.0253931 -0.475989 0.971323 -0.0651572 -0.22866
0.0129994 -0.374178 -0.339594 0.012026 -0.879522 0.475706
-0.216142 0.397644 0.497388 -0.700329 0.713734 0.011101
0.393012 0.118357 -0.361389 0.936357 0.161561 0.311662
0.359619 0.180966 -0.288818 0.925464 0.336893 0.173263
0.416526 -0.0240077 -0.411706 0.970126 0.0309621 0.24062
-0.25029 0.295768 0.208629 -0.999953 -0.00677864 0.00695169
-0.0777087 -0.22301 -0.0687309 -0.141263 -0.899801 0.412799
0.207934 0.346606 -0.489488 -0.50095 -0.865335 -0.015669
-0.425165 -0.267826 -0.493082 -1 2.28369e-05 -0.000107064
-0.193723 0.414569 0.378924 -0.471164 0.878675 0.0770412
0.35755 0.0569179 -0.200891 0.960649 0.0309887 0.27603
0.161186 0.423749 0.263923 0.211736 0.977272 -0.0103765
0.284985 0.24794 -0.0133747 0.937801 0.302428 0.170492
0.155954 0.386987 0.36317 -0.198785 -0.980042 0.00115907
0.29939 0.290471 -0.292902 0.797061 0.602055 0.0471531
-0.248135 -0.0879106 -0.148672 0.786919 0.490776 -0.374028
0.082433 0.32642 -0.35137 0.574688 -0.81836 -0.00454855
-0.0799159 0.386127 0.334237 0.00358329 -0.999988 -0.00323651
0.104697 0.368927 -0.267836 0.738211 -0.673119 -0.0442107
0.0178787 0.386273 0.0233116 0.0281699 -0.999498 -0.0145156
0.252125 0.242071 0.340657 0.997182 -0.033599 0.0670685
0.112316 0.00853543 0.229053 -0.289015 0.847084 -0.446002
-0.370817 -0.138081 -0.354637 -0.905257 -0.324816 0.27387
0.160332 -0.289782 -0.245531 0.374965 -0.816138 0.439681
0.417391 -0.22427 -0.499686 -0.0169026 0.0134612 -0.999767
0.171476 -0.206837 -0.22369 -0.522215 0.791266 -0.318104
0.366086 0.0303762 -0.427125 -0.971964 -0.0631671 -0.226485
0.416619 0.14064 -0.499715 0.0588827 -0.00406544 -0.998257
-0.175587 0.407168 0.484896 0.945926 -0.0164377 0.323967
0.000554363 0.425865 0.276006 0.0224962 0.999745 -0.00183137
0.205019 0.151511 0.123649 -0.949156 0.0360197 -0.31274
0.272656 -0.296814 -0.384723 0.633163 -0.678207 0.373014
-0.303106 0.423215 -0.436151 0.0140024 -0.0486031 0.99872
-0.237251 0.373061 0.198669 -0.862585 0.504169 -0.0419649
0.414789 -0.223151 -0.501686 -0.0533138 0.103133 -0.993238
0.334923 -0.0752137 -0.194597 0.902203 -0.284332 0.324323
-0.36334 0.186412 -0.500098 -0.043834 0.0349357 -0.998428
-0.245178 0.0488611 0.146302 -0.937451 -0.145816 0.316107
-0.162001 -0.0201399 0.248278 -0.573011 -0.696093 0.432566
0.233446 0.353402 -0.499759 0.0546556 -0.00111601 -0.998505
-0.253265 -0.161652 -0.267972 0.708815 0.597598 -0.374777
-0.0586234 0.424891 -0.412628 0.0178406 0.99968 -0.0179257
0.223232 -0.0153489 -0.00452434 -0.868628 0.37587 -0.322811
0.0456168 0.426388 -0.424216 -0.125053 0.992126 0.00692085
-0.422994 0.351854 -0.46313 -0.992533 0.116635 0.0356966
0.286034 0.293063 -0.198911 0.822115 0.563515 0.0811088
-0.251984 0.2973 0.0607523 -0.888559 0.434766 0.146426
-0.0832855 -0.195085 -0.135036 0.213025 0.865454 -0.453442
-0.234006 0.223331 -0.00394153 0.95084 -0.197004 -0.238939
-0.0804541 0.42636 0.17615 -0.0241836 0.995844 0.087809
-0.395215 -0.185779 -0.434707 0.00188342 -0.00138705 0.999997
-0.0950362 0.426098 -0.0647343 -0.0834262 0.995123 0.0526299
-0.197172 -0.127186 -0.117009 0.656011 0.632407 -0.411959
-0.036087 -0.402624 -0.491465 0.108177 0.994084 -0.00971833
0.0855003 -0.284432 -0.303089 -0.230973 0.863766 -0.44784
-0.38627 0.117721 -0.487375 0.968054 -0.250326 -0.014451
-0.213048 0.186961 0.45994 0.994272 0.0869009 -0.0622198
0.238223 0.276153 0.500508 -0.0261948 0.0326115 0.999125
0.100575 0.428282 -0.148407 -0.00198599 0.999989 0.00431131
0.164777 0.384699 -0.164753 -0.422549 -0.906336 0.00280375
0.319392 0.289401 -0.499685 0.0644535 -0.0136418 -0.997827
0.0463773 -0.00100874 0.356408 0.11645 -0.887521 0.44581
0.0974839 0.38865 0.420345 -0.358427 0.0107341 0.933496
0.334908 0.111778 -0.13949 0.915003 0.0318756 0.402186
-0.212878 0.254639 0.40781 0.999986 -0.002642 0.00449469
0.245191 0.356925 -0.15266 0.930073 0.366628 -0.0234091
-0.284576 -0.161 -0.186451 -0.76668 -0.520024 0.376531
-0.0362975 0.329297 -0.444939 0.0420455 -0.753507 -0.656094
0.230263 0.291126 -0.378836 -0.569539 -0.818897 -0.0709502
0.277687 0.200614 -0.187836 -0.919886 -0.358675 -0.158627
-0.351359 -0.0596026 -0.392191 0.928174 0.188491 -0.32088
-0.249548 0.33109 0.430316 -0.989636 0.140956 -0.027429
-0.0097742 -0.253545 -0.117036 -0.0896897 -0.864561 0.49446
-0.273809 0.303727 -0.153431 -0.791665 0.603788 0.0933101
0.213108 -0.0959466 0.0475867 0.671856 -0.640536 0.371918
-0.250585 0.049612 0.137067 -0.897702 -0.163167 0.409278
0.138901 0.412591 -0.500041 -0.0308867 0.019672 -0.999329
0.279152 -0.123475 -0.268335 -0.835133 0.462731 -0.297377
-0.245807 -0.327244 -0.499113 0.0110382 -0.0242208 -0.999646
-0.188553 -0.286227 -0.25896 -0.445623 -0.782771 0.434385
-0.315879 0.260398 -0.266448 -0.869041 0.48103 0.115662
-0.211937 0.334234 -0.112059 0.975964 -0.208353 -0.0638943
-0.249298 0.177633 0.327367 -0.992681 -0.117621 -0.0273772
0.0386654 -0.188934 0.00650976 0.0491627 -0.869432 0.4916
0.299776 -0.230656 -0.440209 -0.4755 0.470408 -0.743381
0.0468536 -0.146719 0.085626 0.140976 -0.919912 0.365908
-0.257334 0.337743 -0.37113 -0.637122 0.769537 0.0434597
0.0241629 0.346118 -0.28059 -0.0193243 -0.372757 0.927728
0.425295 0.0209226 -0.492115 0.999722 -0.0126586 0.019871
-0.236824 0.138122 0.25385 -0.886424 -0.462873 0.000648513
0.42511 0.217243 -0.462884 0.999196 0.0400069 -0.00263269
0.0699017 -0.393625 -0.467033 -0.193131 0.875009 -0.443913
-0.26815 0.148832 0.0897833 -0.954973 -0.0161898 0.296252
0.326603 -0.153323 -0.418382 -0.838711 0.413496 -0.354379
-0.110708 0.390717 0.426734 0.37886 0.00394845 0.925446
-0.191999 0.413208 -0.357174 -0.492508 0.869559 0.0361044
-0.260705 0.153003 -0.0683087 0.961817 -0.0783673 -0.262235
0.209074 0.0569881 0.0905739 -0.936563 0.159073 -0.312323
0.273704 0.29717 -0.119748 0.801536 0.590777 0.0923204
0.111471 0.0370823 0.412179 0.209521 -0.870915 0.444532
0.112368 0.0612395 0.426128 -0.415086 0.00857744 0.909742
-0.272459 0.310577 -0.500269 0.0219216 -0.0164021 -0.999625
0.115281 0.425568 -0.31496 -0.0384843 0.999015 0.0220723
0.212739 0.283241 -0.0202755 -0.999995 0.00154537 -0.00286799
-0.193165 -0.0315439 0.0420113 0.756067 0.536937 -0.374247
0.118029 0.063625 0.326124 -0.618943 0.717619 -0.31927
-0.228243 0.384734 0.0772503 -0.783887 0.6209 -0.00194209
0.311566 -0.0427569 -0.104076 0.918817 -0.241445 0.312218
-0.0460139 -0.179303 0.0170294 -0.125111 -0.873266 0.470907
0.0674454 0.385987 0.125658 -0.0102697 -0.99886 0.0466272
-0.0261487 0.387835 -0.0545517 0.0157811 -0.999529 -0.0263194
0.349031 0.1355 -0.437061 -0.643795 -0.256983 -0.720755
0.258727 -0.00222223 0.0803782 0.908583 -0.277322 0.31236
-0.0442083 0.42538 -0.209914 -0.00183119 0.999666 0.0257821
-0.224865 -0.0466828 -0.0430867 0.793495 0.479765 -0.374423
0.166877 0.127282 0.341968 -0.382215 0.923736 0.0249556
-0.408222 -0.0112407 -0.379965 -0.957511 -0.0305108 0.286778
-0.300805 0.187954 -0.30012 0.909612 -0.368692 -0.191502
-0.076361 -0.407253 -0.417121 -0.181329 -0.847888 0.498202
0.251908 0.214478 0.426586 0.999857 0.0072122 -0.0153257
-0.249039 0.339707 0.350257 -0.971771 0.235215 -0.0183058
-0.244512 0.273392 -0.309789 0.725383 -0.683152 -0.0843987
-0.0138659 -0.295094 -0.192281 -0.0699619 -0.845446 0.529459
-0.000147406 -0.363935 -0.431107 0.0216196 0.864536 -0.502106
0.0973105 0.416471 0.422801 -0.326919 -0.0117542 0.944979
-0.0996112 0.36046 -0.404026 -0.800727 -0.598919 -0.0115113
-0.0998852 -0.0656381 0.215399 -0.229208 -0.86749 0.441502
-0.0574304 0.321942 -0.328461 -0.0523915 -0.99825 0.0274072
0.2114 0.339972 0.0394052 -0.947571 -0.319157 -0.0157339
-0.256085 -0.0153336 0.078282 -0.880057 -0.348542 0.322519
-0.291394 0.175344 0.00608125 -0.963975 0.0930839 0.249174
-0.424858 0.260432 -0.481999 -0.995699 -0.0674808 0.0634819
-0.177367 0.0950525 0.201273 0.922243 0.191936 -0.335601
-0.109601 0.370901 -0.265438 -0.00252644 -0.758044 0.652198
0.0851193 -0.0812234 0.190686 0.211583 -0.865772 0.45351
-0.253354 0.337925 -0.368885 -0.673091 0.734362 0.0875299
0.192621 0.366945 -0.0900557 -0.707295 -0.706784 -0.0137989
0.353452 -0.0591221 -0.390142 -0.933333 0.175456 -0.313218
0.00801584 -0.231645 -0.071578 -0.0125433 -0.878096 0.47832
0.204981 0.0592429 0.278051 0.94946 -0.206408 0.236478
-0.0828131 0.387476 0.23793 0.00801419 -0.999926 -0.00917155
0.0807697 -0.331582 -0.389154 -0.227926 0.883089 -0.410127
0.344783 0.000371924 -0.350997 -0.96067 0.0251483 -0.276552
0.37217 0.275956 -0.436088 0.00622408 -0.06269 0.998014
0.333939 -0.411799 -0.499233 -0.0173049 0.0141355 -0.99975
0.304103 -0.383455 -0.436045 0.00559939 -0.00508547 0.999971
-0.159652 0.423565 -0.286246 -0.116274 0.991741 -0.0541231
