ply
format ascii 1.0
comment Created by Open3D
element vertex 400
property double x
property double y
property double z
property double nx
property double ny
property double nz
end_header
-0.0214668 0.421228 0.0412497 0.34202 -0.939693 0
-0.129871 0.225469 -0.00183913 -0.527475 -0.528252 -0.665372
-0.337717 0.132486 -0.215909 0 0 -1
-0.0256824 0.499185 0.0757572 -0.0498461 0.998757 0
0.0823148 -0.216611 -0.215909 0 0 -1
0.181578 0.465834 -0.013915 0.34202 0.939693 -0
0.0635541 0.168477 0.200365 0.34202 0.939693 0
-0.396474 0.0519608 -0.146227 0.521432 -0.853293 0
-0.281967 0.204822 -0.137695 0.416006 0.416532 0.808356
-0.400821 -0.298765 -0.173761 -0.811938 -0.583743 0
-0.0602773 -0.378251 0.0776487 0.689485 0.157369 0.706997
0.0521933 -0.331166 -0.158651 -0.840024 -0.54255 0
-0.278086 0.415495 0.0212276 -0.563485 0.826125 0.00158213
0.12622 0.483655 -0.0707555 0.246758 0.969077 -0
0.335482 -0.0699672 -0.215909 0 -0 -1
0.295074 0.321211 -0.215909 -0 -0 -1
-0.491209 0.092707 0.0805642 -0.984808 0.173648 0
0.0243595 -0.434535 0.0886364 -0 0 1
-0.253693 -0.158294 -0.215909 0 0 -1
-0.189942 -0.0653299 -0.215909 0 0 -1
0.118074 0.127517 0.215909 0 0 1
0.454404 0.208256 -0.061654 0.911506 0.411286 0
0.100982 0.489542 0.00801163 0.198145 0.980173 0
0.0648597 -0.168002 0.212517 0.34202 -0.939693 0
0.041473 -0.318276 -0.0819202 -0.680176 -0.733049 0
0.0629353 -0.496005 -0.121124 0.149042 -0.988831 0
0.326585 -0.31284 0.0886364 0 -0 1
0.314964 -0.0460773 0.0826481 0.506274 0.493804 0.706997
-0.354315 0.0607497 -0.0510138 -0.149043 -0.988831 0
-0.207081 0.38712 -0.215909 0 -0 -1
0.349552 0.145524 -0.215909 0 0 -1
0.201757 0.437202 -0.215909 0 -0 -1
0.0883888 -0.31518 0.0886364 -0 0 1
0.420591 0.0612227 0.0886364 0 0 1
0.319052 -0.0423121 -0.137522 0.715868 0.698235 -0
-0.318072 0.329453 -0.215909 0 -0 -1
-0.12474 0.164999 -0.150896 -0.219095 -0.219723 0.950641
-0.139267 0.155882 -0.215909 0 0 -1
-0.19756 0.278184 0.0080133 -0.442647 -0.443361 -0.77942
-0.00154788 0.302177 -0.162694 0.0498446 0.998757 0
-0.187719 0.366456 0.0886364 -0 0 1
-0.0604779 -0.0879816 0.07516 0.563319 0.826239 0
-0.0797779 0.0709505 0.200759 0.749781 -0.661686 -0.000185854
-0.461994 0.191016 -0.131455 -0.930874 0.365341 0
-0.0789716 -0.209665 -0.215909 -0 0 -1
0.297416 0.25062 0.0886364 0 0 1
0.0791654 -0.0716436 -0.162704 -0.749781 0.661686 0
0.384418 0.319644 -0.0626622 0.781832 0.623489 0
-0.0572605 0.174289 -0.103128 -0.641227 -0.642354 0.419774
0.402727 -0.0474296 -0.0431199 -0.642782 0.766049 0
0.0214348 -0.104589 0.200772 -0.198145 0.980173 0
-0.12033 0.109027 0.0277259 0.0619791 0.0619897 -0.996151
-0.23405 0.226986 0.0886364 0 0 1
0.499904 -0.00385175 -0.0429236 0.999689 -0.0249302 9.8174e-18
-0.0260501 0.17816 0.102202 -0.149042 0.988831 0
0.0316863 -0.101952 -0.106959 -0.294755 0.955573 0
-0.477917 -0.146914 0.0701771 -0.962624 -0.270841 -0
-0.47021 -0.169929 -0.201604 -0.947928 -0.318486 -0
0.285442 0.397325 -0.215909 0 -0 -1
-0.473576 0.159908 0.0869269 -0.947928 0.318486 0
-0.0117666 -0.499845 -0.124983 0 -1 0
0.0966233 0.0454417 0.145647 -0.911506 -0.411287 0
-0.433913 -0.248131 0.0270064 -0.866025 -0.500001 -0
-0.169274 0.300693 -0.215909 0 0 -1
-0.0756691 0.188134 -0.0181985 -0.611867 -0.612923 -0.499944
0.30242 -0.229014 0.0886364 0 -0 1
-0.387524 -0.144426 -0.215909 0 0 -1
0.166513 0.197014 0.0886364 0 0 1
0.11646 -0.48614 -0.0629465 0.246758 -0.969077 0
-0.000651823 -0.115426 -0.21303 0 0.707216 -0.706997
-0.262608 0.334994 0.0122193 -0.407515 -0.408349 -0.816812
0.139764 -0.113525 0.0912708 0.781832 -0.62349 0
0.0310815 0.135339 -0.215909 0 0 -1
-0.319861 -0.0431414 -0.107366 -0.715868 0.698235 0
0.454092 0.208946 0.0272927 0.911506 0.411286 0
0.303134 0.0108118 -0.0137796 0.984808 -0.173645 0
0.220249 -0.276414 0.0886364 0 -0 1
0.040716 0.409699 -0.0561014 -0.680171 -0.733054 0
0.115935 0.090884 -0.215909 0 0 -1
-0.332789 0.262606 0.0886364 0 0 1
0.326029 0.37893 -0.143907 0.642787 0.766045 -0
-0.241547 0.147571 -0.215909 0 0 -1
-0.103814 -0.0572787 -0.215909 -0 -0 -1
0.334086 -0.371882 -0.122336 0.680174 -0.733051 0
0.0494614 0.414855 -0.214094 -0.48103 -0.518426 -0.706997
-0.0604925 -0.0879717 0.193108 0.563319 0.826239 0
-0.18327 0.0842529 -0.123198 0.530867 0.531584 0.659999
0.106077 0.0121351 -0.141879 -0.992239 -0.124344 0
0.0476942 0.324868 -0.0441169 -0.781832 0.623489 0
0.00244782 0.302222 0.00809629 -0.0498446 0.998757 0
0.179992 -0.00470345 0.135708 0.999689 -0.0249291 0
0.415347 0.0332182 -0.15632 -0.840022 -0.542552 0
-0.477205 -0.069107 0.0886364 -0 0 1
-0.0816522 0.456562 0.0886364 0 -0 1
-0.0854313 -0.155656 0.215909 -0 0 1
-0.304125 0.185855 0.0886364 0 0 1
0.444839 -0.227954 -0.194263 0.889872 -0.45621 0
0.238869 0.439074 0.0871771 0.478253 0.878222 0
0.385166 -0.240255 0.0886364 0 0 1
-0.114602 -0.179846 0.0886364 0 0 1
0.494706 -0.0722022 -0.0520547 0.992239 -0.124345 0
0.0132866 -0.28889 -0.215909 0 0 -1
0.122991 -0.395956 -0.215909 -0 0 -1
0.233372 0.220898 0.0886364 0 0 1
0.436532 0.202606 -0.215909 0 0 -1
0.499675 -0.013042 -0.118392 0.999689 -0.0249302 0
0.47371 -0.159509 -0.0569422 0.947928 -0.318486 0
-0.355593 -0.0609424 -0.165361 -0.149043 0.988831 0
0.190387 0.462184 -0.113108 0.388434 0.921476 0
0.0506149 0.497276 0.0883002 0.099569 0.995031 0
-0.121648 0.48492 -0.000737809 -0.237893 0.971291 0
0.496336 0.0591913 -0.0738436 0.992239 0.124345 -0
0.0908582 0.257027 0.0886364 -0 0 1
-0.422642 0.267063 -0.130966 -0.845725 0.53362 0
0.418578 -0.0275524 0.0261015 -0.889874 0.456206 0
-0.0690857 0.10046 -0.152749 -0.165298 -0.165763 0.972214
0.102426 -0.0301443 0.0834123 -0.962624 0.27084 0
0.257507 0.428426 -0.0435354 0.521435 0.853291 0
-0.250167 0.305908 0.0886364 0 0 1
0.36542 0.330888 -0.215909 -0 -0 -1
0.0448649 0.0968914 0.0914223 -0.433884 -0.900969 0
-0.325662 0.201742 -0.0357395 0.672444 0.67316 -0.307693
-0.130125 0.234682 -0.215909 0 0 -1
-0.131646 0.427329 -0.215909 0 -0 -1
-0.305864 -0.0210271 -0.0401317 -0.947926 0.318492 0
-0.0167045 -0.179281 0.204631 -0.0995685 -0.995031 0
-0.375531 -0.329883 -0.0810035 -0.749781 -0.661686 0
-0.216727 0.169161 -0.149158 0.245247 0.245364 0.937897
-0.491136 0.0931184 -0.116838 -0.984808 0.173648 0
-0.356365 -0.179814 0.0886364 -0 0 1
-0.221398 0.0976111 -0.0356911 0.672685 0.67341 -0.306618
-0.304563 -0.0169666 -0.191962 -0.962628 0.270827 0
0.255671 -0.359891 0.0886364 0 -0 1
-0.416862 0.0307309 -0.0500854 0.866024 -0.500002 0
-0.118543 -0.283252 0.0886364 0 0 1
-0.436595 0.243484 -0.202132 -0.866025 0.500001 0
0.393129 -0.30872 -0.0122271 0.781832 -0.623489 0
0.15914 -0.388947 0.0886364 0 -0 1
-0.105996 0.012875 0.0343187 0.992564 -0.121728 -3.58475e-05
-0.216826 -0.450368 0.0733314 -0.433885 -0.900968 -0
-0.150683 0.476604 -0.118595 -0.294755 0.955573 0
-0.269823 -0.0307026 0.0886364 0 0 1
0.278799 0.362618 0.0886364 0 0 1
-0.179654 0.0120616 0.153243 -0.997204 0.0747307 0
-0.476578 0.144923 -0.215909 0 -0 -1
0.0406942 0.304958 0.0870401 -0.398389 0.58433 0.706997
0.271207 -0.420053 0.0100286 0.521435 -0.853291 0
0.263114 -0.108741 0.0886364 0 0 1
-0.270315 0.143249 -0.0832458 0.689428 0.690276 0.219564
0.460846 -0.193942 0.0717879 0.930874 -0.365341 0
-0.191988 -0.461509 -0.135736 -0.388434 -0.921476 0
0.141158 0.321787 0.0886364 0 0 1
-0.051714 -0.0934045 -0.143944 0.478253 0.878222 -0
0.303479 0.0126336 -0.193496 0.974927 -0.222526 0
0.196989 -0.146026 -0.215909 0 0 -1
-0.424067 -0.0635585 -0.215909 0 0 -1
0.324241 0.0471743 0.0663518 0.642782 -0.766049 0
0.385286 0.318556 -0.142489 0.781832 0.623489 0
-0.0862769 0.249389 0.0886364 0 0 1
0.426291 -0.261267 -0.0494296 0.840026 -0.542546 0
-0.269737 0.420952 -0.139383 -0.521435 0.853291 0
0.478982 -0.143141 -0.199969 0.962624 -0.270841 -0.000235179
-0.486104 0.116522 -0.00758853 -0.974928 0.22252 0
0.041715 -0.498167 -0.0102685 0.099569 -0.995031 0
0.193816 -0.460739 -0.127226 0.388434 -0.921476 0
-0.313955 0.0361838 0.0710729 -0.811936 -0.583746 0
-0.0215903 -0.30609 -0.152849 0.34202 -0.939693 0
0.0119165 0.117373 -0.0711796 -0.703885 -0.704947 0.0871552
-0.418786 -0.272887 -0.109106 -0.840026 -0.542546 0
0.341459 -0.147785 0.0886364 0 0 1
-0.356161 -0.350713 -0.149241 -0.715867 -0.698237 0
-0.0776181 0.493791 -0.135482 -0.149042 0.988831 0
0.478125 -0.14619 0.023256 0.961722 -0.274029 0
-0.195667 0.199484 -0.215909 0 0 -1
-0.38583 0.31789 -0.176628 -0.781832 0.623489 -0.000272067
0.256628 0.428963 -0.133861 0.521435 0.853291 -0
0.322595 -0.381811 0.047816 0.642787 -0.766045 0
-0.217337 0.0403611 0.0886364 0 -0 1
-0.425089 -0.00106885 0.0129263 0.999689 0.0249272 0
0.201013 -0.457705 -0.0129185 0.388434 -0.921476 0
0.189339 0.0381121 -0.215909 0 0 -1
-0.018976 0.426556 -0.208622 0.208456 -0.675797 -0.706997
-0.169303 -0.373687 0.0886364 0 0 1
0.396084 -0.305015 -0.105737 0.781832 -0.623489 0
-0.149756 0.0236605 -0.0858006 0.686968 0.687759 0.234653
0.138719 -0.0236966 -0.215909 0 0 -1
-0.497936 0.0441779 -0.0585111 -0.997204 0.0747297 0
0.3514 0.06023 -0.0518708 0.198145 -0.980173 0
0.180137 -0.245102 -0.215909 0 0 -1
0.151697 -0.247144 0.0886364 0 0 1
-0.22687 -0.445531 -0.193211 -0.433885 -0.900968 0
0.0601079 0.376487 -0.134138 -0.974928 -0.222519 0
0.484367 0.123988 0.0752765 0.962624 0.270841 -0
-0.19419 0.460581 0.00754065 -0.388434 0.921476 0
-0.283863 -0.132991 0.0886364 0 0 1
-0.0276631 0.131582 -0.008824 -0.565179 -0.566081 -0.600104
0.174999 0.177201 -0.215909 -0 0 -1
0.170082 0.0591168 0.214661 0.947928 0.318486 0
0.0166765 0.255975 -0.215909 0 0 -1
0.147561 0.409142 0.0886364 0 0 1
0.238628 -0.0256898 0.0886364 0 0 1
-0.100762 -0.0353145 -0.0881193 0.947927 0.318488 0
0.0843221 -0.0654967 0.00598004 -0.781832 0.623489 0
-0.0487565 0.401073 -0.0271632 0.781832 -0.623489 0
-0.448644 0.220532 -0.0398646 -0.889872 0.45621 0
-0.0054623 -0.424857 -0.135508 0.0995629 0.995031 -0
-0.20498 0.0161008 -0.215909 0 0 -1
-0.438184 0.240732 0.0352873 -0.866025 0.500001 0
0.061273 0.345364 -0.206836 -0.680784 0.191541 -0.706998
0.0947503 0.490802 -0.205935 0.198145 0.980173 -0
-0.186542 -0.0455858 0.0886364 0 0 1
-0.286846 0.25616 0.0255003 0.167709 0.167802 -0.971451
-0.27913 -0.414656 -0.158204 -0.56332 -0.826239 0
0.247002 -0.0588532 -0.215909 0 -0 -1
0.140085 0.479873 0.0712431 0.294755 0.955573 0
-0.00110722 -0.302176 0.0334804 -0 -1 0
-0.275334 0.404601 -0.0616265 -0.70615 -0.707192 -0.0350795
-0.390444 -0.312087 0.0799391 -0.781832 -0.623489 -0
-0.242242 0.437238 0.0778178 -0.478253 0.878222 0
-0.340318 -0.19565 -0.215909 0 0 -1
-0.485874 -0.11753 -0.09003 -0.974928 -0.22252 -0
-0.0349625 -0.498722 0.0767463 -0.0498461 -0.998757 -0
-0.164035 0.469917 0.0886364 -0 0 1
0.142893 0.33606 -0.215909 -0 -0 -1
-0.374977 0.0604111 0.0208275 0.198145 -0.980173 0
-0.338623 -0.367671 0.0304005 -0.680174 -0.733051 -0
-0.0959938 -0.325999 -0.215909 0 -0 -1
0.419121 -0.0816822 -0.215909 0 0 -1
-0.333436 -0.254828 0.0886364 0 0 1
-0.408975 0.0468859 0.0808396 0.48103 -0.518426 0.706996
-0.10386 0.024743 -0.161966 0.974928 -0.222521 0
0.498564 0.0357889 0.0559002 0.997204 0.0747297 0
0.162554 -0.077523 0.147226 0.911506 -0.411288 0
-0.0116765 -0.474063 -0.215909 0 0 -1
-0.104806 0.142894 0.215909 0 0 1
0.228085 0.147737 0.0886364 0 -0 1
-0.055003 0.091531 0.0508595 0.511903 -0.859043 0
-0.189295 0.159651 0.0256708 0.167709 0.167802 -0.971451
0.404297 0.293931 0.0396373 0.811938 0.583743 0
0.0327718 -0.17707 0.137346 0.198146 -0.980172 0
0.408118 0.0817916 -0.215909 0 0 -1
-0.117166 0.0845532 -0.215909 0 0 -1
-0.0502936 -0.094178 -0.0684756 0.478253 0.878222 -0
0.158792 0.0849361 0.126078 0.889872 0.45621 0
-0.245067 0.301959 -0.215909 0 0 -1
-0.0612017 -0.369389 -0.16587 0.997204 0.0747317 0
0.408155 0.0423795 -0.00990991 -0.715873 -0.69823 0
-0.007979 -0.106497 -0.0026567 0.0498457 0.998757 -0
0.0619083 0.371505 0.078037 -0.701728 -0.0879369 0.706997
-0.0265038 -0.219118 0.0886364 0 -0 1
-0.347649 -0.290586 -0.215909 0 0 -1
-0.268633 -0.256653 -0.215909 0 0 -1
-0.197077 -0.282198 0.0886364 0 0 1
0.136071 -0.481111 0.0452569 0.294755 -0.955573 0
-0.0876775 0.0609605 0.133502 0.81057 -0.585642 -0.000198238
-0.186847 -0.223464 -0.215909 0 0 -1
0.0436103 0.406947 0.023057 -0.715873 -0.69823 0
0.294072 0.404303 0.0178594 0.603805 0.797132 0
-0.0366047 -0.49864 0.00246971 -0.0498461 -0.998757 0
-0.154557 0.250688 -0.12513 -0.534622 -0.535273 0.653958
-0.147187 0.0794106 0.215909 0 0 1
-0.312153 0.358111 -0.14932 -0.246298 -0.247018 0.937187
0.072459 -0.13182 -0.215909 0 0 -1
-0.493213 -0.0813428 0.0139036 -0.984808 -0.173648 -0
-0.00662178 0.424741 -0.127204 0.0995629 -0.995031 0
0.495957 -0.0511478 -0.215909 0 0 -1
-0.182757 0.307301 -0.0884995 -0.679213 -0.68039 0.275207
0.278635 -0.272669 -0.215909 0 0 -1
0.497644 -0.0480675 0.085437 0.997204 -0.0747297 0
-0.269361 -0.421181 -0.0889805 -0.521435 -0.853291 0
-0.25175 -0.382748 0.0886364 0 0 1
-0.457091 -0.2023 -0.133235 -0.911506 -0.411286 0
0.490715 -0.0958014 -0.12275 0.984808 -0.173648 0.000242977
-0.265154 -0.232135 0.0886364 -0 0 1
0.240293 0.0497031 0.0886364 -0 -0 1
-0.338642 -0.367654 -0.214775 -0.680174 -0.733051 0
0.29528 -0.403388 -0.0688015 0.603805 -0.797132 0
0.141573 -0.479414 -0.213443 0.294755 -0.955573 0
-0.152235 0.196037 0.0886364 0 0 1
-0.402021 -0.0582746 0.0854048 0.398391 0.584329 0.706997
0.0399756 -0.0990089 0.0573318 -0.388435 0.921476 0
-0.43485 -0.226379 -0.215909 0 0 -1
0.0999135 -0.0376507 0.187313 -0.930874 0.36534 0
-0.0501359 0.497324 -0.0449911 -0.099569 0.995031 0
-0.31055 -0.391821 -0.0407029 -0.603805 -0.797132 0
-0.499037 0.0294776 0.0259404 -0.997204 0.0747297 0
-0.322496 0.254593 -0.215909 0 -0 -1
0.235713 -0.192582 0.0886364 0 0 1
0.49435 0.0748927 -0.205425 0.984808 0.173648 -0
0.3904 -0.0553273 -0.137605 -0.433884 0.900969 0
-0.427697 -0.19442 0.0886364 -0 0 1
-0.308449 0.363324 0.0886364 0 0 1
0.0887203 0.172325 -0.215909 0 0 -1
-0.322018 0.0452259 -0.123257 -0.680175 -0.73305 0
-0.105814 0.235273 -0.067103 -0.706098 -0.707125 0.037402
-0.102668 0.489282 -0.215309 -0.206996 0.978342 0
-0.381942 0.26802 -0.0192644 0.618724 0.619469 -0.483155
-0.0201931 0.194744 -0.215909 -0 0 -1
-0.136074 -0.48111 0.0842965 -0.294755 -0.955573 -0
0.432505 0.250568 -0.12977 0.866025 0.500001 -0
0.211812 0.303653 0.0886364 0 0 1
-0.158046 -0.0857362 0.215909 -0 0 1
0.351951 -0.355029 -0.0527402 0.715867 -0.698237 0
0.0557357 0.0910589 0.0133156 -0.521436 -0.853291 0
-0.097918 0.373891 0.0886364 0 -0 1
-0.197342 -0.303263 -0.215909 0 0 -1
0.21543 -0.45104 0.0823283 0.433885 -0.900968 0
0.477377 0.148597 -0.213775 0.947928 0.318486 -0
-0.391812 0.306422 0.0886364 0 0 1
-0.020772 -0.421481 -0.0400571 0.34202 0.939693 0
0.040528 -0.42476 -0.215909 0 -0 -1
-0.132298 -0.122201 0.147358 -0.749781 -0.661686 -0
0.0644563 0.495775 -0.119651 0.149042 0.988831 0
-0.411501 -0.0385544 -0.0970998 0.781831 0.62349 -0
0.412617 0.14594 0.0886364 0 0 1
-0.104322 -0.0227229 0.19091 0.974928 0.222521 -6.90693e-06
-0.164084 0.285727 0.0886364 0 0 1
-0.212748 0.121838 0.0886364 0 0 1
-0.15737 0.0875335 0.136647 -0.866026 0.5 0
-0.123494 -0.408267 -0.215909 0 0 -1
0.29609 -0.181067 -0.215909 0 0 -1
0.223405 -0.323513 -0.215909 0 0 -1
0.136422 -0.314234 -0.215909 0 0 -1
0.345297 0.232193 -0.215909 0 0 -1
-0.243942 0.325543 -0.134817 -0.451195 -0.451923 0.769538
-0.20318 -0.115899 0.0886364 0 0 1
0.489445 0.101883 -0.00225472 0.974928 0.22252 -0
-0.498208 -0.0405367 -0.180242 -0.997204 -0.0747297 0
-0.47327 -0.160819 -0.0128551 -0.947928 -0.318486 -0
0.339039 -0.319952 -0.215909 0 0 -1
0.105557 0.0161742 -0.00901518 -0.984808 -0.173648 0
-0.00237187 0.499845 -0.215406 0 1 -0
-0.267661 -0.370091 -0.215909 0 0 -1
-0.498627 -0.0349542 -0.0580559 -0.997204 -0.0747297 0
-0.0261288 0.103516 0.147642 0.246759 -0.969077 0
-0.194176 -0.187166 0.0886364 0 0 1
0.00898211 -0.215425 -0.215909 0 -0 -1
-0.394905 0.227009 0.0886364 0 0 1
0.129863 0.412767 -0.215909 0 -0 -1
0.143613 -0.108691 0.211955 0.811938 -0.583744 0
-0.414172 0.0818967 -0.215909 0 0 -1
0.0842681 0.0655645 -0.0802117 -0.781832 -0.623489 0
-0.0900223 -0.133857 -0.215909 -0 0 -1
-0.191256 0.461818 -0.185984 -0.388434 0.921476 0
0.345133 0.16481 0.0886364 0 0 1
0.355219 0.351679 0.0676921 0.715867 0.698237 0
-0.126463 -0.483593 -0.0224447 -0.246758 -0.969077 -0
0.323967 -0.0469442 -0.0528274 0.642782 0.766049 -0
0.0597993 -0.377839 -0.040436 -0.974928 0.222519 0
-0.357298 -0.0611332 0.00809455 -0.0995682 0.995031 0
-0.362748 0.107246 0.0886364 0 -0 1
-0.0837818 -0.0661743 -0.014772 0.781832 0.623489 -0
0.456186 -0.204306 -0.112943 0.911506 -0.411286 0
0.0668304 -0.495417 -0.207075 0.149042 -0.988831 0
0.0495748 0.0945694 -0.138588 -0.478253 -0.878222 0
0.0604808 -0.374569 0.036525 -0.984807 0.17365 0
-0.0471227 0.1738 0.179393 -0.246757 0.969077 0
-0.266502 0.162183 -0.00884425 0.572683 0.573403 -0.58587
-0.134871 -0.481452 -0.18451 -0.246758 -0.969077 0
-0.296005 0.402836 -0.205983 -0.603805 0.797132 0.00018632
0.413104 0.273169 -0.215909 -0 -0 -1
-0.457073 0.0128408 -0.215909 0 -0 -1
0.280645 -0.413623 -0.138159 0.56332 -0.826239 0
0.00381563 -0.106705 0.121683 -0.0498457 0.998757 0
-0.0368646 0.307106 0.0831065 0.398389 0.58433 0.706997
0.327895 0.377364 -0.0383548 0.642787 0.766045 -0
-0.162289 0.0530976 -0.0139818 0.5937 0.594342 -0.542474
0.310049 0.030104 -0.111121 0.866024 -0.500002 0
0.268326 0.190098 -0.215909 0 0 -1
0.385342 -0.140829 -0.215909 0 0 -1
-0.105875 -0.0137541 0.109001 0.992239 0.124344 -1.45167e-05
-0.269514 0.061311 -0.215909 0 0 -1
-0.278936 -0.0746871 -0.215909 0 0 -1
0.0433992 0.0975657 0.17382 -0.388435 -0.921476 0
-0.292738 -0.330751 0.0886364 -0 0 1
0.0848489 -0.0648362 -0.0879139 -0.781832 0.623489 0
0.478358 0.145345 -0.128527 0.962624 0.270841 0
0.280943 -0.398445 -0.215909 -0 0 -1
-0.26764 -0.422233 0.00588476 -0.521435 -0.853291 0
0.370053 -0.249233 -0.215909 0 0 -1
0.0987019 -0.150625 0.15745 0.563319 -0.826239 0
0.218681 -0.449475 -0.204574 0.433885 -0.900968 0
-0.087059 0.344847 -0.215909 0 0 -1
0.100773 0.149213 0.12338 0.563319 0.826239 -0
-0.105991 0.145591 0.121036 -0.603805 0.797132 0
0.0771751 -0.201834 0.0886364 0 0 1
0.249208 0.10547 -0.215909 -0 0 -1
-0.0562138 0.388488 -0.0935223 0.911505 -0.411288 0
-0.334897 0.278291 -0.146396 0.312047 0.312282 0.897277
0.144943 -0.101471 -0.215909 0 0 -1
-0.0586999 0.345371 0.0219597 0.947927 0.318488 -0
-0.0186534 0.120649 0.215909 0 0 1
0.384903 0.233168 0.0886364 0 0 1
0.102345 0.254331 -0.215909 0 0 -1
-0.400703 -0.29893 -0.01197 -0.811938 -0.583743 -0
-0.357608 0.335875 0.0268096 0.117888 0.117963 -0.985996
-0.0164288 0.304398 -0.0737392 0.246754 0.969078 -0
0.204527 0.263655 -0.215909 0 0 -1
-0.212589 -0.452408 -0.0316205 -0.433885 -0.900968 -0
0.390981 -0.0836639 0.0886364 0 0 1
