ply
format ascii 1.0
comment Created by Open3D
element vertex 400
property double x
property double y
property double z
property double nx
property double ny
property double nz
end_header
-0.167148 -0.324872 0.0570403 0 0 1
-0.319543 -0.293503 -0.0332851 0 1 -0
0.220704 0.150541 0.0685895 0.193471 0 0.981106
-0.101161 0.0416378 0.0318709 -0.0932317 0 0.995644
0.117777 0.244205 -0.0167556 0.0806109 0 0.996746
-0.238813 -0.112471 -0.0811356 0 0 -1
0.284037 0.455098 -0.00943776 1 0 0
0.5 0.146168 -0.0336473 1 0 0
-0.475193 -0.0772943 -0.0266258 -0.952162 -0.305594 0
-0.47085 0.0908258 -0.0716513 -0.952162 0.305594 0
-0.437946 0.037962 -0.0811356 0 0 -1
0.323567 0.127084 -0.0811356 0 0 -1
0.420859 0.32324 0.0570403 0 -0 1
0.312907 -0.154065 -0.0125185 -0 -1 0
-0.198822 -0.125235 0.0227259 -0.0932317 0 0.995644
-0.470076 -0.433902 0.0400361 -0.382683 0 0.92388
0.390408 0.332924 -0.0151918 0 1 0
0.352257 -0.267595 -0.0811356 0 0 -1
-0.0735702 0.327321 0.0570403 0 0 1
-0.3894 -0.375936 0.0570403 0 0 1
-0.207537 0.351107 0.0570403 0 0 1
0.19974 -0.446747 -0.0811356 0 0 -1
0.5 -0.130904 -0.0673421 1 -0 0
0.245679 -0.228259 -0.0811356 0 0 -1
-0.229435 0.0797371 -0.0811356 0 0 -1
-0.440804 -0.492862 -0.0610923 -0.382683 -0.92388 0
0.342942 0.272282 -0.0753186 0.324151 -0 0.946005
-0.225709 -0.419726 -0.0811356 0 0 -1
-0.0401316 -0.373634 0.0570403 0 0 1
-0.150008 0.497742 -0.0766585 0 1 0
0.0163742 0.17041 -0.0811356 0 0 -1
-0.0893939 -0.46303 -0.0811356 0 0 -1
0.349145 0.293503 0.033443 0 -1 0
0.250507 0.447686 -0.0811356 0 0 -1
0.279514 0.0462844 -0.0811356 0 -0 -1
-0.240082 0.293503 -0.0689374 0 -1 0
-0.157997 0.0158354 -0.0811356 0 0 -1
0.363479 -0.154065 0.0240652 0 -1 0
-0.190769 0.151995 0.00455795 -0.164399 0.986394 0
0.308895 -0.489063 -0.0811356 0 0 -1
0.294896 0.316312 0.0570403 0 0 1
0.348613 -0.497742 0.0561788 0 -1 0
-0.33809 0.126551 -0.0811356 0 0 -1
-0.464225 -0.0381146 -0.0811356 0 0 -1
0.433513 -0.497742 0.0268775 0 -1 0
0.140209 0.154065 -0.0101867 0 1 0
0.169786 0.102575 -0.0811356 0 0 -1
-0.400766 0.0154103 0.003816 -0.0932317 0 0.995644
-0.382915 0.496337 -0.0568239 -0.698241 0 0.715863
0.144011 -0.154065 0.025791 0 -1 0
0.0516758 0.0122659 -0.0811356 0 -0 -1
-0.145943 0.0801731 -0.0811356 0 0 -1
0.49365 0.328577 0.0555057 1 0 0
0.0150307 -0.204348 -0.0811356 0 -0 -1
0.366865 0.154065 -0.0139982 0 1 0
0.337665 -0.102619 0.0431429 0.23322 -0 0.972424
0.413153 0.31368 -0.0811356 -0 -0 -1
-0.444266 0.359125 -0.0748224 -0.382683 0 -0.92388
0.105701 0.0899822 -0.0811356 0 -0 -1
-0.317293 0.481386 -0.0811356 0 0 -1
0.284037 -0.358422 -0.050821 1 0 0
0.26174 -0.0213638 -0.0811356 0 -0 -1
0.409409 0.0496622 -0.0396316 0.766037 0 -0.642797
0.205859 -0.354336 -0.0811356 0 0 -1
0.243463 -0.293503 -0.0109917 0 1 0
0.14768 0.0536169 0.0789715 0.0774039 0 0.997
0.0969613 0.239189 -0.0811356 0 0 -1
0.303677 -0.497742 -0.00729891 0 -1 0
-0.368221 -0.030626 -0.0811356 0 0 -1
0.296939 0.478761 -0.0811356 0 0 -1
-0.309646 0.293503 0.0436217 0 -1 0
0.342654 -0.0506021 -0.0811356 0 -0 -1
0.246806 -0.154065 -0.0179623 -0 -1 0
-0.142215 0.424176 -0.0811356 0 0 -1
0.170343 -0.497742 -0.0342124 0 -1 0
-0.174407 -0.0890806 -0.0811356 0 0 -1
-0.166868 -0.293503 -0.00842581 -0 1 0
-0.191786 -0.151825 -0.0599886 -0.164399 -0.986394 -0
0.056773 -0.105322 0.0776501 -0.144246 0 0.989542
0.493479 -0.154065 -0.0050453 0 -1 -0
0.5 0.0647279 -0.04035 1 0 0
-0.47068 0.367082 0.039786 -0.382683 0 0.92388
-0.336212 -0.413752 -0.0811356 0 0 -1
-0.384022 -0.428288 -0.0379452 -0.623472 0 -0.781846
0.477334 -0.293503 0.0398984 0 1 0
-0.101832 -0.497742 0.0428695 0 -1 0
0.480714 -0.0978104 0.0351039 0 0 1
-0.499825 -0.000544853 -0.00779971 -0.952162 -0.305594 -0
-0.097424 -0.430871 0.0570403 0 0 1
0.00279651 0.463036 -0.0811356 0 0 -1
-0.240344 -0.491272 -0.0811356 0 0 -1
0.304057 0.222333 -0.0811356 0 0 -1
-0.114668 0.153332 -0.0811356 0 0 -1
0.420434 0.462481 0.0245006 0 -1 0
-0.424657 -0.293503 -0.0783758 0 1 0
0.373291 -0.485218 -0.0811356 0 0 -1
0.100844 -0.368222 0.0570403 0 0 1
-0.449071 -0.489438 0.00831703 -0.382683 -0.92388 0
-0.0840377 0.251101 -0.0811356 0 0 -1
0.426398 -0.332924 0.0121391 0 -1 0
0.284037 -0.431702 -0.00695855 1 -0 0
-0.196731 0.337012 -0.0811356 0 0 -1
0.0319189 0.35796 -0.0811356 0 0 -1
-0.49557 0.355136 -0.0152472 -1 0 0
0.0516811 0.491337 0.0570403 0 0 1
0.195738 0.449766 0.0570403 0 0 1
-0.251821 -0.141819 -0.0133326 -0.164399 -0.986394 -0
0.213832 -0.154065 0.0309677 -0 -1 0
0.180441 -0.291823 -0.0811356 0 0 -1
-0.304594 -0.473994 0.0570403 0 0 1
-0.30282 0.0919816 0.0129876 -0.0932317 0 0.995644
0.416973 -0.0869705 0.0351039 0 0 1
-0.262687 -0.497742 -0.0228449 0 -1 0
-0.128512 0.293503 -0.0632846 0 -1 0
0.0733132 0.154065 0.00894439 0 1 0
-0.0206357 0.292932 -0.0394434 -0.405775 0 0.913973
0.43355 0.154065 -0.0589252 0 1 0
-0.230839 -0.497602 0.0570403 0 0 1
0.0361978 0.291471 -0.020926 -0.19388 0 0.981025
0.0131876 -0.293431 -0.0269257 -0.281014 0 0.959704
0.0892625 -0.293503 -0.0123925 0 1 0
0.229987 0.316839 0.0570403 0 0 1
0.189946 -0.0493937 0.0736823 0.161367 -0 0.986894
0.202144 0.378304 -0.0811356 0 -0 -1
-0.315281 -0.365491 0.0570403 0 0 1
-0.262997 0.139956 0.0106355 -0.164399 0.986394 6.45534e-08
-0.0177692 0.043954 0.056557 -0.359957 0 0.932969
0.172452 -0.175817 -0.0250726 0.206808 0 0.978382
0.18016 0.318462 -0.0811356 0 -0 -1
0.0568351 -0.044921 -0.0811356 0 0 -1
0.270817 0.154065 0.010794 0 1 0
0.0680365 -0.154065 0.0402041 0 -1 0
0.0223194 -0.491479 0.0570403 0 0 1
-0.417667 -0.403495 -0.0811356 0 0 -1
0.392121 0.111756 -0.0811356 -0 -0 -1
-0.249756 0.142163 -0.0757627 -0.164399 0.986394 1.14506e-07
0.0333195 -0.293503 0.0367835 -0 1 0
-0.199128 0.423341 0.0570403 0 0 1
-0.0120077 -0.39869 -0.0811356 0 0 -1
0.205413 -0.232008 -0.0326965 0.250723 0 0.968059
-0.178305 -0.293503 -0.0773803 0 1 0
-0.166991 -0.481769 0.0570403 0 0 1
0.412769 -0.0672346 -0.0369326 0.499994 0 -0.866029
0.0374006 0.0864904 0.0740333 -0.234816 0 0.97204
0.0446266 -0.295739 -0.0811356 0 0 -1
-0.128085 -0.0463438 -0.0811356 0 0 -1
0.135215 -0.433595 0.0570403 0 0 1
-0.288677 0.497742 0.0539506 0 1 0
-0.349351 0.125564 -0.0199572 -0.164399 0.986394 6.45534e-08
-0.0175204 0.387852 -0.0811356 0 0 -1
-0.462471 0.307358 -0.031032 -0.382683 -0.92388 0
0.336933 0.497742 -0.00657822 0 1 0
-0.147164 -0.154065 0.0169249 0 -1 0
-0.0810133 -0.136953 0.0337575 -0.0932317 0 0.995644
-0.461475 0.4843 -0.0110281 -0.382683 0.92388 0
0.061209 0.293503 0.0382366 0 -1 0
-0.299377 -0.293503 0.0560382 -0 1 0
0.106222 -0.331104 -0.0811356 0 0 -1
0.282538 -0.153722 0.0557848 0.220017 -0 0.975496
0.382805 -0.144635 -0.0811356 0 0 -1
-0.21623 0.083911 0.0210959 -0.0932317 0 0.995644
0.144184 -0.390231 -0.0811356 0 0 -1
-0.177531 -0.491863 -0.0811356 0 0 -1
-0.337151 0.293503 -0.078937 0 -1 0
-0.333203 0.497742 0.0065368 0 1 0
-0.0991775 -0.293503 0.0154488 -0 1 0
-0.335128 -0.327507 -0.0811356 0 0 -1
-0.211886 -0.35841 -0.0811356 0 0 -1
-0.284201 -0.0669778 0.0147311 -0.0932317 0 0.995644
-0.454453 -0.360982 -0.0706024 -0.382683 -0 -0.92388
0.365754 -0.0538324 0.0364063 0.23322 0 0.972424
0.196206 0.246439 -0.0811356 0 0 -1
0.49365 0.480109 -0.00241023 1 0 0
-0.332258 0.0137466 -0.0811356 0 0 -1
0.172084 -0.23441 -0.0811356 0 0 -1
0.486541 0.299601 -0.0811356 -0 -0 -1
-0.349015 -0.419254 0.0570403 0 0 1
-0.233341 -0.293503 0.0209935 -0 1 0
0.0317627 0.0819411 -0.0811356 0 0 -1
0.408533 -0.294557 -0.0811356 -0 -0 -1
0.476107 0.46723 -0.0811356 0 -0 -1
0.184386 -0.0149125 -0.0811356 0 0 -1
0.0771059 0.1543 -0.0811356 0 0 -1
0.00923043 0.497742 0.00328702 0 1 0
0.444989 0.0978814 0.0351039 -0 0 1
0.271841 0.102337 0.0581975 0.220017 0 0.975496
0.419863 -0.154065 -0.031532 0 -1 0
-0.115136 -0.293503 -0.0549239 0 1 -0
0.123678 -0.0252555 -0.0811356 0 0 -1
-0.420843 0.333369 0.0570403 0 0 1
-0.0341677 0.197802 -0.0811356 0 -0 -1
-0.138051 -0.0419016 0.0284166 -0.0932317 0 0.995644
0.284037 0.395026 -0.0119012 1 -0 0
-0.0374038 -0.49232 0.0570403 0 0 1
-0.253148 0.00602302 -0.0811356 0 0 -1
-0.208502 -0.0496788 0.0218196 -0.0932317 0 0.995644
-0.3568 0.414224 -0.0811356 0 0 -1
0.453793 0.0893124 -0.0811356 -0 -0 -1
0.192284 -0.114385 0.0733002 0.161367 -0 0.986894
0.186702 0.497742 0.00210933 0 1 0
-0.244374 0.293503 0.0475201 0 -1 0
0.253005 0.121446 -0.0811356 0 0 -1
0.0605839 -0.497742 -0.0129834 0 -1 0
0.357969 0.462481 -0.0747189 0 -1 0
0.0582824 -0.460888 -0.0811356 0 0 -1
-0.131184 0.497742 0.0525542 0 1 0
0.207624 -0.0679879 -0.0811356 0 -0 -1
-0.354115 -0.100736 -0.0811356 0 0 -1
-0.147543 -0.420015 -0.0811356 0 0 -1
-0.419112 -0.100517 0.00209812 -0.0932317 4.15416e-08 0.995644
-0.00806423 0.154065 0.0309221 0 1 0
0.24456 0.195364 -0.0811356 0 -0 -1
0.334917 0.138155 0.0438021 0.23322 0 0.972424
-0.0648986 0.112472 0.0359024 -0.417805 0 0.908537
-0.054619 -0.154065 -0.0269187 0 -1 0
-0.49557 0.424785 -0.0187089 -1 -0 -0
-0.260525 0.438352 -0.0811356 0 0 -1
-0.431143 0.441788 -0.0802579 -0.382683 0 -0.92388
-0.0969369 0.293503 0.0064036 0 -1 0
-0.218819 0.497742 0.0247129 0 1 0
0.260919 -0.497742 0.0441337 0 -1 0
0.369674 0.497742 0.0544319 0 1 0
0.231593 -0.121325 -0.0811356 0 -0 -1
0.284037 0.392427 -0.0683619 1 0 0
0.075787 -0.170592 -0.0811356 0 -0 -1
-0.00506803 0.293503 0.0529532 0 -1 0
0.279637 -0.444564 0.0570403 0 0 1
-0.420641 0.40417 0.0570403 0 0 1
-0.00374907 0.25609 -0.0811356 0 0 -1
-0.407456 0.497742 0.0473375 0 1 0
0.361972 -0.293503 -0.0130969 0 1 0
-0.100447 -0.497742 -0.0399901 0 -1 0
-0.421986 0.113458 -0.0376874 -0.164399 0.986394 0
0.101943 0.119152 0.0810973 -0.0046663 0 0.999989
0.476328 -0.324228 -0.0811356 -0 -0 -1
0.0975309 0.485171 -0.0811356 0 0 -1
0.146655 0.497742 0.0545649 0 1 0
0.404108 0.0124992 0.0351039 -0 0 1
0.241148 -0.497742 -0.0529563 0 -1 0
-0.294719 0.293503 -0.0220741 0 -1 0
-0.3273 -0.129239 -0.0100585 -0.164399 -0.986394 -6.09678e-08
-0.0766555 -0.237706 -0.0811356 0 0 -1
-0.390309 -0.293503 -0.0180061 -0 1 0
0.184391 0.497742 -0.080709 0 1 0
-0.0489508 -0.292602 -0.0527987 -0.443642 0 0.896204
-0.0460284 -0.497742 -0.00261382 0 -1 0
0.429291 -0.143268 0.0351039 0 0 1
-0.112067 -0.127562 -0.0811356 0 0 -1
-0.468695 0.434641 0.040608 -0.382683 0 0.92388
0.135538 -0.244775 -0.0187127 0.122528 0 0.992465
-0.189343 -0.497742 -0.0150772 0 -1 0
0.0538191 0.292646 -0.0811356 0 0 -1
0.327625 0.00662912 -0.0811356 0 -0 -1
0.454247 0.497742 0.0501869 0 1 0
0.198948 -0.475813 0.0570403 0 0 1
-0.138691 0.415513 0.0570403 0 0 1
-0.379339 0.3673 -0.0455237 -0.980167 0 -0.198173
-0.0288644 -0.0581465 0.0519309 -0.398741 0 0.917063
0.270394 0.427035 0.0570403 0 0 1
0.115194 -0.0832677 0.0809497 0.03678 -0 0.999323
0.129856 0.178607 -0.0811356 0 0 -1
0.178952 0.206615 -0.0264465 0.206808 0 0.978382
0.0434266 0.421139 0.0570403 0 0 1
0.0227498 -0.154065 -0.0204672 -0 -1 0
-0.106281 0.497742 -0.038495 0 1 0
-0.307347 -0.497742 -0.0663954 0 -1 0
-0.260109 0.443209 0.0570403 0 0 1
-0.221764 -0.0530301 -0.0811356 0 0 -1
-0.0579547 -0.18484 -0.0811356 0 0 -1
-0.1842 0.0193834 0.0240952 -0.0932317 0 0.995644
-0.0228631 -0.234604 -0.0404323 -0.405775 0 0.913973
-0.372807 -0.497742 0.0436767 0 -1 0
0.000928333 0.215982 -0.030983 -0.323624 0 0.946186
-0.35919 0.363514 0.0570403 0 0 1
-0.0398088 -0.312651 0.0570403 0 0 1
-0.246586 0.0123125 0.0182534 -0.0932317 0 0.995644
0.0651186 0.21035 -0.0165296 -0.0981884 0 0.995168
0.0814122 0.365311 0.0570403 0 0 1
-0.0152219 -0.492759 -0.0811356 0 0 -1
0.256904 0.0316031 0.061451 0.193471 0 0.981106
0.325534 -0.302682 0.0570403 0 0 1
0.101808 -0.262478 -0.0811356 0 0 -1
-0.347724 0.0458331 0.00878287 -0.0932317 0 0.995644
0.454298 -0.0285819 0.0351039 0 0 1
0.255539 -0.395971 -0.0811356 0 0 -1
0.138814 -0.497742 0.0256894 0 -1 0
-0.0594358 0.154065 -0.0411793 -0 1 0
0.299816 -0.232197 -0.060901 0.312449 0 0.949935
-0.343722 -0.497742 -0.011536 0 -1 0
0.0864756 0.411845 -0.0811356 0 0 -1
-0.0756638 0.403001 0.0570403 0 0 1
0.110491 -0.10162 -0.0811356 0 -0 -1
-0.446842 0.049464 -0.000498528 -0.0932317 -4.15416e-08 0.995644
-0.0859025 0.0835199 -0.0811356 0 0 -1
0.417559 -0.0107663 -0.0811356 0 0 -1
0.443207 -0.497742 -0.0407802 0 -1 -0
-0.403813 0.294573 -0.0453673 0.980176 0 -0.198127
-0.366698 -0.0495626 0.00700616 -0.0932317 0 0.995644
-0.22458 0.497742 -0.0776155 0 1 0
-0.0135785 -0.33937 -0.0811356 0 0 -1
0.305854 -0.332924 0.00555254 0 -1 0
0.309743 0.332924 -0.0069284 0 1 0
0.0858688 -0.293503 0.0535846 -0 1 0
0.15952 -0.293503 0.010406 0 1 0
0.103038 0.431447 0.0570403 0 0 1
-0.265826 -0.29493 -0.0811356 0 0 -1
0.157806 0.293503 -0.0187695 0 -1 0
-0.0587535 -0.00837932 0.0387283 -0.417805 0 0.908537
0.110556 0.339597 -0.0811356 0 0 -1
0.346236 0.068039 -0.0811356 0 -0 -1
0.485794 -0.0503271 -0.0811356 -0 -0 -1
-0.0245571 0.125067 -0.0811356 0 0 -1
0.349395 0.044756 0.0403298 0.23322 0 0.972424
-0.193205 -0.387213 0.0570403 0 0 1
0.225686 0.382092 0.0570403 0 0 1
0.468579 0.293503 -0.00429556 0 -1 0
-0.0146297 0.364439 0.0570403 0 0 1
-0.0671275 0.423413 -0.0811356 0 0 -1
-0.374431 0.293503 0.0440924 0 -1 0
-0.039026 0.0518054 -0.0811356 0 0 -1
-0.486216 -0.317422 -0.0370793 -0.707107 0.707107 0
0.262409 -0.337497 0.0570403 0 0 1
-0.369469 -0.497742 -0.0774057 0 -1 0
-0.169121 0.497742 -0.0154809 0 1 0
0.142539 -0.177416 -0.0811356 0 -0 -1
0.440102 0.154065 0.00654131 0 1 0
-0.476081 -0.417392 -0.061644 -0.382683 -0 -0.92388
-0.0914067 -0.36888 -0.0811356 0 0 -1
-0.147921 0.0909942 0.0274923 -0.0932317 0 0.995644
-0.451045 -0.362829 0.0479188 -0.382683 0 0.92388
0.355323 0.184114 -0.0811356 0 0 -1
0.36924 -0.462481 -0.00220314 0 1 0
0.0418785 0.154065 0.0685843 -0 1 0
-0.351177 0.293503 -0.0111371 0 -1 0
-0.49557 -0.375316 -0.00864054 -1 -0 -0
-0.255867 -0.421576 0.0570403 0 0 1
0.236918 0.293503 -0.0306376 0 -1 0
0.0420893 -0.117706 -0.0811356 0 0 -1
0.275902 0.323184 -0.0811356 0 0 -1
0.481192 -0.462481 0.0370426 0 1 -0
0.336471 0.332924 -0.0723616 0 1 0
0.215453 0.043639 -0.0811356 0 0 -1
-0.0181723 0.445462 0.0570403 0 0 1
-0.40069 -0.356401 -0.0393288 0.733073 0 -0.68015
0.100115 -0.159298 -0.0156532 0.0379207 0 0.999281
-0.00572763 -0.146405 0.0612028 -0.359957 0 0.932969
-0.383326 0.0798014 -0.0811356 0 0 -1
-0.293408 0.0788118 -0.0811356 0 0 -1
0.434652 -0.0976138 -0.0811356 0 0 -1
0.25455 0.497742 -0.0355345 0 1 0
0.159841 0.426664 -0.0811356 0 0 -1
0.122289 0.497742 -0.0115167 0 1 0
-0.26147 0.497742 -0.0310611 0 1 -0
-0.284443 -0.367734 -0.0811356 0 0 -1
-0.104997 -0.3576 0.0570403 0 0 1
0.110871 -0.497742 -0.0753096 0 -1 0
-0.395972 -0.315818 0.0570403 0 0 1
0.134775 0.300924 0.0570403 0 0 1
0.165035 0.382696 0.0570403 0 0 1
-0.0573121 0.497742 0.00883228 0 1 0
0.0191877 -0.00494019 0.0693231 -0.27802 0 0.960575
0.207742 -0.31259 0.0570403 0 0 1
-0.293848 -0.134815 -0.0582887 -0.164403 -0.986393 -2.27005e-05
-0.121971 0.154065 0.000563244 -0 1 0
0.0452053 -0.223623 -0.0191459 -0.19388 0 0.981025
0.300086 -0.117149 -0.0811356 0 -0 -1
0.5 0.153522 0.0304975 1 0 0
0.055191 -0.371017 -0.0811356 0 0 -1
0.491493 -0.332924 -0.0127311 0 -1 -0
0.142905 0.154065 0.0632722 0 1 0
0.425245 0.49348 -0.037189 -0.500036 0 -0.866005
0.490696 0.051641 0.0351039 0 0 1
-0.449605 -0.302028 0.00206432 -0.382683 0.92388 0
-0.442979 -0.0930801 -0.0811356 0 0 -1
-0.077506 0.344644 -0.0811356 0 0 -1
0.497126 0.0193211 -0.0811356 -0 -0 -1
0.49365 -0.469956 -0.0622255 1 0 0
0.39547 -0.293503 0.0553799 -0 1 0
-0.182284 0.293503 0.00537318 0 -1 0
-0.30331 -0.00215546 0.0129418 -0.0932317 0 0.995644
0.282784 -0.0328753 0.0557292 0.220017 -0 0.975496
-0.295267 -0.0464974 -0.0811356 0 0 -1
0.0443874 0.497742 -0.0464045 0 1 -0
-0.0352728 -0.110537 -0.0811356 0 0 -1
-0.314564 0.414028 0.0570403 0 0 1
0.083294 0.0330635 0.0805227 -0.0478789 0 0.998853
0.290132 0.497742 0.0546128 0 1 0
-0.204983 0.394227 -0.0811356 0 0 -1
0.5 -0.0382816 -0.0130697 1 -0 0
0.207581 0.0765914 0.0707988 0.161367 0 0.986894
-0.0571684 0.488792 -0.0811356 0 0 -1
-0.27958 0.361349 0.0570403 0 0 1
0.196904 0.154065 -0.00485991 0 1 0
0.4509 -0.293503 -0.0333813 0 1 -0
0.250009 -0.101167 0.0628106 0.193471 -0 0.981106
0.334407 -0.181149 -0.072394 0.324151 -0 0.946005
0.015852 -0.400815 0.0570403 0 0 1
0.276343 -0.294081 -0.0811356 0 0 -1
0.192693 -0.377185 0.0570403 0 0 1
-0.0135117 -0.0191931 -0.0811356 0 0 -1
