ply
format ascii 1.0
comment Created by Open3D
element vertex 400
property double x
property double y
property double z
property double nx
property double ny
property double nz
end_header
0.291292 -0.388273 -0.047656 -0.025774 0.476402 0.87885
-0.256311 0.271376 -0.0748263 -0.022802 0.0145734 -0.999634
0.170841 0.4409 -0.0748657 0.0219749 -0.0384775 -0.999018
-0.26445 -0.450913 -0.033972 -0.00185557 -0.999997 0.00166928
0.479554 0.189299 -0.0761272 -0.0254576 0.00376159 -0.999669
0.0882486 -0.323824 -0.0529593 0.0269873 -0.00305322 0.999631
-0.108223 -0.309307 0.00154532 0.0257484 -0.997464 -0.066354
0.450475 -0.159088 -0.0733926 -0.0154409 0.0213528 -0.999653
0.0638498 -0.162069 0.0769555 0.0415025 -0.0173467 0.998988
0.279656 0.393038 0.0253383 0.0726827 -0.99735 -0.00332413
-0.267406 0.0657842 -0.0481261 -0.038667 0.0229478 0.998989
-0.418557 -0.389511 -0.0228033 -0.989355 -0.129169 -0.0670187
-0.315214 -0.086374 -0.0747098 0.0409283 -0.0186872 -0.998987
-0.479328 0.403529 -0.076049 -0.00173967 0.0227062 -0.999741
0.124295 0.198159 0.0760854 0.0347199 -0.0454861 0.998361
0.0533348 0.0720401 -0.0768434 -0.000679416 0.000167577 -1
0.502358 -0.0817571 -0.0713242 0.989203 -0.137801 0.04988
-0.377189 -0.112909 0.0742907 -0.00420826 0.0066307 0.999969
-0.124907 -0.286294 0.0750936 -0.999978 0.00667725 -0.000404112
0.144358 0.158914 -0.0523598 -0.00919653 0.037121 0.999268
-0.126108 -0.206516 0.0736 -0.991107 0.0683992 -0.114141
0.18245 0.368867 -0.0742119 -0.0115161 0.0115972 -0.999866
0.39845 0.203793 -0.0755797 -0.0268163 0.0148124 -0.999531
0.428744 0.450269 0.0444752 0.000120076 1 -0.000215462
0.470154 -0.0111556 -0.0745838 0.0180231 -0.0610847 -0.99797
0.0922903 0.230238 -0.0761864 0.0303032 -0.03648 -0.998875
-0.0130675 0.159455 0.0522527 0.0102761 -0.999921 -0.00725144
-0.440782 0.260146 -0.0753964 -0.0568599 0.0211931 -0.998157
0.118275 0.0746623 -0.0195462 -3.45113e-05 1 0.000865509
0.125021 -0.199471 0.0745706 0.998543 -0.013676 0.0521979
0.275261 0.169297 -0.07524 -0.041188 0.0599953 -0.997349
0.0121777 0.319402 -0.0765127 0.0725982 -0.0402619 -0.996548
-0.421516 0.383449 -0.0328323 -0.805088 0.592885 0.0178875
-0.146919 -0.284612 -0.049216 -0.00140554 0.0021773 0.999997
-0.422043 -0.448514 0.0504412 -0.00510078 -0.999926 0.0110682
-0.471851 -0.148361 -0.074234 -0.0712499 0.0292596 -0.997029
-0.500016 0.365377 0.0734783 0.0456524 -0.0472136 0.997841
-0.326991 0.0745382 -0.0756083 0.0428306 -0.0574972 -0.997426
-0.342695 -0.450149 -0.00377797 0.00824165 -0.999963 -0.0025612
-0.0128485 0.27393 0.0756908 -0.0441746 0.0188692 0.998846
0.280472 0.00764445 -0.045484 0.00353101 -0.218119 0.975916
-0.433654 0.433028 0.0739172 -0.00423285 0.000384793 0.999991
-0.207413 -0.4486 0.0132632 -0.00327077 -0.999617 0.0274663
0.348731 -0.0387768 -0.0748974 0.00429897 -0.00831387 -0.999956
-0.0801813 0.00273757 -0.0749749 0.0149028 -0.0181584 -0.999724
0.059126 -0.450436 -0.0120595 -0.0192792 -0.999626 0.0193716
0.374587 -0.282304 -0.000101677 -0.999086 -0.00911221 0.0417724
0.357748 0.450739 0.0191418 0.0113183 0.999865 -0.011941
-0.412457 0.451177 -0.0188195 -0.000439824 1 0.000489961
0.394213 0.294784 -0.0756846 0.0399602 -0.0192708 -0.999015
-0.038144 0.393745 0.00201158 0.0308898 -0.998533 -0.0444748
-0.50042 -0.350612 0.0753726 -0.997025 0.00150745 -0.0770588
-0.052863 0.181877 -0.0750383 0.00361659 -0.00702014 -0.999969
0.380757 0.0121609 -0.0405128 -0.171273 -0.355485 0.918856
0.211646 -0.236405 -0.0750452 -0.0175396 0.00488002 -0.999834
-0.500467 0.0856461 -0.0592863 -0.998528 -0.0345814 0.0417888
-0.498904 0.435689 -0.00233439 -0.99835 0.048333 -0.0310176
0.312404 -0.142051 -0.0288295 0.999151 0.0012484 -0.0411772
-0.0216446 0.0750638 -0.0163638 -0.001073 0.999999 0.00114684
0.382309 0.369784 -0.07516 -0.0669887 0.0349469 -0.997142
-0.0616503 0.209057 0.0740414 -0.0239281 0.9996 0.0150592
0.275702 -0.00354972 -0.0747303 -0.00367857 0.0024171 -0.99999
0.125167 -0.292857 0.0686637 0.996982 -0.0610106 0.048007
0.109018 0.450875 -0.0291213 -0.0618219 0.997584 0.0316742
0.106581 0.310711 0.0438182 -0.0103142 0.999885 0.0111171
-0.498991 -0.108799 -0.0357177 -0.999566 0.0270695 -0.0115979
0.491347 -0.276053 -0.0743649 -0.0392078 0.0184392 -0.999061
-0.0495228 -0.396902 -0.0743173 0.00438987 -0.0361665 -0.999336
-0.473843 0.00688427 0.0761594 0.0322651 -0.0015255 0.999478
0.0160178 0.449839 0.0329779 -0.0438038 0.995281 0.086584
-0.470771 -0.152444 0.07571 -0.0921335 0.0165331 0.995609
-0.0229234 -0.449606 -0.014029 -0.0262246 -0.998823 0.0407956
-0.105637 0.15886 0.0251238 -0.00629024 -0.997259 0.073723
0.312277 -0.450966 -0.0198173 -0.0708713 -0.99486 0.0723214
-0.116682 -0.0686164 0.0772607 -0.00867353 0.0043793 0.999953
0.139983 0.449339 0.0255705 -0.0420249 0.99577 0.0817082
0.238835 -0.350872 -0.0750484 -0.0173889 0.0415023 -0.998987
-0.0918275 0.296952 0.0740713 -0.0108482 0.0337644 0.999371
0.335218 -0.332655 -0.0736726 0.0446017 -0.0745824 -0.996217
0.237182 -0.448827 0.0552502 0.00221206 -0.999882 -0.0152015
0.0487816 0.0330792 0.0274301 0.96974 -0.0192391 0.243381
-0.352422 -0.401102 0.075473 -0.0348691 0.0411969 0.998542
-0.274759 -0.452002 0.0415402 0.116633 -0.990918 -0.0669258
0.228887 -0.44045 -0.0746694 -0.0154036 0.0796701 -0.996702
0.385677 -0.449283 0.0494315 -0.00882316 -0.99996 0.00117015
-0.0249307 -0.260884 0.0741898 0.0271317 -0.0281699 0.999235
-0.422613 0.221059 0.0741299 0.00758859 -0.00579545 0.999954
-0.387127 -0.330982 0.0772434 0.0174155 -0.0204203 0.99964
-0.124294 0.000497811 -0.0237121 -0.998153 -0.0248116 0.0554604
-0.225422 0.391096 -0.0745685 -0.0944278 0.00530649 -0.995518
-0.202024 0.405632 0.0753129 -0.0208507 0.0152501 0.999666
0.488435 0.175745 0.0754874 -0.000974054 0.00561465 0.999984
0.0408949 0.309648 0.00556015 0.00713627 0.999973 -0.00193934
-0.0908851 0.262403 -0.0767927 0.00970397 -0.00403092 -0.999945
0.138793 -0.242607 -0.049817 -0.0537046 0.00700806 0.998532
0.0939025 0.308829 -0.0379892 0.00764857 0.99992 -0.0100561
0.373475 -0.34164 0.0683169 -0.986087 0.150014 0.0716066
-0.141775 0.424331 -0.0747639 -0.00729845 0.00249498 -0.99997
0.500688 -0.261348 -0.00517483 0.996339 -0.0148771 0.0841901
-0.37419 0.168071 -0.00214362 0.9998 0.0145122 -0.0137723
-0.120669 -0.208619 0.0750089 0.0458839 -0.0491125 0.997739
-0.0345243 -0.0779298 0.021486 -0.0410433 -0.999121 0.00848473
0.38748 0.0319776 0.046158 -0.0457244 -0.998856 0.0140003
0.375443 0.0941827 0.00396437 -0.999184 0.0242209 -0.032309
0.468547 0.0316141 0.0703262 -0.00884465 -0.999924 0.00862447
0.494909 -0.21426 -0.0767036 0.0291484 -0.0642357 -0.997509
-0.455606 -0.327737 -0.072951 -0.00921587 0.0671319 -0.997702
0.455781 0.25776 -0.0758696 -0.0709889 0.0299331 -0.997028
0.185086 0.393058 0.0142239 -0.0224621 -0.999564 0.0191429
-0.111783 0.154829 -0.0463702 0.0139062 -0.687304 0.726236
-0.105138 0.39409 0.0716322 0.00954282 -0.999937 -0.005956
0.491521 -0.0660477 0.0733518 0.0265633 -0.120639 0.992341
-0.270989 -0.394361 -0.0742992 -0.0283688 0.00949228 -0.999552
-0.0409148 0.445478 -0.0750311 -0.00315096 0.0330853 -0.999448
0.501752 0.308653 0.0221964 0.999884 -0.013906 0.00615744
-0.201389 -0.195403 -0.07684 -0.00255573 0.0702137 -0.997529
-0.375835 -0.159184 0.0114212 0.999247 0.0195128 -0.0335278
-0.180843 -0.137348 -0.0502348 0.000908732 -0.000562577 0.999999
-0.498275 -0.381971 -0.002632 -0.999557 0.0242197 -0.01727
-0.299948 0.44859 -0.0761349 -0.0120533 0.00164418 -0.999926
0.456246 0.103207 0.0734113 -0.0081911 0.0214558 0.999736
-0.382867 0.128046 0.0755223 0.0034298 -0.0195987 0.999802
0.0999031 0.0756821 0.0640159 -0.00235969 0.999899 0.0139825
0.0511816 0.240261 0.0214858 0.675939 -0.0141846 0.736821
-0.210656 -0.41426 -0.073747 0.0601912 -0.0604475 -0.996355
0.49971 -0.3856 0.0347657 0.999145 0.0364048 -0.0195799
0.416367 -0.279212 0.0759642 -0.0232304 0.0136406 0.999637
0.375029 0.342208 0.075119 -0.989527 -0.142084 0.025456
0.156591 -0.450569 -0.0601425 -8.52189e-05 -1 0.000624195
0.0113975 -0.339104 -0.0505206 -0.000746463 0.00981982 0.999952
0.346808 0.450385 -0.0630223 -0.0276914 0.994647 0.0995498
-0.501655 -0.433884 0.0582109 -0.999324 -0.0215215 0.0298096
0.501232 0.0749343 -0.0602796 0.999827 -0.00420707 0.0181403
-0.500605 0.350268 -0.0116432 -0.999918 -0.0112403 0.00608619
0.141599 0.065162 -0.0741884 -0.0118787 0.023868 -0.999645
-0.385242 0.0498184 -0.0748103 -0.0477465 0.0115055 -0.998793
-0.0671896 -0.31223 -0.0755964 0.0110636 -0.00321893 -0.999934
0.0724018 -0.397285 0.0345838 -0.974041 -0.038729 -0.223035
-0.413383 -0.231826 0.0747154 0.0532278 -0.0380258 0.997858
0.256211 -0.175169 -0.0359286 -0.0301717 -0.999476 0.0117424
0.502692 0.278024 -0.0291812 0.99808 0.0577389 -0.0224226
0.389142 -0.280605 -0.0729685 0.062101 -0.132317 -0.98926
-0.183411 0.136822 -0.0756217 -0.0482504 0.0384132 -0.998096
0.195817 0.0354892 -0.0124849 0.0109722 -0.994613 -0.103075
-0.0818258 -0.145535 -0.0749494 0.00344875 -0.00161721 -0.999993
-0.0250369 0.394548 0.0730445 0.0167513 -0.99957 -0.0240851
0.226004 -0.451013 -0.0749297 -0.00580545 -0.99932 0.0363994
-0.0502576 -0.21125 0.0208795 -0.571937 0.00683544 0.820269
-0.259951 -0.0319205 -0.0738813 -0.0428036 0.0183358 -0.998915
0.266726 0.446449 0.0755089 0.0137336 -0.0785765 0.996813
0.152052 0.301213 -0.0746655 -0.00900496 0.0135032 -0.999868
-0.0535514 0.017934 0.0204549 -0.418048 0.0514569 0.906967
-0.500341 -0.382566 -0.0733634 -0.996208 -0.0782714 0.0379889
0.187924 -0.113988 -0.0256296 -0.999714 0.0128946 -0.0201472
-0.346127 0.390223 -0.0760126 -0.00635594 0.0149041 -0.999869
-0.400919 -0.193626 0.0760035 -0.0234483 0.0333186 0.99917
0.0854864 -0.309186 0.0182236 -0.0278918 -0.999405 0.0202674
0.448366 0.377785 -0.0512082 -0.604994 0.796008 0.0188265
0.379705 0.0355951 0.0553737 -0.602764 -0.797765 -0.0157295
-0.192062 -0.0358717 -0.0491817 0.0270408 -0.00571061 0.999618
-0.297597 0.391892 -0.00797066 0.00832065 -0.999943 -0.00673313
-0.403125 -0.171 -0.0747474 0.0142703 -0.0223531 -0.999648
-0.403529 -0.436469 -0.074033 0.0352898 -0.0240715 -0.999087
0.50084 -0.437982 -0.0403577 0.996168 -0.0314128 -0.0816204
0.435596 -0.1019 0.0744975 0.00343039 -0.0287626 0.99958
-0.500107 0.225457 0.0632682 -0.99913 0.0121154 -0.0398977
-0.016192 -0.266186 -0.0748651 -0.0218512 0.0431675 -0.998829
0.44491 -0.376 -0.00771235 -0.511615 -0.859032 0.0177309
0.0238379 -0.0745399 -0.0265121 0.00934831 -0.99967 -0.0239104
-0.386604 -0.317927 0.07286 0.0140701 -0.025257 0.999582
0.0888888 -0.413033 -0.0771874 -0.0519083 0.0565853 -0.997047
0.0841843 0.159195 -0.003755 -0.028874 -0.999575 0.0040769
0.125281 0.234126 0.00685254 0.999964 -0.00425974 0.00737425
0.277688 0.382649 -0.0505848 0.0303378 -0.224626 0.973973
0.274944 0.171882 -0.0766099 -0.00671074 0.00651063 -0.999956
-0.338121 -0.176148 -0.0500913 -0.0371515 0.0959472 0.994693
-0.145906 -0.443265 -0.0763899 -0.0044079 0.0328379 -0.999451
0.125724 -0.00944543 -0.0127968 0.999875 0.00087717 -0.0157982
0.419453 0.241814 0.0736495 -0.00582078 6.85526e-05 0.999983
-0.399045 0.131305 -0.0758822 -0.0389259 0.036377 -0.99858
0.374224 0.297522 0.0168641 -0.999948 0.00686338 -0.00756522
-0.318341 -0.00962295 -0.0497877 0.00352798 -0.00528198 0.99998
-0.454307 0.184558 -0.0759548 0.0199022 -0.0381154 -0.999075
0.205193 0.137725 -0.0751872 0.0028677 -0.0310977 -0.999512
0.190483 -0.39454 0.066584 0.0291343 0.999343 -0.0215482
0.489835 0.446952 0.073757 0.0017316 -0.000844478 0.999998
-0.0812153 -0.392679 -0.0118005 0.0497244 0.997088 -0.0578206
0.411253 -0.424588 -0.0753597 -0.0236067 0.049546 -0.998493
-0.344891 -0.416762 -0.0742739 -0.0110855 0.0160385 -0.99981
-0.28929 -0.316899 -0.072469 0.00707093 -0.0064223 -0.999954
-0.15752 0.452292 0.0293393 -0.0586096 0.99825 0.00782948
-0.400316 -0.23864 -0.0760023 -0.102423 0.0132881 -0.994652
-0.374405 0.0762918 0.00076088 0.999969 -0.000320633 0.00792615
0.191582 0.44793 0.0738824 0.0340772 -0.0397563 0.998628
-0.375959 -0.22772 8.03481e-05 0.999847 -0.00960017 0.0146086
0.105398 0.40759 0.0767961 -0.00548707 0.0397782 0.999193
0.500033 0.193947 0.00017588 0.999954 -0.00205284 0.00934199
0.431877 -0.0315913 -0.0132081 -0.0942992 0.993494 0.0638483
0.0789856 -0.159027 -0.00833922 -0.0247821 0.999454 0.0218577
0.500831 -0.172019 0.0172749 0.999676 0.0172964 -0.0186501
-0.244061 0.125781 -0.0507912 -0.0516557 0.10275 0.993365
0.488989 -0.224856 0.0752017 -0.00119236 0.00918354 0.999957
-0.064328 -0.392579 0.0628998 0.0755438 0.992557 -0.0955206
0.0268941 0.190961 -0.0752385 -0.0108805 0.0276005 -0.99956
-0.459986 0.111257 0.074819 -0.0258208 0.00907486 0.999625
0.424034 -0.0783235 -0.0759071 -0.00893153 0.00640696 -0.99994
0.135313 -0.445029 0.0755628 -0.00243755 0.00107721 0.999996
0.00229249 0.0280316 -0.0755633 -0.013225 0.0109822 -0.999852
-0.0483086 -0.308814 0.0146148 0.0310391 -0.998068 -0.0538212
0.294905 0.101083 -0.0108739 0.0375296 -0.0169212 0.999152
0.0179053 -0.430049 -0.0740105 -0.00902721 0.0064754 -0.999938
-0.447757 0.379682 0.0271393 0.549272 0.835634 -0.00399442
0.30136 0.113247 -0.0110149 0.000315558 -0.00374198 0.999993
0.288489 -0.0631988 -0.0136117 0.0200862 -0.104012 0.994373
0.187328 -0.306642 -0.0516253 0.0160718 -0.0222936 0.999622
0.464164 -0.451014 0.0552809 0.00894345 -0.999903 -0.0106615
0.375681 -0.0888511 0.00659915 -0.999833 0.0126101 -0.0131966
0.123433 -0.00460849 0.0482418 0.999441 -0.00630048 0.0328332
-0.50048 0.253814 -0.0176194 -0.994922 -0.099955 0.0118207
-0.498117 -0.0435635 -0.0749719 -0.0272621 0.0199589 -0.999429
0.0181429 -0.309433 0.0211706 -0.0059534 -0.99992 0.0111509
-0.300204 0.163894 -0.0740871 -0.018218 0.0169176 -0.999691
-0.378049 0.386241 0.076139 0.10387 -0.0503235 0.993317
-0.104481 0.309492 0.00569287 -0.0390762 0.998814 0.0290578
-0.408495 -0.072599 -0.0738834 0.00318508 -0.00885419 -0.999956
0.450005 -0.159853 0.0750391 0.0493142 -0.0446161 0.997786
0.0463797 -0.263844 0.0773276 -0.065027 0.0447084 0.996881
-0.379136 0.320232 -0.0751015 -0.00678411 0.00692976 -0.999953
0.206139 -0.0364371 -0.0123798 -0.00583684 0.00663764 0.999961
-0.133434 -0.450247 0.0136919 -0.028169 -0.999404 0.0199631
-0.239526 -0.098521 -0.0751007 -0.0207627 0.00493453 -0.999772
-0.498098 -0.23813 -0.0676141 -0.998574 0.0345205 -0.0407177
0.427515 0.450698 -0.0627945 -0.0391486 0.998111 0.0473558
-0.482331 0.166841 0.0768959 0.00693 -0.00678465 0.999953
0.475811 0.324831 -0.0748879 0.00657845 -0.0069681 -0.999954
-0.230222 -0.246793 -0.0510236 -0.022257 0.0465967 0.998666
-0.499765 -0.170831 -0.0180894 -0.999829 -0.00216161 0.0183492
0.499366 0.114593 0.0117411 0.999895 -0.0062219 0.0130819
-0.199429 0.450374 -0.0385315 -0.0469582 0.998413 0.0310972
-0.498678 -0.0925777 0.0546346 -0.999997 -0.0022652 0.000235411
-0.375962 0.332222 0.0101126 0.999529 -0.0264447 0.0155606
-0.12704 0.238502 -0.0128513 -0.999704 0.0227806 -0.008577
0.350642 -0.38107 -0.00766488 -0.663412 0.748024 0.0185869
-0.018556 0.275214 0.0747889 0.00103789 -0.00691934 0.999976
0.0386983 0.449079 -0.0606384 0.0278424 0.999511 -0.0142287
0.352142 -0.378591 -0.00174701 -0.590958 0.805697 -0.0402686
0.375349 -0.212495 0.074419 -0.99783 0.0172901 -0.063536
0.0755804 -0.0843301 -0.0743489 0.0142742 -0.00810395 -0.999865
-0.375419 0.250052 -0.0167426 0.999972 -0.00664172 0.00342389
-0.437882 0.291896 0.0748931 -0.00236668 0.00278028 0.999993
0.452169 0.320088 0.0745007 -0.0357176 0.0378951 0.998643
-0.374572 -0.0624166 0.0183448 0.996659 -0.081363 0.00711921
0.500638 0.186578 5.40556e-05 0.998834 -0.0330306 0.0351949
0.267375 -0.112694 -0.0643554 -0.99996 -0.00558953 0.00697808
0.358964 -0.125099 -0.0745718 -0.111525 0.00434617 -0.993752
-0.370698 -0.350915 -0.0730603 0.0336444 -0.00108499 -0.999433
-0.360573 0.450479 0.0173562 0.0278497 0.999602 -0.00457974
-0.00735437 -0.392462 0.0500812 0.0566038 0.998313 -0.0129347
0.138739 -0.359537 -0.0733481 -0.0154543 0.0705295 -0.99739
-0.0958794 0.0246566 0.0751184 -0.0518989 0.120602 0.991343
-0.260962 -0.398465 0.0733287 -0.0204287 0.0314962 0.999295
0.472052 0.0305827 -0.0100622 0.0640586 -0.997494 -0.0300264
-0.264106 -0.182427 -0.0766534 -0.0012915 0.00265112 -0.999996
-0.132655 -0.362063 -0.0749411 -0.00886617 0.0195906 -0.999769
0.498759 -0.346908 -0.0257601 0.997015 -0.0525514 0.0565616
0.0186438 0.12228 -0.0749374 -0.019026 0.015809 -0.999694
0.380695 0.117361 0.0772155 -0.0823073 0.0325164 0.996076
0.418571 -0.393657 0.0696981 0.999991 -0.0041683 3.54805e-05
0.433869 -0.449469 -0.0148623 -0.0333325 -0.998805 0.0357351
0.496038 0.255406 0.0743761 -0.004154 0.0271204 0.999624
0.230989 0.147328 -0.0133862 0.00900803 -0.013152 0.999873
0.335606 0.0590855 -0.0740356 -0.00577455 0.00503344 -0.999971
0.417962 0.395171 0.00885049 0.995849 -0.0870455 -0.0266228
0.217506 -0.0748768 -0.0735859 -0.0372196 0.00325792 -0.999302
-0.479459 -0.449692 -0.0729844 -0.05845 -0.997848 0.0297205
-0.374896 0.00499089 -0.010549 0.999816 -0.0127234 0.0143557
-0.343689 0.439941 0.0761319 0.0178863 -0.00446564 0.99983
-0.206855 0.211587 -0.0746389 -0.00517809 0.0497286 -0.998749
-0.403364 -0.0783231 -0.0745732 -0.0653423 0.0465839 -0.996775
0.428768 0.0642785 -0.0734558 0.0134441 -0.00809333 -0.999877
-0.479382 0.450029 -0.0739701 0.055137 0.997483 -0.0445764
0.276721 -0.281253 -0.048671 -0.00169178 0.00118771 0.999998
-0.156471 0.330162 -0.0732663 -0.0424319 0.0131765 -0.999012
0.193187 -0.0158637 -0.0748846 0.0537446 -0.0469554 -0.99745
0.394592 -0.208365 -0.0739375 -0.0317246 0.0250895 -0.999182
-0.48952 -0.346964 0.0744766 0.0269349 -0.0566336 0.998032
-0.346321 -0.438337 0.0750903 -0.000912396 0.0238585 0.999715
-0.23929 -0.393851 -0.0111371 -0.0144507 0.999798 0.0139683
0.243746 -0.393707 0.0129392 0.0158007 0.999385 -0.0312901
0.403329 -0.0428846 0.0772505 -0.0227332 0.0178468 0.999582
-0.125506 -0.059147 -0.00577884 -0.999752 -0.0113844 0.0191491
-0.0570043 0.120888 -0.0748625 -0.00288446 0.0305452 -0.999529
0.00279637 0.384482 -0.0488204 0.0125544 -0.427562 0.903899
0.26122 0.446382 -0.0756958 0.012295 -0.0108202 -0.999866
0.364114 0.13525 -0.0758687 -0.0115293 0.00598426 -0.999916
-0.221224 0.33006 -0.0489817 0.00943376 -0.0422737 0.999062
-0.120662 0.079487 -0.0770493 -0.0321397 0.00050178 -0.999483
-0.190764 0.0476966 -0.0497727 -0.03952 0.00304591 0.999214
-0.280491 0.449512 0.0272599 -0.00912973 0.999928 0.00781434
0.234006 0.449889 -0.0194988 0.00627424 0.99998 -2.41602e-05
-0.200907 -0.320053 -0.0742065 -0.0138527 0.011545 -0.999837
-0.498585 0.171428 -0.0175224 -0.998494 0.0435843 -0.0333182
-0.136221 0.394772 -0.00642787 -0.019528 -0.999221 0.0342829
0.0425019 0.394485 0.0640601 -0.0436219 -0.998584 0.0304355
0.0914244 -0.19426 -0.0739067 -0.0645521 0.0433062 -0.996974
-0.0797917 0.344447 -0.0755705 -0.0450497 0.0347442 -0.99838
-0.399342 0.0516711 0.0736084 -0.0170919 0.00526044 0.99984
-0.478265 -0.269398 0.0734091 0.00439534 -0.0107574 0.999932
-0.498477 0.06135 0.0159279 -0.998055 0.0469606 -0.0409948
-0.00962387 -0.187178 -0.0747613 -0.045913 0.00319088 -0.99894
0.384007 0.247887 0.0771098 0.00287635 -0.0021195 0.999994
-0.0217143 -0.0391162 0.0745273 -0.0243515 0.0253069 0.999383
0.241604 0.329202 -0.0501115 0.0530192 -0.0704333 0.996106
-0.163751 0.267582 -0.0746625 -0.0688653 0.057496 -0.995968
0.314942 -0.449664 0.0513944 0.0198223 -0.99975 -0.0103581
-0.425937 -0.0715741 0.0755034 0.0116746 -0.0191147 0.999749
0.0672332 0.159603 0.0676172 0.032788 -0.999164 -0.0244225
0.376939 0.198031 -0.0164649 -0.998321 0.0541488 -0.0205813
-0.283694 0.394151 0.0639948 -0.00263208 -0.999873 0.0157204
0.197029 -0.449918 0.00121465 -0.0686398 -0.99712 0.0322596
-0.126716 0.392582 0.075154 0.0120327 -0.999881 -0.00964024
-0.29151 0.448527 -0.0617892 0.00113621 0.999995 -0.0028243
0.120952 -0.0756915 0.0719311 0.0378818 -0.999095 -0.0193198
0.44268 -0.339863 -0.0759356 0.000482909 -0.00221114 -0.999997
-0.491224 -0.040736 -0.0737379 -0.0715334 0.0526523 -0.996048
0.124215 -0.210634 0.013578 0.999192 0.0247365 -0.0316666
-0.095656 0.449148 -0.0110623 -0.0397618 0.999097 0.0150032
0.103472 0.376394 -0.0721949 -0.0274781 0.0313817 -0.99913
-0.388483 0.440305 -0.0740655 -0.0562164 0.0101594 -0.998367
-0.107113 -0.0749244 0.0685398 0.051208 -0.997727 -0.0438051
0.00648233 0.254475 -0.0752616 0.00211439 -0.00684205 -0.999974
0.29452 0.451401 -0.0144492 0.0276297 0.999499 -0.0154344
0.143831 -0.0673628 -0.0737892 -0.0930409 0.0562501 -0.994072
-0.498998 -0.290873 -0.0135103 -0.9985 -0.0454828 0.0304741
-0.500515 -0.0258284 0.00582844 -0.996115 0.0597466 -0.0646955
0.282532 0.245681 -0.0741027 -0.0151558 0.0218168 -0.999647
0.35321 -0.414055 -0.074838 0.00975474 -0.00659401 -0.999931
-0.0595756 0.445111 -0.0754083 -0.00200496 0.000176266 -0.999998
-0.386825 -0.0161979 0.0755046 0.000659482 -0.00035754 1
0.191101 -0.169962 -0.0756087 0.0619476 -0.0461159 -0.997013
-0.0704368 0.449554 0.0396153 0.013616 0.999103 -0.0401018
0.125077 0.24107 0.00368037 1 -1.04513e-05 1.00199e-05
-0.500117 0.292718 0.0739028 -0.999773 -0.010333 0.0186418
-0.292425 0.229881 -0.0515417 -0.0500398 0.0624452 0.996793
-0.500058 -0.228999 0.016038 -0.999215 0.0228977 -0.0323369
-0.412706 0.121985 -0.0735627 -0.0336963 0.0197603 -0.999237
-0.127645 -0.412674 0.0741262 -0.0342388 0.0150631 0.9993
-0.0747657 -0.159422 0.0513224 -0.000713881 0.999999 0.000803915
-0.311039 0.325755 -0.0756134 -0.00684428 0.0316624 -0.999475
0.214714 0.252727 -0.0492829 0.0420671 -0.051057 0.997809
0.500769 0.411399 -0.0687342 0.999474 0.000519464 -0.032423
0.495281 -0.0353721 -0.00134672 0.697752 0.715283 0.0388888
-0.0139037 -0.159317 0.0746096 -0.0939923 0.0165314 0.995436
0.125297 -0.394318 -0.0207923 0.000107861 1 -0.000599389
0.283471 -0.27651 -0.049395 -0.0608122 0.0110918 0.998088
-0.204404 0.393193 0.000416632 -0.00604381 -0.999975 0.00360077
0.00845829 -0.157406 -0.00161013 -0.0361454 0.9993 0.0096884
0.370189 0.413349 0.0748156 0.033125 -0.00980074 0.999403
-0.477168 0.318355 -0.0763556 0.0193074 -0.0294768 -0.999379
-0.115558 -0.0659798 -0.0755021 -0.027678 0.0273456 -0.999243
-0.00799262 -0.0439672 -0.0749362 -0.0134572 0.0127183 -0.999829
0.375609 -0.146122 0.0656604 -0.999979 -0.00295898 0.00572785
0.317253 -0.202159 -0.0732835 0.0115614 -0.0839768 -0.996401
-0.0237177 -0.110867 -0.0503984 0.0166492 -0.0114531 0.999796
-0.0259681 -0.449582 0.0755462 -0.0718559 0.0255077 0.997089
0.495447 0.0360577 0.0581114 0.537245 -0.843425 -0.00166088
0.0851438 0.00708374 -0.0770661 0.00216553 -0.011016 -0.999937
0.000395228 0.0750446 0.0719708 -0.0661661 0.997585 0.0211283
0.0532016 -0.0288724 0.0744018 -0.0879499 0.0159652 0.995997
-0.179893 -0.395066 0.0363874 0.0221877 0.999681 -0.0120742
-0.484428 0.00987822 0.0748304 -0.0404336 0.0219816 0.99894
0.487479 0.449531 -0.0103592 -3.7651e-05 0.999401 0.0346209
-0.374033 -0.333637 -0.0039917 0.998024 0.056723 0.0270374
0.0766352 0.394023 -0.00612147 -0.0508599 -0.998401 0.0246908
0.374703 -0.226156 -0.00347445 -0.999963 -0.00717336 0.00476904
-0.305131 -0.249003 -0.0490152 -0.00854901 0.0127191 0.999883
0.263412 0.0849422 -0.0734821 -0.014004 0.00317514 -0.999897
0.367905 0.377109 -0.0761842 0.0303735 -0.0273913 -0.999163
-0.311663 -0.394865 0.0125287 -0.0588524 0.997778 0.0312265
-0.124977 -0.185623 -0.00771597 -0.999999 0.00129525 -0.000762397
0.0484703 -0.443828 0.0741671 0.0341683 -0.0704013 0.996933
-0.015804 0.062872 0.0745571 0.0478863 -0.0381292 0.998125
-0.0135693 0.15906 -0.0225329 -0.0204518 -0.999097 0.0372527
0.0350081 -0.136396 -0.076191 -0.0361651 0.0210892 -0.999123
0.138342 -0.137219 -0.0504064 0.0157421 -0.0271741 0.999507
0.499608 -0.310614 0.0646792 0.998904 -0.0301799 0.0357711
0.324911 0.307824 -0.0744013 0.0596796 -0.0301404 -0.997762
0.0559407 -0.255017 -0.075361 0.00302155 -0.0868474 -0.996217
-0.0356962 0.311672 -0.00171097 0.0341926 0.997965 -0.0538163
-0.132311 -0.193528 -0.0752944 0.0358616 -0.024508 -0.999056
-0.366634 -0.281081 -0.0482338 0.41454 -0.00357174 0.910024
-0.379176 0.206452 -0.0741375 -0.0422936 0.040735 -0.998274
-0.442406 0.0150114 -0.073971 0.0265539 -0.00399255 -0.999639
0.501394 0.383664 0.0432752 0.999992 -0.00257585 0.00309382
0.499453 -0.107558 -0.00493704 0.997528 -0.010273 0.0695084
-0.124722 0.0635845 0.00853771 -0.999997 -0.00047433 0.00224024
-0.374283 0.273312 0.0563747 0.996455 0.0720694 -0.0434028
-0.29701 -0.329429 -0.0493925 -0.0016237 2.63543e-05 0.999999
0.31493 -0.394029 0.0744196 -0.0254873 0.999674 0.00178415
0.0884343 0.13855 -0.0764654 0.0204134 -0.0483337 -0.998623
