ply
format ascii 1.0
comment Created by Open3D
element vertex 400
property double x
property double y
property double z
property double nx
property double ny
property double nz
end_header
0.286192 0.18707 -0.0437114 -0.342019 -0.939693 0
-0.304301 0.148141 0.0659666 0.997204 0.0747313 0
0.158038 -0.445277 0.0414842 0.930873 -0.365342 0
-0.0805337 0.321275 0.0299111 -0.0498431 -0.998757 -0
0.0795343 -0.499914 -0.0628074 0.0498499 -0.998757 0
-0.438272 0.214659 0.0745482 0 0 1
-0.130115 0.472198 0.0745482 0 0 1
-0.117403 0.48963 -0.0341452 -0.478254 0.878221 0
0.339678 0.184041 0.0382281 0.246758 -0.969077 0
-0.44552 0.0671488 -0.0624141 -0.563315 -0.826242 0
-0.060064 0.476765 0.0745482 0 0 1
0.306061 0.356692 -0.0745482 0 0 -1
-0.152727 0.365317 -0.0640676 -0.866025 -0.5 0
-0.0433457 0.494004 0.0428409 0.342021 0.939692 0
-0.315398 -0.225902 -0.0745482 0 -0 -1
0.377416 0.204094 0.0273358 0.680171 -0.733054 0
-0.388354 -0.325671 -0.0590245 -0.781838 -0.623482 0
0.29106 0.185398 0.0440922 -0.294753 -0.955573 -0
0.0242447 -0.337992 0.0745482 0 0 1
-0.334043 0.0728626 -0.0428575 0.680173 -0.733052 0
-0.337559 0.209745 0.0136099 0.642786 0.766045 0
-0.0265805 0.335746 0.0397051 0.563321 -0.826238 0
-0.301922 -0.358782 0.0646932 0.198143 -0.980173 0
-0.380923 0.228389 0.025765 0.149043 0.988831 0
0.338764 0.357685 -0.0703126 0.246758 0.969077 0
0.30917 -0.127856 0.0745482 0 0 1
0.091571 -0.322562 -0.052434 0.198144 0.980173 0
0.00707379 0.376405 0.000270642 0.930874 -0.365341 0
0.02095 -0.388322 0.0745482 0 0 1
-0.305881 0.121191 0.0237415 0.974929 -0.222517 0
0.0334757 -0.331672 0.00533718 -0.478254 0.878222 0
-0.0387687 0.450013 -0.0745482 0 -0 -1
-0.322041 -0.268502 -0.0745482 0 0 -1
-0.337164 -0.358065 0.0241677 -0.198143 -0.980173 0
0.336404 0.358219 -0.0200341 0.19815 0.980172 0
0.0653829 -0.396887 -0.0745482 0 0 -1
0.297181 0.356181 0.0745482 0 0 1
0.476096 -0.173796 -0.0137649 0.930872 -0.365345 0
-0.0614234 0.322265 0.065366 0.149042 -0.988831 0
-0.390998 0.226845 -0.0745482 0 -0 -1
-0.452281 0.117606 0.0745482 -0 0 1
0.335863 -0.197412 -0.0745482 0 0 -1
0.163095 -0.392064 -0.0169555 0.974928 0.222519 0
-0.276614 -0.191328 0.0346229 0.478254 0.878222 0
0.150349 -0.361488 0.0743715 0.840022 0.542552 0
-0.298288 -0.240395 0.0745482 0 0 1
0.105398 -0.437182 -0.0745482 -0 0 -1
-0.399611 -0.234687 -0.0409593 -0.911508 0.411282 0
0.0683134 -0.465677 -0.0745482 0 0 -1
-0.012976 -0.423058 0.0606018 -0.992239 -0.124345 -0
-0.0717996 0.473398 -0.0745482 0 -0 -1
-0.00792986 0.352082 -0.0712971 0.749781 -0.661687 0
0.456504 -0.202309 -0.0745482 0 0 -1
0.101715 -0.496099 -0.00377111 0.294756 -0.955572 0
0.164621 -0.419225 0.0657927 0.997204 -0.0747308 0
-0.113546 0.32959 0.0350809 -0.433882 -0.90097 -0
-0.15602 0.44971 0.0430285 -0.889873 0.456208 0
0.146618 -0.456698 -0.0745482 -0 0 -1
-0.139963 0.397911 0.0745482 0 0 1
0.00408201 -0.356829 -0.0334618 -0.81194 0.583741 0
0.279339 0.207136 -0.0745482 0 0 -1
-0.409082 0.0517629 -0.0302267 -0.198146 -0.980173 -0
-0.244926 -0.218865 -0.0570084 0.811938 0.583744 0
0.353764 -0.0944774 0.0745482 0 0 1
-0.104741 0.326011 0.0732492 -0.342014 -0.939695 -0
0.317384 0.303312 0.0745482 0 0 1
-0.481095 0.157253 0.00586567 -0.984808 0.173649 0
-0.292384 -0.356504 0.0279472 0.294756 -0.955572 0
-0.336521 0.12445 -0.0745482 -0 0 -1
0.399814 0.306357 -0.0397978 0.911509 0.41128 0
-0.406412 0.186161 -0.0745482 0 0 -1
-0.457111 0.0771063 0.0209613 -0.71587 -0.698234 -0
0.326588 -0.199319 0.0454794 -0.749782 -0.661685 -0
0.260839 0.201774 0.07117 -0.642786 -0.766045 -0
0.304419 -0.130326 0.0200258 -0.99224 0.124341 0
-0.360751 0.056522 -0.0222495 0.34202 -0.939693 0
-0.00504393 -0.37183 0.0549668 -0.911506 0.411286 0
0.0449296 -0.484178 0.0745482 -0 0 1
0.317104 0.186083 0.0745482 0 0 1
-0.391924 -0.320768 -0.0226386 -0.840026 -0.542546 -0
0.165012 -0.411946 0.0127214 0.999689 -0.0249316 0
0.401667 0.239727 0.0458694 0.930872 -0.365345 0
0.00963247 -0.350152 0.0257813 -0.74978 0.661687 0
-0.298912 -0.314169 -0.0745482 -0 0 -1
0.375882 -0.124335 -0.0745482 0 0 -1
0.360323 0.193769 0.0745482 0 -0 1
-0.361872 0.223533 -0.0117462 0.342021 0.939692 0
0.106496 -0.351406 -0.0745482 0 -0 -1
-0.363425 -0.27923 -0.0745482 0 0 -1
0.287869 0.18646 -0.010173 -0.342019 -0.939693 -0
-0.246844 -0.314421 0.0745482 0 0 1
0.377964 -0.16106 -0.0745482 0 0 -1
-0.383806 -0.331073 0.0154477 -0.749781 -0.661686 -0
-0.00151549 0.431553 -0.0745482 0 0 -1
-0.398333 -0.270259 0.0745482 0 0 1
0.00919392 0.382115 0.0695069 0.947928 -0.318486 0
-0.246244 -0.324461 0.0136846 0.811935 -0.583747 0
0.447146 -0.21127 0.0321035 0.603809 -0.797129 0
0.00897728 0.423616 0.0745482 0 0 1
0.135021 -0.343719 0.00992025 0.680172 0.733052 0
0.465239 -0.0866018 -0.0173425 0.811937 0.583746 0
0.335279 0.358446 0.0562311 0.19815 0.980172 0
0.0444508 -0.494406 -0.0684861 -0.342014 -0.939695 0
-0.418452 0.0539757 0.0216359 -0.294755 -0.955573 -0
0.327831 0.21613 -0.0745482 0 0 -1
-0.318409 -0.181317 -0.0534501 0 1 0
-0.0163398 0.477592 0.0586075 0.680173 0.733052 0
0.407137 0.274363 -0.0137029 0.999689 0.0249349 0
-0.14584 0.465912 -0.0383371 -0.781833 0.623488 0
0.229759 0.286622 -0.00390268 -0.984807 0.17365 0
0.0720159 -0.402249 0.0745482 0 0 1
0.0360462 -0.451516 -0.0745482 0 0 -1
-0.165022 0.411554 0.0474232 -0.999689 0.0249316 0
0.322996 0.275395 -0.0745482 0 0 -1
0.327679 0.318784 -0.0745482 0 -0 -1
0.426823 -0.222768 -0.0680194 0.388433 -0.921477 0
-0.368126 0.172137 0.0745482 0 0 1
-0.43285 0.211708 -0.0745482 0 0 -1
-0.00644808 -0.395985 -0.0745482 0 0 -1
0.355936 -0.221062 -0.0519606 -0.433884 -0.900969 0
-0.232968 -0.242348 0.0053845 0.947927 0.318488 0
-0.259081 -0.338244 0.046125 0.64279 -0.766042 0
0.318912 -0.189392 -0.0324037 -0.840027 -0.542544 -0
0.114477 -0.479369 0.0745482 0 -0 1
0.400002 0.305941 -0.00261633 0.911509 0.41128 0
-0.480749 0.156238 -0.0745482 0 0 -1
-0.3067 -0.326573 0.0745482 0 -0 1
0.13309 -0.479063 -0.0313141 0.64279 -0.766042 0
0.431085 -0.154009 -0.0745482 -0 0 -1
-0.359947 -0.280816 0.0745482 -0 0 1
-0.398161 -0.253923 -0.0745482 0 0 -1
-0.304605 -0.359202 -0.0549852 0.149042 -0.988831 0
-0.339871 -0.356177 -0.0745482 0 0 -1
0.231917 0.24569 0.0182119 -0.962625 -0.270837 -0
0.482722 -0.13605 -0.0106674 0.999689 0.0249217 0
0.243847 0.306463 -0.0745482 0 0 -1
0.376835 -0.0543199 -0.0745482 0 0 -1
-0.00182383 -0.455348 0.0206194 -0.866025 -0.500001 -0
0.254474 0.207561 0.0373908 -0.715868 -0.698236 -0
-0.0257537 0.342129 0.0745482 0 -0 1
-0.305682 0.157583 -0.0731647 0.974929 0.222518 0
0.131627 -0.340849 -0.0263747 0.64279 0.766042 0
0.154911 -0.369265 -0.0480513 0.88987 0.456213 0
-0.229255 -0.283634 -0.0657863 0.992239 -0.124348 0
-0.33631 -0.183256 0.0302602 -0.198143 0.980173 0
0.356764 -0.179524 0.0745482 -0 0 1
-0.163167 0.428761 -0.0410451 -0.974928 0.222522 0
0.317338 -0.0926919 0.0491133 -0.840027 0.542544 0
-0.0137361 -0.415322 0.0179571 -0.997204 -0.0747296 0
-0.401141 0.0962739 0.0745482 0 0 1
0.330851 -0.115294 -0.0745482 0 0 -1
0.324345 -0.0829291 0.0115428 -0.781829 0.623492 0
-0.393239 0.0503932 0.0478099 -0 -1 -0
-0.165033 0.411104 0.00692567 -0.999689 0.0249316 0
0.427614 -0.18802 0.0745482 0 -0 1
-0.348177 0.21702 0.0524726 0.521434 0.853291 0
0.376209 -0.0520509 0.0501358 -0.198147 0.980172 0
0.35888 0.191303 -0.0436073 0.478251 -0.878223 0
0.0136036 0.40405 -0.0283835 0.997204 -0.0747304 0
-0.310405 0.1064 -0.060961 0.930875 -0.365339 0
-0.417761 0.182046 0.0745482 0 0 1
0.430802 -0.146485 0.0745482 0 -0 1
0.389921 -0.155749 0.0745482 0 0 1
-0.340323 -0.357288 0.0729847 -0.246758 -0.969077 -0
-0.273488 -0.348463 -0.000989634 0.478259 -0.878219 0
-0.429712 0.119901 -0.0745482 0 0 -1
0.237013 0.232282 -0.0744754 -0.911505 -0.411288 0
-0.246392 -0.216826 0.036765 0.811938 0.583744 0
0.303939 -0.141368 -0.020814 -0.999689 -0.0249283 0
-0.4588 0.078838 0.063205 -0.71587 -0.698234 0
0.229416 0.275361 0.0745482 0 0 1
-0.0906011 0.498747 0.037271 -0.149049 0.98883 0
-0.47771 0.169562 -0.035234 -0.947927 0.318488 0
0.461678 -0.197562 0.0671769 0.749779 -0.661688 0
-0.240761 -0.316223 -0.0282548 0.866025 -0.5 0
0.0223583 -0.482439 0.00258174 -0.6038 -0.797136 -0
-0.136061 0.344683 0.0618343 -0.680174 -0.73305 -0
-0.28767 -0.186533 -0.000474007 0.342016 0.939694 0
0.250944 0.211315 -0.049933 -0.749778 -0.66169 0
0.303962 -0.137373 -0.0559674 -0.999689 0.0249283 0
-0.0562592 0.364899 0.0745482 0 0 1
-0.0933003 0.498229 -0.00501816 -0.19815 0.980172 0
-0.398198 0.148207 -0.0745482 0 0 -1
0.479526 -0.163758 -0.0475744 0.962625 -0.270838 0
0.398968 0.233262 0.00752371 0.911509 -0.41128 0
-0.251307 -0.210903 -0.0238783 0.749781 0.661687 0
0.427292 -0.22257 -0.0120651 0.388433 -0.921477 0
-0.230434 -0.289998 0.039541 0.974928 -0.22252 0
-0.421528 0.224722 -0.0107832 -0.294753 0.955573 0
0.477923 -0.140219 -0.0745482 0 0 -1
0.0620877 -0.322165 -0.0208977 -0.149042 0.988831 0
0.0508405 -0.324616 0.0396444 -0.29475 0.955574 0
-0.269638 -0.20327 0.0745482 0 0 1
-0.333205 -0.184093 0.0745482 0 0 1
-0.136914 0.475665 -0.00661302 -0.680171 0.733054 0
-0.242972 -0.277167 0.0745482 0 -0 1
-0.464857 0.193575 0.0617006 -0.811937 0.583745 0
0.162362 -0.388855 0.0483058 0.974928 0.222519 0
0.257545 0.20463 -0.0128929 -0.680174 -0.733051 -0
-0.0488415 0.438786 0.0745482 0 0 1
0.0108594 0.38763 -0.0606441 0.962624 -0.270843 0
-0.456966 0.16075 0.0745482 0 0 1
0.374561 -0.0523842 -0.0373703 -0.198147 0.980172 0
0.453195 -0.0985788 0.0745482 0 0 1
0.37942 0.335541 -0.073827 0.680167 0.733057 0
-0.0489336 0.495936 0.00385915 0.294756 0.955572 0
0.35629 0.351456 0.0197855 0.433884 0.900969 0
0.47228 -0.0977371 -0.0553747 0.889874 0.456207 0
0.400066 0.262085 0.0745482 0 0 1
0.367337 -0.225385 0.016868 -0.294756 -0.955572 -0
0.00404705 -0.464263 -0.0680798 -0.811938 -0.583744 0
0.40663 0.280873 0.0344212 0.992239 0.124346 0
-0.036916 0.379769 -0.0745482 -0 0 -1
-0.230958 -0.249197 -0.073802 0.974928 0.22252 0
0.0552445 -0.369371 0.0745482 0 0 1
0.0292834 -0.438443 0.0745482 -0 0 1
-0.00450388 -0.370768 0.00256677 -0.889871 0.456212 0
-0.0940885 0.496279 0.0745482 0 0 1
0.443251 -0.0656021 0.0531288 0.563317 0.826241 0
-0.0776591 0.5 -0.0459486 -0 1 0
0.478536 -0.167101 0.0379107 0.947927 -0.318488 0
0.35064 -0.218391 -0.0151659 -0.478256 -0.87822 0
0.128886 -0.413197 0.0745482 0 -0 1
-0.22955 -0.256056 -0.0345897 0.984807 0.17365 0
-0.319516 0.0893312 0.000920575 0.811937 -0.583746 0
0.350845 -0.137135 0.0745482 0 0 1
-0.146317 0.405749 -0.0745482 0 0 -1
-0.123671 0.335146 -0.06923 -0.521436 -0.853291 0
-0.305353 0.123917 -0.0248715 0.984807 -0.17365 0
0.395053 -0.0953596 0.0745482 0 0 1
0.0638046 -0.439041 0.0745482 -0 0 1
-0.373552 -0.200811 -0.0445811 -0.642794 0.766039 0
0.0116076 -0.473053 -0.0320127 -0.715869 -0.698234 0
-0.00462374 0.356122 -0.0319164 0.781834 -0.623487 0
-0.33462 0.08397 -0.0745482 0 0 -1
0.00673907 -0.359848 -0.0745482 0 0 -1
-0.00777729 0.468885 -0.0332815 0.749781 0.661687 0
-0.0450181 0.416708 -0.0745482 0 -0 -1
0.314138 0.360107 0.0170295 -0.0498433 0.998757 0
0.335172 0.183025 -0.0685152 0.198146 -0.980172 0
-0.286332 -0.255663 -0.0745482 0 0 -1
-0.307034 0.163203 0.0317157 0.962623 0.270844 0
-0.325603 0.0814441 0.0366608 0.749781 -0.661686 0
-0.346029 0.0639393 0.0650458 0.521434 -0.853291 0
-0.357938 -0.192533 -0.0745482 0 0 -1
0.382366 -0.0510465 0.0168383 -0.0995676 0.995031 0
-0.441746 0.154121 -0.0745482 0 0 -1
0.00375007 0.451842 0.0306453 0.889874 0.456207 0
-0.4749 0.176548 0.0332193 -0.911504 0.411291 0
0.113643 -0.339405 0.0745482 0 0 1
0.0696115 -0.353019 -0.0745482 0 0 -1
-0.267099 -0.294289 -0.0745482 -0 0 -1
0.013382 0.401322 0.039839 0.992239 -0.124343 0
-0.00765353 0.468568 -0.0745482 0 0 -1
-0.156644 0.372768 -0.0225646 -0.911507 -0.411285 -0
-0.240994 -0.233026 0.0745482 0 0 1
-0.364447 -0.194464 0.0572757 -0.521435 0.853291 0
-0.119337 0.465426 -0.0745482 0 0 -1
-0.482384 0.131078 -0.0384255 -0.997203 -0.074738 -0
0.385542 0.223105 0.0745482 0 -0 1
-0.359358 -0.238622 0.0745482 0 0 1
0.0415735 -0.327858 -0.0722845 -0.388436 0.921476 0
0.414377 -0.0528916 -0.00759866 0.246758 0.969077 0
0.471207 -0.165374 0.0745482 0 -0 1
0.247594 0.326184 0.00295015 -0.781832 0.623489 0
0.351903 -0.0605679 -0.00824967 -0.478254 0.878222 0
-0.357098 0.0976763 0.0745482 0 0 1
0.395253 0.226091 -0.0292419 0.866027 -0.499996 0
0.289096 0.35548 -0.0327818 -0.342019 0.939693 0
-0.310954 0.105011 0.0721765 0.911506 -0.411287 0
-0.15691 0.447784 0.00472018 -0.911505 0.411288 0
-0.454737 0.204869 -0.0437576 -0.680171 0.733054 0
0.0217767 -0.481999 0.040131 -0.6038 -0.797136 -0
0.350275 -0.0836942 -0.0745482 0 0 -1
0.299666 0.248562 -0.0745482 0 0 -1
0.293816 0.211139 0.0745482 -0 0 1
0.315567 0.255781 0.0745482 -0 0 1
0.22848 0.275965 0.0344301 -0.997204 0.0747285 0
-0.406321 -0.283337 0.00604299 -0.992239 -0.124348 -0
-0.070922 0.375887 -0.0745482 -0 0 -1
0.355981 0.291979 0.0745482 0 0 1
0.362766 0.28925 -0.0745482 0 -0 -1
-0.362697 -0.348098 0.0467829 -0.521432 -0.853293 -0
-0.299858 -0.183128 0.0592109 0.198143 0.980173 0
0.0580475 -0.498263 0.0106315 -0.19815 -0.980172 -0
0.37885 0.33607 -0.0112446 0.680167 0.733057 0
-0.363063 0.223966 -0.0533511 0.342021 0.939692 0
0.275784 0.349713 0.00957179 -0.478246 0.878226 0
0.393198 0.318795 0.036335 0.840022 0.542552 0
0.236237 0.234002 0.0647333 -0.911505 -0.411288 -0
0.361112 0.255037 0.0745482 0 -0 1
-0.229034 -0.281873 -0.00848934 0.992239 -0.124348 0
-0.0286477 0.334449 0.00191569 0.521436 -0.853291 0
-0.442097 0.214832 0.0356954 -0.563317 0.826241 0
-0.328726 0.201639 -0.0664818 0.715866 0.698237 0
-0.362696 -0.348099 -0.0415475 -0.521432 -0.853293 -0
-0.456864 0.202794 0.0010479 -0.71587 0.698234 0
0.336524 -0.153982 -0.0745482 0 0 -1
-0.128977 0.48232 0.0321595 -0.603804 0.797133 0
-0.0124216 -0.394693 -0.0317065 -0.984808 0.173646 0
-0.134244 0.343045 -0.0257046 -0.642786 -0.766045 0
0.306918 -0.162791 0.045376 -0.962623 -0.270844 -0
-0.0629223 0.328701 -0.0745482 -0 0 -1
-0.382754 -0.217447 -0.0745482 0 0 -1
0.357554 -0.221782 0.0616299 -0.388433 -0.921477 -0
0.361571 0.192769 -0.00891981 0.478251 -0.878223 0
-0.324171 0.1965 0.0734778 0.781833 0.623488 0
-0.0296327 0.333847 -0.0337171 0.521436 -0.853291 0
0.482216 -0.129672 0.0682669 0.99224 0.124341 0
0.448077 -0.0690816 0.0109515 0.603807 0.79713 0
0.331683 -0.204594 0.00909381 -0.680174 -0.733051 0
-0.0811174 0.321304 -0.0124999 -0.0498431 -0.998757 0
0.16283 -0.430237 -0.0495203 0.974929 -0.222516 0
-0.335395 -0.305472 -0.0745482 0 0 -1
0.481842 -0.126689 0.0304261 0.99224 0.124341 0
0.262839 0.26573 -0.0745482 0 0 -1
-0.269594 -0.346113 -0.037852 0.521429 -0.853294 0
-0.157449 0.374553 0.0543705 -0.911507 -0.411285 -0
-0.309627 0.171265 -0.0342888 0.930874 0.36534 0
0.0919797 -0.498495 0.0443045 0.19815 -0.980172 0
0.113589 -0.32961 0.0365089 0.433884 0.900969 0
-0.401082 -0.238237 0.0256426 -0.930872 0.365345 0
0.406492 -0.0545535 0.0745482 0 0 1
-0.0911296 0.322473 -0.048268 -0.198144 -0.980173 -0
-0.390915 -0.322208 0.0731769 -0.811934 -0.58375 -0
0.12221 -0.380974 -0.0745482 0 0 -1
-0.403279 -0.297022 -0.0728737 -0.962625 -0.270836 0
-0.406688 -0.280412 -0.0324687 -0.992239 -0.124348 0
0.387404 -0.203847 0.0745482 -0 0 1
0.0932975 -0.374375 0.0745482 0 0 1
-0.0355121 0.49053 -0.0571123 0.433883 0.900969 0
-0.0959441 0.381783 0.0745482 -0 0 1
0.309677 -0.108255 -0.0128987 -0.930874 0.36534 0
-0.0118996 0.473353 0.00503548 0.715863 0.698241 0
0.0312284 -0.409633 -0.0745482 0 0 -1
-0.475536 0.104507 -0.072854 -0.911504 -0.411292 0
0.100749 -0.439383 0.0745482 0 0 1
-0.480496 0.119703 0.00676013 -0.974929 -0.222517 -0
-0.13696 0.436776 0.0745482 0 0 1
0.14697 -0.462585 0.0745482 0 -0 1
0.31471 -0.0972043 -0.044949 -0.889871 0.456212 0
-0.4117 0.0822996 -0.0745482 0 0 -1
-0.377822 0.051725 0.0138588 0.198146 -0.980173 0
-0.315271 0.183432 0.00205591 0.866024 0.500003 0
-0.372563 0.0584062 -0.0745482 -0 0 -1
-0.475219 0.103805 0.0386174 -0.911504 -0.411292 -0
-0.0936437 0.440178 0.0745482 0 0 1
0.270267 0.247831 0.0745482 0 0 1
-0.309798 -0.288096 0.0745482 0 -0 1
0.133977 -0.478319 0.0245145 0.64279 -0.766042 0
0.250727 0.329933 -0.0452494 -0.749779 0.661688 0
-0.351288 0.158259 -0.0745482 0 0 -1
0.425555 -0.109613 -0.0745482 0 -0 -1
-0.331157 0.204106 -0.0253484 0.680174 0.733051 0
0.393858 0.308082 0.0745482 0 0 1
0.36854 0.219161 -0.0745482 0 0 -1
-0.377813 0.109724 -0.0745482 0 0 -1
-0.482668 0.134868 0.0495464 -0.997203 -0.074738 0
0.278775 0.326406 -0.0745482 0 0 -1
0.427407 -0.222521 0.0631406 0.388433 -0.921477 0
0.237258 0.30973 0.0356771 -0.889872 0.456211 0
0.151703 -0.457556 -0.0049407 0.840024 -0.542549 0
-0.400485 -0.304776 0.0419036 -0.930873 -0.365343 -0
0.369192 0.343925 0.0707884 0.56332 0.826239 0
0.390666 0.250343 -0.0745482 -0 0 -1
0.0822197 -0.321359 0.0739179 0.0498499 0.998757 0
0.354031 0.254286 -0.0745482 -0 0 -1
0.23639 0.233664 -0.0151323 -0.911505 -0.411288 0
-0.373799 -0.201018 0.0235645 -0.642794 0.766039 0
-0.359218 -0.191487 -0.0113153 -0.478254 0.878222 0
0.396254 -0.22922 0.0436295 0.0498466 -0.998757 0
0.387692 -0.229082 -0.0309266 -0.0498466 -0.998757 0
-0.348949 0.132479 0.0745482 0 -0 1
0.325524 0.181646 -0.0146402 0.0995692 -0.995031 0
0.228467 0.275794 -0.0562656 -0.997204 0.0747285 0
-0.248043 -0.326747 -0.0730267 0.781835 -0.623486 0
0.11938 -0.488553 -0.0698869 0.478253 -0.878222 0
0.457997 -0.201632 -0.0316367 0.715868 -0.698236 0
-0.387864 0.136761 0.0745482 0 -0 1
-0.426291 0.0566546 0.0691244 -0.388435 -0.921476 -0
-0.0112635 -0.431941 -0.0401391 -0.974928 -0.222519 -0
-0.309324 -0.359778 -0.0017732 0.0995732 -0.99503 0
-0.0829266 0.413408 -0.0745482 0 0 -1
-0.117719 0.380702 -0.0745482 0 0 -1
-0.397089 0.226957 0.0745482 0 0 1
0.264174 0.310137 0.0745482 0 0 1
0.28426 0.278224 0.0745482 0 0 1
-0.444254 0.066286 -0.0169277 -0.563315 -0.826242 0
-0.286629 -0.196529 -0.0745482 0 0 -1
0.402147 -0.190285 -0.0745482 -0 0 -1
0.0115783 0.430562 0.0017436 0.974928 0.222522 0
0.466025 -0.0876949 0.0402373 0.811937 0.583746 0
0.00794148 -0.469071 0.0737221 -0.74978 -0.661687 -0
0.405308 0.28911 -0.0701274 0.974927 0.222523 0
-0.14917 0.442155 -0.0745482 0 0 -1
0.0510541 -0.49659 -0.0274041 -0.294756 -0.955572 -0
0.260886 0.339758 0.051056 -0.64279 0.766042 0
0.164438 -0.400353 -0.0724438 0.992239 0.124345 0
-0.035757 0.401065 0.0745482 0 -0 1
0.419917 -0.0701233 -0.0745482 0 -0 -1
