ply
format ascii 1.0
comment Created by Open3D
element vertex 400
property double x
property double y
property double z
property double nx
property double ny
property double nz
end_header
-0.179817 0.102 -0.169725 0 1 0
-0.44919 -0.042 -0.0618478 0 1 0
-0.326381 0.0689962 -0.22 0 0 1
0.2 -0.0592081 0.0740043 1 0 0
-0.0708616 -0.042 -0.055674 0 -1 0
0.195087 -0.0364371 -0.02 0 0 -1
0.137917 -0.102 -0.0134446 0 -1 0
0.369375 0.0862851 -0.26 -0 -0 -1
-0.0850875 -0.0532659 -0.26 0 0 -1
-0.370618 -0.102 0.00344697 0 -1 0
-0.2283 -0.102 -0.0224736 0 -1 0
0.114893 0.098 0.256578 0 1 0
-0.199325 0.098 -0.0109181 0 1 0
-0.173871 0.0961239 -0.26 -0 -0 -1
0.364383 -0.0564722 -0.160352 -0.733056 0 0.680169
0.499857 -0.031861 0.02 0 -0 1
0.0402884 0.102 -0.205033 0 1 0
0.00319382 0.0594031 -0.0701147 -0.0747279 0 -0.997204
-0.418283 -0.042 -0.140948 0 1 0
-0.0905218 -0.102 -0.0207659 0 -1 0
-0.394873 0.096068 -0.22 0 0 1
-0.464329 -0.0234805 -0.26 0 0 -1
-0.0472827 0.0426762 -0.103763 0.939693 0 -0.34202
-0.193901 0.0457462 -0.02 0 0 -1
-0.486985 0.098 -0.23486 0 1 0
0.240699 0.0824401 -0.22 0 0 1
0.47776 -0.042 -0.141398 0 1 0
-0.312834 -0.00888576 0.02 0 0 1
0.320486 0.013737 -0.02 -0 -0 -1
0.0900432 0.0109971 -0.02 0 0 1
0.493869 0.0486862 -0.26 -0 -0 -1
0.213603 -0.066477 -0.06 0 -0 -1
-0.348725 -0.0177047 -0.02 0 0 -1
0.0408338 0.04297 0.138425 -5.85842e-05 -0.999689 0.0249291
-0.1 -0.0654536 0.0903178 -1 0 0
0.0819508 0.102 -0.0881674 0 1 -0
-0.390818 -0.042 -0.0908785 0 1 0
-0.159838 -0.0986204 -0.18 0 0 1
-0.332142 0.0317455 -0.26 0 0 -1
0.0465391 -0.0358012 -0.101722 -0.921477 -0 -0.388434
-0.453435 0.0633949 0.02 0 0 1
-0.351629 -0.102 -0.054173 -0 -1 0
0.0369505 0.0265905 -0.153665 -0.733052 0 0.680172
0.18 -0.0419616 -0.113388 1 0 0
0.420204 -0.0428535 0.02 0 -0 1
-0.0300481 -0.0419448 0.150949 0.603805 0.797132 0
0.0280899 -0.102 0.204792 0 -1 0
-0.5 -0.0765649 -0.165184 -1 -0 0
0.0390037 -0.00954935 -0.02 0 0 -1
0.0670225 -0.102 0.160925 0 -1 0
0.431811 -0.102 -0.091261 0 -1 0
0.200371 0.0531782 -0.26 -0 -0 -1
-0.1 -0.0439118 0.20306 -1 0 0
-0.408106 -0.102 -0.112313 0 -1 0
-0.0137567 -0.0293588 -0.02 0 0 -1
0.275187 -0.102 -0.00157015 0 -1 0
-0.0494887 -0.00907597 0.192427 0.992239 0.124345 0
0.169138 0.098 0.179865 0 1 -0
0.239423 -0.0997111 -0.26 0 0 -1
0.101167 -0.0310111 0.26 0 0 1
-0.0405507 -0.0312248 0.0845355 0.811938 0.583744 -0
0.00588476 -0.0370807 -0.070362 -0.124346 0 -0.992239
0.430386 -0.102 -0.151497 0 -1 0
-0.297541 -0.0205882 -0.26 0 0 -1
0.135235 0.011722 -0.22 0 0 -1
0.134143 -0.0953194 -0.18 0 0 1
0.410654 -0.042 -0.136886 0 1 0
0.02807 0.098 0.103708 0 1 -0
0.498429 0.00543038 -0.22 0 -0 1
-0.399959 0.0473008 -0.02 0 0 -1
0.336807 -0.0527777 0.02 0 -0 1
-0.1 -0.00572662 0.070013 -1 0 -0
0.26344 0.0305649 -0.02 -0 -0 -1
-0.468096 -0.102 -0.210809 0 -1 0
-0.170986 -0.0392885 -0.0309861 -0.707107 0 0.707107
0.123137 -0.0414182 -0.26 0 0 -1
0.00905195 0.0471657 0.243306 -0.198146 -0.980172 0
0.485658 -0.0166462 -0.26 -0 -0 -1
-0.0728085 0.102 -0.184815 0 1 0
-0.348114 -0.102 -0.179736 0 -1 0
0.450409 -0.102 -0.206503 0 -1 -0
0.5 -0.0538916 -0.0344629 1 0 0
0.0480152 -0.102 -0.0237275 0 -1 0
-0.456168 -0.102 -0.0859397 0 -1 0
-0.157679 -0.0562318 0.02 0 0 1
0.171519 0.098 0.118104 0 1 -0
-0.0239035 0.00809658 -0.0760842 0.456212 0 -0.889871
0.170018 0.0201227 0.26 0 0 1
0.18 0.039972 -0.0935485 1 0 0
-0.0127747 0.098 0.0253657 0 1 -0
-0.262911 0.0266934 -0.02 0 0 -1
0.175913 -0.0428863 0.121235 0 0.911506 0.411287
-0.149572 0.0149782 -0.22 0 0 -1
-0.00992943 -0.0431619 -0.26 0 0 -1
0.000331219 -0.102 -0.253225 0 -1 0
-0.379396 -0.0527082 0.02 0 0 1
0.440541 -0.102 -0.084596 0 -1 0
-0.104165 0.098 -0.252323 0 1 0
0.257745 0.098 -0.0111137 0 1 0
-0.0752204 -0.102 -0.200578 -0 -1 0
-0.156984 -0.101741 -0.26 0 0 -1
-0.387264 0.00330113 0.02 0 0 1
0.058772 -0.102 -0.256875 0 -1 0
-0.290797 0.0485037 0.02 0 0 1
0.354965 -0.102 -0.177517 0 -1 0
-0.1 0.077436 0.232918 -1 0 -0
-0.307279 -0.0911143 0.02 0 0 1
-0.446453 0.0204393 -0.02 0 0 -1
0.2 0.00815988 0.208825 1 -0 0
0.385279 -0.102 -0.0563487 0 -1 0
0.0562423 0.098 0.0254905 0 1 -0
-0.33268 -0.042 -0.179287 0 1 0
-0.433008 -0.0694341 -0.26 0 0 -1
0.15472 -0.0394988 0.26 0 0 1
-0.129616 0.102 -0.0460102 0 1 0
0.280681 0.0519109 -0.22 0 -0 1
0.0216671 -0.042 -0.215336 0 -1 0
0.0873858 0.0259702 -0.26 -0 -0 -1
-0.403089 0.0968009 0.02 0 0 1
0.379746 -0.07899 -0.114651 -0.995031 0 -0.0995673
0.0702444 0.102 -0.0337116 -0 1 0
0.058326 -0.0694407 -0.06 0 -0 -1
0.353618 -0.0877756 -0.26 0 0 -1
-0.407187 0.010871 -0.26 0 0 -1
0.0319457 0.0927474 -0.26 -0 -0 -1
0.494978 -0.102 -0.153274 0 -1 0
-0.1 -0.0209859 0.155321 -1 0 0
0.12084 0.0257955 0.26 0 0 1
-0.490672 -0.0850431 -0.26 0 0 -1
0.195545 0.0702732 -0.02 -0 -0 -1
-0.1 0.0579623 0.0472718 -1 0 -0
0.121773 -0.102 -0.257781 0 -1 0
-0.0783644 0.102 -0.0614136 0 1 0
-0.418673 -0.102 -0.0287242 0 -1 0
0.0570725 -0.000228116 -0.22 0 -0 1
-0.0672931 0.049991 -0.26 -0 -0 -1
0.304929 -0.102 -0.198149 0 -1 0
0.126917 0.029399 0.172234 -0 -0.684727 -0.7288
-0.261103 -0.102 -0.234062 -0 -1 0
-0.00657839 0.0475575 0.106311 0.14904 -0.988831 0
0.18 0.00843442 -0.171719 1 0 -0
0.00739404 0.098 0.231505 0 1 0
0.0516326 0.0129254 0.182451 -0.000147854 -0.334847 -0.942273
0.489001 -0.102 -0.0481646 0 -1 0
0.5 0.0514839 -0.00141152 1 0 -0
-0.0532769 -0.0288877 -0.22 0 0 -1
0.366475 0.0463351 0.02 0 0 1
0.0768137 0.0567139 -0.22 0 0 1
-0.0113185 0.102 -0.217697 0 1 0
0.0572206 0.0963999 0.26 -0 0 1
0.207658 0.0184352 -0.02 -0 -0 -1
0.0454812 0.0302131 -0.0992403 -0.900968 -0 -0.433885
0.227507 -0.0497394 -0.18 0 0 1
0.191942 -0.102 0.0416692 0 -1 0
0.177405 -0.102 -0.0555067 0 -1 0
-0.395735 -0.102 -0.197874 -0 -1 0
0.492187 -0.042 -0.199029 0 1 0
-0.0165049 -0.0965425 0.26 0 0 1
0.385169 -0.102 -0.220336 0 -1 0
-0.346791 0.0516803 0.02 0 0 1
-0.372631 -0.0659669 -0.14877 0.878222 0 0.478253
0.0966271 -0.042 -0.119031 0 -1 -0
0.173888 0.098 0.0198555 0 1 0
-0.391606 -0.042 -0.214807 0 1 0
-0.354687 0.0977853 -0.02 -0 -0 -1
0.0643209 -0.045128 -0.26 0 0 -1
0.0411432 -0.0304021 0.0635569 -0.811938 0.583744 0.000221164
-0.36173 0.0844833 -0.26 -0 -0 -1
-0.261276 -0.102 -0.239141 0 -1 0
0.143383 0.0216528 -0.02 0 0 1
0.168147 0.0950224 -0.22 0 0 1
-0.160732 0.098 0.0186923 0 1 0
-0.18712 0.0356738 -0.26 -0 -0 -1
0.295748 0.0658268 0.02 0 0 1
0.335791 0.0859622 -0.02 -0 -0 -1
0.216346 0.0110909 -0.22 0 -0 1
0.00868554 -0.102 0.0650361 0 -1 0
0.0891286 -0.042 -0.0203191 0 -1 0
-0.303946 0.0874983 -0.02 -0 -0 -1
0.489611 0.00829798 -0.02 -0 -0 -1
0.365073 -0.00484421 0.02 0 -0 1
0.228517 -0.0771227 0.02 0 0 1
-0.201658 -0.102 -0.214881 -0 -1 0
0.0172196 0.0612787 -0.22 0 0 1
0.194635 0.098 0.125286 0 1 -0
-0.215578 0.0207763 -0.22 0 0 1
-0.18 -0.0231749 -0.185662 -1 0 0
0.338245 0.0593853 -0.22 0 -0 1
0.155514 -0.0254729 0.178381 -8.97609e-05 0.521436 -0.85329
0.376612 -0.042 -0.204652 -0 1 0
0.100282 -0.0422051 0.119815 0 0.889872 0.456211
-0.117176 0.0522796 -0.22 0 0 -1
-0.0401227 0.098 -0.257057 0 1 0
0.5 0.0979886 -0.240948 1 0 0
0.293067 0.098 -0.237654 0 1 0
-0.484766 0.098 0.00102942 0 1 0
0.445865 0.00579069 -0.22 0 -0 1
0.435028 0.0296041 -0.26 -0 -0 -1
0.329488 -0.042 -0.0404892 0 1 0
-0.0398615 -0.0321835 0.251418 0.811938 0.583744 0
-0.0262318 -0.102 0.0136806 0 -1 0
0.2 0.0590636 0.208817 1 -0 0
0.0317911 0.0907755 -0.08142 -0.623491 -0 -0.781831
-0.446928 -0.042 -0.193734 0 1 0
-0.0659511 0.0559549 -0.02 0 0 1
-0.391266 -0.042 -0.0765673 0 1 0
-0.206531 -0.0593909 -0.06 0 0 -1
0.162706 -0.00348598 -0.26 -0 -0 -1
0.429809 -0.102 -0.0211512 0 -1 0
0.377347 -0.042 -0.0840047 0 1 -0
0.447041 0.00709865 0.02 0 -0 1
-0.0110671 0.0467583 0.186746 0.198146 -0.980172 0
-0.261476 0.00329241 -0.22 0 0 1
-0.288882 -0.042 -0.218438 0 1 0
-0.177316 -0.102 -0.059506 0 -1 0
-0.0543417 -0.000609863 -0.26 0 0 -1
-0.260039 -0.00483313 0.02 0 0 1
0.273432 -0.0552205 -0.26 -0 -0 -1
0.115953 0.098 0.0204811 0 1 -0
-0.182985 -0.00903099 0.02 0 0 1
-0.120046 -0.102 -0.215927 -0 -1 0
-0.121111 0.0472925 -0.02 -0 -0 -1
-0.410002 0.062079 -0.26 0 0 -1
-0.228958 -0.0447724 -0.26 0 0 -1
0.241282 -0.042 -0.1893 -0 1 0
0.0465211 -0.0202822 0.230349 -0.930874 0.365342 -3.18621e-07
0.2 -0.00719659 0.0845922 1 0 0
-0.0955205 0.098 0.0859729 0 1 0
-0.18 0.0973247 -0.0767927 -1 0 0
0.263006 -0.042 -0.0473982 0 1 0
0.0689876 -0.102 0.0310237 0 -1 0
-0.113572 -0.0636995 0.02 0 0 1
-0.0708667 0.102 -0.112133 0 1 0
0.0109931 0.00793183 -0.26 -0 -0 -1
0.403219 0.038275 -0.02 -0 -0 -1
0.2 0.0358582 0.0496224 1 0 0
0.126806 -0.042 -0.0835552 0 -1 -0
0.18 0.0647381 -0.178941 1 0 -0
-0.1 0.0660569 0.15645 -1 0 -0
0.088143 0.098 0.0725745 0 1 -0
0.00289672 -0.0867374 -0.06 0 -0 -1
-0.139856 -0.042 -0.138743 0 -1 0
-0.0981341 -0.102 0.208935 0 -1 0
0.362753 0.00931236 -0.22 0 -0 1
-0.5 0.0247967 -0.233201 -1 -0 -0
-0.361863 -0.0361338 -0.26 0 0 -1
0.5 -0.0642739 -0.0960262 1 0 0
-0.487549 -0.102 0.0126731 0 -1 0
0.498761 -0.102 -0.148601 0 -1 0
0.00242265 -0.0519258 0.201568 -0.0498455 0.998757 0
-0.1 -0.0455245 0.259033 -1 0 0
-0.18 0.0569064 -0.112749 -1 0 0
-0.0367066 -0.102 0.0993967 0 -1 0
-0.287833 0.0961745 -0.26 -0 -0 -1
0.119217 0.098 0.197295 0 1 0
0.139016 0.0768552 -0.02 0 0 1
0.128393 -0.102 0.0595729 0 -1 0
-0.0230682 0.098 0.0915317 0 1 0
0.263683 0.0298592 -0.26 -0 -0 -1
-0.0707341 0.098 0.03269 0 1 -0
-0.00655776 0.039877 -0.02 0 0 1
-0.483462 0.098 -0.249928 0 1 0
0.176149 0.0349185 0.114286 0 -0.811939 0.583743
-0.232158 -0.0593332 0.02 0 0 1
-0.5 -0.0320054 -0.228351 -1 0 0
-0.055486 0.098 0.139477 0 1 0
0.300808 -0.102 -0.257095 0 -1 0
0.457295 0.0759709 -0.02 -0 -0 -1
0.125817 -0.102 0.164772 0 -1 0
-0.0996542 0.0122401 0.26 0 0 1
-0.326296 -0.0711631 -0.26 0 0 -1
0.137643 0.0457066 -0.26 -0 -0 -1
-0.0382899 0.0301533 0.0719022 0.749781 -0.661687 0
-0.0490619 -0.102 -0.253192 0 -1 0
0.2 0.0938509 0.0676238 1 0 0
0.229562 -0.0274429 -0.26 -0 -0 -1
-0.044753 0.098 0.194998 0 1 0
-0.166815 -0.0394832 -0.26 0 0 -1
-0.237502 -0.102 -0.0260787 0 -1 0
0.431752 0.0619931 -0.22 0 -0 1
-0.138653 -0.0410005 -0.22 0 0 -1
-0.46856 -0.0497754 0.02 0 0 1
0.155634 -0.042 -0.161491 0 -1 -0
0.420538 0.0690389 0.02 0 0 1
-0.314588 0.0264665 -0.02 0 0 -1
0.180879 -0.102 -0.180899 -0 -1 0
0.0254047 -0.0259845 -0.16305 -0.499997 0 0.866027
0.198512 -0.102 -0.00930858 0 -1 0
-0.046235 0.0760702 0.26 -0 0 1
-0.121393 -0.0872708 -0.06 0 -0 -1
-0.133547 0.102 -0.116523 0 1 0
-0.0475593 -0.0389441 -0.104604 0.955573 0 -0.294756
-0.24738 0.0849656 -0.22 0 0 1
-0.5 -0.0491914 -0.0870697 -1 -0 0
0.13726 0.098 0.0677275 0 1 -0
0.441549 -0.042 -0.0958646 0 1 0
-0.18 -0.00485931 -0.1242 -1 0 0
-0.233353 0.0755559 -0.22 0 0 1
-0.412778 -0.0384689 -0.02 0 0 -1
-0.471529 -0.042 -0.128721 0 1 0
0.0909817 -0.102 -0.202264 -0 -1 0
0.0651301 0.098 0.194734 0 1 0
-0.239409 0.0953954 0.02 0 0 1
0.100513 -0.102 0.216358 0 -1 0
-0.00140833 0.00469468 0.06 0 0 1
0.0962264 0.102 -0.171981 0 1 -0
0.430196 -0.0777187 -0.26 -0 -0 -1
0.248181 -0.102 -0.202227 0 -1 0
0.0592892 0.0521413 -0.02 0 0 1
0.0405257 -0.0446914 0.125776 -0 0.9518 0.30672
-0.00552756 -0.102 0.149031 0 -1 0
0.197385 0.061795 -0.26 -0 -0 -1
-0.452198 0.034095 -0.26 0 0 -1
0.2 -0.0996204 0.144616 1 0 0
-0.44919 -0.102 -0.157644 0 -1 0
-0.289451 -0.102 -0.0576489 0 -1 0
0.09849 -0.0231709 0.179705 0 0.467302 -0.884098
-0.285642 -0.0938258 -0.18 0 0 1
0.198462 -0.102 0.244975 0 -1 0
0.387915 -0.102 0.0186481 0 -1 0
0.167277 0.102 -0.0783004 0 1 -0
-0.0940454 -0.042 -0.162521 0 -1 0
-0.232319 -0.042 -0.199606 0 1 0
0.0475218 0.0959164 -0.135518 -0.955573 0 0.294756
-0.106831 0.098 0.00556876 0 1 0
0.110825 -0.0916062 -0.06 0 -0 -1
0.173977 -0.102 -0.22802 0 -1 0
0.48559 0.098 0.0180397 0 1 0
-0.433147 -0.0141007 0.02 0 0 1
-0.0698913 -0.102 0.0493691 0 -1 0
-0.1 -0.0658847 0.0918461 -1 0 0
-0.1 0.0254013 0.204179 -1 0 0
0.0444109 -0.102 -0.186037 -0 -1 0
-0.0260628 0.0351031 -0.22 0 0 1
-0.498941 -0.102 -0.0437188 0 -1 0
0.184619 -0.0598125 -0.26 0 0 -1
-0.0472598 -0.102 0.204306 0 -1 0
-0.0343422 -0.042 -0.160916 -0 -1 0
-0.5 0.0335466 -0.0167097 -1 0 0
-0.131227 0.102 -0.195165 -0 1 0
0.0656996 0.0315441 0.26 -0 0 1
-0.142365 -0.042 -0.0776618 0 -1 0
-0.0810421 -0.102 0.25645 0 -1 0
0.0221197 0.098 0.163737 0 1 0
-0.113851 -0.01644 -0.02 0 0 -1
-0.163363 -0.102 -0.00592538 0 -1 0
0.396502 0.098 -0.00737236 0 1 0
-0.0959647 0.00618238 -0.22 0 -0 1
-0.0122544 -0.0869546 -0.18 0 0 1
0.162126 -0.102 0.200557 0 -1 0
-0.218562 -0.0217754 -0.02 0 0 -1
-0.18 0.0174778 -0.0599889 -1 0 0
-0.0454333 0.0188412 0.132679 0.911506 -0.411286 0
-0.0422261 0.0247506 0.235364 0.840026 -0.542546 0
-0.298241 -0.0416889 -0.02 0 0 -1
0.2 -0.0654779 0.194128 1 0 -0
0.468636 -0.102 0.017837 0 -1 0
-0.497394 -0.042 -0.0335293 0 1 0
0.427232 -0.042 -0.208708 -0 1 0
0.33494 -0.0351425 -0.26 -0 -0 -1
0.317783 0.0160179 -0.26 -0 -0 -1
0.38022 0.098 -0.25726 0 1 0
0.0933558 0.0346303 0.113885 0 -0.811939 0.583743
-0.325264 0.00184467 -0.22 0 0 1
0.123509 -0.000934129 0.0950133 0 -0.0124827 0.999922
0.0430605 0.0234014 0.0857763 -0.867243 -0.497885 0.000371936
0.179938 0.0971612 0.26 -0 0 1
0.100452 -0.102 0.115087 0 -1 0
0.418953 -0.042 -0.0511682 0 1 -0
-0.0639783 -0.102 0.143077 0 -1 0
-0.262138 -0.0604649 -0.06 0 0 -1
0.0365938 -0.0935315 0.26 0 0 1
0.162492 -0.102 0.103847 0 -1 0
0.2 -0.0127829 0.0285459 1 0 0
-0.179505 0.098 -0.24458 0 1 0
-0.332582 -0.0442311 -0.061348 0.222521 0 -0.974928
-0.158501 0.0333368 0.02 0 0 1
0.18 0.0846788 -0.133025 1 0 -0
0.137912 0.0366792 0.162978 -0 -0.866025 -0.5
0.0899743 -0.042 -0.188354 0 -1 -0
-0.00494747 0.0878268 -0.169754 0.0747309 0 0.997204
0.324361 -0.102 -0.0454575 0 -1 0
-0.18 0.0541538 -0.192698 -1 0 0
0.167079 -0.042 -0.214966 0 1 0
-0.451984 0.00916038 -0.22 0 0 1
-0.1 0.0415653 0.110478 -1 0 -0
-0.0245457 0.102 -0.0353539 -0 1 0
0.309156 -0.042 -0.183792 -0 1 0
0.253601 -0.0162699 0.02 0 0 1
-0.391753 -0.102 -0.254744 0 -1 0
0.392474 -0.0115314 -0.26 -0 -0 -1
0.129721 0.102 -0.117649 0 1 -0
0.142012 -0.0419117 -0.02 0 0 1
0.5 -0.0890322 -0.242988 1 0 0
0.107728 0.098 0.137332 0 1 -0
0.103456 0.098 -0.232595 0 1 0
-0.0535227 -0.0034614 -0.02 0 0 1
0.241901 0.041463 0.02 0 0 1
-0.262467 0.0358901 -0.26 0 0 -1
-0.5 -0.00986064 0.0127745 -1 0 0
