ply
format ascii 1.0
comment Created by Open3D
element vertex 400
property double x
property double y
property double z
property double nx
property double ny
property double nz
end_header
0.0549088 0.340226 -0.305234 1 0 0
0.047043 0.29382 0.37876 0 1 0
-0.0440551 -0.341479 -0.499714 0 -0.123668 -0.992324
-0.0549088 -0.190832 -0.029417 -1 0 0
-0.109818 0.127899 0.293997 -1 0 0
-0.0318892 0.359226 -0.489342 0 0.794035 -0.607873
-0.00590268 -0.149985 -0.00277825 0 -0.393235 0.919438
0.0268735 -0.186889 -0.177544 0 0.5 -0.866025
0.0909783 0.118112 0.364713 0 -1 -0
-0.0439271 0.119521 0.423136 1 -0 0
-0.0545062 -0.320648 -0.144787 0 -0.837882 0.545852
-0.109818 0.282295 0.309366 -1 0 0
0.0129126 0.134261 -0.147173 0 -0.5 -0.866025
-0.0101398 -0.378385 -0.423783 0 -0.987362 -0.158481
-0.04466 -0.153396 -0.158207 0 0.5 -0.866025
0.109818 0.139635 0.25487 1 0 0
0.0549088 0.2806 -0.227612 1 0 0
0.109818 0.243161 0.311563 1 0 0
0.0549088 -0.322511 -0.250684 1 0 0
0.014776 0.300743 -0.10177 0 0.964581 0.263789
-0.0439271 0.17501 0.487153 1 -0 0
0.0189888 0.29382 0.0601221 0 1 -0
-0.0357418 0.24845 -0.266407 0 -1 0
0.0158154 0.29382 0.185177 0 1 0
0.0549088 0.361882 -0.236501 1 -0 0
0.0549088 -0.248626 -0.464907 1 0 0
0.0451462 0.29382 0.140199 0 1 -0
-0.0262609 -0.279647 -0.0929282 0 -0.715247 0.698872
-0.10931 0.153679 0.212772 -0.985278 0 -0.170962
-0.0549088 0.0231965 0.0137275 -1 0 0
0.0549088 -0.279675 -0.223922 1 0 0
-0.0549088 0.288143 0.072193 -1 0 0
-0.0549088 0.263751 -0.23514 -1 -0 -0
0.0794071 0.118112 0.279971 0 -1 -0
-0.0198028 0.169249 0.32453 0.122413 -0 0.992479
0.0189336 -0.267746 -0.080796 0 -0.680081 0.733137
0.104548 0.29382 0.296223 0 1 -0
-0.0382024 0.382803 -0.390862 0 0.997783 -0.066546
-0.0549088 0.185786 -0.0705846 -1 0 -0
-0.0252441 -0.248475 -0.331061 0 1 0
0.089248 0.244417 0.390961 0 -0.878214 0.478268
-0.0457959 0.292363 0.427967 0 0.984808 0.173649
-0.0549088 0.196865 -0.0293552 -1 0 -0
0.0549088 0.00331837 0.0160178 1 -0 0
0.0439271 0.16773 0.486607 -1 -0 0
0.0125697 0.24845 -0.372733 0 -1 0
-0.0549088 0.377685 -0.294119 -1 0 0
-0.0381346 -0.00920899 0.0301505 0 -0.207278 0.978282
0.0549088 0.203704 -0.0473539 1 0 0
0.0439271 0.202747 0.357334 -1 0 0
0.0549088 0.207158 0.0745145 1 0 -0
0.0549088 -0.250665 -0.255683 1 0 0
0.0549088 0.259843 -0.26213 1 0 0
0.0382996 -0.0606315 -0.104649 0 0.5 -0.866025
-0.0178292 -0.193791 -0.181529 0 0.5 -0.866025
0.0549088 0.242772 -0.0778527 1 0 0
0.109818 0.256848 0.223305 1 0 0
0.0356302 -0.248475 -0.42426 0 1 0
-0.0147623 -0.231557 -0.203333 0 0.5 -0.866025
0.0549088 0.344104 -0.348849 1 0 0
-0.0439271 0.247057 0.434838 1 0 -0
0.0549088 -0.252809 -0.303364 1 0 0
0.0549088 -0.146716 -0.0970652 1 0 0
0.0362739 0.166732 0.332768 -0.724255 0 0.689533
-0.0549088 0.280305 -0.409494 -1 0 0
-0.0975508 0.226506 0.450991 0 -0.456207 -0.889874
0.0586731 0.29382 0.18457 0 1 0
0.109818 0.20407 0.487075 1 0 -0
0.0890967 0.165912 0.430206 0 0.921477 -0.388432
-0.0549088 -0.0352323 -0.0127256 -1 -0 0
-3.22849e-05 -0.0786729 0.0195586 0 -0.206241 0.978501
-0.0439271 0.167618 0.444724 1 0 0
0.109818 0.264183 0.354971 1 0 0
-0.0549088 -0.25235 -0.427839 -1 0 0
-0.0137984 0.24845 -0.325578 0 -1 0
0.0411263 0.383885 -0.338944 0 0.999563 0.0295511
-0.0549088 0.163208 -0.163146 -1 -0 0
0.0549088 0.288306 0.0700075 1 0 -0
0.0549088 -0.306939 -0.139662 1 -0 0
0.011762 0.24845 -0.412262 0 -1 0
-0.0872931 0.185134 0.450841 0 0.456207 -0.889874
-0.0549088 0.162913 0.131558 -1 0 0
-0.0549088 0.275969 -0.117951 -1 -0 0
0.0499723 -0.36971 -0.461547 0 -0.967066 -0.254526
-0.0549088 -0.358571 -0.421859 -1 0 0
-0.0549088 0.146273 -0.0747123 -1 0 0
-0.109818 0.177739 0.372405 -1 0 -0
-0.0503216 0.24845 -0.437725 0 -1 0
0.0742944 0.232775 0.495814 -0 0.294762 0.955571
-0.0413888 0.338085 -0.173871 -0 0.872591 0.488452
0.109818 0.154454 0.396015 1 0 0
-0.0453352 0.210361 0.455879 -0 -0.124365 -0.992237
-0.0675936 0.118112 0.312819 0 -1 0
0.0549088 0.0830605 -0.00351294 1 0 0
-0.0549088 0.180635 0.0523304 -1 0 0
-0.0571357 0.258191 0.173918 -0.914209 0 -0.405242
0.0526942 0.118112 0.326852 0 -1 0
0.0549088 0.280979 -0.0298383 1 0 -0
-0.0729723 0.118112 0.222903 0 -1 0
0.0549088 -0.126861 -0.0544202 1 0 0
0.0549088 0.249525 -0.469041 1 0 0
-0.0141629 0.304872 -0.5 0 0 -1
0.0549088 -0.13164 -0.0013828 1 0 0
0.0445147 -0.364971 -0.236231 0 -0.94543 0.325826
-0.0549088 -0.288351 -0.373746 -1 0 0
0.0549088 0.248855 0.16082 1 0 0
-0.0229304 0.0727002 0.0770508 0 -0.719527 0.694464
0.0133563 -0.0368142 0.025965 0 -0.109305 0.994008
0.0549088 -0.349144 -0.199367 1 -0 0
-0.01374 0.29382 0.0223078 0 1 -0
0.0159604 -0.248475 -0.232758 0 1 0
0.0499924 0.10644 -0.131111 0 -0.5 -0.866025
0.0200534 -0.248475 -0.322065 0 1 0
0.101172 0.131877 0.45934 0 -0.840021 0.542554
0.0332734 -0.379317 -0.41798 0 -0.987362 -0.158481
-0.0549088 -0.072961 -0.018575 -1 0 0
-0.0549088 0.0151671 -0.044554 -1 0 -0
-0.0698678 0.138405 0.18754 -0.449594 0 -0.893233
-0.0549088 0.288938 -0.263479 -1 0 0
-0.0635033 0.118112 0.267438 0 -1 0
-0.0383884 0.29382 0.316036 0 1 0
-0.0922963 0.287712 0.192426 -0.359914 -0 -0.932986
0.0549088 -0.276503 -0.388565 1 0 0
-0.0794592 0.29382 0.277033 0 1 0
-0.0112411 -0.248475 -0.406879 0 1 0
-0.0549088 -0.318317 -0.343218 -1 0 0
0.0638612 0.21882 0.183383 0.689529 0 -0.724258
0.0462599 0.377248 -0.28326 0 0.984937 0.172911
-0.0115374 0.248369 -0.226959 0 -0.997204 -0.0747277
0.109818 0.214144 0.284669 1 0 0
0.0549088 -0.367818 -0.368993 1 0 0
-0.0241649 -0.248475 -0.266982 0 1 0
0.0549088 0.174464 0.098396 1 0 -0
0.0121023 -0.291271 -0.5 -0 -0 -1
-0.0549088 -0.334825 -0.295787 -1 0 0
-0.0805202 0.217264 0.190487 -0.0735589 0 -0.997291
-0.0132145 0.112903 0.149522 0 -0.963128 0.269044
0.0549088 0.268836 -0.369453 1 0 0
-0.0797507 0.286303 0.44767 -0 0.911505 0.411289
-0.0522393 0.0969414 0.109862 0 -0.8678 0.496914
0.0549088 0.266484 -0.167666 1 0 0
0.0511301 0.221732 -0.197675 0 -0.5 -0.866025
0.0384918 0.282665 -0.5 0 0 -1
0.0331695 0.093799 0.10446 0 -0.842136 0.539266
0.0705824 0.19131 0.498783 0 -0.149048 0.98883
0.0542216 0.112323 0.147446 0 -0.963128 0.269044
0.0549088 0.169408 -0.087663 1 0 0
-0.0549088 0.348559 -0.218783 -1 0 -0
0.0549088 0.326825 -0.218213 1 0 0
0.0460302 0.118112 0.243601 0 -1 0
0.00552462 0.360113 -0.222491 -0 0.933735 0.357966
-0.109818 0.25114 0.482908 -1 -0 0
0.0448794 0.342083 -0.181519 0 0.895057 0.445952
0.0549088 0.127058 -0.0799758 1 0 0
-0.0439271 0.156704 0.39849 1 0 0
0.0549088 0.286624 -0.44659 1 0 -0
0.0549088 0.129325 -0.016311 1 0 0
-0.0549088 0.297923 -0.212007 -1 -0 0
-0.0549088 -0.151636 -0.106384 -1 0 0
0.109818 0.24164 0.469608 1 0 0
0.00910325 -0.344693 -0.186534 0 -0.887365 0.461069
0.0830725 0.270644 0.471616 0 0.749782 0.661685
0.0439271 0.261768 0.471503 -1 -0 0
0.0792999 0.244179 0.433823 0 -0.878214 -0.478268
-0.0549088 -0.315402 -0.403052 -1 0 0
-0.109818 0.251365 0.218539 -1 0 0
-0.0549088 0.149417 -0.00846833 -1 0 -0
0.0549088 0.240937 -0.0355101 1 0 0
0.0549088 0.16811 0.0121318 1 0 0
-0.045058 -0.383013 -0.388665 0 -0.998144 -0.0609038
0.0549088 -0.186121 -0.0609833 1 0 0
-0.0405417 -0.0927193 0.0163788 0 -0.254022 0.967198
-0.109818 0.157722 0.265575 -1 0 0
0.0439271 0.178809 0.448836 -1 -0 0
-0.109818 0.196351 0.219149 -1 0 0
-0.00195168 0.29382 0.14296 0 1 0
0.0313924 0.29382 0.0191384 0 1 -0
-0.0927421 0.211152 0.368566 0 -0.124324 0.992242
0.0549088 -0.307192 -0.19357 1 0 0
-0.0152548 -0.305625 -0.12346 0 -0.780324 0.625375
0.0143116 -0.100012 -0.127385 0 0.5 -0.866025
0.0549088 -0.0408518 0.0249583 1 -0 0
0.0549088 0.181732 -0.165115 1 0 0
-0.00834469 -0.189284 -0.0221183 0 -0.481491 0.876451
-0.0549088 -0.294692 -0.287676 -1 0 0
-0.016097 -0.383907 -0.339976 0 -0.999306 0.0372551
0.0363722 0.247742 -0.222795 0 -0.974931 -0.222509
-0.0549088 0.241315 0.109698 -1 0 0
0.109118 0.118112 0.322275 0 -1 -0
0.0444655 0.0722625 -0.111379 0 -0.5 -0.866025
0.0549088 0.243678 0.0452887 1 0 -0
0.0136746 0.29382 0.225652 0 1 0
0.0549088 0.292941 -0.0893809 1 0 0
0.00116113 0.0749123 -0.112908 0 -0.5 -0.866025
-0.0549088 0.114879 0.156404 -1 0 0
-0.0454743 0.24845 -0.363204 0 -1 0
0.0549088 -0.286346 -0.327797 1 0 0
0.0106411 0.290558 0.324319 0 0 1
0.0847684 0.252587 0.190668 0.0735584 0 -0.997291
0.0549088 0.0957528 0.0308256 1 0 0
0.109818 0.16019 0.287585 1 0 0
-0.00773767 -0.368674 -0.248222 0 -0.960282 0.27903
0.0549088 -0.0755948 -0.0227396 1 0 0
-0.0549088 0.181064 -0.126413 -1 -0 0
-0.0466796 -0.368592 -0.465403 0 -0.953407 -0.301688
0.0549088 0.272838 -0.326025 1 0 0
0.0774567 0.154153 0.190107 0.17098 0 -0.985275
-0.0549088 0.200718 0.100687 -1 0 0
0.0434081 0.118112 0.192026 0 -1 0
-0.0549088 -0.252565 -0.296506 -1 0 0
0.0549088 -0.167873 -0.142285 1 0 0
0.109818 0.218355 0.232942 1 0 0
0.0143039 0.0630027 0.0676017 0 -0.647321 0.762217
-0.0549088 0.19985 0.00903383 -1 0 -0
-0.0549088 -0.379081 -0.320918 -1 0 0
0.0549088 0.308855 -0.14494 1 0 0
0.0549088 0.330885 -0.456939 1 0 -0
-0.0254334 -0.0805763 -0.116164 0 0.5 -0.866025
0.0162676 0.178196 -0.172539 0 -0.5 -0.866025
-0.0549088 -0.277281 -0.25258 -1 0 0
-0.049721 -0.373504 -0.266269 0 -0.972821 0.231558
0.0549088 -0.274054 -0.496953 1 0 0
-0.00286198 0.382604 -0.320626 0 0.996988 0.0775561
0.0183453 0.29382 0.0992556 0 1 0
0.0549088 0.313922 -0.381375 1 0 0
-0.0549088 -0.288554 -0.479474 -1 -0 0
-0.0549088 -0.270872 -0.166389 -1 0 0
0.0062857 0.339095 -0.175675 -0 0.872591 0.488452
0.0783274 0.201241 0.455838 0 0.124365 -0.992237
-0.0376094 0.21552 -0.194088 0 -0.5 -0.866025
0.0549088 0.319197 -0.263121 1 0 0
0.0149463 0.118112 0.321004 0 -1 0
0.109818 0.172018 0.221733 1 0 0
0.0549088 0.140249 0.05586 1 0 0
-0.0237361 0.29382 0.0992551 0 1 0
-0.0549088 0.0928381 0.0183169 -1 0 -0
-0.0549088 0.340798 -0.354756 -1 0 0
-0.0549088 -0.325893 -0.444371 -1 0 0
-0.0571014 0.188326 0.173841 -0.914209 0 -0.405242
0.078128 0.29229 0.428379 0 0.984808 0.173649
-0.0561322 0.136959 0.466504 0 -0.781832 0.62349
-0.0549088 0.0968301 0.0693246 -1 0 -0
0.0549088 -0.300739 -0.433294 1 0 0
0.0549088 0.21486 -0.0015395 1 0 0
-0.109818 0.249275 0.389075 -1 0 0
0.00439196 0.29382 0.269645 0 1 0
-0.104894 0.118112 0.255977 0 -1 0
-0.0549088 -0.0460363 -0.0530783 -1 0 -0
0.0549088 0.037642 -0.0188111 1 0 -0
0.0548725 0.29382 0.305125 0 1 0
-0.109818 0.118306 0.378457 -1 0 0
0.0549088 -0.258076 -0.164237 1 -0 0
-0.0326374 0.29382 0.189487 0 1 0
-0.0361425 0.370018 -0.252977 -0 0.963788 0.266669
-0.109818 0.150862 0.34277 -1 0 0
0.0543722 0.0470839 0.0551359 0 -0.568771 0.822496
-0.0536471 -0.0488435 -0.0978431 0 0.5 -0.866025
-0.0525483 0.29382 0.234334 0 1 -0
-0.0437956 0.267221 0.349093 0.997291 -0 0.0735627
0.0549088 -0.336634 -0.294408 1 -0 0
0.0549088 -0.253129 -0.114837 1 0 0
0.0135301 -0.248475 -0.364031 0 1 0
-0.0549088 0.217918 -0.103892 -1 -0 0
0.00883988 -0.146083 -0.153984 0 0.5 -0.866025
-0.109818 0.173718 0.301554 -1 0 0
0.00806344 0.29382 -0.0191078 0 1 -0
-0.109818 0.279064 0.252311 -1 0 0
-0.0827637 0.163168 0.402292 0 0.969077 0.246759
0.0549088 0.254686 0.0956657 1 0 -0
-0.0549088 -0.173685 -0.0638627 -1 0 0
0.0437107 -0.178115 -0.0159823 0 -0.481491 0.876451
-0.0549088 -0.229438 -0.184405 -1 0 0
-0.0549088 0.119211 -0.137041 -1 -0 0
-0.0549088 0.289614 0.143615 -1 0 0
0.0549088 -0.0260554 -0.0279848 1 -0 0
0.0131139 0.337454 -0.5 0 0 -1
-0.054571 0.118112 0.368642 0 -1 0
-0.0226779 -0.254338 -0.489489 0 0.788351 -0.615226
-0.0816512 0.118155 0.413909 0 -0.999689 0.0249308
-0.109818 0.240698 0.347469 -1 0 0
-0.0239199 -0.30568 -0.5 0 0 -1
-0.0549088 -0.223445 -0.138947 -1 0 -0
0.109818 0.25683 0.273453 1 0 0
0.0450469 0.222125 0.453006 0 -0.365342 -0.930873
-0.109818 0.287966 0.360311 -1 0 0
0.033505 -0.329814 -0.5 0 0 -1
-0.0532379 -0.248475 -0.384374 0 1 0
-0.0447684 0.0680645 -0.108955 0 -0.5 -0.866025
-0.0106221 0.241146 0.324319 0 0 1
0.0549088 0.175974 0.158786 1 0 0
-0.0549088 -0.316061 -0.183995 -1 0 -0
0.00019044 0.316289 -0.137534 0 0.872927 0.48785
0.0549088 0.0131688 -0.0498502 1 0 0
-0.0549088 -0.213272 -0.0983446 -1 0 -0
0.00710943 0.372063 -0.260369 -0 0.963788 0.266669
-0.0813318 0.225746 0.497766 0 0.246758 0.969077
0.00420478 0.250591 -0.483168 0 -0.91421 -0.405242
0.0549088 -0.329094 -0.34172 1 0 0
-0.0473282 0.384102 -0.346253 -0 0.999563 0.0295511
0.0549088 -0.243838 -0.211579 1 -0 0
0.0549088 -0.348096 -0.412797 1 -0 -0
0.0549088 -0.237367 -0.065373 1 0 0
0.0537357 0.140652 -0.150863 0 -0.5 -0.866025
-0.0549088 -0.322298 -0.246112 -1 0 0
-0.0505108 0.257071 0.483627 -0 0.563318 0.82624
-0.0353946 -0.251949 -0.0663583 0 -0.643277 0.765634
0.0425726 0.270379 0.343283 -0.949527 0 0.313686
0.0321951 -0.383765 -0.336154 0 -0.999306 0.0372551
-0.0549088 0.0761879 -0.0511849 -1 0 -0
0.0549088 0.134551 0.114271 1 -0 0
0.0102382 0.0339336 -0.0892494 0 -0.5 -0.866025
0.0536282 -0.121963 -0.140058 0 0.5 -0.866025
-0.0549088 0.32605 -0.497102 -1 0 0
0.0907355 0.118112 0.229443 0 -1 0
0.0549088 -0.0767049 -0.0665536 1 0 0
-0.0309749 -0.0146232 -0.078086 0 0.5 -0.866025
0.0542088 0.24845 -0.404254 0 -1 0
-0.0549088 0.261692 -0.0663933 -1 0 -0
0.0549088 -0.20098 -0.111404 1 0 0
0.099762 0.118263 0.417105 0 -0.997204 0.0747321
-0.0549088 0.338528 -0.448212 -1 0 0
-0.00683994 0.118112 0.205288 0 -1 0
-0.0388428 -0.352997 -0.204475 0 -0.908927 0.416956
-0.109818 0.266805 0.434539 -1 0 0
-0.109818 0.227864 0.263568 -1 0 0
-0.0425659 0.296613 -0.0845412 0 0.985606 0.169058
0.0549088 0.216452 0.117174 1 0 -0
0.109668 0.29382 0.389468 0 1 -0
-0.0549088 0.319122 -0.409177 -1 -0 0
-0.0549088 -0.256018 -0.220255 -1 -0 0
-0.0549088 -0.126054 -0.0657718 -1 0 0
-0.0549088 0.230658 -0.15219 -1 -0 0
-0.0899517 0.29382 0.406916 -0 1 0
0.0420759 -0.378101 -0.288007 0 -0.983014 0.183529
-0.0549088 0.239389 0.0498575 -1 0 0
-0.0439271 0.24826 0.387211 1 0 0
-0.0549088 0.0572732 0.0435447 -1 0 -0
0.0145897 -0.321618 -0.146275 0 -0.837882 0.545852
0.109818 0.268009 0.435674 1 0 0
-0.0496821 0.205332 0.368262 0 0.0249138 0.99969
-0.0331658 0.12715 0.329986 0.615245 -0 0.788336
-0.0357995 -0.0492922 0.0245929 0 -0.109305 0.994008
0.0549088 0.365338 -0.399925 1 0 -0
0.0548006 0.320943 -0.5 0 0 -1
0.0394748 0.24845 -0.297771 0 -1 0
-0.0549088 0.376434 -0.424447 -1 0 0
0.0549088 -0.21497 -0.164145 1 0 0
0.0315959 -0.293083 -0.107912 0 -0.748687 0.662923
0.0128476 -0.383756 -0.376492 0 -0.998144 -0.0609038
-0.0549088 0.30509 -0.314654 -1 0 0
0.000150482 -0.377958 -0.28724 0 -0.983014 0.183529
0.109818 0.175471 0.329614 1 0 0
0.0549088 0.214142 -0.126617 1 0 0
-0.0549088 0.137442 0.0585069 -1 0 -0
-0.049796 -0.150161 -0.0028534 0 -0.393235 0.919438
-0.0124624 0.0255627 0.0425404 0 -0.440745 0.897632
0.0546771 0.121188 0.43513 0 -0.962623 0.270844
0.0317752 0.366001 -0.473527 0 0.953251 -0.302178
-0.0535148 0.249183 -0.478817 0 -0.975701 -0.219105
0.0847738 0.29382 0.235294 0 1 0
-0.109818 0.147773 0.464552 -1 0 -0
0.0130069 -0.248475 -0.467701 0 1 0
-0.0549088 0.290893 -0.476964 -1 0 0
-0.0549088 0.115626 -0.0495833 -1 0 -0
0.0940929 0.188824 0.371731 0 0.411289 0.911505
0.0549088 -0.324883 -0.37867 1 0 0
-0.0549088 -0.347744 -0.376349 -1 0 0
0.0777197 0.29382 0.347391 0 1 -0
0.0323021 0.234127 0.329352 -0.5758 0 0.81759
-0.00634444 -0.349505 -0.497255 0 -0.453874 -0.891066
-0.0173069 0.374773 -0.441436 0 0.977859 -0.209265
-0.00164775 0.29392 -0.0586205 0 0.999706 0.024265
-0.0285023 -0.121152 -0.13959 0 0.5 -0.866025
-0.0221429 0.118112 0.247285 0 -1 0
0.0273742 -0.0136233 -0.0775125 0 0.478254 -0.878221
0.020827 -0.248475 -0.277928 0 1 0
0.0928628 0.159647 0.486795 0 -0.521436 0.85329
-0.0549088 -0.28121 -0.123509 -1 0 0
-0.050681 0.29382 0.381736 -0 1 0
-0.0549088 0.255339 0.00437621 -1 0 0
0.0549088 0.0530552 -0.071606 1 0 0
0.0439271 0.153354 0.412231 -1 0 0
-0.0391354 0.29382 -0.0380458 0 1 -0
0.0524437 0.29382 0.263008 0 1 0
0.019171 -0.120604 0.00831775 0 -0.301189 0.953564
-0.0073174 0.0944686 0.105544 0 -0.8678 0.496914
0.0549088 0.257169 -0.12309 1 0 0
0.0549088 0.301361 -0.299277 1 0 0
0.0439271 0.149432 0.374879 -1 0 -0
-0.0549088 0.227803 0.146294 -1 0 0
-0.0549088 -0.0838217 -0.0690856 -1 0 0
0.0360449 0.376508 -0.433325 0 0.977859 -0.209265
-0.0549088 0.0599305 -0.0107913 -1 0 -0
-0.0549088 0.275812 -0.164498 -1 0 0
-0.0438753 0.315572 -0.13625 0 0.872927 0.48785
0.015192 0.118112 0.275209 0 -1 0
-0.0278095 -0.220821 -0.0420535 0 -0.565106 0.825018
-0.0549088 0.256717 -0.311374 -1 0 0
0.00981292 0.217516 -0.195241 0 -0.5 -0.866025
-0.0831828 0.173057 0.493612 0 -0.388432 0.921477
