ply
format ascii 1.0
comment Created by Open3D
element vertex 400
property double x
property double y
property double z
property double nx
property double ny
property double nz
end_header
0.448298 -0.00655169 -0.0510941 0 -0.124345 -0.992239
0.178035 -0.0489419 -0.0230153 0 -0.900969 -0.433883
0.0576221 -0.0941069 -0.00277272 -0 -0.998757 -0.0498454
0.102436 -0.0864327 0.0372841 0 -0.921477 0.388434
-0.440039 2.24002e-05 0.0515277 1.14497e-18 0.0249317 0.999689
0.499865 -0.0374802 -0.03534 -0 -0.733052 -0.680173
-0.0556686 -0.0473495 0.0261321 0 -0.878221 0.478254
0.293644 0.0556855 0.0209402 -0 -0.939693 -0.34202
-0.0227803 -0.0370312 -0.0865575 -0 -0.411285 -0.911507
0.00959443 0.0734742 0.0588743 0 0.766044 0.642788
-0.0313209 -0.0708035 0.0620571 0 -0.766044 0.642788
0.344866 0.0981049 -0.0121304 0.706993 -0.703706 0.070416
-0.146169 -0.0595429 0.121409 0 -0.456211 0.889872
0.30539 -0.133141 -0.0237304 0 -0.980172 -0.198147
0.436797 -0.0397982 0.0327091 0 -0.766044 0.642788
0.0450316 0.0439368 -0.0832521 0 0.456212 -0.889871
0.112482 0.0204203 0.0500828 0 0.365342 0.930873
0.286043 -0.105772 -0.0440974 -1 0 0
-0.317556 -0.0509716 -0.00744707 -0 -0.988831 -0.149041
-0.216752 -0.0539014 -0.00449533 0 -0.995031 -0.0995681
0.306262 -0.0523841 -0.0134418 -0 -0.969077 -0.246758
-0.0063896 0.0906142 -0.0255796 0 0.955573 -0.294754
0.33982 0.0594087 0.00309693 -0 -0.998757 -0.0498453
-0.2253 0.0490518 -0.015741 0 0.955573 -0.294756
-0.0381581 0.0381819 0.0383048 0 0.698237 0.715866
-0.5 0.0214962 0.0466351 -1 0 -0
0.392131 -0.0540811 -0.000238412 0 -1 0
-0.195281 -0.13025 0.0363926 0 -0.969077 0.246758
0.392075 -0.027696 0.106195 1 0 0
-0.357577 0.042074 0.0297329 0 0.82624 0.563319
0.287517 0.0518098 0.0155149 0 0.955573 0.294756
-0.147546 0.0329417 -0.0495423 0 -0.542546 0.840026
-0.5 0.0319454 0.00972328 -1 0 -0
-0.0282078 0.0910874 0.0237378 0 0.969077 0.246758
0.178704 0.0731588 -0.0592502 0 0.766044 -0.642788
0.5 -0.0153497 0.0448904 1 0 0
0.203171 0.0291263 -0.0518761 0 -0.500002 0.866024
-0.203515 -0.134987 -0.00770114 0 -0.998757 -0.0498444
0.399508 0.0226135 0.046294 0 0.456212 0.889871
0.0869472 -0.0528617 -0.0114438 -0 -0.980172 -0.198146
0.00909331 0.0761771 0.055324 0 0.797132 0.603805
0.333315 0.133091 0.0239762 0 0.980172 0.198147
0.171266 -0.0712005 -0.0615839 -0 -0.766044 -0.642788
-0.220855 0.0781202 0.0754925 -1 0 0
0.158067 -0.0919946 0.0199733 0 -0.980173 0.198146
0.0342148 0.0514019 -0.0168372 0 0.955573 -0.294756
0.00266796 -0.0923282 -0.0183228 -0 -0.980173 -0.198146
0.343387 -0.0913636 -0.015917 1 -0 0
-0.128091 0.00517581 0.0592682 0 -0.0747296 -0.997204
0.5 -7.77676e-05 0.0126138 1 0 0
-0.329907 -0.0390673 0.0335803 0 -0.766044 0.642788
-0.0842011 -0.0160174 -0.0572924 0 0.270841 0.962624
0.4545 -0.0506993 -0.00917601 0 -0.980172 -0.198147
-0.19637 0.0086692 0.134932 0 0.0747302 0.997204
-0.106117 0.0338469 -0.0489339 0 -0.583743 0.811938
0.125062 0.0693149 -0.063685 0 0.733052 -0.680172
-0.169711 -0.0939968 0.0971839 0 -0.698237 0.715867
0.271728 -0.0503828 -0.0316396 0 0.853291 0.521435
0.0931811 0.00900604 0.0937172 0 0.0747308 0.997204
0.391902 -0.0396141 0.119923 0.985272 -0.054459 0.162089
0.0464937 0.0241863 -0.0483745 0 0.456211 -0.889872
-0.215955 -0.0404244 0.127186 -0.534861 -0.269102 0.800942
0.339155 -0.0766494 0.111411 0 -0.583744 0.811938
-0.192039 0.0323463 -0.043352 0 0.583743 -0.811938
0.0791068 -0.0528254 -0.0712741 -0.76184 -0.378129 -0.525945
-0.038914 -0.0421567 0.0841647 0 -0.456212 0.889871
-0.33851 -0.0187952 -0.047961 -0 -0.365343 -0.930873
0.298492 -0.0619314 0.120185 0 -0.456211 0.889872
0.169338 -0.00733589 0.0590352 0 0.124344 -0.992239
-0.0705704 -0.0782578 0.0523122 0 -0.826238 0.56332
-0.203109 0.0571134 0.122558 0 0.411287 0.911506
-0.084044 0.00786918 0.053518 0 0.124346 0.992239
-0.425513 0.04724 -0.0205485 0 0.921476 -0.388435
-0.412276 0.0467434 0.02166 0 0.900968 0.433885
0.159624 -0.0875776 0.0345682 0 -0.921477 0.388434
0.207099 -0.0918966 0.0204579 0 -0.980173 0.198146
0.320739 0.0488692 -0.0339266 0 -0.826238 0.563321
0.164688 0.0520777 0.0146452 0 0.969077 0.246758
0.222466 0.0228514 -0.0913332 0 0.22252 -0.974928
-0.126699 0.0393908 0.0854929 0 0.411285 0.911507
0.0569438 -0.0262358 -0.0473003 -0 -0.499999 -0.866026
-0.220855 -0.0949064 -0.077784 -1 0 0
0.295622 0.12335 -0.0554508 0 0.921476 -0.388436
-0.0576946 0.071072 0.0617371 0 0.766044 0.642788
0.344199 -0.0335477 0.131013 0 -0.27084 0.962624
-0.0754625 -0.0568111 -0.0176488 0 0.955573 0.294754
0.327212 0.0309278 0.131621 0 0.22252 0.974928
0.19703 -0.0543897 0.0241236 0 0.921476 -0.388434
0.377642 0.00273761 -0.0540276 0 0.0747296 -0.997204
0.149372 -0.0229105 -0.048994 0 -0.411286 -0.911506
-0.191745 -0.0168026 0.0986307 0 0.173647 -0.984808
-0.219831 0.0366782 -0.123666 -0.914164 0.109783 -0.390194
0.289446 0.0650742 -0.118548 0 0.5 -0.866026
0.0583225 0.0937323 -0.00865415 0 0.995031 -0.0995671
-0.103691 -0.0916746 -0.0214314 0 -0.969077 -0.246758
0.251235 0.0305261 0.051068 0 -0.500002 -0.866024
0.285999 0.0747528 -0.0572044 0 0.797132 -0.603805
-0.21612 -0.00318662 -0.13329 -0.575696 -0.0203845 -0.81741
0.35973 -0.134809 -0.0106872 0 -0.995031 -0.0995695
-0.220855 0.0315089 0.0990091 -1 0 0
-0.373514 -0.049712 0.0135254 0 -0.969077 0.246758
0.370833 0.0882166 -0.102471 0 0.661685 -0.749782
0.295616 -0.00536399 0.135111 1.24918e-16 -0.0249322 0.999689
-0.208941 0.0997267 0.00822423 0 -0.995031 -0.0995683
0.255152 -0.0278282 -0.0899491 -0 -0.318486 -0.947928
0.0451141 -0.0048106 -0.0940316 -0 -0.0747308 -0.997204
-0.0198018 -0.0532241 -0.00965123 0 -0.980172 -0.198146
0.189213 0.0507156 -0.0187826 0 0.939693 -0.342019
0.227499 -0.0037839 0.0940631 0 -0.0249283 0.999689
-0.384457 -0.0348186 -0.0379754 0 -0.661686 -0.749781
-0.267563 0.0510763 -0.00675294 0 0.988831 -0.149041
0.037329 0.0445265 0.0829498 0 0.456212 0.889871
0.392075 0.0954114 -0.049327 1 0 -0
0.370051 0.0425559 -0.0333857 0 0.797133 -0.603804
-0.296006 0.0361021 -0.0367449 0 0.698237 -0.715867
0.132989 0.0129223 -0.0525225 0 0.222522 -0.974928
0.361254 0.120235 0.0619125 0 0.878222 0.478254
-0.183059 0.131926 0.0297405 0 0.980172 0.198147
0.14011 -0.0222174 0.0914779 0 -0.22252 0.974928
0.079231 0.0663078 -0.0591697 -0.76184 0.474846 -0.440592
-0.0220721 -0.0276341 -0.0900078 0 -0.27084 -0.962624
-0.208087 -0.0947585 -0.0321799 0 0.939693 0.34202
0.103882 0.0590641 -0.00721738 0 -0.995031 0.0995688
0.342413 -0.0123742 -0.134655 0 -0.0747302 -0.997204
0.337027 -0.0399434 -0.0364621 -0 -0.733052 -0.680173
-0.411975 -0.0290308 0.0425719 0 -0.583745 0.811937
0.00563955 -0.0479113 0.0810282 0 -0.5 0.866025
0.392075 -0.107991 -0.0340181 1 -0 0
0.284502 0.0262609 -0.0533883 0 -0.45621 0.889872
0.267669 0.00724898 0.0938489 0 0.0747308 0.997204
-0.113895 -0.0648184 -0.0682663 0 -0.698237 -0.715867
0.302118 0.00180941 0.0540528 5.30957e-19 0.0249297 0.999689
-0.000681994 0.000972301 -0.0540737 0 0.0249297 -0.999689
0.118427 -0.0568459 0.0175359 0 0.955573 -0.294754
-0.0214766 -0.0788575 -0.0514327 0 -0.826238 -0.56332
-0.130335 0.0296756 -0.0893285 0 0.318486 -0.947928
-0.0668897 -0.0616133 -0.0711667 -0 -0.661686 -0.749781
-0.134954 0.0938025 0.00795241 0 0.995031 0.0995671
0.286043 -0.106857 0.011283 -1 0 0
0.308183 0.134296 -0.0158142 0 0.995031 -0.0995695
-0.089382 0.0537121 -0.0773138 0 0.583744 -0.811937
0.286043 0.0935641 -0.0115825 -1 0 -0
-0.418229 -0.000456978 -0.0515169 -0 -0.0249317 -0.999689
0.0960435 0.033267 -0.0426428 0 0.62349 -0.781832
-0.136873 0.0818075 -0.0465925 0 0.878222 -0.478254
-0.0759344 -0.0923635 0.0181484 0 -0.980173 0.198146
-0.220285 -0.0534247 -0.0871386 -0.706996 0.383697 0.594081
-0.138085 -0.00406982 0.127611 1 0 0
-0.140819 -0.0593448 -0.00437738 0 0.998757 0.0498453
-0.278509 -0.0488933 0.0162548 0 -0.955573 0.294756
-0.0931868 0.0895619 0.0289909 0 0.955573 0.294754
0.286043 0.0240494 -0.104658 -1 0 -0
-0.175262 0.0260759 -0.132691 0 0.17365 -0.984807
0.0211633 0.0930451 0.0142398 0 0.988831 0.149044
-0.172167 0.0199299 0.0902035 -1 0 -0
-0.11951 0.072166 0.0604333 0 0.766044 0.642788
0.121532 -0.094104 -0.00283106 0 -0.998757 -0.0498454
0.392075 0.106682 -0.0076027 1 -0 0
0.202412 -0.0581492 0.074022 0 -0.62349 0.781832
0.209475 -0.0720627 -0.0605564 -0 -0.766044 -0.642788
-0.210494 -0.00974738 -0.0996001 0 0.07473 0.997204
-0.0693189 -0.0512958 -0.017181 -0 -0.955573 -0.294756
0.373121 0.0312743 -0.131542 0 0.22252 -0.974928
-0.0940368 0.00823039 0.0937753 0 0.0747308 0.997204
0.261941 0.0504795 -0.0194314 0 0.939693 -0.342019
0.293686 -0.00206992 -0.135193 0 -0.0249322 -0.999689
0.245728 0.0858789 -0.038598 0 0.921477 -0.388434
0.159434 0.0556085 0.0759505 0 0.583744 0.811937
-0.0161586 -0.00487229 0.0592909 0 0.0747296 -0.997204
-0.0498785 0.0903111 -0.0265621 0 0.955573 -0.294754
-0.172167 0.0848384 0.0272709 -1 0 -0
0.0411953 -0.00778052 -0.093809 -0 -0.0747308 -0.997204
0.177915 0.0762758 -0.0551937 0 0.797132 -0.603805
-0.144998 0.0388102 0.0376834 0 0.733052 0.680173
-0.175168 -0.0897652 0.0441924 0 0.900969 -0.433884
-0.177739 0.0785194 -0.0620394 0 -0.797132 0.603805
0.286043 0.0926916 0.0819363 -1 0 -0
-0.138085 -0.122818 0.0438707 1 0 0
-0.0941509 -0.033641 0.0423445 0 -0.62349 0.781832
-0.138085 0.0804103 -0.0866076 1 -0 0
-0.0502624 0.0110651 -0.0934777 0 0.124345 -0.992239
0.241734 -0.0796155 0.0502324 0 -0.853291 0.521435
-0.0456131 -0.0850585 -0.0403175 0 -0.900968 -0.433885
0.313213 -0.00735648 -0.0590326 0 0.124344 0.992239
-0.162165 0.115337 -0.0705491 0 0.853291 -0.521435
-0.14121 0.12665 0.0473378 0 0.939693 0.342019
0.286043 0.112621 0.0420998 -1 0 -0
-0.25461 0.0155907 0.0491038 0 0.318487 0.947927
0.0611283 -0.0939096 -0.00441002 0.656062 -0.753768 -0.0376187
-0.238349 -0.0227679 0.0462149 0 -0.456212 0.889871
-0.192269 0.10892 0.0801234 0 0.797133 0.603803
0.329739 -0.0755259 -0.112171 0 -0.542546 -0.840026
-0.219971 0.0744561 -0.104932 -0.914166 0.236615 -0.329111
0.343387 0.0679896 0.0679888 1 0 0
-0.138085 -0.0147316 -0.131448 1 -0 0
-0.217494 -0.0965563 0.0262585 0 0.969078 -0.246756
0.379885 0.0952941 0.0304986 -0 -0.955572 -0.294757
0.5 -0.0327754 -0.0259693 1 -0 0
-0.192237 -0.0282035 -0.0461642 0 -0.499999 -0.866026
0.342484 -0.0538901 0.00460801 0 -0.995031 0.0995681
-0.00579281 0.0263011 0.0903829 0 0.27084 0.962624
-0.303679 -0.0466909 -0.021769 0 -0.900968 -0.433885
0.15864 -0.0446775 0.0393043 0 0.766044 -0.642788
-0.461272 0.0432998 0.0279324 0 0.85329 0.521436
0.435247 0.0509272 0.00774199 0 0.988831 0.149041
0.359502 0.133278 -0.0228999 0 0.988831 -0.149041
-0.297292 -0.0191682 0.0478146 0 -0.365343 0.930873
-0.0826613 0.0469563 0.0815796 0 0.5 0.866025
-0.223661 0.0426253 0.033294 0 0.797133 0.603804
0.471781 0.036206 -0.0366435 0 0.698237 -0.715867
0.348419 -0.0546876 -0.0837825 0 0.542545 0.840026
0.0146704 -0.0853837 0.0396423 0 -0.900968 0.433885
0.149314 0.0460832 -0.028304 0 0.853291 -0.521435
0.119835 0.0425163 0.0839804 0 0.456212 0.889871
-0.294147 -0.00181988 -0.0514829 -0 -0.0249317 -0.999689
-0.180283 0.0528366 0.011568 0 0.980172 0.198146
-0.168159 -0.00756544 0.053556 0 -0.124346 0.992239
0.0210864 -0.00755503 0.0938259 0 -0.0747308 0.997204
-0.172167 0.061564 0.0779071 -1 0 -0
0.319507 0.0812102 0.108132 0 0.583744 0.811938
-0.109725 -0.00844047 -0.0937596 0 -0.0747308 -0.997204
0.304225 -0.0468636 -0.12685 -0 -0.365341 -0.930874
0.289092 -0.0612334 0.120543 0 -0.456211 0.889872
-0.172167 0.0962028 -0.0195353 -1 -0 0
0.244964 0.00176223 -0.0594638 0 -0.0249308 0.999689
0.38525 0.0444786 -0.0896291 0 -0.456211 0.889872
-0.309759 0.0490014 0.0159043 0 0.955573 0.294756
0.00733531 0.0681922 -0.0648949 0 0.733052 -0.680172
0.245701 -0.0941282 -0.00197768 0 -1 0
-0.139228 -0.106783 0.0803589 0.706996 -0.563746 0.427021
-0.138201 0.125503 -0.042924 0.706996 0.664567 -0.241883
0.390472 0.0210635 0.0989461 0.706998 -0.15737 -0.689484
-0.0559539 0.0484792 -0.0239761 0 0.900969 -0.433883
0.224237 -0.0529776 -0.0270996 0 0.900968 0.433885
-0.0972995 0.0865189 -0.0370796 0 0.921477 -0.388434
-0.127769 -0.0107 -0.0530287 0 -0.173647 -0.984808
0.23965 -0.0523255 0.0136718 0 -0.969077 0.246758
-0.20935 -0.0493679 -0.125867 0 -0.365341 -0.930874
-0.220855 0.0881726 -0.0601037 -1 0 -0
-0.172768 -0.129839 -0.0377676 0 -0.955573 -0.294755
0.00481683 -0.0401186 -0.0439372 0 0.661686 0.749781
-0.137903 -0.0362665 0.0401238 0 -0.661686 0.749781
0.0663138 0.00022661 0.0540923 5.30957e-19 0.0249297 0.999689
0.393252 0.052686 0.0122562 0 0.969077 0.246758
-0.385042 0.0221919 -0.0465 0 0.411286 -0.911506
0.126167 -0.0804171 -0.0489208 0 -0.853291 -0.521435
0.0560231 -0.0382394 0.0860124 0 -0.411285 0.911507
0.196961 0.0920895 -0.0195034 0 0.980173 -0.198146
0.302793 0.0942794 -0.0969083 0 0.698237 -0.715867
-0.181083 -0.115192 -0.0707855 0 -0.853291 -0.521435
-0.354163 -0.00437494 0.0513288 0 -0.0747285 0.997204
0.343387 0.0524658 -0.081301 1 0 -0
-0.177686 -0.0203579 -0.133699 -0 -0.17365 -0.984807
0.299052 -0.0180224 0.134002 0 -0.124343 0.992239
0.0968002 -0.0466 0.0817853 0 -0.5 0.866025
0.223509 0.0924627 0.0176577 0 0.980173 0.198146
0.392075 0.0819558 0.076066 1 0 -0
-0.0347599 0.0558887 -0.075749 0 0.583744 -0.811937
0.0165478 0.03408 0.0419944 0 0.62349 0.781832
-0.341138 0.0371956 -0.0356467 0 0.733052 -0.680173
-0.160832 -0.134881 0.00982411 0 -0.998757 0.0498444
-0.0482527 -0.00587838 0.0939516 0 -0.0747308 0.997204
-0.23329 0.00652776 -0.0510971 0 0.124345 -0.992239
0.30141 -0.105254 -0.0849015 0 -0.766044 -0.642788
0.411802 0.0404002 -0.0319772 0 0.797132 -0.603805
-0.172167 -0.0955849 -0.00954242 -1 0 0
-0.173916 -0.0533174 0.0846675 0 0.542545 -0.840026
0.496304 -0.0473138 0.0203733 0 -0.921476 0.388435
-0.138085 -0.0373789 -0.0986109 1 -0 0
0.313483 -0.131474 0.0315888 0 -0.969077 0.246758
0.289919 -0.118158 0.0657266 0 -0.878222 0.478254
0.0438736 -0.0462787 0.0279841 0 -0.853291 0.521435
0.38545 -0.11082 0.0759627 0.405153 -0.755388 0.515015
-0.172167 8.8154e-05 -0.0845666 -1 -0 0
-0.447495 -0.0382133 -0.0345499 0 -0.733052 -0.680173
0.213906 0.0473352 0.0813608 0 0.5 0.866025
0.352797 0.118379 -0.0653213 0 0.878222 -0.478254
0.218235 -0.044018 -0.0832105 0 -0.456212 -0.889871
0.286043 -0.0642264 0.0714477 -1 0 0
-0.0557042 0.00127316 -0.0941257 4.18013e-17 0.0249283 -0.999689
0.5 0.0127984 -0.0434912 1 0 -0
-0.220698 0.115949 0.0498365 -0.985268 0.157591 0.06643
-0.0827219 0.0464534 0.0276982 0 0.853291 0.521435
0.110884 0.0752917 0.056493 0 0.797132 0.603805
0.0993854 -0.0197344 -0.050352 -0 -0.365342 -0.930873
0.337607 -0.118364 -0.0653471 -0 -0.878222 -0.478254
-0.0324658 -0.0918573 0.0206525 0 -0.980173 0.198146
-0.187768 0.0143149 0.134466 0 0.124343 0.992239
-0.143087 0.0794736 0.109381 0 0.583744 0.811938
0.0184101 0.0933204 0.0124132 0 0.988831 0.149044
-0.14374 0.0424925 0.128353 0 0.318488 0.947927
-0.375497 -0.037265 -0.035572 -0 -0.733052 -0.680173
-0.140702 -0.0996229 -0.0912803 0.706996 -0.518427 -0.48103
-0.126218 0.0526134 -0.0125413 0 0.969077 -0.246758
0.351985 0.00750483 -0.0997682 0 -0.07473 0.997204
0.250567 -0.0761628 -0.055343 0 -0.797132 -0.603805
-0.311364 0.0231751 0.0460061 0 0.456212 0.889871
0.126617 -0.0488294 -0.023249 0 -0.900969 -0.433883
-0.157798 -0.0723139 -0.114245 -0 -0.542546 -0.840026
-0.19441 -0.0279525 -0.0463091 0 -0.499999 -0.866026
-0.138085 -0.118045 -0.0271828 1 0 0
0.302973 0.008284 0.0534547 0 0.173647 0.984808
0.333056 0.0504479 -0.125444 0 0.365341 -0.930874
0.159311 0.0937704 -0.0082733 0 0.995031 -0.0995671
0.153235 0.0255223 0.0476895 0 0.456211 0.889872
-0.200238 0.127684 -0.0444979 0 0.939693 -0.342019
0.392075 -0.0327611 -0.0978148 1 0 0
0.36186 -0.0863201 -0.0506178 0 0.853291 0.521435
-0.147934 -0.0391444 -0.0373232 0 -0.733052 -0.680173
-0.465796 0.00179882 -0.0514834 0 0.0249317 -0.999689
-0.5 0.0130944 -0.027452 -1 0 0
0.160026 0.0886005 0.0317846 0 0.939692 0.342021
-0.047107 0.0924254 0.017842 0 0.980173 0.198146
0.379933 -0.0996233 0.00925771 0 0.995031 -0.0995683
0.391206 -0.0789335 -0.101573 0.914189 -0.252692 -0.316867
-0.143861 0.107166 0.0824391 0 0.797133 0.603803
0.173472 0.00561598 0.0939712 0 0.0747308 0.997204
0.000902974 -0.0460578 0.0376593 0 0.766044 -0.642788
0.28496 -0.0563329 -0.0754296 -0 -0.583744 -0.811937
0.286043 0.0447988 0.0945641 -1 0 -0
-0.0851091 -0.0404676 0.085007 0 -0.411285 0.911507
0.030116 -0.0586894 -0.00976459 0 0.988831 0.149042
-0.255105 -0.0445722 -0.0258502 0 -0.85329 -0.521436
0.369605 0.0755894 0.11213 0 0.542546 0.840026
-0.190177 0.0219841 0.049412 0 0.411286 0.911506
0.252536 -0.00937008 0.0532632 0 -0.173647 0.984808
0.238067 -0.0766408 0.0546839 0 -0.826238 0.56332
-0.00273092 0.0460968 -0.0282818 0 0.853291 -0.521435
-0.163278 0.135014 -0.00716092 0 0.998757 -0.0498444
0.343387 -0.0698329 0.0648362 1 0 0
-0.178708 -0.0433714 -0.0901935 0 0.411286 0.911506
0.0387477 -0.0822135 -0.045847 -0 -0.878222 -0.478254
0.387131 -0.110146 -0.0753719 0.534899 -0.698102 -0.475958
0.18825 -0.0927883 -0.0159434 -0 -0.988831 -0.149044
-0.123106 -0.0701432 0.0627922 0 -0.733052 0.680172
0.199138 -0.0158876 -0.0517108 0 -0.27084 -0.962624
-0.173286 -0.0901891 0.0433121 0 0.900969 -0.433884
0.38873 -0.0280061 0.0462781 0 -0.499999 0.866026
0.422158 -0.0397944 -0.0327137 0 -0.766044 -0.642788
0.204917 0.0771818 0.0538904 0 0.826238 0.56332
-0.10677 -0.0571597 0.0165187 0 0.955573 -0.294754
0.128618 -0.0641816 0.0688874 0 -0.698237 0.715867
0.344169 -0.019559 0.0504208 0 -0.365342 0.930873
0.0380581 -0.0489094 -0.080452 0 -0.5 -0.866025
-0.5 -0.0422721 -0.0243523 -1 0 0
-0.428728 -0.0510513 0.00691884 0 -0.988831 0.149041
-0.172167 -0.0752337 -0.0563046 -1 0 0
-0.209275 0.135132 -0.00479631 0 0.998757 -0.0498444
0.00326065 0.0226762 -0.0913731 0 0.22252 -0.974928
-0.132497 -0.0295543 0.0893692 0 -0.318486 0.947928
0.378057 -0.0379441 -0.0385367 -0 -0.698237 -0.715866
0.0618167 -0.0799116 0.0483788 0.656062 -0.643984 0.39353
0.367179 0.0131145 0.134599 0 0.0747302 0.997204
0.344454 -0.115129 0.07089 0 -0.853291 0.521435
0.223148 0.0507929 0.0185702 0 0.939693 0.342019
0.383987 -0.0662484 0.0749744 0 0.661686 -0.749781
0.291935 -0.050694 0.0311304 0 0.853291 -0.521435
0.191857 -0.0274276 0.0900659 0 -0.27084 0.962624
0.0784568 0.0506352 0.0719071 -0.76184 0.378129 0.525945
0.113745 0.0919811 0.0200398 0 0.980173 0.198146
0.21082 -0.0242402 0.0543272 0 0.411287 -0.911506
0.184089 -0.0106031 -0.0935356 -0 -0.124345 -0.992239
-0.469944 0.0447816 -0.0254761 0 0.878222 -0.478254
-0.377159 0.0507579 -0.0088653 0 0.988831 -0.149041
0.0592903 0.0532853 0.0264607 -0 -0.900968 -0.433885
-0.224306 -0.0537474 0.00603434 0 -0.995031 0.0995681
0.492052 0.0512227 -0.00546402 0 0.995031 -0.0995689
0.0841804 -0.0360237 0.0403381 0 -0.661686 0.749781
0.169235 0.0327093 -0.0882806 0 0.365343 -0.930873
0.458869 0.0176812 0.0483982 0 0.365343 0.930873
0.127997 0.0534699 0.0260773 0 -0.900968 -0.433885
-0.0448696 0.0314007 0.0887489 0 0.318486 0.947928
0.193581 0.0260667 0.0473978 0 0.499999 0.866026
-0.04232 -0.0226326 -0.0491194 0 -0.411286 -0.911506
0.443226 0.00260177 0.0514617 0 0.0747285 0.997204
0.244292 -0.0421186 0.0841843 0 -0.456212 0.889871
0.438365 0.00983634 -0.0505725 0 0.173648 -0.984808
0.119655 -0.052533 -0.0781245 0 -0.542545 -0.840026
-0.216346 -0.0776293 0.108202 -0.575681 -0.477312 0.663901
0.0915567 -0.0202468 -0.0919276 0 -0.22252 -0.974928
0.124363 -0.0212524 0.0497422 0 -0.411286 0.911506
-0.481303 -0.048866 0.0163433 0 -0.955573 0.294756
-0.387692 0.0206477 0.0471967 0 0.411286 0.911506
0.135248 0.0106191 -0.0935336 0 0.124345 -0.992239
0.346831 -0.025128 0.132858 0 -0.17365 0.984807
-0.220855 -0.0903445 0.0717022 -1 0 0
0.365992 -0.129875 0.0376505 0 -0.955573 0.294755
0.499384 0.0410133 0.0311678 0 0.797132 0.603805
-0.179746 0.041717 -0.0909401 0 -0.411286 0.911506
0.311219 -0.0968339 0.094415 0 -0.733052 0.680173
-0.475115 -0.0194063 0.0477211 0 -0.365343 0.930873
0.380288 -0.0276131 -0.132377 -0 -0.22252 -0.974928
-0.186171 -0.0451108 0.0298388 0 -0.826239 0.56332
0.0818141 0.0320342 -0.086142 -0.76184 0.236656 -0.602987
0.251119 0.0760878 0.0554419 0 0.797132 0.603805
0.343387 0.0115411 0.0926289 1 0 0
-0.168072 0.0744599 -0.112859 0 0.542546 -0.840026
0.392075 0.0934908 -0.0525403 1 -0 0
0.34682 0.0327213 0.043078 0 0.62349 0.781832
0.343387 0.00672708 0.0870833 1 0 0
