ply
format ascii 1.0
comment Created by Open3D
element vertex 400
property double x
property double y
property double z
property double nx
property double ny
property double nz
end_header
-0.176388 -0.194443 0.495472 0.023453 0.995722 -0.0893725
-0.0620263 -0.227205 0.325278 0.0347498 -0.999271 -0.0157904
0.245824 0.382889 -0.0611357 -0.0561399 0.982783 -0.176025
0.169348 -0.173218 -0.00972403 -0.999996 0.0026955 -0.000974914
-0.248035 -0.193953 -0.136335 -0.0165921 0.994701 0.101467
0.214089 -0.22955 0.261915 -0.00105256 -0.999681 0.0252291
0.0470651 -0.292058 -0.422738 0.999368 -0.0313878 0.0167145
-0.251185 -0.221981 0.0333261 -0.995993 0.0433107 -0.0782414
0.249099 0.303148 -0.189728 0.999421 0.0191913 -0.0280791
0.0485534 -0.298035 0.183381 -0.00622463 0.999865 0.0152258
-0.247665 -0.2164 0.378777 -0.997494 0.0430518 -0.056138
-0.086701 -0.340759 -0.438573 -0.998667 0.0389963 -0.0338099
-0.250597 -0.202752 -0.0682498 -0.999678 0.0243941 -0.00699354
0.136929 -0.165864 0.286221 -0.0180957 0.0959685 0.99522
-0.0783692 -0.296161 0.0723092 0.0255454 0.999672 -0.00172149
-0.0562415 0.29567 0.230487 0.00766251 0.658623 0.752434
0.251113 0.369531 0.011856 0.999742 0.00168909 -0.0226518
-0.1682 -0.228794 -0.0732256 0.0448738 -0.997782 -0.0491711
0.0452394 -0.191026 0.0242008 -0.0166486 0.997732 -0.0652199
0.248451 0.0453902 0.174585 0.999816 0.0176416 -0.00757961
0.245962 0.279915 0.246218 -0.022885 0.708748 0.705091
0.0238068 -0.170042 0.103788 0.0157313 0.911243 -0.411569
0.0746028 -0.226108 0.281848 -0.00240075 -0.999993 0.00269507
-0.0602877 0.325902 0.160949 -0.997122 0.00581475 -0.0755953
-0.0511859 0.199927 -0.202556 0.0319267 -0.629472 0.776367
-0.203029 -0.225811 -0.392589 0.0357661 -0.997853 -0.0548651
-0.00889119 -0.23961 -0.414308 0.360862 0.00519036 -0.932605
-0.0607572 -0.0338627 0.235442 -0.998179 0.0238821 -0.0553857
0.086018 -0.314104 0.121394 0.999695 0.00762457 -0.0235091
-0.0832987 -0.355989 0.108017 -0.69774 -0.713706 -0.0614947
-0.243186 -0.192918 0.243829 -0.0244048 0.999047 0.0361785
0.0984237 0.192789 -0.210887 0.0435284 -0.550224 0.833882
0.251101 0.098978 -0.192874 0.999548 -0.0276346 0.0118123
-0.0248584 0.110984 0.243189 0.0131592 -0.167229 -0.98583
0.0687629 -0.366187 0.0452273 0.61638 -0.787446 -0.00228479
-0.0666709 -0.367811 0.172616 -0.622864 -0.782032 0.0216244
0.250687 -0.197383 0.31722 0.999954 0.000659459 -0.00952356
0.0265232 0.210025 -0.196244 0.059869 -0.612128 0.788489
0.00399315 -0.388814 0.369796 0.0313981 -0.999507 -0.00042864
0.248424 0.134022 0.229715 0.99992 -0.0126583 0.000809709
0.250188 -0.211681 0.386432 0.999984 0.00253885 -0.00512071
0.146637 -0.0748949 -0.210026 -0.0301204 0.530201 0.847337
0.18763 0.110624 0.160852 0.0181249 -0.316447 -0.948437
0.223418 0.149447 -0.320503 -0.00383958 0.299658 -0.954039
0.174547 -0.0565843 -0.126388 -0.0088899 0.645091 0.764054
-0.0790127 -0.357263 -0.167989 -0.701957 -0.709507 -0.0620996
0.0472591 -0.26599 0.498665 -0.00850376 0.00817077 0.99993
0.172847 0.358039 0.14006 0.031707 0.933793 0.356407
0.0112841 0.294044 0.0757401 0.0664374 -0.954883 -0.289455
0.123094 0.38039 0.0796211 -0.000887007 0.968781 0.247916
0.158817 0.154639 -0.228458 -0.0454383 -0.379029 0.924268
0.250409 0.313441 -0.0785498 0.999058 -0.026884 0.0340618
0.0661336 0.335185 0.182576 0.0313595 0.821102 0.56992
-0.21632 -0.193787 -0.193222 0.016385 0.999471 -0.0280784
0.0266997 -0.271401 0.444373 -0.983781 -0.0248548 -0.177644
-0.0872117 -0.327429 -0.493682 -0.999851 -0.0133632 0.0109389
-0.0511434 -0.0641616 -0.217766 -0.042888 0.50493 0.862094
-0.0471759 -0.263736 -0.481912 -0.998596 -0.0508715 0.0147986
0.2444 0.370418 0.11181 0.0216608 0.965261 0.260389
0.250062 -0.0137219 -0.245898 0.997743 0.056412 -0.0364353
0.0704391 -0.0571233 -0.222053 -0.0465117 0.396536 0.91684
0.163293 -0.0212747 0.237132 -0.0423739 0.349896 -0.93583
0.199494 -0.144472 0.288876 -0.00682778 0.0050003 0.999964
0.0852347 0.000877638 0.243711 0.0476859 0.142755 -0.988609
0.0104878 0.297574 -0.0629771 0.00802663 -0.963895 0.266162
0.250266 0.195619 0.253324 0.998132 -0.050733 0.0340381
-0.048997 -0.229047 -0.295948 -0.0032019 -0.999914 0.0127382
0.0659027 -0.370377 -0.199065 0.52933 -0.846277 0.0602181
-0.0859124 -0.334097 -0.00620227 -0.999988 0.00433111 -0.0021236
-0.0458797 -0.280614 -0.0297805 -0.999989 -0.00360308 0.00303183
-0.159002 -0.225848 0.0353085 -0.0117908 -0.999855 0.0123117
0.191137 0.0828093 -0.331585 0.0200976 0.0776809 -0.996776
-0.0506388 0.245764 0.274582 -0.000184778 0.565134 0.824999
-0.174349 -0.193617 -0.355765 -0.0159911 0.999828 0.00941323
0.0489508 -0.295099 0.258203 0.999685 0.0128713 -0.0215428
-0.0600366 0.243735 -0.27421 0.038048 0.537676 -0.842293
0.0743292 -0.364757 0.360363 0.60978 -0.792487 0.0115421
0.250706 -0.118548 -0.277395 0.999921 0.00496134 -0.0115892
-0.049 -0.297415 0.473164 0.0013251 0.999875 -0.0157616
0.238884 0.225532 0.0253467 -0.031092 -0.995931 -0.0845799
0.13067 -0.227605 -0.0622888 -0.000599083 -0.999946 0.0103424
0.125113 0.203324 0.2976 -0.0174286 0.475032 0.879796
-0.0826009 -0.354448 0.266809 -0.71065 -0.703544 0.00132736
0.103135 0.11636 -0.325692 0.0117942 0.162184 -0.98669
-0.113174 -0.226469 -0.426917 -0.00130436 -0.999998 0.00151018
0.0304791 0.27938 0.245944 0.0271314 0.630423 0.775778
-0.0858592 -0.297663 0.344082 -0.0372109 0.997025 0.0675037
0.067268 -0.36652 -0.123344 0.572746 -0.819607 0.0143603
0.0429255 -0.0704392 -0.306788 0.00383549 -0.407612 -0.913147
0.0898297 0.358882 0.140337 -0.0101907 0.896581 0.442763
0.192985 0.22853 0.284049 -0.0437077 0.519166 0.853555
0.160832 -0.193085 -0.447029 -0.0388041 0.997616 0.0570621
0.0226724 0.0419993 0.334346 0.0874873 -0.114489 0.989565
0.213019 -0.229497 -0.0762488 0.00879117 -0.999869 -0.013592
0.160327 -0.215496 -0.499235 -0.0214628 0.00724174 -0.999743
0.0542923 0.0940061 0.246329 0.00301763 -0.189092 -0.981955
0.250351 0.293703 0.0861853 0.999921 0.00785391 -0.00982085
0.230903 0.0530059 0.332323 0.0084313 -0.0235221 0.999688
-0.1005 -0.227435 -0.11237 -0.00786649 -0.99996 0.00423945
0.179734 -0.0947647 0.0770116 -0.00117063 0.890022 -0.455915
0.148079 -0.078751 0.305298 -0.00486457 -0.37436 0.927271
0.251618 -0.110898 0.281492 0.999991 0.00326382 -0.00259862
0.0956079 0.294485 0.0727269 -0.00535101 -0.957643 -0.287909
0.192452 -0.227595 0.00400724 0.0125795 -0.999642 -0.0236227
0.169487 0.0854546 0.220017 -0.999893 -0.0110108 0.00958009
-0.0365818 -0.0990926 -0.29236 -0.00358624 -0.473242 -0.880925
-0.0692529 -0.193539 0.218453 -0.024376 0.999492 0.0205079
-0.0580186 -0.142609 0.28141 -0.998523 0.0230608 -0.0491913
0.0801106 -0.355656 0.491005 0.660506 -0.750784 0.00742937
0.0442522 -0.380503 -0.0625684 0.319665 -0.945746 0.0581283
-0.00446758 0.1893 0.208963 -0.0114298 -0.502908 -0.864264
0.117909 -0.0958039 -0.294653 -0.02213 -0.36554 -0.930533
0.251319 0.21893 -0.0764372 0.999864 -0.015251 0.00635392
0.017787 -0.308924 -0.500491 -0.0575088 0.0356495 -0.997708
-0.0543227 -0.376306 -0.34723 -0.41157 -0.911313 -0.0108911
0.123147 -0.227161 -0.225821 0.0501199 -0.998741 -0.00185124
0.118424 0.238242 -0.169712 0.0166802 -0.72429 0.689294
-0.0601403 0.315011 -0.0345729 -0.999997 0.00195412 -0.0017176
0.251436 -0.143122 -0.159269 0.994876 0.100562 -0.0104558
0.064991 -0.101269 0.294283 0.0472137 -0.485168 0.873145
-0.0384405 -0.193725 -0.456519 0.0103499 0.999707 -0.0218707
0.169033 -0.151154 0.140274 -0.997571 -0.0684075 0.0131205
0.0735676 -0.142964 0.146058 0.0157953 0.810334 -0.585756
-0.0595716 0.00911572 -0.251305 -0.999972 -0.00681107 0.00307515
0.243604 0.203806 0.088543 0.0191126 -0.855487 -0.517471
0.171452 0.0118857 -0.162468 0.0623548 0.241155 0.968481
-0.0417567 -0.381461 -0.120599 -0.385818 -0.922385 0.0187348
-0.140421 -0.228643 0.334548 0.00692395 -0.999939 -0.00866283
0.00152578 -0.185529 0.285972 -0.00588295 0.00131994 0.999982
-0.0588449 0.346038 0.0270076 -0.999937 0.00928786 -0.00632285
0.236188 -0.0263539 0.149088 0.0671252 0.415189 -0.907255
-0.0825562 -0.193878 0.0272561 -0.0161841 0.998264 0.0566368
0.113027 -0.227624 0.229242 -0.00619044 -0.999907 0.0121623
0.0948295 -0.22886 0.432134 -0.000686517 -0.999794 0.0202608
0.112234 -0.19307 -0.334472 0.0167335 0.99973 -0.0161418
-0.045006 -0.232361 0.167808 -0.998557 -0.0252058 0.0474271
0.04732 -0.378623 0.274799 0.376334 -0.925894 0.0330681
0.140307 0.272931 0.253163 -0.0245922 0.672524 0.739667
-0.0590262 0.129791 -0.254829 -0.997618 0.0600079 -0.0340073
0.241425 -0.219903 -0.500623 0.00784192 -0.00920377 -0.999927
-0.0164049 0.351022 -0.155461 -0.103763 0.891862 -0.440245
0.249508 -0.188577 -0.0988939 0.999975 -0.00701908 0.000987051
-0.168216 -0.193671 0.223834 0.00366465 0.999656 -0.0259752
0.204123 -0.228652 0.161272 0.0259564 -0.994406 -0.102389
0.155802 0.296946 -0.07028 0.0287015 -0.964408 0.262855
-0.0603544 -0.13623 -0.2096 -0.999931 0.00982431 -0.00644248
0.168447 0.22709 -0.0401373 -0.998762 0.0135068 -0.0478839
-0.113337 -0.192963 -0.178141 -0.0137256 0.999897 0.00414347
-0.0374546 -0.169176 -0.287391 -0.0329478 0.00379934 -0.99945
0.249808 -0.0509469 -0.307253 0.99942 0.0107713 -0.0322959
0.0410611 0.00158543 -0.326084 -0.00576239 -0.118131 -0.992981
-0.170831 -0.226821 -0.482478 0.00057787 -0.999972 -0.00749867
0.0125418 -0.10274 -0.189302 -0.0247286 0.672252 0.739909
0.251268 -0.122499 0.0343829 0.999884 -0.00684734 0.0135906
0.179155 -0.0814144 -0.302703 -0.0169609 -0.379334 -0.925104
0.00696554 -0.388189 -0.192945 0.0637698 -0.997964 0.00108872
-0.217811 -0.19281 0.0874147 0.00741024 0.999325 -0.0359793
-0.00378537 -0.327077 0.412611 0.120732 0.0191162 0.992501
-0.0413612 -0.147306 -0.143734 -0.010266 0.83463 0.550715
0.0872653 -0.317681 -0.17359 0.999955 0.00904218 -0.00274191
0.250354 0.0755213 0.275505 0.999976 -0.00597338 0.00361749
0.0457856 -0.283678 -0.124375 0.99975 -0.00125302 0.0223169
0.0462566 -0.233525 -0.24587 0.999982 -0.00340405 0.00499998
0.25 0.0928255 -0.260461 0.996046 0.087466 -0.0155879
0.24929 0.164255 -0.21315 0.999922 0.0121205 -0.00315086
0.169463 -0.167502 0.0642557 -0.999989 0.00438413 -0.00134581
0.00681797 0.139989 -0.234781 -0.0483338 -0.313036 0.948511
0.0780926 0.3871 0.0317907 0.0639715 0.993296 0.096287
0.207104 -0.114564 -0.0070739 0.00482843 0.999973 -0.00547564
-0.0941404 -0.191494 -0.267343 -0.0408125 0.999114 0.0102816
0.249783 -0.176228 0.24191 0.999564 0.0288129 -0.0064301
0.0874163 -0.328775 -0.0410568 0.999996 -0.00198608 0.00213767
0.0105573 -0.00879267 -0.240569 -0.0123155 0.252746 0.967454
0.04619 -0.232289 0.207746 0.999996 0.0021772 -0.0018063
-0.0471166 -0.281292 -0.264525 -0.997459 -0.0547015 0.0456498
0.173629 -0.227976 -0.162495 0.0651004 -0.997823 -0.0105836
0.098821 -0.0319811 -0.3204 0.000639576 -0.312844 -0.949804
-0.187968 -0.228318 -0.13879 0.0257332 -0.999449 -0.0209654
0.154529 -0.228554 0.274745 -0.0138499 -0.999678 0.0212663
-0.0465189 -0.265349 0.248759 -0.999922 0.0108534 -0.00610753
0.171715 0.38391 -0.0641068 0.00278509 0.980104 -0.198464
0.0535387 -0.377928 -0.433393 0.456598 -0.889247 -0.0275206
-0.0165751 -0.388424 0.230207 -0.168203 -0.985714 -0.00873486
0.195532 -0.22804 0.325124 0.0310895 -0.999441 -0.0122946
0.0289446 -0.192061 0.468613 -0.0652088 0.9961 0.0594393
-0.0612167 0.378969 -0.0713464 -0.999882 0.0153338 -0.000623334
-0.155732 -0.22651 -0.301793 -0.0644051 -0.997508 0.0287904
0.0462995 -0.280799 -0.324966 0.999529 0.0291095 -0.00971044
-0.0482047 -0.378589 -0.229071 -0.433535 -0.900456 0.0350233
0.0722001 -0.129864 -0.167611 0.0179183 0.718323 0.695479
0.186285 0.219433 0.115019 -0.0213586 0.919778 -0.391858
0.122971 -0.227765 0.0751725 -0.00335975 -0.999839 0.0176087
-0.00542265 0.307071 -0.000411171 -0.0248048 -0.992152 0.122556
0.250811 0.144277 0.299609 0.999788 0.0198156 -0.00561543
-0.0133087 0.194993 0.302992 -0.0103981 0.43116 0.902216
0.250664 0.218956 -0.139746 0.999354 0.0354091 -0.00614756
-0.0198415 -0.387778 0.30033 -0.174281 -0.984592 0.0142816
0.0554981 0.374468 -0.102075 0.0271805 0.94331 -0.330797
0.11971 0.306409 0.00409466 -0.0425855 -0.998902 0.0195305
0.249196 -0.0884276 0.143308 0.999984 0.0020944 -0.00534418
0.131959 0.132507 0.238536 -0.0028342 -0.247276 -0.968941
-0.187866 -0.191671 0.280931 0.063573 0.997976 -0.00119682
0.250586 0.222688 -0.27028 0.998794 0.0399055 -0.0285965
0.112744 -0.170703 0.102866 -0.000609908 0.914493 -0.4046
-0.00791449 -0.0742742 0.30431 -0.00254932 -0.395863 0.918306
-0.224517 -0.190969 -0.300238 0.0374886 0.999192 -0.0144924
0.0506596 -0.18573 -0.0574146 0.0290184 0.981923 0.187042
0.250781 -0.0538026 0.214682 0.999536 -0.0303043 0.00296627
-0.10052 -0.192257 -0.348714 0.0251475 0.999678 -0.00344793
0.0478948 -0.28052 0.379893 0.997706 0.031206 -0.0600713
-0.0505826 -0.227406 0.104043 0.110657 -0.989172 -0.0964015
0.0787877 0.036103 -0.248451 0.0655198 0.0301135 0.997397
0.0645254 -0.0926245 0.201545 0.115562 0.592759 -0.797046
0.0451683 -0.250135 0.0855415 0.999988 -0.00203901 0.00439474
0.179022 0.0876645 0.332592 -9.24006e-05 0.0852828 0.996357
0.170008 0.0787943 -0.224273 -0.999964 0.00460433 -0.00715185
0.167681 0.0269838 0.179776 -0.999437 0.025057 -0.0223272
0.00761876 0.323697 0.200021 0.0906579 0.694072 0.714175
0.248659 0.27333 -0.0190357 0.999902 0.00888956 -0.0108228
0.0173539 -0.227988 -0.50056 0.0294036 -0.0128773 -0.999485
0.0106879 0.361359 0.136891 0.0182297 0.902948 0.429362
-0.0476959 -0.277647 0.405521 -0.999057 -0.00423009 0.043201
0.119391 0.315221 0.21063 0.00246299 0.767407 0.641155
0.020634 -0.387128 -0.371075 0.172808 -0.984905 0.00996595
0.0460618 -0.257016 -0.0666295 0.998632 -0.0105864 0.0511978
0.249677 -0.0458316 0.29679 0.99866 -0.0504864 0.0113861
-0.249841 -0.201538 -0.468731 -0.999448 0.0221693 -0.0247412
0.250849 -0.222364 -0.315485 0.997759 0.0506608 -0.0437003
0.180199 -0.228357 -0.399313 -0.0276018 -0.999019 0.0346268
-0.103391 -0.192472 0.110368 0.0113117 0.999936 -0.000386185
0.249472 0.229514 -0.203326 0.999993 0.00166568 -0.00335549
0.0279907 0.38254 0.0734556 -0.0116622 0.968283 0.249582
0.167527 0.229804 0.0379101 -0.999948 -0.00417788 0.00928817
-0.250411 -0.224536 0.309559 -0.998829 -0.0373547 0.0307537
-0.249937 -0.194559 -0.360993 -0.997561 -0.0253336 0.0650377
0.0364331 0.388781 -0.021643 0.00236936 0.99867 -0.0515132
0.12338 0.306864 -0.219704 -0.0231486 0.749434 -0.661674
0.0714738 -0.227362 0.142611 -0.0453462 -0.998014 0.0437269
0.184099 -0.161969 -0.288785 -0.0939766 0.0510887 -0.994263
0.147757 0.389344 -0.00223741 -0.00777713 0.999926 0.00936911
-0.0862865 -0.324808 -0.275758 -0.999232 -0.031716 0.0230259
0.250701 0.0143076 0.275636 0.99711 0.0199924 -0.0732963
-0.126961 -0.229545 0.261394 -0.00198902 -0.999946 0.0101754
0.173145 0.239353 -0.276654 -0.0135991 0.556398 -0.830804
0.0505778 -0.130192 -0.288604 0.0477416 -0.0110663 -0.998798
-0.167703 -0.229586 -0.218916 -0.000644457 -0.999997 0.00240056
0.249242 0.15588 0.138085 -0.0210808 -0.525528 -0.850515
0.0748084 -0.363215 -0.282869 0.642402 -0.765295 0.0405468
-0.155563 -0.227847 0.103765 -0.0033398 -0.999992 0.0024001
-0.109926 -0.19118 0.470153 -0.000874626 0.999982 0.00597962
-0.0440099 -0.192562 0.42581 -0.0362564 0.999167 0.0187514
0.136032 -0.227978 0.178677 -0.0157993 -0.998897 0.0442283
0.0957441 -0.199481 0.49982 -0.0957161 0.0147154 0.9953
-0.0595659 0.185763 0.252204 -0.999803 -0.0135372 0.0145001
0.210014 0.331256 0.190018 -0.030221 0.771774 0.635178
-0.0609756 0.285811 -0.108346 -0.995615 0.0675351 -0.0647221
0.169813 -0.130981 -0.166578 0.0112623 0.743196 0.668979
-0.201449 -0.191184 -0.0205069 -0.040951 0.997795 0.0522384
0.105003 0.136897 0.322159 -0.0329187 0.297975 0.954006
-0.07158 -0.363456 0.394934 -0.558846 -0.82909 -0.0173453
-0.0454648 -0.244026 0.0269287 -0.999449 0.0140003 -0.0301082
0.0979787 0.24837 -0.271658 0.0465387 0.581341 -0.812328
0.248993 0.0480547 0.170681 0.99864 0.0513887 -0.0088274
-0.0499749 -0.229924 -0.1853 -0.0206692 -0.99661 0.0796326
0.0691071 -0.092864 0.296746 0.00587505 -0.448463 0.893782
-0.0472866 -0.265466 -0.0891898 -0.998832 0.0453272 -0.0167105
0.25059 0.21166 0.167909 0.998898 0.0331846 -0.0332008
-0.059673 -0.13118 0.172349 -0.999352 0.0197986 -0.0300535
0.161512 0.26473 -0.138309 -0.0147765 -0.8083 0.588586
0.107219 0.191384 0.20944 0.0100735 -0.468016 -0.883663
0.249614 -0.22348 0.0496844 0.996419 0.06976 -0.0477717
9.82879e-05 -0.192968 -0.339826 0.128972 0.991112 -0.0326041
0.119314 0.0421595 -0.332513 0.0174126 -0.11394 -0.993335
0.194057 0.172089 0.311922 -0.00639376 0.345592 0.938363
0.00547645 -0.194151 0.354685 -0.0761823 0.997078 0.00571461
0.011362 0.242678 0.166116 -0.00628561 -0.787682 -0.61605
-0.0868077 -0.31103 -0.372023 -0.998871 -0.023933 0.0410453
-0.0515425 -0.377375 0.040549 -0.522398 -0.848453 0.085015
-0.0598326 0.237543 0.199312 -0.997169 0.0514465 -0.0548349
-0.0253361 -0.188719 -0.040864 -0.00229131 0.982982 0.183686
0.248999 -0.0798913 -0.211482 0.999211 0.00879201 -0.0387283
0.187369 -0.0134427 -0.326287 0.00429101 -0.236449 -0.971634
0.0540923 -0.0199873 0.321777 -0.0290344 -0.2523 0.967213
0.042755 0.125266 -0.325773 0.0497102 0.169498 -0.984276
0.249967 -0.215931 -0.0291232 0.999621 -0.020253 0.0186704
-0.241258 -0.227299 0.443821 0.0827129 -0.995792 -0.0394522
-0.0586266 0.0486748 -0.307603 -0.999971 -0.00161513 0.00740198
0.0561145 0.189319 -0.305304 0.00588496 0.37217 -0.928146
-0.0451074 0.118803 -0.325888 -0.0222848 0.211938 -0.977029
0.0434805 -0.380691 0.161621 0.30165 -0.952126 0.0496249
-0.195402 -0.193735 0.347061 -0.0246733 0.997172 0.0709885
-0.00894175 -0.387759 0.120392 0.0339443 -0.999321 -0.0143638
-0.0840538 -0.355169 -0.0667946 -0.718824 -0.695191 0.00134206
0.0657165 -0.191769 -0.439961 -0.0102219 0.999867 0.0127325
0.243094 -0.191912 0.464745 -0.0227841 0.99974 0.000452909
0.0675088 0.235182 0.279487 -0.042194 0.573774 0.817926
0.0489367 -0.290419 -0.00187102 0.997862 0.00604707 -0.0650742
0.0760926 -0.362962 0.22522 0.709045 -0.703856 -0.042922
-0.0469219 -0.233196 0.488291 -0.999306 0.0354265 -0.0115206
-0.0593504 0.00357027 0.320454 -0.999899 -0.0135622 0.00423963
0.0419129 -0.160719 -0.119786 0.024078 0.834416 0.550609
0.231534 -0.194668 -0.499667 0.00217225 -0.00544057 -0.999983
-0.0609136 0.277263 -0.206522 -0.999989 0.00205571 -0.00433086
0.088257 -0.299719 -0.492184 0.999547 -0.0286755 0.0091353
0.123049 -0.117953 0.177483 0.0199698 0.701705 -0.712188
-0.0591008 0.285976 0.0981188 0.0229165 -0.89546 -0.444552
0.062315 -0.360035 -0.500165 -0.0468791 0.0494649 -0.997675
0.237679 -0.0686841 -0.115314 0.0121495 0.762956 0.646337
0.0387787 0.276861 -0.117949 -0.0076103 -0.886339 0.462974
0.08658 -0.32707 0.428241 0.999583 0.0267752 -0.0107828
0.170519 -0.227893 0.496335 -0.00987282 -0.999852 0.0140707
0.0797273 -0.297289 0.0595644 0.00304297 0.999964 -0.00788377
0.051235 0.305445 -0.00833425 0.0173815 -0.999842 0.00370704
-0.0603567 -0.0209683 -0.319534 -0.99801 -0.0493313 0.0392852
-0.0166695 0.387646 0.0212531 0.0104438 0.999159 0.0396467
0.222611 0.364435 -0.127722 0.00369105 0.921852 -0.387525
0.0139219 0.0283569 0.247872 -0.0499361 0.158772 -0.986052
0.14155 0.0126266 0.328544 -0.0110442 -0.152283 0.988275
0.0785946 -0.193205 0.350604 -0.0115371 0.999617 0.0251541
0.218153 0.0367443 -0.205752 -0.0259539 0.974431 -0.223184
-0.166524 -0.228352 0.438844 0.0261023 -0.999648 -0.00479616
0.232083 -0.191503 -0.393659 -0.00519264 0.99998 0.00357567
0.177518 0.197138 -0.0971847 -0.0368903 -0.789616 0.612492
0.251267 -0.185654 -0.220576 0.999766 -0.00599492 0.0207957
-0.0137009 -0.387874 -0.0376803 -0.0915845 -0.995109 -0.037018
0.24964 -0.00817175 -0.157587 -0.0271361 0.427792 0.90347
0.147832 -0.191837 0.363188 -0.00419945 0.999882 0.0147671
0.248963 -0.117255 0.201022 0.998703 -0.0499867 0.0096327
0.0581534 -0.227862 -0.365457 -0.00482648 -0.999985 0.00240381
0.141565 0.365247 -0.125499 0.0118253 0.92191 -0.387223
-0.0973549 -0.209143 -0.500215 0.00171858 -0.0269819 -0.999634
0.00180814 0.0552876 -0.331862 -0.0185094 0.0131556 -0.999742
-0.0499334 -0.298696 -0.165467 0.0327542 0.997534 -0.0620684
-0.0494345 0.375086 0.095543 0.000255313 0.990107 0.140317
0.24969 0.274167 0.15912 0.998792 -0.0430085 0.0237747
-0.00520554 -0.389368 -0.485309 -0.0894578 -0.995884 0.014559
0.0167534 -0.389072 -0.301079 0.135126 -0.990758 0.0117827
0.249495 -0.19093 0.16989 0.999945 -0.00609063 0.0085233
0.184807 -0.228568 0.102195 -0.00708898 -0.999965 0.00448441
-0.0134716 0.249139 -0.159688 -0.00758506 -0.776848 0.629643
0.160946 0.0154378 -0.245187 0.0239049 0.127047 0.991609
-0.0498633 0.0363199 0.248813 -0.0276421 0.100474 -0.994556
0.0195757 -0.192632 0.47572 0.0136145 0.99966 -0.0222333
0.201897 -0.0284031 0.319845 -0.0610353 -0.212593 0.975233
0.0437304 0.121335 0.325642 0.00398105 0.181909 0.983307
0.169352 0.181634 0.180307 -0.999557 -0.0216423 0.0204155
-0.0458317 -0.250771 -0.375024 -0.999535 -0.0249732 0.0175164
0.25075 -0.208298 0.0611042 0.999918 0.00972174 -0.00829317
-0.0598659 0.152926 0.304736 -0.999906 0.0126048 -0.00532301
-0.0188647 -0.343227 -0.418118 0.655019 0.0748563 -0.751896
0.192882 0.382931 0.0591132 0.00760013 0.985228 0.171078
0.0848243 0.297151 -0.0684961 0.0377082 -0.965655 0.257077
0.0125308 0.238957 -0.27684 0.0514317 0.522091 -0.851337
-0.0961421 -0.228605 -0.0366709 -0.00999545 -0.99985 0.0141381
0.223893 -0.14308 0.0961823 -0.0898867 0.87672 0.472527
0.0959084 -0.220315 -0.500448 -0.0165757 0.019998 -0.999663
0.170255 -0.0339527 0.157584 -0.999999 0.00143997 -0.000617964
0.0110405 0.2999 -0.226223 0.0181877 0.735235 -0.677568
0.0865645 0.0605395 0.333538 0.00401759 -0.013143 0.999906
-0.0457858 -0.297293 0.128895 -0.00574748 0.999971 0.00500013
0.169888 -0.128167 -0.083434 -0.99901 0.0309918 -0.031924
-0.139508 -0.229097 0.176777 -0.0885748 -0.995775 0.0242119
0.0789575 -0.297726 -0.258071 0.047713 0.998278 -0.0341121
0.0675004 0.338302 -0.175764 0.122868 0.81312 -0.568981
-0.0189823 -0.187686 0.0504616 -0.0209853 0.975561 -0.218726
0.0870598 -0.329553 0.316435 0.999866 0.0153955 -0.00551048
0.0907533 0.239447 0.169263 0.0556784 -0.764445 -0.642281
0.163255 -0.0811535 0.20774 0.0250688 0.533267 -0.845575
0.0114057 -0.042812 0.228223 0.0335239 0.37373 -0.926932
0.248637 0.0408813 -0.329504 0.99997 0.00564116 -0.00528151
-0.10674 -0.192254 0.396618 0.0479045 0.998344 -0.0318366
0.0832292 0.106409 -0.245969 -0.155376 -0.192723 0.968874
-0.0219099 0.07505 -0.250137 0.00514464 -0.0587853 0.998257
0.170081 0.295753 0.0582715 -0.998486 0.0461411 -0.0299571
0.225652 0.282649 -0.243922 -0.0573809 0.675404 -0.735212
0.175552 -0.228229 -0.314836 0.0636931 -0.99785 -0.0154478
-0.0864723 -0.310285 0.207035 -0.998808 0.0480413 -0.00860639
0.247451 -0.124687 -0.0842262 -0.0549871 0.0193109 -0.9983
-0.245615 -0.228273 -0.247452 0.0374273 -0.996509 -0.074631
0.112364 -0.228686 -0.410845 -0.0139095 -0.999729 0.0186766
0.189949 -0.22958 0.415568 0.0165085 -0.999804 -0.0109591
0.114763 -0.157465 -0.127945 0.0129906 0.852406 0.522719
0.00672912 -0.11334 0.182397 0.0406577 0.66761 -0.743401
0.194555 0.328288 -0.190902 0.00504724 0.828336 -0.560209
-0.244768 -0.192435 0.171484 -0.00426758 0.999047 0.043439
0.111682 -0.226009 -0.132938 -0.0814733 -0.996517 0.0177597
0.250299 -0.194492 0.477107 0.999725 -0.0202318 0.0118453
-0.0619862 0.0853298 0.305155 -0.999625 0.0115216 -0.024839
0.0516178 -0.228495 -0.164636 0.0787409 -0.994445 -0.0698505
0.0484676 0.161317 0.22477 -0.0118502 -0.383982 -0.923264
0.195789 -0.227734 -0.243346 -0.0388552 -0.999194 0.0100643
-0.250575 -0.194096 0.499496 -0.99962 0.0242962 -0.0130282
0.0020308 -0.390704 0.0420765 0.0607725 -0.998151 -0.00105777
0.12066 -0.227581 0.00619881 -0.0535869 -0.998063 0.031615
0.138464 0.16265 -0.317369 -0.0344753 0.346091 -0.937567
0.0862506 -0.337465 -0.357282 0.99827 0.0314312 -0.0496831
-0.046339 -0.374642 0.499302 -0.0112683 0.019736 0.999742
0.107773 0.0661116 0.248838 4.70133e-05 -0.0443124 -0.999018
0.18063 0.112528 -0.161413 -0.0130351 -0.305587 0.952075
0.0249356 -0.386253 0.453381 0.202339 -0.976548 0.0735778
