ply
format ascii 1.0
comment Created by Open3D
element vertex 400
property double x
property double y
property double z
property double nx
property double ny
property double nz
end_header
0.0198791 0.0565132 -0.0731073 0.0256443 -0.0494155 -0.998449
0.398761 0.156726 -0.038791 -0.026619 0.969087 0.245279
-0.270698 0.126853 -0.0387038 -0.0613612 -0.997932 -0.0191204
-0.215874 -0.107241 -0.0587169 -0.55089 0.833236 0.047319
0.101302 -0.0208346 0.0745198 0.141334 -0.0117509 0.989892
0.370248 0.115213 0.0361808 0.00516551 0.728185 0.685361
-0.195793 0.156563 0.0310503 0.302446 0.241734 0.922004
0.19027 0.159984 -0.0751893 -0.00173313 0.999667 0.025741
-0.11347 0.108173 -0.0759722 -0.0240821 0.0159868 -0.999582
0.173758 0.000387428 -0.0756457 0.0195743 -0.046842 -0.998711
0.37704 0.0824905 0.0636321 -0.0224517 0.526676 0.84977
-0.0640181 -0.00970239 -0.0764085 0.0564797 -0.00768427 -0.998374
-0.15112 0.163399 -0.0286712 0.417898 0.883357 0.212229
-0.335013 -0.106863 0.0249819 0.46995 0.882634 0.0102247
0.00111392 -0.0235057 -0.0745688 -0.0226261 0.0183883 -0.999575
0.297757 -0.00814028 -0.0757779 -0.010871 0.0233589 -0.999668
-0.0402974 0.0397878 -0.0745002 -0.0517362 0.0246531 -0.998356
0.49577 -0.0166688 0.0740554 -0.0237293 0.0164232 0.999584
0.438695 -0.0918158 0.0570592 0.0344609 -0.611621 0.7904
0.29599 -0.083539 0.0631317 -0.0119593 -0.505028 0.86302
-0.177518 -0.0436769 0.0162208 -0.914234 0.403795 -0.0335526
-0.134122 -0.0228648 0.0319745 -0.0129767 0.00786729 0.999885
0.359302 0.0311811 0.075567 -0.0013173 0.0063537 0.999979
0.275374 0.0746247 -0.073537 -0.00508716 0.0133207 -0.999898
-0.104528 -0.123629 0.027746 -0.0117182 -0.635347 0.772138
0.0917873 -0.103534 -0.0753618 0.0107005 -0.00704739 -0.999918
-0.145644 0.0390474 0.032108 -0.00372479 0.00552218 0.999978
0.388073 -0.0948946 0.0527808 0.00353344 -0.591123 0.806574
-0.44365 -0.145952 -0.067359 -0.739924 -0.670921 0.0487595
-0.192876 0.132966 -0.0747531 1.68338e-05 -1.42387e-05 -1
0.18056 -0.0973198 0.0522326 0.054446 -0.611735 0.789187
0.49959 -0.00805633 0.00810733 0.998541 -0.0147689 0.0519405
0.307797 -0.142298 -0.00274409 0.0571396 -0.905762 0.419917
0.057411 -0.157024 -0.0347094 -0.00299105 -0.964399 0.264434
-0.226028 0.116712 -0.064767 -0.466018 -0.884223 0.0312482
0.499714 0.135653 -0.0647486 0.999214 0.0358598 -0.0168848
0.414757 -0.117741 0.0339266 -0.00908833 -0.718291 0.695684
-0.280664 -0.129292 -0.0273033 -0.0276451 0.999595 0.00677343
0.284645 -0.108108 -0.0739222 -0.00254772 0.00681618 -0.999974
-0.152222 0.125843 -0.0758585 0.027843 -0.0289906 -0.999192
-0.230853 -0.194554 -0.073566 -0.0485868 0.0344483 -0.998225
-0.445197 -0.0366655 0.0337636 -0.0217984 0.0283962 0.999359
0.262924 0.147566 -0.012093 -0.00681697 0.914693 0.404091
0.220585 -0.121252 -0.0766629 0.100446 -0.116946 -0.988046
0.330046 -0.11757 0.0340427 -0.0180242 -0.685757 0.727607
-0.310878 0.115717 0.027083 0.202417 -0.977446 0.0602285
0.24051 -0.0196598 0.0744703 0.00443116 -0.00686104 0.999967
0.501773 0.0459809 0.00337602 0.99829 0.0199089 -0.0549571
-0.14481 0.0769144 0.0339936 0.0059174 -0.0107452 0.999925
0.414534 0.16125 -0.0725399 0.029241 0.999567 -0.00316918
-0.0801689 0.139989 0.00381959 -0.00253435 0.866613 0.498975
-0.42607 -0.157299 -0.0282378 -0.557665 -0.788907 0.258139
0.409919 -0.048914 -0.0748724 0.0590003 -0.029573 -0.99782
-0.383793 -0.0851735 -0.0742033 0.823701 0.567015 0.00332603
-0.165995 -0.000115911 0.0314514 -0.99949 -0.0134743 0.028946
0.357861 -0.0330087 0.074441 0.0290063 -0.0237341 0.999297
-0.267195 -0.193205 0.0132239 0.0653402 -0.907806 0.414269
0.292914 0.159007 -0.0585621 0.000742367 0.993 0.118114
0.257344 0.066311 0.0712791 0.00254696 0.442831 0.896602
0.227469 0.0216958 0.0754523 -0.022169 0.00768307 0.999725
-0.399417 0.0622104 -0.0199807 0.906185 -0.420594 -0.0439351
0.500557 0.0800836 -0.0733889 0.999627 -0.0123185 0.0243935
-0.20507 0.195512 -0.0392647 0.356793 0.919086 0.167274
0.412751 -0.0660305 0.0727602 0.0483647 -0.47167 0.880448
-0.152353 0.00361409 -0.0759878 -0.0522569 0.0183781 -0.998465
-0.245657 -0.132261 0.0328258 0.00570042 -0.0132511 0.999896
0.343877 0.141296 0.00472662 -0.0160358 0.870635 0.491667
-0.0620896 -0.151309 -0.0208757 0.0275388 -0.936648 0.349187
0.213148 -0.160714 -0.0738217 -0.0047602 -0.999211 0.0394219
0.00832356 -0.00797246 0.0513787 -0.696924 -0.0111055 0.717059
-0.457442 0.0427108 -0.0751642 -0.0202503 0.069502 -0.997376
-0.318157 -0.14591 0.0314929 -0.0677102 0.0028641 0.997701
0.0215091 -0.150129 -0.0145456 -0.0393008 -0.926028 0.375403
-0.210391 -0.0919377 -0.00734573 -0.649875 0.758777 0.0438188
-0.425605 -0.0365642 -0.0752483 -0.0475314 0.0477284 -0.997729
-0.377348 0.189494 -0.0328218 -0.493701 0.837306 0.234898
0.0241802 0.156402 -0.0314114 0.0521522 0.977053 0.206511
0.500466 -0.00344725 -0.0321307 0.999285 -0.00421362 0.0375681
-0.160051 -0.162348 -0.00761589 0.534759 -0.801728 0.266954
0.0111007 0.101175 -0.0763067 0.0529659 -0.0476687 -0.997458
-0.107137 0.108626 0.0327358 0.00646779 -0.00369955 0.999972
0.437086 0.139553 0.00176579 -0.00667337 0.900308 0.435201
0.293699 0.130911 0.0175242 0.0452262 0.855628 0.515612
-0.331366 -0.118057 -0.0179851 -0.00501721 0.00601121 -0.999969
0.464673 -0.0386346 -0.0741926 -0.0539472 0.0319503 -0.998033
-0.276505 0.212068 -0.0741529 0.0182814 -0.0318837 -0.999324
0.499778 -0.0235799 -0.0769673 0.999971 0.00229576 -0.00726479
0.210372 0.125815 0.0269859 -0.0823421 0.745235 0.661698
-0.244563 0.112448 0.0315809 0.0203482 -0.0311619 0.999307
-0.407247 0.173854 -0.0438435 -0.545188 0.829045 0.124316
0.207782 0.0664495 0.0718607 0.0362691 0.383465 0.922843
-0.489735 0.0682653 -0.0683451 -0.954975 0.290325 0.0611145
-0.448077 -0.0741341 -0.0742971 0.0147612 -0.00533931 -0.999877
0.199519 0.117347 -0.0753249 -0.0507798 0.0943793 -0.99424
0.34626 -0.064902 -0.076225 -0.00970346 0.000882696 -0.999953
-0.105073 0.00632465 0.0315837 0.055148 -0.0258861 0.998143
0.112782 0.120284 0.0753498 -0.0661696 0.0361465 0.997153
-0.221748 0.174937 -0.0751569 0.00385067 -0.00520649 -0.999979
0.499404 -0.0812925 0.0244568 0.999952 -0.00718835 0.0065968
0.00278095 -0.0651659 0.0451141 -0.696875 -0.0443454 0.71582
-0.325439 -0.135513 -0.0766094 -0.0303168 0.0783859 -0.996462
-0.447301 0.0806774 0.0298637 -0.356155 0.147934 0.922643
-0.0389443 -0.10975 -0.077742 0.0259547 -0.0164717 -0.999527
0.047395 0.10391 0.0504573 0.00939236 0.577583 0.816278
0.0302968 -0.0922663 0.0573924 0.0102399 -0.581519 0.813468
0.0838851 0.0152928 0.0773935 0.0013157 -0.00286202 0.999995
-0.367592 0.162466 -0.0747747 -0.0419544 0.000857838 -0.999119
-0.403292 -0.0117362 0.00980627 0.993206 0.116183 -0.00650742
0.498814 -0.121248 0.0200947 0.997489 0.0462646 -0.0536275
-0.283516 -0.163208 0.033397 -0.000930988 0.0054686 0.999985
-0.459763 -0.103472 -0.0104967 -0.826416 -0.462405 0.321275
0.243858 -0.0119221 -0.0757381 0.0272689 -0.0245165 -0.999327
-0.0401204 0.0995061 -0.0747394 -0.00447131 0.00825574 -0.999956
0.097915 0.116653 -0.0742844 0.00584168 -0.000450297 -0.999983
-0.432227 0.145591 -0.0189942 -0.709594 0.637726 0.299637
0.459121 0.0265046 0.0750639 -0.011356 0.0279984 0.999543
0.0224743 0.159556 -0.0728943 0.0434555 0.998462 -0.0344186
0.0240856 -0.158261 -0.0600712 -0.0227944 -0.996455 0.0809836
-0.394122 0.166607 0.00693195 -0.469121 0.78851 0.397715
0.0697699 -0.146735 0.00122391 -0.999458 0.0216852 -0.024749
-0.18287 -0.0771043 0.0324809 -0.0681336 0.0139161 0.997579
-0.352887 0.157365 0.0327137 0.0241883 -0.0296358 0.999268
-0.399407 0.129884 -0.0745261 -0.0603825 0.0172302 -0.998027
0.278529 0.10531 0.0456977 -0.0122879 0.688831 0.724817
0.132405 0.129702 0.0185028 -0.0616152 0.775592 0.62822
-0.406653 -0.0498558 0.0326668 0.00851146 -0.0125454 0.999885
-0.0325566 0.154198 -0.0274747 0.00291532 0.939451 0.342671
0.231368 0.099977 0.0512982 -0.0130148 0.694819 0.719067
0.425739 0.0678705 -0.0759313 0.013758 -0.015835 -0.99978
-0.370093 -0.0880097 -0.0201079 -0.0601369 0.0905475 -0.994075
0.422174 0.11866 -0.0745064 -0.00856465 0.00344722 -0.999957
0.497323 -0.111176 -0.0752707 0.00532868 -0.00495076 -0.999974
0.461243 -0.0533095 0.0747337 -0.00829 0.0101565 0.999914
0.415792 -0.157744 -0.0732707 0.0323626 -0.0112148 -0.999413
0.0743786 -0.183297 0.0190225 0.0603583 -0.911797 0.406181
-0.108948 -0.14914 -0.0121596 0.0930971 -0.925388 0.367409
0.119338 -0.148847 -0.0166052 0.0294613 -0.944298 0.327769
-0.45958 -0.00444254 -0.0732315 0.0343695 -0.115315 -0.992734
0.121102 -0.121415 0.0304849 0.0152259 -0.736958 0.675767
0.143461 0.129737 -0.0758033 -0.00377426 0.00351413 -0.999987
0.0711108 0.159923 0.0288917 -0.999356 -0.0175956 0.0312582
-0.10675 0.0661212 0.0319684 -0.0187418 0.0169697 0.99968
-0.0208922 0.134397 0.00942391 -0.00544246 0.870239 0.4926
0.280247 -0.156025 -0.029476 -0.00428316 -0.950389 0.311035
-0.0211084 0.0854175 0.0330144 -0.0931149 -0.0444565 0.994662
-0.438958 -0.0765206 0.0324827 -0.0149744 0.0306147 0.999419
0.109092 -0.169941 -0.0758234 0.0788258 -0.0330655 -0.99634
-0.187479 0.176003 -0.00486289 0.473309 0.820244 0.321215
0.36386 0.121629 -0.0739333 0.0064791 -0.0109567 -0.999919
-0.47038 0.0531758 0.019477 -0.869138 0.249031 0.427297
0.113627 -0.100449 0.0647841 0.99946 0.0163548 -0.028515
0.341057 -0.155922 -0.0330725 0.0154309 -0.96547 0.260056
-0.169327 0.0140329 -0.00214085 -0.993617 -0.112519 0.00801887
-0.193686 0.0717362 0.010537 -0.802214 -0.596996 0.00695
-0.455067 0.00695585 0.0335871 -0.106797 0.0500862 0.993019
-0.370651 -0.135862 -0.075808 0.0351967 -0.0292304 -0.998953
-0.199637 -0.15614 -0.0759797 -0.125021 0.00235086 -0.992151
-0.129704 0.164547 -0.073769 0.22035 0.975195 0.0210144
0.114645 0.183952 0.0091406 -0.00694421 0.910797 0.412796
-0.430803 0.157179 -0.0680221 -0.681081 0.732022 0.016499
0.344344 0.0792747 -0.07622 0.00469544 -0.00836126 -0.999954
-0.186864 0.0843472 -0.0318982 -0.76929 -0.638817 0.0102923
0.499271 -0.10285 -0.0178957 0.999978 0.00598738 -0.00275315
0.0975353 -0.0634381 0.0729089 0.0495045 -0.0422298 0.997881
-0.239596 -0.204869 -0.0296012 0.207404 -0.959559 0.190343
0.00662056 0.104001 0.0433969 -0.335056 0.312329 0.888925
-0.0379793 -0.029342 0.0313262 0.0339121 -0.0447809 0.998421
0.0876649 0.191999 -0.0745025 -0.00138892 0.00157166 -0.999998
-0.215396 -0.102566 0.0325823 0.000322208 -0.00160956 0.999999
0.33662 -0.00400086 -0.0750433 0.0865243 -0.0197399 -0.996054
-0.273938 -0.213754 -0.0496636 0.042775 -0.991282 0.124623
-0.313475 -0.175216 -0.0765574 0.0153269 -0.00385643 -0.999875
-0.178986 -0.151027 0.0274158 0.292466 -0.410991 0.863452
-0.34604 0.193133 -0.00456724 -0.231891 0.931707 0.27955
-0.0622713 0.013694 0.0323354 -0.0532191 0.0162448 0.998451
0.0681579 -0.128482 -0.0760859 -0.0213 0.0118602 -0.999703
-0.0169057 -0.158002 -0.0446068 -0.0510719 -0.964857 0.257766
0.502251 0.094346 0.00796081 0.999953 -0.00944583 0.00235274
0.49964 -0.156282 -0.0702262 0.998804 0.0459346 -0.0167674
0.478259 -0.0767601 -0.0743395 0.00609146 -0.00329914 -0.999976
0.0682744 0.159372 -0.0463774 0.0232125 0.986485 0.162197
-0.0879963 0.153648 -0.0745637 0.00634513 -0.00615671 -0.999961
-0.427132 0.119774 0.0300204 -0.468132 0.417211 0.778965
-0.360762 0.0929105 -0.0192225 0.00565552 -0.00273634 -0.99998
-0.323246 -0.198776 -0.00406094 -0.163091 -0.94061 0.297747
-0.400885 0.055191 -0.0601919 0.90014 -0.435151 0.0197724
0.0138519 0.131762 0.0167809 -0.00542575 0.797884 0.602787
-0.455673 0.113887 -0.0111978 -0.783502 0.53675 0.313087
0.103218 -0.202913 -0.0506306 -0.0216032 -0.981564 0.18991
-0.0712635 0.124687 -0.0758113 0.00286779 -0.00199112 -0.999994
0.250494 -0.0907571 0.0611031 -0.0187562 -0.526364 0.850052
-0.388166 -0.0549409 -0.0118234 0.923329 0.381717 0.0419056
-0.353265 0.200667 -0.0755394 -0.0083234 0.0506232 -0.998683
0.365664 -0.0314864 -0.0759578 0.000251232 -0.000163541 -1
0.46568 0.0641765 -0.0758964 0.0537996 -0.130703 -0.989961
0.2659 0.0393707 -0.0764328 0.0120457 -0.0181926 -0.999762
0.436934 -0.017387 -0.0757663 0.00177883 -4.16253e-05 -0.999998
-0.360672 0.0914562 0.0279721 0.596484 -0.802588 0.00769593
-0.431412 0.0466085 0.0352832 -0.0200065 0.0140318 0.999701
0.308712 0.150473 -0.0222742 -0.0092491 0.956513 0.291544
-0.176359 0.174578 -0.0752317 0.0101368 -0.0775612 -0.996936
-0.304213 0.131279 -0.0751671 0.0145023 -0.00806125 -0.999862
0.438159 0.158187 -0.0389979 -0.032828 0.958584 0.282913
0.0871608 0.025363 -0.0738836 0.00645672 -0.00549669 -0.999964
0.387245 0.0839644 -0.0754863 0.000159871 -0.0015132 -0.999999
0.458594 0.106091 0.0445171 -0.0167365 0.727632 0.685764
0.148792 -0.161591 -0.0686464 -0.00712184 -0.999157 0.0404404
0.390843 0.0161927 -0.0742927 0.0449026 -0.0273577 -0.998617
-0.176731 -0.048882 -0.0197904 -0.0294579 0.0238173 -0.999282
-0.112953 -0.00309222 -0.0755496 0.0775536 -0.0459269 -0.99593
-0.1834 -0.190048 -0.073555 0.454871 -0.889433 0.0447288
-0.224612 -0.187224 0.00869176 0.273551 -0.873517 0.402664
0.480744 0.158141 -0.0436443 -0.0616854 0.965032 0.254771
0.201463 -0.147581 -0.00967737 0.0103486 -0.919796 0.392261
-0.315998 0.209699 -0.0732107 -0.127673 0.991644 0.0184932
-0.218562 0.110533 -0.0224819 -0.49849 -0.866895 -0.00108315
-0.12494 -0.0674133 -0.0755448 -0.0440852 0.0611661 -0.997154
-0.287684 -0.204949 -0.0131378 0.0255964 -0.962767 0.269119
-0.0504981 0.120561 0.0286344 0.00855902 0.517551 0.85561
0.0648402 0.144859 -0.00318283 -0.00831441 0.894689 0.446613
-0.342922 -0.179232 0.0258133 -0.227076 -0.678975 0.698161
0.167099 0.113867 0.0365496 0.0214183 0.663124 0.748203
-0.177719 -0.0733946 -0.0743134 -0.8256 0.564235 -0.00476058
-0.0302173 -0.0601679 -0.0739496 -0.0664926 0.0682294 -0.995451
-0.0323716 -0.140447 0.00672174 -0.00386112 -0.860477 0.509474
-0.330552 0.171892 -0.074318 0.0350067 -0.0416236 -0.99852
0.281386 -0.117567 0.0358442 0.0166551 -0.737694 0.674929
-0.368431 -0.189045 -0.0218319 -0.339768 -0.915918 0.213662
0.140582 -0.11879 -0.074658 0.0274617 -0.0389392 -0.998864
-0.276321 0.163737 -0.0751095 0.0228016 -0.0416589 -0.998872
-0.116436 0.04146 -0.0758424 -0.0438444 0.0606868 -0.997193
-0.147465 -0.104658 0.0311751 0.00715473 -0.00939934 0.99993
0.297854 -0.0275052 0.0771331 -0.0209514 0.0247901 0.999473
0.113436 -0.163325 0.0319672 0.99957 0.0290374 -0.00417359
0.301797 0.074768 0.0669781 -0.0204055 0.492109 0.870295
-0.113353 -0.13349 -0.0733602 0.0570413 -0.0235422 -0.998094
0.499865 0.0356889 0.0771159 0.0247875 -0.0214492 0.999463
0.189841 0.0389501 -0.0750925 0.0423184 -0.0060986 -0.999086
-0.460654 0.120451 -0.0480637 -0.812058 0.569099 0.129181
0.0715064 -0.198636 -0.0747915 0.00145183 -0.00262231 -0.999996
0.333991 0.0984859 0.0480885 -0.0588887 0.638202 0.767613
0.0510433 -0.0333827 0.0744812 -0.011704 0.0159556 0.999804
-0.478079 0.0875505 -0.0391527 -0.899338 0.39512 0.187273
-0.184401 -0.0801471 -0.0370704 -0.805279 0.591919 0.0340233
-0.407679 0.0822097 0.0309412 -0.000922956 0.0163602 0.999866
-0.036022 0.160862 -0.0738167 -0.00510312 0.999501 0.0311817
-0.48346 -0.0697132 -0.0293285 -0.948467 -0.249923 0.194803
0.115414 0.0800421 0.0645117 0.0131604 0.543295 0.839439
-0.492926 0.0201997 -0.0249181 -0.95911 0.0829011 0.270622
-0.0833437 0.0274989 -0.0752802 -0.0142881 0.0303284 -0.999438
-0.381744 0.13066 0.0321194 0.0822337 -0.05024 0.995346
-0.484109 -0.0086588 0.0111274 -0.900973 -0.0817293 0.426109
0.0707823 0.191281 -0.00721988 -0.00349419 0.949417 0.314
-0.356735 -0.145985 0.0311139 0.0482629 -0.0188851 0.998656
0.018487 0.0659589 0.0600475 -0.723719 0.0446584 0.688649
0.142436 0.0474705 -0.0753944 -0.0586158 0.00408766 -0.998272
-0.20067 -0.19363 -0.0370624 0.431832 -0.892592 0.129618
0.101537 -0.145202 0.0664698 0.132601 -0.740288 0.659083
0.222846 0.052161 -0.0746821 -0.0124487 0.00504419 -0.99991
0.163318 0.0892615 -0.0748538 -0.0478507 0.0632417 -0.99685
0.493079 0.113747 0.0387289 -0.000550434 0.695502 0.718524
0.498958 0.0488582 0.0403083 0.999923 0.00557728 -0.0110952
-0.476614 -0.101785 -0.0693128 -0.917669 -0.397146 0.0125711
0.213002 -0.0647085 0.0729781 0.0330686 -0.412848 0.9102
0.472689 0.109216 -0.0760816 -0.0582547 0.0581773 -0.996605
0.232441 -0.125789 0.0249028 0.0282881 -0.796499 0.603977
0.498839 0.0451729 -0.0754256 0.99987 -0.00979663 0.012823
0.00747834 -0.0813521 -0.0749777 0.00535811 -0.0734616 -0.997284
-0.25431 0.206547 -0.0315743 0.135171 0.962833 0.233839
-0.404014 0.0169718 -0.0192005 0.0118183 -0.0559746 -0.998362
-0.264467 0.114979 -0.00124178 -0.213465 -0.975918 0.0449082
0.052155 0.0561717 0.0775063 -0.0175893 0.0127384 0.999764
0.500424 -0.148361 -0.0259537 0.999589 -0.0222466 0.0180955
0.306337 -0.0595841 -0.0754554 0.0344532 -0.0424635 -0.998504
-0.354802 -0.106283 -0.0499409 0.579759 0.814641 -0.0154604
-0.308677 0.117855 -0.0197035 0.00132776 -0.0563813 -0.998408
-0.355985 0.107953 -0.0672206 0.534703 -0.845019 0.00602894
-0.0786706 -0.0462642 0.0312891 0.00183743 -0.0213707 0.99977
0.0471879 -0.096427 -0.0756985 0.0586064 -0.049068 -0.997075
0.394029 -0.139315 0.00362593 -0.0199532 -0.863627 0.503737
0.250774 0.127316 0.0250657 0.00022908 0.810427 0.58584
-0.321958 -0.2095 -0.0431079 -0.187308 -0.964827 0.184456
0.39118 -0.0854459 -0.0758447 -0.0506706 0.0483249 -0.997546
0.132765 0.048052 0.0739403 0.0129066 -0.0191753 0.999733
-0.251301 -0.110385 -0.0034152 -0.283379 0.959004 0.00282456
0.311814 -0.138685 -0.0751795 0.0746977 -0.0616369 -0.9953
-0.176037 -0.111402 -0.0761166 -0.0415006 0.0527369 -0.997746
-0.401336 0.023283 0.0300058 -0.00235238 0.0131014 0.999911
0.4857 0.0736691 0.0693132 -0.0326536 0.487002 0.87279
0.166792 -0.0304586 0.0746395 -0.00315721 3.86282e-05 0.999995
0.498605 0.0120777 0.0418926 0.999268 -0.03824 0.000830284
0.324691 0.00495549 0.0769751 -0.0109168 0.0566975 0.998332
-0.0571891 -0.158976 -0.065149 -0.00483214 -0.996976 0.0775565
-0.399706 -0.15074 0.0247057 -0.443484 -0.553448 0.704995
0.500551 -0.0376823 0.0301666 0.991922 0.0912094 -0.0881594
-0.498926 0.0223526 -0.067418 -0.989256 0.146136 0.00404643
-0.0949844 -0.0346134 -0.0757313 -0.0312627 0.0229096 -0.999249
-0.252018 -0.124706 -0.0553255 -0.284069 0.958771 0.00793423
0.135573 0.00812267 0.0749215 -0.013628 0.0616242 0.998006
0.379151 -0.155035 -0.0262179 0.0105308 -0.95139 0.30781
0.245014 -0.0951779 -0.0745634 0.0460421 -0.0232293 -0.998669
0.159868 -0.125402 0.0260736 0.0522854 -0.853163 0.519017
-0.0681781 -0.078466 -0.075396 -0.00546162 0.00206441 -0.999983
0.466627 0.0126227 -0.0744846 0.00435059 -0.0139589 -0.999893
0.129307 0.157629 -0.052667 -0.0213701 0.990649 0.134753
0.342931 -0.0773665 0.0651786 -0.0405931 -0.43626 0.898905
0.104539 0.198227 -0.0306488 0.118169 0.966521 0.227759
-0.10428 0.155667 -0.030536 0.0308021 0.972134 0.232395
0.414179 0.0967486 0.0513663 -0.000107519 0.580725 0.8141
0.42636 0.029286 -0.0734413 0.0135945 -0.00492512 -0.999895
-0.277069 0.180478 0.0310279 -0.0724104 0.360275 0.930031
0.256293 -0.0545079 -0.0755309 0.0227043 -0.026178 -0.999399
-0.103937 -0.074045 0.0326238 0.00143839 -0.00752284 0.999971
-0.315426 0.188034 0.0241051 -0.118461 0.814624 0.567764
0.115591 0.0785125 -0.074146 -0.0209748 0.0201645 -0.999577
-0.461916 0.09211 -0.0757554 0.00449758 -0.00959448 -0.999944
-0.415856 -0.113286 -0.0746181 -0.00316306 0.0111193 -0.999933
0.250269 0.113447 -0.0751862 0.0254477 -0.00395167 -0.999668
0.155021 -0.0794962 -0.0757526 -0.0500681 0.0278444 -0.998358
0.437804 -0.0983768 -0.0750041 0.0324062 -0.0576608 -0.99781
-0.0103451 0.0476901 0.0350705 -0.353602 -0.0222554 0.935131
0.0817402 -0.0344014 -0.0735565 -0.0779711 0.0360822 -0.996302
0.263242 -0.139962 0.00281291 -0.0030753 -0.873764 0.486341
0.112418 0.159062 0.0395743 0.999618 0.0269404 -0.00616299
-0.378402 -0.193427 -0.0645049 -0.488205 -0.862682 0.132044
0.265813 -0.0482041 0.074755 -0.0257501 0.0611584 0.997796
0.00794101 0.015437 -0.074096 -0.0749684 0.0935071 -0.992792
0.44882 -0.00727627 0.0750083 -0.0475262 0.0519161 0.99752
0.0530263 0.0825317 -0.0743872 0.026591 -0.0703531 -0.997168
0.447418 -0.154674 -0.0287182 0.019083 -0.956702 0.290442
-0.411005 -0.172598 -0.0735238 -0.513389 -0.858145 -0.00441561
0.144542 -0.0695371 0.0691977 0.00865187 -0.436615 0.899607
-0.273891 -0.180172 -0.0748052 0.0284696 -0.0250992 -0.999279
0.330684 0.161066 -0.074889 -0.0179536 0.999516 0.0253976
-0.0825298 0.0844676 -0.0753897 -0.0543078 0.0579358 -0.996842
0.113698 -0.194068 -0.0129929 0.0518949 -0.956022 0.288667
0.0837296 0.149809 0.0660366 -0.00982712 0.709056 0.705084
0.232373 0.159608 -0.0497696 -0.0523075 0.978694 0.198549
-0.430782 -0.130019 0.0108445 -0.668458 -0.624041 0.404644
-0.162055 -0.176394 -0.0479011 0.469567 -0.867246 0.165499
0.450224 0.15078 -0.0765094 0.0322575 -0.0636624 -0.99745
0.0475725 -0.00766659 -0.075982 -0.0211438 0.0309633 -0.999297
-0.282939 -0.118309 0.0244635 -0.0168745 0.999827 -0.00786627
0.170488 0.142422 -0.00108343 -0.0120113 0.894376 0.447154
-0.0681271 0.0891221 0.0323162 -0.0112761 0.0394731 0.999157
0.48248 0.143696 4.52207e-05 -0.00119648 0.893889 0.448286
0.165785 -0.148487 -0.0112575 0.000995906 -0.917893 0.396826
-0.174481 0.0632508 -0.0679011 -0.854021 -0.519304 0.031164
0.501612 0.102628 -0.0397343 0.999614 0.015555 -0.0230389
-0.240258 0.171952 0.0307138 0.068985 0.122063 0.990122
0.361179 -0.161067 -0.0749314 -0.00585979 -0.999355 0.0354399
0.310341 0.0573675 -0.0756483 -0.0228191 0.00612366 -0.999721
-0.135439 -0.141473 0.00921716 0.263279 -0.82874 0.493837
0.17657 -0.136582 -0.0767265 0.0680881 -0.0132579 -0.997591
-0.157677 -0.0131541 -0.0329434 -0.994142 0.0792183 0.0735232
-0.148232 0.122239 0.0322993 0.0880374 0.0786218 0.99301
0.347456 -0.135218 0.0117514 -0.00412582 -0.849393 0.527745
0.256678 -0.161553 -0.0721479 -0.0126791 -0.998709 0.0491859
0.397052 0.138259 0.00787688 0.00162611 0.865422 0.501042
0.500659 -0.0630528 0.0717147 0.9969 -0.0483007 0.0621006
-0.15234 -0.142326 -0.0740543 0.0666506 -0.0391721 -0.997007
0.204004 -0.0801167 -0.0739673 0.0456399 -0.0523885 -0.997583
-0.490675 -0.0619407 -0.0675359 -0.94614 -0.323376 0.0157017
0.171582 0.0503185 0.0753946 0.0461613 -0.0457224 0.997887
0.459391 -0.135271 -0.0764345 -0.00588932 0.00900692 -0.999942
-0.0594872 -0.12714 0.0253615 0.0503721 -0.796763 0.602189
-0.470602 -0.0698262 0.00953016 -0.82885 -0.357571 0.430291
-0.121588 0.144279 0.00349974 0.140193 0.841636 0.521531
0.386169 -0.127767 -0.0756638 -0.0459831 0.10264 -0.993655
0.0718299 -0.198538 -0.0318043 -0.999995 -0.00284019 0.00166462
0.408553 0.0416957 0.0751435 0.00548159 -0.0176076 0.99983
0.463786 -0.118173 0.0338912 -0.0312361 -0.714801 0.69863
0.128777 0.151362 -0.0189495 -0.0314213 0.920315 0.389913
0.274796 0.0115819 0.075873 -0.0428735 0.0377228 0.998368
-0.0786759 -0.122568 -0.0762278 -0.0854553 0.0155479 -0.996221
-0.401124 -0.113073 0.0308455 -0.0174025 0.0108132 0.99979
-0.366509 -0.0866458 0.0328964 0.00533383 -0.00106357 0.999985
-0.0572572 -0.0888515 0.0328024 0.0108833 -0.0187181 0.999766
-0.495 -0.0239862 -0.0286206 -0.973791 -0.115802 0.195756
0.216296 0.148202 -0.00946715 0.0051761 0.921055 0.389397
0.309581 0.102469 -0.0754511 0.0513701 -0.000500852 -0.99868
0.403757 -0.0188992 0.0749542 -0.0209946 0.0150229 0.999667
0.0797314 0.100554 0.0741335 0.0294438 -0.0120162 0.999494
-0.209654 0.0958884 0.0332459 0.0843019 -0.00853925 0.996404
-0.414004 -0.00120391 -0.0544633 0.998978 0.0334487 -0.0304114
0.0455044 -0.0561182 -0.076596 0.010218 -0.00895624 -0.999908
0.0688457 -0.100762 0.0522523 -0.00276072 -0.625124 0.78052
-0.300882 0.208923 -0.0315793 -0.0810049 0.959808 0.268712
-0.00627559 -0.107341 0.0350854 -0.352538 -0.18181 0.917966
0.174226 -0.0375741 -0.0758346 0.0229203 -0.0703974 -0.997256
0.35462 0.0430854 -0.0759497 0.0234482 -0.0349091 -0.999115
0.129124 -0.0338171 -0.0752473 -0.0180495 0.0402231 -0.999028
0.0312334 -0.130257 0.0237314 -0.0861801 -0.78237 0.616822
-0.396814 0.0909937 -0.0754874 0.0416836 -0.023417 -0.998856
-0.499332 -0.024768 -0.0703163 -0.991904 -0.110188 -0.0631282
0.372461 0.156841 -0.0748163 -0.0465433 0.026473 -0.998565
-0.275186 0.142408 0.0315333 0.0108943 -0.00988063 0.999892
0.500654 -0.0527167 -0.0125835 0.999687 -0.0102101 0.0228511
0.0335746 0.00926501 0.0730792 -0.396663 0.0141526 0.917855
0.0478734 0.124015 -0.0771601 0.0248005 -0.013793 -0.999597
