ply
format ascii 1.0
comment Created by Open3D
element vertex 400
property double x
property double y
property double z
property double nx
property double ny
property double nz
end_header
0.198256 -0.0441024 0.109871 -0.976575 0.215156 0.00297561
-0.487909 -0.065198 0.143819 -0.822249 -0.0768293 -0.563919
0.0114641 -0.250299 0.134333 -0.0744593 -0.99722 0.00293413
-0.306613 0.0999143 0.0844329 -0.31785 -0.948028 -0.0146366
-0.235711 -0.103676 0.0158421 -0.983783 0.178952 -0.0121109
-0.0465448 0.0360792 0.0293497 0.0483822 -0.0288803 -0.998411
-0.193017 -0.143975 -0.169446 -0.636842 -0.44456 -0.62992
0.1913 -0.262879 0.119778 0.805786 0.592207 0.000302467
-0.101484 -0.177174 0.114808 0.419647 0.907661 -0.00688272
0.217046 -0.0987714 -0.16913 -0.0321269 0.00604775 -0.999466
0.270251 -0.0431031 -0.049764 0.128631 -0.991655 0.00864287
-0.306288 -0.156253 0.000394098 -0.534592 0.840524 0.0879275
-0.192192 -0.241483 -0.0824447 -0.510788 -0.552005 -0.65908
-0.447229 -0.216155 0.149903 -0.698016 -0.329957 -0.635534
0.385824 -0.0524705 0.0170171 0.77011 -0.0843053 -0.632316
-0.255027 0.0772422 0.166976 -0.72324 -0.690566 0.00648655
0.152767 0.132585 -0.106575 -0.735039 -0.677971 0.00854532
-0.109206 0.172826 0.104522 0.523516 -0.85201 -0.00325783
0.193039 0.161285 0.0892536 0.748131 0.663515 0.00698489
-0.281476 0.281151 0.122025 0.71385 0.700262 0.00716371
0.0743156 0.199052 -0.169145 -0.0117319 0.0138268 -0.999836
-0.316856 -0.265574 0.169608 0.0457982 -0.011143 0.998889
-0.0064414 -0.203716 -0.111075 0.0689259 0.997622 -0.000652506
-0.114505 -0.223454 0.0749059 -0.447478 -0.894294 0.00127665
-0.189537 -0.072445 0.153752 0.951562 0.307437 -0.00340067
-0.199822 -0.0434243 -0.0517828 0.977555 0.207508 0.036436
-0.0897831 0.151698 -0.0250117 0.0270196 -0.0291081 -0.999211
-0.110718 0.101525 0.0355869 -0.014702 0.0311 0.999408
0.134636 0.150603 0.0592843 -0.70435 -0.709439 0.024224
-0.443332 0.193704 0.168943 0.0399658 -0.0251349 0.998885
-0.110672 -0.487492 0.168024 -0.0225324 0.00813613 0.999713
0.221226 -0.0353403 -0.169138 0.0429814 -0.0436081 -0.998124
0.0766353 -0.222717 0.170557 -0.013662 0.020035 0.999706
0.0177252 -0.183546 -0.0241208 1.36873e-05 -0.0364507 -0.999335
0.126135 0.407224 0.0620733 0.274717 0.728172 -0.627929
-0.254989 0.0786404 0.0360109 -0.711084 -0.703071 0.00710913
0.0863306 -0.145622 -0.0245967 -0.528011 0.849152 0.0120926
-0.39848 -0.302769 0.159128 -0.826815 -0.555471 -0.0884876
0.439691 0.0232424 0.0760795 0.768391 0.0631108 -0.636861
-0.234443 -0.439711 0.158569 -0.455511 -0.889932 -0.0230198
-0.0667565 -0.194123 0.167321 0.00305019 -0.0074306 0.999968
0.102163 -0.228951 -0.155894 0.295175 -0.696077 -0.654483
0.208856 0.14065 0.0112128 0.832847 0.553496 -0.00304208
-0.158795 0.196026 -0.0362918 -0.448349 0.893516 0.0247525
-0.0570171 -0.242787 0.0854869 -0.239055 -0.970629 0.0270631
-0.478878 -0.143315 0.157429 -0.92705 -0.370845 0.0552561
0.0227526 0.396826 0.168746 0.00334964 -0.0258161 0.999661
-0.272751 0.228931 0.168755 -0.0118261 0.0148129 0.99982
0.180899 0.358793 0.0341497 0.337844 0.703018 -0.625801
0.148309 -0.119564 -0.0259962 0.00639322 -0.00854254 -0.999943
0.107476 0.26559 0.168179 -0.0224954 0.014996 0.999634
0.0353995 -0.260437 -0.0549739 -0.60356 -0.797178 -0.0149389
-0.0816137 -0.185205 -0.144777 0.42556 0.904852 0.0119228
-0.141626 0.0434954 0.0298972 -0.00436631 0.00525619 -0.999977
-0.195435 -0.199953 -0.119723 -0.529896 -0.555716 -0.640616
0.472716 -0.025579 0.118455 0.749085 0.0240091 -0.662039
0.043217 -0.285196 0.0635552 -0.972151 -0.22666 0.0595615
0.0487135 -0.134983 0.0296379 -0.0214817 0.00611949 -0.999751
-0.269813 0.136913 -0.0933551 -0.673012 0.372331 -0.639081
0.478361 0.115561 0.143557 0.753858 0.197564 -0.626632
0.167733 0.186502 -0.0897747 0.651042 0.758719 0.0221317
-0.164349 -0.227188 0.0951996 0.836861 -0.54323 -0.0675648
-0.356633 0.281002 0.0965618 -0.575112 0.466905 -0.671748
-0.20111 0.0349457 0.110166 0.984914 -0.173045 -0.000793543
-0.394004 0.135453 0.0499937 -0.746402 0.266849 -0.609652
-0.142786 -0.146987 0.0427392 0.743085 0.668713 0.0254382
0.137148 0.265529 0.110281 0.895551 -0.444678 -0.0157902
0.0037449 0.203567 -0.119906 0.00972186 -0.999503 -0.029988
-0.198357 0.196056 0.169294 0.0273649 -0.0643567 0.997552
0.0684212 0.322876 0.168995 0.105941 -0.00419696 0.994364
0.368079 -0.0548347 0.169475 -0.0788567 0.0256959 0.996555
-0.0775813 0.239608 -0.0344447 -0.327515 0.944138 0.0365748
0.0162052 -0.494954 0.148501 0.0621632 -0.735667 -0.674484
-0.182396 0.0637156 -0.0265411 0.0503778 -0.0246631 -0.998426
-0.163935 0.118774 -0.0459154 0.822207 -0.56832 -0.0314369
-0.176374 -0.105713 -0.0603248 0.871516 0.490307 0.00767674
-0.019605 -0.0271502 0.0315268 0.0413784 -0.0469817 -0.998038
0.065661 -0.44011 0.103654 -0.988248 0.150963 0.0240072
-0.354922 0.186065 0.029133 -0.724175 0.385175 -0.572023
-0.108993 -0.127901 -0.0164133 0.621203 0.783576 0.0107477
0.310492 0.100325 0.157898 -0.352956 0.935536 0.0139668
0.377501 0.110885 0.16795 0.024951 -0.00441704 0.999679
0.317044 -0.0501815 0.0913144 -0.153404 -0.988163 -0.00111051
0.167906 0.428206 0.103862 0.319562 0.694502 -0.644629
0.0794261 0.446846 0.170138 -3.892e-05 0.000806054 1
0.0584511 -0.301157 -0.0866868 0.179834 -0.728249 -0.661297
0.068983 -0.284869 0.170173 -0.0370679 0.0365422 0.998644
0.0605662 0.092842 0.0352009 -0.0492588 0.0292319 0.998358
0.0314022 -0.255928 -0.15065 0.0954906 -0.766691 -0.634875
-0.373112 0.120177 0.11073 -0.31686 -0.948472 -0.000521766
-0.0969142 -0.0117163 0.036202 -0.0232236 0.000702803 0.99973
-0.201678 0.135208 0.169595 -0.039773 0.0478779 0.998061
-0.0982773 -0.179217 -0.0568998 0.460392 0.887579 0.0155684
0.160712 -0.447712 0.168896 0.00352117 -0.00571627 0.999977
0.403556 0.00539718 0.0342985 0.777546 0.0176739 -0.628577
-0.175905 0.451165 0.136316 0.343061 -0.937697 0.0550809
0.188818 0.163998 -0.137808 0.753806 0.657097 0.000543762
-0.331262 0.258485 0.167719 -0.0230669 0.0235464 0.999457
0.236801 -0.0798957 -0.0193101 0.946974 -0.321027 -0.0134881
0.436773 0.0885399 0.168099 -0.00572947 0.00715491 0.999958
0.203321 0.00633048 0.16385 -0.999782 -0.0205383 -0.00384276
-0.111824 0.169987 -0.0837904 0.591343 -0.804765 -0.0516483
0.0111329 0.129363 0.0295156 -0.0259933 0.0576371 -0.997999
-0.0390963 -0.240189 -0.162819 -0.146247 -0.773901 -0.616189
-0.24986 -0.0100224 -0.0931782 -0.978242 -0.145512 0.147884
0.164607 -0.224752 -0.107676 0.905715 0.423782 -0.00939657
-0.155112 -0.217999 -0.0136375 0.473684 -0.880562 0.0152948
-0.329824 0.130171 -0.0259348 -0.726078 0.27318 -0.631018
0.212133 -0.133643 -0.103892 0.819361 -0.571747 0.0418649
-0.243888 0.436018 0.156436 -0.47776 0.878127 -0.0252563
-0.329341 0.336979 0.116921 -0.492432 0.562664 -0.664018
0.0193398 0.202207 0.0893838 -0.030144 -0.99923 -0.0251068
0.23253 -0.0567163 0.168708 -0.0191737 0.0139569 0.999719
0.244107 0.0886849 0.0486254 0.380364 0.924802 -0.0080978
-0.158889 0.198253 0.130286 -0.529859 0.848067 0.00558295
0.2077 0.142206 -0.053426 0.840761 0.541155 0.0165204
-0.0350847 0.249947 0.00768503 -0.0505403 0.997764 -0.0437422
-0.204707 -0.2823 0.0661524 0.811582 -0.581158 -0.0599068
0.00035397 0.289454 0.00252786 -0.999421 -0.0324517 0.0102073
0.17966 -0.245804 -0.0417929 0.809071 0.58771 0.000700809
0.163834 -0.119238 0.115372 -0.812665 0.582611 0.0118705
-0.196091 0.0527626 0.0371601 0.959508 -0.280447 0.0263582
0.145151 -0.382214 0.168772 0.0209437 -0.000609896 0.99978
-0.204728 0.0202021 0.168741 -0.0230266 0.0245137 0.999434
0.27719 0.0390057 0.169853 -0.0185499 0.0166094 0.99969
0.0947546 -0.184259 -0.169819 -0.0133801 0.0180962 -0.999747
0.113682 0.297297 -0.0686063 0.250788 0.754035 -0.607072
0.0748528 -0.412579 0.0563206 0.145033 -0.744164 -0.652063
0.354538 0.342258 0.14116 0.619502 0.41619 -0.665585
-0.173202 0.168566 -0.164807 -0.525404 0.534247 -0.662216
0.058072 -0.361743 0.0367273 -0.984195 -0.176781 0.0104358
0.237338 0.085614 -0.153176 0.765979 0.205018 -0.609298
-0.0385649 0.246019 0.0700261 -0.0463938 0.998584 -0.0260471
0.435972 0.158819 0.165892 -0.889723 0.455146 0.0351394
0.286663 0.0439326 -0.10667 0.753389 0.143824 -0.641654
-0.255402 -0.335162 0.0586779 -0.45237 -0.631773 -0.629463
0.29506 -0.0179525 -0.100426 0.75557 0.00683692 -0.655032
0.146592 0.329675 -0.0171193 0.321751 0.70332 -0.63389
0.0223898 0.268546 -0.130452 0.18335 0.7552 -0.629329
-0.172287 0.191387 0.0384593 -0.0901741 0.995616 0.0248487
-0.395677 0.285754 0.136294 -0.620011 0.445565 -0.6458
0.023605 0.427981 0.0658458 0.00807642 0.791708 -0.610847
-0.0856411 0.185453 0.163633 0.439175 -0.898395 -0.00356167
0.160421 -0.21919 0.0603824 0.956207 0.292689 0.00134872
-0.135714 -0.0890208 0.0281053 0.000819652 -0.0145915 -0.999893
0.224758 0.110083 -0.102462 0.905706 0.4238 0.009484
-0.248949 -0.0177802 -0.0303396 -0.998005 -0.0618357 -0.0127558
-0.0519274 0.480833 0.143833 0.00886961 -0.99913 -0.0407467
0.0711131 0.189639 0.100111 -0.329535 -0.944076 -0.0113172
0.338497 -0.0347955 -0.04197 0.771532 -0.108375 -0.626892
0.0634604 0.370433 -0.00175709 0.106899 0.78722 -0.607336
-0.16717 -0.00580466 -0.00625738 0.998393 0.0280971 -0.0492115
0.173764 -0.329074 0.168455 0.019591 -0.00872199 0.99977
0.000129786 0.370343 0.116879 -0.998433 0.019689 -0.0523783
0.0401859 -0.199144 0.0360024 -0.00511061 0.0274554 0.99961
-0.187311 -0.0823312 0.0853695 0.922879 0.385034 0.00659699
0.135014 0.477225 0.149223 0.205296 0.749768 -0.629048
0.349591 0.105312 -0.0142687 0.737758 0.240757 -0.630674
-0.273421 -0.138883 0.0419125 -0.417307 0.908641 -0.01505
-0.3039 0.298512 0.0621076 -0.525397 0.511281 -0.68011
0.181175 0.0923135 -0.0762138 -0.902187 -0.428088 0.052912
0.0349442 0.254001 0.16911 0.0212802 -0.0299231 0.999326
0.0201422 0.0403519 0.0280259 0.050065 -0.0430095 -0.997819
0.240159 0.0911646 0.160988 0.505204 0.86286 -0.0155421
0.0943082 -0.490773 0.161928 0.198228 -0.979981 -0.0185326
0.0956367 0.0315056 0.0359738 0.00209987 -0.00289924 0.999994
-0.300283 0.39108 0.170232 8.6775e-06 -4.02542e-07 1
-0.280325 -0.142198 0.106709 -0.457789 0.889046 0.00502549
-0.00864425 -0.250349 0.0460291 -0.0286707 -0.999549 0.00890852
-0.16782 -0.452956 0.132727 0.332948 0.942936 0.00406703
-0.350293 0.186037 0.16974 -0.053664 0.0213907 0.99833
0.447834 -0.187201 0.133929 0.730637 -0.297622 -0.614484
0.174472 0.102654 0.161001 -0.865353 -0.500822 0.0184726
0.147429 0.201268 0.150639 0.564855 0.824866 0.0231069
-0.0990758 -0.230364 -0.0111166 -0.319942 -0.945859 -0.054667
-0.197396 0.0575717 -0.10724 0.952419 -0.303275 0.0303662
0.40105 0.287658 0.168833 0.00139346 -0.0873944 0.996173
-0.350635 -0.203455 0.0361476 -0.703545 -0.353394 -0.616553
0.221381 -0.117271 0.10965 0.889963 -0.455336 -0.0252127
0.271704 0.0885787 0.100452 -0.245855 0.968701 -0.0342639
0.179186 -0.174354 0.0033773 0.685323 -0.723192 0.08559
0.260612 -0.04756 0.0301152 0.432899 -0.901103 -0.0247298
0.328288 0.0375764 -0.0580787 0.798519 0.0869547 -0.595656
0.0909246 -0.182872 0.10998 -0.447174 0.894204 0.0208475
0.0157864 0.194601 -0.0276757 -0.079212 0.051535 -0.995525
0.325449 -0.378301 0.165331 0.642478 -0.766302 0.00168936
0.228717 -0.311543 0.117027 0.817529 0.575124 0.0296326
-0.17398 -0.239952 0.156191 0.833029 -0.552122 -0.0349833
-0.0573092 -0.243586 -0.0804593 -0.236645 -0.971467 0.0158453
0.00584757 0.185268 0.0361301 0.012525 -0.00478238 0.99991
0.254443 -0.42465 0.168129 -0.0093872 0.0152887 0.999839
0.0560035 -0.363101 0.0974263 -0.986961 -0.160889 0.00485278
-0.350259 -0.177461 0.112571 -0.456913 0.889509 0.00204059
0.0266866 -0.202764 0.153128 -0.151202 0.988501 0.00172836
0.021159 -0.0752773 0.0295274 0.0588417 -0.0665067 -0.996049
0.163663 0.324486 0.0952524 0.888519 -0.458787 0.00696321
0.437893 -0.0680011 0.0822297 0.746996 -0.0729274 -0.660816
-0.334482 -0.185866 0.167917 0.0198238 -0.0136286 0.999711
0.168826 -0.380069 0.0495653 0.312517 -0.712102 -0.628685
0.470192 -0.0602627 0.170852 0.0140351 -0.00571656 0.999885
0.0619117 0.183172 0.034433 0.00341934 -0.000211986 0.999994
-0.0109792 0.205887 0.167775 0.0212054 -0.999731 0.00942234
0.253812 -0.0504704 0.117513 0.511372 -0.858546 0.0373723
0.053564 -0.195636 -0.094744 -0.207588 0.978007 -0.0202405
-0.063704 -0.483379 0.14013 -0.13063 -0.704994 -0.697079
0.20929 -0.138457 -0.0433928 0.838968 -0.544178 0.00148638
0.17189 -0.10794 0.0438492 -0.826008 0.5627 -0.0328532
0.158775 0.128125 0.118146 -0.782926 -0.622115 -0.000772148
-0.0825668 -0.0785431 0.0292832 -0.00157301 0.0296177 -0.99956
0.204048 0.455856 0.151505 0.225539 0.74986 -0.621966
-0.0513047 -0.245101 0.157702 -0.21215 -0.977237 0.000279638
0.185198 -0.0958062 0.169674 0.0130712 -0.0320959 0.999399
0.188369 -0.077042 -0.0591675 -0.921303 0.380234 -0.0813808
0.419067 -0.00728304 0.169289 -0.00359505 0.00701527 0.999969
0.130616 -0.152879 0.164413 -0.676332 0.735073 0.047354
-0.234865 -0.160287 -0.112861 -0.637121 -0.475304 -0.606765
0.176312 -0.243317 0.167349 0.864866 0.501407 -0.024441
0.183009 0.0894096 0.0814038 -0.915094 -0.401987 -0.0317575
-0.0632929 0.192831 -0.123125 0.291642 -0.956521 0.00350844
-0.214543 0.213862 -0.0345097 0.697919 0.716175 -0.00129024
0.177346 -0.420786 0.0972261 0.308758 -0.726289 -0.614144
0.15386 0.196215 0.0160556 0.608505 0.793548 -0.00160221
-0.251123 -0.0153893 0.100537 -0.995384 -0.0890085 0.0358869
-0.209681 -0.292193 0.168739 0.79039 -0.611221 0.0411371
0.350625 0.11307 0.0887157 -0.320393 0.947211 0.0118298
-0.20272 -0.0125162 0.0679456 0.998978 0.0436618 0.0116527
0.126209 -0.145633 0.0348822 -0.000185087 0.0179446 0.999839
0.102822 0.174876 -0.109139 -0.511536 -0.859079 -0.0177034
0.0875364 0.261043 -0.122673 0.28305 0.720935 -0.632563
0.0844762 0.436374 0.0872352 0.163447 0.762224 -0.626338
0.130729 0.154931 -0.159557 -0.63205 -0.774882 -0.00840468
0.418977 -0.257599 0.168826 -0.0173883 0.0911588 0.995685
-0.203337 0.0165156 -0.158373 0.996896 -0.0771059 0.0158914
-0.271674 0.16171 0.168521 -0.0190906 0.015706 0.999694
0.169712 -0.183767 -0.0458114 0.704716 -0.70899 0.0266305
0.232856 -0.096406 0.0513797 0.925801 -0.377883 0.00983183
-0.232613 0.231491 0.0591938 0.715866 0.698214 -0.00569858
0.495717 0.0546239 0.151535 0.774734 0.084569 -0.626606
-0.170962 0.109395 0.0456408 0.837363 -0.546497 0.0128477
0.245055 0.0902775 -0.011971 0.382414 0.919791 0.088002
0.464742 -0.110249 0.126018 0.771257 -0.180038 -0.610532
-0.0385037 0.199394 -0.0701443 0.198518 -0.980097 -0.000286364
-0.253293 -0.402378 0.12492 0.83267 0.553054 0.0281414
-0.214535 -0.197556 0.169414 -0.000839692 0.0213278 0.999772
0.10793 -0.384377 0.0295648 0.206894 -0.752442 -0.625321
0.0695333 0.492993 0.148367 0.0500342 0.790709 -0.610144
0.132972 -0.447613 0.112565 0.199838 -0.726621 -0.657333
0.181686 -0.0876269 -0.122496 -0.895341 0.443751 0.0380821
0.00440053 0.312256 -0.0773299 0.0154324 0.790024 -0.612882
-0.192856 -0.265664 -0.0265703 0.793711 -0.608263 0.00623931
0.408497 -0.0663222 0.130582 -0.192422 -0.979898 0.0526691
-0.245414 -0.124213 -0.0407704 -0.6602 0.75109 -0.000877568
0.0543128 0.194928 -0.0909244 -0.253366 -0.96719 0.018665
-0.400945 0.142854 0.170578 -0.0195377 0.0489568 0.99861
0.316355 -0.0282116 0.169218 -0.00558234 0.0105494 0.999929
0.104943 0.129674 -0.0108347 -0.632245 -0.771815 -0.0675914
0.13798 -0.149771 -0.146701 -0.6926 0.720976 0.022349
-0.2864 0.0933639 -0.0289188 -0.314825 -0.949147 0.0020927
0.00207307 0.377701 0.057009 -0.99908 0.0374279 -0.0209321
0.208319 -0.387484 0.169586 0.00363323 -0.0065845 0.999972
-0.115374 -0.165749 0.163334 0.598023 0.801466 0.00453159
-0.203441 -0.0796967 -0.168746 -0.0989593 0.00190198 -0.99509
-0.261501 -0.244683 0.169024 -0.0902545 0.00226881 0.995916
0.121632 -0.163911 -0.0800777 -0.604318 0.796533 0.0182978
0.150481 0.085004 -0.0263057 0.0172651 -0.0136639 -0.999758
-0.2412 -0.063059 0.0682034 -0.977862 -0.204337 -0.045081
0.151638 0.307372 0.167234 -0.00127534 0.000395717 0.999999
0.126307 0.229584 -0.0112239 0.97685 0.213848 0.0056929
-0.239699 -0.11752 0.0886579 -0.806481 0.590445 -0.0310324
-0.0824271 0.225673 -0.168887 0.079599 -0.017954 -0.996665
-0.0513023 -0.19643 0.0507556 0.248228 0.968702 -0.000166592
0.246397 -0.0579151 -0.112236 0.77843 -0.627677 -0.00828947
0.377491 0.0508723 0.171048 0.00681383 -0.0187254 0.999801
0.171666 0.0128293 0.0343377 0.0011776 -0.00856405 0.999963
0.167946 -0.187819 0.110564 0.824166 -0.565469 -0.0315455
-0.121284 -0.2201 0.14609 -0.394869 -0.918515 -0.0202139
-0.172976 0.10457 0.121364 0.888534 -0.453168 -0.0717383
-0.27068 0.258626 -0.00134246 -0.531688 0.505715 -0.679382
-0.262194 0.193424 -0.0620627 -0.669292 0.486865 -0.561259
-0.114674 0.165833 0.0467525 0.582895 -0.812274 -0.0210655
0.19762 -0.273241 0.0160443 0.787752 0.615978 -0.00414961
0.057177 -0.362484 0.167143 -0.986046 -0.166333 0.00681217
-0.450811 0.145079 0.121359 -0.768064 0.213764 -0.603641
-0.0516775 0.245669 0.142348 -0.240127 0.970615 0.0156748
-0.399068 0.223775 0.100875 -0.74343 0.351137 -0.569224
-0.000817469 0.439388 0.126858 -0.964939 -0.255458 0.060282
0.086062 0.183871 -0.025351 0.0242215 -0.0180414 -0.999544
-0.180595 0.093288 -0.156989 0.889081 -0.457696 0.00706502
-0.0380053 0.161613 0.00924887 0.172447 -0.982889 0.0647457
0.36797 0.0265421 -0.0103702 0.773332 0.0669372 -0.630457
0.0895538 0.181633 0.160107 -0.396085 -0.91694 -0.0483536
-0.0947972 0.233133 0.114956 -0.35068 0.936491 -0.00284055
0.333474 0.0275022 0.167584 0.0454213 -0.0311249 0.998483
-0.335914 -0.353167 0.137146 -0.537363 -0.596521 -0.596157
0.192309 -0.158775 -0.146877 0.783204 -0.621051 -0.0297928
0.000249656 0.370443 0.0010346 -0.999879 -0.0130804 0.00842316
0.173642 0.10879 -0.156452 -0.841688 -0.539964 -0.000764741
0.199722 0.148759 0.15497 0.821779 0.56972 -0.00997303
0.00197011 0.499674 0.168377 0.009737 0.999895 0.0107635
-0.359301 0.327724 0.169474 -0.00812937 0.0248463 0.999658
0.19487 0.0631105 0.13143 -0.919032 -0.393939 -0.0138866
-0.255121 -0.290495 0.0144152 -0.519345 -0.597984 -0.610488
-0.495234 0.0153567 0.149304 -0.765099 0.0435949 -0.642435
-0.397212 0.233145 0.168839 0.002249 -0.000139677 0.999997
-0.0232203 -0.203092 0.117136 0.123564 0.991958 -0.0274148
-0.250907 0.0218459 0.0445759 -0.995594 0.0937647 -0.000302615
-0.206533 0.206632 0.106947 0.743414 0.668139 0.0304231
0.046935 0.33677 -0.044512 0.0923407 0.772128 -0.628722
-0.398085 -0.260542 0.122732 -0.643672 -0.428564 -0.63405
-0.151148 0.134807 -0.10583 0.755267 -0.655072 -0.0212596
-0.0153917 -0.120463 0.0292387 0.0830014 -0.0458096 -0.995496
0.17998 0.357867 0.166741 0.889538 -0.456849 0.00345016
-0.284907 -0.15379 0.17106 0.0324354 -0.0341624 0.99889
-0.240598 -0.03896 -0.164927 -0.766884 -0.114409 -0.631506
0.136004 0.212537 0.0735753 0.624031 0.779799 0.0499919
-0.19969 -0.0354892 -0.114759 0.975413 0.22022 -0.00855373
0.308523 0.100142 0.0487277 -0.247487 0.966998 -0.0605471
0.302185 0.390166 0.144314 0.461276 0.62919 -0.625575
-0.347313 0.111705 0.0201818 -0.345106 -0.936363 0.0642361
0.13711 -0.279287 0.167971 0.0433108 -0.0430306 0.998135
0.209052 0.397895 0.096362 0.583395 -0.812176 0.00466507
-0.177043 -0.101812 -0.119594 0.870999 0.491098 0.0135118
0.405771 0.132088 0.110245 -0.279178 0.960131 -0.0144141
0.203097 -0.443356 0.136659 0.308324 -0.724814 -0.616101
0.210518 0.0309617 -0.167094 -0.0088171 0.0144673 -0.999856
-0.375133 -0.233728 0.0794849 -0.656157 -0.407828 -0.634928
0.134352 -0.209869 0.169833 -0.0359816 0.0410988 0.998507
0.361484 -0.318588 0.133298 -0.746239 0.665054 -0.0288197
-0.0216221 -0.251085 -0.00499168 -0.101779 -0.994807 -0.000974611
-0.289187 -0.361691 0.106842 -0.487156 -0.605577 -0.62925
-0.398614 -0.223675 0.169362 -0.00955876 0.00345074 0.999948
-0.347681 -0.292256 0.0946383 -0.589128 -0.501096 -0.633901
0.182941 -0.169408 0.164693 0.759572 -0.649025 -0.0426189
-0.0459452 0.100777 0.0307069 0.081699 -0.0815207 -0.993317
0.259765 0.427661 0.165168 0.577027 0.81627 0.0272711
-0.139771 -0.199827 -0.164054 -0.47432 -0.619295 -0.625695
-0.0547831 -0.158398 -0.00611998 0.359646 0.93308 -0.00392773
-0.115527 0.486527 0.167602 -0.226078 0.974037 0.0118388
0.409043 0.0672378 0.046094 0.780069 0.101238 -0.617449
-0.202254 0.0113354 -0.0598854 0.992871 -0.0943253 0.0728671
-0.090999 0.233629 0.0466211 -0.372141 0.927201 0.0425327
0.133089 0.210173 -0.157313 0.442583 0.626685 -0.641393
0.126072 0.230653 -0.0766353 0.979419 0.20075 0.0209009
-0.417106 -0.199668 0.104592 -0.735753 -0.323743 -0.594859
0.116207 0.383607 0.170211 0.00915589 -0.0143649 0.999855
-0.124682 0.216913 -0.129323 -0.524823 0.850476 0.0353826
0.238539 -0.326311 0.0435368 0.781181 0.624304 -0.00036055
0.000320255 0.28801 0.127028 -0.998295 -0.0554871 0.0181361
0.105391 -0.268318 -0.10763 0.277042 -0.725195 -0.630349
0.120778 -0.0329384 0.0287933 0.00146714 -0.0681011 -0.997677
-0.304055 0.212777 -0.00749399 -0.646496 0.44722 -0.618091
0.0527757 -0.018334 0.03007 -0.023803 0.0193221 -0.99953
0.202659 -0.01606 -0.0284095 -0.993395 0.0966353 -0.0618741
0.200898 0.0316135 -0.091221 -0.975991 -0.217006 0.0187353
0.15555 0.0942613 0.0354698 -0.0484093 0.0337035 0.998259
0.266948 0.0875633 -0.0596408 -0.229224 0.969377 -0.0881212
-0.174553 -0.238183 0.0291035 0.810367 -0.585915 -0.00303928
-0.212668 0.197572 -0.106242 -0.575696 0.531854 -0.621051
0.201743 0.0254553 0.0828281 -0.990275 -0.133359 0.0396254
-0.000166385 0.293453 0.0767627 -0.99981 -0.0168759 0.0097062
0.0114569 0.325068 0.168304 0.0782685 -0.0442278 0.995951
-0.136791 0.161618 0.169408 0.00164179 -0.00198247 0.999997
-0.304554 -0.251033 0.023961 -0.646953 -0.449039 -0.616292
0.443027 0.230281 0.162535 0.905489 0.419187 0.0661153
-0.248263 0.0637561 -0.0727869 -0.967563 -0.251869 0.0195814
-0.0100707 0.260097 -0.0564354 -0.769985 0.630523 0.0977893
-0.240244 -0.118255 0.144438 -0.790975 0.611771 -0.00973716
-0.156653 -0.130889 0.113946 0.762842 0.645968 -0.0282279
0.245038 -0.339384 0.169355 0.836973 0.547244 -0.000518955
0.198613 0.0483658 -0.029048 -0.960853 -0.276737 0.0133185
0.499413 -0.0015444 0.168155 0.999073 -0.0180754 -0.0390687
0.241014 -0.390203 0.102619 0.384482 -0.71773 -0.580549
0.0515961 -0.322131 -0.0165911 -0.994742 -0.100959 -0.0172146
0.196534 -0.0411379 0.0363536 0.000776583 -0.000800186 0.999999
0.393438 0.122992 0.0442864 0.752422 0.204715 -0.626061
0.066615 0.403314 0.040807 0.135895 0.763617 -0.631207
-0.246112 0.0470532 -0.0188998 -0.969497 0.236451 -0.0645481
-0.248584 -0.343795 0.141922 0.77638 -0.628487 0.0472982
-0.177169 -0.0533297 0.0336627 -0.0302838 0.0101828 0.999489
0.196126 -0.154327 0.060128 0.790163 -0.603624 -0.106212
-0.250189 0.0719966 -0.136049 -0.853691 -0.520781 -8.77474e-05
-0.248678 -0.0268064 0.154897 -0.995287 -0.0931492 -0.0269487
-0.178954 -0.139927 0.170317 0.0256781 -0.0148042 0.999561
-0.480586 0.109757 0.168148 -0.0258719 0.0152111 0.99955
0.459653 0.0613384 0.105367 0.792421 0.0546044 -0.607526
-0.280838 -0.180747 -0.0524104 -0.647466 -0.434062 -0.626401
0.168242 -0.335455 0.000541171 0.342504 -0.680532 -0.647741
-0.322962 0.106395 0.157216 -0.383245 -0.923647 -0.000468326
0.0573781 0.29421 -0.0935157 0.0468038 0.812823 -0.580628
0.140041 0.14601 -0.0445843 -0.698855 -0.713587 0.0489399
0.0900377 -0.0891981 0.0362471 0.039184 -0.0347722 0.998627
0.091236 -0.426626 0.167491 -0.103695 0.0555393 0.993057
0.306876 -0.0494391 0.00603673 -0.0630679 -0.997189 -0.0404456
-0.299536 -0.395734 0.170727 0.0279889 -0.0195078 0.999418
-0.139991 -0.213903 -0.088911 0.0877253 -0.996113 0.00796924
-0.227686 0.12942 -0.14229 -0.682609 0.374224 -0.627695
0.130708 0.261396 0.0434351 0.905062 -0.423927 -0.0338805
0.110088 -0.318083 -0.0501133 0.24522 -0.722637 -0.646269
-0.0295219 0.23601 -0.169744 -0.0730226 0.764935 -0.639955
-0.253453 -0.238768 -0.0331437 -0.56299 -0.53774 -0.627596
