ply
format ascii 1.0
comment Created by Open3D
element vertex 400
property double x
property double y
property double z
property double nx
property double ny
property double nz
end_header
-0.0748067 -0.494467 -0.051439 -0.169837 -0.98547 0.00185446
0.138298 -0.416495 0.150656 -0.0419898 0.0019038 0.999116
-0.426643 -0.257735 -0.12916 -0.613939 -0.350351 -0.707342
-0.396391 -0.302581 -0.072023 -0.752112 -0.657953 0.0377645
-0.0288395 0.451396 -0.152386 -0.0627541 0.0375081 -0.997324
-0.034951 0.272134 -0.149049 0.106261 -0.667504 -0.736985
-0.253569 0.0263745 0.0702427 0.992095 -0.0959573 -0.0808683
-0.0567319 -0.358757 0.151856 -0.0434577 0.0230646 0.998789
0.497409 0.0396492 0.0379194 0.997868 0.0376507 0.0533069
0.0365068 -0.253441 -0.0617146 -0.201738 0.978861 0.0336432
-0.115119 0.267833 -0.149342 -0.00787893 0.00211491 -0.999967
0.140778 -0.349066 0.152441 0.0137388 -0.0614261 0.998017
0.30396 -0.395386 -0.0664379 0.563673 -0.825669 0.0232962
-0.310546 0.188365 0.149959 -0.0325768 0.0184361 0.999299
0.231054 -0.107973 -0.0386725 -0.905456 0.416993 -0.0791638
0.279169 -0.341187 0.151138 -0.0223043 0.0591946 0.997997
-0.500843 -0.0257824 0.0965082 -0.995235 -0.0937515 0.026798
-0.229947 0.106551 0.0440221 0.920436 -0.386737 -0.056855
-0.114269 0.398783 -0.151386 0.0555123 -0.0517806 -0.997114
0.148575 0.207669 -0.0496501 -0.560546 -0.827706 -0.0262972
-0.491143 0.0846609 -0.110068 -0.987179 0.155612 0.0355396
0.127188 0.311794 0.150724 -0.0118242 0.0111777 0.999868
-0.349006 -0.35892 0.0376837 -0.667666 -0.744363 -0.012083
-0.14089 0.211437 -0.104116 0.561846 -0.827215 0.0066759
0.347942 0.180764 -0.151041 0.00513468 -0.0108755 -0.999928
-0.486394 -0.110741 0.0194876 -0.972331 -0.231702 0.0297828
0.228178 0.443583 -0.101774 0.524661 0.851299 0.00455936
-0.240488 -0.0872629 0.00603582 0.938122 0.342249 0.0528379
-0.498465 0.0426107 0.0638302 -0.991698 0.120843 -0.0439506
-0.230211 -0.443349 0.0745152 -0.485723 -0.874009 0.0134803
-0.200155 -0.157768 0.0150665 0.767563 0.640409 -0.0268841
0.0965206 -0.400986 -0.151379 -0.00485633 0.0109813 -0.999928
0.180944 -0.178289 -0.0696886 -0.673657 0.737617 -0.0459041
-0.244325 0.189942 0.149722 -0.00426468 0.0110722 0.99993
-0.352393 -0.119275 0.150495 -0.000699744 0.00139132 0.999999
-0.278697 -0.137419 0.151845 0.0191205 -0.0199712 0.999618
-0.0320534 -0.265385 0.142299 0.0925782 0.71893 0.68889
0.0178298 0.253321 -0.109976 -0.0565811 -0.99832 -0.0125136
-0.0461043 0.391894 -0.149565 -0.0263379 0.0179533 -0.999492
0.11888 0.398735 -0.151686 0.0314501 -0.0120741 -0.999432
-0.0990331 0.489202 -0.0591991 -0.215082 0.976522 0.0120212
-0.219219 -0.162005 -0.147708 0.600102 0.376007 -0.706043
-0.132522 0.480908 -0.117297 -0.303696 0.952287 0.0303054
0.401529 0.296133 0.081846 0.822291 0.568964 0.0108495
-0.443279 0.0774468 -0.147724 -0.0416137 0.0415668 -0.998269
0.102878 -0.235294 0.103428 -0.371862 0.926748 -0.053446
-0.237596 -0.343098 0.14886 -0.0224633 0.0319722 0.999236
-0.348589 0.358135 -0.0889025 -0.762215 0.64513 0.0532566
0.223324 -0.448243 -0.0350435 0.457845 -0.888467 -0.0316913
-0.122345 0.485343 0.125368 -0.280878 0.956422 0.079783
-0.45503 0.09063 0.150631 -0.012951 0.0127466 0.999835
0.241803 -0.130547 0.148976 -0.63722 0.271531 0.721264
0.461806 0.190222 0.0763288 0.930894 0.365289 0.000105859
0.347531 0.359607 -0.0162947 0.602289 0.796223 0.0572533
0.499462 -0.0322215 0.110542 0.998864 -0.0431617 -0.0201796
0.212979 0.139574 0.0133727 -0.838868 -0.535228 -0.0991553
0.229265 0.144719 -0.144166 -0.61416 -0.43116 -0.660991
-0.442365 0.232555 0.12979 -0.602547 0.275253 0.749115
-0.236326 0.0951761 -0.0248262 0.930582 -0.365943 0.0101854
0.251931 -0.0329148 0.0541621 -0.992236 0.124153 0.00726687
-0.248763 -0.0572068 -0.0496966 0.976568 0.213935 0.0234008
-0.384406 -0.0661027 0.150749 -0.0805342 0.033542 0.996187
-0.132224 -0.468998 0.142142 -0.196426 -0.678287 0.708056
0.496436 -0.0540129 -0.0550605 0.997339 -0.0720777 -0.0109546
-0.397486 -0.302663 0.0479967 -0.830406 -0.546856 -0.106646
0.202516 0.306325 -0.148568 0.0881547 -0.0623911 -0.994151
-0.367108 0.316067 -0.143315 -0.457127 0.451234 -0.766435
0.497188 -0.0401364 0.018237 0.995575 -0.0847163 0.0406711
0.263444 -0.36207 -0.150164 0.0177042 -0.0159754 -0.999716
0.348385 0.320137 -0.149968 0.00803784 -0.0791842 -0.996828
-0.205029 0.149482 -0.059111 0.804 -0.594152 0.0238171
0.332825 -0.207048 0.150778 0.00918549 -0.0165288 0.999821
0.0900844 0.374008 0.15028 -0.0422802 0.0130828 0.99902
0.210085 0.210888 -0.150676 0.0122261 -0.0699201 -0.997478
-0.126783 0.407765 0.151601 0.0137294 -0.0166241 0.999768
-0.362997 -0.345389 -0.0458665 -0.659266 -0.75056 -0.0450343
-0.430941 0.256314 -0.00527121 -0.868354 0.495913 0.00555824
-0.246843 0.434028 0.116007 -0.490622 0.871339 0.00761963
-0.254079 -0.432203 -0.0888283 -0.533827 -0.844782 0.0370383
0.0727527 -0.416979 0.15031 -0.0136438 0.0091672 0.999865
-0.311345 -0.0598988 0.149214 0.00640407 -0.10002 0.994965
-0.113201 -0.400352 -0.151536 -0.0127809 0.00898157 -0.999878
-0.243452 -0.0742697 0.11569 0.970858 0.230632 0.065152
0.39894 0.27511 0.145041 0.625663 0.412875 0.661876
-0.102236 -0.342393 -0.149782 0.0138415 -0.0300686 -0.999452
-0.331116 0.376469 0.096291 -0.646626 0.762737 0.0102952
-0.143038 0.480164 0.0233742 -0.22862 0.973482 -0.00813986
0.0141803 -0.500161 0.111457 0.0647632 -0.997708 -0.0196007
-0.163893 -0.397897 0.150232 0.0326392 -0.0481633 0.998306
0.481059 -0.138642 0.0260457 0.966965 -0.253638 -0.0254368
0.012512 -0.39483 0.149676 -0.00306093 0.00297985 0.999991
0.348411 -0.303048 0.150906 0.00111055 -0.00211278 0.999997
0.0168744 0.400282 0.149504 0.021944 -0.0327645 0.999222
-0.453762 -0.0724621 -0.151445 -0.00896955 0.0168568 -0.999818
0.261291 0.390143 0.149095 0.0112372 -0.0232608 0.999666
-0.317536 0.386323 -0.0487195 -0.642538 0.766242 -0.00423129
-0.0197339 -0.4987 -0.0806344 -0.0527489 -0.998606 0.00176424
-0.246224 0.326742 0.149305 0.0269299 -0.0212259 0.999412
-0.187075 0.280248 0.149827 0.0255729 -0.00416372 0.999664
-0.287411 -0.396841 -0.140981 -0.441834 -0.556085 -0.703955
-0.0711186 -0.255916 -0.138613 0.14885 0.692838 -0.705563
-0.489344 0.0271378 -0.140824 -0.684993 0.0544943 -0.726509
-0.164238 -0.461619 -0.141537 -0.277217 -0.641743 -0.715064
-0.104815 -0.489403 -0.120157 -0.146535 -0.989204 0.00174427
0.242255 -0.0745321 0.110142 -0.958086 0.285686 -0.0213347
-0.279749 0.413058 -0.0937421 -0.587877 0.808365 0.0307533
-0.0332778 0.498345 0.108204 -0.0439682 0.998863 -0.0184272
-0.500314 0.0315436 -0.0152704 -0.993813 0.110727 -0.00863273
0.243464 0.378171 -0.149125 -0.00644669 0.00173828 -0.999978
0.198385 0.161632 -0.0677454 -0.76716 -0.641416 -0.00712647
0.0203546 0.255126 -0.0215453 -0.184361 -0.981635 0.0490299
0.114478 0.227099 0.131015 -0.274971 -0.685199 0.674458
0.266614 -0.238452 -0.148753 -0.00695056 0.00639457 -0.999955
0.480104 0.137745 -0.0980032 0.940706 0.33922 -0.00160455
-0.132513 -0.480304 -0.00699954 -0.221382 -0.975167 -0.00624151
-0.0546731 0.249953 0.10263 0.23449 -0.971249 -0.0410968
0.162294 0.358996 -0.150343 -0.00645081 0.00914117 -0.999937
0.251163 -0.0444957 -0.0490957 -0.969861 0.235964 -0.0607472
-0.372053 0.33542 0.0473457 -0.755268 0.65523 0.0156345
-0.375328 0.188254 0.150846 -0.000498247 0.00353293 0.999994
0.422975 -0.183902 -0.149237 -0.00314668 0.00468893 -0.999984
0.439259 0.23515 0.115938 0.923238 0.383698 0.0201942
0.249168 -0.0831548 -0.140303 -0.644052 0.227877 -0.730252
-0.425691 -0.263207 -0.0216483 -0.838637 -0.544691 -0.000673674
-0.0429455 0.25074 -0.0641134 0.169223 -0.985394 -0.0190583
-0.0463314 0.497912 -0.0132217 -0.0280072 0.999543 -0.0114098
-0.219254 -0.131627 -0.0494927 0.860437 0.50917 -0.0198452
0.124006 0.222174 0.0362272 -0.491082 -0.871064 0.00925053
0.365223 -0.153177 0.149942 -6.46153e-05 8.73788e-05 1
-0.411799 0.283681 0.120717 -0.82217 0.567961 0.038162
-0.211665 0.452649 -0.0875992 -0.427086 0.90402 -0.0186052
-0.0234692 -0.449519 0.150658 -0.002408 0.0691513 0.997603
0.324215 0.0551553 0.14845 -0.000954999 0.00117743 0.999999
-0.465661 0.1814 0.108236 -0.92271 0.385354 -0.0104119
-0.187617 0.17863 -0.131467 0.510622 -0.540047 -0.66904
-0.154656 0.223494 0.148604 0.345619 -0.572821 0.743252
-0.11983 -0.248619 0.150146 -0.0183938 0.0293041 0.999401
-0.184499 -0.464407 -0.0648198 -0.434492 -0.900617 0.0102997
-0.298167 -0.20905 0.151118 -0.00596371 0.00392553 0.999975
-0.415318 -0.153388 -0.149283 -0.0268598 0.00761427 -0.99961
-0.319197 0.373803 -0.139539 -0.43307 0.525605 -0.73225
-0.178598 -0.295163 0.151202 -0.053272 0.0579104 0.996899
0.112902 -0.243238 -0.145483 -0.319617 0.642705 -0.696258
0.0787329 -0.243053 -0.00472992 -0.329973 0.943168 0.0393972
-0.267371 -0.316574 -0.150509 -0.0437498 0.0633524 -0.997032
0.193209 -0.165693 0.0354353 -0.754797 0.655919 0.00727179
-0.36518 0.328296 0.13936 -0.518276 0.501396 0.692815
0.0357979 0.261095 0.138107 -0.0992529 -0.706439 0.70078
0.481402 -0.0868024 0.141498 0.656974 -0.131545 0.742348
-0.372214 0.215375 -0.148915 0.01258 -0.0325552 -0.999391
-0.319868 0.0920189 -0.149822 -0.0144568 0.0082955 -0.999861
0.244447 0.216937 0.150576 -0.00269727 0.0100801 0.999946
0.135891 -0.327116 -0.149527 0.0113619 -0.00336379 -0.99993
-0.0813579 -0.241277 0.0953424 0.306168 0.950806 0.0472174
0.139878 -0.215169 -0.00424831 -0.587218 0.808958 0.0276019
-0.182527 0.46492 0.0813895 -0.384356 0.923176 -0.00400417
0.156946 0.384348 0.149739 -0.00315951 0.00684198 0.999972
-0.312449 0.290352 0.149005 0.064935 -0.0208937 0.997671
0.385512 0.0153926 0.149 0.00850232 -0.0471324 0.998852
0.329317 0.375194 -0.112467 0.642082 0.766636 -0.000215126
-0.217509 -0.13135 0.0720763 0.844517 0.535524 0.0022748
0.244041 -0.437049 0.0908528 0.501621 -0.865056 -0.00739692
-0.458701 -0.197445 0.0256775 -0.91658 -0.39983 0.00424431
-0.176716 0.345603 0.148941 0.0232841 -0.00721102 0.999703
0.319284 -0.314375 -0.152016 -0.0922347 0.0260981 -0.995395
0.169735 0.188171 0.128586 -0.683688 -0.729679 -0.0118251
0.356359 -0.350918 0.102986 0.716762 -0.696902 -0.0240893
0.122474 0.486559 0.0381604 0.249905 0.968269 -0.0015844
-0.27768 -0.41426 0.0424454 -0.602415 -0.794199 -0.079653
-0.464537 -0.188666 0.106516 -0.943934 -0.329392 -0.0221208
-0.310596 0.0801974 0.149794 0.0178454 -0.0287285 0.999428
0.359224 -0.347248 0.0394559 0.732442 -0.680803 -0.00596287
0.250832 0.0387215 -0.0492219 -0.99169 -0.116295 -0.0550125
-0.191782 0.437406 -0.148988 0.0708517 -0.0317416 -0.996982
0.366339 -0.338697 -0.0275128 0.760536 -0.648847 -0.0241401
0.0277074 0.500071 -0.127579 0.0549755 0.998482 -0.00338876
-0.122237 0.225113 0.045137 0.490655 -0.86828 -0.0731307
0.00349798 -0.322476 0.150381 -0.0196092 0.0504863 0.998532
0.312832 0.349565 0.150468 -0.00117463 0.0128359 0.999917
-0.303671 -0.397348 -0.0440093 -0.614564 -0.788867 -0.000290823
0.0418514 0.344154 -0.149898 0.0132574 -0.0370839 -0.999224
-0.458734 -0.200563 -0.106498 -0.926894 -0.375127 0.012133
-0.471475 0.160264 -0.0923921 -0.947421 0.315364 0.0542224
-0.497098 -0.0510252 -0.116379 -0.995105 -0.0966279 -0.0207089
0.0087869 0.500735 0.0516251 0.0407358 0.998072 -0.0468226
-0.346951 0.155717 -0.149906 0.0722569 -0.0120543 -0.997313
-0.37517 0.0311525 -0.150602 -0.019261 0.00389205 -0.999807
0.307881 -0.0300268 0.150915 0.0128434 -0.00843928 0.999882
0.405393 0.141913 -0.149423 0.0821143 -0.0601532 -0.994806
0.00208742 0.311599 0.14944 -0.00365088 0.000143271 0.999993
0.152509 -0.260203 0.151041 0.00434243 -0.00807078 0.999958
-0.258637 -0.273293 0.150751 -0.0264815 0.0270454 0.999283
-0.302357 0.234195 -0.147269 -0.00177063 0.0018491 -0.999997
0.369803 0.338559 -0.0685832 0.699882 0.714158 -0.0120191
0.158081 -0.474828 0.00353654 0.290797 -0.954816 0.0613408
0.240673 0.087271 0.0808532 -0.942009 -0.33494 -0.0208571
-0.387864 -0.0522288 -0.148917 -0.000808746 0.00170424 -0.999998
-0.190543 0.169047 0.0303518 0.731066 -0.681768 0.0271011
-0.0933161 -0.300946 0.149503 -0.0528589 0.0143873 0.998498
0.243045 0.0816589 -0.105957 -0.947464 -0.319857 0.00159333
0.0703288 -0.286204 0.152097 -0.0380714 0.0561734 0.997695
0.111114 -0.488187 -0.0524611 0.25211 -0.967626 -0.0118185
0.337281 -0.370852 -0.122134 0.679623 -0.733336 0.0181546
-0.172752 -0.346884 -0.150426 -0.0150764 0.00110689 -0.999886
0.189273 0.461408 0.041674 0.377324 0.926028 0.00991453
0.108827 -0.468058 -0.149318 0.176309 -0.702192 -0.689813
0.066706 0.266223 -0.150321 0.00168477 -0.00350377 -0.999992
0.254522 -0.00267359 -0.0946913 -0.993988 0.0894442 -0.063141
-0.209776 0.144268 0.0893028 0.805532 -0.590281 0.0518306
-0.253095 0.026881 -0.00274869 0.988457 -0.150233 0.0195644
0.39543 0.305083 -0.008895 0.803483 0.595307 0.00503748
0.279073 0.267423 -0.150479 0.0260191 -0.0839186 -0.996133
-0.301331 -0.0397589 -0.147645 -0.000182319 0.000180529 -1
0.000160039 0.498718 -0.0502239 0.0966162 0.993904 -0.0530968
0.255174 -0.42916 -0.116018 0.482927 -0.872944 0.0689143
0.00773564 -0.501141 -0.02107 -0.00939049 -0.999821 0.0163965
0.348847 -0.217165 -0.14965 0.0102123 -0.00522821 -0.999934
-0.123331 -0.223957 -0.115181 0.502457 0.864093 -0.0296688
0.120511 0.305154 -0.150578 -0.0052798 0.0178039 -0.999828
-0.0186435 -0.303885 -0.149517 0.00833217 -0.00540075 -0.999951
-0.295328 0.298975 -0.150769 0.0516389 -0.0921144 -0.994409
-0.496557 -0.0649421 -0.0282774 -0.996371 -0.0782085 -0.0335957
-0.238806 -0.440649 -0.0104131 -0.47808 -0.878316 -0.000357985
-0.482537 -0.129693 -0.119798 -0.975565 -0.219633 -0.00587311
0.245332 0.0701883 0.00401394 -0.977751 -0.207083 -0.0334632
-0.339998 -0.274758 0.150518 0.0187972 -0.0138489 0.999727
0.280229 -0.245941 0.151175 0.0640082 -0.0447223 0.996947
0.462833 -0.161202 0.138162 0.669817 -0.224523 0.707767
0.149997 -0.206615 0.075207 -0.647685 0.759991 0.0540166
-0.0730013 -0.494493 0.0100445 -0.165638 -0.98612 0.0114511
0.448979 0.0313799 -0.148426 0.0487134 -0.0435453 -0.997863
0.278116 0.191467 -0.152221 -0.0140835 0.0299738 -0.999451
0.474873 -0.0300294 -0.15033 0.0292575 -0.0651918 -0.997444
-0.0203995 -0.500627 0.0548176 -0.0327855 -0.999349 -0.0150802
0.0395575 0.49691 0.120118 0.0476731 0.996813 0.0639587
-0.219938 -0.431782 -0.147423 -0.280648 -0.635031 -0.719703
-0.462827 0.191418 0.0349416 -0.925995 0.377355 -0.0116667
-0.281741 0.0295872 -0.151615 0.0426793 -0.00901061 -0.999048
0.438045 0.241073 0.0408016 0.84125 0.540182 -0.0224104
-0.490112 0.104646 -0.000320595 -0.97857 0.205615 0.011094
-0.174374 -0.470289 0.064921 -0.412443 -0.910742 0.0209557
-0.041154 0.25055 0.0330376 0.111498 -0.993698 0.0115315
0.41363 -0.281888 -0.0161415 0.842179 -0.539169 -0.00552296
-0.104429 0.232813 -0.024646 0.459796 -0.887638 -0.0261951
0.286942 -0.409909 0.0130294 0.575059 -0.818104 -0.00347614
-0.374725 -0.195785 0.148883 -0.0136995 0.00158617 0.999905
-0.0948531 -0.237659 -0.0435271 0.368193 0.929626 0.0151577
0.168124 0.470151 -0.13261 0.299153 0.610046 -0.733724
-0.0965612 0.295045 0.150697 -0.0759402 0.0347965 0.996505
0.280403 -0.168054 -0.150547 -0.0151616 0.0107494 -0.999827
-0.201634 0.254054 -0.151457 0.000765779 -0.0008122 -0.999999
0.474733 -0.137322 -0.133632 0.68062 -0.191016 -0.707297
0.474672 0.106874 0.142889 0.72655 0.169658 0.665839
0.18247 0.255316 0.149894 0.0287958 -0.0015499 0.999584
-0.177924 0.44862 0.148258 -0.277816 0.67503 0.683486
0.169767 0.450397 0.147795 0.137096 0.723251 0.67684
0.305699 -0.107556 0.149364 0.0108451 -0.00566415 0.999925
-0.442964 0.0332482 0.150171 0.00350928 -0.0032123 0.999989
-0.4984 -0.0121083 0.0295551 -0.999707 -0.0237358 -0.00470329
0.161391 0.198074 -0.117718 -0.578583 -0.813031 -0.0649812
0.435603 0.244287 -0.0218814 0.847558 0.530678 -0.00525238
-0.247979 0.0630087 0.121057 0.98042 -0.196336 -0.0151058
-0.252011 -0.0362149 0.0324746 0.975689 0.218452 0.0176176
-0.037458 -0.253644 -0.052401 0.230738 0.972801 -0.0204337
-0.0840757 0.49448 0.0481985 -0.0755008 0.99612 -0.0452101
0.0178305 0.253352 0.0688799 -0.0485002 -0.998823 -0.000912476
-0.259104 -0.229479 -0.148449 -0.0468908 0.00845043 -0.998864
-0.373888 -0.328374 0.103481 -0.762342 -0.647174 -0.000895234
0.344411 0.250058 -0.148402 -0.0128014 0.0167385 -0.999778
-0.268608 0.178323 -0.151262 0.0204954 -0.0820443 -0.996418
-0.470817 0.169029 -0.0235034 -0.954574 0.292677 0.0559332
0.491646 0.0959352 -0.0385591 0.991824 0.126153 0.0192499
-0.151308 -0.203907 0.0456013 0.694328 0.716076 -0.0717245
-0.0406878 -0.475253 -0.150169 -0.0107905 0.0252509 -0.999623
0.331424 -0.106703 -0.150645 0.0183105 -0.0735799 -0.997121
-0.337474 -0.354519 0.139409 -0.538112 -0.479627 0.693104
-0.299747 0.0144529 0.147895 0.0469629 -0.0414418 0.998037
0.14203 0.480289 0.10175 0.191745 0.980212 0.0491813
0.464474 -0.184336 -0.0222108 0.92505 -0.37838 0.0333232
-0.279 0.383096 0.150109 0.0148023 -0.02137 0.999662
0.40152 -0.297906 0.0864881 0.815363 -0.578894 -0.00802252
-0.375456 0.0181365 0.150426 -0.0224861 0.00407759 0.999739
0.362348 0.343446 0.0420701 0.753974 0.656878 -0.00581856
0.186198 0.322148 0.150811 0.0242364 -0.0455686 0.998667
0.117481 -0.227694 -0.0838004 -0.496687 0.86756 0.0253202
-0.222766 0.310768 -0.151266 -0.00489197 0.0340351 -0.999409
0.480477 0.0468703 0.147601 0.66784 0.0441499 0.742994
0.213157 -0.271114 -0.149205 0.0153844 -0.00837929 -0.999847
0.0965572 0.451313 0.149618 -0.0118133 0.0200135 0.99973
0.41543 -0.280184 -0.110503 0.828513 -0.55826 0.043726
0.270972 0.0429628 -0.148498 -0.728455 -0.105472 -0.676926
0.0770914 -0.490382 0.135677 0.0958146 -0.697156 0.710488
0.47963 -0.146876 -0.0755388 0.955976 -0.293442 0.000973319
0.215084 -0.393743 -0.150469 -0.019226 0.0168734 -0.999673
-0.311135 -0.16183 -0.146936 0.0045352 -0.0062482 -0.99997
0.379121 0.186756 0.150982 -0.00679419 0.00859471 0.99994
0.330948 0.0249608 -0.15015 0.0638356 -0.0191483 -0.997777
0.174985 0.185887 0.0643481 -0.662893 -0.748689 0.00606686
-0.241505 0.125682 0.14793 0.68805 -0.322037 0.650292
-0.49981 -0.00099067 -0.0718251 -0.999982 0.00593568 -0.000475742
-0.396537 0.305235 -0.0705338 -0.75618 0.651482 -0.0613472
0.196879 -0.460041 0.127102 0.398022 -0.915479 -0.0589666
0.464638 0.186645 0.00821666 0.92674 0.374116 0.034507
-0.350491 -0.103504 -0.150054 0.0610292 -0.00569314 -0.99812
0.240639 0.136672 0.151863 -0.0538198 0.0848055 0.994943
0.365062 0.0780847 -0.149655 -0.00220862 0.0318309 -0.999491
0.231995 0.444398 -0.00854916 0.449651 0.893128 0.0116331
-0.20465 0.455433 0.00630311 -0.440521 0.897362 0.0261163
0.177473 0.467151 -0.0350397 0.382635 0.923895 -0.00277357
0.237947 -0.38523 0.150297 -0.0282742 0.0668917 0.99736
-0.260644 0.427043 -0.00143878 -0.544276 0.837547 0.0477312
-0.368002 -0.286081 -0.149335 0.0558546 -0.0217238 -0.998203
0.0206933 -0.389733 -0.149677 -0.0241827 0.0171282 -0.999561
0.416281 -0.121536 -0.150147 -0.00366697 0.0111822 -0.999931
0.0620471 -0.497469 0.0272601 0.135982 -0.986936 -0.0864107
-0.369357 0.33647 -0.0206895 -0.782122 0.62268 0.0235572
0.470974 0.09584 -0.14885 0.692118 0.146412 -0.706779
-0.441448 0.237972 -0.0780081 -0.889331 0.450362 0.079146
0.446869 0.170269 0.149937 0.0206278 -0.0156348 0.999665
0.497841 0.0255585 -0.123402 0.997092 0.075594 -0.0096073
0.397665 0.302453 -0.121963 0.851973 0.523407 0.0136696
-0.228953 0.111587 -0.1246 0.885796 -0.461395 0.0497947
-0.361051 -0.214264 -0.150337 0.00457433 -0.0256049 -0.999662
0.280758 0.413135 -0.0559701 0.569502 0.821804 0.0175059
0.254519 0.00326723 0.112911 -0.997681 -0.056839 0.0374301
0.236635 0.439261 0.10603 0.409975 0.911903 0.0187818
-0.0660628 0.495783 -0.129325 -0.0994172 0.699518 -0.707666
0.401506 0.101699 0.149277 0.0780434 -0.0468361 0.995849
-0.419867 0.270914 -0.128004 -0.817964 0.573285 -0.0477412
-0.431302 0.251656 0.0728862 -0.868067 0.496314 0.011513
0.0572581 -0.276051 -0.150532 0.00709613 -0.000344244 -0.999975
-0.229521 0.377148 -0.149568 -0.012375 0.0707895 -0.997415
-0.409127 -0.128807 0.148345 0.0358781 -0.0290669 0.998933
-0.305803 -0.394855 0.0964654 -0.567871 -0.823111 0.00341756
0.315052 0.145393 0.151024 -0.0383638 0.0613671 0.997378
-0.180114 -0.178844 -0.0906397 0.66943 0.742794 -0.0109486
-0.190765 -0.455908 0.135707 -0.271988 -0.654994 0.704986
-0.480664 -0.131047 -0.0442814 -0.970153 -0.236107 -0.0552955
-0.0987209 -0.403529 0.149479 -0.00847178 0.00566175 0.999948
-0.220275 -0.15117 0.140458 0.571279 0.422305 0.703774
-0.0627822 -0.248139 0.0258982 0.273892 0.961727 0.00797109
-0.343742 -0.363365 -0.120996 -0.671724 -0.7408 -0.00185185
0.500085 0.0177836 -0.0349381 0.99979 0.0192018 0.00714891
-0.329602 0.378365 0.013378 -0.637211 0.768373 -0.0596978
0.216658 -0.270311 0.148775 -0.00731943 0.0808038 0.996703
-0.479507 -0.129656 0.133916 -0.679331 -0.193525 0.707854
0.293508 -0.404872 0.120281 0.619769 -0.784619 -0.0161437
0.272948 0.297335 0.150421 0.033444 -0.00234476 0.999438
0.40053 -0.236352 0.150553 0.0219736 -0.00512221 0.999745
0.188332 -0.462679 -0.076649 0.332375 -0.941973 0.0470529
0.358636 -0.0709452 0.149395 0.00168089 -0.00349306 0.999992
0.455512 -0.20299 -0.0954439 0.900227 -0.427835 0.0809218
0.484229 0.121839 0.0446748 0.965936 0.258223 -0.0169896
-0.38468 0.0998825 -0.150719 -0.0586013 0.00194269 -0.99828
0.132968 0.482055 -0.0777185 0.223552 0.974491 0.0197791
0.491591 -0.0910149 0.0771901 0.984358 -0.171132 -0.0418693
-0.0859724 0.328267 -0.15061 0.027717 -0.00275626 -0.999612
-0.162877 0.197069 -0.037841 0.632558 -0.773996 0.0283075
-0.481174 0.135043 0.0606391 -0.961837 0.273622 -0.000638015
0.188212 -0.212892 -0.149743 0.0284451 -0.0271392 -0.999227
-0.029177 0.442155 0.1506 -0.037514 0.032687 0.998761
0.0342708 -0.469335 -0.148454 0.0106907 -0.0264179 -0.999594
-0.252957 -0.016889 -0.114098 0.993765 0.108901 -0.0239248
0.217321 -0.195266 0.150437 0.00445204 -0.0510975 0.998684
0.459483 0.195008 -0.0737447 0.927361 0.37184 -0.0416768
-0.043921 0.359912 0.150544 -0.0440771 0.00977262 0.99898
-0.454351 -0.0418145 0.150527 -0.00947275 0.033104 0.999407
-0.264327 -0.0952218 -0.151285 -0.0205933 0.0443188 -0.998805
-0.405728 -0.276851 0.137653 -0.524446 -0.410161 0.74614
0.316996 0.385736 0.0936256 0.658342 0.752672 0.00839301
0.184435 -0.453537 -0.138885 0.299012 -0.566889 -0.767612
-0.181874 -0.236934 -0.14978 0.0385125 -0.0161666 -0.999127
-0.0675006 -0.496062 0.1015 -0.144824 -0.98938 -0.0123433
0.0337671 -0.252192 0.0504252 -0.150954 0.988415 0.0157832
0.0791261 0.241909 0.000870297 -0.313337 -0.949536 0.0141805
0.437991 -0.0309435 0.151429 0.0165147 -0.0108338 0.999805
0.31305 0.24256 0.15059 0.00167839 -0.00249538 0.999995
0.448755 -0.218566 0.118424 0.875231 -0.477978 0.0742101
-0.438556 0.157341 -0.14958 0.0434751 -0.0137377 -0.99896
0.433403 0.248886 -0.10599 0.824764 0.565328 -0.0129622
0.232327 -0.109717 0.046286 -0.915619 0.401132 0.027114
0.0595111 0.433718 -0.148386 -0.00579661 0.00641367 -0.999963
0.251501 0.0345323 0.0559434 -0.995498 -0.0936587 -0.0145496
0.383598 -0.0149848 -0.151758 0.0373093 -0.0460099 -0.998244
-0.429219 -0.254903 0.0816845 -0.811689 -0.579413 0.073764
0.00720473 -0.255365 -0.00106927 -0.0597026 0.998166 0.0100436
-0.172844 -0.189241 -0.0285526 0.68813 0.725391 -0.0169021
-0.112593 -0.486931 0.0534003 -0.2857 -0.957659 0.0355626
-0.174408 -0.210114 0.149722 0.412986 0.541334 0.732394
-0.169732 0.469483 -0.0428639 -0.356917 0.933989 0.0166002
-0.218896 0.392288 0.148502 0.0472419 -0.00378672 0.998876
0.212027 -0.14257 -0.116981 -0.822796 0.565738 -0.0542849
0.264557 0.0693748 0.148327 -0.712646 -0.16423 0.682029
0.103436 0.231548 -0.106946 -0.372656 -0.927898 -0.0115534
0.0671932 0.495946 -0.00933181 0.134427 0.989859 0.0459272
0.377178 -0.328914 -0.0891118 0.751083 -0.660191 -0.00459824
0.125297 -0.484209 0.0639823 0.26189 -0.964925 -0.0182525
-0.166101 0.194247 0.0847249 0.578651 -0.814822 0.0350376
0.300816 0.398219 0.0211983 0.611536 0.791214 0.00186311
0.441985 -0.232555 0.0244795 0.888978 -0.457942 0.0026955
