ply
format ascii 1.0
comment Created by Open3D
element vertex 400
property double x
property double y
property double z
property double nx
property double ny
property double nz
end_header
-0.175442 -0.247614 -0.100476 0 0 -1
-0.0416667 0.212234 0.146012 -1 0 0
0.0574048 -0.5 -0.248388 0 -1 0
-0.337016 -0.323349 0.254675 -0 0 1
-0.333333 0.266252 0.0636029 1 0 -0
-0.416667 0.332769 0.115326 -1 0 0
0.416667 -0.406197 0.0628123 1 -0 0
0.300588 -0.420354 -0.254675 0 0 -1
0.332978 0.173606 -0.0578248 0 -0 1
0.143747 0.370822 0.254675 -0 0 1
-0.212637 -0.352838 -0.212024 0 0 1
-0.179383 0.37421 0.0108871 -0.583744 0 0.811938
-0.333333 0.246436 -0.0393737 1 0 -0
-0.0416667 -0.192409 -0.0343694 -1 0 0
-0.04225 0.117987 -0.0578248 0 -0 1
0.338087 0.427008 0.138196 -0.921477 0 -0.388432
-0.094172 -0.5 0.0182387 0 -1 0
-0.0405269 -0.0337183 -0.254675 0 0 -1
0.333333 0.206638 0.0358311 -1 0 0
-0.333333 0.0492019 0.136516 1 0 -0
0.200071 0.381092 -0.000172113 0.365343 0 0.930873
0.24666 -0.307929 -0.212024 0 0 1
-0.385846 0.496263 0.254675 -0 0 1
0.344039 -0.5 0.153797 0 -1 0
-0.333333 -0.199552 0.223821 1 0 0
0.416667 0.229164 -0.0732498 1 0 0
0.28874 -0.285115 -0.100476 0 0 -1
-0.288484 0.5 -0.110664 0 1 0
-0.311152 -0.362166 -0.212024 0 0 1
0.103675 -0.284949 -0.160959 1 0 0
0.2389 -0.5 -0.248282 0 -1 0
0.334412 0.316232 0.146316 -0.900967 0 -0.433888
0.336375 -0.375205 0.142241 -0.900967 -0 -0.433888
0.416667 -0.0842473 0.178262 1 -0 0
-0.16473 -0.277416 -0.254675 0 -0 -1
0.169901 -0.499739 -0.100476 0 0 -1
0.274508 -0.5 -0.0850528 0 -1 0
0.333333 0.220731 0.196368 -1 0 0
0.07629 0.5 -0.215006 -0 1 0
0.319921 0.0206755 -0.0578248 0 -0 1
-0.416667 -0.0120893 0.125813 -1 0 0
0.164275 0.393317 -0.254675 0 0 -1
0.336434 0.5 -0.190493 -0 1 0
-0.290801 0.487267 0.00534689 0.499999 0 0.866026
-0.407979 -0.5 0.114997 -0 -1 0
0.0335799 -0.227168 0.254675 0 -0 1
0.333333 0.00386864 0.0849299 -1 0 0
0.166612 -0.40027 -0.254675 0 0 -1
-0.416667 0.0361167 -0.150124 -1 0 0
-0.0642868 0.402834 0.254675 -0 0 1
0.0416667 0.221922 0.20301 1 0 0
0.349485 0.302813 0.254675 0 0 1
-0.362217 -0.4555 -0.254675 0 -0 -1
-0.0921583 -0.00917762 -0.0578248 0 -0 1
-0.0443542 0.49293 -0.254675 -0 0 -1
-0.0647673 0.291667 0.000541868 0 -1 -0
0.416667 -0.308777 0.0197675 1 -0 0
-0.299462 -0.21066 -0.100476 0 0 -1
-0.239813 0.089389 -0.0578248 0 0 1
-0.416667 -0.401631 0.0650703 -1 0 0
0.261039 0.47666 -0.254675 -0 0 -1
-0.0416667 0.0870089 0.0461583 -1 0 0
0.338889 -0.455897 0.254675 0 0 1
0.178755 0.5 -0.211694 -0 1 0
0.133565 -0.345988 0.105057 0.998757 0 -0.0498443
0.225608 0.5 -0.128542 -0 1 0
0.393539 0.277863 -0.254675 0 0 -1
-0.0665384 0.150775 -0.254675 0 -0 -1
-0.185701 0.14584 -0.254675 -0 0 -1
0.0416667 0.0261315 0.107289 1 0 0
0.333333 -0.0643427 0.00774614 -1 0 0
-0.161209 0.484911 0.17012 -0.733052 -0 -0.680173
-0.0381859 -0.5 -0.218435 0 -1 0
0.0583217 -0.0295692 -0.254675 0 0 -1
-0.414412 0.293201 -0.254675 0 0 -1
0.0416667 0.159281 0.0317156 1 0 0
-0.339152 -0.5 0.0278507 -0 -1 0
-0.333333 -0.0875499 0.24919 1 0 -0
0.01896 -0.5 0.24107 0 -1 0
0.266956 0.5 0.227063 0 1 0
0.217797 -0.323198 -0.100476 0 0 -1
-0.212316 -0.118936 -0.252372 -0.246757 -0.969077 0
-0.333333 0.085862 0.0371155 1 0 -0
0.400638 0.382969 -0.254675 0 0 -1
-0.333333 -0.151043 0.0549673 1 0 0
0.0671624 0.381755 -0.0787663 -0.930874 -0.365341 -0
0.416667 0.483628 -0.229606 1 0 0
-0.333333 -0.11832 -0.0498894 1 0 0
-0.103675 -0.402414 -0.147599 -1 0 0
-0.225142 -0.491899 0.203663 -0.124342 0 -0.992239
0.0915567 -0.110438 -0.254675 0 0 -1
0.146035 0.146829 -0.0578248 0 0 1
-0.156809 -0.186503 -0.254312 -0.999689 -0.0249337 0
-0.327748 -0.0102325 -0.0578248 0 0 1
0.285667 0.121915 -0.254675 -0 0 -1
-0.416667 0.494359 0.0185443 -1 0 0
0.208731 0.175742 -0.254675 0 0 -1
0.0917139 0.5 -0.0560594 0 1 0
-0.0851097 -0.5 -0.117613 0 -1 0
-0.416667 0.317395 -0.14629 -1 0 0
-0.367103 0.5 -0.171429 0 1 0
-0.0416667 -0.171199 0.191662 -1 0 0
-0.320734 0.5 0.170759 0 1 0
-0.416667 0.309904 -0.0286051 -1 0 0
-0.205973 -0.291667 -0.0176326 0 1 0
0.140389 -0.48542 -0.254675 0 0 -1
0.295167 0.224585 -0.254675 0 0 -1
-0.0762394 -0.430837 0.254675 0 0 1
0.049135 0.206931 -0.0578248 0 0 1
0.132766 -0.458684 0.254675 0 0 1
0.135976 0.410923 0.121965 0.980172 0 -0.198148
0.400332 0.146051 -0.254675 0 0 -1
-0.1519 -0.459317 0.158373 -0.826238 0 -0.563321
0.280484 -0.296138 0.196477 -0.365343 0 -0.930873
-0.34619 -0.414735 -0.100476 0 0 -1
0.228159 0.308496 -0.254675 0 -0 -1
-0.162588 0.350516 0.171606 -0.733052 0 -0.680173
-0.34581 0.435538 0.0965347 0.999922 0 0.0124762
0.180278 0.248682 -0.0578248 0 0 1
0.0416667 -0.185966 0.0758049 1 -0 0
0.0731843 -0.291667 0.0720711 0 1 0
0.201715 -0.256003 -0.248404 0.388432 0.921477 0
0.416667 0.420764 -0.153228 1 0 0
-0.0416667 0.00715497 0.0690132 -1 0 0
-0.416667 -0.11196 0.0974821 -1 0 0
-0.415161 -0.0119672 -0.254675 0 0 -1
-0.224888 0.291667 -0.0494242 0 -1 0
-0.416667 -0.363522 0.236586 -1 0 0
-0.416667 0.431291 0.178541 -1 0 0
0.416667 -0.342141 -0.189432 1 0 0
0.396523 0.5 -0.114346 0 1 -0
-0.130457 0.204112 -0.0578248 0 0 1
-0.259439 0.399155 0.20278 0.173646 0 -0.984808
-0.116981 -0.291667 0.0636739 0 1 0
-0.413808 0.5 0.103776 0 1 0
0.333333 -0.225864 -0.0524265 -1 0 0
-0.0375044 0.5 0.000415563 0 1 0
-0.416667 -0.233176 0.241252 -1 0 0
-0.333333 0.0888735 0.236807 1 0 -0
-0.0355683 -0.330019 0.254675 0 0 1
-0.209948 -0.430915 -0.254675 0 0 -1
-0.189858 -0.0670978 -0.155312 -0.5 -0.866025 -0
0.333333 0.113161 -0.00657012 -1 0 0
0.416667 -0.48726 -0.0572836 1 -0 0
0.334512 -0.351647 -0.212024 0 0 1
-0.191949 0.238999 -0.254675 -0 0 -1
-0.397409 0.214046 -0.254675 0 0 -1
0.289354 -0.298874 0.0045789 -0.456211 0 0.889872
-0.376816 -0.5 -0.170565 0 -1 0
0.416667 0.359003 0.117025 1 0 0
0.247332 0.0849188 -0.0578248 0 -0 1
-0.249807 -0.384433 -0.00732348 0.0747303 0 0.997204
-0.416667 0.208811 0.00693214 -1 0 0
-0.0431111 0.291667 0.231019 0 -1 -0
0.125246 0.432369 -0.151358 -1 0 -0
-0.163718 -0.361247 0.0240468 -0.698237 0 0.715867
0.253698 -0.408276 -0.100476 0 0 -1
0.333333 -0.259798 0.109232 -1 0 0
-0.346466 0.342579 -0.254675 -0 0 -1
-0.416667 0.118013 0.087344 -1 0 0
0.416667 0.183505 0.149741 1 -0 0
-0.334708 -0.291681 0.145703 0.900967 0 -0.433888
0.416667 0.228172 -0.18062 1 0 0
0.0257586 -0.393009 -0.254675 0 0 -1
-0.416667 -0.299591 -0.190073 -1 0 0
-0.0564681 0.400299 -0.0921782 0.781829 -0.623492 0
-0.0416667 -0.0756031 -0.00416637 -1 0 0
0.410603 -0.211858 0.254675 0 0 1
0.327874 0.465287 0.039368 -0.826236 0 0.563324
0.0363898 0.425204 -0.254675 0 0 -1
-0.0987159 0.26775 -0.129875 0.5 0.866025 0
0.0416667 -0.282758 0.161282 1 -0 0
0.125177 0.149085 -0.254675 0 0 -1
0.0885285 0.343174 -0.212024 0 0 1
0.333333 0.017749 0.186478 -1 0 0
0.333333 -0.0536279 0.236207 -1 0 0
0.372773 -0.272538 -0.254675 0 0 -1
-0.329094 0.126857 -0.0578248 0 0 1
0.0318691 -0.12091 0.254675 0 -0 1
-0.186183 0.5 -0.124992 0 1 -0
0.126586 -0.5 0.158012 0 -1 0
0.351575 -0.0237284 -0.254675 0 0 -1
0.0329785 0.197209 -0.254675 0 -0 -1
0.416025 -0.459242 -0.254675 0 0 -1
-0.416667 -0.201059 -0.096827 -1 0 0
0.0475932 -0.204381 -0.254675 0 0 -1
0.0416667 -0.0661795 0.0365954 1 0 0
-0.288147 0.364944 0.00395998 0.456211 0 0.889872
-0.0203607 -0.143067 -0.254675 0 0 -1
-0.00492283 0.327315 -0.0713419 0 0 -1
0.156481 -0.184921 -0.212024 0 -0 1
-0.0662516 -0.5 0.14836 0 -1 0
0.416667 -0.0743951 -0.110499 1 0 0
-0.102411 -0.291667 -0.0433078 0 1 0
-0.0270691 0.182482 0.254675 0 0 1
0.304271 0.324171 0.014155 -0.623494 0 0.781828
-0.416667 -0.339101 0.134238 -1 0 0
-0.142205 -0.431175 0.0559858 -0.921477 0 0.388434
0.0711867 0.5 0.0703576 0 1 0
0.0406643 0.409919 0.254675 -0 0 1
-0.410734 -0.466724 0.254675 0 0 1
-0.24541 -0.5 -0.217142 -0 -1 0
0.008902 0.283753 -0.231985 -0.0995696 0.995031 0
-0.295125 -0.0693945 -0.254675 0 0 -1
0.213301 -0.5 -0.0134155 -0 -1 0
-0.00360541 0.212838 -0.144726 0.5 0.866025 0
-0.416667 0.12538 0.252263 -1 0 0
-0.0416667 0.126759 0.169625 -1 0 0
0.263763 -0.0646612 -0.100943 -0.5 -0.866025 -0
0.416667 -0.307787 -0.0881203 1 -0 0
-0.0721493 0.354209 -0.214872 0.999689 0.0249297 0
0.416667 0.289925 -0.00668792 1 0 0
-0.245565 -0.141336 -0.0578248 0 -0 1
-0.329147 0.291667 0.160195 -0 -1 0
-0.0416667 -0.272923 0.0164683 -1 0 0
0.209211 -0.372745 0.254675 0 0 1
-0.301371 -0.0863741 -0.155292 0.5 -0.866025 0
-0.133457 0.423318 0.10289 -0.998757 -0 -0.0498443
0.0684732 -0.0447753 -0.0578248 0 0 1
0.0416667 0.119538 0.1177 1 0 0
0.242598 0.475533 -0.00774963 -0.0249315 0 0.999689
0.354167 -0.377182 -0.118159 -1 0 0
0.243606 -0.180797 -0.0578248 0 -0 1
0.333333 -0.162396 0.0289329 -1 0 0
-0.106823 -0.0845605 -0.254675 0 0 -1
0.158945 0.309755 0.167568 0.766044 0 -0.642788
0.414153 0.0519618 -0.254675 0 0 -1
0.416667 0.323303 -0.16652 1 0 0
-0.416667 -0.340909 -0.0569742 -1 0 0
0.116008 -0.109735 -0.125831 0.5 -0.866025 0
0.416667 -0.0889435 0.0588474 1 -0 0
0.333333 0.131681 0.135543 -1 0 0
0.176069 -0.291667 0.211129 0 1 0
-0.416667 0.0309718 0.224034 -1 0 0
-0.283392 0.479391 0.254675 -0 0 1
-0.166271 0.377444 0.254675 0 -0 1
-0.416667 -0.181831 0.00615065 -1 0 0
0.354167 -0.128436 -0.179873 -1 0 -0
0.416667 0.0774134 -0.175056 1 0 0
0.249934 0.291667 0.230715 0 -1 0
0.313155 -0.193264 -0.254675 0 0 -1
-0.0416667 -0.0681555 0.229163 -1 0 0
0.00147004 0.468144 -0.100476 -0 0 -1
0.110557 -0.324298 -0.254675 0 0 -1
-0.237665 0.191924 -0.0578248 0 0 1
0.416667 -0.0562899 -0.196111 1 0 0
0.416667 -0.177764 0.168355 1 -0 0
-0.279995 0.158891 -0.254675 -0 0 -1
-0.416667 0.149712 -0.194495 -1 0 0
-0.316636 0.477658 -0.254675 -0 0 -1
-0.416667 0.409226 -0.229184 -1 0 0
-0.248733 -0.292783 -0.100476 0 -0 -1
-0.0966359 -0.444218 -0.254675 0 0 -1
0.10213 0.0408802 -0.254675 0 0 -1
-0.150515 -0.493147 -0.212024 0 0 1
0.103675 -0.451963 -0.183522 1 0 0
-0.0416667 0.288674 0.0997464 -1 0 0
-0.135667 0.060111 -0.254675 0 0 -1
0.234259 0.392612 0.254675 0 0 1
0.0416667 0.0499439 0.191275 1 -0 0
-0.416667 -0.450664 -0.0568242 -1 0 0
0.416667 0.101285 -0.0547199 1 0 0
0.416667 0.234394 0.24495 1 -0 0
-0.416667 0.4145 -0.106203 -1 0 0
-0.194869 0.465827 0.254675 -0 0 1
0.416667 -0.362778 0.253532 1 -0 0
-0.221127 -0.0244698 -0.0578248 0 0 1
-0.118986 -0.142947 -0.0578248 0 -0 1
0.416667 0.380716 -0.0684795 1 0 0
-0.416667 -0.2693 0.0348655 -1 0 0
0.0416667 0.0419919 0.0164549 1 0 0
-0.0619956 -0.291667 0.155584 0 1 -0
0.0624423 0.103934 -0.0578248 0 0 1
-0.0780927 0.260296 -0.254675 0 -0 -1
0.34277 -0.292482 0.254675 0 0 1
-0.0440968 0.5 0.236242 0 1 0
0.122323 -0.371114 -0.100476 0 0 -1
0.301417 -0.490075 0.0120613 -0.583741 0 0.81194
-0.125246 0.444201 -0.151018 1 0 0
0.103818 0.270696 -0.135783 -0.5 0.866025 0
0.41629 0.0112748 0.254675 0 0 1
0.336189 0.126727 0.254675 0 0 1
-0.0416667 0.16824 0.0390926 -1 0 0
0.416667 -0.180931 0.0543155 1 -0 0
-0.416667 -0.238914 0.124522 -1 0 0
0.0924478 0.291667 0.234764 0 -1 0
0.191152 -0.0663506 -0.162045 0.5 -0.866025 0
-0.063576 -0.35004 -0.254675 0 -0 -1
-0.0416667 -0.0990914 0.137227 -1 0 0
-0.305759 0.35394 0.254675 0 -0 1
0.158739 0.5 0.215667 0 1 -0
-0.21122 0.291667 0.224361 0 -1 0
-0.103675 -0.2876 -0.171546 -1 0 -0
-0.306754 -0.419591 0.254675 -0 0 1
0.416667 0.100898 0.0538328 1 -0 0
0.0649881 -0.291613 -0.0578248 0 -0 1
-0.183123 0.5 -0.0229272 -0 1 0
-0.333333 0.15251 0.130187 1 0 -0
0.416667 -0.00830778 -0.0110849 1 0 0
-0.158001 0.328189 -0.254675 -0 0 -1
0.021506 -0.5 -0.117167 0 -1 0
-0.406961 -0.364205 -0.254675 0 0 -1
0.416667 0.231045 0.0702542 1 0 0
0.416667 -0.178894 -0.248745 1 0 0
0.416667 0.447386 -0.0215169 1 0 0
-0.334902 -0.5 0.176442 0 -1 0
-0.416667 -0.0707736 0.221004 -1 0 0
0.416667 0.46626 0.22652 1 0 0
-0.196293 0.5 -0.233306 0 1 0
-0.24694 -0.28023 -0.254675 0 0 -1
-0.156493 -0.346567 0.164644 -0.797133 0 -0.603804
0.333333 -0.136679 0.196031 -1 0 0
-0.354167 -0.275588 -0.120135 1 0 0
-0.0195627 0.0819237 0.254675 0 0 1
0.328784 -0.388331 0.0407027 -0.826236 0 0.563324
-0.416667 -0.067863 -0.105813 -1 0 0
-0.125246 0.364508 -0.101318 1 -0 0
-0.103675 -0.1288 -0.158862 -1 0 -0
-0.286893 0.272251 -0.254675 -0 0 -1
0.140201 -0.474678 0.0609175 0.939692 -0 0.342022
-0.312587 0.0398504 -0.254675 0 0 -1
-0.164965 -0.438231 -0.100476 0 0 -1
-0.416667 0.112516 -0.0133537 -1 0 0
0.416667 -0.316575 0.12983 1 -0 0
0.390202 -0.5 0.0575611 0 -1 0
0.416667 -0.185639 -0.0399016 1 -0 0
0.41288 -0.5 0.219624 0 -1 0
0.416667 0.496478 0.0957516 1 0 0
0.270541 0.379986 -0.254675 0 -0 -1
0.308571 0.5 -0.0821622 -0 1 0
0.416667 0.362396 0.232949 1 -0 0
0.249406 -0.118349 -0.254675 0 0 -1
-0.256615 -0.427974 -0.100476 0 0 -1
-0.416667 0.213185 0.180438 -1 0 0
-0.300661 -0.181346 -0.239969 0.992239 -0.124346 0
0.0634063 0.5 0.199499 0 1 -0
0.416667 -0.41822 0.160319 1 -0 0
0.0479923 0.291667 0.118804 0 -1 0
0.1501 0.439818 0.0411565 0.853291 0 0.521434
0.416667 0.0988905 0.218612 1 -0 0
0.0416667 0.265821 0.0292969 1 0 0
-0.121583 -0.5 0.230763 0 -1 0
0.333333 -0.0739481 0.137144 -1 0 0
0.171259 -0.032941 -0.254675 0 0 -1
0.33059 0.421348 0.254675 0 0 1
-0.0491919 -0.232709 -0.254675 0 0 -1
-0.251667 -0.353384 0.203959 0.124342 0 -0.992239
0.416667 -0.494688 -0.148272 1 -0 0
0.183911 -0.0195312 -0.0578248 0 -0 1
-0.334442 -0.5 -0.0733307 -0 -1 0
0.306888 0.260521 -0.0578248 0 0 1
-0.416667 0.0295037 0.031706 -1 0 0
0.256335 0.00752391 -0.254675 -0 0 -1
0.207339 -0.472827 0.199644 0.318487 0 -0.947927
-0.416667 -0.424389 0.156469 -1 0 0
-0.167889 -0.346561 -0.100476 0 0 -1
0.0811224 -0.5 -0.0433115 -0 -1 0
-0.130932 0.291667 0.0656037 0 -1 -0
-0.0416667 0.0426032 0.157554 -1 0 0
0.16975 -0.291667 0.01773 0 1 0
0.333333 -0.124222 -0.0563822 -1 0 0
0.155228 -0.193826 -0.100476 -0 -0 -1
0.416667 0.026421 0.15203 1 -0 0
0.0718973 -0.33572 0.254675 -0 0 1
-0.0416667 -0.19805 0.0725105 -1 0 0
-0.333333 -0.139109 0.164605 1 0 0
0.0260936 -0.0255888 0.254675 0 -0 1
-0.416667 0.373815 0.0346542 -1 0 0
-0.338576 -0.274729 -0.254675 0 0 -1
0.281942 -0.0751571 -0.177762 -0.5 -0.866025 -0
-0.405116 0.408266 0.254675 0 0 1
-0.416667 0.212064 -0.0996503 -1 0 0
-0.157057 0.415821 -0.254675 -0 0 -1
-0.330711 -0.369924 0.0438483 0.853291 0 0.521434
0.0676831 -0.163752 -0.0578248 0 0 1
-0.333333 0.220895 0.247187 1 0 -0
-0.354167 -0.147404 -0.132563 1 0 0
0.0447143 -0.5 0.101823 0 -1 0
-0.333333 -0.241576 0.0127622 1 0 0
-0.201184 -0.0142322 -0.254675 -0 0 -1
-0.333333 -0.0463343 0.129283 1 0 -0
-0.397776 0.5 -0.075362 0 1 0
-0.182897 -0.5 -0.0157343 0 -1 -0
-0.266785 0.395529 -0.254675 -0 0 -1
0.332656 -0.5 -0.213927 -0 -1 -0
-0.0792246 0.5 -0.0729439 0 1 -0
-0.41566 0.29077 0.254675 0 0 1
-0.416667 -0.0755885 -0.00911964 -1 0 0
-0.395032 -0.1532 -0.254675 0 0 -1
-0.00783419 -0.5 -0.02253 -0 -1 -0
0.132703 0.291667 0.0717958 -0 -1 0
-0.197386 -0.294944 0.254675 -0 0 1
-0.0686079 0.5 0.104612 0 1 -0
0.354167 -0.232769 -0.158968 -1 0 -0
0.0416667 -0.224795 0.00122894 1 -0 0
0.111248 0.24803 -0.254675 0 -0 -1
0.0416667 -0.0485939 0.154171 1 -0 0
-0.0214322 0.0600804 -0.254675 0 -0 -1
-0.133022 0.0807991 -0.0578248 0 -0 1
-0.169946 -0.401331 0.254675 0 0 1
