ply
format ascii 1.0
comment Created by Open3D
element vertex 400
property double x
property double y
property double z
property double nx
property double ny
property double nz
end_header
-0.2209 -0.353164 0.243393 -0.521435 -0.853291 -0
-0.354813 -0.218388 -0.0125006 -0.840026 -0.542547 0
-0.364197 -0.154138 -0.5 0 0 -1
-0.0138498 0.416364 0.29445 -0.049847 0.998757 0
0.5 0.000155333 -0.436453 1 0 0
-0.0812431 0.0651428 -0.158115 0.781831 -0.62349 0
-0.398342 0.12215 0.176351 -0.962624 0.27084 0
-0.411522 -0.0648836 0.425605 -0.984808 -0.173648 -0
-0.0105289 0.320645 -0.5 -0 0 -1
-0.113757 0.0517176 0.00882558 0.911506 -0.411288 0
-0.337933 -0.0671188 0.5 -0 0 1
0.11451 -0.311906 0.5 0 -0 1
-0.39532 0.488005 -0.469051 -0.359898 0.932992 0
-0.406437 0.0911848 -0.102683 -0.974928 0.222522 0
0.23036 -0.347079 -0.00695176 0.563321 -0.826238 0
-0.111228 0.0569521 0.325627 0.889872 -0.456211 0
-0.375719 0.230768 -0.416667 0 -0 1
-0.14848 -0.389227 -0.312579 -0.342019 -0.939693 0
0.410136 0.072746 -0.119663 0.984808 0.173648 0
0.313151 0.274666 -0.378434 0.749782 0.661685 0
-0.426946 -0.27951 -0.416667 0 0 1
-0.25012 0.333086 0.373107 -0.603804 0.797133 0
0.419468 0.476002 -0.484926 0.534999 0.844853 0
-0.148523 0.389212 0.157788 -0.342019 0.939693 0
-0.0591871 0.110057 0.40728 0.478254 -0.878222 0
0.414356 -0.0434022 -0.0742298 0.992239 -0.124344 0
0.26072 0.208976 0.5 0 0 1
0.0524372 -0.113444 0.405744 -0.433884 0.900969 0
0.28295 -0.186194 0.5 0 -0 1
0.122916 -0.397989 0.169634 0.294756 -0.955573 0
-0.15944 -0.296355 0.5 -0 0 1
-0.00209643 0.4162 0.5 0 0 1
0.26861 -0.31836 -0.340328 0.642788 -0.766044 0
0.110155 0.0590459 0.388314 -0.889872 -0.456211 -0
-0.151898 -0.298623 -0.5 0 0 -1
-0.229742 -0.347501 -0.0734067 -0.563321 -0.826238 -0
0.212476 0.358313 0.163389 0.521435 0.853291 0
0.153006 -0.387535 -0.0791047 0.388434 -0.921476 0
-0.055282 -0.41291 0.191452 -0.149041 -0.988831 -0
-0.0524636 0.219104 -0.5 -0 0 -1
0.284098 0.304619 -0.0971782 0.680173 0.733052 0
0.384936 0.159331 0.160179 0.930873 0.365342 0
0.169799 0.0972506 -0.5 0 0 -1
-0.334576 0.211483 -0.5 0 0 -1
0.339241 -0.241707 -0.416162 0.811938 -0.583744 0
-0.5 -0.248509 -0.467336 -1 0 0
-0.0332186 0.0987268 -0.30971 0.342019 -0.939693 0
0.24151 0.499063 -0.416667 -0 0 1
-0.177803 -0.376696 -0.159179 -0.433884 -0.900969 0
-0.205775 0.477283 -0.416667 -0 0 1
-0.259124 0.5 -0.487486 0 1 0
0.156169 -0.41975 -0.416667 0 0 1
-0.00252346 -0.124961 0.0372427 0 1 0
-0.402725 0.106572 -0.28415 -0.962624 0.27084 0
0.198493 0.133094 0.5 0 0 1
-0.119882 0.189353 0.5 0 0 1
-0.413279 -0.0519989 0.0620462 -0.992239 -0.124344 -0
0.376594 -0.178146 -0.237553 0.911507 -0.411286 0
-0.164091 0.391138 -0.5 -0 0 -1
0.051031 0.104861 -0.5 0 0 -1
-0.250309 0.332942 0.498093 -0.603804 0.797133 0
0.497011 -0.364621 -0.425144 0.985278 -0.170961 0
0.364694 -0.201405 0.33319 0.866026 -0.5 0
-0.260544 -0.349773 -0.416667 0 0 1
0.436042 -0.0970287 -0.5 0 0 -1
0.355774 -0.464055 -0.5 -0 0 -1
-0.103449 0.0701533 0.12856 0.840026 -0.542546 0
0.416366 0.126068 -0.5 0 0 -1
0.329265 0.0740089 -0.5 0 0 -1
-0.269278 0.409299 -0.5 0 0 -1
0.5 -0.102693 -0.426547 1 0 0
0.334602 -0.248158 -0.146679 0.811938 -0.583744 0
-0.182606 0.374383 -0.246396 -0.433884 0.900969 0
-0.180781 -0.375262 0.458284 -0.433884 -0.900969 -0
0.0781288 -0.0986414 0.5 -0 0 1
0.312388 -0.292053 -0.5 0 -0 -1
-0.20325 0.363612 -0.0290731 -0.478254 0.878222 0
0.416369 -0.0119354 -0.404825 0.999689 -0.02493 0
0.365467 0.200587 -0.416667 -0 0 1
0.320874 -0.265711 -0.285046 0.781831 -0.62349 0
0.118149 -0.00853621 -0.5 0 0 -1
0.249705 0.3334 -0.0156389 0.603804 0.797133 0
-0.349309 0.107646 0.5 0 0 1
0.0752636 0.071975 -0.292414 -0.715867 -0.698237 0
0.184484 -0.103097 -0.5 0 0 -1
0.116009 0.391851 0.5 0 0 1
-0.228948 0.307523 -0.5 0 0 -1
-0.34873 -0.227806 -0.30597 -0.840026 -0.542547 0
-0.292095 -0.297086 -0.021742 -0.715867 -0.698237 -0
0.115929 -0.0466562 -0.00297285 -0.930874 0.365341 0
-0.268593 0.137644 -0.5 0 0 -1
-0.14307 0.488542 -0.5 -0 0 -1
-0.377796 0.402913 -0.5 0 0 -1
-0.145515 -0.467455 -0.5 0 0 -1
-0.0500655 -0.497002 -0.5 0 0 -1
-0.190832 -0.471816 -0.416667 0 0 1
-0.402519 -0.377096 -0.5 0 0 -1
0.360692 0.307458 -0.5 0 -0 -1
0.415311 0.0319476 0.246122 0.997204 0.0747297 0
0.366549 -0.198057 0.137116 0.889871 -0.456211 0
-0.303026 -0.285878 0.252999 -0.715867 -0.698237 0
-0.00988235 0.197115 0.5 0 0 1
-0.271507 0.315929 -0.182315 -0.642788 0.766044 0
-0.276034 -0.222796 -0.5 0 0 -1
0.189913 -0.370864 0.280889 0.433884 -0.900969 0
0.416637 -0.00118518 -0.29902 0.999689 -0.02493 2.77549e-18
0.052991 -0.413255 0.437653 0.149041 -0.988831 0
0.372038 0.187349 -0.287891 0.889871 0.456211 0
0.120804 -0.0320213 0.270059 -0.962624 0.270841 0
-0.057501 -0.0868306 -0.235807 0.563321 0.826238 0
-0.245582 0.0402901 -0.5 0 0 -1
-0.123813 0.300909 -0.5 -0 0 -1
0.037251 -0.41489 0.222469 0.0995678 -0.995031 0
0.416477 0.0076029 -0.00219529 0.999689 0.02493 -2.75758e-18
-0.101842 -0.0217766 -0.170073 0.974928 0.222522 0
-0.475937 0.229741 -0.416667 0 0 1
-0.0717828 -0.213011 0.5 -0 0 1
0.3091 -0.279256 0.368576 0.749782 -0.661685 0
0.103997 -0.211436 -0.5 0 0 -1
0.303066 0.285837 0.0515913 0.715867 0.698237 0
0.314802 -0.272795 0.0118121 0.749782 -0.661685 0
0.0808742 -0.0952637 0.313625 -0.642788 0.766044 0
-0.371997 -0.187429 0.109248 -0.889871 -0.456211 0
0.5 -0.288571 -0.497783 1 0 0
-0.41046 0.0709094 -0.393837 -0.984808 0.173648 0
0.360674 0.393088 -0.5 0 0 -1
0.409087 -0.311309 -0.416667 0 -0 1
0.0901666 -0.0865235 0.195795 -0.715867 0.698237 0
0.330215 0.376071 -0.416667 0 0 1
-0.133866 -0.394546 0.144515 -0.342019 -0.939693 -0
-0.248295 0.334468 0.162496 -0.603804 0.797133 0
0.118421 -0.399375 -0.213355 0.294756 -0.955573 0
-0.33997 -0.240692 0.344879 -0.811938 -0.583744 -0
-0.13276 0.290619 0.5 0 0 1
-0.118726 -0.0389896 0.186494 0.947928 0.318486 0
-0.00615686 -0.124809 -0.0580801 0.0498461 0.998757 0
0.351514 0.223494 0.468514 0.840026 0.542547 0
0.060929 0.0844842 -0.393408 -0.603804 -0.797133 -0
-0.364319 0.202055 0.182358 -0.866026 0.5 0
-0.0796103 0.110722 -0.5 0 0 -1
0.413684 0.0487624 0.087373 0.992239 0.124344 0
0.236527 0.0269962 -0.5 0 0 -1
-0.335338 0.247134 -0.226609 -0.811938 0.583744 0
0.268524 -0.318432 -0.104103 0.642788 -0.766044 0
-0.0466171 -0.413953 -0.297374 -0.0995678 -0.995031 0
0.013573 -0.191093 0.5 0 -0 1
-0.5 0.330728 -0.424955 -1 0 0
0.0171507 -0.123788 0.248399 -0.149043 0.988831 0
0.403945 0.102101 -0.328298 0.974928 0.222522 0
0.204201 0.363094 0.471235 0.478254 0.878222 0
-0.0953361 0.0419047 -0.372506 0.911507 -0.411286 0
-0.124934 -0.00266426 -0.0690251 0.999689 0.0249302 0
0.386436 -0.15551 0.227249 0.930873 -0.365342 0
0.116549 -0.0450777 0.393714 -0.930874 0.365341 0
0.0587293 -0.441057 -0.5 0 0 -1
0.19519 -0.5 -0.462976 0 -1 0
-0.0660752 -0.411283 -0.170944 -0.149041 -0.988831 0
-0.171418 0.0709109 0.5 0 0 1
-0.334105 -0.24885 -0.184078 -0.811938 -0.583744 -0
0.215176 -0.241102 -0.5 -0 0 -1
0.328331 -0.0284826 -0.5 0 0 -1
-0.346926 -0.405507 -0.416667 -0 0 1
-0.089557 -0.406859 0.463807 -0.198147 -0.980172 -0
-0.404513 -0.0996145 -0.339685 -0.974928 -0.222522 0
-0.221702 0.352675 0.262481 -0.521435 0.853291 0
-0.345638 -0.475073 -0.5 0 0 -1
-0.327641 -0.257225 0.161945 -0.781831 -0.62349 0
-0.300666 0.288298 -0.0408655 -0.715867 0.698237 0
0.240192 0.340376 0.372752 0.563321 0.826238 0
-0.369637 -0.192033 -0.383429 -0.889871 -0.456211 0
-0.499901 -0.337359 -0.426587 -0.999699 -0.0245438 -0
0.34039 0.240108 0.307114 0.811938 0.583744 0
-0.159589 -0.38476 0.053968 -0.388434 -0.921476 -0
0.414552 -0.0418393 0.158353 0.992239 -0.124344 0
0.478685 0.40167 -0.5 0 -0 -1
-0.378208 0.174571 -0.34409 -0.911507 0.411286 0
-0.404921 0.0978253 0.408522 -0.974928 0.222522 0
0.274516 0.313404 0.222588 0.642788 0.766044 0
0.397301 0.125358 -0.000992584 0.947927 0.318487 0
0.112175 0.420639 -0.5 -0 0 -1
-0.127537 -0.0113267 -0.5 0 0 -1
0.108337 -0.5 -0.440769 0 -1 0
-0.124386 -0.0123523 0.426035 0.997204 0.0747309 0
-0.0996615 -0.0302676 -0.298263 0.962624 0.27084 0
-0.217143 0.35546 -0.394523 -0.521435 0.853291 0
0.490835 -0.168205 -0.5 0 0 -1
-0.134075 -0.39447 -0.0773561 -0.342019 -0.939693 -0
-0.311026 0.277074 0.228764 -0.749782 0.661685 0
-0.416152 0.0206542 0.14865 -0.999689 0.02493 0
0.251949 0.339097 -0.5 -0 0 -1
0.224066 -0.10806 0.5 0 -0 1
-0.109669 0.401904 0.01187 -0.246758 0.969077 0
-0.38165 -0.166941 -0.18393 -0.911507 -0.411286 0
-0.416172 0.0198509 0.478359 -0.999689 0.02493 0
0.0804681 -0.0956045 0.0877501 -0.642788 0.766044 0
0.1918 -0.341264 -0.5 0 0 -1
-0.0522332 -0.113542 0.391122 0.433884 0.900969 0
0.0833035 0.0931726 0.176056 -0.680173 -0.733052 -0
0.0829554 -0.408193 0.334105 0.198147 -0.980172 0
0.342944 0.236556 -0.168433 0.811938 0.583744 0
0.333246 -0.00433794 0.5 0 -0 1
0.473056 0.172079 -0.416667 0 0 1
-0.407237 -0.0876799 -0.215482 -0.974928 -0.222522 0
0.259316 -0.284401 0.5 0 -0 1
0.142404 -0.391439 0.014873 0.342019 -0.939693 0
0.0945838 0.405745 0.114693 0.246758 0.969077 0
-0.0878567 -0.0888917 0.24921 0.715867 0.698237 0
0.144427 -0.188413 0.5 0 -0 1
-0.416655 0.000477625 -0.276459 -0.999689 0.02493 0
-0.0174119 0.5 -0.495065 0 1 -0
-0.284071 -0.0380754 -0.5 0 0 -1
-0.370518 -0.00389624 -0.5 0 0 -1
-0.0713064 -0.0758931 -0.490354 0.680173 0.733052 0
-0.370592 0.112425 -0.5 0 0 -1
-0.452984 -0.179258 -0.416667 0 0 1
0.0251979 -0.101041 -0.300471 -0.246758 0.969077 0
-0.257849 -0.19671 0.5 0 0 1
0.325726 -0.126251 -0.5 0 0 -1
-0.466026 0.07208 -0.5 0 0 -1
0.112093 0.0552662 0.0212192 -0.889872 -0.456211 0
-0.0690468 -0.0779898 -0.369026 0.680173 0.733052 0
0.0749372 0.100001 0.482993 -0.603805 -0.797132 -0
0.076476 -0.0707193 -0.202426 -0.749782 0.661685 0
0.136741 0.292329 0.5 0 0 1
-0.207919 0.36107 0.0862835 -0.478254 0.878222 0
0.0216449 -0.415975 0.0177567 0.049847 -0.998757 0
0.403617 -0.103402 -0.320744 0.962624 -0.27084 0
0.0905754 -0.120043 -0.5 0 -0 -1
0.108976 -0.00926687 -0.0833333 -0 0 1
-0.157772 0.385526 0.491783 -0.388434 0.921476 0
-0.350405 0.225212 0.472421 -0.840026 0.542547 0
0.362321 0.205515 -0.0762155 0.866026 0.5 0
0.223864 -0.351354 -0.205081 0.521435 -0.853291 0
0.455413 -0.436694 -0.5 0 0 -1
0.3943 0.281929 -0.416667 0 -0 1
0.239651 0.340745 -0.361507 0.563321 0.826238 0
0.0596795 0.109789 0.318827 -0.478254 -0.878222 -0
-0.164986 0.0823968 -0.5 -0 0 -1
-0.088707 -0.0880199 -0.00859222 0.715867 0.698237 0
0.092142 0.0485296 -0.163958 -0.889871 -0.456211 -0
0.108883 0.190184 -0.5 0 0 -1
-0.401088 0.112392 -0.1938 -0.962624 0.27084 0
-0.41636 0.0122818 0.268997 -0.999689 0.02493 0
-0.0724078 -0.303883 0.5 -0 0 1
-0.0211877 0.101958 -0.434915 0.198147 -0.980172 0
0.337167 0.244591 0.181691 0.811938 0.583744 0
0.164162 -0.382833 -0.290546 0.388434 -0.921476 0
-0.0350619 -0.0980559 -0.133165 0.342019 0.939693 0
-0.5 -0.0664254 -0.496846 -1 0 0
-0.0365506 -0.41496 0.364882 -0.0995678 -0.995031 -0
-0.00359109 -0.139697 -0.5 0 0 -1
-0.403985 -0.101927 0.172345 -0.974928 -0.222522 -0
-0.260252 -0.321747 0.5 -0 0 1
0.00995086 -0.5 -0.43652 0 -1 0
-0.0544019 0.112498 -0.0592704 0.433884 -0.900969 0
-0.340011 -0.240635 0.492681 -0.811938 -0.583744 -0
-0.370645 0.190066 0.0854957 -0.889871 0.456211 0
0.0678454 0.411016 -0.28936 0.149041 0.988831 0
0.282015 0.306551 -0.215126 0.680173 0.733052 0
0.18334 0.48624 -0.5 -0 0 -1
-0.0589066 -0.113109 0.5 0 0 1
0.27895 0.455827 -0.5 -0 0 -1
0.114945 0.400447 0.235424 0.294756 0.955573 0
0.313912 0.273803 0.395304 0.749782 0.661685 0
-0.0469012 0.475331 -0.416667 -0 0 1
-0.0418074 0.117764 0.313879 0.34202 -0.939693 0
0.101722 0.329682 -0.5 -0 0 -1
0.335382 0.168685 -0.5 0 0 -1
-0.405526 0.0951776 0.0884881 -0.974928 0.222522 0
-0.436837 -0.403896 -0.416667 -0 0 1
0.478549 -0.250587 -0.416667 0 0 1
0.273326 -0.314403 0.13842 0.642788 -0.766044 0
-0.0142039 0.124164 0.138347 0.0995667 -0.995031 0
-0.309015 0.279352 0.125621 -0.749782 0.661685 0
-0.191442 0.370042 -0.128644 -0.478254 0.878222 0
0.104119 0.00189685 -0.366644 -0.999689 -0.02493 -1.51667e-18
0.0553689 -0.412897 -0.309823 0.149041 -0.988831 0
-0.408425 -0.0824505 0.260094 -0.984808 -0.173648 -0
0.061917 0.41191 0.4195 0.149041 0.988831 0
0.133635 0.39463 0.339746 0.342019 0.939693 0
0.288565 0.0796127 0.5 0 0 1
-0.266077 -0.320485 0.160008 -0.642788 -0.766044 -0
-0.196519 -0.367278 0.355578 -0.478254 -0.878222 -0
0.367415 -0.196368 0.0447074 0.889871 -0.456211 0
-0.00826149 -0.416537 -0.0863815 0 -1 0
-0.236053 -0.0178716 0.5 -0 0 1
-0.275296 -0.31275 -0.210181 -0.642788 -0.766044 0
0.477748 0.348719 -0.416667 0 0 1
0.0747918 -0.0724587 -0.411219 -0.715867 0.698237 0
0.388536 0.150159 0.279425 0.930873 0.365342 0
0.0087724 0.416537 -0.359598 0 1 0
-0.061603 0.40081 -0.5 -0 0 -1
-0.393207 -0.137542 0.0333329 -0.947927 -0.318487 -0
0.179059 0.376091 0.0479639 0.433884 0.900969 0
-0.107855 0.402365 -0.110597 -0.246758 0.969077 0
0.191336 0.265948 -0.5 -0 0 -1
0.405537 -0.0951259 0.368803 0.974928 -0.222522 0
0.422944 0.00622866 -0.5 0 0 -1
0.12494 -0.00240354 0.149085 -0.999689 0.0249302 1.30846e-18
-0.269016 0.0700541 0.5 0 0 1
0.149705 -0.388781 0.466189 0.342019 -0.939693 0
-0.159277 -0.155713 0.5 -0 0 1
-0.156439 -0.199354 -0.5 0 0 -1
-0.0539186 -0.112731 0.149559 0.433884 0.900969 0
-0.406159 0.0924004 -0.00907467 -0.974928 0.222522 0
-0.341992 0.362887 -0.416667 0 0 1
0.329388 -0.255034 0.217317 0.781831 -0.62349 0
-0.0754471 -0.5 -0.416795 0 -1 0
0.387784 0.152076 0.376863 0.930873 0.365342 0
0.106117 0.462934 -0.416667 -0 0 1
0.473501 0.0853146 -0.416667 0 0 1
-0.363741 -0.203057 0.241834 -0.866026 -0.5 0
0.383068 -0.492376 -0.423322 0.313681 -0.949528 0
0.323596 0.262297 -0.283657 0.781831 0.62349 0
-0.279692 -0.308707 0.382206 -0.680173 -0.733052 -0
0.0141583 0.416349 0.0173326 0.049847 0.998757 0
-0.378724 0.173427 -0.0651311 -0.911507 0.411286 0
-0.0568598 0.412672 0.385486 -0.149041 0.988831 0
-0.328961 0.459816 -0.416667 0 0 1
-0.0973244 0.0370545 -0.244903 0.930873 -0.365342 0
-0.279834 0.308575 -0.274694 -0.680173 0.733052 0
0.412725 0.0564149 0.352479 0.992239 0.124344 0
-0.260196 0.207586 0.5 0 0 1
-0.44314 -0.458654 -0.489932 -0.653174 -0.757208 0
-0.19519 0.18846 -0.5 -0 0 -1
0.416309 -0.0143462 0.419721 0.999689 -0.02493 2.77549e-18
0.0519897 -0.413406 -0.402241 0.149041 -0.988831 0
-0.393792 0.135803 0.307557 -0.947927 0.318487 0
0.21098 0.359227 -0.237277 0.521435 0.853291 0
0.386431 0.155522 -0.199689 0.930873 0.365342 0
0.396209 -0.128607 -0.0636072 0.947927 -0.318487 0
-0.416427 0.00961102 0.358645 -0.999689 0.02493 0
-0.0104471 0.306316 0.5 0 0 1
-0.238505 -0.125537 -0.5 0 -0 -1
-0.0856281 -0.407653 -0.389998 -0.198147 -0.980172 0
0.160043 0.384569 -0.154337 0.388434 0.921476 0
0.196813 -0.367118 0.0913084 0.478254 -0.878222 0
0.360877 0.469521 -0.416667 0 0 1
0.219469 -0.354039 0.377697 0.521435 -0.853291 0
-0.399415 -0.118339 -0.106122 -0.962624 -0.27084 -0
0.398077 0.0860372 0.5 0 0 1
-0.16684 0.381704 0.340765 -0.388434 0.921476 0
0.177422 0.37688 -0.0390011 0.433884 0.900969 0
-0.233273 -0.345094 0.0610396 -0.563321 -0.826238 -0
0.0358596 -0.415029 0.117571 0.0995678 -0.995031 0
0.188208 0.387187 -0.416667 0 0 1
-0.0325239 -0.228229 -0.5 0 0 -1
0.0150213 0.416306 0.20633 0.049847 0.998757 0
0.0269738 -0.352553 -0.5 0 0 -1
-0.123475 0.433319 -0.416667 0 0 1
-0.387533 -0.152716 0.325709 -0.930873 -0.365342 -0
-0.416296 0.0148456 -0.162398 -0.999689 0.02493 0
0.0446609 0.116726 0.0584777 -0.34202 -0.939693 0
-0.327324 0.257623 -0.327516 -0.781831 0.62349 0
-0.453902 -0.0554573 -0.416667 0 0 1
-0.119494 -0.036675 0.0687911 0.962624 0.270841 0
0.00924517 0.103729 -0.146585 -0.0995678 -0.995031 -0
0.5 0.0635087 -0.499889 1 0 0
-0.20605 -0.382561 -0.5 0 0 -1
-0.0847137 0.0918642 0.232395 0.680173 -0.733052 0
-0.471244 0.413082 -0.5 0 0 -1
-0.325842 -0.324379 -0.5 0 0 -1
0.0666319 -0.411199 -0.124519 0.149041 -0.988831 0
0.0424049 0.414374 -0.19622 0.0995678 0.995031 0
0.409431 -0.0767459 0.271604 0.984808 -0.173648 0
0.0833548 0.408113 -0.0548693 0.198147 0.980172 0
-0.386495 -0.15536 0.475614 -0.930873 -0.365342 -0
-0.366047 0.199036 0.358213 -0.889871 0.456211 0
-0.0938979 -0.385346 -0.5 0 0 -1
0.416147 -0.0207893 -0.177769 0.997204 -0.0747297 0
0.358094 0.212837 0.0837341 0.866026 0.5 0
-0.119465 -0.399053 0.301408 -0.294756 -0.955573 -0
0.397491 -0.148488 -0.416667 0 0 1
-0.440033 0.297613 -0.5 0 -0 -1
-0.105938 0.402853 0.255799 -0.246758 0.969077 0
0.0788399 0.5 -0.493584 0 1 -0
0.286661 -0.5 -0.420989 0 -1 0
0.015728 -0.334544 0.5 0 -0 1
-0.459839 0.435112 -0.416667 0 0 1
0.339898 -0.40253 -0.416667 0 -0 1
-0.30713 0.281488 0.329046 -0.749782 0.661685 0
0.156083 0.386238 -0.3108 0.388434 0.921476 0
-0.5 0.0283464 -0.420729 -1 0 0
-0.41643 0.00947608 -0.0206541 -0.999689 0.02493 0
0.496434 0.286933 -0.5 0 0 -1
-0.0572976 0.412606 -0.259728 -0.149041 0.988831 0
-0.31808 0.336122 -0.5 0 0 -1
-0.247267 -0.335247 -0.300641 -0.603804 -0.797133 0
-0.0479637 0.413818 0.128338 -0.0995678 0.995031 0
-0.015757 0.416269 -0.122101 -0.049847 0.998757 0
0.0302105 0.121256 -0.0309199 -0.246756 -0.969078 0
-0.0773982 0.114148 0.5 0 0 1
0.395772 -0.12991 0.475805 0.947927 -0.318487 0
-0.296746 -0.497979 -0.416667 0 0 1
0.244932 -0.012322 0.5 0 -0 1
0.213501 0.357686 0.263959 0.521435 0.853291 0
0.248099 0.14151 -0.5 0 0 -1
-0.463599 0.181431 -0.5 0 0 -1
0.124924 0.00304621 0.479587 -0.999689 -0.0249302 -0
0.408471 -0.0821898 0.0520355 0.984808 -0.173648 0
