ply
format ascii 1.0
comment Created by Open3D
element vertex 400
property double x
property double y
property double z
property double nx
property double ny
property double nz
end_header
0.0874093 0.24776 0.155566 0.016324 -0.00257095 0.999863
-0.260006 0.0213873 0.251397 -0.990214 0.0335177 -0.135474
-0.258333 -0.00694594 0.403598 -0.999114 -0.0368215 0.0203667
-0.158613 -0.107241 -0.478258 0.721514 -0.692349 -0.00839564
-0.169931 0.253576 -0.015513 0.00405221 -0.0158964 0.999865
0.0889842 -0.207333 -0.220637 -0.0232824 0.999603 0.0158448
-0.172258 -0.260811 0.270372 -0.024807 -0.999561 0.0161756
-0.21069 0.0122334 -0.0161967 -0.0676155 0.00219413 0.997709
-0.128318 -0.0411374 -0.500257 -0.0319327 0.0346337 -0.99889
-0.25398 0.235055 -0.0153579 -0.0164865 0.0103181 0.999811
0.247076 -0.258499 -0.477988 0.496648 -0.867951 -0.00129725
-0.0650837 -0.108415 0.157646 0.0028406 -0.0369845 0.999312
0.115535 -0.207269 -0.298173 0.00890575 0.999596 -0.0270036
-0.1006 0.159336 -0.50144 -0.0333778 0.00337751 -0.999437
-0.11946 0.206638 -0.269378 -0.056154 -0.997121 0.0509626
0.247924 -0.236964 -0.00771288 0.965382 -0.260731 -0.0074913
0.0190376 0.233843 0.158095 0.00780329 -0.0106677 0.999913
-0.260343 -0.235113 -0.295669 -0.994375 -0.105891 0.00243561
-0.146929 -0.0711024 0.0713881 -0.0128859 0.0150708 -0.999803
0.1311 0.206962 -0.342959 0.014932 -0.999851 -0.008661
-0.0891819 0.0558306 0.467409 0.912644 0.0769247 0.401453
0.206427 0.156068 -0.327036 -0.999289 -0.0352244 0.0134679
-0.168193 -0.210713 -0.0772978 0.0408574 0.99899 -0.0187174
-0.0663672 -0.207309 -0.0880166 -0.0187953 0.999559 0.0230096
-0.16822 0.0870909 -0.501825 0.0200388 -0.0112392 -0.999736
-0.257783 0.186487 -0.248885 -0.999732 0.00278518 -0.0229734
-0.260274 0.0107561 -0.363596 -0.999876 -0.00898858 0.0129681
0.177186 -0.258475 -0.473339 -0.00431977 -0.99956 0.0293526
-0.0633767 0.259323 -0.41543 0.0165188 0.997836 -0.0636435
-0.260577 0.0430466 -0.14075 -0.999938 -0.00707271 0.00859549
-0.166536 0.206633 0.0692466 -0.0157865 0.0552355 -0.998349
-0.0521694 -0.217061 0.0711888 0.0859056 -0.0112818 -0.996239
0.258803 0.201966 -0.44944 0.999832 0.000534717 -0.0183391
-0.26075 0.209922 -0.365058 -0.999719 0.00724311 -0.0225817
-0.25993 0.109222 -0.39521 -0.997873 -0.0510705 0.0405026
0.150978 0.258885 -0.129087 0.0475277 0.997938 -0.0431347
0.0445133 0.207616 -0.265394 -0.000432739 -0.99999 0.0045508
-0.106695 -0.206542 -0.281976 0.0214909 0.999608 -0.0179177
0.181815 0.259901 -0.317656 -0.0133845 0.998669 0.049811
-0.159293 -0.260049 0.176643 -0.00687247 -0.999958 0.0060213
0.135524 0.206886 -0.179193 -0.0075726 -0.999971 0.000115539
0.187387 -0.207418 -0.305773 0.0116533 0.998532 -0.0528904
-0.0588921 0.189817 -0.447122 0.013879 -0.0557416 0.998349
-0.204547 0.0867247 0.234441 0.618913 -0.6851 -0.384166
0.0950389 0.259091 -0.375372 0.0508149 0.99817 -0.0327809
-0.249342 0.255197 -0.218534 -0.567632 0.823172 -0.0134691
-0.261005 -0.00820802 0.16681 -0.997167 0.0141024 -0.0738899
-0.0143087 -0.261424 -0.49955 -0.0886242 0.0215881 -0.995831
-0.216419 0.25913 0.138648 -0.0010613 0.999645 0.026605
-0.222393 0.0273155 0.498013 0.0260069 0.170088 0.985086
-0.110527 0.208205 -0.0338145 -0.00122625 -0.999999 0.000319925
0.0130367 -0.0805921 0.158805 -0.0271106 0.016776 0.999492
0.0589345 0.208119 -0.332308 -0.00147509 -0.999993 0.0035219
-0.0869037 0.0786546 0.24534 0.99934 0.0274685 -0.0237856
0.20767 0.0466578 -0.43563 -0.995585 -0.0879528 0.0327938
-0.132974 0.207107 -0.334954 -0.0071125 -0.999972 0.00239786
-0.205361 0.170045 -0.0830322 0.997142 0.0660438 -0.0367018
0.258705 0.169667 -0.381913 0.999286 -0.037112 0.00709993
-0.147291 0.105842 0.421773 0.0347078 0.861187 0.507101
-0.146723 0.255582 0.163351 0.0300401 0.889785 0.455391
-0.0868494 -0.0251608 0.273802 0.99696 -0.072759 0.0278707
-0.141719 -0.191954 -0.50213 0.0707203 -0.0103451 -0.997443
0.00938689 0.207598 -0.184755 -0.0241395 -0.998292 0.0532055
-0.143458 -0.0525088 0.308257 -0.542256 0.730909 0.414403
-0.252043 -0.0719532 0.403669 -0.928828 -0.140981 0.342641
-0.144144 0.0988797 0.223394 -0.538005 -0.726151 -0.428084
0.259849 0.0394815 -0.155121 0.999986 -0.00176481 0.00488877
-0.207489 -0.142202 -0.277649 0.997851 0.0326996 -0.0567852
0.220181 -0.0128926 -0.500195 -0.00072591 0.00957097 -0.999954
0.20581 0.258878 -0.0986213 0.0184556 0.999823 -0.00351907
-0.186574 -0.147974 0.0714589 0.00920516 -0.00900566 -0.999917
-0.0728674 0.0991073 0.0716933 -0.0382963 0.0157073 -0.999143
-0.208179 -0.102478 -0.0248405 0.998968 0.0429956 -0.0146706
-0.0143807 -0.211221 0.159649 0.0725851 -0.0458306 0.996309
-0.258655 -0.0953513 -0.305215 -0.997025 0.0469686 -0.0611123
0.147403 -0.0907573 0.0722618 -0.0391065 0.0760136 -0.99634
-0.138449 0.0475836 0.300707 -0.662655 -0.648148 -0.375222
-0.00879683 -0.0438863 0.0710176 -0.0220429 0.0254283 -0.999434
0.0815403 -0.258056 -0.488482 -0.0110194 -0.99993 0.00420055
-0.11049 -0.258622 0.300022 0.262899 -0.953848 0.145114
-0.113499 -0.149323 0.0688845 -0.0151708 0.00365997 -0.999878
0.250719 -0.252577 -0.269842 0.707119 -0.706539 -0.0280291
-0.210199 0.0624433 0.123563 0.724194 0.595786 0.34725
-0.25405 -0.0928671 -0.499158 0.0138081 -0.00737099 -0.999877
0.20675 -0.0626691 -0.183744 -0.999951 -0.00345802 0.00931798
-0.0264044 0.257091 0.0705772 -0.0199892 0.0857002 -0.99612
0.00960178 -0.259987 0.0824758 0.00497799 -0.999875 -0.0149999
0.116138 -0.227557 0.157942 0.0544404 -0.0415575 0.997652
-0.17509 0.258638 -0.432736 -0.038404 0.999257 0.00338915
-0.163357 0.139883 0.361777 0.00203113 0.863233 0.504801
0.206256 0.00575059 -0.0517539 -0.999935 -0.0111221 0.00233018
-0.0869746 -0.000775328 0.351439 0.999988 0.00231704 -0.00429168
-0.248324 -0.228163 -0.13247 0.918234 -0.387714 0.0807732
0.187586 0.04169 0.15263 -0.885464 -0.464513 -0.0134849
-0.164457 0.00676198 -0.445331 0.0426075 -0.071583 0.996524
-0.00294077 -0.20555 -0.338077 0.00510556 0.999813 -0.018632
-0.207876 -0.0423743 -0.2784 0.999856 0.00600323 -0.0158621
-0.0335616 -0.0921222 0.0706198 -0.000339276 0.0175789 -0.999845
0.0986245 0.260832 -0.224375 -0.00110375 0.99998 0.0062642
-0.212865 -0.26155 0.137217 0.0168661 -0.998943 -0.042755
-0.249557 0.255298 -0.421727 -0.574009 0.818836 -0.00460363
-0.124201 0.255565 -0.500674 0.0125852 -0.0370763 -0.999233
0.123101 -0.0677771 -0.498466 0.0106696 -0.0254876 -0.999618
0.259475 -0.00594268 0.156493 0.997548 0.0644431 -0.0273054
0.207898 0.0196626 -0.332345 -0.999995 0.00316596 -0.000595754
0.260133 0.127331 0.0787089 0.996221 0.0851486 -0.0171349
-0.159214 0.195919 0.265428 0.00469391 0.830127 0.557555
-0.0965164 -0.16121 0.362777 0.880315 -0.24866 0.403997
0.187787 0.0893393 0.0696257 -0.00688017 0.0106808 -0.999919
0.00484463 0.260616 -0.309187 0.0305762 0.999446 -0.0131235
0.00120099 -0.260452 -0.0897759 0.00119118 -0.999999 -0.00105329
0.260904 0.0436425 0.0936401 0.993567 0.0887051 -0.0704006
-0.209109 -0.133388 -0.373454 0.999996 -0.00180238 0.00225118
0.172747 0.259437 -0.403632 -0.0141534 0.999684 0.0207515
-0.174189 0.257016 -0.361526 -0.00537359 0.999802 0.0191798
0.260264 -0.0263179 -0.431473 0.999985 -0.00402818 0.00378411
-0.206637 0.0493508 -0.330759 0.994538 0.0647945 -0.0818248
0.259942 -0.164949 0.117257 0.999999 -0.000690203 0.00134223
0.075914 -0.189083 -0.501917 -0.0647813 0.128608 -0.989577
0.20704 -0.0135996 -0.137185 -0.996493 0.0195089 -0.0813654
-0.0848912 -0.0842469 0.326184 0.994915 -0.0432281 0.0909681
-0.259339 0.116517 -0.128353 -0.999605 0.0231727 -0.0159205
-0.208323 0.189166 -0.19328 0.998579 0.0461486 -0.026667
0.0538794 0.232838 -0.499243 -0.0420151 0.019798 -0.998921
0.126913 -0.208116 -0.422744 -0.000493223 0.999999 0.0013385
0.127474 0.0925819 -0.448276 -0.0241132 0.0617633 0.9978
0.258944 0.0437294 -0.272023 0.999588 0.0258672 -0.0124492
0.0149887 0.259594 -0.425733 0.0377284 0.999266 -0.00665789
0.197608 -0.259158 -0.404003 -0.0382875 -0.999137 0.0161155
0.204062 -0.207144 -0.447392 0.0255419 -0.00803162 0.999641
-0.261588 -0.101379 -0.419451 -0.999635 0.0151479 -0.0223902
0.261251 -0.0281698 -0.302038 0.995318 -0.0544121 0.0798869
0.112194 -0.125566 -0.4565 0.996987 0.06483 -0.0425883
0.207082 0.171778 -0.0870139 -0.997355 0.0454744 -0.0567011
-0.149858 0.0263587 0.499824 -0.00857122 0.194173 0.98093
-0.248116 -0.226075 -0.275674 0.925383 -0.377945 0.0287188
0.206141 0.111678 -0.161316 -0.995674 -0.0751803 0.0545976
-0.258281 0.208702 -0.138793 -0.99769 -0.057582 0.0360424
-0.125786 0.0622069 0.145809 -0.876909 0.418191 0.236953
-0.189507 -0.00634259 0.0712695 0.0340596 -0.00324162 -0.999415
-0.211025 0.115511 0.173171 0.730188 -0.596103 -0.333896
-0.134301 0.207602 -0.14745 -0.000569661 -0.999999 0.00109771
-0.00969058 -0.258847 -0.415359 0.00368629 -0.999959 -0.00832717
0.152887 -0.251957 0.0699684 0.0623984 -0.0214602 -0.997821
0.209727 -0.0824569 -0.278076 -0.99974 -0.0106381 0.0201789
-0.203971 -0.258653 -0.0773259 -0.0600202 -0.995679 0.0708521
-0.179733 0.258943 -0.261474 -0.00961876 0.999952 0.00208922
-0.260002 0.0276155 -0.484207 -0.999972 -0.00304453 0.00687571
-0.194034 0.0191737 0.174895 0.40006 0.793749 0.458163
-0.0346681 0.078829 -0.468864 0.352418 -0.935644 0.0192688
-0.19369 -0.199636 -0.448009 -0.061272 0.036927 0.997438
-0.0180771 0.207771 -0.0578143 -0.00639094 -0.99996 0.0062917
0.126839 0.207838 -0.261161 -0.0974989 -0.995198 0.00866338
-0.101372 -0.256701 0.228737 0.414284 -0.909359 -0.0378842
-0.257785 0.207882 0.162509 -0.999182 -0.0404367 0.000768804
0.258628 0.191912 0.157813 1 -0.000517033 0.000229234
-0.17906 0.257645 -0.114159 -0.0276085 0.997281 0.0683307
0.208114 -0.151189 -0.187431 -0.997356 0.0686163 -0.0239306
-0.251592 -0.185098 -0.501403 0.0451663 -0.0243764 -0.998682
0.259807 -0.160419 -0.30987 0.999486 0.0215473 -0.0237244
-0.259169 -0.179268 0.163747 -0.999047 0.0412851 -0.0141515
-0.259054 0.0694783 0.378439 -0.999999 0.00137408 -0.000724443
0.022093 0.206513 -0.392477 0.0116814 -0.999928 -0.00264798
-0.258717 -0.145123 0.0908819 -0.999748 0.00749361 -0.0211782
0.0164926 -0.160113 0.069838 -0.00363682 0.0213057 -0.999766
-0.0922889 -0.208262 -0.405715 -0.0040254 0.999974 0.00595386
-0.260052 0.110942 -0.225839 -0.999881 -0.00975775 0.0119483
0.176035 -0.158462 -0.499569 0.00427761 -0.0137721 -0.999896
0.119308 0.206438 -0.103126 0.0111022 -0.99983 -0.0147012
-0.150139 -0.259807 -0.415972 -0.0168795 -0.99977 0.0132011
-0.26054 -0.0163651 -0.186856 -0.99627 -0.0784278 0.03599
0.153376 0.192259 0.158451 0.0163096 -0.000230345 0.999867
-0.22967 0.127495 -0.50015 0.0276324 -0.0360325 -0.998969
0.203147 0.259308 0.141949 0.0311149 0.99912 -0.0281417
-0.154382 0.147115 0.150133 -0.360133 -0.807411 -0.467324
-0.212384 0.180106 -0.0170892 0.0495708 -0.0247503 0.998464
0.0445261 -0.259036 0.139296 0.0390169 -0.994981 -0.0921479
0.207286 0.0465496 -0.208059 -0.998632 -0.0355982 0.0383101
0.157299 0.00256291 -0.44854 0.00785245 -0.0106463 0.999912
-0.255825 -0.162985 0.341587 -0.959096 -0.142305 0.244713
0.212687 0.130937 0.156188 0.000340958 -0.000175862 1
0.260242 -0.226119 -0.170646 0.999377 -0.0183568 0.0301371
-0.200583 -0.260941 -0.349307 9.78628e-05 -1 -9.2567e-05
0.127588 0.178776 0.0705016 -0.00507691 0.0112489 -0.999924
-0.129122 0.0155376 0.220361 -0.847321 0.490327 0.204024
-0.082069 0.0246649 -0.495435 0.964682 -0.261362 -0.0328368
-0.0454782 0.0488237 0.156734 -0.0360327 0.0165954 0.999213
0.0935441 0.260676 -0.445778 0.0122401 0.99992 -0.00333557
-0.25977 0.0514862 0.178243 -0.999723 -0.0184035 0.0146665
-0.209562 -0.124013 -0.106676 0.999319 -0.0328255 0.0168811
-0.217502 -0.143882 0.40931 -0.539808 -0.394149 0.74381
0.240728 0.159227 -0.499065 -0.0277856 0.027296 -0.999241
0.25895 -0.055258 0.084422 0.998601 0.038117 -0.0366499
-0.0663341 0.194284 0.157742 -0.000908951 0.0042256 0.999991
-0.229978 0.258921 -0.490289 -0.00551475 0.999794 0.0195314
0.260258 -0.165697 -0.393244 0.99721 0.0434706 -0.060687
0.177919 -0.257747 -0.0144144 0.0023382 -0.00330805 0.999992
-0.0797351 -0.0305881 -0.448009 0.0222607 -0.0161934 0.999621
0.193087 -0.039045 0.157096 0.0466013 -0.0592084 0.997157
0.256429 -0.0819117 -0.500653 -0.0176643 0.0465574 -0.998759
0.207584 0.164062 -0.238927 -0.999651 -0.0264232 0.000738773
-0.174159 -0.207509 -0.309711 -0.0117108 0.999931 0.00019687
-0.0507369 0.123504 0.157647 -0.0159952 0.0175871 0.999717
0.0278806 -0.206197 -0.134678 0.0591015 0.997266 -0.0443547
0.144261 -0.208602 -0.156835 -0.0991135 0.987947 0.118897
0.00359151 -0.207081 -0.0192336 -0.00587339 0.999976 0.00377801
-0.00897009 -0.0857972 -0.447615 -0.00926367 0.00812008 0.999924
-0.260394 -0.176265 -0.0562935 -0.999804 0.0158739 -0.0118289
-0.202931 -0.0364379 0.277098 0.495437 0.797899 0.343365
0.258279 0.215185 -0.0766748 0.999861 0.0163751 -0.00324613
0.119744 0.211558 -0.0148141 -0.0302088 0.0198947 0.999346
-0.149237 -0.255223 0.0699345 -0.00464621 0.000434891 -0.999989
0.260079 -0.125031 -0.243667 0.998654 -0.0281387 0.0435722
-0.170827 -0.102275 0.371538 -0.0495976 0.825414 0.562344
0.0689678 -0.245445 0.0710484 0.0242852 -0.072328 -0.997085
0.219349 -0.114537 0.156644 -0.00400545 0.00517839 0.999979
0.131176 0.0989699 0.141759 -0.395725 -0.918368 -0.000944062
-0.0856113 0.0719258 0.384344 0.999744 0.0157714 -0.0162441
0.0424296 -0.258132 -0.212091 -0.014569 -0.999878 0.00559641
-0.25921 0.129815 0.231206 -0.998586 -0.0254317 0.0466766
-0.0968825 -0.0915611 0.402675 0.890009 -0.256796 0.376749
0.0713648 -0.20793 -0.371855 -0.0275929 0.996535 0.0784628
-0.0104985 0.258886 -0.107358 0.0442562 0.998736 -0.0238288
0.258754 0.186058 -0.169854 0.996068 -0.073556 0.0493858
0.207471 -0.0706934 -0.0916091 -0.999704 0.00922167 -0.0224992
0.235947 -0.259942 -0.0859425 0.118954 -0.992624 -0.0233864
-0.258082 0.243507 -0.299117 -0.937369 0.348035 0.0145071
-0.0964685 -0.206536 -0.154816 0.0163794 0.999767 -0.0140723
0.0805203 -0.206512 -0.078937 0.00817707 0.99996 -0.00365053
0.0678999 0.259238 0.0853569 -0.0131 0.99991 0.00284461
-0.259013 -0.0572191 -0.116438 -0.999185 -0.0387246 0.0113853
0.151627 -0.168981 0.158493 0.00902789 -0.0228623 0.999698
0.202843 -0.0120243 0.0706894 -0.0347125 0.0114996 -0.999331
0.0358483 0.239929 -0.0156761 -0.0162685 0.0432599 0.998931
-0.190564 0.152785 0.0916362 0.538439 -0.650723 -0.53539
0.125624 -0.258824 -0.344997 0.0130402 -0.998988 -0.0430558
-0.245554 -0.257679 -0.196349 -0.374258 -0.925969 -0.0501131
0.143706 -0.205397 -0.0575145 -0.014781 0.999609 0.0237338
0.260732 -0.176045 -0.496208 0.999889 0.0125079 -0.00807421
-0.0847427 0.114299 0.328432 0.999187 -0.0350399 0.0199527
-0.0548192 -0.0671539 -0.49431 0.646294 0.763083 0.00289178
0.0277864 -0.167368 -0.446746 -0.0491087 0.0594545 0.997022
0.190065 -0.253299 0.156739 -0.0280075 0.020079 0.999406
-0.097631 0.113597 -0.447257 0.0140624 -0.0305758 0.999434
-0.0143112 -0.206566 -0.190984 0.0112234 0.999713 -0.0211473
0.170933 0.0830081 -0.499897 0.0038527 -0.0544779 -0.998508
0.0125403 -0.259582 -0.287767 0.00695174 -0.999901 -0.0121929
-0.0854582 0.258531 -0.294455 0.0163657 0.999682 -0.019171
-0.207745 0.0771852 -0.0918785 0.999882 0.0110138 -0.0107374
-0.102397 -0.259964 -0.357677 -0.0443407 -0.992612 0.112938
-0.129597 -0.258945 -0.247418 0.022962 -0.999423 -0.0250297
0.0781564 0.258557 -0.0700029 0.0171826 0.999346 -0.0318238
-0.00362776 0.106042 0.0711134 0.0212823 -0.0169824 -0.999629
-0.208922 -0.0611963 -0.44256 0.992382 -0.0936208 0.0800865
-0.181277 -0.206687 -0.384658 -0.00222406 0.999333 0.036461
0.208078 -0.158197 -0.0527798 -0.99872 0.0469132 -0.0188999
0.204755 0.189225 0.0721805 -0.0499789 0.0105965 -0.998694
-0.229379 0.183713 0.288428 0.00758405 0.873804 0.486219
0.259143 -0.0892243 -0.407071 0.998539 0.0341929 -0.0418358
0.0872283 0.10374 0.0754381 0.0961436 -0.995357 0.00458078
-0.0859076 -0.000372903 0.0692605 -0.0370674 0.0277558 -0.998927
-0.18135 -0.205963 -0.208924 0.00365018 0.999993 -0.000511378
0.256579 -0.0153594 -0.015885 -0.0114016 0.0075187 0.999907
0.20846 -0.116395 -0.377135 -0.996061 0.0043369 -0.0885624
-0.257265 -0.0918725 0.207529 -0.999704 -0.0219962 0.0103789
-0.254109 -0.24243 -0.0172063 0.018091 -0.0198526 0.999639
0.215757 0.235319 -0.0030457 -0.985265 0.171004 0.00330991
0.248701 0.238032 -0.351212 -0.932223 -0.361276 -0.0209914
0.260051 0.237414 0.0940163 0.983408 0.177722 -0.0363929
-0.0484279 0.20697 -0.366385 -0.0478796 -0.990552 0.128509
-0.160889 -0.255492 -0.0174108 0.0303466 -0.017351 0.999389
-0.11831 0.247473 -0.500101 -0.0499074 0.0373726 -0.998054
0.141847 -0.258717 -0.237152 0.0514352 -0.997434 -0.0497899
0.258966 -0.119013 -0.130679 0.999842 -0.000567194 0.0177662
-0.0363599 -0.259891 -0.233783 -0.0211126 -0.999757 0.00640068
0.0714562 0.0477306 -0.448797 -0.862858 -0.505393 0.00734283
-0.0236521 -0.256955 -0.498703 -0.037222 0.0595222 -0.997533
-0.128486 0.258716 -0.19602 -0.0613063 0.996171 0.062329
-0.200209 -0.0294034 0.444509 0.517896 -0.759915 -0.392828
-0.258464 0.0757682 -0.285595 -0.991954 0.0678724 -0.106867
-0.209263 0.104149 -0.18461 0.999886 -0.0127512 0.00802958
0.208742 -0.0132021 -0.398582 -0.999572 0.0151288 -0.0250372
-0.199594 0.225175 0.217499 -0.00922797 0.862474 0.506018
-0.258651 0.00823472 -0.260308 -0.999939 0.00935663 -0.00592008
0.15912 0.211697 -0.499276 -0.0071345 0.0108469 -0.999916
-0.260335 -0.0465455 -0.0427286 -0.997415 0.00641136 -0.0715685
-0.235525 0.0955123 -0.0139051 0.00535421 -0.0204436 0.999777
0.194699 -0.260865 -0.18933 -0.00414949 -0.999872 0.0154481
-0.229359 0.142103 0.362234 0.029375 0.899528 0.435875
0.0522827 -0.102847 -0.498465 -0.0348374 0.0467047 -0.998301
0.100628 -0.172056 0.0719947 -0.0087871 0.0713766 -0.997411
-0.0858036 -0.198508 0.27156 1 -0.000285853 0.000223286
-0.25939 -0.181474 -0.198374 -0.999243 -0.0187926 0.0340598
0.0305251 0.20269 0.0701301 0.023913 -0.0242757 -0.999419
-0.069594 0.259278 0.136619 0.0178404 0.994217 -0.105896
-0.0371998 0.170136 0.0710455 -0.00841056 0.0141223 -0.999865
0.175445 -0.066921 -0.448991 0.0466278 -0.0443555 0.997927
-0.10481 0.223569 0.215908 0.277084 0.853776 0.440784
-0.172264 0.15479 -0.449787 -0.000661097 0.00415166 0.999991
-0.131962 0.206352 -0.404003 0.0374405 -0.999026 -0.0233373
0.221962 0.259296 -0.162328 0.0160079 0.999055 -0.0404104
0.259687 0.0717581 -0.490411 0.999878 0.00860519 -0.0130598
0.0629596 -0.100398 0.0711849 0.0019349 -0.016358 -0.999864
-0.111813 0.258847 0.0763025 -0.000933347 0.999999 0.000675216
-0.204636 0.154997 -0.37164 0.996034 -0.0194074 0.0868313
0.0561085 -0.258157 -0.41395 -0.00381064 -0.99863 0.0521858
-0.0868517 -0.109599 0.239764 0.999748 -0.00780398 0.0210676
0.0901347 -0.117804 0.156962 0.0442992 -0.0149777 0.998906
-0.25982 -0.213722 0.225589 -0.999543 0.0219272 -0.0208232
-0.0634148 -0.26135 -0.290802 0.00931974 -0.999938 -0.00611878
0.0380531 0.0870833 0.150169 0.557208 -0.825126 0.0931959
-0.258995 0.198918 -0.461255 -0.999638 0.0187992 -0.0192566
-0.01747 -0.126006 -0.50006 0.0127853 -0.0686403 -0.99756
0.259332 0.127412 -0.286333 0.993255 0.105479 -0.0481629
-0.258397 0.117315 0.0707425 0.00680227 -0.00682028 -0.999954
-0.0852941 0.15431 0.258689 0.999999 -0.000817391 0.000636387
-0.0909768 -0.225135 -0.0141081 0.0131561 -0.00489415 0.999901
-0.256466 -0.229869 0.0718696 0.061968 -0.0669054 -0.995833
-0.260112 0.0820501 0.456832 -0.999854 0.00108987 0.0170359
-0.250516 -0.250279 -0.431512 -0.748867 -0.66271 0.00362045
0.0111234 0.152214 -0.446257 -0.00542504 0.0321397 0.999469
-0.0138295 0.2511 -0.501725 -0.000911185 0.00168991 -0.999998
-0.205838 0.195969 -0.49949 -0.0280321 0.0441321 -0.998632
-0.193123 -0.0364553 -0.500594 -0.0735456 0.0540865 -0.995824
-0.02344 0.147082 -0.499414 -0.0230749 0.0471806 -0.99862
0.0206422 0.258466 -0.22646 0.0203902 0.999376 -0.0288491
0.258524 -0.110646 -0.0428196 0.997606 0.0679277 -0.0129844
-0.155398 0.0149818 0.378745 -0.283171 -0.765569 -0.577684
-0.25907 -0.0239777 -0.429468 -0.996432 -0.0395628 0.074558
-0.212245 0.0247883 0.329805 0.733186 -0.589783 -0.338518
-0.206416 -0.13079 -0.198948 0.999998 0.000253203 -0.00172134
-0.0812807 0.259115 -0.114204 0.00433896 0.999988 -0.00205926
0.137175 0.247383 0.0685229 0.0292045 -0.108836 -0.993631
-0.261693 -0.0729006 0.307687 -0.999425 0.0196721 -0.0276057
-0.0779295 -0.25707 0.126305 -0.0137344 -0.999081 0.0405935
-0.210081 0.0628881 -0.420045 0.999923 -0.0059196 0.0109037
-0.132167 -0.0502142 0.464863 0.43439 -0.426441 0.793381
0.208066 0.120404 -0.436295 -0.996016 0.0661803 -0.0597687
0.258412 0.205426 -0.293099 0.999242 0.0374587 -0.0105939
-0.0755061 -0.0252297 0.156554 0.0174168 -0.00997292 0.999799
0.0498009 -0.259527 -0.339266 -0.00434792 -0.997341 0.0727474
-0.242047 -0.0617707 0.0701165 0.00952966 -0.0373654 -0.999256
0.258331 -0.0324692 -0.216931 0.9955 0.0946805 -0.00401754
0.259367 0.0502351 -0.0371511 0.999525 -0.0308014 0.00057207
-0.172723 0.257881 -0.0240251 -0.0172369 0.999612 0.0218678
0.207313 0.112585 -0.0185517 -0.999995 -0.00277003 0.00163956
-0.258329 0.035115 -0.0536645 -0.99708 -0.0514178 0.0564568
0.202319 0.257671 -0.247606 0.0415044 0.996387 -0.0740941
0.0588427 0.260623 -0.161158 0.00123124 0.999998 -0.00139293
0.0623345 0.15806 0.159259 0.0134726 -0.0388097 0.999156
-0.237196 0.204719 0.0721864 -0.0197792 0.0166551 -0.999666
-0.0570118 0.2596 -0.0421205 0.0167698 0.999633 -0.0212834
-0.00251258 -0.207238 -0.0171961 0.00955236 0.999881 -0.0121532
-0.259561 -0.164667 -0.333131 -0.999027 -0.0207688 0.0389097
-0.0860059 -0.192062 0.160738 0.995976 0.0103302 -0.0890273
0.22969 -0.258696 0.0881569 -0.000450178 -0.999966 0.00818501
0.113187 0.160005 -0.447973 -0.0298804 0.0274033 0.999178
0.166324 -0.259612 -0.107827 0.00849392 -0.999459 -0.0317767
-0.251675 0.0213014 0.0724807 -0.0218481 0.0221091 -0.999517
0.248953 -0.23235 -0.343993 -0.998984 -0.0260981 0.036752
-0.163271 -0.240672 0.362252 0.0293181 -0.792916 0.608625
-0.153784 0.0788043 0.0705575 0.00805417 -0.00343901 -0.999962
-0.20682 0.121294 -0.281494 0.999656 -0.0213215 0.0152769
0.0828102 -0.259702 -0.0364909 -0.0341722 -0.999361 0.0105254
-0.260182 -0.171037 -0.404261 -0.999787 0.0104306 -0.0177931
0.259108 0.0680299 -0.372416 0.999207 0.026374 -0.0298154
-0.00768294 0.0137133 0.121444 0.990531 -0.104962 -0.0884962
0.160853 -0.0801641 0.0798657 -0.654077 0.756082 0.0228761
0.0453975 0.120036 -0.500194 0.0334364 -0.00908713 -0.9994
-0.207171 0.0460705 -0.242066 0.999649 -0.0234334 0.0123821
-0.151098 -0.258918 -0.127607 -0.0402515 -0.998811 0.0275013
0.0243106 -0.0738831 0.152572 0.668467 0.743641 0.0121983
0.159041 0.259821 -0.0423273 0.000362266 0.999599 -0.028321
0.257266 0.0996147 -0.107043 0.992612 0.121224 -0.00504432
0.261191 0.166744 -0.0277608 0.998524 0.0223612 -0.0495004
-0.207821 -0.0501926 -0.161725 0.999306 0.0195274 -0.0317205
0.19228 -0.162306 0.0718301 0.0338904 -0.0251238 -0.99911
0.205997 -0.198121 -0.118037 -0.997475 0.0696588 -0.0138583
-0.258836 -0.136815 0.272765 -0.99971 0.0175004 -0.0165404
-0.0752761 -0.155443 -0.448278 0.0357515 -0.0246158 0.999058
0.178082 0.0886781 0.0712447 0.0178864 -0.0103736 -0.999786
-0.0437413 0.259431 -0.198903 -0.0241498 0.999634 0.0121979
-0.058157 0.20673 -0.249638 0.00267537 -0.999303 -0.0372231
0.121112 0.0259149 -0.498422 0.0152032 -0.00810464 -0.999852
0.0830039 -0.0242509 -0.45578 -0.964337 0.264627 0.00513897
-0.089486 -0.12408 -0.499751 -0.0168737 0.0116231 -0.99979
-0.254295 -0.232698 0.30064 -0.967949 -0.089425 0.234685
0.181192 -0.207833 -0.235373 0.0448976 0.998639 -0.0265259
-0.112575 -0.258888 -0.478135 0.0299748 -0.999492 -0.0108207
0.0879034 -0.260464 -0.138332 0.0167244 -0.999543 -0.0251834
-0.259246 -0.0810922 -0.212205 -0.999766 -0.010616 0.0188494
-0.210036 -0.254342 -0.500049 0.043098 -0.0308 -0.998596
0.171598 0.206433 -0.416412 0.0183612 -0.999433 -0.0282217
0.206984 -0.0621127 -0.0213584 -0.999953 0.00967427 -0.000161409
-0.205834 -0.0486023 -0.372816 0.999938 -0.00853302 0.00712852
-0.0640282 -0.259948 -0.159856 -0.0356368 -0.999177 0.0193511
0.0823353 -0.259655 -0.279037 -0.00347203 -0.999987 0.00361967
0.248148 0.252936 -0.497361 0.572487 0.819913 -0.00102129
-0.100271 0.157147 0.0713469 0.0166121 -0.00444582 -0.999852
0.258146 0.241041 -0.218511 0.952491 0.303841 -0.0210021
