ply
format ascii 1.0
comment Created by Open3D
element vertex 400
property double x
property double y
property double z
property double nx
property double ny
property double nz
end_header
-0.421026 -0.106242 -0.0864001 -0.0471878 0.00918147 -0.998844
-0.103967 0.183618 0.285724 -0.0830442 0.996156 0.02788
-0.371354 -0.164065 0.193054 -0.441506 0.0581928 0.895369
0.101816 -0.182959 -0.207978 -0.00229304 -0.999996 0.00161404
0.198721 -0.126094 -0.402213 0.884243 0.00497001 0.467
-0.158173 0.186051 -0.118778 -0.0698421 0.996515 0.0455997
0.208511 0.037098 0.459353 0.432489 0.000216479 0.901639
-0.256045 0.183944 -0.105574 0.039889 0.998952 -0.0224448
-0.0645479 -0.183114 -0.314791 -0.0443052 -0.999017 0.00129936
0.4249 -0.116484 0.142445 0.270023 -0.0081 -0.96282
0.170052 -0.0200424 -0.459637 -0.66062 0.0263975 -0.750256
0.257188 0.182738 -0.340471 -0.0242848 0.999279 0.0291818
-0.402522 0.117366 -0.105415 -0.962303 0.00592806 -0.271916
-0.191234 0.0720122 0.465618 -0.358983 -0.0114837 0.933273
0.0519999 -0.179036 -0.138816 -0.496327 -0.00582322 0.868116
0.211816 -0.184703 -0.116563 -0.0430651 -0.998075 0.0446369
-0.139477 -7.68756e-05 0.08941 0.495569 0.0247807 -0.868215
0.131611 -0.187025 0.0924962 -0.407656 0.0288054 -0.912681
-0.0875289 -0.0875432 -0.463145 -0.996973 -0.0397867 -0.0667991
-0.448814 0.0855349 -0.206313 0.0331598 -0.00645442 -0.999429
-0.193426 -0.0284626 0.463349 -0.415832 0.0161952 0.909297
-0.094165 0.182615 0.172881 -0.00122532 0.999999 0.000647153
-0.245053 -0.183761 -0.122717 0.00121378 -0.999999 -0.00119993
0.0355066 -0.0719867 0.470639 -0.941501 0.0221752 0.33628
0.195552 0.145197 0.393411 0.912075 0.00587736 -0.409981
-0.395704 -0.00140134 0.313989 -0.766821 -0.0273532 0.641278
0.0899184 -0.142393 -0.408664 0.785134 -0.0298302 -0.618607
-0.162096 -0.181163 0.187582 -0.00838497 -0.999791 0.0186483
0.293617 -0.183373 -0.042304 0.0313326 -0.998833 -0.0367513
0.285203 0.12729 0.305041 0.904836 -0.0667947 0.420488
-0.417929 0.034598 0.0163294 -0.915574 0.000823096 -0.402148
-0.366315 0.100911 -0.196387 -0.756924 0.0297441 -0.652825
-0.0520705 -0.18269 0.495489 -0.0164092 -0.999795 0.0118369
-0.230591 0.10705 0.35495 0.442668 -0.0085151 0.896645
-0.157513 -0.183546 -0.138118 -0.0262563 -0.999505 0.017349
0.365231 -0.100264 0.241007 0.654695 -0.070146 -0.752631
0.183684 -0.0986958 -0.466614 0.374431 -0.00957222 -0.927206
-0.478998 0.133833 -0.0386843 -0.292344 -0.103298 0.950718
0.0924782 -0.0147201 0.115369 -0.490183 -0.00395749 -0.871611
0.398961 -0.12815 -0.276621 0.820291 -0.016507 0.571708
-0.468714 0.0636047 -0.0873873 -0.131263 -0.0394435 -0.990563
-0.0308552 0.0916038 -0.149888 0.491109 0.0623854 0.868861
0.180461 0.0790038 -0.468858 0.348246 0.0209582 -0.937169
0.367136 -0.015731 0.194996 0.720367 -0.0247545 0.693152
0.187693 0.183167 0.315368 -0.0766582 0.996123 0.043164
0.414914 -0.0274772 0.00951016 0.995965 0.0473171 -0.0762511
0.289926 -0.183809 0.176268 -0.000202812 -0.999638 0.0268954
-0.14627 0.00450808 0.00696055 0.999991 -0.00334529 0.00254395
-0.350238 -0.182362 -0.114688 -0.0452207 -0.997693 0.0506375
0.310697 0.183052 -0.069578 0.0103524 0.999902 -0.00943562
-0.323548 0.185159 0.208793 0.0194532 0.999551 -0.0227696
-0.305627 0.0744321 -0.283721 -0.230445 -0.0843609 -0.969422
0.0858932 0.182539 -0.39835 -0.0322414 0.998599 0.0419657
0.0234095 -0.179735 -0.422879 -0.849309 -4.52827e-05 -0.527896
0.295632 0.160419 -0.406665 0.596553 -0.0319947 -0.801935
-0.288791 -0.0152679 -0.299228 -0.71204 0.00313884 -0.702132
-0.0871867 -0.143045 0.419815 -0.985965 -0.0572439 0.156832
0.12812 0.12922 -0.402236 -0.552453 0.0214348 -0.833268
-0.358724 0.169793 -0.235587 -0.816589 0.00779177 0.577166
0.108298 0.0468615 -0.107194 -0.494696 -0.0159445 0.86892
-0.458883 0.0772736 0.206775 -0.911464 0.126812 0.391346
-0.191212 0.18174 0.34879 -0.0201986 0.999781 0.0054278
0.39359 -0.183822 0.0183671 -0.0510749 -0.991789 0.11724
0.314904 0.183526 0.178323 -0.000293164 1 0.0009151
-0.302602 -0.162817 -0.399887 -0.578841 0.0151584 -0.815299
0.35222 -0.0476744 -0.223702 0.998608 0.0228445 -0.047536
0.428063 0.182757 0.194831 0.0110617 0.999912 -0.00732657
-0.210951 -0.184513 -0.192921 0.0165816 -0.99986 -0.00208121
-0.078741 -0.0724599 0.495821 -0.143385 -0.00674254 0.989644
-0.16225 0.18346 -0.378928 -0.0290721 0.999307 0.0232516
-0.250991 0.18294 0.166233 0.00338703 0.999993 -0.00123712
-0.0203886 0.184637 -0.225719 0.0199851 0.999207 -0.0344463
0.0538324 0.192404 0.167227 0.0358009 0.998875 -0.0311116
-0.184432 0.0322846 -0.467916 -0.358636 -0.0543343 -0.931895
-0.379218 0.0243017 -0.315571 0.285522 -0.0551561 -0.956784
-0.297793 -0.182402 0.40457 -0.00610461 -0.998453 0.0552733
-0.219149 -0.0544962 0.354123 -0.463767 0.00256422 0.885953
-0.160884 -0.184099 -0.270392 0.0307311 -0.99932 -0.0203705
-0.0201133 -0.0178763 0.416918 0.660024 -0.000540246 0.751244
-0.146886 0.173169 0.0501322 0.999979 0.00452874 -0.00460485
0.402183 0.0550747 0.111009 0.964981 0.0465183 0.258162
0.0373304 0.0311899 0.477664 -0.891767 -0.0154937 0.452229
0.496311 0.0816958 -0.0782996 0.990661 -0.0370171 -0.131225
-0.181034 0.183002 0.1788 0.040754 0.999074 -0.0137657
-0.399564 -0.182879 -0.3061 -0.760427 0.0145773 -0.649259
-0.0865559 -0.183799 0.320261 -0.0284256 -0.99883 0.0391275
0.308676 -0.048535 0.283557 0.0838488 0.0244086 0.99618
0.489248 -0.125074 0.0456977 0.411255 0.0584009 -0.909648
0.314374 -0.186082 -0.224383 -0.0087299 -0.999912 0.00995288
-0.0314483 -0.148802 0.150592 0.489087 0.0756506 -0.868948
-0.187353 0.185773 -0.0448614 -0.97839 -0.0139307 -0.206299
-0.419619 -0.13112 0.0203095 -0.741842 -0.105176 -0.662275
-0.343517 -0.183829 0.0650248 -0.0640769 -0.997476 0.0306031
-0.421706 0.166806 0.140132 -0.350002 -0.00868551 -0.936709
-0.0250262 0.185945 0.339419 -0.00186374 0.999996 0.00232107
0.365602 -0.150534 0.31094 -0.370834 0.0137549 0.928597
-0.0825301 -0.194257 -0.13362 -0.0352325 -0.999375 0.00281478
-0.158748 -0.11127 0.449721 0.787934 0.00448601 0.615743
0.103144 -0.111754 0.108378 -0.453614 0.0335153 -0.890568
0.0817106 -0.0354678 0.491872 0.955679 -0.00683612 0.294331
-0.453859 -0.183164 -0.198911 0.0175809 -0.999845 -0.00135093
0.29699 0.12122 -0.291572 0.759391 -0.0317653 -0.649858
-0.361543 -0.0656237 0.312101 0.358675 0.01527 0.933337
-0.0764296 -0.182159 -0.417101 -0.0163388 -0.999865 0.00165749
-0.19406 -0.054798 -0.462995 -0.42388 0.0117955 -0.905641
0.201509 0.0512279 0.363038 0.49553 0.00212303 0.868588
0.49613 -0.181374 -0.044836 0.515298 -2.49438e-05 0.857011
0.413166 0.184125 -0.0809691 -0.00431942 0.999938 0.0102332
-0.402777 0.0227143 -0.200794 0.396237 0.00468205 -0.918136
-0.317692 0.179203 -0.382087 -0.975196 0.0104385 0.221098
0.206528 0.175658 -0.458639 0.473419 -0.0857632 -0.876652
-0.403802 -0.141977 0.297325 -0.786599 -0.0383136 0.616275
0.14647 -0.126501 -0.0255049 -0.996103 0.069217 -0.0546531
0.173032 -0.181219 0.429118 0.0827123 -0.996569 -0.00299363
-0.193921 0.1845 -0.242776 -0.0511767 0.996616 0.0643292
0.31537 -0.121298 -0.382038 0.966347 -0.00271427 0.257229
0.0889563 -0.0497637 -0.41139 0.845147 0.036079 -0.533315
0.0683149 0.184857 -0.24645 0.00675943 0.999544 -0.029445
-0.124834 0.113124 -0.0958172 0.549498 -0.00330924 0.835489
-0.193949 0.185792 0.455891 0.015211 0.99987 -0.00538023
0.496571 0.0741137 0.0726021 0.984138 -0.0113273 0.17704
-0.44432 0.180808 0.205633 -0.0113433 4.42225e-05 0.999936
0.202713 -0.18305 -0.207138 0.0181673 -0.99962 -0.0207093
0.045323 -0.0871988 0.143087 -0.519437 0.01397 -0.854395
0.226198 0.102935 -0.353881 -0.168274 -0.00948302 -0.985695
-0.44584 -0.122 -0.155971 -0.590644 -0.0136377 0.806817
-0.139044 -0.110215 -0.411659 0.909609 -0.0406174 -0.413474
-0.0462297 0.0470525 0.493909 0.894052 0.0248591 0.447272
-0.280958 -0.0321308 -0.401885 0.524149 -0.0226865 -0.851324
-0.286331 0.0565532 -0.40576 0.532344 -0.0453463 -0.845313
0.41466 -0.109972 -0.00473503 0.999977 -0.00289684 0.0061866
0.0896824 0.168828 0.115257 -0.482737 0.0141721 -0.875651
-0.497264 0.0148254 0.0761209 -0.986445 -0.0227885 0.162501
-0.386135 0.18109 0.257224 -0.737777 0.00545256 -0.675022
-0.296035 -0.182589 -0.175434 -0.00657524 -0.999333 0.0359138
-0.259922 -0.184647 0.0273492 -0.0282781 -0.997202 0.0691947
0.0576873 0.0428447 -0.499555 0.0913704 0.0198543 -0.995619
-0.145452 0.023454 -0.084199 0.999628 0.0265299 -0.00629145
-0.318346 0.0662939 0.284027 0.225849 0.00115551 0.974162
-0.408172 -0.052258 0.0944383 -0.677739 -0.091501 0.729587
-0.316508 -0.120717 0.379689 -0.960237 -0.013512 -0.278858
0.00188544 0.177863 -0.417269 0.0123898 -0.0267894 -0.999564
0.0378402 0.0700508 -0.147753 -0.52467 0.024416 0.850956
0.043263 0.151438 -0.1444 -0.499429 0.0553187 0.864587
-0.128994 -0.0403274 0.400756 0.460032 0.0014159 0.887901
0.119028 -0.184279 -0.3484 -0.0328238 -0.999461 4.43957e-05
0.375794 -0.182716 -0.077187 0.0505815 -0.998034 -0.0370169
-0.228676 -0.182788 -0.263231 0.00236904 -0.999966 -0.00789453
0.348732 0.182096 0.255166 0.00494122 0.999847 -0.0167627
0.426717 0.1189 0.0256885 0.410423 0.00132915 -0.911894
-0.14165 -0.106508 0.0886551 0.516365 -0.022982 -0.85606
0.0928629 -0.184774 0.387137 0.0203637 -0.998169 -0.0569627
0.467287 0.111515 0.175356 0.757323 -0.0387525 -0.65189
0.147217 0.0608991 0.0347419 -0.999998 0.000211046 -0.00198421
-0.336509 0.18308 -0.169302 0.0773903 0.996795 -0.0202397
-0.0287958 0.117188 -0.442536 0.99729 0.0134085 -0.072336
0.43717 0.117178 0.0899888 -0.189047 -0.00474453 0.981957
0.448114 -0.0635083 0.207677 0.0442448 -0.0847661 0.995418
0.44466 0.0376524 -0.155444 0.546218 0.0167705 0.837475
0.272428 -0.182719 0.0933232 -0.0156182 -0.988618 0.149637
-0.415082 0.10721 0.00405949 -0.998934 -0.0340065 0.0312291
-0.0220264 -0.184192 0.25193 0.0397224 -0.998625 -0.0342201
0.427704 0.133147 -0.144858 0.436913 0.00548475 0.899487
0.22575 -0.181452 0.196734 -0.0229581 -0.99962 0.0152294
-0.0220505 -0.156532 -0.15648 0.495148 0.0129655 0.868712
-0.191777 -0.184358 0.0744987 -0.0114455 -0.999695 0.0219041
0.027468 -0.00692788 -0.442456 -0.996022 0.019662 -0.0869073
-0.184275 0.182979 0.111819 0.0403734 0.998344 -0.0409836
0.447724 0.0435895 -0.0286205 -0.00577648 0.0350537 0.999369
-0.145302 0.0795529 -0.0119828 0.999444 -0.000433989 0.0333375
-0.353054 -0.183698 -0.229089 0.0608032 -0.995126 -0.0776339
-0.374247 -0.0349964 -0.249126 -0.582619 -0.00827204 0.812703
0.237263 -0.183733 0.0234378 -0.0101036 -0.999407 0.0329124
-0.0118691 -0.107587 0.413945 0.217912 -0.0477449 0.9748
0.154691 0.182271 -0.357541 0.0100696 0.999848 -0.014254
0.00865025 0.146534 0.418304 -0.136459 0.0516941 0.989296
-0.108118 0.184161 -0.284157 0.0428486 0.998011 -0.046237
-0.499127 -0.166535 0.0696155 -0.991962 0.0457759 0.117969
0.0659135 -0.180631 0.285078 0.00716663 -0.998861 -0.047181
-0.00918719 0.060295 0.417235 0.0514199 -0.0150396 0.998564
-0.310921 -0.128785 -0.28367 -0.0572929 -0.00932242 -0.998314
-0.283213 -0.108053 0.3074 -0.988928 0.0133866 0.147788
-0.289051 0.183672 0.350772 0.0126261 0.999917 -0.00237807
0.272859 -0.18372 0.259664 0.0112163 -0.999878 -0.010891
0.402722 -0.0169094 0.10477 0.95748 -0.0180008 0.287936
0.400951 0.129298 0.301909 0.769206 -0.027751 0.638397
0.0896751 -0.122768 0.452043 0.999269 0.0382078 -0.00154552
0.233981 0.184704 0.235893 -0.00661087 0.999389 0.0343103
0.0442411 0.0517127 0.14352 -0.544876 0.0044934 -0.838504
-0.0061594 -0.0738931 -0.416031 0.00607361 -0.00322069 -0.999976
-0.484522 -0.183879 -0.05095 -0.0129222 -0.999836 0.0127021
0.378652 0.0181963 0.317178 -0.276281 -0.0440775 0.960066
0.409752 -0.0383481 -0.0913457 0.620742 -0.0835214 -0.779553
0.145333 -0.190035 0.00967956 -0.999997 0.000572311 -0.00221247
0.397564 0.184226 0.103558 -0.0372208 0.998098 0.0491476
0.440043 0.107435 -0.206625 -0.0660135 0.00238465 -0.997816
-0.490637 0.182507 0.0536063 -0.0016016 0.999996 0.0021701
0.360631 -0.183016 0.127476 -0.0265559 -0.999407 0.0219342
-0.350107 -0.182337 0.274611 -0.0511646 -0.998029 0.0363376
-0.0932654 -0.185444 -0.23535 -0.0570315 -0.997351 0.0451443
0.457334 -0.0732298 0.0899362 0.0135044 0.0514588 0.998584
0.0824427 0.106123 0.49246 0.932384 -0.0650346 0.355571
-0.247134 0.182968 0.0409157 0.00703837 0.998818 -0.0480905
-0.0683691 0.00362341 -0.498913 -0.174832 0.0469726 -0.983477
-0.271821 -0.184561 0.294026 -0.0778901 -0.996586 0.027373
-0.0490786 0.0702172 0.140053 0.460857 0.0900469 -0.882894
-0.0865109 0.0894604 -0.484325 -0.972275 -0.00277134 -0.233822
-0.298077 0.183457 -0.280669 0.0206625 0.99905 -0.0383768
0.243928 -0.0742201 -0.369515 -0.853723 -0.0147386 -0.520519
-0.14471 -0.136734 0.0201745 0.997206 0.0722196 -0.0190924
-0.20729 0.183687 -0.16642 0.000992194 0.999967 -0.00804113
0.146127 -0.0994092 0.0613558 -0.997739 0.0200797 -0.0641306
-0.416532 -0.0410976 0.0105444 -0.995088 -0.0180613 -0.0973298
0.370256 0.183135 0.0253322 0.0127346 0.994917 -0.0998908
0.10487 0.0868213 0.109625 -0.403541 -0.00605594 -0.914942
0.404965 0.0566271 -0.0933266 0.848048 -0.0375352 -0.528588
-0.202369 -0.185606 0.332078 -0.00319473 -0.999989 0.00334777
-0.405065 -0.0998534 -0.297903 -0.802141 -0.000271769 -0.597134
0.138416 0.184146 0.405458 0.0680701 0.997226 -0.0301159
0.0511534 -0.185633 0.483653 0.0184735 -0.999775 -0.0104214
0.27008 -0.0630616 0.394894 -0.562102 -0.0381527 0.826188
0.377927 0.10299 0.191917 0.0331826 0.000640806 0.999449
0.222499 -0.183431 -0.278035 0.010143 -0.999886 -0.0111579
-0.462568 -0.0603124 0.168563 -0.70304 -0.0346851 -0.710304
-0.206438 -0.157355 -0.440164 -0.991875 -0.0393271 0.120985
0.126157 0.183853 -0.177397 0.0714811 0.992193 -0.102191
-0.497771 -0.103462 -0.0661983 -0.991858 0.0131664 -0.126665
-0.118692 -0.19391 0.105873 -0.0340002 -0.998304 0.0472548
-0.455894 0.182162 -0.190791 0.0382623 0.998779 -0.031246
-0.0414822 0.172057 0.487683 0.923584 0.053681 0.379619
-0.294709 0.181447 0.110984 0.0223729 0.999091 -0.036276
0.206025 -0.183078 0.121716 0.0322142 -0.999359 -0.0156287
0.496574 0.177017 0.0744389 0.989869 0.00576927 0.14187
0.238103 -0.00628741 0.361348 -0.713921 -0.0182219 0.699989
-0.0164485 -0.0119732 0.159668 0.494601 0.0146434 -0.868997
0.47005 -0.0880276 -0.178803 0.93128 -0.0679246 -0.357917
-0.0876349 0.11143 0.470428 -0.974364 -0.0737164 0.212557
-0.137989 -0.182782 0.403855 0.0821104 -0.992751 -0.0877655
0.11154 0.117069 0.399456 0.262703 -0.0174492 0.964719
0.11764 0.18294 -0.291745 -0.0184062 0.999727 0.0143778
0.130478 -0.0770034 -0.090871 -0.534762 0.0323433 0.844383
0.315112 0.11673 0.389421 0.621702 -0.00228613 0.78325
0.449825 -0.000320847 0.158804 0.651237 -0.0495314 -0.757256
0.197474 0.163638 0.463461 0.398144 -0.000840631 0.917323
-0.276672 0.181593 0.272252 -0.0550085 0.997062 0.0533013
0.211853 -0.185471 -0.359208 0.487884 0.0491054 -0.871526
-0.256823 -0.18212 0.125211 0.0952206 -0.990721 -0.0969783
0.488784 -0.00679657 0.0840767 0.287289 -0.0147395 0.957731
-0.173362 -0.184787 0.269182 -0.00703611 -0.996949 0.07774
0.348551 -0.182883 0.227228 0.0266439 -0.998977 -0.0365381
-0.249954 -0.183496 0.229534 -0.0249839 -0.999364 0.0254487
-0.0227218 -0.18462 -0.244967 0.00304802 -0.999985 -0.00453442
-0.0134258 -0.0701506 -0.159045 0.449441 0.0280965 0.892868
0.205856 -0.123013 0.457914 0.393376 0.0186243 0.919189
0.406571 -0.0651548 0.295918 0.802706 -0.000218418 0.596375
-0.146583 0.0846436 0.0772898 0.999964 -0.00757362 0.00376069
-0.232882 -0.172328 -0.355615 0.385441 -0.0143138 -0.922622
-0.0542962 -0.182249 -0.499659 -0.0728944 -0.0449024 -0.996328
0.307567 0.0135562 0.395926 0.643996 -0.023493 0.764668
-0.312617 0.0275006 0.369215 -0.935749 0.00871012 -0.35256
0.370616 -0.182799 -0.312517 -0.393392 0.00758389 -0.91934
-0.275633 -0.183709 -0.047065 0.0523626 -0.998624 -0.00270036
0.0718867 -0.0356877 -0.498583 0.123974 0.00895129 -0.992245
-0.379705 0.107116 0.315877 0.215575 0.0282196 0.97608
0.371303 0.182108 -0.285339 0.0276328 0.998752 -0.0416078
0.257149 0.0102085 -0.384592 -0.702268 0.00277227 -0.711907
0.417773 -0.117645 -0.0853484 0.141658 0.0173539 -0.989764
0.32519 -0.181735 -0.140605 -0.0280623 -0.99852 0.0465879
-0.226285 0.0236595 0.352681 0.202852 0.026671 0.978846
0.0596934 -0.0945475 -0.132783 -0.4982 -0.00165459 0.867061
-0.307363 -0.0889576 -0.3568 -0.932641 0.0174771 0.360381
-0.0200522 0.183992 0.272097 -0.0424866 0.997034 0.0641707
-0.0882188 0.184189 -0.406756 -0.0154922 0.999875 0.00321959
0.440955 -0.175944 0.0895806 -0.104179 0.0300848 0.994103
0.485281 -0.0960989 -0.0850013 0.247229 -0.0206509 -0.968737
0.340723 -0.0985347 -0.300488 -0.540009 0.0052866 -0.841642
0.393841 0.108865 -0.313558 0.77502 0.0421968 -0.630527
-0.327573 0.183009 0.0324509 -0.0109128 0.998668 0.0504281
-0.501232 -0.090818 0.0553841 -0.99156 -0.0372719 0.124179
-0.416702 -0.175212 0.0861683 -0.0876804 -0.0579511 0.994462
0.384919 0.0594052 0.257843 0.750569 -0.0924955 -0.654287
0.153232 0.182922 0.199812 -0.00604304 0.996426 0.0842583
-0.421095 -0.113462 0.141137 -0.37532 0.0369409 -0.926159
-0.0588571 -0.0852795 0.135314 0.550438 -0.104588 -0.828299
0.309798 0.0810452 -0.358081 0.942786 0.025967 0.332387
0.144915 0.182392 0.0269581 -0.999686 -0.00643813 0.0242168
0.358089 0.0445044 -0.237172 0.698079 0.0294102 0.715416
-0.310134 0.12156 0.394841 -0.620415 -0.0113578 0.784192
0.30302 0.0699073 0.343693 0.830317 0.0910983 -0.549796
0.31705 -0.11084 0.38206 0.969846 0.0258565 -0.242342
-0.0913099 -0.0344109 -0.113189 0.459342 -0.00379116 0.888251
0.283531 -0.123695 0.312752 0.999958 0.00806274 -0.00436201
-0.401403 0.106463 0.104843 -0.972424 0.0201186 0.232349
-0.458452 -0.16794 0.204353 -0.870145 -0.0969236 0.48317
-0.270536 0.185427 -0.222348 0.00256661 0.998646 -0.0519557
0.437352 0.0606206 0.205283 -0.0814732 0.0264889 0.996323
0.31286 0.184284 -0.225775 0.0523973 0.998243 -0.0276781
0.308346 0.182737 -0.145005 -0.00724348 0.999737 0.0217523
-0.472882 0.178483 -0.0874583 -0.149004 -0.0248285 -0.988525
0.0808726 0.182443 0.491842 0.961401 0.00201615 0.275144
-0.0890102 -0.180245 0.191274 -0.00697417 -0.999908 0.0116564
0.140471 0.0315174 -0.411583 -0.897745 -0.00771468 -0.440448
-0.0574912 0.184106 -0.483714 -0.0287814 0.99956 0.00722595
0.107252 0.0435165 0.403473 0.27443 -0.00700187 0.961582
-0.130203 0.10741 -0.402361 0.644279 5.80804e-05 -0.764791
0.0794432 -0.110979 -0.496072 0.186429 -0.0110062 -0.982407
-0.193652 0.05792 -0.386198 -0.979371 0.0403447 0.198003
0.0815451 -0.182014 -0.492998 0.949555 0.0192993 -0.313007
-0.0184956 0.141603 0.159547 0.461266 0.0470898 -0.886011
0.401091 -0.0479882 -0.302557 0.791884 0.0321283 -0.609825
-0.495378 0.104624 0.0751955 -0.986732 -0.0286082 0.15982
0.18848 0.184591 -0.0471472 -0.0743244 0.99653 0.0374664
-0.384605 -0.0830785 -0.191505 0.206598 -0.0154278 -0.978304
-0.40416 -0.0302037 -0.0962704 -0.942305 0.00932382 -0.334625
0.463289 -0.182705 -0.174203 -0.00430023 -0.999991 0.000220944
-0.192587 -0.188361 -0.0111397 -0.996121 0.0269398 -0.0837735
0.220748 -0.181214 0.353607 0.12288 0.107113 0.986624
-0.0885868 0.0118959 0.443785 -0.99809 -0.0535078 -0.0308679
0.0884102 0.0726975 -0.433287 0.987599 -0.010315 0.156657
0.123607 -0.19224 -0.131437 -0.00840357 -0.999946 0.00614588
0.096177 -0.0513952 0.405506 0.451008 -0.0101449 0.892462
-0.386974 0.114499 0.194354 0.276308 0.000244636 0.961069
0.360429 0.118318 -0.237849 0.680789 -0.00235556 0.732476
0.300827 -0.181848 0.400609 0.586942 0.00540867 0.809611
-0.193187 -0.0146926 -0.383718 -0.98189 -0.00473977 0.189392
0.213057 0.182577 -0.258175 0.00839667 0.999949 -0.0055534
-0.483367 -0.028756 -0.0834101 -0.213833 -0.0264812 -0.976511
0.190947 -0.0647825 0.384587 0.989141 -0.0586062 -0.134781
-0.302995 -0.0438789 0.400104 -0.603106 0.0258398 0.797242
0.147175 -0.18658 0.194473 0.0390123 -0.99859 -0.0360044
0.0496217 0.115769 0.138625 -0.476675 -0.0131746 -0.878981
-0.283575 -0.0329607 0.313314 -0.994625 0.0489857 -0.0912211
0.300964 0.0221255 0.286744 0.575605 0.0671926 0.814963
-0.146604 -0.189303 -0.0610974 0.999527 0.0303551 -0.00498603
-0.110479 0.00509879 -0.400047 -0.30586 0.0127667 -0.951991
-0.0354991 0.176989 -0.15057 0.517272 -0.0072344 0.855791
0.146166 0.0991236 -0.0381366 -0.999368 -0.0270315 0.0231008
-0.397949 0.183277 -0.103452 -0.0347169 0.999016 0.0275846
-0.399994 0.0264927 0.112852 -0.962849 -0.0181125 0.269432
-0.399655 0.0372806 -0.114633 -0.942896 -0.00307765 -0.333074
0.0459654 -0.191694 0.143515 0.00937705 -0.999777 -0.0189424
0.00115211 -0.183765 0.392256 -0.0092105 -0.99987 0.0132707
0.18724 -0.0427471 0.465899 0.370681 -0.0131358 0.928667
-0.455115 0.0245275 0.162483 -0.69645 -0.0344513 -0.716778
0.165193 -0.183405 0.284872 -0.00674398 -0.999946 0.00793077
-0.118384 0.078823 0.398962 -0.214304 -0.000723964 0.976767
0.453869 -0.029581 -0.207393 0.0132053 0.018776 -0.999737
0.0624884 -0.00657462 -0.132821 -0.551608 0.075993 0.830634
0.282477 -0.14788 -0.314006 0.984226 0.0347614 0.173469
-0.252522 0.119045 -0.380212 0.728747 0.00426296 -0.68477
-0.0224898 0.0491129 -0.422473 0.857385 -0.0133738 -0.514501
-0.360483 -0.0571146 0.206771 -0.84453 -0.0499837 0.533171
-0.205801 -0.164349 0.450446 -0.999719 0.0142967 -0.018932
0.195721 -0.0157101 -0.368809 0.839907 -0.00307433 -0.542721
-0.409167 0.183474 0.0644058 -0.000416432 0.999603 0.0281731
0.306383 0.184328 0.098257 0.00419856 0.999675 -0.0251485
0.177804 -0.191959 -0.0536211 -0.032393 -0.99917 0.0247017
-0.10287 0.129658 0.110732 0.46367 0.0138298 -0.8859
0.284167 0.0170165 -0.30359 0.879065 -0.00189489 -0.476699
0.127881 0.14729 -0.0951654 -0.552275 0.0511508 0.832091
0.285492 0.185078 0.00105434 -0.0326416 0.99706 0.0693176
-0.138767 -0.182757 -0.338791 0.0426805 -0.998869 -0.0209346
-0.24406 0.183498 -0.336968 -0.0203344 0.999638 0.0176299
0.148751 0.126897 0.074546 -0.999717 0.0178204 -0.0157493
-0.147171 -0.0907382 -0.0759602 0.9991 0.0350487 -0.023906
0.253391 0.180126 0.37997 -0.700381 0.0037679 0.713759
-0.204137 0.170633 -0.460581 -0.394191 -0.00657218 -0.919005
0.496774 0.169444 -0.0757535 0.992157 -0.0512588 -0.114009
-0.394124 0.183542 -0.0181563 0.011977 0.999918 -0.00457702
0.405912 -0.114007 -0.201949 -0.32538 0.021072 -0.945349
0.363765 0.0271529 -0.310164 -0.387392 -0.0208027 -0.92168
0.0250906 0.182402 -0.334381 -0.0169497 0.999417 0.029652
-0.40542 0.0957563 -0.29197 -0.877218 0.00441029 0.480073
0.279862 -0.182273 -0.390113 -0.0177384 -0.999833 0.00433057
0.0243673 -0.183067 -0.34078 -0.0068348 -0.999913 0.0112946
0.495967 -0.00898562 -0.0756605 0.98893 -0.0536821 -0.138333
-0.353729 0.0200696 0.221702 -0.995794 0.0100709 0.0910643
0.314432 -0.0401535 -0.376003 0.968627 0.0108759 0.24828
0.200989 0.182787 -0.144352 0.00695007 0.999907 -0.0117215
-0.363975 0.158557 -0.311781 0.362408 0.00166951 -0.932018
0.42358 0.183754 -0.192235 0.00151413 0.999993 -0.00331971
-0.110102 0.182627 0.369071 0.0137914 0.999245 -0.0363276
0.465955 -0.173856 0.187835 0.936097 0.00206078 0.351736
-0.0795988 0.0460663 -0.123013 0.511204 -0.0393898 0.858556
0.14575 -0.0454672 0.00166677 -0.998407 0.0485259 -0.0287796
0.051443 0.174519 -0.500944 0.123063 -0.00683234 -0.992375
0.0579483 0.184351 0.252084 -0.0743462 0.996751 0.0309849
-0.0163009 0.0096385 -0.158624 0.471649 0.00764846 0.881753
-0.108672 0.182681 -0.192879 -0.0220151 0.99973 0.00742831
-0.248736 -0.12062 0.373761 0.833021 -0.0469941 0.551242
0.154162 0.190201 0.114136 0.811543 -0.0189634 0.583985
-0.31936 0.183159 -0.0560975 0.0166843 0.999808 -0.0102625
-0.415498 -0.182835 -0.0836317 0.00683722 -0.999955 -0.00663149
0.151872 -0.183495 -0.27784 0.0246646 -0.999304 -0.0279968
-0.203197 -0.0827835 -0.362008 -0.499564 -6.38999e-05 -0.866277
-0.370235 -0.183598 -0.017355 -0.0382363 -0.999233 0.00845156
0.146185 0.0213387 -0.0315646 -0.999582 -0.0286208 0.00418111
0.236762 0.184402 0.131082 0.00853272 0.999608 -0.0266765
-0.468325 -0.00908803 -0.177305 -0.718492 -0.00377568 0.695525
0.0683715 0.183223 0.355147 -0.00132178 0.999508 0.0313328
