ply
format ascii 1.0
comment Created by Open3D
element vertex 400
property double x
property double y
property double z
property double nx
property double ny
property double nz
end_header
-0.178029 0.295963 0.166282 -0.00151438 0.999998 0.000958087
0.0946782 0.296362 -0.496896 0.0071411 0.999649 -0.0255006
0.068479 0.0609437 0.375031 0.00912126 -0.999957 -0.00176901
0.0578974 0.252548 -0.0386815 -0.966852 0.0364583 0.252722
0.11873 0.2984 -0.415748 -0.000418527 1 0.000762433
-0.0378944 0.178925 -0.370049 0.00568793 -0.999902 -0.0128241
0.178092 0.18381 -0.0915914 0.998549 -0.020137 0.0499444
-0.103878 -0.0733116 0.26201 0.0199175 -0.00156493 -0.9998
-0.058862 0.180086 -0.0232802 0.999735 0.00196489 0.0229532
0.00446245 0.128821 0.235956 -0.0191983 -0.891886 -0.451852
-0.105483 0.225698 0.392588 -0.026019 -0.0222003 -0.999415
-0.0201742 0.0593589 0.355056 -0.0732782 -0.997027 0.0238341
-0.114735 0.298136 -0.213696 -0.0312123 0.999479 0.00822823
-0.0876796 -0.158663 0.301007 0.00726516 -0.32174 -0.9468
-0.0227147 -0.0036845 0.414272 -0.00411936 0.908301 0.418297
0.178802 -0.0162877 0.328559 0.996698 0.0449237 -0.0676458
-0.0236027 -0.12047 0.304078 0.0231679 0.491715 -0.870448
-0.0610771 0.274965 0.0468347 0.998919 -0.0419858 0.0199432
0.0736024 0.261063 0.368579 -0.0465812 -0.968986 -0.242686
0.0186194 0.243083 -0.0805607 -0.310919 0.0889695 0.946263
0.0381172 0.191582 -0.500143 -0.0703635 0.0548165 -0.996014
-0.0558334 0.151504 0.186336 0.931299 -0.0119079 -0.36406
-0.059812 0.18653 0.0611364 0.99693 0.0748825 -0.0228679
0.0107481 -0.132577 0.191653 -0.0372522 0.178595 -0.983217
0.00126629 0.252029 0.383413 0.00494216 -0.676675 -0.736265
-0.058534 0.296185 0.178273 0.945866 0.0459427 -0.321291
-0.123063 0.297317 -0.0673893 -0.0162399 0.999806 0.0111238
-0.176327 0.297304 -0.304745 -0.0141973 0.999043 0.0413706
0.0612711 0.134847 -0.0238457 -0.997268 -0.048827 0.0554342
-0.178953 0.254219 0.308757 -0.999561 -0.0233207 0.018251
0.171428 0.132976 -0.0899487 0.0165665 -0.999758 -0.0144572
-0.070893 0.0417069 0.336808 0.999646 0.023087 -0.0132404
0.0251805 -0.239848 0.22478 0.00177605 -0.634386 -0.773014
-0.153867 -0.120839 0.36778 -0.994583 -0.016849 0.102574
-0.0589326 -0.0492138 0.455779 -0.997273 -0.0519495 0.0524253
0.0597273 0.235035 0.0201569 -0.997991 0.0463272 -0.0432209
0.0670475 0.203113 0.331054 0.0044001 0.708882 0.705314
-0.0593393 0.169876 0.133208 0.999559 0.0282714 -0.00906748
0.149053 0.131208 -0.393878 0.0552147 -0.996514 -0.0625344
-0.0615091 0.0602486 0.401116 -0.000399588 -1 0.000673303
0.177123 0.0145164 0.382198 0.999884 -0.00839413 0.0127361
0.180605 0.26038 -0.0688241 0.997329 -0.0358714 0.063627
-0.0889166 0.131749 0.0506257 -0.0384378 -0.998503 0.0389226
-0.174373 -0.226912 0.396433 0.000881415 -0.999999 -0.00116125
-0.16114 -0.0139123 0.263063 -0.0426272 0.0198137 -0.998895
0.00915771 0.0594255 0.413355 -0.0584587 -0.991875 0.112991
-0.00823494 0.173005 0.226543 0.0658677 0.00672343 -0.997806
0.134163 0.0905585 0.430199 -0.0223355 0.0103123 0.999697
-0.0593374 0.236401 -0.0320883 0.992341 0.000461732 0.123531
-0.178005 0.298399 -0.0073475 0.00377339 0.999985 -0.00400296
-0.126476 0.245276 -0.499064 -0.0294194 0.0146869 -0.999459
-0.17863 0.153927 -0.271093 -0.998418 0.0416279 -0.0377886
0.1679 -0.101328 0.261781 -0.017061 0.0204616 -0.999645
-0.056734 -0.294428 0.384173 -0.042961 -0.965837 0.255566
0.168956 0.297993 -0.498966 0.0569211 0.997081 -0.0508913
0.0883625 -0.167118 0.304268 0.0159171 0.468476 0.883333
-0.16003 0.131247 -0.315414 0.0114508 -0.999934 -0.000371253
-0.0834617 -0.158958 0.387759 0.0251366 0.324358 -0.9456
0.178424 0.0216447 0.267867 0.992769 0.00543734 -0.119919
0.177728 0.288219 0.221235 0.999683 -0.0217487 0.012681
-0.142724 0.132448 -0.213972 0.0536961 -0.998362 -0.0197429
0.00675913 0.0106603 0.339492 -0.051877 0.998651 0.00200057
-0.126167 0.131448 -0.260399 -0.046796 -0.998896 0.00409645
-0.15573 -0.176952 0.37797 0.0352021 0.663281 -0.747542
0.0453837 0.220184 0.392403 0.00818676 0.213327 -0.976946
0.061392 0.24195 0.0730902 -0.99816 0.0602761 -0.00666363
-0.0750377 0.210225 -0.500514 -0.0333004 0.0346599 -0.998844
-0.0715399 0.151005 -0.499979 0.0481515 -0.0385017 -0.998098
0.0517255 -0.196377 0.200649 -0.0199452 -0.342939 -0.939146
-0.177805 0.0027844 0.32986 -0.98874 -0.133008 0.0685654
0.058694 0.293497 -0.00621619 -0.998871 0.0474596 -0.00203025
-0.00684802 0.197647 0.377849 0.0586573 0.794126 -0.604916
-0.0609806 0.0737642 0.261954 -0.0325129 0.0486879 -0.998285
-0.012264 0.296607 -0.442988 -0.0257589 0.999435 0.0216111
0.178064 0.129596 0.0584519 0.999495 0.022991 -0.0219283
-0.178978 0.22734 -0.485929 -0.998305 -0.056903 0.0122375
-0.0470759 -0.188073 0.32856 -0.0093586 0.932493 0.361067
0.0603559 -0.0491337 0.314077 0.996737 0.0383076 -0.0710418
-0.0982273 0.297127 0.33098 -0.014782 0.999713 0.0188689
-0.176546 -0.225767 0.338078 0.0124308 -0.999844 -0.0125449
-0.0740202 0.269008 0.425299 0.0672642 0.352891 0.933244
-0.13087 0.28885 0.406262 -0.0356434 0.832738 0.552519
-0.0206952 0.297051 -0.28543 -0.0233074 0.998842 0.0420801
0.178811 0.181228 -0.471888 0.999376 0.0253707 -0.0245575
-0.00344091 -0.0509537 0.220251 -0.0623631 0.585838 -0.808025
0.0591724 0.146205 0.0395583 -0.999848 0.000458853 -0.0174103
-0.178451 0.066711 0.306521 -0.999987 0.00228252 -0.00465479
-0.178749 0.188008 0.0145597 -0.998885 -0.0419395 0.021676
0.176261 0.155242 -0.0444658 0.997334 -0.067711 0.0272124
-0.0285063 0.2979 0.238045 0.0365985 0.997522 -0.060092
-0.175728 0.130854 -0.376866 -0.00779227 -0.999866 0.0143865
-0.163763 0.132099 0.0213972 0.00900207 -0.999799 -0.0178955
0.055864 -0.0921997 0.491194 -0.0146287 0.318592 0.947779
0.15357 -0.147237 0.340665 0.999937 -0.008233 0.00765284
0.0601775 -0.172114 0.436795 0.999814 -0.0151513 0.0119017
-0.00312972 -0.147631 0.499211 0.0474481 -0.11125 0.992659
-0.159741 0.101372 0.42966 0.00840727 -0.0120793 0.999892
-0.0588418 -0.0316149 0.360346 -0.999952 -0.00758364 0.00624159
-0.17662 0.295807 0.266694 -0.0231313 0.999729 0.00259302
-0.00803684 0.0579837 0.276105 0.0414173 -0.998314 -0.0406683
0.079649 0.130838 0.139 0.0574634 -0.998283 -0.0113478
0.0992386 -0.171224 0.383342 0.00942623 -0.64005 0.768275
0.0993547 -0.105632 0.373558 0.0445474 -0.728907 -0.683161
0.177275 0.284428 -0.2157 0.999995 0.00213034 -0.00219152
0.178005 0.224549 -0.4988 -0.0127756 0.0170645 -0.999773
0.132308 -0.149467 0.262032 -0.0710571 0.0730132 -0.994796
0.0735778 0.297906 -0.161813 0.0789837 0.99585 -0.04521
-0.0708616 0.13065 -0.0814939 -0.00517417 -0.99992 0.0115063
-0.178805 0.237878 -0.253497 -0.999956 0.00852396 -0.00379506
-0.116428 0.182555 -0.501809 0.0275612 -0.00333823 -0.999615
0.0551403 -0.298856 0.358494 0.0366813 -0.997895 0.0534846
0.176651 0.130557 0.173872 -0.00593499 -0.99998 0.00203497
0.179817 0.265887 -0.412384 1 -0.000285811 0.000494063
-0.023604 0.294986 0.390922 0.0177944 0.991475 0.129079
0.0299531 0.29809 -0.117368 0.0247256 0.999201 -0.0313905
-0.0982352 -0.105273 0.429317 -0.0238157 0.0401998 0.998908
0.179709 0.245012 0.188213 0.995586 0.0932044 -0.0110346
0.104337 0.297606 0.33019 -0.025383 0.999067 0.0349428
-0.155378 -0.225009 0.26388 0.0132181 -0.999501 -0.0286774
0.178537 0.138568 -0.437451 0.994912 0.0968822 -0.0276371
0.1394 0.130596 -0.134089 -0.0276244 -0.998717 0.0424311
-0.106996 0.0356602 0.261964 0.0235474 -0.0417983 -0.998849
-0.147816 0.297148 -0.496971 0.0252031 0.999682 -2.38393e-05
0.179953 -0.141189 0.289445 0.997996 0.0453597 -0.0441239
-0.121519 0.130704 -0.358711 -0.0130322 -0.999442 0.0307425
0.0788778 0.0976946 0.428676 -0.0555671 0.0423631 0.997556
-0.151281 0.225431 0.428028 0.0129974 -0.0369168 0.999234
-0.122646 0.297311 -0.00518421 0.00475996 0.999691 -0.0243797
-0.0597581 -0.163552 0.438812 -0.99678 -0.0561277 0.0572601
0.0597467 -0.273389 0.284545 0.997241 -0.0593628 0.0445807
-0.0951902 0.219539 0.322291 -0.0750341 0.237792 0.968413
0.179111 0.29047 -0.313244 0.999944 0.0102367 -0.00276915
0.120743 0.296492 0.0483523 -0.0387805 0.99896 0.0239921
0.178679 -0.193496 0.337247 0.999452 0.0330979 -0.000628305
0.0491315 0.282785 0.414791 0.0108029 0.736528 0.676321
-0.00849535 -0.107819 0.378164 -0.0165181 0.689879 0.723737
0.00262686 -0.0820051 0.489042 -0.00850861 0.380484 0.924748
0.0167399 0.296286 0.280737 0.0591848 0.998242 -0.00331763
-0.177742 0.249117 0.0224587 -0.998935 -0.021302 0.0409335
0.0607591 0.297147 -0.294794 -0.0132206 0.999056 0.0413797
0.177882 0.233042 -0.113018 0.998205 6.59055e-05 -0.0598898
0.085913 0.214686 -0.50083 -0.0210277 0.0078242 -0.999748
0.0605493 0.289511 0.181603 -0.986827 -0.0364457 -0.157618
-0.0543193 -0.0970996 0.346025 -0.0151905 0.999195 0.0371331
-0.0339889 0.297948 -0.151934 0.0111958 0.999884 -0.0103717
0.178667 0.205872 -0.251105 0.997598 0.0266107 -0.063954
0.115289 -0.224252 0.37803 0.00182511 -0.999743 -0.0226108
-0.177244 0.294413 -0.215782 -0.999828 0.0149997 -0.0108679
0.0121551 0.130527 -0.224643 0.031581 -0.997404 -0.0647152
-0.115218 0.131063 0.179803 -0.0125907 -0.999337 0.0341625
0.0566312 0.15831 -0.433955 -0.723007 -0.0303815 0.690172
-0.134129 0.19083 0.348268 -0.00964298 0.975671 0.219027
0.122984 0.132286 0.163738 -0.0282249 -0.99932 0.0237349
-0.0583176 -0.0376782 0.242846 -0.999869 0.0155335 -0.00447534
0.0613424 0.163889 -0.331453 -0.79905 -0.0410601 -0.59986
-0.177316 0.0518616 0.372298 -0.999371 -0.00518423 0.0350802
0.0302275 0.130328 -0.294807 0.0627642 -0.993789 -0.0918969
0.0598333 -0.115938 0.444246 0.999458 0.0118161 -0.0307373
-0.180314 0.296167 -0.446265 -0.996225 -0.0760277 0.0418881
-0.175378 0.0559718 0.427073 0.0117039 -0.0178999 0.999771
-0.056557 0.296171 -0.209619 0.00145968 0.999995 -0.00288894
0.105684 0.296556 -0.00900944 -0.000598093 0.999998 0.0017932
-0.175652 0.239125 0.0746486 -0.995861 0.0642313 -0.0643104
-0.0488376 0.177974 -0.438171 -0.00445842 -0.99996 0.00775479
0.176928 0.295395 -0.115643 0.996165 0.0822815 -0.029736
0.0907628 0.297913 -0.35426 0.032336 0.99778 -0.0582251
0.0573881 0.136492 0.185901 -0.942128 0.0198138 -0.334669
-0.0988871 0.100498 0.428463 0.0346213 -0.0045299 0.99939
0.155541 -0.224712 0.31588 -0.0082154 -0.999961 0.0032562
-0.176722 0.12369 0.321094 -0.999949 0.00928784 -0.00392973
0.165857 0.298553 0.139743 0.0113001 0.999313 -0.0352896
-0.167109 0.13052 -0.159856 0.00509198 -0.999959 -0.00742807
0.0366513 -0.174505 0.380036 0.0301414 0.643926 -0.764494
-0.178341 0.184827 0.390048 -0.999336 -0.0298663 0.0208612
-0.177382 -0.0911029 0.41579 -0.995318 0.0957099 -0.0134658
0.180248 0.200099 -0.384305 0.999203 -0.0297381 0.0266296
0.107823 0.130795 -0.458379 0.0516897 -0.996667 -0.0631073
-0.179479 0.15327 0.218593 -0.999069 0.0120976 -0.0414039
0.0238301 0.117978 0.430452 -0.0068541 0.0058211 0.99996
-0.178965 0.244508 0.229175 -0.99824 -0.0546063 0.0231495
-0.0575062 -0.153146 0.189557 -0.050038 -0.0718146 -0.996162
0.023684 0.256861 0.220047 -0.352431 0.00733025 -0.935809
0.0907549 -0.0072072 0.428296 0.0474914 -0.0212072 0.998646
0.0588687 -0.241769 0.344847 0.997876 -0.00808062 0.0646448
-0.0591764 -0.0492917 0.30743 -0.999919 -0.0046107 0.0118401
-0.104279 0.131346 -0.029741 0.0614593 -0.99652 -0.0563044
-0.177526 0.222603 -0.0761862 -0.994066 -0.0667172 0.0859207
0.126645 0.130676 0.0222528 0.00892395 -0.999923 -0.00866665
-0.0552648 0.254712 0.336545 -0.0262778 -0.783365 0.621007
0.178707 0.209835 0.262272 1 -0.000758435 0.000622037
0.105377 0.052719 0.427936 0.0251863 -0.0232806 0.999412
0.0634916 0.29696 0.0512671 0.00463462 0.999987 -0.00198447
0.0597432 0.191052 0.00809871 -0.999999 -0.00108509 0.000295609
0.123433 0.298421 -0.272781 -0.00851978 0.999918 0.00959943
0.179521 0.185335 -0.322387 0.999434 0.0268572 -0.0202808
-0.0283425 0.20827 0.326718 0.0122963 0.486335 0.873686
0.0759572 0.135036 -0.385722 -0.998878 0.015049 -0.0449079
-0.031608 0.17899 -0.317075 0.0344842 -0.996209 -0.0798634
0.0581107 -0.10412 0.205003 0.999672 0.00527949 -0.0250404
0.0449933 0.059598 0.308582 -0.0851867 -0.995394 0.0439737
0.180431 0.192055 0.179111 0.999875 0.00912699 -0.0129338
-0.0163964 0.132145 -0.467977 -0.0172722 -0.998844 0.0448674
-0.0420053 0.130104 -0.19539 0.00171222 -0.999995 -0.00257557
-0.106655 -0.017451 0.262855 0.0116996 -0.0439412 -0.998966
0.0555208 -0.0430274 0.226558 0.0238576 0.650439 -0.759184
-0.045224 0.253079 0.20245 0.743249 0.00495132 -0.668996
-0.0115801 0.286382 -0.0812857 0.197582 8.20726e-05 0.980286
-0.00393897 0.134998 -0.0839295 0.120611 -0.080776 0.989408
0.177698 0.296498 0.0359529 -0.0111252 0.999814 0.0157718
-0.179151 0.18517 -0.135719 -0.999801 0.00197786 -0.0198706
-0.0779865 0.280109 -0.501738 0.0239245 -0.0623696 -0.997766
0.034286 0.247902 0.3293 -0.0553314 -0.533354 0.844081
-0.176227 0.176071 0.275852 -0.99714 0.062991 -0.0417584
0.0684618 0.297513 -0.22542 -0.0253179 0.996396 0.080953
-0.126575 0.297498 0.183444 -0.0218607 0.999648 0.0150475
-0.177947 0.215481 0.171765 -0.999513 -0.022023 0.022089
0.168794 0.0866729 0.258857 0.000164456 -0.0708446 -0.997487
0.178639 0.191429 -0.148676 0.999863 0.0105487 -0.0127912
-0.180977 0.183844 -0.351577 -0.999068 0.00855428 -0.0423006
-0.176763 0.178491 0.12292 -0.999041 -0.0291436 0.0326614
0.110981 0.12984 -0.182736 0.0263517 -0.995619 -0.089714
0.158732 0.131634 -0.493093 -0.022159 -0.997903 0.0608199
0.0355582 0.297468 -0.393006 0.0275355 0.999197 -0.0291011
0.161407 0.130397 -0.345512 0.000732553 -0.997055 -0.0766898
-0.135994 0.297112 -0.266558 -0.0433553 0.998953 0.0146242
-0.14026 0.29866 0.13393 0.00782066 0.999504 -0.0305029
-0.177527 -0.0966066 0.28097 -0.996907 -0.0760175 0.0199617
-0.00343869 0.178723 -0.448477 -0.00605131 -0.999623 0.0267661
-0.116897 -0.227409 0.354495 0.0446508 -0.998429 -0.0338547
0.179559 -0.0928879 0.422415 0.99928 0.0148319 -0.0349179
-0.17772 0.28381 -0.0724461 -0.999051 0.0404666 -0.0160804
-0.0713637 -0.0720758 0.387673 0.999461 0.0277798 -0.0175135
-0.00525569 0.298062 -0.244304 -0.0643632 0.994441 0.083335
-0.0539816 -0.210531 0.206391 0.00838487 -0.414231 -0.910133
0.124782 0.132164 0.0968814 -0.0170013 -0.999812 0.00934694
-0.0116549 0.190375 -0.500322 -0.00393364 0.0086158 -0.999955
0.137358 0.128839 -0.293283 -0.00271643 -0.99999 0.00363518
-0.0586923 -0.225492 0.424353 -0.999908 -0.00825051 0.0107889
-0.0385982 0.100142 0.428685 -0.0667725 0.053576 0.996329
0.137568 0.2781 0.284321 0.0101844 -0.00531906 0.999934
0.176231 -0.0188055 0.427111 -0.0584213 0.0499463 0.997042
-0.0539095 0.130466 -0.25504 0.0365935 -0.996413 -0.0763014
0.117569 0.132331 -0.0417541 -0.00854531 -0.999953 0.00449069
-0.174598 -0.154085 0.26249 -0.0632384 0.00435183 -0.997989
-0.0792389 0.29879 0.126257 0.0144294 0.999578 -0.025196
-0.179466 0.214733 -0.428386 -0.999984 0.00198248 -0.00526674
-0.178373 0.151184 -0.0556174 -0.997778 0.00883976 -0.0660385
0.100064 0.0797484 0.262377 -0.0626226 0.0292966 -0.997607
-0.109901 -0.157918 0.428281 0.00398092 -0.00348033 0.999986
-0.0591656 -0.106825 0.491858 -0.999848 0.0169298 -0.00413541
0.106762 0.206888 0.38473 0.0334148 0.573917 -0.818232
-0.109655 0.296925 -0.416343 0.00579904 0.999909 -0.0121705
-0.053929 -0.0910535 0.198238 -0.0212661 0.389049 -0.920972
0.17932 -0.18817 0.429183 0.0182504 -0.0129404 0.99975
-0.0694731 0.00265387 0.410427 0.999651 -0.0135128 0.0226879
0.0502664 -0.119657 0.387091 0.00208967 -0.488538 -0.87254
0.123431 0.297152 0.189203 -0.00176549 0.999998 0.0007307
-0.0607147 0.193827 0.372279 -0.0117457 0.902609 -0.430302
-0.106714 0.131319 -0.174439 -0.00234822 -0.997984 0.0634232
-0.00166806 -0.291838 0.302032 0.0242515 -0.949056 -0.314173
-0.106471 0.171591 0.429124 0.00186078 -0.0301643 0.999543
0.178638 0.181872 0.109555 0.998882 -0.0399309 0.0252848
-0.0969674 -0.225574 0.282279 0.0108557 -0.999222 -0.0379066
0.179385 0.154435 0.411136 0.996104 -0.0451578 0.075745
0.0606428 -0.254083 0.449743 0.99686 0.0303949 -0.073123
-0.178362 0.262867 0.124001 -0.998332 0.0568338 -0.0101666
-0.0613532 -0.152443 0.25037 -0.996906 0.0563601 -0.0547858
-0.109246 0.295636 0.244681 -0.00370307 0.99985 0.0169432
-0.0996474 0.298929 0.0739721 0.0534504 0.9982 -0.0271915
0.178061 0.293739 -0.362533 0.996732 0.0588219 -0.0553648
-0.176557 0.131857 0.163556 0.0245024 -0.999316 -0.0276839
0.122684 0.203776 0.287161 -0.0301813 0.041074 0.9987
0.0879801 0.297118 0.250029 -0.00451083 0.999737 0.0224914
-0.00539967 -0.00382829 0.273122 0.00550268 0.875823 -0.4826
0.123254 0.131161 -0.240081 -0.0683027 -0.994263 0.0823127
0.122193 0.0101598 0.262639 0.00237516 -0.0103034 -0.999944
-0.178312 0.19372 -0.201916 -0.998353 -0.0410582 0.0400733
-0.180288 0.232045 -0.177124 -0.999826 -0.015878 0.0097545
-0.097655 0.130468 0.10936 0.021769 -0.999745 -0.00598727
-0.0708591 0.298771 -0.0981043 0.0457259 0.997738 -0.0492658
-0.00303597 0.297096 0.337483 8.76279e-05 1 -0.000131142
0.177631 0.224247 -0.433295 0.997677 0.0511389 -0.0450129
-0.1539 0.0617785 0.260806 -0.0132929 5.34585e-05 -0.999912
0.179796 0.062756 0.420354 0.999668 0.00837089 -0.0243824
0.139505 -0.0485526 0.261829 0.0669908 -0.0735781 -0.995037
-0.179086 0.27369 -0.39337 -0.995933 0.0533934 -0.0725733
-0.128446 -0.175652 0.264682 0.0111987 -0.0139698 -0.99984
0.14181 0.296277 -0.0576083 0.0169887 0.999115 -0.0384744
0.17858 0.237388 -0.34901 0.99946 -0.0325067 0.00488852
0.0581017 0.113748 0.251566 0.00140135 -0.641118 -0.767441
-0.159119 0.1502 0.427924 -0.00178174 0.00555923 0.999983
-0.0297501 0.204319 -0.0755309 0.463796 0.0115741 0.885866
0.178917 0.15607 0.291825 0.997718 -0.00475502 0.0673526
0.178048 -0.194227 0.266873 0.999302 -0.0238242 0.0287722
-0.10062 0.131338 -0.412884 -0.00461691 -0.996858 0.0790726
0.0603909 0.00393798 0.316969 0.99828 0.0576253 -0.0108045
-0.0608934 -0.258475 0.246238 -0.998458 0.0385652 -0.0399225
0.0399649 -0.103633 0.321636 0.0574997 -0.864815 0.498788
-0.0589069 -0.10082 0.263839 -0.999431 -0.0156255 0.0298934
0.0711768 -0.026336 0.373557 -0.999841 0.00988552 -0.0148241
-0.179169 -0.0386444 0.369452 -0.999399 0.0336794 -0.00820468
0.104102 0.132062 -0.332504 -0.0186087 -0.99969 0.0165568
0.181303 0.210383 -0.0225273 0.999878 0.0127453 -0.0090447
-0.180275 0.202496 -0.297437 -0.996628 -0.0404506 0.0713906
0.177533 0.158802 -0.192615 0.999998 -0.00182725 9.69769e-05
0.00869449 0.296695 -0.191448 -0.0832164 0.994842 0.0580076
-0.109914 -0.0323946 0.428399 -0.000117839 0.00274787 0.999996
0.0597117 -0.148906 0.235675 0.999201 -0.0163396 0.0364852
-0.0587227 0.225505 0.104517 0.999258 -0.0384497 0.00216837
0.0591524 -0.217468 0.4048 0.99944 -0.0205878 0.0263905
0.0761573 0.299326 -0.0708468 0.000697553 0.999889 -0.0148698
-0.12811 0.130697 -0.108552 -0.0518452 -0.996566 0.0645556
-0.080988 0.29713 -0.284619 0.0304585 0.999533 -0.00256729
-0.178758 0.234688 -0.0221423 -0.999716 -0.0077883 0.0225444
0.121139 -0.22717 0.275028 0.0692177 -0.995799 -0.0599415
0.109239 -0.191585 0.428691 0.0373603 -0.032633 0.998769
-0.0692762 0.297811 -0.45713 -0.0190584 0.999815 0.00274952
0.123008 0.297332 -0.201918 0.00222035 0.999973 -0.0070029
-0.00794086 0.13112 -0.136616 0.000208043 -0.99949 -0.0319348
0.179156 0.0544645 0.343184 0.999323 -0.0314284 0.0191003
-0.110946 -0.0962693 0.329165 -0.0491575 -0.899236 0.434694
0.139265 0.129989 0.22396 0.00133347 -0.979191 -0.202938
0.179867 0.126728 0.341512 0.999246 -0.00347504 0.0386785
0.178508 0.259627 -0.163444 0.99977 -0.0152444 0.0150838
0.0130803 0.299485 -0.33914 0.068345 0.997415 -0.0221685
-0.0857268 0.128844 0.232857 0.0120151 -0.904533 -0.426233
0.0255959 -0.180666 0.318415 -0.00380568 0.853607 0.520904
0.113867 -0.107411 0.314255 0.0780336 -0.787525 0.611322
0.0231751 0.180508 0.429832 0.0698369 -0.0295802 0.99712
0.057634 0.257559 -0.500655 0.0284598 -0.0111509 -0.999533
0.156494 -0.0965227 0.361432 0.0295733 -0.952297 -0.303736
0.126803 0.179163 -0.500595 0.0530283 -0.0292346 -0.998165
-0.17857 0.296385 -0.137154 -0.999999 0.00037843 -0.00132124
-0.178174 0.284561 0.383262 -0.999895 0.00119184 -0.0144359
0.112214 0.154571 0.358526 -0.0198259 0.998732 0.046269
-0.055308 0.298386 0.286073 -0.0605828 0.997988 0.018696
0.178937 -0.0875698 0.305646 1 -0.000233367 0.000371748
-0.176628 -0.159743 0.429496 -0.994558 0.0339717 -0.0984925
0.0589646 -0.220175 0.277617 0.996589 -0.0820272 0.00903214
0.00986109 -0.285897 0.404493 0.0386118 -0.926399 0.374558
-0.179148 0.163759 -0.498781 -0.000574216 0.000148562 -1
0.0726782 0.299378 0.120434 -0.0320368 0.999091 0.0281349
0.0607675 0.211946 0.122685 -0.998758 0.0313678 -0.038707
-0.058242 -0.270802 0.303576 -0.999208 -0.0384709 0.0102027
-0.00864833 0.277768 -0.500386 -0.0090203 0.00124612 -0.999959
-0.0177711 -0.253085 0.454213 0.0348914 -0.735878 0.676214
-0.0638452 0.147265 -0.3393 0.8525 0.00456408 -0.522707
0.00290225 -0.0396312 0.459913 -0.0300418 0.675712 0.736553
-0.0273726 0.153892 0.428198 0.0705943 -0.0809965 0.994211
-0.0586802 0.133949 -0.00507822 0.999421 -0.0340166 0.000139924
-0.152953 -0.171193 0.320022 -0.991786 -0.0766722 -0.102382
0.0872331 -0.0967696 0.262537 -0.0261227 0.0285652 -0.999251
0.119031 0.298941 -0.120993 0.0505451 0.998356 -0.0270452
-0.0545413 0.209328 0.429322 0.0486622 -0.0127511 0.998734
-0.178883 -0.0105051 0.422759 -0.99961 -0.0161452 0.0227906
-0.17868 0.109921 0.263043 -1 -3.12716e-05 9.55142e-06
-0.179437 0.145786 -0.430074 -1 9.00904e-05 -8.31289e-05
0.177041 0.24547 -0.297207 0.999994 -0.00193484 0.00278123
-0.177949 0.246841 -0.326604 -0.999976 -0.00253588 0.0064761
0.0538138 0.130972 -0.14512 0.0796558 -0.994378 -0.0697663
-0.114334 0.29804 -0.159292 0.0432339 0.998414 -0.0360517
0.178095 -0.220107 0.387414 1 -0.000325625 0.00028772
0.125284 -0.129469 0.429491 -0.0368155 0.0862442 0.995594
0.0281831 0.177676 -0.390972 -0.00946239 -0.999953 0.00191986
0.177916 0.244718 0.105024 0.999123 -0.0365803 0.0203869
-0.059267 0.217324 0.171277 0.995825 -0.0547238 -0.0730582
-0.17914 0.195881 0.320578 -0.997857 -0.0403348 0.0515273
-0.178274 0.118174 0.37729 -0.999224 0.0293852 -0.0262266
0.0543451 0.296418 -0.45057 -0.0490098 0.998766 0.00803824
0.0694718 0.132359 -0.500575 0.0749261 -0.0260684 -0.996848
-0.176278 0.296898 0.0557398 -0.00252568 0.999872 0.0157813
0.0529143 -0.146593 0.499615 -0.0472637 -0.0227623 0.998623
0.0625977 0.131154 -0.080406 0.00599054 -0.999957 -0.00706059
0.0493809 0.17652 -0.0564589 -0.811925 -0.00202586 0.583758
-0.129913 0.132483 -0.473428 -0.00546923 -0.99911 0.0418315
-0.00810397 -0.297915 0.354323 -0.0213747 -0.998359 0.0531307
-0.129184 0.114428 0.250295 0.00757573 -0.640971 -0.767528
0.0591347 0.154334 0.0935072 -0.996808 -0.0123745 0.0788755
0.0641742 0.131001 -0.255076 0.0054002 -0.999983 -0.00210792
-0.0724551 0.131054 -0.134794 -0.0258862 -0.999567 0.0139854
-0.12257 -0.21645 0.42707 0.0492672 -0.0258921 0.99845
0.105617 0.15949 0.427219 0.999868 0.0140189 -0.00821232
-0.0302864 0.297461 -0.389572 0.00541842 0.999978 -0.00388423
-0.148717 0.131375 0.0854784 -0.01163 -0.99992 0.0050732
-0.135786 0.261419 0.352107 -0.00990041 -0.998544 0.0530281
0.108759 0.276662 0.414069 0.999436 -0.033292 0.00449315
0.0368922 -0.00360832 0.415502 -0.00256542 0.899256 0.437416
-0.0596522 -0.235713 0.36033 -0.999966 0.00820496 -0.00121996
0.165932 -0.148619 0.390731 0.000118555 0.124209 -0.992256
-0.105499 0.29668 -0.343864 -0.016106 0.999854 0.00568011
-0.108363 0.0550428 0.429696 -0.03665 0.017291 0.999179
-0.0505802 -0.186377 0.493089 -0.0627252 -0.24368 0.967825
-0.0146869 0.259122 0.427124 0.0776796 0.165918 0.983075
0.179013 0.225994 0.04585 0.999534 -0.0254849 0.0167726
0.0623961 -0.0520218 0.441343 0.993211 0.0957977 -0.0659932
0.0211978 -0.213813 0.483696 0.00931032 -0.46743 0.883981
-0.0708791 0.298233 -0.0212878 0.0428563 0.998553 -0.0324988
0.179147 0.16714 0.0136549 0.996448 0.0677129 -0.0500551
0.080033 0.220783 0.429327 0.00277438 -0.000692894 0.999996
-0.0188517 -0.174149 0.383964 0.0571894 0.613379 -0.787716
