ply
format ascii 1.0
comment Created by Open3D
element vertex 400
property double x
property double y
property double z
property double nx
property double ny
property double nz
end_header
-0.328801 -0.0263189 0.415525 -0.376321 -0.11409 0.919438
-0.455284 -0.115508 0.0621491 -0.835499 -0.519876 -0.177961
0.359767 0.200226 0.0452888 0.423313 0.866889 -0.263267
-0.34188 -0.169812 0.32352 -0.377229 -0.737222 0.560537
0.293434 -0.0723781 0.417609 0.29187 -0.283138 0.913589
-0.297889 -0.217457 0.034492 -0.273177 -0.921052 -0.277558
-0.494998 -0.0198106 0.188076 -0.990727 0.0126362 0.135276
0.00503583 -0.0957525 0.342217 -0.629831 -0.385441 0.67435
0.0601044 0.20776 0.245829 -0.296974 0.895627 0.331147
0.391642 -0.0785117 -0.0652284 0.629995 -0.29774 -0.717257
-0.201505 0.180076 -0.146103 -0.409846 0.781697 -0.47008
-0.0446542 -0.00897595 -0.403863 -0.69813 -0.0233428 -0.71559
0.164015 0.23104 -0.0303447 0.126628 0.978989 -0.159832
0.322615 -0.19334 -0.00756988 0.356777 -0.848185 -0.391525
-0.0953341 0.107179 -0.31888 -0.655814 0.445997 -0.609094
-0.0824283 -0.203142 0.281099 0.360297 -0.873378 0.327716
0.0866971 -0.0750814 0.405968 -0.418051 -0.329957 0.846381
-0.109054 0.209809 0.283542 0.259864 0.916428 0.304353
0.251612 -0.219014 0.287425 0.119993 -0.931492 0.343402
-0.0682185 0.221461 -0.168626 -0.185404 0.950174 -0.250587
-0.252361 -0.232628 0.135389 -0.0320845 -0.999103 0.0276253
0.0800196 -0.230367 0.174485 -0.0956002 -0.989538 0.108054
-0.23074 -0.226273 0.261443 -0.00242872 -0.988673 0.150068
-0.354682 0.215701 0.15078 -0.364808 0.93101 0.0116783
0.185 -0.229027 0.244693 0.0374798 -0.996461 0.0752357
0.298524 0.219966 0.0418648 0.220133 0.948235 -0.228893
-0.338628 0.102605 -0.10065 -0.626508 0.468207 -0.623114
0.419533 -0.155206 0.0457179 0.6834 -0.662216 -0.307301
-0.187794 -0.231154 0.0756716 -0.0282003 -0.999399 0.0201493
-0.234174 0.138777 -0.165662 -0.521045 0.59466 -0.612284
0.461805 0.0545555 0.277336 0.889515 0.266453 0.371167
0.394286 0.144997 -0.0107557 0.554083 0.669641 -0.494543
0.00285786 -0.00582577 0.370135 -0.671887 0.0396284 0.739593
0.240733 -0.050366 0.435951 0.140563 -0.210539 0.967427
-0.297229 0.0242941 -0.168822 -0.678368 0.0860631 -0.729664
-0.113791 -0.11727 -0.296079 -0.585018 -0.509017 -0.631392
-0.0342099 0.233462 -0.126191 0.0738571 0.989962 -0.120503
0.258639 0.0224296 -0.207961 0.648357 0.126109 -0.75082
0.148086 -0.114976 0.407247 -0.184201 -0.479601 0.857935
-0.241679 0.234093 0.176686 -0.0006223 0.999999 0.00138463
0.157168 0.18033 0.354768 -0.139784 0.765466 0.62811
-0.204221 -0.20744 0.314627 -0.0160873 -0.889655 0.456351
0.420397 0.176235 0.133755 0.612647 0.785163 -0.0904572
0.129566 -0.0805974 -0.305752 0.624623 -0.29922 -0.721328
0.244332 -0.228161 0.0331816 0.141219 -0.9816 -0.128523
-0.0635996 0.19683 -0.240059 -0.330037 0.842569 -0.42562
0.160937 -0.215708 0.295978 -0.0728101 -0.934612 0.348137
0.289911 -0.0868462 -0.155914 0.626922 -0.362196 -0.68977
-0.423999 0.0310877 0.341737 -0.719351 0.127585 0.682829
-0.255693 -0.0021735 -0.209434 -0.658022 0.0117143 -0.752907
0.157303 -0.229037 -0.0351811 0.14685 -0.968916 -0.199092
0.48022 -0.0757186 0.212532 0.909894 -0.346875 0.227532
-0.323926 -0.0211638 -0.146008 -0.678033 -0.104207 -0.727607
-0.0524443 -0.142083 0.344995 0.466873 -0.607108 0.643
0.167805 -0.233993 0.108572 -0.0492065 -0.998555 0.02158
0.265626 0.129112 -0.145262 0.587621 0.534215 -0.607713
-0.0311142 0.158972 0.306973 0.548593 0.657166 0.516893
-0.203879 0.057902 0.438125 0.025684 0.321413 0.946591
-0.481856 -0.0862827 0.18555 -0.927059 -0.363869 0.0903335
0.0873619 0.0441123 -0.359493 0.667134 0.191729 -0.719842
0.483071 0.0804044 0.117016 0.945178 0.293219 -0.14374
0.220727 0.176992 -0.131776 0.44726 0.749012 -0.488815
0.209196 0.230965 0.0986413 -0.011447 0.999819 0.0151677
0.301442 0.0137227 0.425462 0.32377 0.0514318 0.944737
0.0194709 -0.129209 -0.374852 0.566561 -0.541354 -0.621244
0.270463 -0.0328781 -0.194577 0.697792 -0.1827 -0.692609
0.494306 -0.0252548 0.106948 0.992979 -0.115154 -0.0270622
0.182791 0.206477 0.316849 -0.0458337 0.912331 0.406881
0.0687823 -0.221154 -0.167541 0.206071 -0.954979 -0.213426
-0.270454 -0.229759 0.210932 -0.0762446 -0.993212 0.0878448
-0.34299 0.167538 -0.0317834 -0.52719 0.691644 -0.49366
0.0742727 -0.232733 -0.0189013 -0.00303519 -0.999964 0.00790076
0.467113 -0.117383 0.162285 0.862252 -0.50648 -3.70451e-05
-0.0620301 0.230744 0.143921 0.0774317 0.992481 0.0947899
-0.113894 -0.203759 -0.177001 -0.375275 -0.864063 -0.335506
-0.0837677 -0.0914743 -0.343553 -0.637785 -0.388775 -0.664894
-0.418492 0.10147 -0.0212982 -0.69925 0.429193 -0.571702
0.0730188 0.229712 0.157461 -0.0621968 0.996197 0.0610243
-0.0553798 0.233524 -0.0722244 -0.0260311 0.999388 0.023364
-0.0522816 0.200462 0.254996 0.365718 0.858411 0.359696
0.127707 -0.0310119 0.432931 -0.348937 -0.112814 0.930331
0.000588301 -0.231523 -0.0781864 -0.0445679 -0.996299 0.0734924
0.110462 -0.171828 -0.236201 0.453539 -0.741046 -0.495129
-0.0748535 0.232053 0.0767072 -0.0334324 0.999351 0.0133783
-0.0494318 -0.0699137 -0.38403 -0.541802 -0.307239 -0.78234
0.157842 0.220594 -0.0842409 0.213507 0.95013 -0.227307
-0.24702 -0.00855541 0.438017 -0.091845 -0.0650437 0.993647
0.181296 -0.231445 0.0439798 -0.0411167 -0.999099 0.0105577
-0.456049 -0.126878 0.205561 -0.785461 -0.584462 0.203604
-0.3178 -0.185327 -0.0269778 -0.380574 -0.827963 -0.411874
0.152641 0.223575 0.268124 -0.100004 0.962129 0.253587
0.209191 0.0750738 0.430927 0.0458664 0.467932 0.882574
-0.165464 -0.129973 -0.239282 -0.4974 -0.634908 -0.591172
-0.0309761 0.182406 -0.301616 -0.422562 0.781561 -0.458917
0.438759 0.150308 0.0912698 0.740971 0.656539 -0.141135
0.107947 0.226842 0.209817 -0.0938288 0.9899 0.106274
0.084047 0.232679 0.00710776 -0.0650637 0.996497 0.0525333
-0.267671 0.233211 0.119215 -0.00761865 0.999524 -0.0298838
-0.0964062 0.0249646 -0.355022 -0.680441 0.108497 -0.724727
-0.362269 0.152835 0.320753 -0.486623 0.714092 0.503261
-0.0327483 -0.214221 0.201383 0.282205 -0.912789 0.295258
-0.464227 0.00568066 0.00604031 -0.87137 0.043898 -0.488658
-0.489549 0.0708655 0.156302 -0.953392 0.301383 0.014564
-0.289004 0.204103 -0.0127843 -0.318421 0.887242 -0.33378
-0.176268 -0.209285 -0.10224 -0.341353 -0.899428 -0.27296
-0.223678 -0.113695 0.412784 -0.0867393 -0.467267 0.879851
0.304973 0.115878 0.394052 0.310596 0.488929 0.815155
0.246678 0.189986 0.33866 0.125786 0.820799 0.557196
-0.26392 0.0955066 0.414687 -0.266385 0.446205 0.854365
-0.172311 -0.175759 -0.17773 -0.413706 -0.790795 -0.451099
-0.420938 -0.0617834 -0.0442963 -0.739168 -0.240285 -0.629201
0.0222996 0.213154 -0.231714 0.289172 0.908155 -0.302712
0.450352 -0.13167 0.221066 0.75212 -0.59318 0.287148
0.384173 0.0714663 0.364653 0.645097 0.262368 0.717644
0.140021 -0.232383 0.156785 0.000520198 -0.998858 -0.0477689
0.318627 0.104518 -0.118322 0.602761 0.439117 -0.666224
0.180318 0.147344 -0.207649 0.523403 0.630187 -0.57351
0.311389 -0.160011 -0.0690562 0.492952 -0.68619 -0.534921
-0.0637852 -0.233416 -0.0847015 -0.0106495 -0.999746 -0.0198685
0.370771 -0.192144 0.0449723 0.433797 -0.86126 -0.264672
-0.45511 -0.0299692 0.297509 -0.849235 -0.126537 0.51263
-0.24226 0.0713763 -0.20686 -0.669148 0.32348 -0.669031
-0.0982116 -0.184103 -0.230016 -0.444288 -0.763335 -0.468966
0.161924 0.052331 -0.292113 0.530305 0.270405 -0.803528
0.152091 -0.00117537 -0.303634 0.6676 -0.00496132 -0.744504
0.200152 0.232949 0.222231 -0.0166424 0.995614 0.0920645
-0.141823 0.0244682 0.437977 0.119743 0.13705 0.9833
0.0162065 0.209472 0.205753 -0.242478 0.944055 0.223528
-0.21564 -0.0744834 -0.228287 -0.637079 -0.323829 -0.699475
-0.114122 -0.231974 0.114355 -0.0161547 -0.99953 0.026072
-0.355329 -0.193691 0.0263885 -0.432421 -0.838763 -0.330891
0.415279 0.173899 0.196218 0.517039 0.848056 0.116069
0.0450815 0.230688 -0.116383 0.0441753 0.997647 -0.0524383
-0.413132 0.180338 0.148407 -0.626462 0.777124 0.0601958
0.233608 -0.155095 0.383021 0.103074 -0.691161 0.715313
0.269114 -0.183962 0.341846 0.259478 -0.78909 0.556784
-0.172412 -0.0420989 0.438365 0.0829982 -0.173664 0.981301
0.222931 -0.206579 -0.069355 0.337175 -0.873637 -0.350814
0.369234 0.187154 0.264773 0.568353 0.738341 0.36308
-0.337579 -0.201672 0.262405 -0.437143 -0.845411 0.306898
-0.176001 0.16566 -0.186865 -0.463638 0.709115 -0.531221
-0.441208 -0.100709 0.00710453 -0.765765 -0.45353 -0.455976
-0.108159 0.226569 -0.0977891 -0.184123 0.971509 -0.149229
0.415538 -0.0527566 0.342787 0.654139 -0.332162 0.679537
0.0579998 -0.117585 0.369812 -0.444221 -0.532603 0.720418
-0.244323 0.229859 0.240809 0.0166885 0.989563 0.143133
-0.17386 0.0680749 -0.271185 -0.649735 0.294578 -0.700763
-0.0920789 -0.229998 0.180775 0.0938151 -0.979423 0.178685
0.00575196 -0.0594692 -0.429771 0.664406 -0.275903 -0.69458
-0.294039 0.122774 -0.125816 -0.566349 0.525793 -0.634658
0.162422 -0.158569 0.375382 -0.112876 -0.686175 0.718626
0.0879122 -0.169045 0.339831 -0.405348 -0.694028 0.594994
-0.144848 -0.231487 0.0295762 -0.00876749 -0.999898 0.0112385
0.0541297 0.232698 -0.0453466 0.0126837 0.999356 -0.0335614
-0.169738 0.232314 0.0364448 -0.0116804 0.999905 0.00734692
0.335957 0.0592292 0.402778 0.483404 0.243701 0.840791
-0.39425 -0.0286077 0.370871 -0.672488 -0.123628 0.72971
0.315511 -0.216691 0.0462411 0.291323 -0.915956 -0.275963
-0.13622 0.163742 -0.229485 -0.471576 0.715979 -0.514773
0.180269 -0.0559729 -0.268798 0.643234 -0.210713 -0.736104
-0.00867291 0.231718 -0.0393639 0.00514655 0.999974 -0.00499552
0.0819201 -0.232729 0.11409 -0.00738268 -0.999971 0.00165996
0.259707 0.183421 -0.0829584 0.416333 0.785102 -0.458564
-0.0963618 0.166931 0.345419 0.316612 0.700347 0.639743
0.107284 0.0579735 0.4197 -0.312976 0.253336 0.915351
-0.0424767 -0.216979 -0.201851 -0.279142 -0.933334 -0.225759
0.481457 -0.0862717 0.114248 0.932737 -0.320247 -0.165662
0.0895407 -0.019177 -0.360982 0.66852 -0.0701172 -0.740382
-0.3831 -0.19964 0.168925 -0.464619 -0.885346 0.0170859
-0.431828 0.00875109 -0.0440151 -0.792294 0.0429757 -0.608625
-0.419032 0.168838 0.209006 -0.667934 0.708016 0.229298
0.00670837 -0.217324 0.163695 -0.245761 -0.933887 0.259723
0.3034 -0.132117 0.381453 0.299109 -0.524675 0.797026
-0.369226 0.125583 -0.0559007 -0.597341 0.528841 -0.602919
0.120677 -0.232927 0.00900714 0.0378156 -0.996732 -0.0713811
0.353155 -0.160638 0.326525 0.410219 -0.689168 0.5973
0.0481374 -0.197467 -0.247906 0.328825 -0.89166 -0.311154
0.120546 -0.217108 -0.1325 0.281637 -0.912206 -0.297591
-0.389463 -0.106726 0.345941 -0.604584 -0.458265 0.651515
-0.196637 0.231507 0.20991 -0.0234805 0.999698 0.00723617
0.185114 -0.0114416 0.441482 -0.0772758 -0.0382922 0.996274
0.0377563 -0.204126 0.238903 -0.31401 -0.88106 0.353739
-0.36034 -0.0935547 -0.0867651 -0.625012 -0.387559 -0.677612
-0.269106 -0.129625 -0.146326 -0.552766 -0.549584 -0.626424
-0.0362183 0.0274768 0.390384 0.555146 0.117488 0.823414
-0.137313 0.233182 0.0936133 -0.00106856 0.999997 0.00210064
0.288193 0.233321 0.121716 0.0297285 0.999408 0.0173191
0.193951 -0.169318 -0.164803 0.443859 -0.719759 -0.533795
0.162079 -0.152022 -0.218765 0.546752 -0.572992 -0.610527
0.0525997 0.179399 0.296541 -0.423985 0.794041 0.435587
0.0203548 0.118432 -0.38118 0.550889 0.552076 -0.625885
0.301881 -0.231881 0.151502 0.161172 -0.986533 0.0278675
-0.313939 -0.128752 -0.102245 -0.545918 -0.61066 -0.573645
-0.00731844 0.0658848 0.360582 0.596646 0.317439 0.737052
0.226253 -0.0380744 -0.22989 0.635517 -0.114267 -0.763584
0.149479 0.230635 0.0345911 -0.0120982 0.99937 0.0333753
0.400483 0.144663 0.290743 0.585135 0.669925 0.456966
0.244241 -0.0871117 -0.199573 0.550537 -0.360507 -0.752957
-0.132947 -0.22958 0.225062 0.0717993 -0.982881 0.169676
0.0578088 -0.140182 -0.328288 0.533935 -0.580869 -0.614415
-0.18988 -0.231506 0.225783 0.0761845 -0.995641 0.0538121
0.329101 0.188801 -0.00848409 0.426226 0.78487 -0.449789
-0.324191 0.223159 0.091733 -0.244746 0.962761 -0.114848
-0.280054 -0.0566436 0.425851 -0.328174 -0.207762 0.921486
-0.148651 0.203643 -0.144172 -0.320995 0.82964 -0.456794
0.107784 -0.222296 0.244058 -0.212108 -0.949694 0.230416
0.380836 -0.19443 0.217765 0.50023 -0.840182 0.209436
-0.275102 0.191332 0.329233 -0.231288 0.779369 0.582315
0.276779 0.222882 0.255045 0.182361 0.963353 0.196712
-0.415419 0.0989837 0.321669 -0.696446 0.442027 0.56531
-0.315743 -0.224804 0.176034 -0.236453 -0.970112 0.0545211
-0.409728 0.176694 0.0875072 -0.632557 0.746744 -0.205537
-0.2205 0.223401 -0.00732747 -0.239025 0.954616 -0.177696
0.450656 0.120119 0.238881 0.80388 0.52086 0.287196
0.213484 -0.1914 0.341991 0.0331511 -0.834409 0.550148
0.499283 0.0121223 0.161884 0.997373 0.0686066 -0.0232418
-0.152651 0.17619 0.355432 0.147117 0.738567 0.657933
0.298992 0.019043 -0.170002 0.68624 0.0446869 -0.726001
0.266145 -0.210557 -0.0120586 0.275371 -0.912306 -0.303097
0.106493 0.216801 -0.149327 0.237804 0.933366 -0.268844
0.446114 0.117815 0.0390192 0.800156 0.494497 -0.339445
-0.119778 -0.181074 0.339329 0.249662 -0.778389 0.576003
-0.0650835 0.0783587 -0.366671 -0.644117 0.34955 -0.680389
0.114322 -0.137837 -0.276181 0.547654 -0.606113 -0.576803
-0.217008 0.131296 0.402988 0.0842143 0.549666 0.831129
-0.0274969 0.0618729 -0.406622 -0.64532 0.259957 -0.71832
-0.218887 0.181435 0.355274 -0.0602036 0.813236 0.578811
-0.0575742 -0.164107 -0.299863 -0.446208 -0.720452 -0.530893
0.472819 0.065757 0.0434918 0.894987 0.296031 -0.333712
-0.274083 -0.209946 0.296778 -0.235377 -0.863127 0.446776
-0.0459498 -0.0494328 0.392378 0.517279 -0.172392 0.838274
-0.171811 0.00320357 -0.287031 -0.743104 0.0192411 -0.6689
-0.356397 -0.140993 -0.0516393 -0.550522 -0.583157 -0.597372
0.17429 -0.214069 -0.0904256 0.214511 -0.946751 -0.2401
-0.0805142 -0.232833 0.0538907 0.00983883 -0.999917 -0.00834254
0.0366075 -0.164774 0.303216 -0.42646 -0.768211 0.477477
-0.342343 0.0287661 -0.128028 -0.676787 0.145222 -0.721713
0.219797 0.21657 -0.0422395 0.212123 0.945326 -0.247716
0.406275 0.00151569 0.36196 0.724721 -0.0374448 0.688024
0.492431 0.0255392 0.0831138 0.977784 0.0826009 -0.192652
-0.122954 -0.231798 -0.0365589 -0.0975795 -0.99517 0.0107472
0.373956 -0.155563 -0.0221573 0.532042 -0.641787 -0.552306
-0.432932 -0.0741031 0.312123 -0.753209 -0.340564 0.562755
-0.140951 0.227965 0.222161 0.134228 0.990043 0.042392
-0.421382 -0.169873 0.0986133 -0.653618 -0.748076 -0.114741
-0.499361 0.00148759 0.133949 -0.998172 0.00390473 -0.0603154
-0.490059 0.0301098 0.207072 -0.966931 0.200792 0.157249
0.0484075 -0.232244 0.0540613 0.0154945 -0.999872 -0.0040798
0.322532 -0.0308473 -0.146536 0.66807 -0.152432 -0.728318
-0.163677 -0.121444 0.406933 0.140914 -0.519464 0.842793
0.244925 -0.108793 0.411883 0.130203 -0.480235 0.867422
-0.204734 0.233624 0.0994116 -0.0133147 0.999859 0.0102334
0.363481 0.211992 0.160329 0.470496 0.882308 -0.0128611
0.405041 0.164943 0.0410582 0.65637 0.703635 -0.27217
-0.490588 0.0265901 0.0758732 -0.969151 0.0862339 -0.230888
0.271865 0.204872 -0.0270361 0.300382 0.911377 -0.281358
-0.0413461 -0.197733 -0.256957 -0.365738 -0.846186 -0.387562
-0.36286 0.107658 0.364917 -0.515567 0.47451 0.713464
-0.106159 0.148188 -0.27233 -0.461631 0.643266 -0.610823
-0.0612972 0.100286 0.384165 0.444065 0.431856 0.785052
0.36931 -0.20911 0.168442 0.40027 -0.907349 0.128459
0.23196 0.150737 0.386903 0.100203 0.637144 0.764203
0.42423 0.0311968 -0.0508 0.746646 0.158603 -0.646038
-0.362689 0.197358 0.0441454 -0.471501 0.838129 -0.274275
-0.121217 -0.218765 -0.12112 -0.209771 -0.943185 -0.25768
-0.274983 -0.133568 0.390963 -0.213618 -0.645908 0.732919
-0.470202 0.0709975 0.0465287 -0.925421 0.251029 -0.283867
0.108137 0.146246 -0.275238 0.406226 0.677463 -0.613208
0.230457 0.217328 0.287665 0.0823829 0.9583 0.273632
0.455531 -0.0783304 0.270757 0.818956 -0.345306 0.458339
-0.0889008 0.224856 0.203158 0.113553 0.974684 0.192604
0.110971 0.233663 -0.0544805 0.0580768 0.99639 -0.0619117
-0.00369317 -0.234194 0.0283522 0.0382584 -0.99686 -0.0693342
0.38128 0.0549531 -0.0867937 0.610566 0.299122 -0.733304
0.441894 -0.153461 0.121782 0.773166 -0.625302 -0.105887
-0.273748 -0.0705206 -0.179391 -0.633671 -0.281375 -0.720617
-0.258222 -0.181889 0.348625 -0.147074 -0.790568 0.594451
-0.20898 0.207845 -0.0789112 -0.248161 0.904401 -0.347095
0.322191 -0.21951 0.222761 0.286249 -0.945532 0.155016
-0.480814 0.00319895 0.249992 -0.940099 -0.0109713 0.340725
0.339561 0.217575 0.0998356 0.297782 0.949988 -0.0940696
0.120326 0.231009 0.131825 0.00650391 0.999353 -0.0353641
0.257034 -0.228509 0.238684 0.0946176 -0.984742 0.14605
-0.262975 0.18081 -0.087799 -0.417999 0.779419 -0.466673
0.0826479 0.197205 -0.219966 0.380215 0.837204 -0.393097
-0.37797 0.0592442 -0.0879556 -0.670994 0.244514 -0.699986
-0.133343 0.129476 0.394999 0.201884 0.544997 0.81377
0.15714 0.109494 -0.262226 0.58625 0.490716 -0.6446
0.28224 -0.232474 0.0945533 0.109669 -0.991587 -0.0687628
0.45586 -0.0465166 0.00107067 0.867284 -0.133355 -0.479619
0.0352625 0.161177 -0.328378 0.569404 0.614191 -0.546395
-0.367713 -0.204191 0.0864915 -0.428519 -0.891021 -0.149845
0.378682 -0.202795 0.110293 0.477826 -0.875396 -0.0732394
-0.140125 0.232798 0.169219 0.0375566 0.997922 -0.0523588
-0.231366 -0.229969 0.0462495 -0.0461 -0.992381 -0.114257
-0.156836 0.22808 -0.061042 -0.214481 0.966138 -0.143443
0.00502781 0.222853 0.14385 -0.175111 0.966675 0.186748
-0.395349 0.166641 0.263869 -0.596447 0.710581 0.373264
-0.184214 -0.182239 0.354993 0.114016 -0.787292 0.605947
0.423489 -0.112752 0.300019 0.738544 -0.485546 0.467757
-0.196702 -0.227997 -0.00245551 -0.127303 -0.991577 -0.023838
-0.401948 -0.113341 -0.0313696 -0.714622 -0.44356 -0.540898
0.350189 0.13936 -0.0598715 0.548827 0.593873 -0.588305
-0.0177282 0.115193 0.339417 0.561679 0.547768 0.620054
0.354538 0.158826 0.323907 0.521187 0.633211 0.572195
-0.379359 0.0432428 0.378969 -0.580708 0.202708 0.788472
-0.17101 -0.0731306 -0.273058 -0.651664 -0.293797 -0.699297
0.301906 0.162065 0.355163 0.291839 0.734377 0.612798
-0.121992 -0.0487821 -0.32466 -0.670024 -0.209084 -0.712287
-0.480979 -0.0901572 0.124223 -0.916106 -0.398279 -0.046081
0.2982 0.226443 0.197464 0.134104 0.9849 0.109489
-0.262169 0.229373 0.0562892 -0.0952197 0.980767 -0.170378
0.0187169 0.233345 0.0283838 0.0966595 0.995065 -0.0224227
0.0415769 -0.0477827 0.390838 -0.499036 -0.234286 0.83431
0.220515 0.112491 -0.200121 0.571069 0.512272 -0.64145
-0.458203 0.12875 0.173764 -0.821605 0.554317 0.133033
0.209274 -0.131099 -0.198335 0.512081 -0.624772 -0.589435
0.0486055 0.0694891 0.387866 -0.546062 0.350183 0.761044
0.158791 0.119739 0.408482 -0.126716 0.546665 0.827708
0.356229 -0.0644298 -0.105867 0.65378 -0.3205 -0.685457
0.160328 0.0463622 0.438297 -0.110938 0.193709 0.974766
0.374513 -0.0606842 0.3776 0.562701 -0.233669 0.792948
-0.303773 0.226455 0.191524 -0.196445 0.971191 0.134897
0.276783 0.0702626 -0.176348 0.690908 0.25941 -0.674798
0.458072 -0.0273402 0.293368 0.871759 -0.100548 0.479506
-0.232446 -0.177046 -0.11948 -0.380531 -0.789172 -0.482083
-0.233122 0.212642 0.298567 -0.060005 0.945788 0.319195
-0.141718 -0.219072 0.283348 0.172359 -0.939462 0.296147
0.268596 0.0605127 0.428922 0.201307 0.286349 0.936739
0.481607 0.0725303 0.211214 0.919533 0.296021 0.258517
-0.395898 -0.173804 0.248818 -0.55526 -0.77758 0.295052
0.435627 -0.101472 0.000777676 0.763122 -0.440383 -0.472978
-0.434172 0.121175 0.272183 -0.744683 0.553195 0.373393
-0.401099 -0.13929 0.296595 -0.624463 -0.615151 0.481284
-0.343154 0.202296 0.246105 -0.346116 0.904718 0.248373
-0.177843 -0.231816 0.146807 -0.0172348 -0.99956 0.0241438
0.168289 0.229972 0.175328 0.0509155 0.996758 -0.0623
-0.445119 0.120513 0.0432167 -0.763683 0.509408 -0.396601
0.23342 0.233581 0.176562 -0.0279744 0.998483 0.0474198
0.00554763 -0.228765 -0.169354 0.13326 -0.980637 -0.143503
-0.280685 0.0789642 -0.169014 -0.64954 0.342967 -0.67858
0.0399379 -0.021853 -0.405605 0.663225 -0.0542342 -0.746452
-0.10728 0.0790527 0.411666 0.261679 0.402162 0.877377
0.0785414 0.00678334 0.415893 -0.410027 0.0567759 0.910304
-0.101305 -0.0954218 0.404009 0.275202 -0.359743 0.891543
-0.0917753 0.0219154 0.421255 0.372482 0.0305161 0.927537
-0.226535 -0.129702 -0.181609 -0.528255 -0.580235 -0.619899
0.241645 0.230343 0.0489496 0.0828592 0.995999 -0.033471
-0.0297342 -0.23168 0.0846911 0.0343426 -0.999313 0.0139183
-0.0297061 -0.231149 -0.131515 -0.0867099 -0.994907 -0.0513967
0.0362199 0.0366534 -0.408369 0.660941 0.20903 -0.720738
0.103249 0.0949918 -0.321892 0.559107 0.436656 -0.704791
0.489261 -0.0234817 0.2198 0.973116 -0.0945536 0.210011
-0.153148 0.115807 -0.263813 -0.595276 0.497221 -0.631203
0.204716 0.030096 -0.255247 0.689893 0.116874 -0.714415
0.104042 0.198235 0.307361 -0.268277 0.839627 0.472286
0.417552 0.0898548 0.322781 0.716572 0.386865 0.580397
0.463706 -0.103233 0.059087 0.8559 -0.461106 -0.234128
-0.0559971 -0.230291 0.13622 0.0809221 -0.991505 0.10183
-0.01048 0.233021 0.081151 -0.0141275 0.99325 0.115126
0.00373192 0.175363 0.260103 -0.451519 0.742904 0.49419
-0.385742 -0.0321013 -0.0873841 -0.669152 -0.148999 -0.728035
0.00846612 0.228125 -0.18021 0.115335 0.985097 -0.127598
-0.412305 -0.163208 0.0450223 -0.635167 -0.703978 -0.317771
-0.175447 0.208897 0.312552 0.0366564 0.866829 0.497257
0.0618041 -0.233755 -0.103564 0.100795 -0.992358 -0.0711774
-0.454934 -0.0941147 0.260654 -0.837798 -0.380176 0.391868
0.199608 -0.233273 0.160983 0.0437534 -0.996171 -0.0756945
0.494336 -0.0481625 0.161581 0.978642 -0.198896 0.0519631
0.0726032 0.230944 0.0766176 -0.0227063 0.999614 0.0160153
0.260208 -0.154712 -0.122955 0.490731 -0.661512 -0.567085
-0.319065 0.0649474 0.405881 -0.399516 0.282829 0.872006
0.00902029 -0.185958 -0.309858 0.33882 -0.8526 -0.397836
-0.0410977 0.230977 0.00998809 0.0853417 0.996179 -0.0185412
-0.452198 -0.139935 0.135589 -0.797849 -0.601227 -0.044303
0.400984 -0.160019 0.267295 0.64526 -0.670513 0.366131
0.467886 0.0148681 0.0105643 0.90206 0.0396889 -0.429782
0.336521 0.0349442 -0.130665 0.68496 0.110508 -0.720151
0.383582 -0.111405 0.346035 0.623528 -0.470344 0.62449
-0.474139 0.0855318 0.211553 -0.896033 0.376014 0.236091
0.161416 0.201226 -0.139967 0.326532 0.869949 -0.369549
0.365611 0.00880086 0.39583 0.596441 0.0285766 0.802148
0.330321 -0.193218 0.287731 0.387077 -0.835719 0.389545
0.0418827 -0.0725099 -0.38872 0.603149 -0.216661 -0.767639
-0.480694 -0.0266633 0.0474582 -0.935977 -0.150089 -0.318466
-0.28024 0.15112 0.378173 -0.278651 0.66912 0.688935
0.429012 -0.16509 0.178123 0.7109 -0.696535 0.0972633
-0.461857 0.124608 0.108335 -0.789431 0.560587 -0.250081
-0.458777 0.0479584 0.288453 -0.85753 0.136177 0.496082
-0.047153 -0.231822 -0.0215959 -0.00905379 -0.998489 0.0542081
-0.214511 0.0215726 -0.245844 -0.697472 0.0830614 -0.711782
0.137697 -0.192051 -0.17755 0.390489 -0.805996 -0.444847
-0.397838 0.152824 0.0118823 -0.57301 0.682502 -0.453708
-0.201392 0.107972 -0.223696 -0.602539 0.477229 -0.639687
0.380891 -0.0074008 -0.0940806 0.679441 -0.0973782 -0.727239
-0.255137 -0.200634 -0.0502996 -0.392813 -0.852408 -0.345107
0.0578842 0.143425 0.348573 -0.485053 0.62682 0.60977
-0.115292 0.233702 -0.0202135 -0.0167592 0.999807 0.0102516
-0.0232856 -0.169696 0.287145 0.501079 -0.715794 0.486373
-0.132046 0.0576618 -0.31416 -0.649668 0.243805 -0.720063
