ply
format ascii 1.0
comment Created by Open3D
element vertex 400
property double x
property double y
property double z
property double nx
property double ny
property double nz
end_header
0.433285 -0.0753784 0.0625831 0.0245412 0 0.999699
-0.0115815 0.136284 0.219528 0 -0 1
0.348529 -0.200346 0.00593344 -0 -1 -0
-0.172773 0.220784 0.187887 0 0 1
0.246956 0.0424238 0.0179266 1 -0 0
-0.0738198 0.178239 0.207722 0 1 -0
0.126764 0.178239 0.0210996 -0 1 0
-0.211664 0.178239 0.0634233 -0 1 0
-0.180687 -0.0385998 0.00364028 -1 0 0
0.249364 -0.138072 -0.169031 -0.910576 0 -0.413341
-0.451444 0.0818588 -0.0393699 -1 -0 0
-0.304299 0.0934695 0.0792376 0 -1 0
-0.496426 0.137835 -0.0482877 -0 0 1
0.329216 0.138536 0.112243 0.784559 -2.32243e-08 0.620054
-0.0354603 0.129652 -0.0605072 0 -0 -1
0.313311 -0.23627 0.0847497 0 -1 -0
-0.292257 -0.124148 -0.0316361 0 1 0
-0.154006 0.0435674 0.219528 0 0 1
0.246956 -0.00290395 -0.143243 1 0 0
-0.347948 7.53311e-05 -0.148274 -0.991882 0 -0.127162
0.397701 0.0934695 -0.0360096 -0 -1 0
0.498703 0.117136 0.0068596 0.985277 0 0.170964
0.25042 0.145454 -0.171357 -0.910576 0 -0.413341
0.259455 0.178239 -0.107248 0 1 0
0.0294441 0.12979 -0.0605072 0 -0 -1
0.246956 -0.0228864 0.0696579 1 -0 0
0.301945 -0.187256 -0.181268 0.29456 -0 0.955633
0.126747 0.164653 0.219528 0 -0 1
-0.0407916 -0.231214 0.184811 0 0 1
0.153641 0.207944 0.187887 0 0 1
0.284551 0.0934695 -0.203003 0 -1 0
-0.243679 0.0934695 0.0338722 -0 -1 0
-0.347696 -0.0514325 -0.0927977 1 -0 0
-0.347696 -0.0322427 -0.0309346 1 0 0
0.474495 -0.200346 -0.0234238 0 -1 0
0.362466 0.172364 -0.110491 -0 -0 -1
-0.180687 0.0667773 0.0212264 -1 0 0
0.407149 0.109612 -0.154845 0.974336 0 -0.2251
-0.451444 -0.0981839 -0.111301 -1 0 0
0.14115 -0.200346 0.0510817 -0 -1 -0
0.0556705 -0.160817 -0.0611601 0 -0 -1
0.244989 -0.228764 0.17807 0.465747 -0 0.884918
0.5 0.0559652 -0.0454711 1 0 0
-0.138993 -0.21379 0.184811 0 0 1
0.178553 0.197262 0.0705274 0 -0 -1
-0.229588 -0.00912968 -0.0482877 0 0 1
0.28891 -0.0267663 0.120052 0.814665 0 0.579931
-0.451444 -0.0177356 -0.101951 -1 0 0
0.0687721 0.0442222 -0.111959 0 -0 -1
-0.0665244 0.161529 -0.111959 0 0 -1
0.339982 -0.194352 -0.218356 0.148752 0 -0.988875
0.360602 0.134542 -0.167717 -0.679794 0 0.733403
-0.279354 0.178239 0.0112284 0 1 0
0.139385 -0.200346 -0.101072 0 -1 0
0.0451257 -0.112921 0.219528 0 0 1
-0.0308859 -0.155601 -0.0731969 0 -0 1
0.429417 -0.136302 0.0626413 0 0 1
0.48175 0.0432558 -0.111959 0 -0 -1
0.246956 -0.0449057 -0.0743928 1 -0 0
0.29165 -0.200346 0.0223723 -0 -1 -0
-0.112269 0.23627 0.161058 0 1 0
-0.213201 -0.00658634 0.219528 0 0 1
0.254928 -0.0380242 0.20624 0.784559 0 0.620054
0.311871 -0.156769 0.134189 0.784559 0 0.620054
-0.164732 -0.149155 -0.0676825 0 -1 0
-0.112358 0.127795 -0.0605072 0 -0 -1
-0.227922 -0.0667107 0.219528 0 0 1
-0.0247484 0.0596672 -0.111959 0 0 -1
0.326638 -0.108965 -0.019516 0 1 0
-0.329962 -0.153742 -0.0731969 0 -0 1
0.368829 0.109248 0.0626413 0 0 1
-0.0130658 0.190975 0.187887 0 0 1
0.00475319 -0.0868338 0.219528 0 0 1
-0.481534 0.00876113 -0.0482877 -0 0 1
-0.357984 -0.200346 -0.0512441 0 -1 0
0.197344 0.178239 0.00454411 -0 1 0
-0.0515412 0.23627 0.114549 0 1 0
-0.133606 0.178239 0.00425959 0 1 -0
-0.183547 -0.124148 0.0662873 0 1 0
0.262607 -0.108965 -0.0910764 0 1 0
-0.442331 -0.0579127 0.0278089 -0.870088 0 0.492897
0.350651 0.178239 0.0821185 0 1 0
0.244013 0.074746 -0.151214 -0.984329 0 -0.176343
0.215515 -0.0873689 0.219528 0 -0 1
0.5 0.00800989 -0.0622017 1 0 0
-0.0947986 -0.0996529 -0.111959 0 -0 -1
-0.284947 -0.0711194 -0.0875094 0 0 -1
-0.226916 -0.23627 0.0730357 0 -1 -0
0.0677976 0.124136 0.219528 0 -0 1
0.0758016 -0.200346 -0.00292495 -0 -1 -0
0.498884 -0.105767 0.00581288 0.985277 0 0.170964
-0.0924493 -0.149786 -0.0611601 0 0 -1
0.0694719 0.171194 -0.111959 0 0 -1
0.193681 -0.21564 0.0702964 0 0 -1
0.165694 -0.0412896 -0.111959 0 -0 -1
-0.188697 0.178239 -0.0245438 0 1 -0
0.202914 0.0350628 -0.111959 0 -0 -1
0.137651 0.0980853 0.219528 0 -0 1
0.338396 -0.175104 -0.110491 0 0 -1
-0.446064 0.0567008 0.0202666 -0.914208 0 0.405245
0.351582 -0.166635 0.0839427 0.784559 0 0.620054
-0.116423 -0.0170861 -0.111959 0 0 -1
-0.0762791 0.178239 -0.053606 0 1 -0
0.228576 -0.144983 0.219528 0 -0 1
0.0361107 -0.194319 -0.111959 0 -0 -1
0.105856 0.0358705 0.219528 0 -0 1
-0.222914 -0.210736 0.138748 -0.903426 0 0.428744
0.198947 0.178239 0.21045 -0 1 0
0.40796 -0.190288 -0.150863 0.984329 0 -0.176343
0.10324 -0.23627 0.158512 0 -1 -0
-0.307683 -0.200346 -0.0234716 0 -1 0
-0.071871 0.178239 0.0036327 -0 1 0
-0.330382 0.00735045 -0.0875094 0 0 -1
0.0835067 -0.200346 -0.0912982 0 -1 0
-0.141506 0.178239 0.219318 -0 1 0
0.0328242 0.175689 0.219528 0 -0 1
-0.356967 0.0779481 -0.111959 0 0 -1
-0.134934 0.23627 0.0716001 0 1 0
-0.21378 -0.200346 -0.120182 0 -1 -0
-0.286108 0.122711 0.138727 -0.815507 1.5178e-07 0.578747
-0.209846 -0.0904445 0.166285 -0.903426 0 0.428745
-0.122349 -0.184525 -0.111959 0 -0 -1
-0.238078 -0.061233 0.106795 -0.903426 0 0.428744
0.108349 0.104365 -0.111959 0 0 -1
0.285404 -0.156205 -0.110491 0 0 -1
-0.256238 -0.0132276 0.180816 -0.815507 0 0.578747
-0.226056 -0.0694185 -0.0482877 0 0 1
0.375402 -0.108965 0.0402802 -0 1 0
-0.362795 0.178239 -0.0141947 0 1 0
0.406374 -0.0671013 -0.0655138 -1 0 0
-0.172419 -0.200346 0.0553815 -0 -1 -0
0.40833 0.178239 -0.142878 0 1 0
0.223754 0.178239 -0.0578442 -0 1 0
-0.325149 0.156682 -0.0605072 0 -0 -1
0.0205065 -0.200346 0.00867884 -0 -1 -0
0.0850145 -0.0217144 -0.111959 0 -0 -1
0.122819 0.178239 -0.0387854 -0 1 0
-0.499899 -0.0459764 -0.0875094 0 0 -1
-0.2855 0.0934695 -0.0993695 0 -1 0
-0.26769 0.0691253 -0.0482877 -0 0 1
-0.280287 0.0964333 -0.218225 -0.197764 0 -0.98025
0.246956 -0.00859191 -0.0169926 1 -0 0
-0.449011 0.178239 -0.0862443 0 1 0
-0.138407 -0.200346 -0.00707272 0 -1 0
0.203588 0.23627 0.12003 -0 1 0
-0.252506 0.0305126 0.0702964 0 0 -1
-0.449772 0.00908853 0.0085675 -0.975702 0 0.219101
-0.196791 -0.179683 -0.183353 0.810851 0 -0.585252
-0.230562 0.100715 -0.160757 -0.796742 0 0.60432
0.184557 -0.200346 -0.0071023 -0 -1 -0
-0.226028 0.224979 0.168681 -0.83697 0 0.547249
-0.0348691 -0.200013 -0.111959 0 -0 -1
0.00136675 0.178239 0.0519858 -0 1 0
-0.236872 0.0899467 0.119576 0 0 -1
-0.19121 -0.124148 -0.166003 0 1 0
0.457595 0.0852468 0.0572752 0.405245 0 0.914208
0.101385 -0.0736313 0.219528 0 -0 1
0.364138 0.176748 -0.210284 0.477399 0 -0.878687
-0.131236 0.178239 0.0672421 -0 1 0
-0.347696 -0.0911411 -0.140494 1 0 0
0.296335 0.166126 -0.214094 -0.341375 0 -0.939927
0.41284 -0.200346 -0.0184988 0 -1 0
0.195911 -0.194493 -0.111959 0 -0 -1
0.313758 -0.108965 0.0663734 0 1 0
0.289165 -0.104068 0.119695 0.814665 0 0.579931
0.330861 -0.108965 -0.0203005 0 1 0
-0.22169 0.132092 -0.207074 0.520517 0 -0.853852
-0.0734735 -0.200346 0.0434297 -0 -1 -0
-0.380042 0.178239 -0.0731859 0 1 -0
0.347912 -0.200346 -0.0516269 -0 -1 -0
-0.415297 -0.200346 -0.0104827 0 -1 0
-0.0195627 0.118843 -0.111959 0 0 -1
-0.196936 0.0799218 0.0702964 0 0 -1
-0.0667115 0.0156986 -0.111959 0 0 -1
-0.288856 -0.163729 -0.216199 -0.294194 0 -0.955746
0.263532 0.0882609 0.0702964 0 0 -1
-0.265689 0.173879 0.1675 -0.815507 0 0.578747
0.139338 -0.0116784 0.219528 0 -0 1
-0.347696 0.0373718 -0.0205818 1 0 0
0.193813 0.105457 0.219528 0 -0 1
-0.262832 -0.00279345 -0.0875094 0 0 -1
0.323262 -0.0309178 0.0717964 0.814665 0 0.579931
0.254267 0.0770228 0.207077 0.784559 0 0.620054
-0.172217 0.101212 -0.111959 0 0 -1
0.244007 0.23627 0.0709362 0 1 0
0.0334734 -0.231126 0.184811 0 0 1
0.0548756 -0.0227121 0.219528 0 -0 1
-0.00738408 -0.17234 0.219528 0 0 1
0.0180729 0.01862 -0.111959 0 0 -1
0.228545 0.223416 0.181373 0.841879 0 0.539666
0.406374 -0.0154032 -0.00812257 -1 -0 -0
0.116898 -0.200346 -0.041232 0 -1 0
-0.362866 -0.0936142 0.0626413 0 0 1
-0.249261 -0.200346 -0.19435 0 -1 0
0.0333431 0.0938995 -0.111959 0 0 -1
-0.175392 -0.23627 0.147832 0 -1 -0
0.256178 -0.200346 0.0600958 -0 -1 -0
0.0535636 -0.0752857 -0.111959 0 -0 -1
-0.088763 0.0154198 0.219528 0 0 1
-0.467197 -0.14234 -0.0482877 0 0 1
-0.26702 -0.200346 0.103948 0 -1 0
-0.421496 0.178239 0.0422399 -0 1 0
-0.196224 -0.200346 -0.00530111 0 -1 0
0.467656 0.1535 0.0520371 0.534993 0 0.844857
-0.028253 -0.0207626 0.219528 0 0 1
-0.0671773 0.203425 0.0705274 0 0 -1
0.0556193 0.178239 -0.0434187 -0 1 0
0.20956 -0.200346 -0.0589793 0 -1 0
0.32024 0.0934695 0.0237802 -0 -1 -0
-0.396851 0.125308 -0.0741676 0 1 0
-0.5 0.0662861 -0.0752555 -1 0 -0
0.246956 -0.0565314 0.0185275 1 -0 0
0.2618 0.206531 0.129495 0.841879 0 0.539666
-0.147622 -0.23627 0.0903609 0 -1 -0
0.387155 0.178239 6.93036e-05 -0 1 0
-0.220525 0.0934695 -0.0190995 0 -1 0
-0.293518 -0.0358035 -0.0482877 -0 0 1
-0.394394 -0.13407 0.0615641 -0.170963 0 0.985278
0.24527 -0.0732243 -0.15704 -0.961933 0 -0.273286
0.114762 0.212819 0.0705274 0 -0 -1
-0.347696 -0.0280586 0.034119 1 0 0
0.452334 0.102803 -0.111959 0 0 -1
0.173477 0.178239 -0.0536462 -0 1 0
-0.348112 0.161165 -0.125439 -0.992647 0 0.121045
-0.226759 0.23627 0.0929619 0 1 0
0.379753 -0.170689 -0.199828 0.641738 0 -0.766924
-0.348784 -0.175166 -0.138345 -0.999609 0 -0.027965
-0.167958 0.137635 -0.0605072 0 -0 -1
0.103057 -0.153357 -0.111959 0 -0 -1
-0.425821 0.178239 -0.0167483 0 1 0
-0.400239 0.0619397 0.0602682 -0.266713 0 0.963776
0.498429 0.0420465 0.00811881 0.975702 0 0.219101
-0.0188336 -0.0191393 -0.111959 0 -0 -1
-0.0143996 0.178239 -0.0199068 -0 1 0
-0.499951 -0.102346 -0.0875094 0 0 -1
-0.0648612 -0.154219 -0.111959 0 -0 -1
-0.455997 -0.0718182 -0.0482877 0 0 1
0.198585 -0.087159 -0.111959 0 -0 -1
-0.179641 0.114508 0.219528 0 0 1
0.107781 0.23627 0.176578 -0 1 0
-0.37597 0.142672 0.0626413 0 0 1
-0.265143 0.190887 0.108859 -0.83697 0 0.547249
-0.448523 -0.147634 -0.111959 0 0 -1
0.369401 0.0958383 -0.207301 0.520513 0 -0.853854
0.221477 -0.146337 -0.111959 0 -0 -1
-0.324844 0.0934695 -0.0425351 0 -1 0
0.253209 0.0934695 -0.0771416 0 -1 0
-0.304707 0.166221 -0.172205 0.583383 0 0.812197
0.193739 0.0451267 0.219528 0 -0 1
-0.396863 -0.100536 -0.111959 -0 0 -1
0.270064 0.0843161 0.146527 0.814665 0 0.579931
0.272074 -0.23627 0.128705 0 -1 -0
0.5 -0.0486027 -0.0587374 1 -0 0
0.153619 -0.23627 0.12119 0 -1 -0
-0.288012 0.21922 0.0738824 -0.83697 0 0.547249
-0.152222 0.166906 -0.111959 0 0 -1
0.406374 -0.0223705 0.0563536 -1 -0 -0
0.336756 0.0934695 -0.0514612 0 -1 0
0.188434 0.0998792 -0.111959 0 -0 -1
0.406374 0.0123987 -0.153683 -1 0 -0
-0.226987 0.0197312 0.130165 -0.903426 0 0.428745
-0.353815 -0.200346 0.0208971 0 -1 -0
0.0681145 0.178239 0.0549559 -0 1 0
0.265047 0.14288 0.193437 0.784559 -2.32243e-08 0.620054
-0.451404 0.134331 -0.00481046 -0.999699 0 0.0245389
0.28525 -0.200346 -0.0623613 -0 -1 -0
-0.0832295 -0.200346 -0.00624235 0 -1 0
0.447159 0.178239 -0.0809575 0 1 -0
0.260729 -0.108965 0.039037 0 1 0
-0.160007 -0.108362 0.219528 0 0 1
0.484213 0.178239 0.00268628 0 1 0
-0.173436 -0.0528214 0.219528 0 0 1
0.5 -0.19988 -0.110529 1 -0 0
-0.498969 -0.178006 -0.0816233 0 -1 0
0.254184 0.0934695 -0.00859313 0 -1 0
0.5 -0.152005 -0.0414946 1 -0 0
0.435354 -0.149048 -0.111959 0 0 -1
0.339659 -0.108965 -0.194395 0 1 0
0.15455 -0.0752757 0.219528 0 -0 1
0.5 -0.114301 -0.0980191 1 0 0
0.141507 0.23627 0.117916 -0 1 0
0.401469 -0.117851 -0.171402 0.910578 0 -0.413338
0.148808 0.0195429 -0.111959 0 -0 -1
-0.000830011 0.23627 0.0845255 0 1 0
-0.412987 -0.174975 -0.0731969 0 -0 1
0.455851 0.0110234 0.0579619 0.359895 0 0.932993
0.215841 -0.23627 0.127179 0 -1 -0
0.270137 0.0205916 0.163859 -0 -0 -1
0.403276 -0.197601 0.0626413 0 0 1
0.470076 -0.200346 0.0381377 0 -1 0
-0.0959979 0.0738426 -0.111959 0 0 -1
0.330421 0.101811 -0.110491 0 0 -1
-0.274154 0.170694 -0.110491 -0 -0 -1
-0.443391 0.128839 -0.111959 0 0 -1
0.460349 -0.0605454 -0.111959 0 -0 -1
-0.337508 -0.124148 0.00240812 0 1 0
0.146909 0.167183 -0.111959 0 0 -1
0.293583 0.16539 0.15733 0.784559 -2.32243e-08 0.620054
0.499168 -0.017007 0.00417678 0.985277 0 0.170964
-0.210683 0.178239 -0.152455 0 1 0
-0.235528 -0.124148 0.0164568 0 1 0
0.168214 -0.19945 0.219528 0 0 1
-0.215026 -0.124148 -0.11605 0 1 -0
-0.264495 -0.124187 0.169182 -0.815507 1.47944e-07 0.578747
0.232432 0.00625641 0.219528 0 -0 1
-0.202883 0.0244085 0.17667 -0.316228 0 0.948683
-0.0157217 -0.23627 0.110073 0 -1 -0
-0.221614 -0.0259132 0.0702964 0 0 -1
-0.168697 0.23627 0.118153 0 1 0
0.246956 -0.10012 -0.0251164 1 -0 0
0.32582 0.178239 0.0262561 0 1 0
-0.230262 -0.11589 0.123266 -0.903426 0 0.428745
-0.197032 0.176352 0.219528 0 -0 1
-0.44716 0.0624328 -0.111959 0 0 -1
-0.397945 -0.0376917 -0.111959 0 0 -1
-0.0454056 0.0842511 0.219528 0 -0 1
-0.330132 -0.194231 0.0766938 -0.815507 -6.12774e-08 0.578747
-0.139136 -0.162803 0.219528 0 0 1
0.0271003 0.0504042 0.219528 0 -0 1
-0.312273 -0.124148 -0.180381 0 1 0
-0.219251 0.0472207 0.219528 0 0 1
0.348379 -0.116621 -0.110491 -0 -0 -1
-0.232887 -0.124148 -0.212229 0 1 0
-0.236558 -0.0992433 0.0702964 0 0 -1
-0.3356 -0.0952048 -0.0482877 -0 0 1
0.00184738 0.23627 0.14963 -0 1 0
0.314444 0.0509314 0.084184 0.814665 0 0.579931
-0.309417 -0.149092 0.105883 -0.815507 -6.12774e-08 0.578747
-0.246739 -0.178123 -0.0611601 0 -0 -1
-0.404787 0.0260496 -0.111959 0 0 -1
0.494828 0.178239 -0.0545202 0 1 -0
0.0756368 -0.162007 0.219528 0 0 1
-0.325502 0.0934695 0.0231921 0 -1 0
0.5 0.139874 -0.098268 1 0 0
-0.4344 0.107684 0.0389621 -0.757204 0 0.653178
-0.0827846 -0.23627 0.0928314 0 -1 -0
0.178919 -0.23627 0.17709 0 -1 -0
-0.314998 -0.200346 -0.179397 0 -1 -0
0.291075 0.178239 0.0894199 -0 1 0
-0.0251569 -0.0958522 -0.111959 0 -0 -1
-0.224608 0.0934695 -0.088675 -0 -1 0
0.406374 -0.0570629 -0.146526 -1 0 0
-0.0656655 -0.0430663 -0.111959 0 -0 -1
0.0926169 -0.23627 0.0990767 0 -1 -0
-0.397148 -0.195191 0.0610193 -0.2191 0 0.975702
-0.348561 0.0482726 0.0626413 0 0 1
-0.263638 0.17533 -0.219528 0 0 -1
-0.085381 -0.1884 0.219528 0 0 1
0.256885 0.178239 0.0328147 -0 1 0
-0.108798 -0.059808 0.219528 0 0 1
-0.449244 -0.200346 -0.10762 0 -1 0
-0.107999 0.0989786 0.219528 0 -0 1
-0.180687 -0.0421007 -0.102467 -1 0 0
-0.232234 -0.122567 0.21464 -0.815507 0 0.578747
0.328203 0.178239 -0.0514269 0 1 0
-0.00966527 -0.200346 0.0607163 -0 -1 -0
-0.336086 0.0952496 -0.180496 -0.83896 0 -0.544192
0.405498 -0.200346 -0.0865289 0 -1 0
-0.142078 -0.0818004 -0.111959 0 0 -1
0.26806 -0.0938974 0.189624 0.784559 0 0.620054
0.246956 0.038781 -0.043668 1 0 0
0.40882 0.148278 0.0626413 0 0 1
-0.180687 -0.0936544 0.00843582 -1 0 0
-0.243022 0.178239 -0.0468014 0 1 0
-0.268811 -0.185982 0.163101 -0.815507 -6.12774e-08 0.578747
0.133586 -0.149782 0.219528 0 0 1
-0.304892 -0.124148 0.041547 0 1 0
-0.00862401 0.178239 -0.0865537 0 1 -0
0.406374 0.0442908 -0.0216549 -1 -0 -0
0.406374 0.0358951 -0.0836367 -1 0 0
0.0517084 0.23627 0.0786069 0 1 0
0.172486 -0.135883 -0.111959 0 -0 -1
0.406374 0.0463829 0.0492484 -1 -0 -0
0.399103 -0.108965 -0.0930291 -0 1 0
-0.283499 -0.133805 -0.110491 -0 -0 -1
0.290977 -0.144285 -0.211839 -0.433092 0 -0.90135
-0.402733 0.00431324 0.059561 -0.313682 0 0.949528
-0.018732 -0.200346 -0.0398642 0 -1 0
0.5 0.115941 -0.042936 1 0 0
-0.180687 0.0272282 -0.0292816 -1 0 0
0.0608276 -0.200346 0.0597421 -0 -1 -0
-0.236135 0.129625 0.209144 -0.815507 0 0.578747
0.0685288 0.23627 0.139894 -0 1 0
-0.176784 -0.200346 -0.0621795 0 -1 0
-0.180687 0.00344844 0.0356863 -1 0 0
0.256026 -0.200346 -0.123678 0 -1 -0
-0.2103 -0.200346 0.206167 -0 -1 0
0.406374 -0.108387 -0.0194332 -1 0 0
0.464639 -0.00345053 -0.111959 0 -0 -1
-0.243614 -0.200346 0.0192063 0 -1 0
-0.209411 0.034059 -0.0875094 0 0 -1
-0.0560815 -0.103816 0.219528 0 0 1
0.275813 -0.180374 0.179814 0.784559 0 0.620054
-0.300869 -0.200346 -0.104196 0 -1 0
-0.254697 0.076387 0.182989 -0.815507 0 0.578747
0.282614 0.178239 -0.022259 0 1 0
-0.329371 0.178239 0.0535053 0 1 0
-0.449235 -0.129883 0.0108428 -0.963776 0 0.266712
0.036481 -0.126494 -0.111959 0 -0 -1
0.482482 -0.0628327 0.0395128 0.757204 0 0.653178
