ply
format ascii 1.0
comment Created by Open3D
element vertex 400
property double x
property double y
property double z
property double nx
property double ny
property double nz
end_header
0.279842 0.336389 -0.159091 0 0 -1
0.0410438 -0.498234 -0.0483549 0.099569 -0.995031 0
0.334813 0.0674828 -0.113636 0 0 -1
-0.398059 -0.167354 0.0386953 -0.930874 -0.36534 -0
0.244307 0.0527622 -0.116971 0.974928 0.22252 0
0.389576 -0.313176 -0.103459 0.781832 -0.623489 0
-0.217762 -0.12267 -0.144143 -0.866025 -0.500001 0
0.21722 -0.0915103 -0.159091 -0 0 -1
-0.288866 -0.280145 -0.113636 0 0 -1
-0.419429 0.152078 -0.159091 0 0 -1
-0.499029 -0.0295875 -0.0788181 -0.997204 -0.0747297 0
0.416654 0.112991 -0.0365976 0.962624 0.270841 0
0.285409 0.324964 -0.159091 0 0 -1
-0.261332 0.426088 0.119287 -0.521435 0.853291 0
-0.264096 0.424399 0.118356 -0.521435 0.853291 0
-0.364654 0.234042 0.159091 0 0 1
-0.0638508 -0.18044 -0.146001 0.241883 0.664566 -0.706996
0.42504 0.0754488 0.0848354 0.984808 0.173649 0
-0.185687 -0.240272 -0.113636 0 0 -1
-0.324338 -0.347937 -0.159091 0 0 -1
-0.180472 -0.412387 -0.159091 0 0 -1
-0.0627585 0.241917 0.0229747 0.246758 -0.969077 0
-0.200863 0.438125 -0.154325 -0.30685 0.63718 -0.706997
0.397396 -0.168873 -0.0684793 -0.911506 0.411288 0
-0.0452143 0.176049 -0.135244 0.246757 -0.969078 0
-0.0244229 -0.323303 -0.113636 -0 0 -1
-0.441018 -0.161668 0.159091 0 0 1
-0.0246204 -0.430993 -0.0729568 -0.0498462 -0.998757 0
0.167982 0.470783 0.0218779 0.34202 0.939693 0
-0.358796 0.348011 0.0211874 -0.715867 0.698237 0
-0.397746 0.168098 0.0435771 -0.911506 0.411288 0
-0.42194 0.268003 -0.0710858 -0.840026 0.542546 0
-0.101443 -0.150824 -0.0749009 0.56332 0.826239 0
0.427092 -0.0635859 0.0600299 -0.992239 0.124343 0
0.190035 0.361252 0.113636 0 0 1
0.123714 0.133162 0.0743191 -0.680173 -0.733051 -0
-0.40833 -0.0777938 -0.113636 0 0 -1
-0.289192 -0.181818 0.113636 0 0 1
0.0176958 0.24935 -0.122236 0.0498461 0.998757 0
0.148799 -0.244003 -0.113636 0 -0 -1
0.182934 0.247386 0.113636 0 0 1
0.276677 -0.416329 -0.0398874 0.56332 -0.826239 0
-0.261807 -0.343235 -0.0171001 -0.603805 -0.797132 0
-0.179501 0.466591 -0.00152034 -0.34202 0.939693 0
-0.215489 0.126606 0.0536864 -0.866025 0.500001 0
-0.180736 0.172634 -0.0910935 0.715867 -0.698237 0
-0.0618906 -0.496148 -0.129635 -0.099569 -0.995031 0
-0.487239 0.0340236 -0.147792 -0.705239 0.05285 -0.706997
-0.41995 0.100048 0.0759946 0.974928 -0.222521 0
-0.307034 -0.394484 -0.0962614 -0.603805 -0.797132 0
-0.0927845 -0.42166 -0.0419151 0.198146 0.980172 0
0.127377 0.480343 0.139289 0.174512 0.685348 0.706997
-0.175016 0.0490588 0.051998 0.962624 -0.270841 0
-0.0489816 0.428938 -0.0789153 0.0995678 -0.995031 0
-0.427795 -0.0579797 0.0822708 -0.992239 -0.124343 -0
0.188841 0.163722 -0.0883133 0.749781 0.661686 0
0.0340315 0.360593 -0.113636 0 -0 -1
-0.328123 0.0933152 -0.113636 0 0 -1
0.376948 0.328277 0.0995985 0.749781 0.661686 0
-0.236015 -0.0822548 0.119833 -0.947928 -0.318486 -0
-0.307309 0.394276 -0.0784466 -0.603805 0.797132 0
0.170123 0.142469 0.159091 0 0 1
-0.233413 -0.0893529 -0.0447813 -0.930874 -0.365341 0
0.429092 0.0476283 0.0111547 0.992239 0.124343 0
0.285573 -0.410264 -0.0383923 0.56332 -0.826239 0
0.277873 0.415513 0.0977742 0.56332 0.826239 0
0.188792 -0.388216 0.00182932 0.433883 -0.900969 0
-0.389764 0.0325047 0.113636 0 0 1
0.197219 0.384144 -0.0774626 -0.478256 -0.878221 -0
-0.181652 0.00666601 -0.0224432 0.999689 -0.0249298 0
0.164024 -0.472224 -0.104468 0.34202 -0.939693 0
-0.371549 0.334394 -0.00208497 -0.749781 0.661686 0
-0.103563 -0.436734 0.159091 -0 0 1
0.126595 0.130489 0.0783963 -0.680173 -0.733051 0
0.332531 -0.297329 -0.159091 0 -0 -1
-0.0609455 -0.496242 0.107027 -0.099569 -0.995031 0
0.491228 -0.0926003 0.00643401 0.984808 -0.173648 0
0.0764928 0.237947 0.0674148 0.294755 0.955573 0
0.321699 0.287871 -0.0452696 -0.749781 -0.661686 0
0.448261 0.221279 0.0481982 0.889872 0.45621 0
-0.234315 0.0870543 -0.0417241 -0.930874 0.365341 0
0.188153 0.164502 0.155252 0.749781 0.661686 0
-0.0586424 -0.347107 0.113636 0 0 1
-0.138801 0.480269 -0.0984204 -0.294755 0.955573 0
-0.140422 0.206744 -0.155064 -0.56332 0.826239 0
-0.0217339 0.431137 0.0244166 0.0498462 -0.998757 0
-0.49885 -0.0319726 0.020473 -0.997204 -0.0747297 0
-0.448506 0.220801 -0.00113417 -0.889872 0.45621 0
0.0546207 0.496875 0.0438128 0.099569 0.995031 0
0.347943 0.0855456 -0.113636 0 0 -1
0.0839187 -0.235418 -0.0436696 0.34202 -0.939693 0
-0.0466945 -0.429167 0.0649253 0.0995678 0.995031 0
0.254918 0.348453 -0.0235316 0.603805 0.797132 0
0.205865 -0.25354 0.113636 -0 0 1
-0.137874 -0.480555 -0.0997156 -0.294755 -0.955573 -0
0.294551 0.126855 0.113636 0 -0 1
-0.27957 -0.189108 -0.113636 -0 0 -1
-0.313423 0.00124595 0.113636 0 0 1
-0.484648 -0.122902 0.0366935 -0.974928 -0.22252 -0
-0.272071 0.335229 0.0813198 0.642787 -0.766045 0
0.478416 -0.00764157 -0.157757 0.706996 -0.0176319 -0.706997
0.434641 0.0420921 0.159091 0 0 1
-0.075736 0.320265 0.113636 0 0 1
-0.42266 -0.266889 -0.0435121 -0.840026 -0.542546 0
0.00440345 0.196594 0.151201 0 -0.707217 0.706997
-0.45621 0.204253 -0.100284 -0.911506 0.411286 0
-0.161708 0.400304 0.0815393 0.388434 -0.921476 0
0.293097 0.147068 -0.113636 0 -0 -1
0.11114 -0.143834 0.0763307 -0.603804 0.797133 0
-0.311656 -0.298723 0.11216 -0.715867 -0.698237 -0
-0.496428 -0.0443198 0.137857 -0.705239 -0.05285 0.706997
0.118747 0.317484 0.113636 0 -0 1
0.231931 -0.269906 -0.113636 0 -0 -1
0.281212 -0.205199 0.113636 0 -0 1
-0.492722 -0.0439462 0.141582 -0.70524 -0.0528488 0.706997
-0.234254 0.0872093 -0.0371614 0.930874 -0.365341 0
0.226074 -0.367754 -0.087184 0.521435 -0.853291 0
0.291616 0.406143 0.0696003 0.56332 0.826239 0
-0.164982 -0.0762959 -0.0776746 0.911506 0.411287 0
0.393381 -0.200125 0.159091 -0 0 1
-0.141374 0.114245 0.0810488 0.781832 -0.623489 0
-0.115754 0.415984 0.0210374 0.246758 -0.969077 0
0.209917 0.119011 -0.159091 0 -0 -1
-0.147651 -0.405648 0.0608495 0.342021 0.939692 0
-0.399316 0.0187891 -0.113636 0 0 -1
-0.399888 -0.300064 0.126699 -0.811938 -0.583743 -0
-0.00475635 0.499845 -0.03861 -0 1 0
-0.407109 0.143725 -0.0587005 0.947927 -0.318487 0
0.143112 -0.337844 0.113636 0 -0 1
-0.249745 -0.0102237 -0.0694943 0.999689 0.0249302 0
0.206145 0.455511 0.0959916 0.433885 0.900968 0
0.158861 -0.0883677 -0.0928597 -0.866025 0.5 0
0.430566 0.253927 -0.134517 0.866025 0.500001 0
-0.427317 0.0979993 -0.159091 0 0 -1
-0.34656 0.211229 -0.113636 0 0 -1
-0.066952 -0.495399 -0.0504089 -0.149042 -0.988831 -0
0.260252 0.25871 0.113636 0 0 1
0.245783 0.435309 -0.0467962 0.478253 0.878222 0
0.363492 0.340217 -0.138445 0.506273 0.493805 -0.706997
0.49988 0.00479198 -0.00712299 0.999689 0.0249302 -5.48138e-18
0.178556 -0.163961 0.159091 -0 0 1
0.0565336 -0.496684 0.0443047 0.099569 -0.995031 0
-0.392518 0.309486 0.0940126 -0.781832 0.623489 0
0.458545 0.199078 -0.0365077 0.911506 0.411286 0
0.475611 0.135595 0.141651 0.680784 0.191543 0.706996
0.138265 -0.480435 -0.0252878 0.294755 -0.955573 0
-0.333899 0.0978245 0.113636 0 0 1
-0.405271 -0.148979 -0.0504004 -0.930874 -0.36534 0
-0.246744 -0.0398912 0.0283492 -0.984808 -0.173648 0
-0.437162 0.126014 0.159091 0 0 1
-0.47676 0.150431 0.0591584 -0.947928 0.318486 0
0.396983 0.169789 -0.10582 0.911506 0.411288 0
0.326615 -0.137387 -0.113636 -0 0 -1
-0.342008 0.0918433 -0.113636 0 0 -1
0.0951564 0.231108 0.0770507 -0.388434 -0.921476 -0
-0.42804 -0.0560214 0.0803394 -0.992239 -0.124343 -0
-0.131684 -0.187258 0.159091 0 0 1
-0.150748 -0.19934 -0.00996618 -0.603805 -0.797132 0
-0.146055 -0.179877 -0.159091 -0 0 -1
0.412971 -0.281867 0.00749727 0.811938 -0.583743 0
-0.309159 0.301283 -0.0483167 -0.715867 0.698237 0
0.181762 -0.00227103 -0.126592 -0.999689 0.0249298 0
0.134517 -0.165597 -0.159091 -0 0 -1
-0.0826665 0.16193 0.0770653 0.433883 -0.900969 0
0.439769 -0.237843 -0.0898125 0.889872 -0.45621 0
-0.427846 0.0575727 -0.0390774 -0.992239 0.124343 0
-0.204022 -0.290265 0.113636 0 0 1
-0.0509639 0.453052 0.159091 0 0 1
0.217371 -0.373072 0.0906169 -0.521435 0.853291 0
0.172924 0.056023 -0.0523124 -0.947927 -0.318487 0
-0.443947 -0.126798 0.159091 0 0 1
-0.127107 -0.323719 -0.113636 -0 0 -1
-0.16696 0.186018 0.116646 -0.680174 0.733051 0
0.495334 0.0671901 -0.0555084 0.992239 0.124345 0
-0.111623 -0.143468 0.0361841 0.603804 0.797133 0
-0.0538762 0.495539 -0.137767 -0.070417 0.703703 -0.706996
-0.00917889 -0.18153 0.00946753 0.049848 0.998757 0
-0.238629 -0.439205 0.00937321 -0.478253 -0.878222 -0
0.180451 -0.392233 -0.022296 0.433883 -0.900969 0
-0.341228 0.116445 0.113636 0 0 1
0.331848 0.373958 -0.0452456 0.680174 0.733051 0
0.383795 0.161065 0.113636 0 0 1
0.284177 -0.302877 0.113636 0 -0 1
0.289156 -0.407821 0.068183 0.56332 -0.826239 0
-0.195947 0.082756 -0.159091 0 0 -1
0.0472384 0.450372 0.159091 0 -0 1
-0.203356 0.380802 0.0153642 -0.478256 0.878221 0
0.0926745 -0.15638 -0.0890244 -0.521436 0.853291 0
0.420201 -0.0989476 0.156642 -0.974928 0.222521 0
0.321248 0.288382 0.0445843 -0.749781 -0.661686 -0
0.347614 -0.256007 -0.0463886 -0.811938 0.583744 0
0.00628627 -0.442715 -0.159091 -0 -0 -1
0.0673041 -0.268694 -0.113636 0 -0 -1
0.0936217 0.200652 0.159091 0 0 1
0.417599 0.274724 -0.119962 0.840026 0.542546 0
0.201571 -0.449939 0.143306 0.274707 -0.651683 0.706997
0.0556438 0.173048 -0.102658 -0.294755 -0.955573 0
-0.37262 -0.207132 0.113636 -0 0 1
0.0051391 0.370914 0.113636 0 -0 1
0.48577 -0.117982 -0.0863899 0.974928 -0.22252 0
-0.32986 -0.278623 -0.00281021 0.749781 0.661686 0
-0.141057 0.408048 -0.0618421 0.342021 -0.939692 0
0.324806 -0.0211121 -0.113636 0 -0 -1
0.0386356 -0.347524 0.113636 0 -0 1
-0.0890687 -0.233543 0.0799966 0.34202 0.939693 0
0.00674985 -0.431684 0.00541417 0 1 0
0.0976103 -0.462332 -0.159091 -0 0 -1
-0.316354 -0.0799249 -0.113636 -0 0 -1
0.374474 -0.21476 -0.143008 -0.866025 0.5 0
0.0446879 -0.497869 -0.0956081 0.099569 -0.995031 0
0.111141 0.31215 0.113636 0 0 1
0.0856938 0.160299 -0.0116326 -0.478253 -0.878222 -0
-0.221796 -0.0363083 -0.159091 0 0 -1
-0.37647 -0.211303 -0.151264 0.866025 0.5 0
-0.0705524 0.230921 0.159091 0 0 1
-0.393611 -0.294597 -0.144654 -0.574216 -0.412833 -0.706997
0.177663 0.0384363 0.0416047 -0.974928 -0.222522 0
-0.023026 0.499318 0.0822856 -0.0498461 0.998757 0
0.424835 -0.0766084 -0.0521197 0.984808 -0.173649 0
0.409678 -0.286446 0.00993338 0.811938 -0.583743 0
0.0450458 0.446448 -0.159091 0 0 -1
-0.0960418 0.49054 -0.0173862 -0.198145 0.980173 0
0.0902957 -0.186686 0.159091 -0 0 1
-0.494691 0.072322 0.0354332 -0.992239 0.124345 0
-0.211204 -0.133639 0.0426609 0.840026 0.542546 0
0.470657 -0.0268981 0.159091 0 -0 1
-0.207703 0.427634 -0.159091 0 0 -1
-0.153946 0.196917 0.0195102 -0.603805 0.797132 0
-0.31173 0.298648 -0.073926 0.715867 -0.698237 0
-0.200875 0.00884496 0.155641 0.706997 -0.0176308 0.706997
-0.186187 0.324386 0.113636 0 0 1
0.228029 -0.102294 0.00478198 0.911506 -0.411286 0
0.112466 -0.26472 0.113636 -0 0 1
-0.36557 0.20788 -0.113636 0 0 -1
0.100704 0.28518 -0.113636 0 0 -1
0.02571 -0.180006 -0.136429 -0.105406 0.699318 -0.706996
-0.472856 -0.140052 -0.143096 -0.680784 -0.191543 -0.706997
0.0759817 0.436376 -0.159091 0 0 -1
0.111946 -0.416954 0.0552911 -0.246758 0.969077 0
-0.188831 -0.163734 -0.0643775 -0.749781 -0.661686 0
0.188795 -0.406565 -0.159091 -0 0 -1
0.499755 0.00981735 0.0702956 0.999689 0.0249302 0
0.122547 -0.134245 0.00157597 -0.680173 0.733051 0
-0.216424 -0.214099 0.113636 -0 0 1
-0.2081 -0.0311572 -0.159091 -0 0 -1
-0.262421 0.236165 -0.113636 0 0 -1
0.430456 -0.106339 0.159091 -0 0 1
-0.176535 -0.46767 0.10691 -0.34202 -0.939693 -0
0.118126 0.194699 -0.159091 0 0 -1
0.48349 0.127105 -0.113701 0.962624 0.270841 0
-0.406034 0.146923 -0.0579249 0.947927 -0.318487 0
-0.132299 -0.317893 0.113636 -0 0 1
0.28094 0.123045 0.113636 0 -0 1
-0.0500151 0.345325 -0.113636 0 0 -1
0.458758 -0.198606 0.112429 0.911506 -0.411286 0
0.169834 -0.0647827 0.105943 -0.930874 0.36534 0
0.365624 -0.341011 0.0747335 0.715867 -0.698237 0
-0.238761 -0.439133 0.0216027 -0.478253 -0.878222 -0
0.254971 -0.276166 -0.113636 -0 0 -1
-0.241625 0.0639796 -0.129517 -0.962624 0.270841 0
0.0171785 0.249376 -0.0245117 -0.0498461 -0.998757 0
-0.182692 -0.238291 -0.113636 0 0 -1
0.0518476 -0.497153 0.12902 0.099569 -0.995031 0
0.15663 0.47477 -0.127416 0.294755 0.955573 0
0.293834 0.24027 -0.113636 0 -0 -1
-0.453456 0.210356 0.129859 -0.911506 0.411286 0
-0.0741157 -0.23868 -0.0018471 -0.294755 -0.955573 0
0.404561 -0.150787 0.0589329 -0.930874 0.36534 0
-0.00860741 0.431684 0.0354109 0 -1 0
-0.312828 0.356661 0.159091 0 0 1
-0.200465 0.00862042 0.155226 0.706997 -0.0176308 0.706997
0.129083 0.185805 -0.159091 0 -0 -1
0.113298 0.416609 -0.0329685 0.246758 0.969077 0
-0.174719 -0.39482 -0.0433756 0.388434 0.921476 0
-0.201993 0.28563 0.113636 0 0 1
0.303762 0.332951 0.159091 0 0 1
0.0445243 -0.245977 0.0453009 -0.198145 0.980173 0
0.14732 -0.354401 -0.113636 -0 0 -1
0.459918 0.196035 -0.0424988 0.911506 0.411286 0
0.108686 -0.417784 -0.0693896 0.246758 -0.969077 0
-0.484213 -0.124538 -0.0497516 -0.962624 -0.270841 0
-0.233516 0.363206 -0.0696678 0.521435 -0.853291 0
0.163929 0.0786288 -0.0789504 -0.911506 -0.411287 -0
-0.347015 0.256841 0.0566923 0.811938 -0.583744 0
-0.487025 -0.112487 0.0481385 -0.974928 -0.22252 -0
-0.263165 0.154523 -0.113636 0 0 -1
-0.00960745 0.181508 0.0424795 0.049848 -0.998757 0
0.122449 0.413984 0.0799832 -0.294754 -0.955573 -0
0.263858 -0.377323 0.159091 0 -0 1
0.351969 0.0374054 0.113636 0 -0 1
0.238706 -0.0742472 -0.152596 0.947928 -0.318486 0
-0.221035 0.116677 0.148471 -0.889872 0.45621 0
0.229808 0.0983511 0.0308195 0.911506 0.411286 0
-0.346983 -0.118023 0.113636 -0 0 1
0.247923 0.0315537 -0.0256256 -0.992239 -0.124345 0
-0.094941 -0.432433 -0.159091 0 0 -1
-0.24453 0.0517841 0.0817115 0.974928 -0.22252 0
0.112752 0.378206 -0.113636 0 -0 -1
0.185195 0.167854 -0.0847283 -0.749781 -0.661686 0
0.0214204 -0.180526 0.100091 -0.0995662 0.995031 0
0.0129861 -0.249585 0.134476 0.0498461 -0.998757 0
0.194365 0.385532 0.0268044 0.433883 0.900969 0
-0.0845144 0.235201 0.133868 -0.34202 0.939693 0
0.193151 -0.15864 0.0702843 0.781832 -0.623489 0
0.427991 -0.0564129 0.0567987 0.992239 -0.124343 0
0.319336 0.232736 -0.113636 0 -0 -1
0.402301 -0.294133 0.137867 0.574216 -0.412833 0.706997
-0.460401 -0.183063 -0.140754 -0.65833 -0.258376 -0.706997
0.179355 -0.466644 0.0352102 0.34202 -0.939693 0
-0.496891 -0.0547669 -0.117083 -0.992239 -0.124345 0
-0.317924 0.342702 0.159091 0 0 1
-0.19997 -0.142191 0.159091 -0 0 1
0.359303 -0.347492 -0.0365725 0.715867 -0.698237 0
0.0310449 0.248064 -0.0159589 -0.099569 -0.995031 0
0.0979275 -0.420523 0.148988 -0.246758 0.969077 0
-0.177311 -0.0399789 0.0651844 0.974928 0.222522 0
0.484802 0.122224 0.0264243 0.974928 0.22252 0
0.373514 0.183249 0.113636 0 0 1
0.184226 -0.168952 -0.0450878 0.749781 -0.661686 0
0.383677 0.171125 -0.113636 0 -0 -1
0.171572 -0.0600454 0.0939384 -0.947927 0.318487 0
-0.435143 -0.245999 0.0656384 -0.866025 -0.500001 -0
-0.294187 -0.404215 0.126301 -0.603805 -0.797132 -0
0.330204 -0.0776256 0.113636 -0 0 1
0.0698455 -0.494963 0.0369296 0.149042 -0.988831 0
-0.238926 -0.353486 -0.113636 0 0 -1
0.184785 0.393196 -0.159091 0 0 -1
0.0261877 0.366235 0.113636 0 -0 1
0.276386 -0.331608 0.0148578 0.642787 -0.766045 0
-0.165519 0.41488 0.159091 0 0 1
-0.283122 -0.36439 0.159091 0 0 1
0.0409476 -0.381308 -0.113636 -0 0 -1
0.179261 -0.0300865 -0.008197 -0.984808 0.173647 0
0.00165754 -0.431684 0.149868 0 1 0
-0.139705 -0.47999 0.0231147 -0.294755 -0.955573 -0
-0.301246 0.30937 -0.158971 0.680173 -0.733052 0
0.464557 -0.184488 -0.0284593 0.930874 -0.365341 0
0.110262 0.417383 -0.0212046 0.246758 0.969077 0
0.106774 0.225973 -0.0562446 0.433885 0.900968 0
-0.113691 -0.141875 0.0598442 0.642788 0.766044 0
0.215428 0.281448 -0.113636 0 -0 -1
-0.358436 -0.145433 -0.113636 0 0 -1
0.206552 0.0335441 0.159091 0 -0 1
0.366905 -0.227582 0.0822129 -0.840026 0.542546 0
0.249496 0.0150397 -0.0175598 -0.997204 -0.0747297 0
0.388837 -0.209322 -0.159091 -0 0 -1
-0.0809348 0.3715 0.113636 0 0 1
-0.38355 0.314104 -0.140497 -0.552924 0.440942 -0.706997
0.440857 -0.109238 -0.159091 0 0 -1
-0.428051 -0.0559298 -0.0249313 -0.992239 -0.124343 0
-0.192955 0.25503 -0.113636 0 0 -1
0.431283 0.0214696 -0.0821064 -0.999689 -0.02493 -0
-0.348757 -0.358269 -0.0305678 -0.680174 -0.733051 0
0.299835 0.31068 0.0547037 -0.680173 -0.733052 0
0.0100243 -0.181488 -0.0016885 -0.049848 0.998757 0
-0.315517 -0.00649517 0.113636 0 0 1
-0.0689111 0.168202 -0.0397881 0.388436 -0.921476 0
-0.116377 0.418787 -0.159091 0 0 -1
0.278538 -0.186708 0.113636 -0 0 1
0.165305 -0.471757 0.133219 0.34202 -0.939693 0
-0.431294 0.0210025 0.0397872 -0.999689 0.02493 0
0.275262 -0.393276 -0.156214 0.398389 -0.58433 -0.706997
-0.060563 -0.209257 0.159091 -0 0 1
-0.0750227 0.165611 -0.0455938 0.433883 -0.900969 0
-0.07474 0.238488 -0.0975317 -0.294755 0.955573 0
0.256707 -0.170254 -0.113636 -0 0 -1
-0.491316 0.0444307 0.142948 -0.705239 0.0528501 0.706997
0.440841 0.0639729 -0.159091 0 0 -1
0.353036 0.252308 0.159091 0 -0 1
0.337781 0.0147956 0.113636 0 0 1
0.179526 0.173874 0.00601201 -0.715867 -0.698237 0
0.249575 0.0139855 0.0755717 0.997204 0.0747297 0
-0.487914 0.108591 -0.0714849 -0.974928 0.22252 0
-0.000865691 0.275065 0.113636 0 -0 1
0.29891 0.345024 0.159091 0 -0 1
-0.14027 0.341573 -0.113636 0 0 -1
-0.201969 -0.397711 0.159091 0 0 1
-0.345327 -0.259189 0.00410876 -0.811938 -0.583744 -0
-0.0902819 -0.233102 -0.0900315 -0.34202 -0.939693 0
-0.264292 -0.341353 0.0646592 0.603805 0.797132 0
0.462859 0.140044 0.152724 0.680784 0.191544 0.706997
0.498199 -0.0406628 -0.0729787 0.997204 -0.0747297 0
0.377018 0.210353 0.00301887 0.866025 0.5 0
0.188245 0.303777 -0.113636 0 -0 -1
0.339226 -0.0900605 0.113636 0 -0 1
0.0273345 0.430857 -0.0473258 0.0498462 0.998757 0
-0.451776 0.21408 0.116571 -0.911506 0.411286 0
0.245184 -0.0487376 0.151766 0.984808 -0.173648 0
0.000231089 -0.249922 -0.0672718 0 1 0
-0.144259 0.110628 -0.0460609 0.781832 -0.623489 0
-0.365056 0.230446 -0.0307828 0.840026 -0.542546 0
0.243379 -0.0568278 -0.0681076 -0.974928 0.22252 0
-0.283696 0.212701 0.113636 0 0 1
0.420593 -0.0972339 -0.151194 -0.974928 0.222521 0
-0.11877 0.485552 0.133765 -0.246758 0.969077 0
0.487246 -0.111519 0.0984979 0.974928 -0.22252 0
-0.29411 0.404273 0.0209906 -0.603805 0.797132 0
-0.359467 -0.347323 0.0658082 -0.715867 -0.698237 -0
0.404418 0.293762 0.0156142 0.811938 0.583743 0
0.437798 0.241401 0.119508 0.866025 0.500001 0
