ply
format ascii 1.0
comment Created by Open3D
element vertex 128
property double x
property double y
property double z
property double nx
property double ny
property double nz
end_header
0.10462 0.0634306 -0.158634 0.16556 0.910441 -0.379062
0.142738 -0.156574 -0.178587 -0.0824977 -0.897751 0.432709
0.275593 -0.237573 -0.345571 0.538854 -0.405431 -0.738419
0.110711 -0.126436 -0.236882 -0.840143 -0.194582 -0.506258
0.19892 -0.0900011 -0.262244 0.325938 0.908639 -0.261037
0.163889 -0.0817376 -0.133923 0.83603 0.14982 0.527833
-0.0300513 -0.0897952 0.00892686 -0.401662 -0.894165 0.19783
-0.213246 0.198636 0.124326 0.0694868 0.145912 -0.986854
-0.0513307 0.14694 0.196503 0.783657 0.562847 0.262841
-0.073612 0.22139 0.24894 0.706882 0.694411 0.134579
0.120169 -0.127882 -0.0290945 -0.538858 0.405429 0.738417
0.202514 -0.172885 -0.218602 0.366749 -0.676225 0.638917
0.0621408 0.00667128 -0.0992279 0.124183 0.905221 -0.406391
0.155504 -0.179676 -0.272252 -0.728843 -0.663914 -0.167349
0.0428235 -0.118054 -0.0195894 -0.040606 -0.888049 0.457952
0.163108 0.0107363 -0.0738681 -0.538858 0.405428 0.738417
0.199882 -0.103761 -0.190451 0.842099 0.282546 0.459388
-0.25925 0.131836 0.328579 -0.473394 -0.870804 0.132658
-0.211023 -0.00260617 0.243201 -0.401662 -0.894165 0.19783
-0.147134 0.0274088 0.321318 0.209209 -0.784696 0.583509
-0.187797 0.108843 0.101794 -0.730229 0.212223 -0.649405
-0.178952 0.0784696 0.252982 -0.165563 -0.910441 0.379059
0.134017 -0.0565167 -0.209964 -0.00138698 0.876139 -0.482057
-0.0261637 0.100176 -0.0131192 -0.00138422 0.876139 -0.482056
0.0323807 0.0927216 0.048071 0.657748 0.750152 0.0681184
-0.00554651 0.00149484 -0.133711 -0.60401 0.425067 -0.674159
0.00534743 0.0917607 0.137035 0.829357 0.408961 0.380681
0.0944356 -0.194227 -0.123537 0.538859 -0.405429 -0.738416
-0.113748 0.154457 0.363155 -0.538859 0.405428 0.738417
-0.107183 0.127027 0.246415 -0.83603 -0.14982 -0.527833
-0.110443 0.0145649 0.00115668 -0.984482 0.152918 0.0860875
0.0318386 0.0936304 0.0422038 0.630695 0.775259 0.0345916
0.124041 -0.0164279 -0.133618 0.538859 -0.405429 -0.738416
0.255287 -0.128156 -0.297721 0.683166 0.723179 0.101477
-0.164617 0.278463 0.248263 0.110233 0.993659 0.0221271
0.116488 -0.0523047 -0.00318298 0.750255 -0.167642 0.639542
0.121559 0.0155457 -0.218921 0.538857 -0.405429 -0.738417
0.0829911 0.0510236 -0.00140219 0.728843 0.663914 0.167349
0.224161 -0.0315268 -0.117031 0.825386 -0.188538 -0.532158
0.0388473 -0.072062 0.0485966 0.328492 -0.706044 0.627371
-0.210935 0.12835 0.197387 -0.798971 0.0318326 -0.600526
-0.242965 0.120573 0.311951 -0.438072 -0.883583 0.16545
-0.0704541 -0.0474016 -0.0425428 -0.820967 -0.449203 -0.352464
0.0282543 0.0690738 -0.0688365 0.0824968 0.897751 -0.43271
-0.0290762 -0.0896826 0.0113025 -0.364255 -0.902523 0.229718
-0.0435449 0.0753322 0.217848 0.768418 -0.122638 0.628087
-0.123497 0.252809 0.30066 -0.215683 0.663769 0.716165
-0.144363 0.243123 0.164742 0.124181 0.905221 -0.406392
-0.0561368 0.150913 0.202325 0.783657 0.562847 0.262841
-0.293136 0.128475 0.240536 0.842099 0.282548 0.459387
-0.148652 -6.57713e-06 0.173958 -0.401662 -0.894165 0.197831
0.117918 0.0148199 -0.221179 0.53886 -0.405429 -0.738416
0.0288528 -0.0892569 -0.0890734 -0.630697 -0.775258 -0.0345934
-0.14024 0.0725241 0.0364491 -0.730229 0.212224 -0.649405
0.3015 -0.178612 -0.330689 0.842099 0.282546 0.459388
0.187327 -0.0588656 -0.0273133 0.811285 0.013741 0.584489
0.0382631 -0.0352598 0.0311954 -0.542542 0.503533 -0.672385
0.120579 -0.0223191 -0.00656235 0.829838 0.104681 0.548098
-0.181768 0.0657576 0.175812 0.748993 0.631765 0.199705
0.216572 -0.0958695 -0.0884122 0.538859 -0.405428 -0.738417
-0.176547 0.0869696 0.349791 -0.328494 0.706042 -0.627372
-0.0267388 -0.105633 -0.148516 -0.538858 0.405428 0.738417
-0.0734767 0.0832194 -0.00831822 -0.658498 0.752564 -0.00526298
-0.16857 0.190039 0.225999 -0.206525 -0.913397 0.35079
-0.130159 0.135201 0.0704841 -0.36675 0.676224 -0.638917
-0.23699 0.242172 0.356368 0.507537 0.855861 -0.0995372
-0.154902 0.147265 0.303952 0.79897 -0.0318365 0.600527
0.164107 -0.176565 -0.0696047 0.429924 -0.720747 0.543773
0.0468958 -0.116956 -0.0174395 0.00138439 -0.876139 0.482056
-0.216163 0.214566 0.285128 0.124185 0.905221 -0.40639
-0.0936108 0.0223359 0.153053 0.00138676 -0.876139 0.482057
0.191476 -0.163899 -0.348131 -0.750259 0.167634 -0.63954
0.0135688 -0.075768 -0.0816688 -0.728843 -0.663915 -0.167348
-0.130415 0.182146 0.136162 -0.00138421 0.876139 -0.482056
-0.0801447 0.2295 0.218978 0.602077 0.798438 0.000981191
-0.253887 0.0510172 0.174088 0.538859 -0.40543 -0.738416
-0.195462 0.181702 0.355077 0.821584 0.0592925 0.566995
0.123767 -0.143135 -0.0180945 -0.538858 0.405429 0.738417
-0.277829 0.138542 0.15204 -0.784669 0.0773353 -0.615072
-0.288096 0.0628977 0.286195 -0.538857 0.405429 0.738417
0.249413 -0.207359 -0.282011 0.366749 -0.676225 0.638917
-0.0439117 0.159884 0.276453 0.839936 0.325527 0.434211
-0.177549 0.277957 0.245416 -0.246628 0.904113 0.348935
0.0871926 0.0493708 -0.0133034 0.706882 0.694411 0.134579
-0.302565 0.215112 0.331414 -0.684779 0.299704 -0.66427
-0.00174919 -0.077088 -0.2269 -0.798971 0.0318346 -0.600527
-0.197649 0.00419097 0.240838 0.538858 -0.405429 -0.738417
0.121836 -0.0603386 -0.075239 0.798971 -0.0318356 0.600527
-0.0912314 0.0624666 0.321324 0.57399 -0.464878 0.67411
-0.0477416 0.0339998 -0.0754118 -0.60401 0.425067 -0.674159
0.112753 -0.128421 -0.239507 -0.840143 -0.194582 -0.506258
0.0553434 -0.0452917 -0.15834 -0.632531 0.384196 -0.672532
0.0381906 -0.159071 -0.183885 0.538858 -0.405429 -0.738417
-0.00126196 -0.16517 -0.0977916 -0.78547 -0.293021 0.545138
-0.0552862 -0.0443876 -0.076254 -0.842099 -0.282545 -0.459389
-0.176574 0.0255373 0.113656 -0.798089 -0.52624 -0.293471
0.0871404 -0.128846 -0.132615 -0.364257 -0.902523 0.229716
-0.0299857 -0.0993256 -0.154349 -0.538858 0.405427 0.738417
-0.0362863 -0.0305653 0.0882408 -0.386258 0.916582 0.103349
-0.113497 0.224921 0.324649 -0.538859 0.405431 0.738415
0.190168 0.0259844 -0.15741 0.571959 0.819633 -0.0326348
0.0716691 -0.186622 -0.0611017 -0.124183 -0.905221 0.406391
-0.119419 0.0379482 0.254809 0.249624 -0.760347 0.599633
-0.0228092 -0.00362065 0.15497 0.475682 -0.576997 0.663929
0.0549192 -0.011686 -0.248337 0.062145 0.104346 -0.992598
0.26965 -0.160878 -0.392018 0.538862 -0.405427 -0.738415
-0.207443 0.109359 0.125356 -0.78467 0.0773315 -0.615071
-0.236642 0.0300236 0.323963 -0.246977 -0.914082 0.321647
0.160422 -0.181941 -0.284037 -0.748991 -0.631769 -0.199701
0.0738187 0.0123201 -0.0928164 -0.286814 -0.912495 0.291704
-0.276242 0.0518354 0.198223 -0.783658 -0.562845 -0.262842
-0.0574105 0.139568 0.306942 0.829838 0.104681 0.548098
0.0179648 0.0814869 0.120485 0.835685 0.367701 0.407954
-0.299962 0.195378 0.323663 -0.798972 0.0318315 -0.600526
-0.0597027 0.100825 0.0603215 -0.0406057 -0.888049 0.457953
-0.245386 0.238979 0.220685 -0.538858 0.40543 0.738416
0.056293 -0.0365766 -0.23793 0.538858 -0.40543 -0.738416
0.198315 -0.169731 -0.357683 -0.750259 0.167634 -0.63954
-0.252516 0.159965 0.393866 0.249627 -0.760346 0.599634
-0.0110172 -0.024782 -0.140656 -0.730228 0.212224 -0.649405
-0.0798274 0.131237 0.130388 -0.401663 -0.894165 0.19783
0.0182171 0.0239345 0.0759314 -0.811285 -0.0137429 -0.584489
0.0475938 0.0351143 -0.171549 -0.538858 0.405429 0.738417
-0.10492 -0.0386935 0.073651 -0.571959 -0.819633 0.0326343
-0.163312 0.183844 0.213294 -0.165562 -0.910441 0.379061
-0.302716 0.191068 0.203209 -0.818052 0.479081 0.318233
-0.127649 -0.0189928 0.0690562 -0.706882 -0.694411 -0.134579
-0.242683 0.251662 0.215693 -0.538859 0.405429 0.738416
