ply
format ascii 1.0
comment Created by Open3D
element vertex 128
property double x
property double y
property double z
property double nx
property double ny
property double nz
end_header
0.460911 -0.213493 0.288842 0.546215 -0.784942 0.292431
0.248992 -0.392496 0.1686 0.768125 -0.551173 -0.325872
0.0790855 0.141251 0.0397213 0.209131 0.939394 0.271667
0.370764 -0.0844918 -0.224595 0.761927 -0.396358 -0.512218
0.273781 -0.403379 0.376771 0.783501 -0.610727 0.114629
0.377084 0.161479 -0.0805037 0.779772 0.571362 0.255931
-0.0551757 -0.398674 0.174435 0.76356 -0.0687326 0.642068
-0.00320669 -0.572802 0.0905317 -0.620523 -0.776902 -0.106652
0.442336 0.0744718 -0.122739 0.656769 0.717997 0.23051
0.38917 0.259338 -0.387499 0.550876 0.677737 0.48704
-0.220536 0.259517 -0.0330731 0.375717 0.263631 -0.888446
-0.209355 -0.228905 -0.121941 -0.745511 0.659596 -0.0956384
0.358545 -0.110621 0.488479 0.668965 -0.335656 0.66319
0.0769409 -0.364455 -0.277475 0.814653 -0.320996 -0.483014
0.372722 0.0577863 -0.492197 0.398037 -0.0615961 -0.915299
-0.184368 0.0295168 -0.0980538 -0.64787 -0.750504 -0.130418
0.286856 -0.28614 0.423388 0.298103 -0.56823 0.766975
-0.0112638 -0.0362152 0.0602672 0.403428 0.278347 -0.871647
-0.0755166 0.0597631 -0.493957 -0.591575 0.77347 -0.227561
0.112863 0.108933 -0.110477 -0.663796 0.514114 0.543196
0.00617234 0.0597334 -0.254737 -0.450106 0.864104 -0.225229
0.165663 -0.491329 0.248752 0.654226 -0.746888 -0.118935
-0.189706 0.323988 0.085387 -0.626592 0.37675 0.682233
0.216463 0.0275575 0.336033 -0.674279 0.73814 -0.0222983
0.371494 -0.16625 0.00299896 0.505164 -0.496169 -0.706135
0.450902 -0.0189324 -0.17524 0.501442 -0.797482 0.335527
0.188935 -0.190837 -0.00897475 0.373666 -0.0931582 -0.922873
0.313154 0.250819 -0.150515 0.522191 0.153486 0.838903
0.322283 0.284879 -0.272115 0.639871 0.584041 0.49946
0.092545 0.230181 -0.414256 -0.714316 0.540601 0.444413
-0.165464 -0.22213 -0.237137 -0.656249 -0.703003 -0.274086
0.0396004 -0.0949206 -0.450836 -0.696773 -0.717282 0.00376129
-0.219711 0.264736 0.176969 -0.645643 0.739404 0.190857
0.280301 0.129759 0.140403 0.373393 0.709474 0.597682
0.340091 0.0595234 -0.403576 0.773903 0.563106 0.289802
-0.105814 -0.235137 0.141832 -0.761819 0.553499 0.336557
0.109356 -0.39741 0.368571 0.269165 -0.611348 0.74418
-0.0991003 -0.235489 -0.358264 -0.86679 -0.469645 -0.167655
-0.151391 -0.10179 -0.29197 -0.706617 0.545925 0.450175
0.0691135 -0.0565236 -0.0886212 0.240217 -0.357122 0.90264
-0.192627 -0.287646 0.0341444 -0.788706 0.513639 0.337814
-0.058859 -0.367433 -0.201452 -0.663129 -0.675398 -0.322641
0.419188 0.149028 -0.224565 0.965302 0.243056 -0.0954742
-0.118433 0.181783 -0.0974507 0.0930673 0.35484 -0.930283
-0.116708 -0.362675 -0.0815114 -0.877393 -0.38586 -0.285119
0.0607298 -0.222911 0.447649 -0.240491 0.121679 0.962994
0.307669 -0.0457599 -0.495877 0.740438 -0.569965 -0.356219
0.0547896 -0.205037 -0.440269 0.294138 0.477007 -0.828219
0.489158 -0.0180395 -0.0540755 0.579319 -0.502346 -0.641902
0.179106 0.103849 0.025882 -0.678154 0.411878 0.608657
0.00859935 -0.182806 0.327411 -0.614164 0.788865 0.02224
-0.065799 -0.524603 0.220839 0.0404392 -0.798805 -0.600229
0.1702 -0.051795 -0.00347095 -0.691419 -0.15911 -0.704716
0.168956 0.117148 -0.492483 0.101969 0.387833 -0.916072
-0.14824 -0.0712829 0.0646022 -0.621526 -0.753938 0.212795
0.0277372 -0.24276 -0.65222 0.485639 -0.150806 -0.861053
0.189183 0.176574 -0.349214 0.647303 0.488352 0.585245
0.305213 -0.0764747 -0.367499 0.696061 -0.692363 -0.190083
0.236679 0.189476 -0.0262141 -0.61824 0.784257 0.0521628
-0.113425 -0.190099 0.0089071 -0.62566 0.774843 -0.0903752
0.4842 -0.128554 0.145028 0.692005 -0.684306 -0.229901
-0.0107628 0.232479 0.00273576 0.609581 0.750664 -0.254784
0.0136311 -0.613753 0.288434 -0.391647 -0.293509 0.872047
0.00469739 0.168654 -0.0824559 0.441087 0.60978 -0.658491
0.318024 -0.200426 -0.123165 0.698406 -0.631023 -0.337697
0.0231994 -0.11984 -0.604742 0.191794 0.243467 -0.950757
0.373696 0.00743275 0.19464 0.726303 0.597333 0.340113
-0.000252503 -0.0192605 -0.54894 0.275123 0.342914 -0.898174
0.166274 0.0332706 0.185478 -0.704039 0.648909 0.288523
-0.107137 -0.0833083 -0.0942629 -0.999391 -0.0348999 0.000306288
0.180778 -0.408109 0.0444173 0.553815 -0.832441 0.0181987
0.428828 -0.0760109 0.26282 0.790575 0.527441 0.31112
0.151895 -0.102098 0.397363 0.81169 0.446444 -0.376625
-0.197817 -0.0447028 -0.547532 -0.64531 -0.380866 -0.662206
0.227098 -0.303812 -0.0709631 0.701497 -0.680203 -0.212665
0.500578 0.0806706 -0.260013 0.69656 -0.710879 -0.0972322
0.21969 -0.184521 0.467655 -0.293913 -0.072717 0.953062
-0.0133916 -0.421318 0.361507 0.30386 -0.544222 0.781979
-0.133175 -0.424661 0.107706 -0.666194 -0.722768 -0.183828
-0.0695899 -0.102342 -0.396526 -0.125302 0.706195 -0.696841
0.0875404 -0.455578 -0.0827305 0.604373 -0.230315 -0.762685
-0.0741448 0.222774 0.124166 0.819314 -0.105024 0.563644
-0.0821903 0.0801109 0.21042 0.578098 -0.313803 0.753213
0.251793 -0.140269 0.29648 0.0933231 -0.525962 0.845373
-0.175088 -0.439475 0.354088 -0.00905643 -0.596072 0.80288
0.157951 -0.132895 -0.110867 -0.108679 -0.275214 0.95522
0.207714 0.301607 -0.361787 -0.66144 0.700216 0.268691
-0.156756 -0.14824 -0.428948 -0.645431 -0.747042 -0.159206
0.0106809 -0.459638 -0.153255 -0.777958 -0.623632 -0.076578
-0.26016 0.0381193 0.00909584 -0.285833 -0.87362 0.393812
0.1569 -0.331233 -0.159434 0.703596 -0.673114 -0.227751
0.484853 0.169753 -0.41412 0.663329 0.66904 0.335231
0.168028 -0.0383263 -0.565765 -0.000213007 0.451639 -0.892201
-0.0203514 -0.144455 0.151159 -0.660202 -0.0866308 0.746076
0.340101 -0.200683 0.3772 -0.833991 -0.0541753 -0.549113
0.349129 -0.292275 0.270209 0.272297 0.941765 0.197313
0.013203 0.1049 -0.372583 -0.644398 0.730473 0.226186
0.163583 -0.247631 -0.340988 0.633471 -0.74417 -0.211954
-0.0322568 0.0926335 0.0721097 -0.000582143 0.385984 -0.922505
0.0752548 0.0376507 0.0205829 -0.466443 -0.646059 -0.604184
-0.0766815 0.0213118 -0.381331 -0.0687978 -0.854213 -0.515352
-0.245487 0.0142802 0.114109 -0.452175 -0.829055 0.328947
-0.182814 -0.344682 0.194622 -0.710638 0.614396 0.342798
0.270444 0.0977846 0.253953 0.176972 0.9182 0.354387
0.0946476 -0.0754391 0.270779 -0.499345 0.863679 -0.0686591
0.276161 -0.00221836 0.477709 0.440648 0.834965 0.329639
0.104197 -0.534978 0.317193 -0.297691 -0.369037 0.88045
0.433502 0.0163307 0.0483832 0.721559 0.629688 0.287829
0.489957 -0.22839 0.428562 0.83041 0.424185 0.361227
-0.018836 0.0357663 -0.0493345 0.208564 -0.418195 0.884089
0.243062 0.207404 -0.466077 0.262182 0.387157 -0.883951
0.27996 0.103735 -0.293104 0.289829 0.452714 -0.843237
0.41133 -0.300805 0.390292 0.678555 -0.631965 -0.374412
0.0110434 -0.341525 -0.461705 -0.667014 -0.623135 -0.408406
0.397319 -0.214869 0.14433 0.690628 -0.152236 -0.707005
-0.0938166 -0.28805 0.297581 0.610188 0.313681 -0.727513
-0.242323 0.138248 0.177776 0.115545 -0.589078 0.799773
0.353167 0.118814 0.0284139 0.704736 0.654537 0.273729
-0.122968 0.185716 0.0145403 -0.585771 -0.414324 0.696568
0.161268 -0.157629 -0.566162 0.64737 -0.598481 -0.471945
0.0802301 -0.451299 0.154363 0.0626887 -0.770279 0.634619
-0.0514846 -0.194344 -0.573722 -0.435632 -0.889877 0.13544
-0.146368 0.0783373 0.0545518 0.190666 0.874414 -0.446146
0.171876 0.201782 -0.145067 -0.800677 0.21551 0.558992
0.231526 -0.141476 -0.453571 0.546741 -0.836453 0.0376813
-0.305956 0.146944 0.0183552 -0.614313 -0.631884 -0.472591
-0.0277956 -0.486132 0.00802203 -0.630565 -0.739914 -0.23434
-0.0784742 0.0183964 -0.159221 0.116934 0.509889 -0.852256
