ply
format ascii 1.0
comment Created by Open3D
element vertex 512
property double x
property double y
property double z
property double nx
property double ny
property double nz
end_header
0.377192 0.0346608 0.157611 -0.373092 0.784493 0.495351
-0.123906 -0.0446414 -0.0561044 -0.551727 -0.625116 -0.552112
0.145776 0.442021 0.38063 0.0443938 0.994634 0.0934507
0.293545 0.0880205 0.006666 0.670753 0.207897 -0.711948
0.292078 -0.479507 0.07003 0.471058 -0.8756 -0.10691
-0.368912 0.0476762 -0.208648 -0.79019 0.0962116 -0.605262
0.215699 -0.104064 0.376813 0.75099 -0.128695 0.647651
0.507939 -0.207851 -0.0643838 0.81052 0.11205 -0.574893
-0.163833 -0.0326327 0.255316 -0.14354 0.93565 0.322421
0.198007 -0.00198304 -0.292755 0.578335 0.360405 -0.731872
0.176548 -0.200187 -0.375276 0.692693 0.00159574 -0.721231
0.249224 0.241092 0.379402 0.387545 -0.136439 0.911698
0.0155421 0.118926 0.331258 -0.672099 -0.171878 0.720237
0.329866 0.319498 0.30821 0.931568 0.0180132 0.36312
0.135945 -0.0562394 0.31305 0.738279 -0.505488 0.446571
0.224248 0.100888 -0.210938 -0.142726 0.849935 0.507188
-0.0886036 -0.0351288 -0.549636 -0.748689 0.107196 -0.654197
-0.194426 -0.18508 0.236867 -0.685493 -0.167032 0.708661
0.0625956 -0.3495 -0.261108 -0.0452863 -0.989629 -0.136325
-0.177277 0.109551 -0.413908 -0.932821 0.00437947 -0.360313
-0.0387368 -0.188743 -0.553544 0.580098 0.325105 -0.746856
0.311637 -0.331547 -0.275868 0.177526 -0.979706 -0.0930602
0.533144 0.0561142 0.0386564 -0.035725 0.99638 0.0771444
0.0772821 -0.382265 0.442619 -0.902186 -0.0859474 0.422699
-0.0260867 0.0615102 0.26557 -0.951893 0.217803 0.215548
-0.0831984 -0.190202 0.34612 -0.711002 -0.168405 0.682727
0.319211 -0.0630454 0.251401 -0.642124 0.214533 -0.73597
-0.163748 -0.347428 -0.3147 -0.13988 -0.990167 -0.00166482
0.00882917 -0.149119 -0.149931 -0.637029 0.245159 -0.730815
-0.42392 -0.265413 -0.204853 -0.642257 0.191116 -0.742281
-0.0382814 0.0465885 -0.493589 0.850619 0.100701 -0.51605
-0.369085 -0.221574 -0.181392 0.811759 0.429561 0.395632
0.164067 0.0659273 0.368447 0.0833943 -0.309553 0.947218
0.304897 0.494308 0.119896 0.790497 0.155892 -0.592295
0.066467 -0.461146 0.409963 -0.673461 -0.17567 0.718046
-0.282935 -0.357225 -0.2528 0.0475261 -0.97858 -0.200304
-0.026802 -0.116402 0.419039 -0.658979 -0.201395 0.724697
-0.205608 -0.34382 0.181663 -0.692286 -0.132935 0.709273
0.358282 -0.106495 0.217113 0.742205 -0.10746 0.661501
0.294909 0.280748 0.0568984 0.762854 0.000724838 -0.646571
0.111387 -0.112707 -0.263776 -0.928418 0.313379 -0.199585
-0.145681 -0.27186 -0.521156 -0.829699 0.0836825 -0.551903
0.168618 -0.273817 -0.38878 0.725231 0.0603959 -0.685852
-0.133138 -0.220482 -0.373058 0.392166 0.771189 0.501471
0.334764 0.242265 0.297731 0.896152 0.0747764 0.437402
0.0663084 -0.0546989 0.434266 -0.186878 0.975241 0.118241
0.156237 -0.0428636 0.45888 0.264112 0.957486 0.116036
0.0796721 0.457498 0.267345 0.135762 0.990644 0.013862
-0.329188 -0.0793024 -0.275542 -0.635514 0.0445664 -0.770802
0.299934 -0.171397 -0.245887 0.735864 -0.12599 -0.665305
-0.249501 -0.341633 -0.330508 0.0617373 -0.932115 -0.356861
0.305174 0.0141872 0.306055 0.664669 -0.114698 0.738281
0.233474 -0.239939 -0.324561 0.693605 -0.111804 -0.711626
0.298107 0.437088 0.372763 0.769903 -0.133306 0.624082
-0.233367 -0.407198 0.155933 -0.704764 -0.122028 0.698868
-0.507679 -0.307635 -0.119243 -0.81517 0.0407986 -0.577782
0.0347821 -0.45468 0.2082 -0.728276 -0.123219 0.674115
-0.145652 -0.288309 -0.128873 -0.27142 0.894966 -0.354072
0.151207 0.109966 0.179744 -0.0936391 0.199448 -0.975424
0.232563 -0.0781616 -0.294606 0.785612 -0.0245093 -0.618233
0.119932 0.347389 0.00759658 0.119639 0.205477 -0.971322
0.303599 -0.234199 -0.261914 0.638343 0.201844 -0.742818
-0.291492 0.00616383 -0.100081 0.331238 -0.943547 7.10411e-05
0.455349 -0.158611 -0.100687 0.621016 0.223919 -0.751132
0.142349 -0.509479 0.0494283 -0.131691 -0.974013 -0.184271
0.414018 -0.111067 -0.119454 0.737658 0.127622 -0.663003
-0.0657957 0.449207 0.292336 -0.250236 0.85766 0.449223
-0.0312837 0.471882 0.164525 0.0984685 0.994908 0.0214767
0.521772 -0.35441 -0.0941609 0.504342 0.275991 -0.81821
-0.291676 -0.00994257 -0.00982545 -0.0795976 -0.962835 -0.258095
-0.239024 -0.430511 0.0421602 0.0163125 -0.948142 -0.317428
0.174337 -0.457122 0.291103 0.146211 -0.921264 -0.360409
-0.255464 0.0523643 -0.121705 -0.0331217 0.986243 0.161951
-0.420814 -0.398828 -0.115814 0.383428 -0.763304 -0.519952
-0.0635854 -0.450176 0.303115 -0.598578 -0.293623 0.745312
0.0808385 0.0563678 -0.0499284 -0.0799256 0.973195 0.215647
0.359546 0.0778484 -0.111842 -0.0933675 0.824936 0.557461
0.367051 -0.0181807 0.222998 0.579608 -0.138371 0.803061
-0.378923 -0.0575916 -0.157695 0.69556 -0.554615 0.456726
0.347448 0.11566 0.110289 0.973036 0.0432579 -0.226559
0.401499 -0.324469 -0.187009 0.674672 0.162436 -0.720022
-0.0415404 -0.357819 -0.184261 -0.243665 -0.962775 -0.117011
0.0852262 -0.0448565 -0.233649 -0.544526 0.148727 -0.825453
-0.212845 -0.14079 0.0826052 -0.435727 -0.231077 -0.869911
0.12584 0.0964061 -0.328773 0.890683 -0.0522454 -0.451613
0.0428967 -0.234894 -0.490669 0.630424 0.347758 -0.693996
-0.248214 -0.38865 -0.12201 -0.236158 -0.963716 -0.124423
-0.235572 0.088346 -0.279748 -0.450025 0.840466 0.301818
-9.73075e-05 0.134371 0.0270072 -0.873327 -0.157844 -0.460853
0.245364 0.0928803 0.362111 0.363152 -0.161542 0.917619
-0.149615 -0.0571261 -0.46338 -0.735949 0.105555 -0.668758
0.301517 -0.205024 0.257398 0.821006 -0.133238 0.555154
-0.200027 -0.164535 -0.369859 0.6019 0.221411 0.767264
-0.22649 0.008674 -0.234845 0.469073 -0.844341 0.258956
0.364236 0.0994536 0.175497 0.947964 0.253807 -0.192215
-0.354917 0.0456926 -0.0744343 -0.0594074 0.928361 0.366902
-0.315796 -0.373223 -0.186962 0.338942 -0.798704 -0.497183
0.279314 -0.336788 0.260287 0.865255 -0.157541 0.475935
-0.0951955 -0.00913669 0.210406 0.251052 0.95916 0.130326
0.111378 0.419785 0.0229968 -0.00606327 0.189919 -0.981781
-0.153959 0.0194385 0.0811064 -0.0818113 0.971486 0.222534
-0.362088 -0.262278 -0.26853 -0.677142 0.0374599 -0.734898
0.272958 0.0863944 -0.112682 -0.0297257 0.994269 0.102694
0.130604 0.0789527 -0.163155 -0.287178 0.91523 0.282635
0.375072 0.0559504 0.0190266 -0.044648 0.952233 0.302091
0.151896 0.4543 0.297245 -0.00618025 0.999427 -0.0332852
-0.0383331 -0.329461 -0.384908 -0.0133264 -0.997021 -0.0759654
0.395177 -0.250876 0.147374 0.616344 -0.262984 0.742266
0.0557545 0.0494567 0.337304 -0.466962 -0.212039 0.858479
-0.136479 -0.26503 -0.277985 0.0360315 0.968108 0.247928
-0.356335 -0.013633 -0.0286893 0.100631 -0.992955 0.0625579
0.125484 0.120445 -0.0458527 -0.112494 0.142095 -0.98344
-0.4841 -0.2895 -0.0554682 -0.680178 -0.174997 0.711853
-0.0679952 -0.255388 -0.315738 -0.0375633 0.896124 0.442211
-0.249513 -0.253289 -0.250729 0.43473 0.672757 0.598672
0.0885075 0.297776 0.413279 -0.350776 -0.154489 0.923628
0.101294 -0.183141 -0.307124 -0.686533 0.621249 -0.377786
0.325633 -0.281263 0.229228 0.797311 -0.0630795 0.600263
-0.155093 -0.227257 0.273691 -0.679962 -0.105846 0.725567
-0.416189 0.0443497 -0.14569 -0.267084 0.727981 0.631435
-0.30848 -0.336774 0.0148468 -0.222407 0.974206 -0.038176
0.238412 -0.448825 -0.0759 0.205291 -0.667231 -0.716002
-0.484993 0.0141067 -0.0915128 -0.712376 0.0951956 -0.695312
0.303606 -0.423345 -0.0622904 0.297846 -0.888529 -0.349005
0.0893243 0.193252 -0.0252341 -0.0811201 0.1816 -0.980021
-0.153906 -0.233956 -0.00571639 -0.549351 0.525558 -0.649616
-0.00343129 -0.286788 -0.546774 0.0109727 -0.99828 -0.0575947
-0.0827866 0.0421565 -0.242353 -0.128134 -0.991087 -0.0364392
0.202693 -0.355326 -0.210585 -0.146193 -0.97274 -0.18001
0.021955 0.0447728 -0.276516 -0.302882 -0.923848 -0.234023
0.354402 -0.191962 -0.204811 0.764027 -0.0311526 -0.644431
0.0445728 0.195571 0.379506 -0.650927 0.0198839 0.75888
-0.138487 -0.332934 0.253962 -0.692481 -0.124771 0.710565
-0.060649 0.232847 0.174624 -0.996363 -0.084659 -0.0096938
-0.141946 -0.332235 -0.391459 0.124453 -0.95856 -0.256271
-0.38633 -0.375867 -0.202605 0.118393 -0.930439 -0.346795
0.234216 0.119313 -0.0278478 0.111064 0.294558 -0.949158
-0.0740767 0.409895 0.187267 -0.815796 0.129945 -0.563552
-0.0767375 0.37789 0.256143 -0.911272 -0.242657 0.332719
-0.154618 0.0404202 -0.00680394 0.0604119 0.979638 0.191465
-0.0822579 0.115156 -0.51577 0.63622 0.302182 -0.709866
-0.514528 -0.219636 -0.0640754 -0.543997 -0.275368 0.792616
0.340209 0.122174 0.266965 0.872564 -0.0744832 0.482789
0.232267 0.314317 0.404338 0.503485 -0.185085 0.843947
0.329756 0.316431 0.123491 0.937604 0.0976492 -0.333712
0.402121 -0.160523 0.162911 0.854065 -0.0736903 0.51492
0.0406654 0.353004 0.413107 -0.427819 -0.216525 0.877546
0.41678 -0.00211584 0.00199038 0.790029 -0.16004 0.591812
0.17997 -0.411539 0.362194 0.821416 0.099189 0.561638
0.0276177 -0.473706 0.372918 -0.665775 -0.187266 0.72227
0.332989 0.40298 0.279012 0.95786 -0.137197 0.252352
0.176103 0.48256 0.19083 -0.120674 0.95737 0.262451
0.360221 0.166424 0.214622 0.9649 0.218235 0.146087
0.267805 -0.0190361 -0.231406 0.623723 0.251134 -0.740203
-0.437039 -0.0188735 -0.147189 -0.722658 0.120972 -0.680537
0.191039 -0.507773 -0.00730477 0.210075 -0.872823 -0.44051
-0.111329 -0.467342 0.2358 -0.0184548 -0.98918 -0.145544
-0.0170873 0.087725 -0.207497 -0.0351064 0.993117 0.111744
-0.0872829 0.0276824 0.0403748 0.102397 0.994738 0.0034102
-0.206225 -0.227367 -0.316401 0.446372 0.631323 0.63418
0.0157252 0.107186 -0.311544 0.202451 0.978986 -0.0244812
-0.0571212 0.166695 0.144304 -0.970919 0.00570193 -0.239341
0.310091 0.389909 0.112343 0.851649 -0.0426358 -0.522376
0.301674 0.462254 0.308539 0.0317926 0.996554 0.0766181
-0.226897 -0.21618 0.107433 -0.600915 0.140551 -0.786859
0.289001 0.360424 0.361922 0.69422 -0.205646 0.689759
-0.204864 0.103578 -0.339879 -0.0156594 0.946269 0.323003
0.0640068 -0.187108 -0.245871 -0.584872 0.5859 -0.560933
-0.396961 -0.284875 -0.109905 0.358399 0.920563 0.155286
-0.202659 0.0582855 -0.0800188 -0.0220652 0.978834 0.203464
0.105405 0.266759 -0.0107105 -0.0571822 0.103379 -0.992997
0.233908 0.157489 0.367435 0.638798 -0.249764 0.727705
-0.0637882 0.278116 0.251659 -0.971929 -0.108414 0.208808
0.246937 -0.0547748 0.357815 0.619813 -0.208738 0.756479
-0.0855396 -0.288433 -0.561502 0.0907774 -0.93369 -0.346385
-0.00374304 -0.347797 -0.266167 -0.0478352 -0.978615 0.200059
0.498681 -0.100263 -0.0442593 0.684251 0.0954946 -0.722967
0.141027 -0.346695 0.415641 0.795725 -0.110718 0.595451
-0.376355 -0.345053 -0.271947 -0.842915 0.102309 -0.52823
-0.199054 -0.401257 -0.0673725 0.127569 -0.840872 -0.525986
0.455525 -0.338645 -0.13913 0.648823 0.272741 -0.710381
0.000402792 -0.468872 0.29581 0.115688 -0.96914 -0.21768
-0.173211 -0.412081 -0.0122754 0.0611472 -0.972296 -0.225612
0.400239 -0.0668138 0.166828 0.860508 -0.165116 0.481936
0.306135 0.173003 0.317112 0.771502 -0.0979398 0.628643
0.310388 -0.00970231 0.108793 0.626043 -0.444345 0.640802
-0.47405 -0.301677 -0.154484 -0.743441 0.108755 -0.6599
0.345843 0.464214 0.264295 0.0553338 0.998267 0.0200289
0.0122267 0.437745 0.327231 -0.0158121 0.998334 -0.0554989
-0.0361074 -0.204853 -0.155436 -0.792153 0.475258 -0.382914
-0.251071 -0.186674 0.188919 -0.572763 -0.241417 0.783365
0.424595 -0.295021 0.111489 0.553712 -0.0711847 0.82966
-0.07417 0.0187175 0.102853 0.0186858 0.988554 0.149703
0.0638415 0.0752613 -0.171489 -0.00136659 0.989141 -0.146963
-0.270199 -0.0323594 -0.251381 0.635658 -0.619326 0.460841
0.0867855 -0.0898699 0.525957 0.626396 -0.0570191 0.777417
0.436216 -0.0134806 0.136524 0.945185 0.0236426 0.325679
0.112461 -0.0559842 0.382586 0.197095 -0.976208 0.0903915
-0.445359 -0.0971998 -0.160368 -0.919953 0.0953038 -0.380269
-0.186647 -0.284526 -0.0572326 -0.588775 0.800045 -0.115204
-0.418247 -0.0367581 0.0773845 0.244056 -0.931179 -0.270817
-0.0604966 -0.264759 -0.253893 -0.0213418 0.90194 -0.431334
0.124035 -0.43147 0.433483 0.819688 -0.357122 0.447857
0.00568553 -0.425933 -0.0383544 -0.221273 -0.888293 -0.40246
0.277583 -0.0943237 -0.25179 0.733373 0.101827 -0.672157
-0.437848 0.0108077 0.0332814 -0.0783533 0.971372 0.224271
-0.0136583 0.342008 0.0604768 -0.804792 0.167108 -0.569547
-0.0150003 0.199208 0.33557 -0.668523 -0.399786 0.627095
-0.0301143 -0.437544 0.0314113 -0.989086 0.126229 -0.0760008
0.443885 -0.199429 0.100925 0.801309 -0.450213 0.393969
-0.154351 -0.128039 0.0202984 -0.768743 -0.136544 -0.624812
0.503481 -0.128467 0.0549147 0.644996 -0.123381 0.75416
0.137879 -0.129526 0.44431 -0.819552 0.458696 -0.343414
-0.320747 -0.17238 -0.255985 0.535891 0.254865 0.8049
-0.286661 -0.227039 -0.357417 -0.742594 0.392057 -0.542997
0.0189847 -0.0791207 0.459069 0.488102 -0.872707 0.0118156
0.14919 -0.322141 -0.320152 0.161918 -0.91788 -0.362324
0.226252 0.431539 0.418362 -0.115372 0.945751 0.303716
-0.25074 0.0153002 0.0688596 -0.145402 0.955225 0.25769
0.394524 -0.0105544 -0.112314 0.767184 0.0279319 -0.640819
0.350078 0.0615427 -0.0419461 -0.0487202 0.975597 0.214094
0.0683845 0.486541 0.141626 -0.0671882 0.96362 0.258692
0.232204 -0.508316 0.0785231 0.213063 -0.891722 0.399293
-0.383093 -0.026364 -0.205151 -0.725336 0.123466 -0.677232
0.133018 0.0399931 -0.339641 0.587529 0.251812 -0.769025
0.171354 0.0671259 -0.0642719 -0.156235 0.963219 0.218632
-0.369573 -0.0159886 0.124129 -0.664685 -0.188651 0.722914
0.123572 0.0975275 -0.243523 -0.153284 0.918436 0.364662
0.286108 -0.467174 0.00974735 0.367547 -0.898417 -0.240325
-0.209426 -0.0918503 0.253434 -0.51852 -0.381323 0.76533
0.248789 0.00480577 0.3429 0.711676 -0.172282 0.681055
-0.221489 -0.291476 0.0192475 -0.266561 0.84609 -0.461603
-0.45856 -0.0668083 -0.00338873 0.434201 -0.816951 0.379553
0.143326 0.197895 0.173727 0.567737 -0.215656 0.79446
-0.1986 -0.317562 -0.426327 0.115224 -0.964723 -0.236714
-0.196022 -0.377323 -0.164106 0.0799463 -0.912883 -0.400317
-0.431065 -0.348039 -0.00727968 -0.457044 -0.488576 0.743239
0.050164 0.36997 0.0420538 -0.640313 0.31384 -0.701073
0.190723 0.232267 -0.0160212 0.551126 0.0426613 -0.833331
-0.516532 -0.042456 -0.0610192 -0.861174 -0.038307 -0.506865
0.449266 -0.0500406 -0.0812392 0.693971 0.110742 -0.711435
-0.160699 -0.20828 -0.496771 -0.532636 0.245303 -0.810015
-0.126654 -0.143479 -0.456463 0.673112 0.309852 0.6715
0.161011 0.133551 0.3879 0.0739578 -0.222252 0.97218
0.483774 -0.3751 -0.0332235 0.148056 -0.954252 -0.259775
0.300921 0.0531989 -0.178341 0.68885 0.139499 -0.711355
-0.0216196 0.0105788 -0.192458 -0.337734 -0.714484 -0.612739
0.246288 -0.432094 0.302899 0.798804 0.0850633 0.595547
-0.222603 -0.0168721 -0.309935 0.660464 -0.60037 0.450936
-0.315534 -0.236679 -0.220192 0.539356 0.357455 0.762444
0.000123636 -0.0747692 -0.147631 -0.581089 0.0373473 -0.812983
0.242394 0.0421107 -0.244484 0.691658 0.159409 -0.704413
-0.148229 0.0343919 -0.461999 -0.680825 0.104945 -0.724889
0.0130157 -0.466258 0.14245 -0.408672 -0.911269 -0.0507649
0.00205997 0.463918 0.0797424 -0.549326 -0.00280319 -0.835603
0.22883 -0.397095 -0.136061 0.109639 -0.853653 -0.509172
-0.154508 0.0411331 -0.252945 0.17922 -0.974237 0.1369
-0.0555434 0.0458114 0.15944 -0.995267 -0.0677915 0.0696339
0.383415 -0.373031 -0.0670322 0.331226 -0.846431 -0.416946
-0.0970809 -0.34066 -0.298332 -0.0464748 -0.992236 -0.115355
-0.0607986 -0.25431 -0.168674 -0.413896 0.840261 -0.350216
0.235356 -0.477114 0.232792 0.210373 -0.977115 -0.0314524
-0.0950271 -0.430624 0.154634 0.0316438 -0.977205 -0.209927
-0.32523 -0.0574626 0.162603 -0.773604 -0.0172535 0.633434
0.0754986 0.441424 0.325904 0.0189895 0.997508 0.0679458
0.505074 -0.27185 -0.0771003 0.832541 -0.135789 -0.537063
0.146985 -0.405141 -0.125027 -0.0340491 -0.79672 -0.603389
-0.218945 0.0739004 -0.212405 -0.176447 0.893602 0.412726
-0.038245 0.353537 0.344236 -0.813728 -0.160836 0.55855
-0.135224 -0.365915 -0.199551 0.038348 -0.941604 -0.334532
0.268426 0.221467 0.014364 0.371294 0.312504 -0.874346
-0.0365911 -0.422817 0.0998459 -0.0347961 -0.942351 -0.332813
0.371909 -0.362988 -0.126705 -0.0350162 -0.994026 -0.10337
0.163956 0.420612 0.444352 -0.0764442 0.965523 0.248839
-0.402731 -0.0484492 -0.0561752 0.504951 -0.807608 0.30462
-0.12022 -0.187963 -0.0147437 -0.853406 0.20674 -0.478495
0.540211 -0.0652955 0.0144774 0.599368 -0.034481 0.799731
-0.459455 -0.226708 -0.159953 -0.884952 0.0948711 -0.455916
0.21563 0.0884911 -0.138781 -0.121049 0.944237 0.306208
-0.00875717 -0.0214805 0.267166 -0.16705 0.882553 0.439539
0.0547482 -0.331332 -0.342077 0.0977967 -0.96315 -0.250557
0.156638 -0.132315 -0.328804 -0.458741 0.600576 -0.654878
0.00171851 -0.178688 0.430368 -0.629034 -0.318485 0.709143
-0.426013 0.0334673 -0.046138 -0.160113 0.905794 0.392302
0.073552 0.135431 0.373366 -0.449652 -0.160909 0.878591
-0.0184159 0.430052 0.384276 -0.720815 -0.20587 0.661849
0.224517 -0.35794 0.330784 0.535485 -0.204159 0.819497
0.0733543 0.0772794 -0.373367 -0.14451 -0.923534 -0.355249
0.298363 0.0914799 0.310113 0.798956 -0.210171 0.563469
0.280104 -0.0917364 0.300822 -0.724937 0.533317 -0.435935
0.187222 -0.0248089 0.30874 0.526398 -0.830375 -0.182711
-0.0696253 -0.311558 -0.446991 0.165826 -0.924632 -0.342866
-0.0232253 -0.457334 0.240057 0.225472 -0.910711 -0.346074
0.1631 -0.455214 -0.0618681 -0.0382231 -0.74598 -0.66487
-0.108265 0.048583 -0.311077 0.302262 -0.945538 0.120814
-0.322997 -0.338143 -0.322554 -0.791518 0.121703 -0.598906
0.108808 -0.205943 -0.372067 -0.440067 0.852949 -0.280746
-0.100423 -0.407212 -0.0152445 -0.0708126 -0.917125 -0.39226
-0.0667792 0.315999 0.195196 -0.988249 -0.151574 -0.0197448
-0.271891 -0.111987 0.195458 -0.754652 0.0843939 0.650675
-0.183516 -0.210596 0.0592842 -0.739404 0.22695 -0.633858
0.0286638 0.130369 -0.420063 0.605462 0.271469 -0.748145
0.129427 0.503015 0.0728325 0.331179 0.936563 0.114761
0.178948 0.310619 -0.00103589 0.473461 -0.0394894 -0.879929
-0.038243 0.0954985 -0.260569 -0.0766052 0.972099 0.221708
-0.359056 -0.335599 -0.0226565 -0.049095 0.961272 0.271193
-0.066955 -0.17655 -0.483929 0.552181 0.480876 0.681069
0.0966776 -0.483457 -0.0136437 -0.371008 -0.839989 -0.395944
0.467046 0.0552889 0.000792327 0.592734 -0.795051 -0.128684
0.352388 0.206311 0.166652 0.922468 0.225187 -0.313599
0.138631 0.352664 0.198856 -0.0648552 -0.126624 0.989828
0.181089 -0.0795965 0.241035 0.750209 0.193653 0.632206
0.0352585 -0.230076 -0.410727 -0.191845 0.964182 0.183165
-0.20224 0.0263167 -0.165108 0.109942 -0.993337 -0.0345721
-0.0901121 -0.101201 -0.50458 0.713643 0.043682 0.699147
-0.18584 -0.282932 -0.220625 0.25885 0.939242 0.225437
0.327707 -0.345118 -0.200497 -0.176428 -0.982522 0.059354
-0.325702 -0.281379 -0.168579 0.489133 0.837521 0.243532
-0.0626387 -0.134753 -0.556456 0.672093 0.183553 -0.717355
-0.215571 -0.299974 -0.147328 -0.290256 0.931994 0.217116
-0.274186 -0.197137 -0.292085 0.511367 0.29662 0.806549
-0.0194042 0.12026 -0.462143 0.609096 0.269672 -0.745842
0.0502846 -0.304183 0.442788 -0.719719 -0.00778432 0.694222
-0.455789 -0.0977333 -0.0790404 0.688201 -0.490387 0.534697
0.086517 -0.475006 0.344328 0.0856853 -0.930743 -0.355494
-0.329211 -0.0445323 -0.18827 0.569214 -0.675894 0.468149
0.107187 -0.293128 0.479771 0.959535 -0.155906 0.234489
0.153766 -0.486192 0.387488 -0.0303459 -0.994716 -0.09808
0.184871 0.210868 0.407167 -0.0745895 0.025123 0.996898
-0.48723 -0.371868 -0.0729242 -0.685213 -0.110082 0.719975
0.129796 -0.295604 -0.439243 0.69281 0.105547 -0.713354
0.251489 0.473718 0.241021 -0.0948788 0.934354 0.343482
0.22133 -0.304217 -0.35819 0.496063 0.308693 -0.811561
0.286365 0.279189 0.350449 0.541095 -0.149846 0.827503
-0.14238 -0.0422771 0.33112 -0.650647 -0.228011 0.724341
0.150798 0.274376 0.213232 -0.673796 0.162083 -0.720922
0.168166 -0.511034 0.122109 0.181588 -0.982958 -0.0286297
-0.197469 -0.366905 -0.251831 0.0891831 -0.96709 -0.238294
-0.0203432 0.0576787 -0.0682443 0.223389 0.972252 0.069452
0.122804 -0.235649 -0.426159 0.813502 -0.0688386 -0.577473
0.08756 -0.173071 0.509596 0.797873 -0.14738 0.584532
0.187648 -0.424457 0.0471859 -0.760302 0.0847203 -0.644021
0.315578 -0.358094 0.216675 0.803387 -0.0932987 0.588103
0.225692 0.455448 0.341117 0.214738 0.97431 -0.0678799
0.090876 -0.493908 0.148657 -0.366325 -0.925745 0.0938208
-0.0687959 -0.0378301 0.339109 0.121649 0.961859 -0.245007
0.373111 -0.439015 0.0743702 0.471385 -0.867888 -0.156736
-0.117184 0.128971 -0.419305 -0.0348597 0.984752 0.170434
0.357526 -0.420923 -0.0209692 0.482095 -0.801842 -0.353035
0.48892 -0.337965 0.0365549 0.798039 -0.148045 0.584137
-0.0435541 0.0825121 0.0874222 -0.795504 0.415941 -0.440644
0.460521 -0.0441586 -0.0147286 -0.210922 0.534362 0.818517
0.278049 -0.110035 0.229578 -0.103823 0.915725 0.388161
0.393752 -0.0829442 0.110795 -0.428315 0.805169 0.410182
0.266009 -0.159783 0.312453 0.608687 -0.155956 0.777932
-0.0728132 -0.0152585 -0.121423 -0.504904 -0.612589 -0.608118
-0.349187 -0.415778 -0.032596 0.0883125 -0.971257 -0.221043
-0.073084 -0.212132 -0.422743 0.633261 0.64981 0.42039
0.052137 -0.0985682 -0.19399 -0.742592 0.0066534 -0.669711
0.346971 0.381431 0.186784 0.983785 0.0831217 -0.158924
-0.236243 -0.0110532 0.214446 0.12772 0.979106 0.158236
0.233133 -0.0161812 0.256815 0.651829 -0.752339 -0.0954177
0.340246 0.476436 0.186966 0.986693 0.0506008 -0.154522
0.154872 -0.14524 0.343641 -0.234757 0.882314 0.407935
-0.100616 -0.0222067 0.284359 -0.27852 0.865925 0.415452
0.338546 -0.0577848 -0.182144 0.728476 -0.184741 -0.659692
0.0466956 0.505574 0.057723 0.0157184 0.983854 0.178279
-0.130611 0.116948 -0.361534 -0.13277 0.953522 0.270495
0.231489 -0.323247 -0.277591 0.0884478 -0.959541 -0.267316
0.321242 0.151698 0.0506645 0.816122 0.153649 -0.557078
0.00808663 0.291773 0.371325 -0.569178 -0.300302 0.765412
0.0685461 -0.447627 -0.0630578 -0.416777 -0.858266 -0.29946
-0.464312 -0.373114 -0.174488 -0.751649 0.08858 -0.653588
-0.17417 -0.0112195 -0.371607 0.313896 -0.61438 0.723883
0.553474 -0.333949 -0.0343893 0.812009 -0.136705 0.56741
0.0162447 -0.249187 -0.345869 -0.0987408 0.955572 -0.277726
-0.504323 0.0122985 0.00859825 -0.652162 -0.255346 0.713781
-0.00527234 0.454998 0.24383 -0.0878748 0.914992 0.393786
-0.105058 0.0220091 -0.169366 -0.183557 -0.917328 -0.353292
0.00293176 -0.243886 0.411755 -0.736585 -0.0464975 0.674745
-0.291599 -0.0449441 0.0706714 -0.224163 -0.841607 -0.491373
-0.0499367 -0.241271 -0.38029 0.127556 0.991318 -0.0319006
-0.205057 -0.13851 -0.446872 -0.902509 0.248128 -0.352009
0.0343848 0.0647723 -0.106021 -0.11052 0.929223 0.352604
-0.289406 -0.387859 0.111855 -0.657924 -0.201128 0.72573
0.3882 0.0436902 0.0782452 0.0519712 0.980435 0.189857
0.356545 -0.137299 -0.175765 0.737667 -0.0327018 -0.674372
-0.0555594 0.126157 0.213487 -0.962222 0.20003 0.18471
-0.14565 0.0796857 -0.198391 -0.190961 0.857973 0.476881
0.196019 0.379832 0.0183219 0.199212 0.320331 -0.926122
0.404973 -0.383246 0.124666 0.811258 -0.132879 0.569389
0.375759 -0.272358 -0.189628 0.726415 -0.173695 -0.664945
-0.0332951 0.195326 0.0799649 -0.986054 -0.115113 -0.120195
0.197774 0.490245 0.125476 -0.370222 0.882351 0.290505
-0.395666 -0.147748 -0.176766 0.758965 -0.0634374 0.648034
-0.0407204 0.0663548 -0.129588 0.109148 0.986115 0.125155
-0.511739 -0.130534 -0.0387536 -0.690298 -0.0530561 0.721577
0.449983 -0.389324 0.0641025 0.750349 -0.102119 0.653106
-0.162906 0.011627 -0.115365 0.142077 -0.848419 -0.509901
0.351845 0.298404 0.224659 0.997563 0.0619925 0.0320179
-0.00892039 -0.311255 0.380111 -0.665094 0.00417893 0.746748
0.312225 -0.364544 -0.110462 0.0605203 -0.967452 -0.24571
-0.160764 0.0934714 -0.298087 0.129287 0.98177 0.13933
0.427557 -0.384777 0.00545633 0.218475 -0.876921 -0.428111
0.110384 0.223276 0.406507 -0.0519251 -0.273457 0.960482
-0.151785 0.0036706 0.135828 -0.140608 0.939059 0.313684
0.262496 -0.024999 0.176829 0.847707 -0.508658 0.150535
-0.462245 -0.17837 -0.11837 0.809564 0.0346742 0.586007
0.186607 0.0733145 -0.272287 0.590598 0.262334 -0.763135
-0.0875103 -0.101397 0.363057 -0.789806 -0.00789163 0.613306
-0.370262 -0.126761 -0.240508 -0.81781 0.0416966 -0.573975
0.365331 -0.419426 0.151589 0.468219 -0.197186 0.86133
0.216334 0.485419 0.0522275 0.309264 0.315917 -0.896968
-0.168316 -0.437955 0.124518 -0.181471 -0.965476 -0.186881
-0.0946597 0.00361857 -0.481649 0.807206 -0.442853 0.390256
-0.0554282 -0.394623 -0.0668968 0.0375118 -0.953245 -0.299861
0.347186 0.0604841 0.244464 0.870025 -0.00761451 0.492949
-0.192868 -0.0177637 -0.0292719 -0.306227 -0.814454 -0.492839
-0.343384 0.0110732 -0.251467 -0.80125 0.119274 -0.586321
-0.0457459 0.274777 0.310441 -0.838425 -0.235903 0.491318
-0.268817 -0.0977601 0.124519 -0.417035 -0.423487 -0.804202
0.552107 -0.161343 -0.00685375 0.597158 0.271777 -0.754679
0.0355339 0.282432 0.0196625 -0.395791 -0.0322641 -0.917774
0.104829 0.0129624 -0.289154 -0.311632 -0.664351 -0.679355
0.113981 -0.482669 0.200049 -0.0983887 -0.981833 0.162245
-0.0390449 0.158107 0.285127 -0.785452 -0.341574 0.516133
-0.210495 -0.061711 -0.415927 -0.793253 0.131271 -0.594574
-0.0681523 -0.185349 -0.0742005 -0.812363 0.340189 -0.473643
-0.0972486 0.052561 -0.0764582 -0.0579796 0.972869 0.223975
0.342123 0.232169 0.093516 0.878816 0.155201 -0.451215
0.519303 -0.0090498 0.066876 0.791398 0.00945953 0.611228
0.402588 -0.0488971 0.0409024 0.418446 0.808785 0.413243
-0.298398 -0.310467 0.104434 -0.507206 0.77235 -0.382384
-0.227165 0.0238799 -0.00756764 -0.242714 0.938664 0.24495
0.069206 -0.0109535 0.331418 -0.374608 -0.243928 0.894521
0.2658 -0.348491 -0.168313 0.0144686 -0.987509 -0.156897
0.0704149 -0.363791 -0.184881 0.0383993 -0.977486 -0.207477
-0.272107 -0.07472 -0.344883 -0.784505 0.0528002 -0.61787
0.0639137 0.425207 0.419023 -0.301634 0.905655 0.298003
-0.250778 -0.264044 0.180323 -0.64257 -0.216166 0.735103
-0.0406418 0.378739 0.118815 -0.825152 0.116558 -0.552755
0.0596525 0.100351 -0.245992 0.0655076 0.997754 0.0139956
0.250749 0.31647 0.0368973 0.349337 0.311884 -0.883568
-0.166407 -0.0742349 0.00827384 -0.464067 -0.492502 -0.736263
-0.441086 -0.414848 -0.038195 0.0483597 -0.978777 -0.199143
0.014828 -0.377435 -0.103839 0.0697928 -0.996794 -0.0391167
0.120742 -0.0451103 -0.280271 -0.730687 -0.203251 -0.651756
-0.110376 -0.422552 0.076419 0.0272055 -0.980588 -0.194182
0.0580289 -0.113399 0.379013 0.389035 0.631014 0.671173
0.0470838 -0.239508 0.450514 -0.657763 -0.199316 0.726376
-0.271369 -0.00359195 -0.186278 0.499911 -0.8455 0.187667
-0.322006 0.0850499 -0.259082 -0.318644 0.836328 0.446117
0.0916595 -0.395484 -0.132627 0.118621 -0.88493 -0.450364
0.272515 0.409762 0.0610653 0.633133 0.16522 -0.756204
0.188093 -0.198453 0.389811 0.971178 -0.0766255 0.225702
-0.0719467 -0.0811163 -0.0841515 -0.75376 0.0274194 -0.656577
0.0507456 0.13267 -0.0232073 -0.301995 0.0979545 -0.948263
0.364904 -0.326445 0.168154 0.971358 -0.0987751 0.216119
0.411593 0.0676191 -0.051148 0.169111 0.972725 -0.158768
0.0297121 -0.316572 -0.409904 -0.119165 -0.99286 0.00528126
0.133813 0.420517 0.221371 0.328755 -0.182404 0.926633
0.208359 -0.261852 0.349601 0.68853 -0.15096 0.709322
-0.316456 -0.139824 -0.305704 -0.905868 -0.0282013 -0.42262
-0.114722 -0.246263 -0.0910002 -0.535019 0.710551 -0.457026
-0.00727099 0.0575744 0.0151543 -0.585486 -0.0323392 -0.810037
-0.0825289 -0.350644 0.302552 -0.430936 -0.419422 0.798987
-0.00779553 -0.0458349 0.406257 -0.0465138 0.986419 0.157527
0.302172 -0.436686 0.229747 0.764468 -0.124368 0.632551
-0.146897 -0.391491 -0.1065 0.0873918 -0.963644 -0.252494
-0.195673 -0.258115 -0.455426 -0.761025 0.0993846 -0.641064
0.0269021 -0.23077 -0.277593 -0.441652 0.86096 -0.252371
-0.118516 -0.164296 -0.535279 -0.686879 0.0768854 -0.722694
-0.165612 -0.431628 0.20382 -0.737359 -0.131491 0.66258
0.234981 -0.16834 -0.300214 0.527961 0.453428 -0.718095
-0.247555 -0.315494 -0.0348306 -0.138169 0.976561 -0.165039
-0.026787 0.08112 -0.355928 0.194825 -0.92976 -0.312394
0.264544 -0.251497 0.295869 0.702204 -0.0641452 0.709081
0.0991754 -0.460671 0.278734 0.0761224 -0.948625 -0.307108
0.127308 -0.353289 -0.229062 -0.0381854 -0.993578 -0.106512
-0.263691 -0.405974 -0.0422285 -0.301289 -0.940083 -0.159588
0.442171 -0.248318 -0.138728 0.660259 0.202319 -0.723274
-0.231559 -0.0641594 0.0439588 -0.356732 -0.706608 -0.611103
-0.0345445 0.290178 0.0867848 -0.901547 0.0411814 -0.430718
-0.345695 -0.392095 -0.10723 -0.151236 -0.981503 -0.117385
0.1512 -0.269406 0.431977 0.643248 -0.0738264 0.762091
0.0630477 -0.489732 0.0704493 -0.549801 -0.828331 0.107644
-0.00546849 -0.30467 -0.468877 0.156225 -0.932499 -0.325638
-0.089632 -0.375535 -0.1386 -0.0904422 -0.99339 -0.0706837
0.156221 0.0287208 0.15755 -0.346184 0.234616 -0.908357
-0.0236409 -0.384793 0.34603 -0.720678 0.00980622 0.693201
-0.126475 -0.280504 -0.208631 -0.130783 0.990578 -0.0406217
0.512785 -0.265185 0.0155171 0.811261 0.110854 0.574079
0.0270923 0.21943 0.0157641 -0.662814 -0.087054 -0.743706
-0.218319 0.0457483 -0.381232 -0.795449 0.218243 -0.565359
-0.00345743 -0.218914 -0.205247 -0.460914 0.772512 -0.436788
-0.0818286 -0.274654 0.325373 -0.666563 -0.183539 0.722501
-0.270207 -0.29205 -0.38157 -0.858521 0.0246987 -0.512184
-0.100164 -0.129648 -0.039996 -0.855495 -0.125921 -0.502266
-0.224147 -0.00391665 0.141417 -0.119318 0.952483 0.280249
0.145742 0.341357 0.435725 -0.0121187 -0.206407 0.978391
-0.163655 -0.118615 0.302459 -0.699417 -0.028698 0.714137
-0.291352 0.0020932 -0.319699 -0.902585 0.205459 -0.378322
-0.0714319 0.198644 0.228746 -0.860624 -0.293875 0.415889
-0.0645826 0.0593388 -0.428785 0.553704 -0.825858 0.10663
0.476028 0.0236724 0.106218 0.745822 -0.106869 0.657517
-0.360791 0.00524539 0.0526592 0.0786056 0.990963 0.108691
-0.317068 -0.323542 -0.0811441 0.171444 0.970809 0.167743
0.189074 -0.0337068 0.373716 -0.214077 0.931196 0.295035
-0.328741 -0.405812 0.0588552 -0.622766 -0.331417 0.708749
0.474262 -0.0701438 0.0928873 0.567592 -0.0712368 0.820222
-0.232643 -0.218467 -0.416881 -0.589729 0.175753 -0.788245
0.22464 -0.497925 0.151831 0.258772 -0.954504 0.148184
