ply
format ascii 1.0
comment Created by Open3D
element vertex 512
property double x
property double y
property double z
property double nx
property double ny
property double nz
end_header
-0.194006 -0.343005 -0.00801233 -0.339131 -0.940185 0.0322685
0.0472117 0.171872 -0.272329 0.41687 0.885464 -0.205361
-0.233792 0.382027 0.233821 -0.41687 -0.885464 0.205361
-0.159038 -0.148667 -0.168661 0.837107 -0.285944 0.466356
-0.31072 -0.201029 -0.10159 -0.837107 0.285944 -0.466356
-0.0158475 0.178902 -0.370022 0.41687 0.885464 -0.205361
-0.0602332 0.423167 0.253846 -0.41687 -0.885464 0.205361
-0.166367 -0.349055 0.0457585 -0.379858 -0.917307 0.1194
0.329154 0.0991148 -0.352952 -0.41687 -0.885464 0.205361
0.0832288 0.438623 0.185964 0.625035 0.777125 -0.0735396
-0.2342 -0.166112 -0.217534 -0.837107 0.285944 -0.466355
0.117459 0.392349 0.209995 0.886696 0.423922 0.184553
-0.0748362 -0.292333 0.0832955 0.837107 -0.285945 0.466355
0.0355462 -0.15619 -0.207181 -0.310952 0.452663 0.835706
-0.214723 0.186973 -0.0360029 -0.837108 0.285946 -0.466354
-0.0755311 0.0554509 0.233394 0.310952 -0.452663 -0.835706
-0.123166 -0.157466 0.217966 0.545752 0.378098 -0.747794
-0.0416987 -0.324135 -0.177603 0.0129234 -0.841934 -0.539426
-0.0272073 -0.183486 -0.209649 -0.215609 0.611038 0.761673
-0.149256 0.346741 0.0828482 0.41687 0.885464 -0.205361
-0.113538 0.306911 -0.0163848 0.41687 0.885464 -0.205361
0.260843 0.175056 -0.505478 -0.141188 0.888591 -0.436432
0.222554 0.0987601 -0.0612022 -0.41687 -0.885464 0.205361
0.107418 0.25296 0.369949 -0.41687 -0.885464 0.205361
-0.145362 0.219642 0.0458497 -0.0510941 -0.889651 -0.453773
-0.204366 0.243884 -0.0196987 -0.837107 0.285944 -0.466356
0.00675595 0.257504 0.226587 -0.354219 0.366319 0.86043
0.026214 0.149781 -0.157557 -0.517464 -0.690423 0.505517
0.00899793 0.202228 -0.0143186 -0.327596 -0.944777 0.00874649
0.389052 -0.0177148 -0.395862 0.41687 0.885464 -0.205361
-0.27441 0.393344 0.200165 -0.41687 -0.885464 0.205361
-0.332305 0.0232157 0.219499 -0.471458 0.0552719 0.880155
-0.178499 -0.315899 0.137985 -0.478351 -0.796211 0.370444
0.0686829 0.00536026 -0.316175 0.5119 0.108845 -0.852121
-0.165317 0.128457 0.155528 0.215608 -0.61104 -0.761672
0.252264 0.265585 -0.194147 0.720335 0.693625 0.00124255
-0.159454 -0.0155953 -0.254461 -0.412394 0.230256 0.881427
-0.276623 0.0303671 0.153382 0.446131 -0.136497 -0.884497
-0.242135 -0.204412 0.0681502 0.497226 0.753154 -0.430726
-0.0988588 0.109863 0.189258 0.215608 -0.61104 -0.761672
0.150207 0.215928 0.126703 0.41687 0.885464 -0.205361
0.0487852 0.184037 0.060139 -0.234294 -0.957768 -0.166696
-0.299176 0.214157 0.158118 -0.235713 0.580765 0.779199
-0.185853 -0.243608 -0.128405 0.158001 0.942558 0.294314
-0.286015 -0.303109 0.00731821 -0.41687 -0.885464 0.205361
0.286233 0.185295 -0.213655 0.837107 -0.285944 0.466356
-0.080788 0.448166 0.357045 -0.354219 0.366319 0.86043
-0.133676 -0.317741 0.173334 0.837107 -0.285944 0.466356
-0.017431 0.200219 -0.108779 -0.442175 -0.855613 0.269087
-0.037726 0.237686 -0.160974 0.41687 0.885464 -0.205361
-0.250396 0.158297 0.0104469 -0.837107 0.285944 -0.466356
-0.131758 -0.0276327 0.329476 -0.457167 0.102493 0.883456
-0.232869 0.0915128 0.103966 -0.485244 -0.78174 0.39169
-0.290319 -0.237891 0.139438 -0.521176 -0.675911 0.521076
-0.333027 -0.273485 0.0274659 -0.464647 -0.821594 0.330283
-0.19713 0.224924 0.175062 -0.16016 0.687044 0.708745
-0.337723 -0.184835 0.150481 -0.543677 -0.529253 0.651389
0.118082 -0.0491082 -0.290174 0.477767 -0.0330661 -0.877864
0.187011 0.309142 0.0403848 0.837107 -0.285944 0.466356
-0.346767 -0.282381 -0.0266282 -0.416869 -0.885465 0.20536
0.036756 0.101193 -0.427868 -0.41687 -0.885464 0.205361
0.17395 -0.10748 -0.249932 0.837107 -0.285945 0.466356
-0.0259713 -0.123058 -0.247643 -0.333 0.41 0.849124
0.104429 0.331103 0.191143 -0.41687 -0.885464 0.205361
-0.224367 -0.31297 -0.168877 -0.147531 -0.938928 -0.310883
-0.0533083 -0.159877 -0.337996 0.294083 -0.48361 -0.824401
0.2052 0.0778114 -0.186756 -0.41687 -0.885464 0.205361
0.0588453 0.298625 -0.0414233 -0.41687 -0.885464 0.205361
0.0330277 -0.27215 -0.102204 -0.0306517 0.826652 0.561879
-0.00340951 0.422189 0.309987 -0.881167 0.449119 0.147774
-0.310452 -0.110105 0.214618 -0.537627 -0.272576 0.79791
-0.157211 -0.162922 0.299828 -0.537627 -0.272576 0.79791
0.0374746 0.470608 0.210869 0.381384 0.89668 -0.224748
-0.108689 0.215438 -0.20888 -0.837107 0.285944 -0.466356
-0.0856078 -0.185252 -0.223062 -0.164478 0.681499 0.713096
-0.11498 -0.281569 0.0261988 0.349029 0.935622 -0.0528318
0.053566 -0.310683 -0.185789 0.120142 -0.735595 -0.666682
-0.11357 -0.215107 0.200174 0.837107 -0.285944 0.466356
-0.19398 -0.334697 -0.107722 -0.223771 -0.956912 -0.18506
0.334189 -0.0349632 -0.411171 -0.41687 -0.885464 0.205361
-0.0810337 -0.350458 0.0587809 0.837107 -0.285945 0.466356
0.033518 -0.179931 -0.294722 0.316524 -0.442126 -0.839248
-0.100074 -0.278439 -0.0605834 0.209363 0.955068 0.209791
-0.136937 0.0455834 0.213919 0.35422 -0.366318 -0.86043
-0.0599718 -0.219181 -0.182 -0.0848808 0.774289 0.627114
-0.117806 0.477745 0.329212 -0.354219 0.366319 0.86043
0.178626 -0.055319 -0.256346 0.490353 0.0143121 -0.871406
0.35964 -0.0246219 -0.314917 -0.41687 -0.885464 0.205361
0.136839 0.218907 -0.297922 -0.837107 0.285944 -0.466356
-0.194857 -0.00999546 0.294777 -0.457167 0.102493 0.883456
0.207142 0.119846 -0.00157136 -0.41687 -0.885464 0.205361
-0.130903 0.106672 -0.235695 -0.837108 0.285944 -0.466354
0.335212 0.00892162 -0.219873 -0.41687 -0.885464 0.205361
0.236653 0.00955734 -0.487749 0.35422 -0.366318 -0.86043
0.184241 0.215151 0.337278 0.837107 -0.285944 0.466356
0.0906399 -0.187222 -0.269065 0.33819 -0.399565 -0.852042
0.18659 0.253423 -0.321899 -0.141188 0.888591 -0.436432
-0.180698 -0.234626 0.0850152 0.48524 0.781749 -0.391677
-0.206387 0.300153 0.0184297 -0.837107 0.285944 -0.466356
0.120129 0.397225 0.0699305 0.543594 0.829313 -0.129402
0.0123914 0.155037 -0.415598 0.41687 0.885464 -0.205361
-0.183676 0.188046 0.0820205 0.837107 -0.285945 0.466356
-0.264267 -0.318838 -0.0422897 -0.339131 -0.940185 0.0322685
0.17503 0.338392 -0.0760122 0.500941 0.851244 -0.156337
-0.195024 0.0414906 0.190051 0.393966 -0.276334 -0.876601
0.321124 0.16631 -0.517302 0.26776 0.921169 -0.282405
0.24027 0.0806988 -0.281737 0.837107 -0.285945 0.466356
-0.38222 0.0380033 0.173314 -0.837107 0.285944 -0.466356
-0.329674 -0.296993 -0.0985058 -0.317504 -0.948188 -0.0114597
-0.0610815 0.408347 0.188225 -0.41687 -0.885464 0.205361
-0.152502 0.03721 0.305629 -0.389217 0.287721 0.875058
-0.118293 0.0600164 -0.286938 -0.837107 0.285944 -0.466356
0.0654883 0.0988024 -0.379853 -0.41687 -0.885464 0.205361
0.249911 0.0480019 -0.224526 -0.41687 -0.885464 0.205361
-0.15257 0.352726 0.272354 -0.41687 -0.885464 0.205361
-0.122421 -0.116843 0.276311 0.837107 -0.285945 0.466356
-0.217373 0.382265 0.097745 0.41687 0.885464 -0.205361
0.227798 0.146932 0.157149 -0.41687 -0.885464 0.205361
0.309599 0.0803718 -0.134222 0.41687 0.885464 -0.205361
-0.0277497 0.0557825 -0.267209 -0.534068 -0.242644 0.809874
-0.0366457 0.404469 0.127258 -0.837107 0.285945 -0.466356
0.0543942 0.0427849 -0.216444 -0.539307 -0.28855 0.79113
0.0589967 0.166359 0.124311 0.837107 -0.285944 0.466355
-0.144329 0.203073 0.208176 -0.16016 0.687044 0.708745
-0.0640413 0.499446 0.261 -0.231124 0.85725 -0.460113
-0.0856232 0.218718 0.0310415 -0.158 -0.942557 -0.294316
-0.139774 -0.344048 -0.114378 -0.173387 -0.947243 -0.26957
-0.19253 -0.170207 -0.294843 -0.837107 0.285944 -0.466356
-0.132257 -0.0207265 -0.311378 -0.837107 0.285945 -0.466356
0.167399 0.180806 -0.0895531 0.837107 -0.285945 0.466356
-0.0373684 -0.268854 -0.248244 0.146375 -0.704341 -0.694606
0.0514305 0.182401 -0.218364 0.41687 0.885464 -0.205361
-0.0924364 0.386963 0.303121 -0.837107 0.285945 -0.466356
-0.106864 -0.333505 -0.155122 -0.0947973 -0.915437 -0.391137
-0.123328 -0.356515 0.107293 -0.41687 -0.885464 0.205361
-0.205067 -0.17078 0.262804 -0.544976 -0.361951 0.756302
-0.0110481 0.521051 0.329809 0.390568 0.894083 -0.219251
-0.316925 0.0194 0.044703 -0.837107 0.285943 -0.466357
-0.256127 -0.161835 0.108463 0.538129 0.583676 -0.608062
-0.238768 0.270915 0.058627 -0.837107 0.285945 -0.466356
0.194611 0.201662 -0.412198 -0.837107 0.285944 -0.466356
-0.330303 -0.105525 0.0534265 0.429797 -0.183605 -0.884061
0.211257 0.196346 0.1662 0.41687 0.885464 -0.205361
0.242723 0.235579 -0.362627 0.178503 0.929654 -0.322304
-0.199721 0.0940012 0.264277 -0.34936 0.376564 0.85799
0.301595 0.125747 0.0718103 0.837107 -0.285945 0.466356
-0.311703 0.16409 0.124046 -0.837114 0.285938 -0.466348
-0.117825 0.348483 0.154162 0.41687 0.885464 -0.205361
-0.0340369 0.301106 0.119965 0.41687 0.885464 -0.205361
0.235558 0.0740358 -0.141408 -0.41687 -0.885464 0.205361
-0.379128 -0.0728301 0.0998059 -0.837107 0.285944 -0.466356
-0.227992 -0.243699 -0.0607375 0.327596 0.944777 -0.00874643
-0.00130905 -0.295346 -0.212589 0.0936154 -0.765052 -0.637128
0.0904089 0.238601 -0.116053 -0.837107 0.285945 -0.466356
-0.111444 -0.363213 -0.0600715 -0.223771 -0.956912 -0.18506
-0.388458 -0.155123 0.066096 -0.837107 0.285944 -0.466356
-0.0944621 0.330238 0.29335 -0.41687 -0.885464 0.205361
-0.101357 0.134032 0.277601 -0.259827 0.542379 0.798946
0.0104417 -0.0762909 -0.248361 -0.429798 0.183602 0.884061
-0.105609 -0.255333 0.136713 0.48524 0.781749 -0.391678
-0.235717 -0.322212 0.0261333 -0.398853 -0.902487 0.162582
-0.215877 -0.17179 -0.0808116 0.837105 -0.285948 0.466358
-0.356962 -0.114579 0.180249 -0.544976 -0.36195 0.756302
-0.0698524 -0.0928554 -0.278924 -0.35422 0.366318 0.86043
-0.117595 -0.369112 0.0023974 -0.295092 -0.953874 -0.0551758
-0.0128513 0.112759 0.20757 0.138268 -0.71423 -0.686118
0.196516 0.235554 -0.033908 -0.41687 -0.885464 0.205361
-0.156083 -0.180231 0.177939 0.545246 0.505105 -0.669011
-0.173396 -0.0688941 0.308506 -0.496549 -0.039456 0.867112
0.0678033 -0.267342 -0.224755 0.197704 -0.636746 -0.745297
0.221717 0.112437 -0.513601 -0.41687 -0.885464 0.205361
-0.104445 -0.0479661 -0.219955 -0.393966 0.276334 0.876601
0.0857727 -0.00873274 -0.209813 -0.519623 -0.149136 0.841279
-0.175133 -0.218553 0.257751 -0.546006 -0.489118 0.680177
-0.318586 -0.143247 -0.0520429 -0.837107 0.285944 -0.466356
-0.362468 -0.221371 -0.0211754 -0.837107 0.285944 -0.466356
-0.0529252 -0.361095 0.00180449 0.837107 -0.285944 0.466356
0.0444721 0.392074 0.332326 -0.41687 -0.885464 0.205361
-0.143464 0.241621 0.171507 -0.354219 0.366319 0.86043
0.106996 -0.150281 -0.181671 -0.354219 0.366319 0.86043
0.22745 0.284965 -0.0746968 0.862433 0.48371 0.14911
-0.177354 0.341038 0.171653 -0.41688 -0.885458 0.205368
-0.320131 -0.248273 0.0942946 -0.502218 -0.739673 0.447951
0.0096695 -0.226354 -0.161484 -0.138268 0.714229 0.686118
0.163389 0.072395 -0.120686 0.837107 -0.285945 0.466356
-0.111974 -0.17267 -0.350254 0.247101 -0.562929 -0.788703
0.168725 0.351821 0.00362801 0.69021 0.723219 -0.0237586
-0.26232 -0.147096 -0.155399 -0.837107 0.285944 -0.466356
0.337297 0.0129022 -0.368909 0.41687 0.885464 -0.205361
-0.0177278 0.360807 0.353116 0.837107 -0.285945 0.466356
0.0600018 0.294975 0.454855 -0.416864 -0.885468 0.205354
0.164725 0.162608 0.0967073 -0.41687 -0.885464 0.205361
0.0912832 0.210781 0.155334 -0.41687 -0.885464 0.205361
-0.167745 -0.0813455 -0.284846 -0.837107 0.285945 -0.466356
-0.116285 0.258488 -0.168849 -0.837107 0.285945 -0.466356
0.00687611 0.381118 0.0348193 -0.837107 0.285944 -0.466356
-0.051053 -0.00652824 -0.275341 0.837107 -0.285945 0.466356
0.268509 0.146608 -0.271278 -0.41687 -0.885464 0.205361
-0.0998836 -0.0813877 -0.392054 0.378993 -0.311613 -0.871356
0.131112 0.21913 -0.23749 -0.41687 -0.885464 0.205361
0.0678641 0.255382 0.300101 -0.41687 -0.885464 0.205361
-0.166704 0.150099 0.245443 -0.259827 0.542378 0.798947
0.359535 0.0803423 -0.409583 0.837107 -0.285944 0.466356
-0.167864 -0.30835 -0.198272 -0.0680514 -0.90032 -0.429876
-0.0488891 0.150735 0.15754 0.0578393 -0.801466 -0.595237
-0.211902 -0.320468 0.0786316 -0.449808 -0.844967 0.289315
0.189573 0.0174819 -0.510505 0.35422 -0.366318 -0.86043
0.239946 0.19538 -0.457337 -0.141188 0.888591 -0.436432
-0.30161 -0.297203 -0.171452 -0.223771 -0.956912 -0.185059
0.170945 0.336774 0.0806757 0.886696 0.423922 0.184553
0.197796 0.296584 -0.208746 0.295028 0.916873 -0.268891
-0.120913 -0.246005 -0.288595 0.120142 -0.735595 -0.666682
0.124117 0.072238 -0.375379 -0.41687 -0.885464 0.205361
-0.308516 0.145976 0.196897 -0.328126 0.419659 0.846298
0.0241212 -0.0472649 -0.34055 0.464012 -0.0803653 -0.882176
-0.141115 -0.270032 0.21594 0.837107 -0.285944 0.466356
0.131441 0.388122 0.139971 0.800044 0.595108 0.0759991
-0.105036 0.150615 -0.208003 0.190273 -0.647082 -0.738296
0.343187 0.0722592 -0.470586 0.354217 -0.366318 -0.860431
-0.235546 0.397444 0.296734 -0.416867 -0.885468 0.205348
-0.201325 -0.0732479 0.19401 0.519623 0.149138 -0.841279
-0.248098 0.137068 0.224739 -0.328126 0.419659 0.846298
0.0303132 0.452414 0.145546 0.133245 0.930469 -0.341283
0.00849009 -0.348874 -0.137178 -0.0141242 -0.863522 -0.504113
-0.254409 0.245028 0.142629 -0.16016 0.687044 0.708745
-0.220335 -0.226214 0.214839 -0.543677 -0.529253 0.651389
-0.0984534 0.318318 0.0634174 0.41687 0.885464 -0.205361
0.0853309 0.239836 0.0980977 0.41687 0.885464 -0.205361
0.120516 0.247831 0.203993 0.41687 0.885464 -0.205361
-0.0446463 0.201663 -0.330344 0.41687 0.885464 -0.205361
-0.0669566 -0.297021 -0.000106726 0.282348 0.956023 0.0793682
0.0188483 0.492041 0.26502 0.409819 0.887807 -0.209396
0.27446 0.00473206 -0.361262 -0.41687 -0.885464 0.205361
-0.198596 0.3584 0.0401596 -0.837107 0.285944 -0.466356
-0.160972 -0.213701 -0.330198 0.172251 -0.671363 -0.720834
-0.0927506 0.0200808 -0.357272 -0.837107 0.285945 -0.466356
0.195287 0.1396 -0.451463 -0.837107 0.285945 -0.466356
-0.153479 0.376715 0.357539 -0.354219 0.366319 0.86043
-0.0436517 0.151784 -0.191557 0.837106 -0.285944 0.466358
-0.265258 -0.252167 -0.21455 -0.837107 0.285945 -0.466355
0.315832 0.186352 -0.269924 0.886696 0.423924 0.184551
0.321963 0.136732 -0.438084 -0.864754 0.316853 -0.389621
-0.382227 -0.185875 0.110828 -0.535041 -0.605542 0.58911
-0.171019 -0.26309 -0.0319847 0.305351 0.951583 0.035356
0.0431309 0.0970356 -0.195543 -0.545246 -0.505107 0.66901
0.0890311 0.180919 -0.148948 -0.837107 0.285945 -0.466356
0.138557 -0.0271775 -0.180481 -0.519623 -0.149135 0.841279
0.162213 0.201442 -0.354178 -0.837107 0.285944 -0.466356
0.297157 0.0367185 -0.177271 -0.41687 -0.885464 0.205361
-0.281953 0.205397 0.0959716 -0.837107 0.285945 -0.466356
0.0706083 0.180443 -0.00196239 -0.349028 -0.935622 0.0528296
-0.282792 0.154966 0.0665556 -0.837107 0.285944 -0.466356
-0.258299 -0.0520213 0.162583 0.519623 0.149137 -0.841279
-0.158913 -0.219391 0.134919 0.517464 0.690425 -0.505514
0.0250994 0.336329 0.448249 -0.354219 0.36632 0.86043
-0.229779 -0.235661 0.00688065 0.425572 0.876056 -0.226749
0.273954 0.235358 -0.320642 0.508607 0.847575 -0.151448
-0.242611 -0.256061 0.163587 -0.521176 -0.675911 0.521076
0.239012 0.0747227 -0.41957 0.819491 -0.463841 -0.33658
-0.220821 -0.293329 -0.221349 -0.0680514 -0.90032 -0.429876
0.198506 0.142664 -0.168777 0.837107 -0.285945 0.466356
-0.0759638 -0.355235 -0.11055 -0.121313 -0.928318 -0.351438
-0.122405 -0.255846 -0.119885 0.105069 0.920679 0.375912
0.0808303 0.348064 -0.0938165 -0.231116 0.857253 -0.460111
-0.0258606 0.207855 0.234297 -0.354219 0.366319 0.86043
0.234258 0.170588 0.10183 0.41687 0.885464 -0.205361
0.062427 0.41651 0.0601955 0.133245 0.930469 -0.341283
0.0519423 0.0652125 -0.587485 0.35422 -0.366318 -0.86043
-0.0498053 0.220962 -0.0191821 -0.282349 -0.956023 -0.0793674
0.113045 0.174652 0.0437309 -0.41687 -0.885464 0.205361
0.353715 0.0253456 -0.28193 0.41687 0.885464 -0.205361
0.0486225 0.325323 0.21226 0.837107 -0.285945 0.466356
0.420628 -0.0185331 -0.335295 0.41687 0.885464 -0.205361
0.0892296 0.307119 0.396119 0.41687 0.885464 -0.205361
0.0650079 0.455562 0.308536 0.82284 0.559291 0.100632
0.00321538 0.307371 0.393033 -0.41687 -0.885464 0.205361
-0.173825 -0.257152 0.0267497 0.407909 0.894322 -0.183845
0.0673889 -0.0698893 -0.315409 0.449124 -0.127464 -0.884331
-0.201704 -0.107645 -0.240015 -0.837107 0.285945 -0.466355
0.00313527 0.356161 0.112685 -0.837107 0.285945 -0.466356
0.262915 0.121584 0.11914 -0.41687 -0.885464 0.205361
0.105333 0.074203 -0.162087 -0.545246 -0.505107 0.66901
-0.136924 -0.261477 0.0794983 0.442175 0.855613 -0.269086
-0.319037 -0.0980688 -0.0190045 0.517464 0.690424 -0.505516
-0.0626424 -0.113931 -0.363775 0.359031 -0.356023 -0.862754
0.118754 -0.10507 -0.283917 0.433137 -0.174255 -0.884323
0.42687 -0.0518363 -0.295786 -0.41687 -0.885464 0.205361
0.424808 -0.0318881 -0.246009 0.837107 -0.285945 0.466356
-0.148133 0.27943 -0.098841 -0.837107 0.285944 -0.466356
0.204491 -0.00321161 -0.240822 0.837107 -0.285944 0.466356
-0.251744 0.190373 0.190194 -0.235713 0.580765 0.779199
-0.242569 0.0238627 0.082567 0.446132 -0.136497 -0.884497
0.265351 0.134079 -0.447197 0.907774 -0.393991 0.143934
-0.18137 0.21111 -0.0810709 -0.837107 0.285944 -0.466356
-0.0489134 0.296707 0.241232 -0.41687 -0.885464 0.205361
0.116294 0.250138 0.0446904 0.837107 -0.285945 0.466356
-0.122407 0.217948 -0.00962313 0.837107 -0.285944 0.466356
0.17956 0.181974 0.0398908 0.41687 0.885464 -0.205361
0.215527 0.201421 0.272701 0.837107 -0.285944 0.466356
0.306204 0.0552936 -0.249245 0.41687 0.885464 -0.205361
-0.286503 -0.192085 0.187342 -0.543677 -0.529252 0.651389
0.126578 0.0799715 -0.50747 0.41687 0.885464 -0.205361
0.272989 0.0697455 -0.498415 0.354219 -0.366319 -0.86043
0.259115 0.0299933 -0.28349 -0.41687 -0.885464 0.205361
-0.244344 0.218906 0.0367469 -0.837107 0.285944 -0.466356
0.0507035 0.275751 0.353091 -0.41687 -0.885464 0.205361
-0.147945 0.200704 -0.14745 -0.837107 0.285945 -0.466356
-0.0295801 -0.2621 -0.119496 -0.00339015 0.849781 0.527126
0.166475 0.0357315 -0.446802 -0.41687 -0.885464 0.205361
-0.0642503 0.189392 0.0960245 -0.0510939 -0.889651 -0.453773
-0.134888 0.164683 -0.0427127 -0.234292 -0.957768 -0.166698
-0.112001 0.010988 -0.232867 -0.488332 -0.0063927 0.872635
-0.00842054 -0.125071 -0.336613 0.359031 -0.356023 -0.862754
0.153766 0.321839 -0.162252 0.133245 0.930469 -0.341283
-0.414013 -0.11587 0.136036 -0.837107 0.285945 -0.466355
-0.00281552 0.00927464 -0.357384 0.490353 0.0143121 -0.871406
0.0482364 0.447986 0.374617 0.837107 -0.285944 0.466356
-0.188527 -0.123046 0.187244 0.543205 0.333738 -0.770421
0.109391 0.263392 -0.221377 -0.837107 0.285944 -0.466356
-0.080008 -0.0152515 -0.398143 0.449124 -0.127464 -0.884331
0.275256 0.101896 -0.331541 0.837107 -0.285945 0.466356
0.0496945 0.176873 -0.072708 -0.442175 -0.855613 0.269087
-0.068297 0.292616 0.184246 -0.41687 -0.885464 0.205361
0.239051 0.26396 -0.271366 0.400295 0.890929 -0.214495
0.29251 0.210361 -0.39402 0.423934 0.883014 -0.20141
-0.0759506 0.0974814 -0.173584 -0.53813 -0.583673 0.608064
0.188663 0.084205 -0.387087 -0.837107 0.285945 -0.466356
-0.0983291 -0.306254 -0.206869 0.0129237 -0.841933 -0.539427
0.0240968 0.209955 -0.155046 0.41687 0.885464 -0.205361
-0.113501 -0.136408 -0.242882 0.837107 -0.285944 0.466356
0.123591 0.0981251 -0.43526 0.41687 0.885464 -0.205361
-0.242604 -0.0661067 0.268289 -0.507288 -0.0867325 0.857401
-0.281537 -0.141871 -0.090085 0.349027 0.935622 -0.0528286
-0.0943059 -0.0501456 0.26674 0.837107 -0.285945 0.466356
0.105514 0.371097 -0.0467355 0.0876664 0.929042 -0.359439
-0.115101 0.158012 -0.106907 -0.407909 -0.894321 0.183845
-0.0798046 0.185968 0.239338 -0.16016 0.687044 0.708745
0.0299671 0.323056 0.00529323 -0.41687 -0.885464 0.205361
0.061202 0.36599 0.253821 -0.41687 -0.885464 0.205361
-0.26177 -0.11701 0.0351541 0.837107 -0.285946 0.466355
0.388178 0.0406693 -0.13577 0.837107 -0.285945 0.466356
0.124793 -0.210854 -0.22508 0.837107 -0.285945 0.466356
0.144016 0.0295097 -0.53438 0.35422 -0.366318 -0.86043
-0.0831977 0.0846824 -0.334809 -0.837107 0.285944 -0.466356
0.0371105 0.21569 0.193845 0.837107 -0.285944 0.466356
-0.0183301 0.19883 0.0585502 -0.183911 -0.949994 -0.252366
-0.36175 0.00553113 0.116659 -0.837107 0.285945 -0.466356
0.156105 -0.160086 -0.252386 0.398029 -0.266441 -0.877828
0.000753463 0.0933566 -0.372871 0.354219 -0.366319 -0.86043
-0.100463 0.320068 0.237318 -0.41687 -0.885464 0.205361
-0.207769 -0.115652 0.280932 -0.531975 -0.226833 0.815812
0.246955 0.187261 0.207607 0.837107 -0.285945 0.466356
-0.0113936 0.416438 0.375856 0.837107 -0.285945 0.466356
0.0690297 -0.234431 -0.140393 -0.164477 0.6815 0.713095
-0.145607 0.294344 0.148179 -0.354219 0.366319 0.86043
0.213321 0.132642 0.0661465 -0.41687 -0.885464 0.205361
0.15567 0.142816 -0.00701197 -0.41687 -0.885464 0.205361
-0.261766 -0.000613994 0.258779 -0.471458 0.0552719 0.880155
-0.0615682 0.281728 -0.0194726 0.41687 0.885464 -0.205361
-0.274086 -0.0300259 0.110595 0.837106 -0.285944 0.466358
0.0187297 -0.245174 -0.256616 0.222675 -0.600571 -0.767939
-0.0462809 0.288118 0.0391117 0.41687 0.885464 -0.205361
-0.293296 -0.175932 0.0567143 0.517464 0.690425 -0.505514
0.0606954 -0.0575269 -0.225971 -0.461357 0.0890497 0.882734
-0.1631 -0.202237 -0.194215 0.837107 -0.285945 0.466355
-0.0973529 0.447792 0.284674 -0.41687 -0.885464 0.205361
0.0258494 0.135265 -0.473532 0.41687 0.885464 -0.205361
0.273629 0.0830536 -0.0252454 -0.41687 -0.885464 0.205361
-0.181208 -0.0153124 0.2081 0.461356 -0.0890509 -0.882735
0.0708693 0.108306 -0.498385 0.41687 0.885464 -0.205361
0.0373278 0.161544 -0.336923 0.41687 0.885464 -0.205361
-0.0833234 0.233068 0.199907 -0.354219 0.366319 0.86043
0.0448977 0.369251 -0.0351981 -0.297152 0.828311 -0.474975
-0.180409 0.400173 0.249992 0.41687 0.885464 -0.205361
0.14092 0.323658 0.132018 0.837107 -0.285944 0.466356
0.0386275 0.311082 0.310485 0.41687 0.885464 -0.205361
-0.092391 0.274841 -0.111734 0.41687 0.885464 -0.205361
0.0827867 0.427999 0.118816 0.428628 0.881325 -0.198858
0.145265 0.194376 0.194179 -0.41687 -0.885464 0.205361
-0.32482 0.0873394 0.212052 -0.407743 0.242187 0.880393
-0.29042 -0.0543729 0.241154 -0.516788 -0.1338 0.845593
-0.0349489 0.353066 0.179148 -0.837107 0.285945 -0.466356
0.069041 -0.127311 -0.301811 0.398029 -0.266441 -0.877828
-0.212807 -0.136248 -0.173682 0.0238835 0.8708 0.491057
0.163192 0.265646 0.367436 0.41687 0.885464 -0.205361
0.0147506 0.000478894 -0.251378 -0.510453 -0.10177 0.853862
-0.0351602 0.313108 0.339868 -0.41687 -0.885464 0.205361
-0.192119 -0.25637 -0.28572 0.0399414 -0.818285 -0.573423
0.251584 0.144298 0.0236431 0.41687 0.885464 -0.205361
0.0264903 0.0940814 -0.525936 -0.837107 0.285945 -0.466356
0.190619 0.0554102 -0.278552 0.354219 -0.366319 -0.86043
-0.270699 -0.205922 -0.176427 -0.837107 0.285944 -0.466357
-0.0362459 -0.0566081 -0.369385 0.433137 -0.174255 -0.884323
0.0274018 0.156119 0.174746 0.837107 -0.285944 0.466356
0.0872021 0.3158 -0.149415 -0.837107 0.285944 -0.466356
0.0391799 0.0593642 -0.34258 0.354219 -0.366319 -0.86043
0.147169 0.124226 -0.0652181 -0.497226 -0.753155 0.430724
0.16282 0.0270353 -0.147477 0.837107 -0.285944 0.466356
0.075121 0.394381 0.0063894 0.0418767 0.925376 -0.376729
0.121333 -0.0826239 -0.191748 -0.461357 0.0890497 0.882734
-0.281156 -0.0846346 0.0898031 0.837107 -0.285945 0.466355
-0.406998 -0.0494282 0.164181 -0.837107 0.285946 -0.466356
-0.342779 -0.0413537 0.0538599 -0.837107 0.285944 -0.466356
-0.0409883 0.34998 0.415231 -0.354219 0.366319 0.86043
-0.0795433 0.228844 -0.252976 -0.837107 0.285944 -0.466356
-0.026671 0.207275 -0.269657 0.41687 0.885464 -0.205361
0.0697242 0.28115 -0.0946909 -0.41687 -0.885464 0.205361
0.316768 0.0873073 0.0210067 0.837107 -0.285944 0.466356
0.0956493 0.137369 -0.322768 0.41687 0.885464 -0.205361
-0.251659 -0.166428 0.230975 -0.546656 -0.405367 0.732697
-0.0676355 0.170947 -0.136757 0.837107 -0.285944 0.466356
0.131174 0.303428 0.486659 0.837107 -0.285944 0.466356
-0.0615368 0.470969 0.212712 -0.837107 0.285944 -0.466356
0.00976617 0.26556 0.0452305 -0.837107 0.285945 -0.466356
-0.0566012 0.147626 -0.343956 -0.837107 0.285944 -0.466356
0.088967 0.292842 0.119927 0.837107 -0.285945 0.466356
0.34412 0.0339759 -0.0937625 -0.41687 -0.885464 0.205361
-0.0719475 0.0460435 -0.205601 0.837108 -0.285944 0.466354
-0.164586 0.404928 0.302613 0.41687 0.885464 -0.205361
0.208324 0.02542 -0.406311 -0.41687 -0.885463 0.205364
0.167771 0.157018 -0.30494 -0.837107 0.285945 -0.466356
-0.0466882 0.26247 -0.0723015 0.41687 0.885464 -0.205361
0.124558 0.142829 -0.240544 0.41687 0.885464 -0.205361
0.144165 0.256321 -0.00154598 0.837107 -0.285945 0.466356
-0.213371 0.104215 0.155693 0.310952 -0.452662 -0.835707
-0.112822 -0.228184 -0.174707 -0.00338936 0.849781 0.527125
-0.0222203 0.150371 0.260293 0.837107 -0.285944 0.466357
-0.249035 0.0662616 0.252949 -0.407743 0.242187 0.880393
0.00342716 0.476595 0.379611 -0.354219 0.366319 0.86043
0.32983 0.183269 -0.344378 0.800044 0.595108 0.0759991
0.263434 -0.00644366 -0.43183 -0.416871 -0.885462 0.205367
0.22556 0.127126 -0.226866 0.837107 -0.285945 0.466356
-0.254402 -0.316981 -0.12584 -0.248172 -0.958241 -0.142075
-0.0455632 -0.289582 -0.0564834 0.158001 0.942558 0.294314
-0.350442 -0.0417098 0.206474 -0.516788 -0.1338 0.845593
0.222766 0.29547 -0.138181 0.658413 0.751079 -0.0487102
-0.208109 -0.193207 0.11937 0.525666 0.656441 -0.541074
-0.0453633 0.454254 0.305968 0.904324 -0.381212 0.192032
-0.237866 -0.126853 0.149449 0.546943 0.421517 -0.72331
0.358083 0.15016 -0.393085 0.843652 0.522131 0.125021
-0.137809 -0.091208 -0.211107 -0.240401 0.573485 0.783149
0.174265 0.231609 0.243155 0.41687 0.885464 -0.205361
0.329883 0.0928494 -0.0392482 0.41687 0.885464 -0.205361
-0.173719 0.316298 -0.0303086 -0.837107 0.285944 -0.466356
-0.161112 0.380467 0.204197 0.41687 0.885464 -0.205361
-0.270141 -0.294277 0.0642151 -0.464647 -0.821594 0.330283
0.294874 0.0648507 -0.389468 0.837107 -0.285945 0.466356
-0.0876743 0.0145457 0.294502 0.837107 -0.285945 0.466356
-0.106276 0.0714794 0.312211 -0.349361 0.376564 0.85799
0.316921 0.0190439 -0.457129 0.837107 -0.285945 0.466356
-0.113195 -0.0542407 -0.27649 -0.52567 -0.656421 0.541094
-0.244668 -0.149131 -0.0339006 0.425571 0.876056 -0.226748
-0.340029 -0.240976 -0.0734744 -0.837107 0.285944 -0.466356
0.140914 0.222864 0.308177 -0.41687 -0.885464 0.205361
-0.0109619 0.288906 0.284636 -0.416869 -0.885464 0.205361
0.393106 0.109777 -0.465616 0.879136 0.444124 0.172839
-0.230244 0.111334 0.0475407 0.215608 -0.611039 -0.761672
0.215762 0.129278 -0.113835 0.41687 0.885464 -0.205361
-0.284449 0.432416 0.279907 -0.354219 0.366319 0.86043
-0.141986 -0.115618 -0.352098 -0.837107 0.285945 -0.466356
-0.167753 0.155515 0.0334909 0.837107 -0.285945 0.466356
0.425238 -0.0684497 -0.376903 0.35422 -0.366318 -0.86043
0.0091947 0.310025 0.0735196 -0.837107 0.285945 -0.466356
-0.0596823 0.0812071 0.285129 0.837107 -0.285944 0.466355
-0.0858718 0.343062 0.358345 0.455597 -0.399 -0.795758
0.267842 0.0883842 -0.184439 0.41687 0.885464 -0.205361
0.217076 0.0379028 -0.334723 -0.41687 -0.885464 0.205361
-0.336983 0.0671208 0.109966 -0.837107 0.285944 -0.466356
0.00279868 0.242661 -0.0572608 0.41687 0.885464 -0.205361
0.0603991 0.269387 0.174904 0.41687 0.885464 -0.205361
-0.0517041 0.0663354 -0.382962 0.354219 -0.366319 -0.86043
-0.234183 -0.22185 -0.251741 -0.837107 0.285944 -0.466356
-0.264286 0.435006 0.229917 0.41687 0.885464 -0.205361
0.474363 -0.0606828 -0.352616 0.837107 -0.285945 0.466356
0.0850639 0.436694 0.247842 0.800044 0.595109 0.0759988
-0.0638674 0.356511 0.233168 -0.837107 0.285945 -0.466356
0.11642 0.2229 -0.17237 -0.837107 0.285945 -0.466356
-0.262843 -0.195585 -0.0110977 0.837107 -0.285945 0.466356
0.208445 0.302271 -0.0209784 0.879136 0.444126 0.172838
-0.238388 -0.208715 -0.128095 0.457689 0.833027 -0.310783
-0.228198 0.295513 0.11368 -0.354219 0.366319 0.86043
0.158361 0.274448 -0.269625 -0.186377 0.873974 -0.448812
0.158415 0.103812 -0.34005 0.41687 0.885464 -0.205361
-0.276603 0.0756259 0.0521475 0.354219 -0.366319 -0.86043
-0.217584 0.149842 0.11946 0.837107 -0.285945 0.466355
0.187844 0.0207232 -0.196265 0.837107 -0.285944 0.466356
-0.215781 0.40031 0.178779 0.41687 0.885464 -0.205361
-0.010049 -0.343842 -0.0645798 0.837107 -0.285945 0.466356
-0.0780836 0.520353 0.327425 -0.354219 0.366319 0.86043
0.134996 0.202535 -0.0180677 0.837107 -0.285945 0.466356
-0.390747 -0.23008 0.0451649 -0.502218 -0.739673 0.447951
0.145278 0.248332 0.426851 -0.41687 -0.885464 0.205361
0.403621 0.0155644 -0.222797 0.41687 0.885464 -0.205361
0.220991 0.21102 -0.0900111 -0.41687 -0.885464 0.205361
-0.234248 -0.0070214 0.179259 0.475435 -0.0413803 -0.878777
-0.347394 0.113879 0.157324 -0.837107 0.285945 -0.466356
-0.0323723 0.122 -0.398703 0.354219 -0.366319 -0.86043
-0.360657 -0.16548 0.0098438 -0.837107 0.285945 -0.466356
0.120951 0.220863 0.259026 -0.41687 -0.885464 0.205361
0.313329 0.0360536 -0.317741 0.41687 0.885464 -0.205361
-0.155203 -0.080565 0.221201 0.519623 0.149137 -0.841279
-0.140399 0.169608 0.121909 0.111712 -0.745187 -0.657432
-0.00189306 0.1144 -0.219127 -0.545246 -0.505107 0.66901
0.151898 0.0111515 -0.27565 0.354219 -0.366319 -0.86043
-0.0365676 0.374029 0.305147 -0.494205 0.41045 0.76635
0.258908 0.229632 -0.137422 0.837107 -0.285944 0.466356
0.0832885 0.0535885 -0.53867 -0.41687 -0.885464 0.205361
-0.0692123 -0.21032 -0.309374 0.222675 -0.600571 -0.767939
-0.243816 0.366209 0.145268 -0.41687 -0.885464 0.205361
0.105061 0.077935 -0.323364 0.354219 -0.366319 -0.86043
-0.0941255 0.162897 -0.267237 -0.837107 0.285944 -0.466356
0.289236 0.102259 -0.0811854 0.41687 0.885464 -0.205361
