ply
format ascii 1.0
comment Created by Open3D
element vertex 512
property double x
property double y
property double z
property double nx
property double ny
property double nz
end_header
-0.0387315 -0.384447 0.175489 -0.825767 0.533756 0.182244
0.307325 0.362048 -0.0175389 0.50464 0.0534704 0.861672
0.158762 0.414661 0.0471784 0.446076 0.0437676 0.893924
0.0690673 0.468093 -0.152246 -0.739932 0.547665 0.390594
-0.0111472 -0.418031 0.18584 0.73905 -0.563647 -0.368926
0.0695546 -0.137499 0.0590108 0.763145 -0.538182 -0.357729
0.0490202 -0.0555038 -0.195988 0.736821 -0.539952 -0.406875
-0.0957906 -0.204018 -0.0951655 -0.256315 -0.92339 0.285751
0.0567918 0.480528 -0.204448 0.464731 0.799578 -0.380396
0.0332159 -0.213456 0.165241 0.329336 0.0467446 0.943055
0.210277 0.388119 0.0461814 0.537571 0.063133 0.840852
0.359662 0.350579 -0.144233 0.87417 -0.161809 0.457871
0.256776 0.382631 -0.198148 0.364434 0.864224 -0.346849
-0.167019 -0.269062 0.104653 0.486401 0.115535 0.866063
0.0186904 -0.279471 0.0582546 0.723523 -0.467589 -0.507814
0.087895 0.401211 -0.0221811 -0.745855 0.555401 0.367737
0.0342037 0.303947 -0.215921 -0.557666 -0.119757 -0.821381
0.026601 0.348366 -0.244321 0.928239 -0.371914 0.00722761
0.0353353 -0.186793 0.162305 0.553929 0.0560311 0.830676
-0.112295 0.156521 -0.0475159 0.79018 -0.222384 0.571106
0.155454 0.0463043 -0.192501 -0.847935 0.180136 -0.498556
0.334915 0.357832 -0.0499295 0.579372 0.089997 0.810079
-0.1199 0.0774186 0.0877258 -0.688381 0.680081 0.252232
0.110434 0.450929 0.0172475 -0.748954 0.541069 0.382509
-0.0937573 -0.47466 0.186187 -0.445639 -0.829521 0.336603
-0.145028 0.092113 -0.120489 -0.379678 -0.179367 -0.907564
0.230974 0.219757 0.043136 0.548157 -0.0176202 0.83619
-0.0486164 -0.144695 -0.132395 0.727518 -0.457183 -0.511568
-0.0339929 -0.275127 0.179453 -0.505222 -0.0768245 -0.859563
0.177603 0.410662 0.0351086 0.46802 0.0660993 0.881242
0.127968 0.505571 -0.0511223 0.0362287 -0.400414 -0.915618
-0.110812 -0.0977717 0.203078 -0.61882 -0.115433 -0.777005
0.164082 0.234063 -0.312456 -0.458072 -0.126165 -0.879916
0.359692 0.320541 -0.152473 0.72394 -0.495902 -0.479576
-0.224251 -0.050617 0.0596505 -0.740527 0.529439 0.4139
-0.0675059 -0.387814 0.242909 0.457169 0.071243 0.886522
-0.0766088 0.222718 -0.0649103 0.849618 -0.152194 0.504962
0.110014 0.200157 -0.279556 -0.557865 -0.0629444 -0.827541
0.359889 0.280831 -0.0942392 0.718874 -0.648671 -0.249892
0.00926998 -0.229109 0.060834 -0.745332 0.542968 0.386868
-0.178575 -0.00468887 -0.0838595 -0.378525 0.0799172 -0.922134
0.274305 0.344524 -0.272309 -0.520827 -0.0600923 -0.851545
0.032997 0.0688944 0.152288 0.484952 0.0424612 0.87351
0.0418448 -0.116694 -0.142809 0.790672 -0.336688 -0.51135
0.177331 -0.0392936 -0.0486598 0.727349 -0.603208 -0.327267
-0.00897779 -0.00743915 -0.163734 -0.387634 -0.192308 -0.90153
-0.233498 -0.254888 0.317539 -0.490561 0.569776 0.659321
0.194337 0.0650762 0.0498826 0.542043 0.048268 0.838963
-0.059218 -0.391355 0.201898 -0.527907 -0.0373033 -0.848482
-0.133643 -0.0286728 0.196628 -0.74571 0.523221 0.4125
-0.196669 0.00770988 -0.0464194 -0.876846 -0.116257 0.466503
0.121359 -0.0483266 0.100094 0.495874 0.0638597 0.866043
-0.0447652 0.366462 -0.156548 -0.725549 0.596841 0.342578
0.288283 0.276992 -0.282309 0.768399 -0.457538 -0.447461
-0.210832 -0.228497 -0.00419234 -0.505392 -0.14216 -0.851099
-0.201495 -0.12599 0.213872 -0.702399 0.617791 0.353512
0.0973577 -0.185713 0.0978559 0.630486 0.606894 -0.483909
-0.143439 -0.0776034 0.153363 -0.403008 -0.85468 0.32727
0.28527 0.190309 -0.105855 0.733781 -0.638504 -0.232116
-0.110826 -0.440393 0.247633 -0.540516 -0.781171 0.312432
0.0418592 0.309683 -0.218628 -0.396572 -0.0190237 -0.917807
-0.106738 -0.378138 0.0838285 0.503485 -0.00232977 0.864001
0.181239 0.119284 0.0819557 0.532163 -0.0176855 0.846457
-0.126341 -0.357197 0.0860635 0.537315 0.0209614 0.843121
-0.227142 -0.22909 0.214124 0.679416 -0.692667 -0.242088
0.0871012 0.421847 -0.25841 -0.526996 -0.101819 -0.843746
0.246712 0.329296 -0.339474 0.444791 0.832376 -0.330622
0.243549 0.199635 -0.248138 0.684485 -0.467757 -0.559181
0.126245 0.295529 -0.297417 -0.567673 -0.0527433 -0.821563
0.174629 -0.00133289 -0.102413 0.735769 -0.513097 -0.442012
0.0391744 0.363222 -0.0600739 -0.748408 0.506298 0.428425
0.0663512 0.463206 -0.248677 0.297869 0.929598 -0.217076
0.143443 0.498823 -0.0381779 0.447549 0.830969 -0.33044
0.0414723 -0.126894 -0.0104456 0.606283 -0.743688 -0.28169
-0.0786681 0.117538 0.120691 0.546146 0.0192283 0.837469
0.248986 0.21041 0.0370388 0.556633 -0.0891718 0.825959
-0.203921 -0.102238 0.175851 -0.745328 0.512559 0.426344
0.0589558 0.366358 -0.0411513 -0.716555 0.632277 0.294578
0.0293912 0.362151 -0.0851512 -0.62818 0.725934 0.280017
-0.316974 -0.35941 0.179385 -0.363624 -0.875974 0.316933
0.0364301 -0.0475947 0.158997 0.562522 0.0424864 0.82569
-0.275205 -0.279903 0.19813 0.738984 -0.534659 -0.40993
-0.172924 0.0574119 0.0120494 -0.74753 0.539131 0.387991
-0.212319 -0.116979 0.0909377 -0.737416 0.557242 0.381706
0.177408 0.0615369 -0.177414 0.740778 -0.547341 -0.389443
0.182473 0.00199605 -0.088954 0.742102 -0.517174 -0.426399
0.324745 0.402442 -0.0245064 0.454332 0.127545 0.881655
-0.109143 -0.24567 0.216643 -0.372913 -0.0454374 -0.926753
0.0462739 -0.129361 -0.113336 -0.257177 -0.91644 0.30659
-0.249171 -0.30571 0.284738 0.715493 -0.628751 -0.304535
0.0179611 0.0295858 0.163663 0.3824 0.0555541 0.922325
0.0105105 0.190067 0.148693 0.515789 0.0625923 0.854426
0.0117709 0.391333 -0.137992 0.742964 -0.18824 0.642316
-0.125046 -0.0916286 0.153321 -0.454009 -0.80306 0.385967
-0.199311 -0.0559385 0.115387 -0.742907 0.547548 0.385071
0.0332262 -0.0530893 -0.208996 -0.481386 -0.0817115 -0.872692
-0.0196367 0.0797825 -0.160747 -0.671102 -0.27114 -0.690004
0.2233 0.361102 -0.285942 0.341764 0.899776 -0.271293
-0.00521217 -0.29041 0.111296 -0.756847 0.451119 0.472942
0.302436 0.414496 -0.0481106 0.602469 0.732394 -0.317224
0.162401 0.0569987 0.0995123 0.450698 0.0888062 0.888248
-0.0393379 -0.217874 -0.140384 0.648143 -0.573508 -0.500998
-0.0259252 0.109455 -0.162292 -0.572591 0.012713 -0.819743
0.0817362 0.321724 -0.245158 -0.479368 -0.0871248 -0.873279
-0.11706 0.0933936 0.0160958 -0.737977 0.556746 0.381344
0.0306321 -0.0743473 -0.201329 0.140146 -0.45716 -0.878273
0.18682 -0.0235882 -0.0493126 0.731439 -0.447777 -0.514289
-0.186831 -0.403384 0.126381 0.458111 0.0495825 0.887511
-0.094324 -0.491168 0.143376 0.229934 -0.971202 -0.062422
-0.157515 0.0158127 0.0207828 -0.801725 -0.288781 0.523299
-0.138634 -0.119961 0.262007 0.479798 0.201441 0.853941
-0.0948054 0.0884502 0.0712509 -0.748693 0.388689 0.53701
-0.220572 -0.196193 0.270607 -0.734704 0.520153 0.43549
-0.30341 -0.263781 0.205215 -0.771567 0.47564 0.422435
0.0967117 -0.20306 0.0917755 0.737893 -0.543958 -0.39953
-0.0108924 -0.346728 0.0834876 0.772999 -0.458103 -0.438879
0.139586 0.475808 0.0275349 -0.747697 0.541313 0.384616
-0.0633115 -0.367997 0.104381 -0.707343 0.595848 0.380303
-0.0439572 0.248725 -0.0605251 -0.73967 0.555259 0.380231
-0.0641686 0.251333 -0.0780343 0.849778 -0.234665 0.472027
0.0436017 -0.0900658 -0.17127 0.741797 -0.562869 -0.364577
0.282838 0.182316 -0.102236 0.729374 -0.532191 -0.429869
-0.0062212 -0.20482 0.0148088 -0.557385 -0.732775 0.390337
-0.240256 -0.276783 0.255167 0.756308 -0.49631 -0.426234
-0.10776 -0.19756 0.067476 0.468181 0.0675692 0.881046
-0.0273446 0.142437 -0.163026 -0.609003 -0.0161804 -0.793003
-0.176894 0.123342 -0.102133 -0.783462 0.151163 -0.602775
0.250383 0.0722961 0.00455245 0.743456 -0.574304 -0.342708
-0.0429502 0.115557 0.173615 -0.704045 0.607501 0.367781
0.228091 0.416341 -0.14328 0.483579 0.803866 -0.346338
-0.1487 -0.109749 0.263954 0.484601 0.102464 0.868713
0.149712 0.506838 -0.0151401 0.397296 0.868706 -0.295813
-0.0219581 -0.290056 0.0821932 -0.743388 0.583083 0.3277
0.306912 0.187008 -0.0566146 0.738294 -0.529751 -0.417475
-0.224039 -0.311855 0.011018 -0.42112 -0.0787402 -0.90358
-0.229228 -0.224061 0.294232 -0.743611 0.485904 0.459283
0.366814 0.348806 -0.0715784 0.516558 0.0964717 0.8508
-0.136096 -0.0364268 0.106003 -0.414924 0.89418 0.16817
0.359876 0.344556 -0.151304 0.340439 0.884751 -0.318302
-0.193579 0.0343647 -0.0183473 -0.696991 -0.508634 0.505465
0.206199 0.111872 -0.199369 0.738108 -0.539233 -0.405491
0.140122 -0.0639444 0.0917195 0.507439 0.168181 0.845116
-0.0411789 -0.229529 -0.040304 0.737999 -0.54532 -0.397472
-0.013137 -0.306102 0.115118 -0.744257 0.543793 0.387777
-0.0587714 -0.402107 0.0778077 0.653903 -0.475629 -0.588377
0.0150769 -0.311896 0.184346 0.504983 0.0336384 0.862473
-0.0572743 -0.43748 0.128787 0.75563 -0.441599 -0.48375
0.0229316 0.361619 -0.0948042 -0.732362 0.526512 0.431776
0.173886 0.363038 -0.32001 -0.362327 0.434469 0.824594
0.0428379 -0.256858 0.166885 0.560057 0.126847 0.818686
0.123448 0.362466 -0.27279 -0.486319 -0.076231 -0.87045
0.0929863 -0.0770595 -0.139177 -0.839049 0.2323 -0.491968
-0.108265 -0.196251 0.247269 0.49028 0.127816 0.862142
0.256746 0.407819 -0.121532 0.420647 0.848089 -0.322182
0.23616 0.142136 0.0207941 0.457284 0.1622 0.874404
-0.207388 -0.106547 0.0892836 -0.708724 0.605027 0.362839
-0.308561 -0.334187 0.0674129 -0.532973 -0.063001 -0.843783
-0.316688 -0.355688 0.0732918 -0.521903 -0.0882834 -0.848424
-0.0442441 -0.0944196 0.205836 0.517758 -0.00535125 0.85551
-0.113181 -0.393653 0.0442623 0.723148 -0.650383 -0.232505
-0.156945 0.0914125 0.00487302 0.774636 -0.221484 0.592354
0.108653 0.457556 -0.196688 0.434853 0.838581 -0.328152
0.142272 -0.0795849 0.0114543 0.735747 -0.571107 -0.364023
-0.16757 -0.103224 0.156022 0.742554 -0.513456 -0.430088
0.340949 0.386129 -0.0730298 0.738935 -0.55492 -0.38215
-0.046235 0.151422 0.119777 -0.744281 0.483499 0.460732
-0.00479559 0.307852 -0.220978 -0.496681 -0.121924 -0.859327
0.0709572 -0.130679 0.0637492 0.744182 -0.546681 -0.383839
-0.277974 -0.234805 0.209607 -0.764981 0.463082 0.447615
-0.100654 -0.209393 -0.0698553 -0.514826 -0.0884233 -0.852722
0.137802 0.209122 0.0988749 0.516031 0.0772438 0.85308
0.134528 0.397288 0.0615999 0.500288 0.0172301 0.865688
-0.0229218 -0.217374 -0.0233637 0.713998 -0.502007 -0.488052
0.124775 0.0632113 0.118583 0.577081 0.0726987 0.813445
-0.103584 -0.457872 0.149933 -0.74431 0.544868 0.386163
0.16425 0.0567164 0.0967732 0.487074 -0.064391 0.870984
0.0212864 0.492317 -0.202805 -0.73174 0.521515 0.438838
-0.356664 -0.336876 0.0933553 -0.530467 -0.0728876 -0.844566
0.0133876 0.32061 0.0225262 -0.742844 0.566385 0.356919
0.13034 -0.0486952 -0.11962 0.739079 -0.552216 -0.385771
-0.188263 -0.231197 -0.0184936 -0.473171 -0.144337 -0.869066
0.169435 0.229486 -0.313519 -0.575393 -0.0591177 -0.815737
-0.086434 0.0996844 0.10861 -0.157072 -0.223429 -0.961981
-0.152982 -0.280293 0.0969258 0.366922 0.0696773 0.927639
0.258875 0.426873 -0.0657269 0.475032 0.818735 -0.322518
0.353895 0.262082 -0.0722623 0.74652 -0.528824 -0.403798
0.0320218 0.349177 -0.249468 0.889454 -0.444308 0.107062
0.00411679 0.473093 -0.215543 -0.773351 0.6042 0.192015
-0.177874 -0.0074512 -0.0192743 -0.854205 0.0844904 0.513026
0.141477 0.0474804 -0.177727 0.743145 -0.544345 -0.389133
-0.0802517 0.132282 0.0324285 -0.693943 0.642742 0.324538
0.0390163 0.312603 0.0619487 -0.726807 0.638021 0.254324
-0.0950465 -0.338912 0.0134506 0.72748 -0.599414 -0.33388
0.105607 0.383001 -0.259745 -0.569822 -0.0219594 -0.821475
-0.143986 -0.100034 0.203363 0.722349 -0.489506 -0.488462
0.212147 0.23485 -0.308333 0.738258 -0.540737 -0.403209
0.317703 0.240773 -0.112311 0.738816 -0.561981 -0.371927
-0.243075 -0.0790086 0.0203618 -0.475499 -0.822995 0.310773
-0.0720709 0.039676 -0.131889 -0.503023 -0.0711822 -0.861336
0.0655093 0.398895 0.0126731 -0.728707 0.64288 0.235989
0.155144 0.0558452 0.0764695 0.575 -0.00395127 0.818144
0.0438925 0.399006 -0.0967701 -0.74541 0.533148 0.400146
0.281082 0.394873 0.000223071 0.530054 0.0563406 0.84609
0.135082 -0.114102 0.0345875 -0.340029 -0.904415 0.257708
-0.25977 -0.316385 0.277155 0.737726 -0.564422 -0.370389
-0.263952 -0.308227 0.164689 0.485584 0.063767 0.871861
-0.0389393 0.190676 0.0283651 -0.740654 0.545141 0.392749
-0.00865017 -0.168051 0.107735 -0.413931 -0.843337 0.3427
0.0188036 -0.294163 0.18179 0.318342 0.0777579 0.944781
0.108748 0.460856 -0.0365971 -0.0660658 -0.313183 -0.947392
-0.0357933 0.347388 -0.115538 -0.733711 0.525684 0.430493
-0.142484 -0.129636 -0.0988898 -0.511201 -0.0798546 -0.855744
0.0609588 0.345499 0.0605107 -0.724345 0.636949 0.263857
-0.133107 0.203882 -0.104443 -0.723689 0.523461 0.449737
0.0917131 -0.0240316 -0.167839 -0.527326 -0.111145 -0.842362
-0.224258 -0.272047 0.317484 0.527394 0.0623704 0.847328
-0.0394553 -0.339362 0.0420007 -0.339748 -0.194587 -0.920167
0.34973 0.316252 -0.146915 0.713904 -0.636766 -0.291325
-0.155991 0.0199526 -0.100546 -0.557499 -0.00192871 -0.830175
-0.258632 -0.0788029 -0.0320913 -0.519527 -0.141968 -0.842578
-0.2726 -0.420669 0.081291 -0.531285 -0.749748 0.394481
-0.00465365 0.397973 -0.126843 -0.735443 0.516142 0.439
0.209896 0.282466 -0.343144 -0.57849 -0.0354132 -0.81492
-0.0644582 0.0527927 0.203246 0.354623 0.202285 0.912865
0.0277836 0.133556 -0.19801 -0.53145 -0.0506976 -0.845571
0.0248803 -0.118457 -0.121683 -0.139422 -0.97671 0.16309
0.161895 0.318864 0.0515697 0.511825 0.0634842 0.856741
-0.168444 -0.143786 -0.0397451 -0.466283 -0.812785 0.349229
-0.0924702 -0.36788 0.0666028 0.480984 0.0520418 0.875184
0.315584 0.222229 -0.140239 0.709273 -0.606067 -0.36002
-0.17218 -0.469332 0.0463672 0.670756 -0.679991 -0.296141
-0.0216724 0.30291 -0.212039 -0.579059 -0.0162696 -0.815123
0.229613 0.133448 -0.186704 0.743635 -0.532582 -0.404183
-0.294457 -0.39591 0.123734 -0.419683 -0.847491 0.325
-0.1611 -0.405014 0.276315 -0.452967 -0.831448 0.321738
-0.00172028 -0.226026 0.0111607 -0.507432 -0.180985 -0.842471
-0.148384 -0.463617 0.0968068 0.730188 -0.52791 -0.433746
-0.137188 -0.359368 -0.0297677 0.188467 -0.446106 -0.874911
0.198028 0.23433 -0.326875 0.433581 -0.596102 -0.675773
0.226338 0.209108 0.0479516 0.54109 0.0532537 0.839277
-0.233538 -0.13356 0.13693 -0.485188 -0.139294 -0.863244
-0.00112588 -0.282915 0.0188207 0.71747 -0.621701 -0.314204
0.0469155 0.115568 0.141633 0.469544 0.0950286 0.87778
0.0492725 0.364828 -0.232187 -0.561801 -0.0567075 -0.825327
0.00711347 -0.185973 -0.0329932 0.825993 0.312794 -0.46893
-0.227157 -0.345965 0.145655 0.505913 -0.210983 0.836384
0.0864568 -0.175209 0.129969 0.506591 0.1144 0.854563
-0.115624 -0.186932 0.0752467 0.434552 0.0130975 0.900551
-0.0431567 0.17884 -0.157857 -0.527006 -0.0685848 -0.84709
-0.0439061 -0.451383 0.227756 0.589869 -0.00114417 0.807498
0.305074 0.361069 -0.0121559 0.579269 0.0718116 0.811967
-0.243269 -0.176896 0.197981 -0.749133 0.546744 0.373992
-0.117366 -0.305297 0.227035 -0.558082 -0.0509449 -0.828221
0.0541639 -0.111908 -0.0480878 0.0705158 -0.995927 0.0561944
-0.21332 -0.358477 0.285928 -0.534231 -0.0800153 -0.841543
-0.0864698 -0.204821 -0.0816991 -0.445095 -0.83032 0.335348
0.21012 0.139848 -0.226261 0.756844 -0.359065 -0.546131
-0.152998 0.10974 -0.0057 -0.738027 0.549442 0.391701
0.156617 0.302831 0.0733134 -0.875535 0.470137 -0.111394
0.302564 0.309209 -0.29807 0.728715 -0.5956 -0.337989
-0.253014 -0.30685 0.27953 0.737636 -0.551274 -0.38986
0.034187 0.066507 -0.222012 -0.541069 -0.100322 -0.834973
0.105616 0.431909 -0.0296536 -0.747267 0.607764 0.268728
-0.128117 -0.00808752 0.0749208 -0.825821 0.29643 0.479739
0.059213 0.406027 -0.243909 0.896888 -0.433659 0.086786
0.120913 0.183834 -0.286471 -0.46202 -0.0826079 -0.883014
0.0905771 -0.0714813 -0.134454 -0.892659 0.186803 -0.410201
0.194245 0.490558 0.00354798 0.406982 0.859483 -0.309281
-0.0796926 -0.28335 0.204496 -0.581688 0.0316638 -0.812795
-0.344931 -0.353791 0.150234 -0.721147 -0.372877 0.583874
-0.0665462 0.309785 -0.119783 -0.748195 0.44045 0.496193
0.129665 -0.0777783 -0.0312277 0.741265 -0.537668 -0.401795
-0.0376669 -0.056811 -0.167014 -0.366882 -0.134375 -0.920511
0.0651873 -0.10933 0.135896 0.404154 0.0716682 0.911879
-0.242359 -0.225942 0.143262 0.489549 0.0466488 0.870727
0.326542 0.262465 -0.179417 0.730851 -0.605571 -0.314865
-0.233124 -0.226691 0.140314 0.499086 0.0480419 0.86522
0.00985134 0.285409 0.0342582 -0.178854 -0.339356 -0.923498
-0.156389 -0.423103 0.00884034 0.708437 -0.492955 -0.505087
-0.0562308 0.244303 -0.075569 -0.710814 0.61198 0.346735
-0.176143 -0.353444 -0.00846835 -0.519551 0.000538583 -0.854439
0.0622143 -0.173951 0.0571493 0.760821 0.387647 -0.520462
-0.274008 -0.294695 0.294813 -0.74553 0.541833 0.388075
-0.309646 -0.272809 0.193494 -0.462672 -0.112222 -0.879398
0.213432 0.35654 -0.309867 0.43103 0.842345 -0.323524
-0.162105 -0.154862 -0.0763146 -0.675691 -0.736342 -0.0352484
0.160553 -0.0362195 -0.0858466 0.733692 -0.411489 -0.540715
0.123156 -0.113856 0.0207696 0.717089 -0.530962 -0.451511
-0.128944 -0.422932 0.0929945 0.539735 0.026784 0.841409
0.182948 0.193227 -0.295834 0.717125 -0.604853 -0.346243
0.08229 0.117724 0.135969 0.497935 0.0788548 0.863622
0.0991617 -0.101598 -0.0596598 0.716074 -0.519929 -0.465737
0.25979 0.445901 -0.044169 0.509604 0.80068 -0.314985
-0.0783894 -0.0953118 -0.138721 -0.449532 -0.12107 -0.885022
-0.0490976 -0.41938 0.229359 0.508689 0.034448 0.860261
-0.0648509 -0.125084 0.141023 -0.396077 -0.868066 0.299307
-0.272056 -0.322462 0.334474 -0.725298 -0.517947 0.453513
0.00848304 0.486088 -0.219531 -0.762722 0.496153 0.414834
-0.180361 0.121528 -0.0909535 -0.799094 0.43905 -0.410711
-0.0889493 0.108281 -0.125758 -0.447157 -0.0167682 -0.894298
-0.0841825 -0.465804 0.194149 -0.676608 0.655942 0.334575
0.0316884 0.233226 -0.211977 -0.420834 -0.151242 -0.894441
0.249228 0.18945 -0.22548 0.747475 -0.493916 -0.444216
0.244959 0.206887 -0.25923 0.727517 -0.589164 -0.351576
0.23827 0.120201 -0.14591 0.736388 -0.523775 -0.428244
-0.146985 -0.0421785 -0.0980074 -0.548438 -0.0957759 -0.830688
-0.0496826 0.336698 -0.193312 -0.427238 -0.0492028 -0.902799
-0.0391598 0.0950882 -0.153917 -0.400711 0.0361386 -0.915491
0.0413982 -0.0666616 -0.203419 0.456596 -0.569153 -0.683802
-0.142839 -0.123587 0.0843609 0.436557 0.158 0.885694
-0.231616 -0.335767 0.298063 -0.454775 -0.11531 -0.88311
-0.152699 0.0935245 -0.00329884 0.817236 -0.195548 0.542112
-0.15025 0.120452 -0.0304613 -0.523633 -0.273794 -0.80675
-0.218045 -0.311615 0.288436 -0.521885 -0.0461483 -0.851767
-0.237544 -0.235566 0.145 0.478429 0.0513275 0.876625
-0.00259335 -0.285651 0.025977 0.728218 -0.619444 -0.293238
-0.114683 -0.0253066 0.135182 -0.516042 0.839345 0.170882
-0.134678 -0.253765 -0.0472376 -0.731051 -0.130633 -0.669701
0.0622448 0.253241 0.113209 0.52642 0.0551106 0.848437
-0.217773 -0.286143 0.285564 -0.39552 -0.174629 -0.901703
-0.262507 -0.235749 0.15488 -0.75337 0.433645 0.494354
-0.0394974 0.222499 -0.180276 0.909782 -0.411736 0.052638
-0.0373411 0.307801 -0.203373 -0.67737 -0.114284 -0.726711
0.112775 0.428614 -0.26584 0.377982 0.870057 -0.316435
0.261598 0.159464 -0.000167167 0.422252 0.0808214 0.902868
-0.162743 -0.145771 0.224952 0.720992 -0.577242 -0.383357
0.0912965 0.109535 0.134863 0.46946 0.0705384 0.880132
0.296018 0.342564 -0.259677 0.619249 0.702646 -0.350456
0.126105 -0.0921276 -0.014014 0.747753 -0.520069 -0.412788
0.163842 -0.072803 0.0771669 0.402836 0.0351197 0.914598
0.0485975 -0.1462 0.0380715 0.843515 -0.295438 -0.448553
-0.159226 -0.348872 -0.0161842 -0.527184 -0.073214 -0.846591
0.28139 0.266488 0.00441799 0.411422 0.0889867 0.907091
0.0819978 -0.123129 -0.0616836 0.742537 -0.534573 -0.403572
-0.214466 -0.0467757 0.0419134 0.192278 0.967789 -0.162523
0.0492991 0.153029 0.128401 0.409194 0.126447 0.903643
-0.0507354 0.368577 -0.17554 -0.728033 0.45331 0.514274
-0.0423724 -0.0345221 0.196749 0.547668 -0.10126 0.830546
-0.070296 -0.112537 -0.141262 -0.477113 -0.15855 -0.864422
-0.0433443 -0.349957 0.123414 -0.739391 0.505465 0.444754
0.340342 0.388794 -0.0838239 -0.716588 0.494979 0.491424
0.273407 0.219402 -0.00329626 0.528806 0.0766529 0.845274
0.018261 0.0871475 0.155387 0.52582 0.125382 0.841304
-0.040499 0.276904 -0.199604 -0.449078 -0.00756502 -0.893461
-0.232046 -0.312875 0.149036 0.536213 0.0638593 0.841663
-0.237728 -0.231605 0.140865 0.534627 0.205549 0.819709
0.0614839 -0.253819 0.0903866 0.712039 -0.486371 -0.506403
0.071243 0.469251 -0.14539 -0.773321 0.472648 0.422585
0.055474 -0.0459802 -0.2079 0.705916 -0.620253 -0.342006
-0.121388 -0.380545 0.270195 0.540903 0.041091 0.840081
-0.0483961 0.139859 0.13754 -0.716172 0.604097 0.34952
-0.0838992 -0.263736 0.200066 -0.548125 -0.0862033 -0.831942
-0.0617278 -0.399945 0.155298 -0.709366 0.61214 0.349405
0.270567 0.336477 -0.271638 0.44199 0.833979 -0.33034
-0.257431 -0.237597 0.0269207 -0.695791 0.0863739 -0.713032
0.039614 0.405107 -0.254474 -0.368094 -0.228309 -0.901322
0.106143 -0.109086 -0.0280526 0.735729 -0.613751 -0.286381
-0.0170855 -0.282403 0.0816536 -0.727063 0.492107 0.478759
-0.279254 -0.214434 0.17408 -0.458504 -0.102811 -0.882725
0.0321091 -0.301739 0.11121 0.736513 -0.491584 -0.464643
-0.105774 -0.286704 -0.0613406 -0.339585 -0.252365 -0.906087
0.339725 0.266674 -0.105883 0.721201 -0.596395 -0.352395
0.18869 0.118087 0.0788384 0.470263 0.144412 0.870631
-0.201636 -0.233983 0.306154 0.573499 0.0473865 0.817834
-0.11092 0.0878134 -0.140939 -0.506743 -0.0624883 -0.85983
-0.0426062 0.279913 -0.194958 -0.508957 -0.119089 -0.852514
0.243163 0.220381 0.032552 0.459029 0.00692508 0.888394
-0.0627097 -0.166952 0.0397894 0.481103 -0.0639588 0.874328
0.297468 0.185897 -0.121414 0.0859256 0.268532 0.959431
0.269254 0.207896 -0.225158 0.731898 -0.576606 -0.363113
-0.0363503 -0.317704 0.177352 -0.592721 -0.0285605 -0.804902
0.0206278 0.490322 -0.236713 0.421355 0.852383 -0.309683
0.0600628 0.484296 -0.191675 0.476523 0.807181 -0.348404
0.306652 0.205869 -0.0816188 0.75105 -0.563122 -0.344699
-0.0752054 -0.119773 0.144534 -0.400638 -0.857054 0.323956
0.00864916 -0.22233 0.0386572 -0.764992 0.50022 0.405669
-0.149365 0.0106099 0.0325707 -0.871603 -0.0627364 0.486181
0.215283 0.164809 -0.222938 -0.729584 0.155737 -0.665923
0.325027 0.34857 -0.194044 0.453806 0.82942 -0.325765
0.253824 0.379598 -0.196619 0.450404 0.824306 -0.343009
-0.126705 -0.201337 0.0799636 0.524435 0.00134994 0.851449
-0.199417 0.016299 -0.0492214 -0.797723 -0.36619 0.479107
-0.167317 -0.0236101 0.0182595 -0.74926 0.507613 0.425369
0.285133 0.393811 -0.00238518 0.523866 0.066277 0.849218
0.179554 0.371742 -0.305093 -0.423831 -0.107038 -0.899394
-0.160719 0.086312 -0.104508 -0.558384 -0.0790927 -0.825804
0.139306 0.423235 0.060545 0.429196 0.0491046 0.901876
-0.193452 -0.0447096 0.0508092 -0.128725 0.991666 -0.00537426
0.186198 0.255721 -0.328298 -0.438693 -0.120663 -0.890499
-0.182808 -0.189526 0.245432 0.473959 -0.559146 -0.680234
-0.181865 -0.281071 -0.0110051 -0.47838 -0.0933998 -0.873172
0.0201095 -0.189758 -0.0154178 0.695062 0.529398 -0.486443
0.0344693 0.0147296 0.15344 0.507661 0.088323 0.857018
-0.0885669 -0.187169 0.238788 0.493932 -0.0601951 0.867415
-0.0974623 -0.447095 0.147758 -0.733508 0.520466 0.437128
0.255553 0.303067 -0.316666 0.718202 -0.616276 -0.323094
-0.0347828 0.35784 -0.124276 -0.755825 0.486569 0.438155
-0.125932 0.0111484 0.0703199 -0.88254 0.0640294 0.465858
-0.197091 -0.0792728 0.0897696 -0.34141 -0.889554 0.303534
-0.0313168 -0.356541 0.059718 0.739381 -0.537782 -0.405101
-0.0893167 -0.186048 0.200538 -0.624989 -0.0372706 -0.779743
0.064903 -0.113772 -0.0541071 -0.153023 -0.966766 0.204811
0.17771 0.392342 -0.262371 0.312437 0.88223 -0.352211
0.125627 0.495292 -0.0445299 -0.114412 -0.256985 -0.959619
-0.0872083 -0.419919 0.252553 0.507295 0.0638973 0.8594
-0.019883 -0.279338 0.197303 0.508215 0.0746846 0.857986
0.0157518 0.313157 0.0349181 -0.717923 0.601824 0.34985
-0.232043 -0.328089 0.0219924 -0.619708 -0.0203984 -0.784567
-0.107668 -0.170095 0.0686846 0.483495 0.204159 0.851206
0.030301 0.358528 -0.220217 0.895508 -0.435771 0.0903871
0.134239 0.483371 -0.040734 -0.0611092 -0.333589 -0.940736
-0.0265901 -0.1681 0.20111 0.45218 -0.0244206 0.891593
0.317634 0.25528 -0.134966 0.827886 -0.396905 -0.396322
0.113708 0.227433 -0.281794 -0.503045 -0.0775232 -0.860776
-0.0867865 -0.0988471 0.226108 0.618799 -0.00830371 0.785505
-0.240961 -0.153256 0.0875232 -0.743289 0.543243 0.390396
0.284911 0.363683 -0.189305 0.411902 0.87021 -0.270317
-0.030759 -0.302004 0.0830168 -0.745509 0.474263 0.468285
-0.274641 -0.218637 0.19671 -0.72448 0.443131 0.52798
0.0432437 0.326723 0.00595405 -0.775723 0.468443 0.422865
-0.00141559 0.441317 -0.236995 -0.547075 -0.0875491 -0.832493
-0.173336 0.0426227 0.0251674 -0.495039 -0.79756 0.344723
0.329254 0.391801 -0.0546819 0.385266 -0.521829 -0.761094
0.0225727 0.241951 0.13401 -0.345417 0.499226 0.794645
0.0588127 -0.284342 0.147247 0.759709 -0.519481 -0.391129
-0.199551 -0.468983 0.0567684 -0.38884 -0.873848 0.291878
0.141604 0.243829 -0.301606 -0.497873 -0.203036 -0.843148
0.0173104 -0.0539592 -0.200449 -0.409308 -0.093999 -0.907541
0.000400395 0.107911 0.160699 0.508588 0.0546782 0.859272
-0.140085 -0.0807288 0.16188 -0.43046 -0.843581 0.321052
-0.26164 -0.136088 0.0232064 -0.868747 0.481279 0.116826
-0.217725 -0.288914 0.00742453 -0.420956 -0.0907444 -0.902531
-0.181668 -0.415831 0.124234 0.41944 0.0583437 0.905906
0.121205 0.0241804 -0.186773 0.742979 -0.53897 -0.396854
0.0359871 0.348604 -0.219465 -0.446803 -0.10357 -0.888617
0.0203749 -0.268717 0.142834 -0.800832 0.179053 -0.571497
0.292287 0.39499 -0.121329 0.522299 0.750435 -0.405032
0.202434 0.0878884 0.0428727 0.632825 0.16091 0.75739
-0.312384 -0.27715 0.11459 -0.739086 0.595399 0.315041
0.214052 0.424824 0.0159609 0.459053 0.104564 0.882234
-0.0416508 -0.476182 0.212911 0.705964 -0.641992 -0.2991
0.152837 0.428631 -0.220712 0.437467 0.836896 -0.32898
0.279559 0.295174 -0.012506 0.468802 0.0725773 0.880317
0.0561474 0.1162 -0.241213 -0.561371 -0.122409 -0.818461
-0.0241918 -0.399004 0.141633 0.736816 -0.558818 -0.380558
0.0298003 0.373421 -0.0877713 -0.73829 0.533213 0.413051
0.258133 0.0967341 0.00964861 0.509209 0.024485 0.860295
0.19269 0.439539 -0.125713 0.447074 0.814374 -0.370027
0.0996389 0.434154 -0.0426143 -0.754245 0.465766 0.462792
-0.12742 -0.425292 0.270441 -0.325687 -0.862671 0.386946
-0.120614 -0.018133 0.0968092 -0.748407 0.481344 0.456284
-0.218397 -0.415353 0.138528 0.215604 -0.347361 0.912609
-0.290652 -0.3408 0.181024 0.492085 0.00669842 0.870521
-0.268743 -0.238368 0.139585 -0.751355 0.489346 0.442727
0.0871628 0.248067 -0.240923 -0.493056 -0.0659001 -0.867498
-0.178795 -0.205076 -0.0258359 -0.579991 -0.0487946 -0.81316
-0.0796621 0.0702697 0.169489 -0.747978 0.529003 0.400856
0.0292899 0.141743 -0.193769 -0.419728 -0.136793 -0.897283
0.0734204 0.3376 -0.239114 -0.52719 -0.0149539 -0.849616
-0.105189 0.0757482 0.0730468 -0.675738 0.641668 0.362823
-0.0348963 -0.297822 0.0706869 -0.770606 0.562008 0.300521
0.107939 0.47132 -0.0753929 -0.742187 0.538521 0.39894
0.018279 -0.298018 0.176913 0.385964 0.0596772 0.920582
0.210274 0.428547 -0.136804 0.529895 0.760793 -0.374707
0.138566 0.019614 0.0917533 0.504435 0.0765383 0.860051
0.13835 0.285068 -0.288976 -0.422188 0.582527 0.694565
0.245206 0.0853904 -0.0313228 0.738447 -0.551465 -0.388051
-0.0880084 -0.41256 0.0750513 -0.516819 -0.056407 -0.854234
-0.074699 -0.40563 0.0647578 -0.630695 0.0158782 -0.775868
-0.14157 -0.0353016 0.169584 0.0780162 0.995917 -0.0454105
-0.069976 0.106098 0.0917374 -0.73341 0.516867 0.44154
0.26465 0.379187 -0.192744 0.44489 0.831725 -0.332124
0.22435 0.346817 -0.313607 0.324941 0.925205 -0.195985
-0.177647 -0.477536 0.0558315 0.15468 -0.981595 -0.112007
-0.104615 -0.211857 0.0672626 0.486902 0.034408 0.872779
0.345051 0.338551 -0.190041 0.394662 0.861452 -0.319596
0.20214 0.457785 -0.0840256 0.555785 0.748441 -0.361855
0.233419 0.376723 -0.231542 0.454477 0.823796 -0.338836
-0.0337676 0.196405 0.0685186 -0.035626 -0.364745 -0.930426
-0.0816921 -0.365788 0.0726183 -0.714022 0.617302 0.33032
0.00761372 0.292499 0.0434937 -0.749199 0.554431 0.362365
0.275912 0.345304 -0.254398 0.392581 0.858835 -0.329064
0.0933483 0.0946119 0.1369 0.508326 0.0543599 0.859447
-0.0501957 -0.237706 -0.126999 0.111236 -0.990922 0.0754948
0.0333896 -0.17453 0.160709 0.494218 0.0465167 0.868093
-0.0429523 -0.343445 0.122271 -0.742799 0.540735 0.394786
0.15464 0.107192 -0.230697 0.73295 -0.572578 -0.367341
-0.0938658 0.131324 0.00945574 -0.739583 0.531275 0.413237
-0.239304 -0.0891612 -0.0393458 -0.50428 -0.086977 -0.859149
-0.165446 -0.388929 0.1117 0.488911 0.203737 0.848208
-8.62016e-06 0.319026 -0.0725227 -0.748855 0.556084 0.360538
-0.00158221 0.465193 -0.211057 -0.733328 0.576009 0.361169
0.176216 -0.0142375 -0.0841533 0.730957 -0.606029 -0.313736
-0.131417 -0.0819419 0.251178 0.508628 0.063774 0.858621
0.187642 0.217646 0.0675361 0.252135 0.244532 0.936286
-0.239573 -0.21124 0.0140454 -0.540495 -0.0790366 -0.837627
0.22876 0.105739 -0.149634 0.74743 -0.528103 -0.403058
0.168417 0.0249509 -0.157962 0.748498 -0.570217 -0.338531
0.100314 0.13065 0.126292 0.635518 0.0140121 0.771959
0.108468 -0.0852536 -0.0616454 0.718378 -0.605478 -0.342535
-0.115206 0.073918 -0.127624 0.936643 -0.349865 -0.0171724
-0.292596 -0.342482 0.254732 -0.533364 -0.760006 0.371367
-0.132165 -0.0775435 0.179696 -0.5123 -0.803826 0.302346
0.193319 0.071942 -0.162111 0.717225 -0.621137 -0.315875
0.200008 0.0069799 -0.00350016 0.752362 -0.497997 -0.431219
0.261792 0.310191 -0.315681 0.748779 -0.507308 -0.426578
0.316361 0.329262 -0.236076 0.522511 0.776175 -0.352895
-0.0393937 -0.316587 0.0835871 -0.691274 0.621602 0.368444
-0.0594982 -0.414969 0.101928 0.702672 -0.624881 -0.34026
-0.282414 -0.243141 0.206148 -0.788038 0.443626 0.426839
-0.0438893 -0.156369 0.167022 -0.462766 -0.0622973 -0.884289
-0.120321 -0.179264 0.218259 -0.511263 -0.0317053 -0.858839
