ply
format ascii 1.0
comment Created by Open3D
element vertex 128
property double x
property double y
property double z
property double nx
property double ny
property double nz
end_header
0.119146 0.235177 -0.350759 0.972694 -0.232054 -0.00427126
-0.108993 -0.149114 0.33498 -0.937407 0.335607 -0.0929319
0.0494258 0.0428945 0.0299372 0.970763 -0.239519 0.0158177
0.0485218 0.26335 0.114245 -0.255313 -0.839606 0.479456
0.0385214 0.343435 -0.13997 -0.988076 0.143341 0.0562123
0.0276834 -0.0618638 0.194259 0.985945 -0.152895 -0.0673524
-0.17273 -0.509255 0.0155338 -0.0788305 -0.523767 -0.848206
-0.0719308 -0.440105 0.172575 0.964165 -0.256338 0.06839
-0.0954417 -0.301656 -0.0996279 -0.00915966 0.960151 -0.279332
0.0639245 0.355702 0.0603876 0.0886092 0.601849 0.793679
-0.0201201 -0.184082 0.3736 0.0627484 0.634645 0.770252
0.101753 0.206832 0.130788 0.950449 -0.265118 0.162352
-0.114253 -0.239249 0.0496129 -0.968309 0.0768164 0.237647
0.0977569 0.246219 -0.0642028 -0.084288 0.996433 -0.00416972
-0.156457 -0.493791 0.088318 -0.130683 -0.903867 0.407365
-0.00507543 -0.193542 0.190234 0.911692 -0.3674 0.183945
-0.108826 -0.179111 0.124951 -0.968025 0.243739 -0.0593241
-0.0492171 -0.352902 -0.000848646 0.952687 -0.269768 0.140047
0.111422 0.329715 -0.00855073 0.0819024 -0.941032 0.328256
0.0767784 0.0953022 0.0492626 0.983172 -0.168392 -0.0708297
-0.0443201 0.0630882 0.0786882 -0.970632 0.231707 0.0646992
-0.0176531 0.135323 -0.0126431 -0.899322 0.343872 -0.270132
0.0404388 0.130644 0.19477 0.0456703 0.638477 0.768285
-0.0245165 -0.282227 -0.0389977 0.0960441 0.892183 -0.441345
0.116826 0.385265 -0.300147 0.279225 0.827413 -0.487259
0.0837616 0.0990629 -0.0191422 0.903635 -0.401757 0.148442
-0.0870856 -0.480056 0.000664694 -0.0899592 -0.464468 -0.881009
0.0832293 0.126252 0.152037 0.980933 -0.179669 -0.0740885
0.0868815 0.288269 -0.112711 -0.119234 0.0286526 0.992453
-0.0273011 -0.293095 0.135137 0.85862 -0.34003 0.383602
-0.170843 -0.422778 0.131767 -0.962481 0.264955 -0.0585653
-0.0408383 -0.265596 0.232285 0.312458 0.897755 -0.310494
-0.0147373 -0.215379 0.132098 0.947799 -0.277925 0.156317
-0.0969558 -0.529645 0.0667008 -0.2945 -0.752888 0.588582
0.103383 0.262403 -0.416248 -0.0300468 0.0154058 -0.99943
-0.0656745 -0.0342779 0.0888064 -0.99605 0.0635538 0.0620128
0.0570606 0.180204 -0.12563 -0.0665843 -0.909751 0.40978
-0.137154 -0.304769 0.048576 -0.93581 0.346197 -0.066393
0.0788114 0.196497 -0.375228 -0.203182 -0.366811 -0.907836
0.0025232 -0.0565302 0.30258 0.124183 0.350846 0.928162
-0.147928 -0.351356 -0.0156205 -0.923521 0.264981 -0.277298
-0.0920248 -0.0947652 0.18006 -0.945563 0.31611 -0.0773673
0.0438731 0.331769 -0.440347 0.0541811 0.88291 -0.466406
-0.0260375 -0.228819 0.067946 0.0689079 0.977013 -0.201736
0.0168826 0.276316 -0.23344 -0.767095 0.615432 -0.181134
0.127096 0.354452 -0.372077 0.10097 0.944739 -0.311885
0.03534 0.251142 -0.30423 0.147048 0.921425 0.359657
0.00406086 0.176781 -0.363472 -0.992234 0.0708139 0.102258
0.104304 0.177075 -0.216971 0.969154 -0.230441 -0.0873895
0.0647376 0.38417 -0.0728473 0.197401 0.866536 -0.458418
-0.129795 -0.285816 -0.0147963 -0.955542 0.2522 -0.152757
-0.0263835 0.011494 0.267801 0.0157044 0.461493 0.887005
-0.000934894 -0.127548 0.341022 0.96825 -0.243328 0.0573004
0.0576111 0.108789 -0.328269 -0.247784 -0.657893 -0.711182
-0.0358803 -0.333045 0.0632143 0.804036 -0.474841 0.357843
-0.172056 -0.417887 0.217923 -0.857886 0.415847 -0.301833
-0.108418 -0.237931 0.193352 0.0512824 0.736768 0.674198
0.0479021 0.0438756 0.23192 0.985954 -0.139337 -0.0920917
0.042284 0.364595 -0.279079 -0.975887 0.217261 0.0210468
0.0426656 0.359932 -0.367753 -0.890672 0.445789 -0.0893099
0.139483 0.309305 -0.297846 0.901541 -0.4085 0.142657
0.153313 0.368837 -0.244925 0.964303 -0.257303 0.0625735
-0.0882154 -0.0687793 0.311942 0.0999922 0.415547 0.904059
-0.0844612 -0.222932 0.372052 -0.475246 -0.754777 0.452164
-0.115698 -0.236248 0.303066 -0.377159 -0.722841 0.57901
0.010562 0.238249 -0.103803 -0.979565 0.200508 0.0157473
0.141469 0.30385 -0.433785 0.991892 -0.0748963 -0.102669
-0.0862943 -0.168437 0.189629 -0.382017 -0.6603 0.646581
0.0214903 0.262906 -0.394867 -0.975335 0.219587 -0.0224315
0.0859942 0.160959 0.0637068 0.96577 -0.171528 -0.194591
-0.167613 -0.418913 0.124401 -0.921878 0.353974 -0.157617
0.10446 0.430909 0.0148176 0.116431 0.908223 -0.401965
-0.0775317 -0.330632 0.208983 0.0607388 -0.206777 0.976501
-0.0507303 0.0384773 0.160964 -0.967731 -0.0170554 0.251406
0.0429412 0.0692271 0.154404 0.991075 -0.0800246 -0.106609
0.0950484 0.41423 -0.213507 0.0180527 0.837069 0.546799
-0.159507 -0.418327 0.0109116 -0.97484 0.219837 0.0368514
0.0997208 0.167201 -0.0580802 -0.0812396 -0.474367 -0.876571
0.0418046 0.0101043 0.105391 0.970267 -0.239443 0.0353338
0.0525783 0.331002 -0.439287 -0.0804774 -0.342265 -0.936151
0.0430476 0.407122 -0.0142083 -0.980149 0.197797 0.0136051
0.0292675 0.313593 -0.292179 -0.968459 0.245066 -0.0450455
0.0127661 0.073063 -0.0069985 -0.200285 -0.449764 -0.870401
-0.00532666 0.218618 0.0821894 -0.968139 0.247031 -0.041017
-0.0241848 0.159637 0.0552604 -0.978484 0.048441 0.200553
-0.112998 -0.363327 0.0717701 -0.0485184 -0.888289 -0.456714
-0.0380428 -0.322836 -0.0785561 -0.117355 -0.453723 -0.883382
-0.00652998 0.20488 -0.0378456 -0.959884 0.276841 -0.0445075
-0.0891618 -0.113979 0.248617 -0.900979 0.373463 -0.220821
0.108722 0.250628 -0.280842 -0.367459 -0.171844 -0.914026
0.0975227 0.177872 -0.301646 0.973625 -0.178524 -0.142071
-0.0133844 0.0232417 0.032693 -0.237399 -0.168068 -0.956763
-0.00218542 0.182061 -0.272157 -0.972578 0.231153 -0.0256965
0.119508 0.307772 0.0904279 0.96928 -0.218078 -0.113745
0.114977 0.256568 -0.18805 0.996927 -0.0188195 -0.0760478
-0.146369 -0.342067 0.188366 -0.96822 0.246225 -0.0438495
0.00379902 0.254452 0.0180768 -0.979956 0.0626944 0.189089
0.0342016 0.342097 -0.193012 -0.993479 0.106926 0.0395827
-0.0288559 -0.248807 0.298171 0.978593 -0.152344 -0.138373
0.0356624 0.146705 -0.191717 -0.199618 -0.862924 0.464235
-0.0374268 0.100776 0.215323 0.0791085 0.575215 0.814168
0.105678 0.239834 0.0420103 0.379154 0.700413 -0.604701
0.00215878 0.225289 -0.184475 -0.967008 0.241838 -0.0800648
0.05171 0.194454 0.0126504 -0.847467 -0.463728 0.258372
-0.128065 -0.287104 0.120394 -0.874067 0.28317 -0.394743
-0.0160212 0.103587 -0.300311 -0.935403 0.29187 -0.199581
-0.0666743 -0.43755 0.0852719 0.954288 -0.276751 0.112884
0.0289566 0.323743 -0.0133954 -0.968212 0.245583 -0.0474801
0.0283336 -0.0679989 0.0828905 0.963953 -0.248855 0.0941564
0.0232809 0.277349 -0.0471948 0.296349 0.760705 -0.577499
-0.00770334 -0.157558 0.272999 0.89353 -0.423835 0.148217
0.075318 0.11656 -0.245667 -0.315686 -0.739494 0.594551
-0.0943195 -0.49787 0.129318 -0.190868 -0.867024 0.460259
0.0200649 0.304936 0.0871079 -0.959017 0.27363 -0.073566
-0.0769313 -0.175724 0.259822 -0.405885 -0.798633 0.444345
-0.073187 -0.11109 0.112497 -0.0663122 -0.491795 -0.868182
-0.0870606 -0.412466 -0.0424264 0.00784451 -0.572861 -0.819615
0.131329 0.309665 -0.163509 0.972142 -0.234386 -0.00169265
-0.0771247 -0.404344 0.228938 -0.177012 0.0812663 0.980848
0.124366 0.370356 0.0473578 0.883203 -0.313456 0.348853
-0.0289749 -0.307254 0.0627887 0.947912 -0.225858 -0.224612
-0.0657879 -0.00725098 0.197265 -0.967939 0.247838 -0.0408578
0.00437386 -0.128054 0.130213 0.970649 -0.0549134 -0.234149
-0.0266507 0.151832 0.129666 -0.980329 0.1964 0.0195546
0.13778 0.341133 -0.0779795 0.986363 -0.162417 -0.0266115
-0.0506659 -0.372018 0.135644 0.885821 -0.437206 0.155475
-0.0194776 -0.0932604 0.240791 -0.338482 0.356664 0.870758
0.0290991 0.196211 0.162364 0.29883 0.239384 0.923794
