ply
format ascii 1.0
comment Created by Open3D
element vertex 512
property double x
property double y
property double z
property double nx
property double ny
property double nz
end_header
0.200849 0.27213 0.410708 0.748477 0.340629 -0.568994
-0.456813 0.237847 -0.0229664 -0.789749 0.245567 0.562133
-0.11744 0.32047 0.510742 -0.479774 -0.0257553 0.877014
-0.10407 0.480115 0.191408 0.388976 0.519671 -0.760684
0.223782 -0.419995 0.159182 0.485439 -0.839242 0.244993
0.373721 0.197101 0.272921 0.796133 0.410838 0.444279
-0.200053 0.447862 -0.0969096 -0.401221 0.895376 -0.193195
0.0984739 0.357276 0.503133 -0.119021 0.338618 0.933366
-0.539055 0.141223 -0.00995225 -0.842481 0.292678 -0.452289
0.329148 -0.288403 0.20651 0.776015 -0.265006 -0.57234
-0.267204 0.17617 -0.474456 -0.000109473 0.179703 -0.983721
-0.43428 0.0667903 -0.172675 -0.848327 0.0664484 0.525287
-0.0741078 0.372588 -0.582957 -0.703007 0.360087 0.613285
0.186239 -0.0746719 0.639674 0.852023 -0.0237927 -0.522963
0.463111 -0.119486 0.163892 0.857377 -0.227918 0.461474
-0.446366 -0.106618 -0.202275 -0.856225 -0.204491 -0.474407
0.228394 0.383608 -0.429368 0.479774 0.025755 -0.877014
0.109058 0.47389 -0.21724 -0.408441 0.478095 0.777561
0.00780612 -0.161537 0.565103 -0.479774 -0.0257551 0.877014
0.655186 -0.0702634 -0.170076 0.867107 -0.166518 0.469465
0.396253 0.0477259 0.307517 0.022383 0.0155282 0.999629
-0.340166 -0.0312534 -0.382595 -0.851996 -0.0468664 0.521446
0.0431594 -0.4709 0.307252 0.337995 -0.927938 0.157135
-0.0351785 0.446691 -0.356084 0.218392 0.468826 -0.855866
-0.373178 0.254642 -0.140266 -0.773442 0.273442 0.571854
-0.559101 0.317309 0.269037 -0.479774 -0.0257549 0.877014
-0.369236 0.110733 -0.3424 -0.858932 0.217752 -0.463486
-0.186176 -0.429416 -0.0299563 -0.599643 -0.473059 0.645479
0.552067 -0.0482413 -0.0200636 0.0206028 -0.0926992 0.995481
0.2727 -0.144916 0.485147 0.00251871 -0.183107 0.98309
0.340891 0.128741 -0.37531 0.479774 0.0257552 -0.877014
0.256297 0.379091 -0.414236 0.479774 0.0257553 -0.877014
0.0481706 -0.476917 0.250945 -0.285354 -0.502186 0.816322
-0.100003 -0.288632 -0.58015 -0.75708 -0.3305 0.563559
0.441288 0.398719 -0.153878 0.534447 0.784149 0.315398
-0.312249 0.318478 -0.202819 -0.736936 0.321426 0.594652
0.202399 0.491174 -0.315741 0.420796 0.522091 -0.741857
0.0612971 0.371882 0.556113 0.551702 0.768378 0.324376
-0.189661 -0.373463 -0.333792 -0.552746 -0.766522 -0.326979
-0.139965 0.47773 -0.048006 -0.259145 0.958831 -0.11613
0.539923 0.118996 0.0171865 0.838204 0.149417 -0.52449
0.00103582 -0.475596 -0.238766 0.336498 -0.465629 -0.81851
0.395341 -0.0563726 0.246824 0.855091 -0.0187142 -0.51814
-0.218674 0.310305 -0.428598 -0.709804 0.598653 -0.371205
0.575183 -0.267608 -0.251096 0.783527 -0.260756 -0.563996
0.297882 0.0586335 -0.400897 0.479775 0.0257563 -0.877014
0.337958 0.0448485 0.406084 0.848833 0.0941401 -0.520212
-0.406731 0.355664 0.353518 -0.479775 -0.0257555 0.877014
-0.0618019 0.131897 0.535641 -0.479774 -0.0257551 0.877014
0.441768 -0.0549189 0.173768 0.0180871 -0.111958 0.993548
0.614279 -0.0525711 -0.231077 0.479774 0.0257554 -0.877014
0.218242 -0.276699 -0.454313 0.479774 0.0257551 -0.877014
0.471056 -0.359835 -0.227661 0.711045 -0.348207 -0.610873
0.499278 0.297372 -0.283712 0.479775 0.0257555 -0.877013
0.214481 -0.440126 0.0178969 -0.252909 -0.486901 0.836041
-0.0678376 -0.466326 0.482218 0.602179 -0.432085 -0.67133
0.0222112 -0.320676 -0.562843 0.479776 0.025756 -0.877013
-0.365375 0.304926 0.374652 -0.479774 -0.0257551 0.877014
-0.0880336 0.309004 0.526492 -0.479774 -0.0257551 0.877014
-0.382541 0.453112 0.315443 -0.332016 0.930567 -0.154303
-0.309558 -0.0616988 -0.458338 -0.851776 -0.0693138 0.5193
-0.268715 -0.462187 0.405002 -0.479774 -0.0257553 0.877014
-0.267412 -0.45526 0.0387438 -0.363886 -0.903871 -0.224956
0.613131 -0.128881 -0.161561 -0.00227008 -0.189182 0.981939
-0.264479 0.0693915 0.422931 -0.479774 -0.0257552 0.877014
0.139234 0.50809 -0.324639 -0.0622118 0.998052 -0.00472426
0.191685 -0.477974 -0.468971 0.391087 -0.48054 -0.78494
-0.230082 -0.0133142 -0.553996 -0.0194468 -0.020051 -0.99961
0.0440834 0.477119 0.147953 -0.305547 0.460274 0.83354
0.263701 0.44686 -0.000719538 0.38766 0.890489 0.238221
0.40501 -0.302276 -0.0185772 0.761973 -0.293614 -0.577224
0.212033 -0.460719 -0.301273 0.480982 -0.474388 -0.737301
-0.643567 -0.0685778 0.211497 -0.479774 -0.0257545 0.877014
0.485046 -0.358991 -0.211598 0.727749 -0.333058 -0.599545
0.298546 0.306219 0.269058 -0.0661156 0.27448 0.959317
-0.271477 -0.490485 0.219915 -0.214677 -0.965741 -0.145802
-0.373455 0.0601672 -0.293957 -0.0233361 0.0535754 -0.998291
-0.309866 0.293285 -0.186394 -0.750776 0.305495 0.585669
0.581298 -0.0239464 -0.082533 0.0212971 -0.0862205 0.996048
-0.250498 0.406097 -0.0574795 0.168081 0.44361 -0.880318
-0.410646 0.349615 0.351199 -0.479775 -0.0257555 0.877014
0.198497 -0.464497 -0.470629 0.479774 0.0257554 -0.877014
0.378713 0.112161 -0.355107 0.479774 0.0257553 -0.877014
-0.590679 0.205151 0.181787 0.0152754 0.226542 -0.973882
-0.404668 0.361991 0.0843012 -0.68921 0.371092 0.622319
-0.534294 -0.235866 0.266362 -0.479774 -0.0257547 0.877014
-0.369474 0.435533 0.224818 0.20397 0.464459 -0.861785
-0.563321 -0.0777395 0.255127 -0.479774 -0.0257555 0.877014
-0.23121 0.433361 -0.094886 -0.449822 0.865429 -0.220663
-0.0288185 -0.44164 -0.192363 0.326923 -0.4635 -0.823583
-0.414233 0.094319 -0.265764 -0.845526 0.0837989 0.527317
-0.345974 -0.116504 0.372889 -0.479775 -0.0257545 0.877014
-0.0959809 0.0576262 -0.616391 0.479775 0.0257554 -0.877014
0.592477 -0.176209 -0.171959 -0.0145117 -0.231672 0.972686
0.335186 -0.395596 -0.0497571 0.682049 -0.37804 -0.626016
0.100293 0.306027 -0.501724 0.479775 0.0257567 -0.877013
0.43655 0.42969 -0.314142 0.479773 0.025755 -0.877014
-0.0990768 -0.490312 0.0870498 -0.46506 -0.516076 0.719295
0.296135 -0.125342 0.423707 0.00901334 -0.159027 0.987233
0.233314 -0.303291 -0.446848 0.479774 0.0257552 -0.877014
0.269879 -0.410577 0.0980152 0.504581 -0.826446 0.249767
-0.32431 -0.391729 -0.0617362 -0.53987 -0.779279 -0.318223
0.409828 0.176947 0.1964 0.812815 0.225221 -0.537221
0.636107 -0.0147719 -0.147002 0.0199988 -0.079646 0.996623
0.168978 0.496442 -0.448216 -0.466178 0.474996 0.746362
0.0502498 -0.464059 0.0185952 -0.37222 -0.520411 0.768521
-0.0847581 0.434306 -0.331108 -0.616543 0.42529 0.662573
-0.149324 0.468765 0.0818444 0.308066 0.508366 -0.804151
0.494737 -0.323391 -0.304426 0.479774 0.0257556 -0.877014
-0.484617 -0.0803425 -0.0986979 -0.0166306 -0.0793546 -0.996708
0.0990607 -0.330546 0.584642 0.757761 -0.295909 -0.58158
-0.341863 0.338131 -0.0374094 -0.699071 0.364501 0.615174
-0.456631 0.413158 0.327909 -0.479774 -0.025755 0.877014
-0.200056 0.0400504 -0.642637 -0.8523 0.0201961 0.522664
0.12111 0.411034 0.20686 0.593722 0.474202 -0.650098
0.312072 -0.446624 -0.235455 0.583385 -0.44194 -0.681433
0.568618 0.205746 -0.145337 0.809194 0.238344 -0.537026
0.443208 -0.358629 -0.156024 0.713354 -0.349479 -0.607445
0.656458 0.0495925 -0.176966 0.850285 0.0844926 -0.519496
0.215492 -0.0836437 0.565811 0.85484 -0.0419243 -0.517195
-0.102163 0.489943 0.288299 0.0732192 0.994907 0.0692727
-0.238767 -0.156672 -0.488454 -0.831224 -0.177053 0.526991
-0.0139164 -0.286892 0.549539 -0.479775 -0.0257562 0.877013
0.0725554 0.488249 -0.215751 0.357911 0.517075 -0.777517
-0.347256 -0.45987 0.193253 -0.619317 -0.462371 0.634554
0.123813 0.0705485 0.635381 -0.479774 -0.0257564 0.877014
0.39814 -0.012227 0.252175 0.855711 0.031998 -0.516464
0.0203966 -0.281939 0.568455 -0.479774 -0.0257549 0.877014
0.194047 -0.3598 0.287501 0.719864 -0.348266 -0.600422
-0.41387 0.211422 -0.186647 -0.798111 0.428029 -0.42404
-0.48745 0.30637 0.123637 -0.745155 0.311295 0.589778
-0.272774 -0.499773 0.289581 -0.165306 -0.978237 -0.125403
-0.27367 0.363903 -0.217822 -0.613188 0.724777 -0.314163
0.367247 0.429369 -0.113266 0.448925 0.849881 0.275985
-0.245334 0.440818 0.110342 0.244342 0.486133 -0.83903
0.123881 -0.434752 0.146449 -0.261807 -0.493818 0.829217
0.126103 -0.47419 -0.202059 -0.415601 -0.520371 0.745982
0.100346 -0.457308 0.202555 -0.262903 -0.49398 0.828774
0.20555 0.500966 -0.438418 0.479775 0.0257557 -0.877014
0.455649 -0.126498 -0.320027 0.479774 0.0257547 -0.877014
-0.189804 -0.0990791 -0.637525 -0.843079 -0.120239 0.524176
0.104464 -0.272446 0.614723 -0.479773 -0.0257542 0.877014
-0.367033 -0.29899 -0.165468 -0.700263 -0.591001 -0.400438
-0.296263 0.0300409 -0.424854 -0.0173255 0.00729974 -0.999823
0.0490598 0.481374 -0.230581 0.337628 0.513592 -0.788816
-0.195385 0.187331 0.464192 -0.479774 -0.0257553 0.877014
-0.120192 -0.101003 0.496859 -0.479773 -0.0257542 0.877014
0.612439 0.157935 -0.225902 0.479775 0.0257555 -0.877013
0.0642213 -0.468215 -0.373081 0.329178 -0.467174 -0.820604
0.0249324 -0.468666 0.247733 -0.295034 -0.50495 0.81116
-0.601149 -0.0377663 0.0926958 -0.0186819 -0.0351261 -0.999208
0.0420623 0.476724 0.0132591 0.437203 0.518539 -0.734828
-0.342395 -0.163844 -0.291286 -0.830053 -0.17934 0.528061
0.0750772 0.48979 -0.00201136 -0.350719 0.469076 0.810533
0.0241907 0.437386 0.335677 0.558498 0.490379 -0.669035
0.261213 -0.223155 0.462167 0.799284 -0.426432 0.42344
-0.392901 -0.136662 -0.282996 -0.839083 -0.278671 -0.467207
0.494204 0.144278 -0.290984 0.479774 0.0257553 -0.877014
0.209074 0.232239 0.48083 -0.0346116 0.219757 0.97494
-0.223811 -0.0315895 0.442213 -0.479773 -0.0257547 0.877014
-0.0722328 -0.249049 0.518748 -0.479774 -0.0257553 0.877014
0.0762472 -0.137723 -0.52791 0.479774 0.0257554 -0.877014
0.525184 -0.291544 -0.143579 -0.0698944 -0.335164 0.939564
0.444978 -0.16679 0.155831 -0.00648888 -0.210868 0.977493
0.187264 -0.37225 -0.474065 0.479774 0.0257553 -0.877014
-0.118353 -0.455448 -0.183654 -0.593605 -0.476389 0.648603
-0.045936 0.0418342 -0.589478 0.479774 0.0257553 -0.877014
-0.486236 0.342146 0.309628 -0.479774 -0.0257554 0.877014
-0.402785 -0.447261 0.230195 -0.414922 -0.873342 -0.255176
-0.0656914 0.497091 0.0646401 -0.0508102 0.998708 -0.000929574
-0.2742 -0.480862 0.334778 -0.508143 -0.510121 0.69395
0.472228 -0.197855 0.0332985 0.824354 -0.166207 -0.541124
-0.527721 0.310243 0.178979 -0.740858 0.315612 0.59289
-0.055032 -0.387534 -0.521924 0.16708 -0.385721 -0.907361
0.330026 0.348446 0.0708412 0.701664 0.397946 -0.591021
0.639799 -0.0375448 -0.148937 0.0200734 -0.0931886 0.995446
0.0479168 -0.360437 -0.549949 0.479775 0.0257554 -0.877014
-0.0852329 0.462197 0.0233409 0.329783 0.514645 -0.791444
0.118966 -0.482708 -0.126948 -0.381984 -0.521252 0.763141
-0.210439 -0.481139 0.0711968 -0.257588 -0.950855 -0.171824
-0.323554 0.122318 0.392168 -0.479774 -0.0257551 0.877014
-0.341076 0.324871 -0.167893 -0.674192 0.650511 -0.349716
-0.202456 -0.184427 -0.534087 0.0304654 -0.205072 -0.978273
0.316797 -0.101077 -0.39524 0.479774 0.0257542 -0.877014
0.0264779 0.486325 0.0577599 -0.361515 0.47296 0.803503
0.498816 -0.0426294 0.0486176 0.852364 -0.0109775 -0.522833
-0.161254 0.153216 0.481862 -0.479774 -0.0257551 0.877014
0.34716 0.246306 0.254563 0.783516 0.289274 -0.54993
0.218778 0.372645 0.286029 0.559399 0.763164 0.323502
0.494889 -0.0254305 0.111227 0.0210239 -0.082692 0.996353
0.0297096 0.406275 0.414852 0.598609 0.476469 -0.643929
-0.583188 0.222553 0.253077 -0.479774 -0.025755 0.877014
0.179983 0.472704 -0.0780358 0.505511 0.509138 -0.696589
-0.219843 -0.217887 -0.483116 -0.805645 -0.241384 0.540989
0.139671 0.0550771 -0.487552 0.479775 0.0257566 -0.877014
0.539708 0.194666 -0.075054 0.804987 0.238818 -0.543104
0.318819 0.214701 -0.384861 0.479774 0.0257553 -0.877014
0.174982 0.18158 0.619457 -0.00626998 0.152814 0.988235
-0.217703 0.0348562 0.447505 -0.479773 -0.0257557 0.877014
0.522374 0.354401 -0.269402 0.479775 0.0257556 -0.877014
0.314971 0.0537548 -0.391692 0.479774 0.0257548 -0.877014
0.502918 -0.0587684 0.0438907 0.0165476 -0.121733 0.992425
-0.55671 -0.195091 0.0859883 -0.826958 -0.18658 0.530404
0.479312 0.392937 -0.283159 -0.138029 0.36162 0.922052
0.412067 0.368288 -0.140684 0.671884 0.425274 -0.606394
0.216939 0.333484 0.358441 0.721473 0.375749 -0.581627
0.0670391 0.324259 -0.51938 0.479773 0.0257537 -0.877015
0.369674 -0.420355 -0.37569 0.479774 0.025755 -0.877014
0.210542 0.49971 -0.20369 0.133211 0.985843 0.101825
0.0140781 -0.403504 0.509721 -0.179205 -0.447317 0.876238
-0.47765 -0.421709 0.275679 -0.489609 -0.821605 -0.291972
-0.282134 -0.452766 0.053028 -0.383392 -0.892935 -0.23596
-0.306838 0.396578 -0.0673757 -0.532828 0.802662 -0.268009
-0.499613 0.270595 0.136484 0.0513175 0.302293 -0.951833
0.581531 -0.21347 -0.182149 -0.0315111 -0.272142 0.961741
-0.169017 0.330767 -0.461527 -0.738525 0.31879 0.594099
0.338845 0.130504 0.304183 0.00666999 0.107262 0.994208
-0.0876431 -0.482072 0.0429963 0.387018 -0.47385 -0.791002
-0.263336 -0.193543 -0.419843 -0.81832 -0.215221 0.532947
0.314942 0.413908 -0.0046468 0.637847 0.449973 -0.62504
-0.21275 -0.307465 -0.402957 -0.760212 -0.326187 0.561853
0.445874 -0.37478 -0.261051 -0.172418 -0.442384 0.880096
-0.215284 0.437766 0.0239775 -0.574687 0.446049 0.686131
0.357837 0.474561 -0.355885 0.479775 0.0257556 -0.877014
-0.103393 -0.470624 -0.050338 0.342129 -0.466632 -0.815599
-0.60565 0.231725 0.197351 -0.766916 0.497872 -0.404924
-0.414072 -0.424005 0.253601 -0.643077 -0.44674 0.621993
-0.460498 0.130344 -0.156989 -0.0112014 0.145628 -0.989276
-0.294094 -0.121792 -0.468999 -0.848517 -0.248395 -0.467246
0.115188 0.354849 0.502045 0.594588 0.723741 0.350234
-0.492447 -0.160371 -0.0246351 0.00522297 -0.152879 -0.988231
0.334539 -0.382652 -0.393804 0.479774 0.025755 -0.877014
0.219358 0.119092 0.604866 0.845944 0.256103 0.46775
-0.573103 0.181004 0.257374 -0.479774 -0.0257556 0.877014
0.125474 -0.100355 -0.499883 0.479774 0.0257556 -0.877014
-0.232451 0.466654 0.0766993 -0.306106 0.941732 -0.139425
-0.326641 0.00894792 -0.424451 -0.0199618 0.00733025 -0.999774
0.391904 -0.365033 -0.0504552 -0.137743 -0.410328 0.901475
0.252424 0.0143176 -0.427067 0.479774 0.0257551 -0.877014
-0.473125 0.384736 0.252227 0.130462 0.407834 -0.903688
0.0126219 -0.0108726 0.572163 -0.479774 -0.0257554 0.877014
-0.533232 -0.09222 0.0301779 -0.847837 -0.100518 0.520643
-0.402203 0.215059 0.351866 -0.479774 -0.0257554 0.877014
0.292033 -0.454003 -0.338208 0.519815 -0.467429 -0.715054
-0.207405 0.419963 -0.0513539 -0.598609 0.434885 0.672713
0.150845 -0.346276 -0.493226 0.479774 0.0257554 -0.877014
0.432572 -0.258339 -0.00177367 0.787922 -0.246277 -0.564381
0.177985 -0.450224 -0.41148 0.417534 -0.474142 -0.775149
0.564218 -0.26017 -0.155522 0.739753 -0.550356 0.387134
-0.639266 0.169888 0.198591 -0.820232 0.371859 -0.434672
0.085015 -0.43823 0.285225 -0.236074 -0.480201 0.844794
0.506845 -0.325014 -0.158276 -0.0963602 -0.370468 0.923833
-0.276562 -0.41745 0.402023 -0.479774 -0.0257553 0.877014
0.479586 -0.207088 0.0152209 -0.0300098 -0.269065 0.962654
0.133583 0.384491 -0.481208 0.479774 0.0257552 -0.877014
-0.034735 0.41013 -0.462167 -0.630435 0.417676 0.654292
0.201288 -0.396458 0.212881 0.687647 -0.371393 -0.623866
-0.0221504 -0.418683 -0.493007 -0.452799 -0.848716 -0.273228
-0.186735 0.126657 0.467143 -0.479774 -0.0257553 0.877014
0.175627 -0.419871 0.199522 0.666128 -0.392523 -0.634192
-0.092642 -0.417288 -0.331877 -0.644871 -0.445111 0.621303
0.088195 0.134597 0.617777 -0.479774 -0.0257553 0.877014
-0.273802 0.416114 0.0155091 0.186049 0.454957 -0.870861
-0.00925186 0.482367 0.160925 0.454916 0.51784 -0.724495
-0.072654 0.369216 0.536674 -0.479773 -0.0257557 0.877014
0.34085 -0.300793 0.178948 -0.0771362 -0.341601 0.936674
0.0753372 0.172909 -0.519286 0.479774 0.0257541 -0.877014
-0.446138 -0.307587 0.312482 -0.479774 -0.0257552 0.877014
-0.105024 0.335081 0.517964 -0.479774 -0.0257553 0.877014
-0.413226 -0.413472 0.262024 -0.64368 -0.445585 0.622198
0.207314 -0.363071 0.276691 -0.141807 -0.418604 0.897029
0.0438382 -0.434159 0.351645 -0.240176 -0.484252 0.841317
-0.205783 -0.0650625 0.451092 -0.479774 -0.0257551 0.877014
-0.183453 -0.501592 0.187906 -0.12612 -0.987443 -0.0951367
-0.29652 0.0496868 -0.434271 -0.851477 0.0407393 0.522807
-0.568713 0.244956 0.192571 0.034008 0.269168 -0.962493
-0.297553 -0.309305 -0.178461 -0.753381 -0.335717 0.56543
-0.196221 0.067117 0.460204 -0.479774 -0.0257551 0.877014
-0.442831 0.33754 0.165648 0.0992175 0.369172 -0.92405
0.59524 0.174386 -0.234827 0.479776 0.025756 -0.877013
0.365378 -0.433877 -0.23853 -0.24367 -0.485546 0.839565
-0.0322912 -0.413241 -0.493106 -0.452799 -0.848716 -0.273228
-0.120123 0.0881208 -0.628703 0.479774 0.0257551 -0.877014
-0.614287 -0.0534542 0.0934929 -0.0186819 -0.0351261 -0.999208
0.158403 0.276243 0.469538 0.738534 0.35497 -0.573205
-0.206254 0.00198665 -0.618541 -0.0173343 -0.0113717 -0.999785
0.424953 -0.130261 -0.33693 0.479773 0.025754 -0.877014
-0.297888 -0.386672 -0.117917 -0.704644 -0.393668 0.590341
-0.508017 0.120619 -0.0800147 -0.854489 0.24061 -0.460386
-0.14419 0.0572017 -0.642777 0.479776 0.0257556 -0.877013
-0.0739863 0.082807 -0.60362 0.479773 0.0257548 -0.877014
-0.122999 0.488936 0.272209 0.41237 0.522707 -0.746142
0.218181 -0.488914 -0.339232 0.0556017 -0.998452 0.00109643
0.0305403 -0.0183085 -0.549407 0.479774 0.0257551 -0.877014
-0.561459 0.0889178 0.26104 -0.479774 -0.0257557 0.877014
0.230349 0.488739 -0.301144 0.446316 0.518203 -0.729567
0.306502 0.387457 0.0710739 0.66549 0.428207 -0.611361
0.337246 0.301301 0.206588 -0.0607389 0.267049 0.961767
-0.306714 -0.293466 0.38917 -0.479774 -0.0257552 0.877014
0.330741 -0.202597 0.276713 -0.0229097 -0.251844 0.967497
-0.00153087 -0.462514 0.241451 -0.311621 -0.509621 0.801984
-0.512003 -0.149033 -0.0265168 0.00649886 -0.153592 -0.988113
-0.295082 -0.011687 0.403808 -0.479774 -0.0257551 0.877014
-0.442579 0.170581 -0.0910892 -0.819477 0.179147 0.544393
0.28797 -0.0314674 0.435183 0.0218415 -0.0700573 0.997304
-0.240292 0.40658 -0.0731424 -0.635897 0.414212 0.651202
0.428073 0.134346 0.174744 0.00969857 0.0983924 0.9951
-0.136089 -0.483274 -0.0270545 -0.212051 -0.966533 -0.144388
-0.198953 0.226367 -0.528873 0.0123811 0.226219 -0.973998
0.218515 -0.422492 0.161203 0.492077 -0.835466 0.244657
0.394434 -0.101315 0.248846 0.845359 -0.0665252 -0.53004
0.398157 -0.0868433 -0.350314 0.479774 0.0257547 -0.877014
-0.421152 0.381691 0.259354 0.164429 0.445567 -0.880019
0.612596 0.118564 -0.14634 0.0169435 0.0613583 0.997972
0.190275 0.483722 -0.0625132 0.504383 0.510376 -0.696501
0.0703248 0.434964 0.325691 -0.21005 0.417046 0.88428
-0.350003 -0.458741 0.18649 -0.375663 -0.898111 -0.228635
-0.0186158 0.421575 0.383818 0.551996 0.493969 -0.671785
0.515236 0.275248 -0.275632 0.479775 0.0257557 -0.877013
-0.0823656 -0.311233 0.511379 -0.479774 -0.025755 0.877014
0.274061 -0.0928136 0.493367 0.0150941 -0.125877 0.991931
-0.0995768 -0.101851 -0.623042 0.479773 0.0257551 -0.877014
-0.549352 -0.0649192 0.0291016 -0.0202071 -0.0548348 -0.998291
0.206772 0.162892 0.598715 0.818237 0.351508 0.454896
-0.0146326 -0.103988 -0.576636 0.479773 0.0257549 -0.877014
0.581975 0.287753 -0.200059 0.768839 0.313377 -0.557388
0.419363 0.00155104 -0.336117 0.479775 0.0257567 -0.877013
0.280033 -0.4612 -0.425928 0.479774 0.0257554 -0.877014
-0.525309 -0.0039064 -0.0719963 -0.854246 -0.000335077 0.519868
0.383307 0.2762 0.14965 -0.0503427 0.248449 0.967336
0.105331 0.337243 0.554713 0.616137 0.701746 0.357669
-0.109413 -0.0718905 0.503611 -0.479774 -0.025754 0.877014
-0.637963 0.0951453 0.219371 -0.479774 -0.0257551 0.877014
0.226076 -0.477776 -0.192501 0.523703 -0.463292 -0.71491
0.27145 0.494885 -0.39289 -0.365104 0.471058 0.802997
0.291587 0.250581 0.283231 -0.0434905 0.23679 0.970587
-0.405854 0.0562181 -0.293482 -0.0229028 0.0611398 -0.997866
0.10541 0.48431 -0.202592 0.379291 0.517203 -0.767228
-0.485881 -0.39058 0.288304 -0.479774 -0.0257553 0.877014
-0.414391 0.0195577 -0.283534 -0.879335 0.0291502 -0.475311
-0.0161135 -0.462626 -0.32725 -0.290814 -0.938397 -0.186648
0.193645 -0.479042 -0.171616 -0.348218 -0.517673 0.78151
0.125412 -0.472509 -0.17698 0.463497 -0.478127 -0.746033
0.298841 -0.423104 -0.099817 -0.222054 -0.475027 0.851493
0.128712 0.0184768 0.636532 -0.479774 -0.0257553 0.877014
-0.379829 -0.439815 0.344874 -0.479774 -0.0257554 0.877014
-0.374876 -0.403108 0.102255 -0.683436 -0.411632 0.602889
-0.253814 0.172749 -0.520026 -0.832857 0.332116 -0.442773
-0.410119 -0.272644 -0.0842775 -0.78244 -0.288274 0.551983
0.250283 -0.386993 0.129437 -0.165857 -0.43851 0.88329
0.589268 0.0490848 -0.0414804 0.849969 0.0866411 -0.519659
-0.560996 -0.249556 0.175704 -0.795564 -0.265915 0.544396
-0.392525 0.225072 -0.138391 0.0186951 0.235838 -0.971612
-0.000510588 -0.459508 -0.0893663 0.400625 -0.479378 -0.78083
-0.184704 -0.381567 -0.196181 0.187124 -0.397971 -0.898111
-0.544296 -0.227775 0.117787 0.0361242 -0.224802 -0.973735
-0.498917 -0.37066 0.233776 0.132967 -0.35558 -0.925139
0.342164 0.300737 -0.369563 0.479774 0.0257554 -0.877014
-0.0651481 0.457376 0.284282 0.465724 0.516385 -0.718643
-0.507587 -0.200629 0.0398632 -0.818085 -0.214549 0.533578
-0.576585 -0.0398457 0.0284485 -0.0199088 -0.0324311 -0.999276
0.34347 0.298856 0.165438 0.744352 0.347294 -0.570375
-0.156572 -0.333028 -0.421068 0.120423 -0.340415 -0.932532
0.0506553 -0.459179 -0.144792 0.42312 -0.479668 -0.768693
-0.316855 -0.502325 0.371716 -0.168667 -0.978429 -0.119282
-0.166983 -0.303488 0.465316 -0.479774 -0.0257552 0.877014
0.441066 0.320838 -0.314868 0.479774 0.0257553 -0.877014
0.315017 -0.286803 0.186453 0.778741 -0.26277 -0.569661
0.493739 -0.122028 0.0479842 0.8437 -0.104361 -0.526572
-0.314113 0.448496 0.246732 0.243705 0.485731 -0.839448
-0.280415 0.483951 0.378455 -0.124677 0.991427 -0.0390893
0.624027 0.167053 -0.196668 0.819943 0.215039 -0.53052
0.0429628 0.433988 0.349225 0.579261 0.481265 -0.657906
-0.282785 0.433643 0.171291 0.246694 0.493692 -0.833913
0.129344 -0.141475 0.632181 -0.479774 -0.0257559 0.877014
0.170424 0.265275 0.537194 -0.0440071 0.234079 0.971221
-0.0215178 -0.433223 -0.374067 -0.60975 -0.465241 0.641682
-0.399507 -0.410435 0.174952 -0.672105 -0.422828 0.607858
-0.295962 0.473306 0.300534 -0.503539 0.469126 0.725513
-0.501697 -0.117188 -0.0460447 -0.847081 -0.108251 0.520322
-0.198634 0.233417 -0.566658 -0.80115 0.222265 0.555658
0.21545 0.102622 0.588858 0.832266 0.167019 -0.528618
0.358755 -0.096199 -0.372144 0.479773 0.025754 -0.877014
0.301802 0.130256 0.368618 0.00824174 0.100755 0.994877
-0.299349 -0.118299 -0.452474 -0.843049 -0.129293 0.522065
-0.102653 0.294573 0.518071 -0.479773 -0.0257557 0.877014
0.234912 -0.0162971 0.597815 0.852109 0.0430329 -0.521592
-0.500609 -0.0518265 -0.100294 -0.0159091 -0.0537701 -0.998427
0.0615131 0.494887 -0.0912089 -0.39728 0.475826 0.784703
-0.162291 0.325054 0.486341 -0.479774 -0.0257553 0.877014
0.236583 0.0295944 -0.435284 0.479774 0.0257545 -0.877014
-0.0728 -0.440404 -0.334017 -0.367918 -0.900707 -0.231005
-0.540117 0.126721 0.273825 -0.479774 -0.0257544 0.877014
0.106848 0.427376 -0.494575 0.479774 0.0257552 -0.877014
-0.120578 -0.330278 -0.519768 -0.73637 -0.358074 0.574057
-0.47322 0.141658 0.31086 -0.479774 -0.025755 0.877014
0.195783 -0.389254 0.262415 -0.160285 -0.430984 0.88801
0.43418 -0.145848 0.198607 0.843494 -0.09635 -0.528426
0.0348754 -0.406082 -0.500098 -0.61868 -0.462081 0.635386
0.53756 -0.0922119 0.0389007 0.863238 -0.192677 0.466579
-0.0171729 0.407462 -0.563006 0.479773 0.0257537 -0.877015
0.046845 -0.456437 -0.148476 0.407575 -0.476094 -0.779242
0.198322 -0.445369 -0.470163 0.479774 0.0257554 -0.877014
-0.422609 -0.405073 0.138234 -0.521058 -0.796809 -0.305931
0.068318 0.210434 -0.522023 0.479774 0.0257553 -0.877014
0.185465 -0.00179704 -0.46417 0.479774 0.0257555 -0.877014
0.452472 0.01338 0.178166 0.0238717 -0.0385235 0.998973
0.0934984 -0.0975699 -0.517294 0.479774 0.0257551 -0.877014
0.550066 -0.0321395 0.0100985 0.854027 -0.000326751 -0.520228
0.392741 0.407196 -0.0942073 -0.140501 0.362809 0.921211
0.205183 0.36448 -0.442627 0.479774 0.0257552 -0.877014
-0.570472 -0.202652 0.111521 0.0247368 -0.200644 -0.979352
-0.593443 0.00809796 0.0436899 -0.875121 0.0329353 -0.482782
-0.107119 -0.31377 -0.490264 0.123223 -0.343461 -0.931048
-0.630856 0.0353125 0.120739 -0.851225 0.0457246 0.522805
-0.148373 0.119117 -0.643247 0.479775 0.0257554 -0.877013
-0.295081 -0.294411 -0.298029 -0.702428 -0.587685 -0.401524
-0.275334 0.167139 -0.41119 -0.00364444 0.17756 -0.984103
-0.0520119 -0.482066 0.232106 0.495371 -0.469018 -0.731184
0.132835 0.348539 0.442162 -0.107003 0.328896 0.938284
0.272965 0.126452 -0.412537 0.479773 0.0257537 -0.877015
-0.585546 -0.0243735 0.0741038 -0.854639 -0.0240478 0.518666
0.314597 -0.345634 -0.403625 0.479774 0.025755 -0.877014
-0.235696 -0.160933 -0.539213 0.0120694 -0.168302 -0.985662
-0.437979 -0.44226 0.312991 -0.479774 -0.025755 0.877014
0.249493 -0.42734 -0.44164 0.479774 0.0257552 -0.877014
-0.150877 -0.020804 0.482428 -0.479774 -0.0257562 0.877014
0.370232 0.388604 -0.0676501 0.668241 0.424816 -0.610726
0.278195 0.195655 -0.407643 0.479774 0.0257551 -0.877014
0.573054 0.221472 -0.245581 0.479772 0.0257545 -0.877015
-0.0294321 -0.362054 -0.59231 0.479772 0.0257548 -0.877015
-0.0420929 0.430159 -0.385176 -0.607071 0.431197 0.667483
-0.366986 0.383525 0.111213 -0.656216 0.400252 0.639671
-0.0442465 -0.387128 -0.520038 0.185639 -0.400153 -0.897449
-0.17697 0.394062 -0.19921 -0.645054 0.407372 0.646493
-0.213481 -0.507501 0.320288 0.414165 -0.478274 -0.774417
-0.337888 0.224793 0.387336 -0.479774 -0.0257551 0.877014
0.368754 0.0467152 -0.362477 0.479775 0.0257567 -0.877013
0.318837 -0.390075 0.0626428 0.553353 -0.784592 0.279672
-0.467549 0.363097 0.173362 0.107054 0.383062 -0.917498
-0.483307 -0.355285 0.161239 0.115107 -0.337184 -0.934375
-0.30472 -0.241993 -0.328241 0.048944 -0.247538 -0.967641
-0.0737269 -0.13286 0.521343 -0.479773 -0.0257542 0.877014
-0.18425 -0.268624 -0.456358 -0.775715 -0.301867 0.554205
-0.258776 0.259362 -0.389996 0.0314602 0.264383 -0.963904
0.305421 0.338491 0.142746 0.697298 0.395838 -0.597569
0.332906 -0.325161 0.118687 0.748097 -0.305059 -0.589313
-0.41347 0.106546 -0.225023 -0.0179597 0.109891 -0.993781
0.176509 -0.46892 -0.0119019 -0.293782 -0.504595 0.811835
0.168983 -0.423163 0.239952 -0.19531 -0.455701 0.868442
-0.568161 -0.0921159 0.252057 -0.479774 -0.0257554 0.877014
-0.429971 -0.0981896 -0.225867 -0.00621785 -0.0988853 -0.995079
0.468646 -0.410229 -0.300127 0.476156 -0.847211 0.235603
-0.210633 -0.284813 0.441985 -0.479775 -0.0257553 0.877014
0.0146404 -0.478015 0.316621 -0.27799 -0.499179 0.820696
-0.151364 0.447799 -0.0861833 0.23067 0.476886 -0.848158
-0.202831 -0.358034 -0.345021 -0.588288 -0.73215 -0.343327
-0.216417 0.331519 -0.296533 0.0883322 0.357986 -0.929539
0.438626 0.289049 0.0173006 -0.0585107 0.258148 0.964332
0.125665 0.475611 -0.11179 0.43984 0.523982 -0.729372
-0.368765 -0.288432 0.355372 -0.479774 -0.025755 0.877014
0.570709 -0.196723 -0.170566 0.822918 -0.172262 -0.541417
0.063547 0.447275 0.170712 -0.277018 0.449815 0.849075
0.553109 -0.199297 -0.268849 0.479775 0.0257566 -0.877014
0.282831 0.493145 -0.253888 0.207975 0.966912 0.147739
-0.522898 -0.342197 0.176342 -0.648537 -0.663015 -0.373911
-0.157352 -0.494387 0.344204 0.457048 -0.475944 -0.751388
-0.0624888 -0.494555 0.35638 -0.320626 -0.512532 0.796561
-0.0153554 0.467075 -0.293563 -0.545406 0.455567 0.703556
-0.396482 -0.00038587 -0.295249 -0.0197335 0.00303057 -0.999801
-0.47211 0.24366 0.314463 -0.479774 -0.025755 0.877014
0.397638 -0.0284978 -0.348884 0.479774 0.0257548 -0.877014
-0.388561 0.107892 -0.22529 -0.0159626 0.100645 -0.994794
0.553892 0.180091 -0.0598098 0.816248 0.217682 -0.53512
0.0111235 -0.498963 -0.0388744 0.00358388 -0.999618 -0.0273956
-0.0482158 0.468095 0.0314701 -0.426223 0.478265 0.767851
-0.0846003 0.363022 0.529957 -0.479773 -0.0257557 0.877014
0.477922 0.18762 0.0660854 0.815159 0.22184 -0.535073
-0.179625 0.251085 0.474686 -0.479774 -0.0257553 0.877014
0.643982 0.135277 -0.176565 0.832706 0.170386 -0.526849
0.616864 -0.0144395 -0.228543 0.479775 0.0257557 -0.877013
0.466243 -0.183148 -0.315896 0.479774 0.0257555 -0.877014
-0.307857 -0.461091 0.323946 -0.52934 -0.503225 0.683055
-0.638123 0.0930775 0.219223 -0.479774 -0.0257551 0.877014
-0.56667 -0.0986354 0.252681 -0.479774 -0.0257554 0.877014
-0.0326384 0.401659 0.559518 -0.479774 -0.0257551 0.877014
-0.182909 0.179397 -0.64092 -0.824509 0.165724 0.541036
0.359146 0.218196 0.278982 0.780914 0.440888 0.442483
-0.443735 0.0411208 -0.185233 -0.851709 0.0428772 0.522257
0.176551 0.495669 -0.121884 0.158507 0.980321 0.117668
-0.198818 -0.274291 -0.479872 -0.783319 -0.289378 0.550156
-0.445377 0.235428 -0.00503082 0.0334033 0.272733 -0.96151
-0.0703762 -0.300173 -0.612892 0.479776 0.0257556 -0.877013
0.470523 0.326231 -0.298595 0.479773 0.025755 -0.877014
-0.344402 -0.161862 0.372417 -0.479774 -0.0257552 0.877014
-0.075721 -0.373179 -0.528347 -0.558318 -0.760493 -0.331559
0.227764 0.444915 -0.0618775 0.548269 0.494984 -0.674086
-0.608285 0.241114 0.214017 -0.764266 0.505995 -0.399834
0.12319 0.295571 0.59604 0.6822 0.617623 0.391338
-6.71433e-05 -0.472534 0.17416 0.513256 -0.469215 -0.718614
0.160163 0.159159 0.622677 -0.00355815 0.143285 0.989675
-0.54166 -0.298387 0.178451 -0.772396 -0.304609 0.557332
-0.0402216 0.477626 0.323908 0.203255 0.969116 0.139652
-0.367992 0.154135 0.368792 -0.479774 -0.0257557 0.877014
-0.513479 0.0728441 -0.0907015 -0.869639 0.146551 -0.471435
-0.170684 -0.464327 -0.0771076 -0.324997 -0.92325 -0.204903
0.265642 0.415907 -0.408043 0.479774 0.0257553 -0.877014
-0.334139 0.184255 -0.284028 -0.818281 0.182316 0.54514
0.638244 0.157968 -0.170483 0.831369 0.306138 0.463795
0.420011 0.319437 -0.0567709 0.724004 0.376739 -0.577828
0.55058 0.0365227 0.0332659 0.876138 0.0639161 0.477804
0.294603 0.456329 -0.0869414 0.381634 0.894172 0.234121
