ply
format ascii 1.0
comment Created by Open3D
element vertex 512
property double x
property double y
property double z
property double nx
property double ny
property double nz
end_header
-0.0884947 0.00063409 0.166132 0.375304 0.143725 -0.915691
-0.0510001 0.0217564 0.0977048 -0.372596 -0.208444 0.904281
0.166133 0.187524 0.117992 -0.499253 0.860624 -0.100368
0.119319 0.153872 0.0884359 -0.531614 0.844288 -0.0675619
-0.149784 0.188263 0.00033195 -0.494599 0.862815 -0.104514
0.0294305 -0.431655 -0.0544679 -0.495642 0.861979 -0.106446
-0.214216 -0.0241444 -0.309354 0.390306 0.133037 -0.911023
0.16785 0.297545 -0.0219416 -0.390793 -0.125827 0.911838
0.0175327 0.279788 -0.0591885 -0.423343 0.889961 -0.169559
0.0555069 0.101583 0.251608 -0.37919 -0.206696 0.901937
-0.0647929 0.44998 0.12963 0.537799 -0.842942 0.014853
0.482674 -0.141397 0.307053 -0.40361 -0.11933 0.907116
-0.0231258 0.0645833 0.0640392 0.509548 -0.857946 0.0655028
-0.343485 -0.156704 -0.207305 0.509525 -0.857084 0.0760962
0.644128 -0.119144 0.0615913 -0.392851 -0.125629 0.91098
0.0799988 0.258915 -0.0649203 -0.43565 -0.063334 0.897885
-0.378024 -0.151142 0.0130506 0.633242 -0.576113 -0.516815
0.140218 -0.415914 0.109611 0.410637 0.107 -0.905499
0.649066 -0.136576 0.0632866 -0.41748 -0.0825109 0.904932
-0.2087 -0.113012 -0.00219825 0.443099 0.0676161 -0.893919
-0.212548 0.00386556 0.120349 -0.391072 -0.147602 0.908447
0.0566893 -0.416077 -0.244473 0.441692 0.0342314 -0.896513
-0.186574 0.151647 -0.11591 -0.496141 0.862052 -0.103492
-0.16787 0.15333 -0.148776 0.522162 -0.849255 0.0781803
-0.0620585 -0.491692 -0.0331415 0.502765 -0.859109 0.0957074
0.169724 0.174007 -0.102299 -0.530169 0.147134 0.835028
0.351258 -0.254214 -0.0632844 0.502126 -0.859437 0.0961091
-0.214268 0.0321998 0.0150229 0.378057 0.136166 -0.915714
0.3235 0.30633 0.176772 0.386837 0.142411 -0.911085
-0.0031529 0.110443 0.118422 0.399406 0.0580716 -0.914933
0.201729 0.400519 0.0672849 -0.579233 0.815157 -0.00302725
0.0393944 -0.543528 -0.269279 0.433597 -0.889909 0.141618
0.0429209 0.299339 -0.0139492 -0.496067 0.861454 -0.108694
0.28821 -0.167271 0.206784 0.379904 0.129326 -0.915941
0.182458 -0.310215 -0.165158 -0.396749 -0.119055 0.910174
-0.135702 0.205775 -0.178799 0.403059 0.101578 -0.909519
0.477498 -0.156415 0.149242 0.538213 -0.839398 0.075748
0.127606 0.1547 0.0917565 0.487529 -0.865711 0.1134
-0.301207 0.266272 0.0110876 0.408512 0.111828 -0.905877
-0.0721989 0.431227 0.0125394 0.460139 -0.874668 0.152406
0.019906 0.0823716 -0.0345626 -0.513953 0.853498 -0.085981
-0.167497 0.125038 0.0500729 0.421534 0.10072 -0.901202
0.342699 -0.232386 0.180922 0.537132 -0.841233 0.0617715
-0.452853 -0.167569 -0.103269 -0.360628 -0.163225 0.918316
-0.27767 0.152639 -0.239222 -0.466909 0.849319 -0.24628
0.0207724 0.452575 0.177426 0.420863 0.0787035 -0.903704
-0.377471 -0.162887 -0.156054 -0.481479 0.870105 -0.105336
0.250075 0.19443 -0.0787679 0.41068 0.118373 -0.904063
-0.278595 -0.0839419 -0.334041 -0.40161 -0.0690989 0.9132
-0.372593 0.247217 -0.023726 0.615204 -0.447064 -0.649352
-0.453187 -0.203002 -0.0788689 0.435578 -0.892253 0.118977
0.0668111 0.133857 -0.166745 0.396749 0.122368 -0.909734
-0.102937 0.262294 -0.155536 0.345567 0.168833 -0.923081
-0.396729 0.027894 -0.0719968 0.678223 -0.647583 -0.347348
-0.0401269 0.10544 -0.215818 0.404697 0.116313 -0.907023
0.121563 0.144396 0.0564698 0.488568 -0.866147 0.105309
0.0702344 0.111252 -0.047492 -0.524225 0.848198 -0.0758115
-0.450045 -0.203471 -0.0855297 0.453789 -0.880772 0.135339
0.401464 -0.258913 -0.0745906 0.493349 0.0898962 -0.865174
-0.0319046 -0.523501 -0.285015 -0.383032 -0.15677 0.910335
0.0342733 0.143739 0.0266202 0.392311 0.149093 -0.907669
-0.495814 0.189461 -0.293884 0.450384 0.0843443 -0.888842
-0.479056 0.204487 -0.0633501 -0.391157 -0.138584 0.90983
0.294508 0.297138 -0.0436035 0.42446 0.0925889 -0.9007
-0.103366 -0.531886 -0.331091 0.39218 0.130759 -0.910548
-0.0399542 0.531176 0.165703 -0.491016 0.864623 -0.106441
-0.102728 0.0714055 0.179547 -0.370172 -0.156794 0.915635
-0.0447621 0.0514437 0.0060008 -0.481208 0.870335 -0.104666
-0.0857535 0.396439 -0.0873088 0.487842 0.0738658 -0.869801
-0.519446 0.14126 -0.242163 0.5596 -0.82656 0.0603917
0.120488 -0.37556 -0.0246772 -0.443994 0.883693 -0.148176
0.259552 0.264588 0.319396 -0.499782 0.860326 -0.100281
0.465505 -0.128269 -0.0308036 0.347116 0.174944 -0.92136
0.240712 -0.314463 0.165579 0.378853 0.142043 -0.914491
-0.390994 0.219235 -0.032166 0.453333 0.0550836 -0.889638
-0.113339 0.183699 0.0919813 -0.394272 -0.128627 0.909948
-0.0130173 0.0883907 0.108561 0.0145026 0.620989 -0.783685
-0.389882 -0.145212 0.0215963 -0.444338 -0.0669267 0.893356
-0.305976 0.281612 -0.159498 -0.538742 0.839615 -0.0693178
0.449976 0.269811 0.0218867 0.433199 0.0595329 -0.89933
0.384151 -0.205824 0.183778 0.509313 -0.857005 0.0783732
-0.0624326 -0.503121 -0.139629 0.5462 -0.834911 0.067739
-0.00472252 0.487322 0.147474 0.481366 -0.853963 0.197572
-0.196891 0.174901 -0.200368 -0.405599 -0.0886958 0.909738
-0.182713 -0.0400438 -0.0726699 -0.522802 0.849708 -0.0683727
-0.603135 0.0917804 -0.13297 -0.410464 -0.118298 0.904171
-0.265811 0.317593 -0.00283091 0.493473 -0.862916 0.108902
-0.0616086 -0.579583 -0.306072 -0.401133 -0.117506 0.908452
0.394181 -0.189342 0.199289 -0.447796 0.882345 -0.14473
-0.148374 -0.500181 -0.0166802 -0.428195 -0.0909753 0.899095
-0.452229 0.2066 -0.0883148 -0.493215 0.862785 -0.111092
0.0100197 0.162031 0.240715 -0.378842 -0.158286 0.911825
0.583732 -0.0958431 0.0493129 -0.624195 0.731033 0.275629
-0.129502 -0.0708694 -0.26641 -0.378445 -0.135423 0.915664
-0.320393 0.0518882 -0.0153462 -0.396127 -0.123007 0.909919
-0.31982 -0.133459 -0.165872 0.357271 0.161234 -0.919979
0.321573 -0.160873 0.222159 0.338795 0.173685 -0.92469
0.239447 -0.28702 0.139889 -0.506775 0.858535 -0.0780816
0.46286 -0.267179 -0.0375868 -0.424695 -0.0537415 0.90374
-0.069768 -0.013266 0.0717503 0.432337 0.108748 -0.895131
0.215486 0.211527 0.0922714 -0.539393 0.841457 -0.0317148
0.103929 0.336315 0.0693929 0.485496 -0.866253 0.117897
-0.61254 0.123511 -0.143026 0.444405 0.0710455 -0.893004
0.0519924 0.285929 0.16785 0.41528 0.114149 -0.902503
-0.0542129 0.105493 0.097653 0.397633 0.120763 -0.909563
0.117387 0.352649 0.106704 -0.518179 0.853696 -0.0518961
-0.602347 0.0969236 -0.205209 -0.765885 -0.495804 -0.409387
-0.54059 0.00999737 -0.126437 -0.504695 0.858187 -0.0937959
-0.21383 -0.0677234 -0.165612 -0.497246 0.860888 -0.10779
-0.0173607 0.478724 0.0723525 -0.472377 0.870611 -0.137464
0.309885 -0.297526 0.200745 0.435349 0.0689358 -0.897618
0.0151915 0.500223 0.174548 0.593352 -0.789792 -0.155442
0.0228041 0.529599 0.190603 0.38089 0.163433 -0.910062
-0.0547202 0.455396 0.138487 0.601219 -0.782087 -0.163938
0.274735 0.241436 0.0556853 -0.495887 0.861714 -0.107451
0.377216 0.298159 0.00945137 -0.617332 0.657061 0.432634
0.04199 0.544338 0.000168194 -0.405598 -0.086227 0.909975
-0.0541454 0.00332198 -0.236097 0.416126 0.0996285 -0.903833
0.0237607 0.0788594 0.0257636 -0.157545 -0.498987 0.852169
0.256049 -0.379476 -0.153712 0.43965 0.10502 -0.892008
-0.431299 -0.193219 -0.120689 0.49352 -0.863424 0.10458
0.343195 0.305952 0.183595 0.381064 0.133502 -0.914859
-0.0943068 -0.530708 -0.286053 -0.478255 0.864883 -0.152478
0.257597 0.438575 0.122723 -0.460613 0.861801 -0.212448
-0.0574112 -0.482054 -0.0639617 -0.496724 0.862002 -0.10108
-0.151436 0.373776 0.0930639 0.408604 0.0937857 -0.907881
0.497696 -0.12883 0.222154 -0.501795 0.861201 -0.0808416
-0.272232 0.306322 0.0300517 0.517829 -0.132773 -0.845118
0.306661 0.219338 0.165157 -0.449374 -0.0779756 0.889934
0.125223 0.34485 -0.0258207 -0.642374 0.677065 0.35908
0.00598037 0.0883482 0.135682 0.477803 -0.86876 0.130232
-0.169905 0.166627 -0.0339572 0.484048 -0.868432 0.107345
0.352409 0.257922 0.191492 -0.386489 -0.162132 0.907931
-0.00617578 0.088463 0.19803 0.483029 -0.864201 0.140851
-0.067819 -0.500425 -0.298128 -0.42511 -0.0697191 0.902453
0.136388 -0.335478 0.128267 -0.44749 -0.0884019 0.889909
0.614649 -0.085574 0.0692268 0.45593 -0.867926 0.197059
-0.0576376 -0.0294588 -0.244452 0.350808 0.198638 -0.915137
0.000133447 0.0636205 -0.114464 -0.495667 0.861737 -0.108279
0.0138916 0.0540879 -0.175332 0.331547 -0.857744 0.392877
-0.24016 0.307281 -0.153822 -0.162017 -0.473851 0.865572
-0.15697 -0.601552 -0.0468337 0.479918 0.0403364 -0.876386
-0.0185464 0.145855 0.11428 0.428163 0.109089 -0.897093
0.248474 0.288226 -0.05434 -0.374778 -0.153326 0.914348
0.14356 0.131061 0.286042 0.506363 -0.857882 0.0873771
0.0586936 -0.355899 -0.233014 0.43186 0.0922906 -0.897206
0.238623 0.194907 0.334667 0.392704 0.132146 -0.910122
0.100388 0.336896 -0.0437129 -0.571968 0.264476 0.776469
0.168702 0.170484 0.0343198 0.485111 -0.866794 0.115481
-0.0806626 0.00506695 -0.134377 0.505922 -0.86208 0.0293351
-0.258224 -0.009517 -0.00570665 0.390864 0.134862 -0.910515
0.145429 -0.368477 -0.099144 -0.47407 0.873281 -0.112421
0.217947 0.223295 0.190776 -0.492138 0.862957 -0.114479
-0.0453079 -0.0200353 0.0828528 0.402262 0.100131 -0.910032
-0.506706 0.153941 -0.272115 -0.484409 0.866271 -0.122158
0.186522 0.200514 0.157453 -0.492427 0.86365 -0.107814
-0.250484 0.198326 0.0310886 -0.490515 0.864008 -0.113513
-0.333155 -0.162412 -0.304804 0.497803 -0.861249 0.102188
-0.00434642 0.171323 0.13289 -0.535799 0.844325 0.00589613
-0.359211 -0.151705 0.036603 -0.401299 -0.115066 0.908691
0.0352438 0.510526 0.152483 0.500118 -0.860196 0.0997233
-0.222632 -0.0843276 -0.104186 -0.324118 -0.232378 0.917032
-0.276233 0.313562 0.0115766 0.511142 -0.858603 -0.039184
-0.0272827 -0.473021 0.0288173 0.549438 -0.169653 -0.818129
-0.18239 0.364954 -0.120675 -0.559748 0.253825 0.788831
0.0941849 0.536123 0.2222 0.397009 0.0941077 -0.912978
-0.393752 0.0782416 -0.0558861 0.440968 0.0872658 -0.89327
0.19358 0.217644 0.114749 -0.411657 -0.0888487 0.906998
0.276859 -0.27843 0.185127 0.606617 -0.369378 -0.703971
-0.305772 0.0611291 -0.236852 0.503432 -0.861304 0.0686337
0.0011546 0.333096 0.161721 -0.405109 -0.0829906 0.910494
0.338699 -0.253403 -0.0768891 -0.557466 0.813362 0.166357
-0.37649 -0.156176 -0.117299 -0.557513 0.830168 -7.1301e-05
-0.125202 -0.0554265 -0.274508 0.339772 0.16009 -0.926783
0.226323 -0.297661 0.108605 -0.507699 0.857793 -0.0802071
0.00355123 0.0805619 0.0301411 -0.484265 0.866329 -0.122316
-0.396042 -0.187298 -0.189242 0.0860036 -0.731889 0.675975
-0.238911 0.362799 -0.149491 -0.392669 -0.163492 0.905031
0.13988 0.167283 0.129577 0.506395 -0.859061 0.0746846
0.143457 0.381206 -0.0307584 0.408821 0.0747815 -0.909546
-0.413061 0.186909 -0.0477847 0.392222 0.127297 -0.91102
0.115241 0.569567 0.215051 -0.487755 0.863922 -0.125436
-0.597985 0.102028 -0.208554 0.494474 -0.856221 0.1496
-0.026715 -0.491741 -0.21126 0.41636 -0.893291 0.169339
-0.0473239 0.0267393 -0.131101 0.500331 -0.860369 0.0971242
0.0192698 -0.026274 -0.197442 -0.396889 -0.122532 0.909651
0.308144 0.315582 -0.0355346 0.396403 0.122872 -0.909817
0.471499 -0.166125 0.0941409 0.418621 -0.889722 0.182073
0.0724857 -0.341252 0.103535 -0.413969 -0.0483899 0.909004
0.411714 -0.248307 -0.058377 -0.361126 -0.138243 0.922213
0.0789754 0.166954 0.261628 0.425736 0.0727081 -0.901922
0.335859 0.273659 0.106823 0.528703 -0.847289 0.0507461
0.186078 0.258867 -0.0875993 -0.441515 0.88594 -0.142037
-0.405597 -0.184857 -0.224454 -0.451791 0.867911 -0.206436
-0.0217957 0.0425459 -0.108629 0.505621 -0.861045 0.0542947
-0.454354 -0.195365 -0.0655884 -0.499011 0.860237 -0.104788
-0.16972 0.220979 -0.183064 -0.510709 0.859742 0.00443543
0.268229 0.247216 0.120576 -0.530725 0.845012 -0.0654647
-0.102744 0.20518 -0.162142 0.389217 0.14635 -0.909446
-0.458185 -0.140136 -0.114276 0.359147 0.167487 -0.91813
-0.444986 -0.142673 -0.0972066 -0.408511 -0.0772642 0.909477
-0.612638 0.117151 -0.133262 -0.459302 -0.0483284 0.886965
0.0928417 -0.415313 0.0891069 0.411799 0.108569 -0.904784
-0.203268 -0.115228 0.0132385 -0.356748 -0.145037 0.922873
0.160252 0.181654 0.101592 -0.512858 0.856026 -0.064773
0.412668 -0.199791 0.101635 0.513262 -0.854475 0.08022
-0.0913616 0.422364 -0.0469307 -0.449017 0.882781 -0.138134
-0.172648 0.15461 -0.199878 0.3952 0.124271 -0.91015
-0.196351 -0.124472 -0.302893 -0.388345 -0.13892 0.910983
0.210675 0.213179 0.200452 0.468594 -0.869868 0.154107
0.136687 -0.379231 -0.151703 -0.492351 0.861681 -0.122868
0.206965 0.267449 -0.086807 0.406495 0.0982394 -0.908356
0.362484 0.29253 0.045475 -0.496323 0.857955 -0.132573
-0.222831 0.0104467 0.00921611 0.402939 0.118114 -0.907573
0.305694 -0.357371 -0.127893 0.353658 0.143018 -0.924377
-0.361957 -0.153462 -0.0634804 -0.404194 -0.117718 0.907066
0.222543 0.221902 0.224317 0.66357 -0.654057 -0.363158
-0.231392 0.332076 -0.110169 -0.491926 0.863589 -0.110552
-0.141261 0.153636 0.0669971 0.388491 0.133603 -0.911715
-0.0330193 -0.393242 0.049773 -0.375613 -0.139132 0.916273
-0.494579 -0.0448282 -0.211973 0.486046 -0.860605 0.152048
0.188776 0.160457 0.208305 0.406676 0.112003 -0.906681
0.285817 -0.351007 -0.126059 -0.414417 -0.0995043 0.904631
-0.0861418 0.300533 0.119911 -0.387793 -0.125023 0.913228
-0.120087 0.163311 0.0755248 0.390361 0.130399 -0.91138
0.0590949 0.296082 -0.0492333 0.506447 -0.858011 0.0856027
-0.35723 -0.160158 -0.161364 0.492483 -0.863681 0.107314
0.262522 -0.249718 -0.120587 -0.41703 -0.0748786 0.905803
0.170861 0.375057 0.0167323 -0.501799 0.860273 -0.0901554
0.285342 0.260128 0.162061 -0.490634 0.864735 -0.107291
0.128164 0.11447 -0.142494 0.392165 0.127233 -0.911053
0.014461 -0.422485 -0.265291 0.401526 0.090786 -0.911337
-0.296881 -0.020759 -0.0262667 0.446565 0.0748982 -0.891611
0.273411 0.251622 0.219395 0.506984 -0.856579 0.0961229
0.319187 0.210745 -0.044433 0.437386 0.0755567 -0.896094
0.346829 0.301292 0.206686 -0.529674 0.845886 -0.0626277
-0.023167 0.085543 0.119168 -0.497673 -0.0876527 0.862924
-0.083361 0.0246289 0.0653706 0.627354 -0.626198 -0.462928
0.042377 0.124144 0.216844 -0.483074 0.865434 -0.132904
-0.0110426 0.0839189 -0.207623 0.41974 0.0859872 -0.903562
-0.057932 0.210238 0.107863 0.395384 0.12436 -0.910058
-0.206742 0.121652 0.0425893 -0.402412 -0.112085 0.908571
-0.0759389 -0.000308721 -0.0388762 0.393955 0.130569 -0.909808
0.104097 0.369454 -0.0528401 0.372685 0.17259 -0.911767
0.496107 -0.0849433 -0.00903474 0.32465 0.159832 -0.932232
0.47163 -0.22828 -0.0280586 -0.443213 -0.0764076 0.893154
-0.276531 0.238364 -0.179866 0.493471 -0.860705 0.125192
0.519139 -0.146332 0.0433239 0.505731 -0.857549 0.0940521
-0.225296 -0.0633702 0.00026464 0.524219 -0.849191 0.063788
-0.641714 0.117449 -0.152568 0.408724 0.0923717 -0.907972
-0.256128 0.0934729 0.0183662 -0.360419 -0.138214 0.922494
-0.311593 0.331192 -0.187462 -0.511129 0.854844 -0.0893819
0.450669 -0.169542 0.106025 -0.496914 0.858746 -0.12503
-0.488411 0.167321 -0.194741 0.50015 -0.860192 0.0996036
0.27909 0.382819 0.0275355 0.370461 0.156229 -0.915615
-0.0133827 0.156904 0.11982 0.362198 0.213404 -0.907343
-0.26194 0.099167 -0.20145 -0.513128 0.854053 -0.0853958
-0.115428 0.00988412 0.0156547 -0.500318 0.860245 -0.0982877
0.239382 0.41723 0.271709 0.779566 0.480276 0.402009
-0.316282 -0.115211 -0.0722843 -0.485854 0.8635 -0.135325
-0.083995 0.0792263 0.0781625 0.392324 0.132728 -0.9102
0.264817 -0.215227 0.202761 -0.396159 -0.123163 0.909884
0.0280252 -0.345894 0.0702612 0.39483 0.125871 -0.910091
-0.334587 -0.138665 -0.115404 0.466319 -0.874669 0.132289
-0.332782 -0.104842 -0.372137 0.33625 0.18865 -0.922685
0.192683 0.213298 0.115677 -0.394732 -0.129921 0.909564
-0.443207 -0.231146 -0.108351 -0.765876 -0.498925 -0.405597
-0.1964 0.158128 -0.00535276 -0.533124 0.844703 -0.0474801
0.519441 -0.117593 0.208351 -0.500898 0.86005 -0.0970357
-0.30068 0.0227291 -0.266323 -0.396169 -0.122557 0.909961
-0.129709 0.017874 -0.0601304 0.385122 0.159418 -0.908992
0.0660463 -0.423397 -0.0966132 0.477289 -0.870036 0.123418
-0.104419 -0.547221 -0.308712 0.357906 -0.857812 0.368865
0.013848 -0.448352 -0.0501675 0.497534 -0.861375 0.10243
0.0565367 0.314917 0.130212 0.493871 -0.862131 0.113233
0.319698 0.280377 -0.0241581 -0.409 -0.0900077 0.908085
-0.282534 0.295469 -0.155369 -0.492802 0.863198 -0.109711
0.503576 -0.117072 0.281728 -0.504083 0.85817 -0.0971785
0.296626 0.260915 0.187007 0.534314 -0.844638 0.0330853
-0.0647974 0.200068 -0.138306 -0.248964 -0.349542 0.903237
0.174849 -0.364819 -0.130226 0.504317 -0.858512 0.0928499
-0.197031 -0.058171 -0.0951249 0.476231 -0.868651 0.136565
0.0226353 0.508207 0.144274 -0.456542 0.882772 -0.110826
0.179641 0.610589 0.0668082 -0.428048 -0.0909585 0.899167
-0.340651 0.233688 -0.00873125 0.364194 0.148916 -0.919341
-0.254553 -0.104808 -0.279353 -0.458837 0.881144 -0.114255
0.254055 -0.287603 0.125674 0.478396 -0.868279 0.131257
-0.104386 0.00447658 -0.0958087 -0.513449 0.854586 -0.0777948
-0.241338 -0.0359511 -0.00649431 0.404887 0.0882734 -0.910096
-0.364704 -0.165852 -0.260099 -0.507418 0.859773 -0.0575989
0.356986 -0.293834 0.219761 0.425669 0.0825689 -0.901104
-0.043369 -0.511243 -0.282648 0.10885 -0.742194 0.661286
-0.0942557 0.424532 -0.00371144 -0.494855 0.861888 -0.110765
0.33356 0.280734 0.189052 0.0388516 -0.682641 0.729721
0.311133 -0.280785 0.214371 -0.373561 -0.132223 0.918133
0.215448 -0.243861 0.176876 -0.378491 -0.174699 0.908969
-0.384687 -0.170183 -0.12624 0.577302 -0.816217 0.0226308
0.0378462 0.383758 0.17623 -0.515556 0.85647 -0.025712
0.0591933 0.115017 0.0437571 -0.47633 0.871272 -0.118302
-0.0992987 -0.0823064 -0.267904 0.349488 0.188405 -0.917803
-0.425661 -0.00455292 -0.301827 -0.5098 0.856377 -0.0819935
-0.0678105 0.215492 -0.148256 0.39054 0.147023 -0.90877
0.0679228 -0.427523 -0.2424 0.414675 0.102912 -0.904131
0.127286 -0.329249 0.11503 0.36976 0.159424 -0.915348
-0.107702 0.00517386 -0.0577419 -0.472027 0.866655 -0.161554
0.351845 -0.189402 0.233328 0.433243 0.0586345 -0.899368
0.496712 -0.132216 0.178996 -0.450293 0.876628 -0.169585
0.00708199 -0.402898 -0.26586 0.359442 0.143234 -0.922109
0.0432805 0.0478216 -0.174909 -0.391046 -0.129103 0.911271
-0.506681 0.0275995 -0.0990873 -0.399459 -0.0988518 0.911406
0.582415 -0.0816223 0.231727 0.76686 0.506901 0.393672
0.289696 0.232809 -0.0284509 0.443497 -0.873823 0.199359
0.376631 0.2216 -0.00644276 -0.396555 -0.121192 0.909976
-0.462086 -0.182232 -0.121071 0.413935 0.102469 -0.904521
0.225513 0.227896 0.18015 -0.478241 0.866147 -0.145172
0.383449 -0.204814 0.184615 0.508878 -0.855785 0.0931366
0.0436623 -0.347024 0.0761481 0.425613 0.0504776 -0.903496
0.514465 -0.153108 0.0092846 0.0870359 -0.767472 0.635147
-0.0386161 0.0370911 -0.0185688 0.35485 0.157785 -0.921512
0.0708316 0.305489 -0.0134082 0.498396 -0.856779 0.132406
-0.172356 -0.0254562 -0.0182857 -0.512021 0.85588 -0.0728193
0.0817861 -0.514779 -0.241393 0.49938 -0.860338 0.10217
-0.134413 -0.442942 -0.00240192 -0.42741 -0.11938 0.896141
0.247873 -0.396549 -0.160315 0.389033 0.131615 -0.911773
-0.0630804 0.23597 -0.0179752 -0.529662 0.845171 -0.0717227
0.0224317 0.523823 -0.0189295 0.365807 0.146513 -0.919086
0.146376 0.575509 0.135431 0.509285 -0.856989 0.0787314
0.415224 -0.286576 -0.0607526 -0.419264 -0.0982416 0.902533
-0.322005 -0.147137 -0.21741 0.396388 -0.90554 0.151243
-0.0652341 0.0308459 0.00111447 0.48508 -0.861741 0.148661
0.141559 -0.35218 0.0707314 -0.535542 0.839601 -0.0909123
-0.11572 0.203458 -0.169001 0.440627 0.0544949 -0.896035
-0.279615 -0.113293 -0.143878 0.435569 0.0454626 -0.899007
-0.0822754 -0.0326771 -0.254962 0.401728 0.0258494 -0.915394
0.141596 0.178563 0.226978 0.483655 -0.864845 0.134616
-0.334405 -0.0781566 -0.360787 -0.497706 0.861274 -0.102444
-0.110157 0.021964 0.14107 0.532064 -0.842131 0.0878849
0.269082 0.242603 0.145049 0.440122 0.0819021 -0.894195
0.222557 -0.264954 -0.152837 0.384626 0.12709 -0.914282
0.0143616 0.490217 0.0892801 0.503234 -0.858808 0.0959415
-0.0773202 -0.0102227 0.176013 0.491046 -0.864039 0.110953
-0.555812 0.123291 -0.289342 -0.489973 0.864871 -0.109199
-0.0791605 0.426893 0.0083732 0.485318 -0.860368 0.155671
0.190724 0.117513 -0.102007 -0.402231 -0.0893952 0.911164
-0.18488 -0.0449675 -0.299327 0.355832 0.141258 -0.923812
0.110725 0.220358 0.181195 0.443795 0.033158 -0.895514
-0.407787 0.0405301 -0.0558393 -0.404357 -0.11457 0.907397
-0.0547087 0.0557295 0.112051 -0.511269 0.854011 -0.0962786
-0.429009 0.0402523 -0.0656344 -0.44948 -0.1205 0.885126
-0.00980443 0.058953 -0.0854454 -0.504719 0.858547 -0.0903102
0.58351 -0.185685 0.0278832 -0.374229 -0.139506 0.916783
-0.223373 0.139689 0.0355997 -0.39821 -0.109661 0.910716
0.0775227 -0.403694 0.0321691 0.57087 -0.82047 0.0305988
0.196247 -0.354006 0.155105 -0.470338 -0.0441334 0.881382
-0.0660397 0.151944 -0.144516 -0.405431 -0.107309 0.907805
0.0460852 -0.424738 -0.0555474 -0.505498 0.860719 -0.0602914
0.325419 0.289988 -0.0335089 0.410301 0.122381 -0.903701
0.270646 0.254436 0.200321 -0.512031 0.854786 -0.0846465
-0.0968283 -0.0564062 0.0532233 0.391576 0.134204 -0.910306
0.253293 0.242412 -0.0586641 -0.391699 -0.127729 0.911185
0.381443 -0.218211 -0.063135 -0.603961 0.321274 0.729393
-0.320221 -0.185094 -0.376398 0.387779 0.136059 -0.911655
0.219598 -0.329862 -0.0485674 0.521988 -0.851729 0.0456671
-0.133148 -0.0195036 -0.106513 0.495355 -0.858298 0.133968
0.105625 0.556041 0.128685 -0.496393 0.861486 -0.106939
-0.0603824 -0.482643 -0.0620885 -0.491374 0.863914 -0.110468
0.096278 0.287963 -0.0541372 -0.465368 -0.0541124 0.883461
0.0794259 -0.427335 -0.20737 0.502276 -0.859453 0.0951799
-0.42382 -0.176011 -0.0418927 -0.485681 0.857057 -0.171951
-0.275075 -0.0995672 -0.0753601 0.45026 -0.879797 0.152394
0.243556 0.23485 0.349333 -0.425556 -0.09199 0.900245
-0.456543 -0.0257033 -0.242412 0.50792 -0.857891 0.0777149
-0.246348 -0.189072 -0.334068 -0.364902 -0.19039 0.911372
-0.351475 -0.106685 0.0453638 -0.405457 -0.0741599 0.911101
0.577797 -0.0927004 0.183175 0.516819 -0.850848 0.0946333
-0.159564 0.12373 0.066599 -0.390898 -0.13394 0.910636
-0.0910746 0.0634507 -0.0369316 0.397808 0.123264 -0.909151
-0.0881634 0.018978 0.0816411 -0.374298 -0.157813 0.913781
-0.272214 -0.116949 0.0700325 0.399643 0.11486 -0.909447
0.148836 -0.3965 -0.192346 -0.29332 -0.317722 0.901674
0.0556922 0.0815817 -0.153092 0.324327 -0.852171 0.41063
0.00262131 0.316551 -0.106191 0.413645 0.0987575 -0.905066
0.598777 -0.175002 0.0348673 -0.415964 -0.0966566 0.90423
0.12253 0.557193 0.130653 0.474603 -0.870812 0.12821
-0.214599 -0.0623141 -0.126402 -0.51333 0.854638 -0.0780203
-0.145043 0.0384184 -0.0617185 -0.475767 0.867946 -0.142537
-0.370941 0.205313 -0.235475 0.369289 0.14283 -0.918273
0.107185 0.129817 0.0593689 0.399917 0.123528 -0.908189
-0.0808964 0.0236272 0.0111923 0.493633 -0.862117 0.114373
-0.219868 0.127985 -0.0912468 0.519272 -0.853026 0.051981
-0.043965 -0.483178 0.018386 0.600761 -0.333398 -0.726589
0.381264 -0.290421 -0.0854539 0.34343 0.179905 -0.921786
-0.0234497 0.467657 0.0130052 -0.482891 0.865819 -0.13105
0.38895 -0.197005 0.234711 0.577961 -0.809738 -0.101413
0.351389 -0.26992 -0.0962656 0.37275 0.175136 -0.911255
0.0410203 0.220879 -0.100046 0.408118 0.11432 -0.905743
0.306739 0.244641 -0.0457766 0.452674 0.0827213 -0.887831
0.593882 -0.0889206 0.0519466 -0.635247 0.661361 0.398827
0.448011 -0.162506 0.161597 -0.522325 0.84983 -0.0704641
0.244007 -0.214173 0.182121 0.397018 0.1236 -0.90945
-0.379359 -0.14738 -0.0270248 -0.455214 0.876602 -0.156039
-0.177356 0.00849162 -0.276149 -0.414389 -0.116 0.902677
0.222674 0.215353 0.155185 0.487218 -0.865302 0.117779
-0.094372 0.0493573 -0.237085 -0.4162 -0.098019 0.903975
0.0754275 0.0969482 -0.116365 0.533519 -0.844798 0.0409108
-0.358358 -0.16648 -0.0760405 0.383819 0.135609 -0.913397
-0.0309905 0.072347 0.184765 0.460811 -0.875228 0.147066
0.204326 0.400063 0.0655162 -0.517088 0.853777 -0.060714
0.0280838 0.270481 -0.0809498 0.144313 -0.742962 0.653591
-0.341437 0.237429 -3.75676e-05 -0.336496 -0.147552 0.930053
0.466187 -0.148792 0.30021 -0.342556 -0.151205 0.92725
0.230725 0.221001 0.104558 -0.526551 0.846147 -0.0823324
0.0760472 0.109537 0.040863 0.384611 0.157517 -0.90954
0.0128345 -0.438893 -0.0157649 -0.487929 0.86565 -0.112138
-0.0425408 0.00786507 -0.216716 -0.0486445 -0.526942 0.848508
0.0277982 0.0169002 -0.196948 0.421552 0.091267 -0.9022
0.111662 -0.317027 0.108911 0.398125 0.120626 -0.909366
0.207741 0.284082 0.245283 -0.405528 -0.0959407 0.909034
0.372135 0.314462 -0.0110216 0.37903 0.145751 -0.913834
0.0441867 -0.491473 0.0563221 0.381676 0.145732 -0.912735
-0.10296 0.0179827 0.0105311 -0.483301 0.868839 -0.107419
0.129612 -0.355897 0.099928 -0.364464 0.861632 -0.353208
0.135194 0.157529 0.0214192 -0.503658 0.859485 -0.0872625
-0.354304 0.0689584 -0.0424504 -0.0813513 0.711509 -0.697952
-0.0573486 -0.471847 -0.301048 0.398628 0.117881 -0.909505
0.268325 0.249723 0.267554 -0.362647 -0.17526 0.915298
0.365848 0.288495 0.192748 0.771829 0.487503 0.408192
0.0587854 -0.49096 0.07472 -0.365649 -0.140184 0.920135
-0.0782566 0.115181 0.0855094 0.388243 0.13067 -0.912246
-0.0554665 0.0907391 0.190186 0.430328 0.0779015 -0.899305
0.00488815 0.282049 0.091555 0.511074 -0.856943 0.0667281
-0.139613 0.447065 0.106643 0.399861 0.111908 -0.909719
-0.0194999 0.107262 0.11189 0.445356 0.0828535 -0.891512
0.272075 0.271001 -0.0455901 -0.390993 -0.130857 0.911044
0.0109637 -0.397589 -0.263007 0.328769 0.209219 -0.920944
-0.190925 0.324401 0.0699521 0.363876 0.190179 -0.911826
-0.303196 -0.122596 -0.120313 0.492855 -0.860747 0.127313
0.422491 -0.180299 -0.0426387 -0.369527 -0.169975 0.913542
0.541817 -0.15142 0.000368856 0.405175 0.0517042 -0.912776
0.0140457 0.482019 0.011057 0.497516 -0.861025 0.105424
0.197298 0.404312 0.193494 0.490102 -0.861758 0.131051
0.144114 0.312771 0.224541 -0.378773 -0.138368 0.915087
-0.186583 -0.56846 -0.149431 -0.536455 0.840167 -0.0795914
0.181245 0.429004 -0.00910004 0.388908 0.139891 -0.910594
0.252021 0.21066 -0.0124316 0.492672 -0.860954 0.126621
0.431684 -0.124961 0.276507 0.372228 0.156911 -0.914781
-0.0849894 0.226753 0.111263 -0.378736 -0.131806 0.916071
0.111645 -0.292801 0.127043 -0.396727 -0.122543 0.90972
-0.0893245 -0.063076 -0.260915 0.422867 0.0846116 -0.902233
0.0238249 -0.430765 -0.0077598 -0.457676 0.876532 -0.14908
-0.0801077 -0.440114 -0.296649 -0.509488 0.85514 -0.0956898
0.446079 -0.182048 0.0839642 0.499775 -0.860336 0.100231
-0.0174217 0.0567986 -0.0871756 -0.494735 0.862142 -0.109307
-0.248598 -0.105386 -0.336437 0.374207 0.156662 -0.914016
-0.167945 0.00524838 0.0432525 -0.453974 -0.0758415 0.887782
0.237417 0.327881 0.26005 -0.450049 0.881152 -0.145009
-0.201481 0.00394562 0.0284761 -0.399177 -0.0717673 0.914061
0.295174 0.293757 -0.0440701 0.380837 0.134321 -0.914834
-0.0523556 -0.502468 -0.184072 0.505747 -0.860327 0.0636921
-0.557038 0.129763 -0.164533 0.475374 -0.869577 0.133624
0.583467 -0.0870233 0.0423526 -0.5493 0.168518 0.818457
0.04499 -0.410345 0.0537609 -0.352871 0.904318 -0.240189
-0.324516 -0.124425 -0.038506 0.474766 -0.865495 0.159737
-0.0274367 0.0656094 0.0477409 -0.499156 0.860314 -0.103455
-0.299804 -0.116241 -0.0882859 0.523566 -0.84849 0.0770914
-0.24543 -0.0275437 0.0053928 -0.377671 -0.15749 0.912448
0.0795131 0.180128 0.271639 -0.394261 -0.125744 0.910355
-0.416708 0.0126008 -0.17286 -0.523594 0.849237 -0.0681573
-0.380845 0.0322476 -0.307991 0.372807 0.160656 -0.913895
-0.278469 0.107265 -0.0619267 -0.498916 0.860626 -0.102004
0.127817 0.594001 0.0415244 -0.395777 -0.12407 0.909927
0.138152 0.542461 0.0309451 0.400215 0.0910697 -0.911885
0.393712 -0.294517 -0.069334 -0.390736 -0.141878 0.909503
-0.124258 0.238047 0.0850499 0.386184 0.159486 -0.90853
-0.142061 0.379991 -0.0916834 0.514801 -0.854305 0.0717179
0.366906 0.284053 0.0360731 0.519006 -0.852701 0.0594406
0.232817 0.207676 0.246029 -0.430794 -0.0795084 0.898941
0.309574 0.249847 0.160843 0.376099 0.144818 -0.915192
-0.0022393 -0.466016 -0.187873 -0.508008 0.856063 -0.0953165
-0.36404 0.256963 -0.0446622 0.522811 -0.847508 0.0916488
0.0107244 -0.449526 -0.0430519 0.524576 -0.848896 0.0647761
-0.295183 0.086085 -0.137088 -0.506038 0.85924 -0.0750547
0.128139 -0.382897 -0.12832 -0.518969 0.851625 -0.0735236
0.28673 0.253132 0.0944031 -0.450925 0.882242 -0.135339
0.277937 0.238491 0.0136592 -0.482467 0.856713 -0.182394
0.488458 -0.186244 0.303438 -0.408274 -0.115234 0.905557
-0.374675 -0.110069 0.0329838 -0.442389 -0.078875 0.893348
0.261467 -0.264474 -0.133524 0.376407 0.139231 -0.915933
-0.230376 -0.18868 -0.328108 0.516925 -0.853035 0.0715513
0.194613 0.209714 0.15715 -0.463797 0.875795 -0.133701
-0.375434 -0.0104518 -0.0478903 -0.366378 -0.164872 0.915743
-0.218092 0.0960486 0.0220697 0.439505 0.0768856 -0.894943
0.107043 0.100668 0.17729 -0.428584 -0.092806 0.898723
-0.0861379 0.220859 -0.0410158 -0.470779 0.870813 -0.141604
0.193841 0.332111 -0.0168794 0.434012 0.0502467 -0.899505
0.198241 0.204183 0.165412 0.495021 -0.861463 0.11329
-0.154121 0.192736 0.0568941 -0.226231 0.802403 -0.55224
-0.113753 0.00624472 0.0272305 0.541335 -0.838695 0.0595516
-0.026663 0.210265 -0.127506 0.358311 0.174922 -0.917069
-0.144276 -0.0198938 -0.0326976 0.416273 -0.900275 0.127366
-0.0499225 0.248567 0.0247163 -0.502076 0.861042 -0.0807852
0.571867 -0.0972591 0.120586 -0.526541 0.845859 -0.0852983
-0.0654374 0.270121 -0.128022 -0.449872 -0.116212 0.8855
0.0353066 0.10437 -0.182183 0.349425 0.232939 -0.907547
-0.256619 -0.132179 -0.126348 -0.404675 -0.0481837 0.91319
0.229293 0.404359 0.0312524 0.518251 -0.840578 0.157622
-0.127775 -0.0216652 -0.146582 0.485303 -0.865968 0.120749
0.218955 -0.300035 0.130017 -0.494396 0.859889 -0.127132
0.118696 0.563336 0.125987 -0.5177 0.852102 -0.0768682
0.00121882 0.0944014 0.016908 -0.395003 -0.124658 0.910183
-0.101711 0.0263838 0.143632 0.4922 -0.86397 0.106279
-0.477124 -0.207184 -0.0466411 -0.493729 0.859876 -0.129788
