ply
format ascii 1.0
comment Created by Open3D
element vertex 128
property double x
property double y
property double z
property double nx
property double ny
property double nz
end_header
-0.120311 0.0720751 -0.204412 -0.988704 0.0892137 -0.120434
0.0515298 0.136481 -0.211686 0.0949605 -0.248809 -0.963886
0.0252083 -0.11786 -0.148626 0.0949612 -0.248809 -0.963886
-0.00308997 0.102659 -0.00519545 -0.120546 -0.950834 0.285278
-0.081706 -0.0322923 0.158889 -0.141493 -0.290587 0.946329
0.0989167 0.131847 0.102414 0.0241083 0.887749 0.459697
0.0668181 -0.329428 0.0138325 -0.0949606 0.248809 0.963886
0.0419741 -0.0984626 0.142983 -0.148927 -0.675161 0.722481
-0.150303 -0.474486 0.0238845 -0.142264 -0.305762 0.941419
0.00297573 0.45752 -0.212195 0.0329929 0.913388 0.405751
-0.0383244 0.102209 0.137776 -0.0424624 0.60389 0.795936
0.149059 -0.147005 -0.0870987 0.988704 -0.0892137 0.120434
0.129426 0.23536 -0.229535 0.0949606 -0.248809 -0.963886
-0.14814 -0.0666722 0.0591464 0.138796 0.84825 -0.511085
-0.144177 -0.133836 -0.161011 -0.988704 0.0892137 -0.120434
0.00997522 0.0944343 0.0706216 -0.0277886 -0.898731 -0.437619
0.10701 -0.532241 -0.0272705 0.988704 -0.0892137 0.120434
0.0855394 0.0518493 0.175458 -0.0829432 0.343598 0.935447
-0.0312471 -0.0867885 -0.00898404 0.0494295 0.952682 0.299923
0.156535 0.0543238 -0.180134 0.0949606 -0.248809 -0.963886
0.189296 0.158699 -0.203849 0.0949606 -0.248809 -0.963886
0.166047 0.0429079 -0.0858877 0.988704 -0.0892113 0.120439
0.163219 0.332941 -0.147844 -0.0219743 0.241573 0.970134
-0.0541328 -0.0608886 0.0890025 0.148461 0.693205 -0.705285
0.0854866 -0.00728769 0.135456 0.122817 0.0216955 -0.992192
0.0145977 0.421825 -0.285377 0.134624 0.175429 -0.975244
-0.0080112 -0.526678 -0.0373653 -0.115957 -0.964435 0.237527
0.12036 -0.0836966 -0.14807 0.0949606 -0.248809 -0.963886
-0.129874 -0.00989151 -0.186616 -0.988704 0.0892137 -0.120434
0.0226736 0.00706544 0.178193 -0.116054 0.0527791 0.99184
0.13889 -0.272836 -0.0968281 0.988704 -0.0892137 0.120434
0.0756844 -0.099273 0.0150696 0.0632718 0.97688 0.204211
0.00707443 0.027385 -0.187904 0.09496 -0.248809 -0.963886
0.11425 -0.40014 0.00387707 0.943878 -0.032483 0.328692
-0.119728 -0.0813208 0.125454 -0.149583 -0.637819 0.755521
0.178509 0.114232 -0.135355 0.988704 -0.0892137 0.120434
-0.160165 -0.0178801 0.136932 -0.84099 -0.122292 0.527049
-0.0639228 0.368088 -0.282845 0.0949605 -0.248809 -0.963886
-0.051875 0.0693999 -0.0642337 -0.149868 -0.578868 0.801531
-0.0290285 -0.463797 0.039075 -0.0949605 0.248809 0.963886
0.106508 0.0835988 -0.013496 -0.138796 -0.84825 0.511085
-0.0502203 -0.315212 -0.100906 0.241264 -0.626498 -0.741142
-0.0738358 0.104702 0.0546194 -0.0350956 -0.919015 -0.392658
-0.136736 -0.371094 -0.0992126 0.0949605 -0.248809 -0.963886
-0.00518301 -0.237217 -0.12081 0.0949594 -0.248809 -0.963886
0.128192 0.0549537 0.119733 0.0388656 -0.62345 -0.780897
0.20258 0.383513 -0.260571 0.0949606 -0.248809 -0.963886
0.0396996 -0.317405 -0.0956893 0.0949584 -0.248809 -0.963886
0.157705 -0.0435374 -0.0814336 0.988704 -0.0892137 0.120434
-0.0835652 -0.31826 -0.00386565 -0.094962 0.248808 0.963886
-0.0186674 -0.260624 -0.0123497 -0.0949605 0.248809 0.963886
0.20658 0.318807 -0.214266 0.988704 -0.0892136 0.120435
0.121668 -0.359998 -0.0766192 0.0949606 -0.248809 -0.963886
0.153348 0.10952 0.0603719 0.980719 0.129643 0.146226
0.0224166 -0.371868 -0.0451266 -0.985658 -0.0255391 -0.16681
-0.0175217 0.371699 -0.175459 -0.0949604 0.248809 0.963886
0.125645 0.400362 -0.168753 -0.0949605 0.248809 0.963886
-0.0227882 0.260238 -0.147206 -0.0949609 0.24881 0.963886
-0.184631 -0.425214 -0.0447477 -0.988704 0.0892137 -0.120434
0.0746658 0.024568 -0.0642503 -0.137403 -0.218577 0.966098
-0.0682562 0.160899 -0.0090861 0.108537 0.980331 -0.164834
0.0855989 0.448556 -0.198944 0.0257797 0.892799 0.449717
0.0630954 -0.230513 -0.00500184 -0.13033 -0.114959 0.984783
0.0641877 0.363903 -0.170402 -0.333063 -0.920401 0.204771
-0.134085 0.054039 -0.104694 -0.988704 0.0892138 -0.120434
0.00750172 -0.164931 0.0188043 -0.147699 -0.716505 0.681767
0.121495 -0.271816 -0.0132541 0.751954 0.0566893 0.656774
0.166939 0.441326 -0.231603 0.115957 0.964435 -0.237528
-0.00904976 0.322488 -0.265668 0.094958 -0.248811 -0.963886
-0.0452808 0.095463 -0.210636 0.0949605 -0.248809 -0.963886
-0.118493 0.160192 -0.154062 -0.988705 0.0892173 -0.120429
-0.132141 -0.0784613 -0.0188068 0.0494295 0.952682 0.299923
-0.0734905 -0.0621019 -0.172742 0.0949566 -0.248808 -0.963887
0.136231 0.25745 -0.13082 -0.0949606 0.248809 0.963886
0.11869 -0.0699628 0.156803 0.722749 -0.345687 0.598443
0.00537932 -0.441395 -0.0620252 -0.133825 0.206812 -0.969185
-0.043562 0.0232653 0.118782 0.108642 -0.126958 -0.98594
0.0879792 -0.0602124 -0.0462246 -0.0460325 0.583957 0.810479
-0.0852666 -0.212726 -0.135022 0.0949605 -0.248809 -0.963886
-0.107054 -0.133678 0.0389153 -0.126709 -0.926726 0.353728
0.0977595 -0.17157 -0.127614 0.0949603 -0.248809 -0.963886
-0.0627353 -0.139225 -0.151775 0.0949605 -0.248809 -0.963886
0.0885691 0.173944 -0.10125 -0.0254687 0.691855 0.721587
0.0334987 0.15357 0.0287602 0.0859041 0.995776 0.0324085
-0.0881902 -0.509343 -0.00612529 -0.115957 -0.964435 0.237526
-0.154563 -0.504389 -0.0665613 0.0949605 -0.248809 -0.963886
0.143099 0.140124 -0.0538363 0.354839 0.872124 0.336881
0.00774949 -0.0888854 0.0611812 0.124836 0.934869 -0.332319
-0.0355872 0.187186 -0.118206 -0.0326855 0.655863 0.754172
0.0832597 0.070598 -0.191553 0.0949591 -0.248809 -0.963886
0.132181 0.332037 -0.254219 0.094963 -0.248813 -0.963885
0.188061 0.208161 -0.148146 0.957918 -0.0453674 0.283435
-0.0793275 -0.469094 -0.0682599 0.0949605 -0.248809 -0.963886
0.199601 0.250584 -0.207509 0.988704 -0.0892137 0.120434
-0.0796264 -0.384373 -0.0675336 0.924123 0.0235127 -0.381371
0.203533 0.394634 -0.179867 0.813445 0.0450177 0.579898
0.034184 0.239694 -0.240037 0.0949595 -0.248809 -0.963886
0.0438445 0.145803 -0.0411335 0.080317 0.993805 0.0768151
0.0944312 -0.145625 0.0827336 0.0480614 -0.944515 0.324932
-0.00936688 0.00521739 -0.0774025 -0.118383 0.0279643 0.992574
-0.0847137 0.401293 -0.211117 -0.907065 0.200261 0.370309
-0.147173 -0.376989 0.00499509 -0.119203 0.250924 0.960639
-0.0135936 -0.0602808 0.158508 -0.14728 -0.42933 0.891058
-0.134906 0.11088 -0.0558458 -0.988705 0.0892136 -0.120434
-0.145205 0.0689105 0.093615 0.0600059 -0.500715 -0.86353
0.0856397 0.272511 -0.187436 -0.682856 0.688268 -0.244937
-0.104517 0.237188 -0.170878 -0.907065 0.200261 0.370308
-0.0861704 0.324341 -0.179784 -0.717701 0.246672 0.651197
0.167864 -0.0188163 -0.14652 0.988704 -0.0892137 0.120434
-0.0767068 -0.392546 0.0159856 -0.0949598 0.248808 0.963886
-0.0874077 -0.0246158 -0.0788394 -0.073382 0.412502 0.907996
0.0661104 -0.481706 0.0519375 -0.118059 0.0314587 0.992508
-0.0673948 -0.188638 -0.0123796 -0.146202 -0.397203 0.90601
-0.0697438 0.442214 -0.277272 -0.716634 0.654975 -0.239671
0.0341085 0.0420021 0.120914 0.0733817 -0.412504 -0.907995
-0.106882 0.0572301 0.156127 -0.0890622 0.296575 0.950848
-0.146478 -0.0683386 -0.0936057 -0.988704 0.0892137 -0.120434
0.145581 -0.10697 -0.0288895 0.988704 -0.0892139 0.120437
0.0870528 -0.444066 -0.058329 0.0949603 -0.248809 -0.963886
0.136626 -0.173897 -0.00842944 0.962914 -0.158072 0.218655
-0.124476 -0.246306 -0.0263607 -0.0977774 0.225068 0.969425
-0.119312 0.140875 0.0920309 -0.207529 0.837556 0.505403
-0.0330445 0.184456 -0.232402 0.0949605 -0.248809 -0.963886
-0.166524 -0.293726 -0.0960006 -0.988704 0.0892137 -0.120434
0.101207 0.412917 -0.274998 0.131228 0.127092 -0.983172
-0.056831 0.25833 -0.253814 0.0949605 -0.248809 -0.963886
0.0520618 -0.0380426 -0.166584 0.0949607 -0.248809 -0.963886
-0.157888 -0.173056 -0.0775066 -0.988704 0.0892136 -0.120437
