ply
format ascii 1.0
comment Created by Open3D
element vertex 128
property double x
property double y
property double z
property double nx
property double ny
property double nz
end_header
-0.0976646 -0.181427 0.093885 0.506641 -0.762856 -0.401704
-0.133641 0.467284 -0.126246 -0.0262787 -0.267206 -0.963281
0.203026 0.354165 -0.300732 -0.2058 0.957041 -0.204253
-0.488234 0.411012 0.133902 0.0953621 0.895164 -0.435417
0.5166 -0.200495 -0.148378 0.864257 0.0577349 -0.499726
0.173103 -0.450007 0.103779 0.247208 -0.949472 0.19337
0.131111 -0.272694 0.107287 0.859722 0.282745 0.425364
0.329426 -0.424458 -0.021796 0.40395 -0.914252 -0.0310974
0.560568 -0.367275 -0.0951866 0.7129 -0.0431636 0.699936
0.129176 -0.414617 -0.00695375 -0.826315 0.291772 -0.48174
0.0315586 -0.302812 0.174243 0.603803 -0.386324 0.697263
-0.387082 -0.0255286 0.233274 -0.736433 -0.442231 -0.511955
0.306271 0.0258351 -0.23915 -0.36472 -0.599593 -0.712368
-0.211371 -0.340897 0.177947 -0.882822 -0.344793 -0.318971
0.193827 0.515387 -0.205643 0.438497 -0.725359 -0.530635
0.378869 -0.0774539 -0.204901 0.061392 -0.956421 0.285465
-0.164916 -0.0446101 0.0667589 -0.223446 -0.358806 -0.906273
-0.0936783 0.136529 -0.0206175 0.0319262 0.857948 -0.512743
0.048106 0.494362 -0.239515 -0.612468 -0.162792 -0.773551
-0.042448 0.272044 -0.124576 0.154827 -0.955202 0.252225
0.281041 -0.253777 -0.124986 0.134806 0.904386 -0.404862
-0.0630437 0.173 0.0821105 0.3975 0.248896 0.883201
-0.133905 -0.473529 0.152816 -0.465921 -0.197452 -0.862514
0.496384 -0.400113 -0.23156 -0.77881 0.00477823 -0.627242
-0.0338416 -0.509443 0.120784 -0.281689 -0.191067 -0.94029
-0.303651 0.334038 0.00800342 -0.651263 -0.091047 -0.75337
-0.394721 0.241412 0.231497 -0.256135 -0.684337 0.682699
0.437857 0.124577 -0.200517 0.500966 0.577498 -0.644616
0.0416534 -0.048262 -0.100773 -0.581093 -0.289177 -0.760728
0.263809 -0.36267 0.053057 0.555559 0.344806 0.756613
0.155988 0.504056 -0.326168 -0.450851 -0.27572 -0.848948
-0.049451 0.0188498 -0.0388652 -0.660048 -0.528655 -0.533724
-0.508536 0.229239 0.14259 -0.806248 -0.0930404 -0.584215
0.328086 -0.143105 -0.0341302 0.481836 0.240764 0.842536
0.181073 0.11898 -0.209404 -0.498414 -0.264348 -0.825654
-0.267365 0.0755791 0.22208 0.518579 0.605607 0.603586
0.287442 0.260248 -0.155978 -0.527199 -0.0129296 -0.849643
0.0432015 0.087707 0.0358436 0.675614 0.337477 0.65548
-0.303316 0.456982 0.0662555 -0.709195 0.540451 0.452721
-0.13781 -0.0316036 0.172543 0.447642 0.260743 0.855353
-0.0284239 0.0844674 -0.105396 -0.68397 -0.106572 -0.721683
0.0510558 0.288955 -0.0191901 0.262032 0.696969 0.667513
0.146082 -0.295786 -0.0722726 -0.557691 0.0355396 -0.829288
-0.100533 -0.51249 0.279802 0.0857585 -0.916208 0.391417
0.272328 0.517161 -0.28915 0.324415 -0.94403 0.0596875
-0.234117 0.105896 0.120056 -0.292559 0.949196 -0.115917
-0.373949 0.0254531 0.292539 -0.845495 0.323416 0.424901
-0.00983584 0.0148882 0.106858 0.123346 -0.735557 0.66614
-0.26199 0.233968 0.0319842 -0.00146318 -0.915683 0.401898
0.219816 -0.0347324 -0.179292 -0.234719 -0.272442 -0.933104
-0.00230049 0.400693 -0.0301581 0.681224 0.160206 0.71433
-0.355154 0.0600442 0.189656 -0.273015 0.942107 -0.194672
-0.136778 0.0751245 0.146787 0.740141 0.574998 0.348668
-0.25786 -0.343348 0.354925 0.154124 0.283685 0.94645
-0.0201135 -0.392628 0.236328 0.373562 0.435396 0.819074
0.0999004 -0.000511746 0.0280805 0.33237 0.218113 0.917582
-0.0939619 -0.305262 0.147768 0.211306 0.632644 -0.745058
0.144623 -0.122747 -0.138781 -0.206075 -0.369126 -0.906244
0.329364 0.336101 -0.312913 0.460888 -0.883071 0.0881337
-0.328095 -0.435588 0.29988 -0.818228 -0.190458 0.542428
-0.18742 0.11917 0.0339256 -0.179108 0.790881 -0.585173
0.388462 -0.259992 -0.146809 -0.0536449 -0.806239 0.589153
-0.211709 -0.451211 0.372537 0.299025 -0.0993013 0.949065
0.0467821 -0.144119 -0.066282 -0.102913 -0.72231 -0.683869
-0.128482 0.368855 -0.115313 -0.269894 -0.831908 -0.484857
0.0967289 -0.483243 0.0859639 0.224159 -0.949734 0.218536
0.0256305 -0.41744 0.0496586 -0.59352 -0.31998 -0.738476
-0.272863 -0.0384107 0.268299 0.268989 0.620224 0.736863
0.267709 0.394507 -0.19312 -0.202615 0.952076 -0.229127
-0.26649 -0.525303 0.292856 -0.257524 -0.682391 0.684123
0.0438261 -0.463666 0.219427 0.421582 0.393743 0.816844
0.472556 -0.239541 -0.251334 -0.446223 -0.250023 -0.859286
0.474931 -0.0139975 -0.180458 0.876564 -0.00147161 -0.481283
0.111825 0.218992 -0.0990061 -0.108033 -0.456958 -0.882903
0.22665 -0.264435 0.0727348 0.74965 0.351944 0.5605
-0.190364 -0.536547 0.212597 -0.299513 -0.192012 -0.934571
0.14725 -0.167918 0.0675041 0.409663 -0.0789384 0.908815
0.0345003 0.152836 -0.14293 -0.505659 0.836091 0.212747
0.230828 -0.424328 -0.058966 -0.28301 -0.671253 -0.685073
0.13652 0.348041 -0.0969286 0.581671 0.72063 0.377294
-0.0743637 0.493998 -0.0188987 0.555594 0.252359 0.792231
0.187333 0.332849 -0.196831 0.920934 -0.371722 -0.11706
0.0908174 0.529819 -0.121138 -0.0635013 0.823817 -0.563287
0.415105 0.0443937 -0.285842 -0.0517699 -0.307748 -0.950058
-0.179316 0.426292 0.0602823 0.46546 0.332296 0.820321
0.0288236 -0.204406 0.141139 -0.936003 -0.105196 -0.335905
-0.177873 -0.148965 0.243602 0.218005 0.176192 0.959911
0.0453433 0.307803 -0.193763 -0.657856 0.2449 -0.712214
0.107245 -0.374632 0.151822 0.0755428 -0.0094013 0.997098
0.298493 0.0118066 -0.0776086 0.71164 0.325302 0.622694
-0.211617 -0.13389 0.154519 -0.571339 -0.24532 -0.783192
-0.472581 0.218691 0.152876 -0.798108 -0.35894 -0.483927
-0.244134 -0.417765 0.230525 -0.783671 -0.149016 -0.603037
-0.253778 0.294407 0.152238 -0.0410278 0.233626 0.97146
0.363691 0.0961738 -0.131309 0.423421 0.224313 0.877723
0.0615957 -0.0987771 0.0915577 0.393926 -0.325551 0.859558
0.301178 -0.362523 -0.121535 -0.49826 0.0998204 -0.861262
-0.442539 0.336906 0.101738 -0.610569 -0.0263018 -0.791526
-0.0141138 0.49186 -0.101555 -0.0135922 0.912308 -0.409279
0.390042 0.240731 -0.204936 -0.145623 0.949292 -0.278636
-0.358655 -0.0955597 0.326955 0.498595 0.254113 0.828752
-0.46196 0.364732 0.24155 0.0970671 0.216154 0.971522
-0.0105971 -0.103772 -0.0203076 -0.481197 -0.443486 -0.756155
0.173531 -0.0658618 0.0173565 0.185534 0.278121 0.942457
0.0383683 0.0463968 -0.126058 -0.571058 -0.248103 -0.78252
-0.0440806 0.450772 -0.189489 -0.756703 -0.445261 -0.478689
-0.250655 -0.0232604 0.149636 -0.881564 -0.078808 -0.46544
-0.25772 0.423432 -0.0433568 -0.40571 -0.421603 -0.810956
0.385035 -0.422783 -0.137177 -0.517761 0.0895607 -0.850824
-0.000322085 0.149649 -0.0305613 -0.680552 -0.446938 -0.580599
-0.387453 0.379189 0.186777 0.234803 0.445059 0.86417
-0.12671 0.286169 0.0602035 -0.0521638 -0.440088 -0.896438
-0.306231 -0.183962 0.230894 -0.795742 -0.259686 -0.547136
0.0130853 -0.290297 0.0596803 0.132295 0.808054 -0.574062
0.370714 -0.00268281 -0.127521 -0.0982002 0.383416 0.91834
-0.109587 -0.389965 0.290845 0.446761 0.284242 0.848299
0.118143 0.420312 -0.240286 0.733763 0.511688 -0.446954
0.168001 0.0771738 -0.0370155 0.434253 0.338363 0.834827
-0.202062 0.309653 -0.0541699 -0.514297 -0.309804 -0.7997
0.469072 -0.393139 -0.040046 -0.555789 -0.451812 0.697828
-0.330049 0.234814 0.0976914 0.160536 -0.970275 0.181094
0.253205 -0.119541 -0.122407 0.373713 -0.927484 0.0105837
-0.0704593 -0.376998 0.0969449 -0.460474 -0.247948 -0.852341
0.365313 0.135929 -0.300152 -0.696127 -0.518803 -0.496237
0.357739 -0.259619 -0.00549 0.473809 0.236958 0.848149
0.215651 -0.153614 -0.0355009 -0.41201 -0.226256 -0.882642
0.265819 0.173142 -0.25476 -0.414447 -0.228409 -0.880944
0.436799 -0.208044 -0.0943725 0.580869 0.136336 0.802498
