ply
format ascii 1.0
comment Created by Open3D
element vertex 512
property double x
property double y
property double z
property double nx
property double ny
property double nz
end_header
-0.0846539 -0.0251649 0.469764 -0.862596 0.203387 0.463207
0.494393 -0.158704 -0.217347 0.84619 -0.156384 0.509417
0.335125 0.0791714 -0.254255 0.00659547 0.304646 -0.952443
0.0106468 0.301508 0.0700039 -0.560322 0.816991 -0.136256
-0.128601 -0.222083 0.186728 0.872228 0.48825 -0.0288201
-0.31424 0.053569 -0.0838828 -0.813117 0.159833 -0.559727
0.422845 -0.206716 -0.244082 0.238193 -0.356206 -0.903539
0.0921264 -0.0135971 0.138215 -0.294183 -0.939613 0.174884
-0.0413189 0.179646 0.372187 0.760181 -0.53467 -0.369125
0.0316426 0.331947 0.247413 -0.606336 0.781068 0.149295
0.202587 -0.352096 -0.154887 -0.327853 -0.521742 -0.78759
0.157148 0.378289 0.330974 -0.343424 0.924828 0.163562
-0.272719 0.0131993 -0.076156 0.589581 0.242714 -0.770379
0.134136 -0.0306422 -0.044733 0.850367 -0.122713 -0.511681
-0.132146 0.141142 0.219679 -0.872317 0.451514 0.187611
-0.146723 -0.0795368 -0.210456 0.244294 -0.780155 -0.575915
-0.0799615 -0.258872 -0.0325697 -0.782106 -0.502685 -0.368264
-0.16605 -0.0737538 0.19386 0.994166 0.0259262 -0.104703
-0.114111 -0.238606 0.328974 -0.870119 -0.398544 0.289925
0.156453 0.273982 -0.0932696 0.121648 -0.695259 0.70839
0.360252 0.0143835 -0.266983 0.0864799 0.176979 -0.980408
0.317373 0.370771 0.0412869 0.0259489 -0.918082 0.39554
0.0418017 -0.131959 0.0234668 0.132012 -0.989761 -0.0542781
0.0552839 0.0238101 -0.109031 0.462221 0.313229 -0.829602
0.115651 0.172709 0.0152162 -0.498882 0.36231 0.787305
0.420567 0.243642 -0.130777 -0.282823 -0.615944 0.735272
0.326701 0.397078 0.199837 0.821702 -0.155847 0.548195
0.283092 0.184607 -0.192908 -0.0078602 -0.539486 0.841958
0.416887 0.305819 -0.0988894 0.0263976 0.772479 -0.634492
-0.135887 -0.00335753 0.117279 0.806991 -0.17159 0.565087
-0.109957 0.170228 -0.0333711 0.0501245 0.976434 0.209914
-0.107299 0.167958 0.279114 -0.849082 0.434784 0.300039
-0.146515 -0.0717991 -0.221232 0.279382 -0.716197 -0.639537
-0.158646 0.0732663 -0.203756 -0.57941 -0.295873 0.759436
0.121437 0.375844 0.201542 -0.504127 0.86176 0.0568002
0.00650314 -0.421331 0.154473 -0.660563 -0.740643 -0.122901
0.153073 -0.152009 -0.245356 -0.144528 -0.248341 -0.95783
0.0232943 0.0310283 0.516264 -0.264484 -0.00295069 -0.964386
0.109242 -0.224891 -0.206725 -0.31706 -0.465552 -0.826278
-0.157085 -0.201441 0.108761 -0.878797 -0.474575 -0.0499494
0.44922 -0.280086 -0.194709 0.405564 -0.557481 -0.724384
0.152313 0.271625 0.00468216 -0.487265 0.339887 0.804394
-0.104087 0.0619341 0.361024 0.887327 -0.265894 -0.376764
0.0216292 -0.137701 -0.203365 -0.435796 -0.234852 -0.868865
-0.203804 -0.011588 -0.27958 -0.90155 0.15727 -0.403079
0.235839 0.307142 0.0210216 0.817613 -0.156244 0.554163
0.201122 0.10759 -0.244021 -0.168305 0.38003 -0.909533
0.402421 0.362302 0.0672964 -0.420978 -0.868274 0.262446
0.0674103 0.0802004 0.106807 0.340255 0.650076 0.679432
0.414455 0.0917104 -0.240205 0.146572 0.347942 -0.925988
-0.0243521 0.16528 -0.116199 -0.351352 0.618473 -0.702882
-0.0517056 0.262767 0.201643 -0.701306 0.710723 0.0551727
0.0599642 0.109776 -0.203102 -0.364136 0.376691 -0.851768
-0.131793 0.118045 -0.0898355 -0.19443 -0.980526 -0.0276888
0.037959 -0.0700645 0.0328293 -0.166354 0.945783 -0.278965
0.186357 -0.104548 -0.266202 -0.271413 -0.0535127 -0.960974
0.501738 0.242976 -0.109426 0.899472 -0.200389 0.388322
-0.00688493 -0.327092 0.409028 -0.0271706 0.558985 -0.828732
0.52077 0.10616 -0.179984 0.856741 -0.121717 0.501178
-0.0314719 -0.106724 -0.181136 -0.603325 -0.174955 -0.778068
-0.0705551 0.22567 0.288096 -0.750026 0.597982 0.282627
-0.164638 0.114308 0.0839791 -0.849962 0.506368 -0.145451
-0.228096 0.190917 -0.178865 -0.771837 0.147394 -0.618501
0.163322 -0.0368563 0.0201584 0.340131 0.919055 -0.199119
-0.146704 -0.132611 0.0981799 0.84122 -0.150038 0.519459
0.286539 -0.0478277 -0.25653 -0.0489393 0.109475 0.992784
0.0973414 -0.485838 0.140718 -0.442047 -0.873189 -0.205268
0.434621 0.285655 -0.04759 0.837969 -0.15277 0.523898
0.101774 0.347928 0.251759 0.473328 -0.876697 -0.0858036
0.29578 0.413029 0.113572 -0.0155317 0.968418 -0.248847
0.355017 0.0188769 -0.250617 -0.0710717 -0.171609 0.982598
0.211576 0.251374 0.0448895 -0.473487 0.370888 0.798907
-0.219958 -0.0849024 -0.23234 0.171265 -0.854745 -0.489979
0.294683 -0.214933 -0.249025 -0.103819 -0.296348 -0.949421
-0.106901 0.0670204 0.113648 0.355017 0.894591 -0.271422
0.201497 0.174529 -0.210635 -0.224791 0.615691 -0.755244
-0.137957 0.0127604 -0.26552 0.506557 -0.263608 -0.820921
-0.0742171 -0.0527056 -0.208365 0.357042 -0.466325 -0.809359
-0.166868 -0.0114018 0.177794 0.964442 0.0651407 -0.256141
-0.0331069 -0.157119 -0.160214 -0.56333 -0.367246 -0.740128
0.237213 -0.0922567 -0.138005 0.207261 0.969163 -0.133293
-0.0344035 -0.221786 -0.0962957 0.563218 0.617928 0.54859
-0.0876236 -0.323305 0.14911 -0.786271 -0.601134 -0.142884
-0.0150475 0.199376 -0.00576874 0.815678 -0.160961 0.555663
-0.328921 -0.0441519 -0.0956414 -0.824312 0.16173 -0.542544
-0.0319156 -0.363978 0.150957 0.72196 0.684515 0.101057
-0.0975081 0.163691 -0.178845 0.547217 0.282252 -0.787964
-0.115203 -0.175902 0.378066 -0.906679 -0.206471 0.367836
-0.0816157 0.195194 0.211252 0.805018 -0.588481 -0.0750744
0.368242 0.350339 -0.0118214 -0.048287 -0.882973 0.466934
-0.027475 0.0530187 -0.19721 0.552526 0.241888 -0.797625
0.415259 -0.211018 -0.243087 0.241652 -0.420461 -0.874538
0.173474 -0.504844 0.172109 0.826648 -0.160331 0.539396
-0.0306919 0.257758 0.197201 0.708994 -0.662964 -0.240428
0.0922155 0.351862 0.0784096 -0.361222 0.893754 -0.265936
0.372162 0.414987 0.100404 -0.224218 0.71153 0.665922
0.217184 -0.11565 -0.210411 -0.478876 -0.857202 0.189424
-0.331575 -0.158273 -0.0871527 -0.328758 -0.927252 0.179228
0.230786 -0.406634 -0.117719 -0.238276 -0.660113 -0.712373
0.044572 0.305393 0.0140851 -0.539898 0.786624 -0.299555
0.475227 0.108486 -0.221319 0.378058 0.308561 -0.872847
-0.154077 -0.132235 -0.0111088 -0.900532 -0.320428 -0.293883
0.0308037 -0.0219244 -0.150302 0.818292 -0.144888 0.556242
0.117299 0.0204805 -0.0789439 0.576969 0.303796 -0.758165
0.178757 0.0654739 -0.229322 0.0910577 -0.265895 0.959692
0.334051 -0.30458 -0.212115 -0.00772181 -0.53034 -0.84775
-0.317596 0.128979 -0.0605485 -0.835795 0.136536 -0.531793
0.33848 0.374002 0.132301 0.868218 -0.112137 0.483345
0.0066385 -0.07629 -0.123635 0.782447 -0.162263 0.601205
0.009604 0.268946 -0.0237779 -0.426813 0.796186 -0.428858
0.0677514 -0.22683 0.116035 0.457709 -0.263004 -0.849312
-0.187314 -0.0545075 -0.147664 -0.0250187 0.948157 0.316815
0.100666 -0.463308 0.217553 -0.37953 0.809929 -0.447182
-0.0121195 -0.0291425 -0.207145 -0.529321 0.0624397 -0.846121
-0.122036 -0.185616 0.294022 0.942408 0.195358 -0.271481
0.104054 0.243875 -0.0167806 -0.436118 0.131798 0.890186
0.428717 0.0178223 -0.238503 -0.221167 -0.149746 0.963671
-0.199685 -0.0524941 0.0255945 -0.439118 -0.554302 0.707054
0.216286 0.00974664 -0.249728 0.0952362 -0.156611 0.983058
0.109921 -0.0548956 -0.143253 0.245525 0.959177 -0.140348
-0.190316 0.0548942 -0.281585 -0.831146 0.156124 -0.533686
0.00757156 -0.202397 -0.1433 0.56672 0.326066 0.756643
0.334299 -0.170595 -0.261293 0.191359 -0.313705 -0.930038
-0.117655 -0.00221632 0.365264 0.901482 -0.197898 -0.384924
-0.224533 -0.180402 -0.0120803 -0.315387 -0.931778 0.179779
-0.0310109 -0.232219 0.0743074 -0.494609 0.321708 0.807382
0.170104 -0.375724 -0.0969528 0.334741 0.707384 0.622541
-0.106731 -0.11745 0.0401445 0.825613 -0.160122 0.541039
-0.181342 0.0529924 0.107186 -0.942581 0.323359 -0.0835477
0.068034 0.029959 -0.190824 0.786465 -0.211667 0.580232
0.352996 0.248903 -0.161794 -0.07254 0.727668 -0.682083
-0.200274 -0.0497896 -0.151912 -0.0152734 0.964073 0.2652
-0.140512 -0.202171 0.0279218 -0.885395 -0.371377 -0.279561
-0.034801 -0.366829 0.0718524 -0.729415 -0.644151 -0.230271
-0.111588 -0.282612 0.215581 -0.86471 -0.495195 0.0840152
-0.0142664 -0.0629179 -0.00235273 0.17581 0.983829 0.0342248
0.127551 0.0214183 0.091991 0.797424 0.207661 0.566562
-0.149727 0.086954 -0.0257774 -0.430639 -0.347998 -0.832735
-0.0850273 0.181153 -0.0329288 -0.576606 0.65426 -0.489355
-0.0713683 -0.158842 0.446446 0.871292 0.182018 -0.455762
0.0582832 0.167473 -0.0171355 -0.525928 0.333028 0.782619
0.0635788 -0.109342 -0.0494508 0.33612 -0.838275 -0.429323
-0.158007 -0.0794951 -0.0526759 0.467008 -0.170023 -0.867753
-0.194382 0.0281319 -0.019449 0.535196 0.102885 -0.838439
0.0369936 -0.437341 0.100275 -0.535251 -0.831862 -0.146671
0.155664 0.38064 0.324336 -0.399284 0.87769 0.265013
0.425968 0.0182589 -0.238799 -0.204115 -0.154562 0.966668
-0.144819 -0.0828487 0.340974 -0.947708 -0.0243844 0.318206
0.159815 0.34947 0.403213 -0.191834 0.828648 0.525873
0.126769 -0.334552 -0.141544 -0.366738 -0.60619 -0.705717
0.176868 -0.228083 -0.207773 0.201554 0.43839 0.875894
0.110661 0.369822 0.264165 -0.445779 0.890513 0.090929
0.163033 -0.0391415 -0.264076 -0.241086 0.015947 -0.970373
-0.18313 -0.115664 -0.13867 -0.0687803 -0.98106 -0.181082
0.360448 -0.24948 -0.231963 0.055402 -0.356656 -0.932592
-0.0531641 -0.263349 -0.0232176 0.690745 0.589892 0.418208
-0.060785 -0.299561 0.0355567 0.725513 0.624966 0.288181
-0.0429031 0.132005 0.419548 0.785187 -0.466946 -0.406747
0.497729 0.179828 -0.13374 0.804297 -0.171875 0.568829
-0.125345 0.114989 -0.238466 0.580818 0.487755 -0.651725
-0.0888494 0.229163 0.125829 -0.776954 0.627197 0.0544678
-0.162164 -0.191294 0.120042 -0.863682 -0.503464 -0.0240463
-0.138452 0.141889 0.207919 -0.890158 0.424446 0.165724
0.067798 0.0399041 0.0367223 -0.601454 -0.741905 -0.296363
0.0581395 -0.415904 0.32959 0.533837 0.74365 -0.402496
0.0745783 -0.0237513 0.0558979 -0.702964 0.297312 -0.646101
0.215239 -0.502692 0.0319178 -0.372079 -0.865815 -0.334546
0.282725 0.353285 -0.0360552 -0.0066732 0.855274 -0.518134
0.0125418 0.150169 -0.0725759 0.830279 -0.151623 0.536327
0.112459 -0.466545 0.113362 0.397552 0.868841 0.295071
0.0175853 -0.139796 -0.202264 -0.328922 -0.169642 -0.928995
-0.0407033 0.27584 0.121928 -0.662129 0.748829 -0.0289816
-0.170973 0.164124 -0.148886 0.48772 -0.32903 -0.808621
0.0950508 0.315131 0.377823 0.461372 -0.867407 -0.18639
0.0974166 -0.388243 -0.066263 -0.378617 -0.784347 -0.491374
-0.146086 -0.0887158 0.340533 -0.947748 -0.0432578 0.316072
-0.314152 -0.108933 -0.128844 0.487963 -0.184114 -0.853226
0.271402 0.276487 -0.137638 0.0940458 0.693871 -0.713932
0.144709 0.125159 -0.204084 0.278124 -0.463534 0.841298
0.0322125 0.0183931 -0.0521365 -0.598781 -0.185597 0.779112
0.000919226 -0.393255 0.359253 -0.765444 -0.560448 0.316218
0.409676 -0.347281 -0.143969 0.759363 -0.237863 0.60563
-0.18862 -0.0888976 0.13389 -0.99441 -0.037721 -0.0986212
0.424641 0.243553 -0.131812 -0.259406 -0.620741 0.739857
0.0354347 -0.356692 -0.0579651 -0.510487 -0.625374 -0.590178
0.193762 0.184507 0.0358942 0.402825 -0.216837 -0.889221
0.0592897 0.275128 0.443671 -0.578183 0.691207 0.433518
0.0136945 0.28463 0.0771107 0.602085 -0.788048 0.128353
-0.129631 -0.239085 0.257593 -0.912161 -0.328753 0.244713
0.0183959 0.249407 0.37436 0.653659 -0.678675 -0.334858
0.00401949 0.0583763 0.300758 0.880024 -0.143482 0.452737
-0.0489617 0.20707 0.312715 0.74045 -0.606068 -0.290544
0.00820176 -0.186189 0.0826237 -0.493925 0.333033 0.803198
0.0645223 -0.0681434 -0.193946 -0.268746 -0.954142 0.131868
0.201956 -0.317547 -0.159637 0.183881 0.518812 0.834879
0.351123 0.294297 -0.0870574 -0.0565444 -0.75381 0.654655
0.16974 0.289125 -0.106906 -0.135783 0.743333 -0.654995
0.0404445 -0.0369338 0.138129 0.0934415 -0.265202 0.959654
0.376851 -0.329372 -0.133782 -0.772143 0.626609 0.105629
-0.0315768 -0.357757 0.287548 0.732867 0.661751 -0.158088
0.266646 0.301467 -0.0784577 0.14068 -0.792853 0.592953
0.165973 -0.425432 -0.034865 0.307561 0.767083 0.563018
0.11436 0.175256 -0.161023 0.210163 -0.517292 0.829603
0.0844218 0.0955035 -0.191741 0.802086 -0.170583 0.572328
0.0439916 -0.361151 0.374017 -0.241108 0.668779 -0.70328
0.320008 0.395669 0.211326 0.819221 -0.142246 0.555557
-0.0450088 -0.304711 0.361203 0.817547 0.491071 -0.300775
0.115812 -0.0991452 0.00741448 0.708349 -0.70259 -0.0678866
-0.0816187 0.0231819 0.417774 0.753462 -0.152007 -0.639678
-0.09814 -0.0429618 0.410532 0.889416 -0.0311715 -0.456035
-0.215355 0.12447 -0.0997188 0.0692335 -0.9197 -0.38647
0.0910788 0.216229 0.463756 0.854185 -0.146671 0.498854
-0.0169484 0.1313 0.000863472 0.0334424 0.98701 0.157138
-0.142397 -0.12071 0.277654 0.811686 0.238387 -0.533232
-0.166814 0.141477 0.00923577 -0.257841 0.776286 0.575238
-0.0797569 0.0254061 0.427309 0.849124 -0.123207 -0.513623
0.399206 0.38387 0.036952 0.388106 0.886514 -0.251928
0.0937485 -0.402791 -0.0115603 0.491329 0.838817 0.234483
0.106057 -0.0740833 0.0965663 -0.483232 0.283874 0.828192
-0.254709 -0.116322 -0.16944 0.232642 -0.800293 -0.552638
0.349517 -0.416299 -0.073973 0.844395 -0.147624 0.51498
0.443078 -0.105066 -0.256995 0.21635 -0.0604987 -0.97444
0.126873 0.0281001 -0.247467 -0.29796 0.17285 -0.938799
-0.0123878 0.106466 0.0627501 -0.245583 0.876899 0.413204
-0.192657 -0.00722016 0.0786242 -0.998847 0.0474097 -0.00756761
-0.0578225 -0.233247 -0.088465 -0.673913 -0.490912 -0.552129
0.081656 -0.149696 0.109414 -0.449405 0.242304 0.859839
0.150183 0.0318273 0.0166532 0.940369 0.338878 0.0294723
-0.0847998 0.180585 -0.167995 0.500896 -0.322267 -0.803273
-0.113955 -0.0492586 -0.105778 -0.551344 0.798096 -0.243027
0.105357 -0.0850915 -0.245341 -0.389813 -0.0221614 -0.920628
0.34783 0.196793 -0.198023 0.010202 0.588135 -0.808698
0.498629 0.0378524 -0.247084 -0.804242 0.194353 -0.561623
0.00673095 -0.0542584 0.558025 0.787027 -0.208108 0.580757
0.253393 0.393589 0.0692593 -0.205161 0.948059 -0.243093
0.13737 -0.0317155 -0.0433954 0.921554 -0.266654 -0.282194
-0.0517904 -0.0128997 -0.102007 -0.509537 0.502028 0.698814
0.321175 -0.367998 -0.162602 -0.0602157 -0.995179 -0.077419
0.497756 0.245237 -0.10525 0.824339 -0.154522 0.5446
-0.02763 0.279985 0.267053 -0.683008 0.697033 0.218278
-0.106706 -0.288209 0.215185 -0.848092 -0.526454 0.0598883
-0.0228038 0.139522 0.488458 -0.719834 0.511027 0.469777
-0.0170604 0.15445 0.478888 -0.642142 0.596576 0.481405
-0.0843409 0.0686734 -0.00774791 0.211394 -0.805698 -0.55332
0.371896 0.138811 -0.224103 0.096855 0.415276 -0.904525
-0.0334747 -0.124554 -0.0316467 -0.0878693 -0.979493 -0.181306
0.000377375 -0.283875 0.486534 -0.530644 -0.51941 0.669798
-0.0571148 -0.179258 0.0394505 -0.480712 0.307768 0.821094
-0.0433141 -0.00225069 0.0500353 0.541405 0.106164 -0.834032
0.0770435 0.325776 0.0808347 0.436486 -0.866638 0.241698
0.494321 -0.0152857 -0.213405 -0.557185 0.0166355 0.830222
0.202287 -0.48757 0.111888 0.0181124 0.994425 0.103882
0.344179 -0.40484 -0.0877417 -0.19906 0.81561 0.543282
0.218371 -0.281666 -0.213075 -0.131483 -0.504504 -0.85334
0.0709399 -0.316324 -0.099503 0.456305 0.635387 0.622952
0.0702158 -0.0292978 -0.0211829 -0.717264 0.450078 0.531941
0.133198 0.325756 -0.0270901 -0.297429 0.837502 -0.458396
-0.267517 0.0912025 -0.0850432 0.374448 -0.334159 -0.864943
-0.068958 -0.0836003 0.457799 0.947976 -0.0778333 -0.30868
-0.2294 -0.10263 -0.0351318 -0.57199 -0.261243 0.777547
0.147447 0.386134 0.11988 -0.405724 0.912676 -0.0490987
0.193984 -0.487336 0.0992496 0.109741 0.985442 0.129849
-0.0063928 -0.304373 0.101308 0.487811 -0.43088 -0.759199
0.449453 0.346105 -0.00836953 0.435762 0.825415 -0.358889
0.283329 0.0225671 -0.271939 0.0021019 0.152896 -0.98824
0.0966474 -0.0430374 -0.127547 0.353386 0.88071 -0.315387
0.150839 0.108148 0.0591342 -0.498908 0.420682 0.757706
0.482999 -0.0798402 -0.215536 -0.520235 0.0400902 0.853081
0.283295 0.262348 -0.121354 0.128058 -0.774451 0.619538
0.455195 0.339679 -0.0154624 0.766033 -0.190501 0.613924
0.176881 0.35108 0.412298 -0.202435 0.806514 0.555477
0.035905 0.0320899 0.136796 0.0172196 0.314793 0.949004
-0.0621522 -0.0699855 0.0859664 -0.396618 -0.644942 0.653257
0.094551 -0.16354 -0.228047 -0.312313 -0.316552 -0.895687
-0.230487 -0.102597 -0.105506 -0.533431 0.361311 0.764791
0.295628 -0.120017 -0.198902 0.247545 0.956935 -0.151648
0.0724868 0.0884955 0.0932584 0.4017 0.599946 0.691883
-0.00540528 -0.131148 0.513327 0.884144 0.00499929 0.467187
-0.123088 0.071742 0.290104 0.915333 -0.282795 -0.286691
-0.0353016 -0.264866 0.431752 0.749248 0.470249 -0.466362
-0.157795 0.225854 -0.133077 0.838493 0.52518 0.145311
-0.0795443 -0.156145 -0.120534 -0.485938 -0.391764 -0.781271
-0.240208 0.186715 -0.162437 -0.782327 0.130032 -0.609144
-0.173247 -0.147838 0.180384 -0.961157 -0.267392 0.0684059
0.0854774 -0.473009 0.292812 -0.344171 -0.893817 0.287467
-0.0493224 -0.084492 0.519443 -0.784217 -0.0564988 0.617909
0.200504 -0.468347 -0.0187568 -0.283319 -0.821481 -0.494874
-0.256156 -0.0412281 -0.115281 0.334752 0.892857 -0.301241
0.139323 -0.290685 -0.183699 -0.163118 -0.532165 -0.830778
-0.00172928 -0.0396591 0.066267 0.288762 0.596698 -0.748711
0.0554366 0.275054 -0.058117 -0.379848 0.760072 -0.527263
-0.144123 -0.191348 0.03281 -0.875211 -0.334139 -0.349795
0.0869641 -0.079381 -0.0713339 0.404434 -0.463679 -0.788311
-0.0347691 0.087027 0.372503 0.287458 0.945152 -0.1551
0.0857807 0.231435 -0.133666 -0.291401 0.641969 -0.709197
-0.0789826 0.0271316 -0.158045 -0.98268 0.177184 0.054284
-0.0142101 0.281681 0.281778 -0.697947 0.656568 0.285987
-0.204868 0.0869728 -0.0487 0.373834 -0.607226 -0.701088
0.0813305 0.343383 0.153629 0.425698 -0.900741 0.0862938
-0.0795789 -0.293625 0.0994079 0.757808 0.635761 0.146747
-0.132782 -0.212044 0.195129 0.915025 0.395799 -0.0779221
-0.156742 -0.14227 -0.0936552 0.508198 -0.367192 -0.779041
0.0357771 0.16719 -0.158206 -0.32302 0.495234 -0.806474
-0.0911361 -0.294621 0.296483 -0.872171 -0.445752 0.201549
0.0770631 0.0823911 -0.0695965 0.327661 0.740986 -0.586155
0.15773 -0.0936271 -0.201894 -0.301176 -0.937423 0.174728
-0.105897 -0.260774 0.0284117 -0.787775 -0.518447 -0.332601
0.245195 -0.403904 -0.123379 -0.136067 -0.712772 -0.688071
-0.0878492 -0.236592 0.403487 -0.864303 -0.353223 0.35807
0.370092 0.415265 0.0986553 -0.312921 0.748824 0.584246
0.139091 -0.0084977 0.0740401 0.469641 -0.262778 -0.842844
0.02316 -0.414792 0.162416 0.717855 0.693751 0.0582531
-0.063055 -0.3099 0.0322491 -0.718789 -0.636004 -0.280787
-0.125016 -0.265269 0.134811 -0.857162 -0.511147 -0.0632686
-0.0701294 0.0266309 -0.22899 0.544142 -0.0737115 -0.835749
0.0446881 -0.456565 0.21197 -0.609562 -0.792666 -0.0106919
0.0830484 -0.433234 0.274332 -0.264598 0.767093 -0.584428
0.122362 -0.519599 0.246689 0.804549 -0.176288 0.567118
-0.0324839 -0.35098 0.309443 0.664488 0.735523 -0.132142
-0.104963 -0.100012 -0.164915 0.167953 -0.849305 -0.500472
0.382629 -0.13432 -0.245029 -0.0716809 0.119926 0.990192
-0.0889354 0.0974149 0.410206 -0.813094 0.424213 0.39865
0.338239 0.0880099 -0.249734 0.0705947 0.32099 -0.944448
-0.144667 0.244423 -0.131369 0.0394786 -0.949962 0.309862
-0.0792151 0.230278 -0.0782107 -0.436022 0.216442 0.873521
0.218324 0.228153 -0.145022 0.0446665 -0.617385 0.785392
-0.197865 0.134676 -0.251634 -0.772381 0.195171 -0.60443
0.0396291 0.288594 0.319776 0.590777 -0.707546 -0.387765
0.014585 -0.391695 0.0256778 -0.544254 -0.757715 -0.360078
0.284503 -0.0464711 -0.271027 0.0311827 -0.00677549 -0.999491
-0.0185014 0.0574793 0.223887 0.32633 0.927216 -0.183793
-0.0448827 0.0368561 0.162285 -0.275867 -0.954171 0.115996
0.00404476 -0.304296 -0.056626 0.586263 0.582115 0.563416
-0.100931 -0.0457702 -0.0440055 0.293911 0.949366 -0.110995
0.261313 0.42053 0.195588 -0.220557 0.975169 0.0200201
0.228414 0.385447 0.127515 0.220953 -0.959911 0.172481
-0.118819 0.0825071 0.176638 0.325082 0.929947 -0.171816
-0.0466158 -0.0717753 0.101988 -0.53217 -0.544276 0.648505
0.017684 0.315681 0.148184 -0.604649 0.796003 -0.0279032
-0.149709 0.126578 0.149629 -0.871027 0.491231 -0.00222062
-0.252647 0.176044 -0.0747896 -0.0383317 0.911388 0.409759
0.386026 -0.320064 -0.197979 0.0915278 -0.543032 -0.834709
0.230917 0.148232 -0.202114 0.00560832 -0.411319 0.911474
-0.198095 0.0542443 -0.266914 -0.714217 0.155 -0.682546
0.0227708 0.21227 0.477369 -0.646271 0.418121 0.638364
0.0114181 0.0636192 -0.00947595 -0.286643 -0.951552 0.111289
-0.263995 -0.149502 -0.0555233 0.211079 0.970225 -0.118779
-0.0665617 0.0863066 0.295701 0.320714 0.926608 -0.196315
-0.012473 -0.297355 0.0879006 0.478597 -0.293 -0.827705
-0.0980301 0.0079723 0.0142057 0.571912 -0.0456788 -0.819042
0.0206416 -0.259771 0.480894 0.506454 0.49502 -0.706017
-0.196023 -0.0680312 0.0205911 -0.474376 -0.621056 0.623905
0.0136066 0.0303817 0.0740191 0.178288 -0.511983 -0.84029
-0.0760219 -0.178999 -0.0297773 0.878099 -0.107907 0.466153
0.195676 0.406332 0.182009 -0.259255 0.963829 -0.0618061
0.120713 0.294005 0.484612 0.825992 -0.15981 0.540554
0.0168562 0.218047 0.458553 -0.653402 0.579186 0.487451
0.0246502 -0.394952 0.0212866 -0.411248 -0.841064 -0.351406
0.456442 -0.259792 -0.190792 0.792546 0.00523223 0.60979
0.274237 -0.276535 -0.218454 -0.0749486 -0.485217 -0.871176
0.0360133 -0.332711 0.13939 0.927645 -0.114473 0.355488
-0.0814888 0.164497 -0.0980918 0.479976 -0.357869 -0.80097
0.22224 -0.00603891 -0.270074 -0.068935 0.0786692 -0.994515
0.132028 -0.470536 0.0349076 -0.411107 -0.826838 -0.383836
-0.0471155 0.0635765 0.103017 -0.490257 0.400911 0.773898
-0.0898172 0.0778124 0.233041 0.311483 0.929957 -0.195343
0.273172 0.411886 0.280609 0.101378 0.983959 0.146789
0.00117044 0.248959 0.390022 -0.662789 0.672501 0.329322
-0.0417788 0.254727 0.0408802 -0.61988 0.740614 -0.259307
-0.159213 -0.126416 0.284477 -0.966667 -0.115371 0.228572
-0.100595 -0.113916 0.0295924 0.818401 -0.152534 0.554033
-0.00771102 -0.332539 -0.00565615 0.644569 0.649314 0.403637
0.00578057 -0.42169 0.295483 -0.781292 -0.600749 0.16936
-0.0189149 -0.143223 -0.103813 0.846955 -0.167714 0.504519
0.320677 -0.468946 -0.0391372 0.812377 -0.155997 0.56188
0.26678 -0.135815 -0.266909 -0.0972807 -0.143779 -0.984817
-0.132242 0.0105124 -0.18499 -0.484959 0.23589 0.842123
-0.0214466 -0.159432 0.566793 -0.55997 -0.456445 0.691442
0.171054 0.182286 0.0414209 -0.528026 0.318402 0.78728
0.290928 -0.214776 -0.230626 0.00767789 0.420523 0.907249
0.380281 -0.0576618 -0.271612 0.118876 -0.0082067 -0.992875
-0.130232 0.113843 -0.0960257 -0.0799884 -0.976877 -0.198277
-0.248758 -0.0349237 -0.210356 -0.11315 0.901893 0.416877
-0.202332 0.123651 -0.186751 -0.421309 -0.824141 0.378538
-0.191426 0.248583 -0.221559 -0.82115 0.15452 -0.549396
-0.0858536 0.215448 0.0611125 -0.748592 0.654394 -0.106669
-0.133735 0.0124133 0.307972 0.946806 -0.252644 -0.199323
-0.0569737 -0.183767 0.0445396 -0.483563 0.339627 0.806734
0.369127 0.32783 -0.0343427 -0.110158 -0.787508 0.60638
0.0331417 -0.365771 0.432875 0.736249 -0.269213 0.620855
0.223522 0.383662 0.348517 -0.0555639 0.93134 0.359887
0.129842 -0.468619 0.023943 -0.346598 -0.849627 -0.397497
0.040746 0.0931226 -0.131313 0.849153 -0.149139 0.506653
0.327418 -0.10299 -0.270515 -0.111288 -0.0530855 -0.992369
0.162704 -0.491563 0.190351 0.894219 -0.191622 0.40454
-0.165326 -0.0433123 0.286182 -0.963073 0.0203456 0.268471
0.0901831 0.3449 0.154027 0.472325 -0.879027 0.0649613
0.00388631 0.230314 -0.0702251 -0.525235 0.710482 -0.468341
-0.148506 -0.0217452 -0.0307976 -0.338412 0.49781 -0.798538
0.200841 -0.0804459 -0.0551912 -0.23026 -0.966049 0.117173
0.0101068 -0.0751578 -0.10757 0.284987 -0.725085 -0.626925
0.475328 -0.187039 -0.198867 0.852905 -0.12237 0.507521
-0.123743 0.111235 -0.237629 0.592378 0.360991 -0.720259
-0.0556345 -0.367631 0.21876 -0.696717 -0.716236 0.0398845
0.00916902 -0.259418 -0.105162 0.585631 0.606876 0.537343
0.0925496 0.102822 -0.00976365 0.324657 0.938247 -0.119545
-0.158122 -0.175985 0.245095 -0.969046 -0.239625 0.0594091
0.0697943 -0.262497 -0.148148 0.408666 0.514931 0.75355
-0.0124721 -0.413099 0.223783 -0.660156 -0.749655 0.047027
0.278273 0.105567 -0.22646 0.0422821 -0.36129 0.931494
-0.0488208 -0.0282656 -0.0873946 -0.379767 0.700592 0.60411
-0.201347 0.264846 -0.161335 -0.483719 0.30728 0.819509
0.0386436 -0.434339 0.080978 -0.591988 -0.74646 -0.303886
0.0153961 0.315831 0.233376 -0.530046 0.843554 -0.0864179
-0.293539 0.031607 -0.00948353 -0.5727 0.136455 0.808329
0.155827 0.239154 -0.146965 -0.196986 0.652452 -0.731781
-0.185062 0.0094504 -0.218405 -0.412945 0.328443 0.849471
-0.0502056 -0.294697 0.362415 0.817628 0.49484 -0.294308
-0.116282 0.236923 -0.212394 0.516714 -0.333649 -0.78847
0.173142 0.115004 0.0610834 0.814214 -0.158265 0.558577
-0.289598 -0.174333 -0.15606 0.520527 -0.372394 -0.768358
-0.0260596 0.19082 0.382267 0.727338 -0.571268 -0.380306
-0.018552 -0.161084 0.56425 0.890991 -0.0985746 0.443192
0.103676 0.304648 0.478357 -0.471811 0.394059 0.788741
0.321557 -0.364594 -0.140911 0.0198833 0.713657 0.700213
0.393714 -0.413486 -0.137181 0.746521 -0.187327 0.638447
-0.0734939 -0.188997 -0.0389419 0.865444 -0.101635 0.490588
-0.136309 -0.0618774 0.0956171 0.902468 -0.0468604 0.428201
-0.0534739 0.0574949 -0.0964353 -0.470367 -0.682107 0.559897
0.125877 0.0297118 -0.249611 -0.234882 0.181397 -0.954948
0.178411 -0.0663911 -0.115219 0.26078 0.95312 -0.153478
0.236152 0.365902 0.287526 0.90338 -0.152058 0.400977
0.225435 0.372049 0.0168137 -0.294595 0.881941 -0.367958
-0.0921084 0.081174 -0.14292 -0.553698 -0.532565 0.640151
-0.0423236 0.0859153 0.358904 0.338819 0.920869 -0.192877
-0.00384695 0.120478 -0.170935 -0.463603 0.464068 -0.754793
-0.300375 0.0335516 -0.0128173 -0.563125 -0.0639618 0.823893
-0.223613 -0.169857 -0.113559 -0.535228 0.730004 -0.425
-0.259344 0.184631 -0.0926184 -0.0800073 0.926581 0.367487
-0.211748 -0.0298687 -0.0527869 0.506933 0.656055 -0.559116
-0.0518405 -0.215107 0.47575 -0.808591 -0.227555 0.542586
0.0574592 0.28416 0.419497 -0.578774 0.71672 0.389015
0.0927125 0.330324 0.381384 -0.540762 0.751095 0.378726
-0.0963163 0.20741 0.213277 -0.792471 0.60351 0.088127
0.2562 -0.0934006 -0.124077 0.327365 0.919818 -0.216259
0.160462 -0.378238 -0.093996 0.382716 0.704441 0.597739
-0.192423 0.0790501 0.0501514 -0.508762 0.445955 0.736401
0.054619 0.0312657 0.199283 0.292166 0.940175 -0.175245
0.0839235 0.201435 0.520691 0.872728 -0.103115 0.477193
0.0580675 -0.259967 -0.166179 -0.432227 -0.535489 -0.725556
0.229178 -0.182161 -0.251752 -0.141741 -0.293828 -0.945291
0.0576956 0.196085 -0.0258387 -0.498176 0.470491 0.728326
0.461613 0.207556 -0.167145 0.308462 0.525763 -0.792732
0.00287788 -0.198607 0.516948 0.803883 -0.155307 0.574153
0.22625 0.230802 -0.173885 0.0717843 0.610304 -0.788908
0.220877 0.379824 0.363864 0.922692 -0.162032 0.349836
-0.266712 -0.0357934 -0.186641 -0.874596 0.194329 -0.444204
-0.045066 0.238781 -0.127288 0.379364 0.902364 -0.204504
0.191195 0.402142 0.252368 -0.332622 0.939035 0.0870363
0.255295 -0.43849 -0.0622199 0.116305 0.735502 0.667465
0.0145581 -0.106847 0.0958885 -0.0531955 -0.78115 0.622074
0.414784 0.161329 -0.188404 -0.205811 -0.443568 0.872289
-0.124395 0.0392897 -0.26417 0.567472 -0.0270894 -0.822947
0.483281 0.0537279 -0.181885 0.80562 -0.165112 0.568959
-0.253173 -0.0367464 -0.00326106 -0.592693 -0.352186 0.724348
0.153076 0.358416 0.0248327 -0.275916 0.887871 -0.368178
-0.258843 0.125662 -0.0143102 -0.354595 0.54705 0.758287
0.00310579 0.0939804 0.542777 -0.501233 0.39573 0.769522
0.285681 0.0371469 -0.249234 -0.0876732 -0.0737422 0.993416
0.0357703 -0.344483 0.141997 0.835875 -0.16383 0.523902
-0.282665 -0.0612381 -0.0484981 -0.477424 -0.671045 0.567243
-0.116179 -0.253484 0.0585962 -0.745257 -0.658044 -0.107562
-0.0372985 0.0777185 0.465538 0.789762 -0.377609 -0.483411
-0.103883 0.136309 0.343988 -0.869961 0.337229 0.359785
-0.167808 0.062844 0.225453 -0.954022 0.239152 0.180689
-0.0533857 -0.00326262 0.120835 -0.616595 0.0856855 0.782603
-0.104147 -0.119196 0.384842 0.924578 0.0709799 -0.374323
0.0676194 0.342268 0.310083 -0.554788 0.79089 0.258271
-0.225247 0.027231 0.035929 -0.553523 0.126364 0.823192
0.048146 0.120116 0.0377095 0.143805 0.958026 0.248006
-0.165587 0.187761 -0.213745 0.481975 -0.239754 -0.842745
-0.341808 -0.159291 -0.104674 -0.890639 0.18868 -0.413718
0.252068 -0.45757 -0.0701862 -0.151888 -0.843399 -0.515372
0.211817 0.328698 -0.0601319 -0.162614 0.839296 -0.518785
-0.0206614 0.0554928 -0.0689789 -0.447697 -0.699938 0.556466
-0.130661 0.16978 0.0984806 -0.776332 0.618922 -0.119353
-0.039873 -0.0195025 0.531745 -0.777009 0.226367 0.58738
0.063061 -0.0194443 -0.235506 -0.282414 -0.008251 -0.959257
0.073265 -0.154679 0.112335 -0.488617 0.311967 0.814819
-0.0829424 -0.321577 0.270426 -0.792527 -0.573411 0.207606
0.274632 -0.323582 -0.173003 0.0983171 0.574854 0.812328
-0.05375 0.0327883 0.498484 -0.808077 0.276299 0.52026
-0.183955 -0.199584 -0.05955 -0.307758 -0.930293 0.199599
0.0354178 0.0455872 -0.215009 -0.402497 0.203889 -0.892427
-0.0675303 0.160294 0.0602043 0.773512 -0.311492 0.551952
0.260865 -0.45917 0.0100697 0.886921 -0.0739409 0.455965
0.0529582 0.0195426 0.221954 0.834317 -0.143682 0.532232
0.0200965 0.0623786 0.00502838 -0.205137 -0.974128 0.0948316
0.22897 -0.185899 -0.23148 0.144275 0.279879 0.949132
-0.114633 0.170381 0.0365079 -0.790619 0.597352 -0.134505
0.216626 0.319457 -0.0443405 0.0536025 -0.785872 0.616062
0.0435764 0.150723 0.536158 -0.413827 0.472616 0.778063
-0.168175 0.0512839 0.222248 -0.949126 0.209787 0.234839
-0.0369339 -0.113959 0.041341 -0.51646 -0.815687 0.260623
0.293225 0.345202 -0.0201284 0.122063 -0.927441 0.353487
-0.0740312 0.112184 -0.200899 0.513741 0.519777 -0.68257
-0.0851509 0.0861725 0.061488 0.862521 -0.171008 0.47625
0.128286 0.267362 0.429122 -0.357243 -0.412491 -0.837991
-0.188882 0.186761 -0.0879061 -0.0226053 0.910088 0.413797
0.145627 0.364692 0.136753 0.34978 -0.925464 0.145503
0.0237305 0.0293081 0.521579 -0.237815 0.0200992 -0.971103
-0.169477 -0.0454827 0.278246 -0.977859 0.129529 0.164358
