ply
format ascii 1.0
comment Created by Open3D
element vertex 512
property double x
property double y
property double z
property double nx
property double ny
property double nz
end_header
0.193455 -0.0682503 0.210017 0.0411748 0.799754 -0.598915
-0.0494259 0.217114 -0.120524 -0.343837 0.860432 -0.376075
-0.270749 0.29397 -0.328317 -0.629632 0.481808 -0.609446
0.0164742 0.0537845 0.0926735 -0.173762 0.671092 -0.720723
-0.122612 -0.000688079 -0.0991174 -0.901171 -0.426049 -0.0798362
0.0903551 -0.288501 0.323983 -0.185067 -0.509672 0.840229
-0.186988 0.204051 -0.269828 0.015982 0.303479 -0.952704
-0.232795 0.0586123 -0.490265 -0.344469 0.499679 -0.794771
0.256083 -0.157093 0.31944 0.878284 0.469331 -0.0913539
-0.338447 0.301706 -0.221661 -0.913202 0.246667 0.324374
-0.165819 0.0215627 -0.493336 0.125654 -0.966105 0.225503
-0.029735 0.350292 -0.251456 0.774356 0.150071 0.614697
-0.264585 0.169525 -0.410569 -0.166281 0.455534 -0.874551
0.227693 -0.245347 0.286666 0.696074 -0.62899 0.346197
0.0308376 -0.0634001 0.228681 0.101482 0.284975 0.953148
0.0414437 0.0720192 -0.151746 0.643203 -0.498842 0.580902
0.154204 -0.164544 0.154513 0.0516713 0.20096 -0.978236
-0.135532 0.0412391 -0.392945 0.137555 -0.93094 0.338275
-0.0853778 0.0609641 -0.460176 0.6309 -0.774681 -0.0428441
0.261454 -0.260862 0.321908 0.873339 -0.437763 -0.213641
-0.00693743 0.216565 -0.278652 0.86548 -0.123283 0.485536
-0.0503479 0.0890304 -0.475391 0.734536 -0.673919 -0.0793029
-0.162139 0.0248766 -0.432347 0.194769 -0.972995 0.123875
0.0607881 -0.239942 0.1557 -0.419283 0.138837 -0.897177
-0.215009 0.0777393 -0.213935 -0.106367 -0.699748 0.706427
-0.101943 -0.0677782 -0.0692214 -0.717162 0.179172 -0.673481
0.106972 -0.0557339 0.246829 -0.0373571 0.904339 0.425176
-0.161936 0.125462 -0.145018 -0.827997 -0.174811 0.532788
-0.153014 -0.0139481 -0.106916 -0.815267 -0.545698 -0.193787
0.15122 -0.0162497 0.122072 0.412341 0.903058 0.120256
-0.050708 -0.0609439 -0.0408425 -0.383125 -0.739342 0.553704
-0.0962809 0.0183416 0.0680283 -0.30542 -0.0889875 0.948051
0.0238764 0.429418 -0.348444 0.646164 0.763148 -0.00881714
-0.204732 0.229136 -0.275259 0.545135 -0.713642 -0.439936
0.0330701 0.262232 -0.374703 0.915172 -0.154257 0.372378
-0.00527003 -0.0101096 0.147119 -0.436292 0.567841 0.698001
-0.269128 0.063887 -0.346399 0.200065 -0.947128 0.250843
-0.140302 0.0428548 -0.470228 0.3316 -0.939362 0.0874128
-0.0689676 -0.00178804 -0.17954 -0.0488637 -0.180524 -0.982356
-0.0901755 -0.103584 0.0418655 -0.744542 0.053846 -0.6654
0.129375 -0.161434 0.425187 0.433668 -0.407899 0.803461
-0.071317 -0.0248686 0.0454845 0.509461 -0.512636 0.691125
-0.11095 0.451138 -0.293596 -0.48757 0.488986 -0.723304
0.0366342 -0.198584 0.368053 0.122273 -0.404258 0.906435
-0.0486415 -0.0354128 -0.13278 -0.508664 0.0403998 -0.860017
0.0655615 -0.225804 0.181714 -0.268526 -0.0816141 -0.959809
-0.0760164 -0.0710299 0.101279 -0.800692 -0.46744 0.374689
-0.0629954 -0.114382 0.0930498 -0.298241 0.0220552 -0.954236
0.153306 -0.261325 0.406711 0.447573 -0.552221 0.703371
0.0397206 -0.0781468 -0.072647 -0.621735 0.155118 -0.767714
-0.0602805 -0.0462712 0.126335 -0.544076 0.352431 -0.761429
0.138706 -0.0453994 0.0360618 0.948179 -0.0470728 -0.31423
0.0978725 -0.259176 0.181794 0.413289 -0.858658 0.303147
-0.0907004 -0.00608684 0.0964445 -0.900985 0.339012 0.270733
0.0594815 0.377077 -0.411008 0.925513 0.0827935 -0.369555
-0.110207 0.00373829 -0.201245 -0.407389 0.140669 -0.902356
0.147917 -0.29202 0.249944 -0.364054 0.226903 -0.903316
-0.157798 0.0640147 -0.531877 -0.482031 0.548811 -0.682973
-0.0999138 0.400224 -0.346867 0.319857 0.426054 -0.846268
-0.1477 0.301003 -0.328878 -0.455915 -0.786758 -0.416116
0.111221 -0.099916 -0.0158953 0.579252 -0.724114 0.374335
0.051142 -0.111383 -0.0181338 0.663686 -0.747325 0.0320262
-0.0916381 0.060393 -0.299026 0.474661 -0.630018 -0.614633
0.119306 -0.305688 0.258398 -0.315613 -0.0278666 -0.948479
0.183419 -0.173616 0.446019 0.527944 -0.503082 0.68424
0.0701221 0.051475 0.159763 -0.504678 0.861291 -0.0589709
-0.32524 0.0603471 -0.442503 -0.292296 0.350224 -0.889891
-0.0192375 0.0125086 -0.186334 0.350762 -0.715747 -0.603881
0.138207 -0.3314 0.355069 -0.336451 -0.866871 -0.367879
-0.0326041 -0.150408 0.104054 -0.574006 0.720158 -0.38973
-0.195566 0.416486 -0.280596 -0.607176 0.487808 -0.627201
-0.142049 0.018245 -0.227916 0.317321 -0.907993 0.273597
0.268908 -0.211836 0.383162 0.673523 -0.123401 0.728793
-0.243096 0.408113 -0.267589 -0.418687 0.553934 -0.719623
-0.333506 0.227287 -0.234078 -0.699585 -0.0398659 0.713436
-0.190978 0.293446 -0.196571 0.0190998 -0.214953 0.976438
0.0569879 0.243384 -0.448053 0.828445 -0.458664 0.321413
-0.026252 0.244264 -0.468165 -0.298296 0.48619 -0.821364
-0.0474648 -0.0853731 0.00211346 -0.710883 -0.695154 -0.106804
0.135241 -0.21079 0.156575 -0.328539 -0.523042 0.786441
-0.0476809 0.0676928 -0.317116 0.577913 -0.222664 -0.785135
0.0553057 -0.159792 0.0954635 -0.207769 -0.956872 -0.203049
-0.37227 0.186817 -0.340879 -0.244164 0.134897 -0.960306
-0.148573 0.166764 -0.447526 0.259365 0.327179 -0.908672
0.126615 0.012248 0.122101 0.820663 0.466977 0.32931
0.0860083 -0.243082 0.44455 -0.0935235 -0.680969 0.726315
-0.150615 0.261242 -0.255498 -0.364313 0.507666 -0.780738
-0.115312 0.0491566 -0.526868 0.302359 -0.902518 0.30666
0.0021694 -0.0967649 -0.019332 0.103806 -0.788131 -0.606691
0.233145 -0.131411 0.299158 0.285487 0.891427 -0.351929
0.0890422 0.0218539 -0.0778211 0.0863969 0.473819 -0.876374
-0.0270941 0.107678 -0.456589 0.858208 -0.510413 -0.0543945
0.0408321 0.0886711 -0.0860529 0.930852 0.365387 -0.00278267
0.0644999 0.129468 -0.0944852 0.643278 0.760807 -0.0858279
-0.334955 0.0725176 -0.375929 -0.497927 -0.755377 0.425998
0.0449641 0.11625 -0.0243515 0.664065 -0.0824545 0.743114
-0.209479 0.0640895 -0.303118 0.0305758 -0.948258 0.316024
-0.121575 0.108222 -0.0181551 -0.44692 0.819404 0.358942
-0.0873328 0.172881 -0.357944 -0.632829 0.267824 0.726497
-0.39268 0.192554 -0.331661 -0.0691752 0.373515 -0.925041
-0.29452 0.33474 -0.281176 -0.408222 0.513407 -0.75483
-0.0846942 0.163724 -0.473961 -0.11091 0.404012 -0.908005
-0.20286 0.308316 -0.340176 -0.389223 0.509575 -0.767359
0.0651459 0.323089 -0.400726 0.913435 -0.029647 0.405904
-0.34635 0.310344 -0.272131 -0.303815 0.439792 -0.845151
-0.0053677 -0.150104 0.275416 -0.906351 0.322497 -0.272991
0.0302739 -0.217882 0.173082 0.322156 -0.938751 0.122319
-0.316189 0.192899 -0.383073 -0.182301 0.156607 -0.970691
0.209722 -0.293699 0.355593 0.547809 -0.630235 0.55019
-0.263744 0.0982226 -0.27023 -0.496707 -0.657911 0.566071
0.0490933 0.00743189 0.213808 -0.707927 0.646355 -0.284718
0.210791 -0.298044 0.277213 0.609796 -0.769378 0.190279
0.00201084 0.146266 -0.448842 0.789678 -0.584301 0.187086
-0.104963 -0.0235877 -0.0559784 -0.756953 -0.549302 -0.353962
0.0385088 -0.122082 0.260502 -0.879202 0.28162 0.38431
0.140255 -0.0280412 0.272753 0.159537 0.734515 0.659572
-0.0494271 0.14558 -0.00911734 0.375655 -0.151328 0.914321
-0.372326 0.239691 -0.309399 -0.780485 0.481038 -0.399306
-0.0211992 0.314828 -0.435566 -0.0113826 0.0538837 -0.998482
0.104918 -0.323795 0.364314 -0.621522 0.0627481 -0.78088
0.004868 -0.0155799 -0.168469 0.838856 -0.534918 0.100915
-0.0063321 0.383659 -0.386672 -0.0550768 0.0279336 -0.998091
0.228033 -0.236851 0.232433 0.7316 -0.672856 0.109665
0.2237 -0.208609 0.285973 0.898237 -0.0584091 -0.435612
0.119247 -0.142376 0.432267 -0.330936 0.273823 0.903052
-0.132818 0.205217 -0.424803 -0.753445 -0.0373709 0.656449
0.00526598 -0.130693 0.0306159 0.119019 -0.0563305 -0.991293
0.197215 -0.246351 0.203382 0.467563 -0.654149 -0.594536
-0.193925 0.121243 -0.187843 0.00267372 -0.966483 0.256718
0.0507628 0.101877 0.0204698 0.695061 -0.0767296 0.714845
-0.299184 0.179783 -0.23584 -0.449199 -0.369449 0.813466
-0.0773418 0.0036341 -0.247543 0.576604 -0.771652 0.26848
-0.332727 0.0894284 -0.326467 -0.35891 -0.780458 0.511927
0.0647506 0.285763 -0.422785 0.837698 -0.211603 0.503474
-0.15964 0.0855875 -0.153079 -0.969954 -0.202869 0.134288
-0.220685 0.0450896 -0.343821 0.0985962 -0.907968 -0.407276
0.166075 -0.116347 0.408795 0.758342 0.239507 0.606262
0.232979 -0.2186 0.411331 0.654498 -0.567726 0.499318
0.126782 -0.278398 0.218791 0.00610687 -0.548979 -0.835814
-0.0241414 0.454327 -0.328618 -0.0532113 0.364492 -0.929685
0.000926752 0.276369 -0.271506 0.767149 0.144671 0.624942
0.00788183 0.141823 -0.178715 0.686512 -0.118671 0.71737
-0.183506 0.167762 -0.450995 -0.608425 0.746486 -0.2694
0.0234701 -0.151512 0.344639 0.202106 -0.366045 0.908385
0.161687 -0.238594 0.210448 0.748058 -0.656275 -0.09855
0.0545546 -0.22833 0.369962 -0.324691 -0.362653 0.873532
0.0635732 -0.106752 0.0142502 0.518504 -0.852428 0.0672243
-0.19873 0.0330767 -0.457062 -0.0150652 -0.923266 0.383866
0.00160253 0.361123 -0.416868 -0.379959 0.503438 -0.776003
-0.180278 0.0800351 -0.0744433 -0.894883 -0.155015 0.418515
-0.0104207 -0.189915 0.278865 -0.767085 -0.233217 0.597654
-0.0765796 0.346297 -0.381042 -0.403713 0.483271 -0.77683
-0.0795304 0.113108 0.0144189 -0.564739 0.718776 -0.4055
-0.0910576 0.0820027 0.027163 -0.72836 0.665675 0.162383
0.0768088 -0.255224 0.279082 -0.599189 -0.766665 -0.230643
0.0624962 0.329045 -0.455476 0.963884 0.181054 -0.195312
-0.0067684 0.0841667 0.112029 -0.776985 0.610883 -0.15204
-0.117851 0.334362 -0.199321 0.296563 -0.202751 0.933243
-0.00287606 -0.165682 0.213445 -0.993531 0.108648 -0.0330333
-0.104496 0.0496945 -0.411999 0.361333 -0.928772 0.0825912
-0.0312454 0.30519 -0.243693 0.781131 0.45142 0.43134
-0.240605 0.13548 -0.438755 -0.704032 0.467271 -0.534787
-0.0210755 -0.203851 0.188229 -0.868008 -0.489808 -0.0815547
-0.245251 0.220153 -0.184616 -0.233205 -0.397612 0.887423
-0.296881 0.0348515 -0.470411 -0.492506 -0.829578 -0.263132
-0.144588 0.115905 -0.0879063 -0.553667 0.504483 -0.662533
-0.00652802 0.159822 -0.131509 -0.442659 0.870291 0.21598
-0.322968 0.131335 -0.266078 -0.0307228 -0.916646 0.398517
-0.124454 0.231803 -0.284309 -0.594956 0.614957 -0.517547
-0.00345358 0.365014 -0.309214 0.54531 -0.0369149 0.837421
-0.0368383 -0.168313 0.159406 -0.9138 -0.40572 -0.0190231
0.0701314 0.0815885 0.0273145 0.933063 0.0347557 0.35803
0.0014442 -0.203897 0.143293 -0.752 -0.658683 0.0251451
-0.0814817 0.205581 -0.379994 -0.947478 -0.194075 0.254206
0.100256 0.0188798 0.0419896 0.094747 0.73758 -0.668579
0.0529933 -0.233504 0.248173 -0.0557224 -0.177779 -0.982492
-0.22064 0.121673 -0.207311 -0.378048 -0.717312 0.585271
-0.0366586 0.196431 -0.1451 0.345737 0.871855 0.346892
-0.375279 0.135536 -0.29366 -0.322487 -0.804782 0.498325
-0.223747 0.457749 -0.246029 -0.388573 0.514887 -0.764135
0.131196 -0.0460668 0.183001 0.669051 0.742503 -0.0325629
0.0275728 0.179324 -0.52078 -0.260033 0.463738 -0.846953
-0.238809 0.366007 -0.198237 -0.512953 0.341289 0.787655
0.159558 -0.0899759 0.377002 -0.418565 0.869542 -0.262106
-0.190325 0.0568726 -0.516713 -0.245888 0.429545 -0.868925
-0.0592489 0.41912 -0.323228 -0.470036 0.583935 -0.661881
-0.349844 0.271006 -0.304272 -0.547585 0.422996 -0.721959
0.0369577 -0.277306 0.369884 -0.99298 0.114368 -0.0301683
-0.362229 0.360253 -0.233922 -0.595002 0.171946 0.785116
-0.0259929 0.260152 -0.223807 0.599433 0.729752 0.328849
-0.377387 0.220729 -0.255948 -0.0705214 -0.642589 0.762959
-0.0785508 0.0126207 0.099084 -0.738365 0.489872 0.463512
0.0406449 0.159175 -0.48189 0.747582 -0.562814 0.352648
0.240721 -0.142955 0.259851 0.0195409 0.637661 -0.770069
0.201266 -0.16207 0.243505 0.485567 -0.396826 0.778944
-0.0703416 0.308452 -0.408725 -0.278158 0.50082 -0.819639
-0.012839 0.136602 -0.307752 0.909927 -0.172648 -0.377127
-0.142289 0.161579 -0.394058 -0.662351 0.588261 0.46394
0.0399154 0.356885 -0.365987 0.847275 0.209483 0.488101
-0.151807 0.00717809 -0.165376 -0.0427223 -0.775476 0.62993
0.198584 -0.20364 0.196617 0.887167 -0.427684 -0.173268
-0.0568294 -0.0327325 -0.171889 -0.0688533 -0.79803 -0.598671
0.111974 -0.250749 0.221264 0.103261 -0.686917 -0.719363
0.123188 -0.0524566 0.222272 0.601095 0.746166 0.286219
-0.306407 0.253587 -0.33267 -0.285339 0.258069 -0.923029
0.185038 -0.15099 0.109753 0.773774 -0.419378 -0.474759
0.0285088 -0.0718242 -0.121524 0.0335759 -0.0523898 -0.998062
0.00654344 0.229465 -0.491056 -0.323691 0.495184 -0.806236
0.158217 -0.301433 0.376706 -0.0275304 0.309974 0.950346
-0.103745 0.0636805 -0.346229 0.534193 -0.824969 -0.184562
-0.0670487 -0.107888 0.139391 -0.815542 -0.00792063 -0.578644
-0.0681804 0.262673 -0.330492 -0.966232 -0.179524 0.184843
-0.293274 0.127056 -0.416951 -0.343581 0.500631 -0.794557
0.0121486 0.383272 -0.361541 0.734005 0.0989916 0.671891
-0.351033 0.051855 -0.442115 -0.132427 -0.955681 0.26294
0.138239 -0.0786115 0.0591508 0.745615 -0.541648 0.388171
-0.142898 0.0358489 -0.0991272 -0.983117 0.179152 -0.0372362
-0.0326916 0.414697 -0.351429 -0.640273 0.51185 -0.572765
0.0318347 -0.202338 0.100236 -0.30624 -0.758886 -0.574725
-0.0018796 0.0564532 -0.255329 0.557621 -0.790208 -0.254224
-0.134798 0.0427307 -0.287127 -0.38086 -0.861738 -0.335192
0.00637165 -0.0559072 -0.0643865 -0.0226954 -0.834547 -0.550469
-0.0845969 -0.0731684 0.0658409 0.163954 -0.579783 0.798104
-0.0913032 0.283821 -0.362562 -0.91136 -0.331741 0.243663
-0.0248399 0.189975 -0.504249 -0.732551 0.67942 0.0419234
0.0489607 0.188882 -0.444257 0.998548 0.0153806 -0.0516196
-0.357299 0.282764 -0.243979 -0.0396976 -0.584528 0.810402
-0.228609 0.0728124 -0.329809 -0.647725 -0.566984 0.508902
0.188394 -0.0983686 0.333726 0.754617 -0.110284 0.646831
0.0117285 0.0332054 -0.172525 0.779478 0.240928 -0.578246
0.236139 -0.165063 0.203091 0.919059 0.0411438 -0.391967
-0.0211432 0.409209 -0.312354 0.0267494 -0.270934 0.962226
-0.264975 0.0706585 -0.482497 -0.446501 0.569589 -0.690076
-0.093738 0.227439 -0.439026 -0.371286 0.504956 -0.779209
-0.0318535 0.380507 -0.278717 0.261274 0.2405 0.934824
-0.396772 0.133028 -0.358708 -0.482706 0.553386 -0.678792
0.161734 -0.109672 0.090286 0.246037 -0.403675 0.881199
0.0312351 -0.0587836 -0.139084 0.470708 -0.79338 0.385982
-0.0597629 0.204698 -0.49129 -0.876811 0.217459 -0.428852
-0.224008 0.17499 -0.409532 0.141552 0.922358 -0.359469
-0.309859 0.244941 -0.215478 -0.667534 -0.076723 0.740616
-0.0283324 0.0502031 0.0643014 -0.463744 0.493878 0.735545
-0.0316581 0.0882702 -0.264516 0.732422 -0.675761 -0.0830954
-0.0742567 0.213732 -0.318292 0.0258831 0.436043 -0.899553
-0.175339 0.29691 -0.30064 0.51547 -0.518023 -0.6826
0.223767 -0.305987 0.295916 0.401824 -0.883084 0.242282
-0.0114817 -0.14683 0.139359 -0.878448 -0.194899 -0.436285
0.0562186 0.131595 -0.155062 0.737716 0.349336 -0.577702
0.0664993 -0.101698 0.303541 0.198406 -0.158605 0.967202
0.0629968 -0.274703 0.246807 0.115491 -0.893913 -0.433107
0.15425 -0.119301 0.343726 -0.00838693 0.926753 -0.375578
0.0645859 0.209821 -0.504677 0.623723 -0.328541 0.709247
-0.108192 0.057858 -0.00835328 -0.921315 0.245899 0.301184
-0.114473 -0.0466395 -0.0209982 -0.00891365 -0.713598 0.700498
-0.0207891 -0.12339 0.141521 -0.889491 -0.29751 0.346834
0.0977019 0.0420068 0.206552 0.869087 -0.166935 0.465641
0.13312 -0.0229446 0.22982 0.907788 0.218053 0.358293
0.168439 -0.100585 0.240046 0.99449 -0.0255281 -0.101678
0.0312196 0.130066 -0.0734225 -0.347769 0.869096 -0.351752
0.000254534 -0.150448 -0.0233158 -0.0332597 0.0112731 -0.999383
-0.320603 0.110558 -0.41505 -0.232033 0.509473 -0.828612
-0.0679807 0.413833 -0.279173 0.391939 0.315398 0.864238
0.0291916 0.312569 -0.433859 -0.368231 0.515143 -0.773972
0.117905 0.0339354 -0.0653382 0.939787 -0.0917345 -0.32922
-0.418875 0.152451 -0.334841 -0.768493 -0.41115 0.49028
-0.282458 0.0324657 -0.428324 0.0944974 -0.994716 0.0401322
-0.375944 0.0756303 -0.399646 -0.9681 -0.13762 0.209387
0.114696 -0.207392 0.425997 -0.336641 0.691234 -0.639429
0.139649 -0.00192261 0.0241147 0.975332 0.206221 -0.0787403
-0.0826571 0.0756985 0.0748433 0.134736 -0.162501 0.977466
0.195513 -0.239114 0.370263 0.317559 -0.481082 0.817139
-0.0735038 0.376763 -0.231953 -0.00854386 0.384557 0.923062
-0.180575 0.159296 -0.390674 0.0710798 0.785376 0.614925
-0.0248509 0.221602 -0.196564 0.818297 -0.0214023 0.574397
-0.184298 0.444315 -0.231433 -0.387863 0.435099 0.812558
0.110605 0.0324772 -0.0172425 0.779022 0.418609 -0.466788
0.0930967 0.0432693 0.0646085 0.104696 0.967911 -0.228445
0.0485764 0.0679323 -0.124838 0.990726 -0.121819 0.0601883
-0.057232 -0.0974343 -0.0905667 -0.423373 -0.788704 -0.445759
-0.0671325 0.0932542 -0.53235 0.0549084 0.365165 -0.929322
-0.40904 0.224705 -0.294687 -0.3051 0.472816 -0.826655
-0.29433 0.23269 -0.200415 0.054248 -0.537959 0.841224
-0.0354038 0.123837 -0.523752 -0.582868 0.529072 -0.616723
0.118528 0.0483404 0.069441 0.883671 0.391634 0.256416
-0.156237 0.463275 -0.24546 -0.681334 0.35679 -0.639128
0.198844 -0.0503144 0.24007 0.707303 -0.110027 0.698296
0.0504385 -0.00549156 -0.140325 0.113728 0.114811 -0.986856
-0.26861 0.354578 -0.205272 -0.152998 0.3307 0.931251
-0.10853 0.171553 -0.388864 -0.47286 0.816409 0.331482
0.069586 0.11322 -0.0493433 0.335895 0.369119 -0.86656
-0.0488181 -0.144402 0.0124993 -0.660441 -0.736367 -0.146905
-0.31865 0.321522 -0.308443 -0.203902 0.0891508 -0.974924
0.0834216 -0.271595 0.344827 -0.844402 0.0810252 -0.529548
-0.00955147 0.203363 -0.130976 0.323173 -0.187863 0.927506
-0.252809 0.322814 -0.310505 -0.488067 0.531495 -0.692318
-0.136281 0.121301 -0.359983 -0.603099 0.589345 -0.537535
-0.0328859 0.0193035 0.121178 0.0544418 -0.0449045 0.997507
0.0602469 0.25551 -0.511376 0.653271 0.60479 -0.455484
-0.00776643 -0.177898 0.104587 -0.638134 -0.750242 -0.172979
-0.178708 0.0442854 -0.18221 0.131535 -0.855737 0.500413
-0.206752 0.150711 -0.190513 -0.468847 -0.113543 0.875951
0.101164 -0.0403557 -0.0521468 0.621684 -0.0228443 -0.782935
-0.286597 0.416614 -0.219966 -0.404078 0.663326 0.629856
0.041417 -0.158297 0.0727241 0.449774 -0.184466 -0.873885
0.0772809 -0.0635616 -0.0330044 0.656305 -0.493565 -0.570664
-0.361971 0.0813138 -0.349447 -0.197271 -0.906348 0.373655
-0.141022 0.353417 -0.201677 0.183086 0.153007 0.971117
-0.118918 0.133502 -0.0450499 -0.670224 0.277595 0.688288
0.196144 -0.170582 0.163942 0.879734 -0.308728 -0.3616
-0.258698 0.356835 -0.271699 0.421695 0.224834 -0.878421
-0.0922262 0.453821 -0.287434 0.668701 0.693283 0.268695
-0.00851377 0.0887634 -0.287072 0.653119 -0.687512 -0.317431
0.124902 -0.192873 0.102905 0.433464 -0.824148 0.364539
-0.0474441 0.0057109 -0.231777 -0.509852 0.191194 -0.838747
0.12924 -0.136268 0.382774 -0.530244 0.819894 -0.215906
-0.0667186 0.0501362 -0.268052 -0.0855088 -0.886914 0.453951
0.0868195 -0.112891 0.392205 -0.762867 0.239204 0.60068
-0.291922 0.303526 -0.212841 -0.0557115 -0.298583 0.952756
-0.0833899 0.235652 -0.433084 -0.617795 0.426117 -0.660873
-0.151603 0.160142 -0.113137 -0.656872 0.617014 -0.433374
-0.0266675 0.14675 -0.0495816 -0.596848 0.794979 -0.108543
0.076453 -0.0324686 0.249405 -0.108983 0.794546 -0.597343
0.128686 -0.100556 0.015312 0.212413 0.226879 -0.950477
0.0379513 0.112853 -0.0636544 0.892295 0.441003 0.0965731
0.0786031 0.0268348 0.112586 0.703209 0.694561 0.151927
-0.0508381 0.122356 -0.00932355 -0.274615 0.608958 0.744148
0.213479 -0.326117 0.326903 0.156508 -0.443544 -0.882482
0.00508111 0.186511 -0.222829 0.823475 -0.267884 0.500127
-0.0205001 -0.052097 -0.102348 0.159736 -0.876567 -0.453999
-0.253574 0.394399 -0.211353 0.175086 0.174097 0.969038
-0.348723 0.150062 -0.39959 -0.137443 0.456231 -0.879183
0.0711856 -0.141871 0.347997 -0.0854949 0.0156217 0.996216
-0.201818 0.257146 -0.16796 0.033559 0.0866001 0.995678
-0.171978 0.215709 -0.16688 -0.437343 0.766482 0.470358
0.139799 0.00147431 0.157733 0.0891375 0.785014 -0.613031
0.0395481 0.401458 -0.396145 -0.167192 0.344104 -0.923926
0.0860615 0.0491783 -0.104029 0.939906 0.0985602 -0.3269
-0.00210457 -0.0384566 0.231312 -0.639201 0.457381 0.618244
-0.0329655 -0.0492887 0.149273 -0.837748 0.331286 0.434082
0.0689857 -0.0264111 -0.0575597 0.723179 -0.0168669 -0.690455
-0.298758 0.106611 -0.302206 -0.417184 -0.711709 0.565179
-0.396799 0.305486 -0.261833 -0.178831 0.450606 -0.874628
-0.0778174 0.135852 -0.498959 -0.536129 0.49092 -0.686704
-0.25577 0.217945 -0.382615 0.000318566 0.722064 -0.691826
0.209375 -0.0799063 0.289035 0.573767 -0.0840767 0.814691
-0.0604246 0.186801 -0.0685503 -0.329728 0.605217 -0.724563
-0.138633 0.188731 -0.285406 -0.37318 0.525566 -0.764537
0.108987 -0.0217316 0.00529248 -0.320588 0.673943 -0.665601
0.242158 -0.209427 0.24619 0.885504 -0.070689 -0.459223
0.0613671 -0.171112 0.0316406 -0.0596293 -0.667419 -0.742291
-0.164122 0.057291 -0.348325 -0.0289818 -0.79542 0.605365
-0.180571 0.0821637 -0.112753 -0.202311 -0.427635 0.881021
-0.0300884 -0.135461 0.0492941 -0.96373 0.150339 -0.220507
-0.049415 -0.0727583 0.169025 -0.87432 0.356239 -0.329634
0.176251 -0.185817 0.180663 0.708139 -0.620801 -0.336371
0.173787 -0.0904196 0.0947805 0.808335 -0.476458 0.345806
-0.00534273 0.112709 -0.387032 0.759438 -0.646187 0.0754759
0.0156773 0.288147 -0.317492 0.860786 -0.165708 0.481237
-0.0390017 -0.123431 0.184233 -0.962472 0.270533 0.0214537
-0.221805 0.0129003 -0.502947 0.058587 -0.965873 0.252305
0.0743934 0.292685 -0.474099 0.963497 0.0163224 -0.267222
-0.224679 0.10328 -0.464617 -0.160598 0.228715 -0.960155
-0.164706 0.403397 -0.201893 -0.284501 0.266363 0.920929
0.257861 -0.22864 0.31621 0.0916877 0.509659 -0.855477
-0.199896 0.0140465 -0.5286 -0.655408 0.358372 -0.664838
-0.0958504 0.239592 -0.131265 -0.105231 0.895921 0.431569
0.124578 -0.230061 0.430592 0.705889 -0.623416 0.336265
0.0509295 -0.230606 0.3109 -0.909724 0.208213 -0.359235
0.264435 -0.198241 0.291687 0.210556 0.492436 -0.844496
0.00768517 0.131897 -0.267833 0.805546 -0.47438 0.355049
-0.247569 0.028071 -0.417475 -0.287964 -0.910123 0.297914
0.0180842 0.174411 -0.367018 0.904559 -0.217493 -0.366701
-0.169026 0.356873 -0.341533 -0.041477 0.414507 -0.9091
0.0795932 0.098088 -0.00842941 0.866796 0.319688 -0.382706
-0.242291 0.269365 -0.203869 -0.109037 -0.085197 0.99038
-0.101117 0.1561 -0.0921427 -0.36346 0.872038 0.327789
-0.107971 0.365252 -0.219346 0.668894 0.23979 0.70362
-0.00753821 0.177298 -0.281696 0.938456 0.197076 -0.283658
0.115885 -0.0467334 0.0042066 0.903877 -0.338151 -0.262031
0.0651885 0.0315966 -0.163755 0.818994 -0.194138 -0.539962
0.0333256 -0.0810102 0.254556 -0.270359 0.585568 0.764209
0.00426311 -0.203741 0.315104 -0.817232 -0.484153 0.312615
-0.118382 0.44191 -0.246483 0.387025 0.0511849 0.920648
-0.217958 0.0646226 -0.264155 -0.605192 -0.699219 0.380572
0.115619 -0.17322 0.103246 0.273683 -0.466054 -0.841363
-0.180589 0.123011 -0.32216 0.628841 0.766773 0.12891
-0.248228 0.234309 -0.333041 0.923554 0.0786311 0.375321
-0.268096 0.162778 -0.232604 -0.319055 -0.745114 0.58567
-0.0132869 0.319846 -0.290613 0.825513 0.237478 0.511988
0.0517383 -0.196485 0.332679 -0.916782 0.351309 -0.189979
0.0936377 -0.0408623 0.288081 -0.0240686 0.828667 0.559225
0.0899952 -0.0840636 0.336791 -0.127679 0.85039 0.510425
-0.0502176 0.0337672 -0.258921 -0.165985 0.235751 -0.957534
0.156543 -0.157115 0.0739542 0.599034 -0.800577 0.0152871
-0.124343 0.0383067 0.0223785 -0.36509 -0.157539 0.917546
0.205915 -0.14753 0.199105 0.887893 0.218788 -0.404695
-0.00480362 0.132599 -0.540353 0.613384 -0.623007 -0.48541
-0.132278 0.352771 -0.352889 -0.438576 0.545568 -0.714148
0.169598 -0.0446366 0.112552 0.752377 -0.283177 0.59476
-0.0187191 0.109421 -0.354155 0.849713 -0.0400978 -0.525719
0.179842 -0.107773 0.140529 0.96749 -0.194305 0.161888
0.0812493 0.0549995 -0.0550486 0.853135 -0.290545 0.433295
-0.102632 0.352085 -0.23754 0.699956 -0.305657 0.645473
0.0926374 -0.00705742 0.165431 0.0854397 0.721442 -0.687184
-0.0571768 -0.000617325 0.149585 0.490392 -0.258018 0.832431
-0.263286 0.0328994 -0.387702 -0.157102 -0.938288 0.308115
0.00368149 0.151639 0.0165315 0.124691 0.927168 0.353287
-0.381121 0.114493 -0.336227 -0.20725 -0.827264 0.522189
-0.116106 0.172418 -0.321669 -0.582544 0.547895 -0.600378
-0.074397 -0.0792799 -0.0206823 -0.25727 -0.0816863 -0.962881
-0.252011 0.153645 -0.210265 -0.238723 -0.590383 0.771012
0.0775198 -0.166283 0.0217378 -0.0829759 -0.805055 0.587368
-0.0136196 -0.0838333 0.243259 -0.93083 0.360835 -0.05791
0.0683333 -0.0164005 -0.0971091 -0.0115132 0.385604 -0.922592
0.169422 -0.29644 0.290201 -0.556264 0.0358841 -0.830231
-0.215411 0.416961 -0.217151 -0.0815333 0.377622 0.922363
-0.152788 -0.00939454 -0.0503032 0.110021 -0.713841 0.691612
-0.371446 0.276058 -0.296323 -0.404003 0.543247 -0.735978
-0.14352 0.20499 -0.126527 0.124282 0.0126612 0.992166
-0.123112 0.389715 -0.340383 -0.497912 0.642888 -0.582047
-0.143279 0.0401814 -0.0296974 0.406991 -0.70081 0.585853
0.060458 -0.190544 0.426063 -0.293663 -0.0369946 0.955193
-0.0212348 -0.0308783 -0.146981 0.191946 -0.629844 -0.752631
0.0180059 -0.0346265 0.18144 0.218241 -0.170853 0.960823
-0.136483 0.420033 -0.29887 0.28341 0.285038 -0.915659
0.125526 -0.0666886 0.327649 -0.725498 0.686898 -0.0427056
-0.115504 0.0110274 -0.0294009 -0.968019 0.125332 -0.217328
-0.209421 0.0237358 -0.381796 0.0509003 -0.996789 0.0618187
-0.115311 0.203709 -0.100684 -0.229942 0.878201 0.419392
0.0131309 -0.253089 0.221928 -0.561869 -0.793801 -0.232773
0.0228066 -0.242144 0.305688 -0.587152 -0.793588 0.159594
0.0324236 0.315137 -0.35439 0.818772 -0.187324 0.542698
0.0890103 -0.197325 0.133087 -0.123021 -0.874855 0.468503
-0.17753 0.178047 -0.146417 -0.781199 0.52709 -0.33452
-0.0923245 0.252105 -0.168673 -0.0163289 0.690912 0.722755
0.11542 -0.109094 0.351346 0.0126599 0.799307 -0.60079
-0.138307 0.0883619 -0.0594413 -0.879731 0.181024 0.439662
0.00850704 0.0773055 -0.196002 0.834265 -0.282418 -0.473542
0.166318 -0.0805408 0.316086 0.555824 -0.0233902 0.830971
-0.152379 0.103929 -0.492719 -0.104796 0.247105 -0.963305
-0.00944849 0.101749 0.0352198 -0.211151 0.720977 -0.660005
0.245071 -0.14786 0.381999 -0.0443521 0.846202 -0.531013
-0.0850587 0.0576989 0.031453 -0.627778 0.646558 0.433425
-0.101474 0.267043 -0.396004 -0.985245 -0.0359544 0.167332
-0.23107 0.375099 -0.291373 0.0268813 0.183782 -0.982599
-0.416113 0.249294 -0.275215 -0.780702 0.564151 0.268773
-0.105395 0.0943254 -0.528514 -0.308133 0.496672 -0.8114
-0.156265 0.0496289 -0.250517 -0.21854 -0.614217 -0.758272
0.0324265 0.182389 -0.410121 0.853139 -0.460862 0.244458
-0.00247919 -0.11484 0.233097 -0.994365 0.075421 -0.0744926
0.040943 -0.185252 0.144983 0.300202 -0.88171 0.36396
0.228537 -0.310986 0.33095 0.71941 -0.693832 -0.0323528
-0.227534 0.182184 -0.324406 0.958282 0.168317 -0.23101
-0.0360841 0.342219 -0.400869 -0.124909 0.397582 -0.909025
-0.175815 0.0214962 -0.140516 -0.247242 -0.0894281 -0.964818
-0.348447 0.175699 -0.246384 -0.450916 -0.464294 0.762303
0.190086 -0.106944 0.19831 0.314221 0.563325 -0.764153
-0.0121124 0.111509 -0.492376 0.736638 -0.675311 -0.0363184
-0.382519 0.196466 -0.274758 -0.562441 -0.419183 0.712703
0.0448804 0.216748 -0.405808 0.807081 -0.210591 0.551608
-0.0167677 0.188763 -0.0750133 0.486225 0.865071 0.123438
0.0115072 0.205313 -0.224338 0.918136 -0.0321459 0.394958
-0.21543 0.170201 -0.298433 -0.473013 0.718689 -0.509652
-0.123314 0.0482515 -0.253053 -0.230339 0.0183977 -0.972937
-0.12588 0.286039 -0.300761 -0.444445 -0.844812 -0.29793
-0.378696 0.130391 -0.392147 -0.599197 0.524211 -0.605116
0.0174835 -0.107501 0.303621 -0.0147333 -0.373547 0.927494
-0.321591 0.385267 -0.254336 -0.252707 0.464733 -0.848624
-0.0122122 0.047801 -0.217181 0.59071 -0.514832 -0.621297
0.0451835 0.139932 -0.205821 0.529022 -0.452817 0.7177
-0.268068 0.019768 -0.497988 -0.0451757 -0.973454 0.22438
0.0266546 0.0713141 -0.206184 0.665905 -0.149285 -0.730947
-0.00925197 0.0291038 0.191783 -0.407277 0.664728 0.626308
-0.106587 -0.0351341 -0.158643 -0.561725 -0.0476209 -0.825953
0.033132 -0.194061 0.227743 -0.675319 -0.0960858 0.73124
0.205239 -0.132266 0.327069 0.630456 0.594178 0.499477
0.227419 -0.0997154 0.2483 0.971726 0.172442 -0.161283
-0.137992 0.272568 -0.171885 0.561781 0.336136 0.75592
0.00809359 0.216953 -0.347733 0.854334 -0.0342899 0.518591
-0.0781541 0.0464317 -0.549721 0.364197 -0.647362 -0.66954
-0.0464345 -0.0858679 0.198376 -0.876897 0.386571 -0.285683
0.0137194 0.119994 0.0559504 -0.365502 0.391184 0.844621
-0.302952 0.343947 -0.214558 -0.244259 0.048438 0.968499
-0.0844109 0.137959 -0.0391835 -0.223284 0.14308 0.964195
0.0182333 0.196526 -0.174737 0.34254 0.217982 -0.913865
0.120165 0.00737175 -0.0308643 -0.142989 0.843156 -0.518307
0.145356 -0.0284258 0.0808058 0.877568 -0.254281 0.406468
0.231441 -0.122798 0.374468 0.590784 0.129948 0.796297
0.0240661 0.0854416 0.0747896 -0.137271 0.781431 -0.608706
0.0786889 0.0877247 0.0653448 0.503698 0.805952 0.311013
-0.00361612 0.0416587 0.134571 -0.45825 0.796875 -0.393697
0.193722 -0.0471088 0.178419 0.489416 0.847066 -0.207246
-0.225102 0.153723 -0.339002 0.979683 0.118017 -0.162155
-0.0339075 0.258124 -0.451568 -0.289491 0.332467 -0.897586
-0.294532 0.084485 -0.456588 -0.548125 0.56914 -0.612894
-0.191092 0.166593 -0.123372 -0.834827 0.356866 0.419179
-0.117428 -0.0664423 0.0178009 -0.821972 -0.560898 0.0987684
-0.176269 0.116342 -0.467116 -0.34011 0.489631 -0.802861
-0.0817796 0.294103 -0.206414 0.478326 0.361832 0.800176
0.0926587 -0.320537 0.339117 0.547864 -0.761851 0.345583
-0.00245366 0.0161262 -0.226205 0.579151 -0.753146 0.312019
0.0571307 -0.052829 -0.0751366 -0.112852 0.62794 -0.770036
0.0966901 -0.125651 0.0484999 0.80101 -0.58452 -0.129305
0.0098792 0.150707 -0.0408885 0.487475 -0.00160079 0.873135
0.0843133 -0.285323 0.393099 -0.76402 0.210257 -0.609972
0.0532895 0.0668499 0.120361 -0.174541 0.862895 -0.474286
-0.120508 -0.0648552 -0.0989955 -0.549076 0.116031 -0.827679
-0.0654838 0.0732523 -0.430468 0.744342 -0.663434 -0.0762282
0.213356 -0.165525 0.409103 0.706831 0.382267 0.595199
0.11798 0.00238331 0.0865798 0.964972 -0.0307893 0.260538
-0.0593452 0.0829486 -0.365641 0.850985 -0.508991 -0.129429
-0.255693 0.314879 -0.213118 -0.474345 0.732989 0.48757
