ply
format ascii 1.0
comment Created by Open3D
element vertex 128
property double x
property double y
property double z
property double nx
property double ny
property double nz
end_header
0.0091825 0.0106047 0.105345 0.067951 0.346406 -0.93562
0.0933418 -0.201191 -0.143503 -0.552467 -0.155703 0.818863
0.0574114 -0.279544 0.221436 -0.914377 -0.329717 0.234952
-0.00500352 0.0695116 -0.377234 0.100662 0.980686 0.167694
-0.105882 -0.0345772 0.173367 -0.888061 -0.439127 -0.136068
-0.0524038 0.112134 -0.155202 -0.0399455 0.0684786 -0.996853
0.222497 -0.171826 -0.131258 0.799071 0.593378 0.0968903
-0.0804776 0.148632 -0.361918 0.422826 -0.49972 -0.755975
0.132248 -0.0659669 0.0440425 0.87776 0.4791 0.000711444
-0.0790626 0.284091 -0.108239 -0.670774 0.701869 0.239671
-0.170159 0.256091 -0.0942777 0.746607 0.642767 -0.171547
-0.0614985 -0.100264 0.25614 -0.83725 -0.538403 -0.0955759
0.017157 -0.116278 -0.434982 -0.604631 -0.793573 0.0682896
0.165759 -0.161962 0.200505 0.45843 -0.750966 0.47528
0.1715 -0.094622 -0.0603822 0.18289 -0.258834 -0.948449
-0.184032 0.0501549 0.458101 -0.992285 -0.114294 0.0480305
0.174518 -0.0516848 -0.2077 0.756666 0.653166 -0.0288319
-0.0776108 0.0403923 -0.479648 -0.703352 -0.146078 -0.69567
-0.308451 0.323187 0.0901559 0.218701 -0.300065 0.92851
0.0315848 0.00477824 -0.308269 0.275421 -0.156823 -0.948446
0.0220184 -0.134336 0.287812 0.707922 0.356378 0.609788
0.0794549 -0.1175 -0.295089 0.874824 0.393057 0.283178
-0.215329 0.329704 -0.125665 0.835543 0.541755 0.091487
-0.124448 -0.0340597 0.268051 -0.541558 -0.839367 -0.0466617
0.0947227 -0.31512 -0.109703 -0.594503 -0.802796 -0.0456636
-0.0908065 0.301215 -0.0376464 -0.67114 0.741326 0.00274354
-0.0532941 0.0741619 -0.0755068 0.293497 -0.738053 0.607566
0.17516 -0.367512 -0.00353996 0.257576 -0.478647 0.839376
-0.187473 0.251813 0.0125609 0.74606 0.587375 0.313662
0.0545755 -0.202904 -0.314836 -0.892645 -0.402433 0.203057
-0.170135 0.131687 -0.286213 -0.615465 -0.595174 0.516693
0.146931 -0.264042 -0.402799 -0.262421 -0.93764 0.22796
0.0719697 0.0439904 -0.10504 -0.0779416 -0.140841 0.986959
0.0961086 -0.22762 0.299157 0.193827 0.96131 -0.195741
-0.111878 0.0517876 -0.3338 -0.795685 -0.257334 -0.548329
0.163459 -0.153222 -0.217112 0.396581 -0.390167 -0.830959
0.158348 -0.256695 -0.00471977 0.855157 -0.457527 -0.243671
-0.138486 0.102963 -0.194532 0.572415 -0.731508 -0.370454
-0.194377 0.249402 0.233922 -0.2894 0.284453 0.913966
-0.0779766 0.132014 0.12953 -0.912972 0.405609 -0.044319
0.0085294 0.169342 0.0468446 0.829206 0.516179 0.214422
-0.223843 0.193601 -0.165144 -0.839853 -0.538706 -0.0666541
-0.192857 0.242842 0.135301 0.833611 0.357363 0.421169
-0.159497 0.108262 -0.0749203 -0.791478 -0.610978 0.0163984
-0.230974 0.236309 -0.282516 -0.920365 -0.386023 -0.06257
0.113555 -0.0289638 0.132733 0.647648 0.755464 -0.099124
0.225061 -0.173713 -0.0150199 0.91887 0.366063 0.147224
0.20357 -0.378066 -0.250468 0.264802 -0.52868 -0.80646
-0.20392 0.204907 0.371615 0.673719 0.600003 0.431392
-0.00118475 -0.20639 0.255301 -0.969557 -0.121469 0.212616
-0.0297409 -0.0998012 0.461438 0.793205 0.430831 0.43036
0.0663325 -0.276775 0.398013 0.837471 -0.431573 -0.335243
-0.0564436 0.0539883 0.291591 -0.120406 -0.0702723 0.990234
-0.20718 0.321876 -0.307925 0.040171 0.234953 -0.971176
0.138588 -0.00496136 -0.119976 0.657943 0.390597 0.643852
0.13186 -0.0807874 0.250438 0.0442794 0.172855 -0.983952
0.161744 -0.237072 -0.271013 0.854567 0.497551 0.148853
0.00207356 -0.0430307 -0.112245 -0.403319 0.557365 0.725726
-0.0491216 -0.0394795 -0.289927 -0.705015 -0.704255 0.0835434
-0.10383 0.300099 0.0556048 -0.224233 0.941668 -0.250959
-0.287207 0.262661 0.167537 -0.393035 0.730059 -0.559051
0.211858 -0.181361 0.103093 0.950319 0.246229 -0.190435
-0.0101327 -0.158053 -0.00514487 -0.688771 -0.716599 -0.10991
0.0946915 -0.21991 0.189339 0.988966 0.13925 0.0505514
-0.179333 0.13105 0.0468068 -0.813211 -0.573892 0.0966174
0.086094 -0.387714 0.270657 -0.781945 -0.614319 0.105708
-0.0974771 0.0112678 -0.177432 -0.763565 -0.430217 0.481541
0.00968807 -0.13975 -0.242717 -0.701421 -0.682172 0.206517
0.13745 -0.423805 0.115458 -0.90577 -0.418928 -0.0638699
-0.167172 0.167846 -0.343426 -0.945935 0.232611 -0.22605
0.164031 -0.00895739 -0.280522 0.836929 0.542621 0.0715021
-0.124271 0.230309 -0.411651 0.596564 0.776315 -0.203586
0.186054 -0.333878 0.0853531 0.911498 0.187698 0.36598
0.161109 -0.101186 0.154013 0.825561 0.551401 0.120027
-0.302494 0.362992 -0.133368 0.218031 0.0213907 -0.975707
-0.215646 0.0958578 0.329987 -0.896908 -0.332317 -0.291758
-0.236545 0.345004 0.0337052 0.799171 0.593261 0.0967878
-0.0615094 0.136059 -0.274986 0.857326 0.505844 0.095463
-0.000922113 0.12124 0.291169 0.80861 0.582359 0.0837143
0.0898202 0.0352569 -0.185369 0.943543 0.120648 0.308498
0.0980266 -0.326509 0.0172597 -0.774362 -0.626736 -0.0869793
-0.0184542 0.239231 -0.0181497 0.987115 0.158315 -0.0232498
-0.0154484 0.176371 0.184783 0.18091 0.911562 0.369224
0.0654067 0.116698 -0.289894 -0.505162 0.678426 -0.533433
-0.121492 0.164731 0.233369 -0.351033 0.369296 0.860463
0.0775734 -0.121443 -0.115264 0.0614452 -0.844982 0.531253
-0.244985 0.242649 0.0496031 -0.697935 -0.705324 0.124116
-0.0140911 -0.119197 -0.334944 -0.826716 -0.560624 0.0473448
0.172401 -0.294841 -0.155777 0.589538 0.806505 -0.0446541
-0.0113038 -0.128397 -0.136008 -0.99604 -0.0519784 0.0721334
-0.265789 0.264782 -0.0585303 -0.836398 -0.546095 -0.047093
-0.0111351 -0.0545533 0.185741 0.76193 -0.644229 -0.066578
0.0453609 -0.110517 0.0578533 -0.610764 0.788735 0.0697417
-0.0515565 0.0923718 0.0604409 0.506284 -0.813171 -0.287105
-0.104669 0.222073 0.107643 0.460394 -0.827502 0.321369
-0.292069 0.309236 0.238924 0.0356181 -0.0979428 0.994554
0.0246503 -0.0174361 0.316535 -0.36015 0.00122207 0.932894
0.065437 0.032397 0.236475 0.865496 0.481561 0.137894
-0.0333493 -0.154768 0.13507 -0.950742 -0.306946 -0.0432925
-0.133643 0.0405289 0.0458037 0.458014 -0.814126 -0.356963
0.0677542 -0.128882 0.15102 -0.311894 -0.172793 0.934272
0.00749178 0.203191 -0.257195 0.953588 0.301105 -0.0023408
0.150036 -0.25397 0.11417 0.484361 -0.79852 0.357437
-0.0916077 -0.0579598 0.108035 0.371982 0.0747037 -0.925229
-0.115364 0.0854282 0.357993 0.612622 0.765771 0.195675
-0.0268208 0.0517644 -0.210507 -0.315644 0.935649 0.157888
-0.0122622 -0.0436383 -0.393025 -0.00640298 0.208069 -0.978093
-0.0338447 -0.0743207 -0.204559 -0.808141 -0.58366 -0.0790462
0.144547 -0.312294 0.191694 0.483415 -0.868801 -0.107215
0.0558342 -0.0948859 -0.056139 -0.419186 0.223223 0.880031
0.166866 -0.446327 -0.0629826 -0.626824 -0.769017 -0.125319
-0.123981 -0.0270302 0.368134 0.395701 -0.639469 0.659167
-0.0460074 -0.157687 0.385307 0.163098 -0.829822 0.533662
-0.157025 0.260305 -0.218092 0.90306 0.424123 0.0678432
0.041206 0.0923391 0.154118 0.91696 0.29768 0.265651
0.0488037 -0.245572 -0.047732 -0.94602 -0.323677 -0.0167093
-0.177005 0.0642023 0.180926 -0.746616 -0.662735 -0.057853
0.00378832 0.226489 -0.158964 0.815738 0.578414 0.00290207
0.0986334 -0.322591 -0.244599 -0.876513 -0.465156 -0.123915
-0.228049 0.152412 0.155818 -0.958309 -0.250643 -0.137196
-0.176059 0.0317895 0.250695 -0.807166 -0.58878 -0.0426841
0.0185764 -0.25374 0.0820935 -0.843554 -0.5366 -0.0218378
-0.0480513 -0.0462954 0.365385 0.784211 0.619831 -0.0286908
0.0782226 -0.0661239 -0.471623 0.708337 0.587978 -0.390564
-0.0891545 0.197753 -0.201655 -0.895603 0.317738 -0.311349
-0.0772672 0.239364 0.214488 -0.506916 0.72107 0.472329
0.115515 -0.182992 -0.0823078 -0.475246 0.868551 -0.140573
0.0210642 0.142565 -0.0619183 0.669235 0.264521 0.694372
