ply
format ascii 1.0
comment Created by Open3D
element vertex 512
property double x
property double y
property double z
property double nx
property double ny
property double nz
end_header
0.0530711 -0.339892 -0.394414 0.699543 -0.650236 -0.296365
0.327978 0.0990204 -0.295712 -0.22015 0.252903 -0.942111
-0.0824428 -0.326269 -0.240652 -0.679309 -0.680298 -0.275197
-0.141321 0.243556 0.070073 -0.206123 -0.456344 0.8656
0.0861942 0.0882088 0.111328 0.630704 0.378733 0.677328
0.0861556 -0.0626884 0.201746 -0.66774 0.702189 0.247091
0.0799226 -0.252647 -0.468427 0.513081 0.709375 -0.483255
0.24038 -0.311151 0.412321 0.00772847 -0.412614 0.910873
0.444386 0.0217821 -0.282808 0.704871 -0.681967 -0.195136
0.43901 0.027255 0.00210187 0.680402 0.730191 0.0622463
0.0817944 -0.520694 0.316785 -0.0107114 -0.40442 0.91451
0.333057 -0.332921 0.271515 0.710752 -0.596381 -0.373044
-0.155151 -0.30672 0.182169 -0.693717 0.659542 0.289415
0.309136 -0.208109 0.264991 0.475822 0.0279727 0.879097
0.0283254 0.1942 -0.0157724 0.474879 0.819682 -0.32033
-0.00211418 -0.599647 0.282317 -0.0461214 -0.339313 0.939542
0.418677 -0.0676495 0.266753 0.859395 0.466916 0.208397
-0.132504 -0.0861704 0.0719214 -0.575992 -0.703503 0.416313
-0.091115 -0.0891104 -0.450422 0.652259 0.639616 0.406756
-0.0044506 -0.17904 -0.479085 0.750989 0.61629 0.237069
0.422529 0.178302 -0.462276 0.0010209 0.404672 -0.914461
-0.0928533 -0.251557 0.215927 -0.729602 0.533201 0.428227
0.0963088 -0.0529736 -0.566902 -0.00414856 0.422989 -0.906125
0.0625698 0.00333574 0.0369127 -0.167627 0.451367 -0.876452
0.470734 0.178316 -0.455675 0.523906 0.661825 -0.5362
-0.000687814 -0.126506 -0.601741 0.122396 0.315319 -0.94106
-0.112093 -0.385813 0.244875 0.77191 0.631421 0.0739121
0.0780893 0.166459 -0.33388 -0.63216 0.753973 0.178603
-0.0730403 -0.274678 0.255621 -0.767163 -0.63845 0.0619787
-0.168231 -0.0216378 -0.522005 -0.69948 0.645047 0.307639
0.137941 -0.0419897 0.294391 -0.657189 0.72572 0.20355
0.0426725 -0.210363 0.434235 -0.607291 0.594277 0.527287
0.321699 -0.129657 0.308617 -0.516786 -0.737955 0.433998
-0.143798 -0.290874 -0.15716 -0.659123 -0.729808 -0.181486
0.412623 -0.289342 0.351751 0.69722 -0.681407 -0.222639
-0.0585735 0.0228322 0.0715085 0.303711 0.376271 -0.875317
0.464793 0.0594999 -0.312693 0.682777 -0.642164 -0.348484
0.0422622 -0.586572 0.143151 0.782574 -0.506208 -0.362398
-0.00486366 -0.241304 0.410144 -0.674025 0.653568 0.344295
-0.176738 -0.0601551 0.0544155 -0.686688 -0.703288 0.183975
0.124614 0.0163291 0.00829458 -0.678668 -0.637531 -0.364644
-0.0732853 -0.48726 0.0878937 -0.753016 -0.570853 -0.327251
0.295113 0.104572 -0.396199 0.353962 0.162983 0.920949
0.424202 -0.217597 0.279307 -0.538522 -0.78236 0.3129
0.408074 -0.200635 0.300416 -0.73809 -0.674147 -0.0273814
0.467637 0.1442 -0.332578 0.70347 0.657482 0.269902
-0.0123482 -0.442737 0.170026 0.550674 0.22028 0.805131
0.486722 -0.0901549 0.0686263 0.693523 -0.662169 -0.283829
0.428238 -0.222245 0.286448 -0.623977 -0.759058 0.185697
0.0171722 -0.645492 0.243937 0.590008 -0.77714 0.218963
0.00904675 0.197009 -0.0366405 0.544385 0.743101 -0.38916
-0.162826 -0.330923 0.238964 -0.693428 0.662823 0.282529
0.453919 -0.156332 0.146223 0.67664 -0.687867 -0.262673
-0.200044 -0.437406 0.341988 -0.441347 -0.747634 0.496242
0.0666068 0.00958221 -0.538788 0.0796608 0.387974 -0.918221
0.00448311 -0.57084 0.0730431 -0.749384 -0.538242 -0.38564
-2.78103e-05 -0.0806732 -0.391563 -0.438446 -0.121759 -0.890472
0.0763777 -0.134662 -0.0854519 0.664463 0.35838 0.655784
0.150071 -0.44063 0.0695126 0.698011 -0.654686 -0.290115
0.315418 -0.268182 0.434193 0.0122219 -0.410611 0.911729
0.0924439 -0.284462 0.421061 -0.0517305 -0.340354 0.938873
0.108663 0.100813 -0.503318 0.143647 0.370956 -0.917473
-0.163962 -0.199363 -0.0878004 -0.714885 0.627366 0.308791
0.00705709 -0.451461 -0.180416 -0.723567 -0.639805 -0.259036
0.107002 0.186408 -0.321295 -0.695505 0.655064 0.295236
0.192452 0.12406 0.0310975 -0.698009 0.674717 0.239874
-0.149996 0.0717479 0.196682 -0.713372 0.627032 0.312941
-0.20963 0.0848808 0.156229 -0.290633 -0.704023 0.647985
0.353312 -0.0822716 -0.271981 0.689909 -0.672286 -0.268435
0.431737 0.181749 -0.330434 0.721948 0.672209 0.164093
-0.124668 0.0786094 0.217325 0.0552707 -0.335318 0.940482
0.270273 0.209871 -0.00880879 -0.0535604 0.915383 0.399006
-0.201508 -0.0387105 0.0487336 -0.674489 -0.687201 0.269849
0.487367 0.101189 -0.37606 0.641891 -0.7412 -0.196465
-0.133727 -0.341724 -0.0736766 -0.610263 -0.738424 -0.286896
0.350892 -0.146597 -0.11707 0.707453 -0.695383 -0.126306
0.422416 -0.119395 -0.000691675 0.699579 -0.652594 -0.291049
-0.153692 -0.297449 -0.119167 -0.727279 -0.668444 -0.155717
-0.171518 -0.233846 -0.0357368 -0.680762 0.683541 0.263315
0.24222 0.245187 -0.121319 -0.649332 0.593118 0.476004
-0.123891 -0.109651 -0.00829562 -0.691393 -0.718351 -0.0771217
0.000998538 -0.521506 -0.0115149 -0.719981 -0.632397 -0.285835
-0.203834 0.258607 0.214928 0.306356 0.253558 0.917526
0.148873 -0.0233091 0.271443 -0.712491 0.602543 0.359581
0.0263839 -0.136956 0.225084 -0.718164 0.61803 0.319813
-0.00809758 -0.21026 0.318594 -0.69275 0.651015 0.310284
0.437886 -0.0678106 -0.0920665 0.665188 -0.717325 -0.207288
0.462356 -0.0320594 -0.118723 0.708859 -0.635816 -0.30538
0.208373 -0.425947 0.170044 0.691411 -0.627933 -0.357282
0.0419685 -0.0633174 0.151174 -0.00489901 -0.140445 0.990076
-0.0214327 -0.150335 0.164585 -0.69453 0.67069 0.260389
-0.0831831 0.243193 0.0140555 0.283624 0.920893 -0.267419
-0.18483 -0.0527918 0.0309347 -0.697268 -0.716693 0.0129793
-0.182515 -0.0673704 -0.428905 -0.607248 0.774383 0.177709
0.297047 0.141698 0.119491 0.681875 0.664379 0.306016
-0.180571 -0.0154002 0.134506 -0.385725 -0.746906 0.541615
0.222208 0.273355 -0.235184 -0.718448 0.603383 0.346066
-0.152032 -0.487194 0.312978 -0.549581 -0.776952 0.307094
-0.0427133 0.0863524 0.196611 0.334234 -0.0494672 0.941191
0.228214 -0.290942 0.42223 -0.0738628 -0.381913 0.921242
0.207037 -0.22268 -0.301113 0.68661 -0.675441 -0.268972
-0.0366904 -0.296851 0.404603 -0.356889 0.0149544 0.934027
0.472618 -0.0884717 0.170973 0.729138 0.620269 0.289176
-0.0896414 -0.332859 0.382441 -0.594514 0.311245 0.741404
0.0393137 -0.52264 0.184291 0.78739 0.608311 0.0998794
-0.232306 0.081226 -0.0687522 -0.580656 -0.277346 -0.765452
0.15089 0.196588 -0.240498 -0.691215 0.647351 0.321182
-0.301107 0.14719 0.176903 -0.461633 -0.623545 0.63094
0.23963 0.113102 -0.311082 0.624586 0.730929 -0.275018
0.034212 -0.418 -0.261146 0.696724 -0.570991 -0.434218
-0.00979702 0.0625478 -0.033667 -0.345733 -0.487801 0.801573
0.227677 0.219182 -0.446095 0.0450849 0.399583 -0.915588
0.236518 -0.175055 -0.336948 0.684444 -0.68737 -0.243019
0.431246 0.00109196 -0.265139 0.632072 -0.747358 -0.204796
0.117184 0.0826139 -0.513005 0.0074822 0.418849 -0.908025
0.00630318 -0.43602 0.352191 -0.168545 -0.323677 0.931035
0.272186 -0.15064 -0.311797 0.69024 -0.719074 -0.0806284
-0.289421 0.170361 -0.0114364 -0.55001 -0.233622 -0.801817
-0.134122 0.0272501 -0.120516 -0.498881 -0.121547 -0.858105
0.275403 0.0123336 0.426642 0.349179 0.867992 0.353078
-0.069435 -0.131649 0.0781423 -0.498448 -0.664837 0.556364
-0.00914736 -0.0527409 -0.474844 -0.377729 -0.540342 0.751899
-0.044547 0.0493862 0.196466 0.124413 0.144151 0.981704
-0.0804493 -0.411296 0.25039 0.738101 0.60774 -0.293017
0.0708802 -0.443845 -0.109175 0.786775 -0.481875 -0.385723
-0.163802 -0.350811 0.0226296 -0.725442 -0.616808 -0.305422
0.212469 -0.280033 -0.0992499 0.617334 0.786687 -0.00460357
0.0817839 0.157007 -0.305405 -0.669005 0.706644 0.230405
0.325028 -0.234045 0.0237542 0.700934 -0.680227 -0.214436
0.169498 0.111274 0.00705589 -0.701443 0.612932 0.36372
-0.238822 0.170098 0.0492398 0.60708 0.404811 0.6838
-0.0316748 -0.0513048 -0.000300561 0.701505 0.709967 -0.061956
0.0923348 -0.470254 0.00270112 0.682705 -0.683455 -0.258464
0.322231 0.24858 -0.432819 0.15626 0.374342 -0.91403
0.334474 -0.0343948 -0.418536 0.682354 -0.68689 -0.250151
0.470776 -0.0925562 0.0401442 0.682735 -0.693947 -0.228715
0.147525 -0.394882 -0.0469191 0.69023 -0.668582 -0.276732
-0.29153 0.25655 -0.0128271 -0.30536 0.0976181 -0.94722
-0.00933845 -0.501448 -0.0351936 -0.66651 -0.694768 -0.270299
0.201727 -0.157894 -0.128633 -0.353592 -0.468971 0.809344
0.211832 -0.288155 0.42675 0.0718498 -0.495198 0.865804
0.186371 -0.423318 0.121692 0.691941 -0.706523 -0.14847
0.0938015 -0.128799 -0.483934 -0.705469 -0.683303 0.188177
-0.102463 0.0301375 0.193772 -0.102134 -0.282939 0.953685
-0.0662096 -0.179108 -0.597418 -0.710284 -0.551758 -0.437104
-0.136999 0.27088 0.15432 0.718304 0.523834 0.457861
0.175879 -0.478439 0.339993 0.0719687 -0.540064 0.838541
-0.0126082 0.01211 -0.208712 -0.710894 0.621276 0.329613
0.294175 0.205773 -0.318035 -0.687477 -0.725717 -0.0266557
0.0636385 -0.593524 0.281606 0.242068 -0.619151 0.747031
0.493713 0.00736642 -0.103795 0.736236 0.59969 0.313574
0.292404 -0.300629 0.414445 -0.151519 -0.373325 0.915244
0.0609623 -0.514025 0.0213541 0.678261 -0.655632 -0.331828
-0.0626626 -0.386033 0.287271 0.0572645 0.431628 -0.900232
0.340289 0.0387912 0.230969 0.715381 0.638643 0.283486
0.232039 0.0193646 0.377439 -0.726702 0.592146 0.348234
0.0424578 0.124282 -0.326468 -0.672734 0.703983 0.227677
0.0384928 -0.261885 -0.6147 0.677993 -0.698821 -0.227981
0.0824424 0.00246738 0.0379041 -0.068867 0.304177 -0.950123
0.241429 0.0282063 -0.53162 -0.0230563 0.404556 -0.914223
-0.081465 0.148371 0.0251335 -0.523833 -0.728193 0.441966
0.0189477 0.0555733 0.172093 0.340958 0.0900019 0.93576
0.269974 -0.212889 -0.0524033 0.0658804 0.386433 -0.919962
0.0107201 -0.194349 -0.457714 0.592735 0.779129 -0.204019
0.38674 -0.201129 0.33981 -0.651507 -0.402563 -0.643026
0.324012 -0.0313275 0.428309 0.69886 0.646844 0.305266
-0.0452495 -0.29555 -0.395855 -0.793653 -0.575132 -0.19834
0.313612 0.132327 0.0801945 0.729417 0.634393 0.255923
0.0421883 -0.514412 0.152672 0.674728 0.474997 0.564907
0.291912 0.291937 -0.209734 0.621784 0.728687 0.287054
-0.0010189 -0.125949 0.142333 -0.63096 0.745922 0.213283
0.145152 -0.478234 0.159635 0.71028 -0.529702 -0.463593
-0.173836 -0.0677358 0.0345655 -0.569752 -0.808244 0.148742
0.111675 -0.145172 -0.466993 -0.770653 -0.596482 -0.224283
0.14648 -0.39357 -0.0368557 0.705131 -0.639745 -0.305805
0.0512277 -0.138002 0.29923 -0.690828 0.674736 0.259785
-0.125713 -0.1278 -0.556472 -0.710735 -0.673727 -0.202357
0.25114 -0.195089 0.310556 0.646332 0.626274 0.435931
0.142735 -0.171302 -0.497379 -0.66883 -0.734003 0.117919
-0.0148407 -0.332484 0.210102 -0.482574 -0.737751 0.472066
-0.0603179 -0.23682 -0.494688 -0.715058 -0.671152 -0.195571
0.0200137 0.0676579 0.0651294 -0.145409 0.124526 -0.981504
0.169349 -0.229469 0.448722 -0.0757117 -0.286165 0.955185
-0.1366 -0.24198 0.0932892 -0.692099 0.656624 0.29974
-0.0210074 -0.472688 0.33961 0.0242612 -0.422077 0.906235
-0.232094 0.182229 0.140329 0.208717 0.51666 -0.830361
0.128791 -0.479125 0.150421 -0.554659 -0.614509 0.561009
0.375578 0.256554 -0.356325 0.723548 0.612042 0.31919
0.0964073 0.138678 -0.0086817 0.710469 0.701086 -0.0609367
0.384536 -0.0263479 -0.311226 0.699396 -0.653487 -0.289482
0.0914974 -0.48708 0.0404313 0.684713 -0.637231 -0.353703
0.359198 -0.160138 0.327133 -0.645961 -0.757747 -0.0924856
-0.077941 0.00711289 0.0391288 0.59652 0.705905 -0.381918
0.241362 -0.0133795 0.473471 -0.612943 0.687599 0.389242
0.291753 0.232605 -0.0818482 0.571887 0.740145 0.353739
0.253107 -0.110433 0.405854 -0.552057 0.0987774 -0.827935
0.142719 0.0480589 -0.523886 0.0182807 0.38683 -0.92197
-0.18098 0.159171 -0.0684258 -0.715015 0.562014 -0.415805
0.224542 -0.374342 0.0974007 0.693768 -0.628318 -0.351996
-0.0788651 0.209155 0.0862201 -0.700328 -0.699366 -0.142925
-0.00343577 -0.46048 -0.139741 -0.701024 -0.640855 -0.312842
-0.199145 -0.187431 -0.183779 -0.695503 0.651245 0.303572
0.282293 0.280898 -0.420024 -0.106388 0.426679 -0.898124
-0.154415 -0.185148 -0.0871655 -0.621262 0.769099 0.150069
-0.219038 -0.022689 0.0576214 -0.697199 -0.715275 0.0478964
0.0961996 0.0428189 0.0168407 -0.70633 -0.666997 -0.237093
0.0346959 0.0744033 -0.223566 -0.682787 0.716635 0.142256
-0.169519 0.296733 0.108596 -0.589951 -0.772871 0.233727
0.221419 0.211654 -0.101379 -0.734032 0.591168 0.334241
0.184391 -0.0850252 -0.574249 0.248856 0.221901 -0.942778
-0.104462 0.150768 0.177434 0.176858 0.209056 0.961778
0.107859 -0.18227 -0.063579 0.685161 0.726478 0.0527693
-0.0590567 -0.270064 -0.424442 -0.613329 -0.742623 -0.268958
0.00414219 -0.494498 0.329486 -0.248559 -0.368317 0.895858
0.490028 -0.0300333 -0.00372113 0.669813 0.656602 0.346735
0.413314 -0.160888 0.0744066 0.704733 -0.688007 -0.1732
0.0182779 -0.635738 0.210792 0.75634 -0.536846 -0.373826
0.167458 0.134214 -0.0540804 -0.688487 0.678383 0.256482
0.370664 -0.0949621 0.450362 0.683593 0.708829 0.173962
-0.145158 0.297267 0.0396503 0.392524 0.828492 -0.399408
-0.161209 -0.0936264 -0.325862 -0.683475 0.683001 0.257626
0.329751 0.0803662 0.16712 0.720537 0.630957 0.287611
0.284221 0.124947 0.163105 0.454338 0.827441 0.330029
0.31062 -0.373229 0.317101 0.666905 -0.719604 -0.19341
-0.10202 0.0300097 -0.463871 -0.72422 0.600758 0.338518
0.165119 -0.282922 -0.257333 0.685622 -0.686696 -0.241603
-0.166887 -0.0671014 -0.394602 -0.697778 0.595924 0.397467
-0.00823354 0.216885 0.112558 0.694867 0.674645 0.249025
-0.0558455 0.0777159 0.199904 0.268066 -0.126904 0.955006
-0.0954311 -0.532641 0.254591 -0.715646 -0.6417 -0.275813
-0.0142787 -0.0149873 -0.0572395 0.37884 0.0137977 0.925359
-0.19774 -0.13088 -0.36768 -0.720769 -0.62998 -0.289166
0.351098 -0.0148081 0.310466 0.736274 0.600189 0.312527
0.0387918 -0.582108 0.119116 0.706113 -0.674801 -0.214589
0.355436 0.293546 -0.40292 0.312147 0.781702 -0.539914
0.0971593 -0.28543 -0.420592 0.699978 -0.680184 -0.217669
0.396929 0.0995293 -0.39036 -0.52282 -0.760052 0.38598
0.261169 -0.0831466 0.512087 0.00414124 -0.406966 0.913434
0.266182 0.126719 -0.486302 0.0434107 0.386808 -0.921138
-0.00285266 -0.107833 -0.50786 0.275533 -0.338498 0.899723
0.362758 0.0327028 0.18779 0.755176 0.587755 0.290265
0.417411 -0.145041 0.0330557 0.695131 -0.664269 -0.274846
-0.249774 0.212707 0.223639 -0.683628 0.704941 0.18897
-0.071213 -0.392135 -0.109442 -0.675933 -0.716787 -0.171264
-0.0960614 -0.354464 0.29939 0.169386 0.462439 -0.870321
0.164456 0.204279 -0.45062 -0.013172 0.449442 -0.893212
0.023021 0.197858 -0.0255149 0.529794 0.789698 -0.309346
-0.147976 0.00751801 -0.518676 -0.657448 0.75187 0.0495411
0.0635338 0.175323 -0.395752 -0.624441 0.733327 0.268896
0.00585077 0.107297 0.0733801 -0.372493 -0.161912 -0.913802
-0.189872 -0.0379849 -0.031077 -0.716809 -0.599352 -0.356316
-0.10473 -0.115112 -0.135214 -0.760342 0.528572 0.37748
0.401129 0.120012 -0.106686 0.673348 0.685017 0.278124
-0.192833 0.043043 0.162995 -0.670694 0.709583 0.216013
-0.080036 -0.215888 -0.481009 -0.736793 -0.617186 -0.276073
0.495296 -0.0200847 -0.0695473 0.68956 -0.687422 -0.227943
-0.213289 -0.0196222 0.0223233 -0.745617 -0.660835 -0.0857448
-0.261015 0.108139 0.15193 -0.439133 -0.73131 0.52187
0.450493 -0.115041 0.0500788 0.70382 -0.62349 -0.340437
0.213351 -0.399616 0.370768 -0.153158 -0.355794 0.921929
0.239346 0.143496 -0.480291 -0.101124 0.486467 -0.867827
0.284699 0.0408172 0.341106 0.690289 0.657235 0.302561
-0.101554 -0.0274117 -0.563911 0.0567422 0.386282 -0.920634
0.294304 -0.331568 0.166147 0.694619 -0.710247 -0.114248
-0.0613418 0.188259 0.0637384 -0.623715 -0.742557 0.244108
0.142257 0.13987 -0.138844 -0.694941 0.674477 0.249274
0.389688 -0.0988708 0.39754 0.716725 0.646487 0.261457
0.0334643 -0.59831 0.156417 0.682292 -0.653219 -0.328301
0.0346441 -0.0926025 -0.496731 -0.276533 -0.622861 0.731829
0.214281 -0.181621 -0.378556 0.692291 -0.67236 -0.262042
-0.108552 0.0910242 -0.0177262 0.303601 -0.0847765 0.94902
0.489293 0.165464 -0.452968 0.54954 0.742684 -0.382657
0.0984606 0.107317 0.0780636 0.739401 0.541824 0.399642
-0.0218543 -0.01637 -0.548093 0.0475402 0.402347 -0.914252
0.0725345 -0.124615 -0.600322 0.0495213 0.272355 -0.960922
0.235319 -0.158073 -0.115186 -0.445196 -0.732442 0.515102
-0.205086 -0.212542 -0.174324 -0.721256 -0.629512 -0.288971
0.321047 -0.174767 -0.119779 0.671747 -0.697916 -0.248335
0.0767104 -0.0290458 -0.0715021 -0.275276 -0.426621 0.86152
-0.197325 -0.209901 -0.199588 -0.786483 -0.540008 -0.299726
-0.180273 0.241473 -0.0315942 0.0746582 0.476356 -0.876077
0.182626 0.244806 -0.434886 0.0145808 0.401305 -0.915828
-0.0823667 0.121195 -0.0107946 -0.133125 -0.521083 0.84306
-0.158216 -0.345252 0.00269827 -0.663296 -0.716418 -0.216296
0.493307 0.0193162 -0.120955 0.818335 0.512856 0.259435
0.143194 -0.344609 -0.176181 0.696108 -0.704593 -0.137773
0.239574 -0.319825 0.0162286 0.693345 -0.662385 -0.283758
0.00943269 -0.0794751 -0.0489502 0.633661 0.577454 0.514802
0.300715 -0.205559 -0.0497883 -0.284411 0.320999 -0.903366
0.0433905 0.164347 -0.421238 -0.673575 0.684193 0.279601
-0.337532 0.168745 0.109393 -0.698506 0.639005 0.322121
-0.0697665 -0.441715 -0.0166866 -0.726239 -0.631461 -0.271723
-0.109459 -0.0328246 -0.122532 -0.582777 -0.284079 -0.76136
-0.109606 0.17046 0.026309 -0.555422 -0.712417 0.428916
0.28191 0.250217 -0.109241 0.28117 0.874239 0.39579
0.217204 -0.166511 0.329012 0.739587 0.651903 0.167433
0.0867283 -0.195127 -0.432015 -0.117848 0.170899 -0.978215
0.38743 -0.173431 0.0343947 0.666157 -0.726036 -0.170606
0.0491556 -0.370879 -0.332603 0.691468 -0.695083 -0.196802
0.131855 -0.251191 -0.4166 0.682485 -0.679315 -0.269714
-0.0733756 -0.254012 0.27144 -0.666364 0.616109 0.419963
-0.0193992 -0.0395825 -0.563029 -0.0245793 0.419322 -0.907505
-0.172552 0.103529 0.0188475 0.686636 0.306824 0.659083
0.4855 -0.042325 -0.0383365 0.693421 -0.683224 -0.22885
0.266528 -0.31157 0.0651353 0.766168 -0.568331 -0.299976
0.192486 0.103378 0.0847776 -0.722313 0.572028 0.388648
-0.0637859 -0.27734 -0.396476 -0.599404 -0.748673 -0.283205
0.463067 -0.171261 0.205367 0.692593 -0.675546 -0.252887
-0.12415 0.0551406 0.0771727 0.397068 0.665912 -0.631584
0.111224 0.0032018 -0.0347168 -0.163204 -0.54229 0.824188
-0.322564 0.212654 0.0528736 -0.685535 0.68147 0.256205
0.353809 -0.0861088 -0.254359 0.694104 -0.668154 -0.267937
-0.200486 -0.413156 0.244291 -0.713996 -0.638378 -0.287546
0.150008 0.189162 -0.214762 -0.700591 0.640446 0.314645
0.116191 -0.125162 0.433641 -0.689506 0.682841 0.241475
-0.0744014 -0.00765512 -0.313187 -0.654401 0.719522 0.232481
0.138691 0.121375 -0.0796658 -0.686462 0.713441 0.140613
0.403853 -0.236414 0.448716 -0.0211665 -0.393673 0.919007
0.0144382 -0.355261 0.233344 -0.711226 -0.668201 -0.218323
0.24766 0.233766 -0.0907893 -0.703338 0.633136 0.323195
0.141792 0.219134 -0.316658 0.655398 0.595648 0.464389
0.38492 0.225685 -0.290341 0.715262 0.631628 0.299074
-0.118048 -0.0659775 -0.404617 0.554362 0.830107 -0.0600456
-0.0430382 -0.527731 0.094695 -0.675265 -0.694769 -0.247616
0.166628 -0.227576 -0.0495398 0.515177 0.713889 -0.474294
0.0644573 0.144752 -0.0631138 0.554219 0.701307 -0.448341
0.215739 -0.33224 -0.0133645 0.706641 -0.691726 -0.148906
0.12498 0.172992 -0.250568 -0.694349 0.659838 0.287216
0.212749 0.215385 -0.357189 0.184098 -0.24522 0.951827
0.45989 0.0869415 -0.16964 0.700413 0.632566 0.330577
0.371548 -0.174158 0.286922 -0.575205 -0.705277 0.414396
-0.234413 0.130712 0.185178 -0.130628 -0.581764 0.8028
0.333235 -0.0155962 -0.475218 0.694735 -0.666916 -0.269382
0.270576 -0.277047 -0.0131672 0.706643 -0.638801 -0.304284
-0.175075 -0.192846 -0.292695 -0.695916 -0.647851 -0.309823
0.152814 -0.396954 -0.0176214 0.690216 -0.668054 -0.27804
0.0493937 -0.0657264 -0.0871059 0.396979 -0.135573 0.90776
-0.00405667 -0.441624 0.264415 0.204587 0.270894 -0.940617
0.336471 0.262556 -0.261172 0.782316 0.568886 0.253674
-0.131995 -0.171136 -0.0715602 -0.682708 0.694413 0.227376
0.0312914 -0.405213 -0.299943 0.719313 -0.618125 -0.317033
0.484213 -0.147066 0.194353 0.685417 -0.674226 -0.274995
0.198933 -0.472295 0.28145 0.694826 -0.623954 -0.357629
0.469331 0.0499055 -0.121068 0.766434 0.558365 0.317501
-0.0530705 0.0417779 -0.366037 -0.690109 0.667068 0.280659
0.448154 0.128592 -0.25862 0.70655 0.63133 0.319701
0.311387 -0.344818 0.25152 0.695812 -0.685605 -0.213992
-0.000313486 -0.0360798 -0.443253 -0.707535 -0.695417 0.125652
0.0406133 -0.417834 0.362885 0.19263 -0.400439 0.895847
-0.00298007 -0.390623 0.276306 -0.445574 0.0138079 -0.895139
-0.197038 0.33229 0.0497555 -0.698961 0.628803 0.340676
0.232497 -0.346262 0.39313 -0.0261929 -0.402227 0.915165
0.252216 0.10787 0.207789 -0.412495 0.804293 0.427739
0.359937 -0.284215 0.228371 0.68509 -0.69638 -0.213794
0.00987235 -0.0403144 -0.565954 -0.0285402 0.416326 -0.908767
-0.283491 0.227505 -0.0164041 -0.392977 0.0247966 -0.919214
-0.0199782 0.0359402 0.071438 -0.368418 0.0171145 -0.929503
0.363982 -0.274971 0.212943 0.694188 -0.659116 -0.289256
0.443122 -0.240871 0.311406 0.718255 -0.691184 -0.0798338
-0.129512 -0.480109 0.214931 -0.735437 -0.624324 -0.263347
0.166813 0.154832 -0.0966839 -0.641603 0.732817 0.226551
0.137441 -0.520903 0.24715 0.700358 -0.646445 -0.302668
0.238344 0.314345 -0.402581 -0.0700836 0.474493 -0.877465
-0.207393 0.178994 0.142031 -0.00390226 0.354516 -0.935042
0.471487 0.0678627 -0.336851 0.682723 -0.683099 -0.259357
0.392156 -0.0444243 0.268177 0.788727 0.53493 0.302918
0.215681 0.148034 -0.47612 -0.0205712 0.419947 -0.907315
0.0862427 -0.217417 -0.6022 0.713051 -0.632472 -0.302553
0.0925182 -0.40741 0.368498 -0.0701379 -0.342247 0.936989
-0.0192037 -0.160729 -0.464148 0.601086 0.754361 0.263886
0.115351 -0.171656 -0.531883 -0.261009 -0.691873 0.673191
0.253648 -0.0683137 -0.543583 0.713941 -0.557489 -0.423667
0.00668432 -0.438526 0.350557 0.0493667 -0.452669 0.890311
0.0305457 -0.162385 0.313397 -0.672032 0.691635 0.264604
0.273496 0.167175 0.0942164 0.108921 0.943416 0.313215
-0.132864 -0.104466 0.012077 -0.680493 -0.729355 0.0704986
0.179405 0.1832 -0.13918 -0.760764 0.562112 0.324451
-0.21692 0.135644 0.0948234 0.571719 0.743888 -0.346076
0.33488 -0.329682 0.260082 0.715821 -0.622785 -0.315817
0.169746 -0.0768289 0.454909 -0.78186 0.541895 0.308295
0.467684 -0.036169 0.0565965 0.717601 0.635731 0.284421
0.390958 0.12355 -0.489372 0.0556485 0.382731 -0.922182
0.369352 -0.22724 0.248797 0.10321 -0.309144 0.945398
0.159368 0.202099 -0.259411 0.376697 0.750997 -0.542313
-0.038059 -0.389494 0.376014 -0.062707 -0.318331 0.945903
-0.226342 0.241182 0.205207 -0.70096 0.687324 0.190372
0.095519 -0.111252 0.345907 -0.745522 0.554112 0.370346
-0.0646328 -0.237342 -0.475541 -0.693346 -0.677404 -0.245756
0.318583 -0.255101 0.0475339 0.696496 -0.663472 -0.273311
0.321784 -0.247425 0.26313 0.540735 0.259672 0.80011
0.0534611 -0.584266 0.171222 0.643369 -0.720854 -0.257773
0.415128 0.0622297 -0.0165791 0.770201 0.569937 0.286289
0.0304082 -0.414139 0.363066 0.135586 -0.436117 0.889617
0.0453669 -0.0428658 0.156935 0.269423 -0.233687 0.934239
0.487948 -0.133282 0.219211 0.691863 0.575846 0.435577
0.385568 -0.217478 0.132925 0.674452 -0.700563 -0.233079
0.339134 0.139219 0.01187 0.707055 0.594911 0.382302
0.0956571 0.212491 -0.437756 -0.487894 0.771171 -0.408967
0.00605994 -0.210559 0.352153 -0.686076 0.672721 0.277029
0.246592 -0.426164 0.359584 0.174742 -0.567086 0.804909
0.231144 -0.0892046 -0.0409237 -0.711036 -0.699107 -0.0753397
-0.162976 0.291845 0.0160814 0.591226 0.596845 -0.542428
0.4114 -0.289913 0.418117 0.224608 -0.66305 0.714084
-0.195915 -0.106114 -0.374156 -0.692618 0.579871 0.428987
0.169111 -0.398603 0.021729 0.720285 -0.597793 -0.351899
0.444047 0.0730764 -0.413307 0.693877 -0.655221 -0.298698
0.254447 0.1376 -0.478737 0.193231 0.378416 -0.905242
0.38 -0.323123 0.392883 0.568736 -0.774051 0.278179
0.212731 -0.412026 0.154187 0.695662 -0.692103 -0.192479
0.284318 -0.153943 -0.270428 0.693902 -0.659314 -0.289491
0.443777 -0.0621694 -0.0896393 0.713423 -0.594816 -0.370434
-0.291873 0.179028 0.186944 -0.630739 0.614898 0.473358
-0.0386714 -0.407677 0.367242 0.108719 -0.514486 0.850579
0.0308943 -0.516947 0.173998 0.719612 0.641743 0.265188
0.171573 -0.409912 0.0511897 0.669495 -0.71362 -0.206212
0.358639 -0.0449333 0.351971 0.723311 0.61336 0.317193
-0.0778761 -0.482089 0.0892976 -0.732812 -0.554146 -0.394854
0.429468 -0.163074 0.439373 0.704449 0.64967 0.285796
-0.0878717 -0.115928 -0.597739 -0.128076 0.289535 -0.94856
0.0178445 -0.156577 0.26932 -0.654652 0.733327 0.183471
-0.171975 0.292296 0.181765 0.649783 0.406323 0.642405
-0.197641 -0.031739 0.0804952 -0.569211 -0.777819 0.266451
0.358002 0.0213151 -0.495296 0.725831 -0.611608 -0.314809
-0.22078 0.258439 0.16707 -0.723573 0.571572 0.386971
0.400085 0.202373 -0.284494 0.695507 0.625166 0.354171
0.372626 -0.0139119 -0.362781 0.634799 0.686912 -0.353811
0.345334 -0.147433 0.310567 -0.694172 -0.691005 0.201586
-0.30519 0.224613 0.0632818 -0.651343 0.726944 0.217495
-0.0297347 -0.600302 0.273685 -0.468434 -0.728055 0.500505
0.131526 -0.526882 0.317339 0.0644018 -0.516303 0.853981
0.412725 -0.058267 0.251603 0.774444 0.620574 0.122984
0.458235 -0.0898075 0.218388 0.703956 0.650038 0.286174
0.174813 -0.354113 -0.0607817 0.704128 -0.675798 -0.217946
0.379135 0.0445047 0.113386 0.702671 0.652904 0.282789
-0.0627026 -0.0452791 -0.149845 -0.663045 0.016432 -0.7484
0.338495 -0.0152631 -0.464558 0.687084 -0.679479 -0.257339
0.115232 -0.487717 0.105583 0.676675 -0.686872 -0.265175
0.109864 0.177019 -0.292113 -0.721087 0.57767 0.382532
0.0336889 -0.52762 -0.0208923 0.681171 -0.677721 -0.276947
-0.183204 -0.389394 0.154002 -0.764008 -0.603904 -0.227139
-0.0633471 -0.287192 -0.364591 -0.777167 -0.554915 -0.296786
0.440764 -0.0733541 -0.0805352 0.694489 -0.657736 -0.291665
-0.175698 0.187863 0.0184213 -0.0548703 -0.319344 0.946049
0.299154 0.294425 -0.226312 0.717785 0.645005 0.262209
0.361645 0.126005 -0.0159471 0.758224 0.569709 0.317062
0.0982614 -0.128672 -0.474513 -0.629235 -0.776151 0.0406519
-0.11856 0.119224 0.18732 -0.413634 0.41862 0.808495
-0.159431 0.097629 -0.113961 -0.313089 -0.0070986 -0.949697
0.278809 -0.00493249 -0.546743 0.240031 0.157286 -0.957939
0.195922 0.259519 -0.430833 -0.0643867 0.428054 -0.901457
0.223173 -0.264426 -0.165389 0.688037 -0.673627 -0.269873
-0.186452 -0.149913 -0.371653 -0.670046 -0.663536 -0.332805
0.0794907 -0.12534 0.334927 -0.673779 0.695773 0.248841
-0.213175 -0.384856 0.228927 -0.67045 0.726196 0.152108
0.0523669 0.117712 -0.496388 0.0538566 0.384596 -0.921512
0.117906 0.0093868 -0.0265748 -0.361834 -0.603685 0.710381
-0.0887774 -0.0492239 -0.365411 -0.0354804 0.423752 -0.905083
-0.170535 0.0987634 -0.110775 -0.395495 -0.0218964 -0.918207
0.331716 -0.291549 0.158538 0.702963 -0.680144 -0.207959
0.23959 0.298626 -0.262556 -0.7121 0.670465 0.208304
-0.0756704 -0.309426 0.30441 -0.459078 -0.176241 -0.870739
-0.068461 -0.160547 -0.605711 -0.516165 -0.176736 -0.838056
0.151087 0.102837 -0.0246772 -0.351404 0.919257 0.177428
-0.249818 0.0986101 -0.00328952 -0.579408 -0.51289 -0.633427
0.257098 -0.12808 -0.0885932 -0.296815 -0.57424 0.762987
-0.0421528 0.0966553 -0.482617 -0.580991 0.777147 -0.241853
0.31749 0.0434838 0.257938 0.724501 0.626411 0.28759
0.464023 -0.031146 0.0646552 0.786371 0.60958 0.10017
0.189795 -0.154149 -0.0190167 -0.437349 0.0330992 -0.898682
0.0893696 -0.322618 0.404397 0.0076675 -0.416674 0.909024
0.453258 0.197296 -0.446868 0.407228 0.699511 -0.587239
-0.231704 0.114465 -0.0304011 -0.563286 -0.275638 -0.77893
0.0288408 0.0207671 0.167252 0.355943 -0.0767422 0.931351
0.497711 -0.0240288 -0.0363669 0.718634 0.632172 0.289696
0.182419 -0.142435 0.350055 0.76213 0.639497 0.101005
0.0933562 -0.1466 0.427004 -0.661228 0.70597 0.253739
0.347076 0.294558 -0.353771 0.751274 0.60317 0.267905
-0.07987 0.199857 0.144285 0.65244 0.402512 0.642111
0.0721654 -0.215237 -0.435852 -0.00288793 0.658832 -0.752285
0.298689 -0.272157 0.0515927 0.691901 -0.64593 -0.322564
0.386379 -0.116181 -0.104098 0.693489 -0.66273 -0.2826
0.478915 -0.129949 0.248736 0.692687 0.608237 0.387598
0.107605 -0.0712674 0.287209 -0.693203 0.660607 0.288213
0.25286 -0.161916 -0.338753 0.69164 -0.695889 -0.193317
-0.089673 -0.406469 -0.0289158 -0.770459 -0.578116 -0.268652
0.0273068 -0.363551 -0.407385 0.684557 -0.654119 -0.321729
-0.1181 -0.16573 -0.50514 -0.652345 -0.662162 -0.368764
0.251194 0.0273355 0.391346 -0.391658 0.870589 0.29779
0.169103 0.0985529 0.0464078 -0.612797 0.78393 0.0996653
0.049628 -0.0705173 0.153981 -0.58955 0.549805 0.59173
-0.0329997 -0.148618 0.113579 -0.643074 0.737393 0.206658
-0.0125314 -0.0505471 -0.0467121 0.582294 0.459911 0.670385
-0.0157028 -0.0444951 -0.0490213 0.591326 0.40723 0.696058
0.188396 -0.295572 -0.170858 0.677541 -0.626223 -0.385725
-0.0654852 0.154578 0.20016 -0.682198 0.724295 0.100016
-0.119254 -0.114818 0.0369492 -0.647195 -0.744925 0.161943
0.0704522 0.0369526 0.148013 0.541077 0.177108 0.822112
0.0670451 -0.00374762 0.0323461 0.000401875 0.421246 -0.906946
0.275158 -0.100185 -0.413917 0.700932 -0.650508 -0.292463
0.253306 -0.181815 0.296063 0.538516 0.315594 0.781282
-0.1013 -0.110986 -0.144243 -0.691358 0.656779 0.301106
0.054482 0.169981 0.0703347 0.663443 0.716811 0.214535
-0.253992 0.0207556 0.00490026 -0.718093 -0.627778 -0.300395
0.0625305 -0.600299 0.231352 0.675449 -0.619165 -0.400504
0.468915 -0.205072 0.424112 0.653635 0.595762 0.466721
0.448265 0.0961491 -0.443525 0.697673 -0.634296 -0.333047
0.388291 -0.21442 0.129996 0.745257 -0.577351 -0.333554
0.0367796 -0.293648 -0.542533 0.692504 -0.608232 -0.387933
0.472055 -0.0193783 0.0284485 0.688787 0.663642 0.291808
-0.0622268 -0.468402 0.0153263 -0.779419 -0.559452 -0.281993
0.370848 0.0135145 -0.451329 0.69322 -0.666674 -0.273847
0.348864 0.00900407 -0.397054 0.753862 0.545529 0.366183
