ply
format ascii 1.0
comment Created by Open3D
element vertex 128
property double x
property double y
property double z
property double nx
property double ny
property double nz
end_header
0.0930375 -0.392818 0.20674 -0.293497 -0.860823 0.415744
0.0731627 -0.133448 0.033998 0.305767 0.779533 -0.546657
-0.0657804 0.03897 -0.0519363 0.867445 -0.486331 -0.104988
-0.106627 -0.13288 0.0055096 -0.951359 -0.282752 0.122338
-0.0333089 -0.134234 -0.472011 -0.999648 0.0188452 0.0186888
0.312646 0.1972 0.0923737 0.908321 -0.245832 -0.338407
-0.0423288 -0.399169 -0.292222 0.850771 -0.056421 -0.522498
0.21259 -0.0590254 0.0480396 -0.446181 0.0156751 -0.894806
0.0323603 -0.116109 0.215609 -0.477445 -0.179699 0.86009
0.212336 -0.0928126 0.150578 0.866207 -0.0987993 -0.48982
0.188594 -0.192437 0.333795 -0.593546 0.0228963 0.804475
0.194551 0.347832 -0.147889 -0.451402 0.891756 -0.0317417
0.004264 -0.360618 0.0943759 -0.96823 -0.243146 -0.0583941
0.291518 0.29937 -0.107302 0.770071 -0.636486 0.0433268
0.140037 0.123157 -0.339997 0.878896 -0.427561 -0.211501
0.109559 -0.0371361 -0.233164 0.842004 -0.134605 -0.522408
-0.0625586 -0.213423 -0.375445 -0.555043 0.237484 -0.797201
0.102714 0.0165568 -0.15716 -0.131328 -0.435906 0.890359
-0.0681141 0.110589 0.0754818 -0.295445 0.951105 0.0900586
0.209803 -0.226416 0.232521 0.795654 -0.553112 -0.246986
0.307345 0.405093 -0.0931347 -0.485903 0.764489 0.423621
-0.028884 -0.391387 -0.00962078 -0.87391 -0.401464 0.274057
0.186339 0.0866103 -0.164383 0.869649 0.0180605 -0.493339
0.0121803 0.0564182 0.170987 -0.343251 0.139109 0.928885
-0.133971 -0.0225405 -0.0415342 -0.940499 0.134242 -0.312154
0.264456 0.150062 0.0169714 0.908236 -0.331557 -0.255297
0.287423 0.0858272 0.116599 0.798691 -0.589642 0.120062
0.0750711 -0.212704 0.257544 -0.478562 -0.317934 0.818472
-0.165516 0.0546117 0.0451678 -0.822151 -0.547562 0.155702
0.194994 -0.18664 0.141371 0.832902 -0.253444 -0.491976
0.000928069 -0.533768 -0.0445267 0.890666 -0.262958 -0.3709
-0.0615993 -0.315569 -0.412058 0.857289 -0.421518 -0.295598
0.193877 0.163608 0.212043 -0.4506 0.595137 0.66541
0.231345 0.309759 -0.26161 0.723532 0.0651654 -0.687208
0.0564712 0.220231 -0.208665 -0.582185 0.571587 0.578229
-0.0786651 -0.224435 -0.00420312 -0.474011 -0.859694 0.190367
0.20905 -0.314801 0.357909 -0.647386 -0.0596249 0.759827
0.336602 0.394918 -0.0143882 -0.581112 0.699378 0.416147
-0.0458237 -0.244 -0.448437 -0.896011 0.245953 -0.369691
-0.0380516 -0.0505904 -0.120798 -0.164315 0.851799 0.497432
0.0857565 -0.162853 -0.0746603 0.592378 0.805057 0.0311717
0.273099 0.021293 0.157922 0.822455 -0.546867 -0.156541
-0.0388541 0.119052 -0.264788 -0.658669 0.697685 -0.281765
-0.0778973 -0.297884 -0.268657 -0.906247 -0.396088 0.147752
0.0286897 -0.0345709 0.221543 -0.492807 0.437196 0.75233
-0.133363 -0.0581153 0.0571228 -0.819424 -0.319837 0.475655
-0.0687994 -0.321745 -0.0445884 -0.966914 0.245446 0.0695235
0.388305 0.32151 0.166628 0.929267 -0.105852 -0.353919
0.141115 0.042155 -0.314394 0.638208 0.133039 -0.758282
-0.0384214 -0.282474 0.0760776 -0.954585 -0.209741 0.211604
-0.0140754 -0.0394084 0.11744 0.275694 0.187274 -0.942826
0.233005 0.166838 -0.0984605 0.869565 -0.470278 -0.150649
0.0525127 -0.174385 -0.278249 0.894425 -0.327287 -0.304774
0.116584 0.252112 -0.00486656 -0.634218 0.605319 0.480994
0.265708 0.339671 0.00483172 -0.47601 0.859845 0.184611
0.186546 0.318621 -0.0442868 -0.557149 0.777243 0.292366
-0.0919397 -0.192823 -0.20331 -0.604062 -0.787113 -0.124746
0.123572 -0.380152 0.150175 0.824522 -0.166167 -0.540881
0.192308 -0.0304664 0.312319 -0.637822 0.541017 0.548164
0.0854091 -0.0236331 0.109076 -0.281191 0.122686 -0.951777
0.383684 0.190358 0.31744 0.545115 -0.799241 0.253109
0.122223 -0.296447 0.0625845 0.784507 -0.109822 -0.610318
0.105167 0.0847283 -0.39529 0.931407 -0.159989 -0.326931
0.0933026 -0.496258 0.164705 -0.730914 -0.359288 0.580239
-0.0598355 0.0417114 -0.293881 -0.893695 0.444045 0.0642842
0.123164 0.290514 -0.159779 -0.263156 0.89909 -0.349838
0.257978 -0.121976 0.290596 0.828023 -0.104745 -0.550823
-0.054694 -0.40968 -0.171553 -0.931732 -0.339733 0.128284
0.0310715 3.65816e-05 -0.529902 0.895892 -0.303918 -0.324055
-0.0994295 -0.0210489 -0.213372 -0.991809 -0.0719001 -0.105571
0.0691405 0.215547 -0.338594 -0.858565 0.510905 -0.0429295
0.176424 -0.357052 0.282464 0.865329 -0.460516 -0.197814
0.310024 0.0188151 0.268479 0.927963 -0.331304 -0.170654
0.0547156 0.217289 -0.105588 -0.58703 0.765216 -0.264274
0.0844811 -0.303772 -0.0385981 0.916244 -0.400059 0.0212229
-0.0448777 0.151872 -0.032702 -0.491205 0.795775 -0.354204
0.273816 -0.22625 0.374673 0.789867 -0.61196 0.0401922
0.0917028 0.168953 -0.465902 -0.131036 0.219365 -0.966803
0.0627093 0.0963963 -0.0588439 0.335324 -0.899558 0.279915
0.180226 0.0655082 0.274837 -0.342938 0.338753 0.876151
0.288011 0.120878 0.301667 -0.378597 0.410109 0.829744
0.087626 -0.0235979 -0.339375 0.657555 0.0809851 -0.749041
0.206472 0.188626 -0.241155 0.899305 -0.436837 -0.0206053
0.125131 0.287382 -0.388373 -0.564978 0.776891 -0.277921
-0.110442 -0.170715 -0.111876 -0.954397 -0.190243 -0.230072
-0.0865543 0.0265764 0.107387 -0.418061 0.00379404 0.908411
0.182851 -0.144017 0.0679247 0.888722 -0.294063 -0.35171
0.331448 -0.0273494 0.379475 -0.119412 0.00477689 0.992833
0.0286322 0.098701 0.0607772 0.148979 -0.905392 -0.397581
0.128286 0.0808608 0.23395 -0.51943 0.678504 0.519447
0.173471 0.0921916 0.00507936 -0.0156192 -0.970493 -0.240624
0.00180172 -0.238291 0.161205 -0.783161 -0.062408 0.618679
0.0128126 0.20906 0.0327423 -0.0984268 0.994425 -0.0378198
0.0361312 -0.278639 -0.23362 0.843125 -0.534243 -0.0610214
0.319817 0.272612 0.0276389 0.743158 0.32805 -0.58318
-0.026278 -0.51307 -0.177805 0.772391 -0.107598 -0.625967
-0.0440074 -0.12517 0.151984 -0.770585 -0.149477 0.619561
0.0381511 0.0709903 -0.487141 -0.732493 0.543905 -0.409416
0.135331 -0.222755 0.0151783 0.888081 -0.373484 -0.267997
-0.121119 0.030251 -0.13844 -0.196682 0.810149 -0.552245
0.344347 0.0730491 0.372856 0.825097 0.0119541 -0.564865
0.357431 0.25988 0.205433 -0.489249 0.512565 0.70563
0.160855 0.281463 0.070922 -0.478657 0.757548 0.443856
0.33539 0.135621 0.216883 0.619746 -0.763911 -0.179873
-0.0887623 -0.290045 -0.171968 -0.744313 -0.646936 -0.165751
0.0131936 -0.342461 -0.197667 0.852212 -0.0442397 -0.521323
0.0533573 0.144909 0.131726 -0.306949 0.566652 0.764649
0.0326026 -0.515548 0.0710984 -0.942104 -0.0628872 0.32937
-0.0536352 -0.0377578 -0.365434 -0.796713 0.458366 -0.393889
0.0505305 -0.287024 -0.136158 0.89504 -0.320171 -0.310475
0.0295138 -0.150459 -0.384341 0.80312 -0.569 -0.176741
0.0557489 -0.294884 0.211899 -0.54692 -0.435676 0.714888
-0.0793863 -0.13707 -0.291006 -0.993653 0.0242472 -0.109841
0.0260761 0.0116586 -0.144691 0.729065 -0.441958 0.522626
-0.0131306 0.0932859 -0.348531 -0.98657 0.150021 -0.0645967
0.0790062 -0.186426 -0.18166 0.898928 -0.435338 -0.0490759
-0.110062 -0.0698927 -0.14518 -0.674281 -0.631721 0.382458
0.282308 0.287457 0.110637 -0.302829 0.951641 0.0517201
0.22561 0.237752 -0.172137 0.911 -0.223966 -0.346293
-0.050986 -0.0870386 0.0488772 0.937376 0.148052 -0.315289
0.28672 -0.125101 0.406107 -0.553934 0.201234 0.807875
-0.0640401 0.142072 -0.125184 -0.529648 0.730542 -0.431024
0.209316 0.032175 0.0181531 0.927973 0.160422 -0.336349
0.109395 -0.121661 0.288701 -0.598198 0.120276 0.792271
0.271709 0.386954 -0.196109 -0.617554 0.770629 0.157344
0.0782191 -0.407782 0.05383 0.826823 -0.265513 -0.49585
0.267917 0.234675 -0.0572971 0.901861 -0.430021 -0.0415798
0.126731 0.279037 -0.284569 -0.655117 0.734083 -0.17873
