ply
format ascii 1.0
comment Created by Open3D
element vertex 128
property double x
property double y
property double z
property double nx
property double ny
property double nz
end_header
0.374692 0.314306 0.203249 0.401769 0.694979 0.59631
0.0346835 -0.00208725 -0.10431 -0.616727 0.272386 -0.738548
0.0436481 -0.084845 -0.150961 0.661545 0.0824428 -0.74536
-0.0556798 0.0272791 0.127148 -0.680374 -0.0734175 0.729179
0.102531 0.363033 -0.0234533 -0.720126 0.26217 -0.642406
-0.0126855 0.497572 0.119574 -0.510524 0.676946 -0.530198
0.127327 0.183348 0.0870953 -0.53369 0.671594 -0.513942
0.113867 -0.255188 0.0637501 0.58972 -0.64953 0.479939
-0.0880488 -0.50089 -0.0190696 0.540927 -0.650007 0.53375
0.167927 0.201718 -0.00811786 0.692053 0.0432067 -0.720552
0.263611 0.225828 0.447569 0.414515 0.756443 0.505936
0.189644 0.0380407 0.352272 -0.00917041 -0.53527 0.844631
-0.0583215 -0.253145 -0.25872 0.645946 0.136122 -0.751149
-0.177547 -0.204403 -0.0644249 -0.563731 0.648745 -0.511212
0.411748 0.184291 0.303974 0.72041 -0.614545 0.32147
0.0663027 -0.157325 0.114531 0.888732 0.384892 -0.249025
0.357172 0.0721119 0.213676 0.56389 -0.649273 0.510366
0.0701446 -0.0237932 0.253416 -0.685225 -0.0851159 0.723341
0.173362 -0.048537 0.270012 0.583053 -0.649211 0.48844
0.28074 0.339892 0.255159 0.442521 0.752412 0.487904
0.107681 -0.361831 -0.106832 0.852351 -0.163647 -0.496707
0.401859 0.171558 0.215948 0.671214 0.0671222 -0.738218
-0.206887 -0.445258 -0.145179 -0.485294 -0.813011 -0.321718
0.0242483 -0.060262 -0.0291773 -0.127318 0.660166 0.740251
0.122074 0.23522 0.163472 -0.644719 0.677297 -0.354409
-0.215336 -0.293049 -0.136431 -0.574193 0.6546 -0.491734
-0.074273 0.231335 0.134996 -0.787884 -0.00256673 0.615818
0.11306 0.484561 0.168368 0.719807 -0.626719 0.298498
-0.114699 -0.134695 -0.0505657 -0.526795 0.669175 -0.524111
-0.201054 -0.304964 -0.0375181 -0.683036 -0.0863838 0.725258
-0.0232134 -0.244782 -0.0444012 0.413396 0.700673 0.581517
-0.264625 -0.356106 -0.0940651 -0.71036 -0.0311066 0.703151
0.139576 0.114342 0.169027 -0.200797 -0.738623 -0.643519
0.0565923 -0.354453 0.00623437 0.581913 -0.697114 0.418819
0.129204 0.367671 0.331557 -0.675183 -0.144793 0.7233
0.1514 -0.0366781 0.132073 0.468108 0.797774 0.380042
0.257285 -0.121224 0.0877758 0.673773 -0.643299 0.363588
0.272058 0.117671 0.374134 0.401222 -0.677415 0.616547
0.223295 0.402409 0.0583832 0.651404 0.229113 -0.723312
0.0388367 0.428764 0.135251 0.808604 -0.558529 0.184944
-0.183781 -0.496557 -0.0632483 -0.757773 -0.648952 0.0681353
0.0205789 -0.191962 -0.179661 0.687033 0.0807245 -0.722128
0.220219 0.410931 0.177721 -0.877111 0.465612 0.117821
0.109558 0.225289 0.309289 -0.698552 -0.0277347 0.715022
0.000731693 -0.142743 -0.0176652 -0.562651 -0.759054 -0.327507
-0.0287 0.426796 0.185121 -0.757744 -0.0100443 0.652475
0.204542 0.0345927 0.10373 -0.74603 -0.00570398 0.665887
-0.150769 -0.225652 0.0189208 -0.726107 0.0632243 0.684669
0.00804298 0.000961275 0.0653512 0.386859 -0.496405 -0.777124
0.303301 0.376529 0.129839 0.680993 0.06133 -0.729717
0.109829 0.161762 -0.0710084 0.612257 0.0937456 -0.785081
-0.118328 -0.472233 -0.186508 -0.384146 -0.795556 -0.468533
0.270627 0.16167 0.089257 0.6678 0.102526 -0.737246
0.109906 -0.0359253 0.0461709 -0.850853 -0.485248 0.201454
0.109089 -0.0809173 -0.084504 0.73329 -0.0405258 -0.678707
0.246895 -0.0243705 0.0457327 0.742014 -0.071338 -0.666577
-0.175701 -0.408614 -0.0115941 -0.678654 -0.0756101 0.730556
-0.0146755 -0.172851 0.160657 -0.74087 0.0355317 0.670708
0.212621 0.0286121 0.191484 -0.61858 0.651965 -0.43852
-0.228668 -0.370938 -0.224424 -0.524881 0.612887 -0.590651
0.0245975 0.517021 0.204209 0.36421 0.869589 0.333416
0.0684508 0.451976 0.26631 0.431686 0.800928 0.414924
0.304291 0.0829928 0.116723 0.726637 -0.0891637 -0.681211
0.0255362 0.236987 0.2255 -0.71585 0.0609635 0.695588
0.034615 0.140315 0.228699 -0.67997 -0.0928337 0.72734
0.225075 -0.0945686 0.16259 0.528855 -0.659259 0.534499
0.209766 0.313248 0.356345 0.512707 0.752462 0.413439
0.121276 -0.179073 -0.0787933 0.648958 0.0993086 -0.754315
-0.0869394 0.0689871 0.0622819 -0.75619 0.319491 -0.571053
0.0951808 0.274531 -0.0521847 -0.731927 0.30753 -0.608036
-0.0554569 0.147356 0.0982068 0.729521 -0.0491563 -0.68219
0.344327 0.125668 0.302894 0.657403 -0.644594 0.390283
-0.00247457 -0.373474 -0.0829543 -0.775589 -0.208496 0.595812
0.0959148 0.0174425 0.172919 0.808805 0.399458 -0.431587
0.0786054 -0.133005 0.027172 0.193952 0.546803 0.814487
0.345197 0.194076 0.386311 0.555061 -0.65242 0.516
-0.0357492 -0.120333 -0.110088 -0.713873 -0.28231 0.640848
0.344303 0.142854 0.155048 0.668006 0.0855135 -0.739226
0.0908486 0.0905741 0.0150662 -0.620226 0.665335 -0.41551
0.18499 -0.0415211 -0.00551788 0.633779 0.10873 -0.765834
0.207693 0.0822214 0.0217543 0.665217 0.0694576 -0.743413
-0.0184149 -0.286155 0.141103 -0.478846 -0.180665 0.859108
-0.0655167 -0.103115 0.116161 -0.682996 -0.0891991 0.724955
-0.102549 -0.184999 0.0728615 -0.645286 -0.0736802 0.76038
0.129351 0.0291392 -0.0601863 0.724129 0.0250925 -0.689208
0.359155 0.262567 0.290622 0.449035 0.770825 0.451881
-0.0047096 -0.0427358 0.179761 -0.780238 0.0441529 0.623922
-0.0337906 -0.424156 -0.243286 0.526243 -0.139198 -0.838864
-0.000284935 -0.498219 -0.198538 0.326383 -0.407179 -0.853041
0.0454528 -0.462842 -0.11976 0.526624 -0.634987 0.565207
-0.074399 -0.526042 -0.0934706 0.189173 -0.979885 0.0635448
-0.105053 -0.0333287 0.0369646 -0.690473 0.268062 -0.671856
0.282349 0.263389 0.365956 0.423219 0.775188 0.469008
0.0142277 -0.348574 -0.195068 0.681275 0.104602 -0.724515
0.0635307 -0.272089 -0.139977 0.718385 0.031108 -0.69495
0.0784661 0.524805 0.0582219 -0.563147 0.651877 -0.50786
0.177281 0.51347 0.0224568 0.707714 0.0321128 -0.705769
-0.0634313 0.332642 0.142711 -0.635347 0.226567 -0.738242
-0.026696 0.18053 0.17319 -0.696478 -0.0439201 0.716233
0.00463833 0.278533 0.164647 0.71631 -0.00851317 -0.69773
0.165047 0.37295 0.235993 -0.399454 -0.769194 -0.498776
-0.030975 -0.444772 -0.0096549 0.735478 -0.511704 0.444108
0.0219198 -0.235369 0.0605266 0.302326 -0.233831 -0.924079
0.316483 -0.0137891 0.149916 0.790114 -0.576834 0.207323
0.126453 0.423514 0.0523872 -0.459014 -0.72761 -0.509794
0.198401 -0.210348 0.00182169 0.89712 -0.415728 -0.149482
0.165452 -0.176743 0.112106 0.455966 -0.684677 0.568605
-0.113235 -0.425094 0.0497699 -0.581621 -0.265547 0.768896
0.0790121 -0.12879 0.248845 -0.292556 -0.38877 0.873653
-0.0128027 -0.357808 0.0793415 0.508357 -0.647059 0.568233
0.230756 0.239935 0.0515026 0.700286 0.00399716 -0.713851
-0.133602 -0.374705 -0.296943 0.00124304 -0.617105 -0.78688
0.192195 0.177182 0.379783 -0.63972 -0.0681482 0.765581
0.136784 -0.310432 -0.0253639 0.574785 -0.650052 0.497046
-0.12798 -0.319984 0.0399157 -0.65897 -0.115306 0.743279
0.00789167 0.0510563 0.198057 -0.65795 -0.0879439 0.747908
-0.0817135 -0.302324 -0.157861 -0.630815 0.0164039 0.775759
-0.14428 -0.304562 -0.231982 -0.469026 0.672619 -0.572362
0.200986 0.469601 0.112777 0.436501 0.763031 0.476708
0.227024 0.317493 0.103417 -0.686362 -0.0718903 0.723698
0.154123 0.294441 0.032707 -0.669601 -0.0659124 0.739791
-0.104089 -0.195996 -0.135479 -0.451288 0.671594 -0.587622
0.109935 0.102251 0.293051 -0.72789 0.0347775 0.684811
0.0240132 0.090515 0.111131 0.880244 0.345218 -0.325567
0.0568094 -0.2263 0.181945 0.378425 -0.588523 0.714448
0.262713 0.0502888 0.297094 0.582796 -0.651307 0.48595
-0.11538 -0.325944 -0.072923 0.695479 -0.089101 -0.713
0.0291273 0.337692 0.23692 -0.719981 -0.00865453 0.69394
