ply
format ascii 1.0
comment Created by Open3D
element vertex 512
property double x
property double y
property double z
property double nx
property double ny
property double nz
end_header
0.333468 0.20304 0.383271 0.580707 0.068403 0.811234
0.0855325 0.245201 0.0650699 0.80527 0.0982039 -0.584719
-0.0209973 0.012936 0.0650907 0.565827 -0.421932 0.708388
0.299884 0.141056 0.248875 0.80527 0.0982038 -0.584719
-0.0797171 0.171829 -0.139051 -0.480099 -0.470688 -0.740241
-0.116255 0.269184 -0.208802 0.80527 0.0982038 -0.584719
0.0541106 -0.124049 -0.0402198 0.80527 0.0982039 -0.584719
0.114041 0.187118 0.0945764 0.80527 0.0982039 -0.584719
0.317585 0.165002 0.387581 0.575121 -0.369125 0.730057
0.0319171 -0.0600457 -0.0600351 0.80527 0.0982039 -0.584719
0.085239 0.291645 0.108164 -0.0612535 0.99469 0.0827013
-0.0636852 0.234499 -0.142229 0.80527 0.0982039 -0.584719
0.0276473 0.224706 0.263628 -0.80527 -0.0982039 0.584719
0.187751 0.245798 0.374976 0.80527 0.0982036 -0.584719
-0.131802 -0.30045 -0.325884 0.80527 0.0982039 -0.584719
0.0891116 0.0861411 0.0432849 0.80527 0.0982044 -0.584719
-0.214829 -0.356854 -0.261888 -0.805269 -0.0982049 0.58472
-0.0926557 0.138679 -0.0104071 -0.80527 -0.0982039 0.584719
-0.27889 -0.243 -0.417973 -0.50261 0.636209 -0.585339
-0.172942 0.295673 -0.282422 0.80527 0.0982038 -0.584719
-0.0769773 -0.125495 -0.0331832 -0.80527 -0.0982039 0.584719
0.260054 0.239722 0.3178 0.176889 -0.981068 0.0788396
-0.092241 -0.30831 -0.104189 0.395394 -0.823825 0.406172
0.120903 0.271467 0.37727 -0.0612533 0.99469 0.082701
-0.244598 0.257884 -0.199641 -0.80527 -0.0982039 0.584719
-0.0534824 -0.186966 -0.196688 -0.541353 0.524002 -0.65754
-0.0545687 0.0631018 -0.0862263 -0.480099 -0.470688 -0.740241
0.175285 0.156089 0.432768 -0.514579 0.605653 -0.606954
0.0322731 0.131383 0.160418 -0.80527 -0.0982038 0.584719
-0.0016565 -0.111912 0.0112886 0.5808 -0.328941 0.744627
0.293645 0.142115 0.353148 -0.805269 -0.0982031 0.58472
-0.117426 0.232368 -0.153088 -0.480099 -0.470688 -0.740241
0.226972 0.112564 0.242423 0.0612527 -0.99469 -0.082701
-0.107049 -0.352278 -0.216315 0.250062 -0.950439 0.184756
0.0692731 0.278747 0.25147 -0.0612545 0.99469 0.0827025
-0.0990412 0.327028 -0.17538 0.80527 0.098204 -0.584719
0.26712 0.205485 0.214573 0.80527 0.0982039 -0.584719
-0.209387 -0.234912 -0.334171 -0.0612535 0.99469 0.0827011
-0.311169 -0.334787 -0.40274 -0.527149 -0.332824 -0.781883
-0.0890945 0.349351 -0.143927 0.208169 0.876577 0.43391
0.00432852 0.00773562 -0.0866459 0.80527 0.0982042 -0.584719
0.318428 0.273587 0.344789 0.241822 0.846035 0.475128
-0.147221 -0.246849 -0.150303 -0.805271 -0.0982063 0.584717
-0.270127 0.387439 -0.340672 -0.210194 0.96942 -0.126662
0.0690445 0.0881217 0.0742067 0.392107 -0.827942 0.400953
-0.108181 -0.23958 -0.28313 0.80527 0.0982039 -0.584719
0.0188971 -0.0977094 -0.0842917 0.80527 0.0982039 -0.584719
0.182358 0.261072 0.435995 0.214535 0.871105 0.441758
-0.231981 -0.230367 -0.40557 -0.0612535 0.99469 0.0827011
0.0948953 0.28413 0.205697 -0.0612535 0.99469 0.0827011
-0.0945315 -0.141312 -0.126511 -0.541353 0.524002 -0.65754
-0.23891 -0.245921 -0.276421 -0.80527 -0.0982038 0.584719
0.179392 0.193743 0.278174 0.589736 -0.0307806 0.807009
-0.0725829 0.299227 -0.0488096 0.0679846 0.96439 0.255598
-0.108249 -0.284007 -0.290685 0.80527 0.0982039 -0.584719
0.257238 0.119871 0.186585 0.80527 0.0982038 -0.584719
0.0181298 0.0599933 0.0748329 0.471968 -0.703078 0.531909
0.125203 0.171816 0.373405 0.551105 0.239765 0.799247
-0.255359 0.257683 -0.284234 0.0612534 -0.99469 -0.082701
0.00162986 0.127041 -0.070325 0.80527 0.0982039 -0.584719
-0.190845 0.357916 -0.11609 0.15391 0.917758 0.366103
-0.0563271 0.319407 -0.107924 0.207532 0.877117 0.433124
-0.112763 0.11508 -0.042062 -0.80527 -0.0982039 0.584719
-0.247649 0.376091 -0.183989 -0.80527 -0.0982036 0.584719
0.360809 0.224035 0.346718 0.80527 0.0982046 -0.584719
0.262656 0.158367 0.200512 0.80527 0.0982043 -0.584719
0.0533027 0.105869 0.168398 0.156314 -0.986461 0.0495981
-0.145555 -0.287437 -0.154826 -0.80527 -0.0982038 0.584719
0.233193 0.216318 0.449905 0.519635 0.358005 0.775765
-0.170928 -0.368313 -0.223672 0.196146 -0.974783 0.106415
-0.0476405 0.199178 0.0617482 -0.80527 -0.0982039 0.584719
0.0992166 0.109227 0.342798 -0.80527 -0.0982041 0.584719
0.317609 0.115165 0.278274 0.0612535 -0.99469 -0.0827011
-0.0488848 0.238053 0.0665638 -0.80527 -0.0982039 0.584719
-0.0317201 0.298556 -0.0874482 0.80527 0.0982039 -0.584719
-0.191349 -0.355005 -0.415236 -0.0619998 -0.966834 -0.247766
-0.179226 0.347062 -0.282446 0.80527 0.0982038 -0.584719
0.192361 0.159664 0.479547 -0.80527 -0.0982038 0.584719
0.336847 0.241748 0.316692 0.805268 0.098207 -0.584722
-0.0664032 0.105943 0.0202496 -0.80527 -0.0982039 0.584719
0.0702732 0.102692 0.301839 -0.80527 -0.0982041 0.584719
0.0441958 0.0961892 -0.0168852 0.80527 0.0982039 -0.584719
-0.114094 0.185196 -0.125255 -0.480099 -0.470688 -0.740241
-0.0726138 -0.20874 -0.0411547 -0.80527 -0.0982039 0.584719
0.312667 0.175886 0.335773 -0.541348 0.524018 -0.657531
-0.265453 -0.313597 -0.324343 -0.80527 -0.0982043 0.584718
0.195819 0.235378 0.462102 0.43311 0.576068 0.693226
-0.315117 0.298904 -0.289869 -0.80527 -0.0982034 0.584719
0.0808832 0.274517 0.310941 -0.0612533 0.99469 0.082701
-0.262278 -0.368711 -0.329226 -0.805269 -0.0982034 0.58472
-0.125234 -0.170554 -0.124537 -0.541353 0.524002 -0.65754
0.0575066 0.250918 0.0274331 0.80527 0.0982039 -0.584719
-0.0259053 0.248789 0.100014 -0.80527 -0.0982039 0.584719
-0.273917 0.35425 -0.405891 -0.589736 0.0307809 -0.80701
0.19622 0.112675 0.21831 0.0612549 -0.99469 -0.0827014
0.187732 0.144754 0.400533 -0.285518 0.928539 -0.237264
0.221525 0.130783 0.402173 0.80527 0.0982038 -0.584719
0.28824 0.290661 0.257966 0.80527 0.0982036 -0.584719
-0.0661692 -0.118906 -0.132005 -0.541353 0.524002 -0.65754
-0.11112 0.134746 -0.095104 -0.480099 -0.470688 -0.740241
-0.238766 0.261454 -0.317299 0.0612534 -0.99469 -0.082701
-0.168396 0.253477 -0.169234 0.0612534 -0.99469 -0.082701
-0.229475 0.338126 -0.353149 0.80527 0.0982042 -0.584719
0.201538 0.203633 0.124683 0.69259 0.102021 -0.714081
0.0348646 0.0844389 0.100089 0.369608 -0.854263 0.365547
-0.126694 -0.240364 -0.20734 -0.0612535 0.99469 0.0827011
0.161011 0.112758 0.191229 0.0612535 -0.99469 -0.0827011
-0.103597 0.295308 -0.0257743 0.0679846 0.96439 0.255598
0.142013 0.0990691 0.341807 0.0612535 -0.99469 -0.0827011
-0.00920104 0.19329 -0.0741147 0.80527 0.0982039 -0.584719
0.0270554 0.257609 0.174432 -0.80527 -0.0982039 0.584719
0.178718 0.196377 0.466923 -0.805271 -0.0982025 0.584718
0.0617455 0.161851 0.0183121 0.80527 0.0982039 -0.584719
0.279725 0.235137 0.280877 0.425998 -0.781762 0.455384
0.236469 0.129879 0.272352 -0.80527 -0.0982039 0.584718
0.184593 0.117663 0.149711 0.061258 -0.99469 -0.0827021
0.169164 0.14656 0.283849 0.589736 -0.0307806 0.807009
0.107593 0.278041 0.288344 -0.0612534 0.99469 0.082701
-0.231506 0.388667 -0.217009 -0.0153318 0.989307 0.14504
0.232934 0.172266 0.274602 -0.80527 -0.0982039 0.584718
-0.0440937 -0.038857 -0.0863882 -0.541353 0.524002 -0.65754
-0.329967 0.314751 -0.366438 -0.589736 0.0307806 -0.807009
-0.217139 -0.301833 -0.255829 -0.80527 -0.0982038 0.584719
0.0236974 0.276903 0.239888 -0.0612478 0.994691 0.0826912
-0.0832833 0.0608136 -0.0661479 -0.480099 -0.470688 -0.740241
-0.0788143 0.182968 0.0160935 -0.80527 -0.0982039 0.584719
0.0663682 0.284099 0.18494 -0.0612539 0.99469 0.0827001
0.357322 0.165572 0.356448 0.567221 -0.414734 0.711517
-0.166975 -0.237605 -0.270364 -0.0612535 0.99469 0.0827011
-0.0183243 0.131899 0.0908228 -0.80527 -0.0982039 0.584719
-0.250623 0.317487 -0.197927 -0.80527 -0.0982039 0.584719
0.130261 0.105281 0.258389 0.0612534 -0.99469 -0.082701
-0.356805 0.298177 -0.347403 -0.80527 -0.0982043 0.584719
-0.307524 0.381041 -0.32758 -0.210193 0.96942 -0.126661
-0.198591 -0.374008 -0.29102 0.0831825 -0.995146 -0.0525774
-0.0918989 -0.226392 -0.196527 -0.535155 0.544933 -0.64549
0.348643 0.189371 0.32414 0.80527 0.0982056 -0.584719
0.179621 0.251329 0.121014 -0.0184893 0.0817117 -0.996484
0.00355638 0.120417 0.119028 -0.80527 -0.0982039 0.584719
-0.274374 0.351001 -0.225008 -0.80527 -0.0982039 0.584719
0.258178 0.290462 0.216531 0.80527 0.0982036 -0.584719
-0.08458 0.311665 -0.0785416 0.18034 0.898895 0.399332
-0.0203451 -0.254003 -0.164585 0.80527 0.0982041 -0.584719
0.197651 0.164885 0.26418 0.443385 -0.0471164 0.895092
-0.143237 -0.260164 -0.334867 0.80527 0.0982039 -0.584719
-0.00314759 -0.223973 -0.135858 0.80527 0.098204 -0.584719
-0.00123438 0.0840063 -0.0814974 0.80527 0.0982039 -0.584719
-0.116988 0.23004 -0.028573 -0.80527 -0.0982039 0.584719
0.124127 0.111294 0.181525 0.0612535 -0.99469 -0.0827011
0.23114 0.14049 0.44151 0.547213 -0.502749 0.66918
0.0208872 0.187202 0.154113 -0.80527 -0.0982039 0.584719
0.154305 0.24257 0.32796 0.871402 0.0936976 -0.481538
-0.249242 0.33851 -0.380307 0.80527 0.098204 -0.584719
-0.268955 0.29391 -0.227135 -0.80527 -0.0982039 0.584719
-0.0345189 0.202369 -0.107457 0.80527 0.0982039 -0.584719
-0.0946564 -0.0897901 -0.0853492 -0.541353 0.524002 -0.65754
-0.249773 0.29605 -0.38817 0.80527 0.098204 -0.584719
0.0540923 0.00412744 0.00135422 0.580571 -0.330733 0.744011
-0.219378 0.257953 -0.260839 0.0612534 -0.99469 -0.082701
0.216343 0.295274 0.161617 -0.0612535 0.99469 0.0827011
0.23525 0.266898 0.180998 0.80527 0.0982033 -0.584719
-0.281551 -0.238469 -0.34484 -0.0612535 0.99469 0.0827011
0.148062 0.269785 0.416678 -0.0465318 0.993614 0.102795
-0.0341514 0.243016 -0.100125 0.80527 0.0982039 -0.584719
0.104581 0.230214 0.370506 -0.80527 -0.0982005 0.58472
0.203976 0.121437 0.118671 0.061258 -0.99469 -0.0827013
0.161708 0.158704 0.357183 0.401639 0.6351 0.659799
0.134947 0.197801 0.122442 0.579644 0.102903 -0.808346
-0.242241 0.393368 -0.266842 -0.0721638 0.99509 0.0677423
-0.036419 0.0305084 -0.0772729 -0.480099 -0.470688 -0.740241
0.0404446 -0.0243414 -0.0422946 0.80527 0.0982039 -0.584719
-0.127324 -0.321767 -0.135484 -0.80527 -0.0982041 0.584719
-0.0675007 0.271175 -0.141324 0.805269 0.0982053 -0.584719
0.0718156 0.103683 0.234315 0.0612517 -0.994691 -0.0826982
-0.178634 0.294729 -0.102607 -0.805273 -0.0982014 0.584715
-0.233941 -0.375455 -0.302186 0.0542663 -0.994256 -0.092251
-0.260472 -0.234447 -0.3776 -0.0612535 0.99469 0.0827011
-0.0804012 0.0721652 -0.00470127 -0.80527 -0.0982039 0.584719
-0.210253 0.36027 -0.322957 0.80527 0.0982045 -0.584719
-0.0656638 0.269631 0.0487593 -0.80527 -0.0982039 0.584719
0.261887 0.251391 0.215078 0.805269 0.0981992 -0.584721
-0.0700046 -0.168249 -0.0307609 -0.80527 -0.0982039 0.584719
-0.0358148 0.0777827 0.0576462 -0.80527 -0.0982039 0.584719
-0.0956613 -0.0459349 -0.0495731 -0.541353 0.524002 -0.65754
-0.126857 0.370902 -0.20632 0.80527 0.0982039 -0.584719
-0.314827 -0.287678 -0.400479 -0.589736 0.0307806 -0.807009
-0.0184601 0.264984 -0.0748253 0.80527 0.0982039 -0.584719
-0.279438 0.284055 -0.402414 -0.528177 -0.329258 -0.7827
0.236012 0.243436 0.290794 -0.805267 -0.0982023 0.584723
0.0226061 -0.167985 -0.0909866 0.80527 0.0982039 -0.584719
-0.228374 -0.367524 -0.353482 -0.0329827 -0.977241 -0.209552
-0.0440021 -0.15172 -0.176405 -0.541353 0.524002 -0.65754
0.00783059 0.0424694 -0.0759894 0.80527 0.0982039 -0.584719
0.276193 0.112219 0.283028 0.0612535 -0.99469 -0.0827011
-0.0140204 0.084201 0.0887391 -0.80527 -0.0982039 0.584719
0.0553379 0.100352 0.125335 0.271134 -0.938024 0.215862
-0.279416 0.389254 -0.293168 -0.156 0.986533 -0.0491522
0.345123 0.144177 0.311703 0.805271 0.0982046 -0.584718
0.186959 0.27285 0.399375 0.0125513 0.983143 0.182405
-0.0534713 -0.250238 -0.0504671 0.490925 -0.663427 0.564674
-0.233742 -0.321477 -0.281994 -0.80527 -0.0982038 0.584719
-0.0415042 -0.203255 -0.0132255 0.534407 -0.547366 0.64405
-0.0245507 -0.103118 -0.145036 0.80527 0.0982039 -0.584719
0.135161 0.140022 0.397473 -0.805269 -0.0982035 0.58472
-0.160513 0.390555 -0.249369 0.80527 0.0982041 -0.584719
0.289011 0.179103 0.240291 0.80527 0.0982034 -0.584719
0.167065 0.133227 0.327581 0.805276 0.0982012 -0.584711
0.0549501 -0.0355209 -0.00970227 0.592897 -0.139321 0.793134
0.0798212 0.139512 0.0394538 0.80527 0.0982039 -0.584719
0.0968384 0.161895 0.0666491 0.80527 0.0982039 -0.584719
-0.0588695 0.0658576 0.0238926 -0.80527 -0.0982039 0.584719
0.00594796 -0.014376 0.0317224 0.589624 -0.23629 0.772341
-0.077155 0.0355575 -0.00637906 -0.80527 -0.0982039 0.584719
-0.253155 -0.280847 -0.301905 -0.80527 -0.0982038 0.584719
-0.136024 0.366752 -0.161287 0.153911 0.917758 0.366103
0.168968 0.247015 0.287823 0.589736 -0.0307806 0.807009
0.00840742 -0.0417315 -0.0893365 0.80527 0.0982039 -0.584719
0.123471 0.275689 0.328385 -0.0612533 0.99469 0.082701
0.10167 0.289926 0.141006 -0.0612509 0.99469 0.0827044
-0.279947 -0.33801 -0.348403 -0.80527 -0.098204 0.584719
-0.00649017 -0.285087 -0.150725 0.80527 0.0982038 -0.584719
-0.0387614 -0.0408161 0.0336694 -0.80527 -0.0982039 0.584719
0.0668348 0.142304 0.303757 -0.80527 -0.0982039 0.584719
-0.0131084 0.208535 0.110877 -0.80527 -0.0982039 0.584719
-0.115621 0.0764957 -0.0524785 -0.80527 -0.0982039 0.584719
0.189008 0.119207 0.455112 0.473971 -0.699123 0.535331
0.156016 0.126041 0.423846 -0.805269 -0.0982034 0.584721
-0.0206857 -0.178115 -0.152309 0.80527 0.0982039 -0.584719
-0.262607 0.382512 -0.385375 -0.236594 0.957491 -0.165025
0.140336 0.292814 0.134913 -0.0612487 0.99469 0.0827092
0.0112148 -0.259127 -0.118792 0.455961 -0.732961 0.504845
-0.0434252 0.292152 0.00677246 -0.0612534 0.99469 0.082701
-0.18044 0.371116 -0.155753 0.126215 0.935191 0.330888
-0.213155 0.376016 -0.161082 0.0700152 0.963537 0.258251
0.0902139 0.103702 0.0960868 0.271134 -0.938024 0.215862
0.0245946 0.293545 0.0403929 -0.0612534 0.99469 0.082701
-0.0428252 -0.32531 -0.207521 0.80527 0.0982038 -0.584719
0.0215117 -0.190205 -0.0544226 0.534407 -0.547366 0.64405
-0.0641864 -0.0183732 0.00242351 -0.80527 -0.0982041 0.584719
-0.0814188 -0.190038 -0.176136 -0.541353 0.524002 -0.65754
0.0764571 0.188058 0.324693 -0.80527 -0.0982039 0.584719
-0.160899 -0.336278 -0.371973 0.80527 0.0982044 -0.584718
-0.108135 -0.176349 -0.0846343 -0.80527 -0.0982039 0.584719
-0.0232606 0.17594 0.0914213 -0.80527 -0.0982037 0.584719
0.267571 0.193463 0.26901 0.570137 0.142428 0.809109
-0.0503197 0.15087 -0.137868 0.80527 0.0982039 -0.584719
-0.2987 -0.274277 -0.363526 -0.80527 -0.0982037 0.584719
0.196637 0.134169 0.368466 0.805274 0.0982041 -0.584714
-0.184975 0.255289 -0.203313 0.0612534 -0.99469 -0.082701
0.210196 0.101835 0.381708 0.805269 0.0982033 -0.58472
0.0868789 0.267865 0.35245 -0.80527 -0.0982038 0.584719
-0.0650612 -0.279836 -0.0799685 0.455961 -0.73296 0.504845
-0.119951 -0.135777 -0.101171 -0.541353 0.524002 -0.65754
-0.197476 -0.289368 -0.414468 0.80527 0.0982039 -0.584719
0.23186 0.165388 0.15928 0.80527 0.0982039 -0.584719
0.113489 0.288085 0.171899 -0.0612535 0.99469 0.0827011
0.240118 0.285456 0.297316 -0.0612536 0.99469 0.0827009
-0.0235463 -0.22413 -0.0473976 0.506652 -0.626218 0.592583
-0.0568822 -0.29853 -0.222382 0.80527 0.0982039 -0.584719
-0.200815 0.281357 -0.1354 -0.80527 -0.0982038 0.584719
-0.201266 0.261857 -0.294379 0.0612534 -0.99469 -0.082701
0.147877 0.161179 0.123739 0.1794 0.092479 -0.97942
-0.0372894 0.113671 0.0616429 -0.80527 -0.0982039 0.584719
-0.103751 0.363773 -0.175696 0.80527 0.0982039 -0.584719
0.235266 0.174619 0.428459 0.80527 0.0982015 -0.584719
0.0355641 0.259495 0.280374 -0.80527 -0.0982039 0.584719
0.160894 0.0954965 0.399391 0.0759367 -0.995148 -0.0625566
0.219911 0.117409 0.17892 0.0612535 -0.99469 -0.0827011
-0.14841 0.184872 -0.0794334 -0.80527 -0.0982039 0.584719
-0.293067 0.322295 -0.255573 -0.80527 -0.0982039 0.584719
-0.172151 0.383586 -0.20044 0.0700152 0.963537 0.258251
0.162143 0.231331 0.449967 -0.805272 -0.0982019 0.584717
0.119675 0.135287 0.0936312 0.80527 0.0982039 -0.584719
-0.253897 -0.284386 -0.444879 -0.589736 0.0307809 -0.80701
-0.216574 0.250034 -0.163507 0.0612534 -0.99469 -0.082701
0.0183541 -0.0490866 0.0152717 0.592897 -0.139321 0.793134
0.0550381 0.0643432 0.0478334 0.471968 -0.703078 0.531909
0.321778 0.154894 0.281352 0.805271 0.0982039 -0.584717
-0.338203 0.312865 -0.319319 -0.805269 -0.0982042 0.58472
-0.157604 0.321243 -0.257004 0.80527 0.0982038 -0.584719
-0.0880495 -0.253593 -0.0699458 -0.80527 -0.0982041 0.584719
-0.0566163 -0.120475 -0.00429899 -0.80527 -0.098204 0.584719
-0.251516 -0.342648 -0.310027 -0.80527 -0.0982043 0.584718
-0.0557437 -0.246581 -0.212089 0.80527 0.0982038 -0.584719
0.126343 0.0973616 0.378163 -0.80527 -0.0982041 0.584719
-0.312516 -0.239306 -0.378002 -0.269392 0.939117 -0.213279
-0.186282 -0.308434 -0.214442 -0.80527 -0.0982039 0.584719
0.0434296 0.170732 0.183223 -0.894239 -0.0914956 0.438139
-0.197734 0.317811 -0.125035 -0.80527 -0.098204 0.584719
0.0583374 0.239766 0.308423 -0.805269 -0.0981989 0.584722
-0.146909 -0.366615 -0.254116 0.168447 -0.983444 0.0668139
0.300005 0.242649 0.312602 -0.0568148 -0.968869 -0.240967
0.288204 0.2243 0.246771 0.80527 0.0982033 -0.584719
-0.0446493 -0.164809 0.00473601 -0.80527 -0.098204 0.584719
-0.167778 0.337622 -0.0826027 0.234608 0.852923 0.46635
-0.301632 0.257692 -0.278219 -0.80527 -0.0982039 0.584719
0.234934 0.206261 0.283065 -0.80527 -0.0982039 0.584718
0.0405294 0.141347 -0.0143504 0.80527 0.0982039 -0.584719
-0.0568217 -0.301405 -0.124663 0.395394 -0.823825 0.406172
-0.245107 -0.247417 -0.448504 -0.584711 0.294959 -0.75572
0.0305284 0.154534 0.220849 -0.783144 0.00347421 -0.621831
0.0419966 0.236174 0.201236 -0.997656 -0.0584814 -0.0355373
0.0348431 -0.103608 -0.013542 0.585951 -0.282444 0.75953
-0.132145 0.264879 -0.0435954 -0.80527 -0.0982039 0.584719
-0.250517 0.254298 -0.239934 0.0612534 -0.99469 -0.082701
0.092607 0.14836 0.340267 -0.805271 -0.0982005 0.584718
-0.346778 0.366567 -0.322109 -0.80527 -0.0982032 0.584718
0.0721792 0.273741 0.0514732 0.80527 0.0982039 -0.584719
-0.0545292 0.195316 -0.1362 0.80527 0.0982039 -0.584719
-0.191144 0.393806 -0.291009 0.80527 0.0982045 -0.584719
-0.241588 0.264469 -0.355651 0.0612534 -0.99469 -0.082701
0.187919 0.290182 0.126403 0.40998 0.100618 -0.906528
-0.198257 -0.24177 -0.243444 -0.0612535 0.99469 0.0827011
0.10957 0.222916 0.0944315 0.80527 0.0982039 -0.584719
-0.0386659 -0.223949 -0.184769 0.80527 0.098204 -0.584719
-0.00818303 0.293892 0.0119438 -0.0612534 0.99469 0.082701
0.111976 0.256328 0.103356 0.80527 0.0982039 -0.584719
-0.128471 0.197365 -0.049875 -0.80527 -0.0982039 0.584719
-0.104766 -0.319046 -0.291773 0.80527 0.098204 -0.584719
0.0233101 0.285065 0.141429 -0.0612535 0.99469 0.0827013
-0.237084 0.39467 -0.316691 -0.12833 0.991679 -0.010181
0.183947 0.278328 0.278071 0.589736 -0.0307806 0.807009
-0.0694359 0.0209433 -0.0497771 -0.480099 -0.470688 -0.740241
-0.132001 0.134497 -0.0652952 -0.80527 -0.0982039 0.584719
-0.0604388 0.0969169 -0.103921 -0.480099 -0.470688 -0.740241
0.281894 0.11027 0.328801 0.162728 -0.984924 0.0586894
-0.0865094 -0.285874 -0.261059 0.80527 0.0982037 -0.584719
0.177884 0.100445 0.351826 0.0612534 -0.99469 -0.0827011
0.0250902 0.0991393 0.145111 -0.80527 -0.0982037 0.584719
0.136408 0.235864 0.127775 0.409968 0.100618 -0.906533
-0.120058 0.307176 -0.207659 0.80527 0.0982037 -0.584719
0.0297468 0.198698 0.222372 -0.718722 0.0135386 -0.695165
0.0388037 -0.0937904 -0.0562183 0.80527 0.0982039 -0.584719
-0.108606 -0.275187 -0.101883 -0.80527 -0.0982038 0.584719
-0.0340056 -0.27582 -0.102186 0.455961 -0.73296 0.504845
-0.108132 0.104617 -0.0778847 -0.480099 -0.470688 -0.740241
-0.00708507 -0.196396 -0.0359555 0.534407 -0.547366 0.64405
0.279961 0.278677 0.351744 0.12976 0.933091 0.335417
-0.206661 -0.254448 -0.421252 0.80527 0.0982038 -0.584719
-0.296282 0.259922 -0.341479 0.0612534 -0.99469 -0.082701
0.209986 0.239269 0.267727 -0.176567 -0.0923485 0.979947
-0.0283774 0.156045 -0.10678 0.80527 0.0982039 -0.584719
-0.0816783 0.137862 -0.116181 -0.480099 -0.470688 -0.740241
0.260989 0.151013 0.309669 -0.80527 -0.0982037 0.584719
-0.0901617 0.24689 -0.176611 0.805269 0.0982053 -0.584719
-0.00701389 -0.249573 -0.0901781 0.474014 -0.699037 0.535405
-0.0284352 0.116926 -0.113429 0.80527 0.0982039 -0.584719
0.131415 0.284735 0.225475 -0.0612535 0.99469 0.0827011
0.0237865 0.288436 0.101246 -0.0612535 0.99469 0.0827013
0.0208221 -0.204494 -0.0995752 0.80527 0.098204 -0.584719
0.00293748 0.265085 -0.0453397 0.80527 0.0982039 -0.584719
-0.29294 -0.30858 -0.361355 -0.80527 -0.0982037 0.584719
0.115592 0.11374 0.132261 0.128318 -0.991681 0.0101644
-0.192561 -0.369315 -0.340559 0.025222 -0.990969 -0.131699
0.213673 0.253223 0.148986 0.80527 0.0982039 -0.584719
-0.00617135 -0.161239 -0.010956 0.557011 -0.463238 0.68931
0.199102 0.105906 0.41888 0.323552 -0.899188 0.294574
0.0730953 0.193627 0.0392797 0.80527 0.0982039 -0.584719
-0.121131 -0.236707 -0.112669 -0.80527 -0.098204 0.584719
0.00453609 0.226002 -0.0497021 0.80527 0.0982039 -0.584719
0.026728 0.184404 0.255486 -0.846474 -0.0956733 0.523764
-0.0858561 -0.082496 -0.0381892 -0.80527 -0.0982039 0.584719
0.155108 0.214703 0.301263 0.910035 0.021622 0.413968
0.32503 0.120727 0.325806 0.323553 -0.899188 0.294575
-0.140825 0.288886 -0.239331 0.80527 0.0982038 -0.584719
-0.24149 -0.236028 -0.34452 -0.0612535 0.99469 0.0827011
0.16367 0.120516 0.119415 -0.30738 0.0600312 -0.949691
-0.0845042 -0.00040188 -0.0225396 -0.80527 -0.0982046 0.584719
-0.0251262 -0.0747434 0.0421443 0.592007 -0.18752 0.783814
-0.15599 0.239133 -0.0807592 -0.80527 -0.0982039 0.584719
0.192504 0.109139 0.258087 0.0612535 -0.99469 -0.0827011
-0.0953557 0.290105 -0.176506 0.80527 0.0982038 -0.584719
-0.197509 -0.237343 -0.296135 -0.0612535 0.99469 0.0827011
-0.142583 0.350535 -0.231398 0.80527 0.0982041 -0.584719
-0.217115 -0.359982 -0.389369 -0.0619992 -0.966834 -0.247765
-0.166713 -0.256144 -0.178709 -0.80527 -0.0982037 0.584719
0.0632396 0.287117 0.14633 -0.0612535 0.99469 0.0827013
0.169737 0.291235 0.175678 -0.0612535 0.99469 0.0827011
-0.0166535 0.284731 0.115848 -0.0612535 0.99469 0.0827013
-0.122876 -0.236667 -0.248983 -0.0612535 0.99469 0.0827011
-0.229259 0.297426 -0.359688 0.80527 0.0982038 -0.584719
-0.354281 0.33829 -0.347771 -0.589736 0.0307806 -0.807009
-0.0632189 -0.0190361 -0.054847 -0.541353 0.524002 -0.65754
-0.00452611 -0.0824496 -0.113987 0.80527 0.0982039 -0.584719
0.122549 0.100635 0.308554 0.0612535 -0.99469 -0.0827011
-0.246408 -0.327976 -0.449291 -0.513055 -0.378883 -0.770209
0.0258171 0.0639264 -0.0476147 0.80527 0.0982039 -0.584719
-0.0735931 -0.331566 -0.179073 0.326263 -0.896845 0.298701
-0.0301751 -0.00355298 -0.0709666 -0.58159 0.322606 -0.746779
-0.0706624 0.21638 0.0329318 -0.80527 -0.0982039 0.584719
-0.0359413 0.286038 0.0858498 -0.0612535 0.99469 0.0827013
-0.235654 0.344346 -0.172802 -0.80527 -0.0982036 0.584719
-0.104955 0.186958 -0.0192371 -0.80527 -0.0982039 0.584719
-0.215567 0.343555 -0.145271 -0.80527 -0.0982038 0.584719
-0.139971 -0.201793 -0.132751 -0.80527 -0.0982039 0.584719
0.22091 0.291907 0.205491 -0.0612535 0.99469 0.0827011
0.061448 0.122178 0.0112392 0.80527 0.0982039 -0.584719
-0.117695 -0.342366 -0.163947 0.301568 -0.916935 0.261318
-0.144832 -0.366803 -0.342351 0.0831826 -0.995146 -0.0525774
0.221448 0.206468 0.15184 0.80527 0.0982039 -0.584719
-0.320137 0.345861 -0.288897 -0.80527 -0.0982039 0.584719
0.0451667 0.126825 0.204883 -0.865483 -0.0116588 -0.500803
-0.071212 -0.338219 -0.248783 0.80527 0.0982039 -0.584719
-0.10057 -0.126035 -0.0657651 -0.80527 -0.0982039 0.584719
-0.125953 -0.333665 -0.323407 0.80527 0.0982039 -0.584719
-0.0357202 -0.125959 0.0235578 -0.80527 -0.0982039 0.584719
-0.118129 -0.210868 -0.162513 -0.541353 0.524002 -0.65754
-0.045133 0.0340362 0.0374659 -0.80527 -0.0982042 0.584719
-0.0958938 0.215578 -0.00195127 -0.80527 -0.0982039 0.584719
-0.277367 -0.32837 -0.428102 -0.551434 -0.23831 -0.799455
-0.147993 0.259247 -0.223527 0.0612534 -0.99469 -0.082701
0.164421 0.193272 0.334025 0.805269 0.0982039 -0.58472
0.132841 0.108391 0.222896 0.0612535 -0.99469 -0.0827011
-0.188486 -0.273862 -0.21167 -0.80527 -0.0982038 0.584719
-0.29556 0.371866 -0.379852 -0.466512 0.713602 -0.522626
-0.240355 0.391137 -0.359229 0.80527 0.0982039 -0.584719
0.322933 0.282923 0.304445 0.805271 0.0982032 -0.584718
-0.200062 0.304524 -0.318285 0.80527 0.0982038 -0.584719
0.127112 0.245628 0.404124 -0.80527 -0.0982038 0.584719
-0.0918819 0.288614 0.0134264 -0.0612534 0.99469 0.082701
0.0427607 -0.155909 -0.0469144 0.557011 -0.463238 0.68931
-0.0282234 -0.0537816 -0.111348 -0.541353 0.524002 -0.65754
-0.162498 -0.315264 -0.182833 -0.80527 -0.098204 0.584719
0.00217363 -0.182385 -0.121544 0.80527 0.0982039 -0.584719
0.0470937 0.209047 0.00606026 0.80527 0.0982038 -0.584719
0.101045 0.107526 0.209749 0.0612535 -0.99469 -0.0827011
-0.190639 0.257911 -0.239045 0.0612534 -0.99469 -0.082701
-0.0584316 -0.0604366 0.00328442 -0.80527 -0.0982039 0.584719
-0.0860005 -0.322296 -0.140878 0.373231 -0.850235 0.371213
0.270781 0.115731 0.236777 0.0612535 -0.99469 -0.0827011
-0.169628 0.21243 -0.104026 -0.80527 -0.0982039 0.584719
-0.301296 0.335892 -0.386583 -0.589736 0.0307809 -0.80701
0.173349 0.224993 0.351648 0.805273 0.0982066 -0.584714
0.0498911 0.292717 0.0690823 -0.0612534 0.99469 0.082701
0.287481 0.24342 0.361674 -0.805269 -0.098205 0.58472
-0.173506 -0.242636 -0.214688 -0.0612535 0.99469 0.0827011
0.153754 0.283532 0.256484 -0.0612535 0.99469 0.0827011
0.0241387 0.0132679 -0.0584344 0.80527 0.0982019 -0.584719
-0.125524 -0.365626 -0.30139 0.14034 -0.989734 0.0270487
0.164267 0.22609 0.411186 -0.0568111 -0.96887 -0.240962
0.225829 0.248274 0.427833 0.805272 0.0982017 -0.584717
0.32739 0.240801 0.374543 0.471275 0.492404 0.731736
0.0527442 0.205369 0.294943 -0.80527 -0.0982039 0.584719
-0.0261185 0.069956 -0.109037 -0.480099 -0.470688 -0.740241
0.044961 0.018594 -0.0288636 0.80527 0.0982039 -0.584719
-0.323674 0.276552 -0.369336 -0.514316 -0.37496 -0.771287
0.237434 0.229761 0.177768 0.80527 0.0982039 -0.584719
-0.250763 -0.350617 -0.411418 -0.119517 -0.939058 -0.322313
0.208455 0.211521 0.410667 -0.443063 -0.555671 -0.703509
-0.165574 -0.370199 -0.310886 0.0831825 -0.995146 -0.0525774
0.154209 0.280474 0.293603 -0.0612573 0.99469 0.0827059
-0.0275872 0.296039 -0.0282593 -0.0612534 0.99469 0.082701
0.110674 0.281024 0.254742 -0.0612536 0.99469 0.0827015
0.0677805 0.0796144 0.0128117 0.80527 0.0982039 -0.584719
-0.113939 0.327915 -0.0929658 0.260506 0.827297 0.497712
-0.0105814 -0.143318 -0.132549 0.80527 0.0982039 -0.584719
-0.130056 0.256656 -0.179076 0.0612534 -0.99469 -0.082701
-0.0720036 -0.153669 -0.154905 -0.541353 0.524002 -0.65754
-0.341111 0.267699 -0.330909 -0.80527 -0.0982043 0.584719
0.0118413 0.175267 -0.0481624 0.80527 0.0982039 -0.584719
0.162069 0.275204 0.362815 -0.0612533 0.99469 0.0827013
0.0546218 0.0527877 -0.009816 0.80527 0.0982034 -0.584719
-0.148887 -0.23381 -0.302611 -0.0612535 0.99469 0.0827011
-0.146258 -0.358342 -0.19444 0.250062 -0.950439 0.184756
0.0412975 -0.0697583 -0.00699029 0.58969 -0.235265 0.772603
-0.32854 0.369064 -0.35412 -0.447789 0.747126 -0.491211
0.0324736 0.131356 0.254596 -0.80527 -0.0982039 0.584719
-0.271616 0.389531 -0.241778 -0.0721638 0.99509 0.0677423
-0.0156247 0.289719 0.0566264 -0.0612535 0.99469 0.0827013
-0.275275 -0.280293 -0.332275 -0.80527 -0.0982038 0.584719
0.0146741 0.297879 -0.0190771 -0.0612534 0.99469 0.082701
0.00363886 0.161917 0.126112 -0.80527 -0.0982039 0.584719
0.0212175 0.122311 -0.0441436 0.80527 0.0982039 -0.584719
-0.281511 0.26353 -0.372661 0.0177127 -0.989732 -0.141832
-0.229785 0.298395 -0.172436 -0.80527 -0.0982039 0.584719
-0.303915 0.386227 -0.259776 -0.805269 -0.0982047 0.58472
-0.266791 -0.357863 -0.383105 -0.0908661 -0.954097 -0.285381
0.0258524 0.234808 -0.0188664 0.80527 0.0982039 -0.584719
0.0296064 0.0160717 0.0265386 0.565827 -0.421932 0.708388
-0.0310212 -0.298728 -0.1868 0.80527 0.0982038 -0.584719
-0.217297 -0.310413 -0.4453 0.80527 0.0982039 -0.584719
-0.0600008 0.138153 0.0344766 -0.80527 -0.0982039 0.584719
-0.140142 0.346359 -0.113392 0.20817 0.876577 0.433911
-0.130818 0.315228 -0.0629604 0.234232 0.853277 0.46589
0.0482089 0.169768 0.282718 -0.80527 -0.0982039 0.584719
-0.0453077 -0.310805 -0.155473 0.373231 -0.850235 0.371213
0.220919 0.185258 0.465132 0.585949 0.0188414 0.810129
0.0394343 0.20702 0.183062 -0.846471 -0.0956735 0.523768
0.181921 0.288755 0.214531 -0.0612535 0.99469 0.0827011
-0.156979 0.287709 -0.0739626 -0.80527 -0.0982042 0.584719
-0.171848 -0.303495 -0.381547 0.80527 0.0982035 -0.584719
-0.162215 0.262313 -0.270936 0.0612534 -0.99469 -0.082701
0.165817 0.109381 0.285815 0.751845 -0.00851567 0.659285
0.0100103 -0.134144 -0.10265 0.80527 0.0982039 -0.584719
-0.205049 0.393062 -0.244186 -0.0153318 0.989307 0.14504
-0.0606075 -0.0905546 -0.113991 -0.541353 0.524002 -0.65754
0.235978 0.288728 0.254888 -0.0612535 0.99469 0.0827011
-0.180523 0.24619 -0.11336 -0.805272 -0.0982016 0.584717
-0.106898 -0.360344 -0.268692 0.196146 -0.974783 0.106416
-0.212081 -0.344336 -0.443814 0.80527 0.0982037 -0.584719
0.0275866 0.105545 0.230527 -0.989859 -0.049898 -0.133
0.189667 0.164815 0.11423 0.176554 0.0923477 -0.979949
0.0047407 0.230686 0.139179 -0.80527 -0.0982039 0.584719
-0.095734 -0.209212 -0.073075 -0.80527 -0.0982039 0.584719
-0.0822629 0.208408 -0.160659 -0.480099 -0.470688 -0.740241
0.0998636 0.186074 0.356595 -0.80527 -0.0982039 0.584719
-0.0879033 -0.247637 -0.256557 0.80527 0.0982039 -0.584719
-0.28512 -0.282912 -0.422006 -0.589736 0.0307809 -0.80701
-0.0470104 0.000652491 0.0292735 -0.80527 -0.0982039 0.584719
-0.174487 -0.230855 -0.357114 -0.0612535 0.99469 0.0827011
-0.212897 -0.231895 -0.373049 -0.0612535 0.99469 0.0827011
0.282928 0.287345 0.306298 -0.0612536 0.99469 0.0827009
