ply
format ascii 1.0
comment Created by Open3D
element vertex 128
property double x
property double y
property double z
property double nx
property double ny
property double nz
end_header
0.173595 -0.0356319 0.158577 -0.557443 0.635937 -0.533705
0.396992 0.17274 0.304631 0.581554 -0.65149 0.487191
-0.0308088 -0.372281 0.0812698 0.547634 -0.638261 0.541035
0.0882098 0.387337 0.247861 0.53742 0.209995 -0.81675
0.245342 0.138327 0.0593389 0.681274 0.0876122 -0.726767
0.0954415 0.465083 0.221079 0.432921 0.759647 0.485299
0.162948 0.370947 -0.00369086 0.678508 0.0747726 -0.730777
0.0150927 -0.476764 -0.10114 0.576564 -0.650612 0.494244
0.195083 0.142023 0.386466 -0.680541 -0.106367 0.724948
-0.0286234 -0.101197 -0.0758538 -0.763688 -0.643343 0.0537633
0.228747 0.195414 0.419928 -0.682073 -0.0775921 0.727156
0.093874 -0.033337 0.0892456 -0.416137 -0.74564 -0.520433
-0.0614091 -0.287293 -0.11429 -0.747814 -0.663365 0.0268373
0.0150141 -0.099721 0.023804 0.573588 0.756313 0.314623
0.0611424 0.525576 0.0813434 -0.582851 0.652779 -0.483905
0.106281 0.162922 -0.0260003 -0.68188 -0.0710614 0.728004
0.351406 0.146909 0.323761 0.555926 -0.625552 0.547385
0.157263 0.0410686 -0.0317003 0.700838 0.0369077 -0.712365
-0.106146 -0.354316 -0.125705 0.486416 0.761371 0.428618
0.320518 0.112561 0.128941 0.682782 0.0675271 -0.727495
0.164546 0.502779 0.0970363 0.44283 0.742078 0.503212
0.198683 -0.0103963 0.291568 0.526709 -0.659801 0.535948
0.156719 0.236123 -0.017938 0.694708 -0.00265572 -0.719287
-0.0411477 0.490377 0.158828 -0.851353 0.520162 -0.0680418
0.226763 0.391022 0.117774 -0.853062 0.192723 0.484915
0.0134959 0.416622 0.227131 -0.663585 -0.0851558 0.743238
-0.0189536 0.363237 0.148388 0.685037 0.103516 -0.721116
0.0843015 0.0711652 0.00146155 -0.536913 0.631119 -0.559833
0.0626754 -0.413608 -0.0735816 0.572765 -0.650311 0.499036
-0.228104 -0.434866 -0.144631 -0.555059 -0.745133 -0.369711
0.238327 0.39656 0.0743578 0.645887 0.0690344 -0.760305
0.241306 0.271436 0.393695 0.443504 0.759163 0.476419
0.362494 0.170905 0.342136 0.55879 -0.650474 0.51443
0.0605172 -0.211317 -0.0160475 -0.802573 -0.451357 0.39007
0.104278 -0.271027 -0.101515 0.709886 -0.00407987 -0.704304
-0.189761 -0.310775 -0.186205 -0.543929 0.657468 -0.521418
0.160783 -0.25728 0.0148561 0.564452 -0.627553 0.536257
0.0677776 -0.15251 0.0628602 0.528855 0.770919 0.354959
0.0186907 -0.21215 -0.182107 0.708348 -0.0158978 -0.705685
0.0952812 0.0053996 -0.0927972 0.678151 0.0596626 -0.732497
0.364279 0.123762 0.279896 0.58513 -0.648218 0.487274
0.0987207 0.519468 0.128568 0.417334 0.750211 0.512851
-0.215439 -0.426483 -0.0506276 -0.769894 -0.0953668 0.631006
-0.0357854 0.24398 0.123239 0.683928 0.0599178 -0.727085
0.132624 0.168167 -0.0427038 0.689299 0.0537751 -0.722478
0.438709 0.218653 0.294388 0.445864 0.762095 0.469486
-0.0614537 0.135971 0.136819 -0.694786 -0.0177628 0.718997
-0.0117174 -0.224963 0.158096 -0.682249 -0.0632141 0.728382
0.0493005 -0.374567 -0.164114 0.69478 0.0276069 -0.718693
0.214323 0.241319 0.0393453 0.70117 0.00373537 -0.712984
0.0199423 -0.191908 -0.181005 0.636701 0.115512 -0.76241
-0.00756659 -0.0522429 0.174603 -0.701347 0.0438682 0.711469
-0.134039 -0.309143 -0.0952316 0.716823 0.275718 -0.640425
-0.279863 -0.36092 -0.144255 -0.592735 0.636382 -0.493643
0.117391 -0.252957 0.0708101 0.548651 -0.640463 0.537391
-0.16897 -0.478021 -0.0156681 -0.675389 -0.312494 0.66798
0.347498 0.269402 0.167092 0.693671 0.0443782 -0.718924
0.084002 0.0880508 -0.0518252 -0.691561 -0.0516492 0.72047
0.0194031 0.469814 0.0754182 -0.414445 -0.782379 -0.464886
-0.1452 -0.17023 0.0325286 -0.689057 -0.0547181 0.722638
0.169323 0.168226 -0.0101408 0.687279 0.0546556 -0.724334
0.0696896 0.14791 0.143416 0.235119 -0.495329 -0.836282
-0.159543 -0.387271 -0.283347 -0.38808 -0.741516 -0.54731
0.315343 -0.0152539 0.125733 0.900708 -0.338444 -0.272363
0.10389 0.431683 0.263346 0.460618 0.777904 0.42743
0.00438312 -0.514441 -0.157728 0.33869 -0.919032 0.201666
0.39553 0.15683 0.207173 0.655157 0.074813 -0.75178
-0.0307339 0.0492235 0.158177 -0.673532 -0.107339 0.731323
-0.0807166 0.130283 0.0757849 -0.691143 0.263336 -0.673035
0.0837707 0.096129 -0.0519599 -0.6923 -0.0414547 0.720418
0.122762 -0.0607697 0.286899 -0.230614 -0.418769 0.878322
-0.145722 -0.276652 -0.195888 -0.509989 0.651724 -0.561397
-0.0247253 0.493758 0.137997 -0.618317 0.627902 -0.472677
0.0869258 -0.217847 0.14943 0.637176 -0.625629 0.450106
-0.0292527 -0.0347197 0.0469354 0.782651 0.260238 -0.56545
0.116664 -0.21414 0.120743 0.55018 -0.635719 0.541445
0.266031 0.328692 0.0934584 0.674908 0.0803224 -0.733518
0.183951 0.274173 0.382018 -0.684925 -0.103677 0.7212
0.170902 0.260578 0.1432 -0.60977 0.692135 -0.386173
0.0353425 -0.490619 -0.144413 0.589914 -0.653579 0.474169
0.195917 -0.220778 0.00543884 0.884171 -0.459082 -0.0865137
0.18801 -0.0920643 -0.0128176 0.677083 0.0646035 -0.733066
-0.0186894 -0.369269 -0.231368 0.626326 0.136582 -0.767503
0.0803578 -0.419761 -0.124377 0.89002 -0.369796 -0.266676
0.0663095 0.270065 0.221476 0.658729 0.0975263 -0.746032
0.0221085 -0.502073 -0.183654 0.59773 -0.624918 -0.502191
0.0481577 -0.316431 -0.161955 0.73362 0.0109523 -0.679472
0.159079 0.287061 0.356733 -0.709548 -0.0176486 0.704436
0.165067 0.337668 -0.00238914 0.718197 0.0251449 -0.695385
0.177963 0.276506 0.373917 -0.696997 -3.88614e-06 0.717075
0.0736885 0.512751 0.0480146 -0.545552 0.661115 -0.515072
0.174613 0.11055 0.146599 -0.642168 -0.736066 -0.214073
0.282443 0.318208 0.281677 0.416233 0.735689 0.534332
-0.242922 -0.322663 -0.144224 -0.582191 0.649945 -0.488492
0.0981664 0.390806 0.305939 -0.6911 -0.0546528 0.72069
0.250904 0.354741 0.248057 0.438046 0.788665 0.43142
0.365357 0.279192 0.262679 0.41135 0.763507 0.497844
0.0385307 0.0221543 0.051396 -0.364675 -0.754708 -0.54537
-0.127963 -0.278228 0.0412443 -0.716825 -0.0191986 0.696988
0.273546 0.137398 0.395991 0.539341 -0.656062 0.527915
0.177508 0.000812835 -0.0156905 0.682281 0.0660384 -0.728102
0.104954 0.0114051 -0.0836463 0.666248 0.0727703 -0.742171
0.194125 0.246779 0.0659486 -0.717455 -0.0208162 0.696294
0.0970417 0.461147 0.189314 0.893157 -0.426149 -0.143766
-0.103104 -0.0781681 0.0750792 -0.707704 0.00814923 0.706462
-0.087502 -0.118093 0.0923729 -0.710823 -0.0332892 0.702583
-0.22239 -0.316471 -0.0501999 -0.707058 -0.0370518 0.706184
0.0480761 0.0291137 0.0317677 -0.541601 -0.779633 -0.314389
0.206422 0.272256 0.0786183 -0.687831 -0.0564419 0.723673
0.28381 0.312355 0.290141 0.439223 0.758742 0.481035
0.0852935 0.401319 0.294171 -0.66351 -0.0890794 0.742846
0.123437 0.224448 -0.0485055 0.719409 0.00708766 -0.69455
-0.0422644 0.0435924 0.102254 0.697675 0.039394 -0.71533
-0.148921 -0.472178 0.00851405 -0.708349 -0.0263502 0.705371
0.351557 0.0399196 0.172618 0.874137 -0.485041 -0.024903
0.134912 0.367702 0.253602 -0.228037 -0.198932 -0.953113
0.283092 0.0675671 0.296954 0.556415 -0.641059 0.528626
-0.0139971 0.393671 0.200168 -0.702686 -0.00333854 0.711492
0.0574321 -0.201727 -0.0061182 -0.806536 -0.563346 0.179277
0.320952 0.323629 0.2336 0.448758 0.79679 0.404651
0.038335 -0.177917 -0.0223847 -0.76924 -0.629825 0.107657
0.409138 0.141435 0.245886 0.810531 -0.568173 0.142197
-0.100632 -0.512862 -0.134427 -0.376286 -0.827872 -0.415978
0.313143 0.305382 0.27076 0.44744 0.764393 0.464221
0.100151 -0.0574761 0.00971953 -0.699069 -0.116211 0.705548
0.33935 0.344874 0.184446 0.476361 0.757403 0.446565
-0.0147249 -0.136922 -0.162936 -0.567863 0.650097 -0.504883
0.0360394 0.0143667 0.0612024 -0.212361 -0.710402 -0.670993
