ply
format ascii 1.0
comment Created by Open3D
element vertex 512
property double x
property double y
property double z
property double nx
property double ny
property double nz
end_header
-0.0206432 0.22939 -0.164322 0.78171 0.621612 0.0502755
0.06973 -0.352935 0.275679 -0.779291 -0.622014 -0.0761846
0.0501714 0.0880207 0.137353 0.922306 0.313739 0.225655
0.02589 -0.254144 0.132233 -0.812525 -0.582873 -0.00788544
0.129333 -0.0304154 -0.138947 0.776583 0.56964 0.269128
-0.193268 0.272711 0.0768751 0.830863 0.530556 0.167862
-0.0738917 0.0786902 -0.0306222 0.665252 -0.728176 0.164924
-0.165632 0.116809 -0.137091 -0.922486 -0.318353 -0.218335
0.172707 -0.234907 0.00576137 0.470899 -0.874549 0.115838
-0.17608 0.0252167 0.430208 -0.656736 -0.714014 0.242656
-0.19608 0.252393 0.219802 0.473754 0.621119 -0.624314
-0.10742 0.0290701 0.0758901 0.457993 -0.709855 -0.535115
-0.0152353 -0.0155464 -0.110302 -0.236771 0.137658 0.961764
0.0492549 -0.286771 0.0365801 -0.570528 -0.789629 0.225796
0.135259 -0.366942 -0.253733 -0.778482 -0.623011 -0.0763123
0.0519383 -0.274019 0.0817016 -0.799709 -0.600287 0.0109651
0.174399 -0.12728 0.121736 0.722586 0.691203 0.0103846
0.14968 -0.0807947 0.0976252 0.704627 0.643833 -0.298295
-0.0335829 -0.058352 0.458945 -0.515487 0.679567 0.521978
0.0112568 0.199864 -0.180799 0.701849 0.693139 -0.164215
-0.238325 0.202251 0.016078 -0.910535 -0.413432 0.000400882
0.0404298 -0.114964 -0.476883 -0.705525 -0.55119 -0.445448
-0.288409 0.316461 -0.0594551 -0.126521 0.428067 0.894847
-0.124738 0.0897759 0.28414 0.890632 0.386765 0.239139
0.125597 -0.280502 0.216161 0.942833 -0.00465966 0.333232
0.180843 -0.290688 -0.180323 0.828917 0.553798 0.0787698
-0.04199 0.244446 0.0135758 0.909476 0.158924 0.384182
0.0610084 -0.0705588 0.225126 0.443591 -0.534804 -0.719175
-0.0451169 0.105554 -0.35333 0.830522 0.457362 0.317887
0.102248 -0.105173 -0.337557 0.842475 0.405499 0.354692
-0.0934305 0.177818 -0.256581 0.737908 0.673398 0.0450328
-0.0948575 0.308292 0.00882162 0.843406 0.368228 0.391248
0.0207087 -0.0177035 0.299495 0.178624 -0.157781 0.971184
-0.0390825 0.154219 -0.25176 -0.291079 0.548492 -0.783855
0.000774823 -0.0730723 0.185935 0.212845 -0.818387 0.533797
-0.258739 0.259398 -0.00216106 -0.843567 -0.536486 0.0240344
-0.235102 0.25009 -0.263485 -0.950039 -0.299251 0.0887354
-0.290005 0.368259 -0.105075 -0.0695055 -0.00525561 0.997568
-0.140463 0.0873808 0.146582 -0.625002 0.733233 -0.267847
-0.239759 0.330875 0.0052484 -0.0272556 0.206051 -0.978162
-0.122227 -0.00647061 0.240553 -0.899217 -0.437234 -0.0153251
0.134149 -0.23641 -0.177757 0.853862 0.513026 0.0878795
-0.142036 0.283942 -0.030561 0.105926 0.744197 -0.659508
0.0819555 -0.0704187 0.137994 0.353532 -0.512079 0.782809
0.145908 -0.391918 -0.0706065 -0.847919 -0.521924 -0.0928878
-0.0702363 0.0132266 -0.425219 -0.936114 0.305456 0.17432
0.0123399 0.134099 0.0522242 0.594869 -0.68686 -0.417557
0.186143 -0.118274 -0.0554697 -0.0466791 0.22248 -0.973819
0.121718 -0.30967 0.287443 -0.191786 -0.253225 0.948206
-0.149723 0.266707 -0.245871 0.7879 0.472474 0.394946
0.203199 -0.134996 -0.0538549 0.328706 0.878616 -0.346392
-0.115703 -0.0474898 0.217139 -0.912773 -0.398772 -0.0884678
0.212709 -0.355518 -0.0287438 0.406473 -0.426175 0.808179
0.0210497 0.140121 0.158063 0.837155 -0.320765 0.443037
-0.225294 0.18814 -0.206352 -0.851858 -0.513888 -0.101274
0.0123952 -0.156478 -0.247602 -0.893405 -0.436968 -0.104338
0.11173 -0.335766 -0.208317 -0.871405 0.0668817 -0.485984
0.021706 -0.226856 0.0692777 -0.865731 -0.468424 0.176321
-0.130727 -0.0397808 0.339171 -0.276166 -0.948566 -0.154776
0.0234378 -0.281056 0.238663 -0.85114 -0.514885 -0.102247
0.113402 -0.0349918 0.1539 0.956564 0.231222 0.177544
0.0895882 -0.203011 -0.12893 -0.513158 0.439043 0.737503
0.189532 -0.409967 -0.108676 0.375095 -0.259277 -0.889988
0.0991461 -0.19571 -0.0920607 -0.29797 0.630527 -0.716694
-0.0146611 0.0407033 -0.394935 0.948243 0.291761 0.12534
-0.222501 0.148061 0.0726278 -0.0330616 -0.797614 0.602261
-0.0492909 -0.136221 0.487572 0.369236 -0.632305 0.681069
-0.118904 0.0222015 0.148377 -0.865298 -0.481923 -0.13788
-0.214083 0.290479 0.248395 -0.483688 0.559599 0.672975
0.0704607 -0.329242 0.129081 -0.856057 -0.381862 -0.348351
0.110132 -0.152573 -0.257193 0.957216 0.27983 0.0737074
-0.242422 0.235219 0.234959 0.278832 -0.29875 0.912689
-0.161234 0.0628865 0.385782 -0.532557 0.826306 0.183306
-0.0509024 0.112085 -0.237532 0.779426 -0.395905 0.485546
-0.155128 0.175235 0.284033 0.591091 0.783004 -0.193692
0.0557301 -0.141668 -0.0932802 0.552374 -0.409174 -0.726264
0.0753501 0.0260847 0.144589 0.945892 0.278583 0.166373
0.000491999 -0.127442 -0.361341 -0.917513 -0.213751 -0.335381
-0.0946273 -0.0181684 -0.184272 -0.466369 -0.854148 0.230068
-0.117546 0.129799 0.0862869 -0.178415 0.704703 0.686704
0.0179046 0.0214689 -0.121048 0.451807 -0.546212 0.705353
-0.100806 0.25209 -0.152373 -0.670449 0.727057 -0.14794
-0.0220693 0.107514 -0.139543 -0.294342 0.3576 -0.886276
0.0316428 0.155569 -0.0479618 0.769794 0.636635 -0.0459658
0.0321876 -0.11809 0.239023 0.155289 -0.0953165 -0.98326
0.0232846 -0.103476 0.309646 0.505784 0.688537 -0.519711
-0.0419471 0.179938 0.248082 -0.189447 -0.0424148 0.980974
-0.139098 0.193408 -0.332726 -0.608063 0.69092 0.39101
-0.0442799 0.081214 -0.0704485 0.944356 -0.309023 -0.112682
0.164524 -0.259481 -0.130519 0.866042 0.484967 0.121568
-0.0632385 -0.129218 0.42694 -0.537419 -0.771555 -0.340418
-0.0278444 -0.0695895 -0.396701 -0.0222393 0.137992 -0.990184
0.19432 -0.207655 -0.090744 0.484311 -0.825524 -0.289746
-0.0455996 -0.168326 0.275955 -0.861193 -0.0734824 -0.502939
0.147328 -0.340878 -0.165529 0.498621 -0.672249 0.547227
0.158154 -0.2309 -0.302214 0.829533 0.550825 0.0920147
0.158469 -0.0959766 0.0118598 0.175717 0.983571 -0.0413624
-0.0608517 -0.160334 0.374549 0.582606 -0.790377 -0.189405
0.0251539 0.182508 -0.226898 0.783517 0.33051 0.526179
-0.2076 0.293099 0.0456215 0.7147 0.455419 0.530847
-0.066764 0.256452 0.045406 0.278163 0.801297 -0.529669
0.170624 -0.0164721 -0.278135 0.0318174 -0.732949 -0.679539
-0.147234 0.0782367 -0.073765 -0.876329 -0.467347 -0.116762
-0.0664583 0.132635 0.256531 -0.168799 0.288645 0.942439
-0.00765538 0.166486 0.0712677 0.786916 0.614619 0.0548369
0.172104 -0.191008 -0.167562 0.487495 -0.757246 -0.434657
-0.234882 0.159718 0.369871 0.237032 -0.639596 0.731254
-0.0893035 0.197391 0.0547304 0.429771 -0.454927 0.779961
-0.0319167 -0.0395867 -0.331551 -0.875548 -0.477907 -0.0708609
-0.199966 0.201232 0.332867 0.944265 0.217363 0.247218
-0.112873 0.272247 -0.0774449 -0.261908 0.816112 -0.515136
-0.0935584 0.0797125 -0.150287 0.0277747 0.184581 -0.982425
-0.137936 0.261585 0.0323761 -0.652701 0.625879 0.426916
-0.151217 0.239657 -0.128218 0.788652 0.572961 -0.223032
-0.0310498 -0.0468277 0.358934 0.950501 0.245798 0.190082
0.0735917 0.019188 -0.30625 0.206645 -0.187844 -0.960215
-0.0736744 -0.0630915 0.409658 -0.485348 0.172154 0.857205
0.147084 -0.0730141 0.128224 0.921846 0.224297 0.316056
0.20643 -0.322568 -0.191682 0.752996 0.649442 0.105938
-0.0245176 0.0414182 -0.106802 0.125817 -0.366092 0.922034
0.135333 -0.349099 0.150169 0.038999 -0.336684 0.94081
-0.161908 0.23034 0.0908903 -0.408473 0.880806 0.239438
-0.0565825 -0.0258873 -0.281819 -0.865386 -0.47057 -0.172253
-0.184884 0.256133 0.124332 0.894931 0.43107 0.115226
-0.205757 0.168463 0.0343652 -0.859284 -0.425619 -0.283689
-0.0546213 0.0265598 -0.474674 0.52342 -0.6471 -0.55434
-0.31721 0.331895 0.0824358 0.188077 -0.429282 0.883371
0.0842286 -0.271982 0.268296 -0.151105 0.0431052 0.987577
-0.015006 0.0725549 -0.329249 0.85612 0.508631 0.0913967
-0.0338624 0.0907312 -0.30703 0.920778 0.251015 0.298595
0.0408335 -0.0479539 -0.374553 0.622935 0.775215 0.104852
0.0752949 -0.119727 -0.261422 0.0981456 -0.064657 -0.993069
-0.176401 0.252019 -0.011225 0.919314 0.236629 0.314435
-0.180012 0.0415473 0.318312 -0.640065 -0.768269 0.00890804
0.164876 -0.10138 0.0490364 0.530158 0.830217 0.172258
0.029325 -0.246057 0.387066 -0.39702 0.463986 0.791892
-0.187027 0.128413 0.0133614 -0.878634 -0.467309 -0.0981084
0.244912 -0.219749 0.0325265 0.597901 -0.798832 -0.0661989
-0.321298 0.380599 0.0714694 -0.321257 0.379055 0.86782
0.0163154 -0.195064 -0.00304063 -0.836971 -0.538952 -0.0949241
0.232128 -0.416377 -0.0244762 0.580433 -0.456431 0.674365
-0.00661104 -0.058631 -0.105829 -0.0202054 -0.129068 0.99143
-0.205829 0.28887 -0.0773677 0.980729 0.165627 0.103626
-0.0124825 -0.114933 -0.295971 -0.773556 -0.633067 0.0289283
-0.0618911 0.290113 -0.105943 0.659276 0.751022 0.0363475
-0.0938122 -0.0234507 -0.126005 0.0225602 -0.276688 0.960695
-0.286404 0.361949 0.0237916 -0.0891869 0.429224 -0.898784
0.0489122 0.00183618 -0.310681 0.416893 -0.161572 -0.89448
-0.148396 0.0791658 0.462015 -0.85553 0.260643 0.447362
-0.202883 0.118442 0.343426 -0.481188 -0.153018 0.863159
-0.173856 0.0243488 0.371411 -0.867004 -0.498239 0.00788622
0.15646 -0.301207 0.146695 0.553353 0.831928 0.0411921
0.0883449 -0.0895791 -0.409189 0.870489 -0.0939409 0.48314
-0.186598 0.053206 0.257949 -0.88226 -0.470636 -0.0108878
0.0703248 -0.197233 0.356949 0.983164 0.139231 -0.11834
0.133129 -0.109393 -0.252525 0.553799 -0.466201 -0.689901
0.0216604 -0.0817611 -0.445346 -0.313188 0.456442 -0.832811
0.0154437 0.082509 -0.273369 -0.170367 0.325761 -0.929976
-0.144089 0.0471446 0.160568 -0.867281 -0.477069 -0.14223
0.0683256 -0.263698 -0.136905 -0.474264 -0.352324 -0.80681
-0.169018 0.193985 0.212456 0.81334 0.525799 0.249025
0.115434 -0.0636829 -0.0116667 -0.556734 0.810255 0.183125
0.0779873 -0.17744 0.249451 0.463523 -0.468064 0.752371
0.146038 -0.271114 0.0182429 0.597307 -0.799566 0.0625969
0.0861301 -0.031182 0.261007 0.0991294 0.937631 0.333199
0.150472 -0.318782 0.241206 0.742409 0.669238 -0.0307999
-0.0452521 -0.0676674 -0.109772 -0.420407 0.23918 0.875243
-0.0849342 0.00508562 -0.33777 -0.842747 -0.530939 -0.0887764
-0.0313436 0.241148 0.0894841 0.744831 0.66375 -0.068279
0.0446686 0.0381709 0.117361 0.0615544 -0.00274304 -0.9981
-0.180943 0.29786 -0.221369 0.224523 0.959945 0.167613
0.123588 -0.168627 -0.0684772 0.0432406 0.18879 -0.981065
0.0160848 0.167467 0.0053342 0.792336 0.59968 0.112191
0.0394137 -0.194447 -0.286146 -0.762149 -0.63375 0.13225
-0.0156554 0.0264249 0.111082 0.0233073 0.204344 -0.978622
-0.0534221 -0.130222 0.0993023 -0.804164 -0.59341 -0.0344185
-0.174904 0.206284 -0.280087 0.0854812 0.0804431 -0.993087
0.146017 -0.0195202 -0.0864539 0.966321 0.245659 0.0766523
0.183279 -0.429742 -0.0614735 0.146247 -0.43379 0.889066
-0.170188 0.12466 0.0505135 -0.0142697 -0.141 0.989907
-0.278844 0.272193 0.0294332 -0.660444 -0.745813 0.0870471
0.200467 -0.237513 -0.0484012 0.53168 -0.836451 -0.132911
0.0049181 -0.224055 0.143187 -0.784979 -0.615818 -0.0676518
-0.0229125 0.211326 -0.207159 -0.0192595 0.551482 -0.833964
-0.101484 0.0248947 -0.159083 -0.656517 -0.748806 -0.0909719
-0.148013 0.184965 0.0787139 0.96154 -0.196319 0.192094
0.0664929 -0.0892651 -0.00738742 -0.257463 0.962942 -0.0803412
-0.0586421 -0.120186 0.155917 -0.950639 -0.291547 -0.106238
0.00304285 0.106604 -0.0417893 0.974437 -0.0516572 0.218644
-0.314999 0.312615 0.229076 -0.474367 0.640305 0.60414
0.0729685 0.0380999 -0.115845 -0.0609525 -0.144194 0.98767
0.0375728 -0.142418 -0.446951 0.645112 -0.723056 -0.247023
-0.211892 0.344252 -0.284304 -0.611414 0.755458 0.235491
-0.0207934 0.0613741 0.313383 -0.000467213 -0.107162 0.994241
0.149005 -0.265586 0.0828083 0.820932 0.569334 0.0439268
0.115847 -0.253637 -0.285357 0.67203 -0.682245 -0.287952
-0.00430372 0.210926 -0.0512954 0.748185 0.657087 -0.0919555
-0.18241 0.0749176 0.221866 -0.759979 -0.634114 -0.142587
0.14589 -0.0836019 -0.119311 0.410652 -0.747004 0.522829
0.0010958 -0.16985 0.0616519 -0.976872 -0.213576 -0.0103338
-0.0159277 0.194759 -0.249721 -0.427704 0.572468 -0.699535
-0.0400917 -0.0156471 0.288518 0.0122336 -0.192756 0.981171
0.18185 -0.455336 0.0939206 0.311248 -0.639345 -0.70311
0.0246909 0.126934 0.124772 0.887111 0.433144 0.159436
-0.224108 0.172187 0.193563 -0.735298 -0.303547 -0.605967
0.0488687 -0.235393 -0.23908 -0.830945 -0.506783 0.229568
-0.0587352 -0.162953 0.346099 -0.903123 0.166825 -0.395649
-0.0995834 0.0942118 -0.240706 0.25497 -0.570097 0.781012
0.0704056 -0.108806 0.291745 0.0219234 -0.15014 0.988422
0.0963268 -0.12841 0.231723 0.0127864 0.479471 -0.877465
-0.104747 0.0609346 0.368148 0.875451 0.34106 0.342437
0.164835 -0.322829 0.0557572 0.821947 0.558316 0.112631
0.207226 -0.352479 -0.247189 0.954565 -0.288178 -0.0758926
-0.0862951 0.127534 0.0950337 -0.0925138 0.952081 0.291517
-0.213744 0.171269 -0.0275388 -0.988145 0.152544 -0.0173049
-0.0909908 0.0524525 0.324241 0.822512 0.568331 0.0217842
-0.1824 0.16207 0.114918 0.398819 -0.90612 0.141031
0.00364141 -0.265712 0.299611 -0.711254 -0.702073 0.034795
-0.259277 0.213294 0.14737 -0.382357 -0.920817 -0.0768058
0.0166592 0.0534016 -0.30008 -0.356746 0.168038 -0.918965
0.0670129 0.106606 -0.174778 -0.484285 0.831826 -0.271169
-0.0304475 0.190466 0.200883 0.985599 -0.0629008 0.156967
0.0943695 -0.230535 0.210187 0.816028 0.576946 0.0350847
0.191118 -0.173438 0.145596 0.983904 0.148433 0.0995063
-0.253258 0.281264 -0.257643 -0.914395 -0.366591 -0.171738
-0.074558 0.311036 -0.0434562 -0.307245 0.850448 -0.427011
-0.124123 0.151374 0.155057 0.0178817 0.0653824 -0.9977
0.212966 -0.439834 -0.0887172 0.353341 -0.201556 -0.913524
-0.160402 0.100232 -0.00617909 -0.710736 -0.69588 0.102982
-0.179612 0.17512 -0.359632 -0.99313 -0.110449 -0.0386509
0.0235712 -0.145209 -0.289235 -0.9612 -0.27575 0.00756082
0.0964594 -0.319615 -0.15158 -0.855135 -0.501271 0.13218
-0.0243017 0.154472 -0.134751 0.362273 -0.641478 -0.676213
0.100579 -0.383889 -0.022041 -0.768215 -0.639734 0.0242245
0.060282 -0.0814817 0.0374016 -0.229029 0.640825 -0.732727
0.196179 -0.22599 0.0821431 0.408776 -0.859403 0.307129
0.0364178 -0.105273 0.137111 -0.0368902 -0.120782 0.991993
-0.210028 0.0933885 0.307007 -0.837499 -0.520168 -0.167391
-0.0775407 0.113181 -0.159132 0.464857 -0.569676 -0.677774
-0.00136586 0.0571645 -0.442855 0.667451 0.721056 0.185977
0.10342 -0.348676 0.0315055 -0.879408 -0.469243 -0.0803327
-0.0185509 0.226095 -0.099867 0.78997 0.610972 -0.0515803
-0.0504442 0.253772 -0.10262 0.992986 -0.118134 0.00480545
0.123927 0.0168312 -0.280312 0.835021 0.515556 0.192203
0.167103 -0.407223 -0.0364082 -0.33101 0.0111194 0.943562
-0.166038 0.126419 0.156305 0.117222 0.0120327 -0.993033
0.182886 -0.081776 -0.172963 0.681868 0.382902 0.623251
0.19159 -0.133049 -0.0112571 0.996029 -0.0144317 0.0878518
-0.126602 0.0484197 0.011183 0.542913 -0.807539 -0.230493
-0.0521115 -0.0102699 0.118948 0.122178 -0.00748786 -0.99248
0.0855548 -0.26171 -0.256841 -0.35447 -0.847025 0.396107
-0.138621 0.098772 -0.366127 -0.721718 -0.663549 0.197044
0.161647 -0.110915 0.226608 0.844158 0.531414 -0.0706772
0.0815534 -0.253963 0.383974 -0.0479028 -0.862174 0.504343
-0.0463527 -0.0755223 0.0886071 0.339921 0.0699905 -0.937846
0.141068 -0.162552 -0.204379 0.459789 -0.696562 -0.550814
-0.140593 0.162386 -0.395766 0.372337 -0.641607 -0.670601
-0.119412 0.228924 0.15017 -0.43908 0.279714 0.853797
-0.234764 0.175545 0.238173 -0.894217 -0.436126 0.100843
0.100695 -0.383721 0.295125 -0.214716 -0.137748 0.966914
0.00938217 0.0715599 0.09453 0.33641 -0.354733 -0.872349
-0.142114 0.198347 0.187564 -0.555098 0.470131 0.68618
0.0870996 0.0914992 -0.293833 0.890366 0.398482 0.220136
0.0863551 -0.0666604 0.294297 -0.0511539 -0.257622 0.964891
0.0991058 -0.218829 0.253917 0.861917 0.472638 -0.183612
-0.133627 -0.00184338 0.182796 -0.682985 -0.720232 0.121645
0.0877305 0.000623853 0.236844 0.763419 0.644673 -0.0398426
0.045043 -0.0577874 0.0861187 -0.725025 0.521885 -0.449416
0.0470349 0.122823 -0.270331 0.883126 0.432051 0.182814
-0.0912919 -0.0739982 0.253351 -0.402211 -0.713428 -0.5738
-0.0790214 0.0785775 0.0305281 0.789632 -0.344882 -0.507481
0.192732 -0.207592 0.120387 0.360458 -0.778153 0.514341
0.136609 -0.138178 -0.0487183 0.079671 0.00123985 -0.99682
0.107496 -0.241247 0.153718 0.958009 0.26437 0.111028
-0.236152 0.210386 0.0958976 -0.953871 -0.216565 -0.207918
-0.205982 0.0850846 0.338123 -0.654199 -0.75298 -0.0710284
0.0445222 -0.269214 0.43609 -0.25056 -0.0495907 0.96683
0.0844246 -0.296466 -0.010859 -0.855688 -0.491496 -0.161956
-0.247719 0.365761 0.0705918 0.643102 0.739532 0.198777
-0.00736398 -0.113763 0.397061 0.582721 -0.790762 0.187434
0.0319877 0.0956119 -0.0767395 0.320094 -0.528494 0.786279
0.0375904 0.108384 -0.207226 -0.470691 0.780963 0.410545
0.118343 -0.000126937 -0.190079 0.741552 0.545318 -0.390805
-0.208032 0.305959 -0.246665 -0.49606 0.839755 -0.220762
-0.261953 0.254764 0.0678927 -0.849194 -0.463459 -0.253132
-0.0692088 0.195587 -0.223375 -0.393178 0.568011 -0.723032
-0.21302 0.289265 -0.308266 0.0534324 0.0864064 -0.994826
0.159428 -0.204264 0.166365 0.0872014 -0.730801 0.676998
0.0526583 -0.302643 0.144287 -0.897095 -0.394117 -0.19973
-0.274217 0.2306 0.213356 -0.847274 -0.531113 -0.00681646
-0.0741968 0.275335 0.16081 -0.390887 0.834836 0.387628
0.0184585 -0.121338 0.000667564 -0.573476 0.444401 0.68821
0.0891129 -0.296811 -0.0651163 -0.824276 -0.259556 0.503189
0.0525788 -0.0458579 -0.412903 -0.381742 0.726252 -0.571692
-0.219651 0.131993 0.240015 -0.928891 -0.2436 -0.278963
0.137448 -0.187801 0.217803 0.245329 -0.623861 0.742032
0.173984 -0.403927 0.0770105 0.182253 -0.00425709 -0.983242
0.0568778 -0.0548722 -0.28962 0.721117 0.470347 -0.508688
-0.101556 0.237432 0.121067 0.389705 -0.810877 0.436587
-0.193614 0.126901 0.215332 -0.794774 -0.601705 -0.079283
0.116419 -0.290596 -0.255887 -0.0578544 0.494559 -0.867216
0.0246708 -0.195532 0.0216005 -0.96592 -0.0579916 -0.252262
0.197935 -0.0978453 -0.247134 0.507355 -0.61229 -0.606376
-0.170535 0.155863 0.361377 0.634058 0.736688 -0.235077
-0.251021 0.283771 -0.0203748 -0.564187 0.816596 -0.121915
-0.0113726 -0.0461523 0.110323 0.0469686 -0.0130019 -0.998812
-0.105858 0.285146 0.103413 -0.133508 0.950143 -0.281787
0.0733957 -0.264604 -0.322166 -0.861718 -0.493908 -0.116181
0.0161921 0.183653 -0.128172 0.830946 0.45868 -0.314867
0.164685 -0.250203 -0.23115 0.861214 0.409226 0.301405
0.0113099 0.116329 0.236742 0.463637 0.877548 -0.12227
-0.191112 0.0461593 0.397211 -0.847336 -0.519701 -0.109238
0.0345753 -0.221784 -0.195393 -0.887725 -0.426508 0.173305
-0.0579539 -0.0661468 -0.177837 -0.838405 -0.517707 -0.170461
-0.10082 0.173022 -0.324878 0.874181 0.191393 0.446292
0.0510884 -0.208807 -0.320466 -0.661003 -0.632905 0.403121
0.216267 -0.141617 -0.171571 0.963155 0.203551 -0.175783
-0.170464 0.147909 -0.314599 -0.856396 -0.504143 -0.111468
-0.0829461 -0.0925859 0.45862 -0.493053 0.748152 0.444036
-0.0318544 0.114864 0.290665 -0.51115 0.421218 0.749201
-0.0470145 0.0351147 0.304766 -0.113018 0.0469888 0.992481
0.113458 -0.0972088 -0.115148 0.809646 -0.471334 -0.349738
-0.290481 0.325412 -0.103842 -0.216149 0.926582 0.307775
0.0363741 -0.147118 -0.402348 0.877478 -0.281954 -0.387988
-0.231621 0.221906 0.334944 -0.609994 0.7631 -0.213508
0.151177 -0.317175 -0.149656 0.366331 -0.681665 0.633352
-0.155106 0.190811 -0.438472 0.212493 -0.893145 -0.396408
0.165795 -0.385861 0.145414 0.0378438 -0.275914 0.960437
-0.101447 0.211844 0.195024 -0.444898 0.606786 0.658693
-0.0168457 -0.151295 0.0127623 -0.861996 -0.498949 -0.089512
-0.173799 0.294047 -0.292051 0.341092 -0.439967 -0.830714
0.00682842 -0.190827 0.35002 -0.358034 0.14971 0.921628
-0.229607 0.177042 0.133127 -0.821678 -0.395268 0.410619
-0.197816 0.180526 -0.148923 -0.859377 -0.502627 -0.0940013
-0.0125092 -0.1781 -0.0562398 -0.727406 -0.686081 0.0131347
0.00932647 -0.11457 0.0528433 -0.632823 0.741647 -0.222476
-0.268599 0.228054 0.0463726 -0.944377 -0.15577 -0.289633
-0.0613515 0.2723 -0.150875 -0.612269 0.744755 -0.265456
-0.0758002 0.052295 -0.247752 -0.38364 0.315413 0.867948
-0.29616 0.361462 -0.141311 -0.153037 0.298455 -0.942075
0.152758 -0.351312 0.277627 0.808289 0.465502 0.360522
0.184736 -0.313209 -0.111003 0.772527 0.634809 0.0147805
-0.150976 0.0546273 0.0404072 -0.982746 -0.125301 -0.136048
0.122942 -0.185168 -0.159732 -0.281239 0.269332 0.921067
-0.222723 0.121109 0.153134 -0.696214 -0.717833 -0.00170884
0.00652071 -0.105794 -0.405275 -0.865059 -0.493844 -0.0882626
0.111576 -0.340243 0.194009 0.46721 -0.771689 -0.431522
-0.0227321 0.156846 0.115752 -0.774958 0.563982 0.285245
-0.185836 0.145949 -0.205507 -0.888122 -0.440499 -0.131148
0.0782125 -0.0040333 0.298317 0.852406 0.51207 0.105773
-0.223771 0.315598 -0.0454176 -0.481079 0.612724 0.627003
0.0760458 -0.191513 -0.0836392 -0.0194258 0.125006 -0.991966
-0.030332 0.107611 0.015282 0.354751 -0.901516 0.247831
0.0237578 -0.221908 -0.0569852 -0.999435 0.00750376 -0.032761
-0.0851259 0.0129401 0.393307 0.869291 0.48325 0.103932
-0.0126201 -0.160852 0.138996 -0.285842 0.272075 0.918841
-0.0658886 0.127816 0.132501 -0.561511 0.767129 -0.310191
-0.17358 0.126563 -0.0575997 -0.57656 -0.792442 0.199035
-0.19259 0.292098 -0.119279 0.689547 0.235789 0.684783
-0.213734 0.316277 -0.137039 -0.335485 0.163527 -0.927744
-0.0689809 0.213388 0.174623 0.828927 -0.557951 -0.0396305
0.164304 -0.0717598 -0.0596052 0.970757 0.221479 -0.0926182
-0.0443611 0.086837 -0.421002 -0.501541 0.848297 -0.169847
-0.254422 0.148149 0.321143 -0.999114 0.0174919 -0.0382916
0.223751 -0.164075 -0.143458 0.516915 -0.85514 -0.0391669
0.0900404 -0.152781 -0.174465 0.386365 -0.639525 0.664627
0.146439 -0.379575 0.241351 0.339626 -0.14634 -0.929106
-0.227099 0.303953 0.190059 0.826259 0.561699 -0.0423199
0.0908881 -0.102707 0.173714 -0.276915 -0.066005 0.958625
-0.275389 0.325685 0.229388 0.826898 0.482288 0.289202
-0.0311528 -0.125242 -0.0500586 -0.548592 0.703192 0.452293
0.0182738 0.00616021 -0.344566 0.841522 0.536936 0.0594994
-0.0871549 -0.074617 0.163421 -0.932024 -0.326723 -0.15679
-0.154762 0.0906468 -0.20572 -0.629336 0.663176 0.405134
-0.05767 0.235649 0.208705 0.790106 0.552699 -0.265059
-0.0193205 -0.0928548 -0.23679 -0.919717 -0.388902 -0.053628
0.0726646 -0.00689502 0.097129 -0.509086 0.42661 -0.747553
-0.0393493 0.242642 -0.0479877 0.995569 0.0673252 0.0656513
0.0241412 -0.259635 0.183561 -0.477257 -0.863424 -0.163481
0.191523 -0.305873 -0.23955 0.876399 0.439464 0.196968
-0.0153846 -0.165824 0.22772 -0.222622 0.601737 -0.767041
-0.228814 0.221417 -0.132313 -0.517069 -0.85371 0.0618
-0.0124297 0.128495 -0.234788 -0.0438888 -0.113782 0.992536
0.114152 -0.233634 -0.385071 -0.16218 0.231603 -0.959196
0.169255 -0.235401 -0.338342 0.963209 0.20697 -0.171441
0.0611037 -0.197001 0.299807 0.851179 0.515058 0.101038
-0.109926 -0.0291522 0.109264 -0.991396 -0.037684 -0.125357
-0.254138 0.272275 -0.162582 0.094402 0.546309 -0.832247
-0.158657 0.252344 -0.0841242 -0.404549 0.76595 -0.499661
0.245635 -0.195321 -0.0223902 0.793139 0.575175 -0.200261
-0.0404206 0.0597353 -0.205349 -0.563757 0.768844 0.301757
-0.0326308 -0.084058 -0.259648 -0.596908 -0.498331 0.628782
0.00363091 -0.0772703 0.0833022 0.168746 0.395922 -0.902646
0.159012 -0.297747 -0.0420189 0.804534 0.593663 -0.017027
-0.0654444 0.0337853 0.0934854 0.25697 -0.750761 -0.608543
-0.147466 0.239604 -0.193214 0.739382 0.368475 -0.563508
-0.022747 0.212969 0.047228 0.788415 0.552043 0.271385
0.163684 -0.117939 0.185027 0.846996 0.522428 0.0983181
0.0249476 -0.164307 0.219246 -0.391098 0.701844 -0.595363
0.192323 -0.358556 0.106328 0.950541 0.305833 0.0542055
0.00375287 -0.150904 -0.168802 -0.753334 -0.656248 -0.0427456
-0.177501 0.162636 -0.254416 -0.800406 -0.563123 -0.20553
-0.117457 0.222322 -0.294727 -0.0157446 0.716779 -0.697123
0.125872 -0.0533855 0.0181223 0.840089 0.534747 0.0910809
-0.291973 0.25798 0.159802 -0.37067 0.748752 -0.549521
0.21764 -0.33419 -0.100648 0.579602 0.772463 0.259543
0.221623 -0.17067 0.0256309 0.853559 0.508103 0.115187
-0.0391963 0.175207 -0.177529 0.543689 -0.838285 -0.0409851
-0.113682 -0.0441545 0.170073 -0.967083 0.129598 0.218985
-0.0875165 0.0581514 0.425367 0.886931 0.4554 0.0772237
-0.0810707 0.0554478 -0.388896 -0.867726 -0.405197 -0.287867
-0.259585 0.254817 -0.0852854 -0.858786 -0.512173 -0.0128828
-0.0477292 -0.060413 -0.22822 -0.860176 -0.506172 -0.0623516
0.0502146 -0.0418931 -0.0876845 -0.326596 0.469556 0.820276
0.186549 -0.13732 0.088809 0.613409 0.766384 -0.190749
0.0270735 0.0807624 0.224925 0.70203 0.610666 0.36639
-0.240716 0.323659 0.0849085 0.0684411 -0.0675098 0.995368
0.148059 -0.218757 -0.248134 0.933225 0.345489 0.0986338
-0.0674949 0.0292819 -0.103531 0.266837 -0.56948 0.77749
0.146689 -0.268124 -0.090095 0.848107 0.518659 0.108199
0.0873503 -0.288724 -0.197088 -0.891375 -0.437325 -0.119154
-0.276674 0.289974 0.171139 -0.931739 0.34981 -0.0974458
-0.117958 0.0530617 -0.298278 -0.96278 -0.169211 -0.210765
0.0611127 0.0495684 0.189683 0.87947 0.412549 0.237354
-0.13192 -0.0459067 0.284995 -0.818472 -0.5702 -0.0705351
0.192862 -0.165693 -0.103493 -0.706186 0.694621 0.137128
0.0580413 -0.305543 0.193821 -0.760936 -0.640525 0.103465
-0.152304 0.111384 -0.307363 -0.636892 -0.754753 0.157213
-0.0450093 0.0780982 0.075236 0.492293 -0.821 -0.289148
-0.0889573 0.0231788 -0.17636 -0.309922 0.812796 -0.493266
0.0846408 -0.14423 0.18252 -0.746591 0.483892 0.456564
-0.0207202 -0.110126 0.215017 -0.00437192 -0.330939 -0.943642
0.00271363 0.0223115 0.305225 0.197523 -0.173722 0.964783
0.065142 -0.159239 -0.349831 0.204466 -0.160043 -0.965702
0.0707707 -0.346045 0.215141 -0.65056 -0.669557 0.358421
0.0758576 -0.239307 0.305905 0.67844 -0.588574 -0.439659
-0.242838 0.268933 0.122394 -0.48187 0.531161 0.6969
-0.140074 0.105123 -0.273798 -0.932116 -0.362069 -0.00816149
-0.096592 0.124931 -0.20814 0.725252 -0.633895 -0.268674
-0.0331862 -0.109086 -0.191086 -0.860022 -0.507627 0.0517333
0.187537 -0.322962 0.010715 0.839062 0.536914 0.0877385
0.143513 -0.429497 0.122972 -0.603337 -0.797485 -0.00175215
0.108377 -0.386248 0.125364 -0.929505 -0.343376 -0.134583
0.141502 -0.190992 -0.100673 -0.143092 0.97033 -0.194895
-0.177053 0.203096 0.262158 0.610844 0.138088 0.779616
0.0111112 -0.25442 0.363055 -0.833733 -0.543253 -0.0988204
0.117123 0.0634169 -0.234776 0.418187 0.872396 -0.253069
-0.136696 -0.0246625 0.371982 -0.676934 -0.711698 -0.187741
-0.143762 0.0987364 0.329451 0.106134 -0.318339 0.942017
0.100802 0.00384166 -0.0853391 0.0359808 -0.0935017 0.994969
0.127387 -0.0755692 -0.259476 0.597721 -0.466793 -0.651792
0.0512701 0.0596124 0.304634 0.826218 0.560799 -0.0535601
0.152734 -0.025648 -0.204107 0.91964 0.377441 0.108628
0.057713 0.0421683 0.272052 0.577329 0.815949 -0.0302907
0.228022 -0.182828 0.0861922 0.476035 0.853316 -0.212702
-0.0708458 0.151287 -0.308989 0.951992 -0.214022 0.218875
-0.274561 0.300202 -0.143932 -0.558532 -0.827827 -0.0523787
-0.128017 0.223175 -0.198069 -0.409583 0.674121 -0.614656
-0.0383466 0.0816804 -0.46635 0.0572892 0.733259 -0.677532
-0.221064 0.180206 -0.0797908 -0.921435 -0.386872 -0.0358777
-0.0962873 -0.117117 0.377856 -0.658268 -0.736007 -0.15804
0.112827 -0.04053 0.0729471 -0.333219 0.689966 -0.642583
-0.29059 0.28842 0.239051 0.134528 -0.369559 0.919417
0.138723 -0.25695 -0.394053 0.527628 -0.707965 -0.469461
-0.0554986 -0.0289934 0.377684 -0.661477 0.656274 0.362977
-0.0197731 -0.199085 0.306057 -0.84503 -0.526297 -0.0945309
0.180419 -0.324703 -0.040387 0.956953 0.111138 0.268124
-0.228521 0.201566 -0.0493387 -0.843911 -0.520041 -0.131802
0.0588603 -0.070674 -0.0685879 -0.481265 0.566083 0.669278
0.0497842 -0.267189 -0.00586848 -0.772886 -0.622042 -0.125343
-0.119261 0.129657 0.263048 0.628533 0.713395 -0.309861
0.070739 -0.0331864 0.198393 0.416943 -0.799513 0.432364
0.11824 -0.359714 -0.108629 -0.997034 -0.0737694 -0.0219243
-0.0176587 -0.0902762 -0.3376 -0.844965 -0.52594 -0.0970646
-0.125202 0.204047 -0.243835 0.823712 0.558205 0.099532
0.128356 -0.206062 -0.378277 -0.0922036 0.331519 -0.938932
-0.0227215 0.0152222 -0.448972 0.64843 -0.388634 -0.6546
0.150478 -0.368465 0.0454482 0.186679 -0.526326 -0.829537
-0.012959 -0.15031 -0.106202 -0.967517 0.251397 -0.0266518
0.00152015 -0.198091 0.181035 -0.85413 -0.505423 -0.122518
0.00733729 -0.0107654 -0.378253 -0.22892 0.339267 -0.912411
0.0760272 -0.0463005 -0.0600285 -0.484095 0.525827 0.699398
0.0165119 -0.130709 0.363386 0.926186 0.308701 0.216524
-0.165821 0.0418207 0.0880101 -0.908739 -0.380909 -0.17059
-0.00472641 -0.0787008 0.304793 0.548658 -0.50868 0.66349
-0.0798852 -0.00972438 -0.24745 -0.842241 -0.515982 -0.156179
-0.128414 0.0638636 -0.16409 0.207749 -0.619786 -0.756773
-0.00459126 -0.216938 0.256725 -0.845152 -0.527703 -0.0851343
-0.247441 0.254458 -0.211348 -0.547247 0.490648 0.678075
0.177079 -0.179922 0.193682 0.632404 -0.530452 0.564522
-0.104332 0.042248 -0.0481338 0.121741 -0.809643 0.574158
0.0206664 -0.0861626 -0.0787389 -0.467889 0.399667 0.788255
-0.0688335 -0.101624 0.210702 -0.707508 -0.678233 0.198578
0.00364297 0.138253 0.198455 0.787457 0.606654 0.109004
0.0720482 0.0974118 -0.212465 0.812843 0.352108 0.464011
0.0699518 -0.164371 -0.169544 0.536577 -0.710931 0.454601
0.130497 -0.121013 0.255388 0.108468 -0.447555 0.887654
0.0892047 0.0641734 -0.152996 0.863869 0.420836 0.276815
0.0491733 -0.246247 -0.0821767 -0.993926 0.0928868 -0.059022
-0.0629866 0.00793478 0.359437 0.947931 -0.250305 0.196913
-0.131724 0.0179476 0.422337 0.400063 -0.725566 0.559914
-0.0216791 -0.11722 0.451696 0.54714 -0.710586 -0.442386
0.0638136 0.110258 -0.113287 0.713253 0.700687 0.0175339
-0.229967 0.224279 0.380839 -0.668844 0.743401 0.001352
-0.108451 0.141679 -0.390819 0.425486 -0.568565 -0.704056
0.13933 0.014727 -0.229684 0.818573 0.574149 0.0170565
-0.211782 0.34185 -0.0979936 0.671504 0.598269 -0.437215
0.194752 -0.413957 0.127754 0.960461 0.278105 -0.0130906
0.0786837 -0.118287 -0.445384 0.532975 -0.835586 -0.133166
-0.130323 0.215745 -0.380134 -0.43749 0.899111 0.0142236
0.10243 -0.168368 -0.311096 0.833626 0.51494 -0.19976
-0.0904535 0.0590486 -0.467318 -0.745497 -0.531845 -0.401716
