ply
format ascii 1.0
comment Created by Open3D
element vertex 512
property double x
property double y
property double z
property double nx
property double ny
property double nz
end_header
0.250803 -0.343723 0.0918703 0.544438 -0.832335 -0.103948
0.210783 0.0951288 -0.505658 0.00569335 0.409488 -0.912298
-0.188062 -0.0458628 0.0147632 -0.610736 -0.79053 -0.0454428
0.00806928 -0.194031 -0.469631 0.456801 0.882106 -0.114984
-0.24445 0.0188811 0.102369 -0.69604 0.665973 0.268343
0.2736 0.152355 -0.4682 0.220494 0.247809 -0.943384
-0.0968026 -0.325112 0.369708 -0.644098 0.749664 0.152124
0.364165 0.0335896 -0.426047 0.867815 0.0637211 0.492785
-0.0864818 0.143577 0.00817408 -0.481154 -0.64226 0.596652
0.301069 0.34918 -0.354151 0.708816 0.6545 0.263077
0.304769 0.0590579 -0.32065 0.66739 0.373322 -0.644376
0.445974 -0.0426617 -0.118298 0.69277 -0.677091 -0.248228
-0.0044487 -0.227547 -0.633087 -0.639932 -0.0806336 -0.764189
0.0321048 -0.57843 0.121422 0.716534 -0.599144 -0.35722
-0.0162093 0.10269 -0.41797 -0.81475 0.409359 0.41062
0.271222 0.191435 0.0261927 0.148178 0.950195 0.274177
-0.0647713 0.0621499 0.203999 0.0755879 -0.152334 0.985434
-0.116979 0.0615675 0.0915336 0.377903 0.550386 -0.74449
-0.0425758 -0.0663311 -0.378794 -0.316629 0.280989 -0.905975
0.400086 -0.200914 0.256974 -0.332766 -0.679063 0.654324
0.169259 0.204338 -0.337117 0.635895 -0.0014145 0.771774
0.245141 -0.109209 0.499932 0.0634458 -0.481539 0.874125
0.293173 -0.218527 0.453581 0.0856504 -0.494688 0.86484
0.208298 -0.13787 -0.494709 0.71753 -0.615507 -0.326041
-0.04751 -0.348713 -0.274913 -0.573696 -0.770527 -0.277778
-0.145942 0.077499 0.00653632 0.711956 0.274241 0.64646
0.255123 -0.170142 -0.109126 -0.592474 -0.742911 0.31154
0.305935 -0.10975 0.349223 -0.815939 -0.531115 -0.228386
-0.20766 -0.26221 -0.0457805 -0.689154 -0.680429 -0.249165
-0.195718 0.111004 0.0574396 0.705545 0.704301 0.0785245
-0.000493525 0.0814747 0.182008 0.564568 -0.0125526 0.825291
0.102973 -0.468495 0.342282 0.0175411 -0.431464 0.90196
-0.158238 0.000974342 -0.542976 -0.460738 0.76376 -0.452097
0.328907 -0.350081 0.303013 0.694108 -0.662419 -0.281807
0.316072 -0.1605 -0.171468 0.592632 -0.801119 -0.0836348
0.0144613 -0.0957677 0.150525 -0.143869 -0.379906 0.913768
-0.173275 -0.328926 0.192979 -0.710975 0.618585 0.334466
0.220775 -0.230416 -0.155312 0.211772 0.178139 0.960947
0.355724 0.278746 -0.33403 0.631579 0.694278 0.345089
0.130019 0.00589295 0.00509126 -0.683546 -0.723513 -0.0964116
0.0115487 -0.463798 0.341745 -0.170267 -0.358503 0.91787
-0.0881649 -0.111955 -0.606435 -0.188065 0.480643 -0.856513
0.483579 -0.236144 0.425226 0.579203 0.559878 0.592504
0.0840522 -0.120414 -0.445815 -0.742934 -0.262624 -0.615693
-0.158748 0.0181535 -0.101634 -0.414665 -0.453487 -0.788925
0.444238 0.138344 -0.263498 0.521531 0.812667 0.259958
0.237411 -0.308263 0.408611 -0.0096623 -0.404793 0.914357
0.0661595 -0.246797 -0.602877 0.671425 -0.718231 -0.182574
0.201522 -0.145109 0.32316 0.65272 0.408725 0.637888
0.00598923 0.190663 0.114277 0.875212 0.358028 0.325299
0.0369706 -0.208075 -0.516496 0.686346 0.372755 0.624486
0.10059 -0.0452192 0.0200047 -0.412161 -0.221932 -0.883668
0.255679 -0.172619 -0.279314 0.537289 -0.842648 0.0355714
-0.178453 -0.31877 -0.010895 -0.77324 -0.565221 -0.287445
0.238933 -0.450006 0.342863 0.487094 -0.712941 0.504435
-0.10133 -0.0924484 -0.410274 0.411314 0.885994 -0.214094
0.273059 -0.347344 0.16004 0.714342 -0.590343 -0.37578
0.00995821 -0.350605 -0.41577 -0.720454 -0.631295 -0.287076
-0.175297 -0.266386 0.055118 -0.678064 0.645876 0.350819
0.310354 0.15113 0.0428191 0.796135 0.392155 0.460851
-0.0408931 0.0687532 0.0766364 -0.418579 -0.0874413 -0.903961
-0.0727645 -0.411418 0.200347 0.752623 0.596129 0.279622
0.31397 0.237861 -0.138541 0.745381 0.610906 0.266837
0.380581 -0.314696 0.350221 0.695334 -0.70144 -0.156499
0.431372 0.156035 -0.473138 0.163617 0.172156 -0.971387
-0.0719663 -0.203536 0.141217 -0.6951 0.699396 0.166378
-0.024475 0.031134 -0.0561783 -0.0835338 -0.267698 0.959875
-0.146027 -0.0854945 -0.0273628 -0.730477 -0.651926 -0.203461
-0.170611 -0.0355895 -0.0500453 -0.593135 -0.603467 -0.532934
0.129847 -0.163225 -0.46886 -0.5353 -0.84466 -0.00205164
-0.127704 -0.0914007 0.0747695 -0.583969 -0.722589 0.369926
-0.123567 -0.317458 -0.162206 -0.618138 -0.713308 -0.3303
0.101516 -0.11772 0.3731 -0.704657 0.694983 0.143031
0.159433 0.246085 -0.426473 -0.162008 0.477138 -0.863767
-0.322063 0.15152 0.162425 -0.483729 -0.761384 0.431626
0.0421408 -0.17986 0.400905 -0.807094 0.341773 0.481445
-0.188815 -0.198654 -0.157411 -0.694803 0.659728 0.286372
0.323569 0.134211 -0.289202 -0.496929 0.157435 -0.853391
0.135724 -0.35541 0.387519 -0.402912 -0.155289 0.901969
-0.00847395 -0.580846 0.161788 -0.664001 -0.711709 -0.229288
-0.318582 0.12405 0.096988 -0.828459 -0.464064 0.313528
0.351839 -0.0138817 0.306982 0.708028 0.652874 0.269169
-0.247293 0.226247 0.156266 -0.133423 0.39153 -0.910441
-0.105458 -0.0304564 -0.360612 0.156603 0.263628 -0.951828
0.409016 0.074482 -0.0265789 0.562671 0.793197 0.232892
-0.315859 0.155368 0.0351045 -0.646206 -0.560803 -0.517607
-0.139559 0.257212 -0.0122797 0.244777 0.737006 -0.630005
0.0749496 -0.125111 -0.606156 -0.112584 0.557689 -0.822379
0.152546 -0.17446 -0.53116 0.719154 -0.678576 -0.149508
-0.0990713 -0.424903 0.359887 -0.0494941 -0.108967 0.992812
0.0128503 -0.5211 0.31748 0.025005 -0.406093 0.91349
0.196755 -0.0793253 -0.0589137 -0.478719 -0.52489 0.703788
0.220722 0.287273 -0.278331 -0.614015 0.747894 0.25227
-0.011835 -0.19076 0.251155 -0.70961 0.537216 0.455909
-0.0739122 -0.274877 0.30811 -0.606782 0.474934 0.63738
0.49008 -0.0119809 -0.0369983 0.761163 0.596792 0.253908
-0.233524 0.150621 0.102088 0.58822 0.731966 -0.343836
-0.052729 -0.52587 0.115481 -0.729722 -0.608097 -0.312608
0.264766 -0.122543 -0.379061 0.692113 -0.519823 -0.500763
-0.0746781 -0.184173 -0.587749 -0.707735 -0.669859 -0.224501
0.298289 -0.28158 0.417641 0.0937779 -0.507177 0.856725
0.0341308 -0.424333 -0.265289 0.665947 -0.541441 -0.513183
0.262091 -0.121777 0.28164 0.321241 -0.372549 0.870639
-0.188589 -0.0617497 -0.531882 -0.70216 -0.653169 -0.283446
-0.0613579 -0.297425 0.213988 0.0842515 -0.742804 0.664186
0.261515 -0.11374 -0.0605962 -0.635343 -0.700882 0.324196
0.249569 0.25027 -0.106848 -0.434684 0.78331 0.444382
-0.0329925 -0.236235 0.345988 -0.615413 0.781393 0.103402
-0.127145 -0.186207 -0.0285682 -0.699077 0.594265 0.397669
-0.238693 0.311645 0.00319139 -0.715175 0.633957 0.294318
0.199516 -0.185099 -0.411561 0.689439 -0.633465 -0.351278
0.0722409 -0.33655 -0.361044 0.605516 -0.687539 0.4008
0.401342 -0.116056 -0.0681982 0.714774 -0.583115 -0.386101
0.0987262 0.125769 -0.0573152 0.445496 0.776941 -0.444855
0.278995 0.194882 -0.36224 -0.432136 -0.362073 0.82593
0.379547 0.0578829 -0.32445 -0.280594 0.349064 -0.894104
-0.13092 -0.160472 -0.0983754 -0.696174 0.682084 0.223835
0.111712 -0.0719767 0.279113 -0.609084 0.791548 0.0496829
0.447199 -0.0617891 -0.0701085 0.709813 -0.592808 -0.380454
0.0418503 0.10862 -0.302166 -0.657593 0.720149 0.221262
0.370487 -0.224797 0.351395 -0.519723 -0.113614 -0.846746
0.36461 -0.0686242 -0.27904 0.686757 -0.725799 0.0397609
-0.031676 -0.477862 -0.0432915 -0.79363 -0.551048 -0.257871
0.256578 0.239173 -0.331549 -0.417506 -0.743502 0.522393
0.248999 -0.061042 0.345729 -0.548853 -0.814743 0.18696
-0.0580494 -0.128386 0.0950449 -0.311235 -0.823234 0.474782
0.131913 -0.141789 -0.6026 0.309885 -0.0128495 -0.950687
0.186859 0.170477 -0.475978 -0.0511369 0.43434 -0.899296
0.201724 0.20036 -0.143582 -0.666184 0.744555 0.0428642
-0.13383 -0.207295 -0.366277 -0.716013 -0.581183 -0.386719
-0.169525 -0.193733 -0.306655 -0.755798 -0.561501 -0.336877
0.0781763 -0.326852 0.409913 0.117597 -0.434255 0.893081
0.455951 0.198607 -0.426138 0.549126 0.788348 0.27743
0.16944 -0.029808 -0.0356753 -0.598767 -0.5837 0.548428
-0.0741583 -0.380781 -0.155994 -0.747618 -0.653205 -0.119957
0.130474 -0.249771 -0.435752 0.776051 -0.478736 -0.410556
-0.234535 0.111532 0.178532 0.0954592 -0.796889 0.596536
0.448959 -0.125787 0.0631921 0.750952 -0.492054 -0.440403
0.156226 -0.41874 0.0222172 0.692702 -0.562036 -0.451973
-0.0813057 -0.0627445 -0.204615 -0.655933 0.711874 0.250972
-0.0965628 -0.128421 0.0305192 -0.642472 -0.739775 0.199907
-0.030417 0.00898478 -0.541433 -0.0765742 0.460634 -0.884281
-0.302325 0.20161 0.0998452 0.430008 0.894402 -0.123036
0.274825 -0.0552035 -0.534248 0.674437 -0.658477 -0.33398
0.0782324 -0.388994 0.379644 -0.22357 -0.148979 0.963235
-0.00368262 0.144621 0.17121 0.6421 0.222522 0.733616
-0.0873268 0.120913 0.206164 0.0459166 -0.0370235 0.998259
0.0250883 -0.0325905 -0.0700142 0.440687 -0.0963258 0.892478
-0.196407 -0.378457 0.285583 -0.725266 0.549338 0.41499
-0.0773228 -0.240621 -0.438847 -0.297347 -0.954442 -0.0249927
0.0772896 -0.504366 0.0720134 0.709764 -0.607117 -0.357273
0.455262 -0.0886406 0.230067 0.723154 0.628723 0.28593
-0.113695 -0.525083 0.26481 -0.84295 -0.468008 -0.265338
0.225477 -0.0899522 -0.557834 0.675192 -0.532367 -0.510589
-0.232681 0.0980845 -0.0223236 -0.643516 -0.217487 -0.733885
0.132066 -0.284307 -0.350556 0.700417 -0.698996 -0.144296
0.504423 0.0842368 -0.299617 0.69111 -0.676069 -0.255533
-0.0220933 -0.447199 0.257722 0.148728 0.73091 -0.666071
0.198697 -0.215447 0.459892 -0.00565755 -0.409163 0.912444
0.0802098 -0.41546 -0.165697 0.651552 -0.483085 -0.584901
0.0165993 -0.0773807 -0.405221 -0.403763 -0.466717 -0.786861
0.163578 -0.0153984 0.246789 -0.612433 0.511637 0.602622
0.363175 0.225647 -0.444369 0.00807388 0.559318 -0.828914
0.189863 -0.0751859 0.311755 0.0822333 -0.189519 0.978427
0.174295 0.110643 0.0269506 -0.689338 0.668821 0.278373
0.0295045 0.10471 0.0606962 -0.690385 -0.514669 -0.508413
0.353082 -0.241786 0.435808 -0.196127 -0.17611 0.964634
0.093997 -0.0616489 -0.0831792 -0.238713 -0.402431 0.883779
0.17728 -0.418682 0.0892231 0.617852 -0.766871 -0.17369
-0.0593255 -0.279107 -0.385918 -0.771372 -0.452803 -0.447163
0.0395506 -0.116551 0.216537 -0.767243 0.456766 0.450225
0.495227 0.0379127 -0.195746 0.696496 -0.646474 -0.311391
0.237594 -0.169355 0.470927 0.00784345 -0.480701 0.87685
0.404334 0.245525 -0.366417 0.81383 0.53812 0.219333
0.274262 -0.284942 0.0273605 0.688915 -0.669641 -0.277445
-0.110722 -0.0879713 -0.0815398 -0.813928 -0.49702 -0.300819
0.00362954 0.192064 -0.048543 0.657911 0.522038 -0.542798
0.19475 -0.267333 -0.101573 0.646706 0.762561 0.0164731
0.0339451 0.0782319 -0.516616 0.120165 0.276023 -0.95361
0.181694 -0.463605 0.214092 0.721318 -0.590745 -0.361553
0.180165 -0.352094 -0.0856757 0.683572 -0.683115 -0.257066
0.234711 0.115874 -0.304969 0.645531 0.651687 -0.398238
0.129504 -0.471757 0.220686 -0.614161 -0.393387 -0.684144
0.0250082 -0.323208 -0.5144 0.701008 -0.616056 -0.359255
0.0344011 -0.394963 -0.33026 0.710621 -0.625753 -0.321638
0.296859 -0.166764 0.387235 -0.293682 0.0323668 -0.955355
0.309377 -0.284498 0.0934716 0.637743 -0.591645 -0.493194
0.420993 0.137127 -0.188219 0.744528 0.590871 0.310724
0.244528 0.206529 -0.0322646 -0.557843 0.826814 0.0720382
0.0865975 0.162204 -0.33219 -0.66224 0.708403 0.244137
0.101364 -0.450856 0.163679 -0.584812 -0.54783 0.598228
0.334173 0.236629 -0.208874 0.677201 0.67264 0.298253
0.378338 -0.108802 -0.136574 0.665592 -0.707234 -0.238345
0.169992 0.278197 -0.362332 -0.605732 0.447307 0.658031
0.465214 -0.132105 0.301275 0.497808 0.844952 0.195559
0.402072 -0.176833 0.0983926 0.699392 -0.643929 -0.310172
0.440067 0.0629965 -0.0923591 0.591837 0.805792 0.0207138
0.0348685 0.20332 0.0492399 0.69563 0.714419 0.075528
0.00339736 0.0456396 -0.254856 -0.643871 0.738383 0.200552
-0.135807 0.0770615 0.214945 0.147764 -0.357228 0.922255
-0.13954 -0.476388 0.231118 -0.667572 -0.574634 -0.473438
0.0935409 -0.0124429 -0.547687 -0.185178 0.470025 -0.86301
0.185049 -0.222737 -0.0451103 0.0377814 0.670206 -0.741213
-0.0406463 -0.277105 -0.452887 -0.739233 -0.594525 -0.316347
-0.128159 -0.283074 0.190746 -0.66925 0.697334 0.256574
-0.184964 -0.137735 -0.288108 -0.706579 0.645094 0.29086
0.331934 0.109664 0.102674 0.705766 0.6292 0.325578
0.419568 -0.011598 0.150936 0.722498 0.670893 0.167031
0.129938 -0.247775 0.433735 -0.0308368 -0.378365 0.925143
-0.157706 -0.08257 -0.321324 -0.722441 0.663889 0.19321
0.140127 -0.212884 -0.0803942 0.918187 0.384869 0.0938514
0.280779 0.327854 -0.289868 0.437792 0.814811 0.380028
0.214841 -0.0353645 0.415387 -0.704047 -0.30583 -0.640926
0.0101166 -0.0142021 0.0518552 -0.103177 0.0750329 -0.991829
0.254958 0.207779 -0.265038 -0.413073 -0.349193 -0.841092
0.0558663 0.0392039 0.152475 0.53087 0.154506 0.833249
0.00307275 -0.582742 0.280653 -0.212194 -0.224796 0.951021
0.44445 -0.157127 0.375202 0.636062 0.535755 0.55533
0.00756001 -0.489716 -0.101904 -0.762095 -0.521606 -0.383586
-0.137697 -0.357549 0.348445 -0.688899 0.590687 0.420126
0.0571918 0.140246 -0.482837 -0.0941036 0.539639 -0.836621
0.0139035 -0.542486 0.000300133 0.615112 -0.547851 -0.567007
-0.0236241 -0.06655 -0.578042 0.0888895 0.365295 -0.926638
0.382469 0.204708 -0.245535 0.568137 0.763172 0.307878
0.345198 -0.112066 -0.211299 0.679515 -0.686592 -0.258555
0.316628 0.187054 -0.0486581 0.909081 0.415505 -0.0304522
-0.325669 0.215463 0.00785188 -0.387259 -0.40058 -0.830401
0.0715691 -0.273421 -0.507035 0.698431 -0.58482 -0.412528
0.356551 0.0128129 0.241743 0.725071 0.627202 0.284409
0.275091 -0.170472 -0.0437612 -0.189169 0.149088 -0.970561
0.335819 -0.221058 0.013074 0.69397 -0.660855 -0.285791
-0.127125 0.291003 0.114639 0.725765 0.632083 0.271544
-0.208496 0.0225137 -0.0675609 -0.656094 -0.404865 -0.636887
-0.232171 -0.000648328 0.038056 -0.670861 -0.631825 -0.388257
0.0287262 0.132224 -0.106351 0.273716 0.646972 -0.711692
-0.0243655 -0.157844 0.158303 -0.724333 0.556937 0.406404
0.074716 -0.488883 -0.0192843 0.624439 -0.62682 -0.466018
-0.0629733 0.0180956 -0.381826 -0.618135 -0.546103 -0.565403
-0.110374 -0.263723 -0.315339 -0.590718 -0.67246 -0.445925
-0.0491916 -0.391787 0.373804 0.198703 -0.443631 0.873905
-0.183611 0.239667 0.0478344 -0.468315 -0.678597 0.565851
0.332562 -0.151645 0.29179 -0.386147 -0.710688 0.588058
0.114556 -0.535053 0.220914 -0.0782929 0.392078 -0.916594
-0.0209106 -0.402648 -0.223413 -0.798392 -0.547432 -0.250776
-0.0931942 0.0463831 -0.146087 -0.321042 0.0279803 -0.946651
-0.180891 0.311572 0.162873 -0.729186 0.483636 0.484133
-0.0427173 -0.11927 -0.471811 0.584154 0.261654 0.768311
0.0586797 -0.39781 -0.229612 0.701916 -0.642987 -0.3064
-0.0297669 0.109634 -0.480803 -0.596224 0.666027 0.448247
0.0425356 -0.27488 0.423492 0.106516 -0.555664 0.824555
0.296451 0.0618438 0.290791 0.899612 0.371666 0.229264
0.345129 0.155442 -0.351837 -0.527066 -0.829137 0.186369
-0.121412 0.00860967 0.182706 -0.154204 -0.331478 0.930776
0.244597 -0.187192 0.344178 0.53793 0.835728 -0.110405
-0.180062 0.334234 0.0943381 -0.750201 0.488265 0.445865
0.169869 -0.0752289 -0.000154472 -0.0291316 0.223421 -0.974287
0.485229 -0.0787768 0.0372805 0.7065 -0.691539 -0.150438
0.0541691 -0.459318 -0.108004 0.636579 -0.761922 -0.119339
0.278186 -0.249673 -0.0450379 0.688772 -0.669104 -0.279094
0.224263 -0.435189 0.252978 0.638157 -0.749851 -0.174584
0.196251 -0.00759567 0.336271 -0.555516 0.802307 0.218414
-0.0282217 -0.589151 0.230453 -0.721962 -0.628787 -0.288787
0.30998 -0.238677 0.276094 0.644334 0.211011 0.735057
0.354954 -0.0526441 0.390259 0.66143 0.728741 0.177333
-0.127466 -0.438584 0.116051 -0.72269 -0.628582 -0.287409
-0.0603083 -0.220994 -0.526961 -0.711056 -0.636662 -0.298431
0.337556 -0.179626 -0.10248 0.718958 -0.61542 -0.323044
-0.0193582 0.150235 0.0540935 -0.49922 -0.862467 0.083249
0.406397 -0.103866 0.367569 0.712616 0.596334 0.369547
0.161231 0.160463 -0.103736 -0.726254 0.610102 0.316751
-0.149824 0.135567 0.19417 0.164966 -0.231154 0.95883
0.120045 0.16732 -0.224596 -0.757083 0.412244 0.506834
0.351188 -0.0223492 -0.40946 0.637503 -0.762691 -0.109049
0.401585 -0.158787 0.0166563 0.684033 -0.678157 -0.268704
0.251746 0.0244132 0.403485 -0.292292 0.850576 0.437133
0.236784 -0.127894 -0.445855 0.651983 -0.736293 -0.181082
0.114256 0.0989535 -0.110888 -0.681707 0.696236 0.224792
-0.0220841 -0.459796 0.183102 0.710191 0.580932 0.397677
0.0217224 -0.37462 0.382582 -0.0497266 -0.282277 0.958043
0.0413399 -0.136848 0.28312 -0.684373 0.695332 0.219424
-0.195967 -0.0973873 -0.452888 -0.674895 -0.686524 -0.270558
0.164449 -0.159996 0.483442 -0.147502 -0.397127 0.905833
0.28994 -0.132316 -0.317745 0.710381 -0.633426 -0.306807
0.15613 0.0682476 0.0908056 -0.753038 0.508227 0.417898
0.415514 0.111304 -0.127824 0.798283 0.452103 0.397929
0.170668 0.0374902 0.171139 -0.734694 0.577937 0.355265
-0.089157 0.0471086 -0.487642 -0.563914 0.823996 0.0550644
-0.10211 -0.513561 0.193159 -0.736815 -0.620421 -0.268666
0.110887 0.113563 0.0436202 0.71212 0.670374 0.208526
0.408815 -0.142895 0.453547 0.762795 0.615447 0.198413
0.294562 -0.043686 0.505471 0.593536 0.369107 0.715175
-0.114182 0.214792 0.0511733 0.00886031 -0.630652 0.776015
0.424535 0.189738 -0.32227 0.868375 0.464808 0.172851
-0.0238426 -0.269154 -0.510755 -0.721612 -0.627385 -0.292685
-0.0846948 -0.0306572 -0.136754 -0.463058 -0.223214 -0.85776
-0.11951 -0.373706 -0.0287796 -0.616572 -0.72688 -0.302463
0.0577912 -0.305115 -0.445006 0.693872 -0.638532 -0.332894
0.44253 0.0206897 0.0167121 0.733526 0.639768 0.229425
-0.0265303 -0.336861 0.3984 -0.0788001 -0.159165 0.984102
0.189828 -0.283396 -0.203387 0.700883 -0.653917 -0.284878
0.215514 -0.206271 -0.318373 0.651913 -0.733704 -0.19154
-0.167019 0.20483 0.202265 0.416877 0.00182679 0.908961
0.46518 -0.198348 0.282377 0.691458 -0.667081 -0.277288
0.214872 0.0988014 0.142337 -0.689331 0.632912 0.352484
-0.0990987 -0.348241 0.200659 0.471683 0.165097 0.866174
0.430201 0.0921764 -0.459816 0.688164 -0.690769 -0.221963
0.357933 -0.170422 -0.0333622 0.62288 -0.768871 -0.144423
0.294185 -0.401725 0.349193 0.735025 -0.677676 -0.022207
0.349856 -0.0775234 0.453282 0.702822 0.641159 0.308149
0.119501 -0.420255 -0.0415193 0.709966 -0.67802 -0.190362
0.150022 -0.074095 -0.578338 -0.129021 0.530236 -0.837976
0.205962 -0.365322 0.391034 0.0358231 -0.449373 0.892625
0.457922 0.0329553 -0.270129 0.594677 -0.794221 -0.124791
0.0141841 -0.653087 0.238648 0.64701 -0.731629 0.214704
-0.165685 -0.0648062 -0.404531 -0.7211 0.581861 0.3761
0.179543 -0.0880789 0.497506 -0.590396 0.576875 0.564489
-0.0835077 -0.0372793 -0.273365 -0.63635 0.768887 0.0622206
0.136897 -0.46638 0.112387 0.623512 -0.766994 -0.151501
-0.160593 -0.239517 -0.00118901 -0.665791 0.652684 0.36156
0.0700985 -0.0294538 0.152689 0.417752 -0.143368 0.897178
0.413265 -0.204129 0.163474 0.66112 -0.70843 -0.247077
0.376909 0.0543036 0.12307 0.871081 0.299745 0.389063
0.494551 0.130835 -0.4223 0.680791 -0.612977 -0.400977
0.110712 0.206375 -0.368399 -0.65587 0.70456 0.270979
0.223084 0.141878 0.0690059 -0.720183 0.630743 0.288962
-0.183288 -0.353876 0.0840299 -0.716646 -0.684807 -0.132126
-0.104945 -0.177563 -0.510073 -0.720681 -0.63101 -0.287135
0.252596 -0.209628 -0.211368 0.501675 -0.579555 -0.642214
0.48945 0.0948301 -0.354769 0.689806 -0.687185 -0.227913
0.105755 -0.178642 -0.0305558 0.49612 0.661086 -0.562877
0.0949841 0.118639 -0.1834 -0.74484 0.588535 0.314388
-0.0682862 0.25954 -0.0139991 0.297611 0.787801 -0.539256
0.22464 -0.118655 -0.0152872 -0.427472 0.172345 -0.887448
0.24465 0.0567727 0.340246 -0.480897 0.808048 0.340289
-0.209214 0.25907 -0.0267826 0.0101513 0.457007 -0.889405
0.0492656 -0.171945 -0.411719 0.0512668 0.237533 -0.970026
-0.129534 0.204809 -0.0634471 -0.698578 0.557933 0.447995
-0.0179425 0.106332 0.00810578 0.131598 -0.407165 0.903824
0.278762 0.306004 -0.225554 0.247761 0.935358 0.252428
0.0665141 -0.593675 0.209008 0.725247 -0.521384 -0.449639
0.383691 0.0806515 -0.508821 0.27456 0.0885426 -0.957485
-0.176352 -0.223101 -0.227595 -0.774847 -0.569759 -0.273838
-0.0449825 -0.236551 0.275547 -0.692925 0.663447 0.282298
-0.0538744 -0.544183 0.302208 -0.27598 -0.381631 0.882152
0.353744 0.142988 -0.480754 -0.00846607 0.422157 -0.906483
0.464256 0.0656847 -0.139193 0.764294 0.572762 0.29631
0.282376 -0.382407 0.282079 0.586522 -0.809891 0.00832056
-0.0138867 0.239039 0.013789 0.648887 0.73322 -0.203305
-0.0226356 -0.359789 0.183834 -0.112706 -0.293572 0.94927
-0.0822454 -0.0322987 -0.563242 -0.121488 0.59619 -0.793598
-0.0221381 -0.349526 -0.326053 -0.784193 -0.562664 -0.261631
-0.278392 0.234048 -0.0237236 -0.324481 -0.0211462 -0.945656
-0.0613434 -0.220791 0.216963 -0.693719 0.663703 0.279737
0.223894 0.0464243 0.280504 -0.692081 0.664881 0.280992
0.230407 0.328697 -0.356544 -0.725775 0.680744 0.0991857
0.174609 -0.288328 0.427518 0.232745 -0.497054 0.835923
-0.105111 -0.29033 -0.245373 -0.918821 -0.268596 -0.289177
0.411259 -0.0625146 -0.168526 0.585586 -0.772355 -0.246084
0.336961 -0.00220355 -0.501895 0.662684 -0.725992 0.183809
0.088156 -0.16439 0.445868 -0.693793 0.676737 0.246328
0.0691347 0.163507 0.015162 0.670693 0.741423 0.0215295
-0.212187 0.263419 0.188753 -0.674378 0.455874 0.580856
-0.262386 0.0803954 0.056411 -0.702442 -0.707057 -0.0815242
0.0277608 -0.465449 0.150765 0.588331 -9.96659e-05 0.80862
-0.0763157 -0.0336627 -0.477182 0.0918557 -0.302146 0.948826
-0.12777 -0.344836 -0.0917794 -0.699828 -0.706714 -0.103903
0.44182 0.0591501 -0.350188 -0.80466 -0.180411 -0.565663
0.0390808 -0.390798 0.230397 -0.710343 -0.642516 -0.287376
-0.0798005 -0.48141 0.331631 0.133118 -0.508836 0.850509
-0.0430386 0.237987 0.0884189 -0.613996 0.755456 0.22868
-0.192107 0.0347142 0.182713 -0.383696 -0.517912 0.764555
-0.0268163 -0.522074 0.0533016 -0.707882 -0.660707 -0.249739
0.106985 -0.152955 -0.0995687 0.716491 0.27534 0.64096
0.177661 -0.321016 -0.151521 0.692471 -0.66482 -0.280176
-0.0649106 -0.475196 0.039025 -0.76306 -0.601076 -0.237587
-0.233002 0.0708704 0.126156 -0.484615 -0.771698 0.411863
0.194267 -0.419123 0.143664 0.690511 -0.667732 -0.278079
-0.172469 -0.295174 0.127292 -0.698464 0.504161 0.507907
0.0256618 -0.147047 -0.601795 0.123631 0.292078 -0.94837
0.308532 0.0883068 0.184703 0.54185 0.837709 0.068126
0.39253 0.065122 0.0503943 0.742827 0.643863 0.183434
-0.150012 -0.1451 -0.480918 -0.776049 -0.58603 -0.233059
0.501432 0.0153251 -0.125871 0.526614 -0.57763 -0.623716
-0.19011 -0.165174 -0.22977 -0.659399 0.539303 0.52378
0.0477928 -0.100399 -0.0717139 0.568208 0.303486 0.764877
0.357596 -0.314447 0.408406 -0.0744451 -0.374373 0.924285
0.0485849 0.0703306 -0.00475398 -0.200057 -0.622363 0.756731
0.279599 0.250633 -0.432633 -0.0980866 0.451165 -0.887034
-0.170767 -0.269447 -0.158656 -0.631729 -0.734787 -0.246996
-0.0141231 0.0814197 -0.35976 -0.697642 0.653046 0.294662
-0.00131804 -0.0794759 -0.0182779 0.53944 0.841941 0.0118168
0.292809 0.198089 -0.29466 -0.799124 -0.411689 -0.43808
0.131638 -0.316591 -0.240671 0.646389 -0.759248 -0.0756626
0.109599 0.177981 -0.461703 0.0658576 0.382847 -0.921461
0.0647113 0.0314993 0.049283 -0.543615 0.267938 -0.795419
0.197715 0.163029 -0.284382 0.711864 0.582088 -0.392967
0.148515 0.201544 -0.278609 0.653886 0.74054 -0.155028
0.0245271 0.052993 -0.158043 -0.555922 0.580333 -0.595118
0.2203 -0.358681 0.027834 0.705345 -0.644777 -0.294537
0.130282 0.125147 -0.492916 0.0849783 0.349724 -0.932991
0.346343 0.00767233 -0.359428 0.592247 0.769572 -0.238752
-0.0724163 -0.347656 -0.210611 -0.663979 -0.700759 -0.2609
-0.0304832 -0.00156233 -0.249521 -0.622449 0.746728 0.234423
0.216552 -0.314912 -0.0523956 0.721164 -0.601665 -0.343398
-0.132544 -0.102864 -0.237212 -0.636217 0.771209 -0.0215582
0.390983 0.084728 -0.40252 0.0475091 -0.661511 0.748429
-0.0255623 -0.0167337 -0.442128 -0.608725 -0.751871 0.253265
-0.00652935 -0.00792117 0.163568 0.138286 -0.195583 0.970888
0.446256 -0.0305175 0.0765223 0.840772 0.477659 0.254842
0.134572 0.00916908 0.1323 -0.648761 0.69933 0.300078
0.102673 0.0580156 -0.517006 0.102856 0.374484 -0.921511
0.04052 -0.490994 0.243248 0.250401 0.466226 -0.848488
-0.086667 0.20085 0.111268 -0.439998 -0.287879 -0.850604
0.367038 -0.254067 0.144284 0.716164 -0.607278 -0.343981
-0.155484 0.107761 -0.110358 -0.353434 0.0592677 -0.93358
0.469499 0.10016 -0.207367 0.604625 0.729996 0.318645
0.315318 -0.0122297 0.406829 0.551567 0.821246 0.146044
0.297404 -0.23064 0.341892 0.323865 0.783946 -0.52966
0.408773 -0.051096 0.258726 0.745569 0.617237 0.251287
-0.0881868 0.133927 0.0913809 -0.88165 -0.0595922 -0.468125
-0.0253597 -0.140004 -0.4082 0.598203 0.330779 -0.729889
-0.173127 -0.421943 0.204589 -0.71441 -0.66844 -0.206898
0.284793 0.141116 0.141087 0.492506 0.653386 0.574913
0.175527 0.214125 -0.223668 -0.692093 0.656308 0.300445
-0.0159323 -0.377355 0.27842 -0.416406 -0.0743866 -0.906131
0.0611266 -0.0646394 -0.574478 -0.0481712 0.448855 -0.892305
0.0826941 -0.53459 0.126344 0.736659 -0.58608 -0.337407
0.352154 0.16278 -0.0995254 0.802767 0.584074 -0.120095
0.0853548 -0.179819 -0.629899 0.118236 0.220766 -0.968133
-0.167189 -0.302783 -0.105255 -0.719642 -0.632789 -0.28582
0.5063 -0.087245 0.110267 0.828763 0.54904 0.108197
-0.032886 -0.30616 0.277012 -0.793511 -0.429857 -0.430771
-0.127111 -0.189316 -0.427904 -0.562162 -0.793152 -0.234272
0.205491 0.0294911 -0.531456 -0.0258632 0.438832 -0.898197
0.329163 0.129342 -0.399836 -0.0168189 -0.401616 0.915654
0.0754204 -0.58491 0.282128 0.414244 -0.716259 0.561583
0.190294 -0.144189 -0.124084 0.0876387 -0.696232 0.712447
-0.184752 -0.430489 0.347028 -0.193353 -0.1541 0.968952
-0.124111 -0.247127 0.114265 -0.70714 0.625721 0.32928
-0.156486 -0.0404333 0.118726 -0.483477 -0.625062 0.612819
0.0206864 -0.465901 -0.173961 -0.44409 -0.779555 -0.441677
-0.116906 -0.378717 0.262111 0.892058 0.388793 -0.230374
-0.111062 0.174071 -0.111621 0.156447 0.287477 -0.944924
0.446168 -0.187303 0.218645 0.722621 -0.514087 -0.462096
-0.088911 0.019824 -0.000900497 0.717674 0.493651 0.491175
-0.0743053 0.0731656 -0.0300643 0.346763 -0.247455 0.904722
-0.226156 0.291372 0.0818527 -0.613554 -0.678209 0.404455
-0.0535416 0.131412 -0.122858 -0.107556 0.506071 -0.855759
0.158865 -0.440358 0.359653 -0.186517 -0.343191 0.92056
0.223903 0.291791 -0.411894 0.0607505 0.262266 -0.963081
0.3592 0.122203 -0.0090181 0.709452 0.629612 0.316649
0.172105 -0.261563 -0.295943 0.644872 -0.759459 -0.0858027
0.0459647 0.112986 0.13925 0.592987 0.256905 0.763129
0.274298 0.0664105 -0.51621 -0.0213255 0.423115 -0.905825
0.430429 -0.0131625 -0.23785 0.686169 -0.704213 -0.182365
0.0301312 -0.293157 -0.567275 0.74913 -0.578714 -0.322326
0.356417 0.254936 -0.265655 0.669026 0.675253 0.310545
0.128116 -0.356694 -0.177214 0.764529 -0.472325 -0.438639
0.357808 -0.277734 0.213539 0.688454 -0.668993 -0.280142
0.291841 -0.0598576 -0.455941 0.71456 -0.596912 -0.36483
0.0687927 0.182688 -0.417388 -0.71054 0.617668 0.337075
-0.175055 0.297432 0.01102 0.1078 0.804026 -0.584741
0.3995 -0.211865 0.45386 0.0730055 -0.593833 0.801269
-0.26346 0.173068 0.209015 -0.0515945 -0.553963 0.830941
-0.0701559 -0.0724138 0.127211 -0.377442 -0.512978 0.770968
0.451998 -0.252749 0.375499 0.600411 -0.795952 0.0772425
0.258205 -0.39089 0.205561 0.6907 -0.666543 -0.280452
-0.0388087 0.212971 0.170354 0.702736 0.420307 0.574024
0.327988 0.297744 -0.401663 0.268884 0.605375 -0.749148
0.386223 0.105778 -0.346131 -0.777102 -0.442608 -0.447449
0.31637 -0.146693 0.487247 -0.0454368 -0.36024 0.931753
0.418789 -0.288036 0.429434 0.481241 -0.747605 0.457706
0.333085 -0.0668865 -0.341153 0.613359 -0.789675 0.0143034
0.0390434 -0.148047 -0.515138 0.134455 -0.203111 0.96988
-0.0751463 -0.394668 -0.0978704 -0.765279 -0.635792 -0.100579
-0.116373 0.223543 0.173949 0.505084 0.499756 0.703658
-0.186937 0.17566 0.135175 -0.279684 0.458992 -0.843269
0.0322651 -0.079366 -0.486364 -0.636076 -0.512 0.57729
-0.187509 -0.142591 -0.379144 -0.760695 -0.635987 -0.129862
0.312802 -0.331003 0.225748 0.667691 -0.721453 -0.18356
0.0960116 -0.324748 -0.301744 0.671381 -0.646679 -0.362015
0.337406 -0.365936 0.373427 0.153442 -0.780476 0.606064
0.0569704 0.0109196 -0.0481432 -0.373328 -0.732677 0.569043
0.0798065 -0.521772 0.321866 0.0717027 -0.46184 0.88406
-0.136641 -0.0645188 -0.57966 0.109393 0.233801 -0.966111
-0.108028 -0.422218 0.0489889 -0.732075 -0.62162 -0.278665
0.202736 0.158637 -0.0409014 -0.706416 0.629277 0.324017
-0.27191 0.160231 -0.019406 -0.735404 -0.202527 -0.646656
-0.188431 0.173938 0.0200178 0.247779 -0.182011 0.951566
0.152509 -0.0914358 0.35848 0.839982 0.297626 0.453706
-0.190062 -0.37355 0.151919 -0.695925 -0.697639 -0.170258
0.0487881 0.0881813 -0.227651 -0.625214 0.760735 -0.174325
0.179522 -0.50615 0.285946 0.672877 -0.735475 -0.0794568
0.490525 -0.136784 0.178804 0.75381 -0.369585 -0.543302
0.375121 0.18125 -0.172179 0.805057 0.479367 0.349414
0.170618 -0.220829 -0.369132 0.712677 -0.627294 -0.313996
-0.195861 0.154534 -0.0552433 -0.449836 0.145698 -0.881147
0.224002 0.0738635 0.220932 -0.506703 0.858812 -0.0754529
0.244642 0.26857 -0.167376 -0.652376 0.518152 0.553104
0.252672 -0.00951689 0.4772 -0.0793816 0.974512 0.20982
0.0129108 -0.190109 0.326615 -0.690722 0.684988 0.231722
-0.0255498 -0.0123745 -0.182667 -0.760039 0.441458 0.476923
0.137732 -0.11452 0.445651 -0.651045 0.569613 0.501679
0.493474 -0.202162 0.349016 0.621623 -0.762308 -0.180199
-0.101412 -0.104606 -0.148855 -0.664756 0.694395 0.275525
-0.121257 -0.00391554 -0.457385 -0.674372 0.690163 0.262484
-0.256872 0.188969 0.0477025 0.322914 0.301033 0.897277
0.227545 -0.121 0.406515 -0.035911 0.323543 -0.945532
-0.171265 -0.446488 0.27264 -0.664201 -0.747553 0.000948522
-0.0209351 -0.430721 -0.158834 -0.754561 -0.501209 -0.423588
-0.107116 -0.20987 0.0641434 -0.690942 0.649062 0.318304
0.0780497 -0.117011 0.00695996 0.128242 0.627295 -0.768151
