ply
format ascii 1.0
comment Created by Open3D
element vertex 128
property double x
property double y
property double z
property double nx
property double ny
property double nz
end_header
0.306233 0.344744 -0.195305 0.588056 0.690164 -0.421739
-0.0704773 0.137234 -0.0129319 0.0249905 -0.929536 -0.367884
-0.0073508 0.26153 -0.133096 0.445822 0.883983 -0.140773
0.034537 -0.0930837 -0.261252 0.535828 -0.403135 -0.74187
0.226159 0.218925 0.0870076 0.646832 -0.25373 0.719186
0.327641 -0.199974 -0.174607 0.655946 -0.249794 0.712277
-0.160108 0.2024 0.245667 -0.683564 0.253954 -0.684286
0.0689415 -0.217387 -0.151381 -0.738227 0.225255 -0.635831
0.13786 0.0838857 0.128927 0.346526 -0.865355 0.362051
0.401266 -0.192768 -0.272736 0.607065 -0.327318 -0.724109
0.45354 0.202714 -0.167263 0.981297 0.180819 0.0660325
0.395464 0.279234 -0.0751598 0.678909 -0.227583 0.698061
-0.0676452 0.410118 0.282305 -0.203859 0.831086 0.517433
-0.238361 0.16388 0.0717845 -0.497066 0.501205 0.708321
-0.0711907 -0.217108 -0.131718 -0.0386238 -0.951635 -0.304792
-0.0432305 0.158185 -0.149329 -0.691476 0.214549 -0.689804
-0.110846 -0.0825832 -0.139037 0.0281633 0.944092 0.328477
0.193599 -0.0755046 0.011792 0.090283 0.064025 0.993856
-0.213191 0.077363 0.259167 -0.646347 0.208412 -0.73403
0.444511 -0.0658264 -0.268385 0.625292 -0.00294341 -0.780385
-0.0316575 -0.0140188 -0.186012 -0.545586 0.397363 0.73786
-0.141914 -0.47031 0.131934 -0.413893 -0.900247 0.135089
-0.0876053 -0.404905 0.204287 0.727358 -0.238431 0.643507
0.158588 0.167177 -0.111226 -0.744359 0.19897 -0.637448
-0.22883 -0.357757 0.284582 -0.562281 -0.718664 0.409099
0.150601 -0.0787216 -0.193507 -0.709668 0.235882 -0.663876
0.330191 0.170904 -0.296998 -0.701798 0.234971 -0.672509
0.148588 -0.472217 -0.142968 0.0874034 -0.923922 -0.372464
-0.0279872 -0.515835 0.0531545 -0.185872 -0.978679 -0.0874033
-0.238459 0.221414 0.338163 -0.700596 0.23815 -0.672644
0.426208 0.0528788 -0.278015 0.664148 0.208442 -0.717955
-0.196407 0.00339826 0.154714 -0.675786 -0.0644693 0.734273
0.295961 -0.0530914 -0.0887062 0.719337 -0.240635 0.651651
0.193782 -0.333907 -0.317125 0.36785 -0.661592 -0.653439
0.32881 0.0109194 -0.352816 -0.719146 0.229394 -0.655902
-0.025508 0.0718969 0.104779 0.363953 -0.661661 -0.655548
-0.242443 -0.0678496 0.239042 -0.699038 0.252274 -0.669107
0.234969 -0.176218 -0.0670686 0.66313 -0.246403 0.706785
0.0331618 -0.391608 0.0763485 0.737059 -0.221061 0.638652
0.00610875 0.259997 -0.0277368 0.261652 0.962566 0.0707507
0.376874 0.140179 -0.10457 0.717586 -0.242851 0.652759
-0.083766 -0.484842 -0.0810634 -0.567691 -0.546155 -0.615988
-0.0199207 0.130605 0.323577 0.67862 -0.244424 0.692627
-0.244957 -0.219105 0.187755 -0.697646 0.160886 -0.698144
-0.0853486 0.278352 0.437534 -0.391407 0.651913 0.649469
0.367481 0.259047 -0.227302 0.617025 0.575496 -0.536736
0.333361 -0.334924 -0.232351 0.807721 -0.589025 -0.0252349
-0.170219 0.0572411 0.00726498 0.626936 -0.219609 -0.747478
-0.0455388 -0.203562 0.232434 0.620581 -0.285978 0.730134
0.114855 -0.314295 -0.239135 -0.628373 0.267348 -0.730529
0.0864485 -0.426164 -0.243567 0.165777 -0.828142 -0.535443
0.0552238 0.42694 0.282629 -0.0733722 0.929907 0.360401
-0.065217 -0.169302 -0.235908 -0.373054 -0.296346 -0.87921
-0.307878 -0.137498 0.373722 -0.727765 -0.251349 0.638108
0.216327 0.339539 0.140948 0.751063 -0.217231 0.62347
0.259045 0.0267843 -0.0187709 0.713258 -0.239056 0.658874
0.196553 -0.394161 -0.100701 0.683583 -0.252534 0.684792
-0.178231 -0.26182 0.101945 -0.704396 0.227573 -0.672337
-0.303143 -0.323069 0.211545 -0.744069 0.227324 -0.62824
-0.179872 0.334862 0.326319 -0.370317 0.703311 0.60681
0.17183 -0.209837 -0.261856 -0.676157 0.231927 -0.699301
0.0342047 0.0176294 -0.284828 -0.795821 0.209362 -0.568188
-0.18451 -0.0513338 -0.05162 0.615502 0.684626 -0.390441
-0.174889 0.075008 0.47027 0.733623 -0.209336 0.64651
-0.254415 -0.397208 0.163396 -0.601207 -0.70042 0.384658
-0.340216 -0.0346605 0.357895 -0.754158 0.209973 -0.62222
-0.168604 0.107742 0.153961 -0.545505 0.414761 0.728284
-0.0962849 0.298699 0.213418 -0.741532 0.234613 -0.628559
0.311706 0.288042 0.0188236 0.744442 -0.235751 0.624682
-0.242681 -0.216608 0.406455 -0.683766 -0.367651 0.630315
-0.280228 0.0654768 0.0779332 -0.965502 0.236643 0.10866
0.167122 0.424884 0.223086 0.746762 -0.265257 0.609906
-0.158584 -0.26744 0.32661 0.758372 -0.243731 0.604539
-0.111428 -0.0131658 0.36905 0.728338 -0.207975 0.652893
0.0889984 -0.301854 0.0461217 0.643797 -0.231682 0.729279
-0.0112394 -0.0368767 0.158206 0.692315 0.0640539 -0.718746
0.266677 -0.224113 -0.358282 0.547616 -0.383452 -0.743694
0.0869291 0.466631 0.0727273 -0.71716 0.238153 -0.654954
0.0234425 0.122088 0.0100445 -0.251106 -0.956581 -0.14798
-0.265006 -0.0410386 0.0792504 -0.715249 -0.24799 0.653391
0.165793 0.307943 -0.0677592 -0.699666 0.23689 -0.674055
-0.0071274 0.340558 0.127779 -0.706249 0.230685 -0.669325
0.223861 -0.416091 -0.203379 0.280761 -0.759845 -0.586353
-0.0635526 -0.0689856 0.294859 0.683782 -0.211127 0.698475
-0.204786 -0.185675 -0.0239595 -0.482348 -0.842414 0.240164
0.286968 0.42827 0.0651037 0.367924 0.927719 -0.0629986
-0.157936 -0.469956 -0.000255052 -0.746988 -0.486152 -0.453502
0.0139351 -0.474134 -0.159258 -0.00631864 -0.919665 -0.392653
0.134598 0.176867 0.173441 0.729096 -0.238568 0.641486
0.0700693 -0.509536 -0.00728803 0.720638 -0.240879 0.650121
-0.124209 -0.348058 0.0105672 -0.749981 0.227295 -0.621181
0.108817 -0.398897 -0.00816118 0.704249 -0.223344 0.673907
0.126267 0.290273 0.219277 0.68456 -0.26383 0.679537
0.00889552 0.468191 0.180693 0.00334141 0.941129 0.338031
0.270916 0.404691 -0.117379 0.518828 0.819764 -0.242496
0.231948 0.00700463 -0.250645 -0.657074 0.236676 -0.715708
-0.100092 -0.229164 0.0236336 -0.372082 -0.924011 0.0880808
0.0667041 0.0641643 0.204691 0.682133 -0.225632 0.695547
-0.176377 0.217936 0.424143 -0.476646 0.462735 0.747453
0.141079 -0.200416 0.0285257 0.722876 -0.234174 0.650086
-0.320637 -0.24644 0.295978 -0.682475 -0.482604 0.548928
-0.179001 -0.0900029 0.418682 0.728359 -0.23758 0.642688
-0.144023 0.254246 -0.00540807 -0.717897 0.241377 -0.652963
0.351215 -0.109037 -0.342343 0.657484 -0.282837 -0.698368
-0.266179 0.13133 0.404882 -0.612741 0.307773 0.72789
-0.19676 -0.395605 0.0734012 -0.724201 0.252079 -0.641864
-0.176437 -0.20308 -0.126981 -0.140297 -0.982167 -0.125159
-0.0181073 -0.30115 0.165511 0.709222 -0.240453 0.662711
0.0210708 -0.12537 -0.0233357 0.000172778 0.928008 0.372559
0.0656143 0.0117833 -0.109312 -0.687398 -0.0175688 0.726068
-0.288728 0.0476849 0.331601 -0.682497 0.267032 -0.680361
0.0317683 -0.36493 -0.165756 -0.686223 0.211995 -0.695814
0.266587 -0.330919 -0.155021 0.717792 -0.255028 0.64787
-0.0117064 -0.121944 0.0791646 0.502501 0.828981 -0.245526
0.372496 -0.037938 -0.16275 0.710737 -0.235301 0.662938
-0.00716023 0.239833 0.0738642 0.0074724 0.954211 0.299041
-0.270133 -0.109536 -0.00168294 -0.703082 0.237006 -0.67045
0.183333 0.461657 0.0920801 0.229166 0.968945 0.0928916
0.233496 0.145354 -0.201598 -0.745091 0.234195 -0.624494
-0.0958596 -0.0403653 0.0700064 0.718468 0.330274 -0.612146
-0.263715 -0.000466917 0.4348 -0.658798 -0.0181406 0.752101
-0.187666 -0.147504 0.084147 -0.618841 -0.646217 0.446587
0.229433 -0.115249 -0.291432 -0.716367 0.236438 -0.656442
-0.0134615 -0.293361 -0.0900179 -0.669319 0.236849 -0.704213
0.284796 0.163804 0.00529647 0.721551 -0.245973 0.647195
0.157865 0.418332 -0.0228421 -0.711484 0.242599 -0.659497
0.0457711 0.291437 0.31001 0.704961 -0.224003 0.672944
0.05596 0.143668 -0.255488 0.675107 0.431231 -0.598557
