ply
format ascii 1.0
comment Created by Open3D
element vertex 128
property double x
property double y
property double z
property double nx
property double ny
property double nz
end_header
-0.148865 -0.23425 -0.482564 -0.189354 -0.943125 -0.273239
0.556615 0.0457941 -0.336891 0.32189 0.203274 -0.924698
-0.0401262 -0.0980145 0.440552 0.0641595 -0.289563 0.955006
-0.201758 -0.136928 -0.538051 0.32189 0.203274 -0.924698
-0.189247 0.0499264 -0.0888743 -0.981834 0.178426 0.0645426
0.37229 0.26805 -0.352197 0.32189 0.203274 -0.924698
0.387578 -0.430908 -0.175521 -0.189354 -0.943125 -0.273239
0.218783 -0.170992 0.0512769 0.646435 -0.329197 0.688296
-0.0667713 -0.438825 0.331588 0.350427 -0.324857 0.878447
-0.134946 -0.194887 0.316586 0.742587 0.0445173 -0.668268
0.169897 -0.425232 0.408876 0.189354 0.943125 0.273239
0.215866 -0.0170194 -0.22477 -0.802863 -0.0114935 0.596053
-0.123368 -0.0231535 -0.179194 0.927648 -0.263048 0.265093
0.37957 0.409503 -0.282225 0.189354 0.943125 0.273239
-0.0776093 -0.429947 0.370938 -0.838189 0.0103078 0.545283
0.164865 0.240043 -0.0713725 -0.189354 -0.943125 -0.273239
-0.19056 0.204398 -0.356197 -0.32189 -0.203274 0.924698
-0.196477 -0.0966917 0.232393 -0.927074 0.263409 -0.266737
-0.0518314 -0.155473 0.353395 -0.185056 0.307564 -0.933359
-0.129767 -0.129618 0.32537 0.830043 -0.00508176 -0.557676
0.420382 0.0981531 0.332921 0.927649 -0.263048 0.265092
0.105789 -0.327563 0.116184 0.189354 0.943125 0.273239
0.245484 0.0262565 -0.177962 -0.898954 0.0545657 0.43463
-0.152898 0.227556 -0.337996 -0.32189 -0.203274 0.924698
0.211074 -0.193445 -0.282676 -0.137261 0.419998 0.897085
0.116389 -0.0989478 -0.418955 0.32189 0.203274 -0.924698
0.0329371 -0.419265 0.0300548 -0.189354 -0.943125 -0.273239
-0.114475 0.117328 0.0229233 0.189354 0.943125 0.273239
0.0240817 -0.0154991 -0.305526 0.136758 -0.300892 0.943801
0.300975 0.0130692 0.617737 -0.189354 -0.943125 -0.273239
-0.208711 0.0594851 -0.497295 0.32189 0.203274 -0.924698
0.0415973 0.182957 0.332991 -0.817167 0.305647 -0.48869
-0.124172 0.0812275 0.149536 -0.954943 0.112112 0.2748
0.314418 0.0839355 -0.159037 0.189354 0.943125 0.273239
0.272216 0.0978684 -0.406364 -0.927649 0.263048 -0.265092
-0.107473 0.4638 -0.373174 0.32189 0.203274 -0.924698
-0.0850238 0.0126833 -0.229602 0.761613 -0.316708 0.565368
0.148092 0.205895 -0.236746 -0.347884 -0.350522 0.869547
0.397023 -0.43259 -0.176261 -0.189354 -0.943125 -0.273239
0.16422 -0.299536 -0.0666243 -0.761611 0.316708 -0.565372
0.343597 0.0694361 0.393642 -0.189354 -0.943125 -0.273239
0.105626 -0.0374199 -0.409175 0.32189 0.203274 -0.924698
-0.0326616 -0.35488 0.306419 0.189355 0.943125 0.273239
0.0759685 -0.259954 -0.0965136 0.189354 0.943125 0.273239
0.118263 0.0860777 -0.377628 0.32189 0.203274 -0.924698
0.390012 -0.335106 -0.0547433 0.189354 0.943125 0.273239
0.0501011 0.276513 0.405129 0.189352 0.943125 0.27324
0.306553 0.0301603 0.032026 0.189354 0.943125 0.273239
0.257726 0.393396 -0.261524 0.32189 0.203274 -0.924698
0.275285 0.184636 0.0433501 -0.189354 -0.943125 -0.27324
-0.00131154 0.322616 -0.0398272 -0.745457 -0.0430414 0.665163
0.204016 0.125546 -0.226153 0.189353 0.943126 0.273239
-0.0606184 -0.319962 0.372062 0.257249 -0.316203 0.913148
-0.22294 -0.242001 0.301294 -0.926292 0.0792481 0.36838
-0.115135 -0.24127 -0.039155 0.709644 0.0608825 -0.701925
0.107855 -0.0448079 0.568388 0.321888 0.203274 -0.924699
0.295505 -0.181587 -0.179337 0.97815 -0.156854 -0.136451
0.0275417 -0.185283 -0.298799 0.0608195 0.806773 0.587724
-0.169585 -0.0166758 0.0316687 -0.954943 0.112112 0.2748
-0.201221 -0.00785365 -0.130517 -0.978231 0.205255 -0.0305574
-0.0461099 0.333299 -0.0893421 -0.745457 -0.0430414 0.665163
0.41331 0.186547 -0.0881358 -0.30355 -0.944591 0.124921
0.323261 0.386151 -0.298927 -0.927649 0.263048 -0.265092
-0.0198706 -0.233132 0.217315 -0.878149 0.0381528 0.476864
0.127228 0.212167 -0.34679 0.32189 0.203274 -0.924698
-0.0429801 -0.281328 0.299369 -0.623706 0.330451 -0.708373
0.209595 -0.491167 0.485762 0.927649 -0.263048 0.265092
0.284664 0.143852 0.177626 -0.189354 -0.943125 -0.273239
0.0856232 -0.514522 0.322336 -0.189354 -0.943125 -0.273239
-0.0790894 -0.340392 0.288588 0.189352 0.943125 0.27324
-0.244949 -0.11164 -0.371262 0.0966429 0.854746 0.509969
-0.094727 0.414084 -0.379666 0.32189 0.203274 -0.924698
0.432457 0.178728 0.37062 0.927649 -0.263048 0.265092
0.526556 -0.242586 -0.376729 0.927649 -0.263048 0.265092
-0.157843 0.05571 0.265662 0.189354 0.943125 0.273239
-0.041044 -0.0553208 0.383767 -0.0881244 0.293473 -0.951897
-0.0029108 -0.406081 0.445948 -0.495706 -0.148392 0.855719
0.383174 0.0579021 0.423186 0.927649 -0.263048 0.265092
0.0392565 0.279544 0.00285081 -0.745457 -0.0430414 0.665163
-0.257448 0.140568 -0.496436 0.32189 0.203274 -0.924698
0.178216 -0.422014 -0.0611352 -0.189354 -0.943125 -0.273239
-0.0608191 -0.255591 -0.143933 -0.745457 -0.0430414 0.665163
0.134722 0.0932554 -0.266975 -0.298665 -0.209768 0.931019
0.206947 0.431992 -0.240222 0.189354 0.943125 0.273239
-0.136018 0.111163 0.0591324 0.189354 0.943125 0.273239
0.0652443 0.258487 0.342692 -0.759517 0.317047 -0.567992
0.356951 0.188799 0.49524 0.189354 0.943125 0.273239
0.407981 0.0944005 0.372592 0.927649 -0.263048 0.265092
-0.167674 -0.324656 -0.112476 0.878149 -0.0381527 -0.476864
-0.150701 -0.167275 -0.101726 0.947787 -0.102833 -0.301871
0.352809 0.278953 -0.356582 0.32189 0.203274 -0.924698
-0.0140764 0.465606 -0.203077 0.189354 0.943125 0.273239
-0.0280475 -0.130662 0.353835 -0.417284 0.329187 -0.84706
0.35044 -0.214558 -0.249283 -0.202414 0.242479 0.948806
0.285041 0.0268343 0.645816 -0.32189 -0.203274 0.924698
0.265804 0.0527867 -0.42866 -0.927649 0.263048 -0.265092
0.0132606 -0.492952 0.298034 -0.189354 -0.943125 -0.273239
0.0208338 0.126527 -0.402652 0.32189 0.203274 -0.924698
0.410909 -0.433401 -0.161387 0.927649 -0.263048 0.265092
-0.168084 0.126412 -0.141906 -0.942464 0.252649 -0.218931
-0.0162196 -0.0560254 -0.309117 0.326714 -0.322933 0.888241
-0.133556 -0.0779826 -0.19785 0.910451 -0.272853 0.310854
0.145479 -0.174383 -0.310182 -0.600571 -0.108912 0.792119
-0.118569 -0.0347491 0.275131 0.869312 -0.290407 0.399951
0.208306 -0.416089 -0.0656013 0.807685 -0.30785 0.502866
-0.168813 0.104833 -0.16255 -0.92769 0.263022 -0.264973
0.301459 -0.0728936 -0.24588 -0.32189 -0.203274 0.924698
-0.167327 0.497616 -0.214559 -0.745457 -0.0430413 0.665163
0.0989542 -0.196695 -0.420511 0.332751 0.200174 -0.921524
-0.0391537 0.0265958 -0.342578 -0.32189 -0.203274 0.924698
0.0233103 -0.0286815 -0.435909 0.32189 0.203274 -0.924698
0.420164 0.0978832 -0.167017 -0.32189 -0.203274 0.924698
-0.0628236 0.0856662 0.0405168 0.773689 0.0280392 -0.632945
0.312534 0.397545 -0.264669 -0.683875 0.326355 -0.652539
-0.209817 -0.223451 -0.477599 -0.189354 -0.943125 -0.273239
0.245115 0.120371 -0.236772 0.189354 0.943125 0.273239
0.0315034 -0.43234 0.456628 -0.319761 -0.203877 0.925304
0.0129743 0.175274 0.403924 -0.963732 0.231803 -0.132239
0.00652835 -0.140069 0.411682 0.440113 -0.330275 0.834997
0.213156 -0.0265772 -0.228605 -0.802863 -0.0114935 0.596053
-0.116692 0.025368 -0.0629855 0.968626 -0.133798 -0.209432
0.0421125 -0.0486311 -0.330826 -0.32189 -0.203274 0.924698
0.218647 -0.187015 -0.10264 -0.942541 0.252588 -0.218668
-0.0382043 -0.171706 -0.488763 0.32189 0.203274 -0.924698
0.140378 -0.167534 -0.30537 -0.154144 0.376856 0.913356
0.109412 0.155955 -0.265554 0.189354 0.943125 0.273239
0.132621 0.0525808 -0.353225 0.2399 0.225405 -0.944267
0.597465 0.316347 -0.111684 0.189354 0.943125 0.273239
