ply
format ascii 1.0
comment Created by Open3D
element vertex 512
property double x
property double y
property double z
property double nx
property double ny
property double nz
end_header
0.0939508 -0.166748 0.0637159 0.799357 0.416107 0.433455
0.297149 -0.324241 0.14466 0.810724 0.40153 0.426027
-0.271636 0.0855401 0.0831283 -0.970106 0.171906 0.171295
-0.0238891 -0.219854 0.0386485 -0.304223 0.880585 -0.363344
-0.016903 0.176078 -0.265771 0.539526 -0.73629 -0.408399
0.0190322 0.0770699 -0.24486 0.267677 0.39538 -0.878649
0.0018623 -0.0107282 -0.277787 0.358101 0.29618 -0.885461
0.29679 -0.142972 -0.242579 0.10036 -0.80707 0.581863
-0.117481 0.48738 0.0672429 -0.854057 0.429756 -0.293082
0.198579 -0.181944 0.163953 -0.436695 -0.142625 0.888231
0.0726557 0.415768 -0.139514 0.783879 0.353412 0.510523
0.0841902 -0.263995 0.104517 -0.576378 0.23604 0.782351
0.273302 -0.210588 0.0778426 0.800471 0.414262 0.433167
-0.183029 0.371376 0.201512 -0.945652 0.323056 -0.0371041
-0.017063 0.00556818 0.220457 0.391695 0.182021 -0.901911
0.129232 0.300589 -0.260751 0.585221 -0.665788 -0.462864
0.167806 -0.182546 -0.052904 0.552709 -0.754198 -0.35454
-0.022544 -0.292572 -0.0412781 -0.208506 -0.961397 -0.179555
-0.105292 -0.244641 0.106557 0.0167749 -0.744703 0.667185
0.0269197 0.293381 0.047998 -0.420381 0.906164 -0.0463303
0.0419781 -0.130976 -0.266354 -0.0891107 -0.459627 -0.88363
-0.120846 0.493946 0.132743 -0.53508 0.82823 0.166508
-0.0611617 0.164956 -0.106466 0.174921 -0.869736 0.461478
-0.0706154 0.00670357 0.516754 0.78028 0.401139 0.479844
-0.0661616 -0.204575 0.074986 -0.0786375 0.792461 -0.604832
0.20528 0.300496 -0.351815 -0.287324 0.143599 -0.947008
0.180435 -0.335033 0.363023 0.102613 -0.805163 0.584108
-0.049298 0.296524 0.19753 0.807646 0.381208 0.449876
-0.0946788 -0.00803931 0.139766 0.461969 0.0276417 -0.886465
0.0300176 0.304727 -0.265917 -0.480976 0.308788 -0.820556
-0.109469 0.235067 -0.194102 -0.648642 0.435497 -0.624185
0.112152 0.342163 -0.139846 0.768575 0.350324 0.535317
-0.122554 0.283746 0.0921001 0.279767 0.390635 -0.877003
0.0877251 0.180476 -0.106999 -0.036031 -0.689781 0.723121
0.0883854 -0.03549 -0.302219 -0.343575 0.91059 -0.229744
0.0633048 -0.31962 0.0212327 -0.196819 -0.970629 -0.138354
0.0264269 0.00437118 0.0172663 -0.801412 -0.406459 -0.438782
0.140621 0.328273 -0.317629 -0.374052 0.239794 -0.89587
0.0192943 -0.281569 -0.0838995 0.583444 -0.368787 -0.723595
-0.228247 0.165929 0.175428 0.0257951 -0.745958 0.665493
0.37599 -0.324636 -0.0764261 -0.0421108 -0.859975 -0.508596
-0.0556393 0.260284 0.245454 0.808553 0.403226 0.428546
0.266512 -0.383769 0.152277 -0.232466 -0.967191 -0.102476
-0.133014 -0.0956108 0.145921 0.2987 0.340635 -0.891485
-0.230012 -0.0548416 0.106867 0.480456 -0.0231587 -0.876713
-0.219229 0.253963 0.184034 -0.958049 0.271122 0.0929287
0.0760098 0.376623 -0.107464 0.764079 0.442617 0.469334
-0.204584 0.172816 -0.0297528 -0.447974 0.894008 -0.00826114
-0.188726 0.0889756 0.0714056 0.611411 -0.579531 -0.538814
-0.0293394 0.0593352 0.079333 0.812408 0.378318 0.443698
-0.0446025 0.0165974 0.459521 0.826892 0.349375 0.440666
-0.0878414 -0.0334182 0.483893 -0.844955 -0.312592 0.433979
0.260047 -0.0193464 -0.0721531 0.8034 0.408563 0.433157
-0.00106609 0.0154265 -0.221637 -0.391945 -0.251045 0.885074
0.32349 -0.324686 0.0943797 0.800848 0.399345 0.44628
-0.240438 -0.0586019 0.155948 -0.447722 0.00100329 0.894172
-0.0355676 0.257061 -0.00762208 -0.339179 0.914062 -0.222369
-0.0521387 0.0281537 -0.236493 -0.28626 -0.379673 0.879718
-0.221042 0.16756 -0.0797164 -0.403677 0.902364 -0.150942
0.0346838 -0.183549 -0.221843 0.562893 -0.775575 -0.285718
0.0690293 0.0672772 -0.125082 -0.80631 -0.39304 -0.442022
0.0894873 -0.230531 -0.0620419 0.562448 -0.780143 -0.273914
0.375429 -0.0874165 -0.316799 -0.0535899 -0.53505 -0.843119
0.227996 -0.341585 -0.00806849 -0.182829 -0.944579 -0.272662
-0.130354 0.158425 0.0253417 0.591897 -0.777904 -0.211003
-0.157628 0.127435 0.0524582 0.57119 -0.747595 -0.338887
-0.0964549 -0.173972 0.298278 -0.678449 -0.617916 0.39735
-0.100419 0.412554 0.155988 0.27205 0.39209 -0.87878
-0.0706593 0.150633 -0.257702 -0.407727 0.170911 -0.896966
0.223649 0.130446 -0.150215 0.755544 0.4643 0.462145
0.0778817 0.252374 -0.257164 0.587112 -0.639706 -0.496061
0.351613 -0.356943 -0.0155571 -0.0833364 -0.912425 -0.40067
0.0292122 0.20271 -0.244845 0.602124 -0.618934 -0.504348
-0.083702 0.205749 0.217508 0.0222685 -0.730456 0.682597
0.0776214 0.00185965 -0.242528 0.360681 0.243791 -0.900264
0.0702344 -0.289327 -0.0574458 0.373399 0.193319 -0.907304
-0.0379645 0.154204 -0.0564245 0.280258 -0.900857 0.331529
-0.111799 -0.0506501 0.168541 0.402691 0.166982 -0.899976
-0.138887 0.139071 -0.11741 0.279715 -0.899768 0.334929
0.122948 0.254862 -0.203995 0.580287 -0.705057 -0.407631
0.240301 -0.0810247 -0.3075 -0.0643266 -0.44526 -0.893088
-0.0509377 0.00067534 0.294121 -0.43199 0.900682 -0.0464335
0.0219493 -0.120058 0.466524 0.797693 0.463965 0.385256
0.0189083 0.302314 -0.106169 -0.565063 0.30193 0.767816
-0.0920738 0.0404132 0.231819 -0.47274 0.0506858 0.879743
0.316365 0.0547549 -0.366993 -0.123884 -0.337048 -0.933301
-0.132786 -0.164164 0.257717 -0.70571 -0.585529 0.398909
0.0287886 0.0535511 -0.0315872 -0.776922 -0.402138 -0.484436
-0.176275 0.16633 -0.154202 -0.251947 0.909042 -0.33191
0.139684 -0.140337 -0.266983 -0.0302453 -0.576842 -0.816295
-0.025462 0.225055 0.221588 0.796382 0.4237 0.431572
0.0304489 -0.181489 -0.137071 -0.598583 0.697192 0.39449
0.0405256 0.0110502 0.245183 0.323534 0.25756 -0.910488
-0.183638 0.291264 0.325033 0.460058 -0.880268 0.116082
-0.0647854 0.01188 -0.285052 -0.320655 0.0835534 -0.943504
-0.117483 0.139726 -0.237362 -0.50139 0.307389 -0.808777
0.166033 0.32635 -0.224226 0.803537 0.381076 0.457286
-0.266478 0.119739 0.0393445 -0.962985 0.260435 0.0695287
-0.104221 0.170413 0.188387 -0.241179 -0.394267 0.886784
0.0314006 -0.0432131 0.0659358 0.807382 0.358907 0.468315
-0.0644552 -0.113889 0.438172 -0.788903 -0.443494 0.425377
0.057397 0.244699 0.00793351 0.293326 -0.903874 0.311401
0.271998 -0.365022 0.0462182 -0.131365 -0.950083 -0.282993
-0.0773226 -0.00510441 0.250615 -0.598534 0.556387 0.57636
-0.221124 0.197597 0.209667 0.0401904 -0.729594 0.682698
-0.0814178 0.0546238 0.178425 0.80351 0.409356 0.432204
0.00502532 -0.0669915 0.204566 0.234312 0.446907 -0.863349
0.210233 -0.315913 0.195665 -0.532112 0.107459 0.839827
-0.00900975 0.433537 -0.168766 -0.647103 0.42612 -0.632202
0.127224 -0.194573 -0.090156 0.552454 -0.779687 -0.294759
0.192163 -0.190428 0.00880313 0.591294 -0.415333 -0.691281
0.13605 -0.092444 -0.0854112 0.786563 0.413326 0.458781
-0.220162 0.0731719 0.131366 -0.587315 0.431708 0.684609
-0.175852 0.246496 0.399323 -0.962229 0.0602523 0.26549
-0.25403 0.13952 0.124752 -0.965759 0.18387 0.183035
0.0415254 0.0517274 -0.187227 -0.806254 -0.39949 -0.436305
-0.123162 0.0921933 0.0811917 -0.803487 -0.410429 -0.431226
0.276431 -0.0995207 -0.177678 0.0607492 -0.78373 0.618124
-0.196492 0.116291 -0.135306 -0.820137 -0.368482 -0.437718
0.209428 -0.255664 0.180798 -0.540135 0.202493 0.816854
-0.0397957 0.169375 0.224122 -0.540567 0.382384 0.74938
0.049537 0.487428 -0.161056 0.807018 0.40351 0.431164
0.264915 -0.325749 0.206138 0.835603 0.431873 0.339488
0.0422268 -0.22418 0.10373 0.197675 -0.865704 0.459871
-0.108702 -0.0278215 0.281938 -0.469835 0.881438 -0.0481851
0.0579878 -0.0406182 0.231898 0.128867 0.49679 -0.85825
-0.187255 0.329474 0.295321 -0.96539 0.223661 0.134159
-0.00694853 -0.219619 -0.11747 -0.553224 0.775198 0.304976
-0.0774458 0.170575 0.0604195 0.80836 0.413267 0.419244
-0.175804 -0.0774648 0.276562 -0.827792 -0.349418 0.438938
-0.191279 0.0249584 0.174197 -0.607808 0.290973 0.738853
0.13766 -0.159101 0.031657 -0.44173 0.896684 -0.0288542
-0.15889 -0.140955 0.120284 0.266823 0.399836 -0.87689
-0.0478482 0.100961 0.250391 -0.526372 0.140487 0.838568
-0.0160413 0.29742 0.138899 0.807275 0.404137 0.430093
0.00691878 0.256706 -0.0817932 -0.50652 0.848584 0.152785
0.0272663 0.241451 0.0563021 0.447488 -0.893921 0.0256822
0.151992 -0.350681 0.0934305 -0.1894 -0.969815 -0.153582
0.163826 -0.156423 -0.108143 0.601754 -0.640644 -0.476937
0.26186 -0.0641736 -0.122022 0.368217 -0.911485 0.183335
-0.0431326 -0.208129 0.144122 0.0295342 -0.734514 0.67795
0.216593 -0.348171 0.317192 0.806213 0.397116 0.438542
-0.214349 0.233165 0.246361 0.042952 -0.72931 0.682834
-0.164406 0.264001 0.0686528 0.22792 0.406596 -0.884722
-0.168875 0.14188 -0.00451936 0.49747 -0.860431 -0.110371
-0.114584 0.0983808 0.483759 0.445913 -0.0609048 -0.893002
0.159176 0.247297 -0.136565 0.7581 0.372403 0.53535
0.251754 -0.244717 0.0244832 0.345749 0.284955 -0.894013
0.101767 -0.0605313 -0.0551045 0.802414 0.413571 0.430221
-0.0786867 0.131396 0.105496 0.803027 0.388272 0.452099
-0.22323 0.119199 -0.0903046 -0.798342 -0.439206 -0.412005
0.00151997 -0.045815 -0.231197 -0.468036 -0.0263875 0.883315
-0.0220753 -0.131526 0.249611 0.549703 -0.786242 -0.282224
0.258682 0.0124618 -0.344211 -0.155675 -0.251491 -0.955258
-0.25624 0.137486 -0.0442479 -0.875093 0.429455 -0.223114
0.119819 0.259683 -0.0777552 0.784173 0.425635 0.45156
0.0718849 0.417626 -0.247971 -0.539756 0.335609 -0.77203
0.000577418 0.484124 -0.142066 -0.647145 0.439532 -0.622909
-0.0670822 -0.155127 0.2298 0.569465 -0.765706 -0.299005
0.211258 -0.115668 0.0155681 -0.528479 0.821557 0.213902
-0.180586 -0.157901 0.180683 -0.782963 -0.484028 0.390751
0.0900551 0.327683 -0.291121 -0.488341 0.266155 -0.831074
0.142104 -0.100156 0.188844 -0.0571812 0.778657 -0.624839
0.430705 -0.192972 -0.228167 0.809555 0.435675 0.393457
0.0166959 -0.254098 -0.147548 0.549469 -0.740183 -0.387574
0.264929 0.0561862 -0.153842 0.809655 0.388002 0.440356
0.17109 0.113261 -0.179777 0.427019 0.169826 -0.888152
-0.181912 0.0755201 0.160913 -0.58052 0.379829 0.720227
0.169925 -0.0615839 -0.112436 -0.592399 0.406276 0.695703
0.16695 -0.35711 0.176521 -0.56409 0.253157 0.785947
0.199378 -0.250222 0.00511789 0.325848 0.287975 -0.900496
-0.03714 0.323151 -0.155939 -0.552518 0.27033 0.788445
0.00746143 0.201793 0.186272 0.771475 0.390043 0.502685
0.0329514 0.417194 -0.218159 -0.587942 0.379417 -0.7144
0.0251537 -0.1558 0.0598973 -0.217197 0.874898 -0.432873
0.32091 -0.38059 0.0746654 -0.178752 -0.953303 -0.243438
-0.141908 0.218878 0.0473274 -0.110784 0.808 -0.578673
0.0259532 -0.109425 0.279566 0.566173 -0.749288 -0.343534
-0.0063088 0.000630894 0.0919057 0.800686 0.403511 0.442811
0.261003 -0.372257 0.093687 -0.185125 -0.963284 -0.194453
0.226275 -0.113025 0.0731717 -0.502916 0.862008 0.0633828
0.27556 0.00674973 -0.129564 0.797475 0.440061 0.412771
-0.0129452 -0.145172 -0.228711 -0.789425 -0.354046 -0.501458
-0.0155791 -0.188604 0.383658 0.582268 -0.712255 -0.391992
0.10002 -0.312061 -0.0338476 -0.138549 -0.938508 -0.316239
-0.0924453 0.197165 -0.227985 -0.583476 0.337761 -0.738562
0.313881 -0.346613 0.0130513 0.0864677 0.639098 -0.764249
-0.135688 -0.126339 0.301871 -0.687574 -0.571586 0.447807
8.33604e-05 -0.0507048 0.129587 0.767632 0.46484 0.441208
0.293527 -0.110102 -0.29795 -0.0629032 -0.507964 -0.859079
0.0045661 0.127689 -0.106358 -0.0501451 -0.736926 0.674111
-0.0275608 0.506651 -0.0869535 -0.766429 0.422256 -0.484032
0.0703103 -0.0214432 0.277598 0.830651 0.402992 0.384209
-0.20369 0.300069 0.22073 -0.968454 0.219972 0.117083
0.314255 -0.0661136 -0.31895 -0.0936806 -0.420426 -0.902478
0.352908 -0.0638236 -0.206237 0.803617 0.395648 0.444592
0.197627 0.0302359 -0.205501 -0.162293 0.855145 -0.492329
-0.0170478 0.0817945 0.218302 0.542863 -0.184753 -0.819247
0.02506 0.00134702 0.34517 0.805596 0.436595 0.400499
0.090442 -0.335757 0.0978991 -0.337208 -0.940728 -0.0363417
-0.0956286 0.0952213 0.217599 -0.566765 0.298681 0.767833
0.0689625 -0.147009 -0.0369199 -0.519036 0.837866 0.169061
-0.0422198 0.190158 -0.0270952 0.802192 0.397909 0.445148
-0.0772618 -0.137683 0.387637 -0.720593 -0.557495 0.412245
0.153552 0.175078 -0.101985 -0.151684 -0.558103 0.81579
0.0293817 0.179488 -0.106227 -0.0161698 -0.744662 0.667245
0.272867 -0.119804 -0.0175484 0.577422 -0.72652 -0.372495
0.0651556 -0.0792205 -0.291562 -0.0917992 -0.366652 -0.925818
-0.0341016 0.158037 0.166215 0.594191 -0.55576 -0.581436
-0.00495864 -0.0338566 0.427827 0.789554 0.407999 0.458411
-0.106488 -0.01607 0.420407 -0.41765 0.903886 -0.0925128
0.0322943 -0.0554109 0.385547 0.820052 0.367901 0.438364
0.0695685 -0.0870994 0.20058 0.0924648 0.627778 -0.772881
0.361539 -0.0221035 -0.260045 0.793884 0.420818 0.43893
0.00807045 -0.170161 0.487327 -0.622625 -0.653294 0.43075
0.122823 -0.210669 0.125076 -0.325594 -0.313345 0.892078
0.164688 -0.129296 -0.201227 0.17731 -0.796659 0.577838
-0.135796 0.0208218 0.152772 0.551878 -0.219275 -0.80458
0.0496255 -0.162061 0.00715319 -0.398645 0.90916 -0.12046
0.102931 -0.144023 0.213601 0.036951 -0.756464 0.65299
0.237193 -0.165347 0.0294911 0.58783 -0.508151 -0.629475
0.138109 0.0629507 -0.204407 0.386341 0.185413 -0.903528
0.311177 -0.00130847 -0.347893 -0.079746 -0.40621 -0.910293
-0.0306033 0.213926 0.0317971 0.420505 -0.906194 0.0445829
-0.0264347 -0.164576 0.440896 -0.732061 -0.579989 0.357351
-0.0161526 -0.199653 -0.172549 -0.578635 0.676971 0.454853
-0.0964519 0.129498 -0.155555 0.175637 -0.829607 0.530005
0.391599 -0.291269 -0.125851 -0.578949 0.716614 0.38895
0.219112 -0.373387 0.217876 -0.317152 -0.947503 0.0406514
0.139723 -0.0224028 -0.321546 -0.176861 -0.294214 -0.939233
0.420934 -0.149176 -0.273647 0.58571 -0.449169 -0.674679
0.0444483 0.362323 -0.250557 -0.534172 0.334324 -0.776458
0.0740308 -0.141004 -0.141039 -0.59737 0.53006 0.601819
-0.0335472 -0.0321248 0.483225 0.770694 0.405524 0.491508
0.0843474 -0.193389 -0.158361 0.58212 -0.660204 -0.474623
0.0727435 0.168407 -0.182019 0.392675 0.188596 -0.900132
0.0778941 0.218685 -0.207708 0.587341 -0.679977 -0.438933
0.353253 0.0744285 -0.33713 -0.581562 0.682494 0.442705
0.00384693 -0.148562 0.326394 0.586294 -0.716344 -0.378299
-0.0511466 -0.131282 0.151648 0.0740519 0.601774 -0.795226
0.0808593 -0.179899 0.163855 0.226005 -0.81279 0.536931
-0.0539719 0.109009 0.182048 0.573127 -0.331542 -0.749403
0.00698821 0.277297 -0.00213105 -0.360819 0.912377 -0.193335
-0.157328 0.31836 0.38165 0.803408 0.371568 0.465266
0.0332428 -0.214509 0.453475 -0.653035 -0.669467 0.35406
-0.0440531 0.111856 0.0569861 0.80428 0.362707 0.47072
0.0583713 -0.105967 0.0563849 -0.800704 -0.361675 -0.477561
0.282766 -0.0869089 -0.058816 0.599538 -0.644335 -0.474749
0.0843273 0.0809799 -0.221813 0.393642 0.152069 -0.906599
-0.123077 0.159557 -0.0656876 0.425677 -0.892417 0.149633
-0.151026 0.138527 0.458213 0.53576 -0.155381 -0.82995
-0.0784985 0.3159 0.236514 0.789179 0.383843 0.479437
0.242868 -0.377244 0.270551 0.314694 -0.883235 0.347656
-0.140593 0.181352 0.475885 -0.502718 0.151958 0.85099
0.141941 0.210564 -0.0733681 -0.0185497 -0.692958 0.720739
0.224211 0.0791213 -0.162913 0.428684 0.167991 -0.887699
-0.215609 -0.107505 0.176909 -0.876452 -0.309484 0.368851
-0.0592157 -0.183163 0.352138 -0.63213 -0.666614 0.395016
-0.165863 0.42022 0.235135 -0.93499 0.354655 -0.00373864
0.158848 -0.329986 -0.0117643 -0.162133 -0.947419 -0.275882
0.0895089 -0.0709574 0.296176 0.79648 0.416345 0.438493
-0.0907371 0.232682 -0.0229605 -0.430907 0.898668 -0.0819449
0.21265 -0.368119 0.134259 -0.318076 -0.94485 -0.0780147
-0.074354 0.0797262 -0.266171 0.127244 0.557817 -0.820152
0.0316363 0.247447 -0.284363 -0.409218 0.24861 -0.877914
0.00429427 0.0473505 0.0298678 0.789393 0.443291 0.424678
0.17632 -0.132639 0.187348 0.814142 0.360926 0.454868
-0.175235 0.19115 0.00871971 -0.352845 0.916202 -0.189935
-0.0574238 0.506447 -0.0425328 -0.787273 0.444209 -0.427643
0.0725077 0.283776 -0.295089 -0.438865 0.244582 -0.864626
0.0623434 0.465972 -0.213991 -0.616614 0.379785 -0.689602
-0.00300954 -0.273699 0.0574972 -0.254238 -0.364002 0.896028
-0.0646955 0.26472 -0.215309 -0.467925 0.39733 -0.789415
0.18124 0.351181 -0.275511 0.475594 -0.877513 -0.0614891
-0.19976 0.276369 0.274661 -0.954801 0.263347 0.137853
0.134014 0.00817277 -0.15723 -0.492863 0.0591232 0.868096
0.393711 -0.33856 -0.0251085 0.808715 0.3974 0.433652
0.281485 0.0520279 -0.248094 -0.331013 0.916688 -0.22386
0.332291 0.147273 -0.372891 0.80215 0.479909 0.355307
-0.0493592 -0.244898 -0.00829344 -0.376112 0.915429 -0.143285
-0.152451 0.200719 -0.0334096 -0.434033 0.899636 -0.0476401
-0.108073 0.263985 0.280077 -0.0340379 -0.690975 0.722077
0.124797 -0.097813 -0.290684 -0.0603447 -0.483424 -0.873304
-0.10716 -0.207945 0.14113 -0.188105 -0.531453 0.825938
-0.155771 0.228108 0.446247 -0.564272 0.336696 0.753812
0.419562 -0.0982076 -0.292079 0.803708 0.3997 0.440788
-0.074026 0.278822 -0.164439 -0.593531 0.330747 0.733708
-0.0278522 -0.128706 0.110083 -0.811917 -0.403183 -0.422178
-0.101456 -0.0683205 0.427871 -0.76896 -0.474197 0.428763
0.212984 -0.0528425 -0.0832124 -0.587099 0.419924 0.692083
-0.0180602 0.0449076 -0.270504 0.265654 0.376161 -0.887654
0.0799883 -0.0783745 -0.136439 -0.813153 -0.356878 -0.459806
-0.0596019 -0.263056 0.0728232 0.109525 -0.832587 0.542958
-0.0250302 0.260258 -0.121016 -0.568497 0.315843 0.759641
0.127073 -0.0343717 -0.122879 0.841909 0.361891 0.40028
0.15696 -0.247855 0.151706 -0.501153 0.158975 0.85063
0.0439535 0.0779662 -0.0790813 0.802718 0.429203 0.41404
0.126354 0.146562 -0.179835 0.20655 0.455729 -0.865822
-0.172223 0.189574 -0.0879484 -0.313652 0.912933 -0.261103
0.0513142 0.119573 -0.126803 0.810133 0.422242 0.406689
0.137301 -0.16998 0.165121 0.173151 -0.857122 0.48514
0.00328158 -0.225351 -0.0194965 -0.407712 0.907455 -0.101474
0.0793442 -0.118948 -0.0963874 -0.803789 -0.39593 -0.444031
0.402896 -0.0250275 -0.336239 0.793182 0.437586 0.423533
-0.218348 -0.120054 0.128387 -0.803756 -0.446199 -0.393551
-0.169885 0.400912 0.151501 -0.927566 0.368262 -0.0632769
0.329652 0.0380603 -0.25784 0.807426 0.442235 0.390502
-0.116449 0.0423056 0.487059 -0.842303 -0.311357 0.43998
-0.0457349 -0.027842 0.192132 0.801694 0.413085 0.432027
0.130822 -0.145681 -0.158728 0.598329 -0.547894 -0.584649
0.0776773 -0.0152477 -0.188437 -0.814363 -0.411232 -0.409513
-0.227573 -0.00656537 0.0994043 0.558105 -0.265305 -0.786214
-0.0120791 0.133254 0.203295 0.57142 -0.425761 -0.701575
0.269163 -0.246656 0.121751 0.790137 0.442125 0.42451
0.0716743 -0.174489 -0.0966018 -0.562318 0.689331 0.456751
-0.0261103 0.267222 0.0746147 -0.521358 0.847363 0.100804
-0.0656958 -0.0794128 0.479582 -0.763463 -0.483473 0.428227
-0.200313 0.323126 0.169037 -0.960015 0.274144 0.0567079
0.32214 -0.000901084 -0.206103 0.808996 0.431707 0.398942
0.0150527 0.110226 -0.0534083 0.81172 0.397497 0.42791
0.320454 -0.0434336 -0.164566 0.827774 0.378128 0.4145
0.115105 0.211786 -0.160973 0.556615 -0.264021 -0.787701
0.0575129 0.00105718 -0.0444065 -0.805401 -0.402065 -0.435514
0.0706658 0.0349192 -0.0842978 0.834226 0.329543 0.442119
-0.086533 0.073373 0.125337 0.585221 -0.372672 -0.720161
-0.00139464 0.09719 -0.151957 -0.799497 -0.450892 -0.396864
-0.0681027 0.273373 0.100613 0.221442 0.467643 -0.85573
-0.132828 0.389153 0.272257 0.740312 0.48055 0.470116
-0.166579 0.130841 0.152172 -0.391573 -0.168404 0.904605
0.00554851 0.130847 0.258771 0.80294 0.404393 0.437898
0.0756191 -0.143656 0.137399 -0.112332 0.816137 -0.566834
-0.107365 0.211702 -0.0839258 -0.327385 0.914048 -0.23945
0.212718 -0.0937287 -0.0333804 -0.569071 0.747241 0.343204
0.14319 -0.150044 -0.0172076 -0.494929 0.850274 0.179105
0.144006 -0.138195 0.116017 -0.331438 0.889563 -0.314366
-0.046452 0.155486 0.020967 0.794332 0.396966 0.459841
0.256941 -0.274587 0.173856 0.778051 0.39685 0.486978
0.139911 -0.00675325 -0.265309 -0.353649 0.911556 -0.209755
-0.176815 -0.0229439 0.135231 0.513753 -0.145539 -0.845503
0.0201313 0.263367 0.103373 0.826465 0.359452 0.433302
0.288912 0.0516116 -0.196972 0.794459 0.450069 0.407765
0.12641 -0.335127 0.0334752 -0.175184 -0.963043 -0.204593
-0.165899 -0.18613 0.09429 -0.800991 -0.407335 -0.438739
0.00691319 -0.101413 0.161884 0.788697 0.431684 0.437728
0.204354 -0.119362 0.126344 0.813212 0.398246 0.424366
-0.270181 0.0372597 0.105554 -0.964502 0.070905 0.254379
0.0523202 -0.0526461 -0.199775 -0.515201 0.112313 0.849679
0.0553921 -0.110097 0.334878 0.566427 -0.757027 -0.325686
-0.180139 -0.122284 0.226527 -0.844913 -0.385847 0.370464
-0.253506 0.0614854 0.0314904 0.605635 -0.60801 -0.513352
0.0473299 -0.214438 -0.174802 0.581579 -0.644609 -0.496232
0.047305 -0.137668 0.376018 0.564607 -0.745 -0.355238
0.0256586 -0.305629 -0.0186214 -0.207518 -0.963358 -0.169932
-0.21818 0.265117 0.12245 -0.949352 0.312812 0.0296527
0.125063 -0.287576 0.423342 -0.0512817 -0.669343 0.741181
0.17189 0.184701 -0.147316 0.177467 0.517578 -0.83703
-0.136159 0.0979456 -0.22592 -0.784192 -0.408175 -0.467371
-0.138245 0.0759012 0.127197 -0.799627 -0.395409 -0.451938
0.257717 -0.302428 0.0119451 0.322968 0.282302 -0.903326
0.205344 -0.299895 -0.0072798 0.432206 0.194981 -0.880443
-0.173606 0.16843 0.176779 0.00673017 -0.729829 0.683597
-0.0377318 0.0374804 0.262046 -0.48999 0.0154674 0.871591
0.00310279 0.251863 0.150349 0.824766 0.385372 0.413824
0.286423 0.180771 -0.382862 -0.206231 -0.102754 -0.973093
0.124834 -0.304619 0.138959 -0.547025 0.194148 0.814291
-0.0741882 0.500958 0.0218636 0.408188 -0.90878 0.0866073
0.132713 -0.314944 0.368271 0.00945343 0.74592 -0.665968
-0.0948902 -0.172477 0.177569 0.199821 -0.869696 0.451333
-0.0925913 0.365015 0.218715 0.808884 0.41671 0.414801
-0.0861082 -0.278411 0.0326617 -0.805248 -0.396438 -0.440923
0.319887 -0.379676 0.155401 0.798613 0.447074 0.402917
-0.110822 -0.192161 0.0904883 0.0233767 0.696702 -0.71698
0.112359 0.0822386 -0.158699 -0.307296 -0.312082 0.898985
0.0199234 -0.18596 0.166165 0.0752881 -0.772785 0.630187
0.34446 -0.382879 0.114016 0.79294 0.412306 0.448608
-0.155437 0.377326 0.322803 0.799432 0.327061 0.503924
-0.146881 0.457573 0.159555 -0.912667 0.390332 -0.121158
0.310231 -0.270401 0.0418226 0.321793 0.326967 -0.888562
0.134642 -0.107027 0.241193 0.797232 0.406089 0.446669
0.382455 -0.105918 -0.219891 0.802418 0.416346 0.427529
0.343059 -0.307595 0.0416554 0.790767 0.370642 0.487146
-0.105485 -0.0209206 0.335461 -0.430768 0.90019 -0.0640066
0.070516 0.210773 -0.0657887 0.125344 -0.822665 0.554536
-0.116156 -0.239621 0.0540369 -0.811522 -0.406204 -0.420036
-0.211857 0.102676 0.0229405 0.589107 -0.713493 -0.379316
0.290531 -0.386784 0.214576 0.294759 -0.911482 0.28691
0.11885 -0.111794 -0.0372712 0.804621 0.408774 0.430684
0.366281 0.02234 -0.314352 0.811377 0.39617 0.429786
-0.19718 0.31999 0.104643 -0.927459 0.366167 -0.0757717
-0.0400564 0.188111 0.115769 0.585529 -0.7088 -0.393394
-0.234722 0.0366192 0.0698934 0.599317 -0.485383 -0.636571
-0.163661 0.245122 0.260096 0.00304263 -0.727812 0.68577
0.0214221 -0.0630352 -0.291665 -0.125814 -0.265235 -0.95594
-0.0329777 -0.295765 0.013365 -0.291455 -0.95617 -0.0281734
-0.0478578 0.0062495 0.35862 -0.438931 0.898373 -0.0163188
0.0799702 -0.246909 0.434667 0.078653 0.64477 -0.760319
0.186742 -0.0880964 -0.299255 -0.0793322 -0.412625 -0.90744
0.0388094 -0.139916 0.218257 -0.0212445 -0.702041 0.71182
0.058188 -0.0615294 0.339645 0.787276 0.423714 0.447953
0.173775 -0.139648 0.0639999 -0.443987 0.893845 -0.0625875
0.231824 0.0324225 -0.244924 -0.340213 0.914179 -0.2203
0.0803567 -0.106944 0.24561 0.00166402 -0.681331 0.731973
-0.140003 0.462131 0.214262 -0.561597 0.786151 0.258023
-0.172546 0.140951 -0.0622658 0.404337 -0.909192 0.0994095
-0.0929492 -0.150024 0.130016 0.0477141 0.630139 -0.775015
0.207812 -0.0999256 -0.173058 0.0950036 -0.798976 0.593811
-0.128343 -0.192801 0.221407 -0.614096 -0.677644 0.404579
-0.119405 0.308011 0.322396 0.811241 0.368175 0.45424
0.371996 0.0309747 -0.366005 0.4457 -0.0215846 -0.894922
-0.110512 0.198938 -0.147055 -0.548842 0.798251 0.248129
0.370539 -0.372193 0.047221 0.516075 -0.847616 -0.123345
0.131584 0.419564 -0.251346 0.806251 0.397804 0.437848
-0.051862 0.358217 0.150707 0.810273 0.452725 0.372152
-0.00547187 -0.121519 0.512581 -0.269739 -0.3941 0.878593
0.0318454 -0.145885 -0.176742 -0.621501 0.541845 0.565809
-0.0455581 0.122986 -0.167943 -0.0340077 -0.708078 0.705315
-0.159739 -0.00376898 0.198894 -0.504229 0.0652309 0.861103
-0.0240538 0.321057 -0.220529 -0.604109 0.365545 -0.708116
0.156546 0.385638 -0.312471 -0.397802 0.202932 -0.894747
-0.145364 0.209755 0.22259 0.0234507 -0.749529 0.661556
0.0451777 -0.202851 -0.042229 -0.47775 0.876464 0.0597153
-0.0994313 0.045084 -0.236826 -0.104514 -0.60212 0.791535
-0.0425869 0.0243036 0.13718 0.805055 0.411028 0.427718
-0.0395375 0.242184 -0.0616477 -0.376761 0.881889 -0.283413
-0.0175946 0.265528 -0.250419 -0.492248 0.319841 -0.809564
-0.0428773 -0.165183 0.285305 0.562374 -0.736005 -0.376871
0.168728 0.0893052 -0.134632 -0.422556 -0.200658 0.883845
0.0299274 -0.0891567 0.419009 0.80508 0.412331 0.426414
-0.195066 0.0422984 0.10381 0.585985 -0.396347 -0.706775
0.303463 -0.281402 0.0929993 0.803315 0.409725 0.432216
-0.235297 0.211 0.13082 -0.963252 0.250035 0.0981188
-0.0705593 0.243164 0.0504931 -0.43135 0.900567 0.0540059
-0.123937 0.342757 0.115029 0.258303 0.41633 -0.87175
-0.22178 0.227532 0.0360998 0.281653 0.386218 -0.878355
-0.0062492 0.368687 -0.211683 -0.603673 0.377084 -0.702415
0.221774 0.064184 -0.112355 -0.463606 -0.112662 0.87885
0.0962283 -0.0182796 -0.0823721 0.813596 0.387916 0.433108
0.0713786 0.291196 -0.0185987 0.805946 0.434192 0.402403
0.161305 -0.280373 -0.0197224 0.381422 0.231341 -0.894985
-0.0127951 0.00943541 0.406661 0.767466 0.346432 0.539427
0.218867 -0.152301 -0.034081 0.57743 -0.715369 -0.393475
0.292782 0.0395485 -0.309489 -0.365593 0.919825 -0.142352
0.101428 -0.135957 0.00881587 -0.797168 -0.396922 -0.454947
-0.0717309 0.22817 -0.138814 -0.592502 0.55652 0.582432
0.192838 -0.349986 0.0427014 -0.179738 -0.960592 -0.212032
0.110084 -0.0535632 0.234598 0.0450938 0.648426 -0.759941
-0.101527 0.153748 -0.0179216 -0.796845 -0.492387 -0.350132
0.080871 -0.159921 -0.200114 0.570342 -0.72523 -0.385683
0.375974 -0.171654 -0.259408 -0.0320768 -0.629147 -0.776624
-0.252718 0.167191 0.0395335 -0.952303 0.303867 0.0280064
-0.0115193 0.10141 -0.00409852 -0.808183 -0.42121 -0.411609
-0.0581242 -0.063763 0.145541 0.364947 0.261797 -0.893463
-0.138349 -0.0374978 0.368754 -0.384377 0.917885 -0.0986965
0.15095 0.301534 -0.174341 0.803601 0.434932 0.406275
0.240305 -0.179645 0.113328 0.755344 0.448297 0.478
0.0327644 -0.107135 0.106423 -0.788611 -0.387633 -0.477319
0.175696 0.0136978 -0.135358 -0.519114 0.120662 0.846145
-0.0403325 -0.0547019 -0.266239 -0.804571 -0.408706 -0.430843
0.189595 0.141218 -0.110164 -0.298134 -0.358728 0.884551
-0.0207528 -0.151736 0.198582 -0.0656684 -0.648361 0.758495
0.39669 -0.224985 -0.212069 0.017285 -0.763873 -0.645135
-0.0852752 0.0922683 -0.198048 -0.0368938 -0.68974 0.723116
0.255658 0.274337 -0.366264 0.175018 0.511837 -0.841065
0.122014 0.139744 -0.130579 -0.205306 -0.490317 0.847017
-0.175709 -0.062539 0.213167 -0.52615 0.8149 0.243115
-0.12506 0.127734 0.178483 -0.561151 0.501942 0.658152
0.238261 -0.126658 -0.210683 0.0802261 -0.803942 0.589271
-0.155963 -0.211266 0.136563 0.0434112 -0.781153 0.622829
0.0245213 -0.204923 0.0289873 -0.341485 0.912087 -0.226905
0.0987639 0.388785 -0.275597 -0.485009 0.314964 -0.815821
0.0742706 -0.228239 -0.110331 0.556406 -0.769822 -0.31271
0.0385617 -0.288053 0.0795643 -0.535333 0.167248 0.827917
0.329125 -0.104286 -0.198355 0.0886102 -0.799338 0.594312
0.243111 -0.144254 -0.270259 -0.047143 -0.567695 -0.821888
0.0648457 -0.0585849 0.00298903 -0.801881 -0.414455 -0.430365
-0.151495 -0.0761507 0.32419 -0.827991 -0.36825 0.422874
-0.260294 -0.00416274 0.133945 -0.554648 0.215142 0.803791
-0.119056 -0.085472 0.376026 -0.787353 -0.44612 0.425502
0.192934 0.00977514 -0.277867 -0.413098 0.895635 -0.164889
-0.251101 0.0951481 -0.01365 -0.830299 -0.336887 -0.443972
0.0183383 -0.101447 -0.211657 -0.562109 0.271583 0.781202
-0.180931 0.366164 0.255642 -0.959339 0.27373 0.0688549
-0.0196127 0.0729457 -0.202553 -0.217028 -0.492331 0.842917
0.100517 0.249002 -0.0317002 0.802738 0.407153 0.435704
0.0481682 -0.163084 0.434248 0.588005 -0.642763 -0.491025
0.0359688 0.0326866 -0.254623 0.364624 0.228383 -0.902713
0.212281 -0.117664 -0.0994207 0.596061 -0.587781 -0.547014
-0.00698029 0.19123 -0.0775952 0.18173 -0.85584 0.484264
-0.129849 -0.0377777 0.235508 -0.553453 0.795908 0.245397
0.0794655 -0.156785 -0.252241 -0.057563 -0.557581 -0.828125
-0.0299987 -0.267187 -0.0815195 -0.81289 -0.391732 -0.430994
0.10783 0.398009 -0.186326 0.837216 0.433728 0.33309
0.191695 -0.151882 -0.239881 0.0841832 -0.797602 0.597281
-0.0163967 -0.0940252 -0.273232 -0.804366 -0.414629 -0.425533
0.41749 -0.26111 -0.172793 0.531946 -0.640438 -0.553961
-0.00468642 -0.0826006 0.481984 0.80485 0.411791 0.427369
0.336829 -0.133015 -0.284907 -0.0840971 -0.497657 -0.863288
0.249691 0.223358 -0.371113 -0.281294 0.0698648 -0.957075
0.0219531 0.218912 -0.0373528 0.247523 -0.891207 0.380109
-0.147596 0.0579384 0.196072 -0.556192 0.242282 0.794953
0.00993104 0.0495168 0.29079 -0.546166 0.250225 0.799431
-0.169553 0.124828 -0.191845 -0.772508 -0.430566 -0.466738
0.203734 0.00200478 -0.331249 -0.339554 0.913077 -0.225818
-0.0153315 -0.193846 0.0812595 -0.139685 0.835329 -0.531708
-0.213188 0.278343 0.0735206 -0.908934 0.401065 -0.113957
0.0584704 0.321082 -0.0819067 -0.56487 0.328233 0.75709
0.0396027 0.118531 -0.216572 0.261309 0.456767 -0.850342
0.0231246 0.0725137 0.243552 0.495629 -0.0829717 -0.864562
0.0862176 0.0132413 -0.143089 -0.472091 0.00452031 0.881538
0.330045 0.0971782 -0.378565 -0.229761 -0.172794 -0.957785
-0.0352169 0.105854 -0.244159 0.212397 0.446134 -0.869397
0.00441322 0.348724 -0.134316 -0.547759 0.282535 0.787486
