ply
format ascii 1.0
comment Created by Open3D
element vertex 512
property double x
property double y
property double z
property double nx
property double ny
property double nz
end_header
0.219608 -0.402419 -0.156095 0.578709 0.0727372 -0.812284
0.118631 -0.420198 -0.221934 0.412012 0.151281 -0.898532
-0.223228 0.336893 0.18955 -0.993996 0.00848027 0.109085
0.0158786 -0.203272 -0.224214 0.0825619 -0.299 -0.950675
0.258418 -0.0832734 0.39737 0.51948 -0.469926 0.713659
0.464358 0.0598562 -0.00383992 0.883344 -0.394659 -0.252878
0.126431 -0.355853 0.237337 -0.796875 0.45089 -0.402105
-0.124275 0.0271399 -0.0252945 0.940229 0.0741964 0.332361
0.229155 -0.609167 -0.0815781 0.828003 -0.483039 0.284753
0.243739 0.241835 0.471664 -0.0241178 0.935868 -0.351525
0.233662 -0.0646166 -0.192338 0.449096 -0.232714 -0.862645
0.271131 -0.0564713 0.334443 -0.589117 0.477974 -0.651523
-0.144967 0.107027 -0.0875795 -0.946782 0.0291714 -0.320552
-0.2108 0.564907 0.0460463 -0.921942 -0.00284955 -0.387318
-0.116416 0.224521 -0.127979 -0.736839 0.0102317 -0.675991
0.225182 -0.0963039 -0.11694 -0.435786 0.0378758 0.899253
-0.0987467 -0.00599718 -0.0806678 0.722465 0.0218466 0.691063
0.199706 0.0560277 0.457443 -0.399845 -0.07014 0.913895
-0.0368433 0.418238 0.50427 -0.028455 0.993721 0.108209
-0.198123 0.559678 0.144987 0.988997 0.142517 -0.0396824
0.0204057 0.638736 -0.265282 -0.725207 0.478517 -0.495072
-0.198904 -0.0462968 0.011756 -0.856309 0.366597 -0.363787
0.164559 -0.446446 0.176175 0.642574 -0.499229 0.581265
0.43575 0.102009 0.0509808 -0.924418 0.350734 0.14979
0.393827 0.051481 -0.12054 0.383858 -0.0134892 -0.923294
-0.103206 0.127424 0.358673 -0.678881 -0.330985 0.655416
-0.0156204 -0.54435 0.22223 0.0870693 0.264345 -0.96049
-0.221098 0.532144 0.372988 0.384559 0.878244 0.284256
-0.0560025 0.288247 -0.188862 -0.60248 0.0461652 -0.796798
0.0944915 0.340425 0.533521 0.165281 0.330456 -0.929237
-0.188405 0.280702 0.00573154 -0.915976 -0.335337 -0.220312
-0.14761 -0.0180522 0.15247 0.820696 0.340644 -0.458715
0.0315191 0.359726 -0.233141 -0.311897 -0.10852 -0.943898
0.180689 -0.505176 0.105569 0.593966 -0.442762 0.671689
-0.0171154 0.0989502 -0.209665 -0.498512 0.0849885 -0.862707
0.0237869 0.248153 0.4934 -0.329032 -0.355918 0.874677
0.555983 0.260946 0.226718 0.193928 0.884197 0.424956
0.64874 0.233867 -0.0403681 0.609378 -0.102367 -0.786244
0.313762 -0.0917706 0.299819 0.778965 -0.413888 0.471073
0.0830955 0.13058 0.408171 0.290511 0.314536 -0.903698
0.464798 0.136957 0.294641 -0.694086 -0.330986 0.639291
0.211568 -0.463627 -0.115089 -0.607485 0.00998998 0.794268
-0.136514 -0.112336 0.142551 0.893636 0.0778475 -0.441989
0.19268 0.248144 0.678194 -0.400196 -0.0686951 0.913851
0.109162 0.0937948 0.469345 -0.0234578 -0.389392 0.920773
-0.16337 0.481418 0.245761 0.98478 -0.0424116 -0.168553
-0.00784682 0.328679 0.454686 0.38598 0.380742 -0.840271
-0.116584 -0.391702 -0.0457748 0.736026 -0.0922049 0.670645
-0.0836553 -0.266873 -0.0762377 0.78495 -0.0213011 0.619192
0.0151416 -0.185882 0.282117 0.546312 0.0746181 -0.834251
-0.0594801 -0.395261 -0.198492 -0.703486 0.126617 -0.699339
-0.0226729 -0.188372 -0.146716 0.582208 0.00884593 0.812992
0.221272 -0.52771 -0.0911655 -0.884452 0.459505 0.0812359
0.30008 -0.347831 -0.018988 -0.957473 -0.0725403 0.279256
0.408842 0.465681 -0.186823 0.599973 0.798003 0.0567762
-0.0749439 -0.117734 -0.100644 0.796796 0.106318 0.594822
0.166356 -0.385284 0.170465 -0.620948 0.520906 -0.585731
-0.138578 0.405196 -9.3009e-05 0.97254 -0.0363263 0.229882
-0.333102 0.638573 0.231588 0.250217 0.903295 0.348497
0.0540315 0.127189 -0.2302 -0.307833 -0.00785749 -0.951408
-0.0177402 0.425162 -0.142119 0.698217 -0.124162 0.705037
-0.16149 0.241389 0.15523 0.958956 -0.212043 0.18826
0.419819 0.249011 -0.0840551 -0.716291 0.342548 0.607938
0.0963768 0.157749 -0.198113 0.298 0.0317145 0.954039
0.00476531 -0.387831 0.258745 0.507501 0.0743015 -0.858441
0.373449 -0.291203 0.0215118 0.915328 -0.354958 -0.190209
0.164874 -0.366478 -0.154586 -0.553718 -0.0657921 0.830101
-0.235553 0.398096 0.147613 -0.995495 0.0126659 -0.0939687
-0.214639 0.457895 0.370753 -0.378722 -0.879663 -0.287684
-0.230827 0.436303 0.219745 -0.998046 -0.0509051 0.0362445
0.051028 0.229575 -0.185327 0.367415 0.0857507 0.926096
0.393608 -0.00423947 0.0216439 -0.93827 0.0732826 0.338053
0.0248254 -0.0347695 0.396998 -0.401054 -0.212968 0.890955
0.23874 -0.295658 -0.139012 0.607863 -0.203415 -0.767545
0.238464 0.469072 -0.223831 -0.0734989 0.0746128 0.9945
-0.121635 -0.0959211 0.254601 -0.688347 -0.281387 0.66858
0.321776 -0.132078 0.1895 -0.778839 0.534705 -0.327873
-0.148757 -0.0880277 0.0158671 0.921225 -0.0213229 0.388445
0.0174063 -0.119249 0.294151 0.500677 0.328144 -0.801027
-0.0437592 0.590407 -0.213409 -0.415335 -0.85319 -0.315537
0.305246 -0.416977 -0.0727967 0.847537 -0.134864 -0.513315
0.290745 -0.30884 0.0636987 -0.697109 0.463077 -0.547356
0.351373 -0.188654 0.162688 0.781832 -0.457515 0.423579
0.322616 -0.00421907 0.299373 -0.593186 0.559003 -0.579349
0.401384 0.1271 0.400277 0.689483 -0.470188 0.550942
0.194881 -0.320753 0.177292 -0.752528 0.44382 -0.486545
0.386021 -0.117005 0.171547 0.512148 -0.566836 0.645292
-0.142424 -0.0730652 -0.0969655 -0.737557 0.0240646 -0.674855
-0.1036 0.327222 -0.128836 -0.717021 0.152981 -0.680057
0.235387 -0.000138201 0.402543 0.282724 0.23863 -0.929044
0.267941 0.177958 0.590347 -0.327448 -0.883515 -0.334931
0.159141 0.52076 -0.231046 0.331355 -0.0337651 0.942902
0.585218 0.274549 0.130465 0.44708 0.851144 0.275089
0.109578 0.366969 -0.26264 -0.35577 -0.0544074 -0.932988
0.156934 -0.0930831 -0.151338 -0.46975 0.387562 0.793178
0.435903 0.249832 -0.157988 0.644034 -0.342935 -0.683824
0.301687 0.288009 -0.236351 0.331759 -0.122883 -0.935327
0.125811 0.541147 -0.289998 -0.361092 -0.927919 0.0926238
-0.132508 0.0681277 0.216934 0.901199 -0.0498004 -0.430534
-0.0908602 0.250287 0.415268 -0.740672 0.0230499 0.671472
0.165081 -0.140167 -0.195602 0.413451 -0.21552 -0.884652
-0.131773 0.147917 0.246819 0.721126 0.273262 -0.636635
0.088693 0.545849 -0.258086 -0.43471 0.0605407 -0.898533
0.183715 0.159379 0.489089 -0.027412 -0.292918 0.955744
0.330069 0.217634 -0.212995 0.425644 -0.0806577 -0.901289
-0.164855 -0.549622 0.162662 -0.314727 -0.900874 -0.298952
0.0703891 -0.221713 0.320616 0.640153 -0.112769 -0.759926
0.313299 0.178796 0.506652 -0.100739 -0.161425 0.98173
0.185167 0.212962 0.63106 -0.391991 -0.919871 -0.0134586
0.185322 0.274363 0.593137 0.868431 -0.488348 0.0857018
-0.119701 0.494187 -0.0306068 0.796851 -0.0370685 0.603037
0.507835 0.0969923 0.0789212 0.774304 -0.103498 -0.624292
0.292114 0.0588363 0.453444 0.325349 -0.182862 0.927744
-0.159684 0.313111 0.0999724 0.924638 -0.101296 0.367129
0.536949 0.168898 0.244991 0.790638 -0.563837 0.238705
0.48696 0.135927 -0.0107423 0.911373 -0.41032 -0.0322089
-0.137914 0.498318 -0.0947301 -0.947116 -0.143646 -0.286943
0.0866747 -0.286051 -0.149482 0.540989 -0.470311 0.697236
0.206749 0.345629 -0.216694 0.230955 -0.266736 0.935688
0.23325 0.212961 0.545971 -0.378183 -0.863493 -0.333703
-0.146186 0.324919 0.381603 -0.81855 -0.150121 0.554473
-0.191046 0.0432553 0.000492351 -0.91838 0.112664 -0.379322
-0.0540645 -0.430403 0.215886 0.411291 0.0375152 -0.910732
0.431091 0.0406567 0.186451 -0.736875 0.102539 -0.668207
0.353701 0.18807 0.412291 -0.917521 0.358198 0.172769
0.0578855 -0.118138 -0.174418 0.294286 0.0447812 0.954668
-0.0120157 -0.398124 0.300394 -0.349434 -0.354931 0.867133
0.0494537 -0.573418 0.165698 -0.0501883 -0.754379 -0.654518
0.0539401 0.532528 -0.178672 0.354677 0.146142 0.923497
-0.119238 -0.2627 0.112533 0.764487 0.211999 -0.608782
0.0438601 -0.238442 -0.161053 0.0217516 -0.00665322 0.999741
0.44497 0.167834 0.370254 0.503458 -0.476013 0.72107
0.112789 -0.0520338 -0.183758 -0.164237 0.160843 0.973219
-0.0481255 0.333345 -0.115805 0.714389 -0.023809 0.699343
-0.182043 -0.475131 0.170981 -0.652893 0.0429827 0.756229
0.37268 0.143342 -0.0962683 -0.437567 0.205972 0.875278
-0.168384 0.537787 0.29393 0.828496 -0.2 -0.523063
0.200916 0.254534 -0.209654 -0.180873 0.248454 0.951607
0.506964 0.282478 0.0175698 -0.379872 0.816997 0.433835
0.123604 0.637741 -0.376204 -0.505777 0.58326 -0.635607
-0.180268 -0.359925 -0.0276392 -0.944591 -0.0928731 -0.314836
0.346864 -0.0588506 -0.0218118 -0.84715 0.353092 0.397068
0.0698229 0.203766 0.439269 0.233251 0.432772 -0.870805
0.311415 -0.0247401 0.384798 0.640928 -0.480147 0.598891
0.266339 -0.299198 -0.0729953 -0.544237 -0.0910644 0.833974
0.481981 0.412469 -0.135069 0.340517 0.884775 0.318152
-0.157 -0.148266 0.18462 -0.665769 -0.412985 0.621446
0.19664 0.292076 0.535549 0.00064468 0.297239 -0.954803
-0.286291 0.58295 0.30122 0.168833 0.940076 0.296232
0.222681 -0.381501 0.0882156 -0.715211 0.474733 -0.512934
0.18972 0.0750858 -0.235193 0.416905 -0.225792 -0.880459
0.0235304 0.175894 -0.169048 0.661998 0.021235 0.749205
0.204915 -0.233057 -0.113656 -0.572494 -0.203275 0.794311
0.0993512 0.27469 -0.251069 -0.157403 -0.065277 -0.985375
-0.066849 0.132818 -0.163683 -0.584874 -0.00804002 -0.811084
0.275131 0.54571 -0.256488 0.153556 0.923311 0.352018
0.13314 -0.566104 -0.186842 -0.278843 -0.89273 -0.353947
-0.15669 0.292164 0.221771 0.949458 0.138702 -0.281589
0.294509 -0.385299 0.0596787 0.477186 -0.449731 0.755007
0.0865785 0.0696921 -0.193158 0.348742 0.0195607 0.937015
0.133987 -0.209575 -0.137384 -0.419102 0.185853 0.888714
-0.147843 0.250094 0.0377008 0.951877 0.127325 0.278781
0.403796 0.00451705 0.269456 0.629003 -0.498023 0.596932
0.369569 0.148229 -0.160774 0.538667 -0.253066 -0.803614
0.0666446 -0.0426407 0.344399 0.27707 0.331503 -0.901853
0.509472 0.250255 0.305074 -0.590153 0.550789 -0.590213
-0.0665915 0.396307 0.419102 0.659742 0.670086 -0.340185
0.0845525 -0.466205 0.272512 0.494006 -0.445313 0.746763
0.604154 0.283858 -0.0739852 0.772401 -0.201778 -0.602231
-0.0954957 0.25992 0.332239 0.560268 0.478622 -0.676033
0.391021 -0.0395015 0.185041 -0.683392 0.453231 -0.572326
-0.16889 -0.115629 -0.0439251 -0.776663 0.261848 -0.572914
-0.150729 -0.0435194 0.0934084 0.98331 0.147127 -0.107026
0.294392 0.0870224 -0.197592 0.450862 -0.243032 -0.858871
-0.20991 0.357466 0.278679 -0.759854 -0.505304 0.40901
-0.0288847 0.0817075 -0.129178 0.568983 0.0103862 0.822283
0.100837 -0.248493 -0.194758 0.287898 -0.0609605 -0.955719
-0.158402 0.0867432 0.281907 -0.79041 -0.222351 0.570799
0.0179271 0.16324 0.470812 -0.0980471 -0.426666 0.899079
0.115318 -0.118316 0.348599 0.531374 0.143271 -0.834934
-0.0126087 -0.25638 0.247977 0.577198 0.0822672 -0.812449
0.0856117 0.205215 0.506383 -0.22164 -0.266973 0.93787
-0.0284383 -0.624026 0.197371 -0.128574 0.392019 -0.910928
-0.204561 -0.426009 0.103457 -0.929047 0.34937 0.121708
0.283571 0.0217719 -0.181813 0.382414 -0.034974 -0.923329
0.113587 0.614157 -0.31389 0.898231 -0.432693 0.0771859
-0.146547 0.315455 0.0211248 0.856336 -0.0840371 0.509535
0.558364 0.258334 0.000640339 -0.352797 -0.887957 -0.295072
0.179925 -0.181384 0.385153 0.208015 -0.384318 0.899461
0.0371631 0.61971 -0.188519 0.445083 0.886866 0.123976
-0.137981 0.180093 0.00142898 0.922899 -0.0145176 0.384769
-0.076849 -0.364456 0.244065 -0.51802 -0.356622 0.777481
0.70109 0.260376 0.0121252 0.0726645 0.861877 0.501884
-0.215556 -0.00584481 0.0788923 -0.967358 -0.250608 0.0375963
-0.279562 0.493228 0.337735 -0.58494 -0.767648 -0.261843
-0.163045 0.636651 0.000109803 0.55319 0.800911 0.229176
-0.155504 0.268936 -0.0678079 -0.867433 -0.0655576 -0.493217
-0.0973065 0.218781 -0.068818 0.838035 -0.0320434 0.544674
-0.146701 -0.221039 0.174898 -0.626865 -0.500502 0.597108
-0.0920607 -0.291539 0.244155 -0.514691 -0.131045 0.847302
0.477311 0.336674 -0.145737 0.519872 -0.0485225 -0.852865
0.193825 0.430845 -0.283139 0.00512831 -0.0906073 -0.995873
-0.0913864 0.172162 0.306454 0.726231 0.293477 -0.621658
-0.0704332 0.305321 0.38815 0.687327 0.280965 -0.669806
-0.143165 0.00265699 0.269034 -0.781417 -0.195077 0.592734
0.0814419 -0.17465 -0.218672 0.159374 -0.144734 -0.976551
-0.0423013 0.250057 0.463442 -0.608962 -0.240198 0.755957
-0.179414 0.337464 -0.0280683 -0.904971 0.306695 -0.294899
-0.157089 0.080543 0.0816112 0.93297 -0.143945 0.329918
0.544435 0.37495 -0.104031 0.553566 0.800908 0.228281
0.147821 0.174037 0.441329 0.109473 0.27658 -0.954735
0.126694 -0.208799 -0.151739 -0.38282 0.143265 0.912647
0.26954 0.103346 0.483107 0.43493 -0.548039 0.714485
0.344792 -0.102716 -0.10218 0.668306 -0.259514 -0.697152
-0.0816558 -0.235844 0.187261 0.916177 -0.31415 -0.248854
0.138651 0.572985 -0.389257 -0.359291 -0.871179 -0.3346
0.193679 -0.579647 -0.125472 -0.855041 0.156048 0.494525
-0.0755029 0.496368 -0.15131 -0.861176 0.0542897 -0.505399
0.144219 -0.225653 0.323903 -0.445923 0.40986 -0.795718
0.0953197 -0.0890968 -0.234122 0.231484 -0.253087 -0.939341
-0.13858 0.621919 -0.0533722 -0.682997 0.438986 -0.583786
-0.0911521 0.392199 -0.0648089 0.918433 0.250403 0.306233
0.197814 0.504468 -0.270001 -0.333715 -0.928242 -0.164319
0.519855 0.256297 0.0790089 -0.424212 0.820273 0.383662
0.27412 -0.33415 0.139365 0.831334 -0.501285 0.239995
0.303361 -0.395368 -0.089872 0.853099 -0.301216 -0.426018
0.0444408 -0.34078 0.332101 -0.256221 -0.219099 0.94146
-0.128374 -0.20457 -0.11815 -0.821516 -0.141385 -0.552379
-0.197921 -0.152007 0.117241 -0.945645 -0.169355 0.277624
0.276595 -0.50742 -0.040117 0.926106 -0.361639 0.107449
-0.0767178 -0.532534 0.237424 -0.162858 -0.320932 0.932995
0.459778 0.22216 -0.0132184 -0.859465 0.395949 0.323332
0.452014 0.0517325 0.252097 0.485361 -0.518038 0.704317
-0.00403428 -0.0505033 0.308131 0.623777 0.238297 -0.74439
0.239219 0.182449 -0.186201 -0.334422 0.180394 0.924997
0.511327 0.255442 -0.0715652 0.745902 -0.123021 -0.654596
0.235199 -0.0203492 -0.133825 -0.56385 0.37387 0.736407
-0.147089 0.494149 0.400488 0.502364 0.844578 0.185252
0.104315 -0.200169 0.371203 -0.293849 0.109885 0.949515
0.239717 -0.158379 -0.0932009 -0.52195 0.253825 0.814335
-0.153852 0.436591 -0.0707721 -0.766262 0.0489528 -0.640661
0.581874 0.193893 0.180017 -0.317935 -0.843767 -0.432405
-0.205462 0.232546 0.228871 -0.89325 -0.371997 0.252434
0.228309 -0.352003 -0.105315 -0.670173 0.149882 0.726914
0.0304657 -0.467883 -0.264011 -0.157219 0.365346 -0.917499
0.0858682 0.317096 -0.199927 0.495553 -0.224944 0.838944
0.150541 -0.000909402 0.424622 0.2019 -0.40743 0.890639
0.283928 0.368539 -0.204952 -0.261006 0.194566 0.945526
-0.198015 -0.2831 0.0937577 -0.919886 -0.234974 0.314001
0.200568 0.578097 -0.263457 0.329366 0.910614 0.249602
0.0300578 0.393466 -0.17502 0.130658 0.0402666 0.99061
-0.106514 0.456592 0.452685 0.313843 0.890532 0.329325
-0.159774 0.457998 0.0565578 0.950814 0.0038971 0.309738
-0.118716 -0.456039 0.21205 -0.627044 0.0943526 0.773249
-0.0237731 -0.271343 -0.145024 0.570649 -0.0445943 0.819982
0.482878 0.334041 -0.0702894 -0.316053 0.832924 0.454255
-0.10561 -0.513943 0.17122 0.401604 0.355669 -0.843928
0.0304228 -0.294074 -0.225957 0.471492 -0.211807 -0.856056
0.0186398 0.0408546 0.362973 0.561373 0.195044 -0.80425
-0.0234417 -0.106233 -0.142961 0.665202 0.00104262 0.746663
0.409299 0.228552 0.280858 -0.452089 -0.868095 0.205003
0.0407111 0.0353854 0.434195 -0.310535 -0.356125 0.88133
0.411008 -0.0879097 -0.00631098 0.869476 -0.149682 -0.470751
0.238844 -0.431518 0.0235128 -0.720696 0.475209 -0.504752
-0.141181 -0.0150052 0.0185692 0.850441 -0.142898 0.506291
-0.174702 0.490601 0.157835 0.997256 0.0534508 -0.0512214
0.158775 0.187202 -0.206522 -0.0566553 0.0864015 0.994648
-0.157982 -0.165132 0.0573556 0.999052 0.0320106 -0.0295009
0.266932 -0.211015 0.195585 -0.761253 0.467563 -0.449309
0.215124 0.0551497 -0.169843 -0.38531 0.302611 0.871758
-0.221083 0.434564 0.0828898 -0.923373 0.287318 -0.254621
-0.0367149 0.261201 -0.126249 0.642163 -0.0107627 0.766493
-0.0318218 0.129822 0.361649 0.55018 0.400401 -0.73279
0.38594 -0.210775 0.0976212 0.634414 -0.501545 0.588194
0.118822 -0.346177 -0.208263 0.149023 0.263193 -0.953164
-0.0219457 0.199402 -0.200861 -0.339017 -0.00756532 -0.94075
0.121519 -0.559796 0.135284 -0.211295 -0.829402 -0.517152
0.446752 -0.0776169 0.146352 0.805522 -0.42363 0.414334
0.164796 -0.0990497 0.410299 -0.00720076 -0.377447 0.926003
-0.241429 0.512808 0.261236 -0.397805 -0.874742 -0.276728
0.10694 -0.48869 0.152073 -0.881193 0.463284 -0.0941622
-0.0478331 -0.237856 -0.192325 -0.643012 0.0786265 -0.761809
0.38867 0.38602 -0.219914 0.29802 -0.00460246 -0.954549
0.24004 0.541378 -0.34639 0.502224 0.116806 -0.856813
0.191536 -0.333326 0.248343 0.651502 -0.423768 0.629258
0.270771 0.397556 -0.260564 -0.0463168 -0.0600411 -0.997121
0.176882 0.324057 -0.2649 0.0371892 -0.101253 -0.994165
-0.201242 -0.214882 0.0673968 -0.945159 -0.213633 0.247055
-0.20211 0.144565 0.0208664 -0.94227 -0.151829 -0.298456
0.161012 0.232356 0.524762 -0.21168 -0.0712284 0.97474
-0.103193 0.56818 -0.0681143 0.86795 0.423626 0.259236
0.201133 -0.497946 0.00507743 -0.723252 0.480933 -0.49559
-0.117966 -0.370813 -0.110188 -0.573988 -0.781896 -0.24326
-0.0850958 0.640571 -0.106548 0.33431 0.935324 0.115784
-0.161785 -0.245102 -0.0733465 -0.960407 0.0309947 -0.276871
0.215388 0.142284 -0.239781 0.317586 -0.2037 -0.926092
-0.0992362 0.329432 -0.0587969 0.711406 -0.15453 0.685582
0.358268 -0.1265 0.00246399 -0.602104 0.114843 0.790115
0.620459 0.315739 0.00393559 -0.0596329 0.839807 0.5396
-0.170841 0.376967 0.189381 0.981984 -0.169022 -0.0844871
-0.16617 0.165303 0.111293 0.995651 0.0227327 0.0903455
-0.259125 0.568662 0.107938 -0.44318 -0.850815 -0.282322
0.0307065 -0.103224 0.372458 -0.386967 -0.266197 0.882834
0.42493 0.131691 -0.0190668 -0.844175 0.305079 0.44079
0.24141 0.117008 -0.16703 -0.163799 0.0779241 0.983411
0.207083 -0.575014 -0.0197077 -0.821693 -0.569018 0.0322401
0.38385 -0.0624776 0.238281 0.72631 -0.465158 0.506065
-0.210422 -0.103166 0.0570641 -0.979714 -0.0879682 0.180064
-0.195577 -0.190265 0.0011644 -0.914895 -0.00755482 -0.403621
-0.179641 0.53848 0.291035 0.894911 -0.246393 -0.372055
-0.171272 -0.0184536 -0.0391616 -0.968353 -0.0770119 -0.237407
0.255248 -0.266899 0.239727 0.738683 -0.473572 0.479663
-0.196789 0.107687 0.219275 -0.828113 -0.386108 0.406386
0.217952 -0.530238 -0.165441 0.544665 0.0681365 -0.835881
0.283482 0.168262 -0.224414 0.236127 -0.0270427 -0.971346
0.298056 -0.213242 -0.0960328 0.624035 -0.261957 -0.736178
-0.161183 0.401062 0.0812334 0.98715 0.0565573 0.149453
-0.0201313 -0.312024 0.289706 -0.574201 0.343876 0.742996
-0.199086 0.458034 0.00484533 -0.92744 -0.104358 -0.359116
0.325021 0.317171 -0.170435 -0.616068 0.326305 0.716928
0.459252 0.240862 0.398163 0.404897 0.864917 0.296609
0.328795 -0.280976 0.113378 0.654304 -0.442053 0.613575
-0.163389 0.389028 0.250323 0.989441 0.0509149 -0.135701
0.437633 -0.137587 0.0571555 0.924364 -0.313103 -0.217987
0.52582 0.200056 0.023036 0.880324 -0.399531 -0.255744
-0.107595 -0.178601 0.243101 -0.757295 -0.189401 0.625005
-0.0500178 -0.326645 -0.127268 0.687402 0.14297 0.712066
0.2263 0.303674 -0.254393 0.139711 -0.0646521 -0.988079
-0.0145601 0.545578 -0.137925 0.542587 -0.1024 0.833735
-0.138891 0.0989063 -0.00398893 0.978091 0.0419666 0.203905
0.466383 0.168007 0.21544 -0.064067 0.34582 -0.936111
0.376817 0.230975 0.36855 0.434727 0.898361 0.0629236
-0.151186 0.405819 0.417637 -0.740821 -0.293651 0.604113
0.223938 -0.459235 0.0783622 0.777107 -0.471541 0.416838
0.0855239 0.287372 0.475446 0.372554 0.16529 -0.913172
-0.0394574 0.174243 -0.124935 0.543589 0.0484129 0.837954
0.305121 -0.220543 0.135544 -0.615925 0.532465 -0.580619
0.380768 -0.129486 0.114943 -0.636469 0.440362 -0.633236
-0.144543 0.238632 0.26187 0.948103 0.0546054 -0.313239
0.414172 0.225889 0.46119 0.839112 -0.444369 0.313732
-0.228331 0.516837 0.193125 -0.986108 -0.0525687 0.157565
0.268151 0.257493 0.578408 0.302447 0.860115 0.410766
-0.153026 -0.383097 0.18565 -0.633923 -0.251921 0.731217
0.473251 0.156572 -0.080598 0.7707 -0.129474 -0.623906
0.402303 -0.203703 0.0146894 0.931818 -0.208506 -0.297053
0.304816 0.172273 -0.144047 -0.438466 0.18026 0.880485
0.462522 -0.0352841 0.0560094 0.804285 -0.0318139 -0.593392
0.0149078 -0.25657 0.321296 -0.649363 0.0397777 0.759438
0.12668 0.453177 -0.259215 -0.110225 -0.0994514 -0.988919
0.0429177 0.292622 -0.234084 -0.278429 0.0450532 -0.9594
0.0356361 -0.389061 -0.225991 -0.40938 0.479187 -0.776394
0.0660571 0.288932 0.58314 -0.553538 -0.0655525 0.83024
0.0858363 -0.272449 0.351971 -0.160663 -0.258678 0.952509
0.403172 0.0626448 -0.0212419 -0.854259 0.340239 0.393039
-0.201776 -0.368563 0.0446049 -0.987188 -0.0570759 0.149002
0.3316 0.233446 0.566354 0.356642 0.876363 0.323718
0.188617 -0.266758 0.253108 -0.659324 0.458701 -0.595722
-0.076351 0.461285 -0.0837194 0.879015 -0.172607 0.444454
-0.182145 -0.0201116 0.208758 -0.910847 -0.0390026 0.410897
0.348795 -0.295056 -0.0513184 0.835944 -0.173237 -0.520756
-0.00976425 0.208248 0.405806 0.656885 0.186425 -0.730581
0.155996 -0.471555 -0.16176 -0.655234 0.150835 0.740214
0.0962144 0.0218718 -0.248269 -0.265756 -0.0243077 -0.963734
0.134497 0.127132 -0.253278 0.0526619 -0.0835692 -0.995109
-0.145261 -0.271183 0.0353375 0.950502 -0.0907353 0.297174
-0.117653 -0.308717 -0.13456 -0.750177 0.0750956 -0.656959
0.362394 0.253333 0.49658 0.3679 0.858294 0.357744
0.161996 -0.554905 0.0554497 -0.739185 -0.65721 0.14724
-0.109349 -0.31458 0.161363 0.889968 -0.2844 -0.356474
-0.179117 0.552938 -0.0145325 -0.883556 0.139446 -0.447083
0.275523 -0.466814 -0.114613 0.691489 -0.0282132 -0.721836
-0.125845 -0.214167 -0.0185759 0.954331 0.0437141 0.295537
-0.0652572 -0.0114064 0.265253 0.742209 0.119578 -0.659414
0.474144 0.0983981 0.19365 -0.686507 0.590782 -0.423893
0.30539 0.0112899 -0.109671 -0.526582 0.0886261 0.845492
0.635961 0.248649 0.149587 0.51537 0.856801 0.0169214
-0.217877 0.507381 0.0872907 -0.957942 0.00860076 -0.286833
-0.0115519 0.509637 -0.212354 -0.585443 -0.0254277 -0.810315
0.364077 -0.0121525 -0.124615 0.571394 -0.425369 -0.701833
-0.0505822 -0.464512 0.266807 -0.541365 -0.112764 0.833192
0.0211255 0.325075 -0.158904 0.492596 -0.35956 0.792506
0.0258557 0.378979 0.522989 0.188809 0.834534 0.517594
0.463332 0.161902 0.0580525 -0.922084 0.336865 0.190482
0.203355 -0.192335 0.290599 -0.914245 0.280166 -0.292681
-0.135895 0.0303978 -0.103768 -0.947991 -0.071721 -0.310112
-0.332766 0.577064 0.178601 -0.327151 -0.944585 -0.0270492
0.271893 0.494086 -0.318302 0.570051 0.285764 -0.770312
0.0453941 0.588392 -0.315161 -0.283985 -0.915955 -0.283512
-0.340258 0.559045 0.259858 -0.608859 -0.793217 -0.00985752
0.0063594 -0.433023 -0.172333 0.73161 -0.469217 0.494553
-0.123533 -0.294679 -0.0278251 0.992048 0.0141796 0.125062
-0.224834 -0.508482 0.100204 0.0188076 -0.882896 -0.469192
-0.112089 -0.142263 -0.0431756 0.486299 0.169084 0.857277
0.29901 0.270093 0.494117 -0.52029 0.596186 -0.611441
-0.0899242 0.0164682 0.335851 -0.707177 -0.14093 0.692849
0.555536 0.304447 -0.112822 -0.370697 -0.879726 -0.297769
-0.0229971 0.439472 -0.199084 -0.251289 0.0281488 -0.967503
-0.208417 0.44952 0.302675 -0.929822 -0.211913 0.30087
-0.0605201 -0.0884057 0.331639 -0.46398 -0.442764 0.767256
0.486383 0.0132969 0.151036 0.786259 -0.472481 0.398193
0.0923049 -0.395191 0.306021 0.116575 -0.282932 0.952029
-0.257474 0.602566 0.211742 -0.114874 -0.223872 0.967825
-0.157812 0.119829 0.167084 0.94628 0.112419 -0.303177
0.319112 0.0914768 -0.118694 -0.558938 0.358214 0.747844
-0.201539 -0.0674606 0.151071 -0.829392 -0.259571 0.494703
0.29243 -0.454064 -0.000538867 0.798452 -0.476308 0.368246
0.116706 0.310592 0.611778 0.370216 0.905389 0.207871
0.423609 -0.00463144 -0.0523629 0.765946 -0.521514 -0.375967
0.0552061 -0.0321785 -0.240796 -0.457094 0.0104503 -0.889357
0.455618 0.045572 0.0842619 -0.83283 0.130918 0.537824
-0.031511 0.0123956 0.310959 0.574698 0.406989 -0.709987
0.341025 0.232597 -0.146013 -0.395302 0.0875803 0.914367
0.302687 -0.147446 -0.0590599 -0.717896 0.285206 0.635046
0.606838 0.240148 0.0794963 0.262032 0.223039 -0.938932
0.170809 0.217816 0.462754 -0.0542181 0.399654 -0.915061
-0.208327 0.0585118 0.143591 -0.98342 -0.0780233 0.163702
-0.156622 0.185944 0.184339 0.97023 0.104776 -0.218346
0.158008 0.233851 -0.252493 0.238779 -0.327952 -0.91402
-0.206366 0.141324 0.0161334 -0.944088 0.0170521 -0.329252
-0.0506224 -0.143246 0.239779 0.618838 0.349475 -0.703497
0.277425 0.273014 -0.178906 -0.228486 0.12111 0.965985
0.683912 0.204291 0.060058 0.883846 -0.453473 0.114797
0.141028 0.593295 -0.235944 0.346429 0.8621 0.369824
-0.207828 0.356805 0.0324611 -0.997451 -0.0593004 -0.0396794
0.00360016 -0.495941 0.277947 0.0890853 -0.318193 0.943831
0.200767 0.611147 -0.347001 0.380823 0.883348 0.273257
0.24181 -0.128429 0.296347 -0.552171 0.513627 -0.65673
0.251147 0.168611 0.456085 0.347777 0.190495 -0.918021
-0.0963692 0.145355 -0.0728779 0.630994 -0.289762 0.719642
0.131981 0.0640022 0.394695 -0.0829355 0.478404 -0.874215
0.371338 -0.183885 -0.0374001 0.738723 -0.0697345 -0.670392
-0.0899231 -0.130314 -0.153908 -0.75451 0.016728 -0.656075
0.0812612 0.201429 -0.246431 -0.134577 -0.0535813 -0.989453
-0.130724 0.343843 0.321185 0.952445 -0.0741383 -0.295553
0.0455683 0.466087 -0.234951 -0.163971 -0.0732101 -0.983745
0.00420787 -0.15762 0.342521 -0.407965 -0.369006 0.835104
0.559091 0.347443 -0.0224738 0.305445 0.951962 0.0217001
0.300025 -0.172387 0.254574 0.683895 -0.452952 0.571946
0.0392483 -0.355438 -0.151871 -0.459917 0.455349 0.762321
-0.0415257 0.0285952 -0.196438 -0.575893 0.0198055 -0.817285
-0.118003 -0.0486293 0.205008 0.730438 0.298418 -0.614334
0.518311 0.186244 0.127255 -0.758696 0.0587786 0.648788
0.368266 0.0301447 0.338918 0.731972 -0.48727 0.47622
-0.15905 0.256236 0.330326 -0.859549 0.0875376 0.5035
0.337613 0.436414 -0.200558 0.0422567 0.692605 0.720078
-0.0494594 -0.327251 -0.195998 -0.358897 -0.0938593 -0.928646
0.00253863 0.107023 0.441358 -0.495139 -0.299192 0.815672
0.10022 -0.326246 0.286896 -0.266069 0.416416 -0.86937
-0.175309 0.367889 0.357714 -0.934282 -0.0219249 0.355861
0.316149 0.119033 0.432613 -0.42863 0.48148 -0.764495
0.346783 0.141414 0.333899 0.616519 -0.165218 -0.76981
-0.195556 -0.298007 -0.00597447 -0.978976 0.0409245 -0.199828
0.447818 -0.0701186 0.137461 0.836555 -0.467642 0.285458
-0.0168913 -0.0700587 -0.216182 -0.397265 -0.12522 -0.909121
0.405466 0.326932 -0.125143 -0.548945 0.0814028 0.831885
0.082409 0.617791 -0.261898 0.337187 0.891128 0.303638
0.113099 0.263842 0.536963 -0.221426 -0.678124 -0.700798
-0.0880007 0.31503 0.453376 -0.69406 -0.207738 0.689294
-0.0878018 -0.0101842 -0.155765 -0.668317 0.0176342 -0.743667
-0.211614 0.197809 0.141429 -0.980764 0.0536232 -0.187687
0.440756 0.0701078 -0.07435 0.750145 -0.414687 -0.51509
0.53411 0.102805 0.133237 0.936046 -0.314066 -0.158686
-0.0992193 0.564667 -0.143575 -0.728383 -0.0870155 -0.679622
-0.0457765 0.386449 -0.192962 -0.656737 0.0226321 -0.75378
-0.104876 0.425004 -0.129627 -0.776875 -0.0714459 -0.625588
0.399996 0.134935 0.232924 -0.286235 0.744611 0.603012
-0.131326 -0.3599 0.081119 0.689437 -0.532588 0.490946
0.109349 -0.424605 0.206156 -0.622933 0.480052 -0.61766
-0.153283 0.177044 -0.076869 -0.754852 -0.0237434 -0.655465
0.176605 -0.29279 0.318408 0.692816 -0.485149 0.533514
0.0637914 -0.537771 0.235444 0.64991 -0.47405 0.594049
0.422809 0.0875924 0.320295 0.564477 -0.526564 0.635685
0.246847 -0.269287 0.170706 -0.560809 0.467677 -0.683207
0.277659 -0.15256 -0.13512 0.689461 -0.423774 -0.587417
-0.219326 0.128196 0.137878 -0.986887 -0.105972 0.121749
0.0838033 -0.0237747 0.416362 -0.111243 -0.377782 0.919188
-0.0334536 -0.153868 -0.197136 -0.603895 0.0506234 -0.795455
-0.190977 0.172894 0.279448 -0.807796 -0.376274 0.453744
-0.154646 -0.433759 0.0263495 0.0525956 -0.919611 -0.389293
-0.0802815 0.0971989 0.29021 0.75636 0.212977 -0.618515
-0.0720976 0.167762 0.40747 -0.751338 -0.0977793 0.652633
0.629711 0.192362 0.106147 -0.366556 -0.87314 -0.321345
0.208113 0.11178 0.425289 0.593623 0.0338422 -0.804031
0.107976 0.241302 0.617473 -0.638851 0.260296 0.723958
-0.138711 0.515398 0.0298684 0.866314 -0.157742 0.473938
-0.226318 0.636326 0.0902977 -0.862336 0.395752 -0.315842
0.207417 -0.190974 -0.162352 0.600812 -0.426404 -0.676169
-0.102747 0.0890327 -0.141497 -0.644653 -0.0600226 -0.762116
0.356329 0.0798528 0.255825 -0.675918 -0.579107 -0.455818
-0.133399 0.415769 0.346055 0.775314 0.311916 -0.549179
0.287979 0.227355 0.654771 0.480264 -0.289506 0.827969
-0.179641 0.611515 0.0841929 0.904856 -0.413347 0.101882
-0.0329302 0.0628658 0.390136 -0.623984 -0.261538 0.736371
0.0300608 0.0129211 -0.170491 0.564779 -0.176737 0.806095
0.177326 -0.278817 -0.19311 0.428327 0.0610777 -0.901557
-0.0260765 0.326354 0.519886 -0.412922 -0.875217 -0.251973
-0.207927 0.256839 0.0758723 -0.962713 0.0259527 -0.269277
0.165523 -0.00823567 -0.227374 0.302947 -0.180362 -0.935785
0.429836 0.191535 -0.126275 0.683962 0.0305298 -0.728878
0.349237 0.480716 -0.258078 0.619125 -0.0363314 -0.784451
0.398147 0.318712 -0.21122 0.666169 -0.407356 -0.624724
-0.0427081 -0.196849 0.291655 -0.656678 -0.196164 0.728212
0.30344 0.0824367 0.312543 -0.47036 -0.729358 -0.496789
-0.0258165 -0.0176137 -0.136827 0.558153 0.121151 0.820846
0.317889 -0.0878163 0.239027 -0.863105 0.361366 -0.352795
0.306362 -0.218887 -0.101224 0.642222 -0.244879 -0.72635
0.132244 -0.0131165 0.367047 0.273574 0.197229 -0.941413
-0.0938899 -0.594308 0.177183 0.725506 -0.249875 -0.641251
0.519016 0.237862 0.329458 0.351355 0.929376 0.113179
0.0928059 0.428794 -0.197335 0.348991 -0.189861 0.917692
-0.21856 -0.495278 0.0567724 -0.464507 -0.862958 -0.198839
0.0960846 -0.52186 -0.2473 -0.583885 -0.766768 -0.266732
