ply
format ascii 1.0
comment Created by Open3D
element vertex 512
property double x
property double y
property double z
property double nx
property double ny
property double nz
end_header
-0.374647 -0.0946909 0.0476955 -0.621338 -0.706898 -0.337987
-0.162474 -0.381311 0.0347999 -0.165838 -0.979632 -0.113221
-0.097661 -0.307831 -0.0358878 0.738127 0.511172 0.440309
0.0315275 0.0515836 -0.25902 -0.376987 -0.027144 0.925821
-0.0488666 -0.00988128 -0.370787 0.382053 -0.0251714 -0.923798
-0.0426489 0.19541 -0.360427 -0.547623 0.820705 -0.162948
-0.108336 0.255397 0.106621 -0.437323 0.873879 -0.21233
0.089196 0.4057 0.263425 -0.557184 0.81894 -0.137414
-0.22195 -0.356211 0.10325 -0.723357 -0.611839 -0.320012
-0.22058 -0.122499 -0.282095 -0.76683 -0.573894 -0.287432
-0.276228 -0.143887 0.116774 0.715097 0.691499 0.102298
-0.0683026 0.109993 -0.245651 0.516522 -0.847543 0.12197
-0.0897012 0.280609 0.179771 -0.493365 0.847546 -0.195593
0.381993 0.13242 -0.131246 0.884204 0.463901 -0.0545714
-0.551987 0.0188592 0.317811 -0.395689 -0.00115609 0.918384
0.137064 -0.272179 -0.267829 0.513121 -0.844249 0.154757
0.0881386 0.354756 0.427657 0.499603 -0.845051 0.190486
-0.265398 -0.138795 0.0894326 0.816425 0.377015 0.437389
-0.0801383 -0.25478 -0.155234 0.704525 0.631083 0.324622
-0.310931 -0.0962126 -0.517592 0.568129 -0.817902 0.0909178
-0.1665 -0.213902 -0.0295114 -0.207663 0.722194 -0.659781
-0.194973 -0.123025 0.272848 -0.410902 0.12126 0.903579
-0.148836 0.0134996 -0.600649 0.386134 0.0131166 -0.92235
-0.538087 -0.0987499 -0.0980721 -0.696328 -0.580355 -0.422273
-0.233478 -0.0214773 -0.62999 0.210377 -0.100801 -0.97241
0.0728974 -0.2529 -0.252089 -0.359438 -0.0809776 0.929649
0.286401 0.317988 -0.29643 0.537704 -0.82592 0.169499
-0.132362 0.119335 -0.0338941 0.434299 -0.860966 0.264803
-0.26997 -0.0514968 -0.309871 -0.197509 -0.973169 -0.118036
0.330427 -0.00483029 -0.141293 -0.375401 -0.0353513 0.926188
-0.34668 0.133547 0.211108 -0.576167 0.810887 -0.102439
-0.427695 0.00769609 0.272905 0.462859 -0.846408 0.263352
-0.450246 0.0923723 0.300511 -0.490946 0.846542 -0.205762
-0.261192 -0.163038 0.145813 0.82424 0.403354 -0.39741
-0.0143843 -0.168171 -0.280107 -0.269757 -0.193696 0.943246
0.109343 0.392541 0.520363 0.502915 -0.843802 0.187282
-0.0103984 0.104779 -0.402363 0.632583 -0.727797 -0.264859
-0.395499 0.0166322 -0.190589 -0.501308 0.841291 -0.202288
-0.310043 -0.203743 0.22336 -0.648014 -0.104599 0.754412
-0.218523 0.110901 -0.253977 -0.519622 0.837621 -0.168477
-0.0392679 -0.255656 -0.249288 0.784571 0.544416 0.296748
-0.278027 0.220309 0.424806 -0.42418 0.863536 -0.27272
-0.185222 -0.0819188 -0.392436 -0.56383 -0.374813 -0.735942
0.286007 0.464565 -0.0287372 -0.49804 0.845496 -0.192592
-0.13977 0.0107357 -0.450642 0.606758 -0.738597 -0.2938
-0.346856 0.0247798 0.121256 0.414723 -0.865839 0.279869
0.125437 0.0753676 -0.298569 0.376684 0.029253 -0.92588
0.197054 0.371048 -0.206885 -0.60915 0.790008 -0.0694583
0.366024 0.447358 -0.0800336 0.811326 0.525095 0.256956
0.342073 0.174137 -0.100873 0.834192 0.448197 0.321315
-0.123726 0.137441 0.310338 -0.112197 -0.308342 0.944636
-0.0635956 0.271996 0.0727925 -0.612925 0.78997 -0.0164619
-0.211872 0.183893 0.0657731 -0.555823 0.822481 -0.120773
-0.172798 0.258401 0.317477 -0.459073 0.806532 -0.372503
0.370391 0.362496 -0.310522 0.446636 -0.866793 0.221777
0.00355154 0.308332 0.453366 0.552624 -0.833384 -0.0088161
0.0644852 0.16223 -0.38755 0.592738 -0.803705 -0.0521496
-0.527491 0.0403501 0.269507 -0.558595 0.823651 -0.0978268
-0.0747791 0.0621066 -0.440422 0.627429 -0.76225 -0.159086
0.293604 0.420519 0.148599 0.779707 0.522832 0.344533
-0.199335 -0.11428 -0.106339 0.381873 -0.81058 0.443996
0.207381 0.475814 0.243923 0.76757 0.541206 0.343413
0.0747043 -0.0397641 0.381661 -0.188093 -0.0774893 0.97909
-0.295257 -0.108732 0.129184 0.878612 0.429996 -0.207713
-0.16292 -0.330535 0.144617 0.786737 0.586246 0.193288
0.194654 0.0618057 -0.274535 0.415981 -0.0982936 -0.904045
0.305785 -0.0625071 0.152487 -0.406131 -0.879829 -0.2469
0.281406 0.436122 -0.154929 -0.593392 0.795 -0.12594
0.240565 0.413515 0.262135 0.479215 -0.85464 0.199857
-0.484057 -0.0364402 -0.186531 -0.519427 0.846276 -0.118378
0.252095 0.124452 0.176342 0.302778 0.191965 -0.933528
-0.517794 0.0530615 0.303147 -0.497165 0.846288 -0.191374
0.22344 0.0380216 0.171387 -0.745635 -0.572528 -0.340939
-0.405979 -0.0887613 0.0996713 -0.541881 -0.836466 -0.0817941
-0.177944 0.237479 0.208797 -0.513904 0.838946 -0.179086
-0.172286 -0.268945 -0.144677 -0.705479 -0.561337 -0.432667
-0.204314 -0.133933 -0.295631 -0.810646 -0.330765 -0.483164
-0.364924 -0.157071 0.161572 -0.925449 -0.368039 0.0899548
-0.221593 -0.32029 0.257451 -0.486229 -0.0806224 0.870104
0.267338 0.193339 0.0596839 0.76809 0.574749 0.282314
0.151512 0.196122 0.0827594 -0.719742 -0.661645 -0.210233
-0.112003 0.0130222 -0.572371 0.512413 -0.842861 0.16437
0.0183341 -0.215561 -0.352707 0.317249 0.0547214 -0.946762
-0.196349 -0.158958 -0.146006 -0.00561037 -0.422545 0.906325
0.0614506 0.353367 0.0647493 -0.548198 0.821568 -0.156539
0.216969 0.0499815 0.38847 0.666401 0.411973 0.621441
0.304691 0.239393 -0.110704 0.754084 0.569379 0.32736
0.291257 0.394752 -0.330105 -0.538429 0.827074 -0.161376
0.0337319 0.213007 -0.456918 -0.52115 0.839692 -0.152711
-0.124629 -0.141344 -0.249324 0.705928 0.65377 0.272488
-0.235892 -0.139081 -0.197108 -0.841568 -0.446237 -0.304362
-0.009983 -0.318239 -0.349261 -0.162997 -0.260245 -0.951685
0.262363 0.0946814 -0.246291 0.321449 0.0878159 -0.942846
-0.146142 0.0344786 0.296698 -0.332765 -0.0555666 0.941371
0.449461 0.0318384 -0.116806 0.855467 0.510023 0.0897337
-0.197683 -0.253959 0.120878 0.754496 0.543492 0.367902
0.264082 -0.022121 0.173465 -0.775936 -0.516221 -0.362546
-0.471601 -0.101858 -0.232676 -0.686824 -0.63505 -0.353532
0.0180286 -0.00789316 0.36281 -0.388827 -0.0202272 0.921089
-0.50676 -0.0468959 -0.171019 -0.52679 0.838842 -0.137241
0.266737 0.0818213 0.00897551 -0.803231 -0.558812 -0.206274
0.180838 0.143036 -0.274973 0.356834 0.0952552 -0.929299
-0.152205 0.149498 0.154858 0.472055 -0.850877 0.230594
-0.0943607 0.0851494 0.31938 -0.384409 0.0428775 0.922167
-0.0325069 0.0687498 -0.382405 0.604015 -0.485802 -0.631793
-0.210783 -0.200181 0.0640217 0.770327 0.544156 0.332402
-0.130661 -0.0831087 0.234954 0.648246 0.702241 0.294338
0.339615 0.198858 -0.183421 0.848659 0.392512 -0.35456
-0.169676 -0.0351161 0.199375 0.380982 0.0232758 -0.924289
0.29821 -0.124777 -0.152551 -0.312074 -0.120259 0.942416
-0.223838 -0.0546235 -0.573079 0.501886 -0.842918 0.193908
-0.583719 -0.082461 0.272617 0.476118 -0.853977 0.209846
-0.0801656 0.271468 0.10979 -0.61706 0.786528 0.0247139
0.459312 0.00242817 -0.080579 0.623383 0.726642 0.288764
-0.280038 -0.30342 0.190209 -0.864776 -0.396436 0.30822
0.0603329 0.452624 0.517617 -0.429456 0.875136 -0.222944
-0.0660657 -0.226549 -0.373755 -0.186598 -0.444756 -0.875998
0.0468472 0.208102 -0.122589 0.525716 -0.835449 0.160149
0.242888 -0.183875 -0.190549 0.0864958 -0.626304 0.774766
-0.174276 -0.200725 -0.25687 -0.640768 -0.693719 -0.328892
0.106134 -0.0562039 0.313962 0.274096 0.095472 -0.956952
-0.334528 -0.00592109 -0.477534 -0.653967 0.754803 -0.050988
-0.0786461 -0.151017 0.234761 0.320948 0.0904848 -0.942764
0.211813 0.250518 -0.158835 -0.861252 -0.459377 0.217296
-0.226798 -0.255262 0.252279 -0.420362 0.0176715 0.907184
0.36145 0.163742 -0.117402 0.788066 0.497494 0.362563
0.14887 0.464936 0.405272 0.873714 0.401392 0.274787
-0.231826 0.0596458 -0.444255 -0.526326 0.833057 -0.170288
-0.277951 -0.115129 0.0690909 0.6038 0.718161 0.345934
0.103034 0.152886 0.26492 -0.77859 -0.505692 -0.371582
0.104648 0.122309 -0.226043 -0.403294 0.119134 0.907282
-0.239464 0.225998 0.325876 -0.513828 0.846978 -0.136418
0.0664456 0.389033 0.55682 0.0569995 0.277118 0.959144
0.00135608 0.252346 0.276846 -0.140119 -0.245918 -0.959109
-0.583406 0.0120173 0.287217 -0.37673 0.856259 -0.353405
-0.404109 -0.109104 -0.323588 0.559864 -0.814515 0.152046
-0.184337 -0.3407 0.00621869 -0.776437 -0.527465 -0.344857
0.300213 0.46208 -0.0524612 -0.546227 0.835552 -0.0590643
-0.195782 0.0382578 0.19719 0.31261 0.101744 -0.944417
-0.271772 0.195125 0.43444 -0.350073 -0.0794984 0.933343
0.0600442 -0.132241 -0.250539 -0.412834 0.000361983 0.910806
0.0173305 0.32425 0.0743734 -0.58044 0.797811 -0.163054
-0.167362 -0.216759 -0.233985 -0.750734 -0.60756 -0.259363
0.336982 0.374171 -0.1676 0.437992 -0.856941 0.271688
0.278887 0.215118 -0.233346 0.3129 0.220744 -0.923778
0.166047 0.418549 0.0892628 -0.508855 0.84107 -0.183491
-0.35648 0.00526526 -0.332138 -0.457696 0.85589 -0.240765
0.381013 0.0649638 -0.00369796 0.774254 0.563321 0.288444
-0.488024 0.0412475 0.341975 -0.377805 -0.0326965 0.925308
-0.497062 -0.0726927 -0.233749 -0.751832 -0.599959 -0.273491
-0.00857366 0.0324137 -0.354898 0.405042 -0.0156469 -0.914164
-0.224989 -0.0145531 -0.234307 0.752277 0.553119 0.357964
0.20669 0.331201 0.0632972 0.863876 -0.402722 0.302544
0.248543 -0.0643217 0.302067 -0.439629 -0.873777 -0.207941
0.0827141 0.375296 0.528477 0.528651 -0.833469 0.160806
0.127003 0.345935 0.31234 0.65729 -0.723222 0.211941
-0.140882 -0.0741382 0.210682 0.371412 0.0510407 -0.927064
0.256357 0.475538 0.140969 0.740548 0.580624 0.338325
-0.231572 -0.281407 0.0127794 -0.775166 -0.515307 -0.365481
-0.0581821 -0.292103 -0.147555 0.836907 0.478596 0.265579
0.0863139 0.176861 -0.374153 0.597947 -0.798265 -0.0723414
-0.26034 -0.0950277 0.167614 0.372011 0.072048 -0.925428
0.00772534 0.189062 -0.0931149 0.519258 -0.843803 0.135523
-0.0855705 -0.157989 0.316644 -0.365454 -0.0404414 0.929951
-0.100448 0.22909 -0.0340858 -0.407801 0.85511 -0.320132
0.0853005 -0.155599 -0.242082 -0.46017 0.0536541 0.886208
-0.240074 -0.166578 -0.163402 -0.752067 -0.604616 -0.262364
0.150817 0.199773 0.299038 0.857751 0.374619 0.352027
0.209954 -0.038105 -0.189005 -0.40997 0.0654602 0.909747
-0.0398328 -0.355509 -0.308753 -0.71599 -0.546981 -0.433786
-0.0677325 -0.0812717 -0.299056 -0.363347 -0.0693145 0.929072
-0.145732 0.194622 -0.0600413 -0.624461 0.763858 -0.163002
0.200507 0.144225 -0.268184 0.379001 -0.0088105 -0.925355
-0.0673501 0.0944052 -0.563778 0.40777 -0.00118614 -0.913084
-0.0829769 0.0236172 -0.402458 0.593547 -0.324287 -0.736573
-0.0284864 -0.330187 -0.337521 -0.463654 -0.432583 -0.773238
-0.190573 0.205887 0.113365 -0.535861 0.843575 -0.0351257
-0.078591 -0.292483 -0.324114 -0.692827 -0.524383 -0.494988
-0.163334 -0.348339 0.226687 0.504925 -0.841513 0.192111
-0.0412976 0.11334 -0.28869 -0.275263 -0.209596 0.938243
0.379658 0.438435 -0.371593 0.422391 0.290373 -0.858644
-0.51972 -0.0160998 0.321884 -0.369739 -0.0926453 0.924505
-0.0578403 0.0170452 -0.378767 0.500065 -0.329023 -0.801048
-0.329235 0.0633038 0.268139 0.304336 -0.779809 0.547062
0.0632511 0.157513 -0.378164 0.660195 -0.71137 -0.241031
0.0948743 0.184692 0.38165 0.0710276 0.355535 0.93196
0.401028 0.38287 -0.320381 0.531222 -0.835682 0.139426
0.194299 0.314917 -0.445577 -0.433185 0.832382 -0.345675
-0.179287 -0.279591 -0.108576 -0.78693 -0.544529 -0.290221
0.385465 -0.00933068 0.0977145 0.805073 0.394694 0.442803
-0.545744 -0.115705 0.0264324 0.482991 -0.843122 0.236355
-0.0924766 0.0332494 -0.520067 0.476563 -0.853946 0.208957
0.317457 0.0176598 -0.222881 0.37857 0.00371537 -0.925565
0.126099 0.14007 0.242669 -0.700595 -0.669584 -0.246624
-0.182408 0.248303 0.28357 -0.487061 0.847508 -0.210954
-0.0505039 -0.0996775 -0.376203 0.309049 0.112874 -0.944324
0.137326 0.324186 -0.261147 -0.530902 0.843257 0.0840282
0.30079 -0.0374012 0.317291 0.867134 -0.330817 0.372342
-0.0860472 0.194482 0.167231 0.541635 -0.821241 0.179428
-0.162401 -0.117197 -0.392274 -0.341376 -0.251953 -0.905529
0.0299607 -0.0562558 -0.341449 0.385031 0.0175763 -0.922736
-0.165451 -0.0794049 0.286382 -0.382258 0.052194 0.92258
0.0371005 -0.250746 -0.263126 -0.387213 -0.0132027 0.921896
0.168467 -0.206009 -0.294225 0.416995 -0.0956959 -0.903857
-0.338677 -0.108916 -0.526136 0.491657 -0.848399 0.196194
-0.00838545 0.163896 -0.185802 0.532184 -0.832004 0.156684
-0.0165936 -0.00370796 -0.281039 -0.353725 -0.175119 0.91881
0.0506996 -0.0955616 -0.334692 0.391576 0.00342894 -0.920139
-0.461802 -0.100631 -0.136397 0.546895 -0.824629 0.144543
-0.203904 0.100773 0.0823776 0.48298 -0.850833 0.206914
0.245603 0.0515927 0.335603 0.804629 0.453504 0.383284
-0.091925 0.202137 0.236468 0.528994 -0.831795 0.168175
0.19705 0.256375 0.115643 0.764672 0.534076 0.360611
0.215982 0.361006 0.106612 0.502156 -0.825145 0.258796
-0.0948216 0.216849 -0.103409 -0.462435 0.829453 -0.313307
0.105479 0.238419 -0.139195 0.34564 -0.885129 0.311577
-0.376128 0.0549444 0.341109 0.451436 -0.839432 0.302589
-0.294399 0.0654842 0.137395 0.334204 -0.901111 0.276236
-0.187515 0.262531 0.382839 -0.480612 0.842899 -0.241936
0.360095 0.0773037 0.0156212 0.761672 0.573106 0.302333
0.410714 0.0370132 -0.178266 0.59786 0.266436 -0.756026
-0.375102 0.0258588 0.245369 0.258798 -0.687884 0.678115
-0.498165 0.0272702 0.14495 -0.552711 0.82979 -0.0771935
-0.154685 -0.00355687 -0.451472 0.599351 -0.67058 -0.437152
0.423381 0.0490416 -0.0682982 0.709107 0.640216 0.29545
-0.116459 0.118895 -0.0732129 0.413974 -0.856889 0.307192
-0.316946 0.065736 0.270406 0.258437 -0.766069 0.588514
-0.0313594 0.293791 0.462025 0.525439 -0.837221 0.151575
-0.208896 -0.0651176 -0.388914 -0.463138 -0.740501 -0.486992
-0.234693 -0.229893 -0.037772 0.104867 0.422642 -0.900209
-0.0583878 0.211195 -0.242187 -0.314328 0.905732 -0.284338
0.182886 -0.153379 -0.284543 0.372853 0.031642 -0.927351
0.224901 0.420328 0.306425 0.894032 0.37726 0.241624
-0.356365 0.0824969 0.393685 0.506131 -0.842264 0.185536
0.267502 0.149773 -0.145646 -0.757855 -0.493061 0.427255
0.39827 -0.0877577 -0.154202 0.447848 -0.855572 0.259669
-0.324818 -0.0283135 0.0281198 0.779939 0.530126 0.332658
-0.229837 -0.12589 -0.245625 -0.769776 -0.553604 -0.317753
0.262268 0.108541 0.198007 0.806496 0.457982 0.373921
0.188074 -0.0684464 -0.268718 -0.673729 0.687348 -0.27137
-0.0182797 -0.284633 -0.256226 0.744733 0.463816 0.479841
-0.416199 0.0227059 0.311591 0.522086 -0.838901 0.153856
0.234459 0.422081 0.282288 0.770749 0.575267 0.273888
-0.0708384 -0.226633 -0.227983 0.77553 0.534903 0.335309
0.10817 0.443933 0.375642 -0.510458 0.840488 -0.181695
-0.292791 -0.0875569 0.0706741 0.786319 0.600214 0.146442
0.342954 0.369717 -0.389108 0.390067 -0.0478971 -0.91954
0.0714326 0.137598 -0.237813 -0.38704 0.0258589 0.9217
-0.172509 -0.30394 -0.0933896 -0.764894 -0.522762 -0.376373
-0.258432 0.110838 0.297476 0.160164 -0.647892 0.744704
-0.150928 0.133919 -0.326085 -0.54608 0.827969 -0.127529
-0.0486997 -0.275781 -0.355447 -0.248468 -0.214656 -0.944556
-0.194243 0.0494022 -0.209114 0.512367 -0.839811 0.179437
0.136322 0.190505 -0.442791 0.509101 -0.841576 0.18046
-0.236799 0.010302 -0.21654 0.752285 0.574809 0.321965
0.385546 0.403436 -0.367189 0.462625 0.18808 -0.866374
-0.269571 0.136509 0.412962 0.497544 -0.837472 0.226034
0.0882284 0.456539 0.498051 -0.441743 0.875709 -0.194928
0.125033 0.199142 -0.383202 0.539238 -0.828628 0.150324
0.313193 0.0388188 -0.0414905 -0.757123 -0.51161 -0.406228
0.0769403 0.42425 0.539852 0.308724 0.408208 0.859102
0.0738239 0.232069 -0.102094 0.517557 -0.83687 0.178276
-0.512914 -0.0718086 -0.191856 -0.672836 -0.666885 -0.320245
0.4013 0.0746321 -0.0713057 0.761786 0.627429 0.161289
-0.0463008 0.0126199 0.281851 -0.534466 -0.827647 -0.171305
0.362355 0.462649 -0.243215 -0.519785 0.835957 -0.176065
-0.193956 0.0547893 -0.58798 -0.549584 0.825072 -0.131202
-0.110572 0.191823 0.220646 0.497938 -0.844557 0.196929
-0.173886 0.105474 0.206831 0.335615 0.0606675 -0.940044
-0.321617 -0.0959081 -0.582032 -0.630001 -0.483742 -0.60753
-0.129526 0.105733 -0.116689 0.577131 -0.804914 0.137964
-0.198486 0.0928254 0.0329234 0.600413 -0.797729 0.0559621
-0.395213 -0.114645 0.142085 -0.831831 -0.55446 0.0251308
0.0680942 0.197829 -0.508643 0.436476 -0.00510805 -0.899702
-0.246583 -0.228924 -0.0371443 -0.714066 -0.580698 -0.391025
-0.0986709 -0.315454 -0.246322 -0.727504 -0.635925 -0.257559
0.147669 0.40674 0.119625 -0.564922 0.814961 -0.129235
-0.022405 -0.337609 -0.174496 0.906684 -0.200693 0.371007
0.365354 -0.0297634 -0.0433861 -0.767838 -0.537802 -0.34813
-0.488333 0.0253434 0.114113 -0.612966 0.788325 -0.0530812
-0.240938 0.183997 0.445185 -0.369368 -0.0364794 0.928567
-0.0382448 0.0724613 -0.495392 0.518523 -0.842793 0.144338
0.1784 0.222878 -0.291224 0.627681 -0.493531 -0.602033
-0.347198 0.0894905 0.0158896 -0.500778 0.844481 -0.189932
0.0099078 0.272472 0.261127 0.460776 -0.848842 0.259139
-0.528983 -0.124449 -0.0764234 -0.738925 -0.579316 -0.344067
0.0842226 -0.129338 0.382784 -0.312392 -0.188935 0.930975
-0.384643 0.0322621 -0.162115 -0.505327 0.838707 -0.203015
-0.26943 -0.224929 0.00221366 -0.793827 -0.538005 -0.283529
0.0666383 0.411757 0.333967 -0.432817 0.859208 -0.272819
0.162625 -0.1443 -0.290824 0.37786 0.0256759 -0.925507
0.074586 0.307247 -0.159944 -0.530495 0.830939 -0.167677
0.0078185 0.265071 0.387834 0.227797 -0.494353 0.838882
0.222221 0.34121 -0.414132 -0.514049 0.842139 -0.162956
0.00183392 -0.0597062 -0.275059 -0.418796 0.0811605 0.904446
-0.14344 -0.25215 -0.238609 -0.789474 -0.410983 -0.455876
-0.0700769 0.123856 0.249153 0.438282 -0.0300343 -0.898335
-0.0550011 0.123109 0.332164 -0.368539 -0.0615584 0.927572
0.193124 0.38399 0.272067 0.494883 -0.845817 0.199208
0.0161567 -0.203576 0.344747 0.181287 -0.69804 0.69273
-0.370317 0.04555 0.281668 0.577186 -0.805716 0.132956
0.316134 0.233151 -0.188629 0.867045 0.338811 -0.365295
-0.0224423 0.342156 0.251193 -0.513056 0.839251 -0.180088
0.255272 0.463666 0.0674212 -0.590687 0.803014 -0.0791016
-0.147858 -0.326911 0.253576 0.511863 -0.856215 0.0699438
0.150887 0.304191 -0.383661 -0.529808 0.834137 -0.153358
-0.00308117 0.138755 -0.537425 0.306674 0.0824028 -0.948241
0.249899 -0.153407 -0.252071 0.291567 0.0567747 -0.954864
0.167643 -0.0805091 -0.278998 -0.451728 0.888536 -0.0802808
0.138285 0.0193028 0.328734 0.051871 -0.152333 -0.986967
-0.250199 -0.105231 0.169673 0.346103 0.0695637 -0.935614
0.100765 -0.0794679 -0.31593 0.372506 0.0320019 -0.927478
-0.14195 -0.154042 -0.180158 0.747994 0.57192 0.336768
0.0150174 0.147741 -0.263091 -0.336872 -0.0532886 0.940041
-0.13648 -0.119218 -0.393802 -0.180319 -0.279704 -0.943001
-0.299826 -0.0348876 -0.00582101 0.843288 0.400803 0.358082
-0.0814561 -0.243969 -0.175607 0.803188 0.514709 0.299939
-0.262565 -0.0885978 -0.0107274 0.788221 0.497236 0.362578
0.284855 0.114187 0.0518057 -0.473247 0.0925023 0.87606
0.247648 0.0187566 -0.25046 0.411242 -0.00467337 -0.911514
-0.269241 -0.314665 0.153737 -0.857916 -0.416095 -0.301406
0.0573537 0.199342 -0.196445 0.505018 -0.839889 0.198857
0.0304493 -0.193521 0.285136 0.502316 -0.108406 -0.857862
0.309628 0.422663 -0.277646 -0.495951 0.837564 -0.229171
-0.0419294 0.0810439 -0.454987 0.542207 -0.839995 0.020486
0.217067 0.250233 -0.446684 0.42619 -0.0413285 -0.903689
0.19537 0.395492 -0.0945979 -0.562707 0.825625 -0.0412874
-0.290834 -0.0817854 -0.613992 -0.403314 -0.511367 -0.758842
0.189191 0.379646 0.242302 0.500225 -0.837502 0.219924
-0.119297 0.0255484 -0.462757 0.680256 -0.715513 -0.159036
0.31801 -0.00518636 0.0273642 -0.814134 -0.46836 -0.343256
-0.00962954 0.213145 0.0395036 0.50383 -0.841237 0.196151
0.411379 0.420702 -0.347376 0.634228 0.329811 -0.699271
0.340582 0.432076 -0.327461 -0.470237 0.837626 -0.277958
-0.165593 -0.352797 0.179254 0.908663 -0.41388 0.0550864
-0.0542026 -0.0134696 -0.298008 -0.365718 -0.0801452 0.927269
-0.119482 0.09767 -0.16003 0.38129 -0.836785 0.392949
0.148703 -0.25594 -0.298339 0.581149 -0.413198 -0.701094
-0.581373 -0.108089 0.169054 0.549286 -0.82453 0.135773
-0.487462 -0.000967886 0.0040317 -0.515396 0.838472 -0.177007
0.173836 0.436496 0.376585 0.725184 0.525334 0.445121
-0.395582 -0.0545417 -0.498203 -0.764414 -0.465985 -0.445566
0.0384103 0.244497 0.0839398 0.640754 -0.762247 0.0917314
-0.383697 0.112453 0.213646 -0.526346 0.833043 -0.170294
0.210072 0.117101 -0.263316 0.40442 -0.00710368 -0.914546
0.0701583 -0.130838 0.299556 0.364955 0.0620034 -0.928958
0.128597 0.355873 -0.0931251 -0.640034 0.767434 -0.03742
0.425072 -0.0354899 -0.184785 0.273965 0.0558176 -0.960118
-0.13407 0.0172317 -0.459999 0.64508 -0.721192 -0.252495
-0.349808 0.126566 0.175937 -0.500457 0.838931 -0.213863
-0.013063 0.196407 -0.0232146 0.516705 -0.838247 0.174237
0.0645088 0.0156092 0.379782 -0.395686 -0.00964899 0.918335
0.22278 -0.00421307 0.417718 0.387383 0.341429 0.856365
-0.23053 0.043067 -0.10995 0.511652 -0.846984 0.144325
-0.0982172 0.219366 -0.0975551 -0.546829 0.82726 -0.128917
-0.0470995 0.351407 0.386013 -0.5244 0.84338 -0.117106
0.222183 0.340697 0.0394554 0.833035 -0.477084 0.280078
-0.28311 0.0612182 0.104102 0.543099 -0.824912 0.156729
-0.422733 0.112482 0.325592 -0.536716 0.83365 -0.130243
-0.401764 0.123474 0.343682 -0.499215 0.841681 -0.205809
-0.188267 -0.275827 0.178666 0.679448 0.510043 -0.527452
-0.317771 0.192973 0.418665 -0.374097 -0.0296828 0.926915
-0.0920354 0.0425053 -0.507645 0.44576 -0.869537 0.212611
-0.380729 -0.0737384 0.000878796 -0.456296 -0.851311 -0.258967
0.318141 0.384369 -0.398769 0.352233 0.155778 -0.922857
0.036052 0.220367 -0.461683 -0.591604 0.7981 -0.114202
-0.410397 0.0438776 -0.0300746 -0.523876 0.846983 -0.0904072
-0.283753 -0.287632 0.138146 -0.766105 -0.558827 -0.317482
0.167659 0.458561 0.373069 0.785983 0.546388 0.289294
-0.0861825 0.157654 -0.400241 -0.493649 0.823621 -0.279212
-0.160223 0.145586 0.147073 0.50534 -0.842104 0.188395
0.178353 0.43428 0.122084 -0.491439 0.847968 -0.198589
0.296597 -0.021411 0.322994 0.802754 0.502367 0.321268
-0.266612 0.109982 -0.12116 -0.46786 0.802253 -0.370807
-0.235399 -0.118894 -0.253316 -0.775017 -0.570005 -0.27284
0.408676 0.0472646 -0.17692 0.634102 0.307273 -0.709576
0.0481718 -0.199181 0.313017 0.519393 -0.843541 0.136637
0.0926411 -0.290171 -0.253609 0.189659 -0.695435 0.693109
0.0252698 0.40083 0.553151 -0.0990377 0.25529 0.961779
0.185975 -0.0235174 -0.227436 -0.924799 -0.189291 -0.330025
-0.331684 -0.163453 0.0432499 -0.885955 -0.405573 -0.224931
0.007665 0.0776027 -0.26438 -0.375295 -0.0472815 0.925699
-0.393456 -0.0619061 -0.0402992 -0.0142203 -0.953713 -0.300382
-0.0227638 -0.307743 -0.209601 0.776469 0.537818 0.328401
-0.396552 -0.0374367 0.195502 -0.118135 -0.504855 0.855082
-0.173144 -0.248674 -0.180627 -0.771549 -0.561324 -0.299377
-0.00989779 0.24631 0.208313 0.426662 -0.858428 0.284711
0.349063 0.393238 -0.122496 0.511041 -0.841207 0.176658
-0.390946 -0.115663 0.12071 -0.754669 -0.65334 -0.0601776
-0.49378 0.0214226 0.0945634 -0.484521 0.842837 -0.234234
0.295075 0.369676 -0.0467788 0.359456 -0.905092 0.227157
-0.122163 0.154611 0.319652 -0.141194 -0.374411 0.91645
-0.249121 0.0668792 -0.351942 -0.626263 0.778414 -0.0431979
-0.000738271 0.160961 -0.204374 0.521927 -0.836111 0.16885
0.348843 0.0938225 0.0200729 0.787062 0.503253 0.356749
0.160033 0.395545 0.425574 0.487921 -0.847127 0.210497
-0.0363658 0.193453 0.0573667 0.510765 -0.841377 0.176646
-0.374209 -0.0192615 -0.406618 -0.515208 0.837516 -0.182011
-0.261572 0.110851 0.297641 0.33362 -0.779161 0.530665
-0.193365 0.135571 -0.194932 -0.524987 0.843994 -0.109831
-0.0838349 -0.125445 -0.3053 0.0532126 0.348626 0.93575
0.224781 0.134112 0.0323118 0.0679109 -0.613747 0.786576
0.0949163 0.293223 -0.288316 -0.492944 0.843392 -0.213766
-0.335444 0.0957362 0.396113 0.510092 -0.842851 0.171491
0.116263 0.352979 -0.0656071 -0.533775 0.832734 -0.147102
0.17332 0.262355 -0.068596 -0.787864 -0.51395 -0.339302
-0.323789 -0.0754697 0.220121 -0.361173 -0.0825166 0.928841
-0.0430927 0.0819052 -0.417023 0.60046 -0.787071 -0.141303
-0.144175 0.0159759 -0.471785 0.586007 -0.78937 -0.183005
0.33213 0.0421318 -0.074701 -0.693288 -0.600005 -0.39918
-0.398837 -0.111662 -0.357997 0.471111 -0.858996 0.200451
0.206148 0.437458 0.0503097 -0.697314 0.716706 0.00925964
-0.172265 -0.0140495 -0.613178 0.377548 0.0291337 -0.925532
0.166019 0.369371 -0.119913 -0.482811 0.839228 -0.25018
-0.0978535 0.170968 -0.314105 -0.478302 0.846812 -0.232673
0.148733 0.467039 0.382133 -0.612279 0.787269 -0.07295
0.147249 0.209537 -0.475972 0.395295 0.001454 -0.918553
-0.351088 0.0905086 0.030269 -0.536313 0.831662 -0.143899
-0.168357 -0.083291 -0.400607 -0.387117 -0.178061 -0.904674
-0.12448 0.280936 0.269547 -0.371042 0.903247 -0.215574
-0.255305 -0.0524329 -0.373626 -0.300071 -0.950913 0.075636
-0.143004 -0.291578 0.0520094 0.790885 0.513357 0.333115
-0.342157 0.0156628 -0.346691 -0.497396 0.845404 -0.194653
-0.263902 -0.316299 0.141182 -0.752316 -0.540677 -0.376416
-0.125017 -0.358282 0.045104 0.511051 -0.815879 0.270497
-0.116469 -0.194042 0.219607 0.442039 -0.121957 -0.888666
0.464598 -0.00618288 -0.10334 0.841558 0.515781 0.160466
0.255443 0.159203 -0.0964703 -0.766245 -0.600215 -0.22937
0.217394 0.295386 -0.44251 0.402632 -0.096154 -0.910298
-0.0120547 -0.20676 -0.365054 0.239859 0.209166 -0.948007
-0.0821245 0.160639 -0.390423 -0.446937 0.867209 -0.219534
-0.209895 -0.0346471 -0.21929 0.71078 0.605846 0.357411
-0.00245658 0.122982 -0.270814 -0.379847 -0.0165828 0.9249
-0.0496506 -0.0867285 0.290203 -0.685864 0.703136 -0.18759
0.105888 -0.177609 -0.314876 0.389682 -0.0229452 -0.920663
-0.270877 -0.108203 0.0468933 0.789797 0.46055 0.40511
-0.04857 -0.0827398 -0.296829 -0.376443 -0.0268261 0.926051
-0.0525406 -0.0420348 -0.297222 -0.36601 -0.147856 0.91879
0.365515 0.393679 -0.151831 0.425808 -0.828882 0.362825
-0.0154876 0.0946201 -0.542329 0.309165 0.0760336 -0.947964
-0.0497053 0.175187 -0.014054 0.509569 -0.841342 0.180233
-0.464586 -0.0244165 0.229503 0.461549 -0.853246 0.242783
-0.194009 0.0965505 0.0292265 0.494388 -0.83887 0.227764
-0.11577 0.247451 0.485732 0.477108 -0.843273 0.247506
-0.493724 -0.0913629 -0.000665297 0.519734 -0.838287 0.164778
-0.284408 0.129679 0.0189526 -0.528346 0.836073 -0.147756
-0.245916 0.0468931 -0.468837 -0.537724 0.83934 -0.0797598
0.115313 0.426799 0.272527 -0.516654 0.84132 -0.158899
0.273003 0.283753 -0.244331 0.80806 -0.29122 -0.512083
-0.34036 0.149349 0.405588 -0.318557 -0.0718014 0.94518
-0.41406 -0.0116426 -0.260762 -0.580467 0.814281 -0.00225509
-0.0697314 -0.264118 -0.158045 0.747897 0.60281 0.277974
-0.103754 -0.0469121 -0.317644 -0.219677 -0.098357 0.970602
-0.334154 0.161154 0.302006 -0.497391 0.835381 -0.233968
0.317983 0.430887 -0.266981 -0.469335 0.834489 -0.288709
-0.129536 -0.252251 0.294624 -0.370189 -0.0374179 0.928203
0.365803 -0.0615519 0.0829942 0.50727 -0.841546 0.185683
0.372549 0.481483 -0.143204 0.781467 0.510563 0.358658
0.245166 0.145349 -0.047953 -0.86724 -0.411822 -0.279816
0.393238 0.373913 -0.329114 0.404857 -0.878774 0.25268
0.17224 0.405769 0.0165807 -0.598702 0.794429 -0.102171
-0.166061 -0.310216 -0.0922673 -0.808363 -0.491569 -0.323897
0.309192 -0.0494148 0.117462 -0.786831 -0.471272 -0.398497
-0.368078 -0.0703596 -0.0395815 -0.462891 -0.859909 -0.215147
-0.0786947 0.24422 -0.0228071 -0.536666 0.833257 -0.132935
-0.0811941 0.17254 0.0596962 0.514784 -0.844581 0.147246
0.134366 -0.0863529 0.409356 -0.396914 0.0107933 0.917792
0.00212321 -0.262118 -0.36003 0.305817 -0.105104 -0.946271
-0.042003 -0.0537017 0.335678 -0.444531 0.0566591 0.89397
-0.0966494 -0.122539 0.311202 -0.356946 -0.0466865 0.932958
-0.473725 0.0524574 0.198608 -0.546356 0.819585 -0.172558
0.303962 0.402012 0.0415624 0.484107 -0.848008 0.215691
-0.253134 -0.0415104 0.167757 0.435053 -0.00852068 -0.900364
0.378726 0.101143 -0.181131 0.729515 0.231012 -0.643771
-0.276847 -0.0534671 -0.413362 0.256639 -0.958872 0.121249
-0.163733 -0.0124472 0.203265 0.381259 0.0110436 -0.924402
-0.229868 0.0177759 -0.230762 0.512369 -0.841547 0.171107
0.199519 0.0931745 0.371926 0.704485 0.532321 0.469399
-0.307478 0.00406491 -0.0445861 0.738176 0.567041 0.36546
0.0769464 0.430144 0.398319 -0.449596 0.85349 -0.263474
-0.0663272 0.137547 -0.138522 0.405501 -0.881081 0.243445
0.190041 0.426621 0.378668 0.785313 0.454305 0.420583
-0.147376 -0.120185 -0.386453 -0.332508 -0.343028 -0.878505
0.334935 0.114943 -0.216849 0.384535 0.047712 -0.921877
0.144759 -0.0325748 0.411265 -0.527466 0.140613 0.837859
0.0384415 0.193955 0.290597 0.0427469 -0.211845 -0.976368
-0.315733 -0.0577007 0.220429 -0.400182 0.0263733 0.916056
0.156046 -0.181641 -0.213608 -0.338046 -0.190047 0.921742
0.400132 0.103595 -0.115336 0.83731 0.521894 0.162905
0.251342 0.16427 -0.0985267 -0.827722 -0.468824 -0.308353
0.0378639 0.209433 -0.103071 0.60958 -0.792516 -0.0181569
0.416984 -0.0498868 -0.18658 0.354264 0.143767 -0.924028
-0.329068 0.0131664 0.140115 0.335765 0.0973157 -0.936905
0.0791681 -0.166759 0.363026 0.250065 -0.773036 0.582995
-0.18804 0.0571786 -0.558901 -0.55473 0.817884 -0.152774
-0.327122 0.0577392 -0.193863 -0.541579 0.8294 -0.137066
-0.4446 -0.0951102 -0.169141 0.467024 -0.863652 0.189723
-0.0185443 -0.160567 0.344213 -0.380546 -0.0217404 0.924507
-0.581402 -0.081307 0.289602 0.493355 -0.848998 0.189217
0.0854551 0.42215 0.330123 -0.464527 0.85428 -0.233283
0.207123 0.321807 -0.445329 0.28236 0.115092 -0.95238
-0.0635719 0.338324 0.374124 -0.481534 0.846636 -0.226566
0.134288 0.162272 0.187714 -0.795032 -0.52279 -0.307597
-0.117138 -0.3768 -0.0238284 0.460488 -0.835799 0.298984
-0.175171 -0.356297 0.21154 0.460242 -0.849987 0.256319
-0.489525 -0.101029 -0.0645083 0.49988 -0.842233 0.201899
-0.175525 -0.34723 0.242654 0.579094 -0.805624 0.124978
-0.0870831 -0.0268035 -0.386289 0.437194 -0.0116215 -0.899292
0.22677 0.462577 0.229258 0.78561 0.521563 0.332849
0.128123 0.199773 0.139654 -0.788854 -0.502712 -0.353538
0.146586 -0.129443 0.340825 0.642416 -0.667985 -0.37563
-0.328058 -0.0596974 -0.196668 -0.156982 -0.983978 0.0845175
