ply
format ascii 1.0
comment Created by Open3D
element vertex 512
property double x
property double y
property double z
property double nx
property double ny
property double nz
end_header
0.0288337 0.231419 -0.0546645 -0.81221 -0.415124 0.409862
0.15345 -0.407849 0.217379 0.223807 -0.551899 0.803316
0.21005 -0.26608 0.274049 0.96206 -0.00913005 -0.272684
0.185101 -0.0950137 0.422608 0.234579 -0.612638 0.75475
-0.118115 -0.383379 0.0713467 -0.964258 0.0335662 0.262831
-0.0888224 -0.364355 -0.288986 -0.253926 -0.420735 -0.870921
-0.204506 -0.0161401 -0.247721 -0.967308 0.0248082 0.252389
0.0172097 0.428663 0.0911975 -0.0423962 0.997324 0.0595566
0.108351 -0.122381 0.424045 0.205112 -0.544807 0.81309
0.128525 0.358276 -0.0325129 0.977196 -0.0582395 -0.204198
0.170184 0.142502 0.142221 0.507702 -0.495391 -0.704859
0.0270515 -0.0334952 -0.37512 0.962584 -0.0274725 -0.269586
0.0616735 -0.222089 -0.0830606 0.875566 0.480448 -0.0505328
-0.10564 0.23954 0.0990512 -0.966647 0.0499549 0.251195
0.0345018 0.41516 -0.263637 0.760674 0.446672 -0.471019
-0.0459802 -0.220976 -0.375686 -0.251887 -0.462163 -0.85027
-0.0530175 0.422449 0.231608 0.0247163 0.989912 0.139508
-0.000146569 -0.227275 0.0633842 -0.885048 0.465031 0.0208855
0.0834134 -0.441825 0.0859778 -0.0428524 -0.999009 0.0120579
-0.15111 0.137577 -0.0914939 0.903293 -0.428322 0.0245544
-0.00283931 0.0416583 0.2287 0.746151 -0.0987754 -0.658408
-0.0304428 0.292919 0.35718 -0.962214 0.0125541 0.272006
-0.210516 -0.0147891 -0.26863 -0.957208 -0.014407 0.289041
-0.0353797 -0.19998 0.351281 -0.956945 0.00270243 0.290258
0.0570657 -0.125204 -0.225298 -0.725791 0.345045 0.595123
0.117143 0.422902 0.140831 0.0447332 0.998358 0.0357815
-0.00100392 -0.0792289 0.473069 -0.965992 0.079948 0.245902
0.113664 -0.035542 0.206051 0.711368 0.100648 -0.695575
0.0260232 -0.335943 -0.321212 0.726946 -0.359999 -0.584766
0.169263 -0.224443 0.131988 0.963715 -0.0130958 -0.266613
-0.0042777 -0.139487 0.444104 0.194992 -0.533704 0.822884
0.0366987 0.0467271 -0.219137 0.961827 -0.184908 0.201735
-0.180281 -0.388946 -0.150217 -0.95749 -0.0910185 0.273732
0.178024 0.164634 0.147451 0.961406 -0.00911277 -0.274984
0.0833031 -0.26912 -0.173283 0.95985 0.00784925 -0.280403
0.0591506 0.0281362 0.470782 0.251617 0.480764 0.839973
0.197679 0.13464 0.220761 0.950465 0.00336508 -0.310815
0.186434 0.092509 0.401755 0.288051 0.456784 0.84165
-0.0624056 0.362001 0.239701 -0.969572 0.0292279 0.243056
-0.144211 -0.277771 -0.0266891 -0.956574 -0.00986373 0.291324
0.0421161 0.00280281 0.179379 -0.954714 -0.0573799 -0.291939
-0.0797007 -0.113146 -0.119989 0.953036 0.226803 0.200708
0.0355914 0.241323 -0.355105 0.93863 0.0318522 -0.343453
-0.154411 -0.272891 -0.316117 -0.247057 -0.455502 -0.855266
0.070556 -0.175656 0.0713206 0.803854 0.45816 -0.379352
-0.0182969 0.429831 0.108794 0.0388557 0.998346 0.0423778
0.102592 0.33177 -0.119471 0.961471 -0.00617096 -0.274836
0.15746 -0.0646222 0.451696 0.209901 -0.549562 0.808655
0.175994 -0.347219 0.163949 0.937563 0.0785674 -0.338826
0.150658 -0.141082 0.398506 0.176747 -0.556154 0.812067
-0.035787 -0.444485 0.193824 -0.028249 -0.998556 -0.0456889
0.111774 0.242604 0.346135 0.249955 0.479909 0.840958
-0.0812907 -0.26719 0.197254 -0.957366 0.00291061 0.288862
0.114315 0.384721 0.271375 0.246899 0.450358 0.858031
-0.0584977 -0.435726 0.0403541 0.0385632 -0.996627 -0.0724357
-0.175224 0.242553 -0.325152 -0.188438 0.53861 -0.821213
-0.18149 0.126406 -0.170164 -0.960928 -0.00445476 0.276762
-0.0847448 0.398077 -0.243512 -0.192151 0.521361 -0.831421
-0.0203428 0.432947 0.0534117 -0.0189083 0.985537 0.168404
-0.238036 0.0744811 -0.371712 -0.959394 -0.0207401 0.281307
0.122934 0.0199972 0.211943 -0.279023 -0.0737562 -0.957448
0.0397444 -0.168484 -0.150464 0.938868 0.32574 0.111443
0.0174687 0.283408 -0.347899 -0.257518 0.585831 -0.768431
-0.126214 0.171051 0.0142446 -0.705134 -0.656462 0.268038
0.154145 -0.364416 0.0829402 0.969111 -0.0187907 -0.245909
-0.0711577 -0.153868 0.139974 -0.934411 0.351661 -0.0566609
0.105672 0.132306 0.176453 -0.231675 -0.549809 -0.802519
0.051151 -0.186958 -0.277286 0.947439 0.0362018 -0.317883
-0.0563673 -0.0647427 0.279968 -0.96589 0.0808751 0.246
0.191136 0.152395 0.368935 0.216039 0.45657 0.863059
-0.0782128 -0.0893419 -0.152681 0.963708 0.128168 0.234179
0.111058 0.418742 0.246059 0.0287623 0.998342 0.0498566
-0.135419 0.0493533 -0.186689 -0.670293 -0.0617188 0.739526
0.0592945 -0.0400976 0.493343 0.19924 -0.533464 0.822022
0.178305 -0.11737 0.410026 0.275868 -0.555288 0.784571
-0.207143 0.0317758 -0.254936 -0.955248 -0.0195203 0.295162
0.00627365 -0.284268 0.3421 0.266799 -0.564551 0.781089
-0.02158 0.0918368 0.203304 0.70271 -0.176349 -0.689275
-0.205389 0.308427 -0.27011 -0.207035 0.534986 -0.819101
0.0657032 -0.252629 -0.236905 0.944775 0.0408406 -0.325164
0.146629 0.357723 0.0277622 0.961714 -0.00829344 -0.27393
0.162622 0.35593 0.0887259 0.97394 -0.0144271 -0.226346
0.159763 -0.162897 0.125432 0.554202 0.463846 -0.691164
-0.191958 -0.309468 -0.285366 -0.25961 -0.428545 -0.86542
0.201474 0.167034 0.235279 0.964213 -0.0759966 -0.254005
-0.189476 0.181591 -0.199864 -0.965082 0.0939267 0.244527
-0.0207512 -0.420725 -0.216239 0.0312944 -0.992395 -0.119052
-0.0141069 0.17445 0.418425 0.256537 0.420024 0.870499
-0.108873 -0.206464 -0.0114222 -0.817095 0.525479 0.237125
0.223459 0.0277472 0.317052 0.966163 -0.0164966 -0.257403
-0.135621 0.442706 -0.108552 0.0579436 0.997062 0.0501012
0.127615 0.296904 0.310839 0.234104 0.480263 0.845306
-0.192113 -0.0725917 -0.205261 -0.96157 0.00502519 0.274515
0.0690871 0.154897 0.403895 0.227915 0.454718 0.86098
0.0247764 0.344435 0.31777 0.32273 0.347718 0.880306
0.195172 0.257912 0.205167 0.962622 -0.0112514 -0.270615
-0.129498 0.450478 -0.183065 -0.000807945 0.998339 0.0576026
-0.0676232 0.0936457 -0.453881 -0.240838 0.547931 -0.801105
0.207158 0.246713 0.315949 0.248547 0.443191 0.861281
-0.118637 0.172862 0.0475293 -0.643053 -0.746762 0.169793
0.0153103 0.13672 0.108275 -0.918831 -0.394617 0.00516983
0.0282685 -0.172161 0.0947151 -0.905198 0.416108 -0.0864286
0.0543888 0.327213 0.318999 0.255271 0.472664 0.843461
-0.194155 0.0904085 -0.212487 -0.965378 0.0727861 0.250494
-0.10005 -0.0855226 -0.123958 0.309254 0.504178 0.806329
-0.0566526 0.133227 -0.0909234 0.0818502 -0.771414 0.631047
-0.0319718 -0.0940398 0.169727 0.7405 0.280546 -0.610699
0.0935763 0.0754572 0.187622 0.719111 -0.17584 -0.67228
-0.0943762 -0.419085 -0.2259 -0.0227149 -0.998256 -0.0544814
-0.092681 0.386235 0.130955 -0.98006 0.0375459 0.195123
-0.023485 0.195972 0.386582 -0.963748 0.0334109 0.264713
0.113893 -0.293908 -0.0610884 0.944583 0.0680431 -0.321144
0.119823 -0.439749 0.0523785 -0.0253684 -0.997053 -0.072395
-0.0536931 0.445138 -0.194013 0.0382799 0.998332 0.0432122
-0.0101737 -0.42415 -0.174908 -0.0271519 -0.999604 0.00744334
-0.252278 -0.0302435 -0.41339 -0.968082 0.0339929 0.248318
-0.0905512 0.0782905 -0.14181 -0.677839 -0.200819 0.707252
-0.0818859 0.215135 -0.0562981 -0.75112 -0.480928 0.452246
0.19556 -0.273952 0.297474 0.207166 -0.549455 0.809433
-0.24789 -0.0369048 -0.396567 -0.977332 0.0229496 0.210467
-0.156931 0.120462 -0.112635 0.926079 -0.367581 0.0852119
-0.000932196 -0.445536 0.200269 -0.0399095 -0.998505 -0.037348
0.101353 -0.0584072 0.188007 0.74864 0.130669 -0.649973
0.102344 0.0658927 0.196688 0.68437 -0.0259977 -0.728671
0.19552 -0.205726 0.225868 0.962666 -0.0165337 -0.270185
0.0770624 -0.228682 -0.0961769 -0.801101 0.5106 0.312291
0.0622796 0.184597 -0.0426166 -0.79477 -0.475768 0.376809
0.0525609 0.198525 0.0886543 0.762045 -0.443401 -0.471892
0.166538 0.293999 0.106885 0.967395 -0.0474656 -0.248785
0.104437 0.315021 -0.121788 0.962705 -0.0105454 -0.270348
0.0312291 0.110444 0.437048 0.253292 0.408651 0.87684
-0.0242538 0.0285785 0.384983 -0.960224 0.00327161 0.27921
-0.0591087 -0.267575 0.27749 -0.970426 0.0374134 0.238482
-0.199893 -0.32083 -0.279722 -0.247686 -0.452491 -0.856682
0.0582764 0.212035 -0.275701 0.965404 -0.022153 -0.259816
0.00412893 0.00344748 0.486604 -0.974302 0.0969852 0.203298
-0.172753 -0.414329 -0.120308 -0.964488 0.0227783 0.263141
0.161962 -0.203109 0.351668 0.209779 -0.545968 0.811118
-0.204176 -0.344686 -0.237838 -0.950257 -0.0286935 0.310143
0.134473 -0.0678604 0.197825 -0.967624 0.0871732 -0.236864
0.100762 -0.29316 -0.109997 0.963763 -0.0945111 -0.249457
0.114529 0.350729 0.289722 0.214225 0.427551 0.878241
-0.0597481 -0.0218165 0.202647 -0.968397 -0.0222371 -0.24842
0.145599 -0.270774 0.312594 0.205141 -0.538662 0.817166
0.194551 -0.289649 0.226416 0.933321 0.0447435 -0.356245
-0.0823032 -0.428276 0.192858 -0.963672 0.0360995 0.264639
0.00258797 0.0445976 -0.184044 -0.693481 -0.0361701 0.719567
-0.178624 -0.420567 -0.14391 -0.965872 0.0194686 0.258288
-0.0281983 -0.435462 0.247509 0.240031 -0.578614 0.779481
-0.0627729 0.228232 -0.00860146 -0.7985 -0.499097 0.336601
0.000669132 -0.165074 0.424913 0.152248 -0.506109 0.848925
-0.100054 -0.260389 0.123749 -0.957465 -0.00702144 0.288463
-0.0836591 0.438449 -0.0568877 0.0974163 0.99512 -0.0156748
-0.0791012 -0.167832 0.0086137 0.0867753 0.99615 -0.0124922
0.0492123 -0.103697 -0.294864 0.96023 -0.0638101 -0.271821
0.00931124 -0.273012 -0.364459 -0.248696 -0.447331 -0.859096
-0.0318897 0.397027 0.309394 0.209656 0.459798 0.862919
-0.091583 0.431861 0.0886017 0.0776051 0.9955 0.0543746
0.219444 -0.171037 0.307596 0.967938 -0.0455609 -0.247024
-0.125098 -0.267853 0.0442604 -0.966519 0.0218363 0.255664
-0.0252692 -0.352333 0.303448 0.178805 -0.533774 0.826507
-0.113536 -0.347787 0.0891899 -0.978616 0.0424119 0.201278
0.0711768 0.422502 0.164387 -0.0146746 0.996565 0.0815087
-0.211975 -0.0909748 -0.280341 -0.96211 0.0132838 0.272339
-0.164599 0.265712 -0.111764 -0.916642 0.00775327 0.399634
0.0302941 0.176653 -0.375096 0.956202 0.00752133 -0.292612
0.114101 -0.432263 -0.0515151 0.957398 0.0119691 -0.288524
0.0105788 0.141306 0.143465 -0.930422 -0.354198 -0.0941221
0.224152 -0.195342 0.321438 0.979362 -0.0268399 -0.200322
-0.220138 -0.118403 -0.303832 -0.96043 0.00543843 0.278469
-0.0472513 0.35767 -0.281356 -0.311532 0.542504 -0.780152
-0.134052 -0.419913 -0.188969 -0.111917 -0.993576 0.0167967
0.106939 0.43401 -0.0612368 0.021148 0.995262 0.0949056
-0.0921647 0.216694 0.0139346 0.805361 -0.475699 -0.353699
-0.0363741 0.099203 0.347862 -0.96129 -0.000209897 0.275538
0.190078 0.195768 0.189466 0.956162 -0.00552106 -0.292785
0.0978885 -0.0503056 0.474802 0.157318 -0.543888 0.82428
0.0482038 -0.155316 -0.204518 0.215798 0.631972 0.74434
-0.198162 -0.240982 -0.21663 -0.958826 -0.00378119 0.28397
-0.0587091 0.108056 -0.141195 0.925115 -0.365268 0.103637
0.0689238 0.427672 0.0810207 0.0459494 0.998744 0.0199706
0.0572055 -0.067234 -0.249605 0.864803 0.250874 0.434946
0.168046 0.341658 0.106246 0.954359 0.0093157 -0.298516
0.0636703 0.109195 0.148229 0.707122 -0.190371 -0.680982
-0.169954 -0.175612 -0.362333 -0.255851 -0.410175 -0.875384
-0.153943 0.427696 -0.0780081 -0.971789 0.0227014 0.234756
-0.17725 0.369064 -0.238412 -0.191225 0.536925 -0.821672
0.0549116 0.233455 0.366312 0.253616 0.448525 0.857032
-0.0872782 -0.150456 -0.398444 -0.258567 -0.428471 -0.865769
-0.036552 -0.239645 -0.369056 -0.245679 -0.452236 -0.857394
-0.0621155 -0.0160573 -0.477599 -0.244062 -0.447698 -0.860233
-0.172904 0.0304707 -0.165868 0.947682 -0.191973 0.255039
0.0556807 -0.227804 -0.265922 0.962579 -0.0322313 -0.269079
0.179947 -0.229221 0.165862 0.941885 0.0107782 -0.335761
0.0563684 0.161368 -0.285425 0.97384 -0.0284326 -0.22545
-0.138471 -0.189269 -0.0983232 -0.765534 0.431152 0.477562
-0.18025 -0.0932398 -0.155342 -0.963913 0.0436241 0.262619
-0.104508 -0.294901 0.122105 -0.960101 -0.0251851 0.278518
-0.0221261 -0.139227 0.151948 0.735503 0.412655 -0.537356
0.0641899 -0.106535 0.118727 0.676255 0.463142 -0.572869
-0.226521 0.141432 -0.333616 -0.927026 -0.0540399 0.371082
0.0396819 0.136287 -0.142344 0.864195 -0.447378 0.23026
0.170584 -0.150191 0.14278 0.56027 0.418728 -0.714678
-0.194361 0.31709 -0.267131 -0.285843 0.590537 -0.754692
0.208355 -0.0117599 0.262971 0.966321 -0.0209427 -0.256488
0.074055 -0.386606 0.251497 0.25043 -0.558304 0.790937
0.0183632 0.107981 -0.157452 -0.689202 -0.247557 0.680968
0.0777819 -0.0427797 0.170339 0.733287 0.0740895 -0.67587
0.179146 0.220369 0.337931 0.320144 0.441592 0.838155
0.207547 0.311043 0.25225 0.92956 0.358826 0.0846231
0.15459 0.241997 0.0590645 0.962804 -0.0413415 -0.267019
0.178799 -0.296834 0.162943 0.966449 -0.0590471 -0.249978
-0.00882244 0.0597968 -0.463479 0.727617 0.0126491 -0.685867
-0.134955 -0.32255 0.0034898 -0.960339 -0.0118179 0.278585
-0.193449 0.13974 -0.212781 -0.957882 0.00696196 0.287076
-0.0609633 0.281294 -0.329491 -0.172198 0.498701 -0.849497
-0.187382 -0.408861 -0.176893 -0.975388 0.0879867 0.20218
-0.0764731 0.0388125 -0.149957 0.941592 -0.240406 0.235818
-0.00391635 -0.230761 0.0556787 -0.880757 0.466686 0.0804489
-0.230937 -0.0869286 -0.341291 -0.958456 0.00522811 0.285193
-0.0216369 -0.160334 0.401938 -0.963171 0.0167233 0.268369
0.034399 0.433345 -0.0210436 0.0183438 0.998112 0.0586183
-0.187839 -0.385477 -0.174215 -0.961155 0.00117655 0.276007
0.101846 0.421419 0.176823 0.0227485 0.9905 0.135621
0.160579 -0.207805 0.101103 0.982789 -0.0483871 -0.178285
-0.162929 -0.363389 -0.0910989 -0.960636 -0.0104362 0.277614
0.21396 0.2313 0.321289 0.231585 0.433875 0.870701
-0.11206 -0.163064 -0.0794215 -0.786359 0.444255 0.429275
-0.0162207 -0.221118 -0.383336 -0.249758 -0.461822 -0.851083
0.112487 -0.394339 -0.0669088 0.959554 0.0174314 -0.280984
-0.0431639 0.0500935 0.317492 -0.972075 0.0551174 0.228108
-0.124038 0.373237 -0.249394 -0.236813 0.551781 -0.799661
0.02572 0.188483 -0.386994 0.972712 -0.0457943 -0.227453
0.028581 0.0512305 -0.197986 0.928312 -0.140696 0.344154
0.0890015 -0.117008 0.434265 0.231088 -0.554425 0.799507
0.0521406 0.418463 0.26621 0.0736107 0.99631 0.0441254
0.215518 0.265533 0.302298 0.947529 0.283155 0.148363
-0.10094 -0.16026 -0.393173 -0.241651 -0.488135 -0.838647
-3.31134e-05 0.396574 -0.267161 -0.215678 0.549808 -0.806966
-0.0813325 -0.431386 -0.00560412 -0.0110492 -0.998131 -0.0601095
0.234795 -0.038187 0.347898 0.96039 -0.0032358 -0.278641
0.172329 -0.395634 0.166584 0.903251 -0.427027 -0.0422625
0.00746824 -0.433694 -0.00765633 -0.0234651 -0.998024 -0.0582936
0.113389 -0.20615 0.095532 -0.129874 0.858675 -0.495792
-0.102036 -0.421002 -0.192954 -0.0251196 -0.998037 -0.0573721
0.0974993 0.425204 0.104025 0.0314811 0.999088 0.0288454
-0.0440997 -0.438042 0.125266 -0.0111964 -0.996361 -0.0844939
-0.0817024 0.440326 -0.0779146 0.0272664 0.993427 0.111177
0.0690367 -0.234299 -0.220764 0.955712 0.00992618 -0.294136
0.0219839 -0.12403 -0.392951 0.975522 -0.0490147 -0.214371
-0.0176683 -0.426837 -0.137928 0.0110242 -0.993439 -0.113828
-0.111242 0.21008 -0.0576694 0.850704 -0.522868 -0.0539647
-0.0364707 0.158525 -0.101987 0.878174 -0.477618 -0.0263101
-0.0430098 -0.217972 -0.0874016 0.173806 0.935245 0.308397
0.179214 0.384835 0.181498 0.906274 0.421127 0.0363327
-0.143837 0.152329 -0.106215 0.898569 -0.431109 0.0819715
0.10229 -0.422324 0.220412 0.252473 -0.54455 0.799827
-0.0573861 -0.0380379 0.194744 -0.972904 0.0440679 -0.226973
0.12823 -0.439181 0.051453 0.0553888 -0.99241 -0.10979
-0.167111 0.112285 -0.12718 -0.964051 0.0481586 0.261317
0.0194308 0.117816 0.154762 -0.932994 -0.350837 -0.0802183
-0.065415 -0.017016 0.241599 -0.958737 -0.0597071 0.277954
-0.0723845 0.0623464 -0.143591 0.246496 -0.370068 0.895706
0.0986503 0.175299 0.132991 -0.910105 -0.413001 -0.0337493
0.108328 -0.355798 -0.0812586 0.964224 -0.0336406 -0.262946
0.0503546 -0.0868589 -0.293158 0.950669 0.00211719 -0.310201
0.0814861 0.209558 -0.187386 0.958748 0.00194239 -0.284251
0.034427 -0.441889 0.124628 -0.00754811 -0.997674 -0.067741
0.159346 -0.267963 0.102101 0.960715 0.0295319 -0.275961
-0.0813488 -0.164853 0.191922 -0.961993 -0.00587342 0.273012
-0.108796 0.313444 0.0712336 -0.962171 0.0108838 0.272228
-0.0954741 0.0497259 -0.148249 -0.69468 -0.0400414 0.718203
0.00316918 0.423657 0.168314 0.0236381 0.992965 0.116029
-0.0289723 -0.389232 0.279249 0.254952 -0.578053 0.775148
-0.0889021 0.409614 0.147515 -0.959378 0.00249367 0.282111
0.0591062 0.192696 0.0949668 0.747676 -0.412933 -0.520064
0.101112 -0.0556948 0.471575 0.211859 -0.545144 0.811131
-0.157034 0.388012 -0.227686 -0.183228 0.525541 -0.830803
-0.0438648 -0.329339 0.325711 0.181212 -0.525188 0.831469
-0.0616517 0.0494327 0.186221 -0.263457 -0.271746 -0.925605
0.0165427 -0.422171 -0.212089 -0.0555083 -0.998016 -0.0297214
0.0537881 -0.35775 0.280415 0.244684 -0.578724 0.777951
-0.0805908 0.192999 -0.0765848 -0.755451 -0.418546 0.504096
0.0153745 0.433043 0.00725323 -0.0446556 0.990801 0.127747
-0.12813 0.0220431 -0.182747 -0.674279 0.0208888 0.738181
0.0544823 0.0698221 0.450797 0.239754 0.407701 0.881078
-0.106464 0.192726 0.0932643 -0.962595 0.0135937 0.270602
0.0383191 0.026723 -0.245002 0.967207 -0.12437 0.221456
-0.0967959 0.207065 0.125682 -0.961587 -0.000741481 0.274499
-0.19877 -0.0261951 -0.432305 -0.261491 -0.446108 -0.855926
-0.0130704 -0.121986 0.431493 -0.941992 -0.0245684 0.334735
-0.19053 -0.0140578 -0.197847 -0.94573 -0.0240746 0.32406
-0.170794 -0.173081 -0.12276 -0.967824 0.0265761 0.250221
-0.00678401 -0.0927639 0.452149 -0.952858 0.00116909 0.303415
-0.0587511 0.118933 0.155586 0.707758 -0.309023 -0.635282
-0.113092 0.339992 0.059406 -0.966109 0.020665 0.257307
-0.170336 0.176623 -0.130481 -0.961486 0.00268458 0.274839
-0.0828173 0.304251 -0.307379 -0.248885 0.562054 -0.788766
0.194961 -0.0364022 0.211528 0.972115 -0.0606461 -0.226527
0.0634306 0.139664 -0.207905 0.931623 -0.349224 0.100606
0.0373251 0.209228 0.0419505 0.772531 -0.532935 -0.345219
0.201194 0.151206 0.226363 0.965271 -0.0366716 -0.258663
0.048615 -0.435066 -0.0083375 0.00526375 -0.985313 -0.170675
-0.0418012 -0.220984 -0.0300288 0.927913 0.370277 -0.0432721
0.203621 0.20574 0.336854 0.239445 0.452264 0.859141
-0.141014 -0.385598 -0.0165924 -0.970683 0.0402676 0.236966
0.0322226 -0.0877395 0.471054 0.18237 -0.522796 0.832722
-0.0521979 -0.357332 0.301363 -0.955395 -0.00970616 0.295173
-0.133945 0.0763276 -0.183566 -0.700305 -0.0971662 0.7072
0.125046 -0.236297 0.341013 0.235166 -0.552484 0.799662
-0.118403 -0.417162 -0.246047 -0.0228696 -0.997551 -0.0661023
-0.162784 0.0284611 -0.200759 0.297466 -0.134306 0.945239
0.0591568 0.13581 0.134352 0.71985 -0.314013 -0.619041
-0.0969249 -0.00332478 -0.471799 -0.256582 -0.500694 -0.826723
0.170084 -0.173843 0.135705 0.968519 -0.0251376 -0.247666
0.114705 -0.442609 0.152966 -0.0264242 -0.998206 -0.0537194
-0.095981 0.281847 0.122171 -0.951964 -0.0332153 0.304403
0.0778515 -0.249337 -0.184364 0.949143 0.0845648 -0.303276
0.0834054 -0.228531 0.0253303 0.835255 0.480626 -0.26711
0.159652 -0.224437 0.0972368 0.948028 0.0444316 -0.315069
0.0464402 -0.182459 -0.169266 0.939517 0.289559 0.182928
-0.00677433 0.439902 -0.120662 -0.0336559 0.99478 0.0963336
0.0954285 -0.352722 -0.117742 0.972307 -0.0279487 -0.23203
0.0166352 -0.173366 0.163481 -0.193228 0.740278 -0.643935
0.0227362 0.0837231 0.194693 -0.962864 -0.243413 -0.116805
-0.0371276 -0.18909 -0.134755 -0.769346 0.457402 0.445971
0.0540265 -0.434465 -0.0250659 -0.0593563 -0.995864 0.0687816
-0.231978 0.0341318 -0.350125 -0.956002 -0.0234855 0.292419
-0.101704 0.241054 0.102333 -0.975113 0.0322557 0.219348
-0.0158803 0.446308 -0.194649 0.0573003 0.998262 -0.013806
-0.0606814 -0.322236 0.27033 -0.971149 0.0330056 0.236178
0.179239 0.139229 0.150033 0.498804 -0.406956 -0.765233
-0.0234774 0.213646 0.380514 -0.956786 -0.0103306 0.290611
0.178931 -0.192203 0.35663 0.184309 -0.527764 0.829154
-0.0153074 0.152769 0.415723 -0.956909 -0.0100194 0.290214
-0.170637 0.174267 -0.138922 -0.961276 -0.00296078 0.275573
0.0182652 0.42873 -0.249554 -0.257843 0.554923 -0.790934
-0.0171126 0.167851 -0.0100644 0.0214358 -0.997699 0.0643207
-0.0563902 0.442406 -0.111663 0.0493819 0.99811 0.036584
-0.0442714 -0.162743 -0.40591 -0.284367 -0.431944 -0.855897
-0.0774996 -0.120233 -0.129081 0.947931 0.216446 0.23362
-0.018778 -0.22456 -0.048545 -0.814668 0.496303 0.299998
0.192417 0.33148 0.192821 0.962539 -0.025273 -0.269961
0.194546 0.2828 0.200845 0.961898 -0.00597 -0.273344
0.0178175 0.0115401 -0.409761 0.971659 -0.0827149 -0.221445
-0.15251 -0.420868 -0.130287 0.00283614 -0.9976 -0.0691828
-0.144409 0.232544 -0.0473436 -0.960386 0.0719696 0.269221
0.148412 0.308801 0.0430621 0.963093 -0.0344784 -0.266953
-0.0386306 0.427081 0.136207 -0.0245797 0.997968 0.0587794
-0.0696848 0.0355369 -0.19006 0.958476 -0.181999 0.219545
0.195079 0.218263 0.333051 0.24867 0.459416 0.852702
0.0765693 -0.367665 -0.192714 0.977474 -0.0296936 -0.208958
0.0663569 0.3116 -0.253382 0.957519 0.0468788 -0.284535
-0.0608866 -0.215804 0.265686 -0.959955 0.106649 0.259059
-0.107374 0.205208 -0.100147 0.164684 -0.862989 0.477629
-0.0689429 0.430926 0.061376 0.0327671 0.999385 -0.0124684
-0.0706398 -0.442723 0.168921 -0.0490591 -0.998095 -0.0374065
0.00860533 -0.436481 0.0492613 -0.00210313 -0.997285 -0.0736062
-0.0494686 -0.093921 0.15921 -0.195127 0.577941 -0.792407
-0.13423 -0.427157 0.0136615 -0.961971 0.00888774 0.273005
-0.0776953 0.104678 0.199339 -0.980185 0.117996 0.159107
0.0180853 0.169289 0.411878 0.238426 0.454533 0.858227
-0.185597 0.130907 -0.183572 -0.955647 -0.00136571 0.29451
0.141325 -0.401778 0.0338989 0.958003 0.0384621 -0.284169
-0.24347 -0.0629426 -0.401362 -0.245935 -0.457063 -0.854757
-0.146022 -0.406943 -0.0253318 -0.943341 -0.0110592 0.331641
-0.207226 -0.0758833 -0.405448 -0.249252 -0.42259 -0.871373
-0.0399531 0.330866 0.317253 -0.961491 0.00584005 0.274775
-0.0504727 -0.0693047 -0.455887 -0.247205 -0.461141 -0.852196
-0.0942988 -0.250913 0.152627 -0.970314 0.0487365 0.236887
-0.0782545 0.132793 -0.107434 -0.720106 -0.311088 0.620219
-0.0303606 0.117814 -0.446797 -0.26952 0.541054 -0.79663
0.148262 0.246377 0.035223 0.963474 -0.0144338 -0.267411
0.0256083 -0.135146 0.192102 -0.945687 0.25584 -0.200556
-0.033464 -0.217634 0.0285111 0.892629 0.402297 -0.203399
-0.203841 -0.335523 -0.269541 -0.220825 -0.484787 -0.846296
-0.0176087 -0.0734567 0.413623 -0.950178 -0.0791001 0.301505
-0.0741605 -0.136785 -0.122519 0.938977 0.312987 0.14269
0.221661 -0.104646 0.311304 0.965462 -0.0513059 -0.255441
0.0257196 -0.153009 0.426964 0.226944 -0.556433 0.799299
0.00992724 -0.0858713 -0.15391 0.270822 0.494957 0.825635
0.18311 -0.029063 0.464156 0.267817 0.437954 0.858179
-0.136832 -0.25267 0.00138846 -0.969411 0.0778936 0.232755
0.0165629 0.0939469 0.2166 -0.959747 -0.2398 -0.146223
-0.0374966 -0.423598 -0.165327 -0.0366673 -0.998219 -0.0470667
-0.132886 0.288485 -0.00362243 -0.963316 0.0114619 0.268126
0.240883 0.0308939 0.389645 0.953333 0.019445 0.301294
0.221957 -0.178136 0.319165 0.95804 0.0155033 -0.286216
0.0502494 0.0340249 -0.296842 0.965625 -0.021314 -0.259065
-0.0554096 -0.159013 0.0726501 0.824678 0.477548 -0.303074
0.205955 0.325168 0.241499 0.950101 0.303342 0.0727398
-0.203542 0.136145 -0.251761 -0.965485 0.0281027 0.258938
-0.0500715 0.203766 -0.384471 -0.164802 0.495498 -0.852832
0.0670232 0.13277 -0.239924 0.96752 -0.0246576 -0.251591
0.230735 -0.0706222 0.418871 0.933597 -0.114066 0.339685
0.0875954 0.432979 -0.0232408 0.0370702 0.999246 -0.0115705
0.0546671 -0.188566 0.394305 0.213313 -0.551168 0.806667
0.219952 -0.154394 0.372867 0.271716 -0.553218 0.787477
-0.0301624 0.314692 -0.312109 -0.225223 0.552613 -0.80243
-0.160975 0.0815267 -0.438492 -0.213663 0.546982 -0.809419
-0.133721 -0.264101 0.0071226 -0.97147 0.0444174 0.232967
0.029382 -0.422798 -0.194306 -0.00811246 -0.991603 -0.129062
-0.00504108 -0.428785 -0.0924409 -0.0114375 -0.997631 -0.0678317
0.148449 -0.188227 0.368605 0.261315 -0.56634 0.781648
-0.220445 0.0829484 -0.31506 -0.959226 0.000510995 0.282638
-0.056245 -0.200858 0.289157 -0.960668 0.00324526 0.277682
0.0839274 -0.366906 -0.168269 0.942552 0.0192828 -0.333503
-0.101971 -0.31514 -0.308519 -0.243512 -0.512528 -0.823418
0.112962 -0.332618 -0.0682515 0.975304 -0.0696305 -0.209602
-0.173302 0.0391305 -0.155709 0.955088 -0.170368 0.24245
-0.0386093 0.246026 -0.356917 -0.206118 0.523024 -0.827019
-0.0182405 -0.428418 -0.1026 0.00955327 -0.997847 -0.0648928
0.115193 0.27062 -0.074073 0.960391 -0.00246526 -0.278644
-0.212592 0.0321943 -0.281562 -0.965488 0.129473 0.225985
-0.12639 0.277923 -0.313898 -0.274062 0.591856 -0.758021
-0.0649503 0.380314 0.226213 -0.959097 0.00149531 0.283075
0.102851 0.206286 -0.012998 0.659416 -0.700865 -0.271952
-0.126092 -0.428515 -0.0462364 -0.0685242 -0.996966 -0.0369092
-0.0145606 -0.0266648 0.213027 0.688041 0.125311 -0.71477
-0.114338 0.194522 -0.0224092 0.843047 -0.525315 -0.115397
0.0347447 0.0220472 0.48293 0.278683 0.477144 0.833468
0.23453 0.145605 0.352126 0.959067 0.00730979 -0.283085
0.142664 -0.0392147 0.174215 -0.957884 0.0413309 -0.284166
0.105088 0.429404 0.0264814 0.0645657 0.996391 0.0551043
-0.0172655 -0.227415 0.0661358 0.761386 0.510609 -0.399461
-0.0886872 -0.159737 -0.0382828 -0.809649 0.476132 0.343172
0.00720332 -0.189761 -0.0353254 -0.825401 0.519655 0.220616
0.0657679 0.140714 -0.249856 0.971208 -0.0936169 -0.219069
-0.0294562 0.135854 0.180506 0.71066 -0.267611 -0.650651
-0.175387 -0.318301 -0.287495 -0.285909 -0.4421 -0.850179
0.135079 0.137605 0.116866 0.5395 -0.512192 -0.66828
-0.0213804 -0.388231 0.27894 0.2093 -0.544904 0.811956
0.102091 0.156392 0.159553 -0.205065 -0.59491 -0.777194
-0.203673 0.0539642 -0.246981 -0.958412 -0.00539016 0.285338
-0.0963419 -0.419533 -0.235316 -0.039203 -0.998232 -0.044678
-0.0504312 -0.319274 -0.323951 -0.247023 -0.448478 -0.85898
-0.134306 0.201828 -0.362246 -0.222327 0.550322 -0.804808
0.0678724 0.421438 0.197832 0.0195636 0.997463 0.0684399
-0.0949837 -0.433183 0.0327563 -0.0403056 -0.99846 -0.0381165
-0.0589633 -0.422814 0.265621 0.21892 -0.54842 0.807038
0.0369081 -0.441935 0.226747 0.200011 -0.539535 0.817861
-0.180749 0.0360108 -0.168849 -0.961687 0.0550157 0.268574
-0.158518 -0.109401 -0.402749 -0.238016 -0.458564 -0.856194
-0.138659 0.261047 -0.321578 -0.227281 0.550986 -0.802968
-0.205687 -0.259355 -0.241119 -0.962937 0.045008 0.265945
-0.0632497 -0.104178 -0.205971 0.245882 0.434583 0.866418
-0.0110247 0.0454238 0.219242 0.747243 -0.089387 -0.658512
-0.072703 -0.434802 0.0120946 -0.0698542 -0.997499 0.0108211
0.222949 -0.00447052 0.313411 0.961016 -0.00680219 -0.276408
0.192797 -0.306443 0.276596 0.271964 -0.553113 0.787466
0.0854816 -0.346817 -0.165369 0.962262 -0.0320208 -0.270234
0.036067 0.09572 -0.348882 0.959469 0.00625631 -0.281744
0.111295 -0.390937 -0.0707723 0.962738 -0.0514663 -0.265492
-0.192799 0.08246 -0.428249 -0.261925 0.586133 -0.76671
0.164107 0.216714 0.100982 0.969973 -0.0532327 -0.237315
-0.0379314 -0.131341 0.139089 0.724166 0.462443 -0.511596
-0.0382008 0.179781 -0.0165284 -0.793194 -0.478837 0.376243
-0.0802621 -0.174226 0.153877 -0.906705 0.405843 -0.114793
-0.17785 0.314726 -0.17233 -0.965453 0.0635142 0.25272
0.146314 0.417881 0.219159 0.0397505 0.999205 0.00306246
-0.0149953 0.194764 0.134693 -0.953564 -0.301136 0.00568659
-0.132325 -0.427756 -0.0399009 -0.0110904 -0.99405 -0.108362
0.100431 0.252897 0.342873 0.275509 0.429508 0.86001
0.0315733 0.0945838 0.446454 0.315135 0.453459 0.833706
0.192132 0.287325 0.193425 0.972025 -0.0682852 -0.224732
0.0122495 -0.238578 0.36931 0.226711 -0.551274 0.802931
-0.0810905 -0.439781 0.148115 -0.0278845 -0.998215 -0.0528166
0.0653245 -0.150223 -0.235556 0.957993 0.0107339 -0.28659
0.0113957 -0.126336 0.207828 -0.269897 0.521481 -0.809452
-0.0193109 -0.435311 0.0437845 -0.00498479 -0.997068 -0.076359
0.0303658 0.0416005 -0.364429 0.951662 0.0210851 -0.306423
-0.143579 0.396756 -0.0513494 -0.956283 -0.0308036 0.290815
-0.109037 0.156159 -0.399083 -0.181576 0.547663 -0.816759
-0.100672 0.218834 0.114139 -0.962006 0.0349619 0.27078
-0.0468773 0.38593 0.290589 -0.966898 0.0338322 0.252911
0.136786 -0.197025 0.0723634 0.570861 0.64078 -0.513341
0.0933946 -0.360946 0.266594 0.277767 -0.575392 0.769266
-0.0610977 0.104863 0.254608 -0.955967 -0.0485553 0.28943
0.151574 -0.21957 0.0710702 0.959124 0.0137728 -0.282652
0.242419 0.031353 0.376817 0.961549 -0.0906363 -0.259248
0.0975555 -0.340668 -0.115765 0.962487 -0.0968508 -0.253454
0.0524944 -0.31254 0.311942 0.185035 -0.543859 0.818523
0.00332039 -0.00758726 -0.454439 0.670141 0.0165756 -0.742049
0.0138762 0.422537 0.185267 0.0251608 0.998199 0.0544524
0.0942642 -0.232825 0.352917 0.147447 -0.463863 0.873551
-0.137815 0.252782 -0.327714 -0.237964 0.565475 -0.78969
0.204311 -0.0859859 0.25132 0.960118 0.0129086 -0.279295
-0.167483 0.278758 -0.131472 -0.959122 -0.0709978 0.273942
-0.0580699 -0.322531 -0.319896 -0.237753 -0.479693 -0.844611
-0.087145 -0.277269 -0.336585 -0.245078 -0.458544 -0.85421
0.191842 -0.304179 0.277377 0.210234 -0.54292 0.813043
-0.226781 -0.0916485 -0.322358 -0.953107 -0.0189184 0.302042
-0.110387 -0.27435 0.0890095 -0.962093 0.00981212 0.272545
-0.0560974 0.109897 -0.14412 0.940552 -0.331042 0.0759794
0.0927388 0.391134 0.272505 0.250737 0.44514 0.85964
0.0459124 -0.147735 -0.300786 0.962184 -0.0198035 -0.271678
0.085141 -0.202486 0.0698386 0.79801 0.468179 -0.379458
0.147716 0.21479 0.0532121 0.540508 -0.724977 -0.426919
-0.0453054 -0.397758 -0.282211 -0.221441 -0.465881 -0.85669
0.0103522 -0.441305 0.143402 -0.00280743 -0.994594 -0.103807
0.0772557 0.43339 -0.051481 -0.0164187 0.994191 0.106373
0.127116 -0.149765 0.157453 -0.185659 0.620394 -0.761999
0.0863349 0.185362 0.0338986 -0.862621 -0.479044 0.162486
-0.00718397 -0.443605 0.235736 0.239421 -0.557013 0.795245
-0.199625 -0.0319194 -0.237987 -0.972924 0.0373551 0.228085
-0.0324182 -0.2084 0.362378 -0.966999 0.0735835 0.243921
-0.056892 0.438599 -0.0484874 0.077982 0.996265 0.0370905
0.0377263 -0.372787 -0.284737 0.745675 -0.378585 -0.548309
-0.0404811 0.13598 -0.189898 0.935825 -0.334879 0.109947
0.0763269 -0.174757 -0.188428 0.800923 0.545672 0.246502
0.0478008 -0.0462452 -0.259553 0.286502 0.158684 0.944847
0.05905 -0.315304 -0.254212 0.96256 -0.0189645 -0.270404
