ply
format ascii 1.0
comment Created by Open3D
element vertex 128
property double x
property double y
property double z
property double nx
property double ny
property double nz
end_header
-0.369686 -0.177836 -0.1559 0.296416 -0.835706 -0.462313
0.463809 -0.0490239 -0.0310763 0.306291 -0.774423 -0.553584
0.151601 0.0651083 -0.0700942 0.13139 0.381913 -0.914811
0.455982 0.224371 0.0845545 0.954334 0.22751 0.193615
-0.449874 -0.114261 -0.206538 -0.946576 -0.219559 -0.236196
0.314978 -0.188145 0.265367 0.0239202 -0.810081 0.585829
0.244025 0.0760445 0.20835 -0.951516 -0.203337 -0.230804
0.360219 -0.0457868 0.27904 -0.25937 -0.104596 0.960097
0.295133 0.219323 0.209595 -0.327507 0.760956 0.560076
0.32898 -0.0483422 0.260414 -0.948787 -0.174913 -0.263077
0.354844 0.0500378 -0.188542 -0.949721 -0.172883 -0.261038
0.222584 0.274652 0.144794 -0.946429 -0.242015 -0.213778
0.343287 0.0101963 0.401516 -0.145462 -0.272895 0.950983
0.145828 -0.0465961 -0.0484783 0.290204 -0.689573 -0.663529
0.246077 -0.0466341 0.314297 -0.949692 -0.117937 -0.29013
0.413865 0.115131 -0.215087 0.200336 0.179853 -0.963078
0.248524 0.165049 0.0936513 -0.231238 0.957723 0.171157
0.217336 0.154455 0.0213932 -0.0603594 0.936087 -0.34655
0.131504 -0.0333801 -0.0635874 0.308883 -0.473826 -0.824669
0.461238 -0.109084 0.253621 0.0283111 -0.832149 0.553829
-0.394169 0.0185224 -0.144299 -0.115151 0.906315 -0.406612
0.495696 0.189719 -0.0455719 0.942084 0.185752 0.279238
-0.21192 0.06653 -0.0678912 -0.149586 0.974326 -0.168266
0.467227 -0.0520433 0.277961 0.947862 0.140302 0.286135
-0.224298 -0.157635 -0.0354681 0.196573 -0.968119 0.155259
0.404845 -0.00763165 0.172622 -0.0184913 0.809154 -0.587305
0.4032 0.241355 0.286562 0.938722 0.259521 0.226827
0.328945 0.0271145 0.190751 0.278151 0.288608 -0.916154
0.298868 0.362915 -0.0251831 -0.131895 0.944122 -0.302055
0.545506 -0.0470205 -0.0640273 0.334296 -0.662425 -0.670402
0.539881 -0.0169949 -0.0384721 0.948205 0.20287 0.244442
0.393975 0.294228 0.0841598 -0.0972867 0.905181 -0.413741
0.4878 -0.00712088 0.158186 0.931477 0.182689 0.314604
0.508895 0.126363 -0.0693176 0.25169 0.0749086 -0.964905
0.232289 -0.0425213 0.361294 -0.952113 -0.218534 -0.213832
-0.389703 -0.115756 0.00674599 -0.157472 -0.316203 0.935531
0.384877 0.339027 0.276613 0.950075 0.179892 0.254945
0.401423 -0.100757 0.355325 -0.120412 -0.599298 0.791418
0.388795 0.403528 0.0992807 -0.202718 0.978805 -0.0290795
0.393291 0.338944 -0.082253 -0.0615068 0.824187 -0.562968
0.401892 -0.175672 -0.101281 0.374358 -0.758839 -0.532934
0.306914 0.175902 0.108909 -0.30427 0.917108 0.25755
0.471582 0.173262 -0.192177 0.22704 0.253068 -0.94043
0.358241 0.0739562 0.415081 -0.265191 -0.0691638 0.961712
0.417028 -0.164467 0.292218 0.0621672 -0.820705 0.56796
0.362624 0.0792319 0.416369 -0.251929 -0.021947 0.967497
0.277408 0.159079 0.383323 -0.289962 0.19123 0.937738
0.374205 0.10288 -0.0524967 -0.940797 -0.174994 -0.290307
0.223173 0.246658 0.157879 -0.968618 -0.167268 -0.183848
0.48108 -0.0520784 0.221199 0.950873 0.229555 0.207714
-0.365317 -0.00157217 -0.174441 0.0521861 0.67952 -0.731799
0.545758 -0.0538487 -0.033624 0.936526 0.170966 0.306088
0.407998 0.117172 0.235235 0.263057 -0.199123 -0.944008
0.505075 0.126823 -0.0183663 0.9475 0.16631 0.273101
0.353777 -0.104285 -0.0507595 -0.946325 -0.173096 -0.27296
0.192244 0.248169 0.282336 -0.952789 -0.168535 -0.252564
0.206835 0.338135 0.146767 -0.941128 -0.200687 -0.272033
0.406376 -0.0320152 0.0966192 -0.252487 0.967505 0.0135522
-0.14063 0.0804566 -0.00695352 -0.259423 0.942116 0.212406
-0.451974 0.00114091 -0.0522749 -0.292132 0.788256 0.541581
-0.0733402 -0.0565128 -0.127311 0.249708 -0.275268 -0.928372
0.0308924 -0.0915775 -0.0577287 0.29567 -0.818717 -0.492222
0.544952 0.0736115 -0.182886 0.312809 -0.0933645 -0.945216
0.387381 -0.0879361 0.0656984 -0.951516 -0.210451 -0.224338
-0.218033 -0.13257 0.0126103 0.0607363 -0.803661 0.591979
0.25399 0.353103 0.202033 -0.273321 0.902472 0.332926
-0.0874356 -0.0440052 -0.135417 0.271314 -0.162659 -0.948647
0.316406 0.134268 0.181677 0.33042 -0.572541 -0.750346
-0.123485 -0.00057098 0.0823309 -0.260571 0.144086 0.954642
0.434084 0.20577 0.0214346 -0.949964 -0.20445 -0.236153
0.320646 0.154906 -0.137511 -0.951018 -0.224683 -0.212326
-0.0626494 -0.00440318 -0.130288 0.275045 0.0648071 -0.959245
0.502886 0.143838 -0.0265301 0.946199 0.186944 0.264119
0.406546 -0.0884129 0.194439 0.0510978 -0.905519 0.421217
0.250551 0.105928 0.385049 -0.257821 0.05035 0.96488
0.343083 -0.0567894 0.198897 -0.931927 -0.185351 -0.3117
0.241274 0.16503 0.0779615 -0.227942 0.971086 0.0709485
0.355494 0.0940689 -0.0233047 -0.144821 -0.227784 0.962882
0.295725 0.0391626 0.189561 0.162171 0.275251 -0.947595
0.284206 0.229699 -0.0631621 -0.951016 -0.185177 -0.247543
0.443743 0.287898 -0.0423607 -0.00403975 0.766667 -0.642032
0.321977 0.0372681 -0.0610354 -0.949018 -0.202769 -0.241349
-0.335827 -0.144462 -0.0033685 -0.0247103 -0.686922 0.726311
0.261828 0.175458 0.0623623 -0.935014 -0.271284 -0.228373
0.422103 0.365826 0.108745 0.928975 0.19284 0.31594
0.499683 -0.204086 0.0309327 0.275954 -0.928537 -0.24833
0.395396 -0.0268543 0.39859 -0.142535 -0.405789 0.902784
0.264853 0.376124 0.113252 -0.196277 0.977622 0.0756966
0.321297 0.250845 0.180347 -0.342168 0.816168 0.465607
0.520155 0.0916559 -0.0464023 0.956656 0.210077 0.201685
-0.0944044 0.0163624 -0.129536 0.186293 0.336801 -0.922962
0.548622 -0.039486 -0.0477269 0.945953 0.200898 0.254583
0.391601 -0.0858052 0.0400839 -0.94743 -0.16654 -0.273206
-0.281705 -0.0479489 -0.185514 0.173326 0.208696 -0.962499
0.19755 0.235054 0.274278 -0.946137 -0.196583 -0.257256
0.378746 -0.0724486 0.234362 0.0742962 -0.902751 0.423699
0.473543 0.0364202 -0.0899679 0.227274 0.120258 -0.966377
0.428143 0.315303 0.117437 0.935562 0.299771 0.186713
0.379006 0.319725 0.310066 0.939828 0.202309 0.275307
0.425897 0.0608687 0.347107 0.948947 0.182105 0.257561
0.44312 0.295472 0.0808933 0.947948 0.242524 0.206343
0.535055 -0.196848 0.0397548 0.270184 -0.923213 -0.273273
0.348401 0.392923 0.063439 -0.165134 0.973464 -0.158424
0.430566 -0.0135941 0.219371 -0.950592 -0.189783 -0.245678
-0.421826 0.00491602 -0.0416025 -0.310803 0.801139 0.511447
0.478966 0.226556 -0.171868 0.145257 0.403543 -0.903357
-0.143404 0.0472208 -0.113721 -0.00777668 0.728241 -0.685276
0.512994 -0.00321564 0.0537125 0.948688 0.201971 0.243308
-0.341108 0.0255468 -0.13592 -0.078259 0.898473 -0.431997
0.299253 0.104919 0.246456 -0.937518 -0.280591 -0.205738
0.0471659 0.0172911 -0.100434 0.198705 0.129481 -0.971468
-0.0797126 -0.0601169 -0.127427 0.290996 -0.298632 -0.908923
0.462245 0.224153 0.0738678 0.938548 0.191586 0.287092
-0.276474 0.00387009 -0.161297 0.0664492 0.588211 -0.805973
-0.157871 -0.00205341 0.069425 -0.286262 0.217845 0.933058
0.403172 0.193622 0.151199 0.279592 -0.898968 -0.337173
0.194186 0.159391 0.344539 -0.934275 -0.189554 -0.301993
0.512085 -0.0520147 0.104979 0.910395 0.211906 0.355355
-0.0121969 0.0891349 0.0711899 -0.314203 0.735552 0.6002
0.220846 -0.0433242 0.115625 -0.0648561 -0.833343 0.548938
0.499828 0.0533124 0.0632025 0.944816 0.218342 0.244232
0.189365 0.236564 0.317046 -0.333708 0.598517 0.728297
0.330478 -0.00409001 0.277345 -0.304124 -0.0952991 0.947854
0.295241 0.162785 0.022288 0.0571684 -0.865069 0.498385
-0.0029437 0.104722 0.0477495 -0.358386 0.830378 0.426651
-0.137876 -0.0298626 -0.149775 0.135013 0.10844 -0.984892
0.514615 -0.00183792 -0.178497 0.31739 -0.368972 -0.873569
0.422842 -0.0141928 0.244378 -0.948885 -0.219297 -0.226994
