ply
format ascii 1.0
comment Created by Open3D
element vertex 128
property double x
property double y
property double z
property double nx
property double ny
property double nz
end_header
0.367133 -0.151144 0.328157 0.852961 -0.182703 0.488956
-0.35652 0.191572 -0.326406 -0.0417087 0.990661 0.129813
0.308725 -0.186008 0.368124 -0.786544 -0.234827 0.571144
-0.0637107 0.121157 -0.00513215 -0.701824 0.0720276 -0.708699
0.0400457 -0.164731 0.114446 -0.533939 -0.467457 0.704552
0.283636 -0.0130466 0.176222 0.638112 0.373503 -0.673282
-0.282302 -0.061917 -0.413053 0.692004 0.32542 -0.644385
-0.213157 0.072191 -0.254797 -0.794871 0.0179952 -0.606511
0.151556 0.0666145 0.212297 -0.134929 0.942294 0.306393
-0.306461 -0.0875673 -0.420805 -0.681326 0.110977 -0.723519
0.248217 -0.195114 0.312163 -0.710555 -0.278895 0.64601
-0.0252094 -0.00707402 -0.142639 0.685057 0.334442 -0.647183
0.160242 -0.125922 0.0137572 0.0333144 -0.866373 -0.498286
0.195085 -0.165515 0.113412 0.0529414 -0.99808 -0.0321566
-0.278065 0.11681 -0.319933 0.460286 0.487983 -0.741626
0.268589 0.0172981 0.445677 -0.505348 -0.522576 0.686686
0.0913901 -0.0293365 0.221743 0.267818 -0.957755 -0.104781
0.0750615 0.00547415 0.111185 -0.245549 0.874354 0.418582
0.310119 0.00962755 0.368985 -0.107813 0.225216 -0.968326
-0.376995 0.0687736 -0.306602 -0.288315 -0.780419 -0.554816
0.205595 0.125627 0.231305 -0.139899 0.953326 0.267576
0.301985 -0.0965388 0.133912 0.556081 0.388876 -0.73454
0.229025 0.0822133 0.301111 0.253838 -0.894787 -0.367318
-0.0230357 0.0921199 0.114349 0.543181 -0.0729587 0.83644
0.0714819 0.0865483 0.00716579 0.455971 0.64393 -0.614365
-0.402978 0.144278 -0.205978 -0.206083 0.918786 0.336692
0.00900709 -0.0205422 0.0310862 -0.558466 -0.0298073 -0.828992
-0.309592 0.0354684 -0.153287 -0.589008 0.0693414 -0.805147
0.224155 -0.0839981 0.1464 -0.528721 0.811355 -0.249314
0.100652 -0.0324844 0.239922 0.243467 -0.593808 -0.766887
0.287078 -0.0088264 0.169098 0.584689 0.495782 -0.642136
0.225579 -0.109728 0.0528153 0.828723 0.0560408 -0.556846
-0.408556 0.0521539 -0.223063 -0.727911 -0.278446 0.626589
0.390558 0.0969291 0.322499 0.223997 -0.819021 -0.528234
-0.19921 -0.0357138 -0.283679 -0.902989 -0.0713789 -0.423694
0.235166 0.126713 0.128968 0.570885 0.481754 -0.664834
0.136087 -0.115068 0.151301 0.120921 0.734872 0.667338
-0.289856 -0.155099 -0.248572 0.192293 -0.862482 -0.468132
-0.152233 0.181656 -0.201795 -0.207622 0.929307 0.30542
0.373739 -0.13468 0.186148 0.619475 0.386398 -0.683335
0.126729 -0.192094 0.166333 0.528561 -0.265987 0.806148
0.302176 0.119731 0.227047 -0.25059 0.947435 0.198928
-0.0879399 0.0406079 -0.175757 0.774628 0.148145 -0.614821
-0.200289 0.0221757 -0.121044 0.238631 -0.904395 -0.353731
0.238405 -0.180862 0.181892 -0.103932 -0.971714 -0.212061
-0.267177 0.130361 -0.0792884 0.347981 -0.703858 -0.619268
-0.125706 0.0918509 0.0556113 -0.140033 0.975841 0.167703
0.132825 0.122821 0.123971 -0.313494 0.801289 0.509565
0.367041 -0.145829 0.182131 0.243833 -0.885515 -0.395485
0.0258507 0.0214826 0.191001 -0.700662 0.0317042 -0.712788
-0.106604 -0.0576398 -0.206509 -0.418556 0.899051 0.128524
-0.271244 0.122448 -0.0600091 0.020815 -0.966974 -0.254023
0.0786611 0.0962945 0.181799 -0.2184 0.975369 0.0309192
-0.0925309 -0.104664 0.0172768 -0.38555 -0.566888 0.728004
0.147765 0.0832575 0.338823 -0.204118 0.943395 0.261423
-0.218326 0.159133 -0.261197 -0.211531 0.930418 0.299294
-0.12388 0.178146 -0.192501 -0.15096 0.98258 0.108389
0.148212 0.078295 0.338714 -0.255311 0.882697 0.39454
-0.290066 -0.0923968 -0.324451 -0.990717 -0.134377 0.0205614
0.0324519 -0.00665342 -0.0763585 0.219329 0.676075 -0.703432
-0.11474 0.0248175 -0.0788146 -0.258611 0.895991 0.361001
-0.441027 0.0671082 -0.243471 -0.608954 -0.415473 0.67569
-0.00888854 0.0506136 -0.0211642 0.586015 -0.0996495 0.804149
-0.396324 0.0752776 -0.309631 -0.707531 0.0480258 -0.705048
0.131427 -0.0420063 -0.00142978 0.691584 0.210844 -0.690837
-0.379818 -0.10765 -0.283423 -0.22711 0.919515 0.3208
-0.287695 0.150967 -0.169219 -0.219523 0.907152 0.359006
-0.347109 0.0971413 -0.136891 -0.441186 -0.696056 0.566446
-0.260943 -0.149482 -0.178093 -0.475957 -0.515269 0.712715
0.19188 -0.115737 0.274249 -0.689841 -0.30645 0.655902
0.00884235 -0.0620205 0.141153 -0.2626 -0.426628 0.865465
-0.365013 -0.127862 -0.359817 -0.490706 0.212356 -0.845052
-0.17924 -0.132741 -0.226797 0.0912052 -0.978906 -0.182827
-0.151959 -0.0497047 -0.0893131 -0.577693 0.136324 -0.80479
0.157381 -0.11629 0.239738 -0.575408 0.548346 -0.606813
-0.272478 0.122238 -0.175346 -0.301371 0.902239 0.308447
-0.307841 0.107865 -0.361265 0.628542 0.363281 -0.687722
0.0758068 0.0906135 0.271156 -0.493705 0.835299 -0.241932
0.219384 0.0181433 0.264216 0.249709 -0.874147 -0.416549
-0.0230085 0.0973868 0.109791 -0.184262 0.780742 0.597067
0.13089 0.112089 0.0869315 0.648015 0.366846 -0.667458
0.154758 0.00709536 0.161599 0.548913 -0.826685 -0.123641
-0.251866 0.0440462 -0.0568361 -0.546028 -0.48203 0.685201
0.0205977 -0.0595473 0.14621 -0.673365 -0.34042 0.656272
-0.280416 -0.050651 -0.143054 -0.846772 -0.0903439 0.524229
0.191887 -0.194634 0.239011 0.157673 -0.944583 -0.287926
-0.213572 -0.0171465 -0.210042 0.670299 -0.254539 0.697072
0.0130274 0.124152 0.0322711 -0.818621 0.0070526 -0.574291
-0.319107 0.0713241 -0.26574 0.721565 -0.675666 -0.151062
0.208658 0.141665 0.218967 -0.21033 0.926603 0.311718
-0.0238059 0.145709 -0.0440037 0.262012 0.957543 0.120253
-0.189067 0.108261 -0.148942 -0.404793 0.913725 0.0353379
0.149182 0.00688032 0.311917 -0.712832 -0.204381 0.670894
-0.052077 0.0134959 0.113546 -0.620357 -0.40596 0.671084
0.303896 -0.138324 0.251737 -0.396858 0.914331 -0.0806426
0.0790942 -0.124707 0.0191039 -0.429351 -0.728277 -0.534107
-0.100286 -0.136261 -0.136483 0.337451 -0.894882 -0.292082
-0.137742 -0.149422 -0.0435955 -0.654807 -0.360813 0.66411
-0.271052 -0.0635248 -0.150322 -0.473011 -0.504095 0.722599
-0.132751 -0.15948 -0.0595147 -0.72629 -0.167699 0.666618
-0.157459 -0.101003 -0.304492 0.227345 -0.919325 -0.321179
-0.0908147 0.0129608 0.0527639 0.432354 -0.0286228 0.901249
-0.142231 0.0587208 -0.209718 0.416538 -0.901029 -0.121005
-0.0152929 -0.0994472 0.0595381 -0.487667 -0.4458 -0.750628
-0.077939 -0.0425652 -0.204433 0.603757 0.483297 -0.633957
0.156849 -0.0230654 0.308322 -0.632881 -0.402842 0.661196
0.195776 -0.042276 0.217752 -0.567202 -0.276544 -0.775761
0.15176 0.0322087 0.0617145 0.728866 0.200593 -0.654612
0.294077 0.122525 0.314015 -0.186713 0.942715 0.276454
-0.0780067 0.014792 -0.0213234 -0.245637 0.836315 0.490143
0.295568 0.0916281 0.395677 -0.212766 0.920749 0.327034
-0.161809 -0.0305134 -0.0199706 -0.342991 -0.572425 0.744773
0.131193 -0.158535 0.0871499 0.168892 -0.977996 -0.122468
0.399521 -0.122258 0.267308 -0.177283 0.957565 0.227246
-0.307207 0.180657 -0.261232 -0.15281 0.987782 0.030578
-0.3971 0.177616 -0.294316 -0.356513 0.804737 0.474655
-0.100971 -0.0627303 0.0208325 -0.715973 -0.270457 0.643612
0.151948 -0.0591951 0.100598 0.804071 0.0964834 0.586652
-0.196583 -0.160699 -0.123215 -0.624698 -0.389187 0.676968
0.304251 0.116579 0.205648 0.171346 -0.958177 -0.229211
-0.161011 0.132506 -0.0700265 -0.110989 0.964042 0.241461
-0.0122355 -0.0908386 -0.159694 0.701446 0.23816 -0.671754
0.326939 0.0343608 0.286543 0.0760041 -0.960575 -0.267431
-0.0879021 -0.132879 -0.144033 0.153561 -0.977275 -0.146128
-0.0811428 0.0980341 -0.119871 0.850461 -0.14965 0.504302
0.221899 0.0398385 0.125428 0.760576 0.23389 -0.605656
0.389135 0.0994708 0.328193 0.159527 -0.957742 -0.239336
0.315821 0.0303888 0.281703 0.0448062 -0.981994 -0.183523
