ply
format ascii 1.0
comment Created by Open3D
element vertex 512
property double x
property double y
property double z
property double nx
property double ny
property double nz
end_header
-0.0223054 -0.442426 -0.156917 -0.531168 0.060336 -0.845115
0.13587 -0.424912 -0.0557763 -0.952059 -0.215341 0.217284
0.176666 0.323122 -0.042619 0.952147 -0.109291 -0.285431
0.12584 -0.411631 -0.081551 -0.875366 -0.106897 0.471494
-0.154501 -0.121662 -0.00986102 -0.972927 -0.231057 -0.00498679
-0.0647998 -0.502221 -0.100645 0.117303 -0.988422 -0.0962356
0.108372 0.290974 -0.0959258 -0.756976 -0.0208254 0.653111
0.0979992 0.250905 -0.151455 0.575106 0.0191124 -0.817856
0.127974 -0.366077 0.0608708 0.654401 -0.0824009 0.751644
-0.299067 0.474904 -0.0145576 -0.0981862 0.991558 0.0846944
0.0692533 0.447605 0.363438 0.105633 -0.990753 -0.085143
-0.10804 0.126451 0.191381 -0.443574 -0.233144 0.865382
-0.0748834 0.490225 -0.311232 0.0561546 -0.701176 -0.710773
0.299101 0.497989 0.0888538 0.794982 -0.606164 0.0238475
0.143689 0.297917 0.161043 0.809584 -0.101356 0.578188
0.0818961 -0.442532 0.0477408 -0.416881 0.0655191 -0.906596
-0.176935 0.224643 0.17647 -0.663068 -0.267988 0.698945
-0.000193728 0.204537 0.226777 0.202765 -0.260716 0.943882
0.294917 0.493992 0.122461 0.748248 -0.630776 0.20554
0.084802 -0.308104 0.0520979 -0.55424 0.0149044 -0.832223
-0.100041 -0.319465 -0.0661757 -0.932285 -0.201152 -0.300637
0.0255135 -0.374342 -0.123559 0.180719 -0.0508863 0.982218
0.139028 -0.0892605 0.0122843 -0.988993 0.0474939 -0.140133
0.0553587 -0.422904 0.100416 0.100972 -0.0864475 0.991126
-0.111384 0.103717 0.137936 0.614567 0.173267 -0.769601
-0.204403 0.454647 0.185822 0.674524 0.301121 -0.67405
0.156062 -0.4826 0.0448622 0.804134 0.0216505 0.594054
-0.0783118 -0.235885 -0.0680573 0.856284 0.18063 0.483891
-0.227154 0.310789 0.0381667 0.973647 0.225297 -0.0354027
-0.0841637 -0.377502 0.0125875 -0.910282 -0.263424 0.319365
0.143804 0.299531 0.0834349 -0.922513 0.047704 -0.383007
-0.0401518 -0.437892 -0.071715 0.927333 0.0666607 0.368251
-0.214416 0.484381 -0.096318 0.729983 0.0324832 0.682693
0.110032 -0.302231 0.0276998 -0.864803 -0.0363738 -0.500791
-0.0386502 0.123546 -0.147815 0.13446 0.0536169 0.989467
-0.260584 0.493548 -0.184558 -0.0819724 0.993951 0.0730822
0.248503 0.538445 -0.101004 -0.0909684 0.994511 0.0517013
-0.293868 0.42424 0.154261 0.0789992 -0.994365 -0.0706877
-0.19223 0.0996899 -0.0699723 -0.887834 -0.185551 -0.421096
-0.0591065 -0.0871816 0.152366 -0.395033 -0.21951 0.892056
0.0394602 0.127042 -0.178903 0.264684 -0.000668599 -0.964335
-0.0407907 -0.0658759 -0.168449 -0.264921 -0.0693537 -0.961773
0.171807 0.510237 0.167146 -0.109085 0.989275 0.0971384
0.103556 -0.413153 -0.158563 0.460205 0.115914 -0.880213
0.168965 0.19766 0.0973423 0.963032 -0.0367642 0.266865
-0.0475281 0.171419 0.183942 0.142236 0.235089 -0.96151
-0.0370322 -0.0777336 -0.132262 0.284366 0.0642816 0.956558
-0.190556 0.342356 0.206633 -0.613858 -0.280106 0.738051
-0.197355 0.123771 0.0976372 -0.87085 -0.260289 0.416977
-0.275678 0.369808 0.0391675 -0.975734 -0.218302 -0.0169526
0.197065 0.503912 0.271844 -0.102668 0.987103 0.122827
0.173587 -0.113585 0.0204309 0.973183 -0.0856946 0.213472
-0.0231137 -0.120069 0.116982 0.253604 0.235257 -0.938264
-0.163928 0.204049 0.125428 0.83131 0.212539 -0.513567
0.0954109 0.411942 -0.154172 0.572596 -0.000700492 -0.819837
-0.378576 0.445471 -0.0978042 -0.920952 -0.0670343 -0.383868
0.147238 0.308959 -0.0169842 -0.991552 0.0329011 0.12547
0.020399 -0.00285109 -0.14168 -0.213514 0.0696392 0.974455
-0.0359038 -0.285282 0.061741 0.559875 0.306478 -0.769812
-0.140264 0.464238 0.281054 -0.0626563 0.997723 0.0249711
0.176513 -0.45086 0.00857566 0.934176 0.0666966 0.350522
-0.0960226 -0.306065 0.0361269 -0.870298 -0.266554 0.414162
-0.146785 0.502999 -0.153736 -0.102494 0.991185 0.0839472
0.160371 -0.390749 -0.103652 0.85225 0.124023 -0.50822
-0.169146 0.0869553 0.00236344 0.96652 0.256368 0.0107368
-0.114471 -0.283745 -0.00767812 -0.970949 -0.230448 0.0644277
0.143412 -0.37248 0.0442504 0.811011 -0.046647 0.583168
-0.182793 0.38274 0.226961 -0.55164 -0.254635 0.794263
0.138887 0.136412 0.066233 -0.959718 0.0305772 -0.279298
0.0120016 -0.12773 0.154739 -0.0677622 -0.176482 0.981969
-0.373878 0.421742 0.0744109 0.169654 -0.979267 -0.110697
0.194845 0.47512 0.138438 0.12663 -0.985668 -0.111461
-0.343014 0.478006 -0.094037 -0.0959814 0.993503 0.0611477
0.11395 0.0298926 -0.138848 0.633136 -0.0224788 -0.773714
0.149522 0.150205 -0.0976054 0.808626 0.00311886 -0.588314
0.241566 0.517529 0.149684 -0.182986 0.977264 0.107105
-0.277387 0.397263 0.092348 -0.932946 -0.291378 0.211449
0.0246579 0.499501 -0.30266 0.165253 -0.805891 -0.568535
0.157794 0.110914 0.104622 0.88489 -0.0592118 0.462021
0.0746718 -0.347975 0.0542542 -0.433233 0.0442764 -0.900194
0.157933 0.475169 0.0432425 -0.996058 0.0650395 -0.060319
0.07578 -0.37005 -0.1197 -0.380767 -0.138832 0.91419
-0.0793621 -0.258333 -0.12086 -0.691213 -0.16933 -0.702532
0.0466763 -0.00103405 0.175217 0.315861 -0.192262 0.929122
-0.398253 0.426566 0.0138877 -0.224696 -0.969628 -0.0966044
-0.0881967 -0.191638 -0.125617 -0.684205 -0.153077 -0.713043
0.00296166 0.00874214 0.150798 -0.0927622 0.241275 -0.966013
0.0771289 -0.397279 0.0868345 0.288194 -0.17336 0.941749
-0.380955 0.468498 -0.067133 -0.0683259 0.994307 0.0817575
0.0967926 0.518926 -0.110763 -0.684562 -0.0104899 0.728879
-0.227896 0.475232 -0.0759789 0.787465 0.195171 0.584642
0.164494 0.0389734 0.0757147 0.944527 -0.0549084 0.323812
-0.167513 0.0123703 -0.0830003 -0.844229 -0.172191 -0.50757
0.0040663 0.047105 0.193217 -0.0200745 -0.214174 0.976589
-0.0736524 -0.0576355 0.112858 0.547167 0.265057 -0.793948
0.117184 -0.163232 0.058303 -0.803412 0.097078 -0.587457
0.186408 0.469805 0.213557 0.139947 -0.977853 -0.155621
0.151691 0.368906 0.158651 0.801207 -0.149154 0.5795
-0.05179 -0.0199368 -0.131811 0.351373 0.0872001 0.932166
-0.278698 0.492542 -0.221759 -0.0471816 0.998388 0.031558
0.137066 0.136274 -0.116794 0.718573 0.0320692 -0.694711
-0.357156 0.430824 0.220865 -0.852878 -0.137307 0.503732
-0.168989 0.113913 -0.0394217 0.9274 0.175289 0.330459
0.0912453 -0.199731 -0.110061 -0.611875 0.000254393 0.790955
0.133706 -0.24762 -0.122428 0.713489 0.0153541 -0.700498
-0.11623 0.195891 0.206668 -0.434662 -0.207595 0.876341
-0.0777858 -0.161874 0.119862 -0.570507 -0.249909 0.782347
0.137706 -0.476185 -0.0737753 -0.957091 -0.123347 0.262224
0.109896 0.228138 -0.0925279 -0.749283 -0.019283 0.661969
-0.163313 0.237621 0.139355 0.680924 0.347813 -0.644491
-0.175927 0.405288 -0.114207 0.625994 0.174406 0.760075
-0.178852 0.443612 -0.123748 0.61633 0.109698 0.77981
-0.0525993 -0.0566878 0.163227 -0.286586 -0.244945 0.926213
-0.160915 0.138284 0.100703 0.826776 0.263032 -0.497249
0.0765826 0.41982 0.199194 -0.577717 0.143587 -0.803509
-0.0183475 0.148619 -0.18624 -0.0277044 -0.0903609 -0.995524
-0.0509089 0.313109 0.25258 -0.0532456 -0.217887 0.97452
-0.000915175 -0.476775 0.0871802 -0.362466 -0.110194 0.92546
-0.0346496 -0.242691 -0.115328 0.53241 0.157853 0.831638
-0.191293 0.151103 0.12603 -0.760042 -0.30775 0.572386
0.0235211 0.344613 0.212886 -0.28411 0.175499 -0.942593
-0.197837 0.137304 0.104496 -0.840242 -0.310495 0.444508
0.000693212 0.148111 -0.150381 -0.122574 0.0454091 0.99142
0.00835533 -0.474793 -0.121633 0.444262 0.0107584 0.895832
-0.201198 0.362952 0.205524 -0.692003 -0.246229 0.678603
-0.0208549 -0.400735 0.0356499 0.657742 0.122679 -0.743186
-0.0531435 -0.393787 -0.0385721 0.991375 0.124919 0.0396426
0.0894794 -0.367689 -0.111277 -0.52976 -0.126361 0.838682
-0.2331 0.501744 -0.258782 -0.129512 0.987553 0.0892513
-0.184653 0.354856 -0.096433 0.778002 0.175034 0.603388
0.0722331 0.474239 0.212612 -0.607508 0.134667 -0.782815
0.0168373 -0.117169 -0.139586 -0.00530008 0.0455979 0.998946
0.103719 0.424959 0.177525 -0.757787 0.113279 -0.642594
-0.0700465 -0.340087 -0.111496 -0.767619 -0.16699 -0.61877
-0.0656804 -0.0111244 0.171224 -0.330292 -0.28192 0.900793
0.17634 0.185584 0.0737418 0.933172 -0.134501 0.333315
-0.0838934 -0.110779 0.0842201 0.674459 0.289935 -0.679002
0.030476 -0.055481 -0.141083 -0.131239 -0.00597764 0.991333
-0.0578512 -0.320414 -0.0265491 0.992759 0.120064 -0.00381725
-0.111915 -0.0280082 -0.139005 -0.4962 -0.164056 -0.852568
0.00935403 0.364494 0.220222 -0.265907 0.194105 -0.944255
0.163909 0.222116 -0.069455 0.918612 -0.0481081 -0.39222
0.176238 0.296683 0.097938 0.948446 -0.0581178 0.311564
-0.374295 0.471348 -0.0788562 -0.0785731 0.996545 0.0269073
-0.0281454 0.0624426 0.198445 -0.0654532 -0.259148 0.963617
-0.257427 0.450093 0.00849304 0.958114 0.212513 0.19198
0.0962515 0.245324 -0.152442 0.586251 -0.0338733 -0.809421
-0.11202 0.509448 -0.209972 -0.0918023 0.993957 0.060189
-0.0058456 -0.510314 0.0671777 0.143179 -0.985779 -0.0879782
0.134685 0.497876 -0.0560419 -0.868671 -0.0127437 0.495225
-0.104601 0.187535 0.208895 -0.418011 -0.224211 0.880339
-0.0209999 0.175174 -0.188726 -0.0489684 0.0107843 -0.998742
0.137817 -0.0326935 0.0390324 -0.9418 0.15069 -0.300507
-0.0669637 -0.448476 0.0365093 -0.826866 -0.140599 0.544541
-0.0229478 0.486734 -0.247827 0.101978 -0.992047 -0.073775
-0.266193 0.471601 0.0528632 -0.102938 0.991367 0.0812157
-0.0401662 -0.394983 0.00995125 0.88114 0.0789443 -0.466218
-0.181838 0.202763 0.160015 -0.740028 -0.267512 0.617086
0.0917896 0.508565 -0.113462 -0.721948 0.0416638 0.690692
-0.0429437 0.223361 0.196606 0.12286 0.201134 -0.971829
-0.134105 0.500024 -0.155821 0.390792 0.0281692 0.920048
-0.000305438 0.133007 -0.185472 0.141114 -0.0696824 -0.987538
-0.108621 0.500933 -0.310941 -0.18546 0.090298 -0.978494
-0.0698587 -0.285169 -0.125224 -0.663746 -0.112612 -0.739432
0.187024 0.470417 0.107739 0.881499 -0.439223 0.17333
0.122691 0.102804 -0.129335 0.715938 -0.0350442 -0.697284
0.114723 0.470479 -0.136487 0.695068 -0.0722512 -0.715305
0.0815709 0.108405 -0.119374 -0.588889 0.0426219 0.807089
0.111791 -0.325783 -0.138641 0.511232 0.0394009 -0.858539
-0.350329 0.469441 -0.0147641 -0.104582 0.980224 0.167996
-0.148475 0.280839 -0.117568 0.622769 0.135474 0.770588
-0.1034 0.509963 -0.191747 -0.111621 0.989629 0.0904143
-0.096127 0.52154 -0.301376 -0.12727 0.986024 0.107509
-0.0331149 0.0924291 -0.183174 -0.0770276 -0.066268 -0.994824
0.18014 -0.434933 -0.0105623 0.976123 0.0903858 0.197518
-0.0327762 -0.0187495 0.139319 0.256175 0.199521 -0.945815
-0.154826 0.199598 -0.0920677 0.831308 0.157552 0.533015
-0.020257 -0.420647 0.0300093 0.682569 0.148187 -0.71564
-0.321456 0.41728 0.180458 0.0838979 -0.993023 -0.0828661
0.16699 0.467546 0.217087 0.115529 -0.986402 -0.116891
-0.124463 0.256592 -0.171392 -0.408021 -0.14595 -0.901231
-0.0704156 0.247134 -0.152042 0.219411 0.0444726 0.974618
-0.219633 0.402687 -0.066002 0.822552 0.179922 0.539477
-0.137706 -0.142611 -0.0706266 -0.889404 -0.161921 -0.427484
0.0991682 0.515759 -0.280219 0.429122 0.131777 -0.893582
-0.125322 -0.155546 0.0710075 -0.81495 -0.287665 0.503097
0.143276 0.486085 -0.0358549 -0.931095 0.000564255 0.364776
-0.0153774 -0.0581498 -0.174575 -0.125063 -0.060047 -0.99033
0.131109 -0.306386 0.0713649 0.722161 -0.108424 0.683175
0.0133293 0.121149 -0.183903 0.154154 -0.0786661 -0.98491
-0.140507 0.162177 0.132857 0.68476 0.279441 -0.673064
0.0420105 0.531241 -0.247681 -0.10791 0.987912 0.111293
0.128582 0.0947748 0.0824796 -0.858721 0.0914148 -0.504223
-0.00985282 -0.30601 -0.110004 0.494623 -0.0228087 0.868808
-0.225189 0.418157 0.142663 0.882024 0.221616 -0.415836
-0.116197 -0.243674 0.0339152 -0.912923 -0.259722 0.314827
0.0739456 -0.138359 0.100213 -0.504856 0.209715 -0.837341
-0.000968146 -0.489942 -0.162129 0.0634377 -0.997092 -0.0422276
-0.167821 -0.0645472 0.0246555 -0.968792 -0.205106 0.13919
-0.120033 0.213115 0.211784 -0.432732 -0.235279 0.87028
-0.0765276 -0.162851 -0.0920148 0.750368 0.118302 0.650348
0.0438367 0.0850897 0.19534 0.315706 -0.21293 0.924657
0.0220577 0.483032 0.269769 -0.0612921 0.997589 0.0325506
-0.130188 0.0798377 -0.0926469 0.726448 0.158214 0.668761
-0.00365867 0.0203024 0.15324 -0.0228585 0.247557 -0.968604
0.148283 0.157978 0.0389189 -0.99188 0.0319326 -0.123104
-0.14801 0.0702735 0.0811678 0.797868 0.332253 -0.503005
-0.124703 0.465606 0.314609 -0.152183 0.9786 0.138501
-0.240076 0.330982 -0.0745016 -0.873255 -0.174146 -0.455082
-0.120136 -0.0767436 0.0452108 0.911355 0.258077 -0.320668
-0.243145 0.426798 0.105071 0.94868 0.21169 -0.234933
-0.132342 0.0380075 -0.0754099 0.813728 0.195351 0.547434
0.162216 0.231705 0.11878 0.882735 -0.084248 0.462256
-0.181541 -0.00089327 -0.0210004 -0.965996 -0.229718 -0.118664
0.180971 0.0742074 -0.013424 0.993044 -0.0198441 -0.116062
0.0424703 0.465494 -0.184902 0.381128 -0.097937 -0.91932
0.0801463 0.295901 0.175007 -0.498532 0.132752 -0.856646
-0.0434366 -0.345723 0.079341 -0.589263 -0.206232 0.781177
-0.250029 0.27376 0.0596648 -0.943896 -0.290403 0.157248
0.00419199 0.139227 -0.150289 -0.115 -0.00803246 0.993333
0.159232 0.485187 0.0511122 -0.998483 0.0422911 -0.0352491
0.0827062 -0.0145508 -0.117674 -0.57519 -0.0375851 0.817156
0.157736 0.396203 0.0276224 -0.998457 -0.00645954 0.0551532
-0.297078 0.464938 0.114617 -0.100201 0.991873 0.0784081
0.162855 0.521601 -0.00975524 -0.103507 0.993171 0.0538291
0.0903585 -0.264293 -0.149775 0.404172 -0.00335217 -0.914677
0.140334 0.0927866 0.127871 0.798083 -0.111467 0.592148
-0.148302 -0.085817 0.0672401 -0.882661 -0.257214 0.393384
0.159024 0.442437 0.0233353 -0.99748 0.025717 0.0661204
0.153516 0.347637 0.0262765 -0.999275 0.0372869 0.00770414
0.113995 -0.469355 -0.161878 0.447439 0.0339741 -0.893669
0.119468 0.345971 0.195513 0.733212 -0.126182 0.66819
0.135409 -0.417908 -0.0207178 -0.977284 -0.0576575 -0.203939
-0.0302961 0.0999982 -0.183868 -0.0877797 -0.046201 -0.995068
-0.223381 0.380434 0.122997 0.864271 0.272621 -0.422744
0.0932389 0.0845945 0.170283 0.555688 -0.144961 0.818656
0.0246387 0.442031 0.362986 0.134998 -0.98679 -0.0895628
-0.00597529 -0.429568 0.0896754 -0.347719 -0.161154 0.923646
-0.0254646 -0.35836 -0.146884 -0.380471 -0.107042 -0.918577
-0.00810413 -0.275901 -0.16019 -0.256428 -0.0969425 -0.96169
-0.0622816 0.389529 0.236005 0.129632 0.202001 -0.970768
0.134996 0.153599 0.0834017 -0.89756 0.04806 -0.438265
-0.347662 0.474409 -0.157756 -0.822958 -0.0402943 -0.566671
-0.10384 -0.279587 0.037433 -0.819696 -0.335118 0.464538
-0.233194 0.451743 0.327362 -0.108341 0.98654 0.122479
0.0737893 -0.284731 0.0720065 -0.43029 0.169195 -0.886692
0.116989 0.349158 -0.0834358 -0.795726 0.0404712 0.604303
-0.252622 0.334469 -0.0498117 -0.916949 -0.205952 -0.341743
0.0332713 -0.332184 0.107899 0.0209648 -0.224985 0.974137
-0.174118 0.121253 -0.104905 -0.76557 -0.147694 -0.62617
0.186281 0.281872 -0.00936919 0.987759 -0.0338201 -0.152275
-0.165862 0.462519 -0.18002 -0.244874 -0.681535 -0.689599
0.0954267 0.223168 0.148006 -0.722603 0.161044 -0.672243
-0.0947337 -0.151171 -0.0738621 0.814397 0.242657 0.527139
-0.305209 0.455202 0.198693 -0.0905812 0.992651 0.0802443
-0.157412 0.0965815 -0.0546612 0.888587 0.156216 0.431289
-0.0768674 -0.166719 -0.0927331 0.803661 0.164181 0.571991
0.110714 0.538029 -0.260118 -0.105261 0.991759 0.0730372
0.0105295 -0.126301 -0.138478 0.0158272 0.0556563 0.998325
0.1445 -0.380318 -0.107318 0.584151 0.674454 -0.451529
0.12877 0.202551 0.102442 -0.853306 0.0956568 -0.512561
-0.0267328 -0.460487 0.0749851 -0.560453 -0.0941029 0.822822
-0.102182 0.00215898 0.107688 0.670865 0.246921 -0.699264
-0.405897 0.458094 0.000876182 -0.978974 -0.023986 -0.202569
0.0184622 -0.249045 -0.167866 -0.00138027 -0.0659461 -0.997822
-0.205486 0.227431 0.0374323 0.953912 0.286261 -0.0900376
0.132831 0.133921 -0.0570537 -0.898947 0.0225497 0.437476
0.189209 0.523981 -0.218775 0.67959 0.142009 -0.719716
-0.00115138 0.357304 -0.159152 -0.170924 -0.0081424 0.985251
0.0213214 -0.425333 -0.169104 -0.203116 0.0856978 -0.975397
0.00749261 -0.0722479 0.130831 0.0498672 0.214479 -0.975455
-0.128328 0.1273 0.180786 -0.526492 -0.280441 0.802595
-0.0382881 0.526384 -0.302121 -0.0884564 0.993855 0.0665466
-0.140822 0.038156 -0.0620513 0.871961 0.23125 0.431518
-0.189902 0.339939 -0.0902962 0.789179 0.123222 0.601675
0.0403201 0.0422678 0.186241 0.240518 -0.194513 0.950955
-0.182178 0.465678 0.216054 -0.130956 0.984805 0.114055
0.197804 0.522912 0.0304375 -0.168196 0.978254 0.121369
-0.398118 0.462737 -0.0109934 -0.0976578 0.993858 0.0520526
-0.363091 0.459119 0.0620698 -0.0826294 0.994721 0.0608483
-0.31673 0.438495 -0.0523541 0.109374 -0.988513 -0.104305
-0.122159 0.457411 0.390841 -0.110344 0.987818 0.109727
-0.0732934 0.52449 -0.309866 -0.0808954 0.995452 0.0503212
-0.0618823 0.278884 -0.15611 0.184429 0.0667771 0.980575
0.0692701 0.0867459 -0.166592 0.389858 0.00333638 -0.920869
-0.237148 0.457441 -0.0528231 0.864281 0.196487 0.463045
0.167595 0.496776 -0.132192 0.113333 -0.989654 -0.087986
-0.092068 -0.194509 0.0301426 0.898166 0.23032 -0.374499
0.0887697 0.493008 0.255649 -0.10558 0.990813 0.0845188
0.00677317 0.352468 0.257912 0.226859 -0.223729 0.947882
0.111102 -0.0635225 -0.0893485 -0.760777 -0.0336545 0.64814
-0.363215 0.449425 0.20627 -0.112474 0.988807 0.0980337
-0.112562 0.441036 -0.193064 -0.301054 -0.0672233 -0.951235
-0.256155 0.352133 -0.046588 -0.936703 -0.220478 -0.271986
0.0677573 -0.482526 -0.170485 0.0746389 -0.994346 -0.0755315
-0.178333 0.319647 0.157497 0.720355 0.241472 -0.650215
-0.0708205 0.512221 -0.192743 -0.104682 0.991392 0.0786298
0.145083 -0.188108 -0.102668 0.825526 -0.000109055 -0.564364
-0.143674 0.384867 0.210928 0.421976 0.276384 -0.863451
0.112961 -0.48159 -0.126941 0.104843 -0.99093 -0.0840578
-0.00883112 -0.464161 -0.11259 0.614963 -0.000239652 0.788556
0.259427 0.507891 0.21275 0.882399 0.0370954 0.469037
0.178422 0.295982 0.0944447 0.955631 -0.0493561 0.290403
0.107567 -0.388442 -0.151701 0.0700959 0.978487 -0.194034
-0.400403 0.431312 -0.00527149 -0.707638 -0.688924 -0.156944
0.156991 0.171111 -0.0864246 0.879495 -0.0204265 -0.47547
0.166078 -0.182764 0.031253 0.96034 -0.057047 0.272933
0.0739736 -0.342237 0.0551553 -0.423212 0.0330097 -0.905429
-0.246201 0.435669 0.111286 0.908384 0.25848 -0.328673
-0.33633 0.427929 0.0594137 0.10353 -0.989302 -0.102773
0.0774247 0.131144 -0.162611 0.429768 0.0254285 -0.902581
-0.0245042 -0.377732 -0.0976005 0.724484 0.0212825 0.688963
0.142356 -0.0529865 0.0996989 0.835676 -0.12994 0.533631
-0.224609 0.364539 -0.0371812 0.916713 0.267328 0.296939
-0.0807448 0.428382 0.376142 0.108847 -0.984656 -0.136401
-0.383555 0.430392 -0.0398862 0.0999124 -0.99166 -0.0814102
-0.214629 0.481012 -0.0955433 0.739386 0.152283 0.655834
0.0708968 0.502278 -0.290177 0.261838 -0.795374 -0.546645
-0.0452785 0.37506 0.268924 -0.00159007 -0.190514 0.981683
0.00183274 0.223308 -0.153188 -0.18023 0.0610128 0.98173
0.118326 0.539788 -0.25422 -0.0396494 0.997407 0.060058
0.226819 0.522378 -0.177601 0.791507 0.126113 -0.598006
-0.143937 0.140156 0.123117 0.747854 0.25202 -0.614166
0.177095 -0.0683481 -0.00147333 0.99774 -0.0422728 0.052225
-0.0858023 -0.419309 -0.0722147 -0.963716 -0.101228 -0.246991
-0.145814 0.511954 -0.257894 -0.0898137 0.992816 0.0790583
0.18865 0.396756 0.0621626 0.993531 0.0670727 0.0916357
0.101812 0.134255 0.174237 0.619871 -0.146303 0.770944
-0.0327772 0.372888 0.229524 0.00836704 0.203982 -0.978939
0.127872 0.220413 0.109842 -0.879906 0.0962977 -0.465286
0.140997 -0.20553 -0.107461 0.79134 -0.0193583 -0.61107
-0.0717077 -0.0867776 -0.11233 0.631746 0.13496 0.763337
0.174391 -0.128571 -0.0274675 0.992407 -0.00755247 -0.122768
-0.124258 0.420993 0.269716 -0.264818 -0.469602 0.842227
-0.150243 0.423477 0.335839 0.0879224 -0.992552 -0.0843209
-0.233098 0.336905 -0.0869311 -0.831692 -0.155862 -0.532913
0.137548 0.299741 0.166553 0.78601 -0.106749 0.608928
-0.00710031 0.302335 -0.192333 0.113432 -0.0161431 -0.993415
-0.0832993 -0.0541424 -0.152517 -0.464325 -0.121682 -0.877266
0.158974 0.068088 -0.0812555 0.915845 -0.0690186 -0.395555
0.0503285 0.292516 0.231819 0.367255 -0.166889 0.915025
-0.15901 0.38693 0.200045 0.554646 0.249958 -0.793655
-0.167683 0.329353 0.219819 -0.561331 -0.255391 0.7872
0.075542 0.389892 0.195169 -0.616229 0.153256 -0.772512
0.146863 0.118807 -0.00679554 -0.994626 0.0418916 0.0946791
0.00924726 -0.483218 0.0415637 0.435547 0.142722 -0.88878
0.142752 0.14249 -0.029857 -0.961271 -0.0194054 0.274922
0.128195 0.403885 -0.069215 -0.847522 0.00163216 0.530758
-0.1684 0.257467 -0.0919814 0.741117 0.159703 0.652105
0.131631 -0.013487 -0.055381 -0.917462 0.0557211 0.393903
0.0625821 0.535946 -0.28533 -0.0896443 0.993229 0.0738902
-0.149906 0.422403 0.378038 -0.134954 -0.741542 0.657194
-0.243977 0.455575 -0.163964 0.168072 -0.979663 -0.109598
-0.231087 0.353263 0.0819747 0.881462 0.352633 -0.314125
0.0586373 0.0470519 0.181162 0.327726 -0.163861 0.930454
0.180123 0.410314 -0.0352746 0.953918 -0.0139545 -0.299744
-0.0593669 0.00974809 -0.13311 0.385024 0.102927 0.917149
-0.116648 -0.120476 0.0175923 0.970344 0.194563 -0.14345
0.14668 0.248092 0.0671064 -0.969928 0.079778 -0.229945
0.004212 -0.504429 0.0350502 0.556709 0.190451 -0.808581
-0.227927 0.370442 -0.104017 -0.731778 -0.160839 -0.662293
0.183779 0.243051 0.0544316 0.985592 -0.0482856 0.162103
0.190139 0.319995 0.0331264 0.997686 -0.0552974 0.039557
-0.277433 0.424015 0.156446 0.00537812 -0.999789 -0.0198139
0.00944714 0.371916 0.262418 0.275187 -0.195156 0.941374
0.0429254 0.388967 0.252245 0.420121 -0.186152 0.88817
-0.261261 0.49554 -0.20481 -0.0705468 0.996664 0.0410484
0.0490979 -0.505269 0.0674926 0.0803574 -0.996598 -0.0183057
0.0534483 0.276222 -0.138422 -0.42473 -0.0303453 0.904812
-0.0639916 0.51412 -0.18055 -0.0770196 0.995271 0.0591921
-0.204161 0.223402 0.031187 0.96951 0.243499 -0.0275351
-0.270969 0.490959 -0.192339 -0.103297 0.991664 0.0770271
-0.392083 0.443727 0.140996 -0.958302 -0.115796 0.261242
-0.119326 0.363098 -0.18497 -0.336084 -0.0822067 -0.938237
-0.095426 0.336935 0.252238 -0.293769 -0.193273 0.936133
-0.215776 0.377782 0.195127 -0.702374 -0.256805 0.663869
-0.105412 0.445211 0.242906 0.27459 0.142402 -0.950958
0.148737 0.150967 -0.102119 0.828602 -0.0302259 -0.559022
0.0453175 -0.394161 0.0934937 0.0566697 -0.195905 0.978984
0.190546 0.329738 0.027193 0.998991 -0.0412872 0.0176529
0.136091 0.332615 0.11035 -0.957958 0.0740992 -0.277174
-0.0630855 -0.164172 -0.110098 0.562999 0.134833 0.815385
-0.236474 0.419422 0.33789 -0.218892 -0.860046 0.460876
0.00174387 -0.232724 0.0916621 0.154471 0.225362 -0.961951
-0.0615101 -0.224479 0.0634389 0.710073 0.240102 -0.661926
0.0673945 0.393239 0.202423 -0.563826 0.147137 -0.812681
0.0101035 -0.154896 -0.137428 0.0242419 0.0442732 0.998725
-0.0367454 -0.427116 -0.0768692 0.921093 0.0456847 0.386653
-0.165364 0.38517 -0.165591 -0.566838 -0.142338 -0.81144
-0.0206714 -0.36902 -0.144152 -0.433345 -0.187868 -0.88143
-0.195572 0.201487 0.00680917 0.965439 0.248928 0.0772117
0.0329114 0.492911 -0.256004 0.109119 -0.984417 -0.137896
-0.0306192 -0.506594 0.00192639 0.158525 -0.982713 -0.0956305
0.108547 -0.153519 -0.0954864 -0.72373 -0.00615671 0.690055
0.126793 -0.278917 -0.0641277 -0.922757 0.0151645 0.385085
-0.230907 0.498764 -0.269139 -0.490853 0.0214031 -0.870979
-0.273542 0.377985 0.0713314 -0.957413 -0.251486 0.141825
-0.113207 -0.282414 -0.0307991 -0.972301 -0.217602 -0.085325
-0.0694913 -0.50494 0.0168493 -0.890415 -0.131202 0.435829
-0.156803 -0.108675 -0.0173963 -0.950054 -0.310047 -0.0356169
-0.0355601 -0.352377 -0.139643 -0.534709 -0.102496 -0.838797
0.136398 -0.407715 -0.0290479 -0.993723 -0.10193 -0.0460904
0.158252 0.179501 -0.082757 0.874454 -0.0179802 -0.484775
-0.134641 0.0105838 -0.064855 0.879762 0.194118 0.433979
-0.0329147 -0.243917 -0.155712 -0.372026 -0.0901232 -0.923837
-0.327269 0.440533 -0.071387 0.0734635 -0.994694 -0.0720163
-0.012907 0.299509 0.249346 0.072953 -0.183256 0.980355
0.116354 0.449459 -0.136797 0.69605 -0.0105107 -0.717916
-0.226534 0.314753 0.0587638 0.968094 0.220591 -0.118888
-0.0627203 -0.1374 -0.11064 0.643317 0.100813 0.758933
0.0743171 -0.406758 0.0521136 -0.33696 0.0542394 -0.939955
0.089757 -0.133857 -0.112543 -0.5667 -0.0657481 0.821297
-0.401814 0.438352 0.105087 -0.983437 -0.101148 0.150401
-0.103119 -0.0632994 -0.138949 -0.612483 -0.130946 -0.779562
0.117226 -0.368563 -0.0813904 -0.848472 -0.110403 0.517596
-0.0511455 -0.503231 -0.0634802 0.109075 -0.989525 -0.0945635
0.130106 0.508404 -0.0658148 -0.838862 -0.021272 0.543929
-0.232147 0.262988 0.113473 -0.893098 -0.25248 0.372331
-0.151255 0.00729432 0.00658391 0.971295 0.237692 0.00938157
0.0505862 0.0990937 0.193457 0.452767 -0.206802 0.867315
-0.108934 -0.0520594 -0.0800381 0.832414 0.199326 0.517065
-0.284411 0.451714 0.251365 -0.178052 0.972875 0.147688
0.103462 0.18126 0.182658 0.585097 -0.167393 0.793499
-0.070036 -0.112743 0.0977216 0.598064 0.256603 -0.759259
0.114906 -0.348832 0.0776653 0.591281 -0.142772 0.793727
0.151617 0.285665 0.00129285 -0.990732 -0.0155912 0.134933
-0.255988 0.328991 0.0957228 -0.92714 -0.241058 0.286884
0.118124 0.408086 0.157599 -0.819559 0.119334 -0.56043
0.105493 -0.330744 0.0875137 0.543554 -0.159311 0.824117
0.00449075 0.132106 0.210577 0.109 -0.202471 0.973203
0.140614 0.343291 -0.0409157 -0.940417 0.0298997 0.338707
-0.27023 0.48922 -0.241705 -0.515174 0.0506475 -0.855588
-0.356394 0.440783 -0.113538 0.121314 -0.986859 -0.106733
-0.0670626 0.311098 -0.192855 -0.219602 -0.0509189 -0.97426
-0.021396 0.486956 -0.239933 0.146066 -0.984479 -0.0972954
0.170303 -0.0713859 0.0476244 0.947788 -0.0620098 0.312814
0.00805633 0.0684753 -0.14792 -0.0680584 0.041235 0.996829
-0.0520337 -0.0030997 -0.173112 -0.277995 -0.0726976 -0.957828
-0.248914 0.415464 0.0791942 0.944107 0.260403 -0.202121
0.0934917 -0.255875 0.0672278 -0.631201 0.20785 -0.747251
-0.00824462 0.125894 -0.185923 0.000523834 -0.000391689 -1
0.165191 0.47118 0.325368 0.5911 0.00464309 0.806585
0.0279305 0.426972 0.27 0.34569 -0.295413 0.890634
0.275089 0.524366 -0.101272 0.938108 0.0710775 -0.338972
0.0594241 -0.0532558 0.125884 -0.401697 0.187864 -0.896296
-0.0725053 0.0590013 -0.132993 0.375624 0.116151 0.919465
-0.0732226 0.305749 -0.156444 0.190545 0.100896 0.97648
-0.14834 0.0576855 -0.0565586 0.892088 0.188999 0.410437
0.0770142 0.106452 -0.163903 0.450881 -0.0180016 -0.892403
0.16626 -0.078665 -0.0633204 0.948017 -0.0344649 -0.316347
0.0342022 0.523761 -0.199994 -0.0732237 0.994355 0.0767897
0.130168 -0.100355 0.0418241 -0.926779 0.0697417 -0.369075
-0.240896 0.443299 0.125679 0.899556 0.235564 -0.367842
0.151201 0.403235 0.0853299 -0.954177 0.0644351 -0.292224
0.00605348 -0.462827 0.0437096 0.49232 0.114884 -0.862799
0.150452 0.231569 0.0513762 -0.98826 0.0164287 -0.151893
0.174739 0.205447 0.0822505 0.971929 -0.00701964 0.235171
-0.112995 0.475671 -0.235326 0.0742066 -0.995989 -0.0499943
-0.378936 0.423513 0.0762899 0.124624 -0.986712 -0.104247
0.175555 0.466026 0.253539 0.0513866 -0.99737 -0.0511135
-0.0766213 -0.098768 -0.108252 0.631353 0.136763 0.763341
-0.1998 0.456955 0.296835 -0.178444 0.979391 0.094611
-0.0732955 -0.169046 -0.141901 -0.576299 -0.100853 -0.810992
0.18427 0.502173 0.242181 -0.110213 0.989881 0.0893766
0.0621489 -0.501964 0.0471335 -0.140047 0.19537 -0.970679
0.156284 0.200201 -0.0864656 0.882806 -0.00784382 -0.469672
-0.101524 0.428799 0.330376 0.10586 -0.990077 -0.092417
-0.211134 0.25064 0.0145691 0.970425 0.235825 0.0516016
-0.109595 0.279145 0.232085 -0.316869 -0.281229 0.905817
-0.373448 0.436399 -0.0844382 -0.0762186 -0.974765 -0.209821
0.109033 -0.178986 -0.0926758 -0.758083 -0.00189165 0.652155
-0.0320995 -0.296679 -0.107817 0.612359 0.156762 0.774882
0.117252 -0.478318 -0.152522 0.102218 -0.993149 -0.0566337
0.127011 0.283639 -0.0670149 -0.870903 -0.00625492 0.491415
0.0432808 0.412136 -0.14464 -0.497568 0.0539671 0.865744
-0.0595487 0.461255 -0.168657 0.00897776 0.0869672 0.996171
0.108264 -0.263531 -0.0927978 -0.766444 0.0456128 0.64069
-0.180486 -0.0130291 0.00442822 -0.973976 -0.226479 0.00885855
-0.00343012 -0.441522 -0.11643 0.605357 -0.0516741 0.794275
0.186512 0.203135 0.0276146 0.999847 -0.00277171 0.0172533
-0.195738 0.181324 -0.0922029 -0.842725 -0.177595 -0.508207
0.136979 -0.00531462 -0.0391093 -0.973148 0.0385583 0.226927
0.172685 0.153581 0.0854186 0.926509 -0.0796351 0.367749
-0.245347 0.407707 0.175729 -0.778867 -0.324813 0.536528
0.0453944 0.23892 -0.179356 0.408014 -0.0552913 -0.9113
0.0342878 0.513544 -0.304807 0.210121 0.149116 -0.966237
0.188086 0.269611 0.0147345 0.999611 -0.023677 -0.0147174
0.0979834 0.232071 0.150167 -0.70975 0.113814 -0.695198
-0.0420225 -0.305399 -0.0917117 0.295356 0.87404 0.385771
0.128283 0.131138 0.0898797 -0.879978 0.0910725 -0.466202
0.119032 0.368426 0.145738 -0.828481 0.065031 -0.556229
0.0663107 0.101114 -0.128817 -0.546463 0.0717331 0.834405
-0.234841 0.357752 0.163637 -0.790989 -0.268914 0.549564
-0.208368 0.389468 -0.0779849 0.807602 0.18286 0.560662
-0.108968 0.467315 0.304324 -0.0674334 0.99735 -0.0273158
0.153203 0.31571 0.00955906 -0.994482 0.0376241 0.0979314
-0.362275 0.47145 -0.0987696 -0.110498 0.989158 0.0967315
0.0858226 0.387076 0.230028 0.535228 -0.131197 0.834457
-0.0952646 -0.274099 -0.0938104 -0.864815 -0.18008 -0.468686
-0.158094 0.151843 -0.075582 0.833205 0.186128 0.520698
-0.0376628 -0.473983 0.0659733 -0.639256 -0.0998166 0.762488
0.177385 -0.0262238 -0.0137182 0.997789 -0.0635539 0.0194562
-0.0481795 -0.316283 -0.135061 -0.537588 -0.124141 -0.834019
-0.154758 0.382328 -0.129796 0.486055 0.144794 0.86185
-0.0990748 0.0382481 0.17008 -0.47203 -0.252964 0.84451
-0.136678 0.0378842 -0.0693065 0.852769 0.20926 0.478534
0.0947795 0.170138 -0.152095 0.510937 0.0364346 -0.858846
0.168488 -0.103873 -0.0601031 0.965151 -0.0723778 -0.251486
0.0515608 -0.283358 -0.129396 -0.198477 0.036353 0.979431
-0.0211546 0.385611 -0.162974 -0.0789766 0.0511907 0.995561
-0.238319 0.492835 -0.15308 -0.0542281 0.996649 0.0612425
0.112276 -0.248168 -0.136691 0.603991 -0.0931614 -0.791527
