ply
format ascii 1.0
comment Created by Open3D
element vertex 512
property double x
property double y
property double z
property double nx
property double ny
property double nz
end_header
-0.319548 0.0419306 0.352637 -0.764306 -0.543994 0.346276
-0.449784 -0.0662491 0.205936 -0.899657 -0.122051 0.41919
-0.43806 -0.131045 -0.197334 -0.879975 -0.27331 -0.388517
-0.278023 2.25593e-05 -0.0794007 -0.585955 0.469183 -0.660699
-0.193082 0.13176 0.00362433 -0.56573 0.799732 -0.200943
0.201329 -0.0824166 0.0887012 0.623275 -0.559671 0.546165
-0.308095 -0.237608 0.316168 -0.663675 -0.428839 0.612888
-0.380537 -0.0930183 0.243057 0.586019 -0.425781 0.689414
-0.274653 -0.377408 0.179417 -0.530781 -0.769708 0.354712
-0.147387 -0.315958 0.354385 -0.382717 -0.571956 0.72553
-0.47098 -0.162611 -0.0118913 -0.951066 -0.307002 -0.0349755
0.00470184 -0.111403 -0.190516 -0.0595604 -0.558211 -0.827558
0.168335 -0.108726 -0.159106 0.310209 -0.805656 -0.504666
-0.373906 -0.156926 0.199421 0.639391 -0.415817 0.646742
-0.138096 -0.0460291 0.480932 -0.315652 -0.108654 0.942634
-0.259371 0.0934698 0.419416 -0.553074 0.14658 0.820136
-0.27329 -0.327434 0.259796 -0.572178 -0.635359 0.518586
-0.204317 0.0435061 0.45704 -0.435266 0.0327565 0.899706
0.0227686 -0.471578 0.171345 0.787746 0.511532 -0.343209
-0.346513 0.0324292 0.116427 0.801401 0.495558 -0.33493
0.127979 0.173434 0.146449 0.0953074 0.470469 0.877255
0.365579 0.0170944 -0.0129858 0.764229 0.562188 -0.316067
0.18058 0.281956 0.0754839 -0.0656569 0.621033 0.781029
-0.0327944 0.180859 -0.177276 -0.575077 0.504725 -0.643847
-0.0167644 0.114984 0.187899 -0.00306622 0.554718 0.832033
-0.39347 0.132166 0.278022 -0.799276 0.202555 0.5658
-0.345508 0.0364771 0.295486 0.616561 -0.436018 0.655546
-0.313004 0.0457278 0.213977 0.799418 0.489856 -0.347809
0.00109601 -0.251877 0.116392 0.674185 -0.708609 0.208204
0.463556 0.284914 0.0164906 0.791283 0.501601 -0.349669
-0.154372 -0.462115 0.100169 -0.308315 -0.929597 0.201969
-0.0296613 -0.267103 -0.0277844 0.480822 -0.760945 -0.43563
-0.154543 -0.471246 0.0342575 -0.310254 -0.946731 0.0862778
0.0172917 0.231651 0.0797138 -0.341555 0.818843 0.461342
0.111658 -0.0710886 -0.209902 0.0804796 -0.673206 -0.735062
-0.285341 -0.278198 0.209693 -0.535356 0.458241 -0.709513
-0.201402 0.0628026 0.200462 0.741449 0.562383 -0.36603
-0.236372 -0.428964 0.0720802 -0.540279 0.384802 -0.748349
-0.0908439 -0.0180584 0.263955 0.185759 0.379112 0.906514
-0.0122821 -0.334731 0.298884 0.70967 0.626032 -0.32319
-0.284394 -0.122454 -0.112145 -0.453902 0.0481871 -0.889748
0.22622 0.351528 -0.302549 -0.566474 0.443282 -0.6947
-0.410724 -0.0870229 -0.203088 0.74224 0.56474 -0.36076
0.130425 0.0407256 0.179286 0.328135 0.10107 0.939208
-0.40541 0.112568 0.1143 0.790273 0.51007 -0.339555
-0.206777 -0.398099 -0.0671073 -0.7896 -0.499188 0.356853
-0.205955 -0.30158 0.12374 -0.588133 0.429671 -0.685188
-0.329475 -0.164724 -0.143185 0.767712 0.534268 -0.353802
-0.20691 0.0418033 -0.108379 -0.631401 0.488289 -0.602417
0.340896 0.298013 -0.219622 0.750635 0.551284 -0.364188
-0.433122 0.156727 0.117356 0.752534 0.547118 -0.366543
-0.350471 0.102006 0.215886 0.762304 0.545264 -0.348684
0.161454 -0.158778 -0.0173842 0.566602 -0.823985 -0.00334755
-0.29752 -0.155325 0.368037 -0.594915 -0.328991 0.733376
-0.214373 -0.420281 -0.157291 -0.453483 -0.848001 -0.274314
0.225979 0.0743342 -0.308631 -0.149706 -0.433303 -0.888728
-0.0261618 -0.379357 0.201011 0.760118 0.549165 -0.34733
-0.0255019 -0.219397 0.448841 -0.0722413 -0.495222 0.865758
0.00436446 0.0419208 0.222735 0.205322 0.312389 0.9275
0.265922 -0.0465085 -0.186817 0.348243 -0.821209 -0.452042
-0.290659 -0.39177 -0.0912065 -0.595966 -0.785586 -0.166373
0.18168 0.0262813 -0.278233 -0.0577078 -0.49122 -0.869122
0.177599 0.132302 -0.312593 -0.268907 -0.152074 -0.951085
-0.289053 -0.0627308 0.263398 -0.815125 -0.489571 0.309665
-0.354239 -0.340625 -0.0736352 -0.705257 -0.691103 -0.158082
0.396687 0.292042 -0.104896 0.75698 0.555681 -0.343803
0.500498 0.134598 -0.0347276 0.557809 -0.53285 0.636334
-0.154984 -0.00166821 -0.163962 -0.531653 0.165256 -0.830684
-0.0995592 -0.276602 -0.0594457 0.277588 -0.76634 -0.579369
-0.268531 -0.21811 0.233126 -0.602626 0.426477 -0.674507
-0.272966 -0.0657468 0.330509 -0.605276 0.439863 -0.663447
-0.432295 0.183241 0.175788 -0.888899 0.333601 0.313957
-0.420791 -0.184396 0.189791 -0.854384 -0.356926 0.377666
-0.261428 0.0462988 0.320447 0.723819 0.576783 -0.378692
-0.14714 -0.435533 -0.155448 0.745095 0.559151 -0.363571
0.0190161 0.279552 -0.0392091 -0.535999 0.837548 0.105918
0.481128 0.189965 -0.078712 0.773531 0.529334 -0.348504
0.158474 0.22305 0.115232 0.0174798 0.531733 0.846732
-0.447181 -0.203275 -0.0862706 -0.893138 -0.415853 -0.171378
0.309404 0.37417 -0.181047 0.822573 0.466411 -0.325323
-0.0962639 -0.340596 0.0984387 0.757049 0.556408 -0.342473
-0.0514326 -0.319655 0.239151 0.817475 0.471777 -0.330396
-0.0127943 -0.188549 0.216087 0.584451 -0.43372 0.685787
-0.145445 -0.132717 0.30634 0.803383 0.492776 -0.334287
0.369221 0.241484 -0.249898 0.808607 0.475387 -0.346643
0.225075 -0.0903782 0.0354407 0.614703 -0.703969 0.355763
-0.213112 -0.235798 0.383296 -0.446239 -0.45552 0.770306
0.221395 0.406461 -0.21824 -0.68661 0.686713 -0.238728
0.499937 0.14241 -0.110209 0.784348 0.519422 -0.339114
-0.332468 -0.333397 -0.162688 -0.650215 -0.697044 -0.302243
0.031363 -0.40035 0.294766 0.728471 0.587697 -0.352056
0.011821 0.00125164 -0.238352 -0.194567 -0.282528 -0.93932
-0.489338 -0.0684889 0.0636825 -0.993758 -0.10205 0.0450705
-0.317315 -0.0532878 -0.0771586 -0.574296 0.34917 -0.740448
-0.249 0.0538939 -0.0541039 -0.611889 0.607806 -0.506126
-0.0330201 -0.437485 0.0943238 0.821159 0.440278 -0.363116
0.121485 0.157692 -0.294962 -0.473246 0.0477455 -0.879636
0.395225 0.126121 0.0496677 0.551802 -0.284295 0.784022
-0.261442 -0.233952 0.0592567 -0.782378 -0.515644 0.349279
-0.120877 -0.13096 0.368026 0.749588 0.561142 -0.351053
-0.0246341 -0.418065 0.142867 0.807784 0.464111 -0.363437
-0.340572 0.122894 0.268829 0.778846 0.519234 -0.351844
-0.0828213 -0.261029 0.252095 0.721999 0.576748 -0.382204
-0.0661242 -0.496407 -0.0270806 -0.171812 -0.98482 -0.0247169
0.340072 0.0521943 -0.285843 0.169343 -0.69295 -0.700816
-0.357171 -0.158202 -0.192324 0.783199 0.516523 -0.346126
-0.0772099 -0.100796 0.27718 0.372772 0.0627134 0.925801
-0.282853 -0.0101657 0.408558 -0.557043 -0.0169655 0.83031
-0.475192 -0.0740321 -0.129341 -0.958106 -0.15828 -0.238706
0.0811788 0.304079 -0.175007 -0.631538 0.700159 -0.333072
-0.0775169 -0.319504 0.0580027 0.485855 -0.867172 -0.109356
0.123497 -0.172661 -0.0642214 0.488039 -0.821843 -0.293924
-0.193008 -0.331461 0.0674801 -0.800168 -0.491267 0.344075
-0.232129 -0.299664 -0.139389 0.759536 0.541139 -0.360935
0.425705 0.231355 0.0435355 0.408327 -0.0105592 0.912775
0.245991 0.0932424 0.130618 0.765523 0.538222 -0.352549
0.0257127 -0.216487 0.147849 0.673357 -0.621274 0.40076
-0.214182 -0.233893 0.166088 -0.782975 -0.521183 0.339586
-0.309287 -0.055774 0.373786 -0.60352 0.42746 -0.673084
-0.494224 0.0440463 0.0385035 -0.99205 0.091283 0.0866324
-0.228122 -0.0113366 -0.123968 -0.582931 0.287267 -0.760046
0.0233252 -0.0135366 0.229012 0.4129 0.084344 0.906862
0.252891 -0.0875536 -0.0407377 0.616457 -0.787371 0.00529235
0.027446 -0.426822 0.249189 0.744801 0.569861 -0.347175
-0.15772 -0.192963 -0.134121 -0.0995065 -0.432516 -0.896118
-0.274412 0.0145331 0.251117 0.791624 0.514991 -0.32881
0.0910552 0.112045 -0.281159 -0.456829 -0.0331478 -0.888937
0.413661 0.17575 0.0487742 0.461604 -0.152025 0.873962
0.07451 0.0186202 -0.258551 -0.220732 -0.278538 -0.934716
-0.196038 -0.0412284 0.456474 -0.463833 -0.00505774 0.885908
-0.273878 -0.36909 -0.190786 -0.549226 -0.741298 -0.385783
0.467512 0.129412 -0.20317 0.75222 0.54788 -0.366051
-0.362088 -0.208272 -0.27589 -0.749521 -0.416356 -0.514651
-0.174498 -0.414202 -0.0180171 -0.729286 -0.58932 0.347627
-0.027272 -0.0151749 0.246794 0.301763 0.161947 0.939528
0.466827 0.056007 -0.175405 -0.762059 -0.573539 0.300532
-0.231603 -0.175584 0.403835 -0.413838 -0.365601 0.833711
-0.48969 0.00511214 -0.0998036 -0.987154 -0.0200339 -0.158509
0.0605115 -0.11398 -0.184794 0.124344 -0.646456 -0.75275
0.265641 0.145447 0.119482 0.708781 0.601301 -0.368872
-0.114543 -0.180605 0.290788 0.509358 -0.128055 0.850974
-0.297195 -0.38908 -0.0177518 0.576434 -0.432607 0.693235
0.0228223 0.0614628 -0.25172 -0.414163 -0.0385869 -0.909384
0.0645339 0.0462037 0.204608 0.277986 0.210527 0.937231
-0.0888443 -0.487675 0.0341469 -0.142687 -0.988062 0.0580933
-0.472117 0.160187 0.0516923 -0.964652 0.214884 0.152547
-0.210154 -0.0227169 0.3314 0.744358 0.559869 -0.363976
-0.485191 -0.10195 -0.017686 -0.986567 -0.143953 -0.0772202
-0.332544 0.158738 0.340094 -0.702288 0.262742 0.661633
-0.0108248 0.246171 0.0280702 -0.415116 0.873084 0.255739
-0.402071 0.186096 0.228761 -0.810635 0.299131 0.503381
-0.0651837 -0.395058 0.0915033 0.769717 0.533676 -0.350321
-0.336786 -0.116795 -0.0857421 0.79482 0.495414 -0.350465
0.366841 0.0584012 0.0299933 -0.71062 -0.608485 0.353221
-0.244242 -0.411988 0.142586 -0.450149 -0.849821 0.274172
0.143777 0.244133 -0.293088 -0.564425 0.277574 -0.777417
-0.0941764 -0.39346 0.0279214 0.7337 0.578203 -0.356883
0.159717 0.352061 -0.0235341 -0.359706 0.862007 0.357149
-0.175212 -0.244249 -0.104093 0.0337179 -0.507432 -0.861032
0.0300406 0.0906277 0.193926 0.139211 0.467487 0.87297
0.379414 0.275705 -0.175935 0.726539 0.573509 -0.378456
-0.169169 -0.377602 -0.11592 0.664944 0.676201 -0.317179
-0.067565 0.19246 -0.116872 -0.609884 0.677807 -0.410633
-0.381947 0.0745577 0.308957 -0.778571 0.177844 0.601829
0.458271 0.0832643 -0.0454337 0.648846 -0.621388 0.439175
0.429739 0.0310329 -0.126029 0.551456 -0.82371 0.131899
-0.0187102 -0.345331 0.359846 -0.0558854 -0.698571 0.713355
0.121019 0.345521 -0.0666997 -0.503837 0.842011 0.192782
-0.475669 -0.125471 -0.0762811 -0.941589 -0.212722 -0.261073
-0.00990527 -0.12829 0.238227 0.499339 -0.18864 0.845621
-0.240141 0.00836039 0.437394 -0.52923 0.0405946 0.847507
0.140201 0.31878 0.0194331 -0.301121 0.809182 0.504531
-0.128495 -0.095234 0.403858 0.707512 0.608606 -0.359202
-0.396811 -0.0066426 -0.0517217 0.810754 0.490808 -0.319038
-0.45823 -0.191506 0.0586171 -0.926701 -0.362937 0.0974822
0.17915 -0.0465519 0.13643 0.598912 -0.401279 0.693022
-0.0794992 -0.198549 0.451613 -0.156076 -0.443058 0.882802
-0.319975 -0.0525172 0.213655 0.627361 -0.43085 0.648681
-0.0746882 0.0273635 0.241656 0.132173 0.444281 0.886084
-0.455499 0.0793104 0.184979 -0.917808 0.140046 0.371505
-0.225237 0.11147 0.0571791 -0.552874 0.831252 0.0578838
-0.148237 -0.261312 0.396268 -0.301485 -0.521142 0.798447
-0.179063 -0.454972 -0.0975094 -0.268579 -0.942819 -0.197378
-0.480176 -0.0582885 0.120892 -0.95552 -0.148792 0.254643
0.471016 0.0928857 -0.248493 0.792873 0.492698 -0.358611
-0.466183 0.0189483 -0.170352 0.787007 0.490744 -0.373885
-0.442164 -0.00299389 0.231141 -0.887524 0.0228474 0.460194
0.293352 -0.0386679 0.0122998 0.771353 0.55015 -0.319921
-0.45494 -0.0368115 -0.204959 -0.917091 -0.0725891 -0.392013
-0.0514986 -0.217688 0.386264 0.738253 0.570135 -0.360458
0.223731 0.225213 -0.340136 -0.445271 0.0178074 -0.895219
-0.0570916 -0.446214 0.0309701 0.760691 0.536627 -0.365214
0.425135 0.0369305 -0.20708 0.445618 -0.856697 -0.259797
-0.389779 -0.149222 -0.253826 0.784354 0.524629 -0.330989
0.421993 0.339531 0.0203663 0.760938 0.553777 -0.338088
-0.240658 -0.305465 -0.000483183 -0.796974 -0.49185 0.350594
-0.493092 0.0684669 -0.0578136 -0.993778 0.0963586 -0.0558564
-0.24481 -0.349023 -0.0392813 0.589039 -0.424938 0.687358
-0.41472 -0.257778 -0.105325 -0.824762 -0.498441 -0.267066
0.231062 0.283888 -0.340822 -0.518018 0.20122 -0.831365
0.463719 0.168011 0.0132898 -0.748899 -0.568894 0.339866
0.32399 0.412421 -0.0251063 -0.76718 -0.522297 0.372345
-0.40645 0.0209215 0.286651 -0.778945 -0.0369864 0.626
-0.0251245 0.0388293 -0.224906 -0.340825 -0.00851929 -0.940088
-0.192846 -0.367907 0.00982254 -0.765587 -0.538639 0.351772
0.335468 0.222777 -0.354944 0.758739 0.544459 -0.357602
-0.121939 0.121997 -0.138349 -0.601676 0.510362 -0.614424
0.381992 0.0438915 -0.260008 0.269198 -0.788414 -0.553115
-0.072771 -0.409985 0.273092 -0.146433 -0.834979 0.530441
0.305638 0.173633 -0.35904 -0.21408 -0.334217 -0.917861
0.308752 0.277275 -0.328953 0.72832 0.57336 -0.375244
-0.0974157 -0.0906798 0.477067 0.766869 0.539779 -0.347204
-0.316744 -0.00910998 0.279337 -0.805076 -0.495065 0.326746
-0.274398 0.074331 0.110662 -0.564436 0.79155 0.234223
-0.183298 -0.437231 0.151275 -0.327674 -0.898623 0.291731
-0.134761 -0.112466 -0.169983 -0.790719 -0.50392 0.347603
0.353669 -0.0214222 -0.0722526 0.559566 -0.804488 0.199212
0.0751726 -0.0166968 0.207946 0.359594 -0.0120505 0.933031
-0.16304 0.135422 -0.0682443 -0.58076 0.686185 -0.438027
0.134517 0.33698 -0.200902 -0.590283 0.679504 -0.435707
-0.343347 -0.361804 -0.0133957 -0.656672 -0.75333 -0.0357191
0.193851 0.147758 0.144753 0.256557 0.250364 0.93354
0.280932 0.447817 -0.11059 -0.460842 0.847765 0.262523
-0.231044 -0.274164 0.0671347 -0.7634 -0.538478 0.35674
-0.318328 -0.290357 0.253946 -0.619872 -0.586482 0.521342
-0.0414394 -0.23248 0.214435 0.70932 -0.439922 0.550758
0.180034 -0.131268 0.0223701 0.552921 -0.800391 0.231631
-0.463161 -0.0904183 0.162031 -0.920145 -0.199425 0.336991
-0.0430839 0.0670086 0.217288 0.0619273 0.446741 0.892518
0.366233 0.366369 -0.0637947 0.752879 0.554631 -0.354341
-0.13958 0.118663 0.149728 -0.294339 0.740985 0.603577
-0.124898 -0.364522 0.315841 -0.246725 -0.725377 0.642615
-0.366023 0.170882 0.293541 -0.76086 0.293233 0.578884
0.0506749 0.207604 0.121241 -0.131538 0.615861 0.776796
-0.1697 0.0992581 -0.10648 -0.60536 0.554112 -0.571401
-0.380452 0.00757925 0.000362993 0.743765 0.5633 -0.35987
0.140218 0.0838525 -0.296692 -0.294564 -0.239286 -0.925189
-0.173876 -0.426224 -0.196021 0.773912 0.528077 -0.349564
-0.242802 -0.00661152 0.288142 0.749005 0.574892 -0.329379
0.240253 0.00197528 0.111664 0.563005 -0.347608 0.749796
0.11189 -0.105777 0.161381 0.633657 -0.402778 0.660491
-0.490426 -0.0522517 -0.0690454 -0.983966 -0.105528 -0.143789
-0.0628703 -0.366807 0.330636 -0.139777 -0.727018 0.672241
0.437055 0.119943 0.0118151 -0.749948 -0.575712 0.325782
-0.483031 -0.121798 0.0467761 -0.964483 -0.249019 0.0880997
0.0376298 -0.0443593 -0.228018 -0.1109 -0.413113 -0.903902
-0.424513 -0.241441 0.0947808 -0.873625 -0.461068 0.155548
-0.279685 -0.208647 0.354805 -0.49371 -0.490444 0.718133
0.074935 -0.18188 0.129713 0.752238 0.568226 -0.333551
-0.478272 0.104189 0.0953359 -0.952147 0.192754 0.237196
-0.283046 -0.252663 -0.170985 0.795596 0.502531 -0.338364
-0.0502911 -0.0240222 -0.214549 -0.27605 -0.190116 -0.942153
0.372417 0.0146872 -0.218177 0.388973 -0.820598 -0.41871
-0.128926 -0.333482 0.0181953 0.411141 -0.859448 -0.303829
-0.42144 0.0646158 0.00705388 0.786752 0.512855 -0.343513
0.232259 0.426506 -0.152654 -0.533877 0.845256 0.0227526
0.405584 0.317739 -0.0452817 0.742217 0.575667 -0.343104
0.0741374 -0.159083 -0.133013 0.763589 0.558949 -0.323277
-0.392667 -0.0305895 0.293873 0.60065 -0.426938 0.675976
-0.290345 -0.100223 0.197686 -0.782063 -0.521611 0.341028
-0.132039 -0.0586241 0.286816 0.209887 0.305322 0.92883
-0.435251 0.126114 0.202774 -0.87489 0.243354 0.418744
-0.343674 -0.315646 0.0688927 0.603392 -0.427958 0.672882
0.195977 0.311841 -0.303179 -0.574244 0.390872 -0.719349
-0.410427 -0.235422 0.165149 -0.819042 -0.468321 0.33143
0.280558 0.236436 -0.366686 -0.411685 -0.0869284 -0.907171
-0.482388 0.0458768 0.113327 -0.972303 0.0813498 0.219112
-0.00765105 -0.202013 -0.113547 0.216131 -0.754304 -0.619929
-0.00357215 -0.370615 0.262345 0.793545 0.526249 -0.305531
0.0662972 0.314549 -0.0643992 -0.550046 0.828401 0.105836
0.396641 0.18458 -0.271027 0.785191 0.513916 -0.345493
0.448378 0.236309 -0.0798869 0.780812 0.50725 -0.364733
-0.150766 -0.396161 0.262754 -0.310254 -0.789305 0.529849
0.211156 0.339536 0.0196707 -0.220848 0.776643 0.589959
-0.0818749 -0.164972 0.400957 0.793668 0.502513 -0.342888
0.0770757 0.167168 0.149562 0.0622738 0.534661 0.842769
-0.0489409 -0.297995 0.120157 0.624129 -0.775683 0.093694
0.0460767 -0.195744 -0.09842 0.353186 -0.821969 -0.446796
-0.485494 -0.00626133 0.104604 -0.980966 0.0116252 0.193831
-0.043853 -0.258708 0.337431 0.803286 0.501344 -0.321537
-0.0868231 0.200681 -0.0636149 -0.657725 0.741077 -0.134918
-0.271652 -0.0573936 -0.107576 -0.53232 0.236584 -0.812812
0.158635 0.374971 -0.111316 -0.505951 0.862277 0.0221881
-0.157079 0.0620394 -0.146635 -0.583556 0.368958 -0.723417
-0.386874 0.0415687 0.0419949 0.782328 0.515053 -0.35026
-0.0906371 -0.431879 -0.0255099 0.767552 0.546238 -0.335391
0.0189321 -0.160154 -0.146323 0.118295 -0.635923 -0.762632
-0.197114 0.10255 0.146569 -0.392561 0.772069 0.499805
-0.0291898 -0.499101 0.0197431 -0.149762 -0.984389 0.0924645
0.130727 0.285656 0.0585426 0.801799 0.486259 -0.347375
0.101341 0.241836 0.0977077 -0.102423 0.706471 0.700292
0.202466 0.36755 -0.260481 -0.627019 0.607374 -0.487795
0.471562 0.240004 -0.0227502 0.720791 0.568904 -0.395992
-0.0247893 -0.285066 0.0526852 0.550146 -0.819478 -0.160612
-0.00446331 0.23742 -0.148255 -0.634181 0.663724 -0.396592
0.282144 0.0726786 -0.307659 -0.823912 -0.467333 0.320575
-0.138045 -0.477733 -0.0410551 -0.300138 -0.953362 -0.0318915
-0.0404244 0.192723 0.107143 -0.30383 0.756849 0.578677
-0.306258 -0.337138 0.204137 -0.566161 -0.727504 0.387556
-0.0635984 -0.460224 0.182589 -0.159886 -0.91124 0.379577
0.362928 0.343464 -0.111411 0.726776 0.577309 -0.37217
-0.234075 -0.154853 -0.130592 -0.318291 -0.159891 -0.934412
0.0668141 0.276081 0.0324278 -0.337514 0.766099 0.546971
0.0260763 -0.234532 -0.0330058 0.482956 -0.811968 -0.327812
-0.277851 0.0919129 0.359823 0.750697 0.557674 -0.354193
0.337033 0.265636 0.0733023 0.143292 0.322905 0.935521
-0.253403 -0.332633 0.14711 -0.631538 0.437108 -0.640387
0.362842 0.211573 -0.306671 0.775028 0.522807 -0.354971
-0.112489 -0.16756 -0.15214 0.0105655 -0.387689 -0.92173
0.300631 -0.0603239 -0.0707934 0.596487 -0.797744 -0.0883675
-0.300726 -0.310985 0.0348197 0.606774 -0.445137 0.658543
-0.166452 -0.0813643 0.337056 0.774735 0.526099 -0.350722
-0.237198 -0.37867 0.223577 -0.48874 -0.742033 0.458826
0.41214 0.0701806 0.00102962 0.628029 -0.5343 0.565777
0.0500376 0.241704 -0.213999 -0.576655 0.50061 -0.645646
-0.278825 0.0439303 0.411073 -0.576278 0.202472 0.791776
0.119156 -0.0391857 0.177455 0.506308 -0.204141 0.837842
0.408017 0.0375544 -0.0485799 0.596806 -0.688153 0.412636
-0.394222 -0.294225 0.0865457 -0.748026 -0.627815 0.215186
0.0315768 0.148563 0.164808 4.67768e-05 0.602795 0.797896
-0.0719741 -0.143364 0.4555 0.776994 0.525034 -0.347302
-0.17634 -0.0480112 -0.159308 -0.450626 0.025367 -0.892353
0.313894 0.215686 0.0926724 0.282767 0.165294 0.944839
0.0960305 0.273886 -0.231664 -0.65588 0.525773 -0.54165
0.211164 -0.0477797 -0.21034 0.212657 -0.732572 -0.646619
-0.0737824 -0.325045 0.367211 -0.152167 -0.66095 0.734841
0.0428699 0.273034 -0.156379 -0.608675 0.705385 -0.363245
-0.362322 0.078334 0.147991 0.758997 0.554086 -0.341925
0.32832 0.286483 -0.268618 0.803101 0.521676 -0.287893
0.113657 0.127857 0.167623 0.788831 0.494833 -0.364536
0.140635 -0.166877 0.0382082 0.63748 -0.755569 0.150784
-0.0816022 -0.304695 0.00286235 0.402655 -0.855054 -0.326729
-0.140475 0.0773213 0.200425 -0.209783 0.76275 0.611722
0.403005 0.225965 -0.193197 0.754076 0.573982 -0.319239
-0.0302503 -0.0747675 -0.20701 -0.172421 -0.351202 -0.920287
-0.274565 -0.165996 0.270999 -0.637244 0.407272 -0.654254
-0.132285 -0.435983 0.201621 -0.299523 -0.8578 0.41769
-0.412473 -0.278942 0.0112074 -0.78058 -0.62498 0.00972894
0.505027 0.195493 -0.0105039 0.743153 0.558934 -0.367855
-0.466635 -0.017762 0.177291 -0.935391 -0.0233781 0.35284
-0.297478 -0.124559 0.150146 0.625234 -0.430918 0.650685
-0.0458376 -0.137387 -0.171616 0.0110127 -0.538649 -0.842458
-0.20533 -0.339062 0.303369 -0.422196 -0.64692 0.635016
-0.0277535 0.247367 -0.0253892 -0.555924 0.817455 0.150718
-0.326055 0.00724622 -0.0165902 -0.671761 0.617697 -0.408886
0.433744 0.172437 -0.21435 0.770596 0.534427 -0.347232
-0.15373 -0.206824 0.426733 -0.347516 -0.394821 0.850499
-0.115003 -0.058681 -0.186557 -0.427027 -0.100593 -0.898626
0.180562 0.203334 -0.319824 -0.448952 0.0905145 -0.88896
-0.0837343 -0.199037 0.346945 0.736629 0.566707 -0.369082
0.161282 0.321635 -0.26148 -0.577819 0.541013 -0.61109
-0.363698 -0.202077 0.160174 0.58324 -0.422927 0.693515
-0.0867899 -0.228432 0.295602 0.760667 0.546248 -0.350713
-0.00741062 -0.293482 0.370371 0.760554 0.541282 -0.358569
-0.218058 -0.386461 -0.226484 0.804485 0.497399 -0.324649
-0.257598 -0.304557 -0.198871 0.733452 0.567698 -0.373853
-0.100152 -0.238168 -0.101701 0.128279 -0.674344 -0.72719
-0.279975 -0.0139881 0.354988 -0.786594 -0.507823 0.351263
-0.446002 -0.182507 0.136791 -0.904088 -0.334682 0.265732
-0.299046 -0.298593 -0.271411 -0.640926 -0.605902 -0.471271
-0.350329 -0.2765 -0.225003 -0.677352 -0.556264 -0.481419
0.0912959 -0.19565 -0.0218375 0.489696 -0.865759 -0.10324
-0.279846 -0.124845 0.300232 -0.612919 0.428075 -0.66414
0.0853559 0.217721 -0.255121 -0.591139 0.3323 -0.734937
-0.109036 -0.468992 -0.12597 0.735786 0.560291 -0.380386
-0.189916 -0.408341 0.217787 -0.387817 -0.796513 0.463859
0.334313 0.143645 0.0907189 0.476689 -0.0684785 0.876401
0.435786 0.13231 -0.272726 0.762467 0.538341 -0.358933
0.338866 0.126644 -0.343452 -0.00335551 -0.53857 -0.842574
0.474765 0.0701499 -0.0915925 0.763986 0.555013 -0.32907
-0.291466 0.0423943 -0.00490388 -0.600253 0.685086 -0.41274
0.254108 0.273911 0.0809538 0.0827162 0.471754 0.877842
-0.470774 0.0599129 -0.121353 0.780582 0.521622 -0.344387
-0.321709 -0.215012 0.113736 0.611171 -0.431548 0.663503
-0.155676 -0.291278 -0.0608657 0.154073 -0.71454 -0.682417
-0.0469064 -0.287342 0.291759 0.768787 0.534947 -0.350426
0.381457 0.388761 0.0021014 0.777516 0.526255 -0.344273
-0.335366 -0.207566 -0.224016 0.767367 0.535903 -0.352073
-0.367529 -0.116393 -0.150618 0.761186 0.553883 -0.337355
0.132032 -0.0180769 -0.251026 -0.0375854 -0.538842 -0.841568
0.320073 0.0113146 -0.24735 0.252287 -0.784577 -0.566383
-0.105073 0.0625939 -0.182156 -0.561918 0.265603 -0.783392
-0.103656 0.172216 0.0960613 -0.36689 0.853672 0.369643
-0.0579248 -0.367912 0.14724 0.750032 0.560334 -0.351394
-0.192134 -0.0594306 0.296663 0.107871 0.437645 0.892654
-0.221637 -0.343141 -0.180426 0.765532 0.544408 -0.3429
-0.407656 -0.19039 -0.213739 -0.817832 -0.404522 -0.409283
0.441143 0.19162 -0.16591 0.830447 0.47387 -0.292926
-0.235347 -0.240668 0.110598 -0.761875 -0.548329 0.344792
0.102331 0.337131 -0.125124 -0.587777 0.797894 -0.133732
0.301938 -0.0475597 -0.13575 0.53743 -0.777943 -0.325537
0.087387 -0.20147 0.0685791 0.617241 -0.762372 0.194428
-0.135991 0.169829 -0.00798886 0.734481 0.562983 -0.378929
-0.302567 0.0753511 0.280574 0.71751 0.55839 -0.416389
0.16603 -0.137812 -0.103795 0.474751 -0.800284 -0.366275
-0.312196 -0.261132 0.0761128 0.578016 -0.427025 0.695376
-0.419101 -0.0675929 0.26281 -0.87834 -0.0822458 0.470908
-0.254001 -0.352613 -0.249818 -0.539114 -0.711013 -0.45146
-0.123279 0.160897 -0.0871881 -0.617615 0.694017 -0.369989
0.312385 0.441232 -0.0726547 0.76569 0.534978 -0.357095
0.0191835 -0.249726 0.0234347 0.809568 0.509906 -0.290853
-0.261414 -0.150378 0.189178 -0.825488 -0.467018 0.31696
0.345406 0.323574 0.0488427 0.0916016 0.452774 0.886907
-0.337219 0.104021 0.354812 -0.706146 0.310727 0.636243
-0.205872 0.0985541 -0.0602578 -0.611305 0.667433 -0.425252
0.51027 0.0874123 -0.163269 0.589795 -0.80542 0.0586517
-0.147944 0.162973 0.0380812 -0.578426 0.806275 0.12387
-0.389621 0.073631 0.0853849 0.768169 0.535588 -0.350802
0.20429 -0.12183 -0.0566843 0.54644 -0.830574 -0.107474
0.114289 -0.119102 -0.168326 0.229136 -0.718275 -0.656946
-0.493845 -0.0481189 -0.0145873 -0.997733 -0.0560464 -0.0372453
-0.0807646 0.127114 0.16956 -0.170176 0.707783 0.685626
-0.425699 -0.139235 0.21876 -0.819998 -0.338408 0.46161
-0.124996 -0.164416 0.454289 -0.295226 -0.325524 0.898262
-0.00446268 -0.276525 0.417214 -0.0861623 -0.549175 0.831254
0.0600577 -0.117184 0.190869 0.587464 -0.347219 0.730975
-0.487159 0.103932 0.0118385 -0.977769 0.208278 0.0242372
0.382302 0.0956216 -0.318815 -0.8322 -0.425168 0.355915
0.091142 0.316168 -0.0197642 -0.476132 0.785311 0.395708
-0.446668 -0.175228 -0.135852 -0.896421 -0.372987 -0.239394
-0.0439997 -0.438078 0.235166 -0.0976638 -0.872631 0.478516
-0.322028 0.0452184 0.0658721 -0.61115 0.79061 -0.0378379
0.247737 0.410303 -0.063155 -0.771837 -0.517696 0.369132
0.187443 0.380773 -0.0622592 -0.436215 0.822379 0.365253
0.37802 0.212311 0.0708004 0.36969 0.0635504 0.926979
0.267302 0.0501016 0.107854 0.828103 0.492797 -0.267202
0.0136187 0.16732 -0.224654 -0.591798 0.383618 -0.708951
-0.266203 0.0587584 0.171661 -0.430505 0.797726 0.422255
-0.217094 -0.281936 -0.0788848 0.0416892 -0.523278 -0.851141
0.358579 -0.0178016 -0.145529 0.510292 -0.849403 -0.134594
-0.0483794 -0.241978 -0.0834736 0.292073 -0.776042 -0.558974
0.271251 0.328365 0.0481644 -0.0435912 0.596454 0.801462
-0.198898 -0.136688 0.436814 -0.401577 -0.270815 0.874869
0.164516 0.08637 0.164007 0.382072 0.116054 0.916817
-0.0339593 -0.266263 0.163398 0.636223 -0.674011 0.375405
0.423071 0.240983 -0.12682 0.793328 0.505522 -0.339232
-0.257012 0.0813616 0.00860136 -0.655876 0.738606 -0.155845
-0.0752567 0.029993 -0.204572 -0.424276 0.0849186 -0.901543
-0.393015 -0.278866 0.133354 -0.771945 -0.581927 0.255855
0.304322 0.334736 -0.249377 0.731544 0.575997 -0.364789
0.32974 0.00682355 0.034035 0.767084 0.55312 -0.325025
0.210275 0.047637 0.144459 0.460756 -0.118623 0.879564
-0.443263 -0.228681 -0.00236465 -0.877965 -0.478603 0.0107926
-0.0728509 0.204565 0.0424611 -0.470466 0.830509 0.29819
0.269488 0.321329 -0.348526 0.808899 0.479973 -0.339571
0.0157743 0.275654 -0.100004 -0.608436 0.783022 -0.129158
-0.0507586 0.115465 -0.202676 -0.563501 0.303919 -0.76818
-0.0518687 -0.178008 0.252702 0.553402 -0.309425 0.773306
0.239901 0.124123 -0.330155 -0.772018 -0.508075 0.3819
0.179489 0.0037247 0.154902 0.507493 -0.206975 0.836428
-0.411028 0.0800999 0.269511 -0.867578 0.207919 0.45175
-0.256838 -0.400027 -0.145541 -0.558889 -0.791508 -0.247304
-0.235407 -0.0783901 0.431713 -0.457259 -0.189329 0.868947
0.0139158 -0.0783137 0.232539 0.457014 -0.0747136 0.886316
0.0669868 0.160224 -0.267662 -0.532094 0.239192 -0.812196
-0.0316838 0.239859 -0.0889435 0.739425 0.566812 -0.363284
-0.415219 -0.0320847 -0.134091 0.788392 0.512851 -0.339737
-0.0360471 -0.073209 0.257843 0.413319 0.0287708 0.910131
-0.0704654 -0.276424 0.408093 -0.137601 -0.561681 0.815831
0.21562 -0.0984527 -0.125271 0.809445 0.505222 -0.299247
-0.269251 -0.21173 -0.106003 -0.243531 -0.250728 -0.936925
-0.174415 0.132259 0.0901017 -0.458134 0.854431 0.245074
-0.0941897 -0.469508 0.134218 -0.242625 -0.905174 0.348988
0.329476 0.0607714 0.0683175 0.596805 -0.366083 0.714008
-0.0393691 -0.490895 0.0795716 -0.0487905 -0.983998 0.171368
-0.237338 -0.168954 0.236517 -0.665915 0.437345 -0.604389
-0.498138 0.0171004 -0.0192766 -0.995445 0.0747209 -0.0592074
-0.380503 -0.287718 -0.140855 -0.780004 -0.559415 -0.280444
0.282319 0.381992 -0.227781 0.791073 0.516894 -0.327144
-0.398314 -0.297809 -0.0398582 -0.799249 -0.594415 -0.0887244
-0.220947 0.0223554 0.376833 0.765636 0.53551 -0.356414
-0.42993 0.0158836 -0.0941962 0.764677 0.552137 -0.332284
-0.192489 -0.327191 -0.0858496 0.766422 0.539148 -0.349167
0.249857 0.396325 -0.277822 0.764026 0.535694 -0.359577
-0.0631005 -0.199593 -0.128873 0.114057 -0.634602 -0.764376
0.375302 0.164869 -0.348585 0.771157 0.531892 -0.349869
-0.308576 -0.327829 -0.216138 -0.651987 -0.618669 -0.438362
-0.471217 -0.122802 0.106887 -0.973245 -0.165587 0.159293
-0.175536 -0.148192 -0.145815 0.851023 0.459656 -0.25392
-0.198358 -0.288166 0.353121 -0.456692 -0.515103 0.725329
0.17225 0.374024 -0.19679 -0.618559 0.743896 -0.252989
-0.195304 0.00923829 0.254478 -0.0757574 0.601658 0.795153
-0.080199 -0.48247 -0.0786947 0.722249 0.594363 -0.353679
-0.425863 0.104719 0.0518133 0.807621 0.484672 -0.335918
-0.199038 -0.454588 0.0204523 -0.605171 0.428604 -0.67087
0.273619 0.375168 0.00330546 -0.182041 0.705155 0.685287
-0.371688 -0.0649207 -0.0821976 0.777528 0.521774 -0.351002
0.330065 0.36966 0.0189542 -0.0490662 0.618145 0.784531
0.147288 -0.125956 0.108778 0.655222 -0.58493 0.47806
-0.187863 -0.026022 0.380872 0.767664 0.537911 -0.348345
-0.29874 -0.260889 -0.226685 0.77969 0.519735 -0.349227
-0.146165 -0.364001 -0.0414239 0.716831 0.571153 -0.399922
0.253144 -0.037927 0.069682 0.771913 0.550172 -0.318528
-0.142828 0.0304094 0.245653 -0.0318913 0.551477 0.83358
-0.419659 0.0375714 -0.0384179 0.753927 0.552758 -0.355039
-0.272304 -0.102255 0.404884 -0.565787 -0.193994 0.801406
0.330236 0.387118 -0.114379 0.763679 0.54093 -0.352404
0.323192 -0.0172072 -0.193424 0.40269 -0.829773 -0.386416
-0.333078 -0.181285 0.326133 -0.655111 -0.362339 0.662978
-0.26944 -0.181381 0.126817 -0.831571 -0.492807 0.256184
-0.155428 -0.0470014 0.417251 0.801232 0.499749 -0.329055
0.251524 0.0225866 -0.278269 0.0941087 -0.644307 -0.758955
-0.258619 -0.260646 0.336907 -0.51459 -0.51885 0.682636
0.00131499 -0.474344 0.120103 0.746941 0.553955 -0.367714
0.0381436 -0.234027 0.0733623 0.635434 -0.763688 0.114035
0.205602 0.403813 -0.112393 -0.531885 0.830623 0.164817
0.0279094 -0.16141 0.197821 0.615851 -0.385111 0.687326
0.26251 -0.0203734 -0.22966 0.276593 -0.725358 -0.630359
0.220915 0.220144 0.111879 -0.734161 -0.579105 0.354464
-0.417782 -0.221833 -0.148861 -0.869738 -0.377877 -0.317436
-0.0861378 -0.316326 0.164701 0.793158 0.508454 -0.335224
-0.210504 -0.0920224 -0.141572 -0.362799 -0.0875399 -0.927746
