ply
format ascii 1.0
comment Created by Open3D
element vertex 128
property double x
property double y
property double z
property double nx
property double ny
property double nz
end_header
0.0847401 0.367733 0.0539572 -0.388421 -0.421267 0.819551
-0.225012 -0.0274823 -0.106013 -0.937984 -0.0661628 0.340306
0.293916 0.0765221 -0.0351029 0.612356 -0.0181089 -0.790375
0.35145 0.269842 0.0594819 0.541465 -0.182297 -0.820722
0.425557 0.231157 0.170806 0.410947 0.447917 0.794036
0.0721176 -0.171207 -0.225617 0.69422 -0.0849237 -0.714735
0.202061 0.0734845 0.0856011 0.0112707 0.0705198 0.997447
0.160266 0.374471 -0.0408737 0.21357 0.522604 -0.825392
0.437352 0.0688317 0.0577556 0.562407 -0.108414 -0.819723
-0.122006 0.276162 -0.0791076 -0.578571 0.521475 0.627151
0.1734 0.384683 0.115657 -0.575802 0.146231 0.804406
-0.365885 0.176406 -0.324784 -0.753619 0.29499 -0.5874
-0.272923 0.102757 -0.361059 0.301274 0.26058 -0.917242
-0.114507 0.378052 -0.207775 0.631001 -0.0562339 -0.773741
-0.254853 -0.0559889 -0.226289 -0.999415 0.0316024 0.0131105
-0.00695062 0.1779 0.044343 -0.339694 0.160232 0.926787
0.383491 -0.216794 -0.027365 0.462312 0.254755 -0.849334
0.137956 -0.147738 0.0416586 0.160116 -0.603642 0.781012
0.180195 0.238608 0.100203 -0.514232 -0.19334 0.835575
-0.0915401 0.191684 -0.0091558 -0.606819 0.545262 0.578325
-0.321384 0.130009 -0.249485 -0.773074 0.0876268 0.628234
-0.00958661 0.526239 -0.0908665 -0.222869 0.967751 0.117423
0.00816934 0.412082 0.0135096 -0.54589 0.447659 0.708241
-0.191301 0.165945 -0.0913385 -0.811569 0.364969 0.456238
-0.154207 -0.36511 -0.289179 -0.489458 -0.871534 -0.0293127
-0.291251 0.326626 -0.325689 -0.912143 0.409348 -0.0207083
0.253922 -0.032064 0.0835839 -0.623879 0.51133 0.59103
0.249954 0.410752 0.0236506 0.413995 0.247128 -0.876091
0.194393 -0.359733 -0.191472 0.684849 -0.0325794 -0.727956
-0.138039 -0.0252084 -0.316034 0.65241 -0.0867421 -0.752886
-0.0727033 -0.16354 -0.309539 0.611809 -0.272451 -0.742603
-0.0779709 -0.306469 -0.198284 -0.39399 -0.308809 0.865684
0.158629 -0.435704 -0.201509 0.159789 -0.987146 -0.0030776
0.343431 -0.0279148 0.119289 -0.311625 -0.243024 0.918602
0.234164 0.00797552 -0.0977714 0.351745 0.362179 -0.863193
0.294207 -0.141124 0.0737113 -0.596159 -0.0771407 0.799152
-0.199183 -0.136151 -0.163105 -0.526847 -0.596237 0.605751
0.443926 -0.0641818 0.0332322 0.277991 0.436622 -0.855618
0.060109 0.306242 -0.120047 0.523426 0.155108 -0.837835
-0.258588 0.0843445 -0.177347 -0.679724 -0.162361 0.715272
-0.113162 0.490844 -0.130988 -0.452642 0.885086 0.108343
-0.134104 0.244406 -0.246807 0.413107 0.427615 -0.804045
0.21405 -0.328282 -0.0285526 -0.35292 -0.260597 0.898631
-0.182215 0.0320746 0.0330288 -0.560794 0.826836 -0.0430293
-0.0351543 -0.0766925 0.135374 0.992056 -0.0298036 -0.122218
-0.173016 -0.179219 -0.387388 0.430975 0.243772 -0.868813
-0.0479827 -0.23817 -0.0550088 -0.759034 -0.29254 0.581626
0.0658418 -0.305806 -0.246984 0.668724 -0.569393 -0.478122
0.31066 -0.384913 -0.0443697 0.190232 -0.772582 0.605746
-0.275153 -0.20749 -0.326912 -0.626479 -0.765382 -0.14736
0.341341 0.387372 0.0936898 0.483358 0.224086 -0.846256
-0.130118 -0.216525 -0.120045 -0.683572 -0.609645 0.401327
0.175649 -0.447254 -0.07724 -0.107478 -0.774412 0.623486
0.440819 0.146241 0.094849 0.563049 0.150471 -0.81261
0.322476 -0.226887 0.0610981 -0.266286 -0.217389 0.93906
-0.277464 0.00265484 -0.381174 0.104935 0.657001 -0.746551
-0.200048 0.0760691 -0.0649259 -0.854918 0.422494 0.30102
0.0465988 0.0673024 0.0846243 -0.510962 0.390522 0.765774
0.283349 0.200727 0.133832 -0.54556 0.455892 0.703226
0.214837 0.0819345 -0.0713761 0.592973 0.142081 -0.792588
-0.148613 0.455919 -0.196237 -0.588791 0.801184 0.106912
0.26221 0.296001 0.167528 -0.364061 -0.334707 0.869155
0.339232 0.134755 0.0341339 0.534116 0.042345 -0.84435
-0.00948157 -0.384535 -0.315624 0.605091 0.0761139 -0.79251
-0.0434577 0.187627 -0.209228 0.105718 0.463117 -0.879969
-0.211314 0.288315 -0.135195 -0.670272 -0.0989368 0.735491
0.210883 0.286533 -0.0286759 0.211494 0.35459 -0.910789
-0.36454 0.0853354 -0.342182 -0.968915 0.0565317 -0.240847
-0.031602 -0.266248 -0.307162 0.282054 0.347732 -0.894163
0.0588599 0.209315 -0.141156 0.753002 -0.418388 -0.507877
0.297935 -0.329334 0.026022 -0.713448 -0.165958 0.680771
0.350529 -0.0600184 -0.0323279 0.402297 0.530839 -0.7459
0.354931 0.11894 0.167878 -0.811533 -0.00655292 0.58427
-0.229226 -0.0589554 0.0328898 -0.891304 -0.0998547 -0.442274
-0.159715 -0.0017563 0.129754 -0.392583 -0.283214 0.875025
0.247656 0.218216 -0.0237484 0.384955 0.422574 -0.820513
-0.0711799 0.0366906 0.0999114 -0.232709 0.843055 0.484876
0.416135 0.31048 0.0920473 0.636923 0.569015 0.520146
-0.165423 -0.240945 -0.222857 -0.848968 -0.378765 0.368498
-0.206145 0.372371 -0.27424 0.0266459 0.258508 -0.965642
0.149667 -0.0540978 0.0729224 0.121178 -0.285515 0.950683
0.0801381 0.419857 -0.0727944 0.3594 0.267734 -0.893952
-0.346689 -0.0261856 -0.326381 -0.82525 -0.318862 0.466144
0.118944 -0.24426 -0.0300767 -0.129268 -0.649476 0.749313
0.028608 -0.202369 -0.000843101 0.111727 -0.739847 0.663433
0.394473 -0.179802 0.112175 -0.271379 -0.360843 0.89227
0.291763 -0.427631 -0.14649 0.0577596 -0.849107 0.525054
0.138216 0.200429 -0.0867339 0.492003 0.21198 -0.844392
0.0229839 -0.0574898 0.0770692 -0.544529 0.271625 0.793542
0.0298954 -0.447037 -0.263731 -0.511614 -0.859201 -0.00500634
0.0812383 -0.0781474 -0.191794 0.548545 0.163152 -0.820049
-0.320806 -0.119627 -0.408315 -0.538005 -0.288198 -0.792144
0.48392 0.107351 0.170033 0.839833 0.0932964 0.534767
0.116314 -0.379179 -0.230336 0.680544 0.0902177 -0.727132
-0.209734 -0.0932441 -0.377389 0.776871 -0.368494 -0.510572
0.0969372 0.143506 0.0888101 0.168018 -0.343888 0.923857
0.501569 -0.178079 0.0548156 0.569037 -0.318926 0.757946
-0.0673853 0.464495 -0.0335206 -0.0690936 0.865917 0.495392
-0.0591538 -0.426945 -0.274487 -0.416465 -0.907182 -0.0598138
-0.123692 -0.14985 0.116672 -0.40324 -0.682392 0.609704
0.443949 -0.292275 0.0348846 0.72354 -0.618794 0.305915
0.225887 -0.256015 -0.13924 -0.389318 0.838124 -0.382074
0.259087 -0.138369 -0.104029 0.534165 0.0912358 -0.840443
-0.124498 -0.301278 -0.374441 0.564302 0.0553543 -0.823711
-0.231296 -0.278589 -0.291347 -0.670398 -0.504812 0.543812
0.145011 -0.264666 -0.181313 -0.199499 0.486447 -0.850629
-0.0358787 0.25049 -0.158876 0.46458 0.290417 -0.836555
0.0950551 -0.417478 -0.128154 -0.57541 -0.288373 0.765339
0.37453 -0.305846 -0.0612719 0.314251 0.381641 -0.86925
-0.183794 0.42053 -0.111789 -0.63112 0.153828 0.760279
-0.02735 0.38386 -0.158211 0.495325 0.205019 -0.844169
0.524467 -0.00922333 0.0945719 0.157166 0.613096 -0.774217
0.0025358 -0.340732 -0.152029 -0.350232 -0.273402 0.895874
-0.131478 0.0971039 -0.280335 0.382677 0.30603 -0.871725
-0.00853301 -0.042888 -0.246012 0.358181 0.410055 -0.838785
0.274435 0.395307 0.131716 -0.106374 0.522128 0.846207
0.0569802 0.506371 -0.00293425 -0.0278372 0.977007 0.211382
-0.286605 -0.153556 -0.296146 -0.812702 -0.0453876 0.580909
0.11241 0.0514402 -0.135007 0.429234 0.238905 -0.871024
0.248091 -0.224754 0.0155933 -0.725541 0.146645 0.672373
0.160307 0.496818 -0.00922595 0.337057 0.468495 -0.816643
-0.294242 0.314543 -0.219216 -0.69674 0.70718 0.120207
0.0179435 0.096755 -0.190215 0.560701 -0.215374 -0.799517
-0.0631298 -0.150421 8.60288e-05 -0.137442 -0.92646 0.350401
-0.0312549 0.330907 -0.0284475 -0.264012 -0.473365 0.840371
0.439024 -0.0440163 0.163228 -0.0868947 -0.274052 0.957781
-0.282914 0.218011 -0.19496 -0.605733 -0.0546943 0.793786
0.186146 -0.0792145 -0.144 0.315483 0.33533 -0.887707
