ply
format ascii 1.0
comment Created by Open3D
element vertex 128
property double x
property double y
property double z
property double nx
property double ny
property double nz
end_header
0.106295 0.0600938 -0.26641 0.829273 0.547416 0.112439
0.0291585 -0.0157067 -0.372631 0.867403 0.478883 0.135213
0.00909573 -0.144794 -0.242496 -0.845655 -0.533727 -0.0017369
-0.0802369 0.299626 -0.0692075 -0.456189 0.845406 -0.277814
0.072636 -0.290796 -0.00776135 -0.857389 -0.50679 -0.0897114
-0.236421 0.252705 -0.187283 -0.441804 0.882553 -0.160963
-0.0110843 0.0482874 -0.314374 0.850449 0.524492 -0.0405496
0.130036 -0.275009 -0.393528 0.413295 -0.856178 0.310073
0.10188 -0.231831 -0.386424 -0.108404 0.494034 -0.862658
0.172417 -0.0555319 -0.201884 0.839194 0.495127 0.224949
0.0572746 -0.318038 0.239177 -0.83117 -0.553273 -0.0551848
-0.0953275 -0.0707106 0.394599 -0.498114 0.72127 0.481303
-0.258357 0.203205 0.234824 -0.172871 0.1071 0.979104
0.00796958 0.131166 0.203761 0.852488 0.483764 0.19808
0.0507546 -0.0799545 0.14436 0.154141 -0.347511 0.92492
0.0422715 0.0611836 -0.102406 0.185026 -0.30883 0.932947
-0.105785 0.0479086 0.0542964 0.490601 -0.656523 -0.572964
-0.118334 0.110976 -0.371029 0.321392 -0.42143 -0.848
-0.0706483 0.140768 -0.300323 0.84826 0.52267 0.085274
0.104407 0.0435836 -0.164845 0.83636 0.542947 0.0755681
0.00102948 0.0396312 -0.398843 0.845616 0.524325 0.100086
-0.227743 0.277166 -0.161013 -0.208064 0.433539 -0.876786
0.203535 -0.174096 0.110951 0.788122 0.591894 0.168897
0.0589525 0.133727 -0.247346 0.856375 0.503003 0.116664
0.172107 -0.291855 -0.139151 0.876924 0.455923 0.152111
0.00277765 0.0282389 -0.353945 0.838791 0.534806 0.10204
0.0373257 -0.258648 0.0747447 -0.835987 -0.547053 -0.0431147
0.173291 -0.227071 0.117599 0.492409 -0.816797 0.300624
0.0229041 0.183194 -0.226536 0.845143 0.508057 0.166167
-0.186844 0.209076 0.291286 0.848145 0.529053 0.0274429
-0.224131 0.326453 0.000824328 -0.148686 0.451597 -0.879746
0.240297 -0.206864 -0.0156741 0.792528 0.609752 -0.0100937
0.11173 0.0509306 -0.291456 0.859345 0.501394 0.100648
-0.106664 0.290158 0.0407952 -0.550401 0.820775 0.152929
-0.021868 0.220186 0.00701067 0.796147 0.585549 0.152588
-0.0941229 0.0201048 -0.22033 -0.508639 0.766534 0.39206
-0.186299 0.284868 -0.0648338 0.835118 0.541525 0.0965851
-0.269876 0.267459 0.150056 -0.18725 0.558029 -0.808419
-0.173957 0.179514 -0.396354 -0.861716 -0.338013 -0.378409
0.22049 -0.184705 0.0501156 0.863193 0.488083 0.129121
-0.091181 -0.113379 0.41126 -0.763126 -0.635191 -0.119046
0.0960894 -0.384355 0.247779 -0.664965 -0.740028 0.100896
-0.0486291 0.0467201 -0.182849 -0.428586 0.85738 -0.284979
0.208262 -0.226202 -0.0423992 0.569926 -0.784792 -0.243489
0.180066 -0.439717 -0.0657619 -0.525229 -0.831715 -0.179958
-0.127056 0.202221 0.12512 0.515375 -0.833111 -0.200785
-0.0524299 0.283926 -0.0983412 0.877642 0.454315 0.152785
-0.170124 0.110173 0.150373 0.0961077 0.104386 -0.989882
0.107266 -0.339371 -0.070904 -0.897278 -0.439933 -0.0367483
0.0898021 -0.104573 -0.360535 0.854223 0.514057 -0.0777752
-0.16916 0.179944 -0.401439 -0.862159 -0.415456 -0.289962
-0.160232 0.178949 0.252524 0.864854 0.485308 0.128466
-0.143488 0.152947 0.237298 0.782976 0.61953 0.0559544
-0.0462364 -0.153479 0.359606 0.54841 -0.714784 0.433971
-0.15607 0.0450977 0.118232 -0.837909 -0.519635 -0.166995
0.0926677 -0.369953 0.23481 -0.840468 -0.531611 -0.104902
-0.0946523 0.253738 -0.142892 -0.465487 0.783716 -0.411231
0.072278 -0.223108 0.394841 0.853952 0.286271 0.434528
0.144539 -0.310199 0.246806 0.794917 0.577143 0.187117
0.0897445 -0.0219376 0.201576 0.518856 -0.83217 -0.195655
-0.177781 0.197543 0.33503 0.862926 0.495712 0.0981214
-0.054742 -0.11559 0.134014 -0.842212 -0.5309 -0.0939349
-0.218232 0.149541 0.105907 0.548944 -0.82218 -0.150602
-0.0493511 0.268401 -0.0416853 0.808315 0.587202 0.0426595
-0.128024 0.198333 0.192429 -0.503084 0.544932 0.670788
-0.019191 -0.0639377 0.341438 0.817351 0.553761 0.159014
-0.125057 0.00157094 0.0865415 -0.869121 -0.493476 -0.0333111
0.0183987 0.0104735 -0.383154 0.818065 0.553973 0.154541
-0.0215924 0.186571 0.182044 0.782455 0.620965 0.0465524
-0.295306 0.2925 0.0355866 -0.820888 -0.570649 -0.0224252
-0.10814 0.291864 0.00529124 -0.526462 0.849975 0.0194996
-0.208993 0.304749 0.0303873 0.84297 0.532962 -0.0731684
-0.153214 0.251371 -0.203524 0.829753 0.547834 0.106718
0.0302607 0.0393203 0.114795 0.240487 -0.16142 -0.957136
-0.0231336 -0.120905 -0.123977 -0.878539 -0.475483 -0.0456554
-0.0386078 -0.164875 0.242291 -0.816659 -0.571591 -0.0796972
0.0893014 -0.171648 -0.0671444 0.0884553 0.0737926 -0.993343
-0.183896 0.294528 -0.120712 0.867589 0.489353 0.0884523
0.0160556 -0.274264 0.362942 -0.840447 -0.532936 -0.0981243
0.0954133 -0.322852 -0.0634619 -0.868442 -0.48368 -0.108909
0.181314 -0.396014 0.073528 0.353255 -0.443779 -0.823572
0.114523 0.0385425 -0.220439 0.832051 0.54996 0.0723598
-0.0161912 -0.154207 0.0419345 -0.880015 -0.464573 -0.0987244
-0.22889 0.326962 0.0644565 0.851916 0.513827 0.101099
0.147661 -0.107229 0.255114 0.890502 0.420668 0.173335
-0.145058 0.0126399 0.238414 -0.84501 -0.52644 -0.0939085
0.227949 -0.173463 -0.073205 0.846086 0.52447 0.0952391
-0.101087 0.189206 -0.321991 0.897198 0.425503 0.11825
0.111675 0.0347081 -0.193321 0.907568 0.41174 0.0824115
0.159304 -0.264502 -0.115878 0.849227 0.519532 0.0943396
0.0566232 -0.27519 0.0259408 -0.854232 -0.510093 -0.100469
0.134284 -0.0833791 0.238859 -0.418034 0.497519 -0.760081
0.0393105 -0.272803 0.424187 0.296812 -0.477965 0.826712
-0.129084 0.183792 0.208213 -0.423639 0.475737 0.770846
-0.244212 0.227787 0.237369 -0.00446323 -0.183132 0.983078
-0.0692683 0.172123 0.249713 -0.401512 0.582969 0.706353
-0.21059 0.127571 0.16475 -0.834683 -0.544309 -0.0838599
0.150164 -0.0167059 -0.243058 0.841668 0.537391 0.0529669
0.128203 -0.00636841 -0.127869 0.862936 0.455497 0.21878
0.0196607 0.0917863 -0.0770126 0.169375 -0.566867 0.806209
-0.0269626 0.0553921 -0.496247 0.519999 -0.669186 -0.53084
0.15499 -0.101411 -0.144219 0.273519 -0.643994 0.714464
0.180329 -0.446861 0.100277 0.375874 -0.459413 -0.804772
0.19418 -0.122273 -0.154678 -0.22611 0.153288 0.961965
0.0215907 0.00748683 -0.384665 0.870928 0.467194 0.152362
-0.263288 0.298756 -0.151369 -0.0529433 0.215922 -0.974974
0.0102512 0.112855 0.26927 0.836546 0.53705 0.10848
0.156746 -0.403727 -0.109308 0.214045 -0.0949685 -0.972196
0.216549 -0.192674 0.129441 0.78662 0.600974 0.141629
0.177739 -0.306835 -0.0484065 0.830899 0.553179 0.0599946
0.223456 -0.444867 -0.0679806 0.506194 -0.860962 0.0501146
-0.144618 0.242608 -0.20733 0.778962 0.623612 0.0657743
-0.137648 0.256985 0.0932559 -0.505664 0.82806 0.242115
0.0700838 -0.340861 0.232813 -0.831675 -0.546571 -0.0978671
-0.0676001 -0.142005 0.360067 -0.842829 -0.536511 -0.0423682
0.108435 -0.339472 0.155537 0.334554 -0.735987 0.588555
0.0456912 -0.294805 0.232721 -0.783983 -0.618053 0.0581364
-0.191811 0.25224 0.149301 0.848559 0.5183 0.10636
0.0837248 -0.275676 -0.227206 -0.907195 -0.416854 -0.0568388
-0.0518266 -0.0195985 0.321684 0.875931 0.4341 0.210482
0.212875 -0.184516 -0.136943 0.498248 -0.722316 -0.479592
-0.0116958 0.176943 0.0824817 -0.43552 0.595318 0.675217
-0.279642 0.364617 0.081485 -0.288217 0.19551 0.937394
-0.227379 0.135851 0.27278 -0.777321 -0.61327 -0.140257
-0.162025 0.194331 0.224487 0.86595 0.477851 0.147611
-0.204439 0.143823 0.137383 0.43123 -0.573857 -0.696224
-0.173955 0.153459 -0.264372 -0.895501 -0.429565 -0.116412
-0.0504625 0.0635207 0.297661 -0.22778 0.142831 0.96318
