ply
format ascii 1.0
comment Created by Open3D
element vertex 512
property double x
property double y
property double z
property double nx
property double ny
property double nz
end_header
-0.0575066 -0.105731 -0.0238882 0.651516 -0.610183 0.450781
0.148323 0.0653362 0.206031 0.116612 0.891499 0.437758
-0.0838335 -0.0436887 0.0504742 0.827779 -0.0800108 0.55532
-0.28236 0.0723608 -0.241336 0.220469 -0.888687 -0.402031
-0.388511 0.153564 -0.230556 -0.221363 0.925308 0.307901
0.238323 -0.110911 0.225575 0.734202 -0.0284114 0.678336
0.0561929 0.132388 0.0380913 0.708605 -0.0662344 0.70249
-0.234519 -0.149488 -0.213807 0.319047 -0.787651 -0.527082
-0.108511 -0.113978 -0.00900314 -0.637038 -0.384311 0.668198
-0.28765 0.153381 -0.288013 -0.26592 0.893874 0.360938
-0.0935749 0.0413693 -0.108544 -0.191526 0.936805 0.29277
-0.190208 0.0195365 -0.0207754 -0.724105 -0.289895 0.625806
0.210044 0.0370897 0.391338 -0.622378 -0.422715 0.658754
-0.145235 -0.0497546 -0.272813 0.720193 0.289245 -0.630602
-0.143096 0.113247 -0.189156 0.720402 0.28066 -0.634233
0.0249179 0.133348 0.0231106 -0.749361 0.0570685 -0.659698
-0.0332045 -0.110169 -0.142701 0.530978 -0.84444 -0.070589
0.373666 -0.16306 0.247882 0.198549 -0.93083 -0.306811
-0.116221 -0.060944 -0.2061 -0.38666 0.915957 0.107318
-0.0796993 -0.133895 -0.0478968 0.55969 -0.769727 0.30703
-0.127308 -0.126883 -0.196522 0.201407 -0.875326 -0.439591
-0.156914 0.0175109 -0.124244 -0.327519 -0.644369 -0.691028
0.062204 0.0751023 0.152023 -0.723025 0.0763836 -0.686586
-0.31127 0.10826 -0.362774 0.662549 0.349662 -0.662394
0.0923189 0.105874 0.163991 -0.227572 0.916445 0.329149
0.340724 -0.197543 0.354346 0.803019 0.00861224 0.595891
0.305867 -0.157039 0.321223 -0.247964 0.861872 0.442369
0.143957 0.0280997 0.0478387 0.70259 0.242371 -0.669047
-0.12314 0.0603791 -0.0786561 0.511776 -0.0645185 0.856693
-0.296708 0.0204615 -0.121404 -0.684033 -0.292625 0.668184
-0.169752 -0.0119407 -0.281091 0.730905 0.256754 -0.632341
0.207926 0.0104367 0.277961 0.143933 -0.970981 -0.190994
0.222563 -0.134996 0.246797 0.656605 -0.0471528 0.752759
-0.149803 0.0743446 -0.0544079 0.694063 -0.101633 0.712704
-0.272836 -0.0694389 -0.339485 0.344358 0.935117 0.083511
0.0175145 0.075059 0.205515 -0.756924 0.041654 -0.652174
-0.20009 0.0832717 -0.263869 0.663965 0.348809 -0.661425
0.394174 -0.170527 0.286183 0.195465 -0.935169 -0.295387
-0.185774 0.0247514 -0.21544 0.755952 -0.547936 0.358194
0.268392 0.106039 0.343887 0.675837 -0.0893568 0.731614
-0.237644 0.0816581 -0.24465 0.419521 -0.850516 -0.317215
0.282385 -0.135472 0.245878 -0.285668 0.885772 0.365791
-0.134996 -0.070687 -0.159008 -0.610728 0.791795 -0.00847822
0.0899214 0.0355685 0.122501 -0.706192 0.0693118 -0.70462
0.393152 0.108454 0.291077 0.52536 0.383642 -0.759484
-0.314089 -0.103207 -0.393679 0.206284 -0.960812 -0.18517
0.345685 0.0616405 0.268588 0.698135 0.322396 -0.639271
0.213015 -0.0953282 0.154552 -0.55679 0.820461 -0.129724
-0.211082 0.10111 -0.105546 -0.657133 0.682574 -0.319796
0.0822878 -0.147137 0.0531526 -0.122408 -0.776358 -0.618292
-0.283595 0.0852943 -0.279914 0.245403 -0.834067 -0.494074
0.269387 -0.169664 0.208627 0.207215 -0.929075 -0.3064
-0.387902 0.113151 -0.257026 0.936649 0.145446 -0.318644
-0.0238738 0.112367 0.0699003 -0.800326 0.0137112 -0.599409
0.00460937 -0.0170688 0.14629 -0.21265 0.923331 0.31975
-0.00942794 0.0780337 0.0999627 0.748794 -0.0756558 0.658471
-0.10454 -0.0665172 -0.242399 0.725922 0.265103 -0.634632
-0.217728 -0.0701993 -0.302308 -0.326209 0.889116 0.321031
0.143516 -0.0592241 0.26942 -0.635385 -0.396357 0.662712
0.184308 0.049782 0.350429 -0.233175 0.909347 0.344553
-0.172173 -0.1202 -0.257115 0.200447 -0.931916 -0.302247
-0.193972 0.0406003 -0.282936 0.62887 0.383748 -0.67621
-0.299685 0.195736 -0.310419 0.714353 0.230624 -0.66069
-0.243218 0.133501 -0.197694 -0.17483 0.953367 0.246019
-0.225937 0.184678 -0.232494 0.672233 0.33408 -0.660676
-0.0699803 -0.0770764 0.0196856 0.763043 -0.352962 0.541463
0.175451 0.0434803 0.0867202 0.698184 0.331995 -0.634286
0.302746 0.116172 0.198668 0.740641 0.203646 -0.640297
-0.319343 -0.12801 -0.22389 -0.618672 -0.420871 0.66341
-0.175768 0.118931 -0.146111 -0.658386 0.739415 -0.140688
-0.0450944 0.0843884 0.147078 -0.196381 0.935279 0.294426
0.0569233 0.0346755 0.160352 -0.694478 0.0635832 -0.716699
0.183697 0.0197354 0.142952 0.400205 -0.82151 -0.406149
0.37176 0.0297761 0.339348 0.742929 0.0373518 0.668327
0.215401 0.130554 0.244754 -0.227837 0.919645 0.31991
0.298184 0.0297954 0.375341 0.183085 0.262705 -0.947347
0.15462 -0.0346782 0.0293293 0.671053 0.324869 -0.666444
-0.0951508 -0.109054 -0.227109 0.218095 -0.923617 -0.315224
0.142455 0.128837 0.219264 -0.317457 0.947469 0.0390253
0.0380945 -0.115403 0.138394 -0.689937 -0.308464 0.654856
-0.173845 -0.0583222 -0.307712 -0.657891 0.123543 -0.74291
-0.141518 0.0767251 -0.213379 0.64233 0.391551 -0.658862
0.124041 0.0486846 0.238369 -0.119827 0.915037 0.385161
-0.293132 -0.100294 -0.361165 -0.631663 -0.286107 0.720517
-0.3386 0.198965 -0.335405 -0.14332 0.958199 0.247617
0.0639424 0.0437067 0.248529 -0.551394 -0.420012 0.720801
0.179027 0.0779041 0.289562 0.23164 -0.919464 -0.317693
-0.233415 -0.113636 -0.131539 -0.643726 -0.403064 0.650505
0.0272808 -0.0739264 0.0232464 -0.582901 -0.321627 -0.746179
-0.0973548 0.0169038 0.0714482 0.758387 -0.0503608 0.649856
0.259372 0.142752 0.232143 -0.197859 0.934017 0.29743
0.131401 -0.138883 0.206443 -0.302548 0.94813 0.0975373
-0.218126 0.0195559 -0.120357 0.376585 -0.866402 -0.32792
0.23642 0.016257 0.151498 -0.320076 -0.674442 -0.665342
-0.0980135 0.0986022 0.0263776 -0.808287 -0.00947219 -0.588712
0.3593 0.0759545 0.360867 0.731162 -0.0541725 0.68005
-0.0199355 -0.0766577 0.0588517 -0.552373 -0.364938 -0.74947
0.249218 0.0703384 0.181869 0.669505 0.341498 -0.659653
-0.193843 0.151192 -0.2124 -0.186807 0.938331 0.290927
0.00439237 -0.147036 0.0829805 -0.296451 -0.606775 -0.737524
0.293313 0.0894646 0.422348 -0.153234 0.950331 0.270906
-0.310491 0.173674 -0.371176 0.643825 0.364074 -0.673008
-0.201007 -0.124467 -0.27949 0.0661848 -0.970818 -0.230504
0.326951 -0.124508 0.244125 -0.268297 0.963098 -0.021434
-0.275822 -0.0873815 -0.282866 -0.191117 0.940359 0.281425
-0.296127 0.0119783 -0.174216 -0.701785 0.0892896 -0.706771
0.264258 0.0492689 0.45325 -0.638926 -0.400397 0.656853
-0.172007 -0.0385684 -0.0273715 -0.668699 -0.335571 0.663501
0.237608 -0.0149191 0.387289 -0.688817 -0.269364 0.673033
-0.440089 0.0848312 -0.228941 -0.6109 -0.465271 0.640565
-0.113157 -0.154615 -0.0378545 0.522409 -0.842814 0.129432
-0.0637332 0.0762818 0.0390243 0.722648 -0.0644601 0.688205
0.235529 0.0246607 0.252465 0.220195 -0.892598 -0.393425
-0.370278 -0.142718 -0.301765 0.161726 -0.962999 -0.215587
-0.392921 0.0479289 -0.241618 0.230644 -0.912613 -0.337552
-0.173239 0.0960879 -0.0262831 0.737999 -0.0859308 0.669308
-0.219921 0.0374364 -0.256953 -0.748569 0.0116658 -0.662954
0.0216233 0.091926 0.0270737 -0.733141 0.0717532 -0.676281
-0.00834318 0.00526298 0.0991021 0.788495 -0.135787 0.599864
-0.14804 0.157432 -0.222409 -0.708402 0.0663875 -0.70268
-0.283854 0.121397 -0.185778 -0.23362 0.919608 0.315822
0.220519 0.111983 0.166784 -0.655352 -0.356369 0.66597
0.296371 -0.0750334 0.15015 0.684864 0.308683 -0.660057
0.0359459 0.0182547 0.205018 -0.710822 -0.182136 0.679381
-0.374644 -0.112633 -0.337505 -0.817607 0.043978 -0.574095
-0.045263 0.0221735 0.122535 -0.558049 -0.616822 0.555078
-0.297544 0.14542 -0.323359 0.553755 0.443623 -0.704666
-0.404882 0.068039 -0.204931 -0.605394 -0.414906 0.679228
-0.173507 -0.0908231 -0.0554622 -0.662467 -0.268558 0.699295
-0.0117973 0.0196241 0.052335 -0.748358 -0.124446 -0.651516
-0.169897 -0.0506636 -0.0801017 -0.752885 0.0327836 -0.657335
-0.0520782 0.13311 0.0012011 -0.185789 0.946021 0.26557
0.228927 -0.177891 0.291458 -0.677558 -0.335247 0.654618
0.104913 -0.0650252 0.133032 0.689595 -0.102918 0.716845
-0.0533028 0.0510745 -0.0283781 -0.738959 0.0688465 -0.670224
0.2948 0.0527535 0.313465 -0.0441878 -0.0983688 0.994169
-0.124975 0.00521215 -0.030424 -0.192061 0.970497 0.145768
-0.137408 -0.0802203 -0.0219924 -0.730112 -0.289024 0.619195
-0.0347705 -0.0857044 -0.182845 0.682264 0.320625 -0.65705
0.262063 0.00573943 0.212855 0.752418 -0.0614192 0.655816
0.0808105 0.01243 -0.0250218 0.594802 0.486185 -0.640183
-0.00432221 0.0633014 0.0392637 -0.687382 -0.0509682 -0.724505
-0.376627 0.127291 -0.150152 -0.168882 0.95532 0.242575
-0.0510641 0.0377077 -0.0768901 -0.195944 0.934995 0.295617
0.23922 -0.148095 0.12537 0.0987486 -0.978058 -0.183444
0.233599 0.103215 0.213887 -0.311585 0.873454 0.374156
-0.184388 0.190175 -0.181875 -0.580387 0.81434 0.00115202
0.0784076 -0.166507 0.149636 -0.748117 -0.178728 0.639044
-0.277871 -0.0705872 -0.155234 -0.595031 -0.474781 0.648476
0.270195 0.104804 0.267735 0.147371 -0.962486 -0.22782
0.00729173 0.0428019 -0.0372522 0.725816 -0.185618 0.662373
-0.17291 -0.0866372 -0.108783 -0.584552 0.759941 -0.284233
0.194504 -0.146515 0.0635938 -0.468033 0.110978 -0.876715
-0.373992 0.0993909 -0.292658 0.746828 -0.0942936 0.658298
-0.130356 0.0603327 0.056557 -0.708552 0.103357 -0.698048
-0.267532 0.127127 -0.051123 0.130589 0.786962 0.603023
-0.0894811 0.0225757 -0.0536998 -0.198085 0.933898 0.297653
0.27799 -0.0837605 0.187833 0.717099 -0.0769746 0.692708
0.329464 -0.134357 0.152438 0.582671 0.472012 -0.661588
-0.423368 0.0927312 -0.271212 -0.726502 0.0786819 -0.682644
-0.376127 0.0989549 -0.175647 -0.179793 0.917607 0.354502
0.271989 -0.174752 0.333519 -0.565541 -0.384713 0.729493
-0.0247031 -0.0657046 -0.0324333 0.764937 -0.431847 0.47789
-0.206084 0.152769 -0.110329 0.19826 0.781797 0.591173
-0.315718 0.0924276 -0.320586 0.314588 -0.825859 -0.467965
0.238778 -0.13095 0.0648955 0.179208 -0.939165 -0.293007
0.323524 -0.154345 0.193927 0.266583 -0.895586 -0.356172
0.100003 0.0862755 0.305288 -0.69233 -0.285581 0.662664
0.229419 0.0580544 0.356656 -0.209191 0.89083 0.403313
0.0847044 -0.0370798 -0.0416951 -0.511017 -0.392018 -0.764973
0.105111 -0.121133 0.0193585 -0.183394 -0.77939 -0.599097
0.00836253 -0.0681865 0.129371 -0.722058 -0.260637 0.640859
0.176054 0.113865 0.26574 -0.218896 0.921971 0.319459
0.248139 -0.0605121 0.220952 0.69058 -0.0797047 0.718851
-0.0343323 0.0840455 -0.0467593 -0.636013 0.0423388 -0.770516
0.262545 -0.13012 0.0883945 0.697455 0.330526 -0.635854
0.370643 0.0839066 0.305539 0.600156 0.373209 -0.70748
-0.0334459 -0.0207387 -0.00196474 0.766089 -0.0453813 0.64113
0.246561 0.0297332 0.420953 -0.725187 -0.215648 0.653911
-0.132625 -0.0967008 -0.289039 0.609507 0.384901 -0.693075
-0.0456988 -0.057353 0.0799337 -0.668242 -0.0289109 -0.743382
0.407309 -0.106542 0.245263 -0.345706 0.878166 0.330622
0.0222173 0.0174748 -0.0717262 0.688557 0.236031 -0.685696
-0.212427 0.0195116 -0.116139 0.27612 -0.844383 -0.459103
-0.252275 -0.0491632 -0.168059 0.694552 0.0732743 0.715701
0.295136 0.124353 0.197722 -0.197209 0.939172 0.281185
-0.297663 -0.0920801 -0.182087 -0.619096 -0.378122 0.688291
0.146731 -0.0767047 0.10315 0.578235 0.371903 0.726177
-0.187401 -0.127104 -0.0940826 -0.612559 -0.378394 0.693966
-0.135893 0.02273 -0.0723499 0.737888 -0.0618572 0.672083
-0.408789 0.130089 -0.178134 -0.642856 -0.375233 0.667785
-0.0220156 0.0829255 -0.00468399 0.691078 -0.0214954 0.722461
-0.330637 0.10849 -0.28057 -0.888291 -0.377292 0.261895
-0.275591 0.0822182 -0.10242 0.439442 0.644911 0.625284
0.145317 -0.00042986 0.151501 0.538594 -0.842067 -0.0289671
-0.107686 0.0417292 0.0296873 -0.734637 0.00476982 -0.678444
-0.0328878 -0.0129933 -0.151134 0.611522 0.393438 -0.686474
-0.341086 0.111845 -0.19486 -0.212831 0.877139 0.4305
0.0641419 -0.0965995 0.172595 -0.737861 -0.230622 0.63433
0.312595 -0.172936 0.275025 0.970173 0.155267 0.186163
0.128435 -0.00918375 0.187521 0.259646 -0.965703 -0.00155594
0.0827524 0.0882462 0.264522 0.60131 -0.750877 0.273148
0.14328 -0.181277 0.198554 -0.560222 -0.444764 0.698811
0.00796828 0.0980138 -0.0512232 0.506972 0.530032 -0.67974
-0.205291 0.111289 -0.0395921 -0.370425 0.82954 0.417909
0.0236742 0.123638 0.0706612 -0.136418 0.955234 0.262524
-0.0180597 -0.0876293 -0.0763021 0.756301 -0.591003 0.280579
0.110343 0.0983906 0.203614 -0.195711 0.937471 0.287829
0.270152 -0.00837456 0.422071 -0.543651 -0.441766 0.713643
-0.270066 0.103543 -0.313414 0.724719 0.244836 -0.644079
0.33036 0.126721 0.329509 -0.182928 0.943246 0.277173
0.133056 0.000605215 0.0193028 0.725989 0.248485 -0.641245
-0.198834 0.129233 -0.180738 0.474528 0.340207 0.811839
0.0724981 -0.10052 0.0127277 -0.341884 -0.621491 -0.704886
-0.00572592 -0.0991229 0.105081 -0.692087 -0.296432 0.658136
0.223304 -0.178471 0.173896 0.128682 -0.972697 -0.193136
-0.271998 0.141014 -0.24816 -0.188145 0.939246 0.287086
0.236174 -0.0647556 0.170717 -0.657316 0.4915 -0.571282
0.310071 0.0918118 0.308813 -0.145913 0.947731 0.283751
-0.336505 -0.133922 -0.304694 0.140153 -0.963361 -0.228677
0.228471 0.0727197 0.427684 -0.75679 -0.20619 0.620286
0.326826 0.0457999 0.343154 -0.968177 -0.229687 0.0993854
-0.221149 0.108121 -0.148658 0.214116 0.755776 0.618836
0.181476 0.11354 0.146165 0.727551 0.0630291 0.683152
0.140469 0.0928261 0.0833946 0.684641 0.300606 -0.664005
-0.40632 0.106597 -0.217678 -0.288586 0.845737 0.448829
0.00711773 0.0375031 0.0820861 0.751576 -0.0482192 0.657882
0.0296427 -0.057657 0.159041 -0.661014 -0.34982 0.663842
-0.0596993 0.00401603 0.0322654 0.75387 -0.0917377 0.650587
-0.0742574 -0.0420805 -0.204248 0.643615 0.370888 -0.669479
0.230858 0.0565752 0.144905 0.649541 0.365694 -0.666607
-0.0999312 0.0483519 -0.180208 0.594513 0.396904 -0.699301
0.237261 0.143074 0.152145 0.676529 0.283267 -0.679756
0.369083 -0.107556 0.205523 -0.350163 0.834252 0.425922
0.29521 0.139056 0.270073 -0.251145 0.899731 0.356945
-0.257394 0.16252 -0.327127 0.586532 0.502824 -0.63494
0.1992 0.0875629 0.243745 -0.17907 0.950748 0.253008
0.0809194 0.0080045 0.240898 -0.702493 -0.267809 0.65938
0.116478 -0.158037 0.0772546 0.133839 -0.885716 -0.444516
0.185192 -0.0596538 0.0477061 0.801065 0.154353 -0.578334
-0.304894 0.101362 -0.14103 -0.146483 0.974966 0.167287
0.215495 0.102306 0.321034 -0.268993 0.866825 0.419831
0.00900849 -0.118621 0.0553928 -0.352981 -0.512601 -0.782716
0.219068 -0.0193019 0.184368 -0.472296 -0.491539 -0.73166
-0.223198 -0.0577467 -0.348372 -0.0819911 0.98507 0.151377
-0.300244 -0.0372063 -0.159145 -0.702627 -0.247012 0.667308
-0.228464 0.117977 -0.272241 0.681082 0.292394 -0.671292
-0.26217 -0.119371 -0.159888 -0.691215 -0.32924 0.643291
-0.100837 0.0850843 -0.159772 0.659181 0.351246 -0.664911
0.362097 -0.118087 0.286005 0.776883 0.623231 -0.0896465
-0.173566 0.0999744 -0.227649 0.611008 0.501209 -0.612747
0.258991 -0.162912 0.152882 0.145232 -0.94887 -0.280273
0.328911 0.13785 0.289717 -0.261853 0.900177 0.348016
0.342722 0.113233 0.254217 -0.222989 0.958707 0.176514
0.110929 -0.107388 0.147042 0.397653 0.677824 0.618407
0.182913 -0.102889 0.125458 -0.0297843 0.895761 0.443537
-0.451683 0.136686 -0.22175 -0.192723 0.918862 0.344311
-0.245797 0.0483688 -0.0583553 -0.659167 -0.351485 0.664799
-0.101289 0.0925615 0.0781621 0.746949 -0.0593934 0.662223
0.178598 0.00279399 0.186017 -0.029446 -0.86333 -0.503779
-0.144164 0.0383625 -0.154899 -0.0769795 -0.85869 -0.50668
-0.125446 -0.0334231 0.0145064 -0.562122 -0.463639 0.684878
-0.0594902 -0.0980543 -0.216677 0.654283 0.361931 -0.664018
-0.285537 0.0593944 -0.203004 0.193281 -0.936247 -0.293402
-0.234093 -0.0748974 -0.253185 -0.701518 0.148462 -0.697016
0.0397265 0.0732986 0.236828 -0.108442 0.955902 0.272931
0.145207 -0.0687998 0.00106013 0.671426 0.346082 -0.655297
-0.188413 -0.138055 -0.193442 0.193521 -0.951395 -0.239578
-0.184157 -0.027552 -0.233518 0.515076 0.431937 0.740356
-0.333643 0.142979 -0.167168 -0.290069 0.940656 0.176142
0.0994442 0.0332675 0.27268 -0.307213 0.94848 0.0774916
0.307532 -0.135441 0.282444 0.971661 0.0790382 0.222773
-0.243507 -0.115896 -0.309751 0.151828 -0.853341 -0.498755
0.0155799 -0.0421802 -0.114849 0.663259 0.345656 -0.663784
-0.304865 0.114826 -0.0857786 -0.648379 -0.360403 0.670607
-0.261064 0.189093 -0.262402 0.718169 0.24216 -0.652374
0.439674 -0.149819 0.248096 0.207997 -0.948342 -0.239552
0.172864 0.0856515 0.173574 0.10653 0.837859 0.535391
0.207392 -0.125241 0.0362933 0.609971 0.4046 -0.681347
-0.165797 -0.104527 -0.306239 0.124964 -0.967607 -0.219366
-0.0824852 -0.12122 -0.184361 0.202177 -0.930325 -0.305973
-0.073936 0.0149849 -0.0175498 -0.256809 0.905697 0.337287
0.184863 -0.0803503 0.0849155 0.282578 0.724982 0.628133
-0.364734 0.184821 -0.310507 -0.264088 0.937246 0.227656
0.270012 0.0407808 0.349011 0.97462 0.217691 -0.0522092
-0.0254985 -0.0144483 0.0624465 -0.735148 0.0178339 -0.677672
0.145367 0.000388696 0.301295 -0.696673 -0.309977 0.646963
0.263559 0.0821577 0.297751 -0.256716 0.891419 0.373455
-0.263826 0.146753 -0.127363 -0.194518 0.885771 0.421393
-0.429236 0.150009 -0.261938 -0.738211 0.0624814 -0.67167
-0.326606 0.0610914 -0.258206 -0.689493 0.12347 -0.713691
-0.034249 -0.0480587 -0.170164 0.691641 0.319377 -0.647789
-0.145477 -0.160184 -0.0936002 0.241808 -0.942088 -0.232376
-0.244545 0.137949 -0.0808274 0.076046 0.813051 0.577204
0.148319 -0.0164994 0.221169 -0.219267 -0.831645 -0.510184
0.313862 0.0438535 0.244419 0.19 -0.901343 -0.389205
0.373895 -0.181958 0.318935 0.717349 -0.0568986 0.694387
-0.0503185 0.1294 0.00740645 -0.257657 0.882884 0.392592
-0.262255 0.111236 -0.128832 -0.348264 0.858483 0.376455
-0.284929 -0.0787655 -0.428953 0.703315 0.297627 -0.645574
0.324402 0.0672021 0.389845 0.729903 -0.00790962 0.683505
-0.342167 0.122707 -0.237562 -0.190267 0.937391 0.291715
-0.371868 0.0551329 -0.27203 0.879804 0.283653 -0.381426
0.030023 -0.147542 0.114453 -0.707073 -0.290835 0.644565
-0.0516609 0.0411233 0.0212538 0.596587 -0.0712943 0.799376
-0.255762 0.00254888 -0.2186 -0.616178 -0.121765 -0.778138
-0.3946 -0.109737 -0.288067 -0.666722 -0.341577 0.662426
-0.0772789 0.0844559 -0.127337 0.78451 -0.0288548 0.619444
-0.364739 0.0583252 -0.168227 -0.537145 -0.442149 0.718317
0.307865 0.0310527 0.28274 0.203134 -0.847043 -0.491176
-0.330657 0.178896 -0.268712 -0.222642 0.952223 0.209052
-0.345044 -0.072374 -0.369366 -0.727476 0.0629678 -0.683238
0.0867502 -0.0448794 0.173121 0.705214 -0.545225 0.453213
-0.121156 -0.0252153 -0.134931 -0.659611 0.185611 -0.728328
0.373605 -0.147725 0.210014 0.132271 -0.968727 -0.209935
-0.23054 -0.0204398 -0.186977 0.843569 -0.199224 0.498699
-0.364336 -0.12388 -0.264959 -0.626225 -0.400627 0.668835
0.195223 -0.100176 0.196078 -0.602139 0.67282 -0.429816
-0.336786 -0.119856 -0.35799 0.0881666 -0.974433 -0.206656
0.162884 -0.0366263 0.0793036 0.653632 0.0546114 0.75484
0.15946 0.0870342 0.34462 -0.204186 0.914712 0.348725
-0.31547 0.0658489 -0.120786 -0.656266 -0.353364 0.66667
-0.132415 -0.145515 -0.140119 0.223085 -0.88215 -0.414782
-0.0941198 0.156446 -0.116702 0.613415 0.381232 -0.691653
-0.199225 -0.0731588 -0.191552 0.252702 0.647977 0.718518
-0.0540953 0.0279409 -0.145355 0.648614 0.361818 -0.669617
0.169943 0.147421 0.180821 -0.478829 0.869716 -0.119656
-0.241422 -0.0328857 -0.236515 -0.615622 0.102325 -0.78137
0.107412 -0.0906621 -0.0206951 -0.369803 -0.640079 -0.673457
0.182118 -0.1772 0.147543 0.163576 -0.965501 -0.20261
-0.165627 0.0235127 -0.252287 0.732336 -0.305906 0.608362
-0.348916 0.141487 -0.351163 -0.862744 -0.00523847 -0.505614
0.00873654 -0.0256495 0.0219629 -0.58271 -0.0153503 -0.812535
0.271248 -0.0411769 0.142539 0.560468 0.45131 -0.694403
0.127349 -0.0250877 0.12973 0.709427 -0.48523 0.511142
-0.246375 -0.0993464 -0.352084 0.215346 -0.920771 -0.325279
0.196303 -0.180794 0.256781 -0.643608 -0.384053 0.662022
0.0646257 0.0903151 0.201188 -0.175426 0.944102 0.279099
-0.251839 -0.155529 -0.177975 0.253166 -0.905326 -0.341015
-0.268784 -0.10615 -0.219413 -0.764914 0.114989 -0.633786
-0.020683 0.0313982 -0.00962179 0.761971 0.00835833 0.647557
0.292972 -0.14757 0.12956 0.182269 -0.944903 -0.271911
-0.224715 0.177036 -0.192331 -0.138596 0.975642 0.17004
-0.438941 0.0436555 -0.253731 -0.759251 -0.279731 0.587613
-0.164783 -0.127828 -0.220646 0.198267 -0.908905 -0.366855
-0.272537 0.169275 -0.20735 -0.183657 0.94825 0.259023
0.298777 -0.168178 0.358475 -0.196764 0.940196 0.278056
-0.31142 -0.0720421 -0.294394 -0.258039 0.89365 0.367159
-0.404169 0.165975 -0.28836 -0.73741 0.0636179 -0.672443
-0.353849 0.123019 -0.124301 -0.702922 -0.282713 0.652668
-0.162454 -0.142198 -0.165854 0.246975 -0.905827 -0.34421
0.1578 -0.134739 0.0304281 0.0791356 -0.931887 -0.354011
-0.11965 0.00135723 0.0392415 -0.706636 0.0457372 -0.706098
0.360679 -0.140245 0.319718 0.148544 0.719726 0.67818
-0.331221 0.159242 -0.213597 -0.221988 0.891719 0.394409
-0.0936937 0.00278246 -0.155969 -0.610874 -0.0830343 -0.787362
0.0637507 -0.175337 0.104434 0.0258165 -0.859204 -0.510982
0.260706 0.0553689 0.384381 -0.130696 0.959965 0.24776
0.0477379 0.0140617 0.0635317 -0.20732 0.894723 0.395588
-0.14863 0.121989 -0.0468367 0.726665 -0.0643796 0.683968
0.403996 -0.130539 0.293009 0.668207 -0.0542227 0.741997
0.154338 -0.12004 0.158126 -0.190551 0.911642 0.364141
-0.236682 0.103231 -0.0708366 -0.68811 0.104085 -0.718102
0.0473564 -0.128618 0.0438798 -0.352907 -0.664788 -0.658418
-0.307836 0.143172 -0.132152 -0.26841 0.909308 0.317986
-0.186577 -0.166529 -0.113979 0.160594 -0.948101 -0.274433
0.159625 0.0784521 0.246001 -0.681132 0.435163 -0.588806
-0.298915 0.177326 -0.2485 -0.0835029 0.962485 0.258165
-0.108003 0.104352 -0.0921639 0.798505 -0.101049 0.593447
-0.247067 -0.0646602 -0.39161 0.665643 0.344381 -0.662059
0.0550608 -0.0227197 0.206692 -0.687217 -0.206902 0.696365
-0.064963 -0.12807 -0.0867698 0.528591 -0.844874 0.0823443
0.0294593 0.0251698 0.0102224 -0.696163 0.0254749 -0.717432
0.122393 0.130903 0.100227 -0.717683 0.0491499 -0.694634
-0.296876 -0.116921 -0.316317 -0.482953 0.240166 -0.842067
0.195132 -0.0501501 0.276373 0.712216 -0.116133 0.692287
0.093477 0.0914036 0.123996 -0.639916 0.092722 -0.762831
0.208532 0.0348132 0.115464 0.74615 0.212869 -0.63083
0.353309 0.0378647 0.2985 0.169485 -0.958002 -0.231314
0.0981933 -0.0258498 0.222785 0.227069 -0.971655 -0.0657679
0.213793 0.0685547 0.31065 -0.0912856 0.963967 0.249867
-0.35358 0.0921559 -0.345141 0.208667 -0.879718 -0.427263
0.0422862 -0.00183904 0.0938982 -0.14009 0.959363 0.244943
0.245533 0.0964711 0.379527 -0.161312 0.867388 0.470762
-0.160237 -0.0696154 -0.201418 -0.0160309 0.919725 0.392235
0.220772 -0.0792154 0.24718 0.730723 -0.0621584 0.679839
-0.0980723 -0.14088 -0.117173 0.256134 -0.962889 -0.0850866
0.242274 0.0101388 0.298409 0.242315 -0.909913 -0.336662
0.216935 0.130764 0.120499 0.723375 0.323755 -0.609845
-0.132558 0.137559 -0.0783166 -0.19919 0.932845 0.300206
0.00445057 0.0638356 -0.0670304 0.704621 0.342578 -0.621409
0.316884 0.0911486 0.251408 0.659634 0.350788 -0.664703
0.150603 -0.1549 0.0927815 0.191312 -0.943829 -0.269417
0.185413 0.133189 0.217598 0.281161 0.698124 0.658461
0.291792 -0.0100116 0.355954 0.283061 0.426574 -0.859017
0.160304 -0.113452 -0.00842914 0.709024 0.306855 -0.634921
0.106103 0.0318729 0.0463193 -0.258305 0.886336 0.384299
-0.223123 -0.00599122 -0.258942 -0.720509 0.056922 -0.691106
-0.181673 0.174496 -0.141298 0.161105 0.713302 0.682089
-0.318011 0.0580676 -0.212786 0.210417 -0.925068 -0.316187
-0.258405 -0.071783 -0.220229 -0.771856 0.100062 -0.627874
0.277712 -0.034751 0.196275 0.723191 -0.0657114 0.687515
0.230721 -0.0889563 0.0715522 0.743565 0.161499 -0.648868
0.188987 -0.134527 0.272801 -0.696995 -0.281982 0.659306
0.199307 -0.155674 0.110777 0.962816 0.121026 0.241533
-0.189383 0.121397 -0.0765984 -0.191551 0.927965 0.319671
-0.253206 -0.00766425 -0.138839 0.746108 -0.602937 0.282472
-0.226131 0.159411 -0.148718 -0.615151 0.775373 -0.142778
0.229226 0.0866351 0.270826 -0.170032 0.963733 0.205688
0.177092 -0.0172321 0.298559 0.732598 -0.0641587 0.677632
-0.236156 0.0889408 -0.0311643 -0.610049 -0.480618 0.629958
-0.141618 0.16052 -0.15485 0.62263 0.19518 0.757784
-0.297403 -0.106071 -0.247919 -0.194609 0.942322 0.272318
-0.382656 0.141793 -0.307131 -0.193755 0.935846 0.294366
0.0226153 -0.0274902 -0.0752874 0.806467 -0.348116 0.477939
-0.0401773 0.0446403 0.0827361 -0.776843 0.0114811 -0.62959
0.183177 -0.0947778 0.0216107 0.657115 0.357162 -0.663804
-0.206484 -0.0421265 -0.277368 -0.665951 0.00700529 -0.745962
0.202971 0.0879637 0.369359 -0.189499 0.949216 0.251155
0.280233 0.0538884 0.208284 0.527881 0.479182 -0.701232
-0.18267 0.163642 -0.256397 0.681727 0.327759 -0.654081
0.159618 0.00746875 0.1134 0.665892 -0.682259 0.301846
-0.408073 0.0626439 -0.291136 0.153211 -0.942442 -0.297204
0.319807 0.103233 0.397999 -0.217586 0.920749 0.323849
-0.146301 -0.0559373 -0.230223 0.119126 0.826555 0.550105
-0.203754 0.0657342 -0.00451353 -0.712255 -0.240077 0.659588
-0.256289 0.0430638 -0.221342 -0.578303 0.111812 -0.808124
-0.0116467 0.0226379 -0.106383 0.73824 0.315879 -0.596005
0.244503 -0.185288 0.251191 0.20253 -0.930797 -0.304299
-0.300814 0.134572 -0.212306 0.223095 -0.926187 -0.303983
0.00763469 -0.0857333 -0.130781 0.588387 -0.782559 0.203474
0.27677 -0.00631733 0.165113 0.778833 0.141221 -0.611126
-0.15967 0.0625803 -0.234088 0.646758 0.393414 -0.653399
-0.27863 -0.0377847 -0.198019 -0.671928 0.0454186 -0.739222
0.137119 0.108561 0.166061 -0.162381 0.957098 0.239991
0.14192 0.0979306 0.303178 -0.180064 0.967387 0.178158
-0.15118 -0.131734 -0.0508423 -0.654692 -0.37237 0.657814
-0.328097 -0.15694 -0.257851 0.207992 -0.919565 -0.333377
-0.346969 0.082603 -0.143784 -0.690621 -0.27425 0.669201
0.314196 -0.11695 0.18824 -0.12091 0.979849 0.158984
0.179044 -0.0929926 0.289943 -0.599264 -0.48756 0.634955
0.225958 -0.00679133 0.344539 0.197985 -0.93582 -0.29162
-0.15192 -0.0382635 -0.103425 -0.77503 0.00737764 -0.631881
0.0722179 0.00285859 0.141765 -0.77873 0.097635 -0.619715
-0.174772 -0.00698661 -0.0913778 -0.463431 -0.467708 -0.752649
-0.346583 -0.0780408 -0.319469 -0.0793674 0.984617 0.155658
-0.323318 0.0393985 -0.152251 0.156535 -0.968295 -0.194684
-0.204342 -0.136061 -0.234779 0.142433 -0.94816 -0.284087
0.206943 -0.0566634 0.205845 -0.731714 0.0173326 -0.681392
0.184981 0.0774929 0.117135 0.656597 0.358144 -0.663787
-0.117608 0.127357 -0.152689 0.606026 0.474828 -0.638178
0.111505 -0.197582 0.158523 0.192651 -0.923418 -0.33194
0.173309 -0.0626349 0.237848 -0.632202 -0.177327 -0.754238
0.267986 0.0409192 0.176606 0.78942 0.121247 -0.60176
0.189213 -0.196952 0.21351 0.207338 -0.930063 -0.303304
0.101975 -0.154773 0.181181 -0.700695 -0.285163 0.653995
-0.233845 0.15932 -0.290477 0.111563 -0.957763 -0.265036
0.365527 0.120611 0.352033 0.725226 -0.0644368 0.685489
0.260813 -0.162786 0.298348 -0.262225 0.904924 0.335186
0.0557419 0.0674886 0.0395488 0.728721 -0.0580656 0.682345
-0.0702204 0.0598382 0.122313 -0.694392 -0.23341 0.680691
0.0219821 0.0812339 0.0720536 0.69344 -0.100158 0.713519
0.253245 -0.077445 0.12622 -0.556985 0.787316 -0.264387
0.271567 -0.00300973 0.325976 -0.4865 -0.795232 -0.361835
-0.19467 0.0328927 -0.172366 0.484058 -0.874237 -0.037394
-0.285142 -0.139217 -0.264505 0.269854 -0.902287 -0.33624
0.290785 -0.150095 0.164983 0.198088 -0.946539 -0.254606
-0.11249 -0.0718758 0.0120865 -0.670114 -0.338728 0.660462
-0.352388 0.0459175 -0.204334 0.146868 -0.96544 -0.215305
-0.297856 -0.0601548 -0.375149 -0.100815 0.992175 0.0736534
-0.233317 -0.0862749 -0.160289 0.322144 0.599755 0.732474
-0.12756 0.180585 -0.190978 -0.227328 0.915633 0.33157
-0.152299 -0.00742653 0.00335731 -0.170192 0.94878 0.26618
0.042531 -0.0210646 -0.00886925 -0.643111 -0.0494585 -0.764174
0.232118 -0.181843 0.213135 0.166287 -0.945818 -0.278885
-0.221357 -0.157944 -0.155234 0.190446 -0.920036 -0.342439
0.143581 0.0496227 0.32759 -0.194179 0.936472 0.292088
-0.0785894 -0.135986 -0.144545 0.20221 -0.970616 -0.130444
0.08056 0.0426973 0.0135071 -0.21127 0.966959 0.142671
-0.00113067 0.149674 -0.0278646 -0.246484 0.903872 0.34966
-0.25179 -0.128431 -0.276028 0.220579 -0.92038 -0.32287
-0.367863 0.0641334 -0.306685 0.428933 -0.0974234 0.898067
0.273275 0.128109 0.302995 -0.260692 0.885314 0.385043
-0.283057 -0.157387 -0.225809 0.217409 -0.924442 -0.313275
0.330998 0.00208985 0.363463 0.595609 -0.796111 0.107038
0.115893 -0.0156998 0.265451 -0.716483 -0.301847 0.628921
0.335026 -0.188596 0.302462 0.165979 -0.960055 -0.225268
0.299112 -0.0071974 0.39946 0.204936 -0.921357 -0.330307
0.123905 0.0508955 0.0912735 -0.709444 0.0635202 -0.701893
0.315654 0.0886054 0.356748 -0.977201 -0.184725 0.104666
-0.232011 0.00619783 -0.0694068 -0.638347 -0.413253 0.649412
0.0433578 -0.00160427 0.174026 -0.700786 0.0674357 -0.710177
0.0488559 0.106017 -0.00182802 0.64712 0.365972 -0.668806
0.163214 -0.00776753 0.0544497 0.634042 0.446218 -0.63157
-0.198391 -0.0991643 -0.138342 -0.177539 0.949397 0.259084
0.150377 -0.129503 0.24763 -0.781388 -0.174127 0.599259
0.0479316 0.064892 -0.0101843 -0.750186 0.0868788 -0.655494
0.0860331 0.0131783 0.0947025 -0.226378 0.919274 0.322008
-0.00121717 -0.0149906 -0.0355049 0.680995 -0.116532 0.722956
0.288311 -0.108176 0.128545 0.692436 0.314333 -0.649405
0.27173 0.0314626 0.250773 0.127774 -0.954375 -0.269892
-0.198674 -0.0947275 -0.338295 0.188666 -0.936353 -0.296056
-0.0280682 -0.03209 0.118675 -0.565381 -0.44257 0.696043
0.115802 0.116061 0.245242 -0.264482 0.964375 -0.00550432
0.271969 -0.193357 0.287557 0.183842 -0.966572 -0.178719
0.161855 0.114695 0.105768 0.575401 0.431814 -0.694587
-0.267128 0.0058152 -0.101072 -0.527044 -0.415847 0.741145
0.179786 0.00564664 0.339779 -0.662472 -0.348401 0.663135
-0.158672 0.143184 -0.113997 -0.200602 0.933153 0.298304
-0.332135 0.152601 -0.305153 -0.1726 0.910695 0.375293
-0.0763842 0.072542 -0.00669915 -0.736642 0.0710892 -0.672536
-0.0307796 0.125987 -0.0453603 -0.357838 -0.882637 0.304803
