ply
format ascii 1.0
comment Created by Open3D
element vertex 512
property double x
property double y
property double z
property double nx
property double ny
property double nz
end_header
-0.430694 0.002027 0.11522 0.0230524 -0.189526 0.981605
0.363646 -0.0955898 0.0139641 -0.11475 -0.079304 -0.990224
0.0197951 -0.0894659 0.0403502 -0.0955087 -0.896535 0.432554
-0.18007 0.0835626 0.0726723 0.0745189 0.698313 0.711903
0.0300994 0.0679095 -0.0726305 0.00357426 0.714603 -0.699521
0.107743 -0.101746 -0.0277411 -0.0661442 -0.951374 -0.300854
0.431535 0.0462069 -0.0459191 0.0292778 0.12107 0.992212
-0.273511 0.094031 0.0714431 0.0478191 0.833262 0.550807
0.0904986 -0.06593 0.026527 -0.00625916 0.905606 -0.424073
0.318937 -0.0298496 -0.0791634 0.0667691 0.174432 0.982403
0.284265 -0.0836195 -0.00885392 0.0638557 0.991699 -0.111603
0.250777 -0.0620882 0.0771157 0.00351747 -0.470485 0.882401
0.181699 0.0459906 0.0317479 -0.0589986 -0.838494 -0.541708
0.45246 0.0729172 -0.00399057 0.0575519 0.988479 0.139992
-0.373156 -0.046105 0.00010998 -0.0475232 0.952981 0.299281
-0.0925562 -0.0447527 0.089174 -0.0139499 -0.484867 0.874477
0.434318 -0.0131303 -0.0851166 0.0164026 -0.145438 0.989231
-0.463319 0.0214432 -0.0499289 0.00466995 0.0218295 0.999751
-0.139776 0.0456074 0.062446 0.0309608 -0.575051 -0.817532
-0.476739 -0.0371409 0.0495467 0.0993688 0.891478 -0.442033
0.155148 0.105825 -0.0625309 0.0131005 0.884823 -0.465744
0.0348733 -0.011857 0.0664426 0.117181 0.980092 -0.160275
-0.346825 0.0812513 -0.00885726 -0.00413211 -0.942411 0.334432
0.0534861 -0.0472479 0.0473743 -0.0475377 0.692873 -0.719491
-0.0235695 0.0335436 0.060729 -0.133207 -0.492151 -0.860258
0.131379 -0.111537 -0.0793358 -0.0468233 -0.817106 -0.574583
-0.168883 0.047278 -0.0489424 -0.028045 -0.540597 0.840814
-0.363974 0.034229 -0.0829492 -0.0881143 0.198959 -0.976039
0.148687 0.117644 -0.0274158 -0.000352373 0.992108 -0.125386
0.462874 -0.112498 -0.0783646 -0.0680857 -0.831474 -0.551376
0.266548 0.0478759 0.0669399 0.0870926 0.61828 0.781117
0.235266 0.0603094 -0.074415 -0.0338348 0.787009 -0.616013
-0.422805 0.117847 0.0428504 0.0654493 0.969528 0.236074
0.227553 -0.04711 0.0473557 0.098605 0.486815 -0.867922
0.0640386 -0.0797786 0.0596356 0.00612752 -0.788676 0.614779
0.136028 -0.0158748 0.119152 -0.982442 0.17554 -0.0631971
-0.161454 0.103339 -0.0158882 0.0158231 0.978957 -0.203451
0.0991523 0.0599716 0.0165892 -0.13104 -0.918093 -0.374076
0.0381428 0.0622515 -0.02145 -0.0658117 -0.95681 0.283166
-0.204803 -0.0294017 0.0628998 -0.0189555 0.57439 -0.818363
0.204028 0.0409531 0.0912794 0.982511 -0.186171 0.00354686
0.359215 0.0422507 -0.093824 0.00675581 0.599544 -0.800313
-0.422308 0.00761747 -0.047978 0.0280218 0.244721 0.969189
0.379963 0.0110085 0.0790551 0.0589862 0.30431 0.950745
0.192131 -0.104056 -0.0656428 0.997715 -0.0511625 -0.0441256
-0.258226 0.050617 -0.0465907 -0.00318634 -0.552142 0.833744
-0.0034445 -0.017498 -0.0983618 -0.216886 -0.162328 -0.962606
0.462788 -0.00665995 -0.123129 -0.997321 0.0640221 0.0353789
0.127379 -0.129683 0.00642731 -0.997811 0.0515081 0.0414838
0.0256217 0.0750422 0.0620311 0.0577395 0.797517 0.600527
-0.356874 -0.0785074 0.010556 -0.619984 0.175274 0.764787
-0.475369 0.0872163 0.10527 0.051004 0.598861 0.799227
-0.203762 0.102085 -0.0271767 0.0140991 0.936354 -0.350774
-0.333 0.116115 -0.00297014 0.0423394 0.986409 -0.158761
0.00451685 0.093778 -0.0356319 -0.00048214 0.936464 -0.350764
-0.292287 -0.0287101 -0.0761515 -0.0429522 -0.389749 -0.919919
0.128409 -0.115619 0.0602256 -0.0495613 -0.840171 0.540053
-0.0492393 -0.0094281 0.0667619 0.0210382 0.996203 -0.0844824
-0.479535 0.0532874 0.0819935 -0.0703014 -0.406395 -0.910989
-0.337405 -0.0746366 -0.0213854 -0.0656075 -0.94336 -0.325218
-0.161659 -0.060724 0.017618 0.0506532 0.983477 -0.173804
0.104824 -0.078232 0.0626927 -0.0420309 -0.698214 0.714654
-0.301044 0.111771 0.0353009 0.175529 0.95569 0.236317
0.299664 -0.115079 -0.0224313 -0.043396 -0.991009 -0.126562
-0.450202 -0.071079 0.0519423 -0.0160248 -0.947269 0.320039
0.130114 0.00364504 -0.0983944 -0.0521568 -0.989482 0.134926
-0.445451 0.0483633 -0.076764 -0.00982229 0.228082 -0.973592
0.283158 0.0346469 0.0375904 -0.0783404 -0.692132 -0.717507
-0.467044 0.124329 -0.0153183 0.0175108 0.956129 -0.292422
0.425866 0.0627633 0.0307862 0.0861494 0.887477 0.452728
-0.305765 -0.0665041 -0.037506 -0.0860692 -0.883656 -0.460156
0.40462 -0.112434 0.016109 -0.0687446 -0.10107 -0.992501
-0.459846 0.0695151 -0.030624 -0.0180818 -0.670851 0.741372
0.493234 0.0333136 -0.0541739 -0.0660938 -0.841143 0.536759
-0.304575 -0.0094563 0.10925 0.00780703 -0.228155 0.973594
-0.157816 -0.0394536 -0.0433187 0.0662822 0.70215 0.708937
-0.108168 0.1018 -0.017092 0.0133497 0.986129 -0.165442
0.430385 0.021763 0.0322539 -0.0745514 -0.606042 -0.791931
0.0859863 0.0745828 0.0573068 0.053341 0.795721 0.60331
-0.321401 -0.0820126 0.0298505 -0.0439579 -0.981522 0.186233
0.497179 -0.0487083 0.0440562 -0.0489403 0.366929 -0.928961
-0.223779 -0.0838198 0.0354915 1.87861e-05 -0.970398 0.241511
-0.215982 0.0840422 0.0767045 0.0293696 0.727427 0.685556
-0.213744 -0.0611127 0.0753102 -0.0461379 -0.734106 0.677465
0.0743934 -0.018887 0.062983 -0.00451927 0.234074 -0.972208
-0.306791 -0.01094 -0.0493449 0.0346271 0.99297 -0.113189
0.502197 0.0323828 0.0108182 -0.10094 -0.869744 -0.483069
0.168613 -0.0556109 0.110123 -0.00153034 -0.343797 0.939043
-0.279937 0.113597 -0.00135964 0.00111928 0.995972 -0.0896623
-0.198336 -0.0537521 0.0300242 0.0543929 0.931766 -0.358961
-0.429784 -0.0381667 0.0463784 0.0163918 0.905638 -0.423735
-0.054736 0.100672 -0.00429395 0.025606 0.999192 -0.030969
0.308459 0.0241955 0.079259 0.0898348 0.288765 0.953176
-0.226138 -0.00364389 0.0757593 -0.0122281 0.170007 -0.985367
-0.485957 -0.00700237 -0.040333 0.0622127 0.444244 0.893743
-0.12347 -0.0495362 -0.0335945 0.0919872 0.829892 0.550289
0.238459 -0.0403525 -0.0746147 0.0318672 0.995379 -0.0905773
-0.22948 0.0875475 -0.0536127 -0.0129041 0.810596 -0.585463
0.339888 0.0405741 -0.0464128 -0.0611839 -0.834116 0.548185
-0.122323 0.0751026 0.00554356 -0.0633095 -0.997939 0.0104741
0.433262 -0.0309133 0.0811571 0.0405439 -0.101945 0.993963
0.420187 -0.108406 -0.0647721 -0.0379599 -0.883041 -0.467757
0.158474 0.114387 0.025816 0.099332 0.963948 0.246856
-0.43648 0.0869624 -0.0550679 0.00205445 0.677178 -0.735816
0.495717 -0.0900124 -0.0499897 0.997898 -0.0597396 -0.0251248
0.219364 0.0293103 -0.0988959 -0.0240967 0.433232 -0.90096
0.407851 -0.0710899 -0.0625021 0.0529585 0.771743 0.633726
-0.0968466 0.0639201 0.0383221 -0.0510819 -0.837065 -0.544714
-0.0116117 -0.0256308 0.0630903 -0.0143981 0.382433 -0.923871
-0.184222 -0.0892837 -0.00108237 -0.0550497 -0.993115 -0.103406
-0.227819 0.0803897 0.0106047 -0.0551039 -0.998479 -0.00198235
-0.238914 0.042211 0.0718415 -0.0609644 -0.427934 -0.901752
-0.0531253 -0.0967458 -0.00212648 -0.0154786 -0.99757 -0.0679297
-0.204191 -0.0211505 -0.0763584 0.025005 0.997361 -0.068155
-0.277323 -0.0496879 -0.0111278 0.0870117 0.948182 0.30558
-0.201283 0.0676961 -0.072257 -0.0584205 0.599305 -0.798386
-0.246734 0.108519 -0.00378575 -0.0331563 0.990896 -0.130482
0.499521 -0.0737199 0.0714527 0.995072 -0.094207 -0.0309444
0.0213388 -0.0526285 -0.0849263 -0.0856408 -0.487722 -0.868788
-0.183031 0.0432738 0.101906 -0.0944134 -0.98659 0.133139
0.16835 -0.0757156 0.00243515 0.0610265 0.983351 -0.171161
0.20073 0.118123 -0.000725467 0.0688731 0.996364 0.0501444
-0.458926 0.124375 0.0322036 0.996812 -0.016701 -0.0780193
0.499803 0.0559244 0.0443807 0.0470347 0.778555 0.625811
-0.342859 -0.0142395 -0.0458832 0.0681818 0.46462 0.882881
-0.272684 0.102142 -0.0368904 0.0225947 0.887099 -0.461025
-0.183785 -0.00321491 0.0749223 0.0412196 0.991862 -0.120463
-0.484018 -0.0160336 0.116286 0.00457766 -0.396824 0.917883
0.283235 0.0540527 -0.0797492 0.0371083 0.680906 -0.73143
-0.029496 -0.0646679 0.0088965 0.0501622 0.993548 -0.101713
-0.199928 0.0638018 -0.0318429 0.00710105 -0.851348 0.524554
0.0220253 -0.0964629 -0.0257425 -0.0649951 -0.97236 -0.224257
-0.0373898 0.0541609 -0.0816094 -0.0128782 0.524172 -0.851515
0.0508952 0.00760947 -0.0712373 0.0402392 -0.998054 0.0476329
0.320567 -0.0833174 0.00786698 0.0621873 0.949148 -0.308629
0.464912 0.0482378 -0.0955714 0.0821761 0.677981 -0.730471
0.322369 0.0624559 0.0466652 0.0537137 0.785154 0.616967
0.235458 0.0829028 0.00965308 0.0536164 0.980004 0.191618
0.107208 0.0541061 -0.0347545 0.00955456 -0.913543 0.40663
-0.334312 0.0208763 0.111814 0.00533828 0.0391066 0.999221
0.304446 0.0794657 -0.0345335 0.0377591 0.973123 -0.227168
-0.00333583 0.0494298 0.0868286 0.0863233 0.449777 0.88896
0.295693 -0.0269135 0.0818431 0.0185828 0.996653 -0.0796079
-0.110743 0.0421409 0.0945427 0.0596453 0.369437 0.92734
0.177082 -0.0191683 0.120189 -0.000424799 -0.066564 0.997782
0.349559 -0.0673229 0.0716247 0.0503837 -0.498464 0.865445
-0.421206 -0.0534943 0.083184 -0.0460167 -0.713044 0.699607
-0.40658 0.0288023 0.116782 0.0917205 0.0635143 0.993757
-0.431178 0.0270697 0.0857733 -0.0385205 -0.097111 -0.994528
-0.0858033 -0.054066 -0.0302315 0.046886 0.866226 0.497447
-0.337657 0.0987054 0.0730115 0.0140953 0.780324 0.625217
-0.222894 -0.0508635 -0.0669903 -0.0665933 -0.642605 -0.763298
0.259424 0.0361538 -0.0552245 0.0307735 -0.745685 0.665587
-0.251842 -0.0589039 0.0765074 -0.114449 -0.706277 0.698623
-0.2167 0.108819 0.037645 -0.0253799 0.940658 0.338407
0.401044 -0.0314696 -0.0855853 0.145594 0.0529167 0.987928
0.0613845 0.0378001 -0.0914528 0.000392323 0.404991 -0.914321
-0.379865 0.086989 0.0272271 -0.00240791 -0.960771 -0.277333
-0.487221 0.109704 -0.0448349 0.034488 0.787394 -0.615485
0.185216 -0.0477397 -0.0655112 0.0423101 0.579095 0.814161
0.21762 -0.0856069 -0.0773641 -0.0669888 -0.743547 -0.66532
-0.220562 0.0273317 -0.0570659 -0.0272827 -0.142672 0.989394
-0.172272 -0.0560433 -0.0149818 0.0511805 0.936691 0.346395
-0.0680958 0.0899467 -0.0425994 0.010711 0.885953 -0.463652
-0.282759 0.0455175 0.0721891 -0.0254714 -0.51195 -0.858638
0.161302 -0.100929 0.081206 0.000456941 -0.700889 0.71327
-0.239465 0.0533788 -0.0794009 -0.036667 0.457218 -0.888598
-0.505427 -0.0610932 -0.0208143 -0.994092 0.0391676 0.101228
-0.342618 0.113919 0.0358069 0.0716323 0.968854 0.237047
0.156543 -0.13462 -0.0129711 -0.0598642 -0.997895 -0.024936
-0.385955 0.0357011 -0.0511598 0.0240233 -0.244712 0.969298
0.231319 -0.0873951 0.0521682 0.00827721 -0.781687 0.623616
0.191306 0.0574839 -0.00851466 -0.0541512 -0.998518 0.00548691
0.095244 -0.0157302 0.0922329 -0.00216234 -0.0228736 0.999736
0.468078 -0.0699612 0.0724987 -0.994999 0.0970235 0.0237445
0.191918 -0.0456948 -0.107291 0.997441 -0.0588838 -0.0405486
-0.341097 0.0378784 0.0803028 -0.0696296 -0.288019 -0.95509
0.206861 0.0665432 0.0595452 0.998942 -0.00300182 -0.0459003
0.124754 -0.0746117 -0.013676 0.0175869 0.987117 0.159028
-0.0258232 -0.050093 0.0459104 0.0640352 0.726344 -0.684342
0.502094 0.0014474 0.0809319 0.0601269 0.261222 0.963404
-0.166048 -0.076616 -0.0455295 -0.0217864 -0.859172 -0.511223
0.0445932 -0.0768365 -0.0675329 -0.113002 -0.708111 -0.697001
-0.104417 -0.046279 -0.081153 -0.0258394 -0.547414 -0.836463
-0.295196 0.0324249 -0.0849657 -0.018288 0.139514 -0.990051
0.504055 0.0790498 -0.00391946 0.0835468 0.98722 0.135709
-0.502118 -0.0679649 0.0523569 -0.995102 0.0941245 -0.0302184
0.297212 -0.0722743 -0.0502401 0.07737 0.844659 0.529684
0.474746 0.00959646 -0.0785863 0.0107187 -0.521199 0.853368
-0.114353 0.0430253 -0.0500697 0.0352969 -0.578413 0.81498
0.354045 0.0696767 -0.0643309 0.013139 0.872961 -0.487614
-0.0543486 -0.0899207 0.0349218 -0.0276032 -0.945931 0.32319
-0.0354723 -0.0317507 0.0950924 0.0173113 -0.340363 0.940135
0.420334 -0.0109851 0.0482478 -0.0416965 -0.174924 -0.983699
-0.473872 0.078531 -0.0723783 -0.00808962 0.49819 -0.86703
0.0166022 0.0100625 0.0996998 0.0280712 0.134375 0.990533
0.492215 -0.110497 0.0419121 -0.0193578 -0.792013 0.610197
-0.0631449 0.039931 0.0606144 -0.0507 -0.568775 -0.820929
-0.0675588 0.0508718 -0.0459394 -0.00379282 -0.716522 0.697555
-0.391899 -0.0442932 0.0450765 -0.000876948 -0.188007 -0.982167
0.464678 -0.0705685 0.0313962 0.016808 0.667184 -0.744703
-0.460331 -0.0447607 0.0908918 -0.0124127 -0.70983 0.704264
0.242936 0.0207012 0.0817339 0.00138023 -0.995418 0.0956111
0.334629 -0.0162198 -0.112562 -0.0385866 0.00546722 -0.99924
-0.107659 0.102643 0.0231684 0.0222228 0.970971 0.238163
0.161509 -0.00186994 -0.127921 -0.0215784 -0.994038 0.106875
0.269601 -0.108394 -0.0389263 -0.0618649 -0.956729 -0.284327
0.174963 0.0683102 0.0950563 0.0760059 0.591945 0.802387
0.268579 -0.0551375 0.0423133 0.0129183 0.633357 -0.773752
0.153459 -0.0490767 0.0461312 0.0135106 0.591165 -0.806438
-0.501584 0.0356483 -0.0823476 -0.997923 0.0424427 0.0484585
0.299345 0.0794822 0.0183927 0.0829093 0.953116 0.291027
0.126794 0.0325489 -0.0601138 -0.0987931 -0.562379 0.820957
0.436038 -0.0888115 -0.0324426 0.0696649 0.978954 0.191825
-0.215448 -0.0539001 -0.00963651 0.0614797 0.969873 0.235727
-0.172386 -0.0518697 -0.0710928 -0.0917227 -0.516609 -0.851294
-0.0726726 -0.061956 -0.0681095 -0.0332459 -0.671793 -0.739993
0.268418 -0.0865118 -0.0796826 -0.065214 -0.745134 -0.663718
0.276644 -0.100489 0.0365499 -0.0224604 -0.863424 0.503979
0.187135 0.0525366 -0.119067 -0.067886 0.531059 -0.844611
0.219021 0.0526455 0.0137849 -0.0875658 -0.925673 -0.368051
-0.143311 0.10161 0.034066 0.00407433 0.937917 0.346835
-0.487842 -0.01554 -0.0770945 -0.0699445 -0.451872 -0.889337
-0.39963 -0.0197836 0.0711746 -0.0265115 0.625703 -0.77961
-0.428751 0.0615289 0.07396 -0.0363575 -0.633626 -0.772785
0.213893 0.00136801 -0.0844589 -0.0627924 -0.987223 0.146451
-0.410115 -0.0235832 0.10565 0.0343005 -0.525052 0.850379
0.0433801 -0.0434807 0.0868452 0.023732 -0.440008 0.89768
-0.409627 0.078761 0.0521932 -0.0579176 -0.868944 -0.491509
-0.0448604 0.0968745 0.0319524 0.0866636 0.973525 0.211514
0.131494 0.0906608 0.0148486 0.0813875 0.983281 0.162897
-0.258184 0.00255898 0.104938 0.0495599 0.990838 -0.125633
0.138699 -0.129034 -0.0405111 -0.0755494 -0.967517 -0.241253
0.385574 -0.063594 0.0721978 -0.00295755 -0.334171 0.942508
0.118481 -0.0190362 0.0654744 -0.00473882 0.994587 -0.103796
-0.386533 0.096453 0.0755971 0.090518 0.748708 0.656691
0.230324 -0.105024 -0.0423768 -0.120182 -0.937335 -0.327046
0.371018 -0.10786 -0.061466 -0.0510286 -0.877709 -0.476469
-0.0763303 0.0594112 -0.0811024 0.0558983 0.532549 -0.844552
-0.169307 -0.0752649 0.0588206 0.0526071 -0.892312 0.448344
0.462721 0.0460552 0.0504739 0.0693655 0.692999 0.717594
-0.481125 -0.0369001 -0.00575859 0.0726611 0.93446 0.348577
-0.497697 -0.00375018 0.083884 -0.998219 0.0593485 0.00612749
0.0411418 -0.101917 0.00225806 -0.0335928 -0.998089 0.0518734
0.349046 -0.00841467 0.0541987 -0.0487052 -0.0920251 -0.994565
-0.158344 -0.043367 0.0537158 0.0817925 0.725771 -0.683057
-0.112281 0.0298764 -0.0926538 -0.000683664 0.226046 -0.974116
0.431184 -0.0532708 0.0429924 0.0634062 0.410492 -0.909657
-0.407821 0.0403538 -0.0826253 -0.0348473 0.207348 -0.977646
-0.138821 -0.0230142 -0.0698525 0.0427159 0.992195 -0.117153
0.190574 -0.135974 -0.00939803 0.998103 -0.0409194 -0.0460075
0.403429 0.0393212 -0.0936604 -0.023002 0.639973 -0.768053
0.367799 -0.117498 -0.0235823 -0.0466562 -0.993699 -0.101905
0.200324 0.105391 -0.0579045 0.0514159 0.879279 -0.473524
0.377757 -0.0944268 0.0487266 0.0592604 -0.767157 0.638716
0.36101 0.0298979 0.0350873 -0.0682495 -0.720051 -0.690556
0.240403 0.0529198 -0.0215247 -0.0811371 -0.970206 0.228291
-0.163379 -0.00135083 0.104908 0.0631464 -0.131225 0.989339
-0.250066 0.0756558 -0.0166448 -0.037454 -0.914771 0.402234
0.242765 -0.0733158 0.0122953 0.00326852 0.941076 -0.338178
-0.466881 -0.0731886 -0.00347927 -0.11787 -0.966963 -0.22603
-0.0111882 0.0145766 -0.0982531 -0.0499399 0.171503 -0.983917
-0.121212 -0.0621205 0.00241687 0.0380138 0.997847 0.0534375
0.445802 -0.087497 -0.0939033 -0.0544898 -0.601108 -0.797308
-0.296883 0.0494519 0.106809 0.0634856 0.300117 0.951787
-0.363872 0.111971 -0.0191619 0.0423184 0.912721 -0.406385
-0.0151657 0.0681001 -0.0138377 0.017731 -0.983404 0.180562
-0.431614 0.114686 -0.0181297 0.0774724 0.899623 -0.429741
0.317649 0.0168728 -0.0724088 -0.0159592 -0.453296 0.891217
-0.363619 -0.0364896 -0.0682733 -0.126827 -0.519256 -0.845156
-0.112758 -0.0837225 -0.0384376 -0.0634474 -0.881792 -0.467351
-0.359835 -0.0278771 0.0654496 0.0451196 0.656317 -0.753135
-0.452479 0.108187 0.0688221 0.048868 0.857527 0.512112
0.0927203 0.0113889 -0.10246 -0.0877929 0.156276 -0.983804
-0.0728601 0.0899347 0.0542941 0.10131 0.883837 0.456693
0.330479 0.0418532 0.0209365 -0.072243 -0.83559 -0.544582
-0.288218 -0.0509112 0.0212769 0.0318384 0.990267 -0.135488
-0.165995 -0.0429307 0.0903717 -0.0291531 -0.513096 0.857836
0.1465 0.054287 -0.116403 -0.00739857 0.500962 -0.865438
-0.0757225 0.0359362 0.0940045 -0.0620827 -0.989295 0.132068
-0.319143 -0.0430524 0.0458983 -0.000724792 0.898512 -0.438949
-0.105558 -0.0120813 0.103278 0.0176611 -0.137979 0.990278
0.277301 -0.0458473 -0.0891677 0.0852062 0.983687 -0.158431
-0.244749 -0.0195906 -0.0792924 0.00706337 0.997705 -0.0673429
0.464158 0.0657949 -0.0554891 0.0452241 0.91994 -0.389442
0.373118 -0.0702373 -0.059896 0.0738341 0.758428 0.647561
-0.0388621 -0.046335 -0.0483606 0.0838444 0.655568 0.750467
0.123967 -0.0564715 -0.121413 -0.994914 0.100669 -0.00340874
-0.406669 -0.0231529 -0.0359373 0.0774334 0.593821 0.800863
-0.332389 -0.0477047 0.00465572 0.0487947 0.989204 0.138186
0.466762 0.0417458 -0.00152945 -0.128747 -0.961254 -0.243754
-0.408913 0.06681 0.10439 0.0485267 0.490683 0.869986
0.268363 0.0837624 -0.0114702 0.073919 0.997008 -0.0225912
0.130658 -0.0679357 0.0213793 -0.0262881 0.909611 -0.414629
0.187658 -0.131973 0.0271446 0.0044805 -0.961749 0.273894
0.20637 -0.0788613 -0.00145352 0.0346284 0.992709 -0.115454
0.398422 0.072188 -0.0500347 0.046417 0.93668 -0.347095
0.0866904 0.0910824 -0.0223914 -0.00791821 0.987238 -0.159055
-0.00424718 -0.078846 -0.0566173 -0.107738 -0.811253 -0.574684
0.106703 0.025636 0.0897885 -0.195901 -0.965329 0.17252
-0.492068 0.106035 0.0682818 -0.997623 0.0562187 0.0398461
-0.248507 -0.0548553 0.0129239 0.0563783 0.997897 -0.0319968
0.493081 -0.128577 -0.0409126 0.995537 -0.086671 -0.0373475
0.123903 0.0907621 -0.0194899 -0.0130932 0.995379 -0.095125
0.191664 -0.110799 0.0683833 0.0444142 -0.821079 0.569085
0.367688 -0.00939838 -0.0821465 0.114637 -0.231628 0.966026
-0.0688673 -0.00463671 0.0968305 0.0746855 0.988888 -0.128538
-0.185729 0.110072 0.0133898 0.0524981 0.99714 0.0543587
-0.0437166 0.0473115 0.088417 0.0524749 0.496457 0.866474
-0.00627285 -0.0978491 0.00882285 0.0187822 -0.997341 0.070411
0.333315 0.0792705 0.0124649 -0.0271447 0.964724 0.261861
-0.117633 -0.0542569 0.0357193 0.0267823 0.885173 -0.464491
0.0632824 -0.0692111 -0.0184008 0.0631541 0.971351 0.229106
-0.373501 0.00473852 0.0816071 -0.0125152 0.190612 -0.981586
0.374856 -0.0723285 -0.101431 -0.106727 -0.512358 -0.852114
0.156603 0.0563751 -0.0236643 -0.042233 -0.965614 0.256525
-0.131107 0.0670427 -0.0277371 -0.0301538 -0.853248 0.520633
0.173907 0.0306283 0.114309 0.0534331 0.313947 0.947936
0.383858 0.0451622 0.0577494 0.0507358 0.676929 0.734298
0.328872 -0.0904286 0.0547345 -0.0485339 -0.71126 0.701251
0.351534 -0.0663862 0.0336842 -0.0865673 0.742693 -0.664013
-0.426553 0.0505439 -0.0444194 -0.037095 -0.387646 0.921062
-0.332665 0.0277733 -0.0536466 -0.00637654 -0.0597515 0.998193
-0.116017 0.0812485 -0.0600596 -0.0137527 0.746711 -0.665006
0.0867342 -0.056039 0.0813285 0.00936913 -0.51937 0.854498
0.368108 0.048304 -0.0017017 -0.0638944 -0.991875 -0.110006
-0.377044 -0.00102471 -0.0479119 0.0486348 0.307705 0.950238
0.410257 0.0225408 0.0722201 0.0600375 0.42588 0.902785
0.18186 0.0854518 -0.0909888 -0.02037 0.780842 -0.624396
0.064599 0.0382756 0.0878252 0.0733007 0.402865 0.91232
-0.275918 0.0765842 -0.0658163 -0.0463738 0.640206 -0.766803
-0.196907 -0.0168535 0.102276 -0.0246775 -0.247577 0.968554
0.0590246 0.0942029 0.0150667 0.0654508 0.984968 0.159858
-0.319602 0.0941973 -0.0484923 -0.00573557 0.799412 -0.600755
-0.243845 0.0723147 0.045764 -0.0566393 -0.85428 -0.516718
-0.360453 -0.0606779 0.0432763 -0.514848 -0.093464 -0.852172
0.416879 -0.0181117 -0.114581 -0.118015 0.0523053 -0.991633
0.0483375 0.0345971 0.0562761 -0.0622973 -0.624314 -0.778685
0.197831 -0.0790416 0.0992968 0.0433653 -0.581651 0.812282
0.275438 0.0742152 -0.0534382 0.032493 0.90639 -0.42119
-0.113754 -0.071346 0.0662402 0.061327 -0.804706 0.590498
-0.374069 -0.062748 -0.0382637 -0.0837866 -0.800509 -0.593435
0.14243 0.0480047 0.108912 0.0730094 0.399816 0.913683
0.159199 -0.106069 -0.0883459 -0.065425 -0.749814 -0.658406
0.319716 0.0545653 -0.0787966 0.0309844 0.736105 -0.676158
0.436804 0.013142 -0.110607 -0.0231238 0.342443 -0.939254
-0.449095 0.0384844 0.117068 0.0388229 0.154634 0.987209
-0.242213 -0.0753642 -0.0357151 -0.057498 -0.888558 -0.455146
0.116869 -0.068693 -0.0824823 -0.0633404 -0.630244 -0.773809
0.336577 -0.111961 -0.0492129 -0.0707633 -0.938656 -0.337516
-0.20815 0.0306086 -0.0886679 -0.0666515 0.204431 -0.976609
0.498766 0.0267683 -0.110397 0.99569 -0.0397206 -0.083804
0.0303878 -0.0292499 -0.0623524 0.11567 0.974697 -0.191275
0.219696 0.0316028 0.0424924 -0.0777717 -0.691321 -0.71835
0.205845 0.103756 0.0372197 0.997751 -0.0546186 -0.0388562
-0.138011 -0.0889246 0.0336818 -0.0827236 -0.950477 0.299584
-0.0217811 0.0496037 -0.0445276 0.0504408 -0.763303 0.644069
0.06094 0.0856055 -0.0433828 0.033607 0.904768 -0.424576
-0.101691 -0.0896239 0.0276328 -0.0468092 -0.970448 0.236726
0.2706 0.0525279 0.00741167 -0.068835 -0.970874 -0.229491
0.22727 0.0869649 -0.0287404 0.0238738 0.983886 -0.177197
-0.384944 0.0466508 0.07783 -0.0725706 -0.363583 -0.928731
0.190767 0.0453697 -0.0432097 -0.0691174 -0.816408 0.573325
0.459121 0.00340685 0.0451677 -0.0583884 -0.428488 -0.901659
-0.0388541 0.0159878 -0.0650892 0.0151556 -0.186164 0.982402
-0.358362 0.0721202 0.0586988 -0.0777553 -0.763701 -0.640871
-0.446933 -0.00567265 -0.075912 -0.0426998 -0.331414 -0.942519
0.339843 -0.0493707 -0.108201 -0.0760849 -0.332621 -0.939987
-0.325267 0.0714535 0.0972824 0.0599897 0.52272 0.850391
-0.27491 -0.0849448 -0.000615882 -0.0875193 -0.988696 -0.121742
0.133045 -0.0757963 0.099159 -0.997655 0.0505679 0.0461216
-0.461923 0.00146414 0.082211 -0.0417367 0.362094 -0.931207
0.458427 -0.031599 0.0491863 -0.0973619 0.142347 -0.985017
-0.364029 0.0616789 0.103368 0.0577845 0.437301 0.897457
0.403685 -0.0733311 0.0249967 0.180754 0.728162 -0.661142
0.494888 -0.0702975 -0.0803702 0.997854 -0.0539186 -0.0371506
0.0683801 0.0680629 -0.0714109 -0.0618135 0.719621 -0.69161
0.469567 -0.0384417 -0.0873419 0.0752375 0.127108 0.989031
0.237646 0.0721645 0.0446352 0.0952893 0.848749 0.52014
-0.0448403 -0.0333343 -0.0902644 -0.0570438 -0.332227 -0.941473
-0.0409646 0.061529 0.0347897 -0.0801809 -0.870654 -0.485318
-0.33298 -0.00457293 0.0778102 0.0252857 0.29071 -0.956477
0.190234 -0.0617342 0.0371219 0.0429409 0.738446 -0.672944
-0.0794112 -0.0260944 0.063266 -0.00643775 0.413145 -0.910643
0.0390216 0.0587309 0.028758 -0.0680165 -0.909944 -0.409115
0.469876 0.00276369 0.0753114 0.0436626 0.271294 0.961506
0.281907 -0.00228405 -0.0770352 0.0639058 -0.238745 0.968977
0.381132 -0.0337483 0.0503041 0.0195112 0.204923 -0.978584
0.345509 0.0297601 0.0715236 0.00498637 0.491623 0.870794
0.21887 -0.0188433 0.0893785 0.0217754 0.992697 -0.118653
0.195078 -0.106028 -0.0314835 -0.0627762 -0.978808 -0.194921
-0.202944 -0.0357885 -0.0408051 0.107119 0.714506 0.69138
0.481908 -0.0755681 -0.115281 -0.0849421 -0.42444 -0.901463
0.102689 -0.0996324 0.0220582 -0.0550394 -0.950506 0.305792
-0.491368 0.0862268 -0.00954301 -0.0238578 -0.887118 0.460926
-0.153345 0.042193 -0.0879762 -0.0524748 0.382758 -0.922357
-0.0743588 -0.0632486 0.0100638 0.0693309 0.982936 -0.170382
-0.395035 0.0796534 -0.0169067 -0.10612 -0.806194 0.582057
-0.392737 -0.0097069 -0.0780241 -0.0245507 -0.359117 -0.93297
0.132203 0.0827057 -0.0902067 -0.997361 0.0670356 0.0278813
0.259292 -0.000371909 -0.10881 -0.013677 0.136891 -0.990492
-0.249612 -0.0379607 -0.0346104 0.0732888 0.760138 0.645615
-0.149785 0.0466814 0.0968325 0.0809639 0.372261 0.92459
-0.42791 -0.0653202 -0.0280138 -0.0697342 -0.907183 -0.414917
0.491547 -0.0440299 0.085259 0.0548219 -0.231829 0.971211
0.0766159 0.0311864 -0.0623737 0.0104815 -0.524336 0.851447
0.401168 0.0731733 -0.00619439 -0.0468073 -0.110874 -0.992732
0.0728602 0.0647615 -0.00462832 -0.00647047 -0.999942 0.00865248
-0.254017 0.0653718 0.0920027 0.0653622 0.533306 0.843394
-0.368192 0.0904892 -0.0531786 0.0309314 0.696031 -0.717345
0.392224 0.035196 -0.0574967 -0.0469398 -0.798228 0.600524
0.346031 -0.086428 -0.0222915 0.056646 0.993475 0.0989847
0.505225 0.00281043 0.0470904 0.998722 -0.00851162 -0.0498208
-0.263688 0.0821004 0.0156304 -0.0560601 -0.99544 -0.0771817
0.218616 -0.108854 0.00589291 -0.0952603 -0.985109 0.143125
-0.229363 -0.0335885 0.0974453 -0.0686645 -0.457664 0.88647
0.29006 -0.0642179 0.0736138 0.0155804 -0.524858 0.851047
0.260799 -0.0260593 0.067307 0.0667385 0.987015 -0.146104
0.248059 0.00355267 -0.0757655 0.0247329 -0.245346 0.96912
0.416428 -0.0569632 -0.108353 -0.0533293 -0.355896 -0.933003
0.161483 0.0994562 0.0602963 0.0817238 0.852307 0.516618
0.391953 0.00987913 -0.110306 -0.00666224 0.281409 -0.959565
-0.170941 0.0731785 0.0280786 -0.0806952 -0.954573 -0.286842
0.393819 -0.022632 0.0827561 0.0464442 -0.0535134 0.997486
-0.079123 0.0718011 0.00734436 -0.0539958 -0.996404 -0.0652967
-0.307089 0.0752122 0.0465101 -0.00935207 -0.859217 -0.511525
-0.408226 -0.0700006 0.052175 -0.0719526 -0.913935 0.399432
-0.205385 0.0490715 0.0641685 -0.11676 -0.591043 -0.798145
0.421755 -0.0906207 0.0535462 -0.0429607 -0.646375 0.761809
0.162298 0.0121666 -0.0712503 0.0653019 -0.382596 0.921605
-0.309149 0.0833813 0.00265277 -0.0471196 -0.988787 0.141705
0.401937 -0.110154 -0.0268286 0.0556114 0.100804 0.993351
-0.00321652 0.066086 0.0228494 -0.048437 -0.955868 -0.289776
-0.359462 -0.0263272 0.102866 0.0560132 -0.515398 0.855118
-0.0810091 -0.0285861 -0.0568541 0.0589073 0.466844 0.882376
-0.494117 0.0195379 0.124292 -0.998619 0.0247506 0.0463305
-0.0710329 0.0107339 -0.0947959 -0.0658299 0.137907 -0.988255
0.168344 -0.0697288 -0.118229 -0.0308108 -0.500165 -0.865382
-0.337558 -0.0143908 -0.0794959 -0.0584543 -0.318772 -0.946027
-0.2266 -0.0857507 -0.00324977 -0.0533927 -0.985231 -0.162696
0.00269257 0.0292668 -0.0623123 0.00047415 -0.427996 0.903781
-0.483589 0.0939195 0.0315992 -0.0537364 -0.0870917 -0.99475
0.303938 0.0507408 -0.0104616 -0.0553737 -0.998293 0.018555
-0.289334 -0.0727882 0.05644 -0.0422741 -0.879513 0.473994
-0.314184 -0.0509638 0.0854826 -0.0110812 -0.675058 0.737681
-0.257575 0.109719 0.0328108 0.0485058 0.964017 0.261376
0.13147 0.0583744 0.0668898 0.146356 0.633132 0.760082
-0.20829 -0.0753244 -0.041695 -0.0631104 -0.861703 -0.503474
0.349987 0.0817568 -0.0220005 0.981779 -0.0226376 -0.188673
0.153197 -0.0410271 -0.100164 0.131596 0.975779 -0.174749
-0.272109 -0.0351238 0.0931997 -0.0267931 -0.507843 0.861033
-0.166486 0.0867631 -0.0561229 0.0801821 0.738165 -0.669839
-0.405285 -0.0751616 0.00985522 0.0476705 0.112317 0.992528
0.453852 -0.120863 -0.0355395 -0.0355745 -0.986295 -0.161109
-0.082864 -0.0910464 -0.0164152 -0.0421906 -0.976016 -0.213572
-0.025047 0.0151519 0.0957644 -0.997384 -0.0525664 0.0496273
-0.476604 -0.0493031 -0.0546366 -0.0930235 -0.68611 -0.721526
-0.0896125 0.0212457 -0.0604559 0.027003 -0.247613 0.968483
-0.0428245 -0.0825078 -0.0510198 -0.101967 -0.839261 -0.534082
0.0127354 -0.0634039 -0.0321248 0.126752 0.899732 0.417632
-0.124589 0.0846283 0.0649609 0.122492 0.829607 0.544746
0.103027 0.0573908 -0.0792485 -0.0544669 0.663293 -0.746375
0.0323548 -0.0685955 0.0180679 0.017291 0.967571 -0.252008
-0.384031 0.0651979 -0.0726069 -0.0067093 0.471489 -0.881847
0.384742 0.0665554 0.0309681 0.0832117 0.890271 0.447764
-0.441606 0.0877137 0.0373879 -0.0947674 -0.960165 -0.262874
0.306372 0.015167 -0.106229 0.0427826 0.248043 -0.967804
0.193383 0.00938701 -0.119271 0.996386 -0.0802591 -0.0277994
0.413685 0.0118644 -0.0768227 0.0208697 -0.525122 0.850771
0.315558 -0.0863876 -0.08513 -0.0741498 -0.670514 -0.738182
-0.4493 -0.0273057 -0.0249086 0.0656315 0.734472 0.675458
0.482693 -0.125101 0.0150858 -0.000852361 -0.956137 0.292918
0.0210303 -0.0675429 0.072085 0.00488506 -0.679292 0.733852
-0.235021 -0.0464264 0.0473011 0.0212375 0.835244 -0.549469
0.459186 -0.0482227 -0.120176 -0.998358 0.0250206 0.0515331
-0.144742 -0.0884893 -0.0195036 -0.0765668 -0.935704 -0.344377
0.177737 -0.0216941 0.0641368 0.0303637 0.992382 -0.1194
0.0847235 -0.0575466 -0.0867864 -0.051355 -0.567409 -0.821833
0.0237871 0.00487023 -0.0984311 0.307973 -0.948458 0.0747018
0.0519981 -0.0389038 -0.0942201 -0.0701126 -0.338078 -0.938503
0.0807237 -0.0527851 -0.0524878 0.0711642 0.738019 0.671017
0.492549 -0.0866527 0.0094385 0.0749596 0.892373 -0.445031
0.351915 -0.0354654 0.0822355 0.0452444 -0.208009 0.97708
0.117497 -0.0596307 -0.0470437 0.0635 0.762434 0.643943
0.245585 -0.0796699 -0.0210472 0.0225328 0.982181 0.186581
-0.331814 0.0645107 -0.075351 -0.0474148 0.509498 -0.859164
-0.266981 -0.0543761 -0.0603518 -0.0633584 -0.684661 -0.726102
-0.0087947 -0.0300565 -0.060057 0.09363 0.342405 0.934876
0.442645 -0.0954782 0.0096697 -0.116637 -0.0615699 -0.991264
0.495062 -0.0310857 -0.119502 0.997641 -0.039394 -0.0562215
-0.115643 -0.017814 0.0662643 0.0604035 0.364834 -0.929111
0.211781 -0.0675171 -0.045447 0.0568917 0.83115 0.55313
-0.435221 -0.0430005 0.00447802 0.0662185 0.989517 0.128341
-0.288013 -0.0174625 0.0708451 -0.0217046 0.532668 -0.846046
0.0781671 -0.102079 -0.00771144 -0.0644538 -0.997496 -0.0291021
0.411343 0.0411742 0.010088 -0.0914318 -0.938466 -0.333049
0.00834217 0.0977798 -4.10205e-06 0.0492095 0.996174 0.0722165
-0.180588 0.0202692 -0.0652681 -0.0739317 -0.980237 0.183494
-0.297448 0.0451543 -0.0501846 0.00273809 -0.414843 0.909889
-0.499678 -0.0707206 0.0127765 0.0493044 0.116559 0.991959
-0.438338 -0.0365103 -0.0608982 -0.0726155 -0.587263 -0.806132
0.150151 0.0305206 0.0499257 -0.0719716 -0.555406 -0.828459
0.0171909 0.0216381 0.0615138 -0.054353 -0.320097 -0.945824
0.324234 -0.00553636 0.0841964 -0.986389 0.163939 0.012672
0.13742 0.0191536 -0.131741 0.001636 0.211725 -0.977328
0.454126 -0.098609 0.0439013 -0.00107943 -0.795656 0.605748
-0.491914 0.057658 0.121111 0.0197496 0.343187 0.93906
0.139632 -0.0375058 -0.0688154 0.0278305 0.994543 -0.10055
-0.0528242 -0.0658237 0.0732866 -0.0123154 -0.707584 0.706522
0.330326 -0.11471 0.00989268 -0.123594 -0.957252 0.261521
-0.0158815 -0.0824759 0.0507065 -0.148771 -0.845287 0.513184
0.16901 -0.131769 -0.0499078 -0.0279113 -0.933791 -0.356728
