ply
format ascii 1.0
comment Created by Open3D
element vertex 128
property double x
property double y
property double z
property double nx
property double ny
property double nz
end_header
0.242102 0.377636 0.0740959 0.42008 -0.906219 0.0479527
-0.0420515 -0.227035 -0.0625443 0.86296 0.0436018 0.503388
0.0479702 0.184916 0.533519 0.788249 -0.206834 0.579555
0.111343 0.110532 -0.195321 0.181876 -0.3831 0.905625
-0.184896 -0.0359633 0.182425 0.994811 -0.019131 -0.0999232
-0.0138271 -0.189197 0.478761 -0.236263 0.430805 -0.870969
0.291885 0.313667 -0.0587013 -0.0859146 -0.814933 0.573152
0.173959 -0.0616653 -0.12183 0.41186 0.826607 -0.383525
0.00451524 0.0241414 0.238913 -0.472034 -0.771824 0.425995
0.215893 0.376551 0.359434 0.375404 -0.0314711 0.926327
-0.00168292 0.0359958 0.533931 -0.178809 -0.205596 -0.962163
0.31486 0.404866 0.229419 0.915946 -0.10671 0.386854
0.14983 -0.118349 -0.237233 -0.182239 -0.169289 -0.968571
0.510412 0.138877 -0.147545 0.954568 -0.0146077 0.297636
0.0670407 0.318264 0.309122 0.533349 -0.769551 -0.351184
-0.162989 -0.118459 0.288525 -0.583936 -0.39849 0.707265
0.0411116 0.22211 -0.0663461 0.48428 -0.45782 -0.745569
0.38007 0.215243 -0.168128 -0.161815 -0.307402 0.937721
0.263604 -0.471852 0.0267077 0.129231 0.984159 0.121371
0.201203 -0.0717492 -0.084239 -0.243114 0.968767 -0.0488392
0.335868 -0.0290363 -0.270922 -0.618282 0.397255 -0.678171
0.169494 -0.247554 -0.222229 -0.208823 -0.718761 -0.663155
-0.250791 0.137051 -0.0161114 0.176509 0.847156 0.501169
-0.0290506 0.234136 0.365434 -0.725436 0.606252 0.325886
0.238971 -0.431582 -0.0888644 -0.426726 -0.838898 -0.337867
-0.0911558 0.189751 0.279185 -0.800361 0.588333 -0.115265
-0.203624 -0.189182 -0.0314563 0.0325725 -0.997164 -0.0678474
0.0466461 -0.132346 0.0733268 0.538818 -0.399242 -0.741809
0.0288494 -0.308 0.128139 -0.48247 0.282013 0.829272
0.169892 -0.242758 -0.218603 -0.336803 -0.359379 -0.870293
0.215351 0.0280673 -0.266017 -0.0380631 0.139432 -0.9895
0.00932952 -0.0201682 0.564748 -0.645827 0.195719 0.737971
-0.176482 0.108153 0.101651 -0.912602 0.40683 -0.0405807
0.135499 0.112984 0.0364796 0.719216 -0.443594 -0.534746
-0.0647007 0.0266598 0.13928 0.0985789 -0.993218 -0.0616433
-0.23611 -0.0484703 -0.271713 -0.801924 0.169026 -0.573017
-0.322773 0.0412896 -0.0678944 -0.780705 0.139838 -0.609052
-0.0954773 -0.120051 0.435442 -0.91319 -0.0624131 0.402727
0.0428144 0.335976 0.0641764 -0.05236 0.720223 -0.691764
-0.323567 -0.141375 -0.131661 -0.911643 0.152683 -0.381569
-0.102201 -0.315534 0.175773 -0.7233 -0.491373 -0.48517
0.399468 0.387006 0.0434134 0.698577 -0.205759 -0.685313
-0.143203 0.0540524 -0.0215491 0.0974903 -0.0814177 -0.991901
-0.160347 0.106726 0.12251 -0.939799 0.309117 0.145684
0.221195 -0.511706 0.0565549 -0.124436 -0.983066 -0.134528
0.212432 0.216933 -0.182844 0.410429 0.353466 -0.840601
0.128569 -0.0427863 0.0367673 0.945273 -0.297735 0.133467
0.0515613 -0.0597409 -0.215027 0.505743 -0.338383 -0.79355
-0.0602292 -0.0678343 0.0656143 -0.816967 -0.276996 0.505805
0.398288 -0.402281 -0.135623 0.870589 -0.112917 0.478879
-0.100394 0.102404 0.402836 -0.523154 -0.381659 0.762001
-0.100002 0.0664058 0.429225 -0.761624 0.0142181 0.647864
-0.108383 -0.211574 0.379058 -0.87137 -0.364304 0.328627
-0.13489 -0.196908 0.20428 0.93399 0.354231 -0.0467167
-0.130402 -0.241519 0.0822881 -0.880451 -0.435109 -0.188378
0.0308256 -0.105754 -0.0610599 -0.478609 -0.863252 -0.160406
0.0205703 -0.113837 -0.0669049 0.0460276 -0.914834 -0.401198
0.117061 0.289857 0.437113 -0.529672 -0.149927 0.834847
-0.0360479 -0.365599 0.267574 0.635069 0.743147 -0.210762
0.0499657 0.321756 0.06196 -0.73359 0.678664 0.0355127
0.368942 0.0954594 -0.22542 -0.052544 -0.492972 0.868457
-0.0777647 0.218824 0.0904798 -0.748116 0.662857 -0.0307126
-0.107243 0.0384859 -0.0164959 0.574812 -0.661283 -0.48197
0.450647 -0.273902 -0.199752 0.482031 -0.828554 -0.284858
0.0597883 -0.413593 0.325873 0.366 -0.430317 0.825149
0.163969 0.313812 -0.0647662 0.329316 0.462822 -0.823011
0.0317621 -0.333926 0.425103 0.942386 -0.219164 -0.252738
0.123251 -0.526078 0.249734 0.89477 -0.177424 0.409765
0.115146 0.129389 -0.209005 -0.125864 0.441769 -0.888256
0.459205 0.264725 -0.0818145 -0.923827 0.350473 0.15399
0.497819 -0.140228 -0.232574 0.6094 -0.26235 -0.7482
0.185701 -0.00690737 -0.244393 -0.207497 -0.0937761 0.97373
-0.0113835 0.0518415 -0.178768 -0.720835 0.198766 -0.663995
-0.0246804 -0.338737 0.0607173 0.790444 0.51018 0.338992
0.0779249 0.183007 0.521723 0.464952 -0.593706 -0.656759
-0.0874882 0.23464 -0.152232 -0.16344 0.985049 -0.0544647
-0.0966384 -0.0412597 0.434935 -0.909771 0.201241 0.363068
0.47466 -0.0092761 -0.209005 -0.925928 0.324142 0.193878
0.0912247 -0.0159932 0.124876 0.890109 -0.175131 0.420756
-0.336919 0.059274 -0.0601106 -0.874403 0.359741 0.325584
0.0621311 0.0149137 -0.038781 -0.750359 -0.0401123 0.659812
-0.0617284 0.216928 0.0854236 0.698018 -0.692857 0.180885
-0.151364 0.251707 -0.250498 0.573031 -0.608896 -0.548527
-0.0207649 -0.183643 0.481732 -0.3528 0.377468 -0.856183
0.1261 -0.349286 -0.116813 -0.152131 -0.438324 -0.885849
0.130945 -0.43791 0.0150093 0.569327 0.789315 0.229889
0.50749 0.00544182 -0.19748 -0.336686 -0.361303 0.869542
0.185207 0.208687 0.0263402 0.611576 -0.788869 -0.060497
-0.11616 0.122619 -0.117325 -0.483271 0.338746 0.80728
-0.068014 -0.214441 -0.0734803 0.0121271 0.812863 0.582328
0.360171 -0.42083 -0.138841 -0.153719 -0.891776 0.425565
-0.0317564 -0.298706 0.414938 -0.666165 -0.592439 0.453035
0.138314 -0.484131 0.216658 0.956157 -0.271539 0.109678
0.442513 0.269544 -0.0675341 -0.934865 -0.353963 0.0271645
-0.126032 0.0738897 -0.257243 0.621623 0.00688001 -0.783287
0.0240193 -0.424766 0.154526 0.467986 0.819223 -0.331456
-0.0604529 -0.0384506 -0.0973986 -0.32783 0.69309 0.641992
-0.240896 -0.0623477 -0.0112459 0.064405 -0.866939 0.494236
0.277621 -0.334548 -0.167523 0.314815 0.517766 0.795493
-0.180644 -0.10999 -0.159498 -0.0551495 -0.969404 -0.239194
-0.179555 -0.109441 -0.12992 -0.265994 -0.963924 0.00986582
0.170317 0.391558 0.323173 -0.350293 0.913702 0.206018
0.0490152 -0.168055 -0.206723 -0.555342 -0.246503 -0.794249
0.147557 0.273699 0.429546 0.177413 -0.953707 -0.242831
0.00960378 0.0605785 0.301961 0.798213 -0.182391 0.574099
-0.135927 0.00659262 0.305356 0.930268 -0.276313 -0.241354
-0.324064 -0.164635 -0.139371 -0.958141 -0.0857108 -0.273167
0.470645 -0.139425 -0.21608 -0.47977 0.208952 0.85215
0.222193 0.392953 0.0926536 -0.355783 0.931839 -0.0713741
-0.216826 0.144546 -0.169058 0.171953 0.121185 -0.977623
0.350854 -0.0475456 -0.276716 0.24295 -0.0933782 -0.965534
0.12299 -0.333744 -0.144681 0.225566 0.855752 0.465626
0.050806 -0.158924 0.090126 -0.637503 0.474583 0.606928
0.282515 0.425671 0.224996 0.00423955 0.946923 0.321431
-0.0259529 0.253057 0.218362 0.707138 -0.621375 -0.337415
0.115202 -0.436326 0.00635528 0.179692 0.654897 0.734044
0.140587 0.0927875 0.0584008 0.478699 -0.299505 -0.825314
0.0469591 -0.440322 0.351296 -0.491772 -0.754664 0.43433
-0.124451 0.0290595 0.274666 0.90331 -0.428989 0.000168483
0.337176 -0.200936 -0.254455 0.0321831 -0.424342 -0.90493
0.186269 0.230611 -0.174113 0.462976 0.442474 -0.76803
0.0365059 -0.351335 -0.045937 0.168819 0.894401 0.414183
0.396196 0.349057 0.0438491 0.900831 -0.208726 0.380705
-0.228312 -0.0363971 0.016158 -0.721689 -0.192405 0.66494
0.2229 0.238586 0.034576 0.913559 0.37928 -0.146822
0.067449 0.236614 -0.0772604 0.163857 -0.612445 0.773345
-0.176327 -0.0556089 0.166112 0.97911 0.173656 -0.105766
0.109047 0.368326 0.178142 0.543713 -0.837024 -0.0613774
