ply
format ascii 1.0
comment Created by Open3D
element vertex 512
property double x
property double y
property double z
property double nx
property double ny
property double nz
end_header
0.122895 -0.00322274 -0.248674 0.896978 -0.25306 -0.36248
0.035821 -0.329124 -0.173921 0.899245 -0.26873 -0.34517
-0.0242021 -0.0373174 -0.431748 -0.906007 0.266461 -0.32886
-0.109579 -0.122917 0.0444868 -0.87909 -0.330655 0.343318
-0.0976747 0.0990694 0.0638348 -0.464911 0.775255 0.427594
0.170681 -0.135289 0.0399141 -0.0887232 0.626706 -0.774188
0.179429 0.12313 -0.213327 0.870144 -0.428076 -0.244132
-0.0445212 -0.36008 -0.0187166 -0.923219 -0.3024 0.23711
0.129407 0.291115 -0.133565 -0.62321 0.777246 0.0865952
0.0781776 -0.00878202 0.103434 -0.303516 -0.0149107 -0.95271
0.219995 -0.220839 0.367144 -0.56784 0.008942 0.823091
-0.050844 -0.00494163 -0.107143 0.636958 0.0096913 0.770838
0.177899 0.175722 -0.261948 0.904848 -0.279533 -0.321111
0.377065 0.311058 0.190744 -0.455172 0.742734 0.491084
0.11901 -0.0833704 0.281218 -0.562118 0.119836 0.818329
0.29994 -0.14485 0.41212 -0.484378 0.144633 0.86282
-0.0866592 0.0435993 0.0065258 0.899094 -0.383307 -0.211436
-0.0463364 -0.426133 -0.124507 -0.940017 -0.304384 0.154007
0.0510525 -0.060769 0.102508 -0.184505 0.434953 -0.881348
0.0894941 0.228054 -0.344107 -0.731796 0.64988 -0.205258
-0.0118496 -0.372785 0.0573897 -0.840579 -0.318442 0.438204
0.168361 -0.363403 0.247354 0.895217 -0.364531 -0.256327
0.161475 0.210375 -0.346377 0.884599 -0.276122 -0.37582
0.122401 0.24824 -0.387564 -0.713993 0.665772 -0.216708
0.177444 -0.253058 0.163701 0.894623 -0.345406 -0.28345
-0.0207417 -0.303068 -0.359063 0.903788 -0.241179 -0.353552
0.23072 0.152998 -0.0932815 0.887532 -0.294317 -0.354491
0.322715 0.0840812 0.245298 0.903307 -0.32196 -0.283511
-0.00305256 -0.413748 -0.201195 0.895195 -0.261997 -0.360531
0.288873 0.323419 -0.0944289 0.899885 -0.288067 -0.327452
-0.165713 0.0589105 0.0594751 -0.44145 0.664133 0.603364
-0.0806418 -0.292977 -0.0761286 -0.961676 -0.259543 0.088411
-0.0470745 -0.177839 0.11566 -0.807872 -0.241653 0.537538
0.262578 0.357973 -0.205864 0.899287 -0.305865 -0.312616
-0.0587299 -0.00398278 -0.303024 -0.904456 0.266097 -0.333393
0.340035 0.0477794 0.332377 0.897232 -0.302748 -0.321432
0.0947948 -0.134332 -0.128905 0.451931 0.671749 0.586952
0.279153 0.220984 -0.0154357 0.897582 -0.302166 -0.321002
0.072051 -0.404789 0.0126491 0.905607 -0.325675 -0.271685
-0.123234 -0.122715 -0.0854643 -0.978488 -0.196486 -0.0628837
0.219263 -0.0162627 0.0475858 0.892371 -0.30011 -0.337059
-0.111968 -0.172043 -0.108641 -0.984899 -0.164621 -0.0536014
-0.062557 -0.332282 -0.0583773 -0.927052 -0.322095 0.19191
0.0806936 0.254004 -0.17041 -0.693685 0.720192 0.0111901
0.0429429 -0.378242 0.153808 -0.77559 -0.298325 0.556294
0.0580171 -0.469625 0.0363926 0.893384 -0.357987 -0.271496
0.256218 -0.188497 0.390031 -0.582817 0.0220279 0.812305
0.017743 -0.530482 -0.0167938 -0.913999 -0.290265 0.283466
0.371184 0.102396 0.365614 0.897282 -0.316922 -0.307321
-0.00138194 -0.0266904 -0.129899 0.301719 0.11918 0.945918
0.0274578 -0.307524 -0.216118 0.890576 -0.342317 -0.299488
0.068056 0.0655847 -0.475383 0.897158 -0.308945 -0.315691
0.135102 0.0756827 -0.291978 0.899412 -0.249303 -0.359035
0.04009 0.0999783 -0.0677798 -0.184851 -0.862437 0.471204
-0.0134383 0.102732 -0.046452 0.336166 -0.879427 0.337048
0.266572 0.26513 0.156983 -0.454354 0.693616 0.55898
0.109236 -0.000287391 -0.159243 0.179484 -0.392529 0.902057
0.230546 0.312427 -0.249407 0.908834 -0.242396 -0.339508
-0.0378991 -0.225634 -0.472143 -0.953888 0.0399127 -0.297498
0.0392147 -0.0579199 -0.433259 0.897879 -0.307732 -0.314826
-0.0728613 0.113575 -0.108674 -0.792988 0.576863 -0.195956
0.00527397 -0.0713565 0.0970312 0.158421 0.505828 -0.847963
0.384688 0.201801 0.308141 -0.489849 0.577226 0.653343
0.086112 0.24236 -0.291302 -0.717558 0.682415 -0.139354
0.144839 0.115904 0.215179 -0.459639 0.521512 0.718858
0.0572136 -0.161039 -0.279778 0.896532 -0.319487 -0.306853
0.165239 -0.397934 0.299469 -0.669371 -0.185474 0.719404
0.177288 0.327879 -0.233634 -0.56145 0.824777 -0.0672029
-0.014055 -0.128175 -0.514126 0.897498 -0.29621 -0.326737
0.0524686 0.0529113 -0.121543 0.102989 -0.592125 0.799238
-0.0518262 -0.364239 -0.385267 0.897358 -0.315235 -0.308829
0.0285263 -0.12392 -0.392209 0.892771 -0.266 -0.363598
0.138289 0.264094 0.0238972 -0.509685 0.773268 0.377197
0.260227 0.125594 0.284564 -0.492729 0.500266 0.712006
0.0739614 -0.106382 -0.283796 0.897699 -0.31493 -0.308148
0.237694 0.0488001 0.0387526 0.896776 -0.256623 -0.360469
0.154478 0.0292878 -0.185905 0.898227 -0.33668 -0.282551
0.0122183 0.0786702 0.157792 -0.471252 0.460311 0.752353
-0.00068212 -0.4394 0.0296082 -0.868823 -0.352044 0.348156
-0.0544542 0.112021 0.0869567 -0.480287 0.667416 0.569104
0.00556994 -0.519809 -0.0615273 0.896956 -0.312365 -0.312888
0.207363 0.221081 -0.22831 0.898121 -0.305055 -0.316733
0.00303339 -0.15923 -0.433616 0.880949 -0.278581 -0.382519
0.0293821 -0.370397 -0.143436 0.888302 -0.380521 -0.257144
-0.0340587 0.0137517 0.0969747 0.497937 -0.205848 -0.842428
0.218071 -0.0897485 0.348878 -0.557686 0.192231 0.807486
-0.0695542 -0.0452435 -0.0823699 0.773896 0.273738 0.571097
0.211942 0.344174 -0.338668 0.890377 -0.288865 -0.351831
0.0570767 -0.131168 0.0371107 0.11712 0.86424 -0.489257
-0.0334529 -0.0924975 0.0606676 0.475121 0.656693 -0.585674
0.090252 -0.169691 -0.167319 0.900003 -0.334864 -0.279036
0.213681 0.356435 -0.191499 -0.56978 0.821599 0.0180596
0.112496 -0.0471246 0.09142 -0.257402 0.147376 -0.955
0.0936609 0.154115 -0.489346 0.889072 -0.281959 -0.360624
0.0636797 -0.417773 0.164603 -0.803951 -0.276635 0.526437
0.0633548 0.11035 -0.505714 -0.815087 0.456255 -0.357021
0.0417635 0.179882 0.0739479 -0.396749 0.831335 0.389194
0.228399 -0.30509 0.369601 -0.632105 -0.0909761 0.769524
0.0535373 0.228751 -0.0489654 -0.577789 0.794737 0.185884
0.0441463 -0.470061 0.098169 -0.871702 -0.223502 0.436099
0.0914974 -0.291793 0.246419 -0.720702 -0.105627 0.685151
0.302685 0.0810714 0.191678 0.897899 -0.322258 -0.299878
0.240123 0.37911 -0.284963 -0.596535 0.799269 -0.0728968
-0.028977 -0.0845732 -0.0933322 0.442707 0.556146 0.703358
0.16918 -0.0885858 0.31463 -0.564839 0.16422 0.808696
0.284951 0.242841 0.199306 -0.45143 0.66457 0.595448
-0.0809131 -0.29489 -0.23091 -0.971384 -0.23622 -0.0247694
0.233536 -0.023196 0.0938921 0.895591 -0.332581 -0.295477
0.0643281 0.043576 0.0949558 -0.322853 -0.414001 -0.851098
0.174315 0.0200464 0.0524166 -0.432284 -0.480115 -0.763296
-0.00537131 -0.0990862 0.186759 -0.667123 -0.0437739 0.743661
0.0246366 0.164242 -0.300556 -0.750135 0.593042 -0.292573
0.0469094 -0.0767978 -0.390664 0.89553 -0.352383 -0.271758
0.0368416 -0.175307 0.215159 -0.682324 -0.088365 0.72569
0.245638 0.363035 -0.0810542 -0.556422 0.808421 0.191964
0.00979437 0.12436 -0.332401 -0.841395 0.481446 -0.245489
0.301416 0.339239 0.0688539 -0.480365 0.779838 0.401376
0.0281995 0.0146976 -0.531402 0.890533 -0.378286 -0.252687
0.175784 0.187424 0.178088 -0.446859 0.654227 0.610167
0.076573 -0.0914726 0.249623 -0.60639 0.116138 0.78664
0.253722 0.202713 -0.0745635 0.891113 -0.367826 -0.265746
0.0300855 -0.212496 -0.301772 0.896969 -0.285702 -0.337374
-0.0364297 0.0479655 -0.0997336 0.545138 -0.437931 0.714871
0.050443 -0.113205 -0.118318 0.439852 0.59341 0.674088
0.153745 0.134883 -0.29772 0.897526 -0.30733 -0.31622
-0.130506 -0.0501734 0.0515136 -0.911059 -0.27149 0.310265
0.198451 0.102363 -0.127823 0.899978 -0.259681 -0.350149
0.357135 0.390628 0.0318462 0.897288 -0.295991 -0.327512
0.362906 0.360535 0.0766976 0.907143 -0.322103 -0.270816
-0.0248579 -0.00476957 -0.394983 -0.894734 0.290957 -0.338814
-0.101314 -0.212741 -0.142687 -0.966816 -0.251434 -0.0452507
-0.0619245 -0.26475 -0.38041 -0.963458 -0.0325213 -0.265876
-0.0606093 -0.251595 0.0415358 -0.862649 -0.370708 0.344111
0.220434 0.363323 -0.24373 -0.639774 0.768047 0.0281622
0.00674197 -0.245409 -0.335509 0.887481 -0.262798 -0.378571
0.00992965 -0.357001 -0.213118 0.906816 -0.273151 -0.321049
-0.107014 -0.156076 -0.175101 -0.981959 0.00958408 -0.188852
0.25587 0.193483 0.227123 -0.441928 0.591513 0.674397
0.21136 0.268511 -0.262251 0.903239 -0.228035 -0.363537
0.252573 -0.258075 0.386018 0.896219 -0.309813 -0.317502
-0.0951484 0.0665372 -0.134111 -0.81668 0.445606 -0.3667
0.0951913 -0.0853474 -0.245167 0.902801 -0.32587 -0.280641
-0.0257581 0.10414 0.000992516 0.465673 -0.877458 -0.114959
0.211926 -0.081743 0.0931437 0.897762 -0.330414 -0.291291
0.260902 -0.0730692 0.37268 -0.478212 0.189279 0.857605
0.14015 -0.0947225 0.0696746 -0.135984 0.41646 -0.898927
0.10343 0.263941 -0.253279 -0.696296 0.70925 -0.110164
0.267442 0.26368 -0.0942898 0.874222 -0.398195 -0.277805
-0.0730604 0.126418 0.0300889 -0.528757 0.82476 0.200467
0.206132 -0.340982 0.333594 0.89747 -0.313891 -0.309872
0.103889 -0.445005 0.143101 0.89558 -0.266405 -0.356322
0.308081 0.147911 0.298305 -0.447128 0.491531 0.747311
0.0408477 -0.0164651 -0.465822 0.895768 -0.300078 -0.327953
0.142575 -0.222292 0.0364233 0.897099 -0.34834 -0.271796
-0.0173261 -0.351079 -0.304006 0.89571 -0.330052 -0.297943
0.304229 0.403294 -0.0901722 -0.509429 0.837763 0.19656
-0.120608 -0.103421 -0.132342 -0.983336 -0.0963054 -0.15419
0.196491 0.0621795 -0.0961961 0.912697 -0.206384 -0.35269
0.308289 0.240251 0.0486388 0.900044 -0.324972 -0.290369
0.3371 0.264633 0.104559 0.900333 -0.256082 -0.351884
-0.00260265 -0.2393 0.154128 -0.766764 -0.235137 0.597314
-0.0735482 -0.316152 -0.285605 -0.980065 -0.163323 -0.113128
-0.058498 -0.312335 -0.0060305 -0.910923 -0.321741 0.258268
-0.00707388 0.182536 -0.037012 -0.577032 0.790128 0.206718
0.104255 -0.1261 0.0474836 0.0454428 0.719353 -0.693157
0.0964178 -0.35947 0.0398175 0.901022 -0.275395 -0.335136
0.223091 0.331333 -0.0174206 -0.533232 0.790983 0.300016
-0.0594682 0.146022 -0.0278074 -0.61826 0.785624 -0.0234246
-0.0313656 0.16197 -0.0784896 -0.660137 0.74794 -0.0693163
0.011194 -0.486385 0.0110621 -0.881257 -0.350513 0.317059
0.0867013 -0.0879937 0.0809888 -0.137293 0.526896 -0.838768
0.0419223 0.118528 -0.426762 -0.848269 0.47935 -0.225085
0.254378 -0.203783 0.337385 0.893189 -0.305144 -0.330303
0.215285 0.351248 -0.129837 -0.594507 0.777697 0.204328
0.0355968 -0.394656 -0.102112 0.891041 -0.350908 -0.287941
0.254211 0.0906565 0.0407636 0.89708 -0.314873 -0.310005
-0.104402 0.00164316 -0.168278 -0.905568 0.25353 -0.340101
0.177325 -0.213022 0.123934 0.899111 -0.353524 -0.258109
0.134718 -0.0407991 0.282471 -0.532368 0.282905 0.79784
-0.0791084 -0.0963964 -0.302351 -0.945295 0.137441 -0.295851
0.0826002 0.0854293 0.19974 -0.461066 0.500781 0.732555
0.32013 0.170537 0.147427 0.901238 -0.340317 -0.268243
0.225677 0.0987896 -0.0570308 0.894775 -0.346662 -0.281431
0.10174 -0.140986 0.273623 -0.595751 -0.012853 0.803066
0.0978664 -0.294559 -0.0254022 0.896151 -0.322742 -0.30455
0.0160647 -0.020163 0.114799 0.083231 0.0850021 -0.992898
-0.118885 0.0213517 -0.10763 -0.882171 0.293316 -0.368429
0.286054 0.0328846 0.178182 0.8975 -0.308598 -0.315056
0.19297 -0.182378 0.340404 -0.584222 0.0151282 0.811453
0.0882408 0.0241054 -0.373948 0.864073 -0.436557 -0.25059
-0.00526286 0.0125371 -0.44084 -0.896821 0.311373 -0.31426
-0.0455262 -0.430974 -0.299734 0.899978 -0.27483 -0.33839
-0.0913565 -0.244423 -0.0645845 -0.955487 -0.275849 0.104655
-0.0949517 -0.245853 -0.112301 -0.970377 -0.239217 0.0338111
0.0630531 0.108828 0.0122761 -0.331324 -0.936521 -0.114685
0.215243 -0.13063 0.146008 0.898499 -0.352246 -0.261957
0.0683391 0.23371 -0.228627 -0.731087 0.67587 -0.0933319
-0.0563745 -0.0419507 -0.341344 -0.908957 0.226189 -0.350194
0.179438 -0.285564 0.204358 0.897702 -0.331489 -0.290253
0.242948 0.272682 -0.181111 0.886938 -0.289077 -0.360244
0.156803 -0.323889 0.174112 0.895017 -0.287948 -0.340632
0.196224 0.173215 -0.212099 0.897173 -0.297787 -0.326195
0.271053 0.0697553 0.324061 -0.474534 0.385277 0.791441
-0.0882733 0.11699 -0.0547678 -0.679764 0.670551 -0.297123
0.0881332 0.245882 -0.010989 -0.531724 0.817357 0.221805
0.0394897 -0.529078 0.0408861 0.897583 -0.299948 -0.323072
0.13439 0.238712 -0.457832 0.887905 -0.270853 -0.371837
-0.116743 0.0378718 0.0971423 -0.546111 0.134509 0.826843
0.164824 0.178768 -0.311516 0.892326 -0.222638 -0.392666
0.0351242 -0.159333 -0.33876 0.903041 -0.326349 -0.279307
-0.0618503 -0.370576 -0.274102 -0.981296 -0.185221 -0.0524472
0.159377 -0.226513 0.316724 -0.63479 -0.0554172 0.770695
0.00875412 -0.281698 -0.294843 0.889736 -0.34543 -0.298408
0.10537 0.0876588 -0.384809 0.900079 -0.325123 -0.290093
0.204648 -0.0378894 0.327844 -0.542362 0.284876 0.790372
-0.0545196 -0.127553 0.132424 -0.754534 -0.217458 0.619185
0.315731 0.208316 0.0964305 0.901374 -0.331656 -0.278439
0.359479 0.283332 0.145935 0.898132 -0.368185 -0.240414
0.0444179 0.0567254 0.192026 -0.458944 0.343727 0.819281
0.375162 0.345292 0.129602 0.89659 -0.309184 -0.317068
-0.0385942 -0.0859722 -0.426054 -0.931385 0.184683 -0.31371
-0.100057 -0.135319 -0.22294 -0.97781 -0.0359237 -0.206391
0.1897 0.230153 -0.290861 0.897343 -0.317784 -0.306248
-0.0347902 -0.0253871 0.162232 -0.610298 0.0898445 0.78706
0.0134267 0.200501 -0.0970469 -0.642661 0.765978 0.016302
0.358312 0.145067 0.332326 -0.454261 0.559335 0.693392
0.152006 0.289182 -0.029375 -0.52668 0.824084 0.208552
0.00249075 0.156736 -0.250385 -0.778092 0.582727 -0.234525
-0.0828543 -0.292911 -0.141217 -0.978753 -0.204012 0.0205105
0.331093 0.263844 0.213254 -0.454221 0.67118 0.585834
-0.140782 0.0277975 -0.0433128 -0.949036 0.16109 -0.27089
0.189277 0.231544 0.136029 -0.458135 0.707052 0.538693
0.130371 -0.199738 -0.0261359 0.878733 -0.382156 -0.285982
0.0209717 -0.288567 0.162172 -0.796037 -0.212225 0.566821
0.256799 0.144876 -0.000801223 0.885978 -0.260138 -0.383889
0.246479 -0.0782877 0.185218 0.897572 -0.299493 -0.323525
0.0128513 -0.118765 0.0504939 0.17213 0.858232 -0.483539
-0.0410765 0.0141885 -0.33902 -0.9188 0.297906 -0.258957
-0.017548 -0.393888 -0.259897 0.901183 -0.270564 -0.338622
0.0692385 -0.318663 0.21214 -0.798948 -0.125658 0.588126
0.0905769 0.260221 -0.100309 -0.631552 0.772404 0.0673394
0.327825 -0.0570988 0.404218 0.896071 -0.269097 -0.353048
0.264964 -0.0151204 0.175498 0.901999 -0.322148 -0.287433
-0.0338694 -0.0736009 0.162221 -0.653597 -0.023024 0.756493
0.119517 -0.353729 0.0945535 0.887519 -0.307992 -0.342711
0.117763 -0.463401 0.214679 -0.783531 -0.246575 0.570333
0.119474 -0.0783563 -0.183653 0.904715 -0.322364 -0.278516
-0.0493418 0.0435745 -0.281091 -0.90012 0.33437 -0.27925
-0.0937844 -0.188141 -0.248135 -0.978058 -0.0781793 -0.193108
0.352733 0.139894 0.272203 0.898557 -0.317156 -0.303326
-0.129074 -0.0891055 0.0179729 -0.912409 -0.349132 0.213581
0.117297 0.02027 0.083394 -0.433067 -0.31491 -0.844562
0.048838 0.227249 -0.129482 -0.598522 0.798392 -0.0658882
0.29084 -0.0119827 0.244581 0.889777 -0.36888 -0.268747
0.282631 0.308816 0.107909 -0.475005 0.743957 0.469997
0.223755 -0.18085 0.227013 0.894015 -0.337283 -0.294919
-0.093339 -0.236108 -0.218493 -0.98135 -0.155693 -0.112748
0.142343 0.289631 -0.326771 -0.695323 0.704289 -0.143188
0.0137684 -0.107581 -0.451323 0.896369 -0.326663 -0.29969
0.0779801 -0.0847944 -0.151437 0.428435 0.273216 0.861276
0.0962596 -0.167719 -0.0363997 0.296498 0.953796 -0.0486009
0.0685719 0.022828 -0.433146 0.899718 -0.281569 -0.333505
-0.113908 -0.144308 -0.00887724 -0.926817 -0.330736 0.177832
-0.0194395 -0.116789 -0.0500573 0.528609 0.783831 0.325856
0.121621 0.0443597 -0.131092 -0.00690683 -0.691205 0.722626
0.0740848 0.163081 -0.444122 -0.7791 0.540054 -0.318348
0.260831 -0.100192 0.247676 0.903792 -0.28701 -0.317468
-0.0348135 -0.129542 -0.459477 -0.954924 0.0917307 -0.282321
0.202547 -0.222639 0.202155 0.893782 -0.335011 -0.298197
0.0209375 -0.122504 -0.0840319 0.433541 0.784545 0.443318
-0.0696671 0.0202131 0.133229 -0.569414 0.0729535 0.818808
0.0287268 -0.142106 -0.0284237 0.333583 0.942074 0.0349282
-0.0458863 -0.449125 -0.194691 -0.959648 -0.273467 0.0655137
0.00286487 0.0893566 -0.368865 -0.881186 0.385236 -0.274052
-0.0737912 -0.247494 -0.330343 -0.979987 0.00595362 -0.198971
0.244924 -0.183441 0.284646 0.895494 -0.319909 -0.309434
0.113576 0.0909298 -0.00342878 -0.394446 -0.904119 -0.164259
-0.0396742 -0.399432 -0.0499729 -0.909633 -0.352416 0.219932
0.0777113 -0.189019 0.246876 -0.687649 -0.0444106 0.724683
-0.0591571 -0.37845 -0.114156 -0.945797 -0.300472 0.123222
0.205645 -0.271862 0.266914 0.903793 -0.333203 -0.268579
0.140554 0.0398666 -0.237859 0.903027 -0.294277 -0.31296
-0.0104055 -0.476885 -0.0390915 -0.926016 -0.298203 0.231449
0.0976636 -0.404105 0.215796 -0.762516 -0.257394 0.593564
-0.103027 -0.194797 -0.0446685 -0.954042 -0.278452 0.110763
0.238645 0.0897663 -0.00705846 0.897441 -0.310217 -0.313631
-0.0662817 -0.0228455 0.0713377 0.742005 0.134958 -0.65667
0.0867274 0.149955 0.151771 -0.465526 0.603796 0.647083
-0.0573137 -0.152094 -0.395264 -0.95858 0.0884974 -0.270724
0.0623969 -0.0237906 -0.396933 0.898027 -0.324318 -0.297262
0.0982758 -0.0167264 -0.294376 0.888709 -0.342427 -0.30486
0.30408 0.0379052 0.232286 0.895557 -0.30658 -0.322468
0.128522 0.128234 -0.355853 0.896369 -0.252601 -0.364302
0.0394872 -0.0576553 -0.1447 0.438979 0.24012 0.865817
-0.0781195 0.0574473 -0.186781 -0.887253 0.369443 -0.276215
0.00408831 -0.193525 0.178206 -0.723198 -0.188781 0.66434
-0.021777 0.163247 -0.132088 -0.695294 0.695072 -0.182868
0.133355 0.17624 0.156312 -0.481024 0.677718 0.55616
0.0491069 -0.418863 -0.0404099 0.897114 -0.318837 -0.305825
0.285146 0.193045 0.0259096 0.91306 -0.261388 -0.313047
0.0524457 0.11545 0.157272 -0.462769 0.54042 0.702702
0.0781902 -0.216874 -0.158912 0.887778 -0.267165 -0.374798
-0.0152897 -0.516603 -0.116086 -0.935486 -0.308755 0.171861
0.122212 -0.374329 0.255571 -0.746625 -0.15806 0.646195
0.146363 -0.436954 0.266901 -0.751951 -0.188673 0.631642
-0.030375 -0.481445 -0.146789 -0.94728 -0.287296 0.141854
0.110728 0.267804 -0.0567413 -0.547341 0.83127 0.096995
0.0579302 0.0874323 0.0638877 -0.245427 -0.830259 -0.500436
-0.110284 0.104364 0.0124022 -0.635779 0.771528 0.0230219
0.00834623 -0.459953 -0.113367 0.897118 -0.380439 -0.224602
0.168801 -0.000222602 0.288846 -0.505424 0.309609 0.805412
-0.116552 -0.0460002 -0.152128 -0.981743 -0.00529038 -0.190136
-0.134002 -0.0178568 -0.0837035 -0.975233 -0.0367936 -0.2181
0.15128 -0.138338 0.307667 -0.596664 0.080262 0.798467
-0.0703396 -0.333178 -0.104827 -0.942989 -0.295408 0.153316
0.180646 0.0864378 -0.170137 0.898438 -0.316885 -0.303963
0.295148 -0.0230416 0.378784 -0.508362 0.289718 0.810945
0.272925 0.137618 0.0510457 0.895245 -0.326401 -0.303313
0.339151 0.193197 0.285041 -0.447542 0.541697 0.711527
0.248467 0.028315 0.0812633 0.897551 -0.32142 -0.301815
0.0346434 0.206625 -0.00932144 -0.543659 0.816061 0.19616
-0.156077 0.0161582 0.0068803 -0.978383 -0.108342 -0.176149
0.337293 0.145586 0.22171 0.901354 -0.283429 -0.327457
0.0858876 -0.248367 -0.107423 0.897436 -0.323904 -0.29949
0.197144 -0.135019 0.340391 -0.640255 0.172288 0.748592
-0.0166585 0.0428229 -0.375956 -0.809355 0.433739 -0.395998
-0.142671 -0.0485969 -0.00877441 -0.964384 -0.26341 0.0240571
0.290499 0.266208 -0.0334386 0.8949 -0.329128 -0.301379
-0.0839475 -0.139342 0.0810969 -0.843116 -0.23741 0.482485
-0.0212565 0.109425 -0.267702 -0.849614 0.465414 -0.248083
-0.109451 -0.0985811 -0.178806 -0.979833 -0.0173149 -0.199065
-0.0441754 -0.392956 -0.334304 0.896923 -0.333368 -0.290509
-3.31891e-05 0.025736 -0.124365 0.310607 -0.327777 0.892236
0.267174 -0.136692 0.304588 0.89628 -0.337547 -0.287653
0.339927 0.237793 0.145054 0.894305 -0.375745 -0.24297
0.141581 0.294355 -0.0853277 -0.558918 0.825529 0.078182
0.156418 0.291744 -0.380539 -0.679638 0.711444 -0.178715
0.160115 0.0580622 0.262823 -0.464448 0.383918 0.798057
0.14297 0.169953 -0.365102 0.914607 -0.230093 -0.332492
0.293975 0.410973 -0.160858 -0.603168 0.784028 0.14659
0.00352814 -0.0803532 -0.510884 0.89773 -0.314257 -0.308744
0.0559309 -0.2417 -0.199933 0.897355 -0.302768 -0.321069
0.00303795 -0.326083 -0.269673 0.888941 -0.304434 -0.342205
0.0633145 -0.518723 0.101184 0.8981 -0.314652 -0.307264
0.00866841 -0.0118648 0.192284 -0.567524 0.190271 0.80107
0.304365 0.322256 -0.0435691 0.89804 -0.302945 -0.318981
-0.0749865 -0.0483817 -0.284045 -0.915333 0.218303 -0.338393
0.180099 -0.291972 0.328444 -0.637391 -0.109135 0.762773
-0.0715289 -0.139263 -0.33985 -0.969149 0.0154804 -0.245988
0.00531327 -0.428539 -0.149841 0.899452 -0.290144 -0.326805
0.0561879 0.190154 -0.339564 -0.761384 0.604944 -0.233104
-0.0351418 -0.268735 -0.436423 0.895745 -0.327385 -0.300765
0.159607 -0.334205 0.303478 -0.68909 -0.124621 0.71388
0.133122 0.285119 -0.280135 -0.68326 0.72028 -0.119806
0.0313811 -0.262443 -0.24633 0.90554 -0.280422 -0.318371
0.137507 0.0726453 -0.0925257 -0.171824 -0.89082 0.420613
-0.0476436 -0.314131 -0.423272 0.894858 -0.304943 -0.325943
-0.0595991 -0.394238 -0.168569 -0.973594 -0.223682 0.0456158
-0.0194589 -0.148822 0.16323 -0.706571 -0.20555 0.677131
0.207283 0.154334 -0.157862 0.903144 -0.255319 -0.345172
0.0166935 0.0705386 -0.431513 -0.857526 0.404937 -0.317295
0.0349665 0.205584 -0.20875 -0.730688 0.669113 -0.135586
0.0890857 -0.501307 0.156734 0.893618 -0.328027 -0.306341
0.191197 -0.147766 0.0958255 0.897964 -0.321519 -0.300477
0.149075 -0.375359 0.201522 0.899441 -0.325391 -0.291764
0.135419 -0.281157 0.0740002 0.889176 -0.337101 -0.309401
0.0831616 -0.439769 0.0753088 0.906299 -0.336131 -0.256199
0.0730251 0.187631 -0.391011 -0.767903 0.587434 -0.255432
0.218614 0.0325514 0.309864 -0.494072 0.365156 0.789021
0.00675754 0.0986631 0.0515136 0.172706 -0.839347 -0.515431
-0.0972842 -0.0692767 -0.228683 -0.946977 0.10331 -0.304239
0.241606 0.15526 0.253063 -0.434568 0.587079 0.683
0.241106 0.229111 -0.136267 0.894314 -0.344503 -0.285516
0.0532143 0.062631 -0.516423 0.897225 -0.312213 -0.312268
0.265813 0.0250141 0.342354 -0.49199 0.355623 0.794656
-0.0794895 -0.256305 -0.015502 -0.951161 -0.251546 0.178935
0.0949589 -0.156413 0.00624393 0.1784 0.909333 -0.375882
0.0429837 -0.116215 0.224623 -0.619065 -0.0860031 0.780617
0.0147833 -0.333011 0.134625 -0.819788 -0.230128 0.524393
0.360608 0.0511266 0.389586 -0.525334 0.396 0.753133
0.212019 0.0576192 -0.0352134 -0.377428 -0.908052 -0.181632
0.0171648 0.19862 -0.153462 -0.680961 0.71996 -0.133973
-0.00902356 -0.12867 0.00848681 0.264761 0.956407 -0.123237
-0.0376255 0.0819464 0.124777 -0.457282 0.54404 0.703501
0.208186 0.173723 0.212514 -0.46885 0.505645 0.724226
-0.0151053 0.0253952 0.165535 -0.520747 0.274519 0.80837
0.00772496 0.0714371 -0.100679 0.13124 -0.633801 0.762281
-0.0345282 -0.450548 -0.253028 0.898628 -0.343308 -0.273145
-0.0509361 -0.0809787 -0.377574 -0.92957 0.18827 -0.316943
0.153073 0.274111 -0.429077 -0.758681 0.627955 -0.173423
0.269665 -0.0479863 0.225635 0.908814 -0.269822 -0.318202
-0.0886839 0.00115557 0.0356635 0.954272 -0.0783191 -0.288497
0.265386 0.0762696 0.0882279 0.891314 -0.341255 -0.298502
0.0333281 -0.230277 0.200033 -0.732077 -0.169018 0.659922
-0.0643475 -0.0866028 -0.043821 0.739944 0.594952 0.31387
0.183473 0.261953 -0.338925 0.8981 -0.299225 -0.322305
0.16618 0.067329 -0.00216929 -0.413903 -0.857742 -0.304899
0.0559008 -0.32447 -0.114195 0.901059 -0.264956 -0.343352
0.062135 -0.193378 -0.225173 0.892586 -0.287629 -0.347217
0.080532 -0.141826 -0.226783 0.895704 -0.321748 -0.306907
0.34726 -0.000875843 0.402737 0.901648 -0.294537 -0.316667
0.232813 0.312646 0.044551 -0.434257 0.833406 0.341841
-0.0620835 -0.333403 -0.339812 -0.967429 -0.0593997 -0.246074
0.171338 0.0739704 -0.0532975 -0.332434 -0.937858 0.0995483
-0.105531 -0.0148547 0.10496 -0.715701 -0.0797816 0.693835
0.190671 0.325692 -0.0775754 -0.5462 0.823138 0.155268
0.21712 -0.223563 0.249179 0.898192 -0.308457 -0.313219
0.240388 -0.132798 0.368089 -0.587979 0.152153 0.794437
0.151547 -0.290754 0.130911 0.89564 -0.335317 -0.292217
0.312496 0.296469 0.157262 -0.448568 0.739176 0.5024
0.280625 -0.0644334 0.271421 0.897644 -0.319272 -0.303811
0.229065 -0.132928 0.190363 0.897361 -0.256997 -0.358743
-0.0834723 -0.174239 -0.297596 -0.972015 0.0158386 -0.234382
0.209557 0.264087 0.109661 -0.471592 0.759288 0.448422
-0.0568187 -0.0999004 0.00290953 0.70699 0.695577 -0.127818
0.0837765 -0.152941 -0.0845705 0.359184 0.862095 0.357462
0.105521 -0.22405 -0.0760027 0.896328 -0.316972 -0.310041
0.00820815 0.0412248 0.104242 0.210829 -0.397643 -0.89299
0.176666 0.106095 0.245536 -0.37929 0.461797 0.8018
0.115391 -0.298464 0.0246002 0.897925 -0.318185 -0.30412
0.0611354 -0.369132 -0.0565775 0.903621 -0.332351 -0.270208
0.196063 0.28417 0.0539248 -0.486046 0.762864 0.426378
0.270137 0.31447 -0.149982 0.891104 -0.259458 -0.372311
0.333548 0.399517 -0.0454762 0.906376 -0.244829 -0.3443
0.0773749 0.210768 0.0607793 -0.482004 0.787934 0.383187
0.198075 0.341881 -0.289232 -0.69557 0.718358 0.0120358
0.363317 0.240666 0.257265 -0.447479 0.646595 0.617801
0.046026 -0.0220333 0.217542 -0.514512 0.154372 0.843473
0.112793 0.0675952 0.04964 -0.382017 -0.719271 -0.580269
-0.0541641 0.11121 -0.170668 -0.772399 0.536607 -0.339783
0.152799 0.0877772 -0.247124 0.890408 -0.343712 -0.298388
0.1146 0.0364161 -0.309948 0.897464 -0.325128 -0.298078
-0.0839866 -0.258232 -0.257967 -0.98696 -0.0484264 -0.153508
0.0955135 0.0911024 -0.0627164 -0.266654 -0.917615 0.29475
-0.0859771 -0.0889446 0.103455 -0.762986 -0.29029 0.577567
0.0552433 -0.276501 -0.165324 0.898804 -0.333027 -0.285033
0.177924 0.328297 -0.155069 -0.560249 0.828071 -0.0204783
-0.0597757 -0.213063 -0.391828 -0.974324 0.0169843 -0.224509
0.333834 0.0687433 0.288607 0.888526 -0.242586 -0.389454
0.0265285 -0.456391 -0.0637247 0.897848 -0.302725 -0.31973
0.0880661 0.0622728 -0.416199 0.894507 -0.277105 -0.350815
0.35603 0.204941 0.219441 0.900126 -0.336301 -0.276902
-0.0555153 0.0758785 -0.0459641 0.682913 -0.682535 0.260337
-0.0758631 0.0298347 -0.0693227 0.787033 -0.316982 0.529247
-0.0287855 -0.281617 0.0898912 -0.810748 -0.350811 0.468635
-0.083857 -0.0557034 0.0314241 0.874725 0.371989 -0.310613
-0.0956381 -0.0313912 -0.0236447 0.972679 0.20042 0.117165
-0.0180549 -0.176167 -0.473116 0.913445 -0.326608 -0.242785
0.305261 -0.0508048 0.322391 0.889863 -0.412371 -0.195178
0.119191 -0.395723 0.135598 0.901474 -0.324204 -0.286768
0.000522485 -0.0299775 -0.490728 -0.918297 0.259733 -0.298781
0.247834 -0.0225304 0.348603 -0.490511 0.218399 0.843623
0.242705 0.143617 -0.0462434 0.890341 -0.364182 -0.273246
0.000252087 0.115771 0.122903 -0.451032 0.595331 0.664945
-0.0229749 0.148556 -0.180603 -0.740769 0.631783 -0.228279
-0.00773969 -0.338142 0.0940225 -0.835825 -0.316196 0.448795
0.0553822 -0.107384 -0.330102 0.893095 -0.250532 -0.373652
0.141008 0.216071 -0.414298 0.894091 -0.339392 -0.292257
0.308717 0.101596 0.329608 -0.475796 0.464876 0.746665
0.098413 0.0179031 0.240597 -0.507964 0.248162 0.824857
0.0169245 -0.38955 0.101515 -0.853555 -0.286363 0.435248
0.0732815 -0.047934 -0.344803 0.914195 -0.32464 -0.242603
-0.0778927 0.00768982 -0.242672 -0.900613 0.274893 -0.336647
-0.142754 0.0016556 0.068269 -0.838151 -0.222645 0.497928
0.244785 0.378268 -0.156287 -0.579473 0.807065 0.11339
0.175948 0.0458242 -0.14137 0.89642 -0.32213 -0.304407
0.301133 0.362204 0.0248822 -0.47977 0.813199 0.329436
0.21184 0.0742381 0.284034 -0.481609 0.434378 0.761163
0.387364 0.282002 0.231361 -0.450958 0.662497 0.598109
0.117122 -0.0434813 -0.217868 0.901555 -0.293097 -0.318264
0.264186 0.398422 -0.237781 0.89044 -0.245214 -0.383388
0.235929 -0.067402 0.14092 0.899917 -0.39377 -0.187333
0.182511 0.295132 0.00742932 -0.49493 0.820761 0.285298
0.28979 0.375896 -0.0248199 -0.506614 0.778903 0.369666
0.207488 -0.177415 0.175048 0.904728 -0.247845 -0.346468
-0.0150359 0.171022 0.00899816 -0.534619 0.826857 0.174615
-0.0431668 0.101858 -0.223029 -0.829508 0.478667 -0.287738
0.0401665 0.152678 -0.372805 -0.787456 0.550053 -0.278125
0.122858 -0.321324 0.269726 -0.71013 -0.124096 0.693048
0.0345401 0.148075 0.115924 -0.472255 0.628597 0.617933
0.305693 0.217103 0.240031 -0.453705 0.621176 0.638978
0.118357 -0.265356 0.277995 -0.691771 -0.0348956 0.721273
0.119406 -0.198857 0.285 -0.642679 -0.0253683 0.765716
-0.0707156 -0.0383197 0.134943 -0.651215 -0.0450503 0.757555
0.121693 -0.240562 -0.00775351 0.891648 -0.263358 -0.368247
-0.0874215 -0.202001 0.0264842 -0.883577 -0.337583 0.324545
0.291581 0.100339 0.136921 0.897534 -0.315292 -0.308259
-0.0162362 -0.236458 -0.407421 0.883614 -0.293839 -0.364533
0.204203 0.301847 -0.31246 0.898801 -0.367267 -0.239314
0.121881 0.168437 -0.424014 0.89593 -0.343927 -0.28111
0.0199931 -0.0656847 0.20642 -0.615957 0.11742 0.77898
0.0807781 -0.300741 -0.0725055 0.89889 -0.323887 -0.295117
-0.0158411 -0.43656 -0.0136215 -0.873778 -0.351503 0.33609
0.304496 -0.0881701 0.368305 0.893708 -0.362738 -0.264019
0.280912 -0.142706 0.353206 0.896294 -0.291227 -0.334431
0.264168 0.0207771 0.136804 0.890984 -0.336732 -0.304563
0.23212 0.213804 0.188717 -0.454512 0.643239 0.616168
0.0887748 -0.336367 -0.00444313 0.884044 -0.360712 -0.297242
0.0468231 -0.456341 -0.00952348 0.902053 -0.283136 -0.325782
0.135451 0.29277 -0.226535 -0.645315 0.762241 -0.0505708
0.0216501 0.0449579 -0.477803 -0.861746 0.38217 -0.333676
0.000309173 0.152312 0.0791884 -0.480156 0.764048 0.430907
-0.0180255 0.0848694 -0.317829 -0.78845 0.501814 -0.355708
0.15956 0.239983 0.0976447 -0.460884 0.777325 0.428197
0.0471904 0.200902 -0.273715 -0.72605 0.649711 -0.225227
-0.119413 0.0736047 -0.0527973 -0.84079 0.486499 -0.237468
-0.127439 -0.107575 -0.0377892 -0.973134 -0.230169 0.00566649
0.314958 0.000867947 0.303585 0.89788 -0.310178 -0.312411
-0.0731336 -0.337014 -0.197577 -0.975064 -0.221024 -0.0199481
0.170344 -0.189403 0.0721362 0.893278 -0.332005 -0.303029
0.332967 0.288966 0.0630375 0.898286 -0.314429 -0.306947
-0.050862 0.073504 0.0439314 0.608777 -0.676598 -0.414253
