ply
format ascii 1.0
comment Created by Open3D
element vertex 128
property double x
property double y
property double z
property double nx
property double ny
property double nz
end_header
-0.18744 0.109942 -0.201926 0.645469 -0.413655 0.642074
0.204949 -0.15899 0.152059 -0.682695 0.393721 -0.615557
-0.441582 -0.0373532 0.00639336 -0.996219 -0.0748515 0.0441112
-0.387728 -0.122395 -0.0627116 0.0367189 -0.822869 -0.567044
-0.236438 0.0763929 -0.383176 0.0367192 -0.822868 -0.567045
-0.382999 0.182815 -0.17935 0.0367187 -0.822868 -0.567045
-0.328915 0.229701 -0.243887 0.0367189 -0.822868 -0.567044
0.408467 0.239586 -0.0642182 -0.0367189 0.822869 0.567044
-0.437522 -0.0948498 -0.0987614 -0.996827 0.00993719 -0.0789698
0.385321 -0.106874 0.308727 0.783837 -0.328258 0.527111
0.424539 -0.13485 0.0720052 0.948578 -0.149823 0.278842
0.0172076 0.360844 -0.35786 0.0457425 0.568216 -0.821607
-0.0297399 -0.081185 0.302307 0.0954476 0.567721 -0.817669
0.416893 0.0688613 -0.138582 0.945983 0.21153 -0.245706
-0.17474 -0.202188 0.392833 0.0367181 -0.822868 -0.567045
0.183695 -0.186301 0.39299 0.036719 -0.822868 -0.567045
-0.153024 0.291338 -0.217467 -0.0367199 0.822868 0.567045
0.279541 0.265075 -0.25582 0.0367189 -0.822868 -0.567044
-0.266536 0.248514 -0.162674 -0.0367181 0.822869 0.567044
-0.18254 0.123476 -0.197857 0.60664 -0.43256 0.666993
-0.291499 0.0579806 -0.0318341 0.975169 -0.0945041 0.200287
-0.0707901 -0.0506085 0.325864 -0.0367196 0.822869 0.567044
-0.0952987 -0.210229 0.381041 -0.194018 -0.5625 0.80371
0.350619 -0.184629 0.0754121 0.0367187 -0.822869 -0.567044
-0.12921 0.328156 -0.236146 0.298447 -0.532502 0.792068
0.254423 0.149537 -0.075179 -0.863397 -0.311837 0.396615
-0.00745443 0.34031 -0.251683 0.00407434 -0.567299 0.823502
0.461986 0.0219277 0.108838 0.0367189 -0.822868 -0.567044
0.121198 -0.15232 0.482289 0.250538 -0.541725 0.80235
0.275793 -0.0461377 0.315002 -0.682695 0.393721 -0.615558
-0.414412 0.0635627 -0.143865 -0.931726 0.17696 -0.31713
0.171616 -0.268408 0.311917 0.391924 -0.51011 0.765627
-0.325065 -0.156159 -0.0210553 -0.973356 -0.157969 0.166208
0.289628 0.145422 -0.30925 0.639229 0.455498 -0.619604
-0.163686 -0.135998 0.443761 -0.0367194 0.822868 0.567044
0.415431 0.135164 0.0877647 -0.0367188 0.822868 0.567045
-0.331089 0.241497 -0.115841 0.813761 -0.304731 0.494906
0.0162858 -0.278707 0.345724 0.0538812 -0.564971 0.823349
0.246128 -0.00357668 0.271033 0.751964 -0.350971 0.558005
0.383403 -0.0277218 -0.177126 -0.945983 -0.21153 0.245706
-0.146246 0.34779 -0.342142 -0.298447 0.532502 -0.792068
0.167527 -0.212382 0.152974 -0.566301 0.45039 -0.690255
-0.238509 0.303907 -0.199453 -0.0367191 0.822868 0.567045
0.406917 -0.0766743 0.248359 0.0367189 -0.822868 -0.567044
-0.308236 -0.106996 0.392315 -0.0367186 0.822868 0.567045
0.217863 0.0346407 -0.224633 -0.712534 -0.419409 0.562487
-0.278941 -0.00176824 -0.113986 0.948577 -0.149825 0.278844
-0.195568 -0.209996 0.415178 -0.384416 -0.535395 0.752048
-0.369886 0.000736057 -0.282027 0.0367185 -0.822869 -0.567044
0.256248 0.12025 -0.0942327 -0.863397 -0.311837 0.396614
-0.126015 -0.0496256 0.293961 0.429917 0.525241 -0.734366
-0.462383 0.0509275 0.153162 -0.0367189 0.822868 0.567044
0.26037 -0.229901 0.278155 0.566301 -0.45039 0.690255
0.279306 0.162354 0.0111079 -0.960864 -0.184979 0.206212
-0.25493 0.240591 -0.110096 -0.751965 0.35097 -0.558004
-0.34696 -0.187574 0.203437 -0.778758 -0.379152 0.49978
-0.203528 -0.119418 0.179255 0.676723 0.437998 -0.591781
-0.0671912 0.316647 -0.248636 -0.0367193 0.822868 0.567045
-0.1936 0.254334 -0.164269 -0.566302 0.450389 -0.690255
0.428465 0.235931 -0.142045 0.863398 0.311836 -0.396614
-0.336788 -0.0545385 0.314343 -0.0367189 0.822868 0.567044
-0.0977275 0.203367 -0.384239 -0.202004 0.549602 -0.810637
-0.379286 0.168933 -0.0538103 0.931726 -0.176959 0.317131
0.364743 -0.207363 0.0706912 -0.891123 0.229843 -0.391244
0.367533 0.3099 -0.168905 -0.0367188 0.822868 0.567045
0.287288 0.036314 0.096832 -0.975169 0.0945041 -0.200287
0.255815 0.235441 -0.0982173 0.778758 0.379152 -0.49978
-0.435856 0.231931 -0.146414 -0.867471 0.255463 -0.426888
0.225509 -0.143731 0.136372 -0.751965 0.35097 -0.558004
0.439386 0.0424585 -0.0372537 0.991055 0.102836 -0.0850553
0.368514 0.2432 -0.218315 0.0367192 -0.822868 -0.567044
-0.0934278 0.296005 -0.324855 0.0367192 -0.822868 -0.567044
0.167523 0.200896 -0.360393 0.384415 0.535396 -0.752048
0.0892619 0.386144 -0.330119 0.194018 0.5625 -0.80371
-0.224258 -0.108393 0.399781 -0.036719 0.822868 0.567044
0.443366 -0.0727305 0.0029972 0.992068 -0.0382449 0.11974
-0.423005 0.0239238 -0.136245 -0.963071 0.122316 -0.239862
0.267826 0.127387 -0.0591931 -0.909208 -0.262991 0.322764
0.354193 0.0692204 -0.281953 0.778757 0.379153 -0.499781
-0.40174 0.184915 -0.0373474 -0.0367188 0.822868 0.567044
0.315739 0.210608 -0.0699613 -0.0367189 0.822868 0.567044
0.327808 -0.134943 -0.039957 0.036719 -0.822869 -0.567044
0.0490369 0.110034 -0.413508 0.0367185 -0.822869 -0.567044
0.236533 0.174806 -0.090569 -0.809005 -0.357585 0.466523
-0.266815 -0.0712608 0.107772 0.909208 0.262991 -0.322764
0.271968 -0.0135481 -0.162361 -0.909208 -0.262991 0.322764
-0.228942 -0.0189629 0.221163 0.746573 0.399778 -0.531795
0.126688 0.102707 -0.392528 -0.290662 -0.55169 0.781764
-0.24368 -0.0649694 0.293719 -0.0367187 0.822868 0.567045
-0.249251 -0.212954 0.297951 -0.55957 -0.487059 0.670563
-0.385748 0.175865 -0.0290069 0.948578 -0.149824 0.278843
-0.486058 0.106006 -0.074563 0.0367189 -0.822868 -0.567044
0.301229 0.180856 -0.270247 0.676722 0.437998 -0.591782
-0.225682 -0.0371531 0.284677 -0.639227 -0.455498 0.619605
0.354998 -0.0672596 0.374124 0.718222 -0.372809 0.587512
-0.365031 -0.241038 0.130969 -0.837243 -0.335127 0.432105
0.447293 -0.0875081 -0.0890803 0.998905 0.0466812 -0.0030576
0.419072 0.0365807 0.23106 -0.0367188 0.822868 0.567044
0.368197 -0.000634159 -0.232245 0.0367188 -0.822868 -0.567045
0.288748 0.0945354 0.00150706 -0.983428 -0.130563 0.125786
-0.101737 -0.327791 0.242939 0.242643 0.557788 -0.793724
-0.474176 0.032314 0.0331453 0.0367189 -0.822868 -0.567044
-0.300715 0.132924 0.0446415 -0.0367191 0.822868 0.567045
-0.252662 0.151207 -0.0889652 0.841663 -0.280444 0.46147
-0.440798 -0.0518344 -0.0429407 -0.999108 -0.0183951 -0.0380031
0.18979 -0.32998 0.261501 0.437258 -0.496997 0.749533
-0.325969 0.0334766 -0.326695 0.0367187 -0.822868 -0.567044
-0.175429 -0.193701 0.153948 0.600146 0.471865 -0.645886
-0.312922 0.135615 0.0399454 -0.0367191 0.822868 0.567045
-0.2122 0.203352 -0.331705 -0.481506 0.482648 -0.731576
0.0453332 0.293062 -0.165335 -0.0367186 0.822868 0.567045
0.2696 0.300435 -0.161511 -0.0367183 0.822868 0.567045
0.211831 -0.126445 0.454215 -0.0367189 0.822868 0.567044
0.225428 -0.193243 0.329414 0.524555 -0.467099 0.7118
0.0638874 0.159754 -0.241205 -0.194019 -0.5625 0.80371
-0.143566 0.13175 -0.223353 0.481505 -0.482648 0.731576
-0.272974 0.270527 -0.174604 0.682695 -0.393721 0.615558
0.166303 -0.20888 0.424629 0.0367188 -0.822868 -0.567044
-0.0395353 -0.0761706 0.304646 0.0954469 0.567721 -0.817669
0.458442 0.188298 -0.103079 0.92875 0.237555 -0.284589
0.125196 -0.346476 0.25389 0.0367182 -0.822869 -0.567044
0.158518 -0.0167636 0.288005 -0.566302 0.450389 -0.690255
0.207816 0.0134779 -0.252761 -0.676722 -0.437998 0.591781
-0.276126 0.043432 -0.337914 0.0367188 -0.822868 -0.567045
0.238107 -0.148063 0.428845 0.481506 -0.482648 0.731576
0.0653786 -0.0758384 0.34872 0.202004 -0.549601 0.810637
-0.376143 -0.094749 0.223881 0.0367192 -0.822868 -0.567044
-0.487666 0.17496 -0.0284654 -0.0367187 0.822869 0.567044
