ply
format ascii 1.0
comment Created by Open3D
element vertex 128
property double x
property double y
property double z
property double nx
property double ny
property double nz
end_header
0.064869 0.0653567 -0.505459 0.497087 -0.228381 -0.837106
0.43038 -0.382715 -0.0592143 -0.401789 0.346216 0.847762
0.0875153 -0.366511 -0.384155 0.490085 -0.226935 -0.841616
0.357008 -0.474257 -0.0794447 0.756672 0.5424 0.365034
0.122808 -0.544802 -0.23226 -0.194197 -0.174975 -0.965231
-0.217514 -0.108506 0.429993 -0.488348 0.219343 0.844633
-0.126156 -0.171117 -0.554874 0.508081 -0.261405 -0.820683
-0.0451929 -0.00515833 0.502066 -0.468849 0.184357 0.863825
0.014912 -0.0118161 -0.51304 0.49092 -0.243988 -0.836342
0.0327472 -0.463997 -0.00602863 -0.0345557 -0.972134 0.231863
0.225749 0.0777194 -0.416598 0.478959 -0.203005 -0.854042
-0.407945 0.169787 0.251467 -0.466787 0.197602 0.862011
0.380715 0.316733 -0.14953 -0.69426 0.561303 -0.450491
-0.00296061 -0.484721 -0.145865 -0.312083 -0.932993 0.179246
-0.400318 -0.101612 -0.149121 -0.881096 -0.187018 -0.43439
-0.0883094 0.469658 0.122484 0.0605505 0.984362 -0.165423
0.288207 -0.514682 -0.114695 0.979938 0.19088 0.0573195
-0.209324 -0.0967475 0.428462 -0.496425 0.144045 0.856045
-0.221825 0.0695021 0.38283 -0.471743 0.179954 0.863178
0.116657 -0.15994 -0.418333 0.497216 -0.225033 -0.837936
-0.152593 -0.418327 -0.183883 -0.540491 -0.840656 -0.0341436
-0.0537938 -0.470662 -0.418945 -0.621423 -0.778003 -0.0924378
-0.230909 -0.125944 -0.511582 -0.892319 -0.0863827 -0.443062
0.257256 -0.0984894 0.384171 0.760251 -0.306222 0.572928
0.352467 0.159385 -0.366588 0.483692 -0.209676 -0.849752
-0.0156082 0.467798 0.258501 0.242506 0.970145 0.00295008
-0.52332 0.140806 0.0806557 -0.874314 0.168376 -0.455219
0.39424 0.2187 0.0650443 0.749269 0.565568 0.344571
0.164557 0.28295 0.45561 0.781664 0.498649 0.374634
-0.370941 -0.0470896 0.326678 -0.495402 0.230832 0.837433
-0.0844059 -0.498967 -0.370856 -0.574366 -0.816166 -0.0630539
-0.0527016 0.458783 0.0545918 0.0421631 0.972541 -0.228879
-0.187247 0.0968908 -0.524605 -0.764888 0.380268 -0.519944
0.235765 -0.423309 -0.288249 0.474395 -0.200874 -0.857087
-0.243988 0.338263 -0.143758 -0.487923 0.76188 -0.425993
-0.262338 0.121203 -0.382188 -0.763644 0.382817 -0.519904
0.226837 0.293742 0.306333 0.781139 0.570481 0.253719
0.137541 -0.507496 -0.141336 -0.829802 -0.143245 -0.53936
0.0824927 0.0896675 -0.502293 0.476923 -0.201425 -0.855554
-0.161893 0.336313 -0.242857 -0.491678 0.796881 -0.351046
0.417973 0.321657 -0.173535 0.786777 -0.438087 -0.434813
-0.399289 -0.106129 -0.149101 -0.897669 -0.252876 -0.360894
0.0682057 0.427642 0.31825 0.51198 0.846712 0.144761
-0.037636 0.17668 -0.59019 0.516785 -0.264287 -0.814301
-0.157859 -0.0664698 -0.600004 0.518125 -0.23672 -0.821895
0.00593134 -0.454467 0.0114993 -0.091807 -0.972228 0.215278
0.218186 0.391187 -0.21127 0.251521 0.9673 -0.0326736
-0.0210282 -0.134423 -0.504316 0.459491 -0.150958 -0.87526
-0.159494 -0.221747 0.492191 -0.494755 0.228802 0.838372
-0.222871 -0.316735 0.467564 -0.120396 -0.953215 0.277284
0.411936 0.251024 -0.0311207 0.718366 0.655278 0.233583
0.0653671 0.111586 0.535167 -0.473375 0.205199 0.856627
0.528889 -0.248218 -0.00421033 0.323268 0.938235 0.123344
0.214873 0.359176 0.170765 0.588268 0.784397 0.196628
-0.0800077 0.486017 0.260532 0.23069 0.970063 -0.0758988
-0.229037 -0.219382 -0.534602 0.115426 -0.933131 0.340505
0.236726 -0.423549 -0.285615 0.483248 -0.216781 -0.84822
0.573316 -0.00187912 -0.027672 -0.13164 0.975694 -0.175192
-0.228516 0.245022 0.337112 -0.509204 0.263883 0.819193
0.445028 -0.394148 -0.172278 0.469563 -0.185463 -0.8632
0.0326822 -0.310566 0.390228 0.356377 -0.820507 0.44695
0.321757 -0.456114 -0.0860078 -0.777156 -0.509288 -0.369668
-0.421489 0.190644 -0.0690552 -0.814368 0.374188 -0.443608
-0.0649341 0.363694 -0.286879 -0.295614 0.8868 -0.355244
-0.257007 0.0609572 -0.432651 -0.831144 0.263058 -0.489897
0.439019 -0.11882 -0.246074 0.475742 -0.195568 -0.857568
0.290756 -0.468363 -0.243658 0.473188 -0.163833 -0.865593
0.00781627 0.293494 0.45767 -0.497311 0.237805 0.834345
0.437087 -0.0461544 0.137459 0.790484 -0.0726567 0.608158
-0.145296 -0.416329 0.0149009 -0.327669 -0.943359 0.0520219
-0.205053 0.0701472 -0.514602 -0.814777 0.32223 -0.481981
0.458568 0.201606 -0.0423033 0.745857 0.558256 0.363383
0.039839 -0.535721 -0.23396 0.47852 -0.0592 0.876079
-0.194568 -0.339017 -0.389408 -0.798288 -0.549356 -0.24687
0.411471 -0.073594 -0.270717 0.485602 -0.249198 -0.837908
-0.49473 0.174247 0.0493771 -0.850488 0.253875 -0.460672
-0.127641 -0.148241 -0.561134 0.474268 -0.114611 -0.872888
-0.192829 0.0131975 0.414387 -0.349274 0.181146 0.919344
0.0451482 0.315953 -0.543175 0.229514 -0.331806 -0.915002
0.604529 -0.129522 -0.123216 0.816798 -0.0743558 0.572112
-0.453812 0.215621 0.00441774 -0.782197 0.364234 -0.505471
0.432453 0.26332 -0.346461 0.382588 -0.113239 -0.916953
-0.262965 0.127543 0.344452 -0.454408 0.161426 0.876045
0.620555 0.0328913 -0.182537 0.47244 -0.111885 -0.874233
0.489284 -0.214948 -0.194518 0.511253 -0.221705 -0.830342
-0.371347 0.272411 -0.0683873 -0.679205 0.530809 -0.506876
0.111343 0.32871 0.503066 0.722451 0.599427 0.344605
0.189866 0.373736 -0.470571 0.846168 0.244567 0.473483
-0.226519 -0.377798 -0.02263 -0.530742 -0.84698 -0.0306265
0.239069 -0.146341 0.37599 0.74399 -0.38067 0.549153
-0.36969 -0.0669282 -0.23192 -0.888951 -0.115456 -0.443212
0.135133 0.268014 0.534255 0.781925 0.3663 0.504398
0.53088 -0.106483 0.036327 0.2157 0.973853 -0.0713051
0.00229148 0.380937 -0.290859 -0.263406 0.94055 -0.214436
-0.225916 -0.228668 -0.504407 0.339083 -0.0419849 -0.939819
0.0391378 0.190379 -0.550816 0.487129 -0.164881 -0.857624
0.093138 -0.254533 0.428531 0.507411 -0.717268 0.477556
0.118324 0.397219 0.31035 0.567097 0.799694 0.197206
0.314282 -0.459065 -0.0675639 -0.793851 -0.503139 -0.341543
0.00134485 -0.43217 0.103276 0.0424615 -0.969833 0.240043
0.402258 0.114226 -0.325558 0.482017 -0.207597 -0.851213
-0.287048 0.434188 0.106607 -0.341541 0.833423 -0.43446
0.311023 0.211865 -0.399539 0.454597 -0.183431 -0.871605
-0.171288 -0.409534 -0.0221045 -0.412369 -0.911016 0.0015221
-0.318423 -0.322195 0.0981231 -0.564761 -0.823466 -0.0543068
0.410859 0.0743618 0.167551 0.863348 0.218764 0.454722
-0.473143 0.151408 0.219741 -0.493436 0.227917 0.83939
0.582144 -0.0128438 -0.0931151 0.871179 0.161735 0.463562
-0.167546 0.018877 -0.614091 0.422568 0.851616 -0.310139
-0.0562682 0.394572 -0.207261 -0.266614 0.921403 -0.282726
0.186343 0.0465454 -0.432144 0.486544 -0.218772 -0.845821
-0.338101 0.208972 0.281717 -0.50066 0.254743 0.827312
-0.420633 -0.239753 0.348223 -0.47633 0.178682 0.86092
0.17822 0.377959 -0.464015 -0.417493 0.203078 0.885697
-0.107957 0.196372 -0.625469 -0.618736 0.597563 -0.509984
-0.304998 0.457874 0.191976 -0.298818 0.88234 -0.363572
-0.14114 0.136695 0.40945 -0.493626 0.23267 0.837972
0.0102215 -0.50545 -0.292512 -0.397764 -0.91496 0.0680636
-0.10686 0.257405 -0.456024 -0.58001 0.697999 -0.419983
-0.016213 -0.399005 0.203326 0.0438511 -0.945762 0.321886
-0.295071 -0.176636 0.40384 -0.483576 0.239929 0.841777
-0.151399 0.473024 0.141182 -0.0545286 0.97667 -0.207705
0.49015 0.0572622 0.0374125 0.819791 0.21479 0.530856
-0.239459 -0.21028 0.443777 -0.552916 0.233996 0.799706
-0.070025 -0.456103 -0.0960154 -0.344615 -0.93074 0.122326
0.0292864 0.247271 0.481988 -0.453492 0.196076 0.869425
-0.505853 -0.126429 0.271035 -0.481968 0.199754 0.853115
-0.0683565 0.374701 -0.35971 -0.388564 0.876915 -0.282911
