ply
format ascii 1.0
comment Created by Open3D
element vertex 128
property double x
property double y
property double z
property double nx
property double ny
property double nz
end_header
0.0284442 0.250584 -0.268107 0.401929 -0.0793869 -0.912223
0.270867 -0.263683 -0.00237103 0.783708 0.551069 0.286574
0.0165494 -0.195688 0.0803129 0.176409 -0.976834 0.121145
-0.170244 -0.171413 0.178048 -0.450531 -0.882396 -0.135643
0.335181 -0.290359 0.121769 -0.773078 0.468085 0.428074
0.19167 0.242605 -0.155644 0.602367 0.772151 0.202329
0.277727 0.168967 -0.130824 0.602367 0.772151 0.202329
-0.0600224 0.258052 -0.0541517 -0.372439 0.0476842 0.926831
-0.209468 -0.115742 -0.0994618 -0.564273 -0.233407 0.791908
-0.0553325 0.252188 -0.305845 0.409126 -0.0810096 -0.908875
-0.0159953 0.130879 -0.277351 0.405853 -0.0800865 -0.910423
0.403972 0.0288893 0.027907 0.602367 0.772151 0.202329
-0.0342921 -0.200902 0.0447128 -0.0999923 -0.994927 0.0110069
-0.240284 -0.0878143 -0.290355 -0.602367 -0.772151 -0.202329
0.102318 0.172328 0.0376562 0.529079 0.831405 0.169831
-0.280605 0.00399718 0.159833 -0.996599 -0.0107732 0.0817028
-0.329874 -0.0187041 -0.15814 -0.636921 -0.372813 0.674791
-0.243959 -0.102343 -0.223971 -0.602367 -0.772151 -0.202329
-0.018883 -0.30439 -0.122981 -0.602367 -0.772151 -0.202329
0.113659 0.293442 -0.117403 0.602367 0.772151 0.202329
-0.024809 -0.225488 -0.0151239 -0.372438 0.0476845 0.926831
0.0126389 0.203667 -0.0221554 -0.372438 0.0476843 0.926831
-0.0610901 0.188584 -0.0495349 -0.310235 0.93483 -0.172761
-0.0713978 0.212706 0.16768 0.0076282 0.998803 -0.0483219
-0.339987 -0.021179 -0.172018 -0.729538 -0.49115 0.475969
0.408511 -0.181552 -0.10314 0.309868 0.00613096 -0.95076
-0.238714 -0.0821827 -0.316523 -0.602367 -0.772151 -0.202329
-0.310171 -0.00243986 -0.141359 -0.415743 -0.00924941 0.909435
0.350015 -0.357861 0.0657464 0.441903 -0.869086 0.222288
0.00390688 -0.339388 -0.0354998 -0.701617 -0.686583 0.190623
-0.045468 -0.198186 -0.015386 -0.236388 -0.970614 -0.0450535
0.272092 -0.310679 0.0814834 -0.225207 0.739589 0.634263
0.380461 0.0552491 -0.00269413 0.602367 0.772151 0.202329
0.0965341 0.0694127 0.28336 0.895406 0.281035 0.345352
0.0907566 -0.257629 -0.214239 0.356113 -0.016904 -0.93429
-0.0626036 -0.020083 0.0607876 0.783703 0.551077 0.286572
0.00520403 -0.187084 -0.248739 0.368197 -0.0386134 -0.928946
-0.0150506 0.125846 0.271126 -0.526856 -0.19834 0.826489
0.357504 -0.235489 0.135459 -0.919289 0.0435996 0.39116
0.0125869 0.202915 -0.0200189 0.0538772 0.998106 -0.0297013
-0.0837919 -0.192919 0.0722225 -0.236388 -0.970614 -0.0450535
0.103941 -0.00994795 -0.120326 -0.732393 0.0498099 -0.679058
-0.255616 0.047486 0.099207 -0.903061 0.211601 -0.373773
-0.00206564 -0.2002 0.0614118 0.0848105 -0.992752 0.0851562
0.284386 -0.312181 0.0890584 -0.355795 0.731041 0.582227
0.301135 0.0579395 0.0917836 0.0076048 0.453382 0.891284
-0.120342 -0.169953 0.00686853 -0.529077 -0.831406 -0.16983
-0.175284 0.19441 -0.255296 -0.590671 0.758111 -0.27636
-0.221119 -0.115732 -0.109095 -0.636921 -0.372813 0.674791
0.136799 -0.11018 0.115135 0.775427 -0.532717 0.339006
-0.195519 0.163896 -0.109684 -0.705767 0.546261 0.451101
-0.20108 0.183759 -0.290317 0.19136 0.981164 0.0264163
-0.156901 -0.196294 -0.11842 -0.669334 -0.74294 0.00566291
0.389507 -0.243316 -0.0882306 -0.927927 -0.0358313 -0.371035
-0.225096 -0.0765481 -0.103304 -0.387105 0.0287261 0.921588
0.413857 -0.226135 -0.101721 0.304825 0.0146925 -0.952295
-0.219725 -0.125932 -0.206092 -0.602367 -0.772151 -0.202329
0.317661 -0.171401 0.0973235 -0.637488 -0.554269 0.535159
0.432865 0.0380131 -0.0929337 0.602367 0.772151 0.202329
-0.155805 -0.0904031 0.216069 -0.11777 0.421436 0.899178
0.446207 -0.0940946 -0.041014 0.720575 -0.614509 0.321172
-0.1254 -0.197853 -0.212439 -0.602367 -0.772151 -0.202329
0.39715 -0.375332 -0.10904 0.230371 -0.962672 0.142101
0.184568 0.0587661 0.0637751 0.895406 0.281034 0.345352
0.00795911 -0.0122729 -0.153445 0.996015 0.0629678 0.0631674
0.273568 -0.343832 0.110865 -0.372438 0.0476839 0.926831
-0.121227 0.362334 -0.147151 -0.706006 0.633647 -0.316302
0.434621 0.0255681 -0.0506659 0.602367 0.772151 0.202329
0.413154 -0.159263 -0.0886246 0.602367 0.772151 0.202329
0.432949 -0.0121123 0.0299072 0.886625 0.313349 0.34016
-0.255971 0.171474 -0.168933 -0.096134 0.720146 0.68713
-0.186565 0.326648 -0.15755 0.602367 0.772151 0.202329
0.422677 -0.131581 -0.0634376 0.706006 -0.633647 0.316302
-0.269432 0.0772798 0.15766 -0.952432 0.304475 -0.0129672
-0.0537917 0.365824 -0.29004 -0.659779 0.688734 -0.300561
-0.193271 -0.00519681 -0.0654266 -0.927927 -0.0358246 -0.371036
0.0399248 -0.0702229 -0.174061 0.536666 0.719009 -0.441606
0.0150492 0.196366 0.166917 0.367506 0.924618 0.100108
0.243994 -0.368418 -0.158307 0.31609 0.00160986 -0.948728
-0.240104 0.0152149 0.0512885 -0.924861 0.0637434 -0.374926
-0.03133 0.270386 -0.0432565 -0.372439 0.0476843 0.926831
0.13848 -0.0212184 -0.148872 -0.452818 0.132045 -0.881771
0.0602665 0.296579 -0.0311537 0.245738 0.63806 0.729721
0.404909 -0.364974 -0.071192 0.441907 -0.869083 0.22229
-0.0932368 -0.2175 -0.046634 -0.564272 -0.233405 0.791909
0.0896328 0.312642 -0.246515 0.401709 -0.0737756 -0.912791
0.0702425 -0.332402 0.0285722 -0.372436 0.0476849 0.926832
-0.267034 0.080567 0.150503 -0.885981 0.357265 -0.295633
-0.180477 -0.11261 -0.083485 -0.372439 0.0476842 0.926831
-0.27409 -0.0499574 -0.334184 -0.602367 -0.772151 -0.202329
-0.1816 0.266883 -0.315299 -0.00763263 -0.998803 0.04832
0.29774 -0.368149 0.0758541 -0.0405153 -0.998562 0.0350942
0.0882425 -0.0600311 0.292431 0.861088 -0.354732 0.364271
0.0504886 -0.218032 -0.229949 0.342462 -0.0215866 -0.939284
0.00495455 -0.203533 0.0102717 0.0386392 -0.997016 0.0668221
-0.256204 0.137717 -0.296415 -0.602367 -0.772151 -0.202329
0.0996679 0.0888952 -0.195994 0.200995 -0.610165 -0.766355
0.272328 -0.293651 0.0622886 -0.127981 0.727609 0.673948
0.010914 0.204028 0.0481791 0.145856 0.989276 0.00771392
0.273743 0.134337 0.0131983 0.602367 0.772151 0.202329
0.235943 -0.359778 -0.103782 0.706006 -0.633647 0.316302
-0.0447451 0.195489 -0.0374761 -0.221605 0.965221 -0.138709
-0.205208 0.203306 -0.371398 0.435835 -0.108372 -0.893478
0.395188 0.0131652 0.0919857 0.668601 0.571656 0.475586
0.120151 -0.191971 0.0414026 -0.372438 0.0476844 0.926831
-0.307926 -0.0335024 -0.291872 -0.684258 -0.68878 -0.239526
0.0129497 0.0398392 0.0111929 -0.367488 -0.92462 -0.100153
-0.228558 0.0662984 0.190759 -0.139464 -0.0447629 0.989215
-0.243383 0.0116185 -0.369052 0.409126 -0.0810096 -0.908875
-0.118494 -0.175457 0.032469 -0.450531 -0.882396 -0.135644
0.0410812 0.0532885 0.300962 -0.550512 -0.0118064 0.834744
-0.300999 0.0894375 -0.292583 -0.706006 0.633647 -0.316302
0.0852447 0.0898462 0.292075 0.815005 0.378092 0.439105
-0.0358618 0.197081 -0.0405868 -0.221605 0.965221 -0.138709
0.167349 -0.393383 -0.0278097 0.519774 -0.816636 0.250881
0.0928811 -0.087916 0.249362 0.799879 -0.48994 0.346631
-0.0487896 -0.198193 0.113027 -0.0538772 -0.998106 0.0297013
-0.0920427 -0.211411 -0.260011 -0.602367 -0.772151 -0.202329
-0.0458769 0.210741 0.219968 0.191362 0.981164 0.0264172
-0.00545912 -0.247638 -0.250475 0.374885 -0.038531 -0.92627
-0.0935789 0.267037 -0.325205 0.426503 -0.0966642 -0.899306
-0.00253807 0.0346816 0.085695 -0.669668 -0.705224 -0.232817
0.182182 0.225424 -0.0618273 0.602367 0.772151 0.202329
-0.242445 0.118425 0.139471 -0.775428 0.532716 -0.339006
-0.0450833 -0.246873 -0.0227968 -0.443373 -0.0471929 0.895094
-0.351053 0.0578845 -0.176097 -0.831453 0.300522 0.467304
0.179775 -0.196746 0.0656077 -0.372437 0.0476851 0.926832
0.423623 -0.170025 -0.0787201 0.602367 0.772151 0.202329
