ply
format ascii 1.0
comment Created by Open3D
element vertex 512
property double x
property double y
property double z
property double nx
property double ny
property double nz
end_header
0.18705 -0.0474066 0.132723 -0.221315 0.891001 0.396405
-0.102785 0.083698 0.142318 0.8884 -0.186095 -0.419658
-0.35742 0.350557 0.059749 -0.781977 0.622177 0.0375196
-0.127862 -0.372647 0.119034 -0.45111 -0.52338 -0.722892
0.253364 -0.360907 -0.127363 -0.45111 -0.52338 -0.722892
0.21417 -0.0133978 0.0892903 -0.382712 0.738591 0.554991
-0.398089 0.158942 -0.0972097 -0.45111 -0.52338 -0.722892
0.458732 0.0912625 -0.121785 0.45111 0.523381 0.722892
0.0257075 0.473944 -0.128627 0.45111 0.523381 0.722892
0.193576 -0.167305 -0.230223 -0.45111 -0.52338 -0.722892
0.118179 0.41487 -0.264645 0.158682 0.750048 -0.642065
0.123238 -0.231534 0.321283 0.45111 0.523381 0.722892
-0.276516 -0.15086 0.396936 -0.625844 -0.39194 0.674317
0.00963496 -0.0880847 0.158981 0.158682 0.750048 -0.642065
-0.341962 -0.243672 0.282249 -0.625844 -0.39194 0.674317
-0.188468 -0.330654 0.126452 -0.451109 -0.523381 -0.722892
0.323693 -0.192883 -0.292902 -0.45111 -0.523381 -0.722892
0.0936789 0.0791767 -0.112788 -0.559384 -0.465325 0.685975
0.152579 -0.419318 -0.0221805 -0.45111 -0.52338 -0.722892
-0.315455 0.398445 0.05955 -0.735264 0.677054 -0.031363
0.0974031 -0.195494 -0.149799 -0.45111 -0.52338 -0.722892
-0.410723 0.0713232 0.281539 -0.875511 0.102377 0.472228
0.441557 -0.245349 0.00288985 0.820918 -0.561116 -0.106029
0.146029 0.205747 -0.0112923 0.33591 0.337103 0.879504
0.093017 0.31007 -0.0519841 0.45111 0.523381 0.722892
-0.179378 -0.0459557 0.375766 0.45111 0.523381 0.722892
-0.490016 0.123387 0.0728593 -0.887651 0.347171 0.30257
0.188663 0.429484 -0.212903 0.488717 0.872273 0.0171796
-0.33578 0.180852 0.309156 0.45111 0.52338 0.722892
0.0889506 -0.264411 0.366483 0.45111 0.52338 0.722892
0.310124 -0.0844047 -0.362974 -0.45111 -0.52338 -0.722892
-0.309383 -0.0361622 0.414585 -0.622735 -0.113916 0.774096
-0.257964 0.403773 -0.142739 -0.517911 0.813173 -0.26555
-0.0468372 -0.184195 0.0296291 0.0260135 0.801936 -0.596843
0.141386 -0.45922 0.153136 0.322547 -0.850853 0.414745
-0.451993 0.181505 -0.0799074 -0.45111 -0.52338 -0.722892
0.177028 0.00638188 -0.345648 -0.45111 -0.523381 -0.722892
0.447608 -0.104339 -0.196713 0.891539 -0.227312 -0.391775
-0.0136787 0.0838626 -0.164912 -0.158682 -0.750048 0.642065
-0.175829 0.478612 -0.0128063 0.103942 0.877285 0.46858
0.00446811 -0.135001 0.097567 -0.0184859 0.815297 -0.578747
-0.118777 0.290544 -0.366791 -0.45111 -0.523381 -0.722892
0.451516 0.142907 -0.205845 0.785578 0.151513 -0.599925
-0.0406053 -0.0554444 0.169334 0.449491 0.566518 -0.690663
-0.0355105 0.336268 -0.387208 0.0260132 0.801936 -0.596843
-0.100269 -0.203173 0.00337833 -0.0462987 0.376397 -0.925301
0.419144 0.206207 -0.181069 0.570927 0.55573 0.604323
0.118221 0.0108948 -0.312218 -0.45111 -0.523381 -0.722892
0.0123881 0.193911 -0.00924088 0.194921 -0.848216 0.492479
0.104855 0.157501 -0.0423258 -0.37049 -0.627078 0.685209
-0.0531636 0.121014 -0.10885 0.194921 -0.848216 0.492479
-0.282958 -0.181403 0.0773579 -0.45111 -0.52338 -0.722892
-0.0826532 0.0952758 0.199998 0.923763 0.337564 0.180865
-0.496399 0.148368 0.012527 -0.922654 0.355699 0.148954
-0.432526 0.133458 0.21414 -0.891539 0.227312 0.391775
0.0464766 0.166614 -0.380189 -0.45111 -0.523381 -0.722892
-0.110594 0.10516 -0.089714 0.517911 -0.813174 0.265551
0.308282 -0.213553 0.192791 0.45111 0.523381 0.722891
-0.0590335 0.0581775 -0.208326 -0.206545 -0.945215 0.252799
-0.0912219 -0.344238 0.352386 -0.202261 -0.728961 0.653993
-0.200283 0.395617 0.0691086 0.45111 0.52338 0.722892
-0.184085 0.281183 0.141852 0.45111 0.52338 0.722892
0.256553 -0.242601 0.246102 0.45111 0.52338 0.722892
0.227986 0.299064 -0.330033 0.449491 0.566518 -0.690663
0.348417 0.252877 -0.270907 0.625844 0.391939 -0.674317
0.27708 0.212307 -0.358699 0.559383 0.465326 -0.685975
-0.250986 -0.369826 0.255271 -0.4105 -0.597541 0.688792
-0.190376 -0.379139 0.162746 -0.45111 -0.523381 -0.722892
0.299902 -0.404163 -0.110233 0.239199 -0.831972 -0.500607
0.222872 0.237327 -0.38284 0.487364 0.534087 -0.690816
0.276534 0.135153 -0.406048 0.656781 0.353738 -0.665964
0.381593 -0.125939 0.0836091 0.45111 0.523381 0.722892
-0.32292 -0.130474 0.361669 -0.686084 -0.314658 0.655956
-0.171753 0.479476 -0.072156 -0.44297 0.834483 -0.327745
-0.483101 0.0684528 0.136765 -0.891539 0.227312 0.391775
-0.0175256 -0.202795 0.388318 0.45111 0.523381 0.722892
0.381455 -0.279061 0.189101 0.713754 0.0872624 0.694939
-0.347939 -0.0579154 0.361874 -0.763492 -0.19312 0.616267
-0.360967 0.0371868 -0.0322231 -0.45111 -0.52338 -0.722892
-0.142454 0.089901 -0.0200259 0.759565 -0.650424 -0.00308247
0.0128544 0.0402526 -0.26772 -0.451109 -0.523381 -0.722892
-0.285817 0.337253 0.164741 0.45111 0.523381 0.722891
0.0444123 -0.381031 0.0175995 -0.45111 -0.523381 -0.722892
-0.296655 -0.352771 0.215085 -0.605065 -0.722247 -0.335046
-0.374901 0.208709 -0.147711 -0.45111 -0.523381 -0.722892
-0.444393 0.248289 -0.098653 -0.852348 0.487328 -0.189774
-0.496097 -0.0376782 0.14531 -0.930152 -0.0302493 0.365928
-0.100054 -0.270493 0.0277211 -0.45111 -0.523381 -0.722892
-0.291677 0.412665 -0.0125044 -0.651659 0.746602 -0.133889
0.196991 -0.434931 0.151184 0.403799 -0.842037 0.357658
0.46044 -0.189221 -0.0726747 0.874019 -0.422925 -0.239217
-0.231954 -0.292466 0.12594 -0.45111 -0.523381 -0.722892
-0.0572115 0.423944 -0.25884 -0.107236 0.83591 -0.538288
0.195498 0.357815 -0.150503 0.45111 0.523381 0.722892
0.415343 -0.281965 0.112126 0.709136 -0.702002 0.0657303
0.131843 -0.106639 0.225488 0.451109 0.523381 0.722892
-0.182419 0.439053 0.0265124 0.45111 0.523381 0.722892
0.104514 0.138043 -0.39572 -0.45111 -0.52338 -0.722892
0.354024 -0.116221 -0.354477 0.270426 -0.42044 -0.866083
0.0638646 -0.394502 0.303234 0.107236 -0.835911 0.538288
-0.375683 0.329583 -0.0150722 -0.735264 0.677054 -0.031363
0.0637379 -0.176428 -0.0496055 -0.651658 0.746602 -0.133889
-0.344152 -0.202598 0.130891 -0.45111 -0.52338 -0.722892
0.0660123 -0.484979 0.152462 0.23809 -0.851212 0.467709
0.508762 -0.0575021 -0.0815978 0.969592 -0.146832 -0.195784
0.0997452 -0.13767 -0.0117543 -0.681245 0.725203 -0.0999328
-0.182037 0.0929407 -0.184248 -0.45111 -0.52338 -0.722892
0.223629 0.0961367 -0.438692 -0.302988 -0.424762 -0.853097
-0.311778 0.385059 -0.0679939 -0.620453 0.766145 -0.167512
0.232108 0.158317 -0.431985 0.593352 0.429166 -0.680992
-0.291879 0.362957 -0.201583 -0.517911 0.813173 -0.26555
0.107726 -0.125114 -0.0735599 -0.837351 0.528452 0.139933
-0.0778449 -0.305215 0.39929 -0.24534 -0.70606 0.664295
0.159244 -0.29315 0.343425 0.45111 0.523381 0.722892
-0.271742 -0.251401 0.336106 -0.524024 -0.500329 0.689253
0.403938 -0.136934 -0.27523 0.8884 -0.186095 -0.419658
-0.0967342 -0.0147165 0.145167 0.713683 0.274794 -0.644317
-0.509089 0.0550037 0.0817714 -0.980438 0.118699 0.157012
-0.305565 0.126126 -0.131188 -0.45111 -0.523381 -0.722892
-0.229362 0.333809 0.132005 0.45111 0.523381 0.722892
0.187105 -0.123486 0.2032 0.45111 0.523381 0.722892
-0.024429 0.198001 -0.358665 -0.45111 -0.523381 -0.722892
0.351522 -0.0268273 -0.37677 0.823844 0.0672686 -0.562811
-0.171006 0.145504 0.231923 0.45111 0.523381 0.722892
-0.259034 0.232596 0.2238 0.45111 0.523381 0.722891
0.021508 0.267703 0.0233144 0.451109 0.523381 0.722892
-0.24161 -0.322399 0.302003 -0.4105 -0.597541 0.688792
-0.218576 0.354591 -0.307586 -0.354859 0.810045 -0.4668
-0.214581 0.382329 -0.252906 -0.363626 0.847498 -0.386681
-0.216063 0.0283161 0.344886 0.45111 0.523381 0.722892
0.133133 -0.49522 0.064845 0.0704753 -0.989812 -0.123717
0.301461 -0.129678 -0.324789 -0.45111 -0.523381 -0.722892
-0.344315 -0.307821 0.235159 -0.694182 -0.637467 0.334286
-0.0688373 0.249312 0.0930079 0.45111 0.523381 0.722891
0.196115 -0.337061 0.337028 0.474913 -0.302813 0.826294
-0.112613 0.350011 -0.362613 -0.107236 0.835911 -0.538288
0.392286 -0.308547 -0.0297367 0.781977 -0.622177 -0.0375196
0.287351 -0.164188 0.170113 0.45111 0.523381 0.722892
-0.096434 0.203321 0.143527 0.45111 0.523381 0.722892
0.0661801 0.475539 -0.195159 0.0810187 0.859953 -0.503901
0.438158 0.0568786 -0.0840511 0.45111 0.523381 0.722892
-0.310928 -0.102133 0.0374197 -0.45111 -0.52338 -0.722892
-0.474166 0.0166104 0.175777 -0.875511 0.102377 0.472228
-0.00715297 0.216206 0.0467152 0.562087 -0.628268 0.537901
-0.0413994 0.267622 -0.398482 -0.45111 -0.52338 -0.722892
0.186048 -0.382714 0.27507 0.280668 -0.852091 0.441776
-0.349033 0.0242482 0.380105 -0.823844 -0.0672685 0.562811
-0.0236146 -0.155265 0.357706 0.45111 0.523381 0.722892
-0.316322 0.303878 0.207941 0.45111 0.52338 0.722892
0.491761 -0.121109 -0.0703527 0.88765 -0.347171 -0.30257
-0.405711 -0.118828 0.108655 -0.45111 -0.52338 -0.722892
0.333902 -0.323058 0.229583 0.6888 -0.518877 0.506282
-0.026134 -0.488606 0.147069 -0.323704 -0.88945 -0.322636
-0.140696 0.197791 -0.285959 -0.45111 -0.523381 -0.722892
-0.468161 -0.046345 0.0951475 -0.45111 -0.523381 -0.722892
-0.00140448 0.432438 -0.254434 -0.0184865 0.815298 -0.578747
-0.118277 0.493659 -0.0994628 -0.363625 0.847498 -0.386682
-0.131802 -0.0929822 0.380124 0.45111 0.523381 0.722892
0.132867 -0.164034 0.266404 0.45111 0.523381 0.722892
0.160595 -0.0487027 -0.295511 -0.45111 -0.52338 -0.722892
0.0280505 -8.27891e-05 -0.230888 -0.718524 -0.688819 0.0961867
0.340651 0.0364844 -0.37762 0.763492 0.193121 -0.616267
-0.286671 -0.195951 0.360727 -0.593352 -0.429165 0.680992
-0.263865 0.418423 -0.0825914 -0.553496 0.799472 -0.233425
0.374347 0.050204 -0.330306 0.785578 0.151513 -0.599925
0.0487315 0.0637759 -0.30714 -0.45111 -0.52338 -0.722892
0.0670446 0.310054 -0.397966 0.202262 0.72896 -0.653993
0.11127 0.193254 -0.439909 -0.45111 -0.523381 -0.722892
-0.284929 0.136165 0.309776 0.45111 0.52338 0.722892
0.216162 0.165195 -0.0239397 0.45111 0.523381 0.722892
-0.205356 0.207102 -0.252349 -0.45111 -0.52338 -0.722892
0.367106 0.197703 -0.283205 0.686084 0.314658 -0.655956
0.455078 -0.152104 -0.142408 0.88765 -0.347171 -0.30257
0.384881 -0.194929 -0.286653 0.85686 -0.305738 -0.415109
-0.0226031 0.465091 -0.201837 -0.107236 0.83591 -0.538288
-0.0583417 -0.238171 0.438218 0.377067 0.361317 0.852802
0.133304 -0.100554 0.0131717 -0.759565 0.650424 0.00308245
0.336363 -0.367389 0.0427015 0.681244 -0.725203 0.0999338
-0.456653 0.123549 -0.0350389 -0.45111 -0.52338 -0.722892
-0.240527 -0.0167529 0.392782 0.45111 0.523381 0.722892
-0.184435 -0.133707 0.00401784 0.374701 0.0158889 -0.92701
0.10158 -0.262644 -0.103788 -0.45111 -0.52338 -0.722892
-0.0993456 0.458162 -0.0391628 0.45111 0.52338 0.722892
-0.245571 -0.379519 0.197465 -0.45111 -0.52338 -0.722892
-0.17966 0.338445 0.0976324 0.45111 0.523381 0.722892
-0.066614 0.123097 -0.27811 -0.45111 -0.52338 -0.722892
-0.10076 0.446609 -0.204607 -0.23809 0.851212 -0.467709
-0.385907 -0.260546 0.22806 -0.775104 -0.518358 0.361275
-0.253167 -0.130952 0.0222398 -0.45111 -0.523381 -0.722892
0.149394 0.41801 -0.165315 0.45111 0.52338 0.722892
0.235061 -0.4477 0.0506188 0.553496 -0.799472 0.233424
-0.315973 0.0913356 0.361606 0.45111 0.523381 0.722892
0.217879 -0.176252 0.222199 0.45111 0.52338 0.722892
-0.141044 0.198459 0.174886 0.45111 0.52338 0.722892
-0.183416 0.0863718 0.28248 0.45111 0.523381 0.722892
0.0743215 -0.0590209 -0.194968 -0.888822 -0.155733 0.430978
0.402262 0.108744 -0.0992018 0.45111 0.52338 0.722892
-0.238486 -0.201298 0.397638 -0.559383 -0.465326 0.685975
-0.00228693 0.148062 -0.0788214 0.06294 -0.826632 0.559212
-0.339493 0.369944 0.111901 -0.781978 0.622176 0.0375201
-0.39635 0.300745 -0.116459 -0.709136 0.702002 -0.0657303
0.297003 -0.389819 0.0984543 0.587705 -0.783783 0.200717
-0.0914534 -0.0372141 0.314569 0.45111 0.52338 0.722892
-0.46276 -0.136003 0.162013 -0.765262 -0.516725 -0.383889
0.178703 -0.027458 0.00580456 -0.881931 0.385527 0.271231
-0.0433972 -0.383503 0.317956 -0.114708 -0.769271 0.628541
0.178696 -0.367556 -0.0759545 -0.45111 -0.523381 -0.722892
-0.0591123 0.311867 0.0416489 0.45111 0.523381 0.722892
0.139095 0.271281 -0.0526547 0.45111 0.523381 0.722892
-0.468672 0.0185475 0.0484838 -0.45111 -0.52338 -0.722892
-0.0967887 -0.148052 0.398146 0.451109 0.523381 0.722892
0.0120993 -0.206259 -0.0334071 -0.403801 0.842037 -0.357657
0.131721 -0.379647 0.30894 0.19492 -0.848216 0.492479
0.102884 -0.314466 -0.0670821 -0.45111 -0.523381 -0.722892
0.28673 -0.102271 0.125671 0.45111 0.523381 0.722892
0.404248 -0.0298751 -0.296329 0.85392 -0.0176402 -0.520105
-0.0984537 0.409953 -0.00481548 0.45111 0.523381 0.722892
0.477954 -0.044671 -0.159455 0.8884 -0.186096 -0.419658
-0.193816 -0.290486 0.358172 -0.4105 -0.597541 0.688792
0.0562171 0.0393721 -0.170337 -0.559384 -0.465325 0.685975
0.0820506 0.431869 -0.133324 0.45111 0.523381 0.722892
-0.388487 -0.0468243 0.312162 -0.805713 -0.109527 0.582092
-0.499721 0.0875201 0.022316 -0.772192 -0.337733 -0.538197
-0.413894 0.0118262 0.0191668 -0.45111 -0.523381 -0.722892
0.491443 -0.154412 -0.0209394 0.874019 -0.422925 -0.239217
0.281324 0.262333 -0.320886 0.524025 0.500328 -0.689253
0.154099 0.148317 -0.434102 -0.45111 -0.52338 -0.722892
-0.124643 0.339546 0.0625025 0.45111 0.52338 0.722892
-0.227236 0.453553 -0.0491263 -0.553496 0.799472 -0.233425
-0.122469 0.467109 -0.151663 -0.322548 0.850853 -0.414744
-0.264968 0.281587 0.192033 0.45111 0.523381 0.722892
-0.333304 -0.0122135 -0.0137196 -0.45111 -0.52338 -0.722892
0.203072 0.0287785 0.0201387 -0.891539 0.227314 0.391774
-0.00803283 -0.355189 0.0316171 -0.451111 -0.523381 -0.722891
-0.31621 0.364129 -0.142531 -0.587705 0.783783 -0.200717
0.142425 -0.0673236 0.179462 0.0777463 0.946347 0.31366
-0.157183 0.0401829 0.0425169 0.891163 -0.30795 -0.333159
0.298104 -0.349451 -0.163577 -0.45111 -0.523381 -0.722891
-0.460946 -0.04201 0.205679 -0.85392 0.0176405 0.520105
0.238442 -0.378185 0.237982 0.403799 -0.842037 0.357658
-0.140601 0.291985 0.106896 0.45111 0.523381 0.722892
0.0917431 0.352596 -0.342909 0.202262 0.72896 -0.653993
0.2928 0.153473 -0.0632777 0.45111 0.523381 0.722892
-0.0295892 -0.409306 0.0842504 -0.45111 -0.523381 -0.722892
-0.185137 0.435202 -0.163927 -0.403799 0.842037 -0.357658
0.0235607 0.291583 -0.428034 -0.0376807 0.473704 -0.879877
0.38743 -0.260505 -0.212831 0.881931 -0.385527 -0.271231
-0.350348 -0.128579 0.0811666 -0.45111 -0.523381 -0.722892
0.04962 -0.220587 -0.0963056 -0.728339 -0.0978168 -0.6782
0.434692 0.147337 -0.147382 0.45111 0.52338 0.722892
0.0896587 -0.111344 -0.200975 -0.800044 -0.402521 -0.444866
-0.100297 -0.386815 0.301838 -0.158682 -0.750048 0.642065
-0.0092759 0.146632 -0.33093 -0.45111 -0.52338 -0.722892
0.257718 0.201614 -0.07624 0.45111 0.52338 0.722892
-0.175422 0.0515254 -0.0698094 0.781977 -0.622177 -0.0375194
0.00116746 0.370145 -0.340063 0.0704477 0.786582 -0.613454
0.151392 0.0852975 -0.054522 -0.713683 -0.274794 0.644317
0.00367277 -0.307714 -0.0100592 -0.45111 -0.523381 -0.722892
0.191263 -0.234336 -0.180249 -0.45111 -0.52338 -0.722892
-0.375899 0.222645 0.278441 -0.593285 0.510345 0.622544
-0.291419 0.0299876 0.3907 0.45111 0.523381 0.722892
-0.261566 0.0594958 -0.110405 -0.45111 -0.523381 -0.722892
-0.440331 0.00963566 0.23759 -0.865792 0.0600848 0.496783
-0.360298 -0.134711 0.319234 -0.713682 -0.274796 0.644318
-0.393561 0.142229 0.29485 -0.888401 0.186096 0.419658
0.349306 -0.359599 -0.0145272 0.735264 -0.677054 0.031363
0.165112 -0.0630237 0.0804133 -0.709136 0.702001 -0.0657298
0.43495 -0.0560393 -0.239935 0.875511 -0.102377 -0.472228
0.251003 -0.149715 -0.278796 -0.45111 -0.523381 -0.722892
-0.0991482 0.392599 -0.298129 -0.151266 0.843111 -0.516026
0.236482 -0.401444 0.183351 0.442969 -0.834483 0.327745
0.315162 0.174834 -0.346876 0.656781 0.353738 -0.665964
-0.0849332 -0.415505 0.123275 -0.45111 -0.523381 -0.722892
-0.149122 0.246705 -0.316115 -0.45111 -0.523381 -0.722892
0.480698 -0.189923 0.02168 0.83735 -0.528454 -0.13993
0.262373 0.0111227 0.0587725 0.45111 0.523381 0.722891
-0.409 -0.17295 0.149893 -0.45111 -0.523381 -0.722892
-0.0591472 0.358233 0.00810105 0.45111 0.52338 0.722892
0.179003 -0.217359 0.276221 0.45111 0.523381 0.722892
0.447775 -0.152445 0.0614995 0.45111 0.52338 0.722892
0.00511726 -0.324387 0.399162 -0.114708 -0.769271 0.628541
-0.125964 0.097697 0.062538 0.863934 -0.459272 -0.206608
0.336577 0.175477 -0.106527 0.45111 0.52338 0.722892
0.0407676 -0.172719 0.0131882 -0.4038 0.842037 -0.357658
0.0151962 -0.368254 0.343345 -0.0260141 -0.801936 0.596843
0.322443 -0.390506 -0.0519836 0.735264 -0.677054 0.031363
0.251414 0.0318145 -0.410481 -0.45111 -0.523381 -0.722892
-0.141621 -0.444581 0.180264 -0.471601 -0.643938 -0.602442
0.362328 0.0201103 -0.0101103 0.45111 0.52338 0.722892
0.0365846 -0.269361 -0.0583653 -0.45111 -0.523381 -0.722892
-0.439127 -0.112354 0.229738 -0.805713 -0.109527 0.582092
0.075621 -0.343739 -0.0288755 -0.45111 -0.523381 -0.722892
0.0807486 -0.0330527 -0.257015 -0.45111 -0.523381 -0.722892
-0.169046 -0.0489311 0.0427427 0.823843 0.0672707 -0.562812
0.427348 -0.253701 -0.0567087 0.83735 -0.528454 -0.13993
-0.250012 0.133453 -0.171161 -0.45111 -0.52338 -0.722892
0.17378 -0.114089 -0.256399 -0.45111 -0.52338 -0.722892
-0.407665 0.186208 0.237306 -0.89246 0.267965 0.362918
0.268823 0.352373 -0.192321 0.45111 0.52338 0.722892
0.0751141 -0.314545 0.399374 0.339416 -0.183267 0.92261
0.080201 -0.186683 0.315667 0.45111 0.52338 0.722892
0.386143 0.179871 -0.14064 0.45111 0.52338 0.722892
-0.247627 0.453719 0.00841881 -0.620453 0.766145 -0.167512
-0.137247 0.0211328 0.300902 0.45111 0.523381 0.722892
0.0733081 -0.356665 0.358361 0.0629392 -0.826632 0.559213
-0.382907 0.0310256 0.330181 -0.839926 -0.0248451 0.542132
-0.0330031 -0.455927 0.222443 0.0184865 -0.815298 0.578747
-0.0660701 0.1483 -0.0414783 0.442969 -0.834483 0.327745
0.429724 -0.225993 -0.11989 0.874019 -0.422925 -0.239217
-0.400784 -0.100812 0.282907 -0.785578 -0.151513 0.599926
-0.0284887 -0.00236459 0.245397 0.654486 0.676736 0.337159
0.0696345 -0.093429 0.254745 0.45111 0.52338 0.722892
-0.00111512 0.325415 -0.00435186 0.45111 0.52338 0.722892
0.19854 0.229021 -0.0591539 0.45111 0.523381 0.722892
0.258949 -0.303557 -0.172371 -0.45111 -0.523381 -0.722892
-0.26812 -0.0785972 0.434862 -0.3013 0.0440115 0.952513
0.476786 0.0537684 -0.18007 0.85392 -0.0176402 -0.520105
0.308612 0.0325801 0.0143826 0.45111 0.52338 0.722892
0.0916022 -0.422837 0.250431 0.194921 -0.848216 0.492479
-0.176538 0.344623 -0.344233 -0.415455 0.525112 -0.742735
-0.375797 0.270693 0.233123 -0.761701 0.490808 0.422989
0.162501 0.131855 -0.019628 -0.625843 -0.39194 0.674317
-0.429934 0.236413 0.0959894 -0.863934 0.459272 0.206608
0.216692 -0.0873012 0.158539 0.45111 0.523381 0.722892
-0.181938 -0.238704 0.409512 -0.449491 -0.566518 0.690663
0.367654 -0.227865 0.166103 0.45111 0.523381 0.722892
0.345602 -0.0584195 0.0571838 0.45111 0.523381 0.722892
0.198434 0.393797 -0.259157 0.287805 0.681406 -0.672945
-0.198703 -0.423808 0.212921 -0.495868 -0.865935 -0.0653611
0.282779 -0.41568 0.0353569 0.620453 -0.766145 0.167512
0.0355778 -0.205385 0.357054 0.45111 0.523381 0.722892
0.341675 0.0854762 -0.0445475 0.45111 0.52338 0.722892
0.41907 0.0154514 -0.0421457 0.45111 0.52338 0.722892
0.436191 -0.0536031 -0.00283418 0.45111 0.523381 0.722892
-0.0769943 -0.0898708 0.34367 0.45111 0.52338 0.722892
-0.00597219 -0.455441 0.102915 -0.45111 -0.523381 -0.722892
0.122984 -0.0796991 -0.249599 -0.45111 -0.523381 -0.722892
-0.441761 0.250633 -0.0433441 -0.802446 0.592382 0.0718642
-0.282246 0.0152269 -0.0654482 -0.45111 -0.523381 -0.722892
0.340124 0.100318 -0.356249 0.713683 0.274795 -0.644317
0.432301 0.0363431 -0.250569 0.839926 0.0248451 -0.542132
-0.221477 0.0725843 -0.144897 -0.45111 -0.52338 -0.722892
-0.0944098 -0.152759 0.0521171 0.329558 0.655056 -0.679922
-0.36279 0.133837 0.342118 -0.412806 0.402656 0.816982
0.361269 -0.339053 -0.122836 0.820919 -0.561115 -0.106029
0.30858 -0.263557 0.228808 0.45111 0.523381 0.722891
-0.131098 -0.00421736 0.103635 0.823843 0.0672705 -0.562812
-0.045614 -0.297441 0.0132593 -0.45111 -0.523381 -0.722892
-0.275034 -0.23967 0.114598 -0.45111 -0.52338 -0.722892
-0.170669 -0.343224 0.321755 -0.329558 -0.655055 0.679922
-0.443406 -0.171032 0.207122 -0.829356 -0.279728 0.483654
0.0164434 -0.253996 0.40419 0.45111 0.523381 0.722892
0.15209 -0.0518195 -0.0450193 -0.887651 0.34717 0.302571
0.239234 -0.458543 -0.0238935 0.317581 -0.924576 -0.210477
-0.0529644 0.487307 -0.0894098 0.429234 0.584663 0.688424
0.359258 -0.3389 0.093375 0.681244 -0.725203 0.0999338
-0.0853087 0.042823 0.176211 0.805713 0.109527 -0.582092
-0.419608 -0.0374077 0.0583785 -0.45111 -0.523381 -0.722892
-0.135067 0.417233 -0.240604 -0.23809 0.851212 -0.467709
-0.228189 0.172024 -0.212704 -0.451111 -0.523381 -0.722891
-0.080906 -0.336009 0.0632062 -0.45111 -0.52338 -0.722892
0.102838 -0.452405 0.192999 0.238091 -0.851212 0.467708
0.224162 -0.0539976 -0.331346 -0.45111 -0.523381 -0.722892
0.226123 0.258932 -0.0980228 0.45111 0.523381 0.722892
0.242968 -0.248817 -0.20203 -0.45111 -0.52338 -0.722892
0.197084 -0.281871 -0.149465 -0.45111 -0.52338 -0.722892
0.292838 0.10771 -0.0301684 0.45111 0.52338 0.722892
0.14989 0.352135 -0.117931 0.45111 0.52338 0.722892
-0.404967 0.295679 -0.0604518 -0.735264 0.677054 -0.031363
0.186462 -0.482299 0.0392082 0.406526 -0.908066 0.100764
0.394203 0.0876251 -0.294855 0.785578 0.151513 -0.599925
-0.241854 -0.136144 0.437321 -0.558568 -0.389511 0.732314
-0.331484 0.0905076 -0.0892261 -0.45111 -0.523381 -0.722892
-0.335811 0.372697 -0.00114825 -0.709136 0.702002 -0.0657303
0.397918 0.236117 -0.232483 0.717409 0.352306 -0.601003
-0.130397 -0.082771 0.077622 0.656781 0.353738 -0.665964
-0.115616 -0.261297 0.427371 -0.329558 -0.655055 0.679922
0.403583 -0.258209 -0.157727 0.863934 -0.459272 -0.206608
0.0550049 0.435012 -0.250589 0.0260132 0.801936 -0.596843
-0.238075 0.395762 -0.195666 -0.442968 0.834483 -0.327746
-0.017855 -0.414149 0.28024 -0.0260141 -0.801936 0.596843
-0.138262 -0.313432 0.366165 -0.329558 -0.655055 0.679922
0.296806 0.300862 -0.281147 0.524025 0.500329 -0.689253
-0.334446 0.325719 -0.22576 -0.667036 0.595033 -0.448329
0.246141 -0.343794 0.299438 0.515211 -0.562782 0.646401
0.188447 0.310273 -0.111682 0.45111 0.52338 0.722892
-0.0789223 0.00132311 0.278848 0.45111 0.52338 0.722892
0.318325 -0.312233 -0.203142 -0.45111 -0.523381 -0.722892
0.223114 -0.274223 0.289864 0.45111 0.523381 0.722892
0.34116 -0.154013 0.129166 0.45111 0.523381 0.722892
0.0648957 0.12801 -0.090217 -0.287806 -0.681405 0.672945
0.193311 0.206173 -0.42778 0.487364 0.534087 -0.690816
0.185585 0.0731905 -0.399357 -0.45111 -0.52338 -0.722892
0.214346 -0.101182 -0.291059 -0.45111 -0.523381 -0.722892
0.487506 -0.0929597 -0.00639572 0.47262 0.513761 0.716017
-0.501822 -0.00188713 0.0902969 -0.830469 -0.363604 -0.422034
-0.220067 -0.239359 0.0800722 -0.45111 -0.523381 -0.722892
0.284138 -0.425891 -0.0258228 0.681244 -0.725203 0.0999338
-0.156071 0.135801 -0.231483 -0.45111 -0.52338 -0.722892
-0.222073 0.145715 0.263638 0.45111 0.52338 0.722892
-0.0536653 0.18867 0.0688496 0.651658 -0.746602 0.133889
-0.227755 0.273852 -0.2867 -0.45111 -0.523381 -0.722892
0.229629 -0.412012 -0.0755519 -0.45111 -0.523381 -0.722892
0.0523355 0.390587 -0.307655 0.114708 0.769271 -0.628541
-0.163902 -0.200126 0.449234 -0.257087 -0.340275 0.9045
-0.107928 0.103868 -0.238406 -0.45111 -0.523381 -0.722892
0.205393 0.110211 0.00608515 -0.300328 0.227055 0.926417
0.417979 -0.195751 0.111447 0.45111 0.523381 0.722892
0.115555 -0.076914 -0.117695 -0.891539 0.227313 0.391775
0.0864823 -0.499715 0.0933612 -0.0503437 -0.986153 -0.158015
-0.410147 0.0610804 -0.0188319 -0.45111 -0.52338 -0.722892
-0.282869 -0.288228 0.154645 -0.45111 -0.52338 -0.722892
0.288074 -0.299238 0.267439 0.45111 0.52338 0.722892
-0.0636571 0.0434028 0.233378 0.757064 0.570841 0.317797
-0.370804 0.308615 0.181153 -0.851701 0.494478 0.173485
-0.0301648 0.497365 -0.143491 -0.0675888 0.957056 -0.281913
0.288448 -0.221743 -0.250014 -0.45111 -0.52338 -0.722892
-0.39864 -0.171827 0.260935 -0.713682 -0.274796 0.644318
-0.250962 0.393098 0.102558 0.45111 0.52338 0.722892
0.145661 0.300651 -0.374893 0.329557 0.655056 -0.679922
-0.266471 0.225858 -0.227792 -0.45111 -0.52338 -0.722892
0.107095 -0.0950348 0.121197 -0.4038 0.842037 -0.357658
0.490421 0.0276852 -0.0961714 0.595479 0.490973 0.635886
0.113423 0.0282827 -0.120608 -0.739506 -0.23425 0.631077
-0.289992 0.200928 0.266047 0.45111 0.52338 0.722892
-0.194825 0.233208 0.183289 0.45111 0.52338 0.722892
0.132305 0.451599 -0.217533 0.233443 0.828459 -0.509078
-0.0846874 0.14981 0.117641 0.851701 -0.494478 -0.173485
0.0501991 0.349778 -0.054013 0.45111 0.523381 0.722892
0.342093 -0.249544 -0.263119 -0.339018 -0.561954 -0.754503
-0.400574 0.292889 0.0628274 -0.820919 0.561115 0.106029
0.299105 0.0842789 -0.408524 0.713683 0.274795 -0.644317
0.149469 0.0312771 -0.0734597 -0.805713 -0.109527 0.582092
-0.0951202 0.211873 -0.324595 -0.45111 -0.523381 -0.722892
0.286509 -0.0247462 -0.391431 -0.45111 -0.523381 -0.722892
0.0961994 0.0932015 -0.358066 -0.45111 -0.52338 -0.722892
-0.0912976 -0.458325 0.158249 -0.45111 -0.523381 -0.722892
0.47962 -0.018603 -0.0552758 0.45111 0.52338 0.722892
-0.0538881 -0.127792 0.0950864 0.245339 0.706061 -0.664295
-0.38843 0.296939 0.126308 -0.83735 0.528454 0.139931
-0.437914 0.24459 0.027887 -0.83735 0.528454 0.13993
-0.439254 0.182153 0.154353 -0.887651 0.347171 0.30257
0.262086 0.0750856 0.0126419 0.45111 0.52338 0.722892
0.422445 -0.193003 -0.191214 0.88765 -0.347171 -0.30257
-0.240688 -0.0396792 -0.0478848 -0.0510066 -0.570596 -0.819645
-0.182192 -0.386664 0.273327 -0.287805 -0.681406 0.672945
0.115915 -0.450487 0.0232665 -0.45111 -0.523381 -0.722892
-0.276032 0.278371 -0.259845 -0.45111 -0.52338 -0.722892
-0.100429 0.136134 0.0052696 0.681244 -0.725203 0.0999333
0.399512 -0.287265 -0.0965253 0.83735 -0.528454 -0.139931
0.240222 0.397951 -0.222234 0.549724 0.835326 0.00588814
-0.356947 0.34282 -0.080678 -0.681244 0.725203 -0.0999333
-0.191673 -0.189572 0.0263071 -0.45111 -0.523381 -0.722892
-0.05112 0.42071 -0.042142 0.45111 0.523381 0.722892
-0.424519 -0.0435957 0.2615 -0.823844 -0.0672683 0.562811
0.0876309 -0.129902 0.0582839 -0.481038 0.824854 -0.297017
-0.339059 -0.186459 0.317134 -0.65678 -0.353739 0.665964
-0.00879733 0.380716 -0.0395966 0.451111 0.52338 0.722891
-0.212025 0.0130918 -0.0872619 0.424978 -0.733404 -0.530577
-0.0205212 -0.0700717 0.294094 0.45111 0.523381 0.722892
-0.161206 -0.127794 0.423678 0.45111 0.523381 0.722892
0.141146 0.372534 -0.304359 0.24534 0.70606 -0.664295
-0.313131 0.197701 -0.178288 -0.45111 -0.523381 -0.722892
-0.463551 0.191462 0.05534 -0.863934 0.459272 0.206608
-0.358237 -0.0535356 0.0317572 -0.45111 -0.523381 -0.722892
-0.445126 0.0670307 0.217458 -0.883054 0.144416 0.446498
-0.209555 -0.0834003 0.421708 0.45111 0.52338 0.722892
0.456381 -0.00799379 -0.209816 0.865792 -0.0600848 -0.496783
0.218071 0.350956 -0.290386 0.370489 0.627078 -0.685209
-0.163031 0.378862 -0.296202 -0.238091 0.851212 -0.467708
-0.38897 0.109463 -0.067077 -0.45111 -0.52338 -0.722892
-0.13725 -0.433712 0.237921 -0.158682 -0.750048 0.642065
-0.483187 0.185737 -0.0302232 -0.927318 0.369772 -0.0578814
-0.147671 -0.244672 0.0387409 -0.45111 -0.523381 -0.722892
-0.270846 0.335637 -0.284799 -0.589873 0.387205 -0.708605
0.157627 -0.30465 -0.10835 -0.45111 -0.52338 -0.722892
0.0603638 -0.444858 0.053857 -0.45111 -0.523381 -0.722892
0.397781 -0.0825564 0.0420974 0.45111 0.52338 0.722892
-0.34084 -0.256849 0.168102 -0.45111 -0.52338 -0.722892
0.141415 -0.151538 -0.209088 -0.45111 -0.523382 -0.722891
0.139106 0.0515034 -0.354651 -0.45111 -0.52338 -0.722892
0.0269723 -0.126016 0.30496 0.451111 0.52338 0.722892
0.0677996 0.232851 -0.440146 -0.377065 -0.361314 -0.852803
-0.210897 -0.0830025 -0.0153212 0.508565 -0.236293 -0.827966
-0.40339 0.246111 0.180535 -0.874019 0.422925 0.239217
0.322851 0.329307 -0.236336 0.661857 0.669474 -0.337268
0.312427 0.268275 -0.158644 0.45111 0.523381 0.722892
0.271913 0.351624 -0.258333 0.449491 0.566518 -0.690663
0.287557 -0.0435102 0.0826119 0.45111 0.52338 0.722892
0.448583 -0.243588 0.0664197 0.781977 -0.622177 -0.0375196
0.306297 -0.360259 0.181185 0.553496 -0.799472 0.233424
-0.0844379 -0.0788308 0.120313 0.524025 0.500329 -0.689253
0.262828 0.293517 -0.145968 0.45111 0.523381 0.722892
-0.396542 -0.222532 0.178016 -0.45111 -0.52338 -0.722892
-0.247841 0.0788886 0.328101 0.45111 0.52338 0.722892
-0.36188 0.321882 -0.171372 -0.620454 0.766145 -0.167511
0.359073 0.280607 -0.196712 0.465532 0.533754 0.705965
0.0646464 0.277108 -0.010415 0.45111 0.52338 0.722892
-0.11709 0.0675338 -0.179099 0.0738411 -0.99107 0.111026
-0.144002 0.397242 0.0328114 0.45111 0.52338 0.722892
0.0104231 -0.0387415 0.213433 0.40181 0.734872 -0.546362
0.382803 -0.320765 0.0385159 0.735264 -0.677054 0.031363
0.406033 0.166946 -0.254285 0.739506 0.23425 -0.631077
0.0310136 0.0973435 -0.135759 -0.287806 -0.681405 0.672945
-0.412441 0.248762 -0.150917 -0.650829 -0.276689 -0.707011
-0.139961 -0.304742 0.0774213 -0.45111 -0.52338 -0.722892
0.0577945 -0.0694919 0.188148 -0.0184859 0.815297 -0.578747
0.0588135 0.224119 0.0139701 0.327109 -0.329807 0.885566
0.0459014 -0.456204 0.209817 0.151266 -0.843111 0.516025
0.0208739 0.422238 -0.0881748 0.45111 0.523381 0.722892
0.362789 0.148388 -0.310642 0.713683 0.274795 -0.644317
0.0438368 0.116847 -0.342509 -0.45111 -0.52338 -0.722892
