ply
format ascii 1.0
comment Created by Open3D
element vertex 128
property double x
property double y
property double z
property double nx
property double ny
property double nz
end_header
-0.120061 -0.292606 -0.384056 0.0780377 -0.483953 -0.871607
0.307264 0.230862 -0.558614 -0.0366242 -0.287245 -0.957157
0.0320728 0.237026 0.360419 -0.198165 -0.281299 -0.938936
-0.253027 -0.613288 -0.112729 0.349241 -0.897454 -0.269457
-0.102913 -0.367594 0.457208 0.325507 -0.355634 0.876111
0.212081 0.1924 0.409178 -0.11645 0.563643 0.817769
-0.639846 0.14179 0.0803789 0.417213 -0.902034 0.110764
-0.14294 -0.56589 0.300011 0.476556 -0.724508 0.497978
-0.306293 0.358465 -0.0446979 -0.492161 0.852048 -0.178302
0.139955 -0.0951524 0.429058 0.281052 0.137456 0.949798
0.49626 -0.101489 0.192246 -0.679804 0.494558 -0.541553
0.226761 -0.300466 -0.320594 0.257503 -0.675231 -0.691198
0.0319483 -0.017328 -0.472811 0.272783 -0.898262 -0.344551
0.211371 -0.346419 -0.113105 -0.417285 0.903329 0.0993463
0.249071 -0.382172 -0.119377 0.4811 -0.786547 -0.387151
-0.293347 0.287297 0.152389 0.238432 -0.96892 -0.06591
-0.451526 -0.377937 -0.338527 -0.997418 0.0538435 0.04752
0.334765 0.0709999 -0.521945 -0.0559579 -0.240287 -0.969088
0.0310055 -0.416348 -0.243314 0.173903 -0.873126 -0.455421
0.620343 -0.137175 -0.102656 -0.471875 0.881522 0.0159128
-0.330986 0.256925 0.172324 0.292675 -0.811512 -0.505756
-0.13847 -0.181117 0.450521 -0.321236 0.193864 -0.926943
-0.646048 0.149548 0.0270115 -0.836128 -0.491885 0.242774
-0.36718 0.177959 -0.293574 -0.635524 0.556981 -0.534678
0.0903648 -0.261944 -0.405692 -0.160641 -0.263024 -0.951322
-0.443344 0.0368614 0.420149 0.250164 -0.690687 -0.678506
-0.022991 -0.406919 0.298462 -0.7701 0.499257 -0.3971
-0.0858386 -0.214494 0.500231 0.21489 -0.0734404 0.973873
0.49017 -0.117102 0.257432 0.65599 -0.600814 0.456836
0.263936 -0.149546 -0.43928 0.409909 -0.67219 -0.616551
0.480548 -0.27041 -0.113458 0.500024 -0.854748 -0.139221
0.626194 0.0260994 0.241005 0.874834 0.453992 -0.168987
-0.285058 -0.21968 0.5505 0.20987 -0.453215 0.866343
-0.327312 -0.241352 0.548414 -0.8728 -0.430682 0.229636
0.096866 -0.475117 -0.0919421 0.597036 -0.468792 -0.650985
0.147334 0.344311 0.363981 0.127477 0.163406 0.978288
-0.34309 -0.465487 -0.233856 -0.116341 0.658975 0.743113
0.654205 -0.145594 0.0813183 0.519556 -0.854154 -0.0219779
-0.611659 -0.019256 -0.195027 0.794104 -0.58061 0.179694
-0.459064 -0.0539782 -0.374195 -0.332241 0.211421 -0.919194
-0.527368 0.138333 -0.200362 -0.670629 0.675319 -0.306921
0.0826989 0.462682 0.251009 -0.357582 0.639051 0.680991
-0.132997 0.233934 0.337177 0.0697611 -0.765012 -0.640227
0.490072 -0.0183703 -0.488088 0.727651 0.625897 -0.280671
-0.203033 -0.141535 -0.422127 -0.117677 -0.170716 -0.978268
0.616557 0.0347858 0.21674 0.778983 0.561618 -0.278873
0.310015 0.272276 -0.535253 0.43355 0.865965 -0.249277
0.543919 0.12126 0.352949 0.192444 0.0197236 0.98111
0.102866 -0.364583 0.20258 -0.883674 0.467941 -0.0123105
0.556014 -0.194103 -0.293225 0.435805 -0.763716 -0.476248
-0.0257329 0.130996 -0.436471 0.645739 -0.181128 0.741764
-0.253014 -0.622479 -0.101201 0.26949 -0.909485 -0.316564
0.0426761 0.178532 0.383538 -0.25215 -0.314663 -0.9151
0.408135 -0.172978 -0.32616 -0.241797 0.86006 0.449257
-0.586561 0.161048 0.29995 -0.247018 0.630188 0.736101
0.0113908 0.468807 -0.187142 0.14528 -0.463635 0.874034
-0.0896766 0.37421 0.26124 -0.283377 0.88375 0.372402
-0.169161 0.406162 0.127473 -0.778934 -0.312984 -0.543417
0.248822 -0.232726 0.22745 -0.112448 0.484623 -0.867465
-0.153727 0.436798 -0.11245 -0.295289 0.837014 -0.460665
0.367004 -0.0655993 0.354219 0.810225 -0.221388 0.5427
0.639804 -0.169569 -0.103423 0.812616 0.542546 -0.212838
-0.325921 0.0167288 -0.32824 0.227016 -0.249351 0.941429
-0.129511 0.234598 0.391442 -0.267226 0.95931 0.09119
0.190119 0.0500232 0.443274 0.266405 -0.0218052 0.963615
0.459052 -0.0621127 -0.460941 0.538921 -0.775435 -0.329034
0.271407 -0.249276 0.300889 0.182871 -0.21987 0.958236
-0.117054 0.409492 0.0672079 0.00200432 -0.984906 0.173079
-0.265148 -0.0457226 0.535178 0.427805 -0.0527822 0.902329
-0.422768 -0.0965702 0.490664 0.102481 -0.803173 -0.586866
-0.0412239 0.505186 -0.00241839 -0.166279 0.943518 -0.286576
-0.0167504 0.528529 -0.0106272 -0.0483372 0.995604 -0.0802304
-0.630367 -0.0199002 -0.260504 -0.229037 0.492097 -0.839871
-0.348248 -0.224762 -0.330721 0.0822536 0.323699 0.942578
-0.178319 0.209576 -0.304992 0.287032 -0.532028 0.796592
0.0699401 0.419089 -0.403461 -0.0102512 0.326251 -0.945228
-0.126112 0.0915249 0.436229 0.235056 -0.597403 -0.76672
0.0687793 -0.251464 0.359024 -0.342947 0.481527 -0.806547
-0.294344 0.36018 -0.0422882 -0.192571 0.841713 -0.504415
0.213541 0.58318 -0.270389 0.994631 0.0939421 -0.0433987
-0.00496011 0.00590156 0.478479 -0.0307313 0.79105 0.610979
-0.484215 0.260814 -0.0589503 -0.683103 0.718353 0.131679
0.300196 -0.319563 0.0566458 -0.0595487 0.819149 -0.570482
0.171207 -0.442439 0.0723752 0.623481 -0.781839 4.16193e-06
0.506134 -0.246139 0.0439986 0.509658 -0.83237 0.217736
0.347753 0.294923 0.32695 0.0887849 7.0224e-05 -0.996051
-0.0916768 -0.0785888 -0.39958 -0.193288 0.550474 0.812169
0.377289 -0.305447 -0.203531 0.402448 -0.78658 -0.468323
-0.136175 0.388125 -0.129593 0.434076 -0.778834 0.452765
-0.516223 0.252513 0.146976 -0.209631 0.958731 -0.192067
-0.256633 -0.407578 0.497054 -0.988468 0.143707 0.0477331
0.229952 0.461359 -0.407468 0.393636 -0.430682 0.812136
-0.121299 -0.511879 -0.224353 0.293363 -0.797753 -0.526809
0.0294821 -0.23819 0.371867 -0.684619 0.575719 -0.447039
0.128245 0.120465 -0.520608 0.104192 -0.249957 -0.962635
0.184694 -0.0327824 -0.497937 -0.0458702 -0.462177 -0.8856
-0.493433 0.240661 -0.0657311 -0.579497 0.813493 0.0491087
0.297735 0.442236 0.31095 -0.10179 0.944163 0.31336
-0.23582 -0.365549 -0.351349 -0.0486966 -0.280883 -0.958506
-0.156799 -0.507371 0.30824 -0.52723 0.682408 -0.506308
-0.327056 -0.517701 -0.264673 0.150599 -0.571074 -0.806966
-0.1835 -0.593511 0.117482 -0.499468 0.865388 -0.0404365
-0.559275 0.13906 -0.171418 -0.476245 0.66789 -0.571938
-0.228356 -0.0734652 0.518427 -0.134089 0.325057 0.93614
-0.424728 0.167793 0.307486 0.598581 -0.505259 -0.621622
0.0134326 -0.524841 0.114257 0.340108 -0.772421 0.536369
0.125129 0.5556 0.130766 -0.324255 0.893361 0.31107
-0.281405 0.273897 -0.180675 0.304336 -0.722276 0.621045
0.494189 0.290506 0.332244 0.437743 0.603985 -0.66602
0.418615 0.0970035 0.346811 -0.134171 -0.0651923 -0.988811
-0.535426 -0.206245 -0.361827 -0.324927 0.0615117 -0.943737
-0.600798 0.172066 0.269997 -0.982208 0.164184 -0.0911643
0.588211 -0.150365 -0.296436 0.992115 0.0516052 -0.114211
0.142677 0.578887 -0.265839 -0.408967 0.701114 -0.58411
0.284045 0.537755 0.162154 0.348134 -0.931767 -0.103018
-0.187855 0.0665095 -0.411491 -0.201673 0.157916 -0.966639
-0.306001 0.138096 0.429549 0.0508423 0.473145 0.879516
0.399424 -0.21012 0.161538 -0.636939 0.697493 -0.328348
-0.0339545 -0.556515 -0.0277575 0.396846 -0.902293 -0.168465
0.111305 0.280048 -0.433412 0.473445 -0.395083 0.787248
-0.0542515 0.143891 -0.412235 0.472901 -0.486146 0.734865
0.213695 -0.260025 -0.279248 -0.264615 0.845794 0.463262
-0.124209 -0.483725 -0.242726 0.176463 -0.88499 -0.430875
0.20072 -0.129145 0.415077 0.624979 -0.155699 0.764957
-0.0260618 0.352705 -0.309876 0.551979 -0.565888 0.612446
0.150861 0.607769 -0.0726323 -0.698342 0.683812 0.211471
0.215006 0.603832 -0.0369384 0.425902 -0.846988 -0.318149
-0.202314 -0.65173 0.0815036 0.604062 -0.786617 -0.127834
