ply
format ascii 1.0
comment Created by Open3D
element vertex 512
property double x
property double y
property double z
property double nx
property double ny
property double nz
end_header
-0.396895 -0.178121 -0.000541514 0.908628 0.408113 0.088536
0.04157 -0.376863 -0.202297 0.460572 -0.865052 -0.198896
0.115535 0.152853 0.0415832 -0.695493 -0.248512 -0.67419
-0.37509 -0.370272 -0.258944 -0.59449 -0.242172 -0.766769
0.0438644 -0.056256 -0.551918 0.800995 -0.0954037 -0.59102
0.297144 0.170374 0.340406 -0.57607 -0.212541 -0.789284
0.256608 0.126695 0.379132 -0.761495 -0.192005 -0.61908
0.165318 0.101599 0.466772 0.560618 0.109731 0.820772
0.251269 0.268152 0.351972 -0.623363 -0.157659 -0.765874
-0.508037 -0.271463 -0.178694 -0.654012 -0.177571 -0.735349
-0.0213744 -0.311086 -0.333199 -0.595419 0.737512 0.318671
0.0974257 0.0699062 0.111863 0.685274 0.196568 0.701256
0.47628 0.261424 0.194818 0.787992 0.190734 0.585397
0.392313 0.0144626 -0.126541 0.923621 -0.0244742 -0.382525
-0.0274823 -0.264954 0.174438 -0.274257 -0.84705 0.45529
-0.237613 0.0855427 -0.485033 -0.596198 -0.206531 -0.775818
0.188762 0.232949 -0.061396 -0.575418 -0.605924 0.549319
-0.106649 0.345906 0.196944 -0.0587788 0.765388 0.640879
0.208968 -0.164646 0.0788133 0.591815 0.180607 0.78558
0.358775 -0.169055 0.399534 0.368366 0.126616 0.921018
0.19085 -0.268403 0.0614865 0.388676 -0.914704 -0.110665
0.112739 0.129658 -0.35971 0.575897 0.168874 0.79989
0.0531529 0.18359 0.0883039 -0.586662 -0.200661 -0.784578
0.134986 0.0174443 -0.350922 0.569238 0.217595 0.792856
0.104876 0.183442 0.502285 0.451833 0.168848 0.875978
0.0597759 -0.0352877 -0.534441 0.765223 0.083348 -0.638347
-0.333547 0.198446 -0.378574 0.468942 -0.62231 0.626757
0.150755 -0.137733 -0.400821 0.760486 -0.17275 -0.625954
-0.548072 -0.00654399 -0.0871105 -0.767495 0.134094 0.626874
-0.115538 -0.167559 0.255091 -0.654151 -0.449477 0.608323
0.0210754 -0.0277129 -0.581418 0.74347 0.180696 -0.643895
0.293908 -0.128647 0.415646 -0.614681 -0.201899 -0.762499
0.187524 -0.164026 0.0648987 -0.518477 -0.223859 -0.825269
0.0145897 -0.255202 0.142307 0.242174 0.915877 -0.320191
-0.387644 0.168785 -0.157664 0.565193 -0.797065 -0.212709
-0.114035 0.268428 -0.31077 -0.264355 -0.430702 0.862909
-0.153937 -0.372512 -0.199689 -0.155723 0.977372 -0.143157
-0.3447 -0.257039 -0.0387363 -0.234942 0.730592 0.641123
-0.482743 0.0284016 -0.129674 0.771938 -0.291817 -0.564761
0.248656 -0.187657 -0.105149 0.211771 -0.382167 -0.899501
-0.0492942 -0.236577 0.157573 0.33059 0.822499 -0.462824
0.22235 0.098245 0.451046 0.64307 0.0750797 0.762118
-0.378364 0.137065 0.0259017 0.572723 0.254027 0.779396
-0.493894 -0.245962 -0.198344 -0.614553 -0.152963 -0.773903
-0.0608224 0.344085 0.166107 0.636927 0.354713 0.684473
-0.193207 0.109879 0.235988 -0.757907 0.410474 0.507038
0.455723 -0.0107553 0.259252 -0.597955 -0.210668 -0.773349
-0.324261 -0.185108 -0.312449 0.745942 0.288838 0.600119
-0.108758 -0.148098 0.232078 0.681895 0.470839 -0.559759
-0.00712524 -0.0651696 -0.520704 -0.701953 -0.207536 0.681316
0.0595286 -0.0214927 -0.525205 0.761561 -0.0396342 -0.646881
0.0498019 -0.0187686 0.134989 -0.578215 -0.22785 -0.783423
-0.197192 -0.26941 -0.398777 0.736346 0.00672225 0.676572
-0.445386 -0.352534 -0.131001 -0.508791 -0.844758 0.165876
-0.352978 -0.325504 -0.251539 0.632674 0.358347 0.686521
0.0247956 -0.243085 0.178827 0.183455 0.893545 -0.409783
-0.124303 -0.195134 0.341179 -0.461071 -0.50437 0.730085
0.110035 -0.040455 0.126567 0.617077 0.194393 0.762514
-0.266762 -0.275675 -0.000351979 0.416672 0.744189 -0.522079
0.0837585 -0.116556 -0.498559 0.757488 -0.00536241 -0.652827
0.00475113 0.00384908 0.203566 0.802934 0.175958 0.569505
0.153328 -0.0854983 0.104144 0.577655 0.247864 0.777739
0.234132 0.225876 -0.0796109 0.488495 0.655902 -0.575469
-0.0325511 -0.328224 -0.301516 -0.554983 0.784982 0.275314
0.23152 0.0988968 -0.00849205 0.537939 0.260343 0.801775
-0.340501 -0.33203 -0.293463 -0.63701 -0.307496 -0.706869
-0.27381 -0.041899 -0.422163 -0.611088 -0.20081 -0.765668
-0.293004 0.245699 -0.0659185 0.67424 0.165799 0.71966
0.254692 0.135534 -0.143896 0.681973 0.384092 -0.622404
-0.0594678 -0.353978 -0.110674 0.600692 0.230309 0.765589
-0.41608 -0.0323356 0.0871632 -0.755958 -0.0126278 0.654498
-0.107337 -0.306535 -0.442977 0.156719 0.634953 0.756488
0.445112 0.0589909 0.247508 -0.545777 -0.154763 -0.823514
-0.367813 -0.0859175 0.0502209 0.12758 -0.038339 -0.991087
-0.108287 0.237293 -0.470738 0.35072 0.803068 -0.481744
-0.293587 0.284759 -0.41429 -0.272866 0.835036 -0.477764
-0.186476 -0.116987 -0.469515 -0.709606 -0.155704 -0.68718
-0.0201604 0.132052 0.191007 0.572242 0.175855 0.801008
0.440345 -0.0187336 0.270653 -0.697425 -0.1073 -0.70858
0.0828712 -0.263095 0.103964 -0.160046 0.981003 -0.109629
-0.0230027 0.0732041 0.207704 0.536487 0.147884 0.83085
-0.352495 -0.0818252 0.0618592 0.526515 0.256189 0.810647
0.216134 0.288128 -0.0420118 0.428995 0.229652 0.873626
-0.116518 0.272494 0.135766 -0.539604 0.819997 0.190874
-0.165306 0.106279 0.275971 -0.590561 -0.192928 -0.783592
0.0925021 0.0676377 0.113655 0.524287 0.191384 0.829756
-0.327691 0.191684 -0.0265542 0.603359 0.136467 0.785707
0.0125166 -0.185028 -0.460356 -0.767655 0.303506 0.564438
0.195884 0.0017809 0.490678 0.593262 0.175827 0.785573
0.148229 -0.00695945 0.501226 -0.475882 -0.181233 -0.860634
-0.0223519 -0.285118 -0.407222 -0.665738 0.650267 0.365987
0.203693 0.269704 0.408903 0.810212 0.339301 0.477945
0.0267608 -0.234958 0.202725 0.232019 0.872769 -0.429466
0.0151197 -0.341456 -0.40295 0.619261 -0.700355 -0.354991
0.130039 -0.281735 0.00353257 -0.589369 -0.18578 -0.786213
-0.115607 -0.0355614 0.274168 -0.543068 -0.372107 -0.752738
0.10999 0.0338603 -0.354735 -0.788265 -0.124624 0.602584
0.0292888 0.282504 -0.0513819 -0.602791 -0.195202 -0.773653
0.461384 0.196575 0.201996 -0.528424 -0.192412 -0.826889
-0.131162 0.188321 0.200134 0.676683 -0.537547 -0.503133
-0.415343 -0.234677 -0.264478 -0.657111 -0.160899 -0.736421
-0.078264 0.239032 -0.314676 -0.769576 0.336207 0.542879
0.147511 0.134352 0.0226944 -0.686979 -0.155409 -0.709865
-0.107409 -0.121882 0.320402 0.504536 0.23946 0.82952
-0.248343 0.262345 -0.139089 0.978012 0.191031 0.0836687
0.360516 -0.172714 -0.0405076 0.709278 0.0598544 0.702384
-0.267447 -0.280397 0.0367109 0.392517 0.760906 -0.516675
-0.381282 -0.241656 0.0464558 -0.675746 -0.475607 0.563175
-0.113929 -0.24167 -0.498982 -0.657726 -0.220408 -0.72029
-0.122574 0.0377139 -0.527356 0.538974 -0.00626276 0.842299
-0.0796672 -0.0008364 0.237385 -0.653907 -0.124787 -0.746213
-0.368866 0.029934 -0.36679 -0.610153 -0.233813 -0.756997
0.207443 0.226434 -0.0189967 0.645997 0.109447 0.755453
0.291441 -0.0523059 -0.126942 0.77665 -0.17209 -0.60597
-0.286464 0.238672 -0.281034 0.225497 -0.962028 0.153795
-0.403672 -0.25574 -0.232574 0.623758 0.187102 0.758893
0.103678 0.19664 0.0434838 -0.579382 -0.218335 -0.785268
0.23091 -0.0303687 0.439064 -0.659484 -0.126167 -0.741055
-0.0552655 -0.0600537 0.2691 0.683301 0.2142 0.69801
-0.204446 0.0906399 -0.511509 -0.623003 -0.147168 -0.76825
0.179543 0.229627 0.420872 -0.652034 -0.328964 -0.683107
0.143983 0.347631 -0.000549532 0.676043 0.219626 0.703371
-0.150686 -0.0986238 0.288504 -0.0263287 -0.165966 0.98578
0.0990811 -0.262778 0.105445 -0.247048 0.966134 -0.0745165
-0.0212951 -0.0936 0.215493 -0.622469 -0.335262 -0.7072
0.207448 -0.157352 0.0855234 0.655036 0.192577 0.730645
0.11156 0.297002 0.0405132 0.63868 0.178987 0.748365
-0.0297638 0.0590494 0.180797 -0.664011 -0.201956 -0.719932
-0.135002 0.0217271 -0.517403 0.612954 0.224585 0.757528
-0.0687548 -0.3172 -0.419001 -0.401056 0.754378 0.51968
-0.277961 -0.335213 -0.117668 0.351841 0.790554 -0.501231
0.459029 0.182888 0.218538 0.727695 0.0832943 0.680825
0.0549061 0.206893 0.0763 -0.669431 -0.137426 -0.730052
-0.501911 -0.0181911 -0.0301166 -0.798776 0.172348 0.576414
-0.0744403 0.137498 -0.465988 -0.504174 -0.643938 0.575458
0.275644 -0.0589876 0.428596 0.561709 0.28779 0.775667
0.201685 -0.200151 -0.0691072 -0.719319 -0.195685 -0.666549
-0.082492 0.311012 0.190088 0.658983 0.173948 0.731768
-0.536325 -0.177024 -0.179405 -0.607444 -0.19169 -0.770887
-0.228208 0.240063 -0.34876 -0.00489664 -0.951057 0.308978
-0.0255183 -0.36539 -0.423902 0.588909 -0.760008 -0.274906
-0.309131 0.246493 -0.46554 -0.608995 -0.19584 -0.768617
0.293675 -0.232643 0.000125181 -0.528961 -0.249856 -0.811032
-0.101809 0.005357 -0.575804 -0.546297 -0.221019 -0.807905
0.538692 0.0214751 0.206249 0.352036 -0.935748 -0.0211211
0.366956 0.0578961 -0.0995238 0.65643 0.170193 0.734939
0.20107 0.0816789 0.0236746 0.639644 0.200783 0.741985
0.302363 0.0938472 -0.0577807 0.610023 0.19726 0.767437
0.0398121 -0.0132714 0.178804 0.51128 0.293698 0.807672
-0.116493 -0.429569 -0.378269 0.146436 -0.922553 -0.357006
0.340659 0.079236 0.327949 -0.718052 -0.170194 -0.67486
-0.358226 -0.29183 -0.259032 0.620792 0.188217 0.761046
0.17382 -0.172091 -0.33263 0.680061 0.0520307 0.731307
0.196215 -0.0498858 0.480539 -0.553245 -0.174046 -0.814634
-0.187833 -0.160436 -0.459418 -0.599703 -0.209931 -0.772195
0.208163 -0.243147 -0.00339658 0.541814 -0.793054 -0.278393
0.164116 -0.325166 0.124073 -0.672605 -0.199757 -0.71253
0.0986386 0.37454 0.00084492 -0.676439 -0.0652662 -0.733601
-0.254384 -0.10846 -0.419927 -0.670988 -0.067248 -0.738413
0.00725182 0.0019862 -0.485017 -0.723232 -0.272157 0.634717
0.040628 0.238283 0.114033 0.630074 0.0542385 0.774638
-0.171357 -0.30733 -0.411634 0.607415 0.20767 0.766759
-0.535683 -0.0184947 -0.221964 -0.60888 -0.199387 -0.767795
0.333963 -0.164198 -0.0173684 0.636455 0.296613 0.712001
-0.199351 0.0518708 -0.507438 -0.645299 -0.193248 -0.739084
-0.218206 0.22442 -0.524587 -0.00774528 0.719455 -0.694495
0.11728 0.247175 0.486078 0.70334 0.394944 0.591044
0.228279 -0.0535848 0.0416942 0.651523 0.252774 0.715278
0.0790536 -0.264894 0.216577 0.558617 0.158899 0.814063
0.165787 -0.199154 0.124397 0.584069 0.214715 0.78279
0.188558 -0.052344 0.498365 0.556476 0.241569 0.794971
-0.0160606 0.287128 -0.00712799 0.128311 -0.974178 0.18578
0.334503 0.016451 -0.0928208 -0.68136 -0.124821 -0.721227
-0.0866161 0.244852 0.167253 0.563657 -0.790084 -0.240953
0.00552562 -0.00624629 -0.583191 0.448911 0.146849 -0.881428
-0.454589 -0.155654 -0.250223 -0.543482 -0.245811 -0.802623
0.0676369 -0.32209 0.236781 0.669451 0.142797 0.729002
-0.530112 0.0487488 -0.240075 -0.55639 -0.0353033 -0.830171
-0.0137064 -0.261778 0.121833 -0.642916 -0.189028 -0.742245
0.00833008 -0.191466 -0.45578 -0.756863 0.299255 0.581037
0.423692 0.282567 0.209582 -0.629113 -0.187106 -0.754459
-0.194372 0.0792411 0.305138 -0.698742 -0.252082 -0.669488
0.182987 0.0821566 0.476311 -0.322918 0.946106 0.0246526
0.0228874 -0.188738 0.198818 -0.609664 -0.121146 -0.783348
-0.0872951 -0.416902 -0.130287 0.0986938 -0.97918 0.177389
-0.142767 -0.0108849 -0.528961 -0.698963 -0.254019 -0.668525
0.0815716 0.0410165 0.093465 -0.617718 -0.191417 -0.762747
-0.354154 -0.426034 -0.25901 -0.721425 -0.266148 -0.639305
0.0643332 -0.0791707 -0.529281 0.783259 -0.00765067 -0.621648
-0.52886 0.10519 -0.134277 -0.75383 0.45999 0.469202
0.115218 0.0286721 0.536697 -0.0280411 -0.963106 0.267659
0.19748 -0.284309 0.120537 0.629524 0.165168 0.759223
-0.244691 -0.401384 -0.0689023 -0.1256 -0.938931 0.320364
-0.179312 -0.386644 -0.313339 -0.0983785 0.994935 0.0206357
-0.122389 0.239081 0.119876 0.512536 -0.85073 -0.11647
0.0733662 -0.275569 -0.226034 -0.625341 0.70483 0.334908
0.142694 -0.339452 0.146502 -0.608327 -0.201286 -0.767738
0.27387 -0.201655 0.46104 -0.719791 -0.274392 0.63766
0.118084 0.135324 0.493586 -0.560779 -0.177417 -0.808734
-0.0590353 -0.281556 -0.450651 -0.319392 0.675995 0.664093
-0.461356 0.131161 -0.210029 0.758457 -0.570237 -0.31555
-0.381609 -0.327998 -0.173801 0.513536 0.823901 -0.239723
0.139852 0.201694 0.459079 -0.569587 -0.161941 -0.80582
0.529753 0.0295727 0.190849 -0.646598 -0.13838 -0.750175
0.293309 -0.0915271 -0.0564842 -0.763266 0.408449 0.500593
-0.243448 0.27976 -0.189855 0.240854 -0.956577 0.164164
-0.176397 0.0629586 0.294357 -0.569041 -0.159602 -0.806672
0.126685 -0.12612 -0.440779 0.807888 -0.240433 -0.53806
-0.109038 -0.00391982 0.294986 0.616549 0.044037 0.786084
-0.161604 0.185043 0.216448 -0.722887 0.50204 0.474752
-0.29229 -0.323448 -0.338107 -0.549893 -0.310341 -0.77544
-0.00137133 0.203621 0.156719 0.597008 0.326816 0.732648
0.200287 0.31228 0.39351 0.684578 0.194274 0.702574
-0.0925033 0.281063 0.152803 -0.515527 0.828005 0.220546
-0.351258 0.204112 -0.184702 0.512821 -0.835787 -0.196149
0.210993 0.148634 0.41457 -0.615543 -0.189943 -0.764871
0.213703 -0.24352 0.030089 0.503149 -0.843518 -0.187933
-0.512708 -0.136451 -0.042189 -0.756896 -0.140726 0.638204
-0.468535 0.0426622 -0.253915 0.568665 0.239803 0.786838
-0.508355 -0.0280878 -0.136161 0.840744 -0.0720991 -0.536611
-0.144146 0.256259 -0.325209 0.324709 -0.50508 0.799661
-0.287885 -0.366565 -0.179729 0.135607 0.954588 -0.265278
0.115837 -0.164937 -0.368126 -0.715192 0.291708 0.635144
-0.234558 -0.0748935 -0.415323 0.582658 0.223757 0.781308
-0.120228 0.16047 -0.565899 0.148222 0.618728 -0.771496
-0.0687284 -0.210013 -0.543901 -0.579941 -0.244597 -0.777072
0.0511099 -0.253295 -0.349955 -0.086094 0.648984 0.755915
0.105779 0.033266 0.544157 -0.00379089 -0.965813 0.259212
-0.234214 -0.436781 -0.181574 -0.16796 -0.948386 0.268985
-0.170122 -0.181864 -0.435241 0.726281 0.094094 0.680927
0.141199 -0.0436398 0.546769 0.6324 0.171818 0.755347
-0.199734 0.157571 -0.485213 0.362911 -0.341533 0.866978
-0.00333258 0.152788 0.171029 0.609126 0.212451 0.764088
-0.378521 -0.114543 -0.322298 -0.63179 -0.227321 -0.741058
0.0468883 0.190461 0.119225 0.646186 0.0915594 0.757668
-0.287432 -0.11429 -0.394653 -0.60913 -0.195414 -0.768618
0.251625 0.350671 0.331308 -0.630527 -0.134956 -0.764344
0.0197118 0.170529 -0.344419 -0.34715 -0.804744 0.481533
0.262752 -0.145997 0.44514 -0.69563 -0.107731 -0.710277
-0.143427 0.284823 0.248684 0.608321 0.183594 0.772165
-0.419204 -0.174139 -0.0445644 0.678314 0.366074 -0.637087
-0.413504 -0.135968 -0.284574 -0.628839 -0.189516 -0.754086
-0.123515 -0.264609 -0.489716 -0.597809 -0.175369 -0.782221
-0.369422 0.211869 -0.289412 0.294293 -0.955609 0.0142472
-0.428309 0.103718 -0.336795 -0.623523 -0.195754 -0.756901
-0.165166 0.243302 -0.319493 0.0311554 -0.976992 0.21099
0.320019 -0.0874687 0.40029 0.609898 0.194012 0.768364
-0.0350715 0.0294356 -0.521107 -0.664056 -0.363509 0.653369
0.100691 -0.0167411 -0.481539 0.710928 0.24109 -0.660649
-0.358737 -0.361761 -0.271481 -0.617497 -0.116194 -0.777944
-0.361353 -0.371597 -0.0946935 -0.343799 -0.817436 0.46217
-0.0140996 0.238793 0.124128 -0.69915 -0.122998 -0.704316
-0.363498 0.28227 -0.307428 -0.376338 0.922721 0.0834035
-0.0865867 -0.185495 0.322133 0.556097 0.286317 0.780242
0.372476 -0.0904537 -0.0732918 0.565042 0.105803 0.81825
0.291757 0.0604846 -0.0757026 -0.603783 -0.348472 -0.716947
-0.306233 -0.330608 0.012548 -0.324476 -0.845486 0.424109
-0.425987 -0.281694 -0.193524 0.790733 0.533383 0.300406
0.297562 0.226651 -0.0889893 0.50956 0.231846 0.828611
0.123558 0.0943508 0.0495207 -0.66756 -0.174254 -0.723878
0.391589 0.00603377 -0.126308 0.768463 -0.200128 -0.607794
0.203525 0.183654 0.437393 0.755573 0.273183 0.595383
-0.142873 0.296697 0.242436 0.40981 0.431068 0.803888
-0.223531 -0.390766 -0.373895 -0.618078 -0.187008 -0.763549
0.257416 0.352395 0.339929 -0.734766 0.44027 0.516025
-0.17691 -0.0525248 -0.462122 0.544315 0.273631 0.792999
0.295003 -0.103078 -0.0394091 -0.743162 0.326951 0.583792
0.267113 0.152204 0.366554 -0.411558 -0.15774 -0.897629
0.270782 -0.0724247 -0.142708 0.799196 -0.304256 -0.518376
0.146548 0.089884 -0.376136 0.620852 0.0805533 0.779778
0.356552 -0.12459 -0.0436798 0.541954 0.266091 0.797171
-0.205432 -0.22184 -0.394615 0.645182 0.199642 0.737485
-0.421044 0.138621 -0.153344 0.664513 -0.671208 -0.328484
0.460052 0.0278079 0.247373 -0.575316 -0.162042 -0.80172
-0.411145 -0.123386 0.0806376 -0.793759 -0.138554 0.59224
-0.406777 0.235869 -0.387827 -0.640084 -0.235508 -0.73132
0.0593484 -0.318995 -0.365336 0.651618 -0.650233 -0.390629
-0.200395 -0.397602 -0.387929 -0.683206 -0.192942 -0.704275
-0.30488 0.0160976 -0.413484 -0.611802 -0.180131 -0.770228
-0.0929248 0.0840874 -0.521975 -0.230687 -0.395666 0.88895
-0.469646 -0.0137515 -0.0928871 0.79187 -0.121351 -0.598511
-0.351444 -0.133021 0.0562526 0.0192767 0.0947358 -0.995316
-0.0601653 -0.240876 0.197953 -0.236271 -0.877042 0.418298
-0.257506 -0.382851 -0.0460096 -0.28184 -0.849333 0.446318
-0.0118864 -0.064264 0.199937 -0.611225 -0.193916 -0.767333
0.130993 0.198853 0.458792 -0.756147 -0.105434 -0.645852
0.237733 0.153303 -0.097625 -0.678812 -0.361333 0.63926
-0.384146 -0.157677 -0.273596 0.635284 0.188926 0.748813
0.186018 0.19913 -0.028359 -0.664707 -0.195596 -0.721045
-0.436672 -0.0553041 -0.0436176 0.851982 -0.167839 -0.49594
-0.124443 -0.125092 0.239908 0.669668 0.448109 -0.592236
-0.185804 -0.371711 -0.184277 -0.036996 0.973729 -0.224683
-0.168977 -0.357607 -0.42421 -0.70999 -0.260068 -0.654431
-0.405795 -0.392559 -0.22985 -0.607272 -0.200306 -0.768829
-0.270304 -0.270229 -0.333277 0.619383 0.265664 0.738774
0.248193 -0.209985 -0.0122218 0.613392 -0.740918 -0.27348
-0.518728 -0.0566828 -0.22999 -0.602483 -0.214893 -0.768658
0.111043 -0.182197 0.130932 -0.628189 -0.133135 -0.766585
-0.255594 -0.138621 -0.381424 0.688216 0.222052 0.690689
0.0490066 0.307194 0.0555551 0.110334 -0.978122 0.176361
-0.418398 0.0872493 0.0443444 -0.792922 0.418529 0.442841
-0.030704 0.138764 -0.42609 -0.603096 -0.580414 0.547169
0.0130167 0.084072 -0.438301 -0.626931 -0.463468 0.626223
0.370896 0.29364 0.269589 0.514559 0.31093 0.799094
-0.441491 0.0121804 -0.0560765 0.793278 -0.248602 -0.555794
-0.0845606 0.3138 0.158566 -0.583506 -0.195393 -0.788253
0.231813 -0.0386027 0.000378257 -0.720261 -0.17913 -0.670176
0.423801 -0.0408144 0.306323 0.587142 0.177707 0.789737
0.0368004 -0.183888 -0.54033 0.747105 -0.410177 -0.523058
-0.181537 0.0583681 0.270391 -0.756278 0.0929868 0.647609
0.115619 -0.0805803 0.131968 0.60855 0.210304 0.76514
-0.0740815 0.123253 0.199264 -0.609888 -0.267137 -0.746106
0.161097 -0.32751 0.163344 0.594679 0.188648 0.781517
0.441322 0.249575 0.20208 -0.526308 -0.274297 -0.804836
0.016887 0.0855438 -0.527034 0.641361 0.41207 -0.647189
-0.31522 -0.369218 -0.0613648 -0.310812 -0.823495 0.474606
-0.237695 0.296921 -0.36916 0.11634 0.957203 -0.265006
-0.0676036 -0.392314 -0.424388 0.296707 -0.77684 -0.555414
-0.166966 -0.280559 -0.412547 0.603176 0.214628 0.768189
-0.389626 -0.178582 0.0806565 -0.683257 -0.358826 0.635928
0.00489899 0.32716 -0.00472654 0.974816 -0.0820752 -0.20736
0.0395609 0.154363 0.100957 -0.623548 -0.194846 -0.757115
-0.129568 0.31709 0.226068 0.0715924 0.648601 0.757754
0.113404 -0.111779 0.143312 0.600441 0.252334 0.758813
-0.26749 -0.29813 -0.0315669 0.451881 0.736966 -0.502677
-0.484535 -0.121189 -0.102077 0.69486 0.182717 -0.695546
0.494672 -0.058216 0.26589 0.518737 0.253284 0.816553
-0.203494 0.083979 -0.479463 0.627221 0.200018 0.75272
-0.112346 -0.136434 0.328733 0.567256 0.220501 0.793473
-0.275084 -0.22011 -0.371915 -0.648649 -0.123613 -0.750982
0.27649 -0.0851232 0.43832 -0.771719 0.409579 0.486512
-0.36032 0.0854972 -0.388114 -0.600896 -0.211131 -0.770939
0.355083 -0.0373446 -0.065577 0.602457 0.193382 0.77437
-0.236011 -0.234106 -0.403706 -0.623231 -0.212942 -0.752488
-0.142876 -0.338689 -0.0563476 0.103101 0.936364 -0.335549
0.0108048 -0.0536814 -0.584891 0.477449 -0.000996187 -0.878659
0.294481 0.229469 0.352624 0.47374 0.645968 0.598578
0.334036 0.00766372 0.379505 0.554013 0.216358 0.803902
0.189615 0.00487575 0.494185 0.466171 0.396546 0.790845
-0.488219 0.208968 -0.284111 -0.694935 0.699868 -0.165077
0.402339 0.2521 0.235181 -0.586608 -0.189329 -0.78743
-0.0808149 0.270643 0.0365977 -0.572064 -0.178043 -0.800652
-0.406884 -0.0183957 -0.321425 -0.413865 -0.221398 -0.883006
-0.148887 -0.424654 -0.403357 0.182769 -0.935581 -0.302132
0.106852 0.202182 0.489772 0.174213 0.904703 -0.388795
-0.201191 0.0228616 0.24758 -0.751897 -0.104386 0.650965
-0.479504 0.0630106 -0.250768 0.760368 0.0513668 0.647459
-0.161459 0.166068 -0.482559 0.00973189 -0.669688 0.742579
-0.379166 -0.289707 -0.243206 0.667281 0.158452 0.727756
-0.054751 -0.412581 -0.241304 0.309418 -0.95092 -0.00345999
-0.254226 0.237777 -0.334195 0.0957347 -0.980212 0.173262
0.113312 0.0322293 0.542996 0.5498 -0.00928887 0.835245
0.0419297 0.18003 -0.317452 0.678917 0.17252 0.713659
0.0514135 -0.13087 -0.430839 -0.805327 0.328388 0.493568
-0.129364 -0.190785 0.193945 -0.608813 -0.188544 -0.770583
-0.176959 -0.452656 -0.322773 -0.00179146 -0.970863 -0.239628
-0.0207877 -0.0236028 -0.523352 -0.785869 0.0256384 0.617861
-0.110495 -0.131637 0.328509 0.610974 0.256585 0.748916
-0.316825 -0.229782 0.052262 0.565274 0.58477 -0.581816
-0.532057 0.104046 -0.138689 -0.737378 0.388928 0.552276
0.371182 0.0958883 0.330908 0.54887 0.231335 0.80326
0.293808 -0.0898033 0.40648 -0.599203 -0.199012 -0.775468
-0.318686 0.0431567 -0.379146 0.553648 0.337606 0.761246
-0.529871 0.138606 -0.200675 -0.889181 0.436196 0.138169
0.233844 0.19604 0.388867 -0.677437 -0.0300177 -0.734968
0.0241128 -0.270394 0.0948713 -0.0203808 0.971902 -0.234503
-0.0255098 0.197924 -0.344123 -0.376593 -0.78095 0.498291
0.295886 -0.288243 0.0223256 0.412802 -0.874971 -0.253021
-0.0239967 -0.130053 -0.519218 -0.371814 0.154538 0.915354
-0.334462 -0.258443 0.00586364 0.587145 0.573529 -0.571248
-0.282282 -0.173928 -0.354362 0.613141 0.206639 0.762469
-0.190786 -0.297782 -0.417728 -0.599525 -0.204449 -0.773803
0.160583 0.0601042 0.475859 -0.580204 -0.201919 -0.789045
-0.275772 -0.37246 -0.195442 0.126656 0.931406 -0.341234
-0.0274468 -0.0542129 -0.536043 -0.428401 0.0456503 0.902435
0.0935473 -0.241803 -0.326659 -0.721316 0.593816 0.356492
-0.124274 -0.337821 -0.408864 0.0874498 0.792578 0.603468
0.401484 -0.0814759 0.342076 0.433757 0.0542476 0.899396
-0.0591811 -0.0419604 -0.540419 -0.00584357 -0.111765 0.993717
-0.273971 -0.289493 -0.324001 0.540149 0.113737 0.833848
0.218531 -0.181481 -0.0899813 -0.686471 -0.0191711 -0.726905
0.407519 0.0144194 0.315902 0.575562 0.270975 0.771557
-0.344394 0.157286 -0.383487 0.630353 0.102162 0.769557
0.280344 -0.165506 -0.0524618 -0.546663 -0.132751 -0.826763
0.162573 -0.150139 0.117238 0.536747 0.29383 0.790927
-0.0338472 -0.0484531 -0.604928 0.508353 -0.0185355 -0.860949
-0.0865992 0.04953 -0.594827 -0.610194 -0.203114 -0.765773
-0.275765 0.301304 -0.0969586 0.709425 0.212637 0.671939
0.134211 0.0472778 0.0870324 0.647615 0.175441 0.741495
-0.0420928 0.169755 0.194523 0.62387 0.187482 0.758707
-0.432969 -0.123523 -0.0412783 0.70221 0.278213 -0.655361
-0.390594 -0.136911 0.0598642 -0.581065 0.0522661 -0.812177
-0.358353 0.146166 -0.0457457 0.659276 -0.575661 -0.483705
-0.337989 -0.333904 -0.146093 0.310666 0.829292 -0.464501
-0.0687231 -0.194453 0.27883 -0.510641 -0.232095 -0.827875
-0.317086 0.288323 -0.124602 -0.456685 0.874958 0.160893
-0.252512 0.00291285 -0.41976 0.624257 0.189893 0.757789
-0.205251 0.115755 -0.51576 -0.810594 -0.160697 -0.563128
-0.342074 0.171703 -0.0708925 0.651345 -0.687447 -0.321195
0.117203 -0.0409145 0.544023 -0.678216 0.654083 0.334961
0.0776233 -0.0350239 -0.41269 -0.725458 -0.146161 0.672568
0.358567 -0.0324709 0.342847 -0.669345 -0.213385 -0.711648
-0.00109043 -0.0919057 -0.505546 -0.784117 0.0647882 0.617222
0.131342 -0.301617 -0.267569 0.600312 -0.779301 -0.179764
-0.496753 -0.232225 -0.197411 -0.617385 -0.184263 -0.764776
0.22969 -0.277203 0.0603726 -0.764562 -0.236807 -0.599473
-0.131288 -0.147208 0.271498 0.431401 -0.894709 -0.115707
0.312499 -0.105418 0.419399 0.864523 0.285518 0.413618
-0.0360266 0.364688 0.107583 -0.618685 -0.174728 -0.765963
0.100864 -0.120772 0.159053 0.608282 0.187378 0.771286
-0.457656 -0.271814 -0.0546857 -0.530779 -0.636218 0.559911
0.396706 0.23139 0.244045 -0.690675 -0.11727 -0.713593
0.197282 0.152632 -0.0231335 -0.61289 -0.21534 -0.76026
0.433005 0.149269 0.259929 0.524393 0.446105 0.72526
0.360205 0.19768 0.304893 0.808367 0.0277287 0.588025
-0.455483 -0.150806 -0.0816828 0.759142 0.174468 -0.627108
-0.164134 0.117022 0.30556 0.630923 0.21463 0.745566
0.343263 -0.0243926 0.379728 0.751958 -0.230832 0.617475
0.231356 -0.187978 0.071352 0.66491 0.180227 0.724854
-0.126158 -0.360919 -0.13156 -0.0830441 0.979097 -0.185667
0.176795 0.0765029 0.477292 -0.254238 0.965596 -0.0546659
-0.0603829 0.211684 -0.472514 0.390095 0.763267 -0.515024
-0.125783 -0.392751 -0.454131 -0.572503 -0.198955 -0.795397
-0.034987 -0.336571 -0.279493 -0.459334 0.87456 0.155428
-0.258599 -0.0747038 -0.428759 -0.647083 -0.194754 -0.737126
-0.122549 -0.380772 -0.454184 -0.488374 -0.128523 -0.863118
-0.134495 -0.15693 0.352048 0.365863 -0.128305 0.921782
-0.433 -0.148622 0.0450787 -0.724475 -0.262893 0.6372
0.0583391 0.312431 -0.0111542 -0.971385 -0.180265 0.15465
-0.49235 0.195784 -0.257752 -0.788564 0.608169 0.0910893
-0.304659 0.225631 -0.146279 0.331982 -0.942901 0.0269439
-0.534906 -0.210336 -0.095225 -0.847376 -0.433844 0.30616
0.190082 -0.250916 -0.0356307 0.432944 -0.896451 -0.0945247
-0.101048 -0.0983076 0.271306 -0.609334 -0.181657 -0.771825
-0.224015 -0.304708 -0.0146753 0.379635 0.770795 -0.511617
-0.299274 -0.399598 -0.314847 -0.701106 -0.197284 -0.685222
-0.0289182 -0.0953733 -0.60761 -0.570394 -0.301148 -0.764173
-0.200309 -0.333561 0.00790113 0.633831 0.186794 0.750577
-0.265905 -0.193795 -0.391677 -0.599623 -0.197975 -0.775408
-0.414666 -0.24273 -0.261325 -0.618494 -0.160305 -0.769264
-0.192094 0.0259587 0.354339 0.586539 0.215934 0.780606
0.0832161 0.0436372 0.565532 0.653665 0.224169 0.722821
0.0774741 0.30634 -0.0492018 0.106456 0.928941 -0.354591
-0.333291 0.100089 -0.379003 0.611631 0.195116 0.766705
0.245281 0.0703979 0.402359 -0.613906 -0.153853 -0.774241
-0.0391769 0.193835 0.151732 -0.716973 -0.203904 -0.666613
-0.02133 -0.223963 -0.47127 -0.661359 0.38993 0.640748
0.324704 0.166516 -0.0971508 0.592721 0.210789 0.777335
-0.266368 0.0668985 -0.425058 0.683593 0.107373 0.721922
0.26066 -0.128767 -0.000695125 -0.638709 -0.164976 -0.751554
0.12694 0.370291 -0.018593 -0.515332 -0.183968 -0.837012
0.0754688 0.3349 0.00112426 0.368674 0.867896 0.332921
0.051604 -0.0924585 -0.544508 0.761556 -0.00733884 -0.648058
0.144898 -0.102373 0.0829236 -0.615381 -0.196112 -0.763443
-0.122985 0.161209 -0.564567 0.189274 0.616211 -0.764499
-0.544681 -0.203973 -0.122834 -0.915549 -0.257779 0.30874
-0.100582 0.35339 0.187839 -0.162001 0.930919 0.32733
-0.0212098 0.228559 -0.282081 -0.295738 -0.840339 0.454279
-0.537141 0.115832 -0.162985 -0.762748 0.575249 0.295472
-0.0360808 -0.258374 -0.554745 0.469579 -0.485508 -0.737413
-0.224058 0.0574463 -0.454252 0.72835 0.182211 0.660534
0.12555 0.116175 0.0506476 -0.535535 -0.159038 -0.829403
0.203549 0.0507595 0.470448 0.157718 -0.031239 0.98699
0.250134 -0.185343 -0.0845869 0.721134 0.593959 0.356621
0.396525 0.0301982 0.293702 -0.629553 -0.175238 -0.756938
-0.19628 0.111966 0.179944 0.773558 -0.372154 -0.512941
0.19934 2.4031e-05 0.0463637 0.539705 0.356339 0.76272
-0.429199 0.220632 -0.144262 -0.601251 0.743874 0.291802
0.329782 0.0870462 0.3672 0.51222 0.23229 0.826844
-0.380878 0.0997069 -0.37761 -0.695736 -0.131419 -0.706173
0.274779 -0.135276 0.0241136 0.617073 0.194846 0.762402
0.326614 -0.0814908 -0.0660473 -0.596572 -0.198255 -0.777687
-0.0116285 0.333477 -0.0227025 -0.356991 0.780967 -0.512492
0.295822 -0.0581882 -0.0502982 -0.604825 -0.229078 -0.762699
-0.363455 -0.115063 -0.294417 0.766214 0.247921 0.592833
-0.0300426 0.248866 -0.281369 0.624251 0.219698 0.749696
-0.0886202 -0.177224 -0.536824 -0.645587 -0.168679 -0.744825
-0.0477158 -0.101808 -0.588416 -0.602381 -0.235409 -0.762706
-0.416334 -0.259601 -0.223167 0.644517 0.171801 0.745038
-0.353024 -0.31526 -0.290231 -0.594228 -0.20777 -0.776997
-0.392942 -0.238301 -0.27713 -0.599481 -0.208877 -0.772653
-0.259586 -0.428338 -0.152855 -0.0707857 -0.946977 0.313407
-0.0754803 -0.117594 -0.526185 0.313922 0.221316 0.923294
0.247853 0.0313777 -0.164259 -0.552311 -0.168178 -0.816498
-0.391834 0.112636 -0.0575235 0.732473 -0.478538 -0.484236
-0.567039 -0.00437546 -0.119203 -0.722276 0.174682 0.669181
-0.339988 -0.126223 0.0675408 0.45923 0.288609 0.840126
0.362518 0.306788 0.264369 -0.602573 0.644603 0.470524
0.299806 -0.164536 0.00976632 0.615116 0.196081 0.763665
-0.350534 0.156974 -0.0543368 0.670703 -0.627564 -0.395374
0.0979642 0.0847512 -0.438898 0.71831 0.262869 -0.644151
0.421276 0.184157 0.247787 0.383898 -0.919615 -0.0832459
-0.490085 0.0868584 -0.202833 0.887657 -0.42929 -0.166661
0.0196811 0.101762 0.163906 0.658481 0.19851 0.725945
-0.503376 -0.193428 -0.201025 -0.533318 -0.205749 -0.820512
0.271649 -0.177358 0.451308 -0.657323 -0.164446 -0.735449
-0.266894 -0.142506 -0.406959 -0.524448 -0.363359 -0.770016
-0.423621 -0.0369565 0.077708 -0.775089 0.00718299 0.631812
-0.302427 -0.310362 -0.331857 -0.75439 -0.143167 -0.640624
-0.300731 0.221952 -0.381915 0.178265 -0.904874 0.386555
-0.304668 -0.262731 -0.311207 0.607705 0.295482 0.737147
0.0287928 0.000401197 0.185156 0.68939 0.196194 0.697316
-0.57665 -0.0987511 -0.146686 -0.967025 0.000455421 0.25468
0.0410522 0.129609 -0.367721 -0.487218 -0.638199 0.596088
-0.432896 -0.043171 0.0624098 -0.782441 0.0827812 0.617198
-0.176765 0.286687 -0.406683 0.035794 0.949809 -0.310776
0.274678 -0.0665872 -0.145507 0.825512 -0.280444 -0.489777
-0.0432457 0.279665 0.132042 -0.63248 -0.195738 -0.749437
0.140016 -0.284935 0.170186 0.560936 0.211192 0.800468
-0.444146 -0.21476 -5.92095e-05 -0.66489 -0.399632 0.631043
-0.480935 0.0539436 -0.146285 0.746067 -0.378366 -0.547927
-0.273139 0.311259 -0.18277 -0.332504 0.943026 0.0119912
