ply
format ascii 1.0
comment Created by Open3D
element vertex 512
property double x
property double y
property double z
property double nx
property double ny
property double nz
end_header
0.350249 0.112269 0.235121 0.0468394 -0.830213 0.555475
0.283345 -0.147907 -0.091969 0.1849 0.72093 -0.667886
0.407467 -0.0749532 0.0394797 -0.19175 -0.714606 0.672733
-0.330618 0.248963 0.189035 -0.368524 0.906598 0.205595
-0.281228 -0.0635695 -0.161059 -0.102339 0.925909 -0.363619
-0.161079 -0.039933 -0.0913477 -0.335753 -0.425425 0.840407
0.396037 -0.0702539 0.0271267 0.282843 0.571238 -0.770511
0.442564 -0.0252943 0.0890304 0.137058 0.770926 -0.622004
0.180028 -0.215739 -0.195851 -0.399582 0.880107 -0.256412
0.220326 -0.0471309 -0.00355482 0.166012 0.735214 -0.657191
-0.110365 -0.134818 -0.150941 -0.238706 -0.464357 0.852873
0.426583 -0.132075 -0.0197757 -0.0122153 -0.789368 0.613799
-0.318196 0.0917196 0.0220677 -0.177809 -0.725309 0.665064
-0.0705712 -0.107004 -0.147872 0.333579 0.642151 -0.690193
-0.444179 0.211422 0.0801454 0.587536 0.475911 -0.654455
0.175782 -0.0471953 0.00721887 -0.355736 -0.1817 0.916754
-0.0972448 -0.134767 -0.144267 -0.222299 -0.680312 0.698397
0.341537 0.0650554 0.189289 -0.0144427 -0.892253 0.451305
0.250924 -0.227335 -0.200282 0.0581214 0.729889 -0.681091
-0.153833 -0.0107289 -0.0330785 -0.537983 -0.524287 0.660074
0.171489 0.0560908 0.105791 -0.225014 -0.650016 0.725843
-0.0991386 0.197353 0.177875 0.186082 0.720585 -0.66793
-0.157827 -0.168143 -0.231084 0.988195 -0.150677 0.0276832
-0.174692 0.118756 0.0842812 -0.61042 -0.246939 0.752601
0.416779 -0.167368 -0.0472149 -0.361918 -0.304327 0.881136
0.334374 -0.0929634 0.0143679 -0.573414 -0.11782 0.81075
-0.188907 0.0930138 0.0505717 -0.0594236 0.857792 -0.51055
0.149986 0.0112977 0.0399037 -0.521171 -0.50292 0.689531
0.482114 -0.162985 -0.0178509 -0.162421 -0.729098 0.664857
-0.448015 -0.0570195 -0.171423 0.13609 -0.802463 0.580976
0.291396 0.0178576 0.100563 -0.347726 -0.530133 0.773334
-0.144814 0.041303 -0.0161458 -0.0578754 0.826441 -0.560041
-0.0419271 -0.195142 -0.220264 -0.906964 -0.184419 0.378689
-0.139944 0.0858848 0.0784776 0.145571 -0.827288 0.542589
0.317582 0.0304231 0.11592 0.336453 0.561728 -0.755818
0.500952 -0.0561469 0.0696375 0.991006 -0.0921367 -0.097051
0.0496943 0.0162361 0.0398599 -0.0887183 -0.814223 0.573734
-0.222031 0.235441 0.174312 0.0511232 0.817553 0.57358
-0.110069 -0.165644 -0.237397 0.610148 0.523457 -0.594737
-0.447286 0.233273 0.152537 -0.366661 -0.487895 0.79216
-0.208046 0.164834 0.098584 0.586177 0.393441 -0.708238
-0.296361 -0.142761 -0.240016 -0.992485 0.122133 0.00753443
0.0822662 0.172874 0.189661 0.233782 0.693677 -0.681291
-0.226215 0.0579238 0.0090093 -0.484761 -0.613245 0.623648
0.491521 -0.246036 -0.140977 0.421528 -0.0630192 -0.904623
0.189616 0.105144 0.180347 0.0338962 0.75887 -0.650359
0.223395 -0.0965741 -0.0768405 0.239964 0.700576 -0.67202
0.186584 0.10286 0.162714 -0.0644937 -0.930994 0.359291
0.361611 -0.00905824 0.087185 -0.242523 0.969579 -0.0331486
0.144826 0.121355 0.195496 -0.273384 -0.646994 0.711801
-0.251763 0.173353 0.132872 -0.107574 -0.896753 0.429257
0.245678 -0.00650071 0.092762 -0.537694 -0.345783 0.768973
-0.462619 0.0982486 -0.0332174 0.216903 0.703282 -0.677014
0.175999 -0.0937919 -0.0304063 0.0863515 -0.915947 0.391898
-0.130707 0.0534365 0.0422519 0.63432 -0.751764 0.180248
-0.0866996 -0.0996577 -0.117454 -0.185345 -0.719779 0.669003
0.181926 0.123941 0.187816 -0.440734 -0.507687 0.740275
0.0386572 -0.0149505 -0.0140084 0.636324 0.447657 -0.628248
0.502451 0.114993 0.273034 0.989775 -0.134012 -0.0488529
-0.216228 -0.14117 -0.229287 0.456738 0.64065 -0.617219
0.366629 0.127916 0.229402 0.712589 0.25713 -0.652764
0.234402 0.038869 0.097551 0.29085 -0.879467 0.376754
0.0156456 -0.182688 -0.197831 0.151112 0.747861 -0.646428
-0.0022227 -0.0677793 -0.0915273 0.0505626 0.996867 -0.0608245
-0.460123 -0.0870849 -0.254874 0.532138 0.190774 -0.824884
0.21581 0.0479035 0.0968427 0.466668 -0.0909529 -0.879743
0.0178347 0.0483176 0.0467902 -0.169395 0.854947 -0.490276
-0.0613226 0.215656 0.200465 0.888574 -0.29397 0.352163
0.346768 0.000301683 0.0895175 -0.783511 -0.395895 0.478934
-0.203899 0.18454 0.160675 0.155338 0.741358 -0.652884
0.0125196 -0.0440917 -0.052945 -0.302671 0.822545 -0.481466
0.154835 -0.21143 -0.194344 0.192141 0.714219 -0.673032
-0.415469 0.1151 0.00770121 -0.288045 -0.69829 0.655302
-0.301257 0.162266 0.0690271 0.215601 0.656135 -0.723189
-0.0656915 0.0182542 -0.0187892 -0.0931955 0.827172 -0.554167
-0.0134453 -0.134154 -0.170222 0.10137 0.762273 -0.639269
-0.45135 -0.0385026 -0.14911 -0.0350371 -0.796387 0.603772
0.225236 -0.0828561 -0.0190544 0.55095 0.443288 -0.707071
-0.0808897 0.0549353 0.0344759 0.466307 0.660506 -0.588464
0.0335289 0.0845859 0.0975701 0.37565 0.628225 -0.681337
0.253536 -0.0920873 0.00304735 -0.339233 -0.544484 0.76711
-0.0617575 0.0840912 0.0789185 0.346477 0.532843 -0.772031
0.30013 0.136051 0.215744 0.323428 0.623757 -0.711562
-0.242806 -0.0940464 -0.164802 0.429096 0.380749 -0.819089
-0.252789 -0.134713 -0.238859 0.639382 0.381649 -0.667484
0.461394 -0.225868 -0.0996796 0.0169006 -0.885471 0.464388
0.039975 0.126308 0.147906 0.0470647 0.993311 -0.10544
-0.151862 0.164071 0.139285 -0.255405 -0.708184 0.658212
0.493758 -0.0136262 0.143128 -0.308297 0.877871 -0.366462
-0.308094 -0.0278712 -0.0840749 -0.381321 -0.615251 0.689971
-0.281553 0.013023 -0.0501318 0.23895 -0.923463 0.300197
-0.098369 0.0933472 0.0777139 -0.380836 -0.545449 0.746625
0.394359 0.0569609 0.145624 0.145709 0.739391 -0.65732
0.386241 -0.0911537 -0.0148049 0.313267 0.643262 -0.698626
0.357528 -0.242066 -0.166561 -0.0677933 -0.811778 0.580018
0.227345 -0.21025 -0.157529 -0.256652 -0.654169 0.711472
-0.289102 0.252185 0.205594 0.020988 0.670791 0.741349
-0.212268 0.113503 0.0970319 -0.33586 -0.582163 0.740462
-0.464932 0.0302334 -0.0909721 0.515458 -0.673376 0.52997
-0.478396 0.260169 0.150786 -0.964874 0.199287 -0.171183
-0.307988 0.201753 0.121352 -0.196389 0.870058 -0.45214
0.00152044 0.00867235 0.0247602 -0.559989 -0.269153 0.783562
-0.147556 -0.100708 -0.141076 0.480609 -0.876915 0.00584015
-0.274248 0.133201 0.086349 -0.508052 -0.572803 0.643258
0.277698 -0.128133 -0.0452999 -0.16123 -0.735127 0.658477
0.385477 -0.142679 -0.049855 0.192317 0.709341 -0.678122
0.229357 -0.0218263 0.00378934 0.730262 0.449773 -0.51422
-0.231694 -0.0707521 -0.14819 0.347384 -0.92907 0.127096
0.112803 -0.0689854 -0.0258892 -0.161651 -0.759376 0.630252
-0.276141 -0.010132 -0.09895 0.020509 0.777813 -0.628161
0.322378 -0.17514 -0.0697068 -0.206751 -0.710879 0.672239
0.454419 -0.0947621 0.0243802 -0.50443 -0.557727 0.65916
0.213403 -0.213167 -0.157482 0.355226 0.543161 -0.760783
-0.096192 0.140429 0.113016 -0.199218 0.819959 -0.536637
-0.352505 -9.38899e-05 -0.0699859 -0.186422 -0.720051 0.668411
0.301109 0.000864318 0.0641818 0.260015 0.672736 -0.692689
-0.481457 0.167651 0.0602871 -0.203271 -0.70696 0.677413
-0.386867 0.0770978 -0.0306407 -0.43798 -0.447831 0.7795
-0.279489 0.238673 0.180487 0.0256621 0.660423 0.750455
0.330932 -0.256093 -0.180834 -0.541666 -0.481497 -0.689028
0.491174 0.0792004 0.190786 0.0758915 0.816093 -0.572916
-0.0388783 -0.11272 -0.152234 0.445209 0.625809 -0.640432
0.0618754 -0.0981293 -0.0850287 -0.366353 -0.560146 0.742982
-0.468392 -0.0139642 -0.124492 -0.202489 -0.692281 0.692636
-0.0115786 -0.165185 -0.164449 0.0916294 -0.794751 0.599979
-0.152568 -0.169327 -0.204127 -0.132665 -0.774682 0.618277
-0.0933615 0.171786 0.132983 -0.124906 0.732351 -0.669373
-0.286899 0.157181 0.110988 0.180828 -0.962241 0.203456
-0.406801 -0.0843012 -0.176827 -0.241826 -0.702937 0.66888
-0.138569 0.110282 0.0806769 -0.140615 0.882912 -0.44799
-0.429986 0.225292 0.114493 0.231043 0.608434 -0.759228
-0.194664 -0.00961252 -0.0847808 0.610339 0.324683 -0.722542
0.315479 -0.239305 -0.17953 -0.021331 0.863027 -0.504707
0.481711 0.0215464 0.185685 -0.178611 -0.726565 0.663477
0.418366 0.139248 0.2665 0.261237 0.112997 0.958638
-0.435519 0.265411 0.165761 0.380001 0.590994 -0.711565
-0.187198 -0.140277 -0.201331 -0.221939 -0.67565 0.703022
-0.361927 -0.145363 -0.241224 0.0065482 -0.83954 0.543259
0.364011 -0.0227224 0.0953049 -0.0885144 -0.859776 0.502942
0.116061 -0.156068 -0.105252 -0.81222 -0.468336 0.347793
0.0180389 -0.15093 -0.146467 0.229462 0.694934 -0.681479
0.330421 0.030725 0.122845 0.0704391 0.7977 -0.598927
-0.467166 0.0377599 -0.0727045 0.00379694 -0.783825 0.62097
0.488262 -0.102444 0.0360042 -0.270062 -0.64168 0.717853
0.344816 -0.185462 -0.0914036 0.15407 0.73121 -0.664526
-0.245805 -0.112656 -0.174421 -0.675706 -0.0767695 0.733163
0.00498158 -0.111506 -0.112748 -0.459705 -0.261875 0.848583
-0.270805 0.000702843 -0.095743 0.00025214 0.817711 -0.575629
-0.305267 -0.0210604 -0.122414 -0.00856338 0.818047 -0.575087
0.145023 0.110615 0.165097 -0.188468 -0.713238 0.675108
-0.374726 0.11556 0.00501084 -0.111741 0.912672 -0.39312
-0.0726195 0.0384664 0.00148384 -0.285874 -0.683119 0.672031
0.31511 -0.142642 -0.0754293 0.392557 0.540289 -0.744303
-0.184985 -0.170731 -0.225546 0.238695 0.672899 -0.700165
-0.414947 0.0164265 -0.0817451 -0.0991069 -0.781752 0.615663
-0.49181 -0.0425563 -0.191504 -0.376391 -0.508334 0.774549
0.162577 -0.175567 -0.140282 0.284353 0.613881 -0.736406
-0.42348 -0.075398 -0.182764 -0.307875 -0.504515 0.806646
0.0522526 -0.0535953 -0.0519379 0.110828 0.728309 -0.676227
0.0221092 -0.198502 -0.221553 0.803011 -0.516985 0.296479
-0.084979 0.0915577 0.0514675 0.378397 0.493409 -0.783175
-0.0250266 0.19095 0.225755 -0.31439 -0.680378 0.662
-0.42415 -0.0183456 -0.131661 0.331783 0.554797 -0.762968
-0.298316 -0.0637875 -0.157119 0.103795 0.765055 -0.635545
-0.328956 -0.0398797 -0.138943 0.0125233 0.737767 -0.674939
0.180227 -0.0477732 -0.0306098 -0.0240253 0.855283 -0.517604
0.339613 0.141076 0.259402 -0.995242 0.0843132 0.0488276
0.186862 -0.0206413 0.0513181 -0.408332 -0.343868 0.845588
0.333486 -0.0807835 -0.00272188 0.165342 0.74577 -0.64536
0.141283 0.0279486 0.0752261 -0.302125 0.849285 -0.432937
-0.435841 -0.126509 -0.274238 0.0912355 -0.796596 -0.597588
-0.290343 -0.115245 -0.214799 0.189239 0.681094 -0.707318
-0.0924675 0.0644202 0.0402501 -0.451984 -0.452327 0.768837
0.14794 -0.137553 -0.125309 0.227281 0.657363 -0.718483
0.309589 -0.166605 -0.112654 -0.536667 0.753836 -0.379104
-0.179005 0.206355 0.162509 0.434516 0.638298 -0.63543
0.258686 0.143618 0.198772 0.470308 0.0307931 -0.881965
-0.0329189 0.0446757 0.0160058 0.399082 0.644471 -0.65222
0.425103 -0.239524 -0.139035 0.0630008 0.748188 -0.660489
-0.301095 0.221989 0.160271 -0.780587 -0.427134 0.456334
0.178624 0.0855184 0.143467 0.167762 0.739111 -0.652358
-0.490994 0.077434 -0.0499617 -0.823405 0.305324 -0.47831
0.265179 0.0653449 0.160201 -0.580354 -0.581138 0.570498
-0.448721 0.171937 0.0380896 0.219866 0.713671 -0.665081
0.0973618 -0.0585921 -0.0394798 0.300163 -0.880701 0.366426
0.103228 0.0468864 0.0687813 -0.0537654 0.760429 -0.647191
-0.0475601 -0.0929481 -0.110633 0.382401 0.513485 -0.768181
0.0970688 -0.166586 -0.162425 0.730801 0.505287 -0.458929
-0.0193128 0.0792809 0.100095 -0.367557 -0.674519 0.640254
-0.0260314 0.126391 0.135232 0.150983 -0.919881 0.361972
0.0863591 0.0460843 0.0939666 -0.0389702 -0.85604 0.515438
-0.112116 -0.0700935 -0.0788307 0.068183 -0.846982 0.527231
0.399415 -0.221354 -0.142961 0.340993 0.587306 -0.734027
0.151151 0.166025 0.214639 0.345419 0.666708 -0.660443
-0.485486 0.0329289 -0.0923826 -0.945971 0.208599 -0.248245
0.0927896 -0.0395999 -0.0149942 0.459848 0.474285 -0.750729
0.00378994 0.188874 0.207362 0.395042 0.604832 -0.691462
0.0401078 0.0993965 0.145248 0.245862 -0.775324 0.581742
-0.490513 0.147849 0.0192649 -0.999365 0.0324796 -0.0146213
-0.415208 0.11866 0.00742422 -0.139717 -0.821725 0.552492
0.332741 -0.057453 0.0267264 0.665336 0.252721 -0.702467
-0.426907 -0.0829518 -0.231266 0.347022 0.66083 -0.665491
-0.031726 0.105848 0.0951335 -0.260203 0.962425 0.0776673
0.272491 0.00941998 0.100319 -0.0896654 -0.782006 0.616787
-0.244509 -0.127931 -0.193031 -0.141723 -0.729559 0.669072
0.159824 -0.11701 -0.0973197 0.2879 0.581286 -0.761065
-0.113085 0.13109 0.118601 0.141202 -0.782702 0.606167
0.0983962 -0.210541 -0.172421 -0.0547908 -0.749013 0.660286
0.294551 -0.0692692 0.01276 -0.235069 -0.710526 0.663246
0.402946 0.0204539 0.138005 -0.241427 -0.24794 0.93821
0.483972 -0.0464862 0.0695746 0.81785 -0.290839 0.496522
-0.343557 -0.126724 -0.217117 0.284101 -0.927053 0.244661
0.0331709 0.072945 0.0785087 0.0323319 0.979442 -0.19912
-0.0182101 -0.205213 -0.213748 -0.327768 -0.910895 -0.250677
-0.0446281 0.157497 0.163619 -0.240582 -0.709112 0.662783
-0.184508 0.0131712 -0.0316954 -0.660696 -0.0964239 0.744435
0.12727 0.183424 0.210802 0.93655 -0.180198 0.300671
0.439742 -0.049079 0.0504352 0.00222861 0.744542 -0.667571
0.0648402 -0.166589 -0.141752 0.198283 -0.864545 0.461786
-0.00848547 0.0791865 0.0927301 -0.565421 -0.118662 0.816222
-0.266749 0.128145 0.0578944 0.0170022 0.768464 -0.639667
-0.166177 -0.0200809 -0.0442666 -0.315459 -0.657088 0.684632
-0.33827 0.168396 0.081374 -0.381971 -0.654167 0.652812
-0.194373 -0.102255 -0.172034 0.62378 0.263438 -0.735866
-0.0542654 -0.0810973 -0.0770386 -0.0764282 -0.738895 0.669472
0.307685 -0.113284 -0.0384553 -0.629117 -0.248074 0.736662
0.196198 -0.0616248 -0.0232177 -0.317856 0.924916 -0.20856
-0.038429 -0.165861 -0.168298 -0.231091 0.876722 -0.421847
-0.0108282 -0.0642094 -0.0913762 0.552475 0.514482 -0.655804
-0.430707 0.171156 0.0586472 0.404954 0.545238 -0.733981
-0.48976 -0.0776509 -0.218484 -0.940809 0.317979 -0.117339
0.19424 -0.138964 -0.110706 -0.0948382 0.807906 -0.581629
0.050292 -0.104516 -0.112557 0.163067 0.728118 -0.665773
0.212724 0.00382538 0.0561173 0.306614 0.603863 -0.735756
0.438057 0.0195071 0.159249 -0.53016 -0.315493 0.787016
0.252784 0.146284 0.240331 -0.457996 -0.609034 0.647547
-0.0905839 0.00026854 -0.0363995 0.0934938 0.740376 -0.665659
-0.466482 0.0981761 -0.0140334 0.0830187 -0.942642 0.323319
0.113732 0.155678 0.208838 -0.55571 -0.277423 0.783724
0.231442 -0.028966 0.0515476 0.0467345 0.851805 -0.521771
-0.468843 0.1202 0.0172956 -0.17614 -0.730621 0.659672
-0.340802 -0.0735054 -0.156183 -0.857631 -0.0430944 0.512457
-0.38214 0.196551 0.0887875 0.129986 0.756413 -0.641049
-0.287131 -0.110626 -0.219211 0.204557 0.684683 -0.699547
-0.490421 0.192669 0.0772096 -0.996486 0.0153219 0.0823474
0.255289 -0.200927 -0.15163 -0.249478 -0.674716 0.694636
0.451166 -0.0515393 0.0551416 0.0918972 0.995744 0.00695647
0.201008 -0.157703 -0.132067 0.704141 0.320873 -0.633424
0.227852 -0.168858 -0.119665 0.0893679 -0.925987 0.366827
-0.332698 0.0284433 -0.0405458 -0.287116 -0.642869 0.71013
0.36119 0.0501056 0.137951 0.208092 0.696565 -0.686655
0.302108 0.0977312 0.191811 0.0281753 -0.787049 0.616247
0.172752 -0.0398604 0.00668391 -0.194986 -0.714676 0.671728
0.293159 0.141786 0.234092 -0.652102 -0.524448 0.547465
-0.204885 -0.117733 -0.198416 0.66809 -0.743557 0.0279092
-0.00937357 -0.0608531 -0.0522744 0.299901 -0.953967 -0.00239264
0.245669 -0.118499 -0.0433289 -0.256076 0.787846 -0.56011
-0.470731 0.213784 0.107042 -0.583083 -0.515468 0.627938
0.437103 -0.138059 -0.0202219 -0.597276 -0.544361 0.58901
0.0746339 0.0796178 0.0964295 -0.101333 0.745973 -0.658221
-0.388763 0.048951 -0.0721727 0.143278 0.494156 0.857486
-0.479341 0.0488603 -0.083636 -0.971485 0.196938 -0.132034
-0.471106 -0.0366099 -0.183206 0.0699598 0.749922 -0.657817
-0.312245 0.0641623 0.000973064 0.231556 -0.841679 0.487809
0.229188 -0.143112 -0.0814611 -0.380749 -0.466488 0.798386
0.37191 -0.186033 -0.10188 -0.968335 0.18756 -0.164766
0.0303161 -0.18113 -0.179809 -0.55968 -0.422184 0.713105
-0.400015 -0.129199 -0.223719 -0.62418 -0.18173 0.759851
0.365208 0.0251902 0.133767 0.0345411 -0.873634 0.485356
0.00146594 0.0197322 0.0161253 -0.0457431 -0.936302 0.348203
0.0714899 0.127521 0.16172 0.052511 0.834888 -0.547909
0.0606609 -0.0544081 -0.0545218 0.046816 -0.879181 0.474182
-0.107768 0.223411 0.207919 -0.913337 0.355611 -0.198384
0.11246 -0.117846 -0.099866 0.219126 0.672537 -0.706879
0.503046 -0.0401969 0.112598 0.943932 -0.246563 0.219541
0.381126 -0.146129 -0.0436288 0.137172 -0.948002 0.287186
-0.291823 0.108383 0.0291854 -0.00583304 0.895724 -0.444572
0.209168 0.0150878 0.0501523 0.432681 0.542233 -0.720257
-0.363912 0.222788 0.136152 0.134874 0.753031 -0.644014
-0.233429 0.142004 0.0741924 0.00640088 0.764185 -0.644965
-0.0355454 0.0514135 0.0354168 0.345469 0.542344 -0.765842
0.472213 -0.151066 -0.0352844 -0.0677251 -0.720387 0.690258
-0.00478093 0.146484 0.14697 0.736193 0.378435 -0.561077
-0.0318912 0.155223 0.177195 -0.0707116 -0.741724 0.666967
-0.178618 -0.044592 -0.11383 -0.309145 0.854619 -0.417199
0.105111 -0.0301919 0.00294187 0.0393635 -0.790812 0.610792
0.300997 -0.00894824 0.066666 -0.170751 0.811372 -0.559035
0.401181 -0.174143 -0.0976476 0.578558 0.354184 -0.734727
0.1483 0.0494178 0.0710788 0.228808 0.705524 -0.670733
0.484007 -0.278838 -0.160454 -0.0607989 -0.678567 -0.732018
-0.4302 -0.0180587 -0.138993 -0.105356 -0.740549 0.663693
0.185956 0.176914 0.231484 0.351638 -0.918758 0.179541
0.194334 -0.00844701 0.0419112 0.0733129 0.811021 -0.580405
0.102207 -0.129606 -0.106022 -0.398323 -0.608536 0.686311
0.114892 0.119835 0.16288 0.512573 0.536719 -0.670225
0.037962 -0.100443 -0.0933161 0.570588 -0.749811 0.334981
0.0487671 -0.192692 -0.188884 0.113575 0.793379 -0.598039
0.250806 -0.175904 -0.10509 -0.411196 -0.677434 0.609918
-0.00915098 -0.0101521 0.000793526 -0.350811 -0.58991 0.727281
0.306717 0.105356 0.184548 0.768414 0.0555402 -0.637538
-0.279494 -0.0952831 -0.203328 -0.392444 0.819304 -0.418005
0.212054 0.142284 0.213969 0.2442 -0.73597 0.631438
-0.23051 0.0240911 -0.0336724 0.247066 0.615665 -0.748275
-0.114484 -0.0112812 -0.0668396 0.351082 0.681046 -0.642587
0.254686 0.0571415 0.130693 -0.0396491 -0.804194 0.593043
-0.0220531 -0.135887 -0.1488 -0.516956 -0.381726 0.766187
-0.381403 -0.096958 -0.225031 0.30888 0.578588 -0.75487
0.432299 0.0934464 0.232485 -0.741296 0.135681 0.657321
0.285217 -0.13279 -0.0378481 0.267332 -0.914454 0.303822
-0.248837 0.201126 0.149406 -0.427645 -0.547972 0.71892
-0.105061 0.115641 0.0818878 -0.485195 -0.612937 0.623614
0.387845 0.0106567 0.128127 0.977474 -0.151252 -0.147196
-0.0668942 -0.160483 -0.211024 0.533424 0.475119 -0.6998
-0.480665 0.280344 0.157159 -0.960644 -0.044129 0.274253
-0.340965 0.107991 0.0334845 0.116916 -0.780083 0.614656
0.00741018 -0.151719 -0.135487 -0.149905 -0.740047 0.655636
0.222086 0.0753396 0.148423 0.228206 -0.831505 0.50648
-0.419018 0.0521137 -0.0677029 0.458706 0.527515 -0.715065
0.14667 0.0807433 0.132083 0.388809 -0.737741 0.551875
0.491048 -0.122918 -0.00167691 0.792148 -0.458205 0.403174
0.149469 0.00782287 0.0394695 0.239552 0.614224 -0.751893
-0.025562 0.0253538 -0.00324539 0.343478 0.384875 -0.856677
0.234293 -0.0797651 -0.0355772 -0.322227 0.704426 -0.632418
0.100348 0.00522744 0.0556987 -0.0613322 -0.757827 0.649567
0.0212161 -0.0178045 -0.0153656 -0.17684 -0.728975 0.661305
-0.422812 -0.0883643 -0.225216 0.389305 0.589947 -0.707393
0.0553905 0.184392 0.202357 0.0740137 0.556273 0.827697
0.321962 0.0629261 0.154417 -0.729857 -0.346383 0.589345
-0.255476 -0.128154 -0.190712 -0.272573 -0.671481 0.68907
-0.222466 0.00185202 -0.0636575 0.216188 -0.950819 0.221827
0.269487 0.167154 0.240313 0.0602439 0.744018 -0.665438
0.190008 0.0752267 0.110505 -0.100557 0.809421 -0.578556
0.276797 -0.0256497 0.066838 -0.674693 -0.114911 0.729099
-0.0626935 0.132962 0.0990758 0.588759 0.315436 -0.74422
0.48064 0.0358601 0.176503 -0.519214 -0.597269 0.611299
-0.275615 0.0840901 0.0046174 0.267595 0.691475 -0.671011
0.487099 0.121051 0.273051 0.0726421 0.390524 0.917722
0.0536329 -0.00438501 0.0191321 0.38356 -0.887916 0.253942
-0.440426 0.0882932 -0.0252929 0.307719 0.357517 -0.881754
-0.400486 0.147138 0.0442121 -0.484958 0.872222 -0.0635912
-0.271448 0.0147977 -0.0489999 -0.395254 -0.623318 0.674722
-0.180783 -0.0137026 -0.0721509 -0.228513 -0.710385 0.665684
0.0260983 0.0466909 0.0703239 0.314645 0.667034 -0.675325
0.453481 0.124769 0.247227 0.267967 0.674948 -0.687487
-0.19537 -0.0642992 -0.105735 0.0136939 -0.796459 0.604537
0.350139 -0.214606 -0.143468 -0.324905 -0.645744 0.690979
0.313791 -0.0311486 0.0652818 0.251404 0.552871 -0.794437
0.451245 -0.0496048 0.0726989 -0.199754 -0.710411 0.674844
-0.0681223 0.181512 0.174012 0.080569 0.815324 -0.573372
0.437728 0.0531222 0.204358 0.0141682 -0.737999 0.674653
-0.395647 0.0903937 -0.0254855 0.304112 0.55597 -0.773572
-0.439999 0.245761 0.144211 0.389054 0.572357 -0.721834
-0.336951 0.187996 0.0828033 0.424719 0.603346 -0.674972
-0.231585 0.0751636 -0.0161268 0.567549 0.15723 -0.808187
-0.0732365 -0.185827 -0.212547 0.0130367 -0.86784 0.496673
0.170356 0.0248866 0.0857384 0.12924 -0.911277 0.390987
-0.397229 -0.040173 -0.162998 0.0528829 0.779152 -0.6246
-0.24143 0.229463 0.177437 0.9975 -0.0660244 -0.025198
-0.33132 0.119494 0.0678937 0.00113798 -0.814125 0.580688
-0.258196 -0.0716899 -0.125425 -0.236242 -0.712632 0.660565
-0.0967309 -0.0692292 -0.0928655 0.0154348 -0.816579 0.577027
0.299441 0.0619679 0.134741 0.325544 0.678037 -0.659004
-0.301418 0.240378 0.16386 0.234665 0.60646 -0.759697
-0.398481 0.176577 0.0783141 -0.250028 -0.667695 0.701191
-0.34395 -0.104523 -0.19673 0.564466 0.442477 -0.696844
-0.461081 0.21468 0.0877511 0.0311311 0.834688 -0.549842
-0.155117 0.229708 0.199081 0.128679 0.839401 -0.528061
-0.377748 -0.0662396 -0.193612 0.890986 -0.345374 0.294722
-0.157814 -0.04124 -0.0590143 -0.516064 0.219251 0.828014
-0.501113 -0.115308 -0.236102 -0.132992 -0.782987 0.607655
0.446045 -0.182246 -0.078821 -0.00518396 0.8208 -0.571192
-0.226726 -0.077141 -0.149429 0.613813 0.541228 -0.574722
-0.251552 -0.0513675 -0.13576 0.528061 0.508295 -0.680285
-0.0657405 -0.154288 -0.168595 -0.0811358 -0.826353 0.557277
0.433519 -0.185592 -0.0797409 0.0315172 -0.840659 0.540647
0.053997 -0.0812801 -0.0870111 -0.0416056 0.888965 -0.456081
0.301525 0.076575 0.16076 -0.0202732 -0.781509 0.623564
-0.468343 -0.0708374 -0.219946 -0.0411433 0.900153 -0.433626
-0.193864 0.0897355 0.0328369 0.498458 0.438095 -0.748072
-0.153376 0.212117 0.202342 -0.0992341 0.73661 0.668998
-0.361456 0.12553 0.0494259 0.0880086 -0.803076 0.589341
-0.438067 0.158046 0.0274607 0.1971 0.714287 -0.671525
-0.488754 0.112124 -0.00470244 -0.982233 0.150982 -0.111454
0.146295 -0.0389983 0.0149562 0.0679849 -0.745956 0.662516
0.385244 0.065942 0.199541 -0.431134 -0.66544 0.609355
-0.271239 0.0428558 -0.009826 -0.0501339 -0.784164 0.618526
0.365323 -0.0451996 0.0396587 0.994305 -0.106552 0.00201397
-0.0940151 -0.0428623 -0.0431895 -0.0724436 -0.783957 0.616574
0.0999699 0.103672 0.15696 -0.0385004 -0.851382 0.523132
0.242003 -0.117702 -0.080866 0.384089 0.553974 -0.73864
-0.369647 -0.107644 -0.253576 -0.775994 0.586752 -0.231422
0.263103 -0.0359036 0.0399719 0.0316529 -0.794442 0.606514
0.0577824 0.0900534 0.120948 -0.209974 -0.68647 0.696182
-0.49661 0.198508 0.0879816 0.205762 -0.840703 0.500879
-0.428215 0.186472 0.0795186 -0.120118 -0.744086 0.657197
-0.392518 -0.013973 -0.0981198 -0.611099 -0.50693 0.607931
-0.173975 -0.142844 -0.208675 -0.108028 0.750951 -0.651462
0.0359771 -0.0493118 -0.0348574 -0.387667 -0.553894 0.736828
-0.14582 0.0834022 0.0665833 0.406497 -0.792821 0.454087
-0.224913 -0.0325401 -0.0988034 -0.438821 -0.452374 0.776398
0.455256 -0.114795 -0.0063135 0.161412 0.738607 -0.654527
0.277232 -0.0844911 -0.0361446 0.999073 -0.041332 -0.0120703
-0.356498 0.252888 0.179803 0.720321 0.486642 -0.494284
0.23759 -0.213608 -0.141501 -0.245079 -0.698704 0.672123
-0.122823 0.0204814 -0.0210998 0.1472 0.775643 -0.613767
0.0677806 0.0205845 0.0581236 -0.715312 -0.299723 0.631264
-0.0354473 -0.182982 -0.205441 0.187355 0.711415 -0.677337
0.475952 -0.232787 -0.107628 0.994932 -0.068921 0.0732113
0.457875 0.00512081 0.138469 -0.226898 -0.435596 0.871076
0.405475 -0.0101274 0.0956542 0.266174 0.655853 -0.706405
0.0567036 -0.190714 -0.171354 -0.0549613 -0.770362 0.635233
-0.117853 0.168383 0.154036 0.275481 0.647639 -0.710404
-0.220775 0.103769 0.041418 0.566656 0.38457 -0.728702
-0.261878 0.193313 0.12308 0.103403 0.817496 -0.566576
-0.248393 0.0945339 0.0334725 -0.300414 -0.546198 0.781933
0.379252 -0.0997136 -0.0174572 0.172733 0.732107 -0.658925
-0.398285 -0.0335324 -0.165111 -0.0442758 0.907052 -0.418684
-0.503252 0.0134613 -0.10437 -0.950883 -0.26537 0.159373
0.389233 0.144846 0.254893 -0.27359 -0.67616 0.684073
-0.493469 -0.113691 -0.280514 -0.709316 0.222927 -0.668711
-0.330578 0.229605 0.135717 0.534297 0.509582 -0.674428
-0.0253495 0.0669099 0.0408894 0.307797 0.610691 -0.729601
-0.363204 0.201024 0.119529 -0.347365 -0.562879 0.750003
-0.377131 0.142166 0.0749049 0.778371 -0.591301 0.210954
0.388316 -0.0237126 0.113877 -0.390173 -0.638014 0.663855
0.0689126 0.0142759 0.0236165 0.306375 0.314136 -0.898584
-0.155396 0.0871675 0.0308202 0.229478 0.713061 -0.662483
-0.0481801 -0.021914 -0.0616907 -0.501728 0.729401 -0.465019
0.331926 -0.24841 -0.187785 -0.0312828 -0.692006 -0.721214
-0.483144 -0.0161683 -0.161232 0.550494 0.35824 -0.754069
-0.194068 0.170246 0.136658 -0.27477 -0.607753 0.745075
0.135008 -0.0458389 -0.0189991 0.081151 0.808953 -0.582245
-0.158994 0.188641 0.165173 -0.372795 -0.659337 0.652916
-0.134193 -0.0650967 -0.11107 -0.229095 -0.690362 0.686233
0.118356 -0.123521 -0.122671 0.442916 0.573618 -0.689049
0.488862 0.0671393 0.19771 0.265977 0.701898 -0.660753
-0.0699188 -0.06482 -0.0821362 0.18749 -0.713308 0.675307
0.00667129 0.175647 0.204084 -0.725677 -0.405606 0.555767
0.426554 -0.147795 -0.047885 0.113572 -0.865944 0.487075
0.318586 -0.186935 -0.116854 0.293053 0.626199 -0.722492
0.302408 -0.218326 -0.15848 0.462756 0.659463 -0.592423
-0.31549 -0.0209066 -0.126635 0.0909174 0.976741 -0.194192
0.00451087 0.0796736 0.108763 -0.302833 -0.420664 0.855181
0.345493 -0.171059 -0.0744104 -0.48638 -0.605294 0.630122
0.49666 0.0927828 0.246268 0.290874 -0.767947 0.570657
-0.2815 0.0433266 -0.0194199 -0.333959 -0.0190171 0.942396
0.0834077 -0.140754 -0.127165 0.210932 -0.836271 0.506121
-0.021192 0.194406 0.219834 0.0216375 0.685953 0.727324
-0.236819 -0.16394 -0.230637 0.995851 -0.0908628 0.00493738
-0.0262986 -0.0974216 -0.118777 0.559169 0.54438 -0.625285
0.481531 -0.178583 -0.0645792 -0.368271 0.7905 -0.489373
-0.345367 0.0645288 -0.0381749 -0.68706 0.688701 0.231602
0.1034 -0.21865 -0.198484 -0.0735746 -0.648913 -0.757297
-0.378123 0.23791 0.143181 -0.101355 0.940993 -0.322891
0.100164 0.103153 0.127017 0.355779 0.502934 -0.787705
-0.111425 0.216802 0.195147 -0.927455 0.236204 -0.289887
-0.214252 -0.14343 -0.217668 0.0650689 0.783611 -0.617834
0.245226 0.0982959 0.199124 -0.205569 -0.712713 0.670657
0.355214 -0.124631 -0.0344374 0.166133 0.73434 -0.658137
-0.128501 -0.0862927 -0.129491 0.456024 0.45956 -0.762133
-0.334259 0.082127 -0.0047006 0.573975 0.228091 -0.786465
0.452534 -0.259048 -0.151005 -0.318397 -0.583165 0.747357
-0.101979 0.0525007 0.00384812 -0.503379 0.863988 0.0115682
-0.425609 0.217294 0.116255 -0.806372 -0.444207 -0.390441
0.0663184 -0.122026 -0.123836 -0.262345 0.862668 -0.432411
-0.177738 0.029126 0.0109642 -0.302116 -0.541303 0.784677
0.129204 0.0656026 0.099273 -0.333487 0.922651 -0.193653
-0.48521 -0.0772342 -0.225005 -0.913899 0.338722 -0.223733
0.306575 0.0992158 0.222851 0.0851778 -0.869646 0.486271
0.149003 -0.0111254 0.0148117 0.0617611 0.777223 -0.626187
0.0863652 0.192771 0.241251 0.0411959 -0.860603 0.507607
-0.347127 0.0216687 -0.0882441 0.167351 0.73372 -0.658519
0.415294 -0.246866 -0.172466 -0.098267 0.818579 -0.565925
0.380762 -0.216589 -0.137208 -0.284338 -0.647369 0.707153
0.362994 0.0808036 0.16164 0.21001 0.170273 -0.962758
-0.415676 0.247526 0.1591 -0.0761166 -0.931735 0.355071
0.418695 -0.104921 0.0145891 0.0510836 -0.737378 0.673546
-0.164656 -0.0778807 -0.131947 -0.327434 0.706186 -0.627765
-0.243675 0.155368 0.108277 -0.121237 -0.869304 0.479178
-0.373659 0.199529 0.125925 -0.750626 -0.410649 0.517618
-0.349545 -0.00397784 -0.107398 0.166656 0.726115 -0.667071
0.000459911 -0.105617 -0.109498 -0.433293 -0.570147 0.697989
0.0974187 -0.0852303 -0.0782353 0.0672256 0.894287 -0.442415
-0.115015 -0.143721 -0.188853 -0.346107 0.805203 -0.481516
0.0701722 0.0628626 0.0696621 0.370389 0.570467 -0.733062
0.258432 0.0768792 0.161728 0.139709 -0.779768 0.610282
0.278599 -0.18824 -0.13967 -0.0761051 0.879406 -0.469949
0.133575 -0.064281 -0.0535965 0.216372 0.693614 -0.687083
0.111476 0.143142 0.164406 -0.171645 0.790739 -0.587597
-0.147847 0.200141 0.181104 0.466558 0.570953 -0.675526
-0.0535434 0.138804 0.13833 0.169703 0.740345 -0.650454
-0.224066 0.0817772 0.0276479 0.159255 -0.985074 0.0653256
0.346592 -0.122558 -0.0492219 0.482418 -0.705279 0.519475
-0.419991 -0.121725 -0.233055 -0.146396 -0.756285 0.637653
0.500707 0.00914826 0.121889 0.901145 0.0795799 -0.426152
-0.36535 -0.0245696 -0.144496 -0.0987039 -0.776257 0.622642
-0.42492 0.0267349 -0.0767369 -0.140243 -0.733924 0.664596
0.227935 -0.17599 -0.128239 -0.270731 -0.650085 0.709996
0.380073 0.135114 0.24937 -0.837289 0.444121 -0.318912
-0.169638 -0.120554 -0.164282 -0.109135 0.73561 -0.668557
0.129676 -0.188049 -0.15716 -0.0191304 -0.845883 0.533025
0.405316 0.112816 0.234592 -0.660307 0.750011 -0.0384452
0.477688 -0.233948 -0.132791 -0.657938 -0.369488 0.656198
-0.33507 0.15035 0.0556601 0.198993 0.676874 -0.708692
-0.452075 -0.0820238 -0.208634 0.452256 -0.737498 0.501558
0.15979 -0.202862 -0.165837 -0.482774 0.0392548 0.874865
-0.373767 -0.000660845 -0.117322 -0.270557 0.76397 -0.58579
0.407996 -0.0403644 0.0593034 0.29603 0.671095 -0.679704
0.00965082 0.104835 0.094022 0.0844818 0.859331 -0.504394
0.427422 -0.194694 -0.103313 -0.259058 0.951055 0.168477
-0.290523 0.0367402 -0.0578243 0.212125 0.71254 -0.668797
0.0464306 0.166456 0.178257 -0.094531 0.768038 -0.633389
