ply
format ascii 1.0
comment Created by Open3D
element vertex 512
property double x
property double y
property double z
property double nx
property double ny
property double nz
end_header
0.181448 0.341107 -0.0291699 -0.84305 -0.362159 0.397626
0.0792501 0.37892 -0.207037 -0.441907 0.89007 -0.11177
0.0407235 -0.0577697 0.107878 0.85097 0.323202 -0.413993
-0.15664 -0.0174825 0.158757 0.331448 0.253696 0.908725
0.0446591 -0.00530179 0.159304 0.82492 0.391014 -0.408186
0.133569 -0.0690526 0.143744 -0.862638 -0.279854 0.421351
-0.48555 0.173451 0.159805 -0.0970995 0.832321 0.545723
0.0149326 0.247104 -0.0176507 0.313022 0.269338 0.910755
0.150182 0.0336973 0.0400968 0.342816 0.293072 0.892517
0.241741 -0.284355 0.0390026 0.455146 -0.257913 0.852246
-0.413494 0.256108 0.0612835 -0.242766 -0.323291 -0.91463
0.517529 -0.276771 0.061009 0.525937 -0.579738 0.62233
0.0581072 -0.110054 0.136645 0.445081 -0.888626 0.110665
0.466755 -0.142897 0.0131408 0.275644 -0.938757 -0.206772
-0.125848 -0.412011 0.241108 0.54377 -0.759983 0.356006
-0.441018 0.160882 0.28026 0.515461 -0.855398 0.0509348
0.0651135 0.0623043 -0.0229328 0.431139 -0.892887 0.129895
-0.552075 0.238156 0.296855 -0.157584 -0.561955 -0.812018
0.09534 0.342374 -0.136701 -0.844333 -0.358849 0.397907
0.0729496 0.417541 -0.0986878 -0.0894442 0.80417 0.587631
-0.276198 0.0483573 0.182744 0.304472 0.264726 0.914995
0.429363 0.09457 -0.0316195 0.850373 0.345071 -0.39723
-0.227626 -0.550004 0.23696 -0.283873 -0.270732 -0.919848
0.168296 0.210407 -0.10861 -0.241937 -0.320409 -0.915863
0.197975 0.583996 -0.201825 0.476776 -0.336542 0.812049
0.00987346 -0.113516 0.041022 -0.282593 -0.225465 -0.932366
-0.16039 0.391718 0.145062 0.305952 0.267688 0.913639
0.239325 0.631752 -0.0868023 -0.0252388 0.778707 0.62688
0.557605 -0.251098 -0.101592 0.00573729 -0.663845 -0.747848
0.400225 -0.264556 0.143305 0.443627 0.048412 0.894903
-0.0863314 -0.15107 0.175488 0.379241 0.26568 0.886335
0.136212 0.0475626 0.105813 0.798633 0.414213 -0.436593
-0.0406563 0.264593 -0.0527958 -0.307831 -0.276671 -0.910326
0.00880807 -0.15375 0.220851 0.227932 0.864084 0.448783
-0.350865 0.37404 0.135062 0.346895 -0.911625 -0.220461
-0.450429 0.254413 0.286502 0.333675 0.225441 0.915334
0.183155 0.341179 -0.113376 0.870643 0.331491 -0.363447
0.298359 0.264061 -0.152193 0.803437 0.416493 -0.425468
0.0997957 -0.11352 0.030268 -0.803493 -0.432079 0.409519
-0.391202 0.149721 0.21738 0.460395 -0.882908 0.0922437
0.220918 0.568882 -0.0377212 0.29556 0.379559 0.876686
-0.00064475 -0.381491 0.156203 0.505674 -0.392257 0.768393
0.130499 0.269664 -0.113647 -0.353218 -0.213163 -0.910933
0.0220405 0.418249 0.0722186 0.314046 0.282874 0.906288
-0.0211453 0.521955 0.028775 -0.0865997 0.823569 0.560567
-0.0487969 0.45142 -0.115908 -0.449126 0.0372702 -0.892691
0.0361077 0.389353 -0.0232546 -0.515704 0.851782 -0.092293
-0.371743 -0.0060612 0.238272 -0.868817 -0.307683 0.387927
-0.0462605 -0.545688 0.225226 0.218976 -0.863194 -0.454912
0.310253 0.264764 -0.0718199 0.224444 -0.899367 -0.375185
0.268611 0.367996 -0.112981 0.829994 0.40506 -0.383452
0.421615 -0.127781 0.0846215 -0.417607 0.898043 -0.138284
0.395599 0.135235 0.0141303 0.397461 0.235141 0.88698
0.260008 -0.199807 0.0777523 0.0997015 0.943079 -0.317271
-0.514624 0.109 0.168862 0.455704 -0.884298 0.101741
-0.304514 0.370346 0.0135884 -0.505524 0.345419 -0.790652
0.270617 0.175062 -0.134374 -0.342273 -0.238186 -0.90891
-0.255097 -0.437755 0.29646 -0.386329 0.909069 -0.156025
-0.161224 0.305498 0.0864784 -0.482598 0.773773 -0.410335
-0.153043 0.0615966 0.136254 0.335232 0.259058 0.905819
0.286789 0.173373 -0.138319 -0.306901 -0.248989 -0.918595
0.0330985 0.333889 -0.288105 -0.573198 0.610879 -0.546142
-0.115517 0.464447 -0.0713311 -0.535438 0.4617 -0.707206
0.291224 0.583718 -0.0665551 0.297404 0.277841 0.913431
-0.188195 -0.468854 0.408821 0.35564 0.228882 0.906164
-0.169188 0.161951 0.0933452 0.677382 0.596972 -0.429858
-0.208125 0.340669 -0.0348446 -0.239771 -0.286455 -0.927606
0.414019 -0.345681 0.0212013 0.304546 -0.878312 -0.368537
0.173009 -0.23326 0.0214319 -0.363573 -0.250406 -0.89728
0.359982 -0.0164567 -0.146884 -0.439361 0.885861 -0.149039
-0.0822946 -0.264399 0.209616 0.312539 0.25212 0.915836
0.153734 0.441934 -0.0992593 -0.327699 0.942802 0.06113
0.0905751 0.594631 -0.119369 -0.458865 0.846221 -0.270836
-0.286332 0.25303 0.150138 -0.560502 0.752129 -0.346612
0.130554 -0.291725 0.133173 0.473763 -0.869181 0.141682
-0.108278 -0.318 0.143249 -0.312662 -0.221834 -0.923598
-0.027915 -0.409541 0.335714 0.414585 0.228914 0.880748
0.275878 0.376475 -0.0959596 0.790736 0.438501 -0.427146
0.0324994 0.467952 0.0300114 -0.32478 -0.223186 -0.919079
0.0169573 -0.511027 0.180211 0.183016 -0.857642 -0.480577
0.40322 -0.170277 0.0347917 0.301704 -0.949592 -0.0851485
-0.156803 0.385135 0.119434 -0.330064 -0.196356 -0.92331
-0.046315 0.297428 0.1062 -0.823846 -0.384038 0.416884
0.0115591 -0.272696 0.14117 0.343218 0.256115 0.903663
-0.475162 0.259156 0.0871412 -0.43452 0.029219 -0.900188
-0.235948 -0.0635383 0.178022 0.434079 -0.888042 0.151515
0.14055 0.120434 -0.0715938 -0.315404 -0.300807 -0.90002
-0.119836 0.458633 -0.0715376 -0.535942 0.386335 -0.750674
-0.112973 0.431813 0.095406 -0.821834 -0.403974 0.40174
0.367364 0.215287 -0.0117964 0.493751 -0.866065 0.0783599
-0.271962 -0.0726891 0.243853 0.475303 -0.877383 0.0654697
0.479649 -0.0327859 0.0329894 0.374633 0.268242 0.887523
0.0200159 -0.456104 0.127341 -0.184029 -0.496163 -0.848502
-0.357411 0.216135 0.129977 -0.381661 0.866466 0.321826
0.602227 -0.050237 -0.0205035 0.849419 0.359306 -0.386505
0.262402 -0.238351 -0.0226624 -0.309258 -0.229229 -0.922938
-0.348941 0.198728 0.0546597 -0.316794 -0.264667 -0.91082
0.601556 -0.0485933 -0.0181519 0.849157 0.340073 -0.404082
0.336568 -0.278737 0.171522 0.382042 0.124727 0.915689
0.548429 -0.071 0.0260887 -0.0960276 0.840878 0.532637
-0.184167 -0.260339 0.328611 0.30722 0.267051 0.9134
0.0349074 0.471763 -0.154855 -0.361597 -0.0829502 -0.928637
0.314608 -0.161257 -0.262556 0.832858 0.395127 -0.387584
-0.450634 0.31094 0.221205 0.057857 -0.800939 -0.595944
-0.198029 -0.375355 0.25358 -0.826866 -0.384402 0.410521
0.0259962 0.175134 0.0442149 -0.39871 0.903458 -0.157461
-0.276649 0.186205 0.118788 0.868081 0.323542 -0.376504
-0.0650053 -0.256942 0.107995 -0.350339 -0.207764 -0.913289
0.132509 -0.180011 0.0194796 -0.261847 -0.321284 -0.910062
-0.090596 -0.157015 0.104791 0.352056 0.860204 -0.368924
-0.0825178 0.342418 -0.0150616 -0.234376 0.870499 0.432782
-0.209766 0.0138633 0.130966 0.312535 0.270032 0.910717
-0.0665464 -0.391594 0.201081 0.542607 -0.668038 0.509217
0.115737 0.358235 -0.0476128 0.406253 -0.900867 0.152962
-0.179985 -0.418293 0.191693 -0.48669 0.440416 -0.754431
0.273117 0.16701 -0.0239211 0.51369 -0.854642 0.0755596
-0.179286 0.0806274 0.109292 -0.438122 0.890914 -0.119674
0.192354 -0.206596 0.140251 -0.8457 -0.367807 0.386665
-0.176492 0.123233 0.188764 -0.204707 -0.917545 0.340892
0.164299 0.198933 -0.104262 -0.336631 -0.255312 -0.906364
0.244933 0.445505 -0.0940304 0.855206 0.350767 -0.381556
0.347801 -0.337817 -0.0097702 -0.0306642 -0.737513 -0.674636
0.119512 0.438894 -0.0317322 -0.492006 0.647653 -0.581786
0.63453 -0.23305 -0.118724 0.09322 -0.821217 -0.56295
0.306227 0.114137 -0.0564172 -0.416949 0.891489 -0.177202
0.172331 0.250998 -0.0329235 0.300881 0.327364 0.895714
0.169158 -0.0821585 -0.0223335 -0.311139 -0.25563 -0.915339
0.0627205 0.265397 -0.304197 -0.320367 -0.250316 -0.913623
0.055984 -0.0230024 -0.00109965 -0.37283 -0.273509 -0.886674
-0.106792 0.31582 0.139933 0.553295 -0.432846 0.711695
0.275749 -0.40616 0.088348 0.327574 -0.917199 -0.226808
-0.287947 0.12359 0.162107 0.314709 0.267246 0.91079
0.28449 0.470474 -0.209259 0.931239 0.267556 -0.2474
-0.0721821 0.0937956 0.00867482 -0.261855 -0.270779 -0.926342
0.194733 -0.123706 0.032541 0.300869 0.274895 0.913187
0.114565 0.477457 0.0249699 0.304045 0.192988 0.932905
0.515729 -0.180093 -0.130968 -0.350914 -0.208749 -0.912844
0.311122 0.270863 0.0012359 -0.781231 -0.444665 0.438122
0.156092 0.374409 -0.211662 0.366649 0.0872763 -0.926256
0.0836716 -0.358025 0.285911 0.288647 0.27835 0.916081
0.655602 -0.230906 -0.0422732 -0.38418 -0.226286 -0.895098
0.0729409 0.183341 0.109535 0.306401 0.312541 0.899131
0.509949 -0.122631 -0.0330862 0.418294 -0.905539 0.0709127
-0.298234 -0.0568828 0.310251 0.327345 0.269658 0.90561
0.0897547 -0.164132 0.108358 0.841473 0.369039 -0.394631
-0.320441 0.286844 0.19951 -0.45184 0.0981194 -0.886687
0.213045 0.57543 -0.0406875 0.256901 0.359319 0.897158
-0.340022 0.0820683 0.105107 -0.332635 -0.284804 -0.899022
0.314374 0.343014 -0.0209391 0.294901 0.269811 0.916644
0.301787 0.505977 -0.13174 0.86889 0.357973 -0.341886
0.175805 -0.402796 0.0715953 0.795886 0.464221 -0.388671
0.0719191 -0.215823 0.0488703 -0.401158 -0.296656 -0.866641
-0.583113 0.268005 0.200711 0.502139 -0.801322 0.325176
-0.298732 0.40807 0.147827 -0.171173 0.831775 0.528063
0.0352764 0.0750994 0.0644475 -0.879693 -0.303476 0.366118
-0.107202 0.253783 0.0881342 0.81289 0.402281 -0.421163
-0.0603816 0.0256339 0.124286 -0.824937 -0.415337 0.383372
-0.136621 0.23325 0.00591082 0.83953 0.370167 -0.397702
0.530226 -0.262414 -0.0915093 0.0123554 -0.795151 -0.606285
0.37344 0.147586 -0.0534218 -0.468615 0.87914 -0.0866794
0.0827256 0.217467 -0.0802632 -0.330687 -0.190851 -0.924241
-0.118096 -0.348052 0.255138 -0.437464 0.883755 -0.166137
0.343828 -0.19692 0.0645297 0.289923 -0.950658 -0.110423
0.147471 0.614617 -0.15525 -0.50656 0.796608 -0.329866
0.156036 0.538397 -0.00585593 0.290027 0.334432 0.896683
0.0936851 0.41005 0.0449656 0.472623 -0.456139 0.754033
0.122586 -0.254292 0.224575 0.309373 0.239718 0.92023
-0.140762 -0.218368 0.231869 0.830217 0.388606 -0.399657
0.274896 0.425287 -0.0309009 0.336435 0.268862 0.90251
0.669219 -0.177026 0.0115695 0.498031 -0.256082 0.828485
0.530858 -0.272143 -0.0145398 -0.418191 0.905091 0.0769869
-0.220751 0.259347 0.185823 0.446707 -0.888129 0.10807
0.380315 -0.119322 -0.0329668 -0.430487 0.895329 -0.114315
-0.200894 -0.203103 0.279044 -0.492657 0.865897 -0.0866679
-0.0531897 0.0178826 0.0219703 -0.315001 -0.269393 -0.910056
0.214253 0.651167 -0.180247 -0.435394 0.85741 -0.274372
0.339515 -0.136198 0.0238904 0.293069 0.192346 0.936543
0.151633 -0.1618 0.0912348 -0.831437 -0.389498 0.396238
-0.206721 -0.127181 0.258975 0.314401 0.267183 0.910915
-0.232681 -0.0171219 0.238002 0.28377 0.295992 0.912065
0.369847 -0.279491 -0.0493604 -0.283584 -0.310578 -0.90726
0.146342 -0.338072 0.0792198 0.418657 -0.124171 0.899615
0.521241 -0.107511 -0.140787 -0.543849 0.452416 -0.706787
0.104373 0.113985 0.00277678 -0.0288521 0.957979 -0.285383
0.178823 -0.286455 0.185933 0.820998 0.386002 -0.420672
0.34139 -0.102503 -0.174344 0.431584 0.0419949 -0.901095
0.408393 -0.085664 -0.147322 0.344331 0.102957 -0.933186
0.639683 -0.112125 0.000648799 0.81206 0.411813 -0.413483
0.287089 -0.00272828 -0.0869017 -0.287192 -0.305317 -0.907911
0.515871 -0.212175 0.0879542 0.404513 0.0582408 0.912676
-0.0264923 -0.116468 0.144384 0.313265 0.269905 0.910503
-0.247356 -0.142838 0.139063 -0.311113 -0.283713 -0.907037
-0.189291 0.180648 0.195111 -0.332363 0.670323 0.663478
-0.229 0.425165 -0.00844012 0.853862 0.340403 -0.393759
0.248682 -0.114554 -0.247437 -0.506798 0.249648 -0.825125
-0.266734 0.209497 0.0398423 -0.346187 -0.350596 -0.870194
-0.428069 0.326646 0.0792832 -0.589031 0.455986 -0.667173
0.319053 -0.236632 0.00632521 0.52862 -0.44405 0.72345
-0.393686 0.0564225 0.244168 -0.886026 -0.315133 0.340073
0.65453 -0.224303 -0.0461727 -0.358232 -0.260402 -0.896583
-0.0344759 0.362481 0.0232879 -0.522625 0.80476 -0.281469
-0.34235 0.392397 0.0669268 -0.498802 0.743709 -0.445077
0.0662961 0.105308 0.133653 0.3646 0.315541 0.876071
-0.129567 0.00322294 0.0921099 -0.317782 -0.268187 -0.909445
0.234533 -0.391401 0.208887 0.541403 -0.470349 0.696889
0.43702 -0.29258 -0.0570194 -0.0759115 -0.640224 -0.764428
0.300013 -0.072142 0.0198057 0.317706 0.248655 0.915005
0.0533686 -0.327992 0.171599 0.459878 -0.867887 0.187844
0.417672 -0.346257 0.0359829 0.350287 -0.930226 -0.109446
0.23059 -0.375919 0.218303 0.49326 -0.304577 0.814818
-0.49234 0.204379 0.281485 -0.506114 0.263672 -0.821173
-0.352925 0.320698 0.0561288 0.457189 -0.149072 0.876787
-0.209245 0.450263 0.0982495 -0.198827 0.870937 0.449374
-0.152284 -0.164956 0.16383 0.322744 0.246735 0.913761
-0.0706547 0.167422 0.102109 0.438538 -0.890017 0.124718
0.479009 -0.0728606 -0.0885454 0.821815 0.412324 -0.393203
0.161567 0.184247 -0.0141945 0.826392 0.380759 -0.414847
0.00287985 0.0673325 -0.00425019 -0.834703 -0.377303 0.40114
0.221764 0.481381 -0.167337 -0.132901 0.888495 0.43922
0.0726814 -0.000534858 0.0819708 -0.802113 -0.427197 0.417274
0.027223 0.280563 0.0986137 0.314613 0.267855 0.910644
-0.0523884 -0.339838 0.130425 -0.343547 -0.270687 -0.89928
0.625489 -0.106231 0.0230208 0.273838 0.265856 0.924302
0.0687768 0.18173 0.11198 0.313788 0.256611 0.91416
0.0382922 -0.4224 0.288233 -0.425668 -0.0551044 -0.9032
0.357129 -0.171644 0.136098 0.298424 0.310323 0.902575
-0.12243 0.172864 0.151605 -0.82695 -0.391378 0.403704
-0.352888 0.0218336 0.296211 -0.874868 -0.280217 0.395075
0.0647812 -0.239342 0.160723 -0.839147 -0.370768 0.39795
-0.139164 -0.576156 0.248418 0.137923 -0.872771 -0.468239
-0.0311911 0.101871 0.101753 0.805366 0.435898 -0.401719
0.11732 -0.226593 0.108177 0.825927 0.395758 -0.401522
-0.289756 -0.0474988 0.125719 -0.343207 -0.17856 -0.922131
0.279348 0.0738965 -0.106326 -0.300709 -0.299376 -0.90551
0.0203334 -0.175209 0.129519 -0.902522 0.398297 0.163749
0.0253713 -0.514686 0.269316 0.511398 -0.796363 0.322922
-0.375136 0.312174 0.238537 0.268597 0.359608 0.893609
-0.274723 0.428962 0.0496063 -0.474002 0.842447 -0.256133
-0.207044 -0.0499667 0.0993861 -0.311479 -0.263076 -0.913111
0.0862313 -0.488606 0.234609 0.494953 -0.815292 0.300535
0.0627162 -0.415525 0.0968039 -0.221776 -0.287483 -0.931756
0.0406146 0.161491 -0.0510023 -0.34631 -0.26024 -0.901302
0.00563222 0.517226 -0.097273 0.550709 -0.628302 0.549506
-0.0147245 0.527258 0.0239999 -0.0964239 0.806625 0.583146
-0.161457 -0.530464 0.381224 -0.468536 0.210666 -0.857959
0.165295 -0.41552 0.244019 0.489105 -0.413815 0.767811
-0.00358768 0.541906 -0.0990043 -0.494893 0.692728 -0.524604
-0.536353 0.243036 0.3191 0.230546 0.423418 0.876108
0.0891574 0.116089 0.07328 0.858941 0.343998 -0.379323
0.596981 -0.183049 0.0496962 0.45028 -0.0340875 0.892236
-0.0396142 0.448861 0.0859131 0.323196 0.197772 0.925436
0.0417118 0.392902 -0.015303 -0.531225 0.828345 -0.177891
0.147226 0.232708 -0.18146 0.408469 -0.898845 0.15884
-0.449185 0.102572 0.134211 -0.318526 -0.232607 -0.918931
0.340192 0.193635 -0.0905345 0.442849 -0.888278 0.121845
0.279576 -0.341182 0.00186732 -0.207272 -0.46331 -0.861616
-0.303167 0.145208 0.0709843 -0.269204 -0.301357 -0.91472
0.3511 -0.214775 -0.207881 0.39981 -0.916586 0.00462762
0.0165479 -0.155225 0.208746 0.252419 0.894707 -0.368489
-0.0580427 0.206548 0.149411 0.841212 0.365393 -0.39856
-0.20375 -0.407344 0.344502 -0.449892 0.88678 -0.105919
-0.528795 0.207967 0.117294 -0.262487 -0.312811 -0.912825
-0.221539 0.140393 0.144234 -0.956206 0.00572042 0.292639
-0.431338 0.0863467 0.199286 -0.860316 -0.354118 0.366683
-0.301304 0.0132785 0.232706 0.42573 -0.896429 0.123166
-0.303351 0.0942692 0.22713 0.330911 0.203253 0.921513
0.469389 -0.20148 -0.0773733 0.405516 0.00196626 0.914086
-0.0968765 -0.357466 0.332477 -0.0958463 0.810733 0.577517
0.293892 0.583249 -0.0783431 0.832954 0.380863 -0.401412
-0.292537 0.364768 0.00137679 -0.495682 0.212371 -0.842139
0.107624 -0.126722 0.181548 0.865008 0.327726 -0.379943
-0.0828794 -0.352653 0.326053 -0.0937537 0.828393 0.552246
0.221588 -0.433975 0.136187 0.392729 -0.919582 -0.0115152
-0.190669 -0.469881 0.401168 -0.827494 -0.409888 0.383725
0.372437 0.0482052 -0.0101751 -0.427483 0.895321 -0.125138
-0.0800271 -0.4611 0.370753 0.408359 0.135954 0.90264
0.318575 -0.122061 -0.103598 -0.820333 -0.412231 0.396384
0.469716 0.0021564 -0.0328607 0.831891 0.386963 -0.397766
0.0873876 -0.284346 0.0633185 -0.308873 -0.288094 -0.906421
-0.337139 0.190022 0.198582 0.818779 0.408375 -0.403523
0.404673 -0.176375 -0.117877 0.468293 -0.880188 0.0772684
0.213051 -0.036414 -0.0513544 -0.279387 -0.269555 -0.921565
-0.193002 -0.44842 0.257862 0.497308 -0.605515 0.621319
0.0488547 0.326018 -0.0498353 0.321284 0.262319 0.909926
-0.0373052 -0.11525 0.131627 -0.816859 0.568086 0.100094
0.587145 -0.143051 -0.142774 0.830752 0.374899 -0.411464
0.0945639 0.230127 -0.244016 -0.830384 -0.385143 0.402651
0.0837195 -0.00851873 -0.0149654 -0.303786 -0.272254 -0.913012
0.189666 0.00568354 -0.0115055 -0.818387 -0.403544 0.40914
-0.0503806 -0.0627234 0.0477028 -0.273013 -0.274266 -0.922086
-0.0771536 0.103628 0.162201 -0.814848 -0.408058 0.411718
0.0915894 -0.291118 0.0653042 -0.28521 -0.233816 -0.929508
-0.423193 0.215584 0.240885 -0.506688 0.413913 -0.756269
-0.0825592 0.299598 0.0384091 -0.805188 -0.412764 0.425792
0.295507 -0.0656475 -0.215082 0.83443 0.380141 -0.399024
-0.19497 0.331579 0.176876 0.338144 0.211381 0.917048
-0.00392914 0.30147 0.0272728 0.845904 0.364375 -0.389457
-0.0259644 0.234492 0.0883822 -0.763669 -0.42236 0.488285
0.413715 -0.20192 -0.0428244 0.542953 -0.318704 0.776937
-0.158683 0.395525 -0.038867 0.384417 0.0361518 0.922452
-0.0386163 -0.372594 0.26949 0.207221 -0.890424 -0.405221
0.287515 0.472158 -0.197924 0.807204 0.403942 -0.43041
-0.111933 0.164302 0.00151198 -0.333101 -0.250293 -0.909064
0.242889 0.23641 -0.0782636 0.473935 -0.878927 0.0535941
0.0165428 -0.258674 0.0810065 -0.202757 -0.279001 -0.938641
-0.149814 -0.0955728 0.101431 -0.48441 0.874783 0.0100916
-0.166204 0.39433 -0.0600103 -0.429348 -0.010138 -0.903082
-0.0252241 0.396239 -0.0795134 0.0848358 0.658708 0.7476
0.0831227 0.30794 0.0508698 -0.156289 0.961461 -0.226201
0.3701 -0.0116315 -0.145063 -0.534381 0.844716 -0.0298478
-0.10849 -0.573427 0.332332 0.50078 -0.818985 0.280148
-0.484048 0.338618 0.154242 0.302571 0.333523 0.892868
0.245241 -0.0230234 0.0227519 0.313659 0.31149 0.89699
0.260024 -0.197004 0.0859714 0.128923 0.933322 -0.335095
0.38951 0.0722346 -0.136627 0.8805 0.345886 -0.324164
0.376581 -0.104438 -0.0360732 0.3315 0.282476 0.900175
0.315429 -0.232345 0.125482 0.0241092 -0.773327 -0.633548
-0.22535 0.427702 -0.0025753 0.845426 0.354204 -0.399742
0.069684 0.579765 -0.0468988 -0.180059 0.94211 0.282857
0.0833478 -0.350226 0.11334 0.525434 -0.367434 0.767405
-0.352052 0.0919884 0.188533 -0.447906 0.887723 -0.106432
-0.224376 -0.155358 0.199966 -0.850446 -0.345862 0.396385
0.292167 -0.389866 0.157879 0.514839 -0.68729 0.512418
0.239939 0.535361 -0.238329 0.887663 0.315093 -0.335814
0.108045 0.308236 -0.262789 0.818995 0.384866 -0.425589
-0.200276 -0.267992 0.159386 -0.267188 -0.269174 -0.925287
0.059987 0.557881 -0.0605346 0.335966 -0.934166 -0.120253
0.341961 -0.378395 0.0602305 0.283102 -0.941113 -0.184825
-0.0186661 -0.17217 0.0667235 -0.312309 -0.265913 -0.912005
0.143522 -0.468563 0.169423 0.399291 -0.908845 -0.120692
0.317293 0.353609 -0.0284199 0.852811 0.350378 -0.387232
0.256427 -0.158942 0.143522 0.848419 0.348071 -0.398788
0.587352 -0.091164 -0.0881438 0.824821 0.407533 -0.391901
0.595162 -0.257465 0.00522916 0.481609 -0.761557 0.433686
-0.183036 0.231943 0.0842937 -0.726845 -0.558973 0.399055
0.357591 -0.329274 0.120799 -0.569495 0.547328 -0.613276
-0.341116 -0.0678917 0.227813 -0.302758 0.93376 0.190868
0.200612 -0.0762807 0.125003 0.333485 0.860754 -0.384564
-0.0886899 -0.158402 0.106108 0.30193 0.881904 -0.362054
-0.23463 0.0854385 0.0667947 -0.336079 -0.236458 -0.911668
-0.401279 0.0484767 0.134997 -0.380648 -0.288185 -0.878667
0.2687 -0.233579 0.181726 0.318554 0.25082 0.914118
0.163666 0.455191 -0.196241 -0.393193 -0.235873 -0.888686
0.0976476 0.18968 0.0125278 0.320648 0.253626 0.912611
0.211847 0.496447 -0.0135892 0.334003 0.255093 0.907397
-0.297966 0.356476 0.201066 0.214308 0.420163 0.88178
0.371666 -0.0218123 0.0298513 -0.846036 -0.354691 0.398018
-0.0632006 -0.521689 0.227541 -0.149784 0.860975 0.486094
-0.305545 0.248705 0.0804206 -0.180508 0.826534 0.533158
-0.232109 -0.219125 0.194405 0.273108 0.274719 0.921923
-0.0562819 -0.246208 0.101318 -0.310807 -0.271461 -0.910883
-0.100461 0.372092 -0.0816267 -0.237869 -0.263693 -0.934818
0.276359 0.420064 -0.0289037 0.29466 0.304128 0.905915
0.256466 0.0530775 -0.00445915 0.306171 0.275269 0.91131
0.0756519 -0.467838 0.227872 -0.494984 0.823667 -0.2767
-0.140093 -0.498794 0.217023 0.317384 0.239107 0.917657
-0.268551 0.0352371 0.0936538 -0.313143 -0.263534 -0.91241
0.349116 0.0348171 -0.0808315 0.338523 0.209127 0.917425
0.339514 -0.190735 -0.0568299 -0.542904 0.468748 -0.6968
0.0625366 0.264268 -0.0898481 -0.391355 -0.171489 -0.90412
0.141007 0.578762 -0.0638105 0.125185 -0.855447 -0.502532
-0.267009 -0.155603 0.317493 -0.845576 -0.362075 0.392304
-0.0366688 0.166341 0.00363612 -0.837986 -0.372922 0.398383
0.208747 0.136556 -0.0169879 0.464315 -0.880316 0.0972384
-0.401596 -0.0223462 0.157396 -0.851863 -0.31667 0.417192
0.117978 0.246758 0.0416804 0.81207 -0.57443 -0.102825
-0.00313278 0.348553 0.0892606 0.308413 0.268488 0.912576
-0.45862 0.145436 0.218816 0.439723 -0.888284 0.132648
0.207986 0.0407238 -0.0738578 -0.233187 -0.263617 -0.936018
-0.356349 0.108909 0.279728 0.246823 0.333897 0.90972
-0.233883 0.389444 0.138073 -0.0931828 -0.615628 -0.782508
0.208259 0.355271 -0.0327425 -0.484225 0.87105 -0.0824453
-0.0487673 -0.5173 0.299873 -0.486502 0.761836 -0.427694
-0.267582 -0.482798 0.232299 -0.837519 -0.373828 0.398515
-0.0410556 0.445993 0.0626788 -0.29478 -0.298401 -0.907779
0.201568 0.431457 -0.0458633 0.32107 0.299456 0.898465
0.107225 0.20404 -0.265852 0.324208 -0.901386 -0.287039
-0.542125 0.294042 0.145037 -0.60762 0.643541 -0.46546
-0.120933 0.0600697 0.0357378 -0.338699 -0.227256 -0.913038
0.153342 0.299582 -0.218678 0.390327 0.0506433 -0.919282
0.267048 -0.317673 0.197162 -0.852239 -0.353449 0.385697
-0.196721 0.199547 0.0206819 -0.335943 -0.263228 -0.904353
-0.423616 0.191849 0.145605 -0.260836 0.856676 0.445052
0.201941 -0.340068 0.0362889 -0.82706 -0.39016 0.404657
0.314047 -0.108953 -0.0960335 -0.863312 -0.318755 0.391265
0.480398 -0.316925 -0.00339156 0.317342 -0.940008 -0.125214
-0.0558493 0.450182 -0.112771 -0.430611 0.0233269 -0.902236
-0.121549 0.305389 -0.0452382 -0.841367 -0.363748 0.399736
0.0525326 -0.179833 0.0463183 -0.269115 -0.290179 -0.918353
0.00420474 -0.340342 0.304173 0.313249 0.270598 0.910303
-0.515616 0.324168 0.213118 -0.345401 0.920606 0.182159
0.216269 0.632897 -0.0886643 -0.101604 0.844449 0.525911
-0.120033 -0.442013 0.167195 -0.311612 -0.279979 -0.908025
-0.110696 0.462767 0.0936084 0.0796423 0.643979 0.760887
0.0705099 -0.00502095 0.0702256 -0.842675 -0.359053 0.401222
0.457607 -0.125825 -0.128408 0.375161 0.0578768 -0.925151
0.102605 0.430812 -0.164928 -0.296206 -0.279636 -0.913272
0.0691224 -0.292572 0.267262 -0.0771288 0.84121 0.535179
0.0350508 0.358743 -0.114955 0.116169 -0.780094 -0.614783
-0.172517 -0.099157 0.191257 0.356605 0.23406 0.904461
-0.407457 0.344112 0.177655 0.25476 -0.889803 -0.378612
-0.0193864 -0.332388 0.211303 -0.443026 0.889561 -0.111398
-0.143992 0.253947 0.164424 0.31387 0.271119 0.909934
0.385253 0.0907753 -0.128477 0.785373 0.420149 -0.454603
-0.336427 0.296636 0.0211295 -0.367324 -0.205766 -0.907046
-0.158606 0.298828 0.0198375 0.840871 0.368709 -0.39622
-0.0661159 0.522627 -0.0491017 -0.534907 0.824011 -0.186763
0.281496 -0.0967186 0.119734 0.422675 -0.423644 0.801169
0.411642 -0.0436954 -0.0466177 0.423104 -0.894847 0.142238
0.248681 0.246706 -0.00887041 0.446388 -0.889496 0.0976482
-0.353824 0.146205 0.147524 0.452875 -0.886323 0.0966199
-0.103598 0.509614 0.0145904 -0.335989 0.92756 0.163536
0.161848 0.443517 -0.105155 -0.366787 0.927642 0.0703396
0.498702 -0.143517 0.0771423 0.294895 0.284497 0.912194
0.329731 -0.192822 -0.146558 -0.849264 -0.359597 0.386576
0.436743 -0.0272699 -0.126548 0.854154 0.348901 -0.385602
-0.0123759 0.324977 -0.0796199 -0.328878 -0.265755 -0.906208
-0.0806792 -0.058586 0.11076 -0.444479 0.888624 -0.113071
-0.571007 0.161983 0.1726 0.158319 0.533814 0.830649
-0.518529 0.115704 0.2475 0.436023 -0.885306 0.161607
0.0684136 0.537026 0.0142415 0.0593907 0.569721 0.81969
-0.0719755 -0.399911 0.138343 -0.30209 -0.250059 -0.919898
0.142048 -0.194308 0.191436 0.814267 0.396374 -0.424094
0.30937 0.503085 -0.123917 0.820938 0.391434 -0.41574
-0.272733 0.237141 0.214636 0.451602 -0.887474 0.0919016
-0.477485 0.251631 0.0880397 -0.385639 -0.0867344 -0.918564
-0.493755 0.15755 0.327638 0.600052 -0.444482 0.665112
-0.237137 0.157167 0.0468424 -0.328945 -0.238472 -0.913743
0.262448 -0.31072 0.186499 -0.852721 -0.322318 0.411069
-0.138608 -0.236472 0.129864 -0.295103 -0.309707 -0.903878
0.430997 0.0408216 -0.0809809 0.845929 0.36075 -0.392763
-0.35811 0.221919 0.263 0.344823 0.25677 0.902866
0.556085 -0.0826198 0.0422045 0.31494 0.265183 0.911313
0.24776 -0.119159 -0.243894 -0.805023 -0.41145 0.427373
0.00112455 0.0617194 0.173351 0.304484 0.276421 0.911527
-0.0585443 0.367452 0.117121 0.313679 0.269436 0.9105
-0.234217 -0.222931 0.325727 -0.805806 -0.440942 0.39528
-0.255239 -0.249817 0.253266 -0.838489 -0.372038 0.39815
-0.259503 0.279701 0.0467163 -0.0764367 0.769674 0.633844
0.21911 0.414147 -0.17658 0.868019 0.324067 -0.376197
-0.396442 -0.0198155 0.166675 -0.853167 -0.33653 0.398564
0.204134 -0.0807541 0.113536 0.258179 0.909482 -0.325862
-0.301481 -0.202679 0.175687 -0.329833 -0.255635 -0.908769
0.337627 -0.207599 -0.0587702 -0.289334 -0.273885 -0.917209
0.272376 -0.0646913 -0.14332 -0.79388 -0.430164 0.429784
-0.0257327 0.138503 0.159059 0.31593 0.291001 0.903054
-0.171549 -0.33937 0.346343 -0.890415 -0.351177 0.289543
-0.0664022 0.23234 0.00302107 -0.833009 -0.386203 0.396161
0.112296 0.298355 -0.0257107 0.310626 0.264999 0.912846
0.263774 0.3224 -0.169643 0.823587 0.390463 -0.411392
-0.145786 -0.502988 0.219954 0.339102 0.252771 0.906155
0.282679 -0.193354 -0.246005 -0.254319 -0.377679 -0.890326
-0.426693 0.334315 0.0792228 -0.552346 0.553686 -0.623174
0.286873 -0.132325 -0.178121 -0.825295 -0.39859 0.400017
0.0353201 0.350241 -0.256508 -0.451697 0.888894 -0.0764018
0.167394 -0.032086 0.0496783 0.326304 0.272167 0.905235
0.228384 -0.116699 -0.0329303 -0.412099 -0.244155 -0.877817
0.2143 0.263864 -0.187085 0.404463 -0.89832 0.171554
0.319275 0.110201 0.00814732 0.307101 0.301056 0.902804
-0.3325 -0.11379 0.168242 0.478029 -0.875154 0.0747857
0.364081 0.0566744 -0.000299381 0.824407 0.407819 -0.392476
0.0100438 -0.512538 0.18201 0.127061 -0.868474 -0.479175
0.128931 -0.00437954 0.147915 0.316505 0.276463 0.90741
0.370153 -0.17742 0.131373 0.335752 0.253822 0.907108
-0.361016 0.102288 0.285165 0.307834 0.256124 0.916318
-0.0155518 -0.026077 0.113277 -0.386417 0.909926 -0.15072
-0.138175 -0.42274 0.325756 0.14865 -0.823239 -0.547888
0.057456 -0.292984 0.26469 -0.0939352 0.819169 0.565808
-0.0478462 -0.196164 0.182155 -0.931521 0.260431 0.253861
0.439485 -0.20463 0.115404 0.281972 0.268904 0.920968
0.25801 -0.155923 0.0209625 0.275198 0.29567 0.914793
0.137729 0.558589 -0.199462 -0.488398 0.277865 -0.827199
0.613593 -0.21238 -0.143137 -0.084851 -0.687587 -0.721128
0.300756 -0.0716867 0.0918774 0.937143 0.0694332 -0.341969
-0.103704 0.23125 0.074246 0.806302 0.41803 -0.418482
0.189346 0.352604 -0.120633 0.297834 0.285965 0.910779
0.23416 0.508952 -0.0725925 -0.499526 0.412224 -0.761936
-0.119347 0.0111932 0.0856852 -0.319352 -0.339081 -0.884895
0.106403 -0.0732412 0.0843937 -0.838193 -0.372246 0.398579
-0.324745 0.00686043 0.119989 -0.380002 -0.250631 -0.890384
0.100144 -0.380431 0.259281 -0.333616 -0.245524 -0.910175
-0.0632334 -0.46952 0.180493 0.280737 0.323233 0.903718
0.0875317 -0.475993 0.142822 0.1546 -0.870059 -0.468076
-0.184076 -0.585672 0.303656 -0.827351 -0.388667 0.405497
0.0858423 0.299206 -0.196953 -0.80838 -0.414649 0.417836
0.384 -0.34154 0.122078 0.540921 -0.652818 0.530315
0.143389 0.1194 -0.0747021 -0.310667 -0.282104 -0.907691
0.212098 -0.435689 0.121867 0.2804 -0.940553 -0.191668
-0.182256 -0.33354 0.173452 -0.321069 -0.264428 -0.909391
0.14833 -0.440264 0.241107 0.593671 -0.528367 0.606945
0.00263395 0.059104 0.153081 0.910213 -0.348893 -0.223128
0.0205133 -0.0613265 0.201423 0.35916 0.272372 0.892646
-0.134266 -0.5689 0.237375 0.088128 -0.81397 -0.574183
-0.234835 -0.326695 0.222212 -0.87301 -0.317751 0.369983
-0.576771 0.297952 0.255156 -0.291875 0.925446 0.241577
-0.116866 0.123008 0.0656104 0.328515 0.213366 0.920083
0.0881448 0.511747 -0.181256 -0.467658 0.0622177 -0.881717
0.321827 0.520534 -0.0591158 0.307232 0.302645 0.902228
-0.00294343 -0.227169 0.226729 -0.173504 -0.927839 0.330168
-0.286969 -0.14633 0.25343 -0.908094 0.365922 0.203631
0.00947096 -0.341665 0.100657 -0.542679 0.460158 -0.702677
-0.594213 0.227343 0.14634 -0.391614 0.253638 -0.884481
-0.146979 -0.287825 0.256487 0.438254 -0.889015 0.132613
0.429077 -0.286366 0.0938791 -0.5585 0.435076 -0.706248
0.210051 0.128748 -0.0904321 0.420293 -0.899086 0.122469
0.193539 -0.271739 0.0827975 -0.812738 -0.430843 0.392213
0.0539943 0.163114 -0.0339178 0.765525 -0.63997 -0.066404
0.16036 -0.324561 0.245629 0.28051 0.274883 0.919649
0.431352 0.0279893 0.0265261 -0.853499 -0.328415 0.404577
-0.0012807 -0.474288 0.302136 -0.507859 0.33944 -0.791745
0.202354 -0.178915 -0.00519055 -0.296433 -0.295889 -0.908062
-0.160467 0.462359 0.00432998 0.295311 0.307895 0.904429
