ply
format ascii 1.0
comment Created by Open3D
element vertex 128
property double x
property double y
property double z
property double nx
property double ny
property double nz
end_header
-0.0979085 0.270227 0.0538327 -0.443601 0.830999 -0.335646
0.256753 -0.352607 0.274239 0.487594 -0.810927 0.323495
0.446034 -0.174028 -0.130235 -0.0674212 -0.404392 -0.912097
-0.212504 -0.268173 0.30903 0.0674221 0.404392 0.912097
-0.0772262 -0.364538 0.223986 -0.186003 -0.893056 0.4097
0.188346 -0.0302104 0.1723 -0.567577 0.619307 0.542508
0.45857 -0.171294 0.128588 0.914267 -0.391053 0.105798
-0.311523 0.267821 -0.270138 -0.0674214 -0.404392 -0.912097
0.0574188 0.34529 -0.331758 -0.0674214 -0.404393 -0.912097
-0.0711168 0.265009 0.0621843 0.0674215 0.404393 0.912097
0.18584 -0.00842919 0.147456 -0.612197 0.532974 0.584084
0.202862 0.334904 -0.326446 0.250871 0.291723 -0.923018
-0.199862 0.387677 -0.262445 -0.398502 0.849007 -0.346963
-0.147518 -0.132006 -0.0189835 0.772569 0.557314 -0.304202
-0.201349 -0.284294 0.288423 0.466668 0.795232 -0.387075
0.0142338 0.146897 -0.240605 -0.0674212 -0.404393 -0.912097
0.0228001 0.109105 -0.195469 -0.186003 -0.893056 0.4097
0.156 -0.432276 0.197217 0.305448 -0.878649 0.366985
0.460443 0.139817 -0.141483 0.924337 0.318807 -0.209675
0.354017 0.171257 -0.276521 -0.0674223 -0.404392 -0.912097
0.222269 0.331704 -0.164092 0.510045 0.771726 -0.379859
0.414046 0.0886469 0.0546791 0.0674215 0.404393 0.912097
-0.307545 0.34725 0.0431981 0.0674215 0.404393 0.912097
0.402975 -0.0145877 -0.147908 -0.0674215 -0.404393 -0.912097
0.0495893 -0.341691 0.322252 0.0674214 0.404393 0.912097
0.0860883 -0.182675 -0.0258139 -0.487596 0.810927 -0.323494
0.016628 -0.494324 0.117158 0.0616295 -0.914119 0.400734
0.0814426 0.354581 -0.243776 0.186003 0.893056 -0.4097
-0.311952 -0.162655 -0.0294132 -0.0674214 -0.404393 -0.912097
0.396147 0.163115 -0.270145 0.540448 0.0552155 -0.839563
0.156268 0.212987 -0.23057 -0.0674212 -0.404393 -0.912097
-0.362087 -0.363648 0.0495171 -0.705868 -0.626749 0.330056
0.0889143 -0.323108 0.0120945 -0.0674218 -0.404393 -0.912097
0.251521 -0.00175638 0.0190522 -0.99764 0.039201 0.0563644
-0.387568 0.14082 -0.194404 0.86995 -0.47143 0.14471
-0.184829 -0.0909877 0.18547 -0.772568 -0.557315 0.304202
-0.199264 -0.457009 0.0429284 -0.0674218 -0.404393 -0.912097
-0.318346 0.183826 0.0666176 0.0674216 0.404393 0.912097
0.461097 -0.166414 0.124788 0.914267 -0.391053 0.105798
0.198972 0.155265 0.0908761 0.0674215 0.404393 0.912097
0.182404 -0.205734 0.20232 0.0674209 0.404392 0.912097
-0.102881 -0.197757 0.219872 0.0674212 0.404393 0.912097
-0.189385 -0.0996028 0.182748 0.0674216 0.404392 0.912097
-0.394536 -0.187016 0.26961 -0.540449 -0.0552162 0.839563
0.0608998 -0.350307 0.325236 0.0674214 0.404393 0.912097
-0.00131777 0.438371 -0.0696731 0.0674213 0.404393 0.912097
0.297445 -0.417894 0.032186 0.611885 -0.738836 0.282345
-0.211025 0.141977 -0.171937 -0.0674214 -0.404393 -0.912097
0.130177 0.470911 -0.131976 0.234632 0.882113 -0.408442
-0.209036 -0.439765 0.0360054 -0.0674212 -0.404393 -0.912097
0.401047 -0.299984 -0.0671876 0.549592 -0.646519 -0.529114
0.373075 -0.0148997 -0.145559 -0.0674215 -0.404393 -0.912097
-0.460432 0.113955 -0.182199 -0.70753 -0.0388342 -0.705615
0.219109 0.104435 -0.0596984 0.882348 0.402575 -0.24371
-0.21912 0.351777 -0.12228 0.530378 -0.788838 0.310539
0.501695 0.111396 0.0593356 0.988429 0.0974247 -0.116259
0.124143 -0.184518 0.122908 0.487594 -0.810927 0.323495
0.0513053 -0.129899 0.228223 0.0674206 0.404393 0.912097
0.288157 0.35885 -0.00597889 0.0674213 0.404393 0.912097
-0.422484 0.246659 -0.105565 -0.844519 0.509908 -0.163649
-0.346867 -0.373914 0.0301962 -0.546868 -0.729151 -0.411428
0.431212 -0.0330485 0.153603 -0.975292 0.219478 -0.0252161
-0.0826518 0.336041 -0.317303 -0.0674214 -0.404393 -0.912097
0.203093 0.150606 0.0926371 0.0674217 0.404392 0.912097
0.148139 0.272566 -0.00720856 0.0674215 0.404393 0.912097
0.247271 0.308451 -0.320027 0.313045 0.259874 -0.913492
-0.418639 0.0406262 0.183175 0.993973 0.0519742 -0.0965172
-0.437387 -0.234858 0.0789203 -0.858036 -0.44301 0.259841
-0.0672967 0.203238 -0.137511 0.257724 -0.89021 0.375638
-0.196109 0.430953 -0.00215016 0.0674218 0.404393 0.912097
0.142021 -0.12312 -0.00921183 -0.787426 0.582971 -0.200264
-0.49505 0.0691828 0.00404572 -0.991392 0.129985 0.0156519
-0.0603162 0.443664 -0.224099 -0.111188 0.911528 -0.395922
-0.348108 -0.187467 0.188039 -0.803078 -0.520475 0.290124
-0.0772776 0.209625 -0.114804 0.305448 -0.878649 0.366984
0.44855 -0.157059 -0.137945 -0.0674213 -0.404392 -0.912097
-0.348593 0.243834 -0.0739972 -0.816988 0.54712 -0.182183
0.173114 -0.0254296 -0.112922 -0.988429 -0.0974248 0.116259
-0.438373 -0.231826 0.0808323 -0.858036 -0.44301 0.259841
-0.165517 -0.430945 0.191945 -0.330022 -0.853679 0.402887
0.336936 -0.245157 0.258212 0.0674215 0.404393 0.912097
-0.183878 -0.226832 -0.0104264 -0.0674216 -0.404393 -0.912097
-0.0180478 -0.504783 0.0602758 -0.0744212 -0.931228 -0.356757
-0.249353 -0.331365 0.125653 -0.552154 -0.746301 0.371699
-0.449233 0.239045 0.0411544 -0.914267 0.391053 -0.105798
0.419501 -0.297081 -0.0361474 0.84452 -0.509907 0.163649
-0.440182 -0.0613562 -0.0991752 0.997046 0.00639414 -0.0765358
-0.246332 -0.00881689 0.047831 0.993973 0.051974 -0.0965173
0.0694232 0.153152 -0.0691054 -0.376544 -0.83626 0.398603
-0.425695 -0.0503181 0.0517184 -0.98843 -0.0974228 0.116258
-0.0441254 -0.161783 0.0702621 0.234631 0.882113 -0.408442
-0.336625 0.38839 -0.0150967 -0.687311 0.681491 -0.251344
0.166316 -0.452164 0.013757 -0.0674214 -0.404393 -0.912097
-0.0984876 -0.349975 0.0378592 -0.0674219 -0.404393 -0.912097
-0.303935 0.161687 0.075368 0.0674214 0.404393 0.912097
-0.2436 -0.0135868 0.0672424 0.988429 0.0974247 -0.116259
0.256562 -0.20723 -0.0516742 -0.0674215 -0.404393 -0.912097
-0.164347 0.107649 0.111056 0.949498 -0.30679 0.0658341
0.332613 -0.265186 0.0758034 0.787426 -0.582971 0.200264
-0.451075 0.237834 0.0525965 -0.914267 0.391053 -0.105798
0.343684 0.23315 -0.118329 -0.803077 -0.520476 0.290124
0.10765 0.318448 -0.0245581 0.0674212 0.404393 0.912097
0.379315 0.293589 -0.141935 0.772568 0.557315 -0.304202
-0.170351 0.481128 -0.041522 -0.201566 0.897578 0.392077
0.381831 -0.303331 0.10993 0.755906 -0.617373 0.217846
-0.0309486 0.376058 -0.0398556 0.0674214 0.404393 0.912097
0.466524 0.123815 -0.137024 0.941908 0.275684 -0.191854
0.172926 -0.0467748 -0.143209 -0.750622 -0.32266 -0.576592
-0.253524 -0.0173219 -0.148003 -0.0674214 -0.404393 -0.912097
-0.465319 -0.0924818 0.187963 -0.941908 -0.275684 0.191854
0.42182 -0.0929294 -0.00435772 0.975291 -0.219479 0.0252166
-0.158933 0.0789339 -0.0434383 0.869951 -0.471429 0.144709
-0.225011 0.174504 -0.185324 -0.0674215 -0.404393 -0.912097
0.206614 0.128628 -0.19689 -0.0674214 -0.404393 -0.912097
-0.210732 0.385387 -0.255563 -0.398502 0.849007 -0.346963
-0.50137 -0.107077 -0.0529548 -0.988429 -0.0974247 0.116259
-0.0199826 0.448227 -0.221793 -0.0616285 0.914119 -0.400734
-0.0229034 -0.230117 0.0951039 0.0874796 0.90826 -0.409158
0.297524 0.412921 -0.0732087 0.59289 0.719021 -0.362615
-0.42491 0.0761713 -0.00132992 0.984566 -0.17495 0.00478843
0.308534 -0.404663 0.0427776 0.611885 -0.738836 0.282344
0.269996 -0.188803 -0.0608372 -0.0674213 -0.404392 -0.912097
0.398621 0.278423 0.0215141 0.0674214 0.404393 0.912097
0.319687 -0.0916243 0.14158 0.0674217 0.404393 0.912097
-0.259233 -0.0406434 -0.132232 -0.995754 0.0846976 0.0360533
0.427853 -0.0589066 0.00916778 -0.991392 0.129984 0.0156523
0.434435 0.244673 0.0338307 0.0674215 0.404393 0.912097
-0.038741 -0.270543 -0.0516102 -0.0674214 -0.404393 -0.912097
