ply
format ascii 1.0
comment Created by Open3D
element vertex 128
property double x
property double y
property double z
property double nx
property double ny
property double nz
end_header
0.240996 0.349791 0.155323 0.444892 0.892585 0.0732315
-0.0392216 0.43965 0.0331484 0.0725443 0.975196 -0.209117
-0.417047 0.0169659 -0.162822 -0.961047 -0.259314 -0.0956349
-0.0247399 -0.459793 -0.136262 -0.0246795 -0.998885 0.0402435
-0.0914094 -0.0118814 -0.577906 0.444224 -0.376734 -0.812857
-0.182509 0.421562 0.0201677 -0.495467 0.865379 -0.0750411
-0.472277 -0.0256748 0.249887 0.361035 -0.585066 0.72619
0.3563 -0.224033 0.174689 0.719711 -0.491294 0.490556
0.0435596 0.269975 -0.565328 0.437095 0.0383744 -0.898596
-0.108006 0.424007 -0.121933 -0.205803 0.92703 -0.313466
-0.0841947 0.158581 0.444654 -0.505137 0.257178 0.82383
0.197781 0.131542 0.488625 0.99486 -0.098484 -0.0235425
0.338412 0.293496 0.0326226 0.914608 -0.108006 0.389649
0.126865 -0.43937 0.0828933 0.159493 -0.965568 0.205523
-0.0660823 0.476905 0.164364 0.0179251 0.998691 0.047904
0.394451 0.229929 -0.370078 0.481962 -0.305278 -0.82129
0.309142 0.360862 -0.249554 0.0275882 0.961723 0.27263
0.0720679 -0.124085 -0.470012 0.0918221 0.103653 -0.990366
0.369604 -0.326017 -0.239206 0.361128 -0.146943 -0.920866
-0.0753942 0.365857 -0.255103 0.146458 0.840449 -0.521724
0.112762 -0.532196 -0.223813 -0.323007 -0.903835 0.280622
0.34423 -0.189605 -0.284767 0.270149 -0.0911822 -0.958491
0.429428 0.150518 0.0628143 0.174609 0.112452 0.978195
0.240939 -0.312133 -0.313568 0.442307 -0.444812 -0.778785
-0.270127 0.0106852 -0.440365 -0.80833 0.273468 -0.521362
-0.129555 0.207429 -0.60999 -0.797854 0.502899 -0.332448
-0.250119 0.349777 -0.0878402 -0.548666 0.776181 -0.310658
0.336638 -0.416949 -0.0327454 -0.122605 -0.68015 0.722747
-0.384907 0.170134 0.244562 -0.201231 0.0794129 0.976319
-0.0244968 -0.269999 -0.470669 0.702305 -0.615944 -0.356903
0.391546 0.045164 0.191623 0.811718 0.125866 0.570326
0.387464 -0.0971445 0.194081 0.949844 -0.237769 0.203134
-0.178287 0.222912 -0.414374 -0.719237 0.580344 -0.381968
0.322486 0.337028 -0.418496 0.21798 0.972759 -0.0788933
-0.103025 -0.314034 0.416644 0.484183 -0.829402 -0.278673
-0.438629 0.162129 -0.0709967 -0.900016 0.258187 0.351156
0.0913751 -0.181424 0.483809 0.682357 -0.566701 0.461778
0.0946899 0.426796 0.214618 0.678857 0.733833 0.0253327
0.195081 -0.220129 0.381385 0.367103 -0.323379 0.872159
-0.0337338 -0.472064 -0.416996 -0.0397898 -0.080347 -0.995972
0.457011 0.275735 -0.249845 0.624569 0.779617 0.0459356
0.228022 0.053048 -0.400014 0.172203 0.671529 -0.720691
-0.481486 0.027902 -0.0157279 -0.966497 -0.190955 0.17152
0.147166 0.376053 0.371113 0.855781 0.516282 -0.0330503
-0.58022 0.0245342 0.17974 -0.859448 -0.0805882 -0.504831
-0.211511 -0.353201 0.287309 -0.478876 -0.764604 0.431344
-0.201245 -0.382481 0.05375 -0.522944 -0.724979 0.448257
-0.36074 0.353772 0.0428398 -0.549316 0.695578 -0.463059
0.235464 0.377984 -0.0017245 0.627652 0.758968 -0.173262
-0.484286 -0.158712 0.199129 -0.806028 -0.497055 -0.321334
0.451337 0.307647 -0.112947 0.8116 0.574646 -0.105297
-0.230482 0.432551 0.286064 -0.466935 0.0312705 0.883738
0.0314464 0.413802 -0.33142 0.386114 0.365762 0.846838
0.214986 -0.123829 -0.38669 0.376265 -0.101726 -0.920911
0.127476 -0.323154 0.272171 0.155463 -0.788237 0.59541
0.096042 -0.454074 -0.355913 0.479458 -0.197479 -0.855057
-0.34918 -0.324097 0.249463 -0.661215 -0.648001 -0.378006
-0.397214 -0.244964 0.100209 -0.876043 -0.42596 -0.226067
0.25705 -0.516273 -0.110936 0.866941 0.328305 0.375005
0.267375 0.3836 -0.130436 0.288975 0.953783 0.0824138
-0.256189 -0.133735 -0.415758 -0.92833 -0.29358 -0.228064
0.591087 -0.121237 -0.159654 0.781817 -0.359342 -0.509544
0.48951 0.164719 -0.0866734 0.769696 0.471216 0.430725
-0.506361 0.269239 0.134945 -0.961841 0.242963 -0.125821
-0.0677348 -0.504689 -0.322417 0.35125 -0.563475 0.747743
-0.234524 0.201207 0.334514 -0.487387 0.223934 0.843984
-0.170218 -0.406626 -0.107172 -0.585534 -0.786286 -0.197242
-0.00428832 0.383849 0.419764 -0.532646 -0.168373 0.829421
0.346165 0.218018 0.177685 0.79882 0.188377 0.571314
0.526835 -0.221315 -0.0271103 -0.106509 0.672423 -0.732464
0.0793416 0.239094 0.504716 -0.595561 0.513544 0.617721
-0.0796497 -0.147549 -0.533407 0.713178 -0.259553 -0.65116
-0.0560541 -0.387188 0.276659 -0.00320589 -0.92605 0.377388
-0.0986282 -0.0298992 0.477126 -0.353051 -0.242052 0.903751
-0.198371 0.035599 0.401164 -0.237488 -0.368241 0.898887
-0.335726 -0.029124 -0.326779 -0.950066 -0.220632 -0.220672
-0.528179 0.128519 0.0618744 -0.228925 0.297227 -0.926957
0.456186 0.0600389 -0.268717 0.495574 -0.337555 -0.800289
0.0687913 0.419859 -0.160985 0.106987 0.953444 -0.281953
0.0963845 0.0635222 0.548949 -0.471565 0.183355 0.862559
0.105742 -0.323247 -0.401599 0.418654 0.0557943 -0.90643
0.573765 0.190872 -0.235034 0.829706 0.18895 0.525248
-0.517096 -0.0718274 0.0896276 -0.876365 -0.422562 -0.231138
0.00191485 -0.28411 0.457605 0.56357 -0.823245 -0.0682312
-0.018264 -0.413571 0.154278 -0.0412732 -0.960802 0.274147
-0.453272 -0.109533 -0.0197512 -0.740349 -0.653174 -0.158895
-0.208556 -0.292147 -0.511732 -0.244416 0.852317 -0.462402
-0.243084 -0.30813 0.468967 -0.412321 -0.463343 0.784414
0.259577 -0.371821 0.0938593 0.40628 -0.76522 0.499375
-0.460522 -0.234218 0.29832 -0.46077 -0.795891 -0.392745
-0.0556409 -0.163366 0.526384 -0.464037 0.0971196 0.880475
-0.138604 0.295744 0.371174 -0.427597 0.0800426 0.900419
-0.276957 0.149305 -0.333861 -0.68916 0.165634 -0.705425
0.348752 0.0937123 -0.353753 0.419496 0.0522485 -0.906252
-0.311292 -0.312385 -0.0265516 -0.703023 -0.703869 0.101621
0.623439 0.0513146 -0.165804 0.837938 0.277296 0.47007
0.259848 -0.531918 -0.228944 0.476876 -0.870915 0.118731
0.177113 0.361903 -0.456433 -0.192533 0.972131 -0.13376
-0.387839 -0.165897 -0.158586 -0.716955 0.087331 -0.691627
0.0868353 -0.0807593 0.591538 -0.306791 0.0112064 0.951711
-0.140682 -0.416687 -0.412293 -0.737892 0.646188 -0.194825
0.299528 -0.144666 0.302956 0.700112 -0.374159 0.608152
0.193657 0.432067 -0.301881 0.431766 0.24165 -0.869013
0.437656 -0.0981267 -0.248326 0.307492 0.288431 -0.906783
0.181307 -0.077932 0.499515 0.835502 -0.349225 0.424239
-0.37239 0.386552 0.207315 -0.63904 0.606408 0.473178
-0.325024 -0.044841 0.347054 -0.485846 0.37042 0.791671
0.472674 -0.103346 0.0619766 0.967018 -0.0741596 0.243674
0.504715 -0.369318 -0.139026 0.421683 -0.299101 0.855992
0.557417 0.0156955 0.012092 -0.661277 0.204373 0.721765
-0.226338 -0.0982562 -0.56462 0.304663 0.876116 -0.373631
0.456301 -0.238971 -0.198728 0.474162 -0.348266 -0.808629
0.191432 0.18465 -0.453789 0.433039 0.215588 -0.875214
-0.19272 0.278194 -0.300572 -0.0464933 0.712809 -0.699816
-0.263329 -0.340721 -0.138729 -0.683598 -0.697241 -0.215752
-0.19426 -0.169874 0.446416 -0.483044 0.706784 0.516841
-0.306518 0.238242 -0.219678 -0.859838 0.449045 -0.242978
0.251041 -0.288448 0.231824 0.0138543 -0.321673 0.946749
-0.238037 0.436332 0.12826 -0.111068 0.890446 -0.441328
-0.320882 -0.202368 0.396315 -0.685981 0.252552 0.682384
-0.151839 -0.412203 -0.235401 -0.437004 -0.873469 -0.21466
-0.0865718 0.340953 -0.404589 0.162301 0.677985 -0.716934
-0.264077 -0.266295 -0.316566 -0.911056 -0.24693 -0.330157
0.240015 0.238676 0.337577 0.588059 0.419105 0.691764
0.101944 0.0818395 -0.504131 0.865829 -0.446864 -0.22506
0.306481 0.047057 0.344551 0.789551 0.0419686 0.612248
0.131403 -0.476418 -0.0504101 0.0457765 -0.94705 0.317807
0.391985 -0.307528 0.0457107 0.432347 -0.569706 0.698936
