ply
format ascii 1.0
comment Created by Open3D
element vertex 128
property double x
property double y
property double z
property double nx
property double ny
property double nz
end_header
0.0619943 -0.179146 -0.498648 0.785714 -0.335775 -0.519527
-0.0480069 0.170842 -0.394234 -0.470997 -0.701768 0.534494
-0.024555 -0.0119563 0.22883 0.45787 0.362373 0.811813
0.0165095 -0.320456 -0.18873 -0.513681 0.787332 0.340939
-0.357619 0.152415 0.0145446 0.657761 0.197969 0.726745
0.0996245 0.157382 -0.359467 0.624859 0.0241159 0.780365
0.171471 0.166927 0.0301237 0.471504 0.173487 0.864631
0.382761 0.326334 0.248584 -0.58534 0.763096 0.273975
0.203083 -0.23768 -0.0598424 0.812098 -0.459249 -0.359983
0.145197 -0.154522 -0.318531 -0.781748 0.389171 0.487254
-0.273603 -0.320903 0.0458214 -0.360554 -0.788319 0.498551
0.323504 0.22393 -0.125809 0.349664 0.518946 -0.780019
0.462738 0.170654 0.218136 0.510861 0.161067 0.84444
0.146698 -0.0189796 0.498418 -0.724447 0.0114658 -0.689235
0.143016 -0.00472678 -0.420286 0.881751 -0.0565828 -0.468309
-0.323734 0.0520896 -0.372843 0.615951 0.193136 0.763743
-0.0204009 -0.268257 0.132986 -0.706484 -0.115992 -0.698159
-0.218358 -0.0278524 -0.429815 0.410142 0.305417 0.859362
-0.391763 -0.200136 0.0700755 -0.82434 -0.335447 0.456004
0.521551 -0.0129177 0.231652 0.561596 0.658317 -0.501227
0.382048 0.0227342 -0.104673 0.791715 0.183846 0.582571
-0.192649 -0.0738584 0.210488 -0.623306 -0.214944 -0.751857
-0.373745 0.192734 0.0110377 -0.744384 0.460582 0.483484
0.00113238 0.289685 -0.045429 -0.45377 -0.373606 -0.809019
-0.214097 0.330728 -0.164249 0.782094 0.00382555 0.623148
0.137591 -0.335858 0.185399 0.576287 0.146204 0.804064
0.352558 -0.116628 -0.0783644 -0.469748 -0.462981 -0.751655
-0.214557 -0.457828 -0.271534 -0.213649 -0.964743 0.153702
0.286356 0.111268 -0.0431223 0.44234 0.182959 0.877987
0.0510393 0.19548 0.122002 0.445851 0.241903 0.8618
-0.229483 -0.026646 -0.460256 -0.299178 -0.201499 -0.932679
0.0618215 -0.0593653 -0.522892 0.920756 -0.0246111 -0.389361
0.359186 -0.182942 0.381343 -0.7421 -0.310308 -0.594135
0.0925541 0.26051 0.508058 -0.165315 -0.765875 0.621375
0.132361 -0.0546733 0.0855381 -0.683846 -0.12995 -0.717961
-0.242069 0.114689 -0.487223 -0.737088 -0.160223 -0.656529
-0.093504 -0.409452 -0.0608146 0.164851 -0.891171 -0.422657
-0.483686 0.0860168 -0.0385591 -0.754241 0.581291 0.305323
0.152414 -0.271807 -0.0157086 -0.460059 -0.273284 -0.844785
-0.286575 -0.388583 -0.0892597 -0.291167 -0.858695 0.421741
-0.0211672 -0.266346 0.123391 -0.595862 -0.182413 -0.782096
0.0245141 0.323917 -0.0487452 -0.133226 0.711795 -0.689637
-0.39841 0.0238811 0.076828 0.820152 -0.293582 0.491081
-0.247709 -0.316092 0.0409139 0.739485 -0.112273 0.663744
0.276702 -0.271762 0.0487538 0.329114 0.22536 0.917004
-0.203522 0.186635 0.299351 -0.777462 0.376995 0.503415
0.366485 0.293084 0.256047 -0.780067 -0.204078 -0.591479
0.214053 0.131563 0.441868 0.538967 0.404502 0.738846
-0.518737 0.169525 -0.242191 -0.803633 0.595098 -0.00573808
0.502294 0.139544 0.199533 0.756151 0.0371564 0.653342
-0.33549 0.0525603 -0.393456 -0.589718 -0.0807978 -0.803557
-0.0581057 -0.142265 -0.570517 -0.592086 -0.222532 -0.774541
0.0736489 0.108402 0.54478 -0.0265351 0.989036 -0.145272
0.161428 -0.160918 -0.326743 0.670795 0.191566 0.716475
0.24972 -0.0363795 -0.016669 -0.643828 -0.161193 -0.747999
0.209467 0.148394 -0.166873 -0.514193 -0.173972 -0.839845
-0.110679 0.324639 -0.232528 0.80262 -0.0608978 0.593375
-0.413299 0.151952 -0.181628 0.598212 -0.741698 -0.303358
-0.0609603 0.149375 0.192849 -0.611039 -0.194839 -0.767248
-0.414391 -0.196549 -0.276579 -0.700803 -0.114215 -0.704152
-0.264215 -0.21157 -0.351126 0.519774 0.147837 0.841415
0.22639 0.151088 0.40039 -0.696837 -0.0545287 -0.715154
0.207343 0.302483 0.374864 -0.455237 -0.267589 -0.849209
0.361997 -0.176273 -0.0318287 0.642557 0.175908 0.745773
0.0876083 -0.316587 -0.328055 0.645176 -0.661341 -0.382592
-0.143625 -0.402702 -0.0408372 0.275413 -0.937763 0.211538
-0.588007 -0.0916328 -0.16516 -0.976661 -0.0147335 0.214281
0.315726 0.0282349 0.392646 0.785328 0.124026 0.606529
0.214413 0.292044 0.37723 -0.622789 -0.0947203 -0.776635
-0.390899 -0.222784 -0.249031 0.444582 0.37016 0.815677
0.0162099 -0.147387 0.231694 0.618727 0.19347 0.761411
-0.144191 0.00262308 0.32295 0.695137 0.148954 0.703276
0.0773149 -0.318301 -0.341379 0.598354 -0.777788 -0.192401
-0.00741899 0.248376 -0.297819 0.576174 0.225616 0.785571
-0.258658 0.247323 -0.270645 0.231702 -0.970752 0.0628866
0.159718 0.25477 -0.10539 0.412985 0.755715 -0.50827
-0.191916 0.209886 0.296649 -0.275739 0.53085 0.801353
0.0199718 0.321988 0.110986 0.461778 0.349949 0.815044
-0.234382 0.289206 -0.383051 -0.149261 0.962212 -0.227749
0.239922 -0.144214 0.479401 0.659433 0.197899 0.725247
0.115271 -0.0639385 0.566866 -0.719 0.63566 0.281026
-0.100369 0.308339 0.169 -0.732724 -0.0461159 -0.678961
0.0476244 -0.341698 -0.193138 0.747589 -0.0937703 0.657509
-0.50307 -0.0652201 -0.031797 -0.784088 -0.0207577 0.620302
0.316948 0.223866 -0.112642 0.847508 0.495039 0.191488
-0.400582 0.0305314 0.0828686 0.543777 0.151552 0.825432
-0.128634 0.134763 -0.574202 0.275533 0.509055 -0.815441
0.237432 -0.144031 0.484653 0.591437 0.20131 0.780818
0.0169823 -0.149568 0.230003 0.6195 0.21245 0.755702
0.34962 0.146331 0.295777 -0.664323 0.156857 -0.730801
0.000193109 -0.309478 -0.480673 0.604766 -0.697501 -0.384383
0.24535 -0.00175604 -0.154178 -0.499364 -0.326425 -0.802548
-0.16104 -0.142183 0.335625 -0.584705 -0.209391 -0.783757
-0.406838 0.256705 -0.253283 -0.454766 0.874099 0.170699
0.436511 -0.0676772 0.317797 0.803189 0.41686 0.425577
-0.11911 -0.364214 -0.199551 -0.231789 0.970223 -0.0702964
-0.131715 -0.195818 0.216422 -0.592497 -0.61043 0.525664
-0.112552 -0.386393 -0.465973 -0.609358 0.258299 -0.749643
-0.0341451 0.00896472 -0.60038 0.465068 0.0919605 -0.880486
-0.458495 -0.17695 -0.097443 0.726126 0.247872 -0.641327
-0.370032 -0.193738 0.084933 -0.7489 -0.242821 0.616593
0.29225 -0.00184691 0.386082 -0.5346 -0.205324 -0.819783
-0.348434 0.238305 -0.436306 -0.626729 -0.355478 -0.693431
-0.475528 0.00713777 -0.273963 -0.650177 -0.247037 -0.7185
0.141579 -0.00128755 -0.357115 0.675686 0.100537 0.730302
-0.115229 0.275891 -0.390208 0.0566085 0.997248 -0.0478826
-0.231958 -0.361944 -0.379618 -0.658125 -0.0422401 -0.751723
-0.425771 -0.374963 -0.181259 -0.477217 -0.868365 0.134929
-0.565775 0.0566691 -0.164756 -0.902945 0.428836 -0.0281238
-0.524469 -0.260498 -0.152287 -0.763877 -0.536392 0.358853
-0.173233 -0.17649 -0.467809 -0.609458 -0.197758 -0.767759
0.253701 -0.161457 0.0525592 0.889665 0.119928 0.440584
0.0937311 0.0638883 0.113442 0.625315 0.196296 0.75528
-0.338833 -0.0799852 -0.317711 0.563276 0.257166 0.78523
-0.181224 0.237474 -0.490674 -0.221174 0.754052 -0.618455
-0.218544 0.0752921 0.219461 -0.775828 0.0335737 0.630051
-0.428047 0.166102 -0.35054 -0.571677 -0.206752 -0.794002
0.16335 0.371521 -0.0350411 -0.111229 0.896984 -0.42784
-0.0490006 -0.13773 -0.57649 -0.702377 -0.22777 -0.67438
-0.154755 -0.198403 -0.476792 -0.664318 -0.224442 -0.712957
-0.06585 -0.339872 -0.319204 -0.46039 0.886846 -0.0393027
0.128347 -0.232178 0.170109 0.716238 0.264258 0.645888
-0.0357858 -0.26318 0.311441 0.0626813 -0.100646 0.992946
0.00132342 -0.31672 0.265387 -0.26302 -0.921613 0.285395
0.021586 0.110436 -0.513692 0.671323 0.425908 -0.606571
-0.189494 0.00644379 0.354406 0.540468 -0.258795 0.800575
-0.325967 -0.376906 -0.297271 -0.486592 -0.181499 -0.854568
-0.287813 0.221928 -0.117007 0.461403 -0.877691 -0.129483
