ply
format ascii 1.0
comment Created by Open3D
element vertex 512
property double x
property double y
property double z
property double nx
property double ny
property double nz
end_header
-0.0436573 0.374966 0.223583 0.897277 0.112005 0.427023
0.1185 0.0338371 0.124408 -0.929906 0.158698 -0.331798
0.44197 -0.0353293 0.144944 0.283489 -0.925201 -0.252265
-0.0791247 0.0645781 -0.230761 0.367167 0.34773 -0.862712
0.27226 -0.272719 -0.206862 0.367167 0.34773 -0.862712
-0.456034 0.0331843 0.0321 -0.367167 -0.34773 0.862712
0.145398 0.110385 -0.00763523 -0.483602 -0.720916 -0.496396
-0.273068 0.37728 0.133385 0.565811 0.652664 0.503873
0.408295 -0.0362209 -0.0536415 0.367167 0.34773 -0.862712
-0.400347 -0.0788221 -0.129098 -0.719807 0.693659 -0.0267566
-0.216647 -0.0723514 -0.334177 0.36715 0.34776 -0.862707
0.0443436 0.199702 -0.059339 0.446304 -0.879614 -0.164597
0.322363 -0.0099493 0.29884 0.903737 0.0861164 0.419337
-0.203777 0.35556 0.269398 -0.367167 -0.34773 0.862712
-0.213402 -0.381848 -0.207411 -0.926541 0.218406 -0.3063
-0.324417 0.259328 -0.106044 -0.0505201 0.933579 0.354793
0.160193 0.205991 -0.0660335 0.463643 0.735637 0.493835
0.32166 0.325968 0.055473 0.367167 0.34773 -0.862712
-0.148801 -0.150304 0.0689258 0.483602 0.720916 0.496396
0.258089 0.264175 0.361842 0.897722 -0.375261 0.230812
-0.313091 0.210806 -0.261092 0.367167 0.347729 -0.862713
-0.14144 0.492868 0.0179299 -0.349679 0.911059 0.218395
0.385693 -0.170427 -0.117355 0.367167 0.34773 -0.862712
0.15864 0.109149 0.324322 -0.367167 -0.34773 0.862712
-0.313304 0.275542 0.10254 -0.612338 0.788523 0.0572182
-0.0207844 0.424133 0.171484 0.898408 0.107674 0.425758
-0.416418 0.119264 0.0123172 -0.892714 0.392237 -0.221838
-0.418555 0.265797 -0.0818685 -0.844814 0.512756 -0.152875
0.110788 0.409976 -0.000412397 0.367167 0.34773 -0.862712
-0.115092 -0.345002 -0.202959 -0.0869539 -0.9106 -0.404039
0.156215 -0.189474 -0.222697 0.367167 0.34773 -0.862712
-0.120752 0.325761 -0.132899 0.367167 0.34773 -0.862712
0.230124 -0.323469 -0.17349 0.446514 -0.87953 -0.164474
0.480065 -0.0347327 -0.0164024 0.043065 0.920143 0.389207
-0.310532 0.36297 0.19245 0.501275 0.70731 0.498433
-0.463114 -0.115882 -0.169278 -0.872582 -0.192476 -0.448948
0.263792 0.324259 0.236766 -0.502433 0.854686 0.130661
0.229855 -0.37981 0.157548 -0.367168 -0.347731 0.862712
-0.455057 0.211814 0.0546756 0.0819115 0.911802 0.402378
0.0263967 -0.120194 -0.145486 0.483602 0.720916 0.496396
0.0527068 -0.365656 0.0878591 -0.367167 -0.34773 0.862712
-0.413012 -0.229839 -0.0599219 -0.508656 0.851587 0.126764
0.265533 0.125052 -0.0493967 0.367167 0.34773 -0.862712
0.336801 0.185383 0.0052518 0.367167 0.347731 -0.862712
0.168625 0.357934 0.322249 0.930151 -0.140091 0.339403
0.388596 -0.152491 0.256951 0.389619 0.784708 0.48211
-0.0550037 -0.118745 -0.0682865 0.483602 0.720916 0.496396
0.432485 0.0573975 0.0664729 0.296924 0.83515 0.46299
-0.451704 0.233279 -0.00774979 -0.844814 0.512756 -0.152875
-0.221842 -0.27076 0.00926138 -0.367167 -0.34773 0.862712
0.272475 -0.153972 -0.158907 0.36717 0.347733 -0.86271
0.0638791 -0.320823 -0.314937 0.367168 0.34773 -0.862712
-0.00492935 0.0825866 0.254305 -0.367167 -0.34773 0.862712
0.283587 0.030662 0.345863 -0.367167 -0.34773 0.862712
-0.356903 -0.178043 -0.180134 -0.60284 0.795292 0.0639891
-0.30411 -0.161337 -0.407269 0.367167 0.347731 -0.862712
0.142908 0.0402777 0.0590836 -0.929906 0.158698 -0.331798
-0.49021 -0.136144 -0.104708 -0.655709 0.754597 0.0250853
0.0982604 -0.0656206 0.133563 -0.929906 0.158698 -0.331798
0.0878619 0.153923 -0.0148131 -0.483602 -0.720916 -0.496396
0.465445 -0.121839 0.0370006 0.0836189 -0.936077 -0.341713
-0.0196673 -0.326012 -0.352585 0.367167 0.34773 -0.862712
0.290712 0.195408 0.272398 -0.562091 0.821935 0.0920706
-0.0686812 -0.3694 -0.250901 -0.894511 0.3863 -0.224996
-0.0467755 0.13547 0.0368475 0.446304 -0.879614 -0.164597
0.0239962 -0.160308 0.034119 -0.446304 0.879614 0.164597
-0.399919 0.251649 -0.146955 -0.656032 -0.560705 -0.505206
0.185337 -0.365625 -0.115043 0.924737 -0.236421 0.298271
-0.30153 0.213344 0.170473 -0.367167 -0.34773 0.862712
-0.346211 -0.2174 -0.0221618 -0.367167 -0.34773 0.862712
-0.18059 -0.380059 -0.0172363 -0.367167 -0.34773 0.862712
-0.385741 -0.20441 -0.238943 -0.804114 0.584859 -0.106491
0.0617239 -0.444732 -0.236181 -0.806954 -0.34221 -0.48137
-0.446002 -0.00123512 -0.0349901 -0.399653 0.896493 0.191255
0.382881 -0.0575735 0.178506 0.436475 -0.883447 -0.170325
-0.0726952 -0.356218 0.0382927 -0.367167 -0.34773 0.862712
-0.122785 0.0744759 0.200877 -0.367167 -0.34773 0.862712
0.402589 0.149443 0.0187645 0.367167 0.34773 -0.862712
-0.38886 0.197998 0.0461601 -0.0505201 0.933579 0.354793
0.0514332 0.464523 -0.00368765 0.367167 0.34773 -0.862712
0.34442 -0.236521 0.0035461 0.794679 -0.599284 0.096661
-0.259436 0.423421 0.054776 0.467534 0.73282 0.494355
0.17003 0.377414 0.0116759 0.367167 0.34773 -0.862712
-0.41587 -0.249073 -0.164217 -0.759465 -0.423419 -0.493891
0.0975112 -0.132421 0.103712 -0.929906 0.158698 -0.331798
0.373174 0.0892946 -0.0179981 0.367167 0.34773 -0.862712
0.205946 0.265727 0.395825 -0.467137 0.870978 0.15225
-0.392088 0.269757 0.0572947 -0.735284 -0.459554 -0.498164
-0.317536 0.3274 -0.105179 -0.679627 -0.532946 -0.504059
0.143311 0.0356921 0.28819 -0.367154 -0.347756 0.862707
0.230953 0.213501 0.320657 0.787389 -0.60996 0.0892554
0.214992 -0.417062 -0.216394 0.349679 -0.911059 -0.218395
-0.508626 -0.0261997 -0.0871976 -0.923058 0.0218619 -0.384038
0.298284 -0.407953 0.175327 -0.367164 -0.34773 0.862713
0.415334 -0.1608 0.131923 0.0445416 -0.933002 -0.357105
0.331142 -0.349473 -0.212739 0.367167 0.34773 -0.862712
-0.172211 0.390023 0.21592 0.782341 0.386231 0.488638
-0.0367835 -0.434463 -0.251397 0.785282 -0.612974 0.0871438
0.218655 0.284701 0.318351 -0.56969 0.817248 0.0869472
-0.330629 -0.348277 -0.174132 -0.594595 -0.625503 -0.505176
-0.374122 -0.0617095 0.0287131 -0.367167 -0.34773 0.862712
0.354842 -0.313826 0.0380455 0.759729 0.423008 0.493838
0.392812 -0.279854 0.174993 0.856733 -0.487602 0.168086
-0.0674468 -0.219716 0.103652 -0.446304 0.879614 0.164597
-0.240086 -0.12572 0.0599578 -0.367167 -0.34773 0.862712
0.12693 -0.282654 -0.272718 0.367167 0.34773 -0.862712
-0.0948977 0.142274 0.229769 -0.367166 -0.34773 0.862713
-0.0199869 -0.172272 -0.021201 -0.446304 0.879614 0.164597
0.0743534 -0.127845 -0.00282037 -0.446304 0.879614 0.164597
0.0240932 0.420507 0.26784 -0.806727 0.580735 -0.109265
0.225137 0.370304 0.151871 0.873425 -0.447845 0.191215
-0.17755 -0.407492 -0.141884 0.78932 -0.607171 0.0912011
0.140839 0.330407 0.387034 0.930151 -0.140091 0.339403
0.166063 -0.106521 0.240552 -0.367166 -0.347723 0.862715
-0.0676411 -0.146619 -0.300696 0.367198 0.347709 -0.862708
0.22534 -0.00564009 -0.129485 0.367167 0.34773 -0.862712
-0.443831 0.0623006 -0.0532393 -0.126582 -0.900185 -0.416707
0.115233 -0.0955882 -0.0643562 -0.446304 0.879614 0.164597
-0.376712 0.1767 0.123706 -0.367168 -0.347732 0.862711
-0.225235 -0.293118 -0.277097 0.635059 -0.771393 -0.0406438
0.460097 -0.00585622 0.0620137 0.075724 -0.935589 -0.344876
0.247244 -0.439857 -0.0153807 0.53703 -0.836541 -0.108623
-0.223645 0.15338 0.179451 -0.367167 -0.34773 0.862712
-0.403759 0.0938775 0.0788115 -0.367165 -0.347725 0.862715
-0.162034 0.136351 0.198809 -0.367167 -0.34773 0.862712
0.0625363 -0.243379 0.141328 -0.367167 -0.34773 0.862712
-0.166499 0.452358 0.144663 -0.322164 0.917626 0.232752
-0.417299 0.0255304 -0.100472 -0.399651 0.896493 0.191256
0.26228 0.240532 0.236664 0.876515 -0.439758 0.19579
-0.506172 -0.0379265 -0.0179009 -0.367167 -0.347731 0.862712
0.173537 0.40633 0.186464 -0.715001 0.698757 -0.0226563
-0.0998684 -0.0789276 -0.0824056 0.483602 0.720916 0.496396
0.266137 0.190445 -0.0227821 0.367167 0.34773 -0.862712
-0.173695 0.163681 -0.22076 0.367167 0.347731 -0.862712
-0.471458 -0.180092 -0.0604289 -0.367167 -0.34773 0.862712
0.213574 -0.315554 0.176518 -0.367167 -0.34773 0.862713
0.157256 -0.38203 -0.193894 -0.895225 -0.119679 -0.429243
0.0142779 -0.36462 -0.300074 0.915099 -0.301244 0.268041
-0.0214924 0.454305 0.0168512 -0.929536 0.103328 -0.353959
0.429414 0.0485588 -0.0104817 0.367167 0.347731 -0.862712
0.369057 -0.0888652 -0.0915601 0.367166 0.347727 -0.862714
0.261868 -0.105884 0.281583 -0.367167 -0.347723 0.862715
-0.396504 0.210043 -0.284662 -0.91676 0.292122 -0.272425
-0.0559257 0.272799 -0.126657 0.367166 0.34773 -0.862713
0.192929 0.0625206 -0.0704683 -0.929906 0.158698 -0.331798
-0.288673 0.153745 0.151922 -0.367167 -0.34773 0.862712
0.188891 0.309418 0.206924 0.76386 0.416519 0.49298
-0.346222 0.0102745 -0.2502 -0.756291 -0.428337 -0.494522
0.38633 -0.216875 0.289817 -0.367167 -0.34773 0.862712
-0.2532 0.379263 -0.124883 0.634809 0.584234 0.505657
-0.1867 -0.212481 -0.377914 0.367167 0.34773 -0.862712
0.0213758 -0.356855 -0.226641 -0.0212944 -0.924107 -0.381539
-0.00764606 0.149194 0.269692 -0.367167 -0.34773 0.862712
-0.320828 0.339283 0.131986 -0.857675 -0.232378 -0.458687
-0.112509 -0.50123 -0.044737 0.826511 -0.547441 0.131105
-0.371898 0.203304 -0.107422 -0.435374 -0.755372 -0.489758
-0.378348 0.0155492 0.058055 -0.367167 -0.34773 0.862712
-0.129708 -0.27847 -0.371171 -0.798025 0.59425 -0.100114
-0.380152 -0.0225847 -0.169847 -0.756288 -0.428341 -0.494523
-0.00957061 -0.261766 -0.322393 0.367184 0.347723 -0.862708
0.111237 -0.294207 0.141568 -0.367167 -0.34773 0.862712
0.106976 0.329558 0.27032 -0.780046 0.620333 -0.081949
0.254521 0.440048 0.0728804 0.367166 0.347731 -0.862712
-0.144441 0.427853 -0.101831 0.367167 0.34773 -0.862712
0.230644 -0.237589 0.215208 -0.367167 -0.34773 0.862712
0.0891437 0.324723 0.357214 -0.765832 0.639412 -0.0682099
-0.0197822 -0.0738734 -0.26131 0.367167 0.347731 -0.862712
0.359283 0.239445 0.219853 -0.282712 0.925334 0.252649
-0.150759 -0.0987663 -0.00401451 0.483602 0.720916 0.496396
0.102192 -0.0871707 -0.144701 -0.446304 0.879614 0.164597
-0.0283903 -0.191703 0.0598517 -0.446304 0.879614 0.164597
0.162651 -0.336429 0.146432 -0.367167 -0.34773 0.862712
0.1042 -0.0710036 0.238843 -0.367169 -0.347731 0.862711
-0.084375 0.361152 0.321339 0.908573 0.0645622 0.412708
-0.348966 0.0909407 -0.264222 -0.36235 0.907694 0.211646
-0.146155 -0.447627 -0.0298154 -0.367167 -0.34773 0.862712
-0.157326 -0.332919 -0.341983 -0.92919 0.179351 -0.323169
-0.161454 0.0623359 0.116731 0.446304 -0.879614 -0.164597
-0.291163 -0.10714 -0.301454 -0.915488 -0.0289624 -0.401302
-0.173772 0.427516 0.0745303 -0.921619 0.0106375 -0.38795
-0.248063 -0.442131 -0.12199 -0.389201 -0.784962 -0.482034
-0.379506 0.330836 0.0119577 -0.733793 0.678258 -0.0389167
0.370643 -0.340655 -0.0280634 0.715294 -0.698448 0.022906
-0.237653 0.00816339 -0.310665 0.367167 0.347729 -0.862712
-0.24582 -0.382545 -0.0774855 -0.888721 0.404886 -0.215041
0.111788 -0.51327 0.0197541 0.322164 -0.917626 -0.232752
-0.386686 -0.0509695 -0.233311 -0.391425 0.899133 0.195821
-0.484199 -0.00721681 -0.14483 -0.923058 0.0218619 -0.384038
0.393664 -0.0983965 0.33515 0.462615 -0.872913 -0.154954
-0.0360455 -0.399655 -0.330188 -0.157287 -0.890926 -0.426043
-0.0893911 0.373672 -0.100241 0.367167 0.34773 -0.862712
0.313862 0.254681 0.023421 0.367167 0.34773 -0.862712
0.358823 -0.249273 -0.160571 0.367164 0.347727 -0.862714
-0.2313 -0.212738 -0.314171 -0.827572 0.545541 -0.132322
0.200607 -0.300408 -0.248518 0.367166 0.34773 -0.862712
0.232833 -0.0169823 0.305059 -0.367167 -0.347731 0.862712
0.125064 -0.0288761 0.0760155 -0.929906 0.158698 -0.331798
-0.411194 -0.0774383 -0.286672 -0.872582 -0.192476 -0.448948
-0.183438 -0.029183 0.0598141 0.929906 -0.158698 0.331798
-0.185879 0.374601 0.0297082 -0.0349682 0.931997 0.360774
-0.0833067 -0.439503 -0.0511395 0.853923 -0.493744 0.164415
0.239309 -0.415184 0.0588952 0.857675 0.232378 0.458687
-0.204985 -0.0699675 0.100695 0.929906 -0.158698 0.331798
-0.479025 0.118855 -0.0339791 -0.160685 0.937261 0.309391
-0.0913209 -0.148774 0.0107046 0.483602 0.720916 0.496396
0.187581 -0.141351 -0.189951 0.367167 0.34773 -0.862712
-0.353805 -0.0993786 -0.258318 0.427286 -0.886895 -0.175626
0.453588 -0.037563 0.215154 0.926231 -0.0515795 0.37341
0.24308 0.289837 0.00746649 0.367167 0.34773 -0.862712
0.315777 -0.283407 -0.0738088 -0.15028 -0.893131 -0.423949
0.0105853 -0.191465 -0.285479 0.367167 0.34773 -0.862712
0.123531 0.367375 0.155484 0.261248 0.851607 0.45444
-0.0555956 -0.0679179 -0.141527 0.483602 0.720916 0.496396
-0.244072 0.155378 -0.25406 0.367167 0.34773 -0.862712
0.379045 -0.25764 -0.0521839 0.601889 0.618318 0.505384
0.470084 -0.143876 -0.0707367 0.367177 0.347741 -0.862704
-0.52318 0.0609736 0.00408423 -0.498518 -0.709469 -0.49813
-0.343938 0.0678759 0.0937906 -0.367164 -0.347722 0.862717
-0.213211 0.0630101 0.154632 -0.742455 0.668271 -0.0466284
0.106228 -0.407226 0.0938821 -0.367167 -0.34773 0.862712
-0.0107278 0.427665 -0.0449995 0.367168 0.34773 -0.862712
0.396788 0.21386 0.0422604 0.36717 0.347723 -0.862713
0.399201 -0.0683143 0.104636 0.870672 0.197869 0.450309
0.374167 -0.248861 0.0543971 -0.319859 -0.823728 -0.468147
0.129222 0.44516 0.118989 0.926389 -0.0533268 0.372773
0.0295336 -0.471208 -0.0383572 0.929621 -0.168603 0.327685
-0.285997 0.288468 -0.164089 -0.694447 0.719523 -0.00553843
0.138733 0.370454 0.231251 -0.789322 0.607168 -0.0912034
-0.237057 -0.149582 -0.370666 0.34304 -0.912735 -0.221896
0.0521475 0.375659 -0.0392019 0.367167 0.34773 -0.862712
0.0430017 -0.293086 0.112979 -0.367166 -0.34773 0.862713
0.370417 0.190038 0.275719 0.804114 -0.584859 0.106491
-0.298376 -0.263862 -0.0205304 -0.367166 -0.347731 0.862712
0.00846303 -0.0748122 -0.193922 0.483602 0.720916 0.496396
-0.30964 -0.371231 -0.101174 0.569689 -0.817248 -0.0869477
-0.00921126 0.0940974 0.166643 -0.483602 -0.720916 -0.496396
-0.0769618 0.475194 -0.00410909 0.805435 0.345067 0.481875
-0.427505 -0.155274 -0.135336 0.168242 -0.937022 -0.306079
0.151643 0.271358 0.297031 0.681421 0.530762 0.503942
-0.153024 0.268531 -0.169702 0.367167 0.34773 -0.862713
0.397181 -0.0352305 0.291658 0.198241 0.876929 0.437831
-0.421675 -0.0664897 -0.0693582 -0.878821 -0.174174 -0.444226
0.399958 0.0716272 0.310912 0.861924 0.221485 0.456105
0.117087 -0.155487 0.199971 -0.367167 -0.34773 0.862712
-0.0154582 0.328455 -0.0870007 0.367167 0.34773 -0.862712
-0.0539082 -0.459185 0.00478575 -0.367165 -0.34773 0.862713
0.369051 -0.177158 0.180182 -0.152572 -0.892416 -0.424636
-0.437964 -0.0572186 0.00335233 -0.367167 -0.347729 0.862712
0.314985 -0.262289 0.0857732 0.794679 -0.599285 0.0966607
0.420851 -0.288792 -0.1501 0.367167 0.34773 -0.862712
-0.321658 0.309773 0.0411462 0.649037 0.568603 0.505412
0.08632 -0.38363 -0.159056 0.851333 -0.499284 0.16108
0.121634 -0.486919 -0.0502112 -0.659723 -0.556477 -0.505073
-0.118473 -0.397297 0.0022523 -0.367167 -0.34773 0.862712
0.171242 -0.0479034 -0.169544 0.367167 0.34773 -0.862712
-0.4619 0.140862 -0.0922636 -0.199584 0.935343 0.292063
-0.310792 -0.303776 -0.219444 -0.87377 0.446955 -0.191721
0.438162 0.165188 0.110845 -0.16824 0.937022 0.306079
0.010014 0.371826 0.190155 -0.242342 0.931222 0.272204
-0.216586 0.441359 -0.11441 -0.872739 -0.192026 -0.448834
0.437558 0.258198 0.077483 0.367167 0.34773 -0.862712
0.282353 0.299704 0.291097 0.594595 0.625503 0.505176
0.280998 -0.409911 -0.0791221 0.53703 -0.836541 -0.108623
-0.125029 0.408706 0.292771 -0.887551 0.408463 -0.2131
-0.0352696 -0.410246 -0.0941619 -0.0212947 -0.924107 -0.381539
-0.235452 -0.333673 -0.021889 -0.367178 -0.347722 0.862711
0.364385 -0.214078 0.130995 0.360778 0.801644 0.476661
0.180826 0.141239 -0.0869602 -0.483602 -0.720916 -0.496396
-0.381878 -0.125128 -0.196583 0.427289 -0.886893 -0.175624
0.0876154 -0.212581 -0.261206 0.367167 0.34773 -0.862712
-0.0390276 0.491245 0.113881 -0.114682 0.93734 0.329002
0.0494666 0.357822 0.30223 0.929173 -0.179732 0.323008
0.347356 -0.319416 0.231898 -0.367168 -0.347728 0.862713
0.0997414 0.182377 0.32877 -0.367167 -0.34773 0.862712
0.125213 -0.35063 -0.257138 0.920279 -0.270601 0.282597
0.21391 -0.446662 0.121882 0.872739 0.192026 0.448834
0.418538 0.0748067 0.193858 0.503118 -0.854349 -0.130234
0.425553 -0.105627 -0.0248139 0.880365 -0.429298 0.201644
-0.118945 -0.353889 -0.297965 0.740586 -0.670456 0.0449523
-0.256528 0.426066 -0.0281049 -0.897841 -0.109854 -0.426396
-0.40788 0.0293755 -0.275087 -0.198241 -0.876929 -0.437831
-0.144143 -0.111394 -0.319056 0.367167 0.34773 -0.862712
0.302682 -0.387419 -0.145136 0.53703 -0.836541 -0.108623
0.365375 0.0236425 -0.0477793 0.367167 0.34773 -0.862712
-0.218613 0.386794 -0.0703995 -0.788032 -0.376456 -0.48712
0.0189475 0.477113 0.0730545 0.873182 0.190762 0.448512
-0.215552 -0.354181 -0.149203 -0.876253 0.440454 -0.195398
-0.320146 0.315699 -0.210944 0.197438 0.877222 0.437607
-0.426218 0.177826 -0.023353 -0.458397 -0.739396 -0.493118
0.20442 -0.229939 -0.218491 0.367175 0.347733 -0.862708
-0.124849 0.0913263 -0.0467487 0.929906 -0.158698 0.331798
-0.309747 -0.00772839 0.0778687 -0.367167 -0.34773 0.862712
0.195514 -0.168272 0.228196 -0.367159 -0.347706 0.862725
-0.300315 -0.0542471 -0.360629 0.273363 -0.926874 -0.257249
0.363979 0.0460607 0.386284 -0.367166 -0.347729 0.862713
0.284627 -0.314851 0.00331747 -0.232253 -0.863841 -0.447031
0.169748 -0.0306406 0.272705 -0.367167 -0.34773 0.862712
-0.130632 -0.221035 0.0784272 -0.367167 -0.34773 0.862712
-0.338163 0.0656975 -0.330251 0.367167 0.34773 -0.862712
0.317231 0.183771 0.370872 0.742051 0.449738 0.497088
-0.308612 0.39824 -0.150052 -0.733793 0.678258 -0.0389167
0.424029 -0.228913 0.0904128 0.656032 0.560705 0.505206
0.487464 0.0386248 0.102535 0.238438 0.861316 0.448645
-0.086052 -0.2699 0.0674 -0.367167 -0.34773 0.862712
-0.114721 -0.339701 -0.395875 -0.362211 -0.80083 -0.476943
-0.322795 -0.00492164 -0.320951 -0.571734 0.815966 0.0855606
-0.34624 0.239622 0.0192839 -0.917672 0.286865 -0.274932
0.426833 0.245448 0.150466 0.759465 0.423419 0.493891
0.323545 -0.295205 0.170577 -0.35838 -0.803 -0.476187
-0.400021 0.0925908 -0.340425 -0.926231 0.0515795 -0.37341
-0.42745 0.285118 0.11916 -0.733792 0.678258 -0.0389161
-0.0896287 -0.0483638 -0.27045 0.367168 0.347729 -0.862712
-0.12123 0.424645 -0.0372317 -0.911579 0.318958 -0.259403
0.114197 -0.418408 -0.266413 0.899075 -0.370431 0.233335
0.109224 0.0959275 0.0486025 -0.483602 -0.720916 -0.496396
-0.0786778 0.0963109 0.159614 0.446304 -0.879614 -0.164597
0.325458 0.304012 0.120626 0.666287 -0.745504 -0.0169181
0.219707 0.226905 -0.0278468 0.367167 0.34773 -0.862712
-0.428194 0.0443103 -0.162839 -0.24094 0.931392 0.272869
-0.34803 0.177488 -0.169506 -0.620459 0.782555 0.0513564
-0.147078 0.322491 0.2802 -0.367178 -0.347731 0.862707
0.0955681 -0.416111 -0.0622446 -0.733699 -0.461822 -0.498404
-0.239661 -0.3051 -0.193107 0.622327 -0.781159 -0.0499989
0.106811 0.248007 -0.0673892 0.367152 0.347736 -0.862716
0.0123156 0.172035 0.00166909 0.446304 -0.879614 -0.164597
0.309753 -0.300064 -0.144067 0.788032 0.376456 0.48712
-0.434152 -0.09716 -0.233595 -0.872582 -0.192476 -0.448948
0.129091 -0.417836 -0.123765 -0.826057 -0.304448 -0.474279
-0.340783 0.156918 -0.288972 -0.167346 -0.887664 -0.429009
0.135882 -0.222923 0.180789 -0.367167 -0.34773 0.862712
0.0551545 0.0952425 0.102273 -0.483602 -0.720916 -0.496396
0.41121 -0.231149 -0.123107 0.652251 0.564992 0.505324
0.510637 -0.100013 -0.00494907 0.237999 -0.931739 -0.274261
0.007638 0.386706 0.367754 0.157287 0.890926 0.426043
-0.0848754 -0.317309 -0.347574 0.84078 -0.520775 0.147926
-0.21872 0.232508 -0.212181 0.367167 0.34773 -0.862712
0.268654 0.0530001 -0.0771102 0.367167 0.347731 -0.862712
0.0178866 0.528667 0.00788935 0.367167 0.34773 -0.862712
0.319686 -0.161782 0.283659 -0.367167 -0.34773 0.862712
0.223644 -0.364544 -0.264564 0.367167 0.34773 -0.862712
-0.134192 -0.443176 -0.105474 -0.930155 0.137054 -0.340628
0.00647635 -0.491521 0.0165641 0.930123 -0.129574 0.34363
-0.440776 0.155497 0.0878939 -0.367167 -0.34773 0.862712
-0.326224 -0.149496 -0.235785 -0.716958 0.696692 -0.0243217
0.251607 -0.337197 0.0590065 0.233173 -0.932287 -0.276536
-0.148435 0.0685677 -0.248347 0.367167 0.34773 -0.862712
-0.128943 -0.201826 -0.349037 0.367181 0.347719 -0.862711
-0.303648 -0.330023 -0.0494419 -0.367167 -0.34773 0.862712
-0.399745 -0.127964 -0.008897 -0.367167 -0.347729 0.862712
0.125138 0.258102 0.352712 0.920399 -0.00184118 0.390976
-0.184956 0.438157 -0.0460793 0.657573 0.558945 0.505152
0.17476 -0.443553 -0.0791384 0.929127 -0.0935082 0.357743
0.176278 0.279718 -0.025043 0.367166 0.347731 -0.862712
0.255772 -0.180118 0.249067 -0.367167 -0.34773 0.862712
0.163815 0.206319 0.36569 -0.367167 -0.34773 0.862712
0.316357 0.307089 0.201805 0.87377 -0.446955 0.191721
0.351646 0.375081 0.116208 0.594595 0.625503 0.505176
0.449522 -0.21305 -0.0507468 -0.0819115 -0.911802 -0.402378
0.296569 -0.340241 -0.0880759 0.801657 0.352085 0.483096
0.0782291 0.0527292 0.267358 -0.367167 -0.34773 0.862712
0.0018647 -0.139703 -0.0932528 0.483602 0.720916 0.496396
-0.386343 -0.204699 -0.121719 -0.54093 0.834351 0.106081
0.0607117 0.454897 0.204552 0.128132 0.899742 0.417188
-0.437226 -0.275148 -0.109022 -0.759465 -0.423419 -0.493891
-0.197528 0.352359 0.10749 -0.446514 0.87953 0.164474
-0.220155 0.340898 -0.169104 0.367167 0.34773 -0.862712
0.365256 0.0434916 0.232628 0.468999 -0.870172 -0.151133
-0.204701 0.280119 0.238597 -0.367167 -0.34773 0.862712
0.0488248 0.297465 -0.0721333 0.367167 0.34773 -0.862712
0.31946 -0.198585 -0.156893 0.367166 0.347729 -0.862713
0.428966 -0.167731 0.00534278 0.397823 0.779676 0.483573
0.238795 -0.0744823 -0.141202 0.367167 0.34773 -0.862712
-0.0539191 -0.435676 -0.150886 0.876372 -0.440139 0.195576
0.455779 -0.219492 0.0291546 0.856733 -0.487602 0.168086
0.146303 0.470154 0.0389582 0.367167 0.34773 -0.862712
-0.0756671 0.112892 -0.174273 0.929906 -0.158698 0.331798
0.0543661 0.425589 0.0559345 0.0212947 0.924107 0.381539
-0.336069 -0.234163 -0.203745 0.47173 -0.868979 -0.14949
0.317176 -0.209723 0.227104 0.892714 -0.392237 0.221838
0.0727183 -0.1097 0.184065 -0.929906 0.158698 -0.331798
-0.14546 -0.297868 0.0308433 -0.367179 -0.347724 0.862709
0.204135 0.274027 0.256627 -0.413339 0.891881 0.183572
-0.103232 0.51413 -0.0495176 0.367167 0.34773 -0.862712
-0.185628 0.389686 -0.134744 0.367166 0.347729 -0.862713
-0.27297 -0.248023 -0.207316 -0.917933 0.285317 -0.275667
-0.362414 0.0890033 -0.194857 -0.929911 0.15846 -0.331897
0.161612 -0.444114 0.0844507 -0.764983 -0.414738 -0.49274
-0.261347 0.346329 0.0300042 -0.788031 -0.376458 -0.48712
-0.165058 0.046568 0.0445328 0.929906 -0.158698 0.331798
-0.197049 -0.201961 0.0475437 -0.367167 -0.34773 0.862712
-0.0152777 0.345377 0.27979 -0.817579 0.562948 -0.121053
0.271644 -0.380239 0.107484 -0.425969 -0.761659 -0.488289
-0.345098 -0.261189 -0.0901525 -0.126085 -0.900326 -0.416552
-0.163819 -0.0181255 -0.289837 0.367167 0.34773 -0.862712
0.11567 -0.117813 -0.211068 0.367167 0.34773 -0.862712
0.39176 0.117265 0.231516 -0.125726 0.937534 0.32438
-0.0926138 0.103016 0.0859923 0.446304 -0.879614 -0.164597
-0.0929775 -0.486049 -0.127459 -0.128132 -0.899742 -0.417188
-0.0427624 0.15078 -0.0340862 0.446304 -0.879614 -0.164597
-0.322619 -0.128266 0.0238056 -0.367167 -0.34773 0.862712
0.191659 -0.390886 -0.00770471 -0.654508 -0.562438 -0.505256
-0.0143783 -0.408452 0.0420584 -0.367166 -0.34773 0.862713
-0.282769 -0.272098 -0.272582 -0.859558 0.481281 -0.171836
-0.285964 -0.191161 -0.281409 0.528645 -0.841147 -0.114049
0.0142378 0.209708 -0.13253 0.367167 0.34773 -0.862712
-0.161823 -0.264191 -0.296278 -0.483398 -0.72107 -0.496371
-0.0943613 -0.416538 -0.201528 -0.926389 0.0533268 -0.372773
-0.209447 0.0587881 -0.278255 0.367167 0.34773 -0.862712
0.324769 -0.377527 0.0649615 -0.243482 -0.859222 -0.449948
-0.259333 -0.264221 -0.357077 -0.897722 0.375261 -0.230812
-0.0238784 0.233985 0.29696 -0.367167 -0.34773 0.862712
0.218101 0.0547351 0.327696 -0.367167 -0.34773 0.862712
0.364552 -0.291722 -0.11163 -0.445478 -0.748464 -0.491274
0.0843691 -0.385203 -0.313116 -0.859144 -0.228652 -0.45781
0.341683 0.164203 0.201382 0.716958 -0.696692 0.0243217
0.0722341 -0.448053 -0.153179 0.908784 -0.331782 0.253045
0.0621813 -0.461235 0.0255316 -0.856368 -0.23566 -0.459453
0.499358 0.0321841 0.0126861 0.367167 0.34773 -0.862712
-0.135825 0.0934394 0.0200062 0.446304 -0.879614 -0.164597
-0.223628 0.342707 0.205373 -0.889079 -0.141378 -0.435373
0.27668 -0.282568 0.216671 -0.367167 -0.34773 0.862712
0.0130399 -0.465901 -0.138436 -0.843364 -0.266757 -0.466453
0.357311 0.26811 0.0727747 -0.101119 0.936918 0.334604
0.0617445 0.444333 0.135302 -0.876372 0.440139 -0.195576
0.0813023 -0.0257274 0.20017 -0.929906 0.158698 -0.331798
-0.00227486 -0.229327 0.129713 -0.367167 -0.34773 0.862712
-0.176079 -0.308675 -0.233353 -0.928782 0.086673 -0.360351
-0.0600536 0.409096 0.0989907 -0.867285 0.463185 -0.182419
-0.110576 0.237385 0.261432 -0.367166 -0.34773 0.862713
0.330524 -0.0649971 0.327283 -0.367167 -0.34773 0.862712
-0.452755 0.0242961 -0.218612 -0.923058 0.0218601 -0.384039
0.176396 -0.0457874 -0.0759371 -0.929906 0.158698 -0.331798
0.306579 -0.00801077 -0.0855611 0.367167 0.34773 -0.862712
-0.282025 0.0814085 0.125595 -0.367166 -0.347729 0.862713
0.021753 -0.406772 -0.171863 -0.928749 0.0860759 -0.360578
0.212674 0.442509 0.137206 -0.629499 0.775711 0.0447507
-0.0671501 0.438641 0.249608 0.806955 0.342209 0.48137
-0.167733 0.222872 0.231257 -0.367167 -0.34773 0.862712
-0.298335 0.364637 0.0773716 -0.87274 -0.192026 -0.448834
0.0840581 0.120643 0.297213 -0.367167 -0.347729 0.862712
-0.299893 -0.264255 -0.142838 -0.859444 -0.227885 -0.457629
0.355644 0.255004 0.142893 -0.560895 0.822661 0.0928723
-0.262887 0.0965777 -0.285767 0.367167 0.347729 -0.862713
-0.414958 0.167862 -0.15072 -0.0836189 0.936077 0.341713
0.00989815 0.140328 0.0808858 -0.483602 -0.720916 -0.496396
0.173789 0.399941 0.066565 0.0427419 0.920206 0.389094
-0.372662 0.247598 0.154006 -0.367167 -0.34773 0.862712
0.262694 -0.371955 -0.00874948 0.80166 0.35208 0.483095
-0.361866 0.345914 -0.0499553 -0.82437 -0.307932 -0.474966
-0.0236212 -0.514606 -0.0434372 -0.806955 -0.342209 -0.48137
-0.174813 -0.390146 -0.265538 -0.362211 -0.80083 -0.476943
-0.349779 -0.20262 -0.30523 -0.742051 -0.449738 -0.497088
-0.241343 0.39959 0.24709 -0.349679 0.911059 0.218395
-0.295042 -0.193691 0.00917197 -0.367167 -0.34773 0.862712
0.150431 -0.053257 -0.00673745 -0.929906 0.158698 -0.331798
0.238667 0.309357 0.165188 -0.20669 0.934805 0.288822
-0.121765 0.202744 -0.182914 0.367167 0.34773 -0.862712
0.146678 -0.405122 0.0366101 0.446514 -0.87953 -0.164474
0.480162 -0.110423 0.10818 0.921287 -0.263719 0.2858
-0.221705 -0.266313 -0.403182 -0.571609 -0.647341 -0.504196
-0.0895414 0.00418122 -0.187385 0.929906 -0.158698 0.331798
-0.112201 -0.382454 -0.141076 -0.772558 -0.402529 -0.491044
0.374795 0.140378 0.14418 0.274446 0.845702 0.457677
-0.0823159 0.423182 0.163387 -0.929621 0.168603 -0.327685
0.345791 -0.0918199 0.259959 0.542814 -0.833283 -0.104849
-0.141347 -0.00538015 -0.0467658 0.929906 -0.158698 0.331798
-0.0612941 0.212864 -0.153099 0.367167 0.34773 -0.862712
-0.262232 -0.0563956 0.0784749 -0.367167 -0.347731 0.862712
0.19741 0.387671 0.251574 0.389201 0.784962 0.482034
-0.130711 0.371273 0.158377 0.485295 0.719637 0.496601
0.459528 0.125707 0.172036 0.872582 0.192476 0.448948
0.201154 -0.435451 -0.148238 0.929334 -0.176114 0.324535
0.320846 -0.330392 0.103578 0.708131 0.496884 0.501655
-0.346762 -0.0782695 -0.326695 0.168242 -0.937022 -0.306079
0.289892 0.26284 0.166482 0.927801 -0.202864 0.3131
-0.365236 -0.0197793 -0.376226 0.367168 0.34773 -0.862712
-0.109195 0.380021 0.223959 -0.916848 -0.0210297 -0.398683
0.034007 0.180751 0.300139 -0.367166 -0.34773 0.862712
-0.331468 0.294877 0.190595 -0.367167 -0.34773 0.862712
-0.424217 0.0912093 -0.122996 -0.128076 -0.899758 -0.417171
-0.34226 0.237701 -0.187469 -0.360778 -0.801644 -0.476661
-0.0428076 -0.0330208 -0.204666 0.483602 0.720916 0.496396
0.0485426 0.0386253 0.19094 -0.483602 -0.720916 -0.496396
-0.24038 0.215103 0.197207 -0.367166 -0.34773 0.862712
0.296251 0.11443 0.373295 0.657864 -0.752772 -0.0234325
-0.0669048 -0.21913 -0.329609 0.367168 0.34773 -0.862712
-0.00756584 0.305066 0.332553 -0.367167 -0.34773 0.862712
0.0581712 0.249672 0.338203 -0.367166 -0.34773 0.862712
0.484462 0.134148 0.0641331 0.56667 -0.819125 -0.0889889
0.386289 -0.148081 0.0579731 0.892714 -0.392237 0.221838
-0.101269 0.129388 -0.0946308 0.929906 -0.158698 0.331798
0.0667656 -0.184006 0.177364 -0.367167 -0.34773 0.862712
0.323493 0.0739651 0.314816 -0.351124 0.910686 0.217629
0.32449 0.141041 0.31122 0.657864 -0.752772 -0.0234325
0.037374 -0.169223 0.118034 -0.446304 0.879614 0.164597
-0.279603 0.358288 -0.187395 0.367207 0.347762 -0.862683
-0.325443 0.28234 -0.0402644 -0.6913 -0.518534 -0.503218
0.11502 0.325209 -0.0327781 0.367167 0.34773 -0.862712
-0.0251718 -0.332167 0.0682128 -0.367166 -0.34773 0.862713
-0.269696 0.30002 0.215919 0.221993 0.867931 0.444313
-0.217308 -0.44673 -0.0621633 0.740586 -0.670456 0.0449522
-0.210501 0.402523 0.161576 -0.926273 0.0520405 -0.373242
-0.225593 -0.00300793 0.125891 -0.367168 -0.347729 0.862712
0.0739246 0.361294 0.226411 0.929014 -0.0911738 0.358636
0.224316 0.141571 0.365341 -0.367171 -0.347725 0.862713
0.257385 0.332875 0.105902 0.107577 0.905394 0.410718
-0.408275 0.14444 -0.227832 -0.426695 -0.761178 -0.488405
0.294284 0.353529 0.162554 -0.502433 0.854686 0.130661
-0.027303 0.170093 -0.0953801 0.446304 -0.879614 -0.164597
0.0568631 -0.110052 -0.242294 -0.0678596 -0.915007 -0.397689
0.423486 -0.12069 0.176995 0.389619 0.784708 0.48211
0.394308 0.020788 0.156994 0.296924 0.83515 0.46299
