ply
format ascii 1.0
comment Created by Open3D
element vertex 128
property double x
property double y
property double z
property double nx
property double ny
property double nz
end_header
-0.0154933 -0.00163281 -0.406867 -0.426174 -0.503585 -0.751517
-0.135028 0.184845 -0.357819 0.142983 0.135489 0.980407
-0.167649 0.0252395 -0.293885 -0.887868 0.455256 0.0665709
0.175074 0.0865717 0.472495 0.142981 0.135493 0.980407
0.141395 0.0214147 0.00174865 0.979941 0.119567 -0.159437
-0.166616 0.000681656 -0.485787 -0.142984 -0.135492 -0.980407
-0.0204307 0.16389 0.252452 -0.399044 0.914394 -0.0681701
0.0409223 0.0843482 -0.494324 0.275329 0.441075 -0.854194
0.0874222 0.059826 -0.189346 0.794211 0.575386 -0.195344
-0.00530901 0.135266 -0.0499017 -0.0158989 0.990772 -0.134603
0.0850581 -0.12659 -0.487874 0.436469 -0.34133 -0.832459
-0.0235155 -0.0993865 0.230574 -0.369744 -0.911552 0.179897
-0.122567 0.164004 -0.431449 -0.312793 0.686743 -0.65616
-0.11393 -0.137375 -0.381013 -0.14298 -0.135489 -0.980408
-0.138723 0.0462419 -0.0562756 -0.908563 0.410826 0.0757291
0.104804 0.164173 -0.39231 0.482392 0.708312 -0.515356
-0.00849554 0.14619 -0.465211 0.105092 0.6517 -0.75116
-0.215761 -0.0906877 -0.460949 -0.629726 -0.190635 -0.753063
0.178608 0.00359544 0.467807 0.712806 -0.256795 0.652659
-0.247262 -0.0104897 -0.436416 -0.7465 0.0992827 -0.657937
0.0192406 -0.273375 -0.316993 0.142983 0.13549 0.980407
-0.101061 -0.10188 0.000392774 -0.697319 -0.689174 0.196938
0.0882963 0.01833 0.494582 0.142983 0.135489 0.980407
0.0592595 0.130921 0.00233073 0.369745 0.911551 -0.179897
-0.0708837 -0.152743 -0.462011 0.0580983 0.987728 -0.144974
-0.0450573 0.0996478 -0.307384 -0.0158989 0.990772 -0.134603
-0.113758 0.0979085 -0.487226 -0.284386 0.464464 -0.838688
0.00118293 0.178257 0.322914 -0.353404 0.932272 -0.0772968
-0.0597753 0.113064 -0.175175 -0.259598 0.961037 -0.0949526
0.0988273 -0.093519 -0.151921 0.839914 -0.540613 -0.0477814
0.0858527 0.190841 0.373141 0.180501 0.970403 -0.160431
-0.00233566 0.206825 -0.392475 0.143828 0.8614 -0.487138
-0.297938 -0.131292 -0.29391 -0.917957 -0.361514 -0.163285
-0.0614954 -0.311126 -0.300001 0.142981 0.135489 0.980408
0.0341779 -0.153183 -0.192722 0.443695 -0.894242 0.0588732
0.0536838 -0.0896861 0.379422 0.0158989 -0.990772 0.134603
-0.0650682 0.148394 -0.362984 0.142983 0.135489 0.980407
0.0230782 -0.124421 0.126808 0.0652064 -0.989723 0.127267
0.151572 0.0781163 0.14191 0.895486 0.404156 -0.18645
-0.287456 0.0138045 -0.369808 -0.888398 0.183666 -0.420733
0.107532 0.162517 0.265686 0.459316 0.868368 -0.186992
-0.169967 -0.0806038 -0.239816 -0.933003 -0.31208 0.179197
0.0328995 0.0949252 0.492076 0.142981 0.135488 0.980408
0.136856 0.0767248 0.0692344 0.873362 0.448744 -0.189385
-0.129824 -0.121356 -0.169764 -0.731461 -0.652837 0.196896
-0.0561811 -0.14222 -0.0548534 -0.323523 -0.92977 0.175673
0.195266 0.0380665 0.368815 0.983895 -0.126826 -0.125963
-0.206386 -0.0743022 -0.311599 0.142982 0.13549 0.980407
0.103763 -0.0944131 0.13294 0.610197 -0.791986 0.0204593
-0.0793454 0.116301 0.225527 -0.783612 0.620596 0.028517
-0.0861007 0.11197 0.12065 -0.719522 0.694412 0.0089689
0.00690591 -0.00922606 0.51026 0.142982 0.135489 0.980408
0.0614266 -0.0386915 -0.513603 -0.142982 -0.135488 -0.980408
-0.0783938 -0.239739 -0.439513 -0.147169 -0.734479 -0.662482
-0.273262 0.0929953 -0.324966 0.142982 0.13549 0.980407
-0.0759103 0.113602 -0.0939774 -0.443694 0.894242 -0.0588734
-0.267464 -0.149212 -0.365014 -0.832565 -0.392477 -0.390894
0.183851 -0.095968 -0.365516 0.142982 0.13549 0.980407
0.205448 -0.00050406 -0.381859 0.142981 0.135491 0.980407
0.181813 0.131095 0.406859 0.849066 0.492219 -0.19185
-0.0479803 -0.0429439 0.394271 -0.731461 -0.652837 0.196896
-0.082291 -0.0742859 0.162888 -0.731461 -0.652837 0.196896
0.00645127 0.106176 -0.225933 0.276497 0.945676 -0.171013
0.0956607 -0.0543134 -0.315722 0.988019 -0.0776885 -0.133355
-0.0388976 0.13873 0.0304156 -0.30688 0.947834 -0.0862325
0.143609 -0.0575195 0.27389 0.719522 -0.694412 -0.00896898
0.104205 -0.0920095 -0.0690696 0.812772 -0.581328 -0.0381963
-0.171162 -0.274377 -0.313616 -0.458641 -0.864242 -0.206725
-0.135029 -0.0111236 -0.403823 0.8266 -0.561144 -0.0430023
-0.0779146 0.109171 0.328935 -0.887869 0.455256 0.0665711
-0.143488 -0.182231 -0.305857 0.14298 0.13549 0.980408
0.107375 0.170903 0.470276 0.329886 0.75334 0.568906
-0.218819 0.157152 -0.348168 -0.640523 0.684416 -0.348289
0.0833758 0.140795 0.105473 0.459316 0.868368 -0.186992
0.109919 -0.0408897 -0.217905 0.988019 -0.0776885 -0.133355
-0.16133 -0.0147537 -0.131632 -0.989686 0.0283562 0.140416
-0.190505 -0.185388 -0.432576 -0.566008 -0.532551 -0.629305
0.150028 -0.0153336 -0.461193 0.657852 0.0634047 -0.750474
0.0349139 -0.141021 -0.0415578 0.306881 -0.947833 0.0862321
0.0113887 0.165358 0.175234 -0.114351 0.986213 -0.119615
-0.054654 -0.166589 -0.191655 -0.180501 -0.970403 0.160431
0.063311 -0.0772307 0.46955 -0.0334469 -0.989358 0.141604
-0.101683 -0.285846 -0.361117 -0.249644 -0.877799 -0.408836
-0.115023 0.082613 -0.24387 -0.570598 0.820674 -0.030199
0.0146481 -0.189928 -0.327855 0.142983 0.13549 0.980407
0.0192085 0.118964 -0.371208 0.14298 0.13549 0.980408
0.125313 0.00180767 -0.111802 0.979941 0.119566 -0.159437
0.172495 -0.195039 -0.351316 0.728601 -0.57376 -0.374086
0.0359132 -0.0632431 -0.443014 -0.884698 -0.426584 0.187976
-0.00240209 -0.116807 -0.400121 -0.142979 -0.13549 -0.980408
-0.209005 0.103037 -0.42614 -0.606603 0.491109 -0.625176
0.152183 -0.0497848 0.380915 0.684752 -0.728776 0.000850866
0.105815 -0.259746 -0.331502 0.142982 0.135489 0.980407
0.054917 0.109921 -0.107806 0.459317 0.868368 -0.186992
-0.112534 0.0113064 0.199646 -0.985642 -0.0703925 0.153473
-0.117551 -0.051963 0.0777327 -0.895485 -0.404157 0.18645
-0.0241687 -0.278861 -0.391083 0.0265077 -0.871121 -0.490352
-0.305152 -0.0529619 -0.334428 -0.955091 -0.0548837 -0.291186
-0.133208 0.0776263 -0.342364 -0.043277 0.386154 0.921419
0.0786533 -0.115146 -0.260664 0.812772 -0.581328 -0.0381963
0.127404 0.0102703 -0.371966 0.142983 0.135487 0.980408
0.168676 0.0639756 -0.417135 0.716579 0.366823 -0.593259
-0.0568019 0.134531 0.42572 -0.839914 0.540612 0.0477814
0.0442912 -0.101617 0.292711 0.0158989 -0.990772 0.134603
0.153818 -0.10364 -0.446944 0.662728 -0.240516 -0.709186
0.166793 0.114758 0.298472 0.849066 0.492219 -0.19185
-0.0784391 -0.0637773 -0.365164 0.307027 0.118038 -0.944352
-0.066664 0.0169746 0.467976 -0.933003 -0.31208 0.179197
0.0192175 0.191731 0.453855 -0.148846 0.755108 0.63848
-0.123498 -0.0999751 -0.0765783 -0.763785 -0.614877 0.196364
0.0959354 -0.102843 0.0301285 0.648281 -0.761327 0.0106682
0.11262 0.140013 0.181822 0.584851 0.787567 -0.194133
-0.127612 0.0317007 0.088632 -0.977324 0.175649 0.118258
0.107495 -0.193224 -0.434046 0.52751 -0.551104 -0.646543
-0.0110367 -0.204782 -0.474061 0.0735576 -0.595998 -0.799609
-0.229933 -0.199803 -0.290821 0.142982 0.135488 0.980408
0.0598009 0.0517579 -0.32154 0.731462 0.652837 -0.196896
0.171349 0.0166133 0.203727 0.988019 -0.0776885 -0.133355
0.154907 -0.00210725 0.0940225 0.983895 -0.126826 -0.125963
-0.139291 -0.0320106 -0.000442994 -0.961249 -0.2169 0.170162
0.0461279 -0.246013 -0.417954 0.303134 -0.751361 -0.586145
-0.0827925 -0.0338757 0.280371 -0.849066 -0.492219 0.19185
-0.131063 0.0677468 -0.138958 -0.783611 0.620596 0.0285168
-0.027576 -0.0792818 0.316235 -0.502444 -0.843509 0.189846
-0.0912452 0.0277201 0.342839 -0.979941 -0.119566 0.159437
0.10446 -0.13946 -0.347928 0.142981 0.135488 0.980408
-0.0202237 -0.136925 0.0261513 -0.13177 -0.979161 0.154534
-0.169459 0.00345885 -0.218935 -0.956917 0.271862 0.101985
