ply
format ascii 1.0
comment Created by Open3D
element vertex 128
property double x
property double y
property double z
property double nx
property double ny
property double nz
end_header
0.265386 -0.357142 0.159352 0.515566 -0.780979 0.35251
0.391335 -0.303291 0.0880503 0.513793 -0.817626 0.259815
-0.54431 0.0143063 -0.228305 0.448996 -0.491204 0.746406
0.177651 0.152243 0.431855 0.132016 0.180309 0.97471
0.152215 -0.289332 0.349107 0.461075 -0.527029 0.713898
0.00893321 0.351573 -0.33639 0.472007 -0.561544 0.679616
-0.494777 0.03491 -0.244543 0.448996 -0.491204 0.746406
0.125416 0.200651 0.424386 0.0562531 0.306774 0.950118
-0.0037143 -0.047593 0.485804 0.228163 0.00592567 0.973605
-0.432836 -0.015426 -0.301338 0.389859 -0.336622 0.857144
-0.134437 -0.422067 0.435331 0.448996 -0.491202 0.746407
0.394204 -0.134387 0.235991 -0.472008 0.561545 -0.679615
0.486766 -0.124135 0.253723 0.472007 -0.561543 0.679617
-0.0521587 -0.561508 -0.00980001 0.444056 -0.878649 -0.175471
-0.270226 -0.499322 -0.267333 0.171705 -0.634579 -0.753543
-0.138302 0.29977 0.264298 0.264639 -0.743 -0.61475
0.398286 -0.254028 -0.124687 -0.444056 0.878649 0.175472
0.0890402 -0.429296 0.249263 0.512216 -0.736569 0.441701
0.120514 -0.294477 0.293242 -0.481767 0.594664 -0.643642
0.0397883 -0.32243 0.326766 -0.472007 0.561543 -0.679616
-0.62343 0.140555 -0.110782 -0.512216 0.73657 -0.4417
0.110955 0.118381 -0.51137 -0.228163 -0.00592567 -0.973605
-0.163192 -0.525573 -0.102683 -0.365654 0.836697 0.407719
-0.0171621 0.349693 0.255218 0.242251 -0.718507 -0.651968
0.53803 -0.0911965 -0.343807 -0.286368 0.765644 0.576007
0.55712 -0.10761 -0.361489 0.856813 0.473696 -0.203675
0.502006 0.266591 0.363667 0.180988 0.0935832 0.979023
-0.207656 0.419172 -0.0712676 -0.501577 0.85727 -0.116227
-0.416908 0.0194494 -0.294493 0.406195 -0.376769 0.832497
0.0959808 -0.393985 -0.139217 -0.383321 0.849358 0.362844
0.0420495 -0.361885 0.288171 -0.490328 0.626304 -0.606071
0.0673121 0.424368 -0.311758 0.49767 -0.656388 0.566992
-0.250465 0.290957 0.211956 0.347079 -0.821957 -0.451579
-0.349368 0.157471 0.413889 -0.171705 0.63458 0.753542
-0.167893 -0.341379 -0.304327 -0.0973225 0.536475 0.838286
0.217359 -0.335089 -0.264259 0.307386 -0.786385 -0.535828
-0.465026 -0.269287 -0.370188 -0.156698 -0.137115 -0.978082
-0.362386 -0.0961507 0.548502 0.081732 0.265243 0.960711
0.354213 -0.238044 -0.326777 0.286369 -0.765645 -0.576005
0.457236 -0.00731608 0.28038 -0.406195 0.376769 -0.832496
-0.0469233 -0.450686 -0.150095 -0.347079 0.821957 0.451579
0.444331 0.0437696 -0.483896 0.856813 0.473696 -0.203676
-0.349094 -0.208558 -0.397274 -0.156698 -0.137115 -0.978082
0.212156 -0.121768 -0.458476 0.0464211 -0.464266 -0.884478
-0.175045 0.363996 0.2455 -0.327639 0.805172 0.494319
-0.380258 0.0683789 -0.28929 0.421522 -0.415979 0.80578
0.25849 0.131923 0.370502 -0.180989 -0.0935825 -0.979023
-0.0914496 -0.268801 -0.340685 -0.0719617 0.500994 0.862454
-0.518898 0.245209 -0.00768575 -0.506913 0.846148 -0.164539
-0.351035 0.337389 0.0934495 0.853757 0.473858 -0.215772
-0.0679915 -0.518856 0.0376541 -0.467944 0.880247 0.0786979
-0.129112 0.325453 -0.253861 0.49767 -0.656388 0.566991
-0.139814 0.400072 0.0454767 0.454324 -0.88042 -0.135833
-0.401831 -0.0297871 0.526475 0.00494047 0.387446 0.921879
0.0378763 -0.501739 0.16252 0.513793 -0.817626 0.259815
0.171978 -0.223642 0.314624 -0.448996 0.491204 -0.746406
-0.117256 -0.404087 0.368367 -0.472007 0.561543 -0.679616
0.134644 0.483632 0.240682 -0.242251 0.718508 0.651967
0.126293 0.425275 0.296674 -0.195726 0.664229 0.72145
-0.219161 0.341493 0.252913 -0.327639 0.805172 0.494319
-0.665154 0.124479 -0.0537479 -0.856813 -0.473696 0.203677
-0.328616 0.120766 0.383196 0.171704 -0.634578 -0.753544
-0.201095 -0.567827 0.232047 -0.51532 0.800297 -0.306545
-0.238193 -0.57102 -0.178696 0.286369 -0.765645 -0.576004
0.228859 0.0235195 0.376943 -0.27307 0.0817915 -0.958511
-0.146488 -0.544743 0.327594 0.508628 -0.711589 0.484704
0.0852534 -0.410247 0.162072 -0.51532 0.800297 -0.306545
0.595663 -0.017343 0.192783 -0.472008 0.561545 -0.679615
0.257896 0.0766039 0.42374 0.228163 0.00592567 0.973605
0.272816 -0.388396 -0.00489168 0.487182 -0.873097 0.0188596
0.326506 -0.0145016 0.391418 0.335208 -0.211569 0.918082
0.107779 -0.150454 -0.448412 0.0207671 -0.426388 -0.904302
-0.0186116 -0.546459 0.1101 0.501577 -0.85727 0.116226
-0.0466148 0.474782 0.139601 -0.383321 0.849358 0.362844
-0.0262406 -0.127332 0.488893 0.27307 -0.0817919 0.958511
-0.560203 0.149765 0.339163 -0.327639 0.805172 0.494319
-0.498855 -0.080644 -0.295083 0.354321 -0.253919 0.89999
-0.0601124 0.404768 -0.310761 -0.49767 0.656388 -0.566991
0.0784732 -0.263809 -0.319877 -0.171705 0.634579 0.753543
-0.01373 -0.233459 0.463784 0.372552 -0.295637 0.879661
-0.612281 0.138969 -0.126356 -0.512216 0.73657 -0.4417
-0.00260419 0.349861 0.26042 0.219261 -0.692229 -0.687564
-0.0739366 -0.580152 0.0653064 0.478157 -0.877763 -0.0299566
-0.218761 -0.534996 -0.12714 -0.327639 0.805172 0.494319
0.44124 0.104825 0.374769 0.294532 -0.125398 0.947379
-0.224575 -0.641963 0.0171137 -0.856813 -0.473696 0.203676
-0.23693 0.306378 -0.168856 0.514531 -0.759719 0.397599
-0.206695 -0.639193 -0.00840529 0.43044 -0.874571 -0.223265
0.528629 0.223621 0.359399 0.228163 0.00592567 0.973605
-0.0690085 0.500837 -0.0247827 -0.476787 0.878329 0.0348323
-0.487829 -0.174701 -0.368129 -0.250928 0.037979 -0.967261
0.355439 -0.222091 0.261564 0.490328 -0.626304 0.606071
-0.203629 -0.156043 -0.427667 -0.132016 -0.180309 -0.97471
-0.155632 0.439678 -0.122577 -0.510988 0.832923 -0.21244
-0.129158 0.102581 0.415138 0.0207666 -0.426387 -0.904303
-0.0236878 -0.211286 -0.422748 0.0207677 -0.426388 -0.904302
-0.57137 0.164142 0.126519 0.468161 -0.880127 -0.0787508
0.522966 -0.246282 -0.128067 0.456567 -0.880543 -0.127244
0.152067 0.28681 -0.447566 0.372553 -0.295639 0.87966
0.118993 0.418872 -0.357222 0.472007 -0.561544 0.679616
-0.177363 -0.596524 -0.0916336 0.383321 -0.849358 -0.362844
0.169838 0.567624 -0.008624 0.443895 -0.878738 -0.175434
0.319352 -0.219832 0.290925 0.472007 -0.561543 0.679617
-0.112574 0.419842 -0.0169543 0.481733 -0.876244 -0.0113615
-0.171147 -0.567436 0.00362491 -0.444056 0.878649 0.175472
0.483683 -0.2374 -0.233933 0.383321 -0.849358 -0.362844
0.140256 0.00607915 -0.503901 -0.107007 -0.223054 -0.968915
0.185941 0.460912 -0.368703 0.481766 -0.594663 0.643644
-0.281657 0.317667 0.250053 -0.347078 0.821956 0.45158
0.579297 -0.00186283 0.281299 0.435801 -0.454156 0.777058
-0.46349 0.192946 -0.0912257 0.515566 -0.780979 0.35251
0.502047 0.291946 0.336094 0.856814 0.473695 -0.203675
-0.115838 -0.404976 -0.311605 0.171705 -0.634579 -0.753543
0.150712 -0.160168 -0.383307 -0.0973228 0.536475 0.838286
-0.101863 -0.182203 0.505623 0.294531 -0.125398 0.947379
0.219177 -0.32089 0.164417 -0.514531 0.759719 -0.397599
0.0927942 0.258317 -0.487917 -0.354321 0.25392 -0.89999
-0.237419 -0.562577 -0.189536 0.286369 -0.765645 -0.576004
-0.333888 0.257621 0.206419 0.365654 -0.836697 -0.407721
-0.13094 0.407932 -0.236026 -0.512216 0.736569 -0.441701
-0.132235 -0.133253 -0.441552 -0.132016 -0.18031 -0.97471
-0.598032 -0.0987031 -0.290447 -0.856814 -0.473694 0.203677
0.490807 0.050032 0.345198 0.354321 -0.25392 0.899989
0.575147 -0.118868 -0.311838 0.856813 0.473696 -0.203675
0.449305 0.0109124 -0.515674 0.0464219 -0.464268 -0.884478
-0.104022 0.205856 0.35912 0.122442 -0.570622 -0.812033
-0.124644 0.455406 -0.135447 -0.510988 0.832923 -0.212442
0.443324 -0.183666 -0.259321 -0.347079 0.821957 0.451579
