ply
format ascii 1.0
comment Created by Open3D
element vertex 512
property double x
property double y
property double z
property double nx
property double ny
property double nz
end_header
-0.0864886 -0.355345 -0.217326 0.138998 -0.79452 0.591115
-0.0574282 -0.272849 -0.10931 0.196926 -0.80259 0.563089
0.396765 -0.220284 -0.170929 0.159817 -0.78798 0.594598
-0.202822 -0.371185 -0.203552 0.172874 -0.808594 0.562397
0.0483486 -0.229369 -0.101729 -0.183225 0.833466 -0.521309
0.469252 0.17233 0.0781266 -0.988513 -0.146336 0.0377763
0.459904 0.186356 -0.0944149 -0.992887 -0.118484 0.0116951
-0.44075 0.160647 0.310877 0.214096 -0.59245 -0.776637
-0.0754367 -0.309405 -0.180589 -0.230034 0.817924 -0.527338
-0.479498 -0.125867 -0.0933933 0.975829 0.207988 -0.0670803
0.198839 -0.247504 -0.26816 -0.058067 0.571694 0.81841
0.458464 0.17297 -0.112121 -0.968772 -0.233224 0.0841842
0.310815 -0.200733 -0.29282 0.0240141 0.53978 0.841464
0.0974923 0.271507 0.271917 0.0712491 -0.606499 -0.791886
0.441391 0.244448 0.311156 0.480901 0.556368 0.677635
0.510897 -0.0340141 -0.0436574 0.983868 0.171052 -0.0523876
-0.126206 -0.0340685 0.231679 -0.185149 0.810499 -0.555707
-0.333439 -0.225964 0.0388567 0.211642 -0.80916 0.54815
0.0575266 -0.273382 -0.27211 0.0692233 -0.593898 -0.801557
-0.284472 -0.17191 0.101503 0.122467 -0.785613 0.606477
-0.272484 -0.168984 -0.368784 -0.0275399 -0.518105 -0.854874
0.476711 -0.211408 -0.259951 -0.531705 0.433733 0.727438
0.2062 -0.183488 -0.0626891 0.164493 -0.803161 0.572604
-0.199395 -0.169436 0.0590268 -0.151539 0.802684 -0.576831
0.275213 -0.0933094 -0.367852 -0.0504974 0.562421 0.825307
0.406093 -0.0663279 -0.034889 0.473798 -0.418563 -0.774804
-0.502022 0.023088 0.207709 -0.986166 -0.15787 0.0505377
-0.412774 0.0164204 0.38566 -0.180313 0.808523 -0.560159
-0.417366 -0.266425 -0.0169276 -0.169856 0.803701 -0.570275
0.0296118 0.198295 0.317703 0.0563608 -0.574126 -0.816824
0.465138 -0.187099 -0.14241 0.242511 -0.831969 0.499015
-0.255534 0.158359 0.325472 0.0700244 -0.610474 -0.788935
-0.474629 -0.0424086 0.288168 0.982798 0.17604 -0.055843
0.017947 -0.149221 -0.360134 0.0379262 -0.546044 -0.836898
-0.382235 -0.334127 -0.0994192 0.178807 -0.808777 0.560274
0.0234075 0.0372739 0.303827 0.16247 -0.799663 0.578051
-0.125165 -0.156499 -0.366252 0.0475526 -0.557349 -0.828916
-0.153606 -0.25364 -0.30043 0.0489027 -0.547621 -0.835296
-0.12308 0.0576508 0.375307 0.168484 -0.803766 0.570591
0.371629 -0.044276 0.0849533 0.168621 -0.803822 0.570471
0.266451 0.0403271 0.215451 -0.143401 0.762927 -0.63038
0.399332 0.0134093 0.155573 0.192685 -0.810046 0.553803
0.160635 -0.245041 -0.271545 -0.0532474 0.554191 0.830685
0.221316 -0.243799 -0.158137 0.134718 -0.795079 0.591355
0.512935 -0.0977899 -0.251079 0.994872 0.0995568 -0.0178369
-0.347921 -0.214628 -0.341097 0.053947 -0.574964 -0.816398
-0.334627 -0.193205 -0.339535 -0.10092 0.505746 0.856759
0.160244 0.0073517 0.222063 0.146836 -0.799843 0.581971
-0.424222 -0.148894 0.177101 0.156299 -0.787331 0.596389
0.48886 0.186114 0.226617 0.98384 0.171098 -0.052772
0.239752 -0.143805 -0.35174 0.0655739 -0.60782 -0.791363
-0.307632 -0.0707759 0.250502 0.17123 -0.804715 0.568431
-0.294868 -0.0762153 0.240065 0.158054 -0.803671 0.573701
0.159059 -0.10586 0.0410118 -0.188636 0.813257 -0.550482
-0.148455 0.20969 0.2939 0.0488319 -0.564473 -0.824006
0.101144 0.0203575 0.25901 0.132787 -0.780437 0.610971
-0.118564 -0.00289541 0.289675 0.148747 -0.807287 0.571106
0.107199 -0.301586 -0.235299 -0.0164914 0.482264 0.875871
-0.35946 0.0671534 0.380125 0.0642176 -0.598744 -0.798362
0.0515176 -0.113781 0.0594637 -0.153903 0.799462 -0.580668
0.189184 0.101039 0.34481 0.208295 -0.811912 0.545355
-0.429313 -0.237609 -0.319447 -0.422131 -0.523626 -0.740014
0.512406 -0.159128 -0.194274 -0.985454 -0.163761 0.0454201
0.471828 0.109625 -0.100916 -0.977681 -0.185033 0.0995133
0.15471 0.0332303 0.25866 0.148663 -0.798345 0.583563
-0.0737126 0.146776 0.35886 -0.0315558 0.556802 0.830045
-0.420958 -0.00476353 0.378519 0.183232 -0.803898 0.565839
0.491802 0.00746884 0.102356 -0.164764 0.802117 -0.573987
-0.00825575 -0.0183156 0.234607 0.167629 -0.804574 0.569702
0.470161 -0.0865316 -0.00521768 0.156696 -0.795898 0.584801
0.490129 0.0817084 -0.0773578 0.98656 0.155336 -0.0506997
-0.475368 0.0406948 0.344203 0.904862 -0.107694 -0.411858
-0.38834 -0.30219 -0.0544793 0.17827 -0.805844 0.564655
0.0858275 -0.244229 -0.114062 0.177709 -0.812767 0.554823
0.499462 -0.0548846 -0.245471 -0.067483 0.583629 0.809211
0.461308 -0.221272 -0.279624 0.322514 -0.424746 -0.845917
-0.460992 -0.266701 -0.224732 0.962239 0.221172 0.158676
0.107515 0.0342574 0.254132 -0.195024 0.824505 -0.531185
-0.455201 -0.223514 0.018815 0.97823 0.191929 -0.0789253
0.459769 0.247628 0.0849317 -0.980451 -0.185702 0.0650409
0.35056 0.0353683 0.201064 0.16567 -0.794329 0.584461
-0.152505 0.213923 0.2926 0.0130072 -0.551373 -0.834157
0.0511906 -0.19689 -0.294634 0.962407 0.00363883 -0.271587
0.0717118 -0.034105 0.166636 -0.192374 0.819793 -0.53938
0.116865 0.15154 0.353133 0.0271881 -0.566511 -0.823606
0.162399 -0.190672 -0.0630309 0.194435 -0.80759 0.55677
0.386643 -0.00689256 -0.0715261 -0.708773 0.293292 0.641576
-0.384228 0.160306 0.31493 0.0994901 -0.523443 -0.846233
-0.0683664 -0.156775 0.0564075 0.124097 -0.788277 0.602677
-0.351012 -0.387479 -0.207908 -0.0508343 0.55738 0.8287
-0.287595 -0.20623 -0.342383 0.0586299 -0.557375 -0.828188
0.000645841 0.0241672 0.294294 0.221336 -0.800138 0.557485
0.402233 -0.0885086 -0.362443 -0.0225271 0.536624 0.843521
-0.220328 -0.192587 -0.334398 -0.0210231 0.555577 0.831199
0.446295 -0.0387356 0.0478224 -0.131603 0.807073 -0.575599
0.261512 -0.153887 -0.0365385 0.0820001 -0.805956 0.586268
-0.296121 0.117253 0.350291 0.0510297 -0.600242 -0.798189
0.485265 -0.0203147 0.0639546 -0.185811 0.82362 -0.535841
-0.0690942 -0.349158 -0.229456 0.0564641 -0.573827 -0.817028
-0.476291 -0.0494024 0.218877 0.98565 0.161106 -0.0503786
0.369589 -0.084563 0.027748 0.161237 -0.803798 0.572635
-0.0306835 -0.147492 0.038387 -0.179247 0.805582 -0.56472
-0.387149 -0.0484601 0.288525 -0.107592 0.779794 -0.616722
-0.461244 -0.184107 0.0533268 0.986385 0.157641 -0.0468385
-0.442787 -0.130619 0.206963 0.149858 -0.789433 0.595263
-0.342646 -0.135479 0.166847 0.169587 -0.804518 0.569202
0.481176 -0.116691 -0.326255 0.685498 -0.346309 -0.640439
0.137561 -0.119054 -0.360871 -0.0460986 0.593349 0.803624
0.509895 -0.224928 -0.239066 0.788083 -0.272104 -0.552163
0.0854597 -0.267202 -0.163649 -0.126382 0.806624 -0.577396
-0.0028082 -0.251731 -0.0958407 0.160074 -0.801368 0.576356
-0.210927 -0.116673 0.151699 0.14136 -0.7878 0.59949
-0.457415 -0.192501 0.0918881 0.99219 0.0998313 -0.0747867
0.50254 -0.0503292 -0.281168 0.983165 0.172922 -0.0590218
0.0678987 -0.0421759 0.181089 0.156254 -0.785278 0.599102
-0.0951303 -0.297838 -0.156834 -0.15096 0.795581 -0.586738
-0.492134 -0.0267424 0.180327 -0.974274 -0.222448 0.0361533
0.189203 -0.197175 -0.0968599 -0.213749 0.805366 -0.552899
0.485729 0.127332 0.205164 -0.997561 -0.0697958 -0.000521139
-0.39544 -0.18568 0.11535 0.161142 -0.761451 0.627874
0.0506574 -0.125543 -0.0168244 0.733375 0.454208 0.505822
-0.406947 -0.0658749 0.267048 -0.204839 0.819117 -0.535806
-0.132416 -0.306609 -0.132789 0.237763 -0.814291 0.529527
-0.511761 0.142225 0.157271 0.996648 0.0794428 -0.0195569
-0.1532 -0.324287 -0.236223 -0.0575821 0.619677 0.782742
0.372092 -0.186266 -0.310266 0.0928478 -0.625462 -0.774711
0.0486989 0.268016 0.283816 -0.070688 0.496759 0.865005
-0.0810665 -0.064518 0.170614 -0.173313 0.805936 -0.566065
0.105427 -0.0792022 0.0943028 -0.206139 0.824632 -0.526773
0.274118 -0.134005 -0.0311873 -0.163953 0.801105 -0.57563
0.47971 0.205879 0.152918 0.985718 0.168404 0.000761856
-0.0844292 -0.152397 -0.352564 -0.108253 0.599087 0.793333
0.496939 -0.0336526 -0.29957 0.987533 0.153332 -0.0355995
0.370934 -0.149542 -0.338655 0.0494218 -0.578052 -0.814502
0.475895 -0.148854 -0.1156 -0.113216 0.77371 -0.623341
-0.332278 -0.100311 0.1992 -0.232439 0.812194 -0.535081
-0.339728 -0.223416 0.0255788 -0.253697 0.81333 -0.523576
-0.277094 0.291703 0.243838 -0.0398857 0.487533 0.872193
0.303857 0.0740148 0.252171 -0.132301 0.797384 -0.588791
0.506958 -0.0137913 -0.0686167 0.97449 0.210111 -0.0788857
0.501294 -0.0213802 0.0159766 -0.964888 -0.23021 0.126468
0.495216 0.00678682 0.0988302 -0.0880789 0.762853 -0.640544
0.480169 0.177826 0.259815 -0.97994 -0.187288 0.0681217
-0.478833 -0.0971055 -0.0171869 0.990253 0.138263 -0.0167893
0.39426 0.0621047 0.23 0.171644 -0.804662 0.568381
-0.333346 0.0442 0.412533 -0.0792183 0.527474 0.845869
0.128691 -0.0702723 0.120231 0.176364 -0.858263 0.481954
-0.496662 -0.0498145 -0.177734 0.993444 0.114102 -0.00702583
0.448571 -0.130569 -0.0573718 0.163306 -0.802232 0.574243
0.15341 -0.0542218 0.134638 0.15649 -0.802945 0.575144
0.440582 -0.153595 -0.329487 0.237098 -0.552027 -0.799406
-0.162691 -0.278374 -0.284745 0.069949 -0.595571 -0.800251
-0.252111 -0.000776231 0.315031 -0.148553 0.795058 -0.588061
0.311773 -0.0632059 0.0549996 -0.175765 0.807551 -0.563
0.288476 -0.211648 -0.127793 0.187512 -0.813048 0.551173
0.31634 0.392247 0.21593 -0.0496467 0.55403 0.831015
-0.341034 -0.309867 -0.274278 0.0596076 -0.534162 -0.843278
0.272265 -0.139012 -0.350595 0.0543173 -0.594137 -0.802528
0.449703 0.36812 0.127739 -0.177042 0.804797 -0.566532
-0.200521 0.140684 0.356383 -0.0567086 0.572508 0.817935
0.388239 -0.062862 0.0326757 -0.178873 0.812211 -0.555263
0.3279 -0.199848 -0.143349 -0.215103 0.817642 -0.534034
0.499052 -0.212259 -0.19508 0.196515 -0.811524 0.550282
0.450588 0.287517 0.0752077 -0.987115 -0.15406 0.0432445
0.117479 0.270082 0.272351 0.0239798 -0.544497 -0.83842
0.102022 -0.0963619 0.0700295 -0.0968461 0.786767 -0.609605
0.00377513 -0.126768 -0.361768 -0.0405316 0.545022 0.837441
-0.425761 -0.246703 -0.315805 -0.342332 -0.540509 -0.768543
-0.400019 -0.33044 -0.107027 -0.201696 0.810714 -0.549601
0.0831001 0.214455 0.320975 -0.0465775 0.557212 0.829063
0.188838 -0.151191 -0.346634 0.0324931 -0.532201 -0.845994
0.329387 -0.256441 -0.250971 -0.0822574 0.604556 0.792304
0.280638 0.203968 0.330062 0.0397466 -0.602922 -0.79681
0.398478 -0.0514589 -0.404012 0.0453511 -0.606275 -0.793961
0.056517 -0.191866 -0.0504346 -0.186138 0.81314 -0.551504
-0.463214 -0.219743 -0.282071 0.836001 0.426766 0.344925
-0.377205 0.231177 0.263765 0.0375121 -0.521613 -0.852357
0.460047 0.109773 0.256815 -0.212127 0.806453 -0.551938
0.0979195 -0.197155 -0.0462964 0.13407 -0.793794 0.593226
-0.499219 0.238932 0.228524 -0.189084 0.816632 -0.545306
-0.491131 -0.110568 -0.0476778 -0.97281 -0.22681 0.0468739
0.433879 0.350689 0.197136 -0.828915 -0.425577 -0.363021
-0.395944 0.0393797 0.410051 -0.0314477 0.607076 0.794021
-0.494254 -0.0825078 -0.197639 0.993871 0.0977633 -0.0515978
0.0374447 0.0819367 0.36684 0.195511 -0.806515 0.55795
0.494657 -0.014431 -0.18014 0.0537035 -0.590634 -0.805151
-0.429295 0.0678459 0.388578 -0.25322 0.506204 0.824401
0.289748 0.31543 0.267409 -0.0423759 0.560012 0.8274
0.469041 0.0497121 0.189555 0.151616 -0.775835 0.612448
0.358297 0.202277 0.337341 0.0595933 -0.557704 -0.827898
-0.215332 -0.323666 -0.241931 -0.0782339 0.526637 0.846482
0.521847 -0.11113 -0.125653 0.975813 0.195407 -0.098005
0.412583 0.372232 0.22022 0.516965 0.557642 0.649448
0.448005 0.297788 0.0298558 -0.163405 0.802317 -0.574096
-0.529308 0.156522 0.156934 -0.969499 -0.211764 0.123397
0.353109 0.116208 0.3168 0.184792 -0.813015 0.55214
-0.485779 -0.0242126 0.11206 0.985988 0.160772 -0.0444977
0.353584 -0.0231155 0.120409 0.147721 -0.79901 0.58289
-0.120011 -0.296164 -0.145245 -0.195242 0.817079 -0.54246
-0.387474 -0.240253 0.0129258 -0.225806 0.810755 -0.540082
0.494381 -0.204526 -0.252621 -0.711765 0.329725 0.62022
-0.493358 -0.0914229 -0.237447 -0.102786 0.781968 -0.614785
0.205821 0.00109285 0.199702 0.176665 -0.80503 0.566319
0.49856 0.075337 0.0419176 0.990182 0.13495 -0.0364302
-0.346077 -0.0221862 0.312183 -0.136443 0.802203 -0.581252
-0.165515 -0.0368853 0.257509 0.234254 -0.843092 0.484068
-0.469946 -0.224223 -0.232023 0.973662 0.221494 -0.0540669
0.332581 0.151439 0.377302 0.184409 -0.812443 0.55311
-0.206909 -0.235512 -0.0337321 -0.11363 0.788227 -0.604803
-0.449766 -0.302218 -0.107047 0.980175 0.189023 -0.0593857
0.45196 0.28666 0.226288 -0.890514 -0.357269 -0.28168
0.394236 0.156135 0.341088 -0.194261 0.807467 -0.557009
-0.0536515 -0.258961 -0.0944598 0.161623 -0.799678 0.578267
-0.0373843 0.160247 0.336221 0.0634689 -0.547966 -0.834089
0.494155 0.155937 0.317586 0.91873 0.295015 0.26249
-0.00298887 -0.0350626 0.18856 -0.135047 0.806072 -0.576203
0.199033 -0.133551 -0.0127613 -0.234447 0.80149 -0.550134
0.400251 -0.0209662 0.0376571 -0.161387 0.79833 -0.580192
-0.469503 -0.111664 0.149082 0.992371 0.117219 -0.0381975
-0.417834 0.0147661 0.383467 -0.136667 0.807214 -0.574219
-0.447063 -0.199844 0.0874995 -0.189736 0.851259 -0.489243
-0.167144 -0.119862 0.120074 -0.170763 0.804733 -0.568546
0.187814 -0.00577399 0.19736 0.197536 -0.815467 0.544052
0.483262 -0.0554145 0.0146849 -0.248235 0.841509 -0.479835
0.255588 -0.275506 -0.257604 0.0544637 -0.581451 -0.811757
0.0634062 0.0592071 0.303691 -0.0986838 0.797632 -0.595016
-0.197662 0.303324 0.230071 -0.162543 0.802442 -0.574166
-0.441433 -0.335143 -0.191117 0.918786 0.324314 0.225062
-0.468108 -0.135829 0.0945467 0.958415 0.258944 -0.119954
0.162097 -0.126192 -0.36669 0.0657426 -0.58612 -0.807553
0.424212 -0.146323 -0.0924451 -0.187254 0.804039 -0.56432
-0.504249 -0.0366142 -0.0246327 -0.983148 -0.174266 0.0552462
-0.438052 -0.323408 -0.238528 -0.640965 -0.543904 -0.541601
-0.467911 -0.233559 -0.00796594 -0.971305 -0.197815 0.132045
0.438328 0.318956 0.242923 0.636219 0.531211 0.559499
0.36211 0.290918 0.275272 0.0653931 -0.590776 -0.804182
0.051611 0.0539087 0.321957 0.212804 -0.824 0.525107
-0.478444 -0.0181335 0.274238 0.976849 0.205848 -0.0582376
0.476798 -0.217541 -0.276637 0.448431 -0.450027 -0.77226
-0.521105 0.204829 0.184651 0.99102 0.124872 -0.0478138
0.137402 -0.142468 -0.359687 0.0973207 -0.572912 -0.813818
0.239708 0.168711 0.352354 0.0904351 -0.58931 -0.802829
-0.32443 -0.224956 0.0148253 -0.179436 0.811276 -0.556447
0.150274 -0.0712162 -0.392483 -0.0513933 0.547303 0.835355
-0.440806 -0.122233 0.214867 0.160031 -0.80541 0.570705
0.443922 0.321046 0.102402 -0.987627 -0.15197 0.0387006
0.142459 0.19588 0.340265 -0.0501286 0.550502 0.833327
0.054588 0.152072 0.349359 0.0490475 -0.58305 -0.810955
-0.162121 -0.308072 -0.26589 0.106309 -0.591842 -0.799013
-0.487664 -0.0311045 0.266621 -0.965609 -0.247173 0.0806566
0.438268 -0.0884005 -0.00334013 0.121148 -0.772609 0.623216
0.0893842 0.17197 0.35163 -0.047483 0.558918 0.827862
0.185747 0.155578 0.372452 -0.0597186 0.611564 0.788938
0.260366 -0.283124 -0.251477 0.0474381 -0.554115 -0.831087
0.119988 -0.213637 -0.101366 -0.13714 0.79387 -0.592422
0.48765 0.0282949 -0.0349791 -0.993307 -0.115501 0.00129202
0.417117 0.251015 0.29977 -0.235228 -0.59739 -0.766677
0.436625 0.350875 0.213488 0.703587 0.520833 0.483423
0.488455 -0.0964094 -0.323203 0.801514 -0.190569 -0.566796
-0.480893 0.034179 0.32663 0.968727 -0.0257657 -0.246786
0.263059 -0.0695449 -0.384947 -0.0644748 0.602937 0.795179
0.159471 0.0324741 0.23847 -0.19151 0.824213 -0.532913
0.52316 -0.10408 -0.0575445 0.984038 0.169847 -0.0531231
0.114043 -0.0589115 0.118896 -0.154222 0.793402 -0.588836
-0.211557 -0.246362 -0.0473838 -0.183697 0.806309 -0.562247
-0.467688 -0.189995 0.122529 -0.990259 -0.139057 0.00708775
-0.157737 -0.186185 -0.348862 0.0391916 -0.509352 -0.859665
0.274039 -0.258991 -0.255327 -0.0516487 0.578584 0.813986
0.0623533 -0.0294409 0.17973 -0.16838 0.784267 -0.597137
-0.103241 -0.270952 -0.0947492 0.268846 -0.812366 0.517478
0.0832379 -0.174703 -0.339438 0.0531091 -0.596501 -0.800853
0.0434153 0.111252 0.378443 0.0551867 -0.569213 -0.820336
-0.516488 0.101141 0.159703 -0.982089 -0.177252 0.0638946
0.147724 0.0410048 0.270026 0.183691 -0.808536 0.559041
-0.511841 0.054271 0.104491 -0.982052 -0.181179 0.0524201
0.29813 0.199986 0.34673 -0.00506593 0.583397 0.812171
0.289632 0.042324 0.228757 0.215084 -0.828897 0.5164
0.0225782 0.0309227 0.273381 -0.176503 0.810304 -0.558797
0.467463 -0.164758 -0.310988 0.450645 -0.472309 -0.757524
-0.309131 -0.187074 0.0845929 0.186665 -0.803467 0.565329
0.482003 -0.0525307 0.0215536 -0.0931284 0.803283 -0.588271
-0.352626 -0.183969 -0.363304 0.0460762 -0.538881 -0.841121
-0.502835 -0.0625585 -0.0813492 -0.989173 -0.137948 0.0500706
0.326943 -0.167006 -0.0945684 -0.139344 0.79666 -0.588147
-0.455204 -0.338859 -0.138784 -0.982934 -0.175545 0.0549947
-0.479177 0.0536808 0.354141 -0.810574 0.220807 0.542415
-0.24474 0.0192432 0.341322 -0.179976 0.807677 -0.561487
-0.0877555 -0.179326 0.0094318 -0.177447 0.819934 -0.544261
0.0823141 0.180279 0.331688 0.0372867 -0.598982 -0.799894
-0.285404 0.251241 0.274054 0.0104133 0.505913 0.862522
-0.26508 -0.307347 -0.271614 0.0972554 -0.548584 -0.83042
0.123902 0.0306177 0.264874 0.230481 -0.824709 0.516463
0.524639 -0.161768 -0.210758 0.988372 0.151393 -0.0141534
-0.226729 -0.29296 -0.277821 0.141122 -0.526373 -0.83846
-0.0445937 -0.0263124 0.214477 -0.113613 0.785056 -0.608916
-0.486086 0.00333072 0.185833 0.985657 0.165894 -0.0309782
0.250172 -0.0323918 0.136728 0.15424 -0.801985 0.577087
-0.464438 -0.151704 0.0917742 0.980821 0.179355 -0.076307
0.40895 -0.174674 -0.115284 0.199752 -0.827596 0.524579
-0.199169 -0.350063 -0.22331 -0.117066 0.57355 0.810763
-0.380685 -0.0508805 0.278367 -0.159597 0.77593 -0.610296
0.358345 -0.0242242 0.0970169 -0.175959 0.838407 -0.51586
0.512414 0.016325 0.118456 0.990573 0.136858 -0.00585293
0.480864 0.162998 -0.00857754 0.99357 0.113066 -0.00581657
0.00168909 -0.277169 -0.259031 -0.0276539 0.480856 0.876364
0.131692 -0.130793 -0.352657 -0.0572517 0.535147 0.842817
-0.259385 -0.159558 0.110798 0.211377 -0.805377 0.553793
0.255286 -0.280481 -0.235893 -0.0558387 0.774055 -0.630651
0.444987 -0.160407 -0.121266 -0.122103 0.801489 -0.585411
0.384808 -0.23543 -0.278221 0.064738 -0.572469 -0.817367
0.45037 0.256838 -0.0259613 -0.994108 -0.104806 0.0276606
-0.0303702 -0.217498 -0.302277 -0.0676325 0.581103 0.811015
0.315186 -0.21694 -0.29384 0.0513274 -0.577869 -0.814514
0.07508 -0.220147 -0.307354 0.0497665 -0.60545 -0.794326
-0.484839 0.0464002 0.316221 0.974138 -0.0889604 -0.207706
0.224816 -0.0830402 -0.392663 0.0368858 -0.549405 -0.834742
0.435482 -0.211051 -0.261132 0.886692 -0.093373 -0.452833
0.426118 -0.0155728 -0.41041 -0.161897 0.800524 -0.577019
-0.466108 -0.182605 0.00173618 0.970632 0.229832 -0.0710707
-0.164673 -0.142465 -0.379124 0.0269816 -0.610301 -0.79171
0.49071 0.0392212 0.0315051 -0.994528 -0.103918 0.0107443
-0.211706 -0.380008 -0.217527 0.0505461 -0.549969 -0.833654
0.275341 0.237828 0.319195 -0.0601724 0.577705 0.814024
-0.416034 -0.203083 -0.337648 0.230189 0.585506 0.7773
-0.498992 -0.0175554 0.114514 -0.969518 -0.239518 0.051632
0.15164 -0.0719395 0.110885 0.0942803 -0.794016 0.600541
-0.487979 -0.18873 -0.2259 -0.99034 -0.137658 -0.0166428
0.101432 0.26586 0.289173 -0.0176366 0.515104 0.856946
0.0450277 -0.0842721 0.107288 -0.169711 0.804288 -0.569491
0.494046 -0.142936 -0.0909279 0.131662 -0.791042 0.597425
0.520984 -0.141507 -0.213782 0.97282 0.22409 -0.0583538
0.132367 0.00399089 0.222637 0.157716 -0.803001 0.574731
-0.168648 -0.018031 0.262733 -0.142648 0.795192 -0.58934
-0.0667075 0.20695 0.302548 0.0165432 -0.556191 -0.83089
0.246591 0.0352627 0.212798 -0.204454 0.821341 -0.532539
0.168057 0.205308 0.334016 -0.0499584 0.529679 0.846725
-0.248126 -0.240777 -0.317286 0.0724018 -0.597395 -0.798672
0.191122 -0.183326 -0.0782504 -0.137917 0.805263 -0.576654
0.50231 -0.0380468 -0.0424612 -0.983641 -0.171978 0.0536101
-0.362604 -0.307061 -0.0662971 0.171232 -0.805011 0.568012
0.507905 -0.0989353 -0.0865599 -0.978523 -0.193609 0.070767
0.469756 0.250813 0.128952 0.982487 0.177847 -0.0555844
-0.502665 0.102233 0.219154 0.974284 0.216676 -0.0618235
0.521573 -0.123953 -0.114489 0.987402 0.154164 -0.0356382
-0.272794 0.208848 0.30296 -0.0636306 0.570898 0.818551
0.0180552 -0.304242 -0.197478 -0.157614 0.799774 -0.57924
0.334758 -0.112326 -0.351607 -0.0788128 0.512729 0.854925
0.503358 0.0766513 0.134245 0.992319 0.12368 -0.00232308
0.475327 0.16599 0.14421 -0.984269 -0.16909 0.0512142
0.515581 -0.199568 -0.177678 0.203856 -0.830668 0.518105
-0.183048 0.235923 0.275372 0.116282 -0.579412 -0.806697
0.459043 0.215913 0.00974582 -0.969672 -0.230363 0.0816641
-0.488624 -0.149063 -0.0963968 -0.996882 -0.075502 0.0229287
0.370191 -0.219166 -0.162122 0.18085 -0.808965 0.559346
0.339387 -0.254854 -0.201881 0.160818 -0.793272 0.587245
0.118835 0.206566 0.330731 -0.0557594 0.565384 0.822941
-0.348416 -0.330056 -0.244466 -0.0235754 0.557601 0.829774
0.497434 0.0229543 0.0846907 -0.97919 -0.195836 0.0532519
0.464967 0.235722 0.162703 -0.983533 -0.172542 0.0537842
-0.20341 -0.232578 -0.0319499 -0.167768 0.803753 -0.57082
-0.0937102 -0.145386 0.0599282 -0.18687 0.805545 -0.562296
-0.281676 -0.265108 -0.0551282 -0.189642 0.809809 -0.555198
0.382055 -0.21724 -0.186046 -0.128241 0.80514 -0.579054
0.361579 -0.231676 -0.281306 0.0580657 -0.562103 -0.825026
-0.124505 -0.357327 -0.209502 0.162124 -0.801899 0.575042
0.507094 -0.0911594 -0.116259 -0.97926 -0.193625 0.0596565
0.474618 -0.239263 -0.250639 -0.371656 0.568779 0.733731
-0.12734 0.0859663 0.399327 -0.0689065 0.61559 0.785048
-0.0271461 -0.15891 -0.343757 -0.0641381 0.553481 0.830389
-0.20045 -0.0936633 0.164754 -0.187336 0.805845 -0.56171
0.201522 0.0114429 0.21428 0.179442 -0.806122 0.563886
0.414606 -0.188498 -0.153769 -0.17999 0.808062 -0.560928
0.0284563 -0.248199 -0.100919 0.190466 -0.807959 0.557606
0.479727 0.0446597 -0.175925 -0.991898 -0.125799 0.017662
0.269517 -0.190109 -0.0926654 0.156363 -0.805977 0.570922
0.0870401 -0.0798621 -0.399078 -0.183648 0.809262 -0.558004
0.301488 -0.24947 -0.206088 -0.156678 0.801065 -0.577708
0.0864126 -0.0205682 0.183745 -0.10978 0.811667 -0.573712
-0.49939 0.00239226 0.195345 -0.985817 -0.164524 0.0331228
-0.486328 -0.0889307 0.113932 -0.977395 -0.19086 0.0909522
-0.391419 0.214627 0.27599 0.00480694 -0.606481 -0.795083
0.0191125 -0.168895 -0.346171 0.0459193 -0.559345 -0.827662
0.311625 0.254954 0.293903 0.0622945 -0.55283 -0.830962
0.0012522 -0.227185 -0.062913 0.187702 -0.806221 0.561048
-0.0113722 -0.154032 0.0447339 0.1953 -0.807643 0.556391
0.282088 0.345429 0.244102 -0.0519477 0.535181 0.843138
-0.100001 0.21429 0.310582 -0.0527407 0.58727 0.807671
-0.0499742 0.270168 0.274429 -0.0639704 0.604135 0.79431
0.400394 -0.175643 -0.304798 -0.0729071 0.590932 0.80342
0.490487 -0.000800249 -0.328717 0.984596 0.157579 -0.0757602
0.526814 -0.168294 -0.19924 0.983899 0.170731 -0.0528547
0.0726515 -0.294801 -0.20852 0.809367 0.501917 0.304964
-0.472473 -0.127739 0.0122991 0.988094 0.152893 -0.0171493
0.0234151 -0.288448 -0.154781 0.132233 -0.787663 0.601749
0.307522 0.0568206 0.22598 -0.193012 0.811537 -0.551502
-0.446105 0.239341 0.268482 -0.0650752 0.467534 0.881577
-0.0205771 -0.174077 0.0195463 0.172773 -0.805807 0.566414
-0.429207 -0.373602 -0.201358 -0.696918 -0.48949 -0.524122
-0.315747 0.288333 0.244002 -0.185616 0.806189 -0.561788
0.0361063 0.0235451 0.280048 0.127765 -0.779116 0.613721
-0.487012 -0.187279 -0.225737 -0.98157 -0.182568 0.056467
-0.45835 0.155601 0.319606 -0.412425 0.485102 0.771092
0.10538 -0.06142 0.141076 0.171303 -0.805096 0.567869
-0.473806 -0.144809 0.167534 -0.986202 -0.149176 -0.0717727
0.174041 -0.0381993 0.131786 -0.139942 0.807193 -0.57346
0.43195 0.103238 0.277586 0.135413 -0.774499 0.617912
-0.0398532 -0.326495 -0.242454 0.10267 -0.61435 -0.782325
0.499535 0.0916135 0.236816 0.148397 -0.802802 0.577484
-0.45758 -0.114415 0.236037 0.159563 -0.794848 0.585453
-0.0585943 -0.181739 -0.329645 -0.0357749 0.526669 0.849317
0.417393 -0.208616 -0.292097 0.10596 -0.511952 -0.852454
-0.483732 0.112109 0.305877 0.80726 -0.162544 -0.567371
0.130458 0.183521 0.348426 0.0380416 0.543269 0.838696
0.233462 -0.10262 -0.365344 -0.00108328 0.592312 0.805708
0.451429 -0.0548542 0.0440565 0.235967 -0.850256 0.470514
-0.439232 0.234134 0.274342 -0.0664751 0.535352 0.842009
0.241668 0.220451 0.329343 -0.101168 0.596358 0.796318
-0.488975 0.00634746 0.157992 0.982928 0.174776 -0.0574883
0.378926 -0.18023 -0.131855 -0.185414 0.804494 -0.564279
0.102817 -0.188645 -0.0385112 0.153894 -0.803103 0.575623
0.124645 0.262537 0.293476 -0.0745718 0.539472 0.838695
0.478409 -0.111097 -0.0449219 0.0465934 -0.786088 0.616356
-0.312443 0.187332 0.315341 -0.0406201 0.55729 0.829323
-0.169662 -0.2409 -0.297212 -0.0643484 0.540186 0.839082
0.241569 -0.223601 -0.278912 -0.088602 0.534828 0.840303
0.487567 0.189686 0.209633 0.985717 0.167473 -0.0177648
0.135897 -0.170201 -0.025051 0.178834 -0.807758 0.561734
-0.432483 -0.287345 -0.261727 0.568626 0.548197 0.613306
-0.166353 -0.224395 -0.320994 0.0582226 -0.562741 -0.82458
-0.253253 -0.309967 -0.12249 -0.167211 0.802397 -0.572888
0.211767 -0.130574 0.00755581 0.162059 -0.796238 0.582874
0.475053 0.243304 0.176608 0.985303 0.162293 -0.0532717
0.418933 -0.264593 -0.241945 0.174725 -0.804705 0.567381
0.0437754 -0.294023 -0.258559 0.0507247 -0.564398 -0.823943
0.366368 -0.000272449 0.146901 0.192348 -0.828143 0.526481
-0.247815 -0.275464 -0.0568212 0.168645 -0.804106 0.570063
0.345899 0.352118 0.229576 0.0240178 -0.562135 -0.826696
0.477345 0.12393 0.00517067 -0.988002 -0.147979 -0.0441992
0.296885 -0.176871 -0.100569 -0.20536 0.813332 -0.54435
0.42811 0.255199 0.309 0.286226 0.614016 0.735567
0.469252 0.143021 -0.034118 -0.990047 -0.136504 0.0342457
-0.107188 0.00316122 0.293556 0.251945 -0.805797 0.535924
0.275361 0.272501 0.294608 -0.0511254 0.638226 0.768149
0.18237 -0.0342875 0.159013 0.109263 -0.805396 0.582579
0.293203 -0.0261217 0.132346 0.157555 -0.805975 0.570597
0.470113 -0.140373 -0.324336 0.522657 -0.369013 -0.768544
-0.0658445 -0.263332 -0.272048 -0.0578208 0.584665 0.809211
0.377303 -0.105076 -0.00390665 0.126424 -0.808776 0.574368
-0.326368 -0.343624 -0.247774 0.0422993 -0.510102 -0.859073
0.509428 -0.181285 -0.153217 0.18908 -0.805944 0.560984
0.00529565 0.209885 0.304929 0.0785152 -0.542684 -0.836259
0.477645 0.22724 0.176855 0.972347 0.226404 -0.0572936
-0.371409 -0.332226 -0.101236 0.17802 -0.809282 0.559795
0.375041 -0.208047 -0.147137 0.262105 -0.802556 0.535915
-0.238989 -0.240514 -0.0335241 -0.0916945 0.789885 -0.606361
-0.0844625 -0.311086 -0.158555 0.147903 -0.807315 0.571286
0.0736077 0.185083 0.343649 -0.0325861 0.524317 0.850899
0.181546 -0.245143 -0.284929 0.022886 -0.562165 -0.826708
0.359201 -0.115874 -0.0327652 -0.175018 0.80675 -0.564379
0.312017 -0.120584 -0.00628708 0.211283 -0.810374 0.546492
0.168315 0.108159 0.338778 -0.187256 0.804257 -0.564008
0.184707 0.119083 0.351664 -0.187437 0.816352 -0.546293
-0.359288 -0.327678 -0.248791 -0.079948 0.571018 0.817036
0.453875 0.270398 0.0561393 -0.968478 -0.231298 0.0924701
-0.0985117 0.244899 0.275744 0.0648102 -0.614652 -0.786131
-0.0607 -0.133359 0.0881933 0.18095 -0.804961 0.565062
0.0485905 -0.1287 -0.359185 -0.0975385 0.624826 0.774647
0.392796 -0.253221 -0.238007 -0.214229 0.817243 -0.534995
-0.120619 -0.0704418 0.176308 -0.202599 0.807013 -0.554693
0.194763 -0.293104 -0.236355 -0.164769 0.587324 0.792402
-0.155449 -0.0162564 0.281345 0.156419 -0.806505 0.57016
-0.318559 -0.0721503 0.230348 -0.228878 0.794786 -0.562076
0.204909 0.349758 0.223721 -0.0288676 -0.517102 -0.855437
0.501417 -0.0680134 -0.132336 -0.990581 -0.125693 0.0543112
0.41412 -0.236399 -0.218637 -0.167329 0.795681 -0.582146
-0.191255 -0.3366 -0.184757 -0.131595 0.789193 -0.599881
0.404492 -0.0219449 0.0323174 -0.176284 0.813425 -0.554314
-0.132854 -0.0892792 0.172401 0.153161 -0.784558 0.600842
0.403324 -0.0506048 -0.0465951 0.264307 -0.409425 -0.87322
0.517026 -0.193307 -0.244296 0.886658 -0.134837 -0.442332
-0.467084 -0.258512 -0.0570512 -0.966115 -0.248417 0.0700825
0.302061 -0.268024 -0.231238 -0.174748 0.807004 -0.564099
-0.484285 -0.134639 0.021795 -0.977729 -0.193621 0.080969
0.326493 0.0474377 0.208601 -0.14503 0.793407 -0.591161
0.0947989 -0.158623 0.00417843 0.160212 -0.803275 0.573657
-0.200284 -0.348172 -0.235699 0.0671236 -0.58287 -0.809788
-0.286838 -0.343241 -0.159205 -0.170377 0.804641 -0.568793
-0.0969742 0.0353664 0.336469 0.150065 -0.804031 0.575338
0.462381 0.185682 -0.0577823 -0.986198 -0.161918 0.0345805
0.283129 -0.238312 -0.161836 0.125482 -0.802851 0.582824
-0.45896 -0.319733 -0.106379 -0.977136 -0.200529 0.0706649
0.51051 -0.166556 -0.153328 -0.17046 0.804662 -0.568738
0.451729 -0.200846 -0.297617 0.150483 -0.50365 -0.850701
0.318396 0.0743766 0.268021 0.0864591 -0.781757 0.61756
0.227992 -0.263635 -0.255022 -0.0283692 0.527218 0.849257
-0.311502 -0.072794 0.249577 0.185936 -0.810711 0.555136
0.0512386 -0.211996 -0.292556 0.698772 -0.190768 -0.689439
0.0809009 -0.144747 0.00915171 -0.14353 0.780139 -0.608918
0.405458 -0.272787 -0.248259 0.144243 -0.762504 0.630699
0.513833 -0.131277 -0.0791139 0.213124 -0.807057 0.55067
0.49049 -0.0583656 -0.334844 0.912045 -0.141882 -0.384764
0.454504 0.332596 0.0880835 0.992995 0.104855 -0.0544708
-0.491297 0.0377936 0.205495 0.973336 0.210573 -0.090975
0.382588 -0.265923 -0.233925 0.162394 -0.804328 0.571564
-0.0418688 -0.210058 -0.0244394 0.189956 -0.82365 0.534339
-0.474369 0.0962867 0.324756 0.743284 -0.242165 -0.623607
-0.467424 -0.163065 0.0413659 0.97851 0.197778 -0.05833
-0.30641 -0.391481 -0.205885 0.0702765 -0.774089 0.629164
0.42484 0.225288 0.332246 0.261253 0.577392 0.773541
0.0571658 -0.241741 -0.293002 0.0454893 -0.590585 -0.805692
-0.0732602 -0.0590092 0.177247 -0.166453 0.80464 -0.569954
-0.00639429 -0.229041 -0.293922 -0.0854934 0.545428 0.833786
