ply
format ascii 1.0
comment Created by Open3D
element vertex 128
property double x
property double y
property double z
property double nx
property double ny
property double nz
end_header
0.309155 0.128716 -0.605648 -0.494687 0.556935 0.667164
0.314321 -0.377245 -0.150095 -0.501067 0.832727 0.235581
-0.458901 0.0110559 0.0283846 0.0968443 -0.127503 0.987099
-0.0426689 0.360198 0.411508 -0.517556 0.522529 0.677569
-0.699674 -0.0405498 0.217141 -0.738052 -0.169253 0.653171
0.135026 -0.719969 -0.0295625 -0.0292333 -0.930482 -0.365168
-0.0669962 0.338655 0.403405 -0.427245 0.567232 0.704067
0.378256 -0.0546176 0.0339209 -0.890358 0.38773 0.238598
0.218955 0.436442 -0.0453942 -0.659885 -0.739323 0.13399
-0.114338 -0.224535 0.0934016 0.376637 0.91915 -0.115361
-0.0322988 -0.317725 -0.498294 -0.578325 0.261402 -0.772793
-0.167263 0.725925 0.000934764 -0.117375 0.259539 -0.958573
-0.517636 0.0307667 0.334865 -0.687114 0.139385 0.713054
-0.457768 -0.295244 -0.0820062 0.614245 -0.19184 0.765441
0.115915 -0.403986 -0.325486 0.482935 -0.678875 -0.553085
0.341603 -0.0494632 -0.427194 -0.480593 0.723344 0.495786
0.141642 0.453547 -0.277827 0.613185 0.506936 -0.605821
-0.158302 -0.236003 0.48662 0.717922 -0.268954 0.642069
-0.330434 0.0877111 0.434836 -0.43724 0.781131 0.445707
-0.244429 0.136846 0.457535 -0.118712 0.988414 0.0945747
-0.233278 0.0818093 0.113996 0.863433 -0.420746 -0.278309
0.528514 0.238543 -0.0220179 0.694362 0.698047 -0.174904
0.137341 0.4849 0.431843 0.83672 -0.394227 0.380112
-0.242835 -0.0369142 0.599062 -0.510913 0.372477 0.774744
-0.295501 -0.408326 0.0679897 -0.338895 -0.923216 0.181169
0.267237 0.0562242 -0.0912927 -0.728177 0.128168 0.673299
-0.327567 -0.0777292 0.222606 0.768189 -0.461302 -0.443945
0.326285 0.485736 0.293262 0.776503 -0.0224501 -0.629713
0.136187 0.00424529 -0.232737 -0.460328 -0.13493 0.877435
-0.309881 -0.2979 -0.236962 -0.668292 0.403034 -0.625259
0.0941843 0.232211 -0.0709692 -0.467887 -0.872241 0.142399
-0.106552 0.0285592 0.233139 0.795791 -0.344227 -0.498222
0.160445 -0.231158 -0.0905919 0.0859463 -0.906969 -0.412336
-0.256494 0.251869 0.0266962 -0.286516 0.942694 0.170985
-0.170492 -0.204611 0.0325452 0.498283 0.840019 -0.214666
-0.117601 -0.342491 -0.298084 0.592963 0.772167 -0.22837
0.118881 -0.694642 0.0112746 0.203487 0.949343 -0.239459
-0.301494 -0.0932865 0.257304 0.730472 -0.288825 -0.618863
-0.320666 -0.38736 -0.239812 0.509668 -0.221583 0.831348
-0.0342578 -0.60132 -0.249749 0.405151 -0.707335 -0.57925
0.173563 -0.0780102 -0.572114 0.585887 -0.58829 -0.557361
-0.0880693 0.495585 0.250239 0.480078 -0.310586 -0.820403
0.107018 0.423553 0.137129 -0.666908 0.405655 0.625042
-0.0206341 -0.586286 0.138679 -0.394479 -0.873054 0.286642
0.00899942 -0.404325 -0.0446458 -0.102991 0.894165 0.435732
0.358118 0.471636 0.266118 0.459096 -0.268622 0.846802
0.130206 -0.539092 -0.186002 0.459521 0.104082 -0.882047
-0.30206 -0.358049 0.11065 0.640415 0.438396 -0.630617
-0.0695657 -0.125819 -0.406468 -0.663137 0.238377 -0.709525
-0.355452 0.41167 0.12463 -0.662567 0.651029 0.37036
0.373694 0.329061 -0.143934 0.296855 0.953321 -0.0552873
0.387264 -0.0593176 -0.381976 -0.431192 0.478777 0.764752
-0.611045 -0.150168 0.0676021 -0.472713 0.0318578 -0.88064
-0.0306432 -0.566401 0.173476 -0.650512 -0.706149 0.279621
0.0227262 0.58346 -0.0555049 -0.853529 -0.467685 0.229693
-0.236145 0.277654 0.298216 0.543144 -0.297621 -0.785122
0.0842303 0.411058 0.144347 -0.476247 0.715604 0.51098
-0.0475198 -0.395063 -0.475991 0.47203 -0.553833 -0.685899
0.0904347 0.11688 -0.420655 0.775532 -0.233373 0.58659
0.389648 0.289143 -0.168162 0.50035 0.833744 -0.233496
-0.453797 -0.132542 0.40234 0.717567 0.677681 -0.160769
0.132029 -0.481309 0.119239 -0.273618 0.857009 0.436656
-0.456468 -0.163777 0.416478 -0.608844 -0.714581 0.344505
0.0122431 0.575658 -0.108389 -0.377622 -0.89563 0.235049
0.174401 0.181284 0.317956 0.758112 -0.314449 0.571303
-0.0365584 0.33059 -0.279513 -0.492842 0.351242 -0.796075
-0.0564624 -0.154149 0.282513 0.83274 0.273489 -0.481401
-0.511898 0.0421886 0.324141 -0.455028 0.335984 0.82466
-0.491473 -0.280282 -0.0359515 -0.694132 -0.719467 -0.023399
0.591383 -0.11231 -0.194177 -0.379487 0.904723 0.19356
0.239876 0.470744 0.026573 -0.0190935 0.944091 0.329131
0.30746 0.145233 0.0892129 0.695523 0.594879 -0.402948
0.0800645 -0.0963273 -0.236837 -0.544741 0.520924 0.657187
-0.497566 0.0711114 0.0794658 0.883003 -0.16854 0.438064
-0.0852149 0.224721 0.153293 -0.256806 0.794283 0.550605
-0.0395665 0.259009 0.095179 0.0698319 0.844832 0.530454
-0.631694 0.111686 0.189812 -0.577261 0.750608 0.321493
0.544263 0.133584 -0.300406 0.73175 0.640309 -0.233551
0.0444161 0.653368 0.16444 0.769882 0.602081 -0.211613
-0.161095 0.47862 -0.00668035 0.78708 0.323793 -0.525036
-0.0485042 -0.243892 -0.113584 0.117125 0.97237 0.201935
-0.337157 -0.117938 -0.0847018 0.367622 0.90661 -0.207155
-0.057672 0.192803 0.538138 0.869885 0.459986 0.178081
-0.189421 -0.541084 -0.112041 -0.46688 -0.86217 0.196689
0.499464 0.151082 -0.388103 0.411801 0.833306 -0.368811
-0.183358 0.483668 0.0198932 -0.85051 -0.0435726 0.524151
0.257827 -0.275034 0.0401706 0.32032 -0.772496 -0.548311
0.475219 -0.0190843 -0.109126 0.736792 0.657946 -0.155703
0.331188 0.169871 0.160358 -0.192501 -0.457998 0.86786
0.358455 0.117322 -0.25846 0.215018 -0.91398 -0.344104
-0.0705528 -0.601591 -0.307995 0.42036 -0.395777 -0.816491
0.279813 -0.553869 -0.0210917 0.39133 -0.218947 0.893825
0.27724 0.0641475 -0.112374 0.696008 0.36869 -0.61615
-0.25726 -0.0831297 0.613384 0.477483 -0.420833 -0.771304
-0.326693 -0.123553 -0.0852824 0.517703 0.830769 -0.204465
-0.120596 0.301499 -0.108776 -0.249775 -0.965779 -0.0698829
0.24531 0.311732 -0.441803 0.885617 0.365044 -0.287099
-0.449444 -0.203566 0.193929 0.678295 0.693536 -0.242742
0.155775 0.618 0.279669 0.853542 0.363937 -0.372849
0.416448 -0.243262 -0.23879 0.405878 -0.0686878 -0.911343
-0.179988 -0.531708 -0.0525221 0.402065 -0.91368 0.059437
-0.330641 -0.301947 0.334487 -0.495672 -0.821419 0.2821
0.0848738 0.135356 0.358348 -0.361589 0.732892 0.576301
-0.45013 0.214623 0.246396 -0.459275 0.335479 0.822509
0.0695896 -0.307713 0.236109 -0.0530445 0.990771 0.124735
0.188067 -0.215649 -0.437987 0.346198 -0.235957 -0.908004
-0.0809815 0.487795 0.234991 0.751442 -0.133797 -0.64609
-0.138818 -0.430295 0.361257 -0.73551 -0.605266 0.304432
-0.31758 0.198768 -0.0280973 0.442827 -0.390697 -0.807007
0.128975 0.24821 -0.0871216 0.62755 0.746367 -0.221624
0.12594 0.50247 0.447238 -0.424408 0.782333 0.455887
-0.104442 -0.136502 -0.366805 -0.892115 0.413488 -0.182092
0.380338 0.149778 -0.607222 0.905713 -0.300268 -0.299206
0.39069 0.378024 0.0985819 0.325305 0.887549 -0.326241
-0.251899 -0.496742 -0.360156 -0.773309 0.14649 -0.616875
-0.143607 0.699323 -0.0423684 0.189244 0.216994 -0.957654
0.0786874 -0.421132 -0.339278 0.336186 -0.849152 -0.407332
0.427282 0.346658 0.151575 0.111332 -0.967495 0.227067
-0.0914287 -0.458459 0.327163 0.658297 0.645738 -0.386868
-0.0775603 0.0462053 0.290014 -0.6584 0.152147 0.73713
-0.429772 0.235719 0.23157 -0.58463 0.251023 0.771489
-0.0367762 0.289723 -0.291279 -0.137536 0.313666 -0.93952
0.520056 0.232368 -0.00467838 0.730791 0.560989 -0.388892
0.11559 0.464226 -0.259388 0.798231 0.531497 -0.283439
0.664571 0.0921961 -0.142911 0.771713 -0.154377 0.61695
0.301295 0.283234 -0.401855 0.569861 0.780847 -0.256001
0.216158 -0.20624 -0.368298 -0.486687 0.781418 0.39054
0.102524 0.103293 -0.475851 -0.258997 -0.20472 -0.943934
