ply
format ascii 1.0
comment Created by Open3D
element vertex 128
property double x
property double y
property double z
property double nx
property double ny
property double nz
end_header
0.120321 -0.276484 0.216042 -0.83983 0.259657 0.476722
0.328543 -0.142505 0.466113 0.560726 -0.485153 0.670979
0.25747 -0.135044 0.380479 -0.883863 0.274177 0.378962
0.0163712 -0.281636 0.194612 -0.816698 0.134668 0.561132
0.284901 -0.0380466 0.531547 0.471088 0.526826 0.707481
0.160662 -0.31771 0.289419 -0.254901 0.89172 -0.37398
-0.135692 -0.144511 -0.246179 0.833811 -0.152988 -0.530428
0.213883 -0.257379 0.266646 0.820571 -0.188333 -0.539623
0.055472 0.592302 0.0736578 -0.717499 0.0252098 0.696103
0.236502 -0.0327751 0.444934 -0.844056 0.395226 -0.362445
-0.181526 0.120999 -0.318454 -0.541041 0.023535 -0.840667
-0.233388 -0.0206332 -0.214 -0.818199 0.211788 0.534505
0.0145948 -0.318437 0.0110555 0.84399 -0.341542 -0.413558
-0.163299 -0.0291963 -0.310902 0.800157 -0.0458781 -0.598034
-0.0655735 -0.244376 0.00631756 0.323799 0.907829 0.26646
-0.32375 -0.124861 -0.327282 -0.692449 -0.0210872 0.721159
-0.06793 -0.204409 -0.135836 0.750994 -0.0534746 -0.65814
0.258762 -0.19481 0.305516 -0.359097 0.708193 -0.607875
-0.287103 0.114509 -0.319889 -0.737463 0.0383574 0.674297
0.0661153 0.602995 0.0520956 0.0370886 0.98397 -0.174436
-0.00394917 0.536068 -0.130123 -0.203859 0.881492 -0.425927
0.0185879 -0.275332 0.00346947 0.294951 0.927151 0.231073
-0.152155 -0.181732 -0.0797889 -0.228959 0.772678 -0.59207
0.0483759 0.488489 0.0672068 0.0375396 -0.997579 0.0585389
-0.261091 -0.305713 -0.188823 -0.80072 0.357036 0.481012
-0.0169011 0.545282 -0.0394351 0.0887039 -0.915006 0.393568
0.151508 -0.372719 0.231109 0.815821 -0.0673014 -0.574375
0.027608 -0.429682 0.268476 0.6221 -0.766215 0.160954
-0.206511 -0.247789 -0.119339 -0.817244 0.226592 0.529875
-0.0023443 -0.281034 0.106028 0.267199 0.963055 -0.0336179
-0.184686 -0.0631294 -0.132771 0.626269 0.263516 0.733721
0.0430462 0.446604 -0.0652852 -0.822956 0.151656 0.547489
0.0213028 0.360765 -0.184575 0.817632 -0.112466 -0.56465
-0.0157403 0.545538 -0.040004 0.202896 -0.926074 0.318152
-0.0858466 -0.308445 0.0677294 -0.749528 -0.0299588 0.661294
-0.215031 0.0482535 -0.373746 -0.559383 -0.239918 -0.793429
-0.0960374 0.506052 -0.132745 -0.771184 0.036715 0.635552
0.102501 -0.32776 0.140786 0.434193 0.0309514 0.900288
-0.239707 -0.195522 -0.337145 -0.508194 -0.614404 -0.603528
0.141623 0.474454 -0.0252062 0.805725 -0.101309 -0.583561
0.149883 -0.277841 0.19836 -0.328969 0.906573 -0.264397
-0.300134 -0.129269 -0.320575 0.240273 -0.769522 0.591697
-0.226605 -0.400272 -0.122702 -0.795662 -0.263535 -0.545409
0.259884 -0.252814 0.370144 0.79577 -0.0770579 -0.600676
-0.167146 -0.414792 -0.0744696 0.721173 0.128762 -0.680683
0.179408 -0.234627 0.275329 -0.108756 0.838503 -0.533934
-0.0929056 -0.353586 -0.0177336 -0.331632 -0.90703 -0.259455
-0.273284 0.212397 -0.332676 -0.344961 0.010987 -0.938553
-0.2336 -0.100764 -0.348502 -0.103602 0.807519 -0.580672
-0.0390487 0.408293 -0.222097 0.838328 -0.36059 -0.408878
0.0365606 -0.358882 0.250916 -0.913936 0.228027 0.335744
-0.250179 0.00920846 -0.294126 0.80754 -0.123456 -0.576748
0.245796 -0.132911 0.500832 -0.84338 0.202543 0.497681
0.305586 -0.211239 0.41811 0.775906 -0.330039 -0.537628
-0.228002 -0.069414 -0.275608 0.421113 -0.754467 0.503431
-0.146282 -0.400855 -0.195598 0.888664 -0.323066 -0.325431
-0.0274161 -0.343481 0.159946 -0.760362 0.0141978 0.649344
0.0446337 -0.394241 0.0857932 0.83031 -0.176023 -0.528774
-0.245942 -0.163797 -0.207962 0.277502 -0.782047 0.558028
-0.182808 -0.128044 -0.300384 0.824254 -0.145529 -0.547199
0.094074 -0.403249 0.158938 0.555396 0.0508695 0.830029
-0.172597 0.341164 -0.228546 0.360932 -0.358 0.861141
-0.000183276 -0.445354 0.175001 0.545909 -0.722487 -0.42426
-0.0737209 0.175356 -0.261268 0.751372 -0.200261 0.628757
-0.328812 -0.0460829 -0.333674 -0.78095 -0.0411844 0.623235
-0.103986 -0.203554 -0.0539497 0.484464 0.761029 0.431427
-0.0451693 0.473464 -0.204568 -0.399848 0.730057 -0.554201
0.229083 -0.0441426 0.459566 -0.393882 -0.873049 -0.287475
-0.0893908 -0.306804 -0.135493 0.824514 -0.157394 -0.543511
0.0564177 0.568305 -0.0727862 -0.0494527 0.939113 -0.340032
-0.0984774 -0.0824384 -0.18448 0.655405 0.342771 0.673018
0.190974 -0.208642 0.446925 -0.349694 0.695367 -0.627836
-0.158391 0.428547 -0.203403 -0.814566 0.162809 0.556754
-0.0293497 0.292848 -0.227814 0.820661 -0.140523 -0.553867
-0.159039 -0.309706 -0.226959 0.84356 -0.259089 -0.470403
0.107678 -0.325228 0.353121 -0.828015 0.157221 0.538212
-0.140101 -0.281319 -0.0370913 -0.129108 0.794031 -0.594008
0.0107426 0.449228 -0.163554 0.856747 -0.277104 -0.434969
-0.115123 0.256369 -0.209553 0.301919 0.93742 0.17346
0.279237 -0.204916 0.443324 0.116934 -0.650581 0.75038
0.191602 -0.231618 0.45265 -0.899528 0.151549 0.409734
-0.0563912 -0.457562 0.119273 -0.193242 -0.9811 0.0100524
0.342176 -0.140213 0.451854 0.465576 -0.552187 0.691613
-0.163726 0.125391 -0.197298 0.613801 -0.290749 0.733971
-0.140078 -0.406567 0.013438 -0.791638 0.117154 0.599653
0.054877 0.448294 -0.0771431 0.112588 -0.858843 0.499713
-0.268831 -0.205719 -0.254965 -0.188529 -0.676527 0.711877
-0.216347 0.170133 -0.287886 -0.55314 0.299014 -0.777577
-0.247799 0.100235 -0.245289 -0.923281 0.293606 0.247684
-0.215096 0.340547 -0.299887 -0.419568 0.746964 -0.51576
-0.150135 0.169169 -0.338562 0.804162 -0.107586 -0.584593
-0.110504 0.372843 -0.274354 -0.557231 0.558038 -0.614889
-0.202243 0.060598 -0.38308 0.626914 -0.0354267 -0.778283
-0.0114213 -0.256393 -0.0819991 0.803945 -0.111994 -0.584062
-0.085252 0.24519 -0.290638 0.146523 0.960637 0.236023
0.332861 -0.0228475 0.420924 0.0821836 0.970384 0.227159
-0.190648 0.207755 -0.215363 -0.665034 -0.0015519 0.746811
-0.0944031 -0.037393 -0.24781 0.868006 -0.394117 -0.302056
-0.212978 -0.250075 -0.145636 -0.256586 0.775084 -0.577415
0.0868683 -0.297558 0.0741297 0.0741583 0.99565 0.0564057
0.24674 -0.184677 0.316668 -0.258874 0.67205 -0.693782
0.0620579 0.491372 0.0800927 0.146249 -0.989062 0.0191711
0.317008 -0.0473872 0.392827 0.833704 -0.210133 -0.510668
-0.117101 0.419546 -0.178324 0.591732 -0.702168 0.395996
-0.0053436 -0.393215 -0.00762087 0.424015 -0.290429 0.857824
0.165208 -0.267861 0.391595 -0.336645 0.789703 -0.512874
0.0874341 -0.383687 0.315944 0.494595 -0.774597 0.394177
-0.0630805 -0.432018 -0.0147877 -0.375134 -0.849165 -0.371744
-0.0551482 -0.3868 0.0657663 -0.232239 -0.967007 -0.104701
0.22024 -0.313257 0.334936 0.399409 -0.822435 0.40506
-0.169338 -0.116087 -0.181213 0.519722 -0.807063 0.280249
-0.188561 0.249627 -0.30489 -0.304083 -0.944489 -0.124397
-0.222945 0.336786 -0.303284 -0.448444 0.590385 -0.671077
-0.163543 0.0479275 -0.185718 0.659877 0.249687 0.708674
-0.273515 0.118833 -0.346116 -0.307647 0.158305 -0.938239
-0.0204312 -0.242546 -0.0826741 0.624246 0.145329 -0.767591
-0.149797 0.0275037 -0.209141 0.656041 0.0883707 0.749534
-0.121867 -0.238071 -0.181804 -0.397262 0.764478 -0.507698
-0.160266 0.00390615 -0.305759 0.813807 0.107301 -0.571143
-0.189394 -0.321849 -0.077879 -0.850157 0.238141 0.469598
0.130178 0.589189 -0.0070098 -0.0133626 0.991857 -0.12665
-0.231339 -0.410807 -0.130869 -0.418855 -0.750015 -0.511897
0.134531 0.510758 0.0452597 0.56126 0.240515 0.791922
0.13844 -0.368606 0.217541 0.879997 -0.256643 -0.399675
0.240543 -0.133655 0.480286 -0.158637 0.414299 -0.896209
-0.100266 0.0730743 -0.277934 -0.574199 0.176824 -0.799393
0.275456 -0.112115 0.368877 -0.418634 0.590692 -0.689804
-0.203621 -0.213738 -0.329313 0.816603 -0.0325304 -0.576283
