ply
format ascii 1.0
comment Created by Open3D
element vertex 512
property double x
property double y
property double z
property double nx
property double ny
property double nz
end_header
-0.18332 0.183201 -0.270895 -0.0145153 -0.874778 -0.484306
0.185529 0.272451 -0.305331 -0.150413 0.847614 0.508848
0.262694 0.106631 -0.0598378 0.336985 -0.774172 -0.535816
-0.364398 0.11134 -0.0399763 0.188392 0.879688 0.436643
0.531045 0.180576 -0.0264041 0.294477 -0.921794 -0.252148
0.0796647 -0.0332364 0.312979 0.2174 0.971391 0.09559
0.199883 0.186972 -0.210964 0.105858 -0.842836 -0.527657
0.254029 0.0157395 0.277719 -0.270284 0.927298 0.258971
-0.375944 -0.0439055 0.39497 -0.0596054 0.924905 0.375497
-0.266616 -0.0173458 0.195683 -0.0881694 -0.985572 -0.144479
0.220407 0.173381 -0.184378 0.00428973 -0.888695 -0.45848
-0.0512784 0.315193 -0.430189 -0.0609308 0.923866 0.377835
-0.182584 0.208232 -0.31388 0.0173021 -0.824886 -0.565034
0.383185 0.13149 0.0325836 -0.358893 0.845908 0.394508
0.214439 0.0322464 0.17352 -0.317808 0.897435 0.305955
-0.00955449 -0.0286869 0.181624 0.0808201 -0.981423 -0.174002
0.0130696 -0.0347414 0.355942 0.198951 0.974359 0.10509
-0.20431 0.0705736 -0.026096 0.381081 0.820251 0.426574
-0.166761 -0.0373038 0.281804 0.048698 -0.980384 -0.190985
-0.239505 0.316815 -0.491894 0.133924 -0.794046 -0.592921
-0.340809 0.206177 -0.257864 -0.0422387 -0.821403 -0.568782
-0.354928 0.201643 -0.212464 0.160485 0.923169 0.349289
0.0240128 -0.0713997 0.495343 -0.0768444 -0.993113 -0.0884427
0.591204 0.237111 -0.135065 0.248345 -0.935076 -0.252899
-0.542921 0.0774089 0.0600904 -0.175829 -0.857838 -0.482906
0.412958 0.123458 0.0892815 -0.29166 0.857223 0.424386
0.219241 0.211395 -0.23972 0.151358 -0.814588 -0.559944
-0.386679 0.00559786 0.201409 0.166607 0.902112 0.39804
-0.11925 -0.00600754 0.0651664 -0.311995 -0.936324 -0.161111
-0.352745 -0.0428233 0.349017 -0.035364 -0.989201 -0.142235
0.0204974 0.0904272 -0.106136 -0.170789 0.660619 0.731036
0.253466 -0.0664059 0.549423 -0.268414 0.897597 0.349677
0.00177943 0.22082 -0.3086 0.0601972 -0.830963 -0.553062
0.0572172 0.120387 -0.121439 -0.169947 0.718151 0.674816
0.471219 0.114969 0.108183 0.242158 -0.946383 -0.213821
0.273496 0.00987403 0.260194 0.25138 -0.945482 -0.207057
-0.355432 0.238956 -0.28238 -0.0929349 0.914531 0.393696
-0.274476 -0.0286412 0.352349 -0.00580612 0.975805 0.218564
0.0272885 -0.0589613 0.366329 -0.0223262 -0.994693 -0.100434
0.543973 0.208144 -0.073736 -0.00515034 0.939208 0.343311
0.0720036 0.0049608 0.0684196 -0.412394 0.904957 0.104806
0.0446308 0.187806 -0.250458 0.184623 -0.753044 -0.631538
0.395774 0.284375 -0.28674 0.139651 -0.804762 -0.576937
-0.0738724 -0.0480059 0.324907 9.02867e-05 -0.986268 -0.165153
-0.114183 0.184152 -0.274805 0.0736754 -0.838027 -0.540631
0.266681 0.185745 -0.189805 0.150737 -0.808898 -0.568298
-0.472679 0.154988 -0.113126 -0.0926904 -0.888874 -0.448678
-0.335734 -0.0482615 0.407623 0.0513707 0.929504 0.365217
0.377343 0.0662349 0.1846 0.274714 -0.952286 -0.132982
-0.0773496 -0.0291062 0.202712 -0.0555772 -0.979265 -0.194813
0.2749 -0.00466625 0.374504 -0.265402 0.930398 0.252827
0.464343 0.161574 0.0219112 -0.236665 0.944241 0.228906
-0.554939 0.0519568 0.133559 -0.0888231 0.964432 0.248959
-0.303223 -0.00850954 0.232088 0.0484691 0.982557 0.179534
-0.133461 0.24444 -0.337843 -0.098655 0.889208 0.44674
-0.0838633 0.145432 -0.186045 -0.0579606 0.840258 0.53908
-0.410175 0.223588 -0.261963 -0.10271 0.843474 0.527258
-0.365324 0.041298 0.103825 0.162916 0.911714 0.377142
-0.0190705 0.000820774 -0.0422489 0.276459 0.330285 0.902487
0.0703882 -0.013432 0.169023 0.156953 -0.94448 -0.288657
-0.279748 0.247089 -0.365286 -0.159757 -0.85234 -0.49799
0.396019 0.263987 -0.238339 -0.158167 0.817768 0.553388
-0.308437 -0.0212607 0.299648 0.0340868 0.993695 0.106807
-0.192079 0.142835 -0.169105 0.116403 0.921843 0.369671
-0.048166 -0.0325608 0.0554732 -0.301402 -0.948009 0.102155
-0.440608 -0.00782792 0.194647 -0.146521 -0.901456 -0.407319
0.0269228 -0.080889 0.539969 0.0404635 -0.98124 -0.188498
-0.356346 -0.0508481 0.387096 0.119326 -0.918164 -0.377804
-0.411941 0.191621 -0.202244 -0.163272 -0.873948 -0.457775
-0.18447 -0.0220478 0.273979 0.0100609 0.980124 0.19813
-0.258396 -0.0391309 0.298481 -0.044916 -0.987187 -0.153115
-0.0897468 0.0100053 -0.0298383 -0.499611 -0.736066 -0.456723
0.473778 0.108601 0.147005 0.314431 -0.897639 -0.308833
0.376851 0.166675 -0.0864047 -0.228927 0.919985 0.31815
0.242711 0.266955 -0.30963 0.113049 -0.809122 -0.576664
-0.145156 0.0160165 0.0720632 0.236147 0.924561 0.299035
0.256888 0.0345586 0.215283 -0.289455 0.908894 0.300211
0.362978 0.0351992 0.317216 -0.0309595 0.931614 0.362129
-0.425793 0.0013287 0.224979 -0.0408678 0.963339 0.265155
0.258332 -0.00033911 0.33202 -0.309577 0.93635 0.165563
-0.0831547 -0.0169128 0.0430318 -0.41904 -0.898946 -0.127679
0.147761 0.229347 -0.248194 -0.11413 0.725478 0.678717
-0.446573 -0.00648168 0.249676 0.0358885 0.980618 0.192616
0.221121 -0.00692113 0.253756 0.253675 -0.960647 -0.113163
-0.199848 0.319856 -0.466232 -0.0996368 0.887443 0.45002
0.326797 0.207086 -0.198461 0.155526 -0.770565 -0.618094
0.562984 0.209652 -0.079154 0.283848 -0.921174 -0.266213
-0.209513 0.120005 -0.119443 0.16573 0.905541 0.39055
0.535958 0.172782 -0.00536402 0.221891 -0.958308 -0.180026
-0.456552 -0.00038562 0.193691 -0.21745 -0.864639 -0.452895
0.364422 0.0912786 0.137313 -0.218161 0.943553 0.249225
0.107762 0.0405918 -0.0294531 0.460312 -0.742099 -0.487239
-0.213044 -0.0283432 0.244588 -0.010184 -0.98482 -0.173277
-0.40355 0.183198 -0.172004 -0.0213403 0.944975 0.326446
-0.379095 0.0648688 0.0553115 0.107551 0.897742 0.427191
0.0236537 0.0900153 -0.101256 -0.287529 0.762118 0.580089
-0.350678 -0.0452491 0.376828 -0.0238704 -0.988386 -0.150076
0.0705808 0.00146424 0.165039 -0.196956 0.980375 0.00855042
0.474442 0.116267 0.130407 0.279735 -0.931343 -0.233128
-0.225793 0.194298 -0.285154 -0.165954 -0.900034 -0.402986
-0.162833 0.26036 -0.400433 0.106241 -0.82533 -0.554566
0.238511 -0.0367408 0.397716 0.268551 -0.934027 -0.235529
0.400357 0.0730676 0.184355 0.287974 -0.942634 -0.168855
-0.398668 -0.00575368 0.181861 -0.192885 -0.949249 -0.248438
-0.053517 -0.0729436 0.497899 0.0168057 -0.989149 -0.145953
0.0895275 0.127267 -0.130244 -0.160967 0.799975 0.578039
0.0902247 -0.0140367 0.239417 -0.0403454 0.998707 0.0309383
0.168417 0.111062 -0.101642 0.204305 -0.860695 -0.466331
0.17296 0.0211348 0.12065 0.264976 -0.832031 -0.487352
-0.197943 0.177663 -0.231019 0.142069 0.875099 0.462622
-0.459674 0.126 -0.0691511 -0.2332 -0.87195 -0.43049
-0.0313408 0.220137 -0.307516 0.137672 -0.786838 -0.601608
-0.0147226 -0.0724027 0.480627 0.216745 -0.960475 -0.174667
-0.122231 0.0253513 -0.0184541 -0.466554 -0.808038 -0.359724
-0.357072 -0.0365296 0.303691 -0.0656007 -0.994123 -0.0861132
0.229326 0.222101 -0.243468 0.182921 -0.734678 -0.65329
0.394797 0.208525 -0.156269 -0.141005 0.817132 0.558939
-0.212998 0.170405 -0.210484 0.193978 0.888685 0.415465
-0.0987778 0.218443 -0.321436 0.0940241 -0.841172 -0.532531
-0.432626 0.18932 -0.194282 -0.0967633 -0.831333 -0.547286
0.236645 -0.00161881 0.261076 0.202104 -0.9544 -0.219716
-0.0993277 0.111625 -0.128037 -0.201658 0.939488 0.276941
0.238752 0.133539 -0.0743746 -0.189157 0.879447 0.436798
0.0484632 0.259494 -0.319048 -0.139387 0.78724 0.600687
-0.606198 -0.0277838 0.295318 -0.110341 -0.993798 -0.0137682
0.333579 0.122937 0.0126754 -0.284025 0.937716 0.200046
-0.389544 -0.0159469 0.305538 0.0258767 0.962477 0.270128
0.119903 0.123873 -0.114057 -0.216452 0.837288 0.502093
-0.163722 0.142852 -0.199376 -0.128909 -0.914227 -0.384149
-0.00483201 -0.0936578 -0.0244381 0.71663 0.321526 -0.618921
-0.349163 0.142356 -0.132144 -0.219883 -0.87104 -0.439251
-0.183331 -0.0397446 0.422357 -0.083144 0.864419 0.495851
0.40525 0.286426 -0.289788 0.168698 -0.766106 -0.62018
-0.155706 -0.0109504 0.148423 -0.0271445 -0.938156 -0.345147
0.365165 0.217744 -0.179779 -0.0995835 0.847019 0.522152
-0.422538 0.098556 -0.0239874 -0.198282 -0.881642 -0.428242
-0.42497 0.117042 -0.0638722 -0.20244 -0.796723 -0.56943
-0.478923 0.119014 -0.0218343 -0.0176677 0.948194 0.3172
0.0986704 0.234344 -0.276799 -0.104428 0.835814 0.538989
0.294202 0.0720068 0.136046 -0.457402 0.774594 0.436792
0.0191731 -0.0306226 0.32453 -0.0302756 0.977873 0.206997
-0.0493108 0.208991 -0.274981 -0.106432 0.877683 0.467273
-0.0568407 -0.045149 0.432676 0.0799716 0.992316 0.0944125
-0.34233 0.157172 -0.132461 0.194357 0.89567 0.400001
0.261758 -0.0799791 0.59006 -0.0551745 0.932367 0.357279
-0.191798 -0.0221296 0.200342 -0.053293 -0.979261 -0.195469
0.364911 0.148518 -0.0850172 0.266748 -0.925957 -0.267298
0.248298 -0.054762 0.438152 0.354338 -0.861732 -0.363128
-0.250375 0.027228 0.0543632 -0.0798941 -0.904199 -0.419573
-0.0227856 -0.0337459 0.357246 0.0714271 0.993186 0.0920808
0.166762 0.0078039 0.20928 -0.32239 0.907523 0.269196
0.13907 -0.0478403 0.344854 -0.00780735 -0.984902 -0.172935
-0.283855 0.035877 0.0489563 -0.149768 -0.900641 -0.40794
0.143755 0.101559 -0.065969 -0.186433 0.870235 0.455997
0.243907 0.0568146 0.0658845 0.290732 -0.920144 -0.262318
0.542469 0.273481 -0.240141 -0.0655501 0.92262 0.380099
-0.240959 0.290133 -0.43002 -0.120153 0.825794 0.551024
-0.300106 0.0962251 -0.0762681 -0.183405 -0.872358 -0.453159
-0.0322284 0.225549 -0.323486 0.137547 -0.767618 -0.625973
-0.333798 -0.0221684 0.342529 -0.110904 0.954075 0.278283
-0.0906474 -0.0142827 0.227294 0.0662631 0.995053 0.0740198
0.140133 0.0955212 -0.0578635 -0.203462 0.779974 0.591814
-0.146309 0.0864005 -0.110794 -0.117731 -0.867308 -0.48365
-0.0471412 0.0922347 -0.105167 0.211542 0.750573 0.626011
-0.306458 0.0946714 -0.0647264 0.00583858 -0.931086 -0.364753
-0.16595 0.323197 -0.478093 -0.135977 0.84259 0.521107
0.0935091 -0.0633224 0.423879 -0.02554 -0.987863 -0.153216
0.171603 0.114177 -0.10507 0.107404 -0.86824 -0.484379
0.368736 0.289937 -0.307984 0.194928 -0.747704 -0.634777
-0.212969 -0.0537407 0.447026 -0.0559692 0.928637 0.366743
-0.364839 -0.0136135 0.277246 0.0277447 0.984234 0.174681
-0.0936848 -0.0656924 0.499534 -0.0271894 0.971983 0.233475
0.0557265 0.204498 -0.237593 -0.0825749 0.886974 0.454378
-0.0454386 -0.0286412 0.094382 -0.128197 -0.989629 0.0648145
0.144406 0.271382 -0.314363 -0.122828 0.768782 0.627605
-0.00935229 -0.0503609 0.00271624 0.240255 0.687383 -0.685407
0.439826 0.11268 0.0927321 0.300595 -0.848633 -0.435275
0.356019 0.101252 0.103561 -0.299726 0.909032 0.289527
0.0134329 -0.0798003 -0.0467896 -0.65009 -0.239298 0.721193
0.0743177 -0.0624443 0.411881 -0.0472107 -0.995477 -0.0824389
0.498928 0.195918 -0.103655 0.267223 -0.881533 -0.389218
-0.42583 -0.00227643 0.178869 -0.143787 -0.901006 -0.409284
0.316475 0.166157 -0.140154 0.110373 -0.798447 -0.591862
-0.241236 -0.0132803 0.155274 -0.0363148 -0.949334 -0.312163
0.23618 0.0326432 0.194286 -0.286881 0.948905 0.131451
-0.396103 -0.0157291 0.302439 0.0164473 0.97104 0.238352
-0.213112 0.32677 -0.493372 -0.0743521 0.919966 0.384881
0.447859 0.124218 0.104547 -0.14627 0.897208 0.41668
-0.471816 0.0709996 0.0868504 0.33201 0.833743 0.441183
-0.0579228 -0.0394804 0.259959 -0.204144 -0.969373 0.136531
-0.0333303 0.302398 -0.425997 0.183653 -0.822097 -0.538915
0.283243 0.0520859 0.126063 0.294222 -0.921875 -0.252151
0.149145 0.0187404 0.150538 -0.313484 0.907502 0.279584
0.000839774 0.141868 -0.196313 0.114778 -0.808035 -0.577846
-0.298192 0.152707 -0.182157 -0.218602 -0.888734 -0.402944
0.116595 0.0770703 -0.0472166 -0.357295 0.772169 0.525448
0.351789 0.0528883 0.246733 -0.246302 0.948161 0.200813
-0.162781 -0.0454274 0.422972 0.124176 0.985994 0.111334
-0.138277 0.00324548 0.128254 0.0738621 0.941219 0.329624
-0.22517 0.00110569 0.107278 -0.067634 -0.930511 -0.359966
-0.0600181 0.0495133 -0.0893192 -0.143341 -0.693054 -0.706491
0.288963 -0.0266534 0.393186 0.249323 -0.939186 -0.236152
-0.428616 0.0446355 0.0827184 -0.190683 -0.885966 -0.422734
-0.245679 -0.0214697 0.320213 0.0549145 0.976254 0.209552
0.143024 0.215975 -0.238473 -0.214091 0.759354 0.614448
-0.228902 -0.05718 0.431732 -0.019053 -0.999745 -0.0121239
-0.239821 0.111184 -0.0858299 0.226868 0.883754 0.40928
-0.0243582 -0.0941488 -0.0243021 -0.895467 -0.310653 0.318801
0.441162 0.188486 -0.137954 0.253368 -0.890245 -0.378507
-0.268758 0.0990116 -0.0569562 0.209384 0.942359 0.260995
-0.126184 0.0134906 0.0758873 0.221723 0.931696 0.287717
0.0598405 -0.0273033 0.274602 -0.0528237 0.977697 0.203267
0.0519585 -0.0233114 0.27037 -0.0380379 0.988278 0.147853
-0.375127 0.0676828 0.0283913 -0.245239 -0.858193 -0.450958
0.134064 0.290781 -0.36351 0.125075 -0.814455 -0.566586
0.0374095 0.235905 -0.316951 0.136093 -0.791032 -0.596445
-0.343379 -0.0141321 0.281815 -0.0772774 0.947722 0.309599
-0.376327 0.225826 -0.265927 -0.14143 0.885919 0.441752
0.249376 0.234877 -0.257711 0.283539 -0.69543 -0.66029
-0.443246 0.0235475 0.171712 0.12133 0.88514 0.449229
-0.260447 0.0625892 -0.0164103 -0.154394 -0.886105 -0.437014
-0.342122 0.138522 -0.100401 0.261377 0.843149 0.469873
-0.491552 0.0120291 0.170415 -0.0220432 -0.890172 -0.45509
-0.470118 0.136989 -0.0636405 -0.0543488 0.933406 0.354683
0.400396 0.143261 0.0200161 -0.297603 0.836559 0.460002
0.164198 0.282167 -0.320771 -0.128034 0.784142 0.60723
-0.524985 -0.0155457 0.244683 -0.172445 -0.887108 -0.428137
0.305536 -0.00162155 0.329443 0.247717 -0.929503 -0.27324
-0.491895 0.10063 -0.0103715 -0.181391 -0.876216 -0.446478
-0.183924 -0.0337965 0.27575 -0.0312167 -0.962708 -0.268735
0.337859 0.0784399 0.0910504 0.230502 -0.967882 -0.100364
-0.210328 0.252259 -0.355562 0.264998 0.85866 0.438724
-0.0678563 0.0137253 -0.0458192 -0.395026 -0.690879 -0.605509
0.313457 0.0917886 0.0930763 -0.297906 0.911964 0.282088
0.232692 0.292682 -0.338526 -0.117605 0.908109 0.401879
0.394089 0.131421 0.0441969 -0.313673 0.868459 0.383913
0.120446 0.0409743 -0.0143275 0.496291 -0.701823 -0.511019
-0.339814 0.190777 -0.229546 -0.183753 -0.87593 -0.446073
-0.147926 0.0132183 0.103954 0.114297 0.965833 0.232599
0.47927 0.109928 0.156086 -0.068667 0.922233 0.380489
-0.249139 0.0418663 0.0572039 0.208568 0.940024 0.269914
-0.526471 0.0111841 0.19416 -0.153604 -0.83976 -0.520777
-0.12984 -0.0603336 0.422375 -0.120177 -0.992065 0.0369307
0.0295943 -0.0132112 -0.0504839 0.484806 -0.169769 -0.857987
0.148895 0.0700016 -0.00668372 -0.33544 0.864818 0.37359
-0.259712 0.0850983 -0.0581327 -0.178958 -0.911615 -0.370044
0.00223614 -0.0200821 0.258745 -0.0205956 0.987263 0.157758
0.0860941 -0.010814 0.0915082 0.349189 -0.935117 0.0601832
-0.113019 -0.0390354 0.261792 -0.128307 -0.982262 -0.136744
0.289353 0.0122314 0.323403 -0.279717 0.934968 0.218158
-0.19802 -0.0086173 0.210481 -0.13069 0.924123 0.359051
-0.0549285 0.000951331 -0.00617502 0.531043 0.720413 0.446092
-0.272752 0.335071 -0.525357 0.0609257 -0.919852 -0.387505
0.0244747 -0.0595023 -0.0523032 0.630675 0.1708 -0.757018
0.141885 -0.0527952 0.480351 0.0519443 0.99865 0.000907672
0.25183 0.0283503 0.230823 -0.355742 0.92029 0.162829
-0.226373 0.168277 -0.228349 -0.0710377 -0.857368 -0.509778
-0.543383 -0.027342 0.328697 0.109816 0.962594 0.247696
-0.448158 0.163059 -0.127425 -0.0646003 0.893224 0.444946
0.173496 0.0485541 0.0238303 0.304545 -0.87115 -0.385162
0.42676 0.126945 0.0929315 -0.30338 0.90645 0.293785
-0.565867 -0.00577814 0.236883 -0.17379 -0.887997 -0.425744
0.0458523 0.252482 -0.337678 0.235771 -0.749786 -0.61825
0.374921 0.00991587 0.362055 0.152123 -0.986585 -0.0592389
-0.159365 0.270735 -0.377647 -0.11737 0.809398 0.575413
0.137301 0.226333 -0.253527 -0.0357082 0.753441 0.656545
0.0234657 -0.0692115 0.005508 0.583843 -0.608337 0.537637
-0.417547 0.00756058 0.189036 0.24248 0.926652 0.287263
0.0184089 -0.068339 -0.0130418 -0.847622 0.3256 -0.418954
0.153175 -0.0658217 0.43732 0.116722 -0.962779 -0.243787
-0.263375 0.1059 -0.0975569 -0.0520508 -0.933368 -0.355127
0.113469 -0.0338671 0.348015 -0.0344752 0.980308 0.194441
0.243501 -0.0699702 0.487562 0.334545 -0.871329 -0.358978
0.0777673 0.0349523 -0.0505407 0.422284 -0.715918 -0.556001
0.0245409 -0.0242841 0.153958 0.117673 -0.992947 0.0144594
-0.2961 -0.056011 0.441188 -0.101686 -0.992766 -0.0638399
-0.235195 0.0172177 0.113073 0.0869263 0.966038 0.243338
0.0580536 -0.0432432 0.343332 -0.0333859 -0.987186 -0.156041
0.210484 -0.0518912 0.45031 -0.259734 0.943513 0.205724
0.428525 0.0568442 0.273961 -0.0446492 0.976316 0.211691
0.0559168 0.301263 -0.39796 0.138259 -0.821088 -0.553804
0.181172 0.0871956 -0.0658023 0.191576 -0.864262 -0.465133
-0.341444 0.0991234 -0.0586167 -0.112691 -0.877074 -0.46695
0.297321 0.243881 -0.261603 0.135825 -0.824122 -0.549886
0.268434 -0.0355754 0.454399 -0.24834 0.94561 0.210119
-0.339456 0.0959246 -0.0532813 -0.0938294 -0.846149 -0.524622
-0.398521 0.0131448 0.136285 -0.15283 -0.906675 -0.393171
0.155649 0.0189134 0.148584 -0.298436 0.91268 0.279197
0.15764 -0.0132945 0.275299 -0.280537 0.8779 0.388061
0.391665 0.0369936 0.281098 0.293511 -0.892141 -0.343418
0.238333 0.0102754 0.215542 0.262905 -0.946726 -0.185985
0.365587 0.100418 0.114845 -0.305361 0.909392 0.282419
-0.568241 0.0406481 0.143265 -0.0155832 0.888722 0.458183
0.360485 0.134272 -0.0451343 0.304926 -0.876237 -0.373134
0.250937 -0.0289974 0.417558 -0.289275 0.935088 0.204769
-0.0960733 0.146229 -0.188309 -0.0452165 0.84494 0.532947
-0.483444 0.013182 0.173428 -0.173577 -0.903349 -0.392214
0.279206 -0.0964396 0.611027 0.260828 -0.919319 -0.294655
-0.530954 0.0163599 0.213735 0.151012 0.883731 0.442961
0.281295 -0.041631 0.425034 0.281633 -0.917853 -0.279694
0.245001 0.126505 -0.0671553 -0.238422 0.88356 0.403085
0.106466 0.100946 -0.0800094 -0.284896 0.692076 0.663223
0.51954 0.271998 -0.234343 -0.0561272 0.94299 0.328054
-0.000551246 -0.0330025 0.308154 0.103957 0.991969 0.0720419
-0.357126 -0.0298571 0.272188 -0.0292658 -0.984796 -0.171232
-0.221462 0.0839451 -0.08113 -0.00107956 -0.875919 -0.482456
-0.213089 -0.044043 0.425024 0.000889399 0.9353 0.353855
0.451224 0.0733659 0.243285 0.30338 -0.926805 -0.221344
-0.265122 0.306362 -0.454745 0.204997 0.915513 0.346138
0.0675747 0.173752 -0.225427 0.15346 -0.81829 -0.553941
-0.0238613 -0.114082 -0.0505126 -0.953493 -0.26276 -0.147677
-0.393173 -0.0247994 0.276609 -0.0339981 -0.989699 -0.139068
-0.0141665 -0.0145171 0.201649 -0.0817806 0.975983 0.201913
-0.242235 -0.0101039 0.156632 0.132381 -0.956274 -0.260799
0.11599 0.113062 -0.130584 0.157328 -0.783738 -0.600836
-0.0445602 -0.0353909 0.34894 0.0858831 0.994931 0.0523016
-0.0183402 0.20326 -0.254602 0.0270143 0.736337 0.676076
-0.0435778 0.0642552 -0.0820847 0.212189 0.724505 0.655796
-0.00886201 0.319621 -0.440521 -0.121637 0.883716 0.45194
-0.540575 -0.0278782 0.2891 -0.0596415 -0.988344 -0.140065
0.0905591 0.114038 -0.136498 0.184956 -0.775922 -0.603106
-0.0821285 0.0704203 -0.101952 -0.131985 -0.798734 -0.587029
0.596885 0.265863 -0.220062 -0.189172 0.818084 0.543096
-0.391839 0.117456 -0.0715163 -0.189153 -0.880394 -0.434887
-0.0484713 0.295605 -0.389224 -0.166972 0.788948 0.591338
-0.360308 0.144547 -0.10834 0.0968779 0.933813 0.344396
0.13486 -0.050083 0.333149 0.0351454 -0.992004 -0.121212
-0.355208 0.115236 -0.0873834 -0.174688 -0.864266 -0.471729
-0.477455 0.00481535 0.18888 -0.150163 -0.877813 -0.454857
-0.439337 0.0404726 0.111982 -0.200175 -0.894927 -0.398792
-0.341292 0.312911 -0.478065 -0.153541 0.853311 0.498283
0.129024 -0.0498466 0.417045 0.0531725 0.998566 0.0062228
0.243171 0.0304301 0.21092 -0.281688 0.923465 0.260508
-0.0337466 -0.0507946 -0.0261455 -0.913634 -0.249365 -0.321076
0.272336 0.0461658 0.197977 -0.269978 0.935748 0.226909
-0.223907 0.308613 -0.473438 0.127134 -0.823364 -0.55309
0.568873 0.225648 -0.13814 0.300316 -0.892685 -0.33604
0.0886798 -0.0276961 0.292968 -0.0198585 0.987096 0.158895
0.0563586 -0.0202312 0.0165793 0.811917 -0.575757 -0.0964104
0.447325 0.122902 0.0644897 0.290357 -0.914098 -0.283052
-0.250792 0.0421324 0.0097202 -0.173705 -0.86204 -0.476144
-0.430323 0.189809 -0.200857 -0.0419599 0.94101 0.335767
-0.213815 -0.0361235 0.279692 0.0217876 -0.979215 -0.201653
-0.12145 0.197224 -0.293963 0.0963735 -0.831695 -0.546805
-0.376678 0.174696 -0.162269 0.149993 0.801935 0.578276
0.00624582 0.251343 -0.345615 0.143469 -0.762896 -0.630402
-0.191647 0.123552 -0.127198 0.241331 0.871334 0.427243
0.128023 -0.037916 0.29393 0.128646 -0.969243 -0.209805
-0.289394 0.189551 -0.216017 0.194395 0.878126 0.437155
0.375511 0.0933541 0.0923566 0.291054 -0.899672 -0.32539
0.135102 -0.0424181 0.300332 0.0361704 -0.983138 -0.17925
0.0792492 -0.0389787 0.261222 0.00284911 -0.991865 -0.127259
-0.302591 -0.0269065 0.350441 0.0660585 0.996811 0.0447596
0.0664269 -0.0369889 0.272065 -0.0431174 -0.989908 -0.134989
0.116853 0.229118 -0.283642 0.124711 -0.807846 -0.576049
0.315796 0.134608 -0.0933247 0.249156 -0.884051 -0.395443
-0.194969 0.330574 -0.498975 0.153886 -0.854845 -0.495539
0.0376945 -0.075196 -0.0260035 0.999837 -0.0148979 0.0102143
-0.206844 -0.0225881 0.293937 0.125138 0.991396 0.0384033
-0.449555 -0.0134356 0.282984 0.0252172 0.959294 0.281281
-0.174484 0.266693 -0.378082 -0.159226 0.747461 0.644941
0.0150651 -0.0555375 0.388452 -0.0117623 -0.988811 -0.14871
-0.364017 -0.0385654 0.324022 -0.137085 -0.986954 0.0844414
0.418175 0.086809 0.154754 0.132543 -0.96409 -0.230138
-0.0623613 0.000809286 0.00507989 0.598823 0.752115 0.275197
0.235912 0.196867 -0.211172 0.156985 -0.807126 -0.569126
0.507004 0.161077 0.00744051 0.318772 -0.899737 -0.298091
-0.309433 0.345562 -0.545451 -0.0230355 0.938967 0.343235
-0.0758404 0.111939 -0.126564 0.0210253 0.865609 0.500279
0.132567 0.0237317 0.117832 -0.364703 0.919721 0.145276
0.104333 -0.0225538 0.289418 0.0523938 0.992728 0.108379
-0.0800617 0.074881 -0.114476 -0.109998 -0.743239 -0.659922
0.404292 0.118583 0.0262849 0.29204 -0.923525 -0.248626
-0.384901 0.0743483 0.00806076 -0.167987 -0.869683 -0.464147
0.106883 0.00548018 0.0461014 0.476154 -0.828187 -0.295608
0.2692 0.0496705 0.108358 0.259988 -0.925232 -0.27632
0.311268 -0.0430939 0.472821 0.366603 -0.859445 -0.35631
0.0242762 -0.126476 -0.0347556 0.0269269 -0.798244 -0.601733
-0.476777 0.0888242 0.0491049 -0.05833 0.924809 0.375933
0.153643 0.0554259 -0.014688 0.409749 -0.839288 -0.357353
-0.15772 0.0214388 0.0112641 -0.322568 -0.884858 -0.336119
-0.104273 0.0151191 -0.00716788 -0.339497 -0.837366 -0.428439
-0.073373 0.0203666 -0.0188745 0.584218 0.720787 0.373035
0.425713 0.0882454 0.159445 0.245656 -0.951038 -0.187564
-0.272677 0.26779 -0.370814 0.132741 0.867636 0.479152
0.520535 0.26673 -0.236185 0.13282 -0.837595 -0.529899
-0.233717 0.332182 -0.517679 0.116199 -0.835696 -0.536758
0.30169 -0.0594735 0.538574 -0.0328963 0.956302 0.290523
-0.542719 0.0137779 0.196787 -0.169566 -0.920784 -0.351289
-0.0636702 0.0747838 -0.104824 -0.133847 -0.724479 -0.676177
0.161846 -0.0645823 0.433951 0.0302531 -0.971191 -0.236372
-0.175202 -0.0274487 0.204351 -0.096289 -0.983222 -0.154932
0.0159589 0.125314 -0.168915 0.0952502 -0.864614 -0.493325
0.249437 0.0105707 0.296233 -0.296883 0.91021 0.288752
0.206573 -0.096173 0.616485 -0.0326032 -0.987585 -0.153662
-0.369474 0.264906 -0.369227 -0.0646502 0.938075 0.340346
0.109433 0.28863 -0.366064 0.170831 -0.765901 -0.619848
-0.172904 0.302369 -0.437333 -0.0620154 0.922947 0.3799
0.260882 0.0618913 0.113495 -0.321395 0.889337 0.325248
0.295583 0.0529347 0.183736 -0.29029 0.900194 0.324627
0.107091 0.0547296 -0.0519818 0.281719 -0.820674 -0.49712
0.382749 0.0742082 0.1611 0.191505 -0.956784 -0.218839
-0.233226 0.235954 -0.36156 -0.146617 -0.879202 -0.45333
0.281494 -0.0428363 0.502123 -0.0366981 0.946963 0.319239
0.521236 0.242322 -0.170971 -0.26531 0.916395 0.299719
-0.467472 -0.00944633 0.216237 -0.142011 -0.885937 -0.441529
-0.265329 0.177627 -0.238276 -0.153233 -0.871223 -0.466359
0.253958 -0.0873279 0.551136 0.248002 -0.927184 -0.280759
-0.0764344 -0.00074651 0.035422 0.542942 0.839014 0.0356331
0.375129 0.133784 0.020377 -0.264188 0.922129 0.282635
0.448621 0.0974173 0.170486 0.298435 -0.914111 -0.274477
-0.428133 0.167306 -0.132939 -0.0608302 0.925309 0.374303
-0.345427 0.10627 -0.0315501 0.256364 0.768143 0.586715
-0.0926768 -0.0541977 0.365748 0.0115482 -0.9895 -0.144072
-0.277146 0.16796 -0.193057 0.128855 0.922909 0.362817
-0.124658 0.266896 -0.360043 -0.103977 0.755749 0.646554
-0.230726 0.0922604 -0.0543314 0.348542 0.76463 0.542088
0.0989734 0.0758039 -0.084599 0.298879 -0.794299 -0.528925
0.183833 0.127418 -0.129053 0.15095 -0.843846 -0.514915
0.0105307 0.161897 -0.194883 -0.138127 0.698355 0.702297
-0.470945 0.111769 0.0019153 0.16359 0.963421 0.212268
-0.0719858 0.0178174 -0.0135874 0.488078 0.735962 0.469191
-0.345452 0.170852 -0.16353 0.159912 0.828473 0.536713
0.0802593 0.230568 -0.272127 -0.051225 0.941881 0.33202
0.287849 0.251515 -0.252569 -0.211405 0.720237 0.660732
-0.0884403 0.101957 -0.137828 -0.0355878 -0.867489 -0.496181
0.170907 0.147393 -0.127473 -0.248859 0.754269 0.607575
0.0484438 0.208204 -0.252069 -0.16718 0.775549 0.608749
-0.204799 0.200574 -0.301276 -0.0893978 -0.833441 -0.54533
-0.11502 0.236554 -0.317471 -0.200021 0.753584 0.626181
-0.0182824 -0.0300137 -0.0328399 0.660195 0.199473 0.724122
0.204019 0.263058 -0.288198 -0.131265 0.816703 0.56193
0.145199 0.0643455 -0.00268285 -0.405348 0.79157 0.457286
-0.1584 0.0714062 -0.0774692 -0.168735 -0.84291 -0.510912
-0.607207 0.00182026 0.232683 -0.160256 -0.886319 -0.434461
0.273043 -0.0741213 0.533105 0.189557 -0.96637 -0.173771
0.584713 0.247419 -0.167727 -0.117355 0.883377 0.453731
-0.193145 -0.0241888 0.337771 -0.0114218 0.991122 0.132461
-0.478335 -0.0244784 0.268376 -0.0646596 -0.990195 -0.123829
0.117221 0.226694 -0.283781 0.0578181 -0.81841 -0.571718
0.491072 0.130813 0.0843637 0.253988 -0.955852 -0.14777
-0.41861 0.0487335 0.10496 0.160768 0.897756 0.410108
0.109086 0.0157689 0.0216358 0.495946 -0.84024 -0.219168
0.13931 0.309287 -0.388122 0.10474 -0.904508 -0.413393
0.108563 0.0176916 0.0904891 -0.345315 0.93417 0.0899066
-0.444272 0.059674 0.0563284 -0.131416 -0.853092 -0.50494
0.328782 0.280107 -0.289636 -0.0621328 0.922754 0.380348
-0.163444 -0.0593048 0.421391 -0.0208419 -0.982305 -0.186127
-0.370151 0.151555 -0.113338 0.113127 0.828303 0.548741
0.496826 0.124817 0.116832 0.289519 -0.937417 -0.193465
-0.0503517 -0.0433047 0.29889 -0.0388343 -0.993514 -0.106873
-0.157099 -0.0147917 0.228076 -0.00219451 0.973741 0.22765
-0.254356 0.234183 -0.314477 0.151213 0.885444 0.439458
-0.35971 -0.0456048 0.398115 -0.0478162 0.950088 0.308296
-0.00493381 0.152756 -0.187172 0.0080783 0.705677 0.708488
-0.179418 0.113699 -0.115483 0.0825285 0.82553 0.558291
0.478226 0.12793 0.107093 -0.0308393 0.941263 0.336262
-0.468899 0.106945 -0.0313991 -0.181804 -0.874072 -0.450495
-0.00111229 -0.120413 -0.0194658 -0.444192 -0.36496 0.818228
0.0228862 -0.0263991 0.0828198 0.102244 -0.977337 0.18536
-0.333268 0.197671 -0.259726 -0.0493938 -0.909972 -0.411717
-0.116077 -0.00820035 0.0820869 -0.25289 -0.954161 -0.160072
-0.418588 0.0195199 0.138644 -0.0687325 -0.912952 -0.402238
-0.46271 -0.0390399 0.367853 -0.00433957 -0.973812 -0.227315
0.00407257 0.109947 -0.152786 0.106076 -0.748635 -0.654441
0.4366 0.10652 0.116748 0.327132 -0.852833 -0.407014
0.249416 0.00297916 0.257444 0.247435 -0.935484 -0.252281
0.341955 0.124098 0.0123789 -0.277934 0.921552 0.271099
-0.578233 0.000125407 0.232697 -0.13092 -0.890189 -0.436376
0.128298 0.228661 -0.260607 -0.268374 0.81538 0.512963
-0.0443182 0.0911436 -0.127253 -0.00276102 -0.778328 -0.627852
0.247297 0.221205 -0.21072 -0.163059 0.825336 0.540584
-0.0955018 -0.0230585 0.143571 -0.182499 -0.980798 0.0687715
0.197123 0.0289927 0.111009 0.321843 -0.891958 -0.317536
-0.165076 0.202789 -0.282964 -0.0654855 0.847848 0.52618
0.341891 0.0389894 0.236059 0.308941 -0.905638 -0.290476
0.237745 0.0672097 0.0300524 0.237126 -0.931003 -0.277497
0.454115 0.261595 -0.219582 -0.0526046 0.935252 0.350052
0.403741 0.0968163 0.157619 -0.321563 0.894956 0.309274
0.224912 0.0478532 0.121294 -0.309059 0.828173 0.467559
0.10848 -0.0447134 0.321205 0.0148699 -0.984863 -0.172694
-0.0387548 -0.0468436 0.322131 -0.124101 -0.992228 0.0091009
0.19896 0.285182 -0.315641 -0.0989786 0.91726 0.385794
-0.135554 0.000347639 0.0645353 -0.344746 -0.925938 -0.154238
0.266877 -0.024826 0.432879 -0.28026 0.915289 0.289311
0.286485 0.260534 -0.255755 -0.132377 0.863058 0.487449
0.102756 -0.050765 0.364196 -0.00335304 -0.988012 -0.15434
-0.565243 -0.0116612 0.27563 -0.145857 0.880943 0.450183
-0.332373 -0.0122786 0.181047 -0.00449256 -0.970362 -0.241616
0.0412952 0.299167 -0.37739 -0.169761 0.88553 0.432456
-0.102812 -0.0265151 0.196799 -0.215662 -0.968333 -0.12578
-0.117538 0.0988207 -0.103848 0.130237 0.88769 0.441638
0.515647 0.164628 0.00799057 0.295892 -0.912512 -0.282436
-0.546093 -0.0363146 0.332734 -0.0846482 -0.996026 -0.0276886
-0.132344 -0.0619612 0.476072 -0.0340885 -0.992472 -0.117628
-0.161727 -0.0132897 0.235743 0.064016 0.991723 0.111298
0.190113 0.226867 -0.269663 0.143281 -0.780682 -0.608281
-0.316896 0.303189 -0.461667 -0.0493988 -0.882181 -0.468313
0.0930922 0.139732 -0.168242 0.227736 -0.676535 -0.700312
-0.331031 -0.0437587 0.359624 0.0320248 -0.967422 -0.251137
-0.245612 0.262526 -0.406891 -0.146226 -0.904375 -0.400903
0.0805653 0.174402 -0.225073 0.144967 -0.799347 -0.58312
0.149455 -0.0459558 0.327587 0.278654 -0.907548 -0.31418
-0.159244 -0.0420583 0.327278 -0.0261791 -0.988967 -0.145805
0.0896551 0.23526 -0.280001 -0.142295 0.837787 0.52713
0.168723 0.042543 0.0389653 0.427435 -0.855298 -0.292857
-0.0307317 -0.0133007 0.0882598 0.22383 0.947086 -0.230062
-0.225607 0.020608 0.109953 0.15993 0.964849 0.208538
-0.19437 0.078546 -0.0763562 -0.262469 -0.896071 -0.358004
-0.131275 0.166946 -0.227229 -0.0522463 0.829589 0.555924
0.38516 0.253254 -0.226374 -0.14089 0.795882 0.588831
-0.102905 0.113734 -0.161817 -0.0244544 -0.9183 -0.395128
