ply
format ascii 1.0
comment Created by Open3D
element vertex 512
property double x
property double y
property double z
property double nx
property double ny
property double nz
end_header
-0.116812 -0.354806 0.0464431 0.256778 -0.489472 -0.833356
0.0749885 -0.191012 0.287435 0.148242 0.863549 -0.481984
-0.161932 0.293746 -0.347473 -0.962352 -0.0140728 -0.271443
0.100433 -0.0323947 0.0995911 -0.287106 0.542424 0.789523
0.316516 -0.240129 -0.163046 0.964995 0.0164089 0.261754
-0.181131 0.201744 -0.283666 -0.963983 -0.0308697 -0.264165
0.158451 0.464838 0.124613 -0.693944 -0.253343 -0.673988
-0.320855 0.250439 0.167926 -0.96965 -0.0886229 -0.227872
-0.150293 -0.472487 -0.193391 -0.257217 0.488917 0.833547
-0.322707 -0.341016 0.190783 -0.946787 0.077734 -0.312334
-0.0321272 -0.334666 -0.011038 0.153734 0.840934 -0.518841
0.122705 0.0495365 0.411341 0.205806 -0.422044 -0.882906
0.367386 0.179123 -0.333155 0.957795 0.0203753 0.28673
0.0728871 0.00953506 0.418382 0.251341 -0.487462 -0.836187
-0.133676 -0.28895 -0.286539 0.954715 -0.00283033 0.29751
0.120751 0.217506 0.409595 -0.251893 0.526382 0.812079
-0.237274 0.417953 -0.101148 -0.952992 0.00182954 -0.30299
-0.244745 -0.263588 0.497664 -0.110382 -0.881233 0.459612
-0.0536729 -0.310226 -0.0632268 -0.946764 -0.00370201 -0.321906
-0.0205173 -0.197163 0.158313 -0.248263 0.462108 0.851364
-0.121394 -0.40698 0.272292 -0.119607 -0.904045 0.410362
0.287422 0.0110035 -0.417825 0.269033 -0.50815 -0.818172
0.304092 -0.468915 -0.109531 0.941345 -0.0305859 0.336057
0.0862722 -0.316551 0.0600084 0.105322 0.897984 -0.427237
-0.236342 0.44805 -0.108659 -0.94838 0.00691414 -0.317061
0.234207 0.226519 -0.474657 -0.102339 0.49686 0.861775
0.310219 0.266269 -0.147466 0.958677 0.0164785 0.284018
-0.324858 -0.137462 0.199509 -0.971658 -0.00179966 -0.236384
-0.0629557 -0.313672 0.0187205 0.152688 0.86241 -0.482634
-0.0990276 -0.256941 -0.0161293 -0.943188 0.0239582 -0.331394
-0.262612 0.127061 0.343898 -0.261101 0.433018 0.862741
-0.243835 -0.164265 -0.0692291 -0.961466 -0.00839102 -0.274796
-0.289129 -0.339901 0.0820981 -0.956154 -0.00706625 -0.29278
0.0354321 -0.461251 -0.0715282 0.696033 0.180362 0.694988
-0.31771 -0.189707 0.317537 0.969166 0.00265534 0.246395
-0.0613445 -0.324857 0.353471 0.273065 0.427207 0.861933
0.214786 0.160935 -0.0777483 0.258614 -0.485418 -0.835158
0.0633122 -0.174878 -0.378324 0.214365 -0.487218 -0.846562
0.0954593 -0.169538 0.181296 -0.27201 0.459025 0.845758
0.32544 0.13517 -0.276473 -0.108041 -0.882219 0.458276
-0.0031196 -0.0425772 -0.476698 0.24225 -0.535928 -0.808762
-0.326894 -0.115031 0.348168 0.974096 0.0346318 0.223468
-0.40146 -0.251232 0.478842 -0.154387 -0.861853 0.483089
0.0549854 -0.467383 0.13253 0.363028 -0.533022 -0.764263
-0.0400859 -0.383206 0.337682 -0.177931 -0.846745 0.501362
-0.167624 -0.331242 0.403164 -0.133261 -0.874608 0.466156
0.174191 0.476865 -0.0489985 -0.717522 0.425833 0.551207
-0.189372 -0.387725 -0.25026 -0.944896 0.0472487 -0.323942
-0.220159 -0.148089 0.375059 -0.958318 -0.0733228 -0.276135
-0.159588 -0.0133163 -0.346494 -0.972925 -0.0142056 -0.230685
-0.04744 0.403664 0.113697 -0.159922 -0.855866 0.491853
0.107529 -0.575114 -0.043407 -0.107314 0.512612 0.851888
0.31954 0.0936826 -0.349338 -0.112992 -0.895834 0.429784
0.10212 0.386781 -0.317191 0.0791912 0.886419 -0.45606
0.246508 0.399744 0.0564104 0.960208 0.0396769 0.276452
0.0483154 -0.00382793 -0.353748 0.96587 0.00213057 0.259019
0.156983 -0.471812 -0.174188 0.276602 -0.356296 -0.892493
-0.314617 0.234668 0.264798 -0.257331 0.487649 0.834254
-0.11976 0.0979255 -0.483467 -0.975511 -0.0222488 -0.218821
-0.00439641 0.536952 -0.0241147 0.957287 -0.0319233 0.287371
0.019738 0.239506 -0.613623 0.13383 0.876768 -0.461918
0.0202098 0.0901443 0.355621 0.257879 -0.477031 -0.840202
-0.0527751 -0.336804 0.355684 0.241536 0.423985 0.872867
-0.316795 -0.256779 0.314199 0.943007 -0.0145012 0.332458
0.11912 -0.36037 0.0820468 -0.0799412 -0.518902 -0.851088
-0.074801 0.625441 0.0751165 0.124885 0.874685 -0.468326
0.104385 0.00955702 0.424786 0.24154 -0.479575 -0.843603
0.243077 -0.404785 -0.1861 0.275719 -0.511981 -0.813544
0.298507 0.45731 -0.128802 0.134291 0.87235 -0.470075
-0.0210709 -0.216016 0.169332 -0.301305 0.546078 0.781674
-0.136408 -0.363211 0.348145 -0.146821 -0.863521 0.482468
-0.053853 0.230916 -0.647766 0.0709212 0.905337 -0.41873
0.13043 -0.529187 -0.0618259 -0.259007 0.564387 0.783826
-0.201194 -0.495546 -0.203846 -0.956269 -0.0222266 -0.291642
-0.00699462 -0.36072 -0.165512 0.956217 0.00643853 0.292588
0.00597353 0.208071 -0.21533 0.957065 0.00815315 0.289758
0.310223 0.168386 -0.348336 -0.973561 0.185162 0.13377
-0.0658833 0.293067 0.207009 0.252052 -0.52721 -0.811492
0.0100825 -0.207757 -0.231356 0.967018 0.0469845 0.250336
-0.199182 -0.212575 0.313729 -0.954235 0.0108518 -0.29886
-0.14221 -0.0491159 0.269673 0.96315 0.035513 0.266611
0.0820076 -0.348483 -0.270355 0.212254 -0.578568 -0.787532
-0.373782 -0.201795 0.362269 -0.957333 0.0285056 -0.287578
0.132393 -0.597715 -0.0207321 -0.47562 0.534828 0.698387
-0.174411 0.376148 -0.210745 0.10106 -0.936993 -0.334411
0.212527 0.257632 -0.49128 0.0937198 0.488517 0.867507
-0.0167363 0.469952 0.0705128 0.952348 -0.268745 -0.144256
-0.00844655 -0.244574 0.088967 0.255163 -0.465759 -0.847325
-0.192814 -0.251163 0.541535 -0.146403 -0.851621 0.503296
-0.0903601 0.3372 -0.0787306 0.237331 -0.484425 -0.842025
0.0277514 -0.196981 -0.276308 -0.255196 0.479109 0.839839
-0.035507 0.179759 0.38329 -0.219389 0.468937 0.85555
-0.123238 -0.204749 -0.0424976 0.295334 -0.516814 -0.803542
-0.145283 0.227579 -0.403822 -0.968846 -0.0242099 -0.246477
-0.169729 -0.213871 0.575733 -0.249156 0.487997 0.836529
-0.0775679 -0.121846 -0.451261 0.263615 -0.536635 -0.80158
0.13343 0.079011 0.429565 0.94691 -0.0275107 0.320319
-0.301028 -0.444801 0.147446 -0.192283 -0.855751 0.480332
-0.221641 0.424971 -0.159326 -0.954249 -0.00694692 -0.298933
0.340452 -0.0100508 -0.38973 0.277259 -0.544672 -0.791492
0.0655866 -0.172396 0.071572 0.202188 -0.454928 -0.867272
-0.0294802 0.0961021 0.33367 0.27141 -0.510966 -0.815629
-0.346478 0.0282655 0.256703 -0.945601 0.00606187 -0.325272
0.029438 -0.24611 0.613293 -0.147002 -0.868099 0.474126
0.0411869 0.338549 0.214603 0.257716 -0.497299 -0.828418
0.354059 0.306266 -0.294202 0.942048 -0.00881052 0.335363
0.173847 0.432469 -0.21343 0.128732 0.87239 -0.471554
-0.0928613 -0.390007 -0.0306897 -0.947211 0.0547741 -0.315896
-0.0943525 -0.0964396 0.114839 0.952683 -0.0100703 0.303799
0.178039 0.360469 0.0763375 -0.973667 0.218822 0.0639451
0.368576 0.0975781 -0.44409 0.254266 -0.479982 -0.839623
0.139038 -0.175581 -0.355475 0.266706 -0.512306 -0.816339
0.130232 -0.562287 -0.0433017 -0.326417 0.423304 0.845142
-0.0838685 -0.494659 -0.159276 -0.250316 0.457948 0.85301
0.40103 0.232058 -0.45066 0.93626 -0.0199952 0.350738
0.0311524 -0.204456 -0.269668 -0.25873 0.496644 0.828494
-0.075631 -0.342319 0.368621 0.441212 0.374519 0.815517
0.18905 0.033043 -0.363099 -0.237717 0.466374 0.852048
0.0097948 0.129146 -0.574793 0.253925 -0.487322 -0.835488
-0.242637 -0.550951 -0.0606928 -0.957501 -0.00634407 -0.288362
0.237543 -0.143863 -0.242383 -0.271794 0.514636 0.81319
0.206975 0.444444 0.185151 0.942576 0.00968025 0.333852
0.186754 0.468041 0.247637 0.956956 0.01789 0.28968
0.24368 0.293717 -0.00485235 -0.163376 -0.858136 0.486734
0.0422154 0.507412 0.129703 0.394373 -0.413076 -0.820877
0.286889 0.0594935 -0.345396 -0.277552 0.450022 0.84879
0.21798 0.385208 0.146085 0.962267 0.0108714 0.271889
0.302014 0.194464 -0.396921 -0.879449 0.255389 0.401678
-0.280264 0.480216 0.0336122 -0.956173 -0.0400369 -0.290054
0.256711 0.243709 -0.537477 0.150493 0.869474 -0.470496
-0.148609 0.104883 -0.384551 -0.955489 -0.00762208 -0.294929
0.107965 -0.334873 0.0673788 0.0627191 -0.480473 -0.874764
-0.287803 0.269566 0.251996 -0.269245 0.496984 0.824933
-0.109838 0.169765 0.365498 -0.274775 0.502512 0.819744
-0.249687 -0.495035 -0.0414523 -0.957674 -0.0108537 -0.287652
-0.27217 -0.46167 0.0340676 -0.974624 -0.0241641 -0.222538
-0.335265 -0.32101 0.368578 -0.214659 -0.842289 0.494439
0.235959 -0.136058 -0.346596 0.257396 -0.543648 -0.798871
-0.325747 -0.180696 0.201327 -0.955328 0.0100182 -0.295377
0.154616 0.401453 0.150175 -0.774753 -0.290815 -0.561413
-0.0756707 0.357959 -0.114587 -0.961741 -0.0182938 -0.273348
-0.241039 0.436203 -0.0872844 -0.952014 0.0209885 -0.305333
-0.0632918 0.0111678 -0.527406 0.248538 -0.483928 -0.839072
-0.0466528 -0.117933 0.104366 -0.22765 0.433137 0.872105
0.0891159 -0.179329 -0.268907 -0.253905 0.498472 0.828889
-0.0509889 -0.235574 -0.253638 -0.284672 -0.489203 0.824404
0.128212 0.355836 -0.00455322 -0.484082 0.445584 0.753074
0.368651 -0.0731004 -0.332869 0.954585 0.00349642 0.29792
-0.275292 0.274244 0.255661 -0.278908 0.47875 0.832471
-0.210657 0.0679537 -0.181401 -0.961611 -0.0255853 -0.273221
0.126638 -0.150962 0.0786846 0.240355 -0.529341 -0.813651
0.0609806 -0.1635 -0.285688 -0.280467 0.515529 0.809672
-0.037893 0.0267316 0.0244358 -0.228592 0.461922 0.856956
-0.155783 0.619012 0.0856023 -0.31025 0.500265 0.808381
0.166657 0.0550555 -0.0309725 0.246306 -0.482298 -0.840667
0.139015 0.63005 0.14243 0.190214 0.843373 -0.502535
-0.250932 -0.337415 -0.0407319 -0.948193 0.00821129 -0.317587
0.14413 -0.294641 0.406748 0.966187 0.00728885 0.257738
-0.04335 -0.641534 -0.13797 0.231178 -0.461001 -0.856758
0.290406 0.225485 -0.0838444 0.957141 0.00959235 0.289462
-0.21775 0.613097 0.00704562 0.163594 0.867164 -0.470386
0.415049 0.236276 -0.493265 0.955576 0.00559487 0.294692
0.198046 -0.47248 0.240096 0.950063 -0.00618688 0.311995
-0.354291 -0.0885883 0.442739 -0.230419 0.557149 0.797805
0.164404 0.403798 0.313783 -0.280396 0.519975 0.806849
0.0365775 0.166545 -0.301748 -0.134461 -0.871542 0.471525
0.0110942 0.387325 0.276452 -0.244981 0.482943 0.840685
0.249822 -0.558612 0.074515 0.973071 0.0179962 0.229801
-0.368989 -0.259002 0.336186 -0.948883 -0.0714935 -0.307425
0.0909778 -0.419863 0.312305 -0.161311 -0.8656 0.474041
-0.364705 -0.288929 0.329143 -0.949816 0.000127909 -0.312809
-0.0577312 -0.194285 0.240805 0.124093 0.873043 -0.471589
0.015452 0.534745 -0.0712111 0.153173 0.86297 -0.481477
0.238607 -0.315038 -0.24087 0.258312 -0.490601 -0.832217
0.325364 0.225601 -0.200557 0.957459 0.00911165 0.288426
0.0636917 -0.0312428 -0.362045 -0.276212 0.446542 0.851062
-0.0713257 0.29808 -0.532475 0.0677472 0.915171 -0.397332
-0.181401 -0.0227236 0.318629 0.243874 -0.384121 -0.890492
-0.1132 0.206903 -0.507786 -0.956284 0.00161219 -0.292435
-0.238019 0.0857159 -0.101484 -0.974469 -0.0297097 -0.22255
-0.0306083 0.439116 0.231278 -0.28871 0.551099 0.782903
-0.163136 -0.122246 0.193118 -0.961501 -0.0209476 -0.274002
-0.211814 0.195221 0.320076 -0.268626 0.539061 0.798281
0.267185 0.399048 -0.243074 0.154025 0.853627 -0.497591
0.351707 -0.110745 -0.326848 0.266192 -0.511007 -0.817321
-0.088047 0.0146601 0.0872768 0.951197 0.00381516 0.308561
0.0038495 -0.210997 0.522365 -0.285305 -0.458587 -0.841605
-0.12622 -0.460846 0.170476 -0.163413 -0.865821 0.472916
0.297417 0.346248 -0.330731 0.156654 0.85554 -0.493467
-0.290929 0.385844 0.181774 -0.246075 0.476461 0.844057
0.200283 0.5912 0.09435 0.0952126 0.89361 -0.438629
0.00542812 -0.50366 0.116614 0.775634 -0.421205 -0.470083
-0.131302 0.526543 0.148946 -0.259084 0.494655 0.829573
0.356237 -0.054848 -0.290132 0.956727 0.0084794 0.290865
-0.00440868 -0.20533 -0.18144 0.959729 0.0292203 0.279404
-0.331513 0.000469208 0.252708 0.191011 -0.790578 -0.581808
-0.101847 -0.487676 -0.00411985 -0.964645 -0.0951047 -0.245793
0.132762 0.35447 -0.363181 0.119451 0.907657 -0.402356
-0.235528 -0.300045 -0.0915743 -0.952601 0.00247311 -0.304214
0.302501 0.145469 -0.300962 -0.992592 0.0703355 -0.0990644
-0.0949454 0.124545 0.111046 0.964739 0.0273679 0.261782
0.19072 -0.399128 0.0557418 -0.820564 -0.216282 -0.529053
0.00133417 -0.0441282 0.0753413 -0.217199 0.562749 0.797583
0.013219 0.0204771 0.393234 0.27059 -0.526289 -0.806103
0.099682 0.0598987 0.497388 -0.267136 0.446568 0.853941
-0.183218 -0.458677 -0.261877 -0.950782 0.0183676 -0.309315
0.191214 0.38854 -0.287841 0.10642 0.884988 -0.453289
0.00998371 -0.1037 -0.435846 0.295469 -0.526173 -0.797396
0.201767 0.436483 -0.192315 0.196854 0.863816 -0.463756
-0.0146963 0.0138882 0.0369693 -0.245384 0.475902 0.844573
-0.106451 0.366828 0.139018 0.950506 -0.0322203 0.30903
0.196333 -0.55734 -0.111906 0.281074 -0.505841 -0.81555
0.11253 -0.186185 -0.256311 -0.255411 0.485767 0.83594
-0.131999 -0.533506 -0.151208 -0.252984 0.43507 0.864126
0.363481 0.191553 -0.319888 0.939511 -0.00250728 0.342509
0.20277 -0.250114 0.211812 0.929592 0.0228417 0.367883
-0.0355205 0.291209 0.316263 -0.236987 0.480616 0.844302
-0.313143 0.137149 0.146649 -0.958823 -0.0390961 -0.281299
-0.167372 -0.329099 -0.318761 -0.96805 -0.0257641 -0.249429
0.0487269 -0.364438 -0.169662 -0.238755 0.524986 0.816937
-0.118856 -0.543502 -0.141784 -0.254199 0.537128 0.804286
-0.260652 0.228144 -0.0230151 -0.955308 -0.00731755 -0.29552
0.315678 0.297941 -0.34789 -0.895645 -0.0891065 -0.435752
-0.220167 -0.0202246 0.368429 0.28784 -0.529581 -0.79793
0.298052 0.190313 -0.521519 0.26316 -0.472941 -0.840877
-0.0210169 0.44531 0.0370087 0.979495 -0.102405 0.173503
0.187686 -0.633208 -0.0543539 -0.152028 -0.821468 0.549616
-0.231804 0.0956886 0.371538 -0.219569 0.423575 0.878848
-0.203205 -0.423868 0.215596 -0.134864 -0.873322 0.468103
0.136975 -0.134984 -0.378074 0.277926 -0.499826 -0.820324
-0.352434 0.10499 0.28234 -0.955133 -0.00150691 -0.296173
-0.043974 0.196424 0.272009 0.25712 -0.503451 -0.824879
0.0406375 0.0107357 0.0544528 -0.222081 0.450189 0.864876
0.0589458 -0.229479 0.485384 -0.821188 -0.164787 -0.546347
-0.120552 0.00955277 -0.472016 -0.952175 0.00291096 -0.30554
0.127139 -0.334978 -0.262142 0.251867 -0.364616 -0.896448
0.0353129 -0.0551785 -0.313351 0.947868 -0.0381189 0.316376
-0.191431 -0.373263 0.290219 -0.977448 -0.0480091 -0.205644
0.247689 0.0365516 -0.445789 0.258027 -0.488559 -0.833506
0.113045 -0.182681 0.507072 0.94883 -0.00246723 0.315778
-0.244289 -0.263671 -0.0656809 -0.961861 -0.0328609 -0.271557
0.028723 0.510987 -0.104991 0.100931 0.881495 -0.461281
0.32081 0.217275 -0.184079 0.962117 0.0282065 0.271173
-0.375189 -0.289867 0.362395 -0.919344 0.042167 -0.391188
0.281874 0.210614 -0.0857427 0.301569 -0.574762 -0.760727
0.250265 -0.403544 0.0603963 0.968564 -0.057234 0.242091
0.154007 -0.499424 0.134526 -0.598469 -0.315626 -0.736352
0.348872 -0.0227179 -0.378688 0.226557 -0.585927 -0.778049
0.020298 -0.189218 0.619831 -0.253637 0.436418 0.863254
0.0214049 -0.191029 0.271676 0.104264 0.889318 -0.445244
-0.375124 -0.0366087 0.355069 -0.936104 -0.00357316 -0.351704
-0.253226 0.136807 -0.0418644 -0.960927 -0.0171953 -0.276266
-0.154415 -0.525599 -0.237731 0.258879 -0.494586 -0.829679
-0.347796 -0.182746 0.272341 -0.952996 0.0250526 -0.301945
-0.32633 0.351594 0.191435 -0.947599 0.0435121 -0.316484
0.272694 -0.155356 -0.225202 -0.261945 0.498988 0.826072
0.0912042 0.0122568 -0.479635 0.280193 -0.383901 -0.879836
-0.318738 -0.160143 0.327986 0.947014 -0.00307696 0.321176
-0.0991989 0.026001 0.126002 0.940891 -0.0232251 0.337912
-0.0141614 -0.240723 0.302096 -0.0186891 0.459105 0.888185
-0.20853 0.049356 -0.188164 -0.955834 0.0229992 -0.293005
-0.309712 0.0888469 0.143481 -0.937599 0.0165737 -0.347322
-0.161364 -0.145863 0.159961 -0.261527 0.495143 0.828515
-0.0615046 -0.602737 -0.0707728 -0.113099 -0.893707 0.434161
-0.342262 -0.311356 0.251471 -0.953068 0.0246091 -0.301756
0.0775545 0.306338 -0.47249 0.156444 0.860133 -0.485485
-0.0888556 -0.275231 -0.0465125 -0.937853 0.029055 -0.345813
-0.301164 -0.23595 0.469378 0.233082 -0.536762 -0.810901
-0.0882844 0.20065 -0.123678 0.195308 0.564786 -0.801793
-0.179856 0.161484 -0.285355 -0.961727 -0.0657777 -0.265998
-0.172572 0.0310576 -0.301298 -0.94895 0.066968 -0.308237
-0.178806 0.358411 0.233158 -0.260452 0.498735 0.826697
-0.103358 -0.147495 0.556936 -0.255588 0.486143 0.835667
-0.124495 -0.0528701 -0.457541 -0.961164 -0.0607735 -0.269204
-0.357745 0.156997 0.299996 -0.257539 0.489921 0.832857
-0.38992 -0.109459 0.409288 -0.954312 -0.00358571 -0.29879
0.251313 -0.367042 -0.204807 0.271716 -0.520823 -0.809268
-0.171268 -0.344374 -0.198784 -0.14108 0.883583 0.446518
0.313318 -0.0117659 -0.296463 -0.270277 0.409875 0.871179
0.193622 0.487981 -0.0135237 -0.935098 0.237616 0.262928
-0.123622 0.267505 -0.324913 0.948511 -0.00547576 0.316696
0.380264 -0.0147427 -0.375431 0.274121 -0.500006 -0.821494
0.204423 0.449376 0.192517 0.955128 -0.000157996 0.296194
0.0706253 -0.30806 0.0666048 0.155722 0.866507 -0.474253
-0.191803 -0.399718 0.268595 -0.177384 -0.859862 0.47872
0.103318 -0.0549778 -0.437989 0.245943 -0.560519 -0.790778
-0.253995 0.473732 -0.0538825 -0.961229 -0.0168907 -0.275233
-0.0368823 -0.237807 0.302843 0.124931 0.48674 0.864567
-0.224233 -0.283464 0.472389 -0.097338 -0.890689 0.444069
-0.00648763 -0.100365 -0.442154 0.254445 -0.525794 -0.811664
-0.0313406 0.368241 -0.246609 -0.952252 0.00645423 -0.305246
-0.233965 0.595272 0.0747489 -0.248362 0.501878 0.828513
-0.150005 -0.0701278 0.148913 -0.957483 -0.00796292 -0.28838
0.100646 0.046421 -0.0467112 0.291176 -0.544748 -0.786427
0.190639 -0.353612 0.0395584 -0.764664 -0.188287 -0.616309
0.149063 0.118539 0.383314 0.952426 0.000140307 0.30477
-0.186386 -0.479004 -0.246939 -0.953714 -0.002996 -0.300702
-0.134005 0.105212 0.297853 0.256637 -0.477327 -0.840414
-0.045692 -0.285108 0.0799304 0.157294 0.85443 -0.495185
0.181877 -0.155563 0.09759 0.273322 -0.510453 -0.815311
0.020831 0.433509 0.159245 0.513172 -0.460188 -0.724488
0.240348 -0.0704206 -0.384348 0.237293 -0.456104 -0.857707
0.165433 0.282403 -0.277716 0.443367 -0.453927 -0.772901
-0.332419 -0.210978 0.445825 0.237147 -0.442875 -0.864652
-0.294633 0.492581 0.117321 -0.267118 0.450333 0.851967
0.124282 -0.512251 -0.157744 0.25644 -0.489637 -0.833363
0.193426 0.0685502 -0.383108 -0.254526 0.495827 0.830284
-0.102376 -0.126154 0.424019 0.840136 -0.375224 -0.391637
0.00825997 0.370653 0.000545942 0.63719 0.208376 0.742003
0.176599 0.186003 -0.448764 0.238416 0.404075 0.883109
-0.302616 0.0206365 0.395539 -0.241983 0.459853 0.854388
-0.0304566 0.0464016 0.013214 -0.224312 0.450772 0.863996
0.0052616 0.00152614 -0.217072 0.959552 0.0179148 0.28096
-0.0226217 0.238895 -0.297832 -0.197416 0.432416 0.879797
-0.0077339 0.248103 -0.607422 0.137073 0.871749 -0.470388
0.179763 -0.449924 0.280149 -0.111873 -0.882492 0.456829
-0.182166 0.305147 -0.14321 0.955346 0.00735642 0.295397
-0.308051 -0.0887439 0.283442 0.965566 0.0815463 0.247046
-0.0209934 0.0686049 -0.131527 0.955512 -0.0106574 0.29476
-0.16493 -0.194115 0.188175 -0.268304 0.518776 0.811717
0.175331 0.364629 0.287662 0.956527 0.0133589 0.291337
-0.138502 -0.251606 0.556541 -0.118144 -0.883542 0.453205
0.0727418 0.364793 0.308608 -0.241988 0.475404 0.845833
0.052966 0.0887632 0.362948 0.232934 -0.459919 -0.856865
-0.221762 -0.437572 -0.13424 -0.977043 -0.0408624 -0.209085
0.204512 -0.560445 0.0824153 -0.182491 -0.842596 0.506684
-0.190803 -0.492339 -0.233212 -0.956528 -0.0321164 -0.289867
-0.150244 0.104843 0.39436 -0.262587 0.46534 0.845285
-0.312755 -0.160676 0.158399 -0.954211 0.0206085 -0.298425
0.330661 0.160501 -0.492131 0.2077 -0.452295 -0.867347
0.0906385 0.192793 -0.135857 0.344827 -0.519123 -0.782052
0.272735 0.454323 -0.0288179 0.954593 -0.0212203 0.297157
0.333354 -0.0856085 -0.246187 -0.267389 0.429699 0.862474
-0.0559281 0.463899 0.210489 -0.244412 0.507651 0.826168
0.229363 0.429216 0.114284 0.957455 0.0561473 0.283066
-0.294013 0.268564 0.24917 -0.259045 0.488469 0.833243
-0.333677 0.230151 0.260042 -0.268748 0.531986 0.802973
0.116227 0.617664 0.116137 0.219822 0.820418 -0.527818
-0.113474 -0.191273 -0.0476869 0.238703 -0.412653 -0.879055
0.0115631 0.267977 0.347241 -0.266641 0.500178 0.823847
-0.0500231 -0.0193713 0.0475225 -0.258978 0.491537 0.831458
0.112761 0.218541 -0.0462693 -0.254034 0.459989 0.850809
0.387739 0.157688 -0.397976 0.971564 0.00760436 0.236654
-0.325145 -0.221761 0.199568 -0.960446 -0.020771 -0.277692
0.0192138 0.5284 -0.0818388 0.15821 0.864419 -0.477231
0.301987 0.145937 -0.350205 -0.944444 0.240981 0.223501
0.122768 -0.412429 0.337684 -0.0753227 -0.87704 0.474475
-0.0310427 -0.130254 -0.433928 0.25818 -0.491575 -0.831683
0.038721 -0.306406 0.0633451 0.111393 0.881012 -0.459793
-0.0378847 0.239744 -0.302303 -0.277284 0.568104 0.774836
-0.119695 -0.037433 -0.479461 -0.950765 0.0761533 -0.30041
-0.150162 -0.0768368 0.122498 -0.197461 0.450998 0.870408
0.0145786 -0.374734 0.0197446 0.916917 -0.231553 -0.325033
-0.0166677 0.490211 0.0434159 0.979064 -0.203205 -0.0119032
-0.248357 -0.510175 0.0477106 -0.151952 -0.863339 0.481203
-0.217813 -0.196983 -0.150518 -0.957421 -0.0238054 -0.287711
-0.144505 -0.580623 -0.127458 -0.252148 0.506424 0.824595
0.0386593 -0.151602 -0.299896 -0.277237 0.449633 0.8491
0.0857433 -0.155702 0.594046 0.955796 0.00766339 0.29393
-0.0659423 0.223078 0.34772 -0.235426 0.516385 0.82336
0.228423 0.0210266 -0.34127 -0.305869 0.508412 0.804961
0.327836 -0.0707423 -0.358095 0.26052 -0.473066 -0.841628
0.381504 0.172865 -0.379661 0.956817 0.0388494 0.288084
0.27164 -0.491744 -0.126507 0.254807 -0.52631 -0.811216
-0.399446 -0.246756 0.447693 -0.962866 -0.0330229 -0.267952
0.0550012 -0.148164 0.0545135 0.231571 -0.586619 -0.77605
0.190008 0.387416 -0.290798 0.107504 0.880229 -0.462212
-0.145886 0.346787 -0.403882 -0.955251 0.00218377 -0.295787
-0.185161 -0.151214 0.157717 -0.272354 0.492609 0.826535
-0.170227 0.449484 -0.180595 0.95347 -0.0413472 0.29864
-0.191062 -0.499695 -0.0873686 0.9522 0.00157319 0.305471
-0.0468155 0.0952037 -0.571244 0.269796 -0.510481 -0.816468
-0.287431 0.218333 0.064625 -0.959686 -0.0148734 -0.28068
0.0141161 0.524937 0.0909958 0.716448 -0.40911 -0.565095
0.330322 -0.272694 -0.20108 0.959276 0.00594137 0.282409
0.0882368 0.31625 -0.00618748 -0.169121 -0.863959 0.474313
0.0604512 0.344949 -0.403324 0.174156 0.856892 -0.485186
-0.0467791 -0.345227 -0.177681 -0.96324 -0.00810717 -0.268522
0.171051 -0.46573 -0.176004 0.255502 -0.465568 -0.847328
-0.260524 -0.20773 -0.0146409 -0.963618 -0.018366 -0.266651
0.159795 -0.395531 -0.118246 -0.198009 0.391982 0.898411
-0.0404617 -0.266953 -0.198866 -0.959427 0.0218262 -0.281112
-0.0216317 0.356253 -0.276909 -0.953411 0.0163942 -0.301228
-0.104321 -0.36807 0.351188 -0.157376 -0.858368 0.4883
-0.34159 0.237834 0.242249 -0.954389 0.0261199 -0.29742
-0.115972 -0.0316814 0.179217 0.972808 -0.0431738 0.227554
-0.0859648 0.283614 0.306014 -0.233002 0.415455 0.879265
0.0583484 -0.234714 -0.343569 0.257856 -0.46902 -0.844707
0.217125 0.0957065 0.0607705 -0.262524 0.476293 0.839182
0.0884736 0.216328 0.399805 -0.246793 0.467698 0.848735
-0.193573 -0.286936 0.471321 -0.173068 -0.813577 0.555104
0.23503 -0.185086 -0.218251 -0.259682 0.51061 0.81966
0.232853 0.414944 0.0963798 0.926421 -0.0484862 0.373354
0.185781 -0.359991 0.0482354 -0.68117 -0.223557 -0.697159
-0.0902732 0.228931 0.336199 -0.337207 0.56291 0.754602
0.0654935 0.330333 -0.432257 0.0699223 0.904755 -0.420153
-0.241136 -0.555541 -0.0687203 -0.959358 -0.00725507 -0.282099
-0.140611 0.00346434 0.355164 0.232819 -0.431931 -0.871339
-0.213129 0.494794 -0.188572 -0.940574 0.0212746 -0.338923
0.0568914 -0.301494 -0.306334 0.248426 -0.428955 -0.868494
0.117483 -0.343508 0.462686 -0.0654518 -0.888531 0.454124
-0.35465 -0.0870444 0.288244 -0.956386 -0.0102059 -0.291926
0.0385163 0.33119 -0.436292 0.0912248 0.894548 -0.437563
-0.0151103 -0.520168 0.0652067 0.978129 -0.190297 -0.0839664
0.206135 0.179363 0.0097381 -0.274291 0.526932 0.80443
0.254608 0.0890951 -0.379999 -0.603483 0.47273 0.642133
-0.0436524 -0.191486 -0.046594 0.958068 0.0140909 0.286195
0.0319092 0.518182 0.114005 0.528088 -0.458202 -0.714964
-0.0725003 -0.206586 0.599868 -0.261594 0.518467 0.814101
-0.28633 0.371548 0.0578923 -0.961577 -0.0518306 -0.269598
-0.244799 0.191899 -0.0668289 -0.956675 -0.00938416 -0.291008
-0.152434 -0.44951 0.186536 -0.125949 -0.892924 0.432231
-0.0130105 0.329914 -0.0181087 -0.139682 -0.866735 0.47881
-0.0897541 0.0320584 0.455826 -0.225763 0.441831 0.868226
-0.20798 0.306661 -0.170276 0.361162 0.0176217 -0.932337
0.196552 0.0528285 0.0801158 -0.25745 0.486929 0.834637
0.1447 -0.250436 0.14348 0.260689 -0.467974 -0.844418
-0.25603 0.168013 0.322452 -0.250213 0.482796 0.839227
0.152408 -0.379332 -0.130951 -0.245172 0.475623 0.844792
-0.0894266 0.394716 0.139755 0.253795 -0.483217 -0.837908
-0.086294 0.192714 0.0823542 0.966865 0.0717838 0.244988
-0.0618087 0.184113 -0.269899 -0.0778361 0.996527 0.029589
0.220584 0.127249 -0.0574122 0.237774 -0.486316 -0.84081
0.0405318 0.502256 -0.118548 0.17959 0.837859 -0.5155
0.110048 0.160996 0.340552 0.255541 -0.482302 -0.837905
0.124274 -0.0584003 0.0225691 0.24138 -0.574469 -0.782126
0.0246571 0.0960956 0.450396 -0.241623 0.482385 0.841975
-0.190668 -0.210046 0.283574 -0.980276 -0.0121761 -0.197256
-0.238216 -0.554144 -0.0335257 -0.135239 -0.872213 0.470058
0.0374804 0.359981 -0.384348 0.134894 0.872323 -0.469954
-0.162397 -0.064452 -0.334096 -0.954982 -0.00130079 -0.296661
0.046089 0.452533 0.162619 0.309944 -0.455227 -0.834688
-0.0789507 -0.0274245 0.493258 -0.325238 0.537936 0.777718
0.198892 0.517078 -0.0275803 -0.926132 0.292607 0.238036
-0.172897 0.456702 -0.172276 0.964309 0.0278056 0.263317
-0.239721 -0.0839176 -0.0813421 -0.949051 0.0473261 -0.311548
0.308827 -0.181184 -0.297624 0.253986 -0.507955 -0.823088
0.0564454 0.437073 -0.237676 0.113188 0.878206 -0.464696
-0.237906 -0.00419611 0.354305 0.277388 -0.523206 -0.805799
-0.126942 0.207737 -0.133043 0.251404 0.506724 -0.824637
-0.284003 -0.369473 0.0689734 -0.936808 -0.00552857 -0.349801
0.0722845 -0.588328 -0.129079 0.258346 -0.488475 -0.833456
-0.0276388 -0.568519 -0.173711 0.246796 -0.436324 -0.865282
0.0474009 0.35193 -0.396191 0.159745 0.857879 -0.48839
-0.191822 -0.152971 -0.242199 -0.955056 -0.00469619 -0.296389
-0.0697889 0.223934 -0.123067 -0.963815 -0.00272596 -0.266559
-0.140447 0.183015 -0.210546 -0.00968026 0.999947 0.00337573
0.0304218 0.415385 -0.285429 0.0541898 0.900601 -0.431255
0.101944 0.641083 0.152219 -0.262939 0.518869 0.813411
0.20603 0.0493151 -0.365749 -0.294233 0.550635 0.781171
-0.282867 0.203958 0.0444698 -0.950111 0.00263974 -0.3119
-0.05466 -0.218182 0.612493 -0.220473 0.454191 0.863193
-0.0574117 -0.467626 0.178883 -0.13091 -0.875969 0.464264
0.263603 0.166522 0.00856345 0.953368 -0.000945458 0.301808
0.35709 0.316567 -0.315329 0.963261 0.0219722 0.267668
0.0922432 -0.183238 0.570433 0.932456 -0.00557898 0.361241
0.240598 -0.394015 -0.194299 0.269318 -0.549652 -0.790791
0.239919 0.331438 0.0635597 -0.142579 -0.868216 0.47526
-0.0715917 0.269154 -0.585648 0.176314 0.864208 -0.47123
0.172671 -0.276413 0.309801 0.940922 -0.0815372 0.328661
0.169221 0.373423 -0.323897 0.116801 0.877245 -0.465616
0.108823 0.0823792 -0.51573 0.26174 -0.497998 -0.826735
-0.105788 0.353908 0.133841 0.96763 0.0728683 0.241626
-0.127832 -0.348943 0.379062 -0.126646 -0.886821 0.44442
0.170683 -0.0611599 -0.30996 -0.259516 0.433179 0.863138
-0.309963 0.423486 0.154882 -0.261075 0.44996 0.854035
0.261628 -0.463373 -0.145531 0.255536 -0.513517 -0.819147
-0.125794 -0.0238218 0.376393 0.251417 -0.516575 -0.818499
0.0388329 0.029191 -0.0551087 0.254641 -0.528726 -0.809696
0.287444 0.193599 -0.526807 0.228739 -0.453932 -0.861176
0.0536666 0.0224497 -0.368407 0.964354 0.0233427 0.263584
-0.200252 -0.213819 -0.212147 -0.964177 -0.00984123 -0.265078
0.410474 0.219369 -0.503114 0.280371 -0.527993 -0.801633
0.277603 -0.456568 -0.0308031 0.959951 0.0162803 0.279696
0.125325 0.0799868 0.459602 0.963692 0.0601183 0.26016
-0.274255 -0.19416 0.176103 0.956818 0.0216682 0.28988
0.144138 -0.137896 0.408437 0.135318 0.873106 -0.468374
0.326304 0.305139 -0.378848 -0.978432 0.0597545 -0.197737
-0.044724 0.0305379 0.36793 0.255804 -0.468655 -0.845534
-0.228956 0.0388132 -0.120567 -0.94643 0.0429614 -0.32004
-0.0384806 -0.32934 -0.107777 -0.925513 0.00492488 -0.378684
-0.0953719 0.197567 -0.563004 -0.959698 -0.0144968 -0.28066
-0.00205312 -0.242833 0.303587 -0.141049 0.384706 0.912199
-0.211294 -0.337125 0.365425 -0.967514 -0.0125905 -0.252503
-0.291104 -0.155666 0.237338 0.955927 -0.0256707 0.292481
0.0172446 -0.108262 -0.251819 0.962391 0.0224048 0.270744
-0.0855402 -0.164137 0.119179 -0.250257 0.511931 0.821765
0.189091 0.452349 0.235142 0.956075 0.00719527 0.293035
0.303186 0.411471 -0.130181 0.962024 0.0281487 0.27151
0.182909 0.465319 0.253587 0.967761 0.0472458 0.2474
-0.195107 -0.429597 0.0673667 0.298436 -0.524413 -0.79745
0.172658 0.314792 0.0163993 -0.126986 -0.872547 0.471738
-0.237949 -0.0949658 0.483453 -0.254118 0.482694 0.838111
-0.030128 0.258514 0.240378 0.269273 -0.524201 -0.807902
0.189134 -0.323935 0.0728992 0.133556 0.8732 -0.468705
0.149238 0.201956 -0.439045 0.553456 0.33449 0.76276
-0.0408917 -0.25823 -0.196112 -0.297345 -0.250116 0.921427
-0.25009 0.0303425 -0.0503911 -0.952751 -5.58447e-05 -0.303751
0.0215468 0.562181 0.0751334 0.691045 -0.455218 -0.561457
-0.241769 -0.010834 0.104997 -0.223172 -0.538699 0.812402
-0.137316 0.258929 -0.281874 0.954766 0.00751341 0.297264
-0.136972 0.0605603 -0.421045 -0.972125 -0.0106254 -0.234221
-0.103542 0.25317 0.320485 -0.259975 0.494523 0.829373
-0.168177 0.463736 -0.184364 0.955694 -0.000121503 0.29436
-0.175219 0.0191005 0.230129 -0.943544 0.026844 -0.330159
0.272544 0.149961 -0.0238699 0.957665 0.00794424 0.287774
-0.133188 -0.299552 0.421104 0.946607 0.0117282 0.322178
-0.0586496 -0.496838 -0.138229 -0.959565 -0.0643433 -0.274036
0.151304 -0.521094 0.142544 -0.599506 -0.306147 -0.739504
0.0669017 -0.483696 -0.0848485 0.411904 0.421007 0.808139
0.189125 -0.56691 0.0374797 -0.943397 0.255917 0.210971
0.0233085 -0.61818 -0.0730139 -0.131363 -0.87208 0.471403
