ply
format ascii 1.0
comment Created by Open3D
element vertex 128
property double x
property double y
property double z
property double nx
property double ny
property double nz
end_header
-0.330387 -0.0498165 -0.15514 0.160976 0.732591 -0.66136
0.316886 -0.153063 -0.063472 -0.107764 -0.749255 0.653455
-0.195741 0.175073 0.14567 -0.291298 -0.684177 0.668616
0.37314 0.119477 0.231828 0.991195 -0.110325 0.0732194
0.220578 -0.0888885 -0.0424667 0.0266085 0.750952 -0.65982
-0.115014 0.204925 0.178886 0.237958 0.683509 -0.690067
-0.378727 0.261907 0.174113 0.0403945 0.688918 0.723713
-0.141042 0.156632 0.119389 0.219312 0.689571 -0.690213
0.175269 -0.137437 -0.114588 0.0966336 0.777942 -0.620861
-0.470667 0.194506 0.0669423 0.0979446 0.771783 -0.628297
-0.252972 -0.012957 -0.0945545 0.0525604 0.77665 -0.627736
-0.448386 -0.127997 -0.268251 -0.0840206 -0.598508 -0.796698
-0.106032 -0.189616 -0.223499 -0.0158818 -0.87469 0.484423
0.0243669 -0.0627304 -0.0523623 -0.184307 -0.721327 0.667621
0.159639 0.160929 0.231968 -0.242326 -0.64606 0.723798
0.295393 0.15261 0.248821 0.973043 -0.182338 0.141208
0.334705 -0.249315 -0.184065 0.0770549 -0.675272 -0.733532
0.137994 -0.074941 -0.0530511 0.268536 0.665272 -0.696636
0.0893921 -0.128166 -0.104143 -0.245259 -0.712146 0.657797
0.492383 -0.0209877 0.123523 0.970937 -0.180253 0.157452
-0.184575 0.0501165 0.0146672 -0.124874 -0.755795 0.642791
-0.266842 -0.026047 -0.111069 0.224667 0.713633 -0.663516
-0.0559839 -0.0570335 -0.0700879 -0.0650333 -0.808426 0.584994
-0.387122 0.247884 0.150934 0.0604923 0.743224 -0.666303
0.150251 0.0277961 0.0578154 0.070613 0.765764 -0.639233
0.234256 0.145509 0.213148 0.119575 0.779207 -0.615255
-0.491385 0.138128 0.0182232 -0.99483 0.101358 -0.00624842
-0.394447 0.13258 0.0258931 0.178209 0.725238 -0.665035
-0.362112 -0.138255 -0.2604 0.140912 0.78296 -0.605903
-0.493786 -0.0629312 -0.193333 -0.213008 -0.703044 0.678496
-0.188743 -0.0855472 -0.153635 0.15971 0.778325 -0.60721
-0.0114745 -0.192874 -0.224237 0.150856 0.745107 -0.64966
0.0946979 -0.00191066 0.0111411 0.264564 0.701349 -0.661904
-0.139651 0.218886 0.182288 0.270386 0.649312 -0.710834
-0.383103 0.182395 0.0821875 0.126753 0.737104 -0.663785
-0.199909 -0.168977 -0.24185 -0.0232891 -0.670741 -0.741326
-0.244423 0.143303 0.0766901 0.120035 0.761154 -0.637367
-0.368142 0.00552896 -0.0947699 -0.968101 0.177317 -0.177026
0.386236 0.104947 0.22509 -0.194931 -0.7155 0.670866
-0.211675 -0.169687 -0.237973 -0.997385 0.0413079 -0.0593068
-0.312673 0.235952 0.155311 0.197233 0.717214 -0.668359
-0.463786 -0.129193 -0.270819 -0.0167367 -0.650367 -0.759435
0.0379866 0.03995 0.0673076 -0.225659 -0.704386 0.672992
-0.0859915 -0.142958 -0.16798 -0.0633813 -0.732017 0.678331
-0.124777 -0.0549453 -0.0982054 0.154849 0.732778 -0.662615
0.411871 -0.26335 -0.164578 -0.256589 -0.660234 0.705871
0.0282334 0.11773 0.127305 0.28354 0.634708 -0.718854
0.482248 -0.142622 -0.0353699 0.234111 0.677818 -0.696961
0.468657 -0.225735 -0.124197 0.317952 0.640486 -0.69906
-0.486163 -0.0795456 -0.211748 -0.167719 -0.729354 0.663259
-0.167424 -0.0149463 -0.0510899 -0.183833 -0.721536 0.667526
0.492455 0.0636518 0.19201 0.217963 0.703413 -0.676537
0.0459206 -0.169832 -0.174765 0.145653 0.762924 -0.629867
-0.386394 0.123971 0.0196468 0.205088 0.718286 -0.664834
-0.0496657 -0.0551011 -0.0839052 0.1664 0.729954 -0.662932
0.429836 -0.0296139 0.0734662 0.158868 0.740189 -0.653361
0.354662 -0.0648221 0.039647 -0.207531 -0.70517 0.677987
-0.27634 -0.106583 -0.181307 -0.146383 -0.741317 0.654997
0.300897 0.0933068 0.193541 -0.242108 -0.702831 0.668889
-0.485374 0.00783901 -0.116647 -0.158993 -0.747358 0.645117
0.0944918 0.162572 0.193427 0.0866052 0.792106 -0.604208
0.491097 0.0575715 0.206595 -0.05725 -0.774149 0.63041
-0.397701 0.194036 0.0910327 0.245301 0.685772 -0.685233
-0.306613 0.030774 -0.0420205 -0.172952 -0.726476 0.665071
-0.45486 0.0773782 -0.0493851 0.176722 0.736908 -0.652485
0.412032 -0.152712 -0.0593668 0.249048 0.693868 -0.675664
-0.256498 0.0732066 -0.00347814 0.146064 0.752348 -0.642369
-0.315419 0.032899 -0.0589124 0.23641 0.642749 -0.728686
0.000957483 -0.108869 -0.109802 -0.0934908 -0.783527 0.614284
-0.386732 0.062148 -0.026386 -0.0854182 -0.850909 0.518321
0.312625 -0.00521732 0.069691 0.208116 0.701871 -0.681223
0.0497373 0.104291 0.135763 -0.136657 -0.728096 0.671715
0.357429 -0.216376 -0.118408 -0.131845 -0.749527 0.648711
-0.0952216 0.00240527 -0.0322468 0.0905478 0.749678 -0.655579
0.153667 0.109973 0.170757 -0.192743 -0.674783 0.712402
-0.0850504 -0.183041 -0.231194 -0.0822505 -0.690548 -0.718594
0.17628 -0.0411343 0.0136679 -0.214993 -0.644076 0.734128
0.100262 0.0737613 0.098552 0.126391 0.74069 -0.659851
-0.240008 0.231085 0.190644 0.995882 -0.0759062 0.0495733
0.440641 0.0282057 0.146192 0.0501436 0.857926 -0.51132
-0.0427891 0.165701 0.177551 -0.317816 -0.686488 0.654009
-0.415785 -0.0358896 -0.138427 -0.0300717 -0.791954 0.60984
0.257736 -0.157641 -0.10571 0.225349 0.648318 -0.727257
-0.099755 0.0698754 0.0321649 0.107529 0.734652 -0.669869
0.312245 -0.0854876 -0.0180943 0.152157 0.764944 -0.625866
0.15086 0.11464 0.159937 0.253952 0.677387 -0.690402
0.299678 -0.0739936 -0.009486 0.302064 0.684664 -0.663319
0.445146 0.132023 0.260772 0.206087 0.715023 -0.668034
0.215921 -0.203501 -0.161141 0.204943 0.680579 -0.703428
-0.00548723 0.00856469 -0.00766851 0.17319 0.726992 -0.664446
0.493424 -0.0897576 0.0375195 0.986834 -0.140189 0.0806601
0.409593 -0.101682 0.00222702 0.287721 0.67638 -0.678031
0.230049 0.0965298 0.159709 0.149676 0.744451 -0.650684
0.327936 0.0865143 0.176972 0.199612 0.713189 -0.67195
0.0544995 -0.0685441 -0.0447756 0.0911468 -0.789809 0.606542
0.125257 -0.192385 -0.185228 0.00558123 0.786637 -0.617391
0.0927194 -0.0206915 0.0114861 -0.182001 -0.737869 0.649942
-0.45524 0.229165 0.13011 -0.208201 -0.707008 0.675864
-0.173322 0.107037 0.0797067 -0.140333 -0.755738 0.639661
0.178251 0.0312114 0.0644031 0.0830918 0.766026 -0.637417
0.254021 0.0381974 0.125822 -0.076771 -0.814849 0.574568
-0.0589395 0.130492 0.112415 0.262564 0.700828 -0.663249
-0.258626 0.146774 0.0991038 -0.110305 -0.745194 0.657661
0.242608 -0.0398885 0.0322066 -0.203769 -0.707364 0.676842
-0.337529 -0.0544444 -0.138553 -0.203375 -0.714878 0.66902
-0.493268 0.00397157 -0.123917 -0.248482 -0.679541 0.690276
0.0272957 0.176362 0.190025 0.185021 0.720984 -0.667794
-0.279158 -0.146305 -0.24158 0.314739 0.607517 -0.729289
-0.404847 -0.101904 -0.214793 -0.1473 -0.732703 0.664416
0.464216 0.130261 0.261562 0.252841 0.687182 -0.681067
-0.308145 0.10384 0.0382812 -0.10291 -0.775147 0.623343
0.173291 -0.152402 -0.105665 -0.173514 -0.724664 0.6669
0.0855672 -0.128424 -0.123708 0.239372 0.70906 -0.663276
-0.0250193 0.0636685 0.0586287 0.234664 0.636896 -0.734368
0.336127 -0.194702 -0.127093 0.208551 0.635895 -0.743064
-0.489026 0.138195 0.0194264 -0.251548 -0.671811 0.696702
-0.00708669 -0.19232 -0.220128 0.116468 0.764656 -0.633827
-0.159377 -0.140523 -0.184881 -0.209947 -0.710881 0.671245
-0.318095 0.18694 0.121311 -0.146514 -0.728719 0.668956
0.415883 -0.160112 -0.0723013 0.250887 0.703795 -0.664627
-0.470555 0.0662179 -0.0481124 -0.164237 -0.725153 0.668714
0.388029 0.0483289 0.168488 -0.192756 -0.708578 0.678795
-0.106984 0.0808288 0.0506015 0.215159 0.699361 -0.681616
-0.414146 -0.0479195 -0.158257 -0.122683 -0.737283 0.664351
0.332329 -0.141449 -0.0708705 0.226295 0.696608 -0.680829
0.475186 -0.216329 -0.0922383 -0.153496 -0.740364 0.654447
-0.0154451 -0.124283 -0.150076 0.0497236 0.780633 -0.623008
0.369449 0.0108456 0.110438 0.983433 -0.147114 0.105905
