ply
format ascii 1.0
comment Created by Open3D
element vertex 512
property double x
property double y
property double z
property double nx
property double ny
property double nz
end_header
0.0886902 0.270614 -0.115392 -0.0763249 0.812125 -0.57847
0.167199 0.158838 -0.223075 0.433413 0.63821 -0.636271
-0.24658 -0.319435 0.181855 -0.0750993 -0.990498 0.115209
-0.177807 -0.265394 0.313612 0.212087 -0.831338 0.513708
-0.283476 -0.193369 -0.357845 -0.827617 -0.0658149 -0.557421
-0.146616 0.234474 0.0872268 -0.452388 0.870219 -0.195099
0.263019 0.110613 -0.161086 0.789863 0.315158 -0.52611
-0.00166262 -0.223736 -0.485371 0.143323 -0.287335 -0.947047
0.169054 -0.272993 -0.3058 0.776896 -0.60267 -0.182269
0.0457521 -0.0388403 0.345862 0.644426 -0.217082 0.733206
0.0246724 0.298442 -0.012412 -0.378257 0.922548 -0.0763372
0.130591 -0.212629 0.00134893 0.544182 -0.755761 0.364269
-0.148051 0.0560302 -0.300166 -0.544182 0.755761 -0.364269
0.0209531 -0.071072 -0.482257 0.158151 0.29188 -0.943289
0.0290539 -0.237398 0.0981209 0.496793 -0.823834 0.272935
-0.327342 -0.149961 -0.251348 -0.969005 0.0915076 -0.229466
0.202949 -0.126984 0.0709447 0.544182 -0.755761 0.364269
-0.126384 0.0304389 0.447516 0.206756 0.218623 0.953654
-0.0836634 -0.277567 0.182052 0.496592 -0.824077 0.272567
-0.286859 -0.0511537 -0.274877 -0.808188 0.498844 -0.313029
0.146259 -0.18154 0.0424449 0.544182 -0.755761 0.364269
-0.134308 -0.159317 -0.480002 -0.371806 0.0302946 -0.927816
-0.194673 0.15011 0.385399 -0.101264 0.713619 0.693176
-0.323923 -0.112676 -0.127442 -0.96456 0.191696 0.18132
0.0194983 0.0437158 -0.413031 0.0743657 0.706068 -0.704228
0.228883 -0.146173 -0.292457 0.959155 -0.165359 -0.229517
-0.203409 -0.332417 -0.361849 -0.508037 -0.684037 -0.523442
0.133546 -0.0195297 -0.411299 0.591241 0.42039 -0.688264
0.293344 0.270861 0.0855922 0.316618 0.645431 0.695106
0.119264 0.192302 -0.211134 0.2089 0.745131 -0.633357
0.116428 -0.323943 -0.217741 0.59984 -0.774691 0.200115
0.148478 0.0148249 0.270245 0.63478 -0.122418 0.762934
0.0221498 -0.165953 0.260172 0.552768 -0.74058 0.382085
0.253642 0.260428 -0.058369 0.556104 0.55463 -0.618977
-0.0313683 -0.077282 -0.487635 -0.0350815 0.316638 -0.947898
-0.189526 0.13293 -0.0782717 -0.552687 0.740729 -0.381914
-0.0421392 0.237765 -0.0813375 -0.544182 0.755761 -0.364269
-0.11111 0.196783 0.318194 0.112136 0.845972 0.521304
0.0834712 -0.217595 -0.458424 0.468567 -0.321346 -0.822911
-0.00727972 -0.00910208 -0.456608 -0.0104955 0.531173 -0.847199
-0.00338116 -0.11626 0.353519 0.634871 -0.484489 0.601839
-0.0734805 -0.178777 -0.494958 -0.130217 -0.0570238 -0.989844
0.146488 0.0544079 -0.339221 0.526531 0.576844 -0.624513
0.238096 -0.0380382 -0.273173 0.899717 0.118921 -0.419961
0.0670729 0.0626618 -0.380431 0.255307 0.727276 -0.637093
-0.238017 -0.0144498 0.456111 -0.167238 0.0906701 0.981738
0.198698 0.00895954 -0.317732 0.761755 0.352438 -0.543614
-0.365216 -0.0239292 0.397106 -0.640444 0.102838 0.761088
0.250555 0.156843 -0.146868 0.699936 0.424276 -0.574526
-0.246387 0.151479 0.368604 -0.291002 0.724364 0.624991
-0.0187289 0.192753 -0.193071 -0.354768 0.806958 -0.472184
0.199908 -0.101681 0.127583 0.552768 -0.74058 0.382085
-0.325113 0.0674556 -0.00297666 -0.59662 0.640884 -0.483024
-0.0590856 0.0493866 -0.397186 -0.265818 0.745884 -0.610735
0.14242 0.134326 -0.264164 0.39022 0.662986 -0.638888
-0.279934 0.188797 0.246514 -0.462061 0.883232 0.0800041
-0.229596 -0.0691039 0.455524 -0.11851 -0.124334 0.985138
0.217333 -0.206874 -0.225166 0.885684 -0.463831 0.0206121
0.204011 0.0378633 0.227736 0.63478 -0.122418 0.762934
-0.27547 -0.12014 0.43401 -0.245177 -0.307311 0.919482
-0.153301 -0.314771 0.111244 0.236137 -0.969913 -0.0592281
0.0995431 -0.277016 -0.085853 0.544182 -0.755761 0.364269
-0.0927259 -0.36784 -0.0762542 0.0526682 -0.883965 0.464577
0.249627 0.0209063 -0.229473 0.862147 0.198996 -0.465944
-0.212616 0.193587 0.0820399 -0.535257 0.770472 -0.346226
-0.215841 0.209121 0.13466 -0.45239 0.870217 -0.195102
-0.381752 0.0410911 0.0380992 -0.702669 0.550403 -0.450902
0.173997 -0.273115 -0.230924 0.756435 -0.649405 0.077969
-0.0220031 -0.269769 0.0693796 0.380207 -0.921514 0.0790897
0.271194 0.114574 0.176322 0.586889 0.105536 0.80276
-0.271394 -0.269955 -0.34082 -0.784468 -0.402401 -0.471893
-0.122165 0.224871 0.260401 -0.0487389 0.934191 0.353428
0.145086 -0.150207 0.109205 0.544182 -0.755761 0.364269
-0.173093 -0.383826 -0.292385 -0.365595 -0.896938 -0.248682
-0.0723592 0.171262 -0.174167 -0.544182 0.755761 -0.364269
0.060591 -0.179543 0.174567 0.544182 -0.755761 0.364269
-0.0182113 -0.177234 -0.496925 0.0706082 -0.101065 -0.992371
-0.209683 0.169635 0.0276053 -0.544182 0.755761 -0.364269
0.168311 0.0848972 0.255382 0.583322 0.117447 0.803705
-0.296132 -0.179951 0.397536 -0.314578 -0.540041 0.780639
-0.320494 0.12995 0.110809 -0.54418 0.755762 -0.364269
0.104878 -0.324046 -0.340471 0.582301 -0.757434 -0.295329
0.309839 0.000217877 -0.0550907 0.954851 -0.244393 -0.168911
-0.147431 -0.33698 -0.397133 -0.311763 -0.720299 -0.619656
0.00819233 0.113023 0.350344 0.45196 0.437845 0.77719
-0.00941986 -0.0333201 0.393847 0.621417 -0.126986 0.77312
0.00669111 0.291371 0.0688512 -0.236832 0.963597 0.124061
-0.112923 -0.234786 0.315881 0.455721 -0.767233 0.451299
0.0393856 0.178043 0.287324 0.323533 0.636412 0.700218
0.258114 -0.0307121 -0.224874 0.928347 0.0376589 -0.369803
0.0935628 0.312831 -0.0563735 -0.123891 0.816343 -0.564123
0.354961 0.206084 0.046405 0.895542 0.129084 -0.425842
0.277087 -0.0727886 0.0258044 0.795149 -0.588349 0.146914
-0.41654 0.0465716 0.116434 -0.783065 0.557901 -0.274874
-0.128719 -0.299605 0.0446088 0.1779 -0.963527 -0.19992
0.113126 -0.0066495 0.295809 0.640399 -0.169962 0.749001
0.026838 -0.292816 -0.442238 0.307758 -0.59044 -0.7461
0.0503945 0.306396 0.0355866 -0.236832 0.963597 0.124061
-0.0430836 -0.172896 0.336648 0.55118 -0.689642 0.469674
0.092029 0.30738 0.0687203 -0.112691 0.953527 0.27944
0.10398 0.289471 0.117058 0.0158104 0.905608 0.42382
-0.0712226 0.241946 0.222294 -0.0487389 0.934191 0.353428
0.294802 -0.00882127 -0.115594 0.95835 -0.135175 -0.25158
-0.428108 -0.170179 0.0687547 -0.871993 -0.343533 -0.348731
-0.174663 -0.310593 0.0605878 0.101426 -0.95876 -0.265503
0.150325 -0.25534 -0.117067 0.563705 -0.747667 0.351042
0.200998 -0.155593 0.0140091 0.563705 -0.747667 0.351042
-0.199778 -0.00348157 -0.3456 -0.55299 0.7405 -0.38192
-0.378072 0.116687 0.238596 -0.712921 0.697749 0.0699366
0.216915 0.215692 0.16868 0.384411 0.551281 0.740485
-0.252943 -0.121261 -0.388933 -0.735463 0.239076 -0.633985
-0.000138273 0.16714 0.315495 0.323533 0.636412 0.700218
-0.175576 -0.23779 0.352677 0.207584 -0.759252 0.616802
-0.122511 -0.154005 0.411121 0.330909 -0.531812 0.779535
-0.336632 0.0127838 0.411115 -0.565558 0.235787 0.790284
0.269913 0.202903 0.147509 0.45196 0.437845 0.77719
-0.123603 -0.405779 -0.231178 -0.127409 -0.99185 -0.00057393
-0.128828 0.116736 -0.202935 -0.544182 0.755761 -0.364269
-0.278548 -0.0572705 0.446137 -0.284112 -0.0700888 0.956226
0.208106 0.0581853 -0.271425 0.708095 0.415588 -0.570867
0.213417 -0.179179 -0.0707199 0.706308 -0.666666 0.238088
0.142938 0.335775 -0.0176918 -0.206491 0.964672 0.163612
-0.286927 0.122416 0.0450337 -0.544182 0.755761 -0.364269
-0.46347 -0.109785 0.195312 -0.991872 -0.120406 0.0411417
-0.207582 -0.375211 -0.256568 -0.473899 -0.867243 -0.152673
0.0667868 0.255003 0.185447 0.112136 0.845972 0.521304
-0.250576 -0.338975 -0.144221 -0.634592 -0.740993 0.219596
-0.300161 -0.0195032 -0.0904546 -0.644835 0.223227 -0.730997
-0.0700249 -0.328137 -0.427326 -0.0225822 -0.690932 -0.722567
0.207327 0.165026 0.204471 0.480074 0.383488 0.788966
0.31301 0.0791611 -0.0758294 0.931321 0.0275333 -0.363158
-0.448654 -0.0662042 0.280493 -0.942185 -0.00308192 0.335079
0.105727 0.321119 0.021492 -0.175636 0.963349 0.202756
0.0763042 0.0191232 0.329081 0.618825 -0.0265343 0.785081
-0.137112 0.238633 0.201627 -0.206491 0.964672 0.163613
-0.339435 -0.252391 0.0217844 -0.547739 -0.689053 -0.474539
-0.342148 0.145705 0.191186 -0.610199 0.777658 -0.151346
0.296469 0.0651282 0.155184 0.63478 -0.122418 0.762934
0.157166 0.304585 -0.0658053 0.161974 0.761132 -0.628046
0.373768 0.178149 0.0901248 0.949553 -0.0540856 -0.308907
-0.291093 0.035334 -0.0724934 -0.640065 0.445835 -0.625738
-0.18158 -0.38868 -0.18604 -0.33748 -0.934783 0.11085
-0.331429 -0.202968 -0.179413 -0.984093 -0.170169 0.0510255
-0.188506 -0.0492048 -0.411801 -0.565679 0.513245 -0.645435
-0.243173 0.10818 -0.0478545 -0.568673 0.709316 -0.416511
-0.163757 -0.131153 0.435696 0.139548 -0.412756 0.900088
-0.434826 -0.19803 0.152858 -0.881459 -0.468011 -0.0632162
0.204133 0.274643 -0.0807755 0.379302 0.669007 -0.639187
0.0967722 0.0132875 -0.413635 0.397302 0.573391 -0.716501
-0.401182 -0.0675018 -0.00409418 -0.791452 0.0854774 -0.605225
0.158426 -0.227815 -0.388321 0.746828 -0.405929 -0.526753
-0.0311442 -0.262098 0.133008 0.475676 -0.847605 0.235156
-0.109307 -0.305622 -0.439853 -0.215566 -0.594519 -0.774647
-0.284463 -0.00826236 -0.158894 -0.84351 0.53023 -0.0857173
0.327293 0.0223959 0.0207736 0.941099 -0.320917 -0.10651
0.272583 -0.0920631 -0.0402231 0.866226 -0.496891 0.0524615
-0.398524 -0.247359 0.147467 -0.725357 -0.685302 -0.0649571
0.217524 -0.191235 -0.292193 0.91893 -0.336966 -0.204991
-0.240146 -0.343309 -0.289829 -0.644646 -0.719887 -0.257283
0.0978523 0.229913 -0.16957 0.0670367 0.787422 -0.612758
-0.385031 -0.162283 -0.00827768 -0.741722 -0.307533 -0.596047
-0.144344 0.150834 -0.109011 -0.544182 0.755761 -0.364269
-0.290105 -0.302799 -0.235537 -0.819966 -0.565918 -0.0859816
-0.335219 -0.1059 0.412308 -0.504384 -0.223246 0.834121
-0.221031 0.0329305 -0.238994 -0.563706 0.747667 -0.351042
-0.130966 -0.351441 -0.0516002 -0.134002 -0.820815 0.555254
-0.107285 0.0907382 0.421201 0.226156 0.44803 0.864941
0.327819 0.0579659 -0.0257048 0.95835 -0.135175 -0.25158
-0.448262 -0.00710384 0.253395 -0.946158 0.261227 0.19117
0.107972 -0.128242 0.208544 0.568905 -0.708846 0.416995
0.0024702 -0.228725 0.159355 0.544182 -0.755761 0.364269
-0.292055 0.112172 0.384149 -0.416683 0.602166 0.681007
-0.134748 0.181975 -0.058738 -0.544182 0.755761 -0.364269
-0.283572 0.103822 0.00144377 -0.544182 0.755761 -0.364269
0.0197948 -0.262509 0.0458701 0.356712 -0.806653 0.471241
-0.144149 0.174728 0.358017 0.052368 0.786643 0.615183
0.306511 -0.0239525 0.0446879 0.866226 -0.496891 0.0524614
-0.339954 0.0882665 0.0533991 -0.544181 0.755761 -0.364269
0.217745 -0.0569776 0.166791 0.618961 -0.565138 0.545441
0.161142 0.160572 0.234559 0.469087 0.405433 0.78459
0.34529 0.122606 0.120159 0.605718 0.0335853 0.79497
-0.094363 0.258526 0.110316 -0.324033 0.946038 0.00394983
-0.271311 0.153885 0.0869943 -0.544182 0.755761 -0.364269
-0.0893367 0.16181 0.359117 0.266067 0.705428 0.656947
-0.242206 -0.0163124 -0.305475 -0.634841 0.671975 -0.381348
0.014362 0.254038 -0.113198 -0.354768 0.806958 -0.472184
-0.0177677 -0.367799 -0.112773 0.346801 -0.861447 0.370997
0.0658253 0.130692 -0.299872 0.114649 0.775241 -0.621174
0.155204 -0.122251 0.152091 0.544182 -0.755761 0.364269
0.209831 0.267591 0.124139 0.243906 0.729571 0.638933
-0.188386 -0.315702 -0.0296718 -0.391706 -0.677526 0.622515
-0.417534 0.0451922 0.289541 -0.847875 0.435253 0.302759
0.351541 0.0733843 0.0813938 0.941099 -0.320917 -0.10651
-0.091283 0.0150423 -0.420455 -0.332475 0.674579 -0.659093
0.325992 0.0324071 0.11879 0.647667 -0.309592 0.69619
0.235745 0.229036 -0.102555 0.546355 0.562176 -0.62085
-0.0883451 -0.039352 -0.462176 -0.271789 0.475151 -0.836876
-0.0383 0.116118 0.37477 0.403533 0.521257 0.751966
-0.0867719 0.122788 0.394091 0.293275 0.578156 0.761397
-0.150155 0.0310722 -0.348805 -0.544181 0.755763 -0.364266
-0.389275 -0.227302 0.0569028 -0.735871 -0.572461 -0.361638
-0.185533 -0.0866861 0.453607 0.0423455 -0.248264 0.967766
-0.0142225 0.0681217 -0.385564 -0.0878641 0.790219 -0.606493
0.157516 -0.0661997 0.224091 0.634871 -0.484487 0.60184
-0.158179 0.236481 0.154918 -0.324033 0.946038 0.00394983
-0.101796 0.0601463 -0.354531 -0.451995 0.772231 -0.446497
-0.357939 -0.253905 0.273466 -0.519464 -0.756383 0.397545
-0.318217 -0.248748 -0.167317 -0.927497 -0.363331 0.0879825
-0.369639 -0.19785 0.335217 -0.609625 -0.557019 0.563992
-0.41289 -0.148569 0.320759 -0.793104 -0.321827 0.51712
-0.424169 -0.00569918 0.318408 -0.854994 0.238906 0.460337
-0.190274 -0.31233 0.20833 0.142149 -0.961328 0.235884
0.118138 -0.256044 -0.41245 0.616065 -0.487339 -0.618841
-0.0118015 0.0305428 0.393897 0.568579 0.165031 0.805905
0.0565331 -0.255612 -0.454297 0.378059 -0.445378 -0.81161
-0.370562 0.0839748 0.0914403 -0.604949 0.713473 -0.353543
0.00219862 -0.33389 -0.0646617 0.442365 -0.788917 0.426524
0.0163206 -0.383086 -0.302757 0.323473 -0.928701 -0.181328
-0.325784 0.144619 0.307178 -0.567345 0.748701 0.342879
-0.30205 0.167231 0.16438 -0.539117 0.804386 -0.249634
-0.27958 0.174644 0.30468 -0.431176 0.840108 0.329098
0.00760536 -0.0699479 0.36943 0.64685 -0.263664 0.715588
-0.113179 0.239776 0.0362247 -0.47493 0.848385 -0.233848
-0.0718965 -0.220008 0.288535 0.544183 -0.75576 0.364269
0.0435244 0.289498 -0.0731688 -0.264271 0.816804 -0.512827
-0.334762 -0.183444 -0.0453809 -0.563755 -0.421794 -0.71012
-0.0811225 -0.291078 0.064897 0.297211 -0.953888 -0.041985
0.25916 -0.119406 -0.14928 0.930683 -0.35807 -0.0749299
-0.0208446 -0.37849 -0.349633 0.194471 -0.899224 -0.39189
-0.0181484 0.284103 0.0264848 -0.378257 0.922548 -0.0763372
0.170729 -0.0446449 -0.388998 0.738495 0.308781 -0.599399
-0.247286 0.031199 -0.189192 -0.70489 0.667702 -0.239383
-0.0706783 -0.391911 -0.328249 0.0117957 -0.946177 -0.323434
0.22037 -0.185531 -0.118723 0.795148 -0.58835 0.146916
0.239125 -0.0885975 -0.276641 0.947749 -0.0439774 -0.315971
-0.316935 -0.163646 -0.089738 -0.936183 -0.0461875 0.348464
-0.0330086 0.277402 0.10157 -0.236832 0.963597 0.124061
0.0283132 -0.376487 -0.202067 0.442101 -0.873592 0.203428
0.142159 -0.269738 -0.371149 0.68783 -0.571063 -0.448082
-0.305924 -0.222255 -0.0384823 -0.433764 -0.579103 -0.690281
0.255157 0.253747 0.118808 0.3306 0.627364 0.705066
-0.223378 0.10942 0.414871 -0.208684 0.561937 0.800423
0.0160074 0.245251 0.211776 0.0802002 0.868025 0.49
-0.0708694 -0.12261 -0.493876 -0.138065 0.116308 -0.98357
-0.269879 0.0217289 -0.116856 -0.842529 0.531602 -0.0868565
-0.282857 -0.315374 0.145534 -0.236234 -0.971679 -0.00581558
0.213004 0.168113 -0.177579 0.565845 0.547153 -0.6168
-0.0653096 0.26776 0.062667 -0.378257 0.922548 -0.0763372
-0.0541327 -0.118453 0.396184 0.525401 -0.451446 0.721215
0.29686 0.132745 -0.0940612 0.845862 0.228634 -0.481916
0.00162058 -0.302076 -0.00810294 0.355867 -0.806752 0.47171
-0.0740269 -0.167328 0.372532 0.478122 -0.601477 0.64002
0.177774 -0.182327 -0.387882 0.793736 -0.216315 -0.568498
0.161337 0.201281 -0.182674 0.346058 0.686112 -0.639917
-0.441713 -0.0567732 0.0702066 -0.915877 0.153731 -0.370858
0.161051 0.224321 0.189048 0.323533 0.636412 0.700218
-0.422359 -0.215244 0.202734 -0.805117 -0.574395 0.147843
-0.452269 -0.0969944 0.0939733 -0.953069 -0.0325519 -0.300999
-0.0751762 -0.227556 -0.48535 -0.103382 -0.273289 -0.95636
-0.224514 0.203171 0.28438 -0.266632 0.927038 0.263643
-0.343893 0.0934872 0.358039 -0.602242 0.577321 0.551367
-0.233068 -0.159022 -0.41799 -0.687985 0.0556931 -0.723585
0.082075 -0.19464 0.111149 0.544182 -0.755761 0.364269
-0.381675 0.0975757 0.293077 -0.739641 0.603219 0.298427
-0.275407 -0.299498 -0.298457 -0.775543 -0.528039 -0.345988
-0.319921 -0.227978 -0.257485 -0.951314 -0.216685 -0.219203
-0.0454584 0.258458 0.180212 -0.112691 0.953527 0.27944
0.0322576 0.0186924 0.36306 0.605718 0.0335853 0.79497
0.271348 0.014505 0.161665 0.647667 -0.309592 0.69619
-0.0350433 -0.392993 -0.167856 0.249894 -0.940249 0.231267
-0.415592 -0.210987 0.0917718 -0.822341 -0.513306 -0.245504
0.0386727 -0.326629 -0.40385 0.358801 -0.718578 -0.595741
-0.309651 0.0529589 0.412996 -0.481103 0.364317 0.797379
0.291901 -0.0526826 -0.0614767 0.930683 -0.35807 -0.0749299
-0.424107 0.00696492 0.075763 -0.84171 0.392705 -0.370549
-0.0472593 0.137288 -0.266425 -0.354768 0.806958 -0.472184
0.204101 -0.183099 -0.341456 0.88718 -0.240721 -0.393656
0.120005 -0.241941 -0.0436519 0.544182 -0.755761 0.364269
0.134878 0.264621 0.153426 0.167406 0.802389 0.572842
0.00243942 0.221853 0.252008 0.151758 0.815488 0.558524
-0.34796 -0.0646314 -0.0594318 -0.642006 0.0737213 -0.763147
-0.296542 0.143872 0.344638 -0.455766 0.72171 0.520973
0.0176872 0.284504 0.116609 -0.144345 0.959631 0.241397
-0.396543 -0.234598 0.242181 -0.712717 -0.657522 0.244336
-0.0773886 0.23332 -0.0378996 -0.544182 0.755761 -0.364269
-0.399655 -0.00881786 0.0176165 -0.773295 0.373678 -0.51223
-0.138492 0.132352 -0.1561 -0.544182 0.755761 -0.364269
-0.116318 -0.262339 -0.463893 -0.241097 -0.402172 -0.88325
-0.315068 -0.168111 -0.296524 -0.934189 0.0057624 -0.356732
-0.0489732 -0.295755 0.0246314 0.128268 -0.81663 0.562727
-0.327504 -0.203398 0.364134 -0.408991 -0.592735 0.693824
0.0804255 -0.285959 -0.41898 0.481162 -0.596036 -0.642825
-0.431705 -0.112839 0.0449443 -0.891842 -0.108607 -0.439115
-0.0966026 -0.0150392 0.444109 0.32513 0.000118616 0.945669
-0.182182 -0.169692 -0.45681 -0.522224 0.0117461 -0.852727
-0.0876129 -0.317771 -0.00189587 -0.0161357 -0.798022 0.602412
-0.456377 -0.109426 0.244482 -0.967538 -0.144211 0.207543
0.290856 0.286672 0.000296279 0.622141 0.500097 -0.602365
0.168089 0.0982671 -0.280498 0.526531 0.576844 -0.624513
0.292765 0.0735585 -0.124449 0.899717 0.118921 -0.419961
-0.212337 -0.16595 0.421753 0.0165211 -0.525041 0.850916
-0.0542007 0.182164 0.3223 0.236302 0.737351 0.632831
-0.0458579 -0.329049 -0.0254461 0.221375 -0.818617 0.529961
-0.329569 -0.119742 -0.20732 -0.975282 0.204601 -0.0834513
-0.114416 -0.402908 -0.17943 -0.0968996 -0.981156 0.16716
0.241035 -0.0697496 0.124431 0.596899 -0.640174 0.483621
0.332495 0.179156 0.11893 0.530405 0.270446 0.803448
-0.419728 0.0611557 0.166539 -0.827482 0.544917 -0.135425
-0.248792 -0.349583 -0.230996 -0.639949 -0.763732 -0.0847282
-0.218845 0.215013 0.186651 -0.351582 0.935455 -0.0362391
-0.150061 -0.00851879 -0.406625 -0.488746 0.631776 -0.601652
0.15258 0.303777 0.0845095 0.0401125 0.89259 0.449082
-0.163828 -0.365824 -0.346188 -0.35319 -0.808009 -0.47157
0.0289645 -0.133453 0.301252 0.608686 -0.603407 0.515171
0.0613686 -0.366009 -0.244921 0.490648 -0.868803 0.0666786
0.237635 -0.164207 -0.19955 0.917954 -0.394332 -0.0431644
-0.361475 -0.160193 0.370996 -0.586253 -0.412454 0.697273
-0.268634 -0.294079 0.266291 -0.14603 -0.909446 0.389336
0.0984954 0.0932181 0.302222 0.534895 0.258843 0.804294
0.33839 0.281559 0.0550335 0.3306 0.627364 0.705066
-0.022736 -0.215045 0.225393 0.544182 -0.755761 0.364269
-0.148277 -0.0197468 0.457242 0.166839 0.0212943 0.985754
0.0523213 0.0858206 0.335307 0.530405 0.270446 0.803448
-0.295783 -0.259724 -0.00619859 -0.357183 -0.733225 -0.578621
0.04104 0.204871 -0.201067 -0.123891 0.816343 -0.564123
0.0800411 0.183256 0.26332 0.351095 0.599486 0.71927
-0.458285 -0.0541966 0.12599 -0.967292 0.153089 -0.202261
-0.416134 0.0720003 0.21355 -0.832909 0.553212 0.0148036
-0.218133 -0.291802 -0.389239 -0.578441 -0.521631 -0.627142
-0.199541 0.0707403 -0.192726 -0.544182 0.755761 -0.364269
-0.0173564 -0.343402 -0.406448 0.164826 -0.758919 -0.629979
-0.236962 -0.254432 0.34072 -0.0212713 -0.801468 0.597659
-0.246659 -0.31326 0.0741239 -0.14339 -0.961483 -0.234498
0.030312 -0.184903 -0.488098 0.235558 -0.160664 -0.958488
0.115926 0.0437304 0.298223 0.60842 0.021527 0.793323
-0.0907449 0.0877045 -0.315615 -0.441739 0.789093 -0.426848
-0.225534 -0.221484 0.378589 -0.0117871 -0.697535 0.716454
-0.332415 0.0276284 -0.0356298 -0.634401 0.487518 -0.599885
-0.313406 -0.0676548 -0.205041 -0.905864 0.412246 -0.0972775
-0.346244 -0.28724 0.124556 -0.499852 -0.860362 -0.0996252
-0.0712411 -0.385237 -0.119218 0.10756 -0.928024 0.356655
-0.0785824 -0.406868 -0.260765 0.0153116 -0.9929 -0.117963
0.033138 -0.361179 -0.351784 0.363439 -0.859084 -0.360398
0.235159 0.0712493 -0.226256 0.761755 0.352438 -0.543614
0.067224 -0.125568 0.265067 0.596899 -0.640174 0.483621
-0.297983 -0.302713 0.219235 -0.270396 -0.935562 0.227176
0.297547 -0.0120712 0.119948 0.634871 -0.484487 0.60184
-0.0342481 -0.399582 -0.284499 0.177661 -0.974046 -0.140251
-0.110927 0.251313 0.153666 -0.266587 0.960126 0.0841991
-0.138182 -0.29865 0.204477 0.344995 -0.904591 0.250386
0.253118 -0.130193 -0.0835667 0.844613 -0.528717 0.0841819
-0.11778 -0.205053 0.362931 0.397307 -0.703706 0.589021
-0.265703 0.196167 0.201947 -0.447795 0.889901 -0.0869227
-0.403494 -0.0386291 0.359478 -0.765803 0.0823941 0.637775
-0.0893066 0.189448 -0.111118 -0.544182 0.755761 -0.364269
0.0588615 -0.160251 0.217176 0.544182 -0.755761 0.364269
0.278943 -0.0759706 -0.11005 0.941099 -0.320917 -0.10651
-0.0453109 0.0652262 0.405839 0.477702 0.343743 0.808481
-0.245282 -0.208915 -0.403094 -0.71291 -0.153354 -0.684282
0.0282521 0.0873679 -0.360361 0.0670367 0.787422 -0.612758
-0.300869 -0.305749 0.103046 -0.358728 -0.91681 -0.175426
-0.143613 0.12711 0.405783 0.117821 0.598481 0.792426
0.0686983 0.168319 -0.25191 0.0670367 0.787422 -0.612758
-0.179471 -0.294385 0.0130512 0.0195157 -0.922461 -0.385596
0.234639 -0.144947 -0.0395666 0.737779 -0.642137 0.208191
-0.200696 0.0225725 -0.290936 -0.544182 0.75576 -0.364271
-0.127778 -0.386042 -0.119792 -0.0893389 -0.94002 0.329211
-0.161304 -0.296657 -0.426239 -0.412331 -0.524297 -0.745048
-0.285274 -0.144936 -0.352282 -0.840193 0.133664 -0.525557
0.216632 0.333344 0.0188226 -0.00830129 0.917435 0.397799
-0.425212 -0.0921429 0.326227 -0.854622 -0.108514 0.507786
-0.133422 -0.27996 0.249395 0.439279 -0.822926 0.360315
-0.329112 -0.176172 -0.134989 -0.973412 -0.0844431 0.212927
-0.190767 -0.321075 0.153343 0.128622 -0.989879 0.0599693
-0.193358 -0.372602 -0.134064 -0.375584 -0.888376 0.264054
-0.28634 -0.28877 0.0342004 -0.295008 -0.862762 -0.410623
0.326698 0.0152844 0.0747003 0.885684 -0.463831 0.0206124
0.148246 -0.166587 -0.426344 0.670358 -0.131416 -0.730309
0.340058 0.236964 0.0873161 0.434401 0.469718 0.768545
0.235084 0.302408 -0.0328048 0.422745 0.644638 -0.636968
-0.175433 -0.357933 -0.082116 -0.291491 -0.837294 0.462572
-0.109023 -0.0972927 -0.479617 -0.305545 0.235096 -0.922698
0.347215 0.161247 0.0185302 0.918718 0.0682925 -0.388964
-0.184317 0.102168 -0.150264 -0.544182 0.755761 -0.364269
-0.024519 -0.298654 -0.450517 0.11221 -0.572705 -0.812046
-0.28643 -0.30864 -0.179078 -0.797285 -0.596955 0.0893393
-0.0502743 -0.0315392 0.422146 0.482155 -0.0828179 0.872163
-0.287841 -0.24742 0.338418 -0.267595 -0.753741 0.600223
-0.095425 -0.0732759 0.436697 0.365005 -0.252309 0.896165
0.133722 0.121277 0.269394 0.516035 0.304844 0.800487
-0.166852 0.209908 0.29379 -0.0487389 0.934191 0.353428
0.188734 -0.0910741 -0.38232 0.801755 0.0958135 -0.589922
0.147987 -0.0786341 -0.424112 0.655843 0.185469 -0.731759
-0.461741 -0.056425 0.22633 -0.988217 0.092446 0.12199
0.144734 -0.288555 -0.181165 0.630608 -0.723674 0.28041
0.214196 -0.0616674 -0.330009 0.88203 0.159154 -0.443502
-0.275633 -0.0144786 -0.230398 -0.745692 0.623422 -0.235136
-0.122057 -0.395189 -0.304497 -0.173558 -0.946272 -0.272851
0.191621 -0.22824 -0.144024 0.73778 -0.642135 0.208189
0.322359 0.131283 -0.0446726 0.903829 0.108889 -0.413807
-0.202565 -0.0919897 -0.426166 -0.588942 0.332236 -0.736727
-0.223208 0.0427299 0.447519 -0.132303 0.294919 0.946319
-0.448106 -0.169651 0.191042 -0.924552 -0.377049 0.0551221
-0.343206 -0.275903 0.071824 -0.539242 -0.790433 -0.290574
0.307863 -0.0220127 -0.00508499 0.917953 -0.394333 -0.043164
-0.227559 -0.120183 0.442908 -0.0794199 -0.353079 0.932217
-0.275959 0.014917 0.441612 -0.319654 0.214662 0.922899
0.299969 0.23205 0.112793 0.42229 0.490578 0.762237
0.243936 0.0576386 0.197602 0.627583 -0.0745684 0.774971
0.100346 -0.313701 -0.163166 0.544182 -0.755761 0.364267
-0.101352 -0.35412 -0.393627 -0.14709 -0.785529 -0.601089
0.0263385 -0.361327 -0.153053 0.493837 -0.802546 0.334732
0.00787981 0.0710627 0.369613 0.530405 0.270446 0.803448
0.0654349 -0.324455 -0.133323 0.544181 -0.755762 0.364266
0.0484763 -0.0213985 -0.455702 0.255645 0.465456 -0.847347
-0.165532 -0.195642 0.393963 0.204132 -0.643067 0.738102
0.241474 -0.10619 0.0484285 0.673079 -0.68954 0.267395
0.0173099 0.269263 0.162129 -0.0244461 0.924584 0.380192
0.278359 0.308231 0.0501707 0.182955 0.788785 0.586809
-0.364162 -0.0196996 -0.0320375 -0.678033 0.299689 -0.671162
-0.196889 0.15546 -0.0209181 -0.544182 0.755761 -0.364269
-0.0613441 0.154014 -0.223379 -0.48363 0.777205 -0.402559
-0.235988 -0.270813 -0.0192574 -0.178111 -0.797674 -0.576188
0.299798 0.158948 0.147065 0.548273 0.223952 0.805756
0.165955 0.324801 0.0359424 -0.0566754 0.937153 0.344285
-0.231288 -0.297347 0.0239852 -0.0974003 -0.903726 -0.416883
-0.382408 0.0272945 0.364103 -0.717279 0.348345 0.603463
-0.256263 0.0697681 -0.0810854 -0.62734 0.526867 -0.57346
0.0963688 -0.207728 0.0626424 0.544182 -0.755761 0.364269
0.137731 0.271527 -0.110836 0.114649 0.775241 -0.621174
0.0518386 -0.0893048 0.316348 0.640467 -0.442306 0.627827
-0.199616 -0.259723 -0.424627 -0.539994 -0.364563 -0.758617
-0.00121683 0.132218 -0.296923 -0.123891 0.816343 -0.564123
0.104081 -0.0936365 -0.458477 0.486448 0.131059 -0.863824
-0.194174 0.192092 0.327603 -0.130019 0.875715 0.464994
-0.262731 -0.286249 -0.0698032 -0.702809 -0.551695 0.449101
0.119682 0.200739 0.229398 0.351095 0.599486 0.71927
-0.0131636 -0.397536 -0.241156 0.286349 -0.957718 0.0279542
0.257575 -0.0976626 -0.206652 0.958194 -0.205131 -0.199461
-0.217009 -0.300796 0.255371 0.0574577 -0.932215 0.357313
-0.0467377 0.0170827 -0.433664 -0.14563 0.644927 -0.750241
-0.301873 -0.226466 -0.313551 -0.89634 -0.202783 -0.394276
-0.239886 0.132771 -0.00375881 -0.544182 0.755761 -0.364269
-0.16303 0.187117 -0.00581863 -0.544182 0.755761 -0.364269
-0.323669 -0.0542928 0.426931 -0.477272 -0.0525709 0.877181
-0.0428475 -0.356622 -0.071338 0.25237 -0.847038 0.4678
-0.171858 0.0708848 -0.233783 -0.544182 0.755761 -0.364269
0.0929961 0.140091 0.285779 0.45196 0.437845 0.77719
-0.18573 0.0892095 0.431771 -0.0203767 0.475229 0.879626
0.111069 -0.333109 -0.288969 0.599028 -0.794416 -0.100348
-0.227991 -0.331188 -0.0858117 -0.559938 -0.71638 0.416256
-0.3377 0.151184 0.253151 -0.612262 0.784392 0.0993229
0.0825723 -0.243866 0.00827644 0.544182 -0.755761 0.364269
0.0822749 -0.141322 -0.473469 0.41979 -0.00348796 -0.907615
-0.116703 0.0980406 -0.259837 -0.544182 0.755761 -0.364269
0.287742 0.195469 -0.0719456 0.754472 0.361695 -0.547676
0.206656 0.1104 0.223419 0.568579 0.165031 0.805905
0.304934 0.0366706 -0.0966852 0.947749 -0.0439774 -0.315971
0.054043 -0.283732 -0.0318158 0.544182 -0.755761 0.364269
0.11966 -0.0547483 0.27079 0.644471 -0.399023 0.652255
0.212953 -0.126482 -0.343729 0.90119 -0.0710174 -0.427567
0.0704367 -0.35891 -0.298115 0.494402 -0.857736 -0.140913
-0.38265 -0.0851443 0.380737 -0.677228 -0.139425 0.722442
-0.0377905 -0.247363 0.180831 0.544182 -0.755761 0.364269
-0.1585 -0.24362 -0.455802 -0.392551 -0.310093 -0.865878
0.173204 -0.200966 -0.0381124 0.544182 -0.755761 0.364269
0.0780047 0.226083 0.221762 0.236302 0.737351 0.632831
0.161397 0.00200182 -0.369142 0.666372 0.458659 -0.58786
0.210671 -0.0245605 0.199333 0.644471 -0.399023 0.652255
-0.373205 0.11097 0.159043 -0.653545 0.720053 -0.233244
-0.178463 0.225096 0.229252 -0.206491 0.964672 0.163613
-0.455069 -0.139793 0.1325 -0.957212 -0.247603 -0.149791
0.277003 -0.054372 0.0896731 0.737779 -0.642137 0.208191
-0.0673199 -0.40618 -0.210726 0.102663 -0.989783 0.0989452
0.155258 0.233593 -0.150013 0.26681 0.72253 -0.63778
-0.340491 -0.109981 -0.0653034 -0.60088 -0.118174 -0.790556
-0.311927 -0.0939454 -0.263125 -0.905016 0.330913 -0.267288
-0.0241393 -0.190934 0.277513 0.544182 -0.755761 0.364269
-0.389604 -0.254816 0.19248 -0.695377 -0.710361 0.108804
-0.0459866 0.211673 -0.129493 -0.52432 0.763385 -0.377269
0.00292051 0.166572 -0.246975 -0.217981 0.818686 -0.531261
-0.019397 0.0964203 -0.344734 -0.123891 0.816343 -0.564123
0.20642 0.302453 0.0783694 0.120182 0.840163 0.528849
-0.170938 0.205537 0.0442125 -0.544182 0.755761 -0.364269
0.085494 -0.043949 0.308571 0.647667 -0.309592 0.69619
-0.289485 -0.286961 -0.12521 -0.810648 -0.518685 0.27169
-0.345395 -0.288325 0.184622 -0.482427 -0.869247 0.108049
0.106095 -0.160237 0.146645 0.544182 -0.755761 0.364269
-0.358276 -0.206592 -0.00871317 -0.641437 -0.485907 -0.593678
0.361025 0.131956 0.0612661 0.957042 -0.114995 -0.266171
0.233643 0.116189 -0.197494 0.699936 0.424276 -0.574526
-0.297691 -0.104615 -0.310545 -0.871063 0.294854 -0.392823
0.0246216 -0.121981 -0.491752 0.226846 0.0856321 -0.970159
-0.400001 -0.117769 -0.00501425 -0.78209 -0.113285 -0.612782
-0.425387 -0.180023 0.268527 -0.83159 -0.428449 0.353397
-0.311885 -0.216032 -0.0980217 -0.910491 -0.226838 0.34576
0.196823 0.11414 -0.239869 0.59437 0.523915 -0.610113
-0.447709 0.00907432 0.166159 -0.92733 0.36341 -0.0893976
-0.229157 -0.0560198 -0.376165 -0.653967 0.517254 -0.552064
-0.0477694 0.219129 0.268305 0.112136 0.845972 0.521304
0.312888 0.229393 -0.0147595 0.768998 0.343275 -0.539262
-0.461561 -0.0358449 0.178225 -0.983061 0.182133 -0.0204397
-0.192678 0.00073203 0.459038 -0.0204445 0.136268 0.990461
0.116844 0.105914 -0.308985 0.346058 0.686112 -0.639917
0.100959 0.0765333 -0.349078 0.346058 0.686112 -0.639917
-0.1693 -0.124982 -0.459716 -0.50251 0.177391 -0.846177
0.0537967 -0.309779 -0.0854887 0.544182 -0.755761 0.364269
0.18959 -0.232668 -0.325557 0.833441 -0.452565 -0.317114
-0.318081 -0.280589 0.264201 -0.385227 -0.853748 0.350306
-0.0183825 0.269368 -0.0470943 -0.496289 0.824443 -0.272014
0.279792 0.00115717 -0.166342 0.939215 -0.00316244 -0.343314
-0.236291 0.0612366 -0.137622 -0.736143 0.643488 -0.209801
