ply
format ascii 1.0
comment Created by Open3D
element vertex 128
property double x
property double y
property double z
property double nx
property double ny
property double nz
end_header
0.150907 -0.171353 0.0739222 0.3369 0.62745 0.702
0.152481 -0.102256 -0.195481 -0.0548646 -0.127618 -0.990305
-0.444925 0.208205 -0.155029 -0.413071 -0.671068 -0.615662
0.311975 -0.366118 0.112871 0.533908 -0.732503 0.422353
0.302037 0.0924202 -0.407481 0.533573 0.488372 -0.690502
0.396067 0.00100391 -0.0245578 0.344664 0.593811 0.727046
-0.116051 0.343519 -0.33563 -0.453403 0.723301 -0.520828
-0.245972 -0.0598139 0.208264 0.788836 0.161119 -0.593109
-0.122305 0.0233919 -0.156484 -0.637936 -0.410825 -0.651353
-0.0840345 -0.142747 0.184153 0.423975 0.576966 0.698108
0.315474 -0.0306698 -0.33777 0.86618 -0.488149 -0.10697
0.457417 0.0604973 -0.115463 0.284698 0.945539 0.157808
-0.246271 0.0689375 -0.139033 -0.643121 -0.556113 -0.526434
0.0427914 -0.110021 -0.0945946 -0.906623 0.37537 0.192696
-0.186359 -0.0387829 0.364844 0.369027 0.452796 0.811662
0.295059 -0.287574 0.240324 -0.746308 -0.178999 0.64108
-0.388166 0.192353 0.237857 -0.234208 0.134813 0.962794
-0.249751 0.36793 -0.194124 -0.743622 0.648868 0.161231
0.304823 -0.3919 -0.0218771 0.59755 0.338156 -0.727038
-0.267011 0.0136755 0.36281 -0.0777593 0.182542 0.980118
0.153925 0.370571 -0.280107 -0.818934 0.572886 -0.0339018
0.0778572 0.22188 -0.454761 -0.360033 -0.453405 -0.815353
0.324387 0.170081 -0.127266 -0.235582 0.227658 0.944814
0.26096 -0.0982346 -0.258156 -0.394149 -0.744038 -0.539494
-0.391082 0.237411 0.0212656 -0.934796 0.318379 0.157451
-0.358217 -0.236084 0.241707 -0.815397 0.544493 -0.196611
-0.389501 -0.0251045 0.0153386 -0.415926 -0.496599 -0.761836
0.0688086 0.0130854 -0.278197 -0.387159 -0.620169 -0.682274
0.261614 -0.181487 0.0970052 -0.791781 0.610801 -0.00225113
-0.138014 0.414205 -0.0815597 0.464528 0.733293 0.496482
0.186715 -0.320577 0.32986 0.560635 -0.794434 0.233588
0.460791 -0.0815659 -0.17664 0.872248 0.0163573 -0.48879
0.247965 -0.134751 -0.01156 0.277174 0.372702 0.885589
0.213415 -0.00537758 -0.097156 0.352095 0.58069 0.734049
0.368442 0.104188 -0.31393 0.849076 -0.00379778 -0.528258
0.203257 -0.34424 -0.00941486 -0.182683 -0.726351 -0.662602
-0.370818 0.312283 -0.0970807 0.638393 0.366014 -0.677117
-0.304648 -0.29694 0.211551 -0.372654 -0.560409 -0.739642
0.0647217 -0.298515 0.0187929 -0.159464 -0.284334 -0.94537
0.0544631 0.416875 -0.198581 0.264729 0.768682 0.582277
-0.173359 0.0458915 0.05152 0.336924 0.701775 0.627689
-0.399073 -0.1531 0.178388 -0.441562 -0.517424 -0.733005
0.0949345 -0.0317864 -0.0363531 0.437312 0.805186 0.400542
-0.139113 -0.109248 0.285468 0.498105 0.487893 -0.716834
0.386554 -0.0196043 -0.260204 -0.302284 0.730527 -0.612335
-0.174994 -0.127946 0.429322 0.748319 0.114853 0.65332
0.481516 -0.111445 0.0441915 0.926029 0.130477 0.354184
0.27505 0.259193 -0.182892 -0.124614 0.220289 0.967442
-0.272605 0.304089 -0.332695 -0.829335 0.558181 0.0252426
-0.142362 0.147046 -0.24051 0.0640462 -0.902231 -0.42647
-0.108132 -0.124608 -0.00420297 0.624096 0.340443 -0.703281
0.180851 -0.234435 0.180708 -0.18514 0.808319 -0.558877
-0.246524 0.392079 -0.0403392 -0.106058 0.972907 0.205437
-0.523262 0.0246714 0.0799632 -0.254907 -0.297733 0.919988
-0.311144 -0.135975 0.286544 -0.966039 0.238309 0.0998833
0.337524 0.0739995 -0.0791726 0.325258 -0.214879 0.920888
0.428909 -0.130621 -0.0531304 0.796735 -0.114918 -0.593302
0.0328332 -0.379403 0.107728 -0.592002 -0.340465 -0.730491
0.266662 -0.191338 0.22935 -0.397793 0.724362 0.563081
0.0970604 0.291152 -0.346257 -0.262691 0.541827 -0.798384
-0.135285 0.219067 -0.325941 -0.62878 -0.573465 -0.525141
0.259274 0.265498 -0.29984 0.914778 -0.333538 -0.227888
-0.469838 -0.0788306 0.115616 -0.55876 -0.656087 -0.507284
-0.305925 0.156652 -0.204367 -0.381642 -0.337812 -0.860367
-0.184678 -0.217665 0.083145 -0.386711 -0.783356 -0.486629
0.369785 -0.218422 0.129708 0.709263 0.662003 -0.242276
0.0501247 0.39714 -0.307726 0.0143733 0.759402 -0.650463
-0.376048 0.341515 0.0495452 -0.304901 0.61221 0.729544
0.187691 -0.350712 0.204016 0.821793 -0.567872 0.0466628
-0.0313821 -0.02924 -0.159567 -0.374308 -0.54237 0.752149
-0.207601 -0.321223 0.175891 -0.423692 -0.627931 -0.65283
0.0256082 -0.150184 0.123865 0.409329 0.601985 0.685612
-0.0435905 -0.168024 0.304523 0.000971304 0.759842 -0.650107
0.191765 0.0266095 -0.347841 -0.164827 -0.654289 -0.738063
0.427539 -0.240926 0.0226604 0.883035 -0.368056 -0.291176
-0.472233 0.154038 0.0952971 -0.522568 0.738868 -0.425438
0.401383 -0.148813 -0.278782 0.906618 -0.327761 -0.265737
-0.147732 -0.217102 0.358944 0.464054 -0.810201 0.358089
-0.28871 0.106361 0.283962 0.392382 0.5484 0.73844
0.184704 -0.219293 0.319056 0.233813 0.517294 0.823249
0.118335 -0.215812 -0.0797635 -0.339356 -0.602055 -0.72275
-0.214164 0.147963 -0.0135228 -0.0025383 0.709162 0.705041
-0.0579585 0.266207 -0.437199 -0.488234 0.0360386 -0.871968
-0.174729 0.298049 0.0163044 0.802498 0.0070209 0.596614
0.0153101 -0.211443 0.40003 0.156942 0.676795 0.719248
0.296669 -0.21174 -0.193793 0.128444 -0.19274 -0.972807
0.124824 -0.436124 0.128746 0.901864 -0.312684 -0.298112
-0.28135 -0.0351169 -0.0390478 -0.429582 -0.789971 -0.437498
-0.153302 0.372082 -0.224492 0.201382 0.674175 -0.710587
-0.0472195 0.0520667 -0.250809 -0.377549 -0.651265 -0.658263
-0.428521 0.169733 -0.0453774 -0.801551 -0.228781 0.552427
-0.0605516 0.0714143 -0.0295162 0.827114 -0.560886 0.0359161
0.179999 0.209167 -0.430872 0.361295 0.536522 -0.762633
0.270156 -0.290534 -0.101853 -0.0436448 -0.88113 -0.470857
-0.0519982 0.194466 -0.153504 0.418037 0.715733 0.559438
0.069709 0.0645767 -0.0876894 0.449165 0.550286 0.703873
-0.37997 0.0452603 -0.054209 -0.494275 -0.532159 -0.687386
0.250575 0.087263 -0.201292 -0.773486 -0.212983 0.596958
-0.406559 0.259087 0.177405 -0.357774 0.628866 0.690308
-0.13289 -0.0658405 0.133369 0.34966 0.533522 0.770125
-0.422424 -0.101569 0.249055 -0.902876 0.200912 0.380065
0.0153878 -0.214592 -0.0327022 -0.489934 -0.441253 -0.751838
-0.291997 -0.124335 0.0698914 -0.133256 -0.0866562 -0.987286
-0.264454 0.271593 0.118513 0.311427 0.950231 0.0085813
-0.276084 -0.245202 0.336225 -0.6417 -0.341558 0.686701
-0.404342 0.00538592 0.313372 -0.750033 0.512826 0.417684
-0.0699947 -0.248865 0.0312792 -0.0653387 -0.89349 -0.444304
0.0476084 -0.422399 0.25463 -0.0355438 -0.564969 0.824346
-0.134039 0.270001 -0.146722 0.316035 -0.783795 0.534591
-0.412817 0.0256311 0.186389 -0.660622 0.619241 -0.424405
0.084868 0.146772 -0.398439 -0.235249 -0.567883 -0.788776
-0.263453 0.168207 0.174163 0.910209 -0.0880292 0.404685
-0.172953 -0.340799 0.298302 -0.562735 -0.232175 0.793362
0.43788 -0.246846 -0.122437 0.852225 -0.523175 0.00101947
-0.0651079 -0.354523 0.129591 -0.284805 -0.796818 -0.532885
-0.310821 0.081385 0.0988713 0.655768 -0.753399 0.0485511
-0.0944469 -0.423846 0.22647 -0.297007 -0.654653 -0.695137
-0.0221559 0.339694 -0.125652 0.255202 0.0368245 0.966186
0.339529 -0.0815391 0.0777323 -0.317471 0.7462 0.585148
0.148622 0.302359 -0.162436 0.543681 -0.335702 0.76923
-0.0275915 0.149781 -0.343283 -0.536216 -0.618517 -0.574377
-0.0481583 -0.357865 0.347345 -0.204524 -0.690783 0.693533
0.384254 0.235807 -0.235807 0.997377 0.0700208 -0.018356
0.0683832 0.183015 -0.204505 0.247913 0.538987 0.805004
0.0589222 -0.216968 0.245281 -0.564543 0.727791 -0.389373
0.355511 -0.279139 0.00992316 0.56155 -0.770481 0.301695
-0.325928 0.282952 -0.213382 -0.54687 -0.629845 0.551568
0.293766 0.168029 -0.329492 -0.677121 0.676766 -0.288956
