ply
format ascii 1.0
comment Created by Open3D
element vertex 128
property double x
property double y
property double z
property double nx
property double ny
property double nz
end_header
0.029009 0.384484 -0.00860234 -0.721578 0.038977 -0.691235
-0.232068 0.252486 0.358443 -0.848664 0.182988 -0.496271
-0.200907 -0.175776 0.199815 -0.721578 0.038977 -0.691235
0.158214 0.203529 -0.0349805 0.721578 -0.0389771 0.691235
-0.179664 -0.209715 0.294427 0.721578 -0.0389771 0.691235
0.0459968 0.119141 -0.0412978 -0.721578 0.038977 -0.691235
0.248857 0.240912 -0.127494 0.721578 -0.0389771 0.691235
-0.0180782 -0.200499 0.126268 0.721578 -0.0389771 0.691235
0.0628239 -0.329711 0.0345292 0.721578 -0.038977 0.691235
-0.103585 -0.446363 0.183808 -0.789151 -0.293912 -0.539311
-0.11051 -0.446546 0.208883 0.721578 -0.0389768 0.691235
0.161447 -0.0956023 -0.0552227 0.721578 -0.0389788 0.691235
0.0521426 -0.288364 -0.0680284 -0.181418 0.952882 0.243113
0.27323 -0.23021 -0.179502 0.721578 -0.0389771 0.691235
-0.219542 0.0521389 0.350821 0.721578 -0.0389775 0.691236
-0.149833 -0.0759373 0.27083 0.721578 -0.038977 0.691235
-0.119145 -0.252991 0.11011 -0.721578 0.038977 -0.691235
0.0348429 0.173278 -0.145304 -0.721578 0.0389771 -0.691235
-0.122653 0.175669 0.137942 -0.721578 0.0389774 -0.691235
-0.11018 0.113249 0.240105 0.721578 -0.038977 0.691235
-0.104378 -0.31668 0.209805 0.721578 -0.0389777 0.691235
-0.121662 -0.238157 0.113573 -0.721578 0.038977 -0.691235
-0.172 -0.0662475 0.175814 -0.721578 0.038977 -0.691236
-0.246194 0.316102 0.274825 -0.721578 0.0389769 -0.691235
0.235269 -0.136827 -0.248506 -0.323601 -0.901628 0.286966
0.362778 0.184621 -0.24959 0.721578 -0.038977 0.691235
0.266776 0.0160398 -0.277582 -0.721578 0.038977 -0.691235
-0.0998115 -0.160558 -0.023563 -0.721578 0.0389771 -0.691235
0.207247 -0.321514 -0.115771 0.721578 -0.038977 0.691235
-0.0499943 -0.361341 0.128354 -0.453964 0.727186 0.514895
0.175725 -0.455494 -0.105962 -0.667621 -0.121294 -0.734554
-0.197676 0.0633271 0.209924 -0.721578 0.038977 -0.691235
0.00620496 0.111913 0.0704429 0.247042 -0.918194 -0.309661
0.144325 0.173949 -0.140851 -0.721578 0.0389771 -0.691235
0.155965 -0.225724 -0.0568374 0.721578 -0.0389772 0.691235
0.328263 -0.0687969 -0.346552 -0.721578 0.0389764 -0.691236
0.13572 -0.253211 -0.155956 -0.721578 0.038977 -0.691235
-0.187665 0.115807 0.0837299 -0.721578 0.0389772 -0.691235
0.295998 0.277468 -0.276493 0.873293 0.137632 0.467351
0.0135494 -0.491452 0.0768465 0.721578 -0.038977 0.691235
0.193801 0.430935 -0.163166 0.730937 -0.0174174 0.682223
-0.128382 0.350175 0.272465 0.721578 -0.0389768 0.691235
0.0830743 -0.393547 -0.106512 0.181418 -0.952882 -0.243112
-0.26388 0.152488 0.380643 -0.957971 0.202079 -0.203605
0.0224801 0.236684 0.00280859 0.26498 0.937941 -0.223723
0.0218417 0.301293 0.095436 0.020709 0.999182 0.0347234
-0.0725813 -0.105001 0.0698466 -0.721578 0.038977 -0.691235
0.211667 -0.291111 -0.237374 -0.721578 0.0389773 -0.691235
0.227995 0.0910403 -0.114167 0.721578 -0.038977 0.691235
-0.286521 -0.0892115 0.396536 -0.880399 -0.0112836 -0.4741
-0.143862 -0.0321094 0.0838025 0.679831 0.228777 -0.696772
0.293659 0.360929 -0.167495 0.721578 -0.0389764 0.691236
0.184758 0.306219 -0.175601 -0.721578 0.038977 -0.691235
0.150745 -0.141136 -0.16532 -0.721578 0.0389765 -0.691235
-0.124526 -0.202937 0.00600481 -0.290499 -0.923318 0.251187
-0.0238986 -0.276705 0.0093449 -0.721578 0.0389769 -0.691235
0.301689 -0.219727 -0.298869 0.934243 -0.356446 -0.0116354
-0.21227 0.237809 0.3537 0.721578 -0.038977 0.691236
0.0877934 -0.368979 -0.00170576 0.38247 0.854675 -0.351066
-0.0122374 0.48391 0.143923 -0.724218 0.0635803 -0.686634
0.189237 0.0241956 -0.196179 -0.721578 0.038977 -0.691235
-0.265623 -0.0875674 0.391047 0.721578 -0.0389777 0.691235
-0.089348 0.235735 0.225265 0.721578 -0.038977 0.691235
-0.187857 0.101701 0.0831351 -0.721578 0.0389774 -0.691236
-0.0485592 0.166407 -0.053974 -0.0580402 -0.998305 0.00429597
-0.0867819 0.0561682 0.0937584 -0.721578 0.0389771 -0.691235
0.333575 0.0761397 -0.343925 -0.721578 0.0389771 -0.691235
-0.293126 -0.200946 0.32148 0.0691408 -0.319126 0.945187
0.0534994 0.413974 0.0861976 0.721578 -0.038977 0.691235
0.0205454 -0.127618 -0.0286433 -0.721578 0.038977 -0.691235
0.142471 -0.138069 -0.15651 -0.721578 0.0389764 -0.691235
0.00529711 -0.499596 0.0813859 -0.0923578 -0.99491 0.040311
0.213684 0.406943 -0.0814149 0.721578 -0.038977 0.691235
-0.0537573 0.342763 0.194147 0.721578 -0.0389773 0.691236
-0.0977377 0.210185 0.0255844 -0.247042 0.918194 0.30966
0.0148704 -0.158281 -0.143151 -0.721578 0.038977 -0.691235
-0.0594567 -0.354634 0.110539 -0.453964 0.727186 0.514895
0.054721 -0.188257 0.050964 0.721578 -0.0389771 0.691235
-0.338873 0.0648677 0.357406 -0.721578 0.0389773 -0.691236
-0.25024 0.140911 0.26917 -0.721578 0.038977 -0.691235
-0.183764 -0.118156 0.0868712 -0.594034 -0.547663 0.589228
0.13298 0.397568 0.00230292 0.721578 -0.038977 0.691235
-0.102648 -0.479095 0.080139 -0.721578 0.038977 -0.691235
-0.201471 -0.386651 0.20999 0.369045 -0.467244 0.803423
0.123222 0.468415 -0.0857859 0.755955 0.221879 0.615875
0.378683 0.200856 -0.269125 0.640398 0.416978 -0.644996
0.179096 -0.408975 -0.210019 -0.721578 0.038977 -0.691236
0.0248056 -0.46855 -0.0523148 -0.721578 0.038977 -0.691235
0.100395 0.296346 0.0219422 0.156788 0.981675 -0.108316
-0.0177991 0.19978 0.146635 -0.181418 0.952882 0.243112
-0.204158 -0.332175 0.313091 0.721578 -0.0389775 0.691235
0.0985792 -0.0282272 -0.214285 0.68363 -0.117702 -0.720275
0.288166 -0.210369 -0.312677 -0.721578 0.0389773 -0.691235
-0.330434 0.0368297 0.363225 0.550112 -0.0228271 0.834779
-0.120414 -0.317425 0.212698 0.171652 0.977313 -0.124078
-0.0306983 -0.397416 0.00963653 -0.721578 0.0389769 -0.691235
0.203895 0.0500581 -0.0913199 0.721578 -0.038977 0.691235
0.0917883 -0.0150744 -0.08124 -0.68363 0.117702 0.720275
0.248974 0.180307 -0.249736 -0.721578 0.0389773 -0.691235
-0.262417 -0.0893853 0.268896 -0.721578 0.0389766 -0.691235
0.308789 -0.326573 -0.222055 0.721577 -0.0389776 0.691236
-0.133168 0.357145 0.277855 0.721578 -0.0389766 0.691235
0.303298 0.27603 -0.233539 0.421254 0.584702 -0.693302
-0.26932 -0.313391 0.278384 0.677881 -0.0859677 0.730128
-0.00758965 -0.194604 -0.121753 -0.721578 0.0389771 -0.691236
-0.223144 0.257519 0.24746 -0.721578 0.0389771 -0.691235
-0.155458 0.435735 0.186852 -0.721578 0.0389771 -0.691235
0.128477 -0.473328 -0.0421039 0.721578 -0.038977 0.691235
0.161312 0.200068 -0.0384087 0.721578 -0.0389771 0.691235
0.326805 -0.108493 -0.228566 0.721578 -0.038977 0.691235
-0.136691 0.119843 0.268152 0.721578 -0.0389771 0.691235
-0.322526 -0.199294 0.325445 -0.721578 0.038977 -0.691235
0.0886359 0.0743994 -0.207034 -0.721578 0.0389773 -0.691235
0.13067 0.0878622 -0.0127497 0.721578 -0.038977 0.691235
-0.047758 0.370012 0.0707184 -0.721578 0.038977 -0.691235
-0.185822 0.0120569 0.313361 0.721578 -0.0389771 0.691235
0.395183 -0.00147774 -0.293911 0.721578 -0.0389773 0.691235
-0.0692439 -0.117496 0.18436 0.721578 -0.038977 0.691235
-0.0547629 -0.0400807 0.173609 0.721578 -0.038977 0.691235
0.237346 -0.0846922 -0.133837 0.721578 -0.038977 0.691235
0.334408 0.0740688 -0.226208 0.721578 -0.038977 0.691235
0.106205 0.284152 -0.0948443 -0.721578 0.0389771 -0.691235
0.170287 -0.206268 -0.0706899 0.721578 -0.0389767 0.691236
0.0415104 0.498264 -0.000398344 0.72281 -0.0138357 0.690908
0.386215 -0.147278 -0.293006 0.659684 -0.26428 -0.703543
-0.0848324 0.274164 0.110645 -0.367867 0.824228 0.430491
0.283787 -0.367926 -0.20094 0.453347 -0.727993 -0.514298
0.0648581 -0.283477 -0.0776949 -0.181418 0.952882 0.243113
