ply
format ascii 1.0
comment Created by Open3D
element vertex 512
property double x
property double y
property double z
property double nx
property double ny
property double nz
end_header
0.0319727 0.23512 0.118471 0.02974 -0.991115 -0.129637
0.235849 0.204859 0.0538659 0.597118 0.782055 -0.178438
0.00458904 0.082699 -0.380187 -0.740012 -0.0517698 0.670598
-0.19622 -0.362421 0.451424 -0.442043 -0.848279 0.291581
0.0365802 -0.652718 -0.125059 0.0981263 0.959219 0.265087
0.0130786 -0.236706 -0.105585 -0.035762 0.957885 0.284915
0.400571 0.00414958 -0.289096 -0.0748631 0.980119 0.183747
0.116742 0.235533 0.00716097 -0.465023 -0.884133 0.0454114
0.0188546 0.393776 -0.265642 0.714463 -0.228192 0.661416
-0.275729 -0.323248 0.362118 -0.43463 -0.838414 0.328875
-0.412837 -0.151048 0.538898 -0.720765 -0.253699 0.645085
-0.321901 -0.34784 0.066743 0.701162 0.656635 -0.277853
-0.2771 -0.107175 0.0547605 -0.687891 -0.548192 0.475701
-0.470546 -0.205302 0.284636 -0.629157 -0.748494 0.209567
-0.251764 -0.271116 -0.251729 0.657238 -0.243015 0.71343
0.0215476 -0.29274 -0.498947 0.398214 -0.674142 -0.622059
-0.0748867 0.138594 0.258655 -0.496808 0.681675 0.537123
0.393818 0.00902794 -0.306721 -0.175719 0.836024 0.519794
0.223272 0.368558 0.285311 -0.60917 0.386346 0.692567
-0.512303 0.00502812 0.216812 0.58757 -0.460224 -0.665549
-0.194321 0.0724918 0.554659 -0.49554 0.543265 0.677719
-0.1555 -0.469861 0.0792026 0.529907 0.79816 -0.2866
-0.19775 -0.20412 0.0552064 -0.60218 -0.744072 0.289373
0.388394 0.0513899 -0.516852 0.502216 -0.544334 -0.671922
-0.352535 -0.315999 -0.208187 -0.60754 0.247246 -0.754827
0.220554 -0.481123 0.0425351 0.610168 0.709838 -0.351888
-0.172288 0.565875 0.135304 -0.506764 0.498643 0.70324
-0.249487 -0.0814031 0.0702271 0.729937 0.420513 -0.538851
0.195665 -0.199343 -0.0691793 -0.475045 0.603004 0.640873
0.327357 -0.0327382 -0.489805 0.502924 -0.57157 -0.648363
-0.193613 -0.13676 0.154003 -0.759577 -0.429348 0.488572
-0.176719 -0.346511 -0.275085 0.166291 -0.946241 -0.277445
0.0960216 -0.659343 0.10659 0.547331 -0.249897 0.798736
-0.178387 -0.491584 -0.0422421 0.622752 0.74425 -0.241395
-0.260882 -0.425139 -0.00759772 0.648861 0.724017 -0.23405
-0.23195 -0.390633 0.173481 0.618475 0.739122 -0.26681
-0.118645 -0.599959 -0.150127 -0.556124 -0.811353 0.180089
-0.525788 -0.0174444 0.38314 -0.486376 0.551112 0.678022
-0.479095 -0.0627256 0.304328 -0.729747 -0.238115 0.640914
-0.375143 0.17065 -0.017012 -0.657043 0.259347 -0.707837
0.112195 -0.438678 -0.0865686 0.656877 0.622031 -0.426134
-0.0900222 -0.265046 -0.0568657 -0.19619 -0.966039 -0.168161
-0.11428 0.711115 0.0180249 0.0740996 0.957778 0.277796
0.0885224 0.458502 0.118237 -0.785139 0.0268498 0.618737
-0.234513 -0.574487 -0.337766 -0.574641 -0.780402 0.246497
0.590134 0.0255346 -0.124719 -0.794107 -0.398103 0.459247
-0.373873 0.322726 0.195651 -0.506587 0.619198 0.599969
-0.00318847 0.676214 0.102916 0.560651 0.791643 -0.242841
-0.144306 0.322796 -0.150527 -0.104918 -0.955862 -0.274445
0.328615 0.46377 0.282397 0.67053 -0.28374 0.685479
0.342536 -0.492792 -0.0643692 0.656195 -0.261824 0.707712
0.206447 -0.110035 -0.474945 -0.532148 0.627118 0.568807
0.411915 -0.0562856 -0.397584 0.495145 -0.51138 -0.702369
-0.501333 -0.127261 0.439746 -0.749046 -0.22081 0.624639
-0.0851019 -0.478359 -0.259471 -0.313275 0.732163 0.604811
0.0607814 -0.545382 0.0392049 0.726711 0.494465 -0.47686
0.360597 0.109865 0.0778571 0.697133 0.597651 -0.396004
0.695598 0.0647946 -0.195136 0.54832 0.802476 -0.235325
0.274845 0.282424 -0.371502 -0.587222 -0.768306 0.254707
-0.456169 -0.0518811 0.298597 0.730526 0.0306142 -0.682198
0.0725172 0.372382 0.476835 0.644143 -0.227709 0.730225
-0.0336377 0.286224 -0.0919305 -0.335463 -0.942053 -0.000746978
-0.316201 0.527014 0.0469275 -0.694992 0.247341 -0.675135
0.0203438 0.455511 0.382205 -0.472198 0.522219 0.710152
0.342916 -0.494544 -0.0720636 0.499484 -0.572313 -0.650364
-0.187708 0.436525 -0.0649787 0.600064 -0.265277 0.754686
0.336988 0.307269 -0.267574 0.526305 0.80236 -0.281461
0.103147 -0.43274 -0.0825213 0.713464 0.592814 -0.373551
-0.380378 0.0258546 0.247548 0.408045 0.912132 -0.0389272
-0.0562096 0.343791 0.381938 0.533255 -0.635496 -0.558375
-0.475197 0.165904 0.0665797 -0.666576 0.243936 -0.704394
0.205623 0.457417 0.382473 -0.182156 0.829225 0.528399
0.546966 0.158022 -0.245461 0.446614 0.865531 -0.2267
-0.0583438 0.62977 -0.141563 -0.606746 0.249447 -0.754742
0.620372 -0.0718257 -0.19228 -0.546545 0.664294 0.509904
0.0896975 -0.0807115 -0.256156 -0.663795 0.533838 0.523826
-0.447377 -0.0311557 0.124715 -0.57552 -0.00108528 0.817787
-0.100927 0.439828 0.267124 0.515751 -0.493631 -0.700235
0.392728 -0.104781 0.0167451 0.679135 -0.0444657 -0.732666
-0.171383 -0.56046 -0.234936 0.708852 0.690506 -0.143978
-0.30878 0.408535 0.174592 -0.475777 0.551483 0.685203
0.560232 0.221022 -0.0151389 0.531887 0.813318 -0.235818
-0.174814 0.241955 0.070549 -0.386882 0.774962 0.499756
-0.110047 0.436225 -0.167438 -0.672612 0.242625 -0.699089
0.498585 -0.229281 -0.184244 0.412053 -0.459394 -0.786873
-0.0433826 -0.399785 -0.083221 -0.323491 0.727158 0.605471
-0.39116 -0.0517567 0.479303 0.464764 -0.519253 -0.717196
-0.0091468 -0.13436 0.37176 0.779138 0.205707 -0.592139
-0.152117 -0.482551 -0.445412 -0.650099 0.249546 -0.717704
-0.526618 -0.0345105 0.39741 -0.475654 0.647834 0.595033
0.257191 -0.266903 -0.336157 0.573182 -0.426158 -0.699894
-0.00592898 -0.0532545 -0.348357 -0.549953 0.388344 0.73942
0.0788895 0.13739 -0.31672 0.797538 0.195979 -0.570549
0.448492 0.214318 -0.206289 -0.540578 -0.809883 0.227738
0.124664 -0.265953 -0.406529 -0.549101 0.461571 0.696736
-0.11896 0.0347955 0.281965 -0.681878 0.173339 0.710631
-0.0746375 0.445652 0.318797 -0.521397 0.491907 0.697261
-0.0918825 0.674776 -0.0972553 0.526112 0.829926 -0.185551
0.260471 0.0411299 -0.0813868 -0.778731 -0.173503 0.602889
-0.0179681 0.401045 0.171676 -0.567614 -0.764627 0.30522
-0.688301 -0.0057337 0.24048 -0.699126 -0.227268 0.677918
0.227783 0.239063 -0.532402 -0.77453 0.228172 -0.58995
0.335571 0.248467 -0.467088 0.602345 0.758296 -0.249334
-0.188911 0.418371 -0.070139 0.680409 -0.25767 0.686039
-0.321932 0.296142 -0.0243316 -0.540868 0.278618 -0.79362
0.266141 0.512789 0.208806 0.560501 0.796829 -0.225616
0.137132 0.463128 -0.24533 0.640807 0.734538 -0.223204
-0.379018 0.0220588 0.211614 0.513892 0.83348 -0.203044
0.189496 -0.348453 -0.318117 0.528317 -0.500885 -0.685562
0.0603185 0.485576 0.223949 0.262482 -0.853995 -0.449216
0.0893561 -0.192428 -0.533314 0.49518 -0.547845 -0.674287
-0.323267 -0.247994 0.479646 -0.529063 -0.820187 0.217683
0.028945 0.195272 0.257038 -0.188859 0.881026 0.433734
0.00615293 -0.263134 -0.107174 0.0443481 -0.9271 -0.372181
-0.0698116 0.231365 0.0894591 0.17299 -0.876928 -0.448409
0.176685 -0.604912 0.0375652 0.185705 -0.86195 -0.471759
0.219208 -0.19204 -0.397258 -0.480359 0.717592 0.504298
-0.103875 -0.450893 0.351135 0.584034 -0.226915 0.779368
0.513797 -0.0710077 -0.0856995 -0.524141 -0.842187 0.126484
0.042114 0.114858 0.368319 -0.432937 0.714641 0.549412
0.113841 0.233638 0.0175048 -0.417355 -0.907425 -0.0489368
-0.292216 -0.376128 -0.284971 -0.6827 0.238394 -0.690716
-0.064819 -0.367503 -0.267269 0.757104 0.572501 -0.314701
0.395136 -0.323706 -0.149111 -0.505855 0.550937 0.663761
0.109564 0.498241 0.413024 -0.458498 0.642002 0.614502
0.00427396 -0.298089 0.0157657 -0.175413 -0.976014 -0.128943
0.133707 -0.718002 -0.00376923 -0.109735 -0.950328 -0.291266
0.0893575 -0.315547 0.227114 0.649264 -0.247323 0.719227
0.380911 0.0551853 -0.522557 0.478342 -0.680921 -0.554558
0.0892933 0.592999 0.0413508 0.622722 0.764964 -0.16446
-0.0544717 0.135553 0.2829 -0.488289 0.568893 0.661767
0.0160435 -0.605444 0.140024 -0.599687 -0.752813 0.271381
-0.341636 -0.384852 -0.0783228 0.639328 0.729108 -0.244255
0.156377 0.38124 0.185488 0.528328 -0.615023 -0.585334
-0.619697 -0.0922853 0.282981 -0.624191 -0.755921 0.197406
-0.341551 0.0843511 0.42716 -0.517983 0.632437 0.575948
-0.054331 0.544229 0.00415362 -0.424821 -0.873824 0.236557
-0.287745 0.00673033 0.545495 -0.589825 0.613207 0.525437
-0.183188 -0.178887 0.0457666 0.65301 0.674426 -0.344569
0.142355 0.163999 0.306581 0.105421 -0.91861 -0.380845
0.132187 -0.30787 0.0969465 0.204954 0.965632 0.159839
0.586946 0.0273753 -0.301957 -0.511726 0.615072 0.599852
-0.147229 -0.519068 -0.425756 0.486243 -0.559363 -0.671328
0.0182606 -0.642122 0.0376039 -0.57043 -0.782156 0.250682
-0.378456 -0.0529596 0.490433 0.499594 -0.582718 -0.640972
0.508029 0.0641257 -0.0712071 -0.3353 0.757443 0.560227
0.303226 0.114915 -0.0152036 0.715781 0.530998 -0.453541
-0.303641 0.103085 0.0395131 0.702552 -0.224094 -0.675428
0.634111 0.112501 -0.110244 0.59133 -0.252311 0.765943
-0.0178412 -0.471459 -0.367914 0.483369 -0.668512 -0.565195
0.0844555 0.403569 0.476768 0.604726 -0.25302 0.755174
0.274308 0.0879203 -0.628892 -0.633337 0.253373 -0.731222
-0.164681 -0.172452 -0.304106 -0.075841 0.914789 0.396747
-0.0431814 -0.379179 -0.120744 -0.0949054 0.890786 0.444403
0.158287 0.494625 0.282197 0.141782 0.976624 0.161563
0.396384 0.0872296 -0.165781 -0.511885 0.533341 0.673439
-0.0320675 -0.1183 0.383731 -0.784577 -0.092163 0.613143
-0.336407 0.236119 0.269602 0.487977 -0.631217 -0.602863
-0.336995 0.15445 0.337339 0.504313 -0.54705 -0.668135
-0.383175 -0.124758 0.328074 0.619909 0.751566 -0.225526
-0.0711741 0.349315 0.405713 -0.544243 0.67794 0.494163
0.111662 -0.174167 -0.149998 -0.445218 0.593302 0.670651
0.0980981 -0.573972 -0.184451 0.484385 -0.437084 -0.757845
0.383059 0.222906 -0.333744 -0.562142 -0.791652 0.23934
0.165205 0.235833 0.148315 0.343662 0.924555 0.164607
-0.0591803 -0.147597 -0.341779 0.354368 -0.807523 -0.471518
-0.177487 -0.0604095 0.544086 -0.0129368 0.945773 0.32457
0.258516 -0.553819 -0.0836802 0.506758 -0.593159 -0.625586
-0.318921 -0.429818 -0.171889 0.587774 0.763455 -0.267689
-0.557453 -0.179619 0.152816 -0.583686 -0.772453 0.250253
0.112299 -0.103869 -0.251851 0.593989 -0.434088 -0.677307
-0.415292 0.0733981 -0.0148778 -0.678124 0.246186 -0.692488
0.388691 0.0191982 0.0721382 0.560556 -0.21871 0.798713
0.266102 0.188518 0.244713 0.662672 -0.255393 0.704018
0.292202 -0.099254 -0.0534465 -0.777314 0.293356 0.55653
0.347894 0.410611 0.0846848 0.701077 0.673357 -0.234692
0.214203 -0.0049711 -0.185052 0.813007 -0.163286 -0.55889
-0.204268 0.437256 0.22998 -0.470141 0.62738 0.620774
0.137734 0.495174 -0.0637366 -0.608043 -0.759768 0.230294
0.0721851 -0.504016 -0.270086 0.494791 -0.663048 -0.561738
-0.175549 0.647667 0.0580912 -0.510219 0.480092 0.713574
-0.186591 -0.208555 -0.118969 0.272091 0.956669 0.103688
0.19729 -0.00740219 -0.563253 0.659668 -0.253508 0.707511
0.496134 0.0520238 -0.236803 -0.731399 -0.440455 0.52063
-0.0915489 -0.22969 -0.198516 -0.0753868 -0.984316 -0.159493
0.537456 -0.122365 -0.250724 0.544154 -0.64922 -0.531423
0.10671 -0.537915 0.131462 0.521432 -0.323085 0.789762
0.177951 0.0780447 -0.410797 -0.698674 -0.532374 0.477946
0.0412735 -0.365198 -0.418777 0.513096 -0.544549 -0.663475
-0.665378 -0.0960906 0.172561 -0.609242 -0.753465 0.247213
0.283689 0.126642 -0.509768 0.78036 -0.0122845 -0.62521
-0.387369 -0.157433 0.567198 -0.7695 -0.137897 0.623581
0.0400847 0.122112 -0.412932 -0.649508 0.249382 -0.718295
0.31919 -0.199797 0.0187697 -0.520468 0.425256 0.740453
0.209372 -0.143829 -0.487194 0.49665 -0.594921 -0.631987
-0.384325 -0.0442095 -0.0851048 -0.614479 0.25034 -0.748161
0.6215 0.0512747 -0.313697 0.770208 0.105079 -0.629077
0.242779 0.568033 0.348726 0.58223 0.775362 -0.244585
0.308972 0.368792 -0.0431792 -0.660086 -0.712246 0.238731
-0.169289 0.0904158 0.172544 0.647937 -0.390223 -0.654143
0.114553 0.167266 -0.199207 -0.730656 -0.485736 0.479794
-0.15628 -0.204779 0.48326 0.604083 -0.244339 0.75854
-0.365274 -0.256225 0.274019 0.532225 0.8165 -0.22375
0.465628 -0.10591 -0.319088 0.529758 -0.50441 -0.681855
-0.219872 0.273513 -0.0442162 0.253338 -0.907549 -0.334925
-0.46507 0.169875 0.0571224 -0.662132 0.281664 -0.69444
0.527719 0.0591836 -0.0433178 -0.349206 0.792409 0.500144
0.0408083 0.231242 0.120219 -0.0442455 -0.950219 -0.308427
0.0558855 0.257768 -0.203505 0.742699 0.614063 -0.267068
-0.0770325 0.488135 0.0989753 0.747531 -0.0845139 -0.658828
-0.501278 -0.14662 0.404374 -0.531222 -0.804972 0.264242
0.0634582 0.189256 0.229785 0.148911 -0.869101 -0.471688
-0.0646996 0.523509 0.216603 0.489134 -0.690318 -0.533112
0.353289 0.429464 0.248165 0.570429 -0.304412 0.762852
0.00872213 -0.458465 -0.358261 0.499977 -0.611806 -0.612957
0.187188 -0.506914 -0.140619 -0.502908 0.548317 0.668155
-0.0559352 -0.261472 0.203836 -0.604039 -0.750942 0.266877
-0.246721 0.133174 0.465018 -0.506536 0.626347 0.592546
0.682349 0.0733591 -0.194535 0.451755 0.854364 -0.256865
0.269513 0.0322053 -0.334944 -0.654183 -0.685058 0.320532
-0.285219 0.413483 0.016605 0.715786 -0.316616 0.622419
0.0313182 -0.416661 -0.0068545 -0.287403 0.79809 0.529577
-0.119959 0.29448 -0.0536804 -0.0531636 -0.953259 -0.297439
-0.0727637 0.617427 0.16606 -0.516664 0.551523 0.65489
-0.606153 -0.0265913 0.115415 -0.659354 0.326414 -0.677279
-0.46788 0.315229 0.130193 -0.481386 0.527545 0.699974
0.491554 0.209799 -0.112278 -0.631048 -0.73737 0.240966
0.344528 0.299073 -0.260438 0.604863 0.755856 -0.250645
0.148426 -0.30783 0.0939949 0.0735868 0.95526 0.286466
-0.407112 -0.345075 -0.00719509 -0.509001 -0.823652 0.250032
0.220723 0.498956 0.0482669 0.579626 0.777275 -0.244699
-0.327102 -0.485842 -0.271663 -0.314273 -0.93688 0.153259
-0.312699 -0.0525994 0.275072 -0.761783 -0.316511 0.565249
-0.208337 0.457355 0.214208 -0.434891 0.462829 0.772437
0.00931048 0.661279 0.0880311 0.572958 0.782343 -0.244251
0.172682 0.556745 0.127232 0.60547 0.741784 -0.288378
-0.410473 -0.168163 -0.0741882 0.623599 -0.247007 0.741696
0.141174 -0.27496 -0.41513 0.434749 -0.489876 -0.755655
0.00534403 -0.140288 -0.469065 -0.62618 0.242835 -0.740898
0.112137 0.245597 -0.115703 0.591409 0.778916 -0.20863
0.108266 -0.206274 -0.166024 0.376697 -0.642292 -0.667503
-0.498819 -0.274461 -0.0017651 -0.622925 -0.734264 0.269852
-0.345519 -0.301313 -0.209605 -0.748476 0.19798 -0.63292
-0.0784594 -0.593932 -0.0312056 -0.693781 -0.684784 0.223022
-0.345497 -0.0166726 0.027096 -0.774327 -0.216278 0.594677
0.0861689 0.436985 0.317941 -0.611177 0.1816 0.770379
-0.104457 -0.610087 -0.313795 0.484925 -0.567806 -0.665165
-0.480356 -0.147015 -0.00702948 0.667793 -0.286465 0.687015
-0.11307 -0.401166 -0.359765 0.740786 0.0567052 -0.669343
-0.427493 -0.287692 -0.10296 0.6565 -0.226717 0.719449
0.0013267 0.629776 -0.0315275 0.588889 0.768995 -0.248709
-0.0317876 -0.147177 -0.328316 0.373561 -0.680437 -0.630443
0.341432 -0.222513 0.0378898 0.565623 -0.229366 0.792125
0.51838 -0.0801746 -0.0876268 -0.375143 -0.926179 0.0382203
0.379141 0.155028 -0.578186 0.803183 0.00772398 -0.595683
0.150497 0.164774 -0.432838 -0.606973 0.29048 0.739733
0.140313 0.212232 0.166898 -0.302881 -0.929217 -0.211707
0.194903 -0.366746 -0.293094 0.485797 -0.479754 -0.730642
0.427978 0.130876 -0.295571 0.640926 0.736171 -0.217409
0.489635 0.00625951 -0.363805 -0.508583 0.563572 0.650946
-0.196721 -0.466502 -0.223593 -0.747012 -0.483324 0.456478
0.188322 -0.0984524 -0.15071 -0.629682 0.321471 0.707218
0.035397 0.603504 -0.0451241 0.527386 0.829808 -0.182435
0.201425 0.0985954 -0.180181 0.786398 0.298392 -0.54087
-0.216427 0.204839 0.38805 0.507788 -0.590175 -0.62757
-0.183355 -0.490791 -0.0416999 0.536287 0.808508 -0.242303
0.394012 -0.32499 -0.140912 -0.501907 0.679332 0.535348
-0.250734 0.00530525 0.111154 0.771471 -0.0385228 -0.635098
-0.0603917 -0.267483 -0.424608 0.602866 -0.291032 0.742868
0.195726 0.375302 -0.279584 -0.462981 -0.844231 0.270042
-0.08128 -0.559964 0.0683147 -0.51195 -0.822879 0.246532
-0.378135 -0.0493441 -0.0856901 0.755265 0.461434 -0.465461
0.490727 0.217687 -0.0921242 -0.591571 -0.769095 0.241942
0.0585486 0.120034 0.367251 -0.406794 0.801133 0.43898
-0.157145 -0.476996 0.0556642 0.628542 0.734819 -0.254904
-0.398538 0.385185 0.0755968 -0.656337 0.233779 -0.717335
0.40382 -0.0656879 -0.39876 0.499894 -0.58015 -0.643065
-0.446195 -0.284536 0.0818529 -0.528015 -0.809299 0.257362
-0.36801 -0.321051 0.15938 -0.628626 -0.746777 0.217149
0.136075 0.464463 -0.248861 0.502808 0.820491 -0.27199
-0.617892 -0.066642 0.311775 -0.767898 -0.119578 0.629312
-0.26644 0.234645 0.356053 -0.48455 0.625999 0.611012
0.0820126 0.021211 -0.294093 -0.806715 0.180577 0.562674
-0.193957 -0.0206587 0.209219 -0.731801 -0.0694554 0.67797
-0.35037 -0.183572 -0.164099 -0.605355 0.242983 -0.757961
-0.170769 0.310364 0.324869 0.44756 -0.753513 -0.481568
-0.384709 -0.131257 0.310832 0.548423 0.829659 -0.104391
-0.162891 0.561235 0.146668 -0.480521 0.546757 0.685679
0.0390829 -0.31918 0.132432 -0.294785 -0.953396 -0.064321
-0.0186616 -0.297526 0.0432112 -0.216321 -0.964529 -0.151289
-0.0626903 -0.373251 -0.488885 0.464837 -0.773223 -0.431338
-0.253666 -0.181363 -0.187789 0.364258 0.931235 0.0108488
-0.39703 -0.222228 0.38555 -0.527403 -0.817231 0.232336
-0.252052 -0.160433 0.345863 0.34624 -0.737947 -0.579268
-0.188955 0.095906 0.189815 -0.622105 0.440405 0.647324
-0.078605 -0.598575 -0.0398309 -0.514237 -0.824098 0.237535
-0.0778072 -0.161197 0.258169 0.696515 0.540226 -0.472254
0.013332 -0.271472 0.310022 -0.672249 -0.707296 0.218664
0.523897 0.0541816 -0.194302 -0.624666 -0.61421 0.482222
0.100749 0.00929858 -0.312424 0.685896 -0.0297567 -0.727091
-0.470153 -0.0366812 0.0240667 0.67807 -0.286178 0.676996
0.424712 0.343847 0.139135 -0.533797 -0.805985 0.25583
0.628668 -0.0646223 -0.221819 0.523482 -0.626506 -0.577457
0.506237 0.148285 -0.362754 0.565843 0.789105 -0.239031
0.266715 0.295516 -0.366468 -0.572812 -0.782583 0.243825
-0.144549 0.349996 0.308846 0.505791 -0.561703 -0.654725
0.361228 -0.0171344 -0.0208646 0.743829 0.14888 -0.651577
-0.185849 -0.082852 0.392852 0.694593 0.446544 -0.564038
0.00590749 -0.166962 -0.232798 -0.319094 0.672512 0.667762
0.0212041 0.638857 0.22192 -0.449825 0.697007 0.558425
0.00470812 -0.000452683 0.378847 0.696956 -0.271787 -0.663615
-0.315648 -0.142273 0.427998 0.666156 0.623778 -0.408824
0.422328 -0.0280312 -0.159236 -0.536897 -0.793296 0.287093
0.012284 0.262293 0.00249438 -0.231557 -0.963575 -0.133806
-0.519326 0.0495276 0.0660568 -0.596834 0.254023 -0.761092
0.200702 0.154705 -0.0754859 -0.669933 -0.621282 0.406446
-0.052136 -0.261583 0.203936 -0.547113 -0.805406 0.228011
-0.290588 -0.159961 -0.0359042 -0.71252 -0.64954 0.265354
-0.66064 0.0300779 0.233644 -0.508581 0.667042 0.544426
-0.00237047 -0.535884 -0.161867 0.116211 -0.924038 -0.36421
0.0962408 0.261384 -0.376981 0.63543 -0.238793 0.734307
-0.11362 -0.247413 0.108845 -0.543762 -0.810456 0.217908
0.0829474 -0.0547197 -0.509909 -0.675868 0.256602 -0.690911
-0.0505746 -0.375426 -0.258287 0.694517 0.604081 -0.390809
0.377325 0.121988 -0.40265 0.741682 0.408928 -0.531682
-0.292064 -0.38063 -0.287779 -0.63376 0.251989 -0.731334
-0.14532 -0.440369 0.192386 0.656517 0.731369 -0.184623
-0.0914085 0.415183 -0.155796 0.732697 -0.256813 0.63024
-0.450578 0.0940891 0.343476 -0.502997 0.579331 0.641382
-0.360483 -0.254115 0.288014 0.587646 0.772003 -0.242246
-0.114065 0.132962 0.560756 -0.478082 0.617184 0.624918
-0.590321 0.148808 0.159431 -0.672336 0.263982 -0.691576
0.0168704 -0.543468 -0.0610999 0.363579 0.927386 0.0881253
0.222847 0.178037 -0.061946 0.725291 0.617701 -0.303972
0.143898 0.577745 0.151497 0.599359 0.761118 -0.247927
0.0947304 0.401114 -0.362597 -0.552036 0.224144 -0.803129
0.302905 -0.039878 -0.462344 -0.435424 0.538803 0.721178
0.406379 0.365825 0.176776 0.536229 -0.186279 0.823261
0.637601 0.132359 -0.112326 0.624855 -0.239975 0.742945
-0.0374839 -0.529743 0.261718 0.581769 -0.273697 0.765921
-0.158388 -0.359646 0.431611 0.551229 -0.405831 0.729005
0.494953 0.298135 0.0727861 0.582481 0.77328 -0.250507
-0.238723 -0.41805 0.0466018 0.650881 0.695596 -0.304139
0.0871174 0.275453 -0.39811 -0.797488 0.22549 -0.559613
-0.475622 -0.117575 0.193127 -0.178285 -0.965979 -0.187349
-0.282164 -0.0879952 0.633068 -0.542619 0.669061 0.50786
-0.365384 0.168696 -0.0289093 -0.707377 0.234496 -0.666805
-0.14852 0.598461 -0.0760178 -0.650947 0.249057 -0.717104
0.250606 0.0419766 -0.346453 -0.741705 -0.539623 0.398347
-0.670478 -0.0929513 0.157436 -0.595257 0.239275 -0.767083
0.118457 -0.284679 -0.0327775 0.162249 -0.878676 -0.449002
-0.14248 0.259482 0.430698 -0.468146 0.566125 0.678485
0.136643 0.075248 -0.517588 -0.633883 0.250745 -0.731656
-0.143499 -0.435049 -0.141584 -0.734775 0.10016 0.670875
-0.000228941 0.404791 0.0647088 0.109203 -0.903646 -0.414124
0.230197 -0.642039 -0.0180645 0.540187 -0.460269 -0.704522
-0.346534 -0.410841 -0.0786676 -0.578746 -0.77772 0.245368
0.460214 0.137958 -0.490508 0.722972 0.215639 -0.656362
0.0127903 0.27869 0.501377 0.794512 -0.250235 0.553293
-0.290604 -0.138041 -0.0696213 0.641493 0.695981 -0.322641
0.248391 -0.29361 0.0400715 0.293532 -0.749338 -0.593575
-0.113188 -0.233783 -0.0439407 0.329996 0.942824 0.046743
-0.0924987 -0.4554 0.33751 0.733162 -0.263777 0.626813
0.121008 -0.70671 -0.0330114 -0.31355 -0.933085 -0.176176
0.39001 -0.221034 -0.27168 0.504971 -0.543903 -0.670204
-0.0855366 0.217709 0.510856 -0.544412 0.687303 0.480864
0.25971 -0.298921 0.0563432 0.191354 -0.779532 -0.596417
-0.56435 -0.111914 0.0517366 -0.394886 0.143835 -0.907401
0.364453 0.156825 -0.598811 0.827228 0.0200306 -0.561509
-0.18352 -0.177646 -0.278631 -0.0526563 0.961381 0.270136
-0.159669 -0.31814 -0.379533 -0.510207 0.268842 -0.816953
-0.247298 0.337275 0.248689 0.485251 -0.545019 -0.68373
-0.14849 -0.215298 0.475778 0.67743 -0.388091 0.624879
0.320059 0.256496 -0.470216 0.518569 0.814096 -0.261407
0.0182713 -0.408566 -0.186313 0.646512 0.639035 -0.416721
-0.0597818 -0.251383 -0.448857 -0.744126 0.30048 -0.596648
0.418339 0.133776 -0.266393 0.2941 0.953092 0.0715613
-0.0694837 -0.514825 0.237454 -0.537362 -0.813076 0.223942
-0.169794 -0.282821 -0.359118 -0.693289 0.290707 -0.659424
-0.00333608 -0.621554 -0.224992 0.503147 -0.60405 -0.618034
0.0172527 -0.248254 0.298188 0.687875 0.644293 -0.334238
-0.167012 0.511968 0.0505766 -0.684744 -0.178705 0.706534
0.112813 -0.0752089 -0.504563 0.637032 -0.244351 0.731083
0.372715 0.0754795 -0.41706 0.695181 -0.211357 -0.68706
0.166391 0.071977 -0.232836 0.850071 0.072583 -0.521643
-0.0684511 -0.241177 -0.171246 -0.0121235 -0.959671 -0.280863
0.0362929 -0.176286 -0.246837 0.395172 -0.713167 -0.578993
-0.349395 -0.0286298 0.364584 0.156043 -0.903325 -0.399567
0.230825 0.581469 0.377883 0.0245661 0.951984 0.305159
0.326804 0.168918 0.159183 0.593863 0.765757 -0.246866
-0.191626 -0.382137 0.272924 0.542518 0.807607 -0.231182
0.344752 -0.149829 -0.336468 -0.42122 0.482422 0.768012
-0.102439 -0.165088 0.258366 -0.752387 -0.431962 0.497316
0.238285 0.454621 0.358724 0.653052 -0.35097 0.671077
-0.155956 -0.0846485 0.527502 0.542347 -0.154835 0.825764
0.0473987 0.00274499 -0.431279 0.666743 -0.235891 0.706972
0.306541 -0.306966 -0.225375 -0.550086 0.332564 0.766033
0.00111721 0.284384 0.508825 0.612023 -0.241074 0.753201
-0.00479687 0.275124 -0.314224 -0.730984 0.160164 -0.663332
-0.310732 -0.220158 0.596539 -0.561249 -0.79386 0.234062
-0.0654159 0.302935 -0.217694 -0.528507 -0.838944 0.129818
0.102936 0.550202 0.0519975 -0.501145 -0.835747 0.224455
0.293697 0.240046 -0.58509 0.603006 0.747127 -0.279615
-0.0903654 -0.405193 -0.472329 -0.704759 0.243868 -0.666215
0.139749 0.491261 -0.0552356 -0.626999 -0.724647 0.285935
0.0342084 0.52506 -0.264881 -0.567064 0.265266 -0.77979
-0.289757 0.0161382 0.532684 -0.526201 0.672273 0.520731
0.327005 0.0709935 -0.261127 0.741876 -0.0077219 -0.670493
-0.0165667 0.0182658 0.3883 -0.62177 0.249698 0.742329
0.168459 0.400994 0.17933 0.693809 -0.297742 -0.655728
-0.424115 -0.242449 0.170155 0.602999 0.749629 -0.272852
-0.255382 0.20015 0.0275821 0.501377 -0.412635 -0.760495
-0.307179 -0.142688 0.444077 0.71169 0.537211 -0.45266
0.209866 -0.48004 0.0214768 0.559025 0.671204 -0.486802
-0.533513 -0.15804 0.295222 -0.527105 -0.803329 0.277167
-0.23103 0.579337 -0.00899989 -0.766202 0.290387 -0.573244
0.169331 0.357099 0.367855 0.74344 0.503857 -0.4398
-0.0197034 -0.133959 -0.445474 -0.589694 0.213179 -0.778984
0.108452 0.588424 0.33988 -0.504624 0.58197 0.637704
0.410475 0.224896 -0.355586 0.545825 0.799968 -0.249252
-0.236929 -0.280371 0.529265 0.534776 -0.293801 0.792272
0.0348826 -0.343658 -0.404019 -0.5441 0.375491 0.750308
0.239363 0.449697 -0.0419859 0.527637 0.814793 -0.240231
-0.0817994 0.523247 -0.10428 0.6973 0.105719 -0.70894
0.107955 0.385906 -0.381795 -0.678863 0.37937 -0.628668
0.202195 -0.218128 -0.0860323 0.421481 -0.625607 -0.656483
0.0195937 0.399693 0.0695475 0.229608 -0.818028 -0.527362
-0.104374 -0.599678 -0.323052 0.49626 -0.657798 -0.566593
-0.239716 0.123844 0.47774 -0.547327 0.636315 0.543633
-0.575458 0.169046 0.173803 -0.520238 0.434708 0.735106
0.0914014 -0.404157 -0.307168 -0.457103 0.524307 0.718442
-0.485334 0.14371 0.237451 0.509186 -0.543959 -0.666962
0.187698 0.338611 -0.469261 -0.589966 0.290371 -0.753409
-0.292365 -0.346688 0.243882 -0.561872 -0.791028 0.242023
-0.105955 -0.226557 0.108301 0.632989 0.73087 -0.255254
0.462371 -0.0432495 -0.199889 -0.189235 -0.981197 -0.0379809
-0.0755308 0.208316 0.492526 0.52282 -0.486207 -0.700187
-0.071095 0.425205 -0.00715919 0.0978427 -0.96047 -0.260624
0.462783 -0.110086 -0.31837 0.492671 -0.598036 -0.632161
0.204692 0.406426 -0.167946 -0.572787 -0.781941 0.245934
0.122309 -0.441538 0.0705316 -0.106513 0.907377 0.406598
-0.231401 -0.574495 -0.32833 -0.470141 -0.859975 0.198522
0.505212 0.0181558 -0.394549 0.500963 -0.60177 -0.62202
-0.412666 -0.394389 -0.179915 -0.569615 -0.781955 0.25315
-0.17916 -0.460142 -0.321789 0.0726085 0.968647 0.237593
-0.128259 -0.590955 -0.137966 -0.478787 -0.834808 0.27177
0.292997 0.0715255 -0.606909 0.499049 -0.569778 -0.652919
0.230602 -0.0348721 -0.561226 0.539989 -0.603508 -0.586676
0.00535281 0.554442 0.089246 0.323329 0.929169 -0.179173
-0.23782 0.14293 0.118782 -0.55588 0.388863 0.7347
0.410611 0.0850339 -0.161174 -0.500905 0.689312 0.523395
0.0535348 0.156631 -0.293188 -0.756876 -0.397942 0.518441
-0.544245 0.0356673 0.199271 -0.505847 0.623642 0.595978
-0.258558 -0.0235455 0.41993 0.342179 0.938252 0.0509551
0.125593 0.628722 0.249496 0.0512092 0.967619 0.247167
-0.234178 0.550392 -0.0173347 -0.572903 0.275862 -0.771805
0.144244 -0.266834 -0.00227273 -0.183103 0.821042 0.540707
-0.245216 -0.160226 0.566332 -0.746584 -0.248587 0.617104
-0.184478 -0.141577 0.164079 -0.694091 -0.49323 0.524368
0.204332 0.339449 -0.473459 0.578627 0.777324 -0.246897
0.00615458 0.389078 -0.285362 -0.600707 0.218144 -0.769132
-0.0992766 -0.0539175 0.280632 0.730941 0.124859 -0.670921
0.0179663 0.544608 0.30844 -0.472714 0.451882 0.756534
0.322324 0.323761 -0.149208 -0.5377 -0.812021 0.226938
0.438775 0.169939 -0.470953 0.604044 0.761633 -0.23462
0.0360713 0.541587 -0.131688 -0.556174 -0.79864 0.229881
-0.266135 -0.146132 0.32079 0.479775 -0.57535 -0.662412
0.123915 -0.557532 -0.0635272 0.333591 -0.801594 -0.49615
-0.309834 -0.0996971 0.617675 -0.489402 0.619026 0.614241
-0.430292 0.230651 0.235894 -0.498616 0.551019 0.669149
-0.490393 -0.0371364 0.00972136 -0.577087 0.250353 -0.777364
-0.0620175 -0.505587 -0.247024 0.290431 -0.827313 -0.480836
-0.574972 -0.141592 0.0454714 -0.586631 0.303415 -0.750869
0.418188 0.289169 -0.129443 0.655668 0.728614 -0.198045
0.00643009 0.384441 0.183178 -0.668913 -0.71818 0.191763
0.432073 0.319782 -0.0138612 0.495811 0.846659 -0.193233
0.0237206 0.25384 -0.177827 -0.671294 -0.686586 0.27922
0.0109264 -0.651327 -0.0971363 0.577647 0.777292 -0.249283
-0.162132 -0.342649 -0.234825 -0.18506 0.881795 0.43381
-0.255197 -0.493129 -0.124631 -0.511719 -0.82969 0.223064
0.263453 0.478273 0.0984278 0.435854 0.88844 -0.143892
-0.359591 0.320463 0.170931 0.519177 -0.605937 -0.60274
-0.250229 0.0296987 0.110661 0.728438 -0.0457618 -0.683582
-0.397735 -0.112247 0.190993 0.32242 -0.81731 -0.477546
-0.296108 0.436107 -0.00611754 -0.674298 0.256201 -0.692592
0.259472 0.165119 -0.409325 -0.0516659 -0.961444 -0.270103
0.208458 0.391232 -0.30251 0.566277 0.788244 -0.240834
0.480643 -0.215066 -0.169885 -0.515958 0.490168 0.702512
0.028258 -0.285428 -0.498336 0.450034 -0.535178 -0.714881
0.285377 -0.408693 -0.187764 0.508539 -0.542413 -0.668713
-0.188802 -0.0226242 0.212296 -0.686918 -0.178201 0.704549
-0.461743 -0.261339 -0.0955068 -0.698291 0.17633 -0.693756
0.284902 0.148 -0.319769 -0.416318 0.697246 0.583546
-0.378258 0.370381 0.0514371 -0.622796 0.249944 -0.741386
0.344529 0.412322 0.0833773 0.615984 0.740731 -0.268108
0.109628 0.345053 0.286017 -0.662627 -0.740209 0.114089
0.164366 0.0851088 -0.515228 0.290589 0.952525 0.0908541
-0.345635 -0.0227469 0.022796 -0.769913 -0.263629 0.581148
-0.121182 0.187232 0.17609 -0.41424 0.747493 0.519287
-0.328082 0.489611 0.0813239 -0.506355 0.608181 0.611327
0.0381863 0.511773 -0.269767 -0.615456 0.248387 -0.748009
-0.414257 0.273002 0.0472547 -0.63766 0.253541 -0.727397
-0.461731 0.312138 0.140158 -0.490688 0.561789 0.666047
0.245644 0.410261 -0.153469 0.611687 0.756561 -0.231201
-0.396965 0.24527 0.0570487 0.680936 -0.20199 0.703936
0.089967 -0.680135 0.0956991 -0.576339 -0.779021 0.246899
-0.441925 0.100039 0.341505 -0.506376 0.566199 0.650387
0.413405 0.344058 0.0267255 0.550337 0.788582 -0.274348
0.203074 -0.450615 -0.216278 0.490959 -0.695016 -0.525273
-0.551215 0.0478239 0.30814 -0.515254 0.53419 0.67019
-0.499736 0.115165 0.24634 0.46483 -0.661035 -0.589038
-0.0547447 -0.543841 0.0840921 0.622159 0.722951 -0.300432
