ply
format ascii 1.0
comment Created by Open3D
element vertex 400
property double x
property double y
property double z
property double nx
property double ny
property double nz
end_header
0.0193992 0.409398 -0.344175 -0.100656 0.510434 -0.854006
-0.0909072 -0.247762 0.208021 0.338568 -0.351268 -0.872916
-0.0417067 0.503509 -0.0360467 0.397997 -0.880829 0.256396
-0.187649 0.408445 -0.149183 0.348263 -0.893945 0.282091
-0.109794 -0.0243525 -0.538792 -0.880559 -0.450407 -0.147479
-0.0740191 0.518039 0.0571263 0.383953 -0.885785 0.2607
0.213814 -0.0285342 -0.463852 0.231936 -0.138975 -0.962752
0.317122 -0.29096 -0.232065 -0.442228 0.771608 0.457225
0.249566 0.0967129 -0.477907 0.286885 -0.205114 -0.935749
-0.146687 0.044856 -0.277413 0.404394 -0.912444 -0.0625441
-0.084194 0.221142 -0.441487 -0.137427 0.502844 -0.853383
-0.379053 0.290038 0.133996 -0.907449 -0.396472 -0.139088
0.330202 -0.257976 -0.331487 0.444599 -0.79159 -0.419186
0.175316 -0.398469 -0.251334 0.466865 -0.76133 -0.449903
-0.25526 0.406897 0.108382 0.454049 -0.708322 -0.540481
-0.271286 0.209612 0.357785 -0.210555 0.164913 0.963572
0.0604183 0.0643467 -0.492241 -0.252313 0.12609 0.959395
0.128419 -0.350851 -0.371068 0.453899 -0.788764 -0.414519
0.20515 -0.405897 0.125347 -0.40758 0.885903 -0.221484
-0.00893257 0.0775559 -0.534589 -0.0861389 0.498935 -0.862348
0.116781 -0.469502 -0.13686 -0.454399 0.738026 0.498838
-0.129367 0.39522 -0.337391 -0.0607618 0.489037 -0.870144
-0.340524 0.106767 0.417546 -0.270975 0.209827 0.939439
-0.256254 0.124255 0.13785 0.244869 -0.748313 0.616495
-0.241284 0.332287 0.234345 0.424873 -0.732316 -0.532162
0.010006 0.480393 -0.192452 0.408902 -0.886839 0.215212
0.0216782 0.194773 0.493511 -0.254902 0.174539 0.951084
-0.184711 0.324382 0.299629 0.522233 -0.673343 -0.523337
-0.336259 0.31402 0.0827437 0.906448 0.385653 0.172116
-0.0366688 -0.048804 -0.525888 0.251537 -0.223548 -0.941677
-0.167914 -0.256545 0.448354 0.127882 -0.501409 0.855708
-0.233665 0.182415 -0.366386 0.43751 -0.892055 -0.113238
-0.0283938 -0.0738284 0.532257 -0.246459 0.154756 0.956718
-0.297721 0.0349424 0.408044 0.379072 -0.369347 -0.848462
0.0812299 -0.441126 -0.271041 0.444679 -0.746749 -0.494597
0.116633 -0.483719 -0.00245124 -0.373202 0.885294 -0.277442
-0.194297 0.410735 0.156234 0.434725 -0.768807 -0.468988
0.26058 -0.251267 -0.402532 0.414102 -0.780671 -0.468053
-0.162635 -0.121355 0.0244076 -0.886476 -0.437655 -0.150393
-0.194182 0.0134715 -0.128857 -0.405465 0.913593 0.0307654
0.192704 -0.0392694 -0.438521 -0.270991 0.194403 0.942747
0.0677682 0.16083 -0.493249 -0.0827578 0.496565 -0.864046
0.380361 -0.288567 -0.173189 -0.436653 0.788407 0.433299
-0.169301 0.372429 0.238654 0.502838 -0.689688 -0.521042
-0.299718 0.2773 -0.256084 0.129934 -0.574728 0.807963
-0.201718 0.0786951 -0.271736 -0.904662 -0.383493 -0.185793
0.00437664 -0.172668 0.444378 -0.0825423 0.493311 -0.865928
-0.0229907 0.308377 0.375992 0.345895 -0.40779 -0.845023
-0.00369792 -0.168762 0.449597 -0.0424713 0.472313 -0.880407
-0.0131906 -0.362229 -0.155206 -0.898492 -0.403311 -0.173356
-0.128567 -0.164457 0.496883 0.0187206 -0.459575 0.887942
-0.134662 -0.00481556 -0.170818 0.925788 0.350286 0.142183
0.176419 -0.444045 -0.178155 0.439813 -0.772034 -0.458832
0.292066 -0.27216 0.310802 0.909493 0.387556 0.150411
0.0133542 -0.308147 -0.458987 -0.865693 -0.472593 -0.165021
0.197606 -0.383415 0.215605 -0.368456 0.87877 -0.303322
0.0359844 -0.518954 0.0944517 0.386534 -0.88391 0.26324
-0.131556 -0.320409 0.387683 -0.888805 -0.430282 -0.157745
0.0146807 0.493906 -0.203892 0.909566 0.380252 0.167624
-0.0899513 0.191568 0.46608 -0.272266 0.198334 0.94156
-0.0722112 -0.180019 -0.0561977 0.881356 0.456019 0.123521
-0.0291643 0.522772 -0.0285716 0.872386 0.470349 0.133094
-0.0983185 -0.0641727 0.482151 0.238793 -0.155239 -0.958582
-0.110717 0.51487 0.131061 -0.423678 0.787885 0.446917
0.135066 0.0402541 -0.496513 0.191073 -0.166439 -0.967362
-0.254943 -0.0926329 0.475978 -0.897419 -0.40343 -0.178558
0.0402782 -0.394708 -0.106931 0.867891 0.469458 0.162402
0.0416917 -0.423695 -0.271749 -0.374822 0.518619 0.768468
0.0102481 -0.243107 0.404075 -0.0545837 0.495939 -0.86664
-0.375194 0.231984 0.268677 -0.903517 -0.397949 -0.15904
-0.230271 -0.0290823 0.468097 -0.244423 0.171134 0.954448
0.110479 -0.127099 0.494309 0.163271 -0.488136 0.85736
-0.0173846 -0.28428 -0.125006 -0.0698878 -0.218987 0.973222
0.179705 -0.394669 -0.254508 0.436594 -0.740528 -0.510886
-0.0621953 0.381652 -0.353076 -0.160542 0.521321 -0.838124
-0.111247 0.513244 -0.0137761 -0.354605 0.892734 -0.277995
-0.166123 -0.147712 0.125026 -0.893048 -0.415491 -0.172723
-0.409172 0.378312 0.0539019 -0.83785 -0.512312 -0.188531
-0.0890459 0.362025 -0.269563 0.185758 -0.635542 0.749386
-0.0903816 0.345961 0.416445 -0.450562 0.737674 0.502824
0.201031 -0.382889 0.205482 -0.37084 0.882425 -0.28949
0.208284 0.187795 -0.469126 0.91101 0.357801 0.205032
0.18465 -0.447253 0.0248603 -0.430071 0.872594 -0.231558
0.0507075 -0.12318 -0.460446 -0.254448 0.153027 0.954902
0.139828 -0.036868 0.524148 0.90562 0.378805 0.190683
0.0501809 -0.426083 0.328357 0.100977 -0.498731 0.860855
-0.00259468 -0.27836 -0.362582 -0.453074 0.816372 0.358136
0.277127 -0.457636 -0.0649912 0.454395 -0.727773 -0.513685
0.00438857 -0.00631092 0.529625 -0.227083 0.144169 0.963145
-0.108186 -0.186321 0.164354 0.886531 0.434087 0.160096
-0.00698482 0.400772 -0.256419 0.186133 -0.650384 0.736448
0.215172 -0.181682 0.451963 0.049369 -0.470007 0.881281
0.261354 -0.372357 0.161951 -0.32686 0.888003 -0.323439
0.163849 0.247602 -0.452796 -0.0596364 0.494884 -0.86691
-0.14944 0.121178 0.433325 0.240249 -0.13886 -0.960728
0.0331633 -0.483296 -0.0971622 -0.893347 -0.420187 -0.159294
0.107943 -0.260107 -0.368558 -0.393729 0.615738 0.682528
0.344984 -0.340043 -0.127992 -0.413869 0.784868 0.461188
0.00422921 -0.493264 0.232939 0.373427 -0.885712 0.2758
-0.192946 0.350726 0.310813 -0.443007 0.744535 0.499412
0.133863 -0.347376 -0.371665 0.422272 -0.777104 -0.466686
0.205065 -0.275735 -0.415366 0.442504 -0.776352 -0.448852
0.171043 -0.216114 -0.395844 -0.355646 0.902155 -0.244197
-0.167192 0.316181 -0.292254 0.230725 -0.782952 0.577713
-0.384914 0.358077 -0.0116491 -0.896473 -0.409552 -0.169125
-0.043042 -0.445062 0.326342 0.109373 -0.498219 0.860125
-0.0358852 -0.367633 0.244953 0.869793 0.478867 0.118935
-0.341799 0.232166 0.0845584 -0.880525 -0.448645 -0.152945
-0.0191021 -0.310674 -0.267998 -0.888059 -0.431026 -0.159899
0.242598 -0.298062 -0.348435 0.463351 -0.728837 -0.504085
-0.223292 -0.13714 0.410626 -0.891786 -0.432369 -0.133322
-0.237529 0.336114 -0.360869 -0.0969204 0.50681 -0.856592
0.101266 0.0423503 0.540356 0.870672 0.458743 0.177442
-0.344131 0.186324 0.228089 -0.897256 -0.405505 -0.174637
0.207358 -0.294537 0.302219 -0.269088 0.800868 -0.534978
-0.0101317 0.226999 -0.447056 -0.113415 0.521443 -0.845715
0.00314362 -0.316883 0.395982 0.0902235 -0.500863 0.860811
-0.0694709 0.361414 -0.275066 0.295666 -0.80555 0.513488
-0.344297 0.23691 0.0814269 -0.884805 -0.443459 -0.143051
0.073862 -0.536962 -0.12933 0.44757 -0.723634 -0.525389
-0.0243232 0.467055 -0.288712 -0.400411 0.877159 -0.265073
-0.150995 0.191442 0.420465 0.281584 -0.226265 -0.932478
-0.108756 -0.185512 0.164391 0.892373 0.42722 0.145441
0.059361 0.334445 -0.392044 -0.10657 0.515194 -0.850422
0.307777 -0.0576708 -0.432844 0.239146 -0.157741 -0.958085
0.132172 -0.0675706 -0.477826 0.263645 -0.192718 -0.945173
-0.00282868 -0.238083 -0.428524 -0.428471 0.659195 0.61796
0.0490543 0.0585772 -0.493066 -0.254362 0.200915 0.946009
0.139018 -0.16889 0.437726 -0.0923897 0.499406 -0.861427
0.241826 -0.383232 -0.153729 -0.471593 0.763351 0.441469
0.240643 -0.310979 -0.270098 -0.450966 0.73465 0.506871
-0.331765 0.105567 0.41601 -0.255208 0.199007 0.946184
-0.207578 0.227143 0.343474 0.300921 -0.312519 -0.900988
-0.121315 0.437302 0.238189 -0.432474 0.776731 0.457881
0.130048 -0.531023 -0.076468 0.369683 -0.881535 0.293652
-0.161936 0.0292022 -0.356537 0.430492 -0.8645 0.259452
-0.196064 0.157989 -0.277136 -0.258535 0.114546 0.959187
-0.126722 0.000682558 -0.4277 0.195948 -0.672708 0.71349
-0.0939962 0.00959314 0.469883 0.251852 -0.221198 -0.942148
-0.21557 0.278154 0.404647 -0.440333 0.767832 0.46534
0.330907 -0.346628 -0.193616 0.445673 -0.778879 -0.441274
-0.316963 0.180142 0.40825 -0.244439 0.170579 0.954543
0.0377537 -0.420427 0.332461 0.103413 -0.507236 0.85558
-0.0270758 0.489763 -0.109085 0.391442 -0.885062 0.25187
0.100775 -0.497752 0.0788471 0.422541 -0.886006 0.190927
-0.193579 -0.0616626 0.0701557 -0.257761 0.19072 0.947199
0.0546471 -0.360819 -0.423904 0.448913 -0.749659 -0.486301
-0.0813999 0.0833778 -0.490122 0.130157 -0.49758 0.857597
0.0204251 -0.274833 -0.341268 -0.453282 0.85839 0.240212
-0.104131 -0.167583 -0.125345 0.0611811 0.225212 -0.972387
0.269654 -0.460864 -0.063871 0.441322 -0.765267 -0.468616
-0.252984 -0.100493 0.467499 -0.84953 -0.491243 -0.192298
-0.323122 0.348259 -0.251787 -0.375107 0.886027 -0.272489
0.0406529 0.469681 -0.284761 0.897579 0.434786 0.0728942
0.241585 -0.346366 -0.215617 -0.454392 0.743313 0.490931
0.192877 -0.479053 -0.104924 0.45427 -0.768554 -0.450514
0.0667361 -0.209493 -0.468687 0.254772 -0.179224 -0.950247
-0.13394 0.0817776 -0.41663 0.912012 0.373546 0.169403
-0.118315 -0.154985 -0.11539 -0.896018 -0.417892 -0.150063
-0.0667134 0.449472 -0.182596 0.435999 -0.889769 0.134965
0.0764926 0.106015 0.502562 0.87954 0.447567 0.161537
-0.22282 0.443048 -0.0897419 -0.310434 0.904245 -0.293209
0.281462 0.0171341 -0.453299 0.243244 -0.149754 -0.958335
-0.31292 0.245688 0.305615 0.439548 -0.766202 -0.468757
0.138653 0.176565 -0.459043 0.0759503 -0.495391 0.865343
-0.318106 0.388879 0.0743901 0.445984 -0.746243 -0.494185
0.194728 -0.391098 0.294383 0.260886 -0.916582 0.30301
-0.238424 0.265826 -0.326304 0.884971 0.426188 0.187589
-0.192908 0.125646 -0.469826 -0.882558 -0.442223 -0.159782
-0.364779 0.349096 -0.0983636 -0.90156 -0.403216 -0.156868
-0.175611 0.00371312 0.0410146 0.893493 0.415691 0.169914
0.159634 0.240552 -0.454381 -0.157363 0.506729 -0.847622
-0.0867592 0.0949226 0.487068 -0.255923 0.180429 0.94971
-0.266868 0.407521 -0.0392084 0.395984 -0.887041 0.237394
-0.063911 0.18942 0.472616 -0.256325 0.197757 0.946145
-0.155561 -0.0925648 0.00861152 0.0228014 0.414458 -0.909783
-0.128662 -0.176812 0.244645 -0.455622 0.882627 0.115662
0.167953 -0.460796 0.107362 0.385115 -0.884866 0.262105
0.314672 -0.345714 0.169514 -0.448022 0.871908 -0.197618
0.309173 -0.312266 -0.261652 0.454502 -0.73716 -0.500023
-0.162329 0.012313 0.450064 0.248912 -0.166532 -0.954102
-0.337805 0.421705 0.00704041 -0.416245 0.883573 -0.214565
-0.284692 0.165524 0.19415 0.889433 0.397652 0.225348
-0.179582 -0.241254 0.448941 -0.897048 -0.411281 -0.161717
0.150957 -0.333271 0.279271 -0.189565 0.651239 -0.734815
0.2437 -0.0921387 -0.443902 0.314493 -0.190967 -0.929853
-0.0111469 -0.359609 0.33688 -0.0823725 0.494773 -0.86511
0.0504418 -0.335858 0.347662 -0.089119 0.500331 -0.861236
-0.216924 0.207248 -0.438017 -0.0828194 0.49887 -0.862711
-0.113415 0.378798 0.336106 -0.446654 0.751493 0.485549
-0.0741322 -0.400339 0.355359 0.0739739 -0.492085 0.867399
-0.111583 -0.158007 0.0566436 0.412529 -0.910618 -0.0243688
0.317961 -0.426815 0.00734387 0.355213 -0.893174 0.275797
0.119284 -0.424089 0.297359 0.439955 -0.879656 0.180676
0.289069 -0.282058 0.293049 -0.0473568 0.347991 -0.936301
-0.147505 0.274545 0.433927 -0.193304 0.16083 0.967867
-0.317375 0.170066 0.116928 -0.889886 -0.427734 -0.158574
0.0456917 -0.380148 0.262757 -0.195065 0.67295 -0.713504
0.212655 -0.165826 0.458381 0.894325 0.417557 0.160715
-0.0948286 0.0115797 -0.434548 0.888184 0.428535 0.165788
-0.0405869 0.414447 0.327286 0.89072 0.41641 0.182266
-0.202409 0.438718 -0.0180398 0.388368 -0.890585 0.236704
0.201547 -0.351657 0.35814 0.112909 -0.519806 0.84679
0.229181 -0.1633 -0.404682 -0.25962 0.149555 0.95406
-0.0468071 0.423112 0.332335 -0.440373 0.780872 0.44307
-0.250515 0.472764 0.0474751 -0.381979 0.885308 -0.265184
-0.316946 0.324859 0.236715 -0.467695 0.775356 0.424364
0.012164 -0.356595 -0.325039 -0.898341 -0.408331 -0.162016
0.318877 -0.422792 0.0183423 0.350154 -0.874343 0.336031
-0.141871 0.0358149 -0.358904 0.348904 -0.862082 0.367532
-0.25805 0.306851 0.318525 -0.444936 0.770447 0.456557
-0.140632 0.441912 -0.211688 -0.373548 0.885962 -0.274833
-0.0771891 0.273894 -0.380896 0.0868151 -0.511459 0.854911
-0.0387377 0.379677 0.396337 0.904645 0.392743 0.165441
0.0915013 -0.264318 -0.373236 -0.388348 0.591162 0.706904
-0.0922734 -0.0700497 -0.478019 0.102468 -0.409758 0.906421
-0.282013 0.409382 -0.10831 -0.362187 0.891195 -0.273115
0.110946 -0.373377 -0.291991 -0.45149 0.745178 0.490781
0.00429238 0.394053 -0.26667 0.338821 -0.843829 0.416117
0.200414 -0.485297 -0.0230688 0.286789 -0.901915 0.322958
-0.2241 -0.163736 0.48362 -0.852563 -0.496581 -0.162924
-0.0108809 -0.325044 -0.258883 0.310677 -0.803621 0.507615
-0.149052 0.199428 -0.416905 0.0935285 -0.500256 0.860811
0.259553 -0.372297 0.26502 0.296486 -0.902816 0.31148
0.301737 -0.187385 -0.410768 0.285907 -0.207049 -0.935622
0.101877 -0.306586 -0.440382 0.23845 -0.150571 -0.959411
0.15545 -0.447188 -0.197919 0.42183 -0.718303 -0.553264
-0.26214 0.295389 0.33027 -0.447911 0.74694 0.491382
0.0175302 -0.0970243 0.487115 -0.135008 0.545912 -0.826894
-0.170188 0.5073 0.0502455 -0.419237 0.871459 -0.254556
0.0332821 -0.524975 0.0873523 0.404224 -0.881257 0.244926
-0.120219 0.387218 0.321739 -0.427916 0.747542 0.508005
0.0638232 -0.130646 -0.483684 0.261352 -0.184772 -0.947393
0.304873 -0.405236 -0.116868 0.456136 -0.737034 -0.498719
-0.113123 0.518426 0.118569 -0.400104 0.817213 0.414826
-0.155769 0.328376 0.379034 -0.493713 0.709671 0.502607
-0.360196 0.175865 0.33236 -0.895162 -0.414433 -0.164106
0.0462166 -0.543048 0.00308778 0.39112 -0.900599 0.189598
-0.138715 -0.206346 0.300546 0.352647 -0.893311 0.278633
-0.160821 0.127852 0.459877 -0.254616 0.133676 0.957759
-0.187791 0.0182007 -0.209226 -0.87822 -0.417864 -0.232635
0.135012 0.313566 -0.390981 0.892027 0.424143 0.156174
0.0884763 -0.282074 0.374749 -0.124759 0.533652 -0.836451
-0.320565 0.302738 0.263873 -0.454088 0.743653 0.490697
-0.201511 0.0260624 -0.0280328 -0.368223 0.828659 -0.421587
-0.26283 0.209535 -0.297172 -0.879435 -0.450552 -0.153614
0.374232 -0.198433 -0.357647 0.897448 0.408642 0.166131
-0.20252 -0.181063 0.495522 0.0697487 -0.471588 0.879056
-0.0379883 0.306551 0.370808 0.332755 -0.316985 -0.888141
-0.16154 -0.253975 0.374546 0.33322 -0.369954 -0.867236
-0.10865 0.462154 -0.0767253 0.356859 -0.88315 0.304464
0.121859 -0.0334271 -0.487487 0.288976 -0.218568 -0.932052
0.0421555 -0.478481 -0.0116706 -0.483812 0.804567 0.344381
0.143943 0.133508 -0.511356 0.279051 -0.187129 -0.941867
-0.0166373 0.316184 0.447187 0.904035 0.403672 0.140607
0.0983565 0.0420869 0.54266 0.883371 0.432898 0.179597
0.181523 -0.348878 -0.32277 0.428176 -0.731456 -0.530696
-0.16594 -0.0555448 -0.124964 -0.881071 -0.445196 -0.159735
0.31165 -0.4052 -0.115523 0.457052 -0.770031 -0.445147
0.0975983 -0.477541 0.147305 0.377787 -0.894962 0.237318
0.359684 -0.377469 0.10672 0.332959 -0.876103 0.348686
-0.339596 0.397009 0.0997845 -0.456679 0.76164 0.459727
-0.293104 0.359925 0.14667 0.439659 -0.761497 -0.476259
0.176671 -0.0991892 0.483076 0.89225 0.427059 0.146662
-0.0799449 -0.276223 0.396303 -0.0825845 0.498846 -0.862747
0.137234 -0.3436 0.274903 -0.0671519 0.549396 -0.832859
-0.0230766 -0.129803 -0.507445 0.297454 -0.255804 -0.919829
-0.00659678 -0.49316 0.152249 -0.892138 -0.420553 -0.165001
-0.293121 0.149976 0.288337 0.878496 0.458839 0.133089
0.351631 -0.132745 -0.398305 0.893989 0.431413 0.121104
-0.328065 0.317263 0.00269445 0.4217 -0.718811 -0.552703
-0.0550644 0.472134 0.243887 0.88876 0.421476 0.180176
0.120939 -0.36636 0.355758 0.0834014 -0.496867 0.86381
-0.0320916 0.254161 0.43906 0.253696 -0.178098 -0.950747
-0.0426593 -0.435558 0.222952 -0.883564 -0.437945 -0.16589
0.0400748 -0.0384546 -0.478474 -0.29912 0.217969 0.928987
0.061191 0.142637 -0.503896 -0.11255 0.523643 -0.844471
0.184458 -0.481651 -0.111526 0.446664 -0.752205 -0.484437
-0.0886259 -0.243654 0.227296 0.891154 0.432157 0.138151
-0.254404 0.130611 0.432002 -0.257661 0.102932 0.960737
0.112804 -0.377469 -0.284609 -0.442864 0.760685 0.474583
-0.165075 -0.237434 0.368132 -0.894519 -0.438632 -0.0862479
0.220417 -0.246044 0.382662 -0.0268335 0.495447 -0.868223
-0.27509 0.1206 0.0672563 0.0532142 0.304015 -0.95118
-0.180143 -0.0440134 -0.0439124 0.363667 -0.871499 0.328992
0.0663269 -0.458879 0.248132 0.306715 -0.906509 0.290116
-0.0159714 0.0618942 0.481183 0.221382 -0.120646 -0.967695
0.380091 -0.247661 -0.254587 0.883152 0.4509 0.129355
-0.117851 0.482854 -0.00288234 0.379582 -0.88542 0.268231
-0.260517 0.266365 -0.401232 -0.136491 0.523178 -0.841222
0.0860842 -0.272217 0.413849 0.108447 -0.518463 0.848196
-0.223852 0.0503666 0.427707 0.254107 -0.202331 -0.945776
0.0635376 -0.408226 -0.34034 0.447763 -0.753915 -0.480749
0.258588 -0.225202 -0.331328 -0.108536 -0.182053 0.97728
0.396011 -0.35015 -0.0720195 0.915337 0.358802 0.182808
-0.25477 0.385096 -0.230807 -0.37273 0.88658 -0.273948
-0.286928 0.363361 -0.161198 0.380356 -0.886526 0.263442
-0.0603257 0.509259 0.180516 0.882415 0.447224 0.146062
-0.0118828 0.163545 -0.48281 -0.0483209 0.476864 -0.877648
-0.17872 0.478985 0.122947 -0.416681 0.807919 0.416706
0.180775 -0.127502 -0.453072 0.255464 -0.178406 -0.950215
0.0699401 -0.552217 -0.0595875 0.36448 -0.88823 0.279645
-0.242612 0.330075 0.239331 0.447859 -0.753688 -0.481016
-0.0156915 0.491896 -0.110027 0.385547 -0.886408 0.256193
0.134099 -0.175142 -0.428212 -0.263858 0.192303 0.945197
-0.32571 0.350467 -0.247592 -0.390951 0.883605 -0.25768
-0.139998 0.269363 -0.410195 -0.116626 0.563719 -0.817692
-0.0605794 -0.137654 0.473307 -0.128164 0.549861 -0.825365
-0.198968 0.44825 8.55965e-05 0.311485 -0.899303 0.30697
-0.0871789 -0.374195 0.285272 -0.894043 -0.427315 -0.134494
-0.352445 0.350857 -0.17755 -0.886398 -0.436096 -0.155301
-0.149316 -0.108941 0.104864 -0.377109 0.501767 0.778472
-0.0745316 0.517363 0.0552275 0.409495 -0.875277 0.257301
-0.076564 -0.238523 -0.147359 -0.892348 -0.419835 -0.165693
0.0476003 -0.441773 -0.201285 -0.373007 0.881188 -0.290471
-0.181828 0.0182208 -0.115789 -0.433143 0.901287 0.00832746
-0.0933413 -0.327977 0.229558 0.198027 -0.118985 -0.972948
0.121865 -0.244989 -0.447629 0.240782 -0.143556 -0.959904
-0.333062 0.399566 -0.0725975 -0.409558 0.881827 -0.23376
0.0476595 -0.460045 0.180604 -0.396197 0.883937 -0.248361
0.247821 -0.443853 0.0436653 0.373326 -0.884117 0.281006
0.342653 -0.128564 -0.382322 -0.265489 0.207259 0.941573
-0.14932 0.262611 0.351961 0.23505 -0.119682 -0.964587
-0.164329 -0.114015 0.474152 0.260329 -0.25224 -0.931989
-0.0547006 -0.143822 -0.507561 -0.875502 -0.453546 -0.166713
0.394642 -0.305787 -0.175862 0.866703 0.477792 0.143322
-0.331126 0.427134 0.0138887 -0.388468 0.888698 -0.243532
-0.283559 -0.0240495 0.439873 -0.8802 -0.451143 -0.147371
-0.129873 0.446458 0.162264 0.419899 -0.776638 -0.469594
0.139432 -0.0595836 0.533621 0.127586 -0.525291 0.841303
-0.081471 -0.161557 -0.0515497 0.852692 0.499806 0.152023
0.0951555 0.270516 -0.399821 0.0498712 -0.480858 0.875379
0.122675 -0.449163 0.207859 0.306176 -0.903978 0.298463
0.0692933 0.208147 -0.433882 0.0524745 -0.406231 0.912263
-0.242564 0.340311 -0.287588 -0.314009 0.467818 0.826162
-0.0895101 0.44384 -0.270888 -0.323875 0.884624 -0.335478
-0.181307 0.134827 -0.483737 -0.0174389 0.459572 -0.887969
0.00762502 0.282612 -0.383675 0.146863 -0.494233 0.856834
0.00565785 0.344568 -0.347531 0.119798 -0.518283 0.846777
-0.18098 -0.167256 0.34697 -0.23912 0.780092 -0.578168
0.36458 -0.377404 0.106298 0.337195 -0.857583 0.388396
-0.115199 -0.0873822 -0.0555222 0.90503 0.393275 0.162035
0.230947 -0.185981 -0.429848 0.274988 -0.232366 -0.932946
0.132361 0.0527192 -0.499859 0.286842 -0.196504 -0.937607
-0.113515 -0.0749628 -0.126549 0.262257 -0.210435 -0.941774
-0.348458 0.347288 0.170816 -0.451066 0.724549 0.521121
0.30061 -0.315388 0.365893 0.133654 -0.516511 0.845786
-0.166609 -0.0512378 0.491742 -0.246522 0.123238 0.96127
-0.23366 0.12012 0.440683 -0.273412 0.19676 0.941558
-0.141354 0.0910345 -0.418439 -0.423225 0.594978 0.683287
0.163333 -0.254047 0.417029 0.072609 -0.488156 0.869731
0.272413 -0.41381 0.111208 0.398108 -0.894228 0.204611
0.348209 -0.166711 -0.316927 -0.258639 0.133342 0.956727
0.0747512 -0.188128 0.462654 0.0365084 -0.460954 0.886673
-0.106206 0.158858 -0.478148 -0.00944213 0.461736 -0.886967
0.181033 -0.260006 -0.346485 -0.106364 -0.114394 0.987725
-0.0213581 -0.210501 -0.49221 0.263423 -0.229948 -0.936874
-0.287972 0.112283 0.358147 0.429147 -0.674055 -0.601234
-0.0784611 0.451761 -0.158042 0.386087 -0.884058 0.263398
-0.0725391 -0.329726 0.34571 0.897213 0.418257 0.141667
-0.121652 0.32992 -0.375401 -0.0956662 0.549151 -0.83023
-0.0447186 -0.278822 -0.195946 -0.892772 -0.428358 -0.139524
-0.112425 0.460377 -0.0781909 0.42661 -0.879259 0.211915
-0.247623 0.0505027 0.0375202 -0.851363 -0.508453 -0.129061
-0.00240133 0.0917196 0.507639 -0.256501 0.143393 0.955848
-0.254022 0.389088 0.193199 -0.427404 0.727928 0.53614
0.279716 -0.322886 0.363378 0.0722204 -0.491584 0.86783
0.249686 0.0991554 -0.472644 0.881575 0.444586 0.158646
0.0705089 -0.522717 -0.152647 0.393744 -0.799113 -0.454296
0.203258 0.0469659 -0.452409 -0.280872 0.205958 0.937386
0.070141 -0.0720668 0.532132 0.00221681 -0.466954 0.884279
0.00962676 0.00526299 -0.525366 0.275696 -0.19541 -0.941173
-0.387705 0.303987 0.204782 -0.445436 0.756473 0.47889
0.355444 -0.416204 -0.0547598 0.447802 -0.753125 -0.48195
-0.243286 0.0472291 0.032929 -0.89732 -0.409351 -0.165071
-0.0966756 0.249954 0.399615 0.429674 -0.902827 0.0168559
0.17922 0.107263 -0.470505 -0.250634 0.146064 0.956999
0.0832294 0.399416 -0.334622 0.899997 0.404171 0.163254
0.331943 -0.343581 0.257152 0.411856 -0.890616 0.192818
0.0460316 -0.440317 -0.198087 -0.373572 0.868684 -0.325318
-0.225664 0.264317 0.415025 -0.251698 0.152005 0.955794
-0.0981615 0.086599 0.482582 -0.214261 0.163629 0.962973
-0.29812 0.338822 -0.326118 -0.436636 0.866671 -0.241309
0.373444 -0.374039 0.00380495 -0.36265 0.888101 -0.282421
-0.165855 0.451432 -0.142789 -0.374344 0.885979 -0.273693
0.204493 -0.33989 0.364473 0.0580159 -0.482476 0.873986
-0.379086 0.21179 0.341399 -0.92976 -0.339947 -0.141363
-0.192438 0.390054 -0.293859 -0.3954 0.88197 -0.256492
0.0370081 0.171767 0.471839 0.252643 -0.169266 -0.952639
-0.242244 0.398448 -0.203894 -0.436479 0.869938 -0.229552
0.230091 -0.391484 -0.151625 -0.443471 0.735416 0.512345
-0.100877 -0.218357 0.432176 -0.0358031 0.429339 -0.902434
-0.0808791 0.0140708 0.503588 -0.274812 0.109385 0.955256
-0.151795 0.0571217 -0.518812 -0.890307 -0.439255 -0.120036
-0.0782821 0.035281 -0.553432 0.007541 0.478101 -0.878273
-0.217763 0.19368 0.431087 -0.250945 0.0889801 0.963903
0.324995 -0.0703854 -0.423548 0.892039 0.421679 0.162644
-0.0125963 0.293483 -0.407309 -0.109314 0.504929 -0.856211
-0.150515 0.0595783 -0.528462 -0.890465 -0.414527 -0.187719
-0.170816 0.391425 -0.227546 0.361149 -0.875946 0.319828
