ply
format ascii 1.0
comment Created by Open3D
element vertex 400
property double x
property double y
property double z
property double nx
property double ny
property double nz
end_header
-0.340089 -0.00117252 0.117382 -0.048204 0.977324 0.206188
0.112118 0.0758922 -0.139199 -0.0161162 0.981349 0.191559
0.112355 -0.480031 0.22985 -0.0973892 -0.977386 0.187703
-0.181602 -0.234257 -0.475767 -0.764145 0.0825128 -0.639746
0.353898 0.0110682 -0.143468 0.650455 0.240616 -0.720425
0.258549 -0.110146 0.217903 0.174446 0.925251 0.336867
0.234315 0.462036 0.281112 -0.0474015 0.976554 0.209991
-0.357862 -0.292711 -0.124261 0.291665 0.827649 0.479508
0.0874394 0.129048 -0.0348946 -0.308725 0.173705 -0.935155
0.469532 -0.206698 -0.0940734 0.676526 0.176191 -0.715031
0.122261 0.206557 0.401408 -0.101061 -0.222418 0.969699
-0.268753 -0.303387 -0.385778 -0.750778 0.106596 -0.651897
0.286977 -0.0159302 0.259717 -0.331936 -0.79286 -0.511069
0.000938494 -0.304294 -0.451302 0.10533 -0.976495 -0.188051
0.0060379 -0.123241 0.442809 0.707467 -0.00364542 0.706737
0.189249 -0.513448 0.0467579 0.0096694 -0.986052 -0.166158
0.00268357 -0.271295 -0.540464 0.651403 0.230625 -0.722832
0.251106 -0.361777 0.295095 0.791165 -0.0816588 0.606126
0.0889776 -0.285704 0.481813 -0.595803 -0.256004 0.761236
-0.209951 -0.318142 -0.445873 0.0521208 -0.975711 -0.21277
0.095998 0.336816 0.427575 -0.197217 -0.231832 0.952554
-0.0951891 0.140179 -0.511857 -0.740109 0.109749 -0.663471
0.189557 -0.341764 -0.240868 0.0499092 -0.971564 -0.231457
0.357926 0.143328 0.206854 0.992338 0.0255253 0.120886
0.497796 -0.378749 0.0151339 0.791214 -0.135884 0.596252
0.126064 0.341413 0.222348 0.896282 0.171389 -0.409028
0.0274169 -0.440159 0.38373 -0.636087 -0.231205 0.736164
0.25017 -0.402189 -0.124187 0.223095 -0.852781 -0.472222
0.25503 -0.000960984 0.33091 0.459306 -0.158585 0.874007
0.146423 0.0206298 0.159824 0.621253 0.231453 -0.748648
0.0430335 -0.22925 -0.401752 -0.169329 0.981427 0.0901553
0.0845871 -0.104229 0.524556 -0.700404 -0.181022 0.69041
0.445304 6.78731e-05 -0.0394217 0.695323 0.0316808 0.717998
0.156252 0.257126 0.195931 -0.953393 -0.112505 0.279971
0.537185 -0.227187 -0.0391978 0.674065 0.181834 -0.715942
-0.209593 0.031067 -0.000220399 -0.0453196 0.992342 0.114909
0.341186 -0.42211 -0.0355949 0.413247 -0.812773 -0.410642
0.00559955 0.249118 0.0364667 -0.74726 0.160779 -0.644788
0.303505 0.438872 0.366442 0.849235 -0.093774 0.519622
-0.0425181 -0.358367 -0.216291 0.0585833 -0.973641 -0.220433
0.0683347 -0.462042 0.279103 0.0229365 -0.982312 -0.185842
-0.0521948 0.158074 0.240907 -0.952633 -0.0934798 0.2894
0.462827 0.0651195 -0.00812089 -0.0354667 0.979208 0.199735
-0.1631 -0.246848 -0.318861 0.267411 0.84702 0.459399
0.153007 -0.365048 -0.15074 -0.0986851 0.207357 -0.973275
-0.361969 -0.0675312 -0.242233 -0.767522 -0.00648109 -0.64099
-0.0540763 0.0422711 0.186786 -0.991258 -0.059596 0.117715
0.0311976 -0.347392 -0.262179 0.00460805 -0.982154 -0.188023
0.390023 -0.344761 -0.194347 0.00132793 -0.950402 -0.311021
0.142928 0.0446867 0.369634 -0.133646 -0.116969 0.984102
0.351188 -0.231258 0.203938 0.770641 -0.0298245 0.636572
-0.355156 -0.322548 -0.0628877 0.0285591 0.91797 0.39562
-0.344851 0.0206866 -0.24479 -0.747569 0.108658 -0.655236
0.0580855 -0.169971 -0.228459 -0.698594 0.476119 -0.534113
0.379486 -0.0565042 0.186452 -0.718939 0.352919 -0.598812
-0.141604 -0.217843 -0.00595269 -0.740917 0.419743 -0.524269
0.311748 0.125156 0.304546 0.796719 -0.110274 0.594204
0.0200397 0.152679 0.00597398 -0.582826 0.123238 -0.803197
0.0196741 0.467593 0.212415 -0.0130042 0.979475 0.201145
-0.221786 -0.435747 0.0948678 0.102966 -0.968847 -0.225241
0.292737 -0.182021 0.277674 0.764374 -0.0743996 0.640466
0.132947 -0.246941 -0.413581 0.667921 0.186572 -0.720466
-0.429172 -0.173385 -0.137381 0.735508 0.0410225 0.676273
0.348816 0.0109683 0.0948869 0.60184 -0.70921 0.367164
0.311392 -0.184147 -0.235158 0.656053 0.207356 -0.725671
0.448008 -0.168042 0.102236 0.733334 -0.126623 0.667973
0.205752 0.235133 0.398246 0.377815 -0.192974 0.905548
0.230231 0.369177 0.0290139 0.416554 0.24169 -0.876395
0.0516892 -0.224151 -0.325888 -0.481351 0.868529 -0.118148
-0.271331 -0.297174 -0.161383 0.16167 0.9096 0.382742
0.0979614 -0.477554 0.353777 0.00935509 -0.987841 -0.155187
0.337312 0.396883 0.168016 0.96338 0.098888 -0.249239
0.397113 -0.241254 -0.170437 0.631155 0.28141 -0.722808
-0.222115 -0.280274 0.0343232 -0.653464 0.667577 -0.356829
0.158536 -0.44311 -0.0869841 0.0170354 -0.768126 -0.640072
0.345578 -0.143054 0.22633 0.710858 -0.0694124 0.699902
-0.267983 -0.16288 0.180546 -0.663739 -0.191931 0.72292
-0.0794758 0.00282557 -0.54951 0.685557 0.122701 -0.717604
0.0385447 -0.0722441 0.484811 0.111782 -0.987003 -0.115459
0.0296532 -0.46229 0.0208617 -0.373085 -0.893117 -0.251297
0.108463 -0.379506 0.455928 0.772012 -0.0851247 0.629882
0.228028 -0.01883 -0.272099 0.689719 0.112835 -0.715232
-0.0540519 -0.237651 -0.383475 0.0741103 0.939491 0.334462
-0.0935611 0.0560366 -0.0886269 -0.0457965 0.97664 0.209944
-0.21983 -0.180674 -0.345684 0.608742 0.423814 0.670683
-0.153635 -0.0464369 -0.475397 -0.79481 0.0740105 -0.602328
0.249488 -0.0862191 0.333235 -0.715663 0.172533 -0.6768
0.362737 0.0558326 0.166611 0.999035 0.0189556 0.039624
0.18138 0.474284 0.213527 -0.0378599 0.982702 0.181285
0.0280588 -0.447363 0.203053 -0.000786057 -0.982508 -0.186217
-0.500483 -0.33547 -0.0756747 -0.643626 -0.248021 0.724038
0.52078 -0.282762 0.00398935 0.789505 -0.103706 0.604919
-0.150991 -0.171798 -0.412349 0.59721 0.455226 0.660386
-0.418234 -0.0480575 -0.173294 -0.751233 0.106439 -0.651399
-0.172939 -0.124414 0.280737 -0.662458 -0.191575 0.724188
-0.0559559 -0.27084 -0.594535 0.719693 0.12671 -0.682632
0.27319 0.340655 0.382487 0.636015 -0.104355 0.764588
-0.113456 -0.270913 -0.256194 -0.0973095 0.970721 0.219618
0.025238 0.425332 0.406878 -0.0450848 0.981469 0.186243
-0.200955 -0.0235742 0.243618 -0.048416 0.974628 0.218531
-0.268955 -0.292949 0.0844439 -0.625343 0.673992 -0.393295
0.291154 0.23859 0.0417407 0.69212 0.174512 -0.700368
-0.142869 -0.301181 -0.508609 0.0396123 -0.986951 -0.156073
-0.171121 -0.354658 0.222962 -0.66529 -0.188328 0.722441
-0.0921924 -0.196339 -0.0531172 -0.753999 0.331476 -0.567107
0.273036 0.0595928 -0.0244065 0.569842 0.193284 -0.7987
0.465378 -0.302948 -0.123608 0.700746 0.170303 -0.692785
0.231089 -0.322489 -0.33098 0.0515029 -0.974705 -0.21748
-0.0597595 -0.255765 -0.306852 -0.139829 0.981716 0.129155
0.548371 -0.368552 -0.0453632 0.0518127 -0.970968 -0.23353
-0.145917 -0.402281 -0.0459513 0.0311559 -0.977819 -0.207123
0.105171 0.108792 -0.347037 0.637757 0.253966 -0.727163
-0.041096 -0.0649689 0.417619 -0.667417 -0.187594 0.720668
0.149788 -0.460942 0.28447 0.0157301 -0.97811 -0.207495
0.345917 0.385809 0.263764 0.984165 0.0144965 0.176663
0.341131 0.292095 0.13622 0.946093 0.112174 -0.30385
-0.0827492 -0.142409 0.36144 -0.667149 -0.18019 0.722803
-0.0295356 0.486533 0.112988 -0.769466 0.107072 -0.629649
0.338705 0.222776 0.108111 0.949763 0.0417131 -0.310178
0.129714 0.0280316 -0.332695 -0.495976 -0.605204 -0.622685
-0.239814 -0.124915 0.108951 -0.638859 -0.27254 -0.719431
-0.418931 -0.358564 -0.00882557 -0.681113 -0.177757 0.710273
0.424305 -0.066549 0.10512 -0.476399 0.853666 -0.210471
0.203014 0.298685 0.00193753 0.352521 0.143343 -0.92476
0.32826 0.0742338 -0.0793236 -0.0637886 0.972392 0.224467
0.128887 -0.488029 -0.0155728 -0.292499 -0.832356 -0.470773
0.0752841 0.239032 -0.00716385 -0.359998 0.194809 -0.912387
-0.180281 -0.383371 -0.137823 0.0490799 -0.975647 -0.213787
-0.394917 -0.34424 -0.245335 -0.774438 0.126696 -0.619834
0.105785 -0.344785 -0.246955 0.0985986 -0.953117 -0.286089
-0.126038 0.0314379 0.00408789 -0.0358827 0.9781 0.205018
-0.252766 -0.409914 -0.0281387 0.0980248 -0.963428 -0.249396
-0.314441 -0.00680611 -0.103066 0.360213 -0.930559 0.0656221
-0.137244 0.0438988 -0.244177 0.216346 -0.966443 -0.138497
-0.0483276 -0.40734 0.0005615 0.0510792 -0.974404 -0.218923
0.202293 -0.049494 0.40351 0.772946 -0.115825 0.62381
0.020875 -0.0935404 -0.160106 -0.728149 -0.111295 -0.676323
-0.492678 -0.293269 -0.130811 -0.727505 0.106937 -0.677717
0.110636 0.126924 0.38391 -0.16943 -0.307757 0.936258
0.183524 -0.13684 0.324491 -0.139896 0.981694 0.12925
-0.101441 -0.268072 -0.158077 -0.465563 0.87138 -0.154752
0.194213 -0.111944 0.260055 0.392888 0.704447 0.591096
0.159234 0.107953 -0.277517 -0.0721952 0.967972 0.240453
0.119893 0.351825 0.00643085 -0.0427373 0.159288 -0.986307
-0.0670305 0.261265 0.224529 -0.994704 -0.0669839 0.0779608
0.21232 0.122176 -0.0377305 0.294586 0.22055 -0.929826
0.120273 -0.508739 0.0753777 -0.315673 -0.94847 0.0274677
-0.0629556 -0.157851 -0.573117 0.686034 0.144503 -0.713075
-0.238614 -0.311519 -0.0913279 -0.219014 0.973136 0.0709824
-0.0525765 0.168659 0.115403 -0.953694 0.0423377 -0.297782
0.50194 -0.198861 0.0380787 0.77358 -0.0867623 0.627732
-0.00951194 0.0653006 -0.125682 -0.0375766 0.976791 0.210875
0.148783 -0.316051 -0.383015 0.039901 -0.978306 -0.203287
-0.006237 -0.0374794 0.354179 -0.0664567 0.970156 0.233195
0.308312 -0.465249 0.189235 0.320002 -0.932942 0.164976
-0.240027 0.0680678 -0.189442 -0.0687218 0.973321 0.218915
-0.150576 -0.452935 0.218281 -0.630992 -0.225047 0.742431
0.408147 -0.366404 0.116843 0.79087 -0.0432776 0.610452
-0.246389 -0.219277 0.122098 -0.732121 0.225763 -0.642674
-0.064566 0.0929437 -0.253906 -0.0371764 0.985321 0.166612
-0.270907 -0.359261 -0.273694 0.0417113 -0.986342 -0.15934
0.283726 0.38719 0.0721455 0.634852 0.230656 -0.737402
-0.0410306 -0.253045 -0.236728 -0.410585 0.898794 -0.15359
-0.16228 -0.423288 0.0478746 0.0733766 -0.96833 -0.238647
-0.433117 -0.302444 -0.0549406 0.429601 0.72894 0.533
-0.188981 -0.342938 -0.329981 0.0480395 -0.972587 -0.227523
0.545854 -0.140435 -0.00219936 0.717334 -0.137555 0.683015
0.025895 0.167353 0.356692 -0.562071 -0.202337 0.801958
0.213735 -0.319433 0.345163 0.734003 -0.114516 0.669422
-0.350762 -0.415954 -0.0227946 0.063486 -0.971767 -0.22724
-0.0152969 -0.335446 -0.316132 0.0293223 -0.981094 -0.191298
0.0133912 -0.413061 -0.0816499 -0.737689 0.132151 -0.66208
-0.13202 -0.324395 -0.403184 0.102774 -0.969862 -0.220919
-0.183021 -0.202813 0.250734 -0.669668 -0.186355 0.718899
-0.325238 -0.0325867 -0.176068 0.638731 -0.69366 0.332955
-0.0873551 -0.465379 0.258055 0.0466267 -0.976946 -0.208331
0.138433 0.49148 0.118872 -0.055903 0.966805 0.249325
-0.156428 -0.442103 0.144882 0.0620588 -0.982145 -0.177593
0.120845 0.0617823 -0.0628806 -0.067279 0.971277 0.228243
-0.0880935 -0.393747 0.288141 -0.65826 -0.211474 0.722477
0.321159 -0.36709 -0.102245 0.140341 -0.94627 -0.291338
-0.16428 0.0279016 -0.16617 0.0286357 -0.973426 -0.227205
0.246952 -0.133935 -0.282002 0.676181 0.181514 -0.714026
0.194527 -0.152262 -0.334482 0.668192 0.178434 -0.722275
-0.524117 -0.234194 -0.0693228 -0.64742 -0.223944 0.728489
-0.324107 -0.143455 -0.253563 0.759702 0.0270171 0.64971
-0.408854 -0.0361947 -0.0301622 0.41131 -0.898916 0.150907
-0.190725 0.00907623 0.100394 -0.0344846 0.978292 0.20434
-0.0186171 -0.45698 0.0999604 -0.286055 -0.950751 -0.119356
0.0664146 -0.363663 -0.17576 0.0306547 -0.992249 -0.120428
0.31303 0.0666272 -0.167569 0.692673 0.171886 -0.70047
0.300557 0.242026 0.338882 0.76339 -0.106335 0.637125
-0.0457473 -0.182846 -0.105376 -0.677217 0.364665 -0.639059
0.407949 0.0625133 -0.0838719 0.623323 0.229711 -0.747463
0.0308861 0.035806 0.326898 -0.57311 -0.1822 0.798967
0.167137 -0.386793 0.385532 0.697272 -0.120515 0.706603
-0.0254043 0.0855969 0.281009 -0.81884 -0.185171 0.543335
0.268363 -0.223673 -0.284871 0.676284 0.14931 -0.72135
-0.0261965 -0.39986 0.342277 -0.650527 -0.213052 0.728988
0.415318 0.0368259 0.0666698 0.212669 -0.975084 -0.0631085
0.259937 0.478748 0.207694 -0.0910959 0.968676 0.231017
0.188736 -0.405596 0.0537075 -0.991285 -0.100098 0.0856445
0.130915 0.434853 0.389075 -0.0290246 0.978386 0.204738
0.125987 -0.0821674 0.31245 0.793012 -0.131093 0.594934
0.280251 0.00229137 -0.21559 0.675798 0.102133 -0.729977
-0.0348471 0.113149 -0.34986 0.00317657 0.98142 0.191846
0.11157 -0.120973 -0.266069 -0.774291 0.225702 -0.591213
0.377288 0.0611147 -0.00939725 -0.0169548 0.985093 0.171186
-0.495817 0.0229069 -0.072849 -0.710798 0.108675 -0.694951
0.035029 -0.272625 0.432276 -0.654709 -0.212485 0.725401
0.0376706 0.0533545 -0.0511668 -0.0528723 0.974839 0.216551
-0.376965 0.0459065 -0.113308 -0.0712849 0.971678 0.2253
-0.254902 -0.229938 -0.276039 0.512008 0.580827 0.632841
-0.439931 -0.411718 -0.0662404 0.0182523 -0.98035 -0.196419
0.312341 0.0540801 0.293814 0.725571 -0.113553 0.678714
-0.462866 -0.0386947 -0.120851 -0.802998 0.0951339 -0.58834
0.0333472 0.484336 0.057267 -0.485241 0.184544 -0.854684
-0.187362 -0.180284 0.0631485 -0.776641 0.0901969 -0.623453
0.423651 0.00342926 0.134446 -0.593221 -0.56949 -0.569008
0.310011 -0.0954526 0.272027 0.71887 -0.138885 0.681129
-0.291357 0.0547708 -0.129727 -0.045114 0.976235 0.211969
-0.426696 -0.254924 -0.200671 -0.684744 0.144348 -0.714346
0.433192 -0.056546 0.027833 0.159548 0.931561 0.326708
-0.143704 -0.264749 -0.0707875 -0.591219 0.736828 -0.327939
-0.112867 -0.0203586 0.254194 -0.0482001 0.978297 0.201523
-0.370279 -0.217589 -0.254504 -0.693143 0.135008 -0.708044
0.186642 -0.0297235 0.300409 0.344528 -0.93496 0.0845566
-0.369627 -0.392591 -0.135619 0.0399113 -0.979226 -0.198805
0.166045 -0.137052 0.400144 -0.590791 0.711786 -0.379903
0.322788 0.468823 0.26702 -0.0393096 0.985634 0.16426
-0.201072 0.0110544 -0.295078 0.515085 -0.771225 0.374031
-0.287518 -0.325089 0.00333162 -0.328221 0.944004 -0.0335862
0.209772 -0.505244 0.115784 0.172192 -0.960767 0.217431
-0.0373803 0.377208 0.35067 -0.826782 -0.139981 0.544827
0.167139 0.421923 0.0221347 0.114782 0.211883 -0.970531
-0.0109756 -0.206631 -0.174044 -0.652667 0.596946 -0.466563
-0.0510629 0.261591 0.122915 -0.925781 0.0392821 -0.376014
0.324313 0.493885 0.166227 -0.0447342 0.976331 0.211605
-0.122311 0.0613732 -0.491122 -0.819435 0.064585 -0.569522
0.117468 -0.0480634 0.380881 0.310627 -0.947518 -0.0756309
0.158278 0.111726 0.157227 -0.690385 -0.227989 0.686579
-0.0201198 -0.373055 -0.13922 -0.0106376 -0.978949 -0.203828
0.0137684 0.323617 0.386791 -0.593377 -0.213365 0.776131
0.519116 -0.300483 -0.0749413 0.644252 0.221623 -0.731999
-0.0612498 -0.0801699 -0.538187 0.710785 0.0640628 0.700486
-0.13703 0.0326497 -0.35852 0.528626 -0.802365 0.277065
-0.208977 0.0885113 -0.263115 -0.082179 0.965747 0.246127
-0.230847 -0.236396 0.200448 -0.680855 -0.174809 0.711251
0.35442 -0.380158 0.176742 0.761146 -0.115114 0.638283
0.223621 -0.211758 0.352621 0.696438 -0.17595 0.695712
0.309581 0.114072 0.0219113 0.76915 0.142808 -0.622907
-0.107405 -0.111241 -0.0261684 -0.737529 -0.163765 -0.655158
-0.0980656 0.0195574 0.0758283 -0.0301625 0.978359 0.204702
-0.301586 -0.0376829 0.0575349 -0.192863 -0.882078 -0.429816
0.141067 0.50542 0.0374916 0.0559008 0.202867 -0.977609
-0.0190117 -0.296255 0.377315 -0.662407 -0.194904 0.723346
-0.335414 -0.0700151 0.137496 -0.394154 -0.763659 -0.511338
-0.071471 0.357783 0.211698 -0.998497 -0.0458538 -0.0300167
0.533868 0.0407916 0.0285085 0.680634 0.161959 -0.714497
-0.20072 -0.366516 -0.221988 0.0391503 -0.98944 -0.139556
-0.242155 -0.0772399 -0.379849 -0.771112 0.099399 -0.628893
0.279938 -0.0275325 0.148949 0.727582 -0.298904 0.617479
-0.418047 -0.00563879 0.0917892 -0.629574 -0.269228 0.728803
0.203324 -0.432824 0.337297 0.712731 -0.110609 0.692661
0.397207 -0.370751 -0.0628765 -0.00308477 -0.982386 -0.186836
-0.069882 0.468088 0.184202 -0.940702 0.0555384 -0.334657
0.1856 0.446107 0.339322 -0.0499309 0.970011 0.237876
0.460539 -0.280109 0.0696789 0.736448 -0.0869106 0.670888
-0.0699827 -0.0325982 0.315676 -0.0510999 0.972537 0.227068
0.208229 -0.23577 -0.342788 0.68069 0.126912 -0.721495
0.224781 -0.030552 0.222576 0.655034 -0.601976 0.456678
0.322453 -0.0662285 -0.191512 0.70772 0.135397 -0.693398
-0.259687 -0.0617871 0.217225 -0.666218 -0.172787 0.725464
0.0858133 -0.41463 -0.11076 -0.143344 -0.819683 -0.554593
0.0531623 -0.323689 -0.358824 0.045921 -0.976681 -0.209725
0.341619 0.199061 0.263407 0.932683 -0.0311909 0.359345
-0.0688767 0.0550463 -0.41311 0.443036 -0.860354 0.252012
-0.258089 -0.00756656 0.159579 -0.0844014 0.96952 0.230015
0.0429288 0.452378 0.287611 -0.0317551 0.980568 0.193591
-0.2739 -0.00832017 -0.0272352 -0.042105 -0.933314 -0.356583
-0.261514 -0.391603 -0.119099 0.0409055 -0.97253 -0.229154
0.241565 -0.474154 -0.0195646 0.34093 -0.826485 -0.447984
0.320214 -0.456131 0.0379539 0.464882 -0.863655 -0.194896
-0.379523 -0.136373 -0.188685 0.719784 -0.178528 0.67085
0.387059 -0.285151 0.156842 0.75244 -0.109108 0.649562
0.206462 0.3178 0.417063 0.246004 -0.237792 0.939647
-0.0748786 -0.440465 0.144634 0.0487869 -0.978942 -0.198221
-0.281949 0.069818 -0.308379 -0.781674 0.0818615 -0.618292
-0.397404 0.0337852 -0.183176 -0.70736 0.100931 -0.69961
-0.0725052 -0.297567 -0.508272 0.0271775 -0.979645 -0.198889
-0.0926984 -0.385114 -0.111471 0.0476703 -0.979192 -0.197255
0.112332 -0.177359 -0.316348 -0.579685 0.638515 -0.506225
0.234587 0.439369 0.0471645 0.480249 0.209999 -0.851623
0.384495 -0.40345 0.0307574 0.991572 0.0719588 -0.107732
-0.368066 0.0281372 -0.0278117 -0.0511176 0.975258 0.215081
0.196152 0.142127 0.382574 0.190445 -0.182431 0.964598
-0.22612 0.108647 -0.36407 -0.0860216 0.964508 0.249649
-0.512492 -0.141718 -0.0838585 -0.760671 0.104952 -0.640597
0.0308602 -0.341826 0.412184 -0.649257 -0.203288 0.732898
0.144904 -0.185168 -0.384114 -0.570888 0.787731 -0.231443
-0.0244417 0.00374787 0.256714 -0.85047 -0.134487 0.50854
0.262232 0.172913 0.359711 0.55577 -0.144413 0.818697
0.348134 0.0201178 0.229682 0.940141 -0.0433369 0.338018
-0.326335 -0.430846 0.0560328 0.0513223 -0.965093 -0.256828
0.174387 -0.0686693 -0.329516 -0.766527 0.00810976 -0.642161
0.0944489 0.466876 0.22935 -0.0460036 0.977813 0.204365
0.339587 -0.06811 0.101752 0.403853 0.703514 0.584783
0.225814 0.0733349 -0.107403 -0.0715927 0.972546 0.221425
-0.293821 -0.118421 -0.326552 -0.733261 0.121743 -0.66896
0.320838 -0.0983703 0.169932 -0.135515 0.964433 0.226948
0.197066 -0.492515 0.192279 0.114776 -0.972175 0.204212
0.0472217 0.317507 0.0199914 -0.488549 0.206659 -0.84771
-0.00632179 -0.186595 -0.529735 0.659385 0.201034 -0.724428
0.46657 -0.36437 -0.0792233 0.069213 -0.96905 -0.236963
-0.0411386 -0.319205 -0.398528 -0.0318561 -0.98164 -0.188062
-0.216156 -0.398233 0.17102 -0.670211 -0.18859 0.71781
-0.134259 -0.00285135 -0.422489 0.638179 -0.553375 0.53526
-0.0141581 0.0819336 0.0319485 -0.773853 0.105376 -0.624538
0.043737 0.107041 -0.298586 -0.0546744 0.974154 0.219169
-0.44813 0.0155823 0.010531 -0.0490534 0.983326 0.175109
-0.0200697 -0.0117927 -0.169059 -0.487717 -0.617925 -0.616685
-0.0806031 -0.0552889 -0.0838622 -0.600932 -0.492673 -0.629408
-0.318954 -0.321367 -0.330482 -0.691724 -0.0157356 -0.721991
-0.155875 -0.036864 -0.0347623 -0.458325 -0.665624 -0.588968
0.412008 -0.074522 -0.114189 0.671071 0.179693 -0.719287
0.395507 -0.135556 0.171014 0.725204 -0.107086 0.680155
-0.0499929 0.0816381 0.105981 -0.960899 0.011765 -0.27665
0.132822 0.454946 0.291473 -0.0341782 0.97871 0.202384
0.144324 -0.0797832 0.464361 0.745752 -0.106798 0.657608
0.0555078 -0.109183 0.386153 0.72445 0.034933 0.688442
0.152765 0.395905 0.443563 0.0715899 -0.196666 0.977853
0.371439 -0.438206 0.129792 0.91981 -0.0461838 0.389636
0.255951 0.0817536 0.347465 0.586355 -0.22606 0.777872
-0.0654104 0.37547 0.28256 -0.96586 -0.0700035 0.249425
-0.00688328 -0.464614 0.274547 0.0334115 -0.985209 -0.168066
-0.536943 -0.0483786 -0.0404459 -0.760954 0.118521 -0.637889
-0.234698 -0.238398 -0.414349 -0.754503 0.105571 -0.64775
0.270983 -0.268328 0.286816 0.735829 -0.0968417 0.670207
0.223372 0.496676 0.124109 -0.0758997 0.953758 0.290836
-0.0502661 0.0445822 -0.0303621 -0.0758383 0.972457 0.220398
0.373876 -0.125988 -0.162772 0.671928 0.139187 -0.72742
0.102903 -0.0447218 -0.260177 -0.661475 -0.234192 -0.712464
0.229285 0.234616 -0.00258916 0.365366 0.240714 -0.899202
0.0125961 0.10806 -0.433478 0.679911 0.178599 -0.711213
-0.0133945 -0.204061 0.407275 -0.682751 -0.169938 0.710614
0.252924 -0.452524 0.273514 0.0683737 -0.967994 -0.241482
-0.178512 -0.277869 0.236958 -0.659493 -0.210431 0.721656
-0.0505152 0.45084 0.271946 -0.117158 0.963044 0.242527
-0.118855 -0.228795 -0.544216 -0.714306 0.121502 -0.689205
0.118798 -0.19205 0.474188 0.695576 -0.148475 0.702943
-0.458123 -0.365374 -0.181871 -0.724898 0.104993 -0.680808
0.0569402 -0.239307 -0.4836 0.686114 0.169905 -0.707375
0.0748206 0.481909 0.15205 -0.0323264 0.977599 0.207979
0.524451 -0.0513685 0.0317073 0.732932 -0.109192 0.671482
-0.0340331 0.22866 0.309351 -0.85039 -0.118177 0.51271
-0.0867931 0.074222 -0.171655 -0.0513522 0.971861 0.229888
-0.0947366 0.123143 -0.407538 -0.0438183 0.979918 0.194525
-0.169387 -0.0468254 0.304736 -0.672216 -0.167973 0.721049
-0.231123 0.0472614 -0.0799152 -0.0481138 0.975828 0.213178
-0.30357 -0.0366528 -0.30231 -0.707948 0.140936 -0.69206
0.35535 0.236233 0.188887 0.994779 0.0939948 -0.0397517
-0.502698 -0.403497 -0.120491 0.0989271 -0.967553 -0.232494
0.325131 -0.274536 -0.247058 0.660122 0.211531 -0.720759
-0.0789706 -0.264358 0.332216 -0.672908 -0.170999 0.719691
0.0532567 -0.485077 0.111943 -0.289742 -0.957037 0.0114195
0.486029 -0.123656 -0.0589362 0.640432 0.209326 -0.738939
-0.241275 0.00518125 -0.364808 -0.727888 0.078461 -0.681192
0.273257 -0.0827624 -0.242275 0.683418 0.167035 -0.710661
0.162203 -0.23548 0.419246 0.706232 -0.136301 0.694736
-0.452978 -0.0480995 0.0387894 0.371032 -0.921466 0.115042
0.0655651 0.253303 0.397766 -0.374167 -0.187785 0.90815
0.15843 0.21903 -0.0248896 0.0832064 0.19394 -0.977478
-0.20527 -0.0828549 0.0475549 -0.55132 -0.481146 -0.681576
-0.23273 -0.322533 0.177509 -0.663582 -0.190578 0.723421
-0.385448 -0.0482082 -0.10719 0.566241 -0.7466 0.349227
-0.187063 0.0651185 -0.417519 -0.721057 0.128248 -0.680903
-0.200381 -0.283219 -0.220845 0.083034 0.942707 0.323123
-0.200271 -0.123378 -0.431746 -0.736053 0.0973606 -0.669885
0.325019 -0.296649 0.222831 0.725316 -0.0971843 0.681522
-0.117073 0.00131497 0.152526 -0.0257312 0.97747 0.209499
-0.10147 -0.338688 -0.320247 0.0458889 -0.97706 -0.20796
0.224146 0.431639 0.418001 -0.0739605 0.96601 0.247697
0.028984 0.391061 0.0441179 -0.49555 0.165649 -0.852637
-0.0371527 0.392637 0.108434 -0.817713 0.0965007 -0.56748
-0.155539 0.100488 -0.317273 -0.0261995 0.985853 0.165549
0.333292 0.300066 0.291161 0.94506 -0.0271735 0.325765
0.245234 -0.351115 -0.183463 0.077695 -0.962726 -0.259079
0.201778 0.0906373 -0.185266 -0.039592 0.978867 0.200628
-0.467273 -0.0884492 -0.0503668 0.727617 -0.565097 0.388894
0.115491 -0.472068 0.430683 0.733666 -0.109634 0.670607
-0.0354055 0.050411 -0.486486 0.605255 -0.728812 0.320156
0.14097 0.182621 0.170838 0.450798 -0.161117 0.877965
-0.120518 -0.370945 -0.190387 0.0994758 -0.96872 -0.227346
-0.435818 -0.107275 -0.113755 0.738816 -0.394783 0.546166
-0.271491 -0.387316 0.122396 -0.70574 -0.134392 0.695608
0.488649 0.00560582 0.0883052 0.780435 -0.122253 0.613168
-0.0801136 -0.157524 -0.48726 0.57684 0.560149 0.59455
-0.339931 -0.340735 0.0636464 -0.358926 0.932536 -0.0393589
-0.307024 -0.2209 -0.328529 -0.774399 0.099643 -0.624802
0.0154796 0.0273117 -0.244406 -0.365866 -0.761499 -0.535034
