ply
format ascii 1.0
comment Created by Open3D
element vertex 400
property double x
property double y
property double z
property double nx
property double ny
property double nz
end_header
0.187781 -0.0169897 0.359322 0.75953 -0.171086 0.627569
0.206378 -0.185023 0.0728157 -0.542207 0.559457 -0.626912
0.196147 0.328777 0.0913593 0.562 -0.313186 -0.765553
0.226225 0.0559969 0.370576 -0.562 0.313185 0.765553
0.0609944 0.316339 0.196605 0.0145265 0.7922 0.610089
0.0537975 0.367268 -0.17981 -0.420098 -0.50475 0.754152
0.265141 -0.22428 0.26293 0.57267 -0.520507 0.633341
0.34882 -0.131227 0.0255848 0.561999 -0.313186 -0.765553
0.176077 -0.13818 0.154647 0.394016 -0.357145 0.846876
0.17951 0.309418 -0.100228 -0.562 0.313186 0.765552
-0.133613 0.176975 -0.395595 0.0138721 0.174235 -0.984606
-0.0311424 -0.193535 0.207801 -0.136957 0.877535 -0.459539
0.423738 0.155407 0.0200829 0.562 -0.313186 -0.765553
-0.233106 -0.339308 -0.181296 -0.687205 -0.691894 -0.221432
-0.464936 0.0950104 -0.206139 -0.774913 0.124307 -0.619724
0.283307 0.251484 0.332508 -0.562 0.313185 0.765553
-0.245526 -0.191824 0.182404 -0.561999 0.313185 0.765553
-0.24713 -0.0292627 -0.384412 -0.168344 -0.200244 -0.965175
0.0855666 0.246842 0.123368 -0.582368 -0.807075 -0.0973497
-0.106827 0.506262 -0.0814827 -0.0550571 0.909328 -0.412421
0.420242 -0.0127378 0.086304 0.562 -0.313186 -0.765552
0.356236 0.031361 0.359381 0.809368 0.017407 0.587044
0.105079 0.227765 -0.0936177 -0.269843 -0.944328 0.188227
-0.197071 -0.282018 -0.25671 0.562 -0.313185 -0.765553
0.101584 -0.30967 -0.0628892 0.416704 0.437763 -0.796694
-0.287076 -0.00406298 -0.0431687 0.825744 0.158732 0.54125
0.336268 0.113343 0.0950628 -0.562 0.313185 0.765553
-0.221313 -0.30086 0.0855546 -0.454435 -0.890255 0.0305962
0.175007 0.373689 -0.184911 0.230535 0.948178 -0.218659
-0.0298086 0.308407 0.114715 -0.615496 -0.442039 0.652508
-0.365963 -0.0936623 -0.153847 0.973918 -0.0245356 -0.225572
0.336953 -0.00457653 0.276007 0.799862 -0.0299444 0.599437
-0.210402 -0.0919701 -0.336476 0.822325 0.111863 0.557914
0.322339 -0.123535 0.199786 -0.874739 0.407484 0.262275
0.378996 0.202134 -0.0318781 0.562 -0.313186 -0.765553
-0.132488 -0.296171 -0.0888839 -0.552365 -0.831023 -0.0655272
-0.323837 -0.160716 0.108798 -0.866504 -0.290222 0.406131
0.20691 0.0012283 0.159398 -0.809368 -0.0174074 -0.587044
-0.290106 -0.193213 0.0372108 -0.663405 -0.72346 -0.191046
0.0493184 0.188012 -0.223623 0.096126 -0.894543 0.436523
0.368742 -0.208146 0.172597 0.655226 -0.396303 0.643135
-0.26732 0.0771496 -0.0714244 0.759531 -0.171084 0.627569
-0.216776 0.312972 -0.107713 -0.371308 0.731522 -0.571844
-0.232348 -0.0744188 -0.245551 -0.562 0.313185 0.765553
-0.493065 0.00419975 -0.169839 -0.816862 -0.0647159 -0.573191
0.086831 -0.255642 0.054042 -0.136956 0.877535 -0.459538
0.427915 0.110369 0.10191 0.818881 0.341117 0.461599
-0.281506 0.156773 -0.282402 0.605783 -0.311863 0.731962
-0.305191 -0.179066 -0.268857 -0.818881 -0.341118 -0.461598
-0.266141 0.226397 -0.225213 0.79232 -0.605716 0.0730546
0.239796 0.314379 -0.179986 0.562 -0.313186 -0.765552
-0.325761 -0.060577 0.0532629 0.163038 0.553393 0.816808
0.159054 0.25771 0.169444 0.687206 0.691893 0.221433
-0.0632021 0.378569 -0.205071 -0.136955 0.877536 -0.459537
-0.195572 0.10976 -0.139036 0.655226 -0.396303 0.643135
-0.33398 0.354382 -0.162745 -0.561999 0.313186 0.765553
0.31504 0.154733 -0.00460613 0.748139 0.587208 0.308991
0.238366 0.0433021 0.262698 0.562 -0.313186 -0.765553
-0.432809 -0.00947288 -0.231986 0.562 -0.313186 -0.765553
-0.138216 -0.100935 -0.240863 0.82711 0.205207 0.523239
-0.481056 -0.153436 -0.0629676 -0.562 0.313186 0.765553
-0.124303 -0.252225 0.0820908 0.135532 -0.913701 -0.383121
-0.361964 -0.0449187 0.0368268 -0.562 0.313185 0.765553
-0.0864348 -0.2761 -0.0166141 -0.676964 -0.518843 0.522036
-0.40837 -0.26939 -0.107714 0.562 -0.313186 -0.765553
0.244505 0.270962 0.150511 0.562 -0.313185 -0.765553
0.325111 -0.119253 0.202376 -0.874738 0.407484 0.262279
-0.141139 -0.210721 -0.0767801 0.637956 0.753228 0.160186
0.202421 0.132746 0.246276 -0.823674 -0.296513 -0.483364
0.0489071 -0.424138 -0.0179937 0.562 -0.313186 -0.765553
-0.214934 0.461971 -0.119365 -0.562 0.313186 0.765553
0.0902169 0.245136 0.250117 -0.562 0.313186 0.765553
-0.00996619 -0.3206 -0.160332 0.562 -0.313186 -0.765553
-0.399283 0.0325984 -0.224586 0.562 -0.313186 -0.765552
-0.114735 -0.210652 -0.282223 0.562 -0.313186 -0.765552
-0.151227 -0.195291 -0.0994257 0.687206 0.691892 0.221433
-0.183169 -0.393198 -0.109403 -0.552366 -0.831022 -0.0655278
0.102462 -0.374604 0.310336 0.562 -0.313186 -0.765553
-0.200363 -0.148021 -0.161066 -0.968724 -0.091971 0.230468
0.112869 -0.342463 0.122751 -0.589331 0.562407 0.579989
0.213625 -0.34346 0.0699227 0.562 -0.313186 -0.765553
-0.173562 -0.0050253 -0.341397 0.562 -0.313185 -0.765553
-0.149529 0.349307 -0.214103 -0.295873 0.788187 -0.539648
0.273746 0.149971 -0.130562 -0.0145271 -0.792199 -0.61009
-0.0537642 -0.45015 -0.0687123 0.152385 -0.878849 -0.452109
-0.314497 -0.16275 -0.264399 -0.823674 -0.296514 -0.483364
-0.0767404 -0.210526 0.173255 0.0685641 0.939999 -0.334218
0.192695 0.313607 -0.0956352 -0.383365 -0.918757 0.0944296
-0.201465 -0.385841 0.00171601 -0.454435 -0.890254 0.0305958
0.278521 -0.106649 0.0491223 -0.742261 0.217436 -0.633854
-0.00337609 -0.295932 0.0416454 -0.483718 -0.421843 0.766854
-0.0066839 -0.32199 0.0306719 -0.575171 -0.0928126 0.812751
-0.164956 0.0773378 -0.360144 -0.679575 0.352791 -0.643208
-0.228347 0.279429 0.00222663 -0.562 0.313186 0.765553
-0.307073 0.211505 -0.0277795 -0.561999 0.313186 0.765553
0.0322821 -0.28166 0.366335 -0.562 0.313186 0.765553
0.374339 0.0902709 0.204415 0.82711 0.205209 0.523239
-0.244217 -0.328488 -0.0960465 0.276581 0.809558 0.517802
-0.215985 -0.303283 0.0709423 0.562 -0.313186 -0.765553
0.167035 0.0707863 0.321193 0.816862 0.064717 0.573191
0.335341 -0.0862817 0.363342 0.561999 -0.313186 -0.765553
-0.140658 0.0340963 -0.235452 0.742261 -0.217435 0.633853
0.105296 0.300733 -0.242726 -0.0685636 -0.939999 0.334218
0.105526 0.147814 0.293571 -0.979848 0.0117222 0.199401
-0.266283 0.156689 -0.292519 0.445252 -0.27771 0.851251
0.0979353 -0.111269 0.232197 -0.57267 0.520507 -0.633341
0.113149 0.16815 0.298446 -0.562 0.313185 0.765553
0.343582 0.0117495 0.141994 -0.561999 0.313186 0.765553
0.0823151 -0.317103 -0.0786726 0.474819 0.447306 -0.757934
0.180368 -0.272696 -0.0137361 -0.257003 0.813616 -0.521516
0.156836 -0.260686 0.123265 -0.393798 0.0334141 0.91859
-0.136502 0.19718 -0.114882 0.407688 -0.700424 0.58583
-0.503791 -0.119518 -0.0935326 -0.562 0.313185 0.765553
0.0900329 -0.386851 0.310552 0.257004 -0.813614 0.521517
-0.370746 -0.349044 -0.00258941 -0.637956 -0.753228 -0.160186
-0.314182 -0.0806657 -0.0873851 -0.818881 -0.341116 -0.461599
0.285383 -0.200884 0.0114134 -0.0282053 0.11823 -0.992586
0.289772 -0.216708 0.245483 0.601708 -0.480266 0.638195
0.149533 0.053038 0.236361 -0.816862 -0.0647174 -0.573191
0.135672 -0.132765 0.381322 -0.562 0.313186 0.765553
-0.058272 0.23131 -0.364817 0.561999 -0.313186 -0.765553
0.278906 -0.021479 0.440945 -0.562 0.313186 0.765553
0.353849 0.0357806 0.362542 0.809368 0.017407 0.587044
-0.343617 -0.0710358 -0.244132 0.682311 0.223582 0.696033
-0.109538 -0.28409 -0.229003 -0.0886703 -0.710739 -0.697845
0.10056 0.404031 -0.101224 -0.271015 -0.922737 0.274058
-0.0666712 -0.302157 0.302078 -0.561999 0.313186 0.765553
-0.091104 -0.400655 0.324437 -0.562 0.313186 0.765553
0.0135079 -0.244478 0.107623 0.0411853 -0.901332 0.431167
0.0488716 0.523547 0.0411371 0.269844 0.944328 -0.188227
0.187373 0.0982252 0.160545 -0.823674 -0.296516 -0.483363
0.292922 -0.25783 0.108408 -0.542209 0.559456 -0.626912
0.19544 0.189915 -0.103713 -0.454434 -0.890255 0.0305963
-0.169212 0.368669 -0.0510178 0.177445 -0.858345 0.481411
0.268758 0.165598 0.21142 0.562 -0.313186 -0.765552
-0.0172968 0.301657 -0.346605 0.215575 0.353981 -0.910069
0.0490998 0.377734 -0.00572708 -0.269845 -0.944327 0.188226
0.0936059 0.219714 -0.294434 0.329352 0.411215 -0.849959
0.319806 0.279868 0.095281 0.709298 0.658605 0.251268
-0.32103 0.101111 -0.17161 0.562 -0.313186 -0.765553
-0.271517 -0.268819 -0.00748255 0.561999 -0.313186 -0.765553
-0.385773 -0.18408 0.0195175 -0.562 0.313186 0.765553
-0.125653 0.272548 -0.0100203 0.177445 -0.858345 0.481411
0.151238 0.228363 -0.0212696 0.25218 0.926866 0.278074
-0.289295 -0.406756 0.161275 -0.383364 -0.918757 0.0944302
-0.351702 0.126937 -0.0575455 -0.742261 0.217435 -0.633853
0.00287525 -0.377634 0.363918 0.177445 -0.858345 0.481411
0.149212 0.409432 -0.0183195 0.383364 0.918757 -0.0944305
-0.125638 0.183438 -0.394339 0.0138721 0.174235 -0.984606
0.247359 0.109254 0.0817773 0.375612 0.528962 0.760996
0.117083 0.201408 -0.188494 -0.150298 -0.948803 0.277818
-0.470987 -0.239091 -0.0229282 -0.748139 -0.587208 -0.308991
0.373982 0.236165 0.0532748 0.729624 0.623683 0.280477
0.262019 -0.108398 0.143858 -0.136995 0.144625 0.979957
0.183035 -0.256923 0.120435 -0.407689 0.700423 -0.58583
-0.321213 0.0970552 -0.175915 0.742262 -0.217434 0.633853
-0.428001 0.0691303 -0.11507 -0.562 0.313186 0.765553
0.132016 0.488953 0.124296 -0.562 0.313186 0.765552
-0.249901 -0.30748 0.169745 -0.562 0.313186 0.765553
-0.387028 0.202518 -0.13956 -0.562 0.313186 0.765553
-0.0243196 0.260731 -0.229944 -0.562 0.313186 0.765553
-0.0621272 0.356678 -0.109656 0.562 -0.313186 -0.765553
0.143129 -0.319263 0.371904 0.40769 -0.700423 0.58583
-0.338205 0.255118 -0.27078 0.561999 -0.313186 -0.765553
0.375979 0.106842 0.193577 0.826419 0.251174 0.503928
-0.0521507 0.137905 -0.24382 0.443057 -0.667583 0.598359
0.265984 -0.0305243 0.435159 -0.562 0.313186 0.765553
0.0528018 0.410766 0.0981294 -0.562 0.313186 0.765553
-0.0108056 0.110929 -0.337485 0.562 -0.313185 -0.765553
0.0752565 -0.378409 0.201371 0.177446 -0.858345 0.481411
0.377342 0.112419 0.314717 0.82711 0.205208 0.523239
0.249031 0.412023 0.0961268 0.562 -0.313186 -0.765553
-0.317167 0.0396674 -0.28112 0.558869 -0.0195149 0.829027
-0.255867 0.403009 -0.192411 -0.371309 0.731521 -0.571845
0.289369 0.262587 -0.109953 0.52099 0.852903 0.0335439
0.116887 -0.352084 0.0138049 0.562 -0.313186 -0.765553
-0.297239 -0.00847939 -0.0257467 0.82711 0.205209 0.523239
0.175123 -0.272058 0.293956 0.443056 -0.667584 0.598359
0.243087 -0.210191 0.159015 -0.562 0.313185 0.765553
-0.101785 -0.216021 -0.185431 0.709296 0.658607 0.251267
0.212575 0.225234 0.248609 0.792359 0.469407 0.389646
-0.0305478 0.370174 -0.207315 -0.0854839 -0.750673 0.65512
0.189197 0.428298 0.191086 -0.562 0.313186 0.765553
-0.271669 0.0885121 -0.0630639 0.759531 -0.171084 0.627569
-0.0766593 -0.371869 -0.00958979 -0.346352 -0.929599 0.126036
-0.398352 -0.0268731 -0.0654005 -0.561999 0.313186 0.765553
-0.362587 -0.365406 0.110719 -0.562 0.313186 0.765552
-0.0414144 -0.275791 -0.111473 0.488319 0.872664 0.00147534
-0.0848425 -0.249683 -0.0103035 0.419421 0.905631 -0.0625903
0.171672 -0.361691 0.183875 0.295872 -0.788187 0.539648
0.0685978 -0.0248241 0.333343 -0.877939 0.47092 0.0863563
0.280408 0.255109 -0.0039408 -0.562 0.313185 0.765553
0.36399 0.0725836 0.00368538 0.812052 0.384873 0.438685
0.235737 0.11629 0.0837492 0.495071 0.55623 0.667467
0.0743207 -0.201032 0.340762 0.443056 -0.667584 0.598359
-0.0531577 0.245225 -0.0838129 0.096126 -0.894543 0.436523
-0.403188 0.264692 -0.202638 -0.629249 0.43883 -0.641462
-0.00625962 -0.356744 -0.0729188 -0.308481 -0.93813 0.157328
-0.104272 -0.0457444 -0.298659 0.799862 -0.0299448 0.599437
-0.147546 0.120649 -0.24538 -0.805198 0.531653 0.262682
-0.457275 -0.258999 -0.0166569 -0.729625 -0.623681 -0.280479
-0.412703 -0.106386 -0.0320363 -0.562 0.313186 0.765553
0.214862 0.219415 -0.216202 0.561999 -0.313186 -0.765553
-0.159532 -0.185615 0.220969 -0.262501 0.893045 0.365465
0.154057 0.0184082 0.230863 -0.799862 0.0299449 -0.599437
-0.0715433 -0.372998 -0.0060926 0.308482 0.93813 -0.157327
0.0892085 0.414059 -0.100076 0.190652 0.949671 -0.248548
0.132596 -0.236292 0.421417 -0.561999 0.313186 0.765553
-0.0547307 0.344452 -0.0152572 0.0685636 0.939999 -0.334218
-0.40068 0.180266 -0.140479 -0.562 0.313186 0.765553
0.275544 0.0218585 0.0547937 -0.82711 -0.205209 -0.523239
0.105186 0.313589 0.0733596 0.48832 0.872664 0.00147576
-0.142247 -0.344822 0.118509 0.561999 -0.313186 -0.765553
-0.0809441 -0.411737 0.115289 -0.190652 -0.949671 0.248548
-0.23963 0.290148 -0.0104414 -0.562 0.313185 0.765552
0.154587 -0.166499 0.287025 0.562 -0.313185 -0.765553
-0.0962431 -0.183899 0.288752 -0.562 0.313185 0.765553
-0.0441815 0.130039 -0.258497 0.443057 -0.667583 0.598359
0.0497931 -0.118139 0.357038 -0.0363695 -0.200795 0.978958
0.145639 -0.11217 0.358812 0.62925 -0.438829 0.641462
-0.237232 0.188402 -0.144006 -0.601707 0.480266 -0.638195
0.340127 0.104389 0.101559 -0.562 0.313186 0.765553
0.321184 0.0913683 -0.0755052 -0.131764 -0.636705 -0.759767
0.264451 0.361956 0.273471 -0.562 0.313185 0.765553
-0.215459 -0.252812 -0.282156 0.562 -0.313186 -0.765553
-0.398196 0.285434 -0.181679 -0.562 0.313185 0.765553
0.0191738 -0.425163 0.108911 -0.0273904 -0.932084 0.361206
-0.110545 -0.068862 -0.337153 0.562 -0.313186 -0.765552
0.29233 0.162253 -0.135947 0.561999 -0.313185 -0.765553
-0.272598 -0.330062 -0.0785588 -0.637957 -0.753227 -0.160187
-0.07939 0.0550719 -0.364379 -0.066055 0.0588504 -0.996079
-0.154434 0.352863 -0.20622 -0.295873 0.788187 -0.539648
0.26516 -0.0866036 0.301757 -0.131899 -0.0272447 -0.990889
0.32301 0.122504 0.394782 0.825744 0.158733 0.541249
0.0817228 -0.369288 0.201356 -0.218077 0.878953 -0.424127
0.339266 0.0107712 0.139226 -0.561999 0.313186 0.765553
-0.0782895 0.460009 -0.163794 0.562 -0.313186 -0.765553
0.00883904 -0.426111 0.269906 0.0961241 -0.894544 0.436521
-0.244932 -0.178139 -0.334341 0.562 -0.313186 -0.765552
0.375495 -0.0373165 0.0098497 0.978894 -0.14231 -0.146677
-0.417785 0.0862684 -0.114582 -0.562 0.313186 0.765553
0.2488 -0.292634 0.2151 0.47732 -0.633086 0.609399
0.163295 0.176893 0.112634 -0.729625 -0.623682 -0.280478
0.161246 -0.168255 0.292631 0.562 -0.313185 -0.765553
0.200668 0.435939 0.196382 -0.562 0.313186 0.765553
-0.0738111 -0.326014 0.178081 0.0685634 0.939999 -0.334218
0.286897 0.0639939 0.266302 0.562 -0.313186 -0.765553
0.0198721 0.268563 -0.0083887 -0.230534 -0.948178 0.21866
-0.00754476 0.261728 -0.218037 -0.562 0.313186 0.765553
0.110649 -0.108009 0.223381 -0.57267 0.520507 -0.633341
0.146953 0.344996 0.194153 -0.562 0.313186 0.765553
0.0483527 0.250749 -0.125754 -0.244048 0.961103 0.12931
-0.1233 -0.200527 -0.292653 0.562 -0.313186 -0.765553
-0.00225217 -0.369358 0.37686 -0.561999 0.313186 0.765553
-0.21449 -0.443079 0.108457 -0.346353 -0.929599 0.126036
0.103758 0.31322 -0.157394 -0.562 0.313186 0.765553
-0.151541 -0.301757 0.222979 0.150297 0.948803 -0.277819
0.294166 -0.265324 0.100644 -0.542209 0.559456 -0.626912
0.149434 0.213551 0.0160718 -0.552365 -0.831023 -0.0655268
-0.0853795 -0.376774 -0.104351 0.454436 0.890254 -0.030595
-0.034766 0.433523 0.0245354 -0.562 0.313186 0.765553
0.082554 0.4936 -0.0585045 0.230535 0.948178 -0.21866
-0.316682 0.265061 -0.113505 -0.562 0.313186 0.765553
0.370345 0.213315 0.266719 0.812053 0.38487 0.438686
0.171285 -0.351755 0.198182 0.334005 -0.760801 0.556438
-0.0878616 -0.403728 0.328075 -0.562 0.313186 0.765553
-0.352378 -0.079258 -0.243043 -0.825744 -0.158733 -0.54125
0.194237 -0.0397998 0.170058 -0.759531 0.171084 -0.627569
-0.0597889 0.344984 -0.0144366 -0.027391 -0.932084 0.361205
0.223955 0.373137 -0.0373055 0.454435 0.890255 -0.0305962
0.0183904 -0.424575 0.110369 -0.0273904 -0.932084 0.361206
-0.217163 0.0339694 -0.278744 -0.562 0.313186 0.765553
0.228498 0.150123 0.333738 -0.562 0.313186 0.765553
-0.122201 -0.450504 0.194509 -0.150296 -0.948803 0.277819
-0.209388 0.0566443 -0.282313 -0.562 0.313185 0.765553
-0.202041 -0.402142 0.243606 -0.562 0.313186 0.765553
-0.0978983 0.304525 -0.306809 -0.334005 0.760801 -0.556438
0.176205 -0.0616461 0.284203 0.723146 -0.263246 0.638562
0.185668 0.194438 -0.113409 -0.419421 -0.905631 0.0625903
-0.432788 -0.0215731 -0.0814781 -0.562 0.313186 0.765553
-0.0750289 -0.237892 0.0832334 0.230535 0.948178 -0.218659
-0.206239 -0.266945 -0.147622 -0.562 0.313186 0.765553
0.317152 0.136145 0.399718 0.825744 0.158733 0.541249
0.364641 0.120715 0.30017 0.562 -0.313186 -0.765553
-0.318719 0.261128 -0.113391 -0.562 0.313186 0.765553
-0.332319 -0.119209 -0.0145175 -0.779546 -0.509973 -0.363644
-0.252088 -0.179452 0.172525 -0.562 0.313186 0.765552
0.400137 -0.0586552 0.188612 0.788367 -0.077222 0.610339
-0.126359 0.20227 -0.280935 -0.561999 0.313186 0.765553
-0.472258 -0.0839232 -0.175586 -0.826419 -0.251173 -0.503928
-0.00931456 -0.127263 0.299773 -0.37131 0.731521 -0.571845
0.440799 -0.0150183 0.103259 0.978894 -0.14231 -0.146678
0.355016 0.285491 -0.0400992 0.637957 0.753227 0.160187
0.240118 -0.12655 0.454006 0.679575 -0.35279 0.643208
-0.208336 -0.169693 -0.20551 0.803205 0.42767 0.414682
-0.332817 0.00992381 -0.281258 -0.799862 0.0299444 -0.599437
0.232021 0.152343 0.335416 -0.562 0.313186 0.765553
-0.207253 -0.0584493 -0.148393 0.82711 0.205207 0.523239
-0.317658 -0.265602 -0.134262 -0.748139 -0.587207 -0.308991
-0.190995 0.20792 -0.343302 -0.542208 0.559456 -0.626912
0.0212594 -0.284463 0.35939 -0.561999 0.313186 0.765553
0.314241 0.350622 0.169116 0.561999 -0.313185 -0.765553
0.376485 -0.213004 0.161715 0.655226 -0.396304 0.643135
0.0231307 0.278121 -0.0421757 0.428653 0.63207 -0.645557
-0.106842 0.435324 -0.0291129 -0.562 0.313186 0.765553
0.0538882 0.375929 -0.0079183 -0.269845 -0.944327 0.188226
-0.352628 0.134262 -0.0447138 -0.922272 0.375195 0.0929722
0.200092 0.332824 0.0925999 0.562 -0.313186 -0.765553
-0.185582 -0.194367 0.115016 0.419421 0.905631 -0.0625903
0.369435 -0.0341663 0.00101095 0.562 -0.313186 -0.765553
-0.201157 -0.180285 0.0205916 0.610921 0.781123 0.128928
0.226287 0.158684 -0.0202096 -0.663406 -0.72346 -0.191047
0.32537 -0.170397 0.092526 0.562 -0.313186 -0.765553
-0.105906 -0.436474 0.246241 -0.0685644 -0.939999 0.334217
0.0715581 -0.200883 0.172751 0.514553 -0.822564 0.242122
-0.313277 -0.270004 0.107888 -0.561999 0.313185 0.765553
-0.317363 0.0118901 -0.132417 0.562 -0.313186 -0.765553
-0.226148 -0.406629 0.227744 -0.562 0.313186 0.765553
-0.277564 -0.261292 -0.0150005 0.561999 -0.313186 -0.765553
0.153968 -0.427174 0.0852047 0.136956 -0.877535 0.459538
0.00649302 0.416143 -0.130102 0.0685637 0.939999 -0.334218
-0.0683252 -0.281973 0.281236 -0.562 0.313185 0.765553
0.26892 0.340744 0.0357959 0.582367 0.807076 0.0973485
0.236569 0.336462 0.263432 -0.562 0.313185 0.765553
-0.350242 -0.180678 -0.184514 -0.803205 -0.42767 -0.414682
-0.130886 0.354482 0.0315733 -0.436268 0.864514 0.249572
0.0694752 -0.186914 0.171899 -0.334005 0.7608 -0.556438
-0.390646 0.144431 -0.263995 0.562 -0.313186 -0.765553
-0.498417 0.019534 -0.163944 -0.816862 -0.0647159 -0.573191
0.327785 0.22126 0.164093 -0.703951 -0.544832 -0.455645
-0.0830846 -0.412223 0.111791 -0.190652 -0.949671 0.248548
0.0572702 0.415181 0.0996036 -0.562 0.313186 0.765553
0.278805 -0.288028 0.195247 0.510399 -0.597013 0.618925
-0.00030919 -0.21451 0.28893 0.257004 -0.813615 0.521517
0.0238392 0.351579 -0.28152 -0.0961254 0.894544 -0.436522
-0.378045 0.155393 -0.25923 0.562 -0.313186 -0.765553
-0.0376933 0.527256 -0.0176683 0.109567 0.945576 -0.306399
0.0937041 0.284648 0.0318115 0.699695 0.350868 -0.622349
0.338666 -0.0604664 0.0874717 0.799862 -0.0299439 0.599436
-0.2008 0.266462 -0.17411 0.443057 -0.667583 0.598359
0.330411 0.299171 0.245956 0.764793 0.549274 0.336735
-0.470787 0.12481 -0.192671 -0.759531 0.171084 -0.627569
0.0858526 -0.25037 0.270877 0.562 -0.313186 -0.765553
0.294734 -0.00273183 0.0334778 -0.825744 -0.158732 -0.54125
0.289798 -0.173936 0.374773 0.655226 -0.396304 0.643135
0.0216269 -0.287572 0.238948 0.562 -0.313186 -0.765553
-0.168906 0.463869 -0.148965 -0.177445 0.858345 -0.481411
0.0439295 0.494593 -0.086283 0.150296 0.948803 -0.277819
-0.278209 0.343003 -0.24598 -0.477321 0.633085 -0.609399
-0.250707 -0.0974208 -0.249618 -0.562 0.313185 0.765553
-0.319925 -0.191838 -0.0616015 0.748139 0.587208 0.308991
-0.45536 -0.168556 -0.148616 -0.812052 -0.384871 -0.438686
0.284458 0.250867 -0.109846 0.562 -0.313186 -0.765552
0.403418 -0.0542815 0.184835 0.799862 -0.0299454 0.599437
-0.0870021 -0.173589 0.278001 -0.465313 0.854057 0.232528
-0.121026 0.293977 -0.105048 -0.217496 0.83702 -0.502088
-0.239286 -0.329914 0.186716 -0.562 0.313186 0.765553
-0.204555 0.210807 -0.0491692 0.477321 -0.633085 0.6094
-0.288551 -0.26314 -0.207535 -0.764793 -0.549272 -0.336736
0.236998 -0.112373 0.447365 -0.561999 0.313186 0.765553
0.156296 -0.29812 0.277506 0.407688 -0.700424 0.58583
-0.246703 -0.132732 -0.0640057 -0.311211 -0.597174 -0.739277
-0.164927 0.123763 -0.160427 0.601708 -0.480265 0.638195
-0.030027 -0.448073 0.0152117 -0.230535 -0.948178 0.218659
0.0645188 -0.448564 0.00504973 0.348842 -0.886204 -0.304879
-0.129549 -0.345124 -0.172991 0.610921 0.781123 0.128928
0.285415 0.345908 0.149883 0.562 -0.313186 -0.765553
-0.187983 0.284445 -0.270613 -0.443055 0.667585 -0.598358
-0.349198 0.237725 -0.271735 0.562 -0.313185 -0.765553
-0.196616 -0.380863 0.00395783 0.412115 0.910776 0.0254755
0.321598 0.225593 0.167536 -0.636077 -0.566575 -0.523831
0.2852 -0.217378 0.0141248 0.561999 -0.313186 -0.765553
-0.358315 -0.3347 -0.0442502 0.562 -0.313186 -0.765553
-0.0430161 0.338162 0.114252 -0.562 0.313186 0.765552
-0.0495775 -0.326408 0.181153 0.0273914 0.932084 -0.361205
0.129673 -0.430701 0.0855755 0.0961258 -0.894543 0.436522
-0.0349125 0.438734 0.0222958 -0.562 0.313186 0.765553
0.182104 0.469683 0.0342051 0.454435 0.890254 -0.0305955
-0.0703221 0.189393 -0.168002 0.334005 -0.7608 0.556438
-0.360228 0.0421595 0.00247753 -0.562 0.313185 0.765553
0.124827 -0.362478 0.023886 0.562 -0.313186 -0.765553
0.152757 0.487099 0.119641 0.488319 0.872664 0.00147513
0.245921 -0.353518 0.097746 0.562 -0.313185 -0.765553
0.171958 -0.275101 -0.0133449 -0.257003 0.813616 -0.521516
0.125496 0.169493 0.210606 -0.79236 -0.469406 -0.389646
-0.449622 -0.190293 -0.138236 -0.803205 -0.42767 -0.414682
0.334669 -0.0118539 0.266548 -0.690843 -0.0245674 -0.722587
-0.300207 -0.0622928 -0.324224 -0.816862 -0.0647156 -0.573191
0.0325214 0.353619 -0.279253 -0.0961254 0.894544 -0.436522
-0.333239 -0.151614 0.0947818 -0.883336 -0.267896 0.384642
-0.255205 0.08747 -0.356308 -0.723146 0.263247 -0.638562
-0.230666 0.0160203 -0.143877 -0.582081 -0.0702454 -0.810091
-0.0802731 0.319096 -0.296199 -0.295873 0.788187 -0.539649
-0.293753 -0.408398 0.0453774 -0.520991 -0.852903 -0.033544
0.233808 0.420902 0.0813184 0.562 -0.313186 -0.765553
0.0776523 -0.00418603 0.325118 -0.908753 0.407592 0.0896419
-0.00497964 -0.408126 0.245176 0.562 -0.313186 -0.765553
0.243951 0.316347 -0.177741 0.562 -0.313186 -0.765552
-0.0055748 0.188035 -0.323867 -0.334006 0.7608 -0.556438
-0.315792 -0.275049 0.108106 -0.561999 0.313185 0.765553
