ply
format ascii 1.0
comment Created by Open3D
element vertex 400
property double x
property double y
property double z
property double nx
property double ny
property double nz
end_header
-0.126772 -0.0696265 -0.319939 0.499056 0.224192 -0.837067
0.144375 0.032481 -0.128816 0.469147 0.224779 -0.854035
0.164322 0.193675 -0.0817338 0.512495 0.176626 -0.840328
-0.119738 -0.154651 0.113948 -0.302917 -0.547045 0.780374
0.28002 -0.176811 -0.0961726 0.463146 0.256687 -0.848297
-0.160882 0.210806 -0.272526 0.517955 0.18518 -0.835123
0.2764 0.106908 -0.0315987 0.452415 0.252297 -0.855375
0.445075 0.194816 0.167708 0.665893 0.302763 0.681851
0.12811 0.155194 0.0782983 -0.0112811 0.153265 0.988121
0.211101 -0.152042 0.0383362 0.152062 -0.500242 0.852429
0.0575627 -0.275167 -0.256454 0.516762 0.176256 -0.837789
0.0400884 -0.286162 -0.0852185 -0.268779 -0.729896 0.628498
0.0638626 0.380747 0.0545323 -0.462311 -0.22495 0.85771
-0.154957 0.466867 -0.202789 -0.476371 0.874501 -0.0912113
-0.045068 -0.130559 0.0877352 0.710856 -0.657368 0.250101
0.310437 0.31502 0.0371302 0.545358 0.148678 -0.824912
0.476825 -0.0642002 0.148425 0.574682 -0.237595 0.783127
0.0374694 -0.0265151 0.0918144 -0.515475 -0.177833 0.838249
0.27135 0.376965 0.0301205 0.489582 0.23248 -0.840394
-0.170239 -0.146053 0.0132935 -0.434118 -0.77722 -0.455489
-0.198111 0.137985 -0.0862808 -0.793636 0.211158 0.570574
-0.19044 -0.284421 -0.254245 -0.517437 -0.189889 0.834387
-0.290322 -0.154823 -0.289202 -0.575975 -0.251816 0.777716
-0.192162 -0.0589707 0.0946876 -0.533998 -0.187313 0.824475
0.13969 0.46141 -0.0301286 0.526701 0.170297 -0.832818
0.14796 0.497372 0.0364212 0.135491 0.951264 0.277018
-0.230326 -0.230601 -0.420403 0.564315 0.142235 -0.813215
-0.0425569 -0.115206 -0.280224 0.509137 0.198468 -0.83749
0.0108522 -0.416377 -0.167985 -0.476381 -0.474134 0.740445
0.177907 0.356231 -0.0327476 0.515468 0.191655 -0.835201
0.0698366 -0.0315652 -0.189578 0.522434 0.173122 -0.83492
0.363528 -0.00670537 0.146525 -0.531069 -0.129129 0.837432
-0.116182 0.288247 -0.0782674 -0.541075 -0.172196 0.823157
-0.0664981 0.373358 -0.0271824 -0.555934 -0.14801 0.817943
-0.229671 -0.0324697 0.0276579 -0.798418 0.295102 -0.524827
0.413091 0.320279 0.108373 0.644854 0.560087 0.520064
0.10214 -0.353708 -0.244915 0.494053 0.229441 -0.838611
-0.255641 0.0131987 -0.378213 0.500142 0.222802 -0.83679
0.211932 0.198583 0.101744 -0.489243 -0.201679 0.848509
-0.217928 -0.1174 -0.165492 -0.884162 -0.328205 0.332474
0.232394 -0.227696 0.0118851 -0.599466 -0.124479 0.790661
0.0782102 -0.114117 0.0682271 0.112723 -0.456712 0.882444
0.472259 0.0148915 0.0662296 0.52341 0.179879 -0.832878
0.0514272 0.0489798 -0.18267 0.503102 0.216995 -0.836542
0.0288409 0.104121 -0.182531 0.472544 0.262204 -0.841398
0.349384 0.129057 0.167015 -0.470261 -0.211847 0.856724
0.333155 0.296714 0.176654 -0.00920182 0.264425 0.964362
-0.0689387 -0.124098 0.138379 0.415169 -0.536416 0.734774
0.248783 -0.0118186 -0.0771379 0.505304 0.204814 -0.838283
0.00328464 -0.0963003 -0.245709 0.522763 0.182693 -0.832672
0.312236 -0.297831 0.046342 -0.450408 -0.300438 0.840755
-0.25339 0.337235 -0.300655 0.544533 0.158605 -0.823607
-0.212994 0.0423849 -0.0782936 -0.903706 0.148506 0.401573
0.383639 0.277657 0.0747775 0.515921 0.186107 -0.836176
-0.338664 0.221627 -0.246892 -0.879505 0.0836855 0.468474
0.048173 -0.189104 -0.23915 0.49826 0.217277 -0.839362
-0.263995 0.0801148 -0.194781 -0.898306 0.0144534 0.439133
0.402372 0.161784 0.0555002 0.483397 0.302174 -0.821595
-0.208496 -0.151606 -0.385362 0.478789 0.21372 -0.851519
0.129073 -0.458997 -0.148204 -0.152338 -0.938492 0.30988
0.174477 0.3438 0.109111 -0.428101 -0.283663 0.858059
0.202428 0.303982 -0.0300782 0.573333 0.179108 -0.799506
-0.135199 0.414079 -0.210739 0.532538 0.150401 -0.832936
-0.253017 0.140972 -0.184316 -0.87732 0.15176 0.455278
-0.342243 0.203979 -0.338729 -0.818971 0.350414 -0.45442
-0.238391 -0.0945747 -0.391303 0.458312 0.212423 -0.863033
-0.122862 0.392934 -0.057277 -0.493675 -0.240268 0.835797
0.331716 0.0465595 0.137237 -0.543853 -0.167169 0.822361
-0.144538 0.0697769 0.013039 -0.651909 0.46325 0.600345
-0.288939 0.240977 -0.346411 0.422215 0.287518 -0.859691
0.252672 -0.438048 -0.169192 0.349626 -0.93621 -0.0356725
0.0186594 0.406394 0.0290492 -0.47644 -0.277798 0.834166
0.331462 -0.0674625 -0.036756 0.510697 0.196196 -0.837076
0.245835 0.437333 0.0291189 0.50015 0.22084 -0.837305
-0.081251 0.503194 -0.122482 -0.327323 0.944679 0.020998
-0.279066 0.00764905 -0.235596 -0.927458 -0.121186 0.353744
0.421177 -0.0370545 0.0251604 0.515118 0.189203 -0.835976
0.207178 -0.297601 -0.170636 0.469441 0.2364 -0.850729
0.199037 -0.317613 -0.029336 -0.50285 -0.207112 0.839194
-0.022932 0.143175 -0.203832 0.537876 0.101068 -0.836944
-0.231729 -0.254768 -0.275804 -0.620142 -0.288291 0.729598
-0.267386 -0.0615748 -0.236619 -0.906578 -0.238572 0.348138
0.139768 -0.36297 -0.0750244 -0.494212 -0.226019 0.839446
0.0173783 0.105768 0.0799004 -0.120585 0.2511 0.960421
-0.0274783 -0.0099633 0.0957377 0.735437 0.38605 0.556863
-0.207773 -0.136174 0.0543798 -0.737885 -0.652933 0.17089
-0.236162 0.386759 -0.278792 0.524475 0.172182 -0.833834
0.307079 0.116606 0.137277 -0.553717 -0.106996 0.825802
-0.227754 -0.145816 -0.227177 -0.852517 -0.406424 0.328687
0.47352 -0.241217 0.0159031 0.750412 -0.56044 0.350411
0.184351 -0.455239 -0.133589 0.0821166 -0.984592 0.154387
0.107586 -0.301289 -0.228327 0.505695 0.20311 -0.838462
-0.112429 -0.398035 -0.303902 -0.473108 -0.852624 -0.221814
-0.1965 -0.0773133 -0.0655118 -0.671176 -0.254574 0.696215
-0.218404 0.0509033 -0.348842 0.526065 0.168325 -0.83362
0.348031 -0.225868 -0.0657617 0.499344 0.214332 -0.839474
-0.199723 -0.0200943 -0.0243603 -0.988813 0.076243 0.128203
0.486791 0.00544096 0.158884 0.658876 -0.0945365 0.746287
0.0486614 -0.252198 -0.041238 -0.217391 -0.702513 0.677655
0.2192 0.471969 0.0558134 0.270728 0.883672 0.381876
0.189907 0.423942 -0.0122598 0.524665 0.185478 -0.830858
0.44455 -0.247259 0.063591 0.636707 -0.57307 0.515941
0.188456 -0.370503 -0.0473513 -0.529795 -0.164553 0.832009
-0.173538 -0.198239 -0.377585 0.494353 0.217788 -0.841536
0.326065 0.182065 0.166713 -0.471726 -0.247759 0.846221
0.130197 -0.182892 0.0272971 -0.0109038 -0.545887 0.837788
0.190277 -0.455121 -0.192988 0.202644 -0.973742 -0.103739
-0.119066 -0.0751469 0.135691 -0.494815 -0.225545 0.839219
0.19917 -0.061436 0.0756115 0.102328 -0.238934 0.965629
-0.121278 -0.157836 -0.0198705 -0.479146 -0.8213 0.309653
0.415252 -0.0383339 0.166826 -0.30372 -0.208054 0.929768
0.303764 -0.352643 0.0170693 -0.188678 -0.549918 0.813628
-0.149463 -0.251241 -0.374998 0.488115 0.254265 -0.834921
0.150709 -0.395571 -0.223743 0.516426 0.173765 -0.838516
-0.040756 0.204465 -0.198543 0.503771 0.201743 -0.839949
0.0734875 -0.176682 0.0293869 -0.0540466 -0.576697 0.815168
0.100777 -0.265877 -0.0433687 -0.124135 -0.708266 0.694945
0.137816 -0.097462 0.0694815 0.0133815 -0.315297 0.948899
0.489857 0.130779 0.137678 0.811701 0.142144 0.566513
0.00758548 -0.0230695 -0.227933 0.483022 0.223623 -0.846571
0.381296 -0.216028 0.106562 -0.304349 -0.288471 0.90783
-0.0775705 -0.314223 -0.195252 -0.52935 -0.179633 0.829169
0.447956 0.134748 0.181024 0.494455 0.104805 0.862862
0.461801 -0.141607 0.129243 0.436887 -0.370533 0.819655
0.386414 -0.340153 0.00574055 0.525558 -0.750921 0.399884
-0.185114 0.044597 -0.025011 -0.85377 0.306072 0.421186
0.399039 0.163891 0.191602 -0.00560522 -0.0135115 0.999893
0.45488 0.174572 0.0934454 0.505602 0.197613 -0.839831
0.193916 0.0816656 -0.0867856 0.502149 0.205234 -0.840075
0.285081 -0.229078 -0.104009 0.518414 0.187475 -0.834326
0.0628552 0.52596 -0.0583321 -0.0936124 0.968881 0.229141
0.171177 0.455027 0.0963989 -0.0879555 0.659575 0.746475
0.0184852 -0.115567 0.0591138 -0.50514 -0.207179 0.837801
-0.174231 0.386694 -0.0906243 -0.570621 -0.0438548 0.820042
-0.136032 0.481438 -0.147757 -0.375546 0.92135 -0.100397
-0.0761456 -0.207288 -0.052463 -0.418812 -0.748847 0.513638
0.346818 0.10059 0.0126735 0.496877 0.225185 -0.838096
-0.226341 0.126 -0.334068 0.512036 0.183982 -0.839029
-0.295576 0.33344 -0.258908 -0.806731 0.5616 -0.183824
0.265297 -0.0682619 0.0720691 -0.475732 -0.225702 0.85014
-0.0896031 0.446788 -0.0302162 -0.599994 0.18648 0.777967
0.114886 -0.447516 -0.260064 0.47168 0.2439 -0.847367
0.23486 0.381554 0.142772 -0.198885 0.284137 0.937929
0.364021 0.242931 0.18732 0.0214395 0.0813448 0.996455
-0.288276 -0.0594893 -0.415249 0.512562 0.193002 -0.836678
0.00197252 0.298651 -0.00505713 -0.505343 -0.224101 0.833311
-0.161009 -0.359567 -0.323178 -0.617282 -0.763423 -0.190126
-0.228761 0.210371 -0.166331 -0.511629 -0.195285 0.83672
-0.124337 0.186569 -0.0291111 -0.621932 0.432382 0.652875
0.439819 -0.0995487 0.0181216 0.528042 0.146945 -0.836408
0.0954666 -0.162032 -0.205627 0.436451 0.235851 -0.868266
0.448386 -0.197837 0.103262 0.425103 -0.483203 0.765377
0.267831 0.280658 0.154411 -0.564724 -0.162806 0.809062
-0.156548 -0.0130597 -0.321308 0.491251 0.250003 -0.834369
0.0296523 -0.325877 -0.132503 -0.498982 -0.207779 0.841335
-0.171453 0.277185 -0.266232 0.569407 0.168155 -0.804674
0.500064 -0.0481799 0.0694486 0.523963 0.14726 -0.838914
0.417307 0.269094 0.151295 0.715655 0.488242 0.499457
0.266766 -0.135694 0.0583275 -0.517654 -0.189075 0.834437
0.136097 0.0988393 -0.118585 0.484101 0.22202 -0.846377
0.274916 -0.426416 -0.106175 0.394602 -0.917403 0.0515809
-0.128426 0.0409768 0.121774 0.141157 0.942394 0.303264
0.0694555 0.0321825 0.097072 0.0549567 0.0595968 0.996709
0.21906 -0.220276 -0.143595 0.497729 0.211938 -0.84104
0.131095 0.362243 -0.0619812 0.486725 0.234012 -0.841628
-0.119434 -0.213225 -0.109069 -0.590038 -0.677523 0.439111
0.502581 -0.0945182 0.102564 0.850053 -0.251771 0.462624
0.283717 0.436511 0.0809442 0.42785 0.797246 0.425844
0.227122 0.248123 -0.0265117 0.427321 0.282391 -0.858867
0.174424 -0.343975 -0.19968 0.497007 0.262136 -0.827205
-0.179456 0.242764 -0.12099 -0.736685 0.339773 0.584679
0.317247 0.145247 0.000393917 0.525706 0.172204 -0.833054
0.292907 0.39129 0.136262 0.288962 0.622128 0.727638
-0.167073 -0.315803 -0.395763 -0.541055 -0.699336 -0.467107
-0.28414 0.179692 -0.355811 0.495736 0.211824 -0.842245
0.376942 0.068437 0.171903 -0.500417 -0.250355 0.828798
0.340827 0.0394372 -0.00738775 0.528867 0.158079 -0.833853
-0.226963 0.000601616 0.0766363 -0.864179 0.377363 0.332855
-0.144 -0.170192 0.0627412 0.0158497 -0.970284 -0.241448
-0.204037 -0.037774 -0.358479 0.567707 0.133589 -0.812319
0.39701 0.105373 0.0412764 0.505752 0.230463 -0.831325
0.15223 -0.310333 -0.0540854 -0.466027 -0.209177 0.859688
0.00737401 0.460391 0.0282872 -0.476941 0.204931 0.854711
0.306202 0.237943 0.166986 -0.539205 -0.151271 0.828478
-0.287331 0.203607 -0.203348 -0.49373 -0.231931 0.838116
-0.326798 -0.13756 -0.334674 -0.895748 -0.397436 0.199197
0.154406 -0.0539095 -0.144498 0.571656 0.193935 -0.797245
-0.0825321 0.492655 -0.0590611 -0.459876 0.779237 0.425798
0.0219779 -0.213035 -0.0117149 -0.243064 -0.665501 0.705711
0.0185782 0.368162 -0.126867 0.530771 0.165834 -0.831132
-0.272051 0.370254 -0.227308 -0.750167 0.655803 -0.084686
0.180623 0.264809 0.0986164 -0.545728 -0.178209 0.818793
0.318179 -0.00600449 -0.0297637 0.492933 0.220286 -0.841719
0.251504 0.312985 0.000773959 0.505639 0.257057 -0.82356
-0.257077 0.0232397 -0.17549 -0.934318 0.051194 0.352745
-0.01892 -0.434108 -0.216206 -0.453327 -0.818781 0.352268
0.0889453 -0.221896 -0.00800194 -0.0916252 -0.650049 0.754348
0.22712 0.371167 0.00103212 0.490876 0.198712 -0.848265
0.25552 -0.08195 -0.0882476 0.495859 0.224712 -0.838825
-0.322477 0.145999 -0.386781 0.508863 0.200176 -0.83725
-0.071762 0.0406541 0.0808919 0.340607 0.846422 0.409336
-0.0771298 -0.374347 -0.360413 0.519582 0.162986 -0.838731
-0.0066766 -0.162353 -0.267834 0.503465 0.209885 -0.838136
-0.195945 -0.123469 -0.117426 -0.841373 -0.418263 0.342268
-0.0146921 0.351965 0.00171586 -0.535271 -0.171139 0.827161
-0.1709 0.179226 -0.0752262 -0.734209 0.328037 0.594414
-0.194609 -0.188666 -0.207401 -0.784768 -0.509605 0.352763
-0.367487 0.128194 -0.317526 -0.983701 0.127306 -0.126984
-0.0453817 -0.36396 -0.189006 -0.533937 -0.142247 0.833473
0.122485 -0.461974 -0.207809 0.0729592 -0.983218 -0.167211
0.489663 -0.162652 0.0792314 0.801543 -0.392133 0.451399
-0.172751 -0.119165 0.0924897 -0.499985 -0.203181 0.841863
-0.224323 0.277482 -0.145754 -0.499509 -0.234507 0.833965
-0.278523 -0.22087 -0.313214 -0.781353 -0.481915 0.396541
0.15024 -0.215257 -0.183724 0.500656 0.2118 -0.839335
0.0477214 -0.12812 -0.224449 0.507053 0.199041 -0.838618
0.131071 0.29725 0.0745557 -0.509489 -0.201746 0.836492
-0.179717 0.37617 -0.245625 0.513752 0.191276 -0.836345
0.164145 0.201334 0.0707959 -0.493324 -0.207326 0.844776
-0.023734 -0.0821262 0.0948659 0.864052 -0.226866 0.449384
0.336677 0.354434 0.148839 0.396565 0.574163 0.716291
-0.0575528 -0.428174 -0.264113 -0.377483 -0.924554 -0.0520294
0.324511 -0.0810132 0.105484 -0.475741 -0.222124 0.851077
-0.126625 0.33554 -0.223371 0.446776 0.256988 -0.856941
0.0913091 0.228853 0.0525803 -0.199633 0.337669 0.919851
0.029353 0.47875 -0.0948779 0.49051 0.211853 -0.845292
0.0650142 0.147743 -0.150409 0.500012 0.230743 -0.834713
-0.126521 0.169587 -0.262241 0.462061 0.209026 -0.861863
0.205585 -0.0555358 -0.116 0.500051 0.205142 -0.841347
0.138376 -0.122014 -0.1692 0.507368 0.211915 -0.835267
-0.27646 0.0835888 -0.372205 0.573529 0.137292 -0.807598
0.173661 -0.418474 -0.0735136 -0.34534 -0.559744 0.753278
0.129178 0.515198 -0.0155397 0.0464018 0.948575 0.313132
0.324467 -0.389904 -0.0242514 0.294845 -0.844217 0.447621
0.325431 -0.268645 -0.0930647 0.512086 0.195613 -0.836363
-0.331966 -0.07504 -0.299879 -0.715076 -0.309786 0.626657
0.0757038 -0.407415 -0.275058 0.535063 0.162002 -0.829134
0.0462099 0.246027 -0.138172 0.495509 0.342185 -0.798361
-0.0318244 -0.30297 -0.149509 -0.416278 -0.745722 0.520203
-0.35514 0.00482384 -0.373849 -0.902768 -0.118631 -0.413444
0.278013 0.210714 -0.00727008 0.433181 0.249722 -0.866022
0.447527 -0.287829 -0.0192843 0.525706 0.181822 -0.831008
0.196982 -0.00523345 0.0876048 0.0605071 -0.100191 0.993127
-0.0561139 0.259937 -0.0188627 -0.477872 0.421797 0.770536
0.0354018 0.247961 0.0281768 -0.311932 0.40345 0.86019
0.108561 -0.413501 -0.10634 -0.514092 -0.293757 0.805863
0.39706 -0.272218 0.0757515 0.194612 -0.573633 0.795658
-0.11747 -0.174402 -0.338121 0.449577 0.253647 -0.856472
0.142289 0.04231 0.0911031 0.0394791 0.023331 0.998948
-0.234048 0.085849 -0.131955 -0.883894 0.111636 0.454169
-0.0303665 0.494366 -0.017109 -0.414789 0.705382 0.574792
0.395219 -0.0846346 -0.00436778 0.559964 0.155231 -0.813845
0.262103 -0.386203 -0.0177131 -0.20412 -0.607977 0.767268
0.261131 -0.286355 -0.134677 0.504444 0.209317 -0.837688
-0.172827 0.0417246 0.0843218 -0.403173 0.912069 0.074706
-0.0737297 0.331062 -0.193112 0.49541 0.212848 -0.842178
0.0464773 -0.456344 -0.204043 -0.29026 -0.933334 0.211274
-0.292413 0.303209 -0.325846 -0.824449 0.486195 -0.289651
-0.152355 0.336378 -0.091147 -0.499472 -0.248903 0.829804
0.408655 -0.107141 0.146904 -0.315563 -0.242906 0.917288
0.0930332 0.423773 -0.0695028 0.490255 0.214513 -0.844769
-0.0154394 0.306989 -0.162894 0.513061 0.191701 -0.836672
-0.0313958 0.0136883 -0.238974 0.516926 0.181177 -0.836637
-0.297028 0.148142 -0.221982 -0.489384 -0.233492 0.840229
0.398052 -0.192987 -0.0273033 0.480078 0.252265 -0.840171
-0.309407 -0.0044578 -0.41617 0.532484 0.168923 -0.829413
-0.0400443 0.443342 0.00314202 -0.567858 0.0177351 0.822935
-0.0474114 -0.0379446 -0.261728 0.455798 0.242668 -0.856365
0.212418 0.135179 0.0857899 -0.583863 -0.15748 0.796432
-0.0573773 -0.188835 -0.305312 0.509772 0.196892 -0.837476
-0.0249072 0.518695 -0.118687 0.525732 0.174988 -0.832457
-0.0926069 0.126469 -0.25213 0.448698 0.224021 -0.86515
-0.0314871 0.363611 -0.160175 0.484655 0.247676 -0.838907
0.0811389 0.505487 0.0232054 -0.101092 0.913977 0.392972
-0.0744142 -0.0447776 0.162222 0.0714793 0.00665478 0.99742
0.225704 0.0651713 0.0882656 0.0739413 -0.0453743 0.99623
-0.141828 0.113354 -0.284581 0.509854 0.199862 -0.836722
-0.300644 -0.192237 -0.356333 -0.867039 -0.476187 -0.146591
-0.0990513 0.27933 -0.220337 0.5116 0.184509 -0.839179
-0.356904 0.175197 -0.274092 -0.923723 0.0559399 0.378954
0.23383 0.435042 0.114136 0.140864 0.669174 0.729632
0.0286785 -0.320031 -0.285002 0.488065 0.243785 -0.83807
-0.296026 0.300705 -0.195039 -0.785555 0.123582 0.606326
-0.367345 0.0444641 -0.338683 -0.992847 0.000153991 -0.119391
-0.261026 -0.113362 -0.260245 -0.469342 -0.242546 0.849052
0.30883 -0.23806 0.0575917 -0.486139 -0.239016 0.84056
-0.0979185 -0.11908 -0.312824 0.532241 0.17164 -0.829011
0.492521 0.0626582 0.0893117 0.518428 0.178879 -0.836202
0.0857942 -0.0581975 0.0884107 0.0607123 -0.209558 0.97591
0.357139 0.332667 0.0694024 0.49342 0.214606 -0.8429
-0.134614 -0.0168526 0.138672 -0.496471 -0.210881 0.842048
-0.0186732 -0.26872 -0.0933328 -0.297489 -0.81857 0.491369
-0.308515 0.06682 -0.246658 -0.517062 -0.17559 0.837744
-0.175533 0.0761189 -0.313114 0.542422 0.154358 -0.825804
-0.233208 -0.291361 -0.322186 -0.800449 -0.591148 0.0991246
-0.0222908 -0.307372 -0.310177 0.514866 0.181155 -0.837912
-0.172836 -0.179272 -0.147762 -0.713329 -0.588779 0.380133
-0.202565 -0.31976 -0.297508 -0.735328 -0.621841 0.269455
0.145572 0.413125 0.106064 -0.415527 0.0354356 0.90889
0.281559 -0.343344 -0.134354 0.511846 0.195256 -0.836594
-0.255723 -0.251756 -0.36987 -0.684218 -0.59684 -0.419081
0.119333 0.160084 -0.114159 0.529999 0.172456 -0.830277
0.263104 0.218596 0.136739 -0.467213 -0.235318 0.852255
-0.10818 -0.265336 -0.177778 -0.537438 -0.732982 0.41701
0.207913 0.0246606 -0.0923073 0.510529 0.197358 -0.836905
-0.12936 -0.351003 -0.237583 -0.529154 -0.374894 0.761216
0.447255 0.0903136 0.067344 0.514943 0.192992 -0.835217
-0.138735 0.132467 -0.010788 -0.647129 0.361902 0.671007
-0.342636 -0.0735072 -0.375786 -0.908297 -0.275445 -0.314845
0.0599477 0.312612 0.0362449 -0.49219 -0.218826 0.842534
0.369598 -0.0303407 -0.00554046 0.51809 0.189791 -0.834004
0.363177 -0.132644 0.115249 -0.513094 -0.190374 0.836954
0.329937 0.195499 0.0222182 0.476737 0.209574 -0.853698
0.050112 0.306076 -0.122661 0.529754 0.184923 -0.827747
-0.167478 -0.0827843 -0.346322 0.539351 0.165409 -0.825676
0.494864 -0.108084 0.0518997 0.521148 0.188996 -0.832277
-0.352737 0.092932 -0.37915 -0.815012 0.197994 -0.544567
-0.242852 -0.0352732 -0.163085 -0.908844 -0.201389 0.365303
0.0973306 0.0176121 -0.159452 0.534791 0.175249 -0.826611
0.00310883 -0.437621 -0.280526 -0.147691 -0.944156 -0.294544
0.132321 0.294842 -0.0752114 0.51782 0.174612 -0.83748
-0.0681916 -0.169763 0.00423177 -0.184977 -0.83397 0.519882
-0.019786 -0.369432 -0.324739 0.546817 0.187855 -0.815905
0.129457 0.238507 -0.0901627 0.495046 0.228819 -0.838195
0.267345 0.0307737 0.0951135 -0.486595 -0.23142 0.842419
0.19358 -0.108263 -0.134932 0.498 0.214487 -0.840233
-0.0779365 0.180636 0.0093859 -0.480376 0.38373 0.788664
-0.135212 0.232045 -0.0666729 -0.636971 0.35457 0.684506
0.301382 -0.129697 -0.0694512 0.541439 0.167081 -0.823971
-0.331124 -0.00900091 -0.282095 -0.578256 -0.178768 0.796029
-0.168242 -0.122137 -0.0345381 -0.789688 -0.597059 0.141114
0.122353 -0.0113252 0.0917058 0.0841859 -0.0952733 0.991885
0.0264597 0.168757 0.0598369 -0.229846 0.351934 0.907366
-0.0145265 0.252103 -0.17542 0.54722 0.103419 -0.830575
-0.0919699 0.432957 -0.18076 0.49046 0.239167 -0.838003
0.267035 0.157912 -0.0231726 0.507618 0.212487 -0.834969
0.012155 0.200171 -0.168986 0.505271 0.197856 -0.839973
-0.0912686 -0.162243 0.0539396 0.306984 -0.948233 -0.0813391
-0.234204 0.352932 -0.136451 -0.605313 -0.0498916 0.794422
-0.280435 -0.135969 -0.427256 0.479956 0.225476 -0.847822
-0.237654 0.267552 -0.307757 0.490273 0.209537 -0.846007
-0.0975627 0.216995 -0.234424 0.491048 0.278399 -0.825449
-0.0358214 0.0945032 0.0746311 -0.466357 -0.167874 0.868522
0.0862898 0.207389 -0.123533 0.508733 0.2068 -0.835718
-0.218722 -0.0217039 -0.0901088 -0.930703 -0.0901568 0.354492
-0.350877 0.0512746 -0.282198 -0.716346 -0.253173 0.650193
0.381935 -0.301639 -0.0610931 0.543385 0.17357 -0.821344
0.0788133 0.086205 -0.156485 0.457633 0.292201 -0.839756
-0.17694 0.452884 -0.12757 -0.642165 0.715953 0.273925
-0.0436511 0.438403 -0.148898 0.477012 0.237747 -0.84613
-0.323333 0.285431 -0.250679 -0.919586 0.38411 0.0825871
-0.208102 -0.090469 -0.00394733 -0.77965 -0.306371 -0.546152
0.0888118 -0.334136 -0.0985437 -0.487666 -0.265417 0.831707
-0.343257 0.113197 -0.260777 -0.750113 -0.0646035 0.658147
0.15973 0.105809 0.0880336 0.0176642 0.113915 0.993334
-0.0772804 0.119912 0.0524602 -0.415906 0.342503 0.842445
0.251448 -0.28617 0.00968321 -0.538531 -0.183805 0.822314
-0.141504 0.457198 -0.0779485 -0.636721 0.51303 0.575661
0.289841 0.0536334 -0.036379 0.522735 0.153294 -0.838599
-0.0263279 0.197346 0.0288433 -0.314937 0.347321 0.883279
0.116344 0.466527 0.0781082 -0.287568 0.606425 0.741318
0.0102678 -0.260354 -0.279447 0.521946 0.185446 -0.832575
0.209733 0.154423 -0.0610421 0.474422 0.21074 -0.8547
0.348171 0.397789 0.0812218 0.491926 0.735372 0.466086
0.347253 -0.165315 -0.0509238 0.50082 0.207683 -0.840266
0.28474 0.269166 0.0151071 0.418469 0.306067 -0.855106
-0.235189 0.414058 -0.192929 -0.733161 0.678439 0.0468695
-0.0880506 0.0604437 -0.26472 0.500341 0.209071 -0.840207
0.250306 -0.422288 -0.0570536 -0.00939392 -0.829135 0.558969
-0.0309973 0.092688 -0.223401 0.539165 0.121878 -0.833335
-0.0923034 -0.276625 -0.346491 0.502498 0.216651 -0.836994
0.395133 0.214963 0.066845 0.508434 0.218695 -0.832867
0.367836 -0.376753 -0.0883896 0.569771 -0.817535 0.0836498
0.170575 -0.250138 -0.0242444 -0.0225588 -0.621348 0.78321
0.0965273 -0.094899 -0.18716 0.491026 0.237452 -0.838159
-0.209945 0.178867 -0.124482 -0.810392 0.233818 0.537209
0.012312 -0.170302 0.0357118 -0.00872893 -0.695287 0.718679
-0.31436 0.0536551 -0.403038 0.513573 0.192059 -0.836275
0.0986343 -0.224921 -0.218321 0.490504 0.221572 -0.8428
-0.211208 0.193437 -0.307999 0.544778 0.173844 -0.820363
0.421962 -0.298567 0.0270089 0.667641 -0.653931 0.355851
0.0348913 0.419686 -0.106234 0.466731 0.266145 -0.843403
0.519878 0.00875243 0.0952115 0.51833 0.189397 -0.833944
0.320643 -0.405167 -0.0793429 0.487536 -0.869908 0.0746275
0.437868 0.0301428 0.180649 0.126297 -0.134287 0.982861
0.162858 -0.273743 -0.189451 0.494392 0.221653 -0.840504
0.417669 0.018171 0.0350708 0.518423 0.150608 -0.841757
0.261215 0.339076 0.155899 -0.296637 0.0546522 0.953425
-0.0939579 -0.00719263 -0.283805 0.496453 0.202498 -0.844115
-0.0810833 -0.255365 -0.12724 -0.518096 -0.70952 0.477658
-0.157746 -0.242852 -0.215925 -0.687116 -0.607306 0.398813
-0.266485 0.250079 -0.179359 -0.505699 -0.203742 0.838307
0.493712 0.0758546 0.147221 0.807189 0.064171 0.586794
0.455888 -0.172707 0.013964 0.611259 0.122792 -0.781847
-0.216242 -0.0715975 -0.115631 -0.909566 -0.266077 0.319205
0.266426 0.161548 0.124833 -0.556512 -0.149609 0.817258
0.195942 0.480709 0.00518002 0.55567 0.133257 -0.820654
-0.275553 -0.190522 -0.404277 -0.68896 -0.511782 -0.513239
0.0296763 0.512319 -0.00971165 -0.200106 0.926341 0.31914
0.463243 0.226061 0.119923 0.738146 0.353377 0.574687
