ply
format ascii 1.0
comment Created by Open3D
element vertex 400
property double x
property double y
property double z
property double nx
property double ny
property double nz
end_header
-0.244538 -0.0824461 0.0162244 -0.0304111 -0.892484 0.450053
0.407674 -0.00846238 0.23204 0.976922 -0.211925 0.0266727
0.18958 -0.326872 -0.29661 -0.995796 0.0677809 0.0616183
0.25778 -0.191381 -0.353318 -0.0130437 0.0929005 0.99559
0.0083186 0.0471993 -0.116207 -0.0445212 0.660596 -0.74942
-0.199422 0.120975 0.0993893 0.0986914 0.694746 0.712452
-0.106082 0.13478 0.043192 0.122788 0.990054 0.0686792
0.284682 0.299465 0.378351 0.0846785 0.751609 0.654151
0.424049 0.176874 0.386415 0.909888 0.0699539 0.408914
0.0886704 0.0870017 0.0939486 0.0855716 0.684524 0.723951
0.25369 -0.236386 -0.286993 -0.00210186 0.960213 -0.27926
0.211992 -0.112691 0.0577263 -0.726099 -0.574718 0.377464
-0.0932244 -0.0637058 -0.110597 0.0195882 -0.472144 -0.881304
0.201453 -0.192716 -0.439978 -0.993909 0.0581036 0.0936395
0.330193 0.307103 0.343389 0.114726 0.957508 0.264608
0.303362 0.179275 0.296414 -0.14179 -0.973641 -0.178658
0.415918 0.0643973 0.219642 0.993699 -0.108178 -0.0293192
0.339913 0.283143 0.251736 0.0636708 0.892119 -0.447291
-0.0229798 -0.0619925 0.0959961 -0.151069 -0.827365 0.540967
0.265387 -0.161124 0.0769853 -0.067076 -0.88489 0.460945
0.269905 0.0149091 -0.25702 0.121022 0.862813 -0.490823
0.410562 0.0631619 0.422318 0.834177 -0.385822 0.394068
0.378842 -0.186523 -0.133935 0.990343 -0.041309 -0.13234
0.310402 0.154087 0.0120344 0.119297 0.864188 -0.488822
0.194984 -0.292393 -0.226433 -0.99116 0.131953 0.013761
-0.261661 -0.093861 -0.0384789 -0.111503 -0.986401 -0.120749
0.317013 0.10757 0.474341 -0.0102285 0.138759 0.990273
0.368371 -0.236721 -0.200418 0.969698 -0.233943 -0.0704059
0.24049 0.00300904 0.24912 -0.990673 0.0756456 0.113332
0.368827 -0.209736 -0.360723 0.991168 -0.132579 0.00307974
0.206125 -0.12804 -0.457108 -0.993673 0.105927 0.0373216
-0.258365 -0.0459035 -0.105325 -0.0755401 -0.450099 -0.889778
0.0878527 -0.0738306 0.0904875 -0.0346622 -0.872159 0.487994
0.261061 0.185456 0.215266 -0.993715 0.107781 0.0302167
-0.374171 0.05612 0.126355 -0.747504 0.621273 -0.235068
-0.400766 -0.0783698 -0.0185277 0.00478941 -0.999567 -0.0290371
0.350915 0.066431 0.291175 0.0472102 0.993115 -0.107212
-0.00738974 -0.0262725 -0.134433 -0.0679436 -0.226959 -0.971531
0.139387 -0.114207 0.0263586 -0.0650215 -0.881505 0.467677
0.386318 -0.126512 0.0509261 0.89856 -0.415865 0.140168
0.217946 -0.11514 -0.182553 -0.994671 0.0869943 0.0553367
0.207872 -0.24748 -0.0944357 -0.0785944 -0.879277 0.469782
-0.256944 -0.0286067 0.113572 -0.0373157 -0.766613 0.641024
0.26192 0.207005 0.126544 -0.993216 0.115905 0.009355
0.225384 0.0429348 -0.112356 -0.683131 0.641253 -0.349466
0.288209 -0.24743 -0.0808178 -0.0882291 -0.866098 0.492026
0.367053 -0.0887337 0.193278 0.508619 -0.775721 0.373583
0.2584 -0.292816 -0.168419 -0.0892001 -0.875434 0.475036
0.357227 0.16687 0.260108 -0.147405 -0.844066 0.515582
-0.184533 -0.0958451 -0.000118686 -0.0218804 -0.924429 0.380726
-0.254313 -0.0537927 0.0671813 -0.0954713 -0.8711 0.481737
0.203575 -0.22398 -0.244664 -0.993649 0.105563 0.0389717
0.261458 0.150387 0.369312 -0.983527 0.178599 0.0278673
0.325946 -0.224195 -0.0424676 0.355176 -0.857699 0.371755
-0.14093 -0.0482944 0.0971901 -0.0736932 -0.869656 0.488126
0.425515 0.165243 0.20891 0.995694 -0.0850564 -0.0368497
-0.407126 -0.0534013 0.0361579 -0.989761 0.140271 -0.026425
0.426699 0.163403 0.266613 -0.126477 -0.945307 0.300662
0.137343 0.00102036 -0.135975 -0.0215172 0.363605 -0.931305
0.395846 -0.0812837 0.0657624 0.992215 -0.123863 -0.0128958
0.26461 0.178449 0.333788 -0.99367 0.109361 0.0256904
0.238661 -0.0265692 0.199885 -0.988129 0.149341 -0.0360456
0.2871 -0.137781 -0.314913 -0.0567849 -0.977317 0.204029
0.254719 0.156006 0.109315 -0.990054 0.123536 -0.0673236
0.375648 -0.184348 -0.193662 0.992042 -0.125455 -0.0106672
0.298474 0.0840702 -0.128813 0.0537431 0.891019 -0.450773
0.364737 -0.225916 -0.406494 0.958469 -0.235143 -0.161382
0.297408 -0.244351 -0.301235 0.154164 0.98603 -0.0630694
0.409931 0.0386734 0.0910527 0.990607 -0.134925 -0.0221899
0.196361 -0.107765 -0.113258 -0.434608 -0.466245 -0.77054
0.399792 -0.0289244 -0.00960656 0.993106 -0.105059 -0.051999
0.276145 0.246926 0.410385 -0.994058 0.0968576 0.049676
0.412134 0.0296148 0.328876 0.932071 -0.345536 0.108847
-0.0531082 -0.0118339 0.131224 0.010379 -0.327426 0.94482
0.256726 0.148148 0.169806 -0.991639 0.128282 0.0140198
0.0536967 -0.0857904 -0.11059 -0.077147 -0.488747 -0.869008
0.204884 -0.157303 -0.404901 -0.990907 0.134519 -0.00267037
0.24992 0.0893273 0.182348 -0.988166 0.0728025 0.13501
0.334402 -0.304855 -0.220074 0.589544 -0.740238 0.323243
-0.131807 0.0954867 0.113146 0.102571 0.452557 0.885817
0.346103 -0.234081 -0.267955 0.0609402 0.735597 -0.674673
0.0682712 -0.113446 0.0105478 -0.111048 -0.870091 0.480219
0.0320815 -0.115742 -0.0749414 -0.0857907 -0.911702 -0.401796
-0.378766 0.047747 -0.0627454 -0.820095 -0.476861 0.316303
0.188489 -0.36458 -0.339729 -0.11346 -0.992313 0.0494178
0.328006 -0.168426 0.0662732 0.249796 -0.866061 0.433058
0.256222 -0.181929 -0.248538 -0.0476513 -0.0552089 -0.997337
0.196502 -0.275209 -0.284027 -0.992342 0.121709 0.0210823
0.320726 -0.227412 -0.345447 0.0179605 0.635782 0.77166
0.0707603 0.115811 0.0326938 0.103166 0.994629 -0.00832852
0.269136 -0.110042 0.171265 -0.0102483 -0.892597 0.450738
0.354694 -0.0423601 0.298477 0.366676 -0.859355 0.356451
0.366256 -0.165659 0.02179 0.68533 -0.664826 0.297204
0.326178 0.211661 0.427694 0.097476 0.420925 0.901843
0.387025 0.283126 0.272362 0.428804 0.784477 -0.448022
0.304007 0.0472595 0.455193 -0.0497301 -0.651121 0.757343
0.264136 -0.0625392 -0.403494 0.106165 0.838682 -0.534174
0.373863 -0.168937 -0.261663 -0.0660031 -0.5316 -0.84442
0.278327 -0.316598 -0.422699 -0.00221061 -0.481105 -0.87666
0.390339 -0.0594998 -0.132287 0.987739 -0.155444 -0.0144638
0.271663 0.270377 0.300344 -0.992315 0.105605 0.0644929
0.116308 -0.110133 -0.101428 -0.0933207 -0.683457 -0.724001
0.250118 0.0650827 0.322101 -0.985752 0.166065 -0.0267593
-0.0860202 -0.0867391 0.0370065 -0.0884528 -0.871575 0.482217
-0.188892 0.0391733 -0.1254 0.00649903 0.312991 -0.949734
-0.250117 0.0571712 0.139527 -0.00893019 0.281223 0.959601
0.0564911 0.0903789 -0.0328643 0.00593403 0.879806 -0.475295
0.422062 0.0766973 0.375308 0.997304 -0.0640466 -0.0358108
0.330147 -0.339596 -0.385171 0.640435 -0.585128 -0.497462
-0.146877 0.0694127 -0.102259 0.0318077 0.776278 -0.629588
0.261002 -0.0795408 0.233718 -0.0992134 -0.872686 0.478096
-0.385203 0.108596 0.0213464 -0.624884 -0.666566 0.40646
0.301421 -0.368593 -0.322432 0.329728 -0.917332 0.223119
-0.384813 -0.021815 0.104614 -0.105646 -0.844956 0.524297
-0.255521 0.108245 0.115607 0.0849263 0.51267 0.854375
0.324799 0.150645 0.458553 0.0787177 0.450709 0.889193
0.23391 -0.336172 -0.408731 -0.0846334 -0.534751 -0.840761
0.398837 0.01599 -0.093865 0.989298 0.0790048 -0.122671
0.421255 0.225316 0.242343 0.901272 0.334204 -0.275711
0.257644 0.1391 0.230437 -0.994493 0.0447365 0.0947701
0.355965 -0.1314 0.114374 0.440888 -0.80249 0.40203
0.40023 0.0686055 -0.0370132 0.937035 0.280917 -0.207486
0.279896 0.192534 0.441152 0.090197 0.456883 0.884942
-0.222114 0.132186 -0.00211108 -0.0270897 0.895872 -0.443486
0.155321 -0.0894425 0.0751482 -0.0879161 -0.876587 0.473145
-0.236633 0.0020455 -0.129201 -0.0956127 -0.126557 -0.987341
0.0474941 -0.0900707 0.0540143 -0.124329 -0.871061 0.47518
0.430398 0.255315 0.327491 0.919785 0.387252 0.0634913
0.225898 -0.0181301 -0.280463 -0.993483 0.110324 0.0286299
0.368966 -0.0203572 -0.248267 0.796487 0.500389 -0.33944
0.21302 -0.0829914 0.0999977 -0.597631 -0.592856 0.539777
0.299653 0.270809 0.22481 0.0912835 0.876678 -0.472337
0.18684 0.0449018 0.10981 0.0759079 0.468104 0.880407
0.426839 0.124372 0.360406 0.991234 -0.131491 0.012888
0.250994 0.130392 0.059428 -0.993696 0.109083 0.0258861
0.244682 0.00862481 0.297852 -0.993155 0.113862 0.0260439
0.0984893 -0.0232221 -0.137988 -0.102905 -0.0447978 -0.993682
0.379221 0.290369 0.365616 0.329505 0.79672 0.50662
0.432102 0.192987 0.333755 0.993705 -0.108108 -0.029371
0.40379 -0.0195836 0.127987 0.993993 -0.0891657 -0.0634547
0.248514 -0.26455 -0.45003 -0.0758222 -0.465753 -0.88166
0.230231 -0.0366486 0.146311 -0.861485 -0.0105393 0.507673
0.365815 0.227833 0.41387 0.217504 0.392364 0.893724
0.00880279 -0.0772544 -0.112427 -0.111614 -0.453693 -0.884141
0.301769 -0.212477 -0.254992 -0.018677 0.430814 -0.902247
0.228436 0.005316 -0.157986 -0.906674 0.263366 -0.329515
0.391632 -0.0955758 -0.053937 0.993383 -0.105717 -0.0448876
0.38411 0.255727 0.223842 0.50499 0.738053 -0.447507
0.258146 -0.362798 -0.298637 -0.0779267 -0.89315 0.442957
0.381266 -0.111297 -0.282333 0.993736 -0.106576 -0.0336331
-0.0485668 -0.105745 0.00793699 -0.0468328 -0.880589 0.471562
0.2434 -0.137392 -0.327052 -0.106966 -0.859173 0.500381
0.368116 -0.234187 -0.149841 0.910487 -0.395517 0.120749
0.29412 0.123698 0.338599 -0.0274792 0.0598525 -0.997829
-0.306162 0.0230584 0.142562 0.00173582 -0.217965 0.975955
-0.303558 -0.0356963 0.0918469 -0.0902544 -0.87381 0.477818
0.385956 -0.0695357 -0.247428 0.988973 0.0607016 -0.135087
-0.290956 -0.0634358 0.0410963 -0.0904997 -0.872972 0.479302
0.354248 0.159171 0.0297119 0.26883 0.848818 -0.455234
0.415136 0.0912229 0.111101 0.993668 -0.108121 -0.0305442
-0.180466 0.0953138 -0.0671754 0.106917 0.873619 -0.47472
-0.271991 0.131987 -0.0129233 0.012843 0.908791 -0.417055
0.250931 -0.0872957 -0.446895 0.0539915 0.886897 -0.458801
0.333583 -0.169082 -0.352306 0.0334583 -0.551259 0.833663
-0.374773 0.0177207 -0.124741 -0.0975013 -0.0436839 -0.994276
0.0901826 -0.00560506 0.133868 -0.0101603 -0.0732501 0.997262
-0.136952 -0.0332691 -0.122469 -0.0651987 -0.465267 -0.882766
0.329457 0.27828 0.388977 0.116997 0.604524 0.787948
-0.194096 -0.0996643 -0.0427116 -0.121488 -0.978524 -0.166528
0.410279 0.0583629 0.279445 0.131783 0.991076 0.0200618
0.420575 0.166441 0.159159 0.946254 0.23786 -0.21915
-0.392686 0.105917 -0.0647779 -0.991847 0.105609 0.0713141
0.393066 -0.00294464 -0.151807 0.959256 0.203385 -0.196119
0.266431 0.240069 0.18659 -0.990483 0.130615 -0.0433895
0.319805 -0.00919194 0.368095 -0.0674721 -0.881049 0.468188
0.291171 -0.152292 -0.266742 -0.0674575 -0.670086 -0.739212
-0.00173724 0.0775959 -0.0700818 0.0920224 0.875143 -0.475033
0.251897 0.0674454 0.371318 -0.993749 0.110426 0.016391
0.289384 -0.362413 -0.38798 0.161639 -0.837187 -0.522484
0.300642 -0.052192 0.28465 -0.0734713 -0.879119 0.470905
-0.152043 0.136877 0.0338605 0.0877272 0.991309 -0.0980342
0.28362 -0.184356 0.0330095 -0.0587954 -0.881601 0.46832
0.358021 -0.285358 -0.369102 0.964814 -0.224392 -0.13705
0.233793 -0.201515 -0.00438879 -0.191131 -0.823516 0.534127
0.3681 0.17307 0.443521 0.247524 0.41424 0.875864
-0.123932 -0.098237 0.013992 -0.118168 -0.856808 0.501913
-0.309993 0.090968 -0.0946175 0.0520279 0.787075 -0.61466
0.23627 -0.0506403 0.275018 -0.992723 0.117883 0.0245808
0.313865 0.117903 -0.0541823 0.03875 0.890746 -0.452847
-0.166647 0.120014 -0.0128474 0.0606132 0.888126 -0.455585
0.147736 -0.0811585 -0.121127 -0.0905504 -0.449134 -0.888864
-0.391904 0.0048196 0.0466912 -0.582185 0.739766 -0.337353
0.285523 -0.140583 0.117228 -0.110388 -0.863141 0.49275
-0.147236 -0.0752166 -0.0961363 -0.067244 -0.558048 -0.827079
0.269134 0.237371 0.238954 -0.990816 0.135206 0.00196952
-0.260114 0.146218 0.0694263 0.0973182 0.932065 0.348975
-0.364663 0.152632 0.0871096 0.101636 0.89164 0.441189
0.396002 -0.0792977 0.113986 0.947412 -0.300954 0.108801
0.246425 -0.209576 -0.477541 -0.0910671 -0.441219 -0.892767
0.114936 -0.134135 -0.0526897 -0.118812 -0.979595 -0.162103
0.247399 0.056482 -0.184415 0.124862 0.871973 -0.473363
0.269498 -0.0344164 -0.348777 0.0876039 0.873763 -0.478398
-0.206808 -0.0502232 -0.107663 -0.0924789 -0.405759 -0.90929
0.27406 0.248713 0.346478 -0.989894 0.135175 -0.0428561
0.256556 0.177574 0.0439341 0.0534659 0.894817 -0.44322
0.0615523 0.0303151 -0.121519 0.108182 0.518314 -0.84832
0.245013 0.0624171 0.137326 -0.995147 0.0266422 0.0947262
-0.318223 0.0781653 0.134923 0.0740675 0.373269 0.924762
0.0117245 -0.117559 -0.00787616 -0.0998708 -0.927354 0.360612
-0.0500779 0.107657 -0.0229183 0.0737516 0.883249 -0.463068
-0.332515 -0.0138053 -0.113322 -0.0761112 -0.46638 -0.881304
0.358629 -0.289679 -0.27069 0.917696 -0.378587 0.120438
0.367294 -0.252844 -0.307775 0.99558 -0.0807801 -0.0479162
0.256898 0.0718221 0.463376 -0.994734 0.0928809 0.0433207
0.2177 -0.0664471 -0.368759 -0.990593 0.136841 0.000584638
-0.371573 -0.00633138 -0.0755163 -0.995378 0.0814774 0.0508379
0.299042 0.108854 0.234332 0.0825285 0.290864 0.953198
-0.111148 -0.100953 -0.0721206 -0.110347 -0.884356 -0.453584
0.231015 -0.229017 -0.0519637 -0.0793121 -0.879077 0.470035
-0.0171153 -0.118214 -0.06022 -0.0778506 -0.962587 -0.25955
0.386678 0.106984 0.334987 0.00706059 0.115819 -0.993245
-0.304115 0.143548 0.0893893 0.110525 0.841049 0.529548
0.322991 -0.292946 -0.422119 0.51194 -0.406966 -0.756502
0.208313 -0.191595 -0.182563 -0.993702 0.108342 0.0286108
0.214179 -0.110538 -0.3607 -0.993951 0.101932 0.0408813
-0.355203 -0.0700335 -0.0730374 -0.108191 -0.856468 -0.504736
-0.318373 0.0371771 -0.125504 -0.0254516 0.20312 -0.978823
0.300379 -0.280528 -0.140601 0.0730964 -0.875635 0.47741
-0.300552 -0.068153 -0.0829436 -0.0955901 -0.788756 -0.607229
0.228222 -0.0106302 -0.227827 -0.989068 0.147365 -0.00525569
0.397137 -0.0556836 0.165972 0.938711 -0.335783 0.077914
0.199026 -0.241962 -0.325781 -0.994757 0.0961535 0.0348345
0.315402 -0.340482 -0.270223 0.399201 -0.802834 0.442828
0.265645 0.132235 0.471667 0.0851748 0.280808 0.955977
0.201247 -0.20663 -0.386173 -0.992264 0.124113 0.00289168
0.360959 -0.212585 -0.0737363 0.736133 -0.610075 0.293115
0.408168 0.155709 0.317087 -0.0860408 -0.782605 -0.616544
0.329578 -0.0798513 -0.407788 0.516988 0.734764 -0.439141
-0.0148877 -0.0834178 0.0551244 0.0364184 -0.886237 0.461799
0.311828 0.181864 0.0610128 0.0916666 0.876898 -0.471856
-0.362533 0.0498726 0.0502769 -0.966805 0.249699 -0.0542172
0.308191 -0.205868 -0.00519396 0.178993 -0.902105 0.392643
0.26563 0.215251 0.284916 -0.983759 0.166694 -0.0665733
0.221978 -0.333329 -0.252612 -0.0877765 -0.875148 0.475827
-0.283496 0.0105758 -0.127006 -0.0603302 -0.0187656 -0.998002
0.220877 -0.145147 0.0940091 -0.992187 0.0746436 0.0999679
0.0637169 -0.130094 -0.0408896 -0.0566888 -0.997524 -0.0416319
0.283637 -0.00611284 -0.296387 0.0463914 0.899763 -0.433906
-0.113968 0.120106 -0.0131421 0.0808868 0.880239 -0.467587
0.246325 0.0771753 -0.138285 0.0943809 0.868055 -0.487414
0.174008 0.0514582 -0.0871843 0.177234 0.84906 -0.49768
0.299061 0.0111568 0.403893 -0.0397945 -0.909096 0.414682
0.130824 0.0389705 0.12074 0.115685 0.471545 0.874221
0.399909 0.251598 0.384413 0.595818 0.320112 0.736566
0.290204 0.0726435 0.290652 0.0592239 0.998162 -0.0128235
0.169987 0.0986708 0.0619179 0.105854 0.926294 0.361627
0.363416 0.103267 -0.0610225 0.455034 0.777804 -0.43355
0.0350402 -0.0646562 0.0949883 -0.03777 -0.851873 0.522386
-0.204535 0.0260857 0.14071 0.0342057 -0.0855386 0.995748
0.180463 0.0206181 -0.123989 0.0175038 0.628501 -0.777612
0.0821332 0.064813 -0.0761493 0.0227892 0.893862 -0.447763
0.393913 0.113649 0.229256 0.0328442 0.0117721 0.999391
0.358528 -0.073037 -0.352558 0.829294 0.4188 -0.36997
-0.225301 -0.0864105 -0.0727454 -0.0893312 -0.894004 -0.439064
0.35568 0.182571 0.0712753 0.230626 0.858241 -0.458513
0.209149 -0.167463 -0.223985 -0.992542 0.120674 0.0172827
0.242322 0.0823155 -0.0900498 -0.990781 0.134852 0.0129871
0.360973 0.067315 0.467248 0.270507 -0.344164 0.899098
0.219912 -0.0743727 -0.226612 -0.990964 0.133011 0.0172947
0.210311 -0.203079 -0.124304 -0.988176 0.145648 -0.0479051
0.126694 -0.0542336 0.114982 -0.0276134 -0.582459 0.812391
0.04165 0.0563482 0.118428 0.0699782 0.468825 0.880515
0.211538 0.0885823 0.0719841 0.141896 0.878448 0.456283
0.369689 -0.169124 -0.409812 0.989591 -0.143366 -0.0124873
-0.181102 -0.0707321 0.0461239 4.46272e-05 -0.89742 0.441178
0.166099 -0.132016 -0.074441 -0.098836 -0.898075 -0.428594
0.0361711 0.0997575 0.0853161 0.109512 0.777985 0.618665
0.421409 0.115801 0.407173 0.959499 0.0270801 0.280409
-0.317634 0.131699 -0.0202643 0.088707 0.866878 -0.490564
0.394852 -0.0480406 -0.077452 0.994041 -0.102069 -0.0382639
0.398635 0.130695 0.0482348 0.856895 0.416845 -0.303268
0.34423 -0.276188 -0.178586 0.663229 -0.683908 0.30397
0.247971 0.0447318 0.272274 -0.99159 0.103786 0.0773096
0.260221 0.113302 0.404212 -0.993849 0.108922 0.019996
-0.322075 0.153562 0.0241926 0.0720832 0.962268 -0.262381
0.388311 0.116603 -0.00281616 0.754155 0.523491 -0.396494
0.249995 0.0146234 0.4037 -0.117131 -0.868597 0.481477
0.404466 0.207502 0.171645 0.755624 0.517053 -0.402104
0.215834 -0.101767 -0.311121 -0.994089 0.101852 0.0375902
0.308839 0.306615 0.297425 0.113684 0.941625 -0.316887
0.403127 -0.00981278 0.28274 0.851243 -0.491688 0.183379
0.201806 -0.266372 -0.145912 -0.993561 0.113216 0.0042937
0.353947 0.0520961 -0.163012 0.485496 0.750162 -0.448944
-0.37693 0.166067 0.0459731 0.122534 0.990662 -0.05979
0.121883 0.10642 0.0475127 0.120156 0.97866 0.166692
0.377338 -0.148305 -0.338953 0.99568 -0.0819095 -0.0437278
-0.0619123 0.0475381 0.130058 0.026232 0.355658 0.934248
0.191807 -0.297657 -0.344559 -0.994431 0.09547 0.0446432
-0.0309175 0.0804591 0.110817 0.0351738 0.512434 0.858006
0.244896 0.0426987 0.22097 -0.993063 0.0650216 0.0979647
-0.346311 -0.0470643 0.0648105 -0.0881395 -0.87379 0.478249
0.375507 0.00565165 -0.199016 0.755515 0.556266 -0.346072
0.329059 -0.0399585 -0.34206 0.338323 0.830691 -0.442142
0.187679 -0.342563 -0.389445 -0.992492 0.0906121 0.0821565
-0.186848 -0.0105565 -0.125369 -0.0185795 -0.276273 -0.9609
0.224189 -0.0459743 -0.178861 -0.994201 0.0941814 0.0519037
0.201691 -0.24875 -0.196204 -0.991024 0.0992363 0.0895706
0.339459 -0.0140664 -0.28791 0.505837 0.727691 -0.463243
-0.0618953 0.0618418 -0.105693 0.09431 0.743815 -0.661699
0.392135 -0.101206 0.00326525 0.992736 -0.118842 -0.0187725
0.403687 -0.00345152 0.0356968 0.993676 -0.08472 -0.0736877
-0.236861 0.0525762 -0.120569 0.0150914 0.407484 -0.913088
0.213131 -0.13444 -0.258366 -0.985653 0.166318 -0.0287402
0.177476 -0.0158614 0.131119 -0.00544429 -0.042861 0.999066
-0.352617 0.117689 0.12011 0.0514334 0.501483 0.863637
0.399757 0.112588 0.448645 0.650236 0.262852 0.712813
0.404956 0.0308413 -0.00176987 0.996428 -0.0613177 -0.0580698
0.3263 -0.244517 -0.44914 0.515952 -0.403117 -0.755837
0.2191 -0.16152 0.0199206 -0.971859 0.235007 -0.0161818
-0.205468 -0.0423039 0.0972989 -0.0738729 -0.868529 0.490103
0.207028 -0.16264 -0.35199 -0.993206 0.115562 0.0137181
0.354991 -0.127327 -0.446511 0.813655 0.409184 -0.412957
0.138566 0.0783611 0.0938857 0.0906003 0.648543 0.755767
0.300051 -0.0927049 0.212764 -0.146207 -0.846903 0.511252
0.365483 -0.00076606 0.375769 0.345245 -0.83962 0.419338
0.194092 -0.249491 -0.427964 -0.997319 0.0556518 0.047524
0.335496 -0.249479 -0.109058 0.515178 -0.783135 0.348269
0.322921 0.223583 0.142908 0.0632578 0.896524 -0.438455
-0.122715 -0.00707339 0.134645 0.00697164 -0.3645 0.931177
0.208155 -0.299307 -0.426144 -0.0751307 -0.451304 -0.889202
0.316621 -0.124859 0.155241 -0.0410657 -0.87525 0.481925
0.384489 -0.135073 -0.161179 0.982338 -0.184325 0.0322072
0.361673 0.0199017 0.420615 0.298305 -0.858244 0.41765
0.229806 0.0985307 0.0108679 -0.31584 0.92843 -0.195606
0.00730613 -0.0217165 0.130139 -0.0280768 -0.357904 0.933336
-0.000828626 0.10653 -0.0147746 0.0771147 0.88159 -0.465675
-0.0549272 0.0114698 -0.133906 0.00788239 0.15216 -0.988324
0.35929 0.0854185 0.243492 0.104724 0.639278 0.761811
0.394075 0.183283 0.117596 0.650406 0.648102 -0.396151
0.296993 0.0462769 -0.190854 0.103028 0.857402 -0.50423
0.343124 -0.19417 -0.466171 0.668739 -0.377011 -0.64082
-0.361441 0.0994625 0.0647596 -0.942397 -0.256709 0.21445
-0.218574 0.0856475 -0.08389 0.0406952 0.889377 -0.45536
0.257116 -0.126737 -0.486163 0.11425 0.38719 -0.914894
-0.0397534 -0.0849681 -0.101032 -0.0957664 -0.600494 -0.793874
0.384311 -0.137753 -0.0953336 0.99368 -0.106366 -0.0358584
-0.0824773 -0.0430506 0.113939 -0.12282 -0.690137 0.71318
-0.368743 0.140985 -0.0155545 0.0400082 0.906519 -0.420266
0.410881 0.0213375 0.182412 0.992817 -0.119238 -0.00983325
0.354033 0.150121 0.329131 -0.090778 -0.542971 -0.83483
0.197317 -0.145785 -0.0409731 -0.543917 -0.839105 0.0075385
0.41238 0.079535 0.0442218 0.995595 -0.0761205 -0.0547353
0.278473 -0.0277317 0.326796 -0.0483282 -0.900632 0.431886
0.266221 0.139793 -0.0258181 0.120368 0.864836 -0.487411
0.306577 0.157759 0.243113 -0.0761393 -0.553686 0.829238
0.386179 -0.147442 -0.0320971 0.95164 -0.285668 0.11303
-0.3275 -0.0861456 -0.0432805 -0.1168 -0.980026 -0.160958
-0.252058 0.108559 -0.0534132 0.0769512 0.880795 -0.467203
0.219545 0.0760215 -0.0387835 -0.235231 0.86812 -0.437073
0.413979 0.0598963 0.153587 0.987197 -0.159388 0.00619122
0.119162 0.0400912 -0.113185 0.0396956 0.776823 -0.628467
-0.190018 0.0726023 0.127059 0.124113 0.342498 0.931285
0.203351 -0.170734 -0.490753 -0.0219784 -0.170869 -0.985049
-0.102969 0.0291868 -0.128228 -0.00638144 0.333923 -0.942579
0.279057 -0.322146 -0.220368 -0.0477745 -0.885956 0.461303
0.361093 0.305023 0.306293 0.13567 0.962548 -0.234722
0.331356 0.253783 0.200573 0.0477158 0.894864 -0.443782
0.418829 0.107482 0.157826 0.993702 -0.107908 -0.030196
-0.0675692 -0.116185 -0.0382292 -0.147861 -0.987176 -0.060166
0.390969 -0.0472212 -0.186038 0.997386 -0.0500121 -0.0521488
0.283498 0.105291 -0.083154 0.0849154 0.873226 -0.47986
-0.122381 0.0959221 -0.0517547 0.0875228 0.877708 -0.471135
0.226877 -0.114866 0.143669 -0.995803 0.0862803 0.0305177
0.220493 -0.0505989 -0.319167 -0.988318 0.151521 0.0163843
0.151325 0.0995128 0.004684 0.0769117 0.930673 -0.357677
0.241976 0.0173355 0.172495 -0.993834 0.109269 0.0188204
-0.0157144 0.0308878 0.132491 0.121272 0.197957 0.97268
0.375849 -0.060393 0.243551 0.579316 -0.736592 0.349035
0.323867 0.0253773 -0.227123 0.208302 0.853498 -0.477652
0.258785 -0.262109 -0.113171 -0.0362147 -0.888872 0.456721
-0.339338 -0.078726 0.0042784 -0.0840465 -0.912579 0.40017
0.349271 -0.330448 -0.331712 0.909402 -0.40383 0.0995463
-0.367336 0.0590811 -0.00335293 -0.968753 -0.172006 0.178693
0.180614 -0.125108 0.00954083 -0.0715585 -0.880166 0.469241
-0.0758951 0.11399 0.0876287 0.133544 0.81925 0.55767
0.174488 -0.0273314 -0.13819 -0.0172456 0.0134074 -0.999761
-0.130884 0.046047 0.135106 0.00256427 0.340113 0.940381
0.323166 -0.144274 -0.483897 0.403556 0.24822 -0.880641
-0.207662 0.145324 0.0482689 0.129283 0.98885 0.0739045
0.245451 0.0110341 0.350531 -0.993268 0.115751 0.00459086
0.212153 -0.15601 -0.0895553 -0.977411 -0.195858 -0.0794156
-0.381525 -0.00752613 -0.0104841 -0.742142 0.608492 -0.281003
-0.360826 0.0920238 -0.098696 0.0908232 0.712964 -0.695294
0.212034 -0.0942909 -0.413185 -0.993177 0.116113 0.0108034
0.0493894 -0.0431593 -0.131017 -0.0545409 -0.370369 -0.927282
0.369444 -0.116771 -0.388712 0.92819 0.289192 -0.234163
0.231895 -0.0796027 0.174187 -0.987253 0.159162 7.48074e-05
0.341272 0.0876011 -0.103387 0.268314 0.838821 -0.473695
0.342605 -0.144626 -0.287563 -0.113745 -0.932931 -0.341617
0.153853 0.0759864 -0.0423636 0.0789695 0.879481 -0.469338
