ply
format ascii 1.0
comment Created by Open3D
element vertex 400
property double x
property double y
property double z
property double nx
property double ny
property double nz
end_header
-0.147835 0.0112024 -0.0443056 -0.422598 0.533491 0.732665
-0.079174 0.288569 -0.210767 -0.41982 0.587487 0.691816
-0.115303 -0.0983956 0.0622175 -0.42109 0.54338 0.726237
-0.173841 0.15174 -0.160143 -0.422063 0.539885 0.728277
-0.189758 -0.255784 0.0274947 0.428292 -0.520916 -0.738385
0.117193 -0.313374 0.358991 -0.420014 0.553758 0.718986
0.284269 0.337805 -0.0355426 -0.418947 0.581731 0.697188
0.0964942 0.360846 -0.266809 0.427424 -0.556761 -0.712268
0.103901 -0.263655 0.310713 -0.419092 0.542076 0.728365
-0.302541 -0.316253 0.113829 -0.429954 0.583588 0.688887
-0.125232 -0.457608 0.216169 0.400277 -0.576716 -0.712164
-0.0985949 0.113249 -0.193979 0.427616 -0.452951 -0.782292
-0.0580635 0.0985473 -0.160398 0.384314 -0.646679 -0.658869
0.0822269 0.251764 -0.193863 0.419998 -0.539323 -0.729885
0.46274 0.251284 0.0246329 0.430905 -0.511152 -0.743669
0.463235 0.220797 0.156206 -0.418961 0.542009 0.72849
0.0830764 -0.0498937 0.0320931 0.419428 -0.531014 -0.736278
-0.426239 -0.226882 -0.113086 -0.602908 -0.771597 0.20283
0.0211759 -0.212729 0.118672 0.42424 -0.572061 -0.701973
0.108183 0.312359 -0.222856 0.455787 -0.552625 -0.697756
0.368721 0.329645 -0.0852652 0.424967 -0.554403 -0.71557
-0.140525 -0.288984 0.0828505 0.426234 -0.569586 -0.702778
0.00690148 -0.0476166 -0.0117545 0.419363 -0.518566 -0.745134
0.137069 -0.14327 0.234781 0.860031 -0.0155439 0.510004
0.265921 -0.167985 0.22719 0.406279 -0.60346 -0.686129
-0.399326 -0.357494 -0.0173301 0.417365 -0.516366 -0.747779
-0.224645 -0.308786 0.0820537 0.11991 -0.756186 0.643276
-0.0885363 -0.224798 0.0623571 0.423202 -0.487424 -0.763753
-0.536501 -0.248427 -0.128135 -0.711091 0.246994 -0.658288
-0.0555715 0.235255 -0.154424 -0.438311 0.511113 0.739356
0.0201938 0.466019 -0.391767 0.42335 -0.534238 -0.731687
-0.342672 -0.148203 -0.140809 0.410947 -0.629929 -0.659024
0.345747 -0.0611734 0.221572 0.779421 -0.278924 0.560985
-0.211838 -0.202577 0.0826879 -0.420215 0.543419 0.726716
-0.0673291 0.285686 -0.291744 -0.809123 -0.586847 -0.0305032
0.323624 0.364391 -0.0342798 -0.464474 0.559451 0.686497
-0.519791 -0.292092 -0.0345235 -0.486845 -0.819389 0.302628
-0.111767 -0.25154 0.179511 -0.43837 0.512677 0.738237
0.391825 0.301007 0.055857 -0.418861 0.524711 0.741103
-0.198138 0.0223445 -0.078547 -0.447594 0.579712 0.680877
-0.0847794 0.149874 -0.107544 -0.435148 0.578824 0.689644
0.263902 0.270304 0.00411635 -0.436098 0.556822 0.706943
0.0863771 -0.0927007 0.169901 -0.423119 0.585483 0.691506
-0.156674 -0.188069 0.103354 -0.409966 0.580007 0.703932
-0.132466 0.228552 -0.283749 0.657217 0.732018 -0.179488
-0.0803744 -0.37729 0.182495 0.383257 -0.612013 -0.691776
0.0517174 -0.327867 0.221973 0.441391 -0.559308 -0.701676
0.260055 0.0363346 0.177108 -0.427018 0.517014 0.741857
0.0217205 0.0989215 -0.106687 0.76339 -0.239834 0.599763
-0.0859247 -0.167834 0.131272 -0.452587 0.604431 0.655612
0.0272632 0.16747 -0.162956 0.4226 -0.54603 -0.723368
-0.0637678 0.360079 -0.255332 -0.421271 0.504508 0.75366
0.267082 0.161044 3.47879e-05 -0.744519 0.280548 -0.605792
-0.350212 -0.082198 -0.091258 -0.392321 0.456325 0.798657
0.0313479 -0.0931749 0.139835 -0.42291 0.500817 0.755202
0.0231218 0.224468 -0.21039 0.427075 -0.570667 -0.701388
-0.326111 0.0245218 -0.258569 -0.74046 0.278631 -0.611624
-0.089019 -0.36083 0.270869 -0.403446 0.470842 0.784563
-0.260509 -0.20673 0.0564184 -0.427982 0.529369 0.73253
-0.379452 0.0176181 -0.19799 -0.729076 0.267241 -0.630103
0.0946926 -0.445268 0.336421 0.420648 -0.560096 -0.713686
0.0594582 0.167246 -0.122008 0.721856 -0.263754 0.63981
0.337169 0.0932927 0.0736163 0.392151 -0.493638 -0.776234
0.0293129 0.351338 -0.298413 0.40688 -0.586206 -0.700579
0.377988 0.102243 0.191854 -0.611483 0.386032 -0.690701
-0.232014 -0.391765 0.106944 0.423557 -0.584045 -0.692453
-0.0343259 0.466932 -0.416772 -0.715237 0.278531 -0.640981
0.422037 0.182595 0.161652 -0.423236 0.558768 0.713197
0.0248619 0.427665 -0.251338 -0.439822 0.581977 0.684003
0.305195 0.250786 0.0425844 -0.384414 0.514181 0.76671
0.210158 -0.123023 0.268459 -0.418201 0.530142 0.737602
-0.0633421 -0.466484 0.33051 -0.553435 -0.7855 0.276947
-0.248827 0.156472 -0.208132 -0.417984 0.55827 0.716675
-0.224323 -0.251925 0.112434 -0.424929 0.512503 0.746175
0.268031 0.244981 -0.0820621 0.407944 -0.517932 -0.751883
-0.317802 -0.0973399 -0.165895 0.430244 -0.555531 -0.711531
-0.00678996 -0.0785621 0.0369628 -0.887056 -0.0768404 -0.455222
-0.438602 -0.258607 -0.0513845 -0.73361 0.282045 -0.618277
0.241138 -0.0186745 0.208303 -0.416428 0.526371 0.741297
-0.526329 -0.237393 -0.0763058 -0.440673 0.572294 0.691583
0.0875409 0.38266 -0.183453 -0.424942 0.535171 0.73008
0.357507 0.203387 0.00315148 0.414574 -0.521704 -0.745623
-0.0642022 -0.460349 0.254608 0.388314 -0.593587 -0.704888
0.324128 0.309272 0.0102979 -0.453047 0.59158 0.666919
0.41976 0.257935 0.073077 0.850565 -0.0373549 0.524542
0.225584 -0.0835152 0.141545 0.377028 -0.595894 -0.709056
-0.365759 -0.258491 -0.07121 0.423299 -0.544515 -0.724101
-0.132056 0.252314 -0.213917 -0.406173 0.530253 0.744214
-0.115233 -0.318413 0.225885 -0.430028 0.58058 0.691378
0.139562 0.452616 -0.226386 0.559623 0.782898 -0.271832
0.028919 -0.142026 0.17554 -0.427696 0.561562 0.708325
-0.234568 0.113713 -0.169615 -0.421636 0.544132 0.725358
-0.018488 -0.475281 0.391223 -0.478857 -0.826718 0.295351
-0.507028 -0.320734 -0.0904628 -0.515724 -0.811985 0.273331
0.401854 0.285518 -0.0349455 0.436653 -0.549081 -0.712632
0.125315 -0.234774 0.195393 0.418873 -0.529354 -0.737787
0.157538 0.329262 -0.210528 0.408327 -0.613461 -0.67597
0.0620437 -0.0909233 0.0506142 0.394324 -0.475324 -0.786496
-0.172924 0.227786 -0.325749 0.422148 -0.570225 -0.704723
-0.433303 -0.188513 -0.056764 -0.43168 0.610541 0.663997
0.30778 0.349362 -0.134865 0.425119 -0.547393 -0.720856
-0.298758 -0.186864 -0.0857987 0.424891 -0.550173 -0.718872
-0.0464005 -0.00630581 -0.0738894 0.418734 -0.555342 -0.71851
-0.0138182 -0.344707 0.196201 0.420088 -0.616008 -0.666379
0.0873 0.00527675 0.0593748 0.509605 0.810867 -0.287745
-0.177352 0.104959 -0.129411 -0.413215 0.581668 0.700654
-0.0501526 0.0584508 -0.0204659 -0.415151 0.530075 0.739372
-0.290857 0.0909451 -0.184189 -0.431668 0.636305 0.639358
0.233563 0.109977 0.0189309 -0.802425 0.272859 -0.530718
-0.212957 -0.353497 0.162469 -0.368913 0.607534 -0.703424
-0.212253 -0.154095 -0.0585337 0.418799 -0.496265 -0.760479
0.00988411 0.379981 -0.227751 -0.433525 0.503599 0.747291
0.138202 0.407025 -0.171785 -0.392215 0.506388 0.767944
-0.128527 -0.396252 0.274266 -0.399673 0.583307 0.707117
0.0335816 -0.306781 0.303087 -0.411838 0.559588 0.719202
-0.237893 -0.29618 0.0312992 0.429592 -0.57789 -0.693897
0.223379 -0.0628509 0.231855 -0.394003 0.503753 0.768761
0.2932 -0.00575302 0.119937 0.39511 -0.609624 -0.687202
0.113174 -0.185552 0.149931 0.412394 -0.54045 -0.733379
-0.507586 -0.164954 -0.124028 -0.746193 0.262021 -0.611998
-0.379935 -0.0737441 -0.21892 0.392202 -0.531019 -0.75113
-0.0671142 0.42566 -0.392322 -0.748127 0.258759 -0.611024
-0.342234 -0.302811 -0.0256505 0.46749 -0.610634 -0.639202
0.0495529 0.218639 -0.0885389 0.739479 -0.265062 0.6188
-0.0833152 0.0147474 -0.113595 0.419179 -0.58697 -0.692643
-0.149559 -0.291119 0.186393 -0.441277 0.632345 0.636722
0.10658 0.413273 -0.301075 0.42419 -0.546037 -0.722431
0.157084 0.064831 0.0886064 -0.654727 0.285868 -0.699723
-0.123439 0.146674 -0.233639 0.420995 -0.548105 -0.722734
0.0450816 0.328348 -0.168309 -0.420698 0.545786 0.724659
-0.0542759 -0.0289301 0.0185219 -0.128499 -0.841628 0.524547
0.0516821 0.402807 -0.325902 0.437862 -0.561113 -0.702444
0.379144 0.189957 0.130022 -0.388655 0.486946 0.782196
-0.170027 0.0997399 -0.227446 0.443781 -0.497616 -0.745276
-0.0877549 -0.419871 0.317123 -0.431108 0.518676 0.738323
-0.397058 -0.267398 0.0244971 -0.417849 0.468868 0.77818
-0.291833 0.0632344 -0.268719 0.419395 -0.546501 -0.724876
0.277878 -0.057076 0.260699 -0.448719 0.517894 0.728311
0.0694504 -0.413363 0.297389 0.421115 -0.546735 -0.723701
0.389065 0.161821 0.0527072 0.406935 -0.524509 -0.74786
-0.059247 -0.265194 0.219398 -0.422506 0.507828 0.750733
-0.367645 -0.304734 0.0683302 -0.405933 0.534465 0.741327
0.550021 0.260711 0.117895 0.728488 -0.267751 0.630567
-0.0855135 -0.175344 0.0285679 0.397083 -0.583141 -0.708712
0.188756 0.302364 -0.0640233 -0.425138 0.565764 0.706519
-0.0266845 0.233284 -0.242913 0.433948 -0.498703 -0.750323
-0.34113 -0.137974 -0.042467 -0.415526 0.50865 0.754065
-0.252053 0.0263871 -0.113365 -0.423524 0.546522 0.722455
-0.0535235 -0.328697 0.16242 0.424022 -0.547662 -0.721299
-0.35842 -0.0110283 -0.236355 -0.702021 0.274264 -0.657226
0.185924 -0.0758598 0.111975 0.420959 -0.502972 -0.754859
-0.166891 -0.1664 -0.0250236 0.425239 -0.539315 -0.72685
0.34963 0.0526092 0.122742 0.644604 0.745734 -0.168427
-0.0820524 0.097155 -0.0658563 -0.427558 0.557359 0.71172
0.19904 0.364963 -0.209787 0.439388 -0.570283 -0.694057
0.051466 0.265381 -0.117624 -0.381522 0.597002 0.705712
-0.265234 -0.103113 -0.0217835 -0.419404 0.523452 0.741687
-0.0167521 0.0128107 0.0344345 -0.42602 0.528151 0.73455
0.0745515 0.460736 -0.327316 0.516963 0.809961 -0.276971
0.196587 -0.190391 0.267364 -0.240721 0.723938 -0.646504
0.266874 0.408631 -0.114431 0.54953 0.784065 -0.288546
0.458126 0.14022 0.106435 0.395038 -0.595194 -0.699778
-0.0336005 0.0519734 -0.113773 0.417881 -0.541914 -0.729181
-0.2053 0.123591 -0.266818 0.417348 -0.517539 -0.746976
-0.338834 0.0606967 -0.225142 -0.71114 0.278843 -0.645388
-0.292675 -0.289418 -0.00634521 0.42111 -0.589734 -0.689115
0.135739 -0.144731 0.133284 0.407094 -0.537808 -0.738267
-0.124031 0.17522 -0.147462 -0.42727 0.488114 0.761042
-0.0640186 0.171553 -0.218068 0.473046 -0.565368 -0.675712
-0.135151 0.363992 -0.299479 -0.439572 0.498235 0.747354
0.140765 -0.0711673 0.190641 -0.419477 0.543375 0.727175
-0.278533 -0.390236 0.142248 -0.542366 -0.781985 0.307146
0.187303 -0.0149995 0.0675248 0.439256 -0.602334 -0.66652
-0.157749 0.179304 -0.276143 0.432324 -0.55524 -0.710496
0.170603 -0.299166 0.269192 0.420467 -0.573806 -0.702819
-0.404646 -0.309439 -0.0557956 0.427921 -0.478817 -0.766562
0.23777 0.168115 0.0636738 -0.412811 0.56536 0.714111
0.0345745 -0.147835 0.0784523 0.425491 -0.571141 -0.701965
-0.129962 -0.0143514 -0.119827 0.421555 -0.552221 -0.719265
-0.449004 -0.346935 -0.0541504 -0.558877 -0.776914 0.289933
-0.209535 -0.0460544 -0.141286 0.417748 -0.536332 -0.733372
-0.188419 0.026374 -0.184274 0.419977 -0.548346 -0.723143
-0.302433 -0.0676465 -0.0702391 -0.422087 0.54194 0.726735
-0.353865 -0.381455 0.0293716 -0.547497 -0.788597 0.279931
0.223301 0.262269 -0.121037 0.429958 -0.550667 -0.715473
0.185708 -0.028664 0.180072 -0.411281 0.509041 0.756125
0.0853492 -0.136534 0.205129 -0.425914 0.532076 0.731773
-0.465997 -0.0996033 -0.144513 -0.415774 0.537616 0.733554
0.395771 0.34852 0.022315 -0.414583 0.527446 0.741568
0.212866 -0.256132 0.263491 0.41934 -0.596308 -0.684522
0.418589 0.226253 0.127481 -0.423782 0.52437 0.738542
-0.286441 -0.352145 0.0450511 0.415391 -0.531272 -0.738377
0.0313633 -0.00707115 0.0775959 -0.430496 0.596713 0.677205
0.0309667 -0.504613 0.398817 0.766888 -0.21058 0.60625
0.542218 0.277513 0.0513668 0.400058 -0.514181 -0.758664
0.125933 0.361628 -0.143431 -0.422937 0.536522 0.730253
0.430416 0.139897 0.200655 -0.421501 0.543749 0.725723
0.0489844 -0.0127275 -0.0144347 0.427909 -0.578546 -0.694391
-0.351222 -0.233507 0.0256646 -0.414585 0.521584 0.745701
0.267939 -0.112196 0.184403 0.40125 -0.491465 -0.772956
-0.181564 0.205836 -0.208775 -0.420204 0.555214 0.717751
0.0500357 -0.183376 0.21706 -0.418542 0.579719 0.699106
0.241103 0.0806496 0.132008 -0.420617 0.530856 0.735712
-0.121317 -0.417782 0.188504 0.414064 -0.481259 -0.77262
0.184849 0.228711 -0.117003 0.440421 -0.55874 -0.702737
-0.0283009 0.352844 -0.335773 0.417222 -0.526665 -0.740642
0.0929883 -0.134134 0.101377 0.421706 -0.545123 -0.724572
0.14694 0.265772 -0.0862619 -0.544073 -0.789167 0.284955
-0.146311 -0.070945 0.0219204 -0.407902 0.512478 0.755634
-0.435552 -0.119444 -0.190603 -0.659406 0.313135 -0.68347
-0.120215 0.0664008 -0.174185 0.417036 -0.532865 -0.736299
0.382123 0.359912 -0.0346773 0.640867 0.721841 -0.261219
-0.168946 -0.230825 0.128387 -0.439405 0.613415 0.656236
0.27414 0.377345 -0.176746 0.385878 -0.589272 -0.709829
-0.45716 -0.301892 -0.0834981 0.0433649 0.825204 -0.563168
-0.176628 -0.346556 0.122597 -0.880211 -0.0535414 -0.471552
-0.189804 -0.401064 0.137602 0.38823 -0.498622 -0.775019
-0.0270922 -0.497091 0.313545 -0.477998 -0.815535 0.326221
-0.229231 -0.130809 0.0166512 -0.420314 0.556799 0.716458
0.229104 -0.0312149 0.103029 0.434447 -0.601019 -0.670844
-0.400647 -0.081041 -0.117912 -0.422675 0.54614 0.723241
0.401973 0.0544206 0.138928 0.436095 -0.55736 -0.70652
-0.0014882 -0.281791 0.261467 -0.421463 0.551244 0.720069
-0.414694 -0.182015 -0.159186 0.42389 -0.550859 -0.718938
-0.0487784 -0.0651913 -0.0331718 0.417328 -0.548679 -0.724423
0.18026 -0.12416 0.144283 0.423788 -0.5789 -0.696619
-0.159763 0.318819 -0.27997 -0.426284 0.557076 0.712705
-0.359577 -0.35058 0.103373 -0.543627 -0.791937 0.278037
0.382141 -0.0227861 0.195542 0.770212 -0.305239 0.560003
0.370385 0.235178 0.0909109 -0.424645 0.5303 0.733797
0.0933868 0.210243 -0.142942 0.73142 -0.267286 0.627362
-0.259324 0.0658562 -0.147029 -0.407803 0.481368 0.775874
0.0884405 -0.376477 0.38694 -0.527885 0.571834 0.627968
-0.00198018 -0.204703 0.203378 -0.422539 0.551594 0.719169
0.0164081 0.494721 -0.339391 0.470923 0.828006 -0.304365
0.227915 -0.143776 0.189481 0.431077 -0.518686 -0.738334
-0.483423 -0.201313 -0.094018 0.143458 -0.737361 0.660089
-0.0310366 -0.122667 0.124365 -0.402082 0.496766 0.769126
-0.204943 -0.396033 0.231674 -0.437789 0.586707 0.68126
-0.414717 -0.0257591 -0.167631 -0.418004 0.596727 0.684974
-0.578303 -0.268479 -0.0814904 -0.423062 0.54828 0.721392
-0.377339 -0.12279 -0.178237 0.438084 -0.58698 -0.680835
-0.124609 -0.0959134 -0.052222 0.418418 -0.513973 -0.748838
-0.0117632 -0.0311543 0.0703114 -0.421492 0.543822 0.725674
0.326373 0.147302 0.0250571 0.453343 -0.566731 -0.687965
0.257067 0.210435 0.0295184 -0.722701 0.259905 -0.640432
0.0498815 0.0529306 -0.0485228 0.596959 0.75937 -0.258837
0.032664 -0.472409 0.329753 -0.0623572 0.804507 -0.590661
-0.0778072 0.216315 -0.258474 0.423515 -0.563117 -0.709602
0.0192584 -0.237194 0.240996 -0.421613 0.523442 0.740439
-0.285415 -0.264589 0.086208 -0.406978 0.452772 0.793326
0.0552185 0.305891 -0.251303 0.426646 -0.612703 -0.665258
0.176423 -0.103914 0.232358 -0.390387 0.575246 0.718812
-0.234036 0.167529 -0.307694 -0.709777 0.261128 -0.654239
-0.10529 0.399184 -0.356976 -0.682914 0.232176 -0.692621
-0.25609 -0.382372 0.191176 -0.420654 0.469616 0.776216
-0.264572 -0.0737555 -0.151881 0.425886 -0.607173 -0.670792
-0.000362256 0.0927133 -0.0437008 0.533921 0.794521 -0.289247
-0.197205 0.251104 -0.251048 -0.406276 0.509234 0.758697
0.0154891 0.00338835 -0.0479051 0.415937 -0.567668 -0.710457
-0.0141051 0.222435 -0.120273 -0.402279 0.587825 0.701878
0.343013 0.143305 0.126581 0.327969 -0.683823 0.651784
-0.240562 0.0650509 -0.243196 0.400015 -0.455545 -0.795278
0.149576 0.390087 -0.256917 0.376335 -0.479586 -0.792698
-0.102571 -0.341042 0.143742 0.397779 -0.520073 -0.755841
-0.0398933 -0.412221 0.231596 0.419087 -0.562293 -0.712877
0.531783 0.215421 0.0933628 0.423021 -0.549401 -0.720564
-0.0877366 0.00408194 0.00020462 -0.421695 0.549868 0.720984
-0.26122 0.0381338 -0.199393 -0.551786 -0.788765 0.270891
0.0427544 -0.414744 0.363558 -0.78455 0.102327 -0.611564
0.162009 -0.200387 0.216133 0.826396 0.56244 0.0270219
0.501803 0.317313 0.0678234 0.576447 0.772956 -0.265043
-0.22105 0.217205 -0.298335 -0.753697 0.255997 -0.605315
0.244891 0.316425 -0.0858157 -0.562582 0.497195 -0.660529
-0.00957963 -0.448333 0.276524 0.422592 -0.552283 -0.71861
0.0954975 0.0334747 -0.0212702 0.506021 0.819403 -0.269298
-0.0216823 0.298556 -0.183277 -0.45595 0.568422 0.68484
0.0753352 -0.265525 0.190738 0.429906 -0.518578 -0.739093
-0.0612803 0.407185 -0.301419 0.776566 0.629917 -0.0122347
0.470976 0.134988 0.155928 0.74292 -0.259329 0.617105
0.435961 0.178285 0.0653535 0.428665 -0.556257 -0.711916
0.31143 -0.10192 0.242183 0.691737 -0.293857 0.659657
0.333073 0.0167559 0.233501 -0.375246 0.506808 0.776103
0.236932 0.413051 -0.15537 0.566406 0.7609 -0.316566
-0.0293239 0.135805 -0.0691671 -0.402644 0.519241 0.753835
-0.494277 -0.234067 -0.166034 0.4234 -0.519282 -0.742347
0.198278 0.0351283 0.0354292 0.389889 -0.503773 -0.770843
0.44792 0.341655 0.0565027 -0.41912 0.529163 0.737784
-0.252121 -0.253245 -0.0123816 0.417451 -0.519776 -0.745364
0.253356 0.0650813 0.0469213 0.427352 -0.563206 -0.707227
-0.498391 -0.282578 -0.129228 0.41728 -0.474716 -0.774933
-0.305611 -0.0106272 -0.114558 -0.429785 0.565253 0.704112
-0.277659 -0.130157 -0.11642 0.424536 -0.536596 -0.729269
0.124289 -0.215362 0.288913 -0.434986 0.622327 0.650766
-0.154379 -0.129757 0.0605684 -0.444018 0.579237 0.683617
-0.146102 -0.203639 0.0158418 0.45294 -0.458374 -0.764682
-0.290528 -0.159011 0.00381228 -0.436811 0.49435 0.751541
0.188899 0.384969 -0.125195 -0.423005 0.51757 0.743766
0.13105 -0.0810771 0.0834302 0.373955 -0.527022 -0.763155
-0.209296 -0.0547294 -0.024781 -0.396546 0.49459 0.77339
0.0298901 -0.375333 0.325705 -0.42827 -0.836835 0.341016
0.158676 0.325455 -0.0987284 -0.415343 0.453719 0.788434
0.110414 -0.294314 0.232772 0.401431 -0.563905 -0.721709
-0.0885281 0.447954 -0.336357 -0.414696 0.563999 0.714096
-0.251005 -0.0101067 -0.165286 -0.698694 0.309254 -0.645127
0.0950845 -0.0334388 0.132702 -0.459979 0.486671 0.742678
0.019626 0.163243 -0.081247 0.720945 -0.267366 0.639338
0.379089 0.0476149 0.226994 0.736054 -0.265091 0.622857
0.0431978 -0.453445 0.407392 0.754597 -0.268791 0.598611
0.0617409 -0.503261 0.361292 0.412405 -0.532305 -0.739306
0.451218 0.0883779 0.143634 0.409394 -0.525209 -0.746025
0.326581 0.0561943 0.202938 -0.43469 0.564163 0.701972
0.141025 -0.354336 0.294662 0.424738 -0.55318 -0.716652
-0.266445 0.122893 -0.287313 -0.751771 0.271908 -0.600755
-0.359935 -0.210983 -0.105596 0.448088 -0.576015 -0.683684
0.122373 0.259961 -0.152823 -0.581332 -0.761071 0.287791
-0.13111 0.274242 -0.320043 0.655014 -0.301597 0.692817
0.0727812 0.435144 -0.227176 -0.421766 0.54527 0.724426
-0.138129 -0.382258 0.153857 0.422581 -0.566535 -0.707435
-0.386925 -0.126879 -0.0771115 -0.407049 0.435354 0.802981
-0.401789 -0.223673 -0.0132525 -0.422133 0.552141 0.718988
-0.262294 0.205272 -0.252707 -0.415248 0.553117 0.72224
-0.0317445 0.457148 -0.346493 0.264086 -0.692854 0.670978
-0.0288544 0.150413 -0.184684 0.432141 -0.560019 -0.706847
-0.0348619 -0.199505 0.0792501 0.435923 -0.555407 -0.708162
-0.167778 -0.347596 0.217914 -0.410555 0.524541 0.745856
0.306228 0.0990888 0.153579 -0.419024 0.541998 0.728462
-0.10424 0.318341 -0.351439 0.388689 -0.586956 -0.710214
0.307464 0.201733 -0.0267697 0.421693 -0.489067 -0.763537
0.263998 0.0226899 0.082337 0.421253 -0.542575 -0.726745
0.132569 -0.398512 0.322757 0.394224 -0.592132 -0.702828
0.533067 0.309522 0.112342 0.526534 0.797887 -0.293493
-0.161831 -0.430568 0.248393 -0.541273 -0.791238 0.284545
0.412225 0.056434 0.19319 0.724421 -0.266093 0.635932
0.466982 0.318473 0.00480084 0.569749 0.767337 -0.294244
-0.355371 0.0014048 -0.155023 -0.415723 0.499986 0.759729
-0.00268133 0.120383 -0.147025 0.42375 -0.554985 -0.715841
0.272203 -0.133644 0.278157 0.718749 -0.272987 0.639436
0.322735 0.203616 0.088745 -0.418332 0.557315 0.717216
-0.0549073 0.515985 -0.366906 -0.430936 0.546181 0.718318
0.244516 0.218762 -0.0363824 -0.5355 -0.794884 0.285306
0.00518982 0.464293 -0.291292 -0.408229 0.564543 0.717384
-0.41734 -0.327221 0.0560676 -0.401527 0.513724 0.758198
-0.472061 -0.171105 -0.172273 -0.743903 0.279816 -0.606886
-0.261188 -0.212993 -0.046592 0.414278 -0.560651 -0.716969
-0.286256 -0.403445 0.0839924 0.420557 -0.543312 -0.726597
0.185602 0.0232149 0.142356 -0.424925 0.566864 0.705765
0.234539 -0.162328 0.305835 0.722267 -0.272879 0.635506
0.287794 0.293763 -0.104335 0.417397 -0.535238 -0.73437
-0.212488 -0.211023 -0.0192953 0.426042 -0.523811 -0.737638
0.495701 0.272533 0.109472 -0.869382 -0.445106 -0.214604
0.312179 0.38664 -0.086216 0.546424 0.790928 -0.275416
-0.0202894 -0.339549 0.296745 -0.415504 0.535058 0.735574
-0.102519 -0.0426332 -0.0832608 0.420813 -0.55029 -0.721178
-0.0253016 0.341582 -0.218996 -0.429301 0.563745 0.705615
0.330571 -0.02113 0.155531 0.447614 -0.466706 -0.762776
-0.0311955 -0.256927 0.121149 0.410145 -0.563591 -0.71704
0.411891 0.241703 0.00449215 0.459475 -0.562932 -0.687016
-0.0346633 -0.173468 0.159547 -0.422332 0.579813 0.696744
0.200238 -0.233629 0.31498 0.707141 -0.248775 0.661863
0.328534 0.288196 -0.0786043 0.430162 -0.527385 -0.732684
0.206392 0.327924 -0.172278 0.698239 -0.284908 0.656726
0.00914479 -0.292872 0.173381 0.430203 -0.500657 -0.751178
-0.0599572 -0.209967 0.176588 -0.41223 0.556655 0.721251
-0.0817922 -0.10344 -0.00265398 0.906849 0.269681 0.323879
0.199551 0.124608 0.0765131 -0.399296 0.534566 0.74485
-0.197782 -0.428841 0.183385 -0.547507 -0.782431 0.296712
-0.199211 -0.298075 0.153441 -0.886779 -0.427264 -0.176262
-0.0389394 -0.388624 0.323328 -0.416853 0.517909 0.746996
-0.0470931 -0.0821043 0.0868157 -0.439241 0.495237 0.749539
-0.063711 -0.314995 0.254564 -0.421214 0.525001 0.739563
0.0339637 0.0852882 0.00421778 0.555232 0.770725 -0.312571
0.0862087 -0.354142 0.261738 0.410219 -0.516678 -0.751508
0.465924 0.206759 0.106067 0.00791647 0.800126 -0.59978
-0.456897 -0.15505 -0.0950528 -0.424616 0.572301 0.70155
-0.310564 0.111673 -0.240569 -0.772799 0.24495 -0.585475
0.391755 0.118288 0.0928671 -0.335565 -0.80717 0.485667
0.277001 0.146287 0.104016 -0.407159 0.49981 0.764468
0.0158202 -0.38633 0.244914 0.423613 -0.535346 -0.730723
-0.261368 -0.0295566 -0.0736301 -0.418528 0.53244 0.735759
-0.177144 -0.087487 -0.0916051 0.424415 -0.504678 -0.751779
0.282952 -0.0613755 0.157442 0.450958 -0.495706 -0.742235
-0.191879 0.28006 -0.30685 -0.744143 0.256854 -0.616666
0.516418 0.227118 0.141423 0.708624 -0.275715 0.649487
0.07158 0.0661285 0.0455997 -0.444297 0.601377 0.664038
-0.461956 -0.306326 0.0149375 -0.442808 0.491925 0.749621
-0.00872241 0.29919 -0.283035 0.422191 -0.553254 -0.718098
-0.00815906 -0.140242 0.0483968 0.391625 -0.497018 -0.77434
0.354892 0.253426 -0.0349834 0.386135 -0.491926 -0.780326
0.133276 0.0114165 0.12124 -0.441863 0.575712 0.687978
0.190169 0.424929 -0.211205 0.532074 0.796953 -0.285944
0.169321 -0.306421 0.324732 0.697131 -0.24542 0.67363
-0.316215 -0.0475916 -0.200318 0.415752 -0.574569 -0.704997
0.172803 -0.165431 0.172421 0.397203 -0.486389 -0.778239
0.0950761 0.3055 -0.12303 -0.408726 0.588306 0.697738
0.200997 0.244877 -0.0496661 -0.527507 -0.799457 0.287411
-0.102367 0.222147 -0.171742 -0.418574 0.548023 0.7242
0.0689078 -0.231655 0.26558 -0.413222 0.563722 0.715168
-0.311304 -0.242856 -0.0519626 0.413637 -0.568557 -0.711089
0.1591 -0.258491 0.235616 0.426091 -0.526044 -0.736019
