ply
format ascii 1.0
comment Created by Open3D
element vertex 400
property double x
property double y
property double z
property double nx
property double ny
property double nz
end_header
-0.0480934 0.0227797 -0.255577 0.596003 -0.558006 0.577417
0.30006 0.113293 0.13022 -0.584436 0.556061 -0.590957
-0.395076 -0.285286 -0.140504 -0.799947 -0.186077 0.57049
-0.18793 0.423599 0.268602 0.535803 -0.564095 0.628261
0.237237 0.0287823 0.119126 0.657151 -0.558483 0.50621
0.0974154 0.0191768 0.244391 -0.554695 0.548395 -0.62576
-0.0669056 0.395907 0.281601 0.19492 0.763808 0.615308
-0.0938047 0.284793 0.039427 0.62508 -0.554116 0.549755
0.0980837 0.386278 -0.05957 -0.609655 0.561909 -0.559088
-0.253648 -0.248732 -0.308377 -0.597201 0.557694 -0.576479
-0.207971 -0.113785 -0.228459 -0.579606 0.55691 -0.594902
0.126456 -0.215679 -0.403064 0.784728 0.207963 -0.583913
0.054072 -0.323681 -0.375667 0.202084 0.802703 0.561097
0.169443 -0.19232 -0.0236084 0.57274 -0.565638 0.593315
-0.250212 -0.34195 0.0338419 -0.812721 -0.185032 0.552493
-0.106945 0.386769 0.146655 -0.597219 0.560875 -0.573366
-0.272616 0.228825 0.164811 -0.587286 0.556761 -0.587463
0.304413 0.0137957 -0.0774424 -0.779329 -0.219939 0.586748
-0.170941 0.112444 -0.0463825 0.617618 -0.549012 0.563146
-0.304303 0.135891 0.133381 0.782024 0.213212 -0.585644
-0.204541 -0.464316 -0.0850518 -0.189909 -0.793397 -0.578321
-0.264329 0.106607 0.0420596 0.569435 -0.523458 0.633826
0.192151 -0.179679 -0.0394757 -0.568468 0.553542 -0.608634
0.265399 0.302848 -0.0271058 0.794115 0.145285 -0.590147
0.340782 0.244763 0.21719 0.589041 -0.557228 0.585259
-0.196746 -0.465231 -0.0852326 -0.218407 -0.783695 -0.581482
0.077002 -0.0585892 -0.407674 -0.770748 -0.22491 0.596124
0.271721 0.259813 0.297871 -0.527897 0.551 -0.646315
0.129007 -0.0602624 -0.338739 -0.757851 -0.246276 0.60416
-0.0191034 -0.0232994 -0.33222 0.599018 -0.560426 0.571927
0.0456799 0.115201 0.391721 0.605249 -0.560082 0.565669
0.0699338 -0.334421 -0.365858 0.171352 0.814221 0.554691
-0.256821 0.0700102 0.177466 -0.800179 -0.17765 0.572847
0.0180942 -0.265973 -0.445208 0.205139 0.813712 0.543866
0.0518939 0.203791 -0.187139 -0.583738 0.558454 -0.589389
-0.360942 -0.375818 -0.124602 -0.715838 -0.259764 0.64815
-0.159836 -0.292316 0.172371 -0.751864 -0.283765 0.595129
-0.0585455 -0.353652 0.0546021 0.608212 -0.566215 0.556308
-0.355365 -0.222215 -0.18067 0.584862 -0.544581 0.601139
-0.188989 0.101519 -0.0426564 -0.57143 0.556151 -0.60346
0.112158 0.292823 0.391126 0.0860482 -0.584273 0.806982
0.0427632 0.445275 0.052306 -0.610606 0.541912 -0.577488
-0.189108 0.27453 0.335777 0.764668 0.3036 -0.568428
-0.267304 0.102815 0.0389742 0.580709 -0.556892 0.593842
-0.207374 -0.317904 -0.352392 -0.700472 0.518454 -0.490454
-0.261079 -0.0593223 0.11932 0.780595 0.217058 -0.586137
0.138064 -0.438433 -0.242775 0.143411 0.807018 0.572849
0.0262788 -0.136953 0.172326 0.603035 -0.55503 0.572966
0.0796327 0.0103509 0.259067 0.580353 -0.560188 0.591083
-0.085785 -0.432214 -0.000239211 -0.600658 0.56182 -0.568831
-0.314876 -0.0575312 0.0472979 0.811633 0.17135 -0.558472
-5.52914e-05 0.48105 0.130386 -0.52013 0.581959 -0.62513
-0.224885 0.226928 0.277502 -0.767552 -0.22103 0.601673
0.145059 -0.136998 0.0481747 0.667418 -0.553467 0.498225
-0.0256057 -0.153814 -0.449574 -0.60478 0.556247 -0.569939
0.175931 0.145967 -0.201773 0.781497 0.214591 -0.585844
-0.126327 -0.351017 0.117363 -0.652373 0.5559 -0.515155
-0.213242 -0.124033 0.159681 0.769597 0.25318 -0.586192
0.138015 0.513334 0.0392308 0.293499 0.837304 0.461282
0.20607 0.446572 0.110451 0.200875 0.823626 0.530368
0.281342 -0.0702675 -0.142664 0.72095 0.307604 -0.620976
0.267123 0.164975 -0.0745537 -0.783659 -0.210937 0.584281
0.163158 0.0265779 -0.263375 0.757382 0.240591 -0.607032
-0.190606 -0.240707 -0.361188 0.559133 -0.564993 0.606756
0.00516755 -0.293316 0.0465887 0.586148 -0.556365 0.588973
0.318044 0.177933 0.174693 -0.637196 0.524436 -0.564755
-0.225533 0.24026 0.274564 0.824708 0.143033 -0.547173
-0.341069 -0.235191 -0.0503386 -0.773413 -0.268514 0.574223
0.289797 0.10533 0.136004 0.560771 -0.570056 0.600477
0.152796 -0.362298 -0.356326 0.207858 0.805946 0.554298
-0.163902 0.249945 0.0788385 0.591326 -0.55979 0.580491
0.0485577 -0.422619 -0.245841 -0.903529 0.396354 -0.162909
-0.269936 -0.194492 -0.237826 0.596246 -0.585832 0.548901
0.155808 -0.127616 0.052084 0.567521 -0.565256 0.598671
-0.210456 -0.446981 0.047014 -0.781279 -0.216686 0.585364
-0.141271 0.386694 0.318089 0.200277 0.788063 0.582105
0.21367 0.0756154 0.183217 -0.550105 0.550461 -0.627995
0.264345 0.0742947 -0.113101 0.762056 0.247566 -0.598316
0.137118 0.465249 0.106141 -0.167017 -0.826865 -0.537029
-0.131944 -0.151407 0.259454 0.78057 0.215574 -0.586718
-0.103195 0.272825 0.0369789 0.544718 -0.55632 0.627527
-0.157532 -0.292618 0.171682 0.759553 0.253361 -0.599072
-0.0355945 0.0233326 -0.270484 -0.605787 0.549906 -0.575
0.225494 0.139479 -0.135468 -0.748729 -0.257091 0.61099
0.124931 -0.129698 -0.37141 0.79292 0.187609 -0.579725
0.35032 0.0261215 -0.0119878 -0.796018 -0.161648 0.583288
-0.051052 -0.357434 0.0348976 -0.57167 0.563639 -0.596242
0.121038 0.128166 0.32512 -0.602268 0.556953 -0.571906
-0.216372 -0.320138 -0.338118 0.760201 -0.508486 0.404397
-0.125942 0.435383 0.215071 -0.587302 0.557621 -0.586631
0.0476287 -0.386043 -0.31672 -0.947738 0.0234096 0.318189
0.0330991 0.373937 -0.00261253 0.548856 -0.550824 0.628768
0.141692 0.254322 0.40535 -0.148305 -0.785592 -0.600709
-0.0806649 0.188856 0.448712 0.779338 0.220722 -0.586443
0.241297 -0.414412 -0.310265 0.596991 -0.55859 0.57583
0.137536 0.518804 0.0288604 0.219793 0.820993 0.526936
-0.240432 -0.325996 -0.265767 0.200492 0.801226 0.563773
0.0941964 -0.221311 0.0230124 0.623037 -0.567405 0.538401
0.315543 0.175769 0.182956 0.639971 -0.536553 0.550043
0.256514 0.471924 0.0537908 0.234343 0.820455 0.521475
0.0461262 0.212178 0.483638 -0.553674 0.549086 -0.626059
-0.132443 -0.174757 -0.360654 -0.59052 0.557145 -0.583846
0.126133 -0.316779 -0.41263 0.172705 0.80983 0.560668
0.231767 0.437961 -0.0206664 -0.774207 -0.228475 0.590257
0.217297 0.266172 0.360156 -0.58214 0.557258 -0.592095
-0.285411 -0.254023 0.0183033 -0.747123 -0.254977 0.613836
0.257657 0.305812 -0.0352558 -0.781745 -0.212891 0.586133
-0.0118081 0.146074 0.478583 -0.578985 0.556908 -0.595508
0.175235 -0.13241 -0.306676 0.763889 0.21929 -0.606947
-0.0761097 -0.501077 -0.074975 0.59691 -0.563585 0.571026
0.113413 0.085753 -0.305068 -0.744271 -0.267481 0.611975
-0.317584 -0.349941 -0.0545461 -0.807433 -0.200486 0.55485
-0.089213 0.21526 -0.0337781 -0.592787 0.556299 -0.582353
-0.103972 -0.0973087 0.317998 -0.790456 -0.184103 0.584196
0.0558582 -0.195839 0.0857396 0.595243 -0.553485 0.58253
0.282626 -0.0588955 -0.0103451 0.519663 -0.582562 0.624958
0.129881 -0.227493 -0.40093 0.796331 0.191337 -0.573801
0.084192 0.019033 -0.369146 -0.796883 -0.169814 0.579777
-0.250328 -0.495423 -0.0238319 -0.190234 -0.786307 -0.58782
-0.017868 -0.454068 -0.0898599 -0.578514 0.552684 -0.599885
0.0226624 -0.171594 -0.510721 0.633242 -0.547199 0.547337
0.23657 -0.136958 -0.224751 -0.794603 -0.169718 0.582926
0.15342 -0.325754 -0.140944 -0.515502 0.531309 -0.672286
0.213239 0.0615751 -0.185033 0.733294 0.250386 -0.632129
-0.030486 0.459682 0.227119 -0.833384 0.438646 -0.336246
0.253772 0.188316 0.253557 0.526809 -0.558133 0.641061
-0.134887 0.0945369 0.346254 0.796781 0.186634 -0.574724
0.274827 0.381724 0.0162405 -0.800573 -0.175862 0.572848
-0.0546865 -0.427455 -0.0274949 -0.552279 0.560392 -0.61721
0.0274335 -0.460546 -0.169391 0.179382 0.80233 0.569288
-0.000628528 -0.375135 -0.0318462 -0.657675 0.533507 -0.531821
0.0368963 -0.272888 0.0309428 -0.569817 0.558161 -0.603129
-0.288368 -0.209201 -0.240099 -0.583796 0.555588 -0.592034
-0.173355 -0.199526 0.187776 0.777573 0.219162 -0.589363
0.166125 -0.181583 -0.334206 -0.806858 -0.178959 0.562986
0.0715419 -0.242661 -0.484592 0.812746 0.122086 -0.569684
0.33053 -0.0653549 -0.0716944 -0.594586 0.554767 -0.581981
-0.136786 0.214613 0.386294 -0.774215 -0.226537 0.590992
-0.134935 -0.188684 -0.374397 -0.604926 0.555648 -0.570368
-0.311976 -0.057852 0.0528016 0.719858 0.275662 -0.637037
0.155283 -0.424153 -0.265957 0.221723 0.825626 0.518827
-0.313954 0.126815 0.118581 -0.753988 -0.265823 0.6007
0.0784682 0.31565 -0.106266 0.589967 -0.565745 0.576083
-0.122554 -0.348413 0.116584 -0.59648 0.575556 -0.559416
-0.293822 -0.134703 -0.157298 0.570098 -0.529329 0.62833
-0.0897756 0.137715 -0.108773 -0.620303 0.561964 -0.547194
-0.121914 -0.0163954 0.320932 0.78801 0.193452 -0.58448
-0.275827 -0.417832 -0.122236 0.188256 0.814636 0.548569
-0.0739826 -0.262939 0.154107 0.551778 -0.566806 0.611778
-0.181728 0.0272291 0.258882 -0.791485 -0.195377 0.579119
0.269681 -0.13724 -0.0753054 0.606746 -0.559836 0.564307
0.225946 -0.118147 -0.0135659 0.59911 -0.553481 0.578554
0.318934 0.0592858 0.0638069 0.591226 -0.557414 0.582873
-0.235887 0.355081 0.304476 -0.785216 -0.203368 0.584874
0.2139 -0.0548907 0.055788 -0.575278 0.561545 -0.594745
0.224066 -0.0632193 0.0419966 -0.631843 0.579115 -0.51517
-0.201927 -0.418434 -0.162499 -0.636364 -0.336992 0.693886
0.0263013 0.335883 0.395817 0.501596 0.41064 -0.76143
0.271757 -0.0818262 -0.153523 -0.772867 -0.220833 0.594902
-0.132707 0.435821 0.217951 -0.549862 0.544193 -0.633645
0.0041443 0.479113 0.125566 -0.526522 0.551554 -0.646965
0.271597 -0.252133 -0.219312 0.798162 0.190763 -0.571443
0.227418 0.3667 -0.0582288 0.748214 0.259084 -0.610779
-0.00639659 0.264224 0.440394 -0.214 -0.810572 -0.545139
0.347725 0.203338 0.0474078 0.806689 0.163997 -0.567766
0.193599 -0.255398 -0.324485 -0.761074 -0.223155 0.609072
0.196006 0.290851 0.338915 -0.677758 0.52899 -0.510699
0.365878 0.315436 0.11459 -0.788066 -0.202289 0.581404
-0.225044 -0.0289249 0.181745 -0.71233 -0.289355 0.639421
-0.277975 0.27674 0.221181 -0.786155 -0.202131 0.584041
0.137715 0.311956 -0.170442 -0.617992 0.560496 -0.551298
-0.185548 0.360534 0.367245 -0.204188 -0.795575 -0.57041
-0.253633 0.0545205 -0.019446 0.597861 -0.57043 0.56318
0.0253873 0.328808 0.393912 0.435738 0.45027 -0.779352
-0.00365731 -0.0161134 -0.334599 0.571962 -0.556103 0.603
-0.314008 -0.334407 -0.05244 0.799862 0.106452 -0.590668
0.128043 -0.26209 -0.0524082 -0.604584 0.553455 -0.572858
-0.238021 -0.26083 0.0755275 0.783219 0.211853 -0.584539
-0.145288 0.0944139 0.33407 -0.761993 -0.234115 0.603785
-0.208338 -0.330717 0.0933811 -0.802244 -0.185557 0.567427
0.0498695 0.441998 0.0437493 -0.587816 0.554051 -0.589492
0.278869 -0.252588 -0.20894 -0.801232 -0.203279 0.562766
-0.0402322 -0.193983 0.184549 0.592273 -0.558369 0.580892
0.0686342 0.312567 -0.0993393 -0.60088 0.556651 -0.573658
0.0843954 -0.0494585 0.194668 0.638218 -0.555428 0.533083
-0.0205964 0.414932 0.0840748 -0.561887 0.563539 -0.605564
-0.208521 -0.130307 0.160745 0.763847 0.241034 -0.598699
-0.0942397 0.141583 -0.0996233 0.585353 -0.557196 0.588977
-0.00633036 -0.242885 0.102368 0.603846 -0.551666 0.575356
0.248967 -0.310234 -0.267141 -0.750308 -0.255534 0.609705
-0.246812 0.374804 0.295647 0.812052 0.170149 -0.55823
0.342407 0.0408064 -0.0144938 -0.775674 -0.222497 0.590614
-0.129264 -0.458391 -0.117333 0.190821 0.82696 0.528889
-0.27644 -0.418901 -0.0274488 -0.747404 -0.268515 0.60769
-0.0346456 -0.148924 -0.434815 -0.574499 0.558767 -0.598106
-0.0408468 -0.174522 0.203319 0.545886 -0.541347 0.639493
-0.00345404 0.205087 -0.12698 -0.596911 0.558129 -0.576359
-0.294625 0.0444153 0.11133 0.761785 0.234292 -0.603979
0.293158 -0.00557267 0.0296228 0.586786 -0.555995 0.588687
0.14562 0.466562 -0.0353841 -0.505554 0.555808 -0.659918
0.0273375 0.0483133 -0.305041 -0.636948 0.603299 -0.479924
-0.18063 -0.0161871 -0.158427 0.640033 -0.544516 0.542089
0.280077 0.391512 0.025822 -0.742367 -0.280687 0.608364
-0.113424 -0.10905 -0.32046 -0.575343 0.560904 -0.595287
0.202346 0.531047 -0.0165223 -0.229138 -0.813206 -0.534969
-0.24908 0.0430614 -0.0360855 -0.622482 0.538444 -0.567974
0.313742 0.312382 0.0397805 0.767978 0.218469 -0.602064
0.0307468 0.121705 -0.247271 -0.585428 0.556869 -0.589212
-0.00281988 -0.0729347 -0.394012 -0.623706 0.566041 -0.539063
-0.0785605 0.35241 0.0855054 -0.617411 0.550892 -0.561535
-0.234382 0.180115 0.0819772 0.585141 -0.552235 0.59384
-0.352477 -0.385322 -0.141501 0.174786 0.778668 0.602599
-0.0297705 0.329419 0.0148009 -0.562948 0.555283 -0.612169
-0.0397751 -0.0569341 0.313147 -0.640877 0.525485 -0.559591
-0.16626 0.173358 0.00438585 -0.574124 0.560792 -0.596569
0.231749 -0.130272 -0.225383 -0.811416 -0.176122 0.557301
-0.116404 -0.241365 0.215619 -0.577124 0.561732 -0.592777
0.0651282 0.058497 0.319833 0.594883 -0.55608 0.580422
-0.31823 -0.0219306 -0.0281445 -0.598814 0.562653 -0.56995
-0.174047 0.353756 0.376362 -0.227599 -0.814816 -0.533173
0.339952 0.372557 0.165431 0.196982 0.792395 0.577329
-0.310249 -0.340269 -0.219991 -0.173083 -0.810376 -0.559761
0.016984 -0.0237176 0.291412 0.59301 -0.558063 0.580435
-0.274102 -0.137488 0.0758027 0.781111 0.216782 -0.585552
-0.23989 0.164665 0.229596 0.770926 0.23813 -0.590734
-0.0744607 -0.0212825 0.381738 0.582382 -0.557699 0.591441
0.255148 0.478025 0.0460013 0.223767 0.793558 0.565857
0.325938 0.302109 0.0546954 -0.762001 -0.265272 0.59075
0.0259504 -0.176055 -0.517021 0.630235 -0.551987 0.545999
0.186222 0.162134 0.294397 -0.598076 0.563965 -0.569428
0.0359612 0.121586 -0.246984 0.5849 -0.54906 0.597014
0.10179 -0.220205 0.0164427 0.544533 -0.562329 0.622311
-0.234368 0.181955 0.0768354 -0.603748 0.566114 -0.561251
0.126411 -0.0360671 -0.337005 0.76516 0.223564 -0.603779
-0.193979 -0.525015 0.0236568 0.634348 -0.557 0.536054
0.0275106 -0.466794 -0.163435 -0.157519 -0.792436 -0.589264
-0.0635852 0.453731 0.165397 -0.545586 0.561333 -0.622287
0.156204 0.0919915 0.253697 -0.607186 0.561484 -0.562193
0.215354 -0.1968 -0.273159 -0.764924 -0.246543 0.59507
0.204559 -0.252875 -0.120717 -0.596295 0.574709 -0.560484
-0.326484 -0.186688 -0.00861209 -0.773073 -0.222445 0.594034
0.0750414 -0.323051 -0.0555193 0.590814 -0.556916 0.583766
-0.00398507 0.284745 -0.0549417 -0.559682 0.565663 -0.605625
-0.00777252 -0.104839 0.231653 -0.600365 0.557557 -0.573317
0.233227 -0.407725 -0.295563 0.515943 -0.566405 0.642641
-0.136826 -0.157502 0.250524 0.754822 0.261295 -0.601638
-0.012139 0.03843 0.372047 -0.571512 0.544598 -0.61383
0.229508 0.0183337 -0.175022 -0.792275 -0.188293 0.580384
0.188993 0.211548 -0.161708 -0.716442 -0.279105 0.639384
-0.119713 0.294014 0.432655 0.771718 0.227016 -0.594067
0.208236 -0.356353 -0.221497 0.582951 -0.556244 0.592251
-0.133532 -0.290025 -0.381433 0.244046 -0.582724 0.775161
-0.135636 -0.422649 0.0604961 0.588971 -0.557151 0.585402
0.404385 0.317897 0.219805 0.210573 0.789187 0.576926
-0.117549 0.00977481 -0.202085 -0.577345 0.557391 -0.596648
-0.177702 -0.0670603 0.229617 0.797467 0.184176 -0.574565
0.301851 0.414482 0.114499 -0.231714 -0.80925 -0.539836
-0.387588 -0.178148 -0.0919675 0.792953 0.191014 -0.578567
0.40085 0.21642 0.129926 -0.527769 0.564923 -0.634288
0.112923 -0.297523 -0.43508 0.154087 0.785555 0.5993
0.207624 -0.361064 -0.223002 0.591198 -0.557349 0.582964
-0.388946 -0.184933 -0.0928957 -0.728374 -0.26286 0.632753
0.0618901 -0.132404 -0.455545 -0.757122 -0.253849 0.601936
-0.0750216 -0.21404 -0.455112 -0.607629 0.550155 -0.572814
-0.358473 -0.248089 -0.197368 0.581198 -0.546666 0.602798
-0.195821 -0.524917 0.023086 -0.610184 0.552811 -0.567517
0.0473238 -0.424568 -0.248351 -0.950704 0.307083 -0.0431594
0.186006 0.185637 0.316723 0.603605 -0.557319 0.570137
-0.341436 0.0157436 0.034435 0.528957 -0.542288 0.652785
-0.0620476 -0.477322 -0.15244 0.239596 -0.596063 0.766357
-0.38883 -0.284029 -0.129505 -0.753331 -0.230451 0.615942
-0.0860494 0.21252 -0.0397716 -0.546421 0.533408 -0.645678
-0.207539 0.295345 0.164299 0.6173 -0.553089 0.559494
-0.179067 0.176275 0.316607 -0.79631 -0.184025 0.576216
-0.170843 0.259065 0.0925673 -0.623308 0.555427 -0.550444
-0.258694 -0.41089 -0.00449096 0.769042 0.236876 -0.593688
-0.137288 0.318768 0.116198 -0.595768 0.554406 -0.581115
-0.124758 -0.278011 -0.379654 -0.280654 0.617578 -0.734732
0.302258 0.226141 -0.00600038 0.792463 0.185423 -0.581051
-0.074317 0.40289 0.27386 0.223387 0.810082 0.542094
-0.0919048 -0.0458854 -0.279558 0.587578 -0.553986 0.589789
0.14336 0.240402 -0.211121 -0.75958 -0.299306 0.577455
0.0845704 0.18989 0.420184 -0.581892 0.553828 -0.595547
0.210285 -0.25851 -0.127807 0.621269 -0.571343 0.536276
-0.373568 -0.0908273 -0.0361949 -0.774994 -0.2535 0.578898
-0.222813 -0.193975 0.127978 -0.779192 -0.220147 0.586852
0.121141 0.132001 0.328862 -0.590407 0.558026 -0.583118
-0.327459 -0.286894 -0.271922 -0.595669 0.594616 -0.540009
0.0952405 -0.103418 0.131852 -0.572175 0.560238 -0.598957
-0.0364059 0.384368 0.354432 -0.869867 -0.113264 0.480107
-0.248614 -0.0761661 -0.154139 -0.63 0.552966 -0.545279
-0.0128645 0.269671 -0.0545421 0.609759 -0.562027 0.558855
0.0616667 -0.0523256 0.212334 -0.630887 0.5539 -0.543301
0.151794 0.00241435 0.175413 -0.529983 0.569517 -0.628306
0.229501 0.398646 0.171244 0.250871 0.788633 0.561357
0.214673 -0.331486 -0.32434 0.815473 0.185267 -0.548343
0.168496 0.139546 -0.213646 -0.806336 -0.138893 0.574919
0.317772 0.323061 0.243197 -0.189989 -0.828248 -0.527171
-0.139503 0.301019 0.414673 -0.775729 -0.217496 0.592401
-0.212138 0.306442 0.178631 0.571238 -0.525219 0.63074
0.304871 0.101894 -0.0495687 0.783124 0.207356 -0.586276
0.221199 0.246334 -0.106518 -0.772777 -0.228697 0.592041
0.155836 -0.0488094 0.124226 -0.605248 0.550319 -0.575173
0.0809515 0.102379 -0.314694 -0.590894 0.558246 -0.582414
0.288095 0.262711 0.284991 -0.560775 0.555939 -0.613567
0.295151 -0.174929 -0.155126 -0.732491 -0.283051 0.619144
0.0367732 -0.407815 -0.099817 0.621324 -0.551884 0.55622
0.214866 0.0971689 0.203223 0.640297 -0.525852 0.559911
-0.183782 0.375861 0.210969 -0.586977 0.557748 -0.586835
0.134463 0.44716 -0.0348554 0.638943 -0.564466 0.522619
-0.274375 -0.157321 0.0672023 -0.771175 -0.227181 0.594708
0.0809337 0.488402 0.156411 -0.0878138 0.564286 -0.820896
0.089444 0.37848 -0.0573346 -0.591204 0.556222 -0.584033
-0.0810018 -0.114196 -0.352236 0.530335 -0.576834 0.621295
0.351824 0.123656 0.0229791 0.775712 0.222086 -0.590719
-0.0347498 0.351864 0.339107 0.851159 0.137071 -0.506695
-0.12969 0.00132474 0.316785 -0.782987 -0.210202 0.585445
-0.0547899 0.309929 0.397394 0.206105 0.794984 0.570544
0.185569 -0.0560706 -0.260606 -0.785466 -0.207425 0.583111
-0.0684678 -0.233614 -0.458129 0.17861 0.793109 0.582303
0.0893339 -0.383965 -0.303029 -0.221112 -0.82402 -0.521632
-0.292138 -0.427275 -0.10506 -0.209856 -0.839395 -0.501374
-0.0241749 0.203788 0.535551 -0.784865 -0.207984 0.583721
-0.30819 -0.121887 -0.131016 0.599332 -0.55933 0.57267
0.326129 0.40829 0.0901943 0.804319 0.188002 -0.563672
0.255933 0.184787 0.245236 0.569266 -0.548082 0.612815
-0.152931 -0.0658169 -0.235702 -0.60375 0.577525 -0.549501
0.0316459 0.364474 -0.00884651 0.564149 -0.577678 0.589935
-0.0260065 0.189188 -0.12178 -0.575511 0.563118 -0.59303
-0.0130507 -0.238369 0.117266 0.600318 -0.590472 0.539408
0.215902 0.434488 0.187557 -0.786667 -0.211416 0.58005
0.149282 -0.32486 -0.13541 -0.628699 0.56297 -0.536473
0.0673987 -0.128443 -0.451063 0.762478 0.230126 -0.604706
-0.416341 -0.328782 -0.200725 0.190908 0.802931 0.564674
-0.0194616 0.200028 0.53388 -0.529559 0.561364 -0.635954
-0.188505 -0.0296087 -0.164857 -0.584348 0.553208 -0.593716
-0.200768 -0.326743 0.103775 0.805736 0.170893 -0.567084
-0.134326 0.0562152 -0.14074 -0.598011 0.553255 -0.579907
0.324472 0.325066 0.24258 0.218859 0.754395 0.618861
0.240168 0.336263 0.274603 -0.956405 0.285944 -0.0593708
-0.066225 0.245995 0.49335 0.206145 0.800982 0.562078
0.293992 0.234687 -0.0143114 -0.753863 -0.25057 0.607376
0.168322 0.0281965 -0.256429 0.733168 0.221932 -0.642815
0.357292 0.122183 0.0316326 -0.812551 -0.121266 0.570136
0.174085 0.303291 -0.147616 0.782061 0.213149 -0.585618
0.0706091 -0.171576 0.0964382 0.570385 -0.50523 0.647614
-0.239044 -0.383692 -0.218439 0.943501 -0.0039877 -0.331346
0.0884154 0.0359067 -0.356768 -0.818449 -0.129657 0.559759
0.261202 -0.153929 -0.0805636 0.563147 -0.543108 0.622815
0.112149 -0.136798 -0.388584 -0.803957 -0.178202 0.567359
0.181869 -0.0705084 -0.269722 -0.805606 -0.137476 0.576281
-0.328451 -0.344857 -0.21208 0.278372 0.785057 0.553349
0.0524747 0.192144 -0.193105 0.597496 -0.553792 0.579925
-0.0196507 0.128638 -0.184011 0.54302 -0.571628 0.615119
0.389726 0.233651 0.11695 -0.796324 -0.127508 0.591278
-0.298814 0.0426731 0.107396 0.779199 0.216886 -0.588056
0.18974 0.425055 -0.0864273 0.766526 0.280714 -0.577613
-0.151686 -0.0599349 -0.230245 -0.60279 0.561482 -0.566906
0.305205 0.104846 -0.04593 0.81126 0.178784 -0.556681
-0.0713031 0.0830501 -0.176036 -0.578571 0.564671 -0.58856
0.118473 0.177115 -0.263209 -0.788382 -0.191346 0.584671
-0.232548 0.0641687 0.201106 0.776351 0.222279 -0.589806
0.129012 -0.267917 -0.0596773 -0.601522 0.562103 -0.567637
0.145956 0.37395 -0.117888 0.580846 -0.535777 0.612831
0.383161 0.311949 0.131993 0.779859 0.213254 -0.588508
0.0831612 0.48896 0.155383 -0.0493768 0.558635 -0.827942
-0.0917409 0.110162 0.404653 0.802992 0.143271 -0.578513
-0.105436 0.386326 0.149594 0.600451 -0.552141 0.578446
-0.200991 -0.184767 -0.301884 -0.608973 0.5571 -0.564616
-0.136909 0.048911 -0.141088 0.66224 -0.56955 0.486879
0.113334 0.187681 -0.264016 -0.607382 0.556177 -0.567234
-0.321456 -0.0314363 -0.0375911 -0.601651 0.554478 -0.574952
-0.136951 -0.510815 -0.0429147 -0.193881 -0.757794 -0.623024
-0.272409 0.299497 0.229375 -0.574895 0.54335 -0.611774
0.236385 0.251182 -0.0867417 0.755315 0.282029 -0.591573
-0.210221 0.0215325 -0.0944514 -0.586765 0.556761 -0.587983
-0.158409 0.185289 0.00948297 -0.565096 0.568163 -0.598211
0.322088 -0.0798822 -0.0716448 0.613397 -0.560981 0.555918
0.354792 0.240313 0.199822 0.566156 -0.542392 0.620708
0.296737 -0.180947 -0.160699 -0.783927 -0.210775 0.58398
-0.33043 0.0338703 0.0382301 0.599975 -0.561588 0.569779
-0.2019 0.112303 0.267417 -0.788956 -0.1896 0.584465
-0.0693019 -0.00941846 0.390788 0.587415 -0.556553 0.587531
-0.415936 -0.322703 -0.212858 -0.176221 -0.777771 -0.603339
-0.169149 -0.0549438 0.244417 -0.755506 -0.238472 0.610198
-0.0331551 0.0808189 0.440552 0.576502 -0.568364 0.587032
-0.0399067 -0.319711 -0.395362 -0.395713 -0.453787 0.798429
-0.00228731 0.0442922 0.370447 -0.598022 0.554943 -0.57828
0.224546 0.0119973 0.112055 -0.578388 0.558571 -0.59453
-0.025297 -0.319272 -0.389418 0.443494 0.447706 -0.776449
0.00506446 -0.365099 -0.0290156 -0.673569 0.513982 -0.531157
0.0704133 -0.342291 -0.065614 0.53604 -0.593948 0.599906
0.0976083 -0.418143 -0.173312 -0.635542 0.547699 -0.544162
0.247476 0.359942 0.28739 -0.979924 0.1969 0.0312898
0.092361 0.181852 0.407194 -0.612966 0.563075 -0.554274
-0.265656 -0.0329915 -0.0897523 -0.604624 0.558063 -0.568327
0.197647 0.520428 -0.0334435 -0.566667 0.544198 -0.618658
0.365538 0.156546 0.106563 0.55816 -0.564386 0.608215
-0.36315 -0.10272 -0.0309688 0.784856 0.209836 -0.583069
-0.265719 0.225655 0.155831 -0.619203 0.568662 -0.541489
