ply
format ascii 1.0
comment Created by Open3D
element vertex 400
property double x
property double y
property double z
property double nx
property double ny
property double nz
end_header
0.211752 -0.0500429 -0.0113683 0.316995 -0.785069 -0.532148
-0.15519 0.0493087 -0.114055 -0.021111 0.782605 -0.622161
0.345396 -0.243358 0.123841 0.179176 -0.974235 0.136972
-0.420468 -0.198882 -0.0775107 0.101214 -0.949705 0.296338
0.315537 -0.221599 0.205626 0.133177 -0.910409 0.391688
-0.0131129 -0.0935988 -0.0776894 0.278225 -0.701755 -0.655844
0.219905 -0.0159639 0.14825 -0.0744095 -0.592287 0.802284
0.429405 -0.22915 0.0946902 0.205386 -0.977964 0.0374572
-0.168964 -0.149392 -0.0678312 0.243657 -0.958389 -0.148732
0.236116 0.106271 0.163229 -0.31011 0.440546 0.842467
0.399784 -0.220689 -0.0133774 0.265651 -0.925711 -0.269236
0.437285 0.225637 0.155453 0.944333 0.18824 0.269815
-0.311172 -0.0423536 -0.188083 0.155558 0.287902 -0.944941
0.197655 -0.0537073 0.105745 0.0368564 -0.82326 0.566467
-0.0660558 0.0979081 0.0103166 -0.212914 0.973874 0.0789758
0.44676 -0.0660664 0.366165 0.947123 0.192066 0.257037
0.505724 0.0110611 -0.0883422 -0.948942 -0.224886 -0.221211
0.359909 0.249382 0.37151 -0.314998 0.496314 0.80898
0.165756 0.0940946 0.142619 -0.315913 0.506917 0.802019
0.480948 0.306903 -0.0820884 0.941801 0.166237 0.292191
0.291268 -0.160421 0.297351 -0.0257814 -0.717152 0.69644
0.33212 -0.108682 0.0327106 -0.947301 -0.218022 -0.234709
0.382208 -0.0336477 0.394264 -0.145551 -0.40329 0.903423
-0.0459181 0.0136324 0.102852 -0.287766 0.185731 0.939518
0.491248 0.195764 -0.0266243 0.948266 0.203398 0.243764
-0.159444 0.0520098 0.0364694 -0.300294 0.725519 0.61923
-0.111698 -0.0799618 0.0687492 -0.114677 -0.520413 0.84618
0.498602 0.23701 -0.0856746 0.154469 0.519589 -0.840337
-0.323449 -0.166925 -0.146727 0.307466 -0.825929 -0.472553
0.372951 -0.02299 0.145182 -0.0429501 0.881457 -0.470307
-0.246686 0.0345642 0.0145603 -0.311727 0.710039 0.631404
0.373763 -0.0428567 0.0757837 -0.956366 -0.163049 -0.242446
0.433825 -0.104525 0.152506 0.020215 -0.881598 0.471568
-0.432967 0.0208038 -0.122785 -0.193088 0.971446 -0.137876
0.330339 -0.0624761 0.264779 -0.951903 -0.207643 -0.225312
-0.314628 -0.107674 -0.188539 0.308212 -0.324924 -0.894108
-0.307389 -0.171901 -0.0453908 0.263984 -0.93413 0.240237
0.340645 0.39287 0.143836 -0.216175 0.973708 0.0718357
0.455328 0.279978 0.0441403 0.953233 0.14219 0.2667
0.492586 -0.0125302 0.115935 -0.219569 0.974454 0.0472012
0.220014 0.320636 0.111242 -0.94911 -0.192634 -0.249165
0.489593 -0.138254 0.0920549 -0.935309 -0.211466 -0.283688
-0.0151725 0.076413 -0.0823178 0.0305114 0.713713 -0.699773
0.314358 0.123186 -0.0142812 0.0879417 0.542558 -0.835403
0.434096 -0.0450166 0.230509 -0.942372 -0.275233 -0.190213
-0.116968 -0.0399477 -0.142538 0.283795 -0.0918741 -0.954474
0.517621 -0.200369 0.197608 0.209578 -0.950972 0.22744
0.319457 0.381681 0.0357875 -0.165387 0.968622 -0.185521
0.389258 -0.187537 0.260787 0.0254694 -0.798022 0.602089
-0.505357 -0.0159094 -0.0583262 -0.309905 0.749494 0.584994
-0.000836323 -0.0569025 0.0977419 -0.126167 -0.506149 0.853168
0.458926 0.337751 -0.01636 0.94429 0.201578 0.260158
-0.0477252 -0.090784 0.064007 -0.0615873 -0.697974 0.71347
0.339831 0.174786 0.0347768 0.0246373 -0.87133 0.490079
0.387914 0.0676198 0.325598 -0.93626 -0.275221 -0.218335
0.53344 0.00128637 -0.03247 0.946341 0.210584 0.245139
0.217364 0.109821 0.303473 -0.94885 -0.203211 -0.241638
-0.0680413 -0.0754833 -0.115496 0.311661 -0.482486 -0.818581
0.387801 0.0162331 0.296247 -0.32696 -0.091501 0.940598
0.403716 0.171364 -0.0887571 0.233851 0.110202 -0.966007
0.3741 -0.0257207 0.138646 -0.0626368 0.917941 -0.391741
0.257537 0.367293 0.00432473 -0.133233 0.957888 -0.25436
-0.461436 -0.0539397 -0.20709 -0.94805 -0.218361 -0.231343
0.289524 0.17085 -0.0452435 -0.948687 -0.202886 -0.242548
0.232111 0.110954 -0.032489 0.0922481 0.568509 -0.817489
-0.243945 0.0270797 -0.140185 -0.00227684 0.751347 -0.659904
0.0298864 -0.0178697 -0.106106 0.245907 -0.121997 -0.961585
0.408374 -0.144585 0.318705 -0.0107497 -0.749057 0.662418
0.494828 0.0354352 0.0278909 -0.316598 0.579052 0.751309
0.368894 -0.241183 0.0606131 0.216454 -0.975457 0.0403887
0.0609259 -0.0590541 -0.0764826 0.313947 -0.603454 -0.732994
-0.0313964 0.0105162 -0.117495 0.190891 0.239657 -0.951906
-0.381212 -0.00803089 -0.0056637 -0.281801 0.532475 0.798159
0.458277 0.348518 -0.0196506 0.958319 0.179449 0.222312
-0.287727 -0.0596033 0.0411104 -0.213068 -0.0458164 0.975963
-0.262319 -0.145729 -0.140325 0.326822 -0.696031 -0.639319
0.346676 -0.185591 0.0445133 -0.959024 -0.226019 -0.170847
0.46588 -0.122956 0.338693 0.929621 0.216712 0.298062
0.20912 0.0679023 0.361344 -0.94669 -0.257422 -0.193682
0.384146 -0.110538 0.09161 -0.947361 -0.204631 -0.246239
0.348078 0.0701265 -0.181195 -0.940804 -0.177802 -0.288572
0.358234 -0.0242578 -0.137107 -0.934512 -0.216087 -0.282831
0.285145 0.332802 0.255837 -0.324076 0.817325 0.476397
0.465276 -0.0355772 -0.0450408 0.292565 -0.788537 -0.540939
0.474688 0.249441 -0.00190345 0.948979 0.198247 0.245229
0.338569 -0.0338081 0.210643 -0.95796 -0.0811828 -0.275175
0.231526 0.130312 0.223857 -0.959747 -0.205746 -0.191194
0.0677228 0.0488782 0.127419 -0.300079 0.262562 0.917068
0.347675 -0.142695 0.315314 -0.0155333 -0.697302 0.716609
0.484094 -0.0270414 0.190351 0.952987 0.22385 0.204224
0.387706 -0.0762294 0.224237 0.0749698 -0.898219 0.433108
0.177261 0.0965442 -0.0473016 0.0688673 0.570382 -0.818487
-0.0478319 0.0820965 -0.0722867 -0.0222902 0.789535 -0.6133
0.157603 -0.000488262 -0.0697025 0.303249 -0.305806 -0.902509
0.374003 -0.0964919 -0.147198 -0.949007 -0.200817 -0.24302
0.412081 0.182468 0.294732 0.94621 0.182207 0.26737
0.362223 0.225936 -0.18744 0.1034 0.500014 -0.859823
-0.0986533 0.0450568 0.0688374 -0.286853 0.487785 0.824489
-0.455134 -0.139479 -0.163109 -0.949718 -0.228663 -0.213891
0.413017 0.342672 -0.0795535 -0.0129435 0.801337 -0.598073
0.471537 0.0515404 0.174899 0.946952 0.181006 0.265554
0.480479 0.0720909 0.11604 0.950173 0.22284 0.217976
0.25828 -0.0546703 0.084184 0.133302 -0.962144 0.237717
0.25543 0.375526 0.0780707 -0.247864 0.968099 0.036713
0.378034 -0.181073 -0.0958185 -0.959491 -0.19807 -0.200362
0.463041 -0.0334216 -0.0532102 0.351342 -0.742957 -0.569713
0.375464 0.309987 0.330939 0.948153 0.260413 0.182183
0.509027 0.25881 -0.142012 0.951656 0.221827 0.212471
0.333411 -0.222324 0.121801 -0.955088 -0.137421 -0.26253
-0.192589 -0.0366057 -0.163242 0.258545 0.111962 -0.959489
0.119682 0.0702873 -0.0727468 0.189082 0.403461 -0.895247
0.250974 0.297898 0.285535 -0.312976 0.663093 0.679966
0.37941 0.247644 0.209501 -0.96301 -0.140579 -0.229888
0.0523405 -0.0990865 0.0291786 0.218224 -0.965021 0.145304
0.0310072 0.110152 0.0606288 -0.319345 0.839699 0.439231
0.268323 0.214532 0.00784855 -0.942326 -0.195121 -0.271936
-0.432456 0.0123779 -0.150137 -0.111205 0.923677 -0.366681
-0.0657787 -0.124499 0.00525182 0.132488 -0.959218 0.249697
0.311135 0.262818 -0.166249 0.0171529 0.68133 -0.731775
0.33097 0.0955508 -0.134343 -0.91791 -0.23154 -0.322226
0.52491 0.0737097 -0.054387 0.951912 0.202471 0.229931
0.508185 0.0887626 0.00763498 0.93309 0.26582 0.242247
0.398749 0.251364 0.290951 0.948649 0.202666 0.24288
-0.348863 0.000717839 -0.171207 0.0356473 0.69279 -0.720258
0.235301 0.140835 0.376019 -0.279953 0.191329 0.940755
0.391899 -0.226395 0.16812 0.1325 -0.959042 0.250365
0.557347 -0.0392889 -0.0830462 0.96851 0.225927 0.104617
0.363272 -0.114383 -0.0836614 -0.948955 -0.200417 -0.243552
0.390604 -0.0976502 0.36015 -0.0955721 -0.546674 0.831873
-0.499715 -0.0894824 -0.0316926 -0.948582 -0.201559 -0.244064
0.464186 -0.13882 0.194378 0.0949259 -0.928422 0.359195
0.0728466 -0.0540746 0.104537 -0.0687241 -0.642572 0.763137
0.380294 -0.040256 0.28638 -0.242573 -0.0581878 0.968386
0.296951 -0.0262174 -0.000853449 0.330034 -0.729524 -0.59906
-0.230713 -0.025702 0.0527483 -0.278328 0.138554 0.95044
0.438328 0.0148329 -0.099714 0.218727 0.13049 -0.967022
0.539829 -0.16484 0.0845129 0.950483 0.205947 0.232738
0.459162 0.126986 -0.0150378 -0.923462 -0.1757 -0.341097
0.195567 0.151216 0.0844959 -0.258069 0.923828 0.28274
0.289083 0.198132 0.374305 -0.32385 0.296284 0.898519
0.427244 0.307365 0.109033 -0.0263181 0.907191 -0.419895
-0.364242 -0.183877 -0.0634248 0.104356 -0.950058 0.294107
0.448828 -0.101347 0.265834 0.0544404 -0.81003 0.583855
0.473707 0.19898 0.0396169 0.957626 0.145702 0.248442
-0.266712 -0.15076 -0.0095348 -0.0244277 -0.806093 0.591285
0.480944 -0.0712949 -0.160246 0.309003 -0.471576 -0.825914
0.380792 -0.0535322 -0.201999 -0.94755 -0.214162 -0.237243
0.354039 0.192459 0.0979096 0.222879 -0.974697 -0.0170255
0.361215 0.276731 0.0534666 -0.097087 0.916947 -0.387016
0.148032 -0.0196526 -0.067931 0.30144 -0.46442 -0.832736
0.377451 0.401334 0.0901488 -0.180252 0.972818 -0.145374
0.342758 0.205631 0.262348 -0.30839 0.768177 0.56107
0.424194 0.209836 0.231861 0.957223 0.199655 0.209432
0.286529 0.159533 0.24965 -0.95462 -0.155031 -0.254294
0.554861 0.0773947 -0.176826 0.952024 0.167877 0.255868
-0.388687 -0.189507 -0.148499 0.279458 -0.897365 -0.341525
-0.306524 0.0383629 -0.0259039 -0.289553 0.869396 0.400387
0.390238 0.375696 -0.0177806 -0.111889 0.921707 -0.3714
0.437326 0.0637843 0.295656 0.948504 0.202379 0.243687
0.535515 -0.16118 -0.040479 0.277302 -0.788304 -0.549254
0.33038 0.36215 -0.0380434 -0.0479175 0.891559 -0.450362
-0.406644 -0.0901748 0.00917184 -0.247144 -0.0587507 0.967196
0.223725 0.21092 0.188818 -0.946377 -0.21715 -0.239199
-0.368294 0.0315982 -0.115299 -0.106072 0.963254 -0.24676
-0.297878 0.0403322 -0.113074 -0.0822676 0.917401 -0.389369
0.495201 -0.176546 0.267329 0.0494005 -0.871373 0.488128
0.532003 -0.189571 0.13672 0.960489 0.209669 0.183029
-0.458542 -0.0711399 -0.00651661 -0.238971 0.182717 0.953681
0.325124 -0.155482 0.0977749 -0.948723 -0.248388 -0.195518
0.447894 -0.0399615 0.29261 0.137059 -0.916183 0.376595
0.214275 0.154928 0.0879767 -0.291957 0.919453 0.263377
-0.246902 -0.115055 0.0304613 -0.0850561 -0.57295 0.815165
0.328172 0.105459 0.292372 -0.215918 -0.198781 0.955963
0.504476 -0.0660035 0.147268 0.948127 0.202178 0.245316
-0.204837 -0.145066 -0.00755654 0.111133 -0.909636 0.400266
0.355086 0.219527 -0.0677737 0.0194469 0.900232 -0.434976
0.386872 0.14497 0.251746 -0.948046 -0.227108 -0.222781
-0.164126 -0.111942 -0.130571 0.330966 -0.613275 -0.717186
0.309581 -0.174991 0.173008 -0.958936 -0.213522 -0.18668
0.228552 0.00502634 0.337172 -0.946497 -0.176293 -0.270302
0.229981 0.0497379 -0.0572391 0.153063 0.161168 -0.974985
0.337984 0.0254305 -0.102874 -0.946985 -0.178988 -0.266801
-0.127973 -0.127601 -0.0913571 0.333742 -0.846584 -0.414623
0.466938 -0.214973 0.0426221 0.253748 -0.926833 -0.276753
0.461384 -0.218736 0.163214 0.0500793 -0.972971 0.225431
-0.131427 -0.136892 -0.00948217 0.204821 -0.950984 0.231684
0.393038 0.068139 -0.0947614 -0.947446 -0.232607 -0.219635
0.431918 0.255261 -0.159618 0.0774828 0.545756 -0.834354
0.263145 -0.0459222 0.256207 -0.950195 -0.214992 -0.225628
0.426649 0.0610854 -0.00725726 -0.301153 0.225736 0.926472
-0.474713 -0.084309 -0.13445 -0.948459 -0.221565 -0.226573
0.0300935 -0.100813 -0.0339152 0.295214 -0.900475 -0.319365
-0.467375 -0.157321 -0.0992724 -0.938961 -0.183476 -0.291013
0.231216 0.0524445 0.292306 -0.942592 -0.177721 -0.282729
0.188447 0.0404471 0.162201 -0.21337 -0.0688641 0.974541
-0.245579 -0.0952504 -0.171298 0.283911 -0.291116 -0.91359
0.267027 0.0771943 0.393 -0.217319 0.00622357 0.976081
0.375996 0.195716 0.40589 -0.301081 0.315987 0.899724
0.267421 0.157583 0.135544 0.279554 -0.831136 -0.48069
0.562642 -0.0543194 -0.138199 0.356055 -0.525629 -0.772618
0.459998 0.0616534 -0.204323 0.257301 -0.0459237 -0.96524
0.425835 0.402174 0.0456046 -0.135977 0.954654 -0.264851
-0.49284 -0.0222988 -0.11498 -0.954114 -0.16396 -0.250565
0.350983 -0.00722275 0.00242671 -0.317143 0.643078 0.697045
0.442529 0.0979407 0.242647 0.95035 0.190369 0.24616
-0.272003 -0.0162821 -0.171947 0.132438 0.422823 -0.896483
0.351326 0.169406 0.164273 0.310439 -0.748132 -0.586452
0.228 0.14384 0.228733 -0.953226 -0.213072 -0.214383
0.36312 0.268565 0.252807 -0.945711 -0.204439 -0.252658
-0.451067 -0.0155882 -0.0291876 -0.391941 0.600249 0.697197
0.407156 0.0913343 -0.221721 0.180952 0.0854159 -0.979776
0.408069 0.249595 0.0876614 -0.940956 -0.243982 -0.234681
0.402821 0.162282 -0.206133 0.170499 0.283496 -0.943695
0.404747 0.0502536 0.214533 0.178957 0.348826 -0.919943
0.30548 0.183527 -0.105254 -0.932385 -0.158713 -0.324758
0.435654 0.227501 -0.0673049 -0.0825047 0.895885 -0.436559
0.140021 0.132533 -0.00476944 -0.126465 0.933117 -0.336599
0.476916 -0.136727 0.31862 0.940735 0.169222 0.293907
-0.182094 -0.0813719 0.0546885 -0.206672 -0.304974 0.929665
-0.481783 -0.105376 -0.0831329 -0.948469 -0.209434 -0.237789
0.206883 0.210364 0.254569 -0.948205 -0.199977 -0.246813
0.290666 -0.152208 0.23242 -0.954391 -0.197286 -0.224091
-0.125494 0.0850128 -0.00927714 -0.268115 0.94788 0.172159
-0.318645 -0.116915 0.019866 -0.133974 -0.472066 0.871324
0.431844 -0.182539 -0.070967 0.304316 -0.809175 -0.50262
-0.122455 -0.0308025 -0.147122 0.220828 0.0621726 -0.973329
-0.383664 -0.0446947 -0.203605 0.171078 0.348236 -0.921664
0.329451 -0.0896807 0.355736 -0.0862761 -0.544034 0.834616
-0.37284 -0.125669 -0.203728 0.294893 -0.350286 -0.88901
0.268676 0.0480719 0.181114 -0.235839 -0.109305 0.965625
-0.206964 0.0662963 -0.0186207 -0.255001 0.941492 0.22038
0.0593052 0.125633 0.00441943 -0.131942 0.967024 -0.217845
0.367347 0.316476 0.190751 -0.928366 -0.193027 -0.317613
0.496538 -0.14646 -0.0858356 0.316431 -0.727791 -0.608434
0.4593 0.200861 0.0966991 0.944397 0.164895 0.284472
0.287486 0.299235 -0.132614 -0.0079971 0.767692 -0.640769
0.435839 -0.13236 -0.132393 0.306491 -0.61121 -0.729716
-0.0100229 0.0722439 0.088626 -0.309275 0.555096 0.772151
0.35168 0.171695 -0.0237094 -0.933943 -0.192201 -0.301345
-0.10122 0.0460196 -0.113034 0.0767191 0.640468 -0.764143
0.398906 0.0766408 -0.102041 0.240675 0.106315 -0.964766
0.461558 0.113368 -0.0826253 0.172301 0.178801 -0.968681
0.286022 0.157827 0.290341 -0.19394 -0.165887 0.966886
0.3959 -0.0795101 0.0275246 -0.958484 -0.21752 -0.184374
0.434999 -0.0118056 0.159237 -0.0579716 0.896446 -0.439345
-0.373492 -0.14861 -0.0105364 -0.0879611 -0.602519 0.793242
0.326867 0.130828 0.406283 -0.283161 0.19034 0.939995
-0.17688 -0.107334 0.039437 0.0169647 -0.680405 0.732639
0.320278 -0.0470395 0.050039 -0.288838 0.934955 0.20599
0.541837 -0.18862 0.0225007 0.267453 -0.921989 -0.280009
0.238251 0.337542 0.221512 -0.296825 0.843376 0.447896
0.478385 0.0541524 -0.0264192 -0.948583 -0.200384 -0.245023
0.198115 0.338753 0.178756 -0.951282 -0.210563 -0.225222
0.399688 -0.0322986 -0.0349973 -0.947416 -0.212475 -0.239287
0.423185 -0.00695643 0.0405681 -0.30402 0.80938 0.50247
0.509792 0.111728 -0.19288 0.246208 0.0382847 -0.968461
0.419259 0.279523 0.188988 0.950106 0.222321 0.218795
0.281706 0.173611 0.0700925 -0.175738 0.983065 -0.0519583
-0.182955 0.0336371 0.0446652 -0.35474 0.627174 0.693406
0.141612 -0.0614924 0.0991385 0.0356184 -0.81465 0.578858
0.432606 0.285069 -0.0399115 -0.939508 -0.237107 -0.247195
0.191997 0.142375 0.00315688 -0.104886 0.909952 -0.401231
-0.239173 -0.165469 -0.0691648 0.105421 -0.99318 0.0498035
0.451459 0.154306 0.170381 0.951239 0.184749 0.247008
0.438255 -0.192329 0.243786 0.0609807 -0.903174 0.424922
0.299881 0.272685 0.331421 -0.327427 0.652339 0.683553
0.241637 -0.0642366 0.349405 -0.946142 -0.176028 -0.271715
-0.447746 -0.206843 -0.134976 0.279659 -0.936607 -0.21109
0.33203 0.268042 0.163657 -0.304633 0.781092 0.545063
-0.00191448 -0.109499 0.0253282 0.0783666 -0.949823 0.302813
0.187774 0.27772 0.271635 -0.955066 -0.213889 -0.205184
0.320437 0.04142 -0.0298324 0.271804 -0.168646 -0.94746
0.280951 0.260306 -0.0847989 -0.93563 -0.236687 -0.261868
0.388083 0.131376 0.420928 -0.273585 0.0777111 0.958703
0.310266 0.0528378 0.241528 -0.915636 -0.180865 -0.359024
0.392329 0.186659 0.37781 0.943215 0.196472 0.26785
0.240016 0.286177 0.0609136 -0.959866 -0.190141 -0.206163
0.477107 -0.194318 -0.0188963 0.284684 -0.881605 -0.376466
0.117909 -0.0886344 0.0356171 0.206086 -0.978296 0.0215664
0.296455 0.188472 0.187968 -0.951643 -0.179924 -0.249006
0.277344 -0.093998 0.231688 -0.949585 -0.183246 -0.254379
0.302002 0.276128 0.093616 -0.935483 -0.202991 -0.289251
0.529903 0.143811 -0.132317 0.95115 0.227721 0.208462
0.422381 0.323826 -0.100991 0.100383 0.720403 -0.686252
0.365291 0.00680348 -0.198227 -0.946917 -0.226952 -0.227688
0.481904 0.118855 0.0704655 0.928694 0.166069 0.331586
0.330461 0.0433221 0.405093 -0.153512 -0.143345 0.977694
0.489003 0.305241 -0.10374 0.946893 0.218354 0.236042
0.252903 0.36597 0.156796 -0.26325 0.943134 0.202972
0.275852 0.378884 0.0923632 -0.208595 0.977716 -0.0236496
0.390551 0.0280758 -0.223452 0.270787 -0.123079 -0.954739
0.265665 0.312869 -0.0571973 -0.945665 -0.232247 -0.227551
0.308224 -0.0898495 0.095483 -0.948827 -0.218738 -0.227776
0.299138 -0.0342837 0.126841 0.117091 -0.910354 0.396919
0.523774 -0.0853347 0.0826221 0.946191 0.202952 0.252059
0.428347 0.195537 0.22681 0.940007 0.241429 0.241036
0.404039 0.170887 0.0272377 -0.0345663 -0.74004 0.671675
0.277799 0.00757409 0.388848 -0.159666 -0.230074 0.959986
0.0601422 0.0984194 -0.0562715 0.0112951 0.755241 -0.65535
0.508184 0.0159525 -0.184237 0.262506 -0.209695 -0.94187
0.143507 -0.0717898 -0.0154301 0.292263 -0.854181 -0.430066
0.410875 -0.00842619 -0.0988299 -0.942532 -0.234901 -0.237602
0.437916 0.00821743 0.342854 0.948928 0.220619 0.225528
0.300445 -0.0399952 0.376125 -0.194729 -0.304259 0.932474
-0.464885 -0.1814 -0.0434787 -0.0064067 -0.752248 0.658849
0.416411 0.00503014 0.413669 -0.159377 -0.32188 0.933269
-0.0693188 -0.0370906 0.0926176 -0.193981 -0.260015 0.945919
0.357444 0.300937 0.10798 -0.0737289 0.900345 -0.428885
0.391161 0.251293 -0.00443854 -0.0262572 0.894439 -0.446417
0.29868 0.104716 0.18932 0.288034 -0.269734 -0.918847
0.515437 -0.0154042 0.0522358 0.939947 0.193979 0.280841
-0.403114 0.0202634 -0.0593938 -0.280209 0.900564 0.332368
0.270906 0.242514 -0.0200945 -0.955501 -0.1708 -0.24051
0.527123 0.206366 -0.169098 0.96079 0.144776 0.236479
0.260088 -0.0900237 0.294746 -0.960283 -0.171361 -0.220211
0.292604 -0.0885062 0.161732 -0.956526 -0.202819 -0.209575
0.369693 0.102356 -0.033862 -0.949984 -0.196545 -0.242696
0.537173 -0.123799 0.0337097 0.267247 -0.911372 -0.313018
0.304336 0.268726 0.0853851 -0.947985 -0.200152 -0.247515
0.252861 0.304148 -0.000115391 -0.951477 -0.156016 -0.265236
0.134864 0.0359021 0.14855 -0.32424 0.0520665 0.944541
-0.248822 0.0581485 -0.0738909 -0.217209 0.972393 -0.0852761
0.223352 0.26059 0.150715 -0.938225 -0.140127 -0.316383
0.571748 -0.124131 -0.0717945 0.94475 0.200693 0.259171
-0.0682251 -0.118358 -0.0685551 0.291048 -0.870279 -0.397372
0.352585 -0.161546 -0.0110399 -0.951158 -0.193003 -0.24093
0.389851 0.0270008 -0.0476886 -0.948097 -0.196878 -0.249702
0.333014 0.0241884 0.193003 0.135325 0.43842 -0.888524
0.271859 -0.0211846 0.193089 -0.924569 -0.299914 -0.234996
0.490701 -0.0928362 0.212314 0.935762 0.183108 0.301365
0.207494 0.166365 0.291412 -0.949008 -0.20251 -0.241605
0.357671 0.392849 0.157876 -0.260433 0.952787 0.156113
0.51939 -0.126735 0.135389 0.936919 0.256852 0.237087
-0.111238 0.0814629 -0.0671293 -0.0954304 0.909271 -0.405117
0.493723 -0.0632955 0.0163426 -0.944711 -0.203521 -0.2571
0.390018 -0.128789 0.0822088 -0.945236 -0.180246 -0.272102
0.302112 0.221155 0.135564 -0.946885 -0.218888 -0.235577
0.269391 -0.0219708 0.191799 -0.926353 -0.224182 -0.302677
0.341551 0.163886 -0.218489 0.164145 0.332234 -0.928804
0.548441 -0.0800726 -0.022283 0.945622 0.227946 0.232032
0.409068 0.118558 0.355635 0.94946 0.189091 0.250542
0.563834 0.00827529 -0.153891 0.948748 0.209606 0.23652
-0.116418 -0.0772358 0.0698928 -0.111659 -0.498304 0.859782
0.316561 0.0830857 -0.07755 -0.926888 -0.250684 -0.279348
0.241421 -0.00398539 -0.0404157 0.314113 -0.459853 -0.830583
-0.357697 -0.0573852 0.021628 -0.292759 0.18083 0.938932
0.378082 0.281348 -0.144453 0.0170637 0.705509 -0.708495
0.413369 0.330582 0.0417911 -0.0821032 0.941707 -0.326263
0.383561 0.340319 0.275522 0.94854 0.202148 0.243737
0.251525 0.151307 0.0126612 -0.0506423 0.873032 -0.485027
0.472313 0.170136 -0.191967 0.198421 0.260996 -0.944727
0.476774 0.181726 -0.118475 0.197174 0.330128 -0.923113
0.325914 0.323055 0.296326 -0.311664 0.773313 0.552135
-0.0393654 0.00406866 -0.123047 0.252668 0.100629 -0.962306
0.210238 0.0757082 0.360491 -0.939219 -0.161902 -0.302745
0.251702 0.0167511 0.249381 -0.924573 -0.279917 -0.25848
0.394557 0.0501716 0.211756 0.139789 0.375349 -0.916282
0.114064 -0.0203798 0.131552 -0.142098 -0.434381 0.88945
0.388306 0.383564 0.217351 0.95145 0.203953 0.230535
0.244449 0.221267 0.09358 -0.956727 -0.147834 -0.250637
0.36094 -0.0873298 0.161607 -0.947999 -0.183492 -0.260056
0.413141 0.367941 0.13321 0.936939 0.207553 0.281188
-0.435812 -0.142662 -0.216175 0.306339 -0.403593 -0.86213
0.332985 0.0363812 0.285392 -0.231778 -0.117004 0.965706
-0.427621 -0.134659 -0.00472478 -0.131623 -0.414416 0.900519
0.31228 0.207172 -0.154628 -0.941776 -0.195705 -0.273418
-0.0023841 0.109737 -0.0160687 -0.179233 0.966602 -0.183184
0.400266 0.0738273 0.423933 -0.235529 -0.0703656 0.969317
0.530816 -0.101632 -0.112178 0.303594 -0.58051 -0.755539
0.502397 0.0677347 -0.125368 0.267496 -0.118407 -0.956256
0.32209 0.367505 0.21547 -0.20216 0.933265 0.296897
0.207329 0.274253 0.198737 -0.951202 -0.21629 -0.220077
-0.151752 -0.0197122 0.0764482 -0.251282 0.0615733 0.965953
0.426069 0.116346 0.296543 0.945932 0.231709 0.226988
0.178823 -0.0732687 0.044882 0.198404 -0.979173 0.0430855
0.34643 0.24933 0.367695 -0.301537 0.581509 0.755595
0.444373 -0.00984748 -0.197988 0.287775 -0.347323 -0.892498
0.459352 0.0156624 0.253054 0.945247 0.215976 0.244667
0.504913 -0.211402 0.0926399 0.257628 -0.961414 -0.0964974
0.24225 0.245695 0.332694 -0.372308 0.542379 0.753135
0.01736 -0.00430062 0.117311 -0.199953 -0.150785 0.968134
0.083692 0.0136495 -0.0928247 0.318478 -0.0666216 -0.945586
0.331179 0.246887 -0.000148401 -0.946979 -0.248834 -0.203254
0.485457 -0.0123511 0.114514 -0.229269 0.971168 0.0653419
0.363697 0.120581 0.202919 0.303784 -0.329996 -0.893766
0.44902 -0.108843 0.0462704 0.302602 -0.80291 -0.513583
0.439039 -0.0118396 -0.198722 0.289776 -0.258484 -0.921529
0.221246 0.19373 0.353969 -0.321594 0.427398 0.844931
0.350919 -0.0983003 -0.0491947 -0.927328 -0.16215 -0.337298
0.218121 0.335044 0.112364 -0.946079 -0.226861 -0.231235
0.110691 0.130015 0.0712221 -0.277633 0.902178 0.330144
0.341673 -0.0276798 -0.0743832 -0.945376 -0.150963 -0.288918
0.351265 0.104025 -0.22883 -0.955993 -0.160829 -0.245379
0.510716 0.132527 -0.0477833 0.956647 0.209963 0.201846
0.550953 -0.08279 -0.0226625 0.948108 0.194055 0.25186
0.106033 0.0938192 0.119619 -0.31999 0.552066 0.769955
0.356421 0.317683 -0.109897 0.075522 0.742004 -0.666128
0.465813 0.0455265 0.196763 0.969119 0.109472 0.220961
0.420288 0.216075 0.150383 0.204233 -0.944757 -0.256365
0.363737 0.204472 0.323422 -0.294951 0.430471 0.853053
