ply
format ascii 1.0
comment Created by Open3D
element vertex 400
property double x
property double y
property double z
property double nx
property double ny
property double nz
end_header
-0.196365 -0.20088 -0.212576 -0.962084 0.00978768 0.272576
-0.0659274 0.315297 0.229283 -0.962085 0.00978793 0.272576
0.214369 0.120943 0.278848 0.962085 -0.00978803 -0.272576
0.0284053 0.135863 -0.133944 -0.723031 -0.303963 0.620348
0.195393 0.10944 0.212282 0.962085 -0.00978863 -0.272576
-0.15645 0.122407 -0.113351 0.921671 -0.375414 0.0979137
0.0313599 0.0593494 -0.364891 0.962084 -0.00978796 -0.272576
-0.0833507 -0.182947 0.0461527 -0.866252 0.49189 0.0874704
-0.140335 -0.415497 -0.00710452 -0.962084 0.0097877 0.272576
-0.0698541 0.138242 0.221781 -0.962085 0.00978778 0.272576
-0.0330894 0.147482 -0.185976 0.205843 -0.622499 0.755065
0.0333992 -0.13859 -0.350585 0.962085 -0.00978798 -0.272576
-0.0945918 0.171597 0.0703644 0.769699 -0.471566 -0.430335
-0.0509283 0.154792 0.287987 -0.962084 0.0097877 0.272576
0.117132 -0.380187 0.245661 0.222382 -0.550479 0.804686
0.153389 0.113915 0.14695 0.514243 -0.384699 -0.766525
-0.088066 -0.418672 0.177498 -0.962084 0.0097877 0.272576
-0.247751 -0.055125 -0.403791 -0.247957 -0.447711 -0.859111
-0.0323081 0.10613 0.355456 -0.962084 0.0097877 0.272576
-0.0267093 -0.182088 -0.121502 -0.765224 0.453303 0.457109
0.181414 -0.171782 0.173042 0.962084 -0.00978821 -0.272576
0.0536871 0.434588 -0.0397123 0.0255749 0.99819 0.0544255
0.00753727 -0.00918307 0.500235 -0.962084 0.0097877 0.272576
-0.0757314 0.25052 -0.345806 -0.222382 0.550479 -0.804686
0.172255 -0.097937 0.423512 0.222381 -0.55048 0.804685
0.0503181 0.236888 0.0152041 -0.0417746 -0.992853 -0.111797
-0.0584462 0.441017 -0.104938 0.0255749 0.99819 0.0544255
-0.0432854 -0.13659 0.325426 -0.962084 0.00978769 0.272576
0.126682 0.215064 0.022802 0.624966 -0.690034 -0.365063
0.123075 0.422501 0.149347 0.025575 0.99819 0.0544261
0.234359 0.14739 0.348453 0.962085 -0.00978803 -0.272576
-0.0576324 -0.157986 -0.170013 0.208497 0.661252 0.720607
0.175262 -0.343245 0.254867 0.222382 -0.550479 0.804686
0.0608178 -0.210218 -0.251236 0.962084 -0.00978762 -0.272576
-0.0502692 -0.158995 0.085257 0.801665 0.482231 -0.35325
0.0774268 0.440238 -0.154501 0.0255747 0.99819 0.0544257
0.20081 0.231418 0.227022 0.962084 -0.00978756 -0.272576
0.0622265 -0.163179 0.0696858 0.793485 0.472374 -0.383724
0.0496605 -0.0303858 -0.297074 0.962084 -0.00978736 -0.272576
-0.0371309 0.150687 -0.424769 -0.222381 0.550478 -0.804686
0.0232016 0.227991 -0.0702229 -0.785032 -0.459686 0.415226
0.00666674 -0.440677 0.123035 -0.0255773 -0.99819 -0.0544271
-0.0584528 0.120649 0.154852 0.709954 -0.27546 -0.648141
0.060825 -0.278691 -0.248752 0.962085 -0.00978783 -0.272576
0.21754 -0.0243476 0.295257 0.962084 -0.00978802 -0.272576
0.180026 -0.24537 0.170785 0.962085 -0.00978751 -0.272576
-0.117422 0.204521 -0.0901088 0.880977 -0.471259 -0.0423538
-0.0481613 -0.421821 -0.197028 -0.0255748 -0.99819 -0.0544258
-0.0311468 0.164835 0.357447 -0.962084 0.0097877 0.272576
0.180005 0.0355528 0.433543 0.247957 0.447711 0.859111
-0.0767183 -0.364336 0.215599 -0.962085 0.00978762 0.272576
-0.18686 -0.362721 -0.173213 -0.962084 0.00978756 0.272576
0.18306 0.38117 0.186815 0.904736 0.425881 0.00889206
0.0146026 0.346339 -0.305222 -0.222382 0.550479 -0.804686
0.22086 0.207028 0.298667 0.962084 -0.00978735 -0.272576
0.0550446 -0.148635 -0.273825 0.962085 -0.00978802 -0.272576
0.0637065 0.330553 -0.260458 0.962084 -0.00978779 -0.272576
-0.237984 0.0160422 -0.367263 -0.962084 0.0097879 0.272576
0.141556 -0.417642 0.0411841 0.962085 -0.00978767 -0.272576
-0.173861 0.38524 -0.15419 -0.962084 0.00978809 0.272577
0.106171 -0.201383 0.104901 -0.141589 0.841486 -0.521397
-0.0500198 -0.440237 0.1416 -0.0255748 -0.99819 -0.0544257
-0.00528488 -0.0655845 0.457003 -0.962084 0.00978769 0.272576
-0.0381854 0.437207 -0.0445822 0.0255748 0.99819 0.0544257
0.0898551 -0.439973 0.0710365 -0.0255752 -0.99819 -0.0544261
-0.0837718 -0.286529 -0.330526 -0.247957 -0.447711 -0.859111
0.222687 0.0813054 0.397381 0.247957 0.447711 0.859111
0.108426 0.131906 0.176079 -0.232834 -0.549983 -0.802064
0.0246408 -0.0972172 -0.178711 0.960058 0.181253 0.213156
-0.220068 -0.133476 -0.370949 -0.247957 -0.447711 -0.859111
0.0811263 -0.290784 -0.176663 0.962085 -0.00978785 -0.272576
-0.219001 -0.286411 -0.291558 -0.247957 -0.447711 -0.859111
-0.199675 -0.321625 -0.219923 -0.962084 0.00978768 0.272576
-0.0438332 0.218658 0.310737 -0.962084 0.0097877 0.272576
0.120847 0.235428 -0.0483445 0.681074 -0.713775 -0.16329
0.190261 0.0113402 0.197689 0.962084 -0.00978751 -0.272576
-0.0417122 -0.0344664 0.327312 -0.962084 0.00978752 0.272576
-0.00509702 -0.309736 -0.341139 -0.247956 -0.447712 -0.859111
0.0220389 0.202644 0.392058 0.247957 0.447711 0.859111
-0.0652244 0.016973 0.242476 -0.962084 0.00978738 0.272576
0.0370862 -0.0813299 -0.241213 0.96562 0.110361 0.235371
-0.0757042 0.241975 0.197408 -0.962084 0.00978749 0.272576
0.0758165 -0.432495 -0.0595279 -0.0255748 -0.99819 -0.0544257
-0.167894 -0.422327 -0.131482 -0.0255748 -0.99819 -0.0544257
0.0671309 -0.41252 -0.195725 0.775765 -0.481828 -0.407469
-0.0578618 -0.0220421 0.200991 -0.967814 -0.0202885 -0.250847
0.0877476 0.266997 -0.173321 0.962085 -0.00978758 -0.272576
0.0802905 -0.218112 -0.182222 0.962084 -0.00978765 -0.272576
-0.0403025 -0.127036 0.13687 0.757621 0.412952 -0.505452
0.0346655 0.429281 0.0665476 0.0255748 0.99819 0.0544257
-0.15751 0.334116 -0.266019 -0.222382 0.550479 -0.804686
0.143895 -0.446843 0.176864 0.879637 -0.473066 -0.0494675
-0.183698 0.242404 -0.183784 -0.962084 0.0097877 0.272576
0.0220644 0.123487 -0.400003 0.962084 -0.00978758 -0.272576
0.144087 0.268296 0.0254876 0.962084 -0.00978769 -0.272576
0.0936527 -0.0212524 0.488069 0.247957 0.447711 0.859112
-0.0872322 -0.436798 0.0960189 -0.0255748 -0.99819 -0.0544257
0.10778 0.35853 0.286075 0.247956 0.447711 0.859111
0.00102726 -0.311287 0.324881 0.222382 -0.550479 0.804686
0.177875 0.167844 0.148353 0.962084 -0.00978746 -0.272576
-0.00620116 0.428021 0.108856 0.0255748 0.99819 0.0544257
0.0257175 -0.17582 0.0193916 -0.863392 0.493287 0.10594
0.0267717 -0.240537 -0.370317 0.962084 -0.00978772 -0.272576
-0.203422 -0.0115471 -0.244281 -0.962084 0.00978738 0.272576
0.139307 -0.0846241 0.168539 -0.962478 0.139816 -0.232566
-0.156155 0.0808637 -0.439641 -0.222382 0.550479 -0.804686
-0.254415 0.00667704 -0.434074 -0.247957 -0.447711 -0.859111
-0.0861456 0.180512 0.16276 -0.962084 0.00978749 0.272576
-0.00667993 -0.241534 0.374728 0.222382 -0.550479 0.804686
0.0430245 0.115574 -0.325738 0.962084 -0.00978767 -0.272576
-0.217186 0.0187706 -0.293952 -0.962085 0.00978655 0.272576
-0.237561 0.0878923 -0.368351 -0.962084 0.0097877 0.272576
-0.00667477 -0.430131 -0.0641048 -0.0255748 -0.99819 -0.0544257
0.145034 -0.212108 0.352931 0.222382 -0.550479 0.804686
0.0113698 0.142332 0.0974159 -0.891888 -0.451266 0.0299248
0.169736 -0.395333 0.210337 0.903857 -0.42662 0.0322078
-0.102032 -0.346908 -0.29379 -0.247957 -0.447711 -0.859112
-0.081614 -0.30838 0.19631 -0.962085 0.00978728 0.272575
-0.0760656 -0.0960669 -0.164476 0.962272 0.154433 0.224015
0.108418 -0.106312 0.435425 0.222382 -0.550479 0.804686
-0.0180569 -0.209042 -0.389873 -0.247957 -0.447711 -0.859111
-0.19826 0.0554268 -0.228468 -0.962084 0.00978874 0.272576
-0.0404634 0.22015 0.109856 -0.121689 -0.91348 -0.388261
0.0421088 0.397419 -0.26589 0.767263 0.421406 -0.483451
-0.0325651 0.343962 0.334173 0.247957 0.447711 0.859111
-0.133354 0.117846 -0.17434 -0.706671 -0.186961 0.682394
0.0488651 0.0503039 0.463705 0.247957 0.447711 0.859111
-0.21389 -0.194929 -0.340707 -0.247957 -0.447711 -0.859111
-0.0680709 0.0678142 0.188941 -0.950215 -0.256786 -0.1765
-0.0976205 0.037277 -0.485635 -0.222382 0.55048 -0.804685
0.0667894 0.184194 -0.0668314 0.716175 -0.696921 -0.0373422
0.215951 -0.0596186 0.43765 0.222382 -0.550479 0.804686
0.150357 -0.154237 0.124653 0.543849 0.472714 -0.693375
-0.16715 -0.204746 -0.109317 -0.962085 0.0097878 0.272576
-0.125845 -0.396317 0.0433486 -0.962084 0.0097877 0.272576
-0.148855 -0.127445 -0.394646 -0.247957 -0.447711 -0.859111
-0.102401 -0.224169 0.119915 -0.962084 0.00978792 0.272576
0.12439 -0.399232 -0.0200657 0.962084 -0.00978771 -0.272576
0.0592849 0.146541 0.410546 0.247957 0.447711 0.859111
-0.149318 -0.363151 -0.0406902 -0.962084 0.0097877 0.272576
0.0281743 0.42024 0.235418 0.025575 0.99819 0.0544261
-0.190226 0.378348 -0.211707 -0.962084 0.0097877 0.272576
-0.11584 -0.0253704 -0.162415 -0.698523 0.132906 0.703137
-0.0722377 -0.428856 -0.0566919 -0.0255748 -0.99819 -0.0544257
0.0136487 0.294004 0.346869 0.247957 0.447711 0.859111
0.119991 -0.214556 0.0245949 0.635148 0.680689 -0.365033
0.130312 0.0885076 0.420289 0.247957 0.447711 0.859111
-0.184538 0.0919969 -0.181347 -0.962084 0.0097877 0.272576
-0.178355 0.14513 -0.389542 -0.222382 0.550479 -0.804686
0.187149 -0.293666 0.285499 0.222382 -0.550479 0.804686
0.0764277 -0.443198 0.136498 -0.0255751 -0.99819 -0.054426
0.0350766 -0.00977727 -0.34929 0.962084 -0.0097877 -0.272576
0.121557 0.432242 -0.0285849 0.0255745 0.99819 0.0544262
-0.216182 -0.129953 -0.285068 -0.962084 0.00978768 0.272576
-0.0640243 0.413058 0.232489 -0.962084 0.0097877 0.272576
0.221567 -0.18983 0.347021 0.222382 -0.550479 0.804686
-0.0721966 0.12997 -0.103653 -0.721915 -0.29889 0.624102
-0.109835 -0.213896 0.00498536 -0.827644 0.511061 0.231995
-0.15691 0.253993 -0.0896481 -0.962084 0.00978775 0.272576
-0.00248681 0.42464 0.169119 0.0255748 0.99819 0.0544257
-0.0354421 -0.256988 -0.35987 -0.247957 -0.447711 -0.859111
0.0465094 0.21341 -0.316951 0.962084 -0.00978765 -0.272576
0.0201562 -0.000352842 -0.402291 0.962084 -0.00978746 -0.272576
0.092453 0.208522 0.368672 0.247957 0.447711 0.859111
0.0492993 -0.139268 0.429218 0.222382 -0.550479 0.804686
-0.13534 -0.426191 -0.0759199 -0.0255748 -0.99819 -0.0544257
-0.163222 -0.0453592 -0.433277 -0.247957 -0.447711 -0.859111
-0.0703707 0.0962893 -0.452796 -0.222382 0.55048 -0.804685
-0.179529 -0.0611501 -0.158167 -0.962084 0.00978756 0.272576
-0.127486 0.438879 -0.0332902 0.0255748 0.99819 0.0544257
0.0217141 -0.0152003 0.241735 -0.27126 0.0700434 -0.959954
0.00509334 0.445414 -0.215432 0.0255747 0.99819 0.0544253
-0.0904703 0.282922 0.143819 -0.962084 0.0097877 0.272576
-0.102921 0.384238 0.0962346 -0.962084 0.0097877 0.272576
0.0965916 -0.221815 -0.0748394 0.727476 0.684021 -0.0538053
0.154055 -0.385102 0.0841321 0.962084 -0.00978771 -0.272576
-0.134241 0.248168 -0.00942702 -0.962084 0.0097877 0.272576
-0.115579 -0.421208 -0.176598 -0.0255748 -0.99819 -0.0544257
0.119688 0.387112 -0.0648981 0.962085 -0.00978767 -0.272576
-0.0605892 -0.0512835 0.261288 -0.962084 0.00978751 0.272576
-0.170662 0.0125699 -0.461318 -0.247957 -0.447711 -0.859111
-0.0144079 0.287909 -0.337176 -0.222382 0.550479 -0.804686
0.0131656 -0.189068 0.405136 0.222382 -0.550479 0.804686
-0.0142665 0.0237956 0.217179 0.694996 -0.00159144 -0.719012
-0.0196286 0.0736671 0.401376 -0.962084 0.0097877 0.272576
0.165472 -0.402744 0.138834 0.887325 -0.46014 -0.0304164
0.1297 0.306659 -0.0266682 0.962085 -0.00978774 -0.272576
-0.0402776 0.0916526 -0.21792 0.246716 -0.383719 0.889883
-0.138554 0.42007 -0.212457 -0.222382 0.550479 -0.804686
0.0130081 0.0560976 -0.429548 0.962084 -0.00978743 -0.272576
-0.220553 0.0782065 -0.307971 -0.962084 0.0097877 0.272576
0.196269 -0.241143 0.318909 0.222381 -0.550479 0.804686
0.236757 -0.0449363 0.363823 0.962084 -0.009788 -0.272576
0.0403946 -0.174829 -0.139132 0.927993 0.361142 0.0916804
-0.00145754 -0.206844 0.124269 -0.127561 0.863653 -0.48768
0.0647823 -0.141465 -0.208185 0.836303 0.422479 0.349442
0.0732467 -0.215487 0.370459 0.222382 -0.550479 0.804686
-0.200385 0.114167 -0.238076 -0.962084 0.0097877 0.272576
-0.122325 0.169163 0.0183163 0.0158241 -0.99688 0.0773266
-0.0804982 0.434663 0.0219546 0.0255748 0.99819 0.0544257
-0.0187381 0.183254 0.0458083 -0.839218 -0.498185 0.218001
0.218933 0.0403269 0.297851 0.962084 -0.00978744 -0.272576
-0.0502396 -0.444034 0.211342 -0.0255748 -0.99819 -0.0544257
-0.200296 0.23386 -0.24206 -0.962084 0.0097877 0.272576
-0.0610657 -0.408063 0.272417 -0.962084 0.00978769 0.272576
-0.11567 0.0346729 -0.168791 -0.695517 -0.0228074 0.718147
0.05329 0.284174 -0.295559 0.962084 -0.00978778 -0.272576
0.0571508 0.0314771 -0.272858 0.962084 -0.00978708 -0.272576
-0.119021 0.168585 -0.139781 -0.727113 -0.302115 0.616468
0.00143988 -0.0161384 -0.181132 -0.695498 0.153058 0.702037
0.0402855 -0.210779 -0.323687 0.962084 -0.00978772 -0.272576
0.0490622 -0.0187733 0.160504 -0.967566 -0.0304379 -0.250778
0.103662 -0.430499 0.214965 0.222382 -0.55048 0.804685
-0.0723268 -0.151798 -0.404042 -0.247957 -0.447711 -0.859111
0.154678 0.197426 0.0843065 0.573225 -0.606244 -0.551254
0.207406 -0.15381 0.264137 0.962084 -0.00978763 -0.272576
0.0624431 0.417135 -0.213408 0.783613 0.456145 -0.421762
0.0441999 0.0908689 0.135186 -0.234279 -0.541392 -0.80747
0.0286114 0.189083 -0.37925 0.962084 -0.00978769 -0.272576
-0.0722875 0.206616 -0.0485176 -0.77286 -0.441636 0.455681
0.16321 0.353314 0.272795 0.247957 0.447711 0.859111
-0.143554 0.167306 -0.0393951 -0.962084 0.00978775 0.272576
-0.196195 0.307079 -0.230216 -0.962084 0.0097877 0.272576
0.0329228 -0.0014753 -0.229397 0.966188 -0.0840614 0.24375
0.027458 -0.426629 -0.144385 -0.0255743 -0.99819 -0.0544269
0.190907 -0.084023 0.203396 0.962084 -0.00978821 -0.272576
-0.112776 0.132779 -0.416115 -0.222382 0.550479 -0.804685
-0.228629 0.177972 -0.340057 -0.962084 0.0097877 0.272576
-0.130789 -0.120747 -0.140078 -0.72758 0.351666 0.589032
0.00345232 -0.0592882 -0.450992 0.695443 -0.0881878 -0.71315
-0.0170355 0.442617 -0.153742 0.0255746 0.99819 0.0544263
-0.142354 0.277002 -0.309278 -0.222382 0.550479 -0.804686
0.139042 0.386155 0.00344925 0.962085 -0.00978771 -0.272576
-0.0877827 -0.209446 -0.369539 -0.247957 -0.447711 -0.859111
0.00704323 0.191735 -0.127583 -0.749687 -0.384139 0.538894
-0.119955 -0.252043 0.0589596 -0.962084 0.00978835 0.272577
0.0445292 -0.0853551 0.157519 -0.959708 0.161495 -0.229956
0.206462 -0.068148 0.257728 0.962085 -0.0097872 -0.272576
-0.127305 0.334526 0.0119536 -0.962084 0.0097877 0.272576
0.035102 0.0511525 0.182413 -0.955524 -0.213455 -0.203499
0.0648218 -0.36471 -0.231556 0.962084 -0.00978763 -0.272576
-0.0737187 0.23975 0.0173767 -0.00628357 -0.999886 0.013725
-0.201627 -0.14563 -0.233132 -0.962084 0.00978768 0.272576
0.00216081 -0.43708 0.0591833 -0.0255748 -0.99819 -0.0544257
-0.0814128 -0.242946 0.194671 -0.962084 0.00978775 0.272576
0.0660898 0.217921 -0.248002 0.962084 -0.00978792 -0.272576
-0.155588 0.387251 -0.0897655 -0.962084 0.0097877 0.272576
0.088135 0.426239 0.0972228 0.0255748 0.99819 0.0544257
-0.100627 0.228062 0.109938 -0.962084 0.00978748 0.272576
-0.116775 -0.317645 0.0725399 -0.962084 0.0097877 0.272576
-0.0698862 0.305188 -0.310024 -0.222382 0.550479 -0.804686
-0.0964794 -0.339889 0.144973 -0.962084 0.00978835 0.272577
-0.163725 -0.350165 -0.0920091 -0.962084 0.0097877 0.272576
-0.0702041 0.0767224 -0.13642 0.237621 -0.456663 0.857318
-0.101138 -0.283742 0.126515 -0.962084 0.00978762 0.272576
0.184425 0.305469 0.166529 0.962085 -0.00978794 -0.272576
-0.0837807 0.371915 0.164235 -0.962084 0.0097877 0.272576
-0.134208 -0.307007 0.0106249 -0.962084 0.0097877 0.272576
-0.0525249 0.358918 0.275022 -0.962085 0.0097879 0.272576
-0.134086 0.191322 -0.370176 -0.222382 0.550479 -0.804686
0.054585 0.424078 0.152611 0.0255748 0.99819 0.0544257
0.128009 -0.32433 0.280866 0.222382 -0.550479 0.804686
0.17303 0.397269 0.123014 0.962084 -0.00978775 -0.272576
0.076553 0.189424 1.76114e-05 -0.826566 -0.49765 0.262932
0.0434287 -0.279961 -0.310109 0.962084 -0.00978762 -0.272576
0.0801647 0.171366 -0.194535 0.186679 -0.704976 0.684222
0.0185994 -0.420994 -0.24357 -0.0255749 -0.99819 -0.0544265
0.232011 0.0819444 0.342515 0.962084 -0.00978807 -0.272576
0.225468 -0.122573 0.326766 0.962084 -0.00978779 -0.272576
-0.195837 -0.257389 -0.208681 -0.962084 0.00978768 0.272576
-0.178767 0.307101 -0.168702 -0.962084 0.0097877 0.272576
-0.0659254 -0.168529 0.246663 -0.962084 0.00978769 0.272576
0.146108 0.251833 0.330616 0.247957 0.447711 0.859111
-0.0916571 0.389739 -0.246166 -0.222382 0.550479 -0.804686
-0.125877 -0.188524 -0.0750558 -0.776642 0.477542 0.41083
0.178714 0.180938 0.358151 0.247957 0.447711 0.859111
-0.0527032 -0.350526 0.299867 -0.962084 0.00978769 0.272576
-0.0318095 0.0115214 0.360613 -0.962084 0.00978802 0.272576
0.0618563 0.206803 0.0909665 0.750476 -0.425609 -0.505611
-0.0502714 -0.415255 -0.273112 -0.247956 -0.447712 -0.859111
-0.0485965 0.0851288 0.298719 -0.962084 0.0097877 0.272576
-0.0619799 0.188158 -0.392268 -0.222382 0.550479 -0.804686
0.0942282 -0.258621 -0.131573 0.962085 -0.00978774 -0.272576
0.0785659 0.343642 -0.208481 0.962084 -0.00978768 -0.272576
-0.110049 -0.416032 -0.255454 -0.247956 -0.447712 -0.859111
-0.0343647 -0.370312 -0.301124 -0.247956 -0.447711 -0.859111
-0.167628 0.439622 -0.134144 -0.962084 0.0097877 0.272576
-0.012212 -0.229074 -0.016309 -0.832709 0.510843 0.213626
0.0319566 -0.0754247 -0.357945 0.962084 -0.00978752 -0.272576
0.231727 0.001737 0.422293 0.968389 -0.012564 0.249129
0.0986527 -0.262582 0.33122 0.222382 -0.550479 0.804686
-0.206137 0.256881 -0.305416 -0.222382 0.550479 -0.804686
-0.159478 0.325333 -0.101276 -0.962085 0.00978741 0.272576
0.0609121 0.146094 -0.263698 0.962084 -0.0097878 -0.272576
-0.100978 -0.077744 -0.434365 -0.247957 -0.447711 -0.859111
-0.151431 -0.2575 -0.0519432 -0.962084 0.00978768 0.272576
0.0843553 0.198884 -0.130173 0.764005 -0.632898 0.125445
0.102821 -0.159933 0.40029 0.222382 -0.550479 0.804686
-0.0196561 0.030381 -0.476452 0.697558 0.0272837 -0.716009
0.15873 0.41326 0.242848 0.247957 0.447711 0.859111
0.106494 0.0289458 0.458203 0.247957 0.447711 0.859111
-0.0071142 -0.233087 0.0560699 -0.050581 0.975618 -0.213566
0.157944 -0.320585 0.0955417 0.962084 -0.00978781 -0.272576
0.160391 -0.0104589 0.463182 0.247957 0.447711 0.859112
0.0759366 -0.231241 -0.0069581 0.846328 0.492815 -0.202144
-0.0100433 0.0467012 -0.196521 -0.695031 -0.0457356 0.717524
0.0714876 0.270999 -0.230856 0.962084 -0.00978779 -0.272576
-0.0179084 -0.133785 0.414896 -0.962084 0.00978769 0.272576
-0.0748231 -0.433039 0.0212444 -0.0255748 -0.99819 -0.0544257
0.00990109 0.433096 0.00821019 0.0255748 0.99819 0.0544257
0.17625 -0.156543 0.382316 0.222382 -0.550479 0.804686
0.0140119 0.372717 0.305745 0.247957 0.447711 0.859111
-0.0753052 -0.158952 -0.0356121 0.0960905 0.947448 0.305137
0.135738 -0.443566 0.115362 -0.0255745 -0.99819 -0.0544252
-0.112925 0.276391 0.0647957 -0.962084 0.0097877 0.272576
0.120863 0.0584731 0.206481 -0.267484 -0.259721 -0.927899
-0.170309 0.0234734 -0.180946 0.962748 -0.135655 0.233912
0.164302 0.269755 0.0967864 0.962084 -0.00978768 -0.272576
-0.185263 -0.351296 -0.267481 -0.247957 -0.447711 -0.859111
-0.0433502 -0.271731 0.33005 -0.962084 0.00978769 0.272576
-0.204935 -0.400106 -0.235671 -0.962084 0.00978768 0.272576
0.0267997 -0.364482 -0.303921 0.74435 -0.406991 -0.529435
0.0449775 0.437948 -0.0972596 0.0255751 0.99819 0.0544249
-0.024922 -0.0802183 0.388218 -0.962084 0.00978769 0.272576
-0.0676968 0.428506 0.128855 0.0255748 0.99819 0.0544257
-0.0840203 0.44592 -0.182853 0.0255747 0.99819 0.0544257
0.108548 -0.283966 -0.0801204 0.962084 -0.00978765 -0.272576
0.0713446 -0.123271 0.121851 0.748867 0.392849 -0.53373
-0.144177 0.307804 -0.0466369 -0.962084 0.0097877 0.272576
-0.088 -0.189129 0.169401 -0.921855 0.374787 -0.0985782
-0.17691 -0.2832 -0.140951 -0.962085 0.00978826 0.272575
0.173945 -0.333748 0.152494 0.962084 -0.00978785 -0.272576
0.0353613 0.270102 -0.358335 0.962085 -0.00978755 -0.272576
0.0737398 0.271932 0.341029 0.247957 0.447711 0.859111
-0.06652 -0.302102 0.249361 -0.962084 0.00978769 0.272576
0.00791269 -0.415282 0.251836 0.222382 -0.550479 0.804686
0.0977231 -0.33418 -0.116524 0.962085 -0.00978772 -0.272576
0.0904172 -0.407955 -0.139662 0.962084 -0.00978761 -0.272576
0.107198 -0.38363 -0.081306 0.962084 -0.00978771 -0.272576
-0.0308113 0.169908 -0.010728 -0.795435 -0.479807 0.370227
-0.0287516 0.179453 0.159043 0.721393 -0.336213 -0.605436
-0.204634 0.177111 -0.255336 -0.962084 0.0097877 0.272576
0.209155 0.287894 0.254449 0.962085 -0.00978828 -0.272575
-0.157363 -0.276202 -0.314668 -0.247957 -0.447711 -0.859111
-0.0613457 -0.108472 0.260671 -0.962084 0.009787 0.272576
0.125292 -0.0290224 0.211154 -0.269411 0.12181 -0.95529
0.0176059 -0.168435 -0.0439557 -0.816336 0.512246 0.266832
0.197304 0.26523 0.308858 0.247957 0.447711 0.859111
-0.150912 -0.218452 -0.346625 -0.247957 -0.447711 -0.859111
0.141302 -0.28373 0.0354801 0.962084 -0.00978802 -0.272577
-0.07043 -0.0283724 -0.208089 0.96687 -0.0400218 0.252113
0.151786 0.346157 0.0498679 0.962084 -0.00978762 -0.272576
-0.0416021 -0.426236 -0.119132 -0.0255748 -0.99819 -0.0544257
0.193477 0.171936 0.203275 0.962084 -0.00978765 -0.272576
0.0350656 -0.0586119 0.209938 -0.966101 0.0864195 -0.24327
-0.184967 -0.152309 -0.174089 -0.962084 0.00978768 0.272576
0.0731537 0.163427 0.135337 0.723856 -0.331615 -0.605032
0.190821 -0.30121 0.21089 0.962085 -0.00978753 -0.272576
0.0491598 -0.436073 0.0186283 -0.0255742 -0.99819 -0.0544254
-0.0157064 -0.0032816 0.417982 -0.962084 0.00978802 0.272576
-0.0606657 0.215813 0.251427 -0.962084 0.0097877 0.272576
0.152272 0.423566 0.0528613 0.863247 0.487765 -0.129959
0.070042 0.431198 0.0147644 0.0255748 0.99819 0.0544257
0.121327 -0.334786 -0.0331902 0.962084 -0.0097877 -0.272576
0.0272733 -0.159161 0.145138 -0.933493 0.331193 -0.137484
0.0485564 -0.0841477 0.46713 0.222382 -0.550479 0.804686
0.116774 0.30392 0.311938 0.247957 0.447711 0.859111
-0.200281 -0.0761296 -0.230878 -0.962084 0.00978768 0.272576
-0.232259 -0.0368023 -0.345159 -0.962084 0.00978768 0.272576
0.0393694 -0.446289 0.210599 -0.0255748 -0.99819 -0.0544258
-0.216203 -0.058108 -0.28772 -0.962084 0.00978768 0.272576
-0.00682374 -0.127473 0.182226 0.735197 0.335083 -0.589241
-0.0567392 -0.042633 -0.46543 -0.247957 -0.447711 -0.859111
0.0687303 0.406646 0.27227 0.247957 0.447711 0.859111
0.119443 0.145165 0.101651 0.549132 -0.541618 -0.636478
0.127469 -0.259423 -0.0142189 0.962084 -0.0097877 -0.272576
-0.0275187 0.247032 0.367301 -0.962084 0.0097877 0.272576
0.0543892 0.327247 0.317787 0.247957 0.447711 0.859111
0.00315608 -0.129872 -0.123192 -0.752619 0.435675 0.493713
0.0117955 0.137519 0.159531 -0.927096 -0.364644 -0.0867598
0.0948073 0.330555 -0.150685 0.962084 -0.00978768 -0.272576
0.0355455 -0.271216 0.342754 0.222382 -0.550479 0.804686
-0.0129717 0.15424 0.421978 -0.962084 0.0097877 0.272576
-0.178807 0.170679 -0.163945 -0.962084 0.0097877 0.272576
0.226784 -0.128594 0.387471 0.222381 -0.55048 0.804685
-0.0525944 -0.204365 -0.077169 0.906281 0.42253 0.0110597
0.046865 0.0899516 -0.212848 0.944754 -0.276688 0.175736
-0.0343847 -0.115309 -0.434009 -0.247957 -0.447711 -0.859111
-0.0598201 -0.245715 0.270984 -0.962084 0.00978769 0.272576
0.180802 0.128165 0.38505 0.247957 0.447711 0.859111
-0.0152202 0.419265 0.273688 0.025575 0.99819 0.0544261
0.198216 -0.225543 0.234274 0.962084 -0.00978821 -0.272576
0.101941 0.386126 -0.127503 0.962085 -0.00978765 -0.272576
0.157819 -0.254313 0.0927222 0.962084 -0.00978773 -0.272576
-0.117751 0.442394 -0.102328 0.0255748 0.99819 0.0544257
-0.0495967 -0.199434 0.305407 -0.962084 0.00978769 0.272576
-0.0641728 -0.0877162 0.203986 -0.960593 0.158803 -0.22813
-0.176483 0.216697 -0.341101 -0.222382 0.550479 -0.804686
0.0122968 0.116603 0.213387 -0.945591 -0.286365 -0.154446
0.0150045 -0.152356 -0.415017 0.962084 -0.00978753 -0.272576
