ply
format ascii 1.0
comment Created by Open3D
element vertex 400
property double x
property double y
property double z
property double nx
property double ny
property double nz
end_header
-0.209359 0.314046 -0.192956 0.00842572 0.107488 0.994171
0.0399371 0.177121 -0.520594 0.858594 -0.508187 0.0675432
-0.030118 -0.0822388 0.218562 -0.0460906 -0.331045 0.942488
-0.031876 -0.113918 -0.0442789 -0.324137 -0.863905 -0.385492
-0.0673856 0.38458 -0.362319 -0.401719 0.504075 -0.764546
-0.205281 0.309537 -0.336121 -0.0158969 -0.138409 -0.990248
-0.345749 0.31784 -0.2223 -0.326 -0.0771421 0.942217
-0.269016 0.422345 -0.216262 -0.0333486 0.21773 0.975439
-0.0403901 0.0774782 -0.25975 0.558458 -0.568794 -0.60382
-0.113467 0.363296 -0.349171 -0.366215 0.516457 -0.774054
0.0223035 -0.183694 0.16528 -0.662937 -0.720376 -0.203895
0.000957464 0.142992 -0.376976 0.844757 -0.523829 0.109492
0.10966 -0.31104 0.280148 0.102238 -0.856702 0.505579
0.0653037 0.248009 -0.496941 0.915349 -0.0401665 -0.400652
0.26089 -0.207815 0.277685 0.205126 0.448106 -0.870129
0.0890135 -0.193094 0.0955295 -0.183537 0.0411279 -0.982152
0.00177526 0.207712 -0.271316 0.971038 0.174317 0.163397
-0.205667 0.0936363 -0.162623 -0.910443 -0.306956 0.277258
-0.266677 0.0287805 -0.436593 -0.0994617 -0.958543 0.267024
-0.0652708 -0.119004 0.0824286 -0.699912 0.0878723 -0.708803
-0.180566 0.0563133 -0.301656 -0.216035 -0.972457 0.0874996
0.0352289 0.174923 -0.474692 0.890476 -0.450248 0.065802
-0.154342 0.160949 -0.318961 -0.36364 0.502433 -0.784427
0.194946 -0.126111 0.3591 -0.13933 0.863984 -0.483858
0.110667 0.00211592 0.162705 -0.117081 0.858986 -0.498433
-0.397976 0.114144 -0.355364 -0.357618 -0.736635 0.574002
0.0413544 0.202165 -0.442556 0.917045 -0.366358 0.157516
-0.208946 0.137504 -0.315754 0.342624 0.870316 0.353778
0.0822333 0.0233843 0.126299 -0.171031 0.868672 -0.464928
-0.15779 0.291026 -0.18538 0.0603984 0.276554 0.959098
-0.0983787 0.201024 -0.400568 -0.547683 0.484518 0.682119
-0.318233 0.176119 -0.380784 -0.361918 0.503196 -0.784735
0.00211613 -0.141029 0.0793758 -0.490813 -0.826643 -0.275253
-0.019826 0.0972246 0.0212428 -0.0707838 0.823832 0.562397
0.019232 0.0875696 0.0879786 -0.319451 0.857962 -0.40231
0.146803 -0.0325743 0.159904 0.708326 -0.152004 0.689325
-0.366113 0.211931 -0.33271 -0.366522 0.505455 -0.781138
-0.0378649 0.0851263 -0.536046 0.62618 -0.777597 0.0569368
0.10584 0.0475504 0.0749078 -0.010583 0.820244 -0.571916
-0.188051 0.165902 -0.131688 -0.755443 0.258295 0.602154
0.0689217 -0.0642438 -0.0633185 -0.0530177 0.221413 -0.973738
0.011069 0.0482168 0.147207 0.219919 0.018233 0.975348
-0.345163 0.265228 -0.229443 -0.349835 -0.204431 0.914234
0.124622 -0.337211 0.31955 0.142848 -0.887587 0.437932
0.0453149 -0.153128 0.377627 -0.727733 0.565146 -0.388606
0.13568 -0.244987 0.417072 0.34006 -0.499954 0.796495
-0.0424193 0.310524 -0.245028 0.634753 0.280733 0.719915
-0.09318 0.0223659 0.0265826 -0.792825 0.420115 -0.441511
0.142229 0.00543997 0.113728 0.741718 -0.153756 0.65285
-0.119337 0.369944 -0.221627 0.35656 0.306169 0.882681
0.215491 -0.279978 0.249299 -0.0602873 0.198684 -0.978208
-0.29665 0.0865322 -0.313139 -0.360711 -0.776046 0.51734
-0.311248 0.346448 -0.212003 -0.338601 0.085539 0.937034
0.214357 -0.28757 0.354709 0.351842 -0.503689 0.788989
-0.302362 0.216046 -0.360486 -0.356801 0.503196 -0.787075
0.0318356 0.36473 -0.356454 0.852413 0.120852 0.50871
-0.296779 0.312505 -0.299122 -0.339223 0.495326 -0.799738
-0.236091 0.0795969 -0.276058 -0.335248 -0.817192 0.468834
0.222841 -0.160012 0.196639 0.233885 0.42503 -0.874441
0.154448 -0.0634923 0.3055 -0.185708 0.862342 -0.471039
-0.0974891 -0.0515859 -0.101623 0.0045349 -0.822677 0.568491
-0.0848323 0.258944 -0.431027 -0.344889 0.496692 -0.79646
-0.0612413 -0.0805571 -0.0801475 -0.490601 -0.00759221 -0.871351
0.229106 -0.184471 0.413856 0.349102 -0.498614 0.793418
-0.0819728 0.0661441 -0.348046 0.452515 -0.891721 -0.00797554
-0.0879398 0.420073 -0.326873 -0.318586 0.492458 -0.809931
0.026131 -0.186268 0.0793181 0.132572 -0.86526 0.483477
0.257223 -0.269455 0.318389 0.847001 -0.515257 0.130766
0.188637 -0.158301 0.432088 0.364869 0.238042 0.900115
0.205033 -0.0996096 0.316669 -0.0247949 0.835431 -0.549036
-0.0473967 0.124013 -0.0162701 0.291139 0.0212245 0.956445
0.0170503 0.121283 -0.178305 0.151472 0.613191 -0.775276
0.0719024 -0.259085 0.351972 -0.779004 0.130003 -0.613394
0.011407 -0.221733 0.247854 -0.155706 -0.666059 0.729467
0.0606691 -0.126121 -0.0220985 0.45243 -0.843538 0.289396
-0.110693 -0.0589351 -0.0482452 -0.703413 0.03915 -0.709702
0.13791 -0.103443 0.0247726 0.749225 -0.30859 -0.586032
-0.139418 0.162181 -0.404258 -0.581436 0.52554 0.62108
-0.387035 0.0815285 -0.393161 -0.789372 -0.613076 -0.0320907
-0.208634 0.427032 -0.268086 -0.380974 0.497877 -0.779088
0.0370504 0.135964 -0.216416 0.928099 0.194892 -0.317253
0.0806367 -0.112236 0.0150727 -0.0202336 0.165795 -0.985953
-0.0767671 -0.0141775 -0.209636 0.275055 -0.869864 0.40949
0.0170917 0.048034 -0.171819 0.749305 -0.422155 -0.510223
-0.134711 0.0513074 -0.324226 0.00546754 -0.99865 -0.0516646
0.00621184 0.0205177 0.179452 -0.480547 0.77894 -0.402898
-0.397913 0.200499 -0.281844 -0.452171 -0.433514 0.779492
-0.166006 0.0596268 -0.123291 -0.174053 -0.503946 0.846017
-0.132625 0.400648 -0.318429 -0.375137 0.501056 -0.779881
-0.16344 0.0799142 -0.509396 -0.432076 0.532659 -0.727726
-0.188538 0.0535306 -0.190196 -0.110679 -0.690259 0.715047
-0.0391513 -0.067219 0.135091 -0.925516 0.0241917 0.377936
0.0165827 0.158731 -0.257834 0.934923 0.14032 -0.325928
-0.220097 0.0238344 -0.520867 -0.352334 0.503524 -0.788876
0.01256 0.251206 -0.482022 -0.406745 0.501334 -0.76369
-0.107372 0.0924589 -0.526528 -0.348524 0.497793 -0.794187
0.0396644 0.104136 -0.074875 0.8493 0.527392 0.023403
-0.238435 0.456729 -0.237689 -0.363119 0.506235 -0.782222
-0.214925 0.0700442 -0.494389 -0.383986 0.513073 -0.767666
-0.0683908 0.0275651 -0.216359 -0.163565 -0.00415413 -0.986524
-0.0202241 0.266274 -0.2522 0.795554 0.209254 0.568601
0.203642 -0.161507 0.150534 0.845339 -0.201274 -0.494864
-0.0304959 -0.149594 0.0497701 -0.544987 0.0676825 -0.835708
-0.0444038 0.0202908 0.145222 -0.585053 0.708176 -0.395221
0.259509 -0.177934 0.361693 0.114468 0.730345 -0.67342
-0.130939 -0.0179582 -0.125368 -0.0261669 -0.795226 0.605748
-0.144894 0.115987 -0.497272 -0.345115 0.50503 -0.791101
-0.332652 0.343931 -0.263145 -0.296774 0.502539 -0.812022
-0.226145 0.345126 -0.311309 -0.371759 0.518755 -0.769862
0.104038 -0.150757 0.396987 -0.591591 0.716444 -0.369769
0.0141448 -0.131747 0.253292 -0.896955 0.0342997 0.44079
-0.0415169 0.238084 -0.464862 -0.386139 0.503765 -0.772733
0.0487973 0.0520199 0.0996312 -0.231687 0.861976 -0.450909
-0.108455 0.113552 -0.0505894 0.0191587 -0.121825 0.992367
-0.0915223 0.0420255 -0.297898 0.0929302 -0.781536 -0.6169
-0.144573 0.20512 -0.149927 -0.51164 0.728133 -0.456121
0.0599567 0.367637 -0.41079 0.901248 0.42492 -0.0848222
-0.0492327 0.409532 -0.276716 0.608616 0.290887 0.738222
-0.19416 0.175093 -0.425319 -0.165892 0.966621 -0.195252
-0.266484 0.233765 -0.200005 -0.352306 -0.159216 0.922242
0.0827681 -0.275314 0.400345 -0.750577 0.211641 -0.625972
-0.361021 0.15065 -0.292617 -0.481871 -0.539126 0.690756
0.0569104 0.111479 -0.0308543 0.713051 -0.108232 0.692708
-0.13982 0.0229534 -0.0880972 -0.207492 -0.568889 0.79581
-0.0403285 -0.0908551 0.00476487 -0.543551 0.011628 -0.839296
-0.326369 0.0356957 -0.443533 -0.606228 -0.762323 -0.226607
0.0676962 0.0458581 -0.0722387 0.785553 -0.409742 0.4637
-0.0126089 0.209422 -0.21856 0.098007 0.741486 -0.663772
-0.14723 0.156109 -0.115805 -0.718825 0.589395 -0.368653
0.0942369 -0.227613 0.182397 -0.321396 0.0172025 -0.946789
0.0152743 0.0346643 -0.21886 0.658862 -0.459118 -0.595912
-0.261718 0.358955 -0.205608 -0.126912 0.141854 0.981718
-0.150778 0.289665 -0.30469 -0.397933 -0.839188 -0.370694
0.039552 0.266184 -0.375576 0.920282 -0.171957 0.351444
0.125513 -0.205997 0.445968 0.349529 -0.502764 0.790606
0.042684 -0.224191 0.179828 0.057983 -0.846343 0.529472
-0.0340921 0.0950501 -0.448952 0.65518 -0.753409 0.0558036
-0.0493419 0.0273662 -0.263276 -0.230505 0.104329 -0.967462
0.0719431 -0.308174 0.343003 -0.636713 0.0695858 -0.767955
-0.26438 0.362144 -0.282798 -0.38657 0.529811 -0.754893
0.0318334 0.311602 -0.452448 -0.358544 0.502419 -0.786779
-0.351201 0.297765 -0.28714 -0.379023 0.498865 -0.779407
-0.0775994 0.0649854 -0.431991 0.53702 -0.843168 0.0260458
-0.128094 0.0369647 0.0153789 -0.88653 0.0891351 0.454003
-0.0151786 0.157581 -0.0788834 0.548872 -0.0290197 0.835402
-0.211345 0.186025 -0.173333 -0.774681 0.289149 0.562372
0.051264 -0.0198094 -0.135255 0.556906 -0.706565 0.436601
-0.102367 0.152797 -0.489552 -0.369742 0.527116 -0.76514
0.0688856 -0.0635267 0.264414 -0.270088 0.724436 0.634227
0.0063062 0.210591 -0.505999 -0.36496 0.514461 -0.775973
-0.296847 0.0438752 -0.404184 -0.167569 -0.932856 0.318903
-0.292753 0.0206388 -0.469653 -0.525758 -0.785537 -0.326359
0.23363 -0.303869 0.287853 0.620782 -0.768496 0.155059
-0.0574937 0.180224 -0.105327 0.456376 -0.00543008 0.88977
-0.061901 0.144788 -0.0566935 0.320979 -0.00674274 0.947062
-0.246349 0.30435 -0.328541 -0.36007 0.502019 -0.786338
-0.0909252 0.206045 -0.136976 0.415849 -0.0371882 0.908673
-0.31836 0.0708472 -0.352013 -0.338212 -0.816816 0.467359
-0.228284 0.165809 -0.360268 0.948025 0.244089 -0.204129
-0.163454 0.0365742 -0.537109 -0.34978 0.497906 -0.793564
0.0806807 -0.136599 0.348674 -0.694282 0.623847 -0.35887
0.0280096 -0.159393 0.288878 -0.157408 -0.334103 0.9293
-0.275713 0.137167 -0.243174 -0.459043 -0.568952 0.682329
0.0753458 -0.0976328 0.309103 -0.55278 0.72994 -0.402023
-0.0581527 0.198912 -0.482024 -0.354829 0.503388 -0.787844
-0.00271589 0.159798 -0.220507 0.783367 -0.331955 0.525493
0.138397 -0.14442 0.0675089 0.612822 -0.708818 0.349322
0.0307912 -0.253788 0.273901 -0.765437 -0.641671 -0.048628
0.14253 -0.0122195 0.216432 -0.140379 0.86576 -0.480369
0.0215678 -0.151959 0.338062 -0.00208275 -0.354904 0.9349
-0.124975 0.047689 -0.379414 0.222222 -0.963958 0.146297
-0.0553651 -0.0250358 -0.131697 -0.288113 -0.000792663 -0.957596
-0.0845278 -0.0377763 -0.164378 -0.265243 -0.873819 -0.407537
-0.0463542 0.259825 -0.214874 0.632039 0.628248 0.453686
-0.00851459 0.118944 -0.251795 0.75123 -0.542191 0.376407
-0.129682 0.322649 -0.202185 0.233227 0.313826 0.92039
-0.0712348 0.130088 -0.518692 -0.347891 0.497651 -0.794553
-0.0833054 0.263317 -0.307278 -0.428938 -0.821502 -0.375696
-0.0070088 0.11723 -0.497807 0.757029 -0.653006 -0.0221365
-0.0584065 0.311287 -0.411176 -0.317703 0.4632 -0.827352
0.0138489 -0.203525 0.123692 -0.503127 0.0809986 -0.860408
-0.0671354 -0.0643997 -0.0398552 0.0138221 -0.817289 0.576063
0.0873216 0.0355473 -0.0211411 0.776363 -0.307563 0.55015
0.0442571 -0.254079 0.387031 -0.678078 0.322098 -0.660653
-0.188802 0.248098 -0.177493 -0.230366 0.178629 0.956568
0.0101119 0.141282 -0.453533 0.820865 -0.565193 0.0820898
0.0106192 0.340033 -0.320723 0.854062 0.0824702 0.513593
0.0479951 0.0382817 -0.123357 0.15483 0.426827 -0.890981
0.156524 -0.0529277 0.0606222 0.719314 -0.441437 0.536397
-0.180503 0.113666 -0.109452 -0.75414 0.412121 -0.511301
-0.100646 0.131342 -0.012223 -0.566353 0.714154 -0.411375
0.0661415 0.101707 0.0197771 0.633409 -0.1085 0.766173
0.171428 -0.265242 0.209903 -0.153539 0.174314 -0.972646
-0.0028966 -0.209092 0.192512 -0.745726 -0.66443 -0.0492467
0.194957 -0.06178 0.159805 0.914946 0.377449 -0.14285
-0.130896 0.221175 -0.293552 -0.412279 0.501814 -0.7604
-0.357276 0.144396 -0.381111 -0.339138 0.489554 -0.80332
0.00511606 0.129504 -0.53961 0.672124 -0.394513 -0.626585
-0.394496 0.305977 -0.243507 -0.831695 0.229202 0.505718
0.108227 -0.0674502 0.332163 -0.40663 0.826254 -0.389816
-0.118821 0.253894 -0.165903 -0.112612 0.773109 0.624197
-0.27284 0.143726 -0.418288 -0.44908 0.456385 -0.768141
-0.207994 0.024802 -0.450706 0.090562 -0.981998 0.165767
-0.254111 0.40881 -0.257092 -0.331201 0.490021 -0.806341
0.142772 -0.0115895 0.0171739 0.946984 0.172646 -0.27095
-0.0818084 0.305522 -0.214305 0.367235 0.306173 0.878292
-0.259382 0.257857 -0.35086 0.275003 0.355265 -0.893398
-0.10232 -0.0715821 0.000159282 -0.668102 0.0814453 -0.739599
0.10397 -0.0394084 0.291726 -0.0411784 0.804503 0.592519
-0.219128 0.0931521 -0.215091 -0.854565 -0.48282 0.191321
-0.0931514 0.330771 -0.38172 -0.382128 0.519286 -0.764409
-0.0749033 0.352553 -0.236404 0.50244 0.28066 0.817792
-0.354692 0.0569493 -0.408144 -0.390353 -0.824824 0.409011
0.0268131 0.125118 -0.129272 0.734842 -0.281838 0.616907
-0.0760018 0.214022 -0.322602 -0.387169 0.540243 -0.747153
0.072422 -0.198382 0.382965 -0.767278 0.462503 -0.444269
-0.177003 0.151046 -0.376267 0.368643 0.877033 0.308082
0.137017 -0.321346 0.368614 -0.0964881 -0.931682 0.350226
-0.184295 0.0553412 -0.246424 -0.0483806 -0.784394 0.618373
0.0346055 -0.204622 0.346154 -0.825556 0.309759 -0.471707
0.186593 -0.225802 0.406832 0.414448 -0.519574 0.747178
-0.0209582 0.169611 -0.518341 -0.347809 0.507777 -0.788157
-0.169285 0.424808 -0.288678 -0.357496 0.502223 -0.787381
0.0923936 0.083748 -0.0139599 0.810392 0.585851 0.00654431
0.0300969 -0.123017 0.0149676 0.265686 -0.871119 0.412992
-0.244944 0.190429 -0.401798 0.254807 0.838196 -0.482183
-0.141657 0.128023 -0.359824 0.371719 0.826336 0.423076
-0.299506 0.381941 -0.253715 -0.359173 0.502038 -0.786735
-0.00816411 0.349319 -0.409473 -0.332814 0.494624 -0.802858
-0.111661 0.00828039 -0.0389831 -0.940481 -0.303497 0.152923
0.00166658 0.172561 -0.121802 0.0633096 0.830787 -0.552979
0.0712593 0.0950479 -0.120818 0.755869 -0.328266 0.566484
0.152952 -0.118881 0.396358 -0.407925 0.842519 -0.351793
-0.198983 0.215279 -0.263869 -0.34579 0.500333 -0.793786
-0.0561779 0.0406621 0.0873915 -0.689889 0.628899 -0.358523
-0.380626 0.257775 -0.296264 -0.281832 0.500538 -0.818555
-0.0119472 0.119683 -0.410592 0.733274 -0.653259 0.188578
-0.161173 0.401063 -0.219233 0.251552 0.335433 0.907858
-0.0754446 -0.104726 0.0328976 -0.699244 0.0769187 -0.710733
0.015017 0.428803 -0.368967 0.727599 0.680477 0.0868888
-0.0919972 -0.0134919 0.0935413 -0.919534 0.149083 0.363638
-0.0204139 0.00463539 -0.215115 0.440263 -0.807229 0.393128
-0.103266 0.0462277 -0.546919 0.273071 -0.733898 -0.621954
-0.229314 0.153598 -0.433176 -0.360616 0.502161 -0.785997
0.00736254 0.190402 -0.171137 0.0606253 0.787061 -0.613889
-0.112098 0.433238 -0.249831 0.418047 0.318055 0.850928
-0.101301 0.011892 -0.25147 -0.126846 -0.862381 -0.490111
0.0146515 0.269354 -0.313831 0.902732 -0.00110203 0.430203
0.203623 -0.122626 0.275109 0.754968 -0.194221 0.62634
0.169531 -0.292117 0.372342 0.434904 -0.5204 0.734876
0.174321 -0.148097 0.102107 0.755401 -0.261875 -0.600658
-0.301351 0.248977 -0.211752 -0.341994 -0.139875 0.929233
0.141251 -0.186292 0.0969783 0.51267 -0.602831 -0.611362
-0.119024 -0.0229335 0.0355809 -0.947561 -0.165406 0.27344
0.215401 -0.197218 0.227864 0.147516 0.365395 -0.91909
0.0260602 -0.160047 0.0368779 0.243562 -0.861044 0.446409
-0.392696 0.16805 -0.346424 -0.417531 0.509923 -0.752095
0.0850616 -0.233388 0.42201 -0.778903 0.411286 -0.473449
-0.0228496 0.214944 -0.13055 0.438871 0.849381 0.293163
0.0799937 0.093146 -0.0752612 0.115019 0.699492 -0.705323
-0.150312 0.0262351 -0.208653 -0.00844952 -0.812012 0.583579
-0.0733861 0.0601279 0.0434606 -0.640174 0.607551 -0.47017
-0.0863145 -0.0579272 0.0524808 -0.762259 0.222439 -0.607851
-0.0422202 0.46195 -0.309389 0.489256 0.820302 0.296197
0.0394859 0.150758 -0.0661163 0.640081 -0.0798502 0.764146
0.00876403 -0.00340756 -0.15787 0.551824 -0.767084 0.327219
-0.0202636 0.360585 -0.284165 0.661775 0.242444 0.709419
-0.298667 0.0658819 -0.457253 -0.399607 0.531083 -0.747171
-0.0411515 -0.00889526 -0.177934 -0.145845 0.0566223 -0.987686
-0.0519715 0.0779486 -0.488672 0.624206 -0.780466 0.0352179
-0.102259 0.278315 -0.386488 -0.934921 -0.268283 0.232266
0.0315302 0.0716862 0.0479538 0.286104 0.860625 0.42127
-0.325859 0.246084 -0.330633 -0.40148 0.525157 -0.750349
-0.0581144 0.235039 -0.170133 -0.191381 0.871963 -0.450614
0.011745 0.0901207 -0.215202 0.713809 -0.57499 0.399829
0.00787716 -0.0572715 0.228477 0.0695902 -0.151818 0.985956
-0.154025 0.113027 -0.0615412 -0.75464 0.503894 -0.42025
-0.358933 0.102014 -0.336829 -0.407197 -0.7211 0.560541
-0.00939758 -0.177629 0.267828 -0.792572 0.253448 -0.554611
-0.0104369 0.0538281 0.106491 0.196132 -0.0210156 0.980352
-0.199998 0.134416 -0.182775 -0.35609 -0.4012 0.843942
0.254781 -0.162433 0.310741 0.0896675 0.692891 -0.715445
-0.06749 -0.0200737 0.131655 -0.785811 0.511541 -0.347601
-0.176786 0.0252498 -0.482975 0.204991 -0.971277 0.120832
0.0293665 -0.0697949 -0.104838 0.358144 -0.693939 -0.624646
-0.010812 -0.0799922 -0.0778833 0.308981 -0.858195 0.409918
-0.228507 0.257914 -0.188213 -0.181325 0.00641888 0.983402
0.132237 -0.0923534 0.0726163 0.833226 -0.114614 -0.540924
-0.0389727 0.0978718 0.068179 -0.281684 0.73614 0.615428
-0.108992 0.46821 -0.286638 -0.356297 0.501424 -0.788433
0.124045 -0.00658162 -0.0275055 0.924295 0.0404166 -0.379534
0.252364 -0.162753 0.256711 0.92829 0.209582 -0.307169
-0.251141 0.175688 -0.208768 -0.428708 -0.306209 0.849968
0.0228714 -0.108189 0.305037 -0.0805317 -0.186814 0.979089
-0.00165638 0.134462 -0.0375613 0.570934 -0.0333583 0.820318
-0.300575 0.182525 -0.233259 -0.417785 -0.468368 0.778516
-0.162335 0.258223 -0.25672 0.557392 -0.562731 -0.610448
0.236256 -0.226404 0.384005 0.402496 -0.510057 0.760157
-0.203458 0.378155 -0.205174 0.0616025 0.258136 0.964143
-0.231887 0.218629 -0.307144 0.9557 0.226903 -0.187492
0.08903 -0.0111332 -0.0907714 0.0912337 0.390649 -0.916007
0.0960878 0.0720025 0.0374374 0.0149276 0.80664 -0.590854
0.0885959 -0.26679 0.278316 -0.503427 -0.814377 -0.288706
0.192449 -0.113128 0.130674 0.749094 -0.472913 0.463909
0.0269764 -0.042712 0.266028 -0.476215 0.603262 0.639761
0.0158432 0.206304 -0.332315 0.947574 -0.209343 0.241411
-0.162123 0.0163329 -0.164812 -0.70915 -0.704348 -0.03163
0.175554 -0.0429691 0.193901 0.721854 -0.151007 0.675369
0.12593 0.00119878 0.0610172 0.857238 -0.193649 0.477119
-0.255673 0.0594853 -0.340839 -0.258368 -0.887191 0.382281
-0.0278455 -0.0424741 0.186912 -0.028718 -0.208609 0.977577
0.109247 -0.0190689 0.248711 0.442566 -0.00214945 0.896733
-0.420672 0.236893 -0.285047 -0.944501 0.000237342 0.32851
-0.211262 0.26339 -0.30547 0.553437 -0.509003 -0.65926
0.00592403 -0.0960294 -0.0236324 0.197259 -0.870121 0.451639
-0.0257069 -0.163026 0.112909 -0.0888367 -0.737921 0.669015
-0.104211 0.0448147 -0.497903 0.482344 -0.875056 0.040251
0.158043 -0.0843128 0.118961 0.774054 -0.41464 0.478449
-0.247694 0.101381 -0.453729 -0.319582 0.500037 -0.804879
0.242184 -0.137733 0.357752 0.731244 -0.117477 0.671924
0.0703616 -0.204409 0.143879 -0.337557 0.0116009 -0.941234
0.0214914 -0.0213725 0.196838 -0.60185 0.719432 -0.34669
0.0523097 0.32261 -0.391824 0.923942 -0.0182612 0.382096
0.200794 -0.080343 0.219264 0.723952 -0.219008 0.654163
0.0637847 0.0409348 0.170392 0.130015 0.833716 0.536669
-0.339933 0.117996 -0.406357 -0.367365 0.502072 -0.782922
-0.189917 0.13992 -0.460655 -0.384925 0.525747 -0.758566
0.274255 -0.217874 0.342428 0.89718 -0.219483 0.383269
0.120541 -0.231596 0.132431 0.220612 -0.7464 -0.627867
-0.0198188 0.286164 -0.444503 -0.45481 0.49325 -0.74152
0.143812 -0.203668 0.168404 0.432259 -0.661974 -0.612325
-0.10866 0.165186 -0.0514876 -0.388573 0.690062 0.610594
-0.0370605 0.0948174 -0.381535 0.653172 -0.752999 0.0797504
-0.012762 0.109841 -0.303384 0.802268 -0.581867 0.133405
-0.0812575 -0.0783114 0.114214 -0.935184 -0.22208 0.275884
-0.20514 0.385924 -0.297454 -0.320793 0.50308 -0.802498
-0.0957868 -0.0254929 -0.00783441 -0.120438 -0.607038 0.785493
-0.326814 0.39812 -0.226868 -0.569222 0.589952 0.572663
-0.0121052 0.317027 -0.278668 0.810486 0.163399 0.562507
-0.0222235 -0.106469 0.167181 -0.910234 -0.243997 0.334574
0.215376 -0.121821 0.176104 0.93322 0.145502 -0.328526
0.011247 0.115135 0.0457763 -0.294611 0.86659 -0.402773
-0.215124 0.176494 -0.291183 0.89219 0.356308 -0.277563
0.186333 -0.321867 0.318383 0.369883 -0.852353 0.369704
-0.151545 0.0253143 -0.045198 -0.760276 0.272956 -0.589471
-0.013718 -0.0479838 -0.142452 -0.171082 0.052856 -0.983838
-0.0906911 0.219904 -0.455775 -0.315936 0.484442 -0.815782
-0.208598 0.426333 -0.21854 0.0381924 0.301739 0.952625
0.135553 -0.252258 0.171023 -0.184058 0.0837123 -0.979344
-0.301509 0.107243 -0.431111 -0.369665 0.500693 -0.782722
-0.11224 0.164735 -0.333341 -0.324472 0.482755 -0.813428
-0.043639 -0.116504 0.119784 -0.725711 0.154502 -0.670427
-0.0818701 0.242566 -0.361343 -0.937645 -0.254191 0.237085
-0.110493 0.00541583 -0.166736 -0.000719103 -0.815764 0.578385
-0.131046 0.0696313 -0.017171 -0.136238 -0.266262 0.954224
-0.246555 0.0401013 -0.388082 -0.158813 -0.922519 0.351763
-0.143471 0.308512 -0.355232 -0.484398 -0.791159 -0.373398
0.075719 0.00556707 0.21438 0.455544 -0.0648344 0.887849
0.0650945 -0.238476 0.239336 -0.569385 -0.776748 -0.269188
-0.032199 -0.162863 0.175039 -0.133311 -0.647177 0.750594
-0.149488 0.0631544 -0.0678696 -0.148038 -0.400792 0.90413
0.0965511 -0.173702 0.0536721 0.339105 -0.738752 -0.582454
0.0702281 -0.141132 0.0527667 0.227017 -0.79324 -0.565007
-0.0448864 0.0847999 -0.326017 0.635784 -0.663641 -0.394156
-0.0884362 0.0992629 0.0240263 -0.669101 0.661999 -0.337728
0.143564 -0.158388 0.436295 -0.543687 0.78037 -0.308913
-0.27613 0.295382 -0.203978 -0.287651 0.0395637 0.956918
0.114301 0.0366097 0.0167266 0.723436 -0.251835 0.642822
0.183631 -0.23069 0.178352 0.526002 -0.752591 0.396142
0.0722238 0.293582 -0.462434 0.940161 0.145339 -0.308177
-0.20401 0.0437733 -0.353647 -0.0663788 -0.972326 0.224001
0.155538 -0.0900309 0.351484 -0.398714 0.862058 -0.312862
-0.133116 0.055897 -0.245496 -0.012058 -0.953167 0.302204
-0.144339 0.191629 -0.438989 -0.525631 0.842156 -0.120355
-0.000822081 0.415578 -0.324207 0.745779 0.205461 0.633719
0.113788 -0.100319 0.380386 -0.229029 0.787978 0.571521
0.0445763 0.0778821 -0.187877 0.710288 -0.530303 0.462893
0.115949 -0.0635067 -0.0129842 0.0449599 0.363602 -0.930469
-0.191922 0.0355848 -0.400213 0.0956597 -0.9805 0.171665
-0.346395 0.215719 -0.242982 -0.43046 -0.354792 0.829956
-0.148723 0.469744 -0.246737 0.158447 0.872682 0.461866
0.177482 -0.0470859 0.248953 0.589482 0.7734 0.23316
-0.129776 0.0400735 -0.433715 0.354492 -0.933398 0.0557118
0.0152001 -0.086321 0.265536 0.00411843 -0.229767 0.973237
0.0577938 -0.233245 0.305293 -0.881567 -0.466483 0.0723472
-0.0628464 0.1822 -0.348446 -0.903703 -0.344284 0.25454
-0.316159 0.150239 -0.261529 -0.457568 -0.533752 0.711154
0.170179 -0.303736 0.265396 0.255353 -0.839945 0.47884
0.246124 -0.251731 0.266943 0.601097 -0.671002 0.434095
-0.0254728 -0.155347 0.22506 -0.733472 0.264799 -0.62602
0.00946484 -0.199921 0.311799 -0.928021 -0.201143 0.313557
0.0277876 0.194409 -0.387739 0.909532 -0.336382 0.24413
0.0536182 0.251764 -0.428573 0.950632 -0.205703 0.232346
-0.0164371 -0.134033 0.0105534 0.0567643 -0.843908 0.533477
0.114489 -0.276901 0.219512 -0.301648 0.0110299 -0.953356
-0.030071 0.408372 -0.361697 -0.387598 0.507826 -0.769338
-0.12279 0.193548 -0.0920467 -0.546768 0.752689 -0.366748
0.0209407 0.130218 -0.00295684 0.562249 -0.0143374 0.826844
0.004022 0.167149 -0.311657 0.976234 -0.200888 -0.08131
0.22876 -0.122166 0.224637 0.160248 0.626874 -0.762463
