ply
format ascii 1.0
comment Created by Open3D
element vertex 400
property double x
property double y
property double z
property double nx
property double ny
property double nz
end_header
0.314653 -0.163661 -0.0632889 0.173112 0.556808 -0.812402
-0.349019 -0.0537773 -0.106466 0.114704 0.600573 -0.7913
-0.085918 0.180436 0.114124 0.094265 0.645033 -0.758318
-0.166374 -0.49383 -0.386509 -0.1446 -0.583469 0.799159
0.4006 0.111172 0.152553 0.166786 0.785697 0.595704
-0.377031 0.173433 0.0544133 0.157069 0.571636 -0.805333
-0.423825 0.184663 0.0532196 0.0717709 0.610364 -0.788863
-0.44484 -0.0153415 -0.0884216 -0.127954 -0.589502 0.797568
-0.188376 -0.0540751 -0.0706913 -0.167281 -0.555896 0.814246
-0.235843 -0.230025 -0.207077 -0.178599 -0.569085 0.802649
0.325082 -0.274195 -0.135476 -0.1494 -0.58035 0.800546
0.0759209 0.0122583 0.0253138 -0.190281 -0.558322 0.807508
-0.0634804 -0.341655 -0.260636 0.158631 0.572792 -0.804205
0.617417 -0.18093 -0.0141644 -0.151413 -0.562953 0.812501
-0.607079 0.151012 0.0013993 -0.145711 -0.583282 0.799094
-0.214825 -0.135551 -0.133756 -0.133397 -0.592026 0.794802
0.280483 0.305305 0.276635 -0.148706 -0.579392 0.801368
0.150626 -0.0946156 -0.047141 0.155058 0.543342 -0.825067
0.319038 0.0194627 0.0686436 0.0978659 0.59976 -0.794173
-0.332347 0.0339005 -0.0333699 -0.131582 -0.597328 0.791129
0.0694747 -0.451153 -0.313171 -0.178986 -0.539165 0.822961
-0.0859607 0.456039 0.314607 -0.532448 0.762823 0.366879
-0.666831 0.156158 -0.0115496 0.101854 0.597279 -0.79554
0.245213 -0.0543208 0.00768887 -0.165304 -0.560147 0.811732
-0.53804 0.167562 0.0207391 0.0887927 0.606335 -0.790237
0.218499 0.121865 0.123453 0.156287 0.575765 -0.802539
-0.102164 -0.462175 -0.358155 0.163206 0.572098 -0.803783
0.39733 0.00223406 0.0789039 -0.082773 -0.621556 0.778985
-0.0505961 0.339133 0.232989 0.144277 0.584136 -0.79873
-0.486317 0.14213 0.0172372 -0.0201652 -0.629746 0.77654
-0.376054 -0.00147486 -0.0648426 -0.158593 -0.580234 0.798859
0.454196 -0.271437 -0.118182 0.569961 -0.712092 -0.409963
-0.222286 -0.331761 -0.278415 -0.166819 -0.572168 0.802991
0.635407 -0.172985 -0.0161254 0.14147 0.583379 -0.799785
0.355792 -0.0270959 0.0431791 0.153494 0.581628 -0.798842
-0.119145 -0.203612 -0.165527 -0.159445 -0.562795 0.811073
-0.0313427 0.156037 0.104379 0.150132 0.580647 -0.800193
0.0670589 0.356519 0.276003 -0.174404 -0.49201 0.852941
0.0783782 0.524597 0.392527 0.156155 0.570722 -0.806159
-0.15366 -0.253266 -0.20813 -0.226456 -0.554713 0.800631
-0.055986 0.335152 0.237595 -0.144816 -0.583388 0.799179
-0.316031 0.158903 0.058914 -0.190718 -0.577191 0.794026
-0.212352 0.180548 0.096564 -0.225908 -0.558996 0.797802
0.11153 0.485518 0.369494 0.139687 0.593363 -0.792722
-0.150848 0.418385 0.280113 -0.19579 -0.559694 0.805239
0.0682615 -0.0937653 -0.0580491 0.141736 0.587651 -0.796604
-0.594251 0.202199 0.0417889 -0.130163 -0.604069 0.78623
-0.205648 -0.267318 -0.236153 0.146588 0.582195 -0.799726
-0.394939 -0.0386196 -0.0971016 -0.186794 -0.521176 0.832757
0.191939 -0.173615 -0.0880727 -0.145349 -0.584222 0.798472
-0.267936 0.1732 0.0747751 0.225961 0.496102 -0.838346
0.129942 -0.0434793 -0.0123285 0.0985438 0.595903 -0.796988
0.171071 -0.362295 -0.2364 0.120776 0.591277 -0.797374
-0.304111 0.218775 0.10156 0.204575 0.53069 -0.822507
0.159435 0.383813 0.305751 0.131026 0.589518 -0.797057
0.155114 0.146804 0.130047 0.110308 0.627114 -0.771077
-0.343322 0.0288546 -0.0373201 -0.120525 -0.600272 0.790662
0.255296 0.0791554 0.106993 -0.192611 -0.574968 0.795181
0.435849 -0.282281 -0.122552 -0.143217 -0.589164 0.79522
0.05491 -0.0420956 -0.0176463 -0.0919929 -0.595575 0.798015
-0.0903159 -0.377769 -0.286583 -0.148585 -0.581265 0.800034
0.0502787 -0.284974 -0.195408 -0.124631 -0.592414 0.795935
-0.0687961 -0.423882 -0.326199 0.145105 0.583252 -0.799225
-0.564766 0.00342677 -0.100032 -0.761346 -0.456824 -0.46007
-0.143011 -0.353271 -0.2898 0.174508 0.572908 -0.800827
0.411055 -0.155412 -0.0342667 -0.141536 -0.584315 0.799089
-0.1778 -0.442652 -0.351571 -0.144057 -0.585636 0.79767
0.159306 0.468567 0.374703 -0.213554 -0.539522 0.814439
0.0272724 -0.229418 -0.157622 -0.158076 -0.576279 0.801819
-0.000336654 0.224608 0.158253 0.125061 0.583246 -0.802611
0.0633628 -0.0406268 -0.0154989 -0.0983695 -0.615226 0.782189
-0.0165488 -0.194095 -0.141079 -0.15251 -0.580114 0.80013
-0.614528 0.0705819 -0.0653951 0.142592 0.58368 -0.799366
-0.210357 0.183251 0.0981909 -0.153242 -0.576959 0.802268
-0.375679 0.284916 0.134877 0.11037 0.601214 -0.791429
-0.406146 0.222615 0.0909816 -0.16621 -0.570469 0.804325
-0.393429 -0.0946783 -0.137787 -0.107602 -0.599368 0.793209
0.109302 0.292664 0.235221 -0.164638 -0.568992 0.805694
0.148196 -0.102753 -0.0452987 -0.0909418 -0.607392 0.78918
0.207039 0.212918 0.19554 -0.214327 -0.554055 0.804417
-0.187912 -0.101109 -0.111545 0.126979 0.612025 -0.780578
-0.2982 -0.244326 -0.230121 -0.153872 -0.578889 0.800756
-0.355192 0.214143 0.0952251 -0.145879 -0.585909 0.797138
0.0740195 -0.326642 -0.221134 -0.219978 -0.567117 0.793718
-0.132084 -0.134366 -0.124794 0.169429 0.57877 -0.797696
0.0259957 -0.341188 -0.245477 0.17191 0.566245 -0.80611
-0.0938499 0.298307 0.206501 -0.171112 -0.561183 0.809811
0.674325 -0.146537 0.0148598 0.146596 0.582177 -0.799737
0.00467647 -0.0185978 -0.0152671 0.115375 0.611881 -0.78249
-0.031646 -0.511175 -0.377011 0.571768 -0.702541 -0.423695
-0.100885 0.0308217 0.00789176 -0.177268 -0.563009 0.807215
0.606833 -0.0543285 0.0713474 0.799968 0.377299 0.466579
0.162883 -0.410791 -0.266383 -0.098828 -0.586831 0.803656
-0.400186 0.106334 -0.00016461 0.199949 0.543925 -0.814964
-0.0784645 -0.526769 -0.400753 0.154988 0.575585 -0.80292
0.0745972 -0.325181 -0.220113 -0.218788 -0.492854 0.842156
-0.0433156 0.384976 0.274248 -0.0958953 -0.620981 0.777937
-0.104679 -0.250131 -0.197458 -0.129207 -0.601776 0.788144
-0.518232 0.0579022 -0.0483442 -0.0835138 -0.625234 0.775956
0.136971 -0.188454 -0.114949 0.190694 0.545318 -0.81625
0.0874765 -0.255469 -0.174855 0.152385 0.573563 -0.804863
0.293888 -0.0395079 0.0296604 -0.105062 -0.610257 0.785206
0.564904 -0.17777 -0.0215092 -0.178577 -0.564827 0.805656
0.507559 -0.0410195 0.0644142 -0.144973 -0.582387 0.79988
-0.0951093 0.388123 0.260499 0.0511339 0.670343 -0.740287
0.365029 -0.168175 -0.0595582 0.155049 0.579466 -0.800112
0.259539 0.357217 0.309691 -0.139341 -0.589206 0.795877
0.07605 -0.368278 -0.248179 -0.0588473 -0.614333 0.78685
0.579492 -0.136237 0.0113334 -0.240916 -0.556937 0.794846
0.104689 -0.412591 -0.284577 0.223297 0.540415 -0.811227
-0.168666 0.0508805 0.00311499 0.204036 0.54745 -0.811583
-0.0994842 0.385827 0.257994 0.0927594 0.647065 -0.756771
0.198378 0.28 0.236365 0.0517279 0.605945 -0.793823
-0.173898 -0.16506 -0.156105 0.135222 0.584955 -0.799714
-0.112276 0.342848 0.226158 0.139055 0.584531 -0.799367
-0.159381 0.383767 0.252976 -0.156803 -0.580726 0.798855
0.0510745 0.483697 0.364654 -0.257865 -0.524821 0.811214
0.468022 -0.178035 -0.0413093 -0.149804 -0.581944 0.799312
0.349412 -0.0245737 0.041619 0.175802 0.563359 -0.807292
-0.180706 0.333231 0.210576 -0.974699 0.222714 -0.0190008
0.0231465 0.321895 0.240782 -0.140096 -0.587314 0.797142
-0.0685659 0.257796 0.171378 0.0810265 0.603569 -0.793183
-0.0459722 -0.00311751 -0.0115098 0.160589 0.57474 -0.802425
-0.291222 -0.238934 -0.22299 -0.141644 -0.588524 0.795975
-0.512328 -0.036547 -0.117172 -0.143895 -0.584093 0.79883
-0.158055 0.28248 0.172316 0.11411 0.588942 -0.800079
-0.442867 -0.0219724 -0.101473 0.175073 0.568491 -0.803845
-0.193066 -0.382214 -0.312541 -0.132193 -0.589928 0.796562
-0.210416 0.14337 0.0633699 0.19912 0.569638 -0.797411
0.262143 -0.0972777 -0.0255414 0.193838 0.543465 -0.816745
-0.0171037 0.273465 0.199469 -0.126486 -0.588839 0.798292
-0.180906 0.234021 0.139637 -0.182771 -0.561779 0.806845
-0.046543 -0.23263 -0.174124 -0.151756 -0.581028 0.79961
0.267041 -0.142056 -0.0507674 -0.179781 -0.540872 0.821666
-0.028027 0.468889 0.333125 0.0766683 0.592218 -0.802122
0.107848 0.485178 0.36861 0.141807 0.58486 -0.798642
0.451763 -0.0159182 0.0740415 -0.141864 -0.589407 0.795282
-0.338132 0.114376 0.0174251 0.195198 0.574179 -0.79512
0.185984 -0.234764 -0.133287 -0.188232 -0.527592 0.828381
-0.123384 -0.410032 -0.326026 0.132388 0.585994 -0.799428
0.309766 0.00609809 0.0590299 0.141878 0.58608 -0.797735
-0.268861 0.00547196 -0.0478085 0.138706 0.58561 -0.798638
-0.48518 -0.0764051 -0.14083 -0.139499 -0.590191 0.79512
-0.243097 0.226781 0.116634 0.153706 0.579026 -0.800689
5.00112e-05 -0.187921 -0.133622 -0.0405221 -0.61766 0.7854
0.29875 -0.0485825 0.014512 0.108043 0.595946 -0.795723
0.211638 0.0236804 0.0610819 -0.162713 -0.579056 0.798886
-0.120442 -0.299487 -0.243155 0.156769 0.571684 -0.805357
-0.00785449 -0.274234 -0.203581 0.130985 0.601589 -0.787993
-0.108127 0.123966 0.074452 -0.0817892 -0.627212 0.774542
0.070534 0.00376676 0.0189544 -0.15486 -0.578754 0.800663
-0.344248 0.128788 0.026765 0.190925 0.569858 -0.799255
-0.0853214 -0.529929 -0.397459 -0.111971 -0.619086 0.7773
-0.147958 0.00493857 -0.0259603 0.244315 0.544763 -0.802212
0.040181 -0.401417 -0.285849 0.208061 0.554533 -0.805732
0.550716 -0.217124 -0.0547882 -0.142997 -0.590495 0.794272
-0.139871 -0.354624 -0.278026 -0.140302 -0.586607 0.797627
0.223728 -0.214118 -0.118425 0.147982 0.581598 -0.799903
0.576074 -0.127017 0.00862874 0.163249 0.568636 -0.806227
0.558635 -0.0833414 0.0435823 -0.136067 -0.593804 0.793021
0.146082 -0.141043 -0.0811854 0.172083 0.576276 -0.798933
-0.106478 0.237755 0.149554 0.173064 0.55278 -0.815158
-0.0278765 -0.138819 -0.108989 0.138306 0.589898 -0.795545
0.206731 0.202253 0.18867 -0.176368 -0.562937 0.807462
-0.229252 -0.413449 -0.346059 0.147009 0.582078 -0.799733
-0.144982 -0.517181 -0.400892 -0.143971 -0.583114 0.799531
0.29231 0.263362 0.250562 -0.137766 -0.58935 0.796045
0.127403 0.0993478 0.0993981 -0.187499 -0.563024 0.804891
0.125035 -0.346724 -0.234054 0.154112 0.577265 -0.801882
0.527249 0.00981059 0.101878 0.113132 0.596678 -0.794466
0.348594 0.0547638 0.101136 0.126479 0.588976 -0.798192
0.193243 -0.0222789 0.0165591 0.132443 0.584043 -0.800845
-0.345696 -0.119735 -0.155417 0.175252 0.57489 -0.799242
0.109805 0.297051 0.233884 0.109002 0.598455 -0.793707
-0.00741864 0.118443 0.0788035 0.102599 0.607109 -0.787967
0.404796 0.0443514 0.102504 0.188129 0.556142 -0.809514
0.552518 -0.0789081 0.0412993 0.180757 0.553771 -0.812813
0.028434 -0.125613 -0.0896 0.161567 0.572911 -0.803535
0.162784 -0.315353 -0.203368 0.164531 0.567864 -0.806511
0.207828 -0.0846518 -0.0229482 -0.176078 -0.573852 0.799806
-0.278622 0.12124 0.0420328 -0.230686 -0.532353 0.814484
0.190112 -0.0251817 0.014924 0.161329 0.557087 -0.814633
-0.322585 -0.0183502 -0.0752424 0.126189 0.586034 -0.8004
0.0185149 0.0303436 0.0271725 -0.180338 -0.550413 0.815183
-0.294523 -0.331661 -0.297523 0.115768 0.590509 -0.798684
-0.497309 0.0161358 -0.0830128 0.142246 0.591339 -0.793778
0.155111 0.262283 0.215328 0.0734018 0.623809 -0.778122
0.250474 0.17584 0.175305 -0.123772 -0.585642 0.801064
-0.499685 -0.0280184 -0.11068 -0.220595 -0.532554 0.817144
-0.578133 0.0422292 -0.070343 -0.156956 -0.498219 0.852727
0.102855 0.240914 0.198497 -0.0631671 -0.638786 0.766787
0.323208 -0.116847 -0.0214623 -0.233318 -0.563773 0.79229
0.466814 -0.0635437 0.035284 0.148222 0.581508 -0.799924
-0.272552 -0.117548 -0.13909 0.161993 0.565284 -0.808834
-0.383883 0.0634556 -0.0206392 -0.11305 -0.59949 0.792358
0.312225 0.0858503 0.117044 0.151745 0.579141 -0.80098
0.0766592 -0.167335 -0.111024 0.135959 0.587358 -0.797825
0.110214 0.39227 0.301448 0.136082 0.600989 -0.787587
-0.546642 0.16043 0.0197245 -0.137974 -0.589757 0.795707
0.361011 -0.0766809 0.0146688 -0.125484 -0.595249 0.793683
0.0362952 0.491958 0.363518 0.167025 0.569431 -0.804892
-0.0421782 -0.0874435 -0.0750441 0.113985 0.589017 -0.800041
-0.665429 0.167772 -0.00405772 0.146433 0.582542 -0.799501
-0.107629 -0.459219 -0.350895 -0.145994 -0.582285 0.799769
0.444772 -0.0202617 0.069257 -0.140294 -0.591383 0.794093
0.0135509 0.183954 0.13461 0.105431 0.610843 -0.784701
0.502278 -0.22521 -0.0680908 -0.125493 -0.592213 0.795949
-0.126883 -0.405575 -0.316335 -0.148616 -0.579134 0.801572
0.131121 0.34378 0.278201 -0.101426 -0.591233 0.800098
0.382038 -0.270565 -0.122032 -0.119422 -0.596616 0.793592
0.550017 -0.176404 -0.0256808 -0.0130798 -0.653354 0.756939
-0.0469627 0.0474966 0.0287378 -0.207743 -0.528383 0.823198
-0.190528 -0.212845 -0.190961 0.147645 0.580696 -0.80062
0.491181 0.0917923 0.152803 0.569726 0.570687 0.591378
-0.0738286 -0.291428 -0.221221 -0.206832 -0.524399 0.82597
-0.415315 0.223441 0.0917066 -0.194645 -0.545998 0.814862
0.251851 -0.00469603 0.0407955 0.167463 0.570446 -0.804082
-0.316091 0.159959 0.0612763 -0.18731 -0.543909 0.817972
-0.0269409 -0.387596 -0.289451 0.15327 0.550737 -0.820486
0.0584795 0.412777 0.307302 0.188575 0.54235 -0.818716
-0.221727 -0.416431 -0.34084 -0.136507 -0.590972 0.795058
0.628268 -0.093122 0.0440618 0.177064 0.532071 -0.827979
-0.277495 0.0185863 -0.0418559 0.154163 0.579884 -0.79998
-0.00528281 0.0702796 0.0480114 0.0935476 0.586142 -0.804789
-0.43313 0.273393 0.12375 -0.195628 -0.527969 0.826425
-0.29084 -0.324663 -0.29345 0.170553 0.565898 -0.806642
0.0151037 -0.350868 -0.249661 -0.134837 -0.592875 0.793926
0.201612 0.340624 0.287887 -0.0455598 -0.639211 0.767681
-0.203304 -0.269353 -0.231439 -0.162111 -0.553062 0.817217
0.468764 -0.176543 -0.0407435 -0.167383 -0.567476 0.806197
-0.0249227 -0.324656 -0.236277 -0.155033 -0.572741 0.804942
0.329687 -0.22504 -0.106833 0.133366 0.600756 -0.78823
0.452635 -0.123502 -0.00168578 -0.159088 -0.574839 0.802653
-0.0364614 0.293826 0.211273 -0.164952 -0.565163 0.80832
0.51827 0.0508334 0.134935 -0.128957 -0.589579 0.79735
0.500489 -0.100977 0.0203286 -0.180509 -0.558545 0.809595
0.0873922 0.443692 0.340359 -0.135983 -0.592037 0.794356
-0.119177 -0.0874445 -0.0883354 0.148092 0.581581 -0.799895
0.0527035 0.284896 0.222427 -0.14995 -0.574984 0.804306
-0.640076 0.117022 -0.0281259 -0.161797 -0.567915 0.807028
-0.270694 0.264976 0.138675 0.170776 0.576324 -0.799179
0.373282 -0.254586 -0.114675 -0.140608 -0.586203 0.79787
-0.177196 0.280969 0.168826 0.156604 0.575416 -0.802728
0.0718258 0.357204 0.276354 -0.127333 -0.602218 0.788112
-0.160795 -0.445244 -0.358595 0.125391 0.612278 -0.780636
0.00151801 -0.275178 -0.196713 -0.167891 -0.560003 0.811301
0.134225 -0.248835 -0.152605 -0.154001 -0.577033 0.80207
-0.076289 -0.182443 -0.1423 -0.182791 -0.569902 0.801124
-0.121236 0.0830873 0.0320049 0.181289 0.557893 -0.80987
0.0590162 0.111432 0.0967376 -0.192841 -0.555674 0.808726
0.150089 0.512131 0.396424 0.127102 0.591337 -0.796345
-0.262737 -0.289085 -0.255374 -0.154297 -0.573194 0.804761
-0.147316 0.193567 0.110342 0.139857 0.587244 -0.797235
0.1539 -0.414333 -0.27391 0.118673 0.586671 -0.801083
-0.240425 0.0490755 -0.0117866 0.18475 0.54608 -0.817107
0.197838 0.441699 0.361157 -0.205726 -0.542809 0.81427
0.012217 -0.0797703 -0.0530644 -0.144836 -0.583614 0.79901
0.0215979 0.379019 0.276216 0.124247 0.637412 -0.76044
-0.203111 -0.0512568 -0.0725299 -0.163802 -0.57759 0.799724
0.119244 0.545871 0.41598 0.177895 0.565847 -0.805091
-0.411876 0.139495 0.0294874 -0.161268 -0.569645 0.805914
0.38778 -0.209211 -0.0839838 0.146729 0.582015 -0.79983
0.400145 -0.0513734 0.039022 -0.158109 -0.578927 0.799903
0.434235 -0.216953 -0.0746812 -0.0987552 -0.630113 0.770198
-0.0337667 0.43225 0.305453 0.143625 0.585059 -0.798171
0.290283 -0.20417 -0.0896197 -0.209034 -0.563323 0.799357
-0.136358 -0.136609 -0.119999 -0.0656267 -0.593656 0.802038
0.0973844 0.441576 0.335697 0.138259 0.584047 -0.799859
-0.0310052 -0.505061 -0.378113 0.169707 0.564542 -0.807769
-0.231981 0.0973464 0.0249643 0.0968313 0.622321 -0.77675
0.251784 -0.256218 -0.136932 -0.13068 -0.616874 0.776138
-0.0968047 0.447648 0.305117 0.119134 0.602854 -0.788907
0.343145 0.112379 0.147827 -0.130666 -0.592653 0.794788
0.145732 0.188351 0.167853 -0.130088 -0.6181 0.775261
-0.0907645 0.127429 0.0799917 -0.0734514 -0.654323 0.75264
0.118803 0.550741 0.420612 0.194146 0.811361 0.551362
-0.122368 -0.0895638 -0.0829337 -0.149065 -0.579643 0.80112
0.282353 0.126936 0.149529 -0.168827 -0.573972 0.801283
-0.178815 -0.2099 -0.182434 -0.188369 -0.540767 0.81981
-0.256086 -0.372508 -0.314701 -0.183956 -0.562256 0.806243
0.134151 -0.192493 -0.120153 0.214797 0.557487 -0.801917
0.198191 0.0765249 0.0890808 0.169301 0.567084 -0.806072
-0.0115116 0.114345 0.0825021 -0.137241 -0.586136 0.798504
-0.440965 -0.0761134 -0.139381 0.222954 0.539546 -0.8119
0.177476 -0.273288 -0.169492 0.155822 0.571603 -0.805599
0.080376 -0.214295 -0.138876 -0.20257 -0.568957 0.797028
0.271292 0.364102 0.313357 0.796064 0.41093 0.444318
-0.586241 0.131151 -0.00883713 -0.142877 -0.586739 0.797072
-0.246247 0.0515845 -0.00874114 0.1212 0.589669 -0.798499
0.0144421 -0.233224 -0.162914 -0.148844 -0.57982 0.801033
0.0505371 0.162184 0.131501 -0.134344 -0.590301 0.795925
0.0971293 -0.129503 -0.0732901 -0.126218 -0.584747 0.801336
0.0622219 0.0680443 0.0629621 -0.222745 -0.551414 0.803945
-0.516252 0.0151339 -0.0784495 -0.120896 -0.603549 0.788107
0.402003 -0.0536061 0.0369495 -0.159574 -0.536645 0.828582
0.107127 0.243115 0.199484 -0.157923 -0.57848 0.800263
-0.0128067 -0.446657 -0.324557 -0.258663 -0.565437 0.783182
0.24285 -0.182044 -0.0894593 0.194245 0.53301 -0.823511
0.0681572 0.114927 0.0930017 0.164044 0.576995 -0.800104
0.0356238 -0.402373 -0.281877 -0.10595 -0.593689 0.797689
0.246351 0.28535 0.250212 0.0998285 0.609237 -0.78668
0.0731554 -0.168736 -0.112069 0.153396 0.57659 -0.802504
-0.326285 0.258517 0.126171 0.0902121 0.60276 -0.792807
-0.0826429 -0.061762 -0.0628427 0.137691 0.585764 -0.7987
-0.0982062 -0.0240619 -0.032443 -0.102092 -0.610992 0.785026
0.138905 0.00997869 0.028696 0.144095 0.582449 -0.799994
-0.480161 0.253519 0.0986 -0.160148 -0.574698 0.802543
0.33229 -0.10733 -0.0195763 0.0478694 0.6654 -0.744951
-0.0659934 0.0947818 0.0536194 0.151099 0.57904 -0.801175
0.673492 -0.150688 0.0185202 -0.117924 -0.618523 0.776868
-0.079095 -0.125556 -0.103438 -0.0462988 -0.604994 0.794883
0.577939 -0.0235523 0.0852312 0.232136 0.513778 -0.825921
-0.110665 0.296574 0.194011 0.0697696 0.628723 -0.774493
-0.208416 0.137573 0.065207 -0.181133 -0.561077 0.807702
-0.174273 -0.309411 -0.255424 -0.152343 -0.572005 0.805979
0.255242 -0.257508 -0.139289 -0.158003 -0.565169 0.809703
0.211753 -0.129502 -0.051907 -0.241533 -0.56911 0.785987
0.101334 -0.408052 -0.283899 0.157044 0.569145 -0.8071
0.213352 0.121307 0.130592 -0.0967557 -0.589633 0.801855
-0.0897725 0.0242493 0.00712822 -0.168638 -0.573219 0.801861
0.297835 0.262258 0.247667 -0.0361374 -0.641185 0.766535
0.0275165 -0.477581 -0.338596 -0.147685 -0.581467 0.800054
-0.178074 0.339171 0.216107 -0.948816 0.314236 -0.031693
0.403003 -0.110919 -0.00708008 0.18853 0.54071 -0.81981
-0.35426 0.205374 0.0871412 -0.0903231 -0.6206 0.778908
0.248452 0.167955 0.172245 -0.210668 -0.559709 0.801464
0.137265 0.100284 0.0976336 0.14267 0.584285 -0.798909
-0.259725 -0.291335 -0.256732 -0.143496 -0.58423 0.798802
0.442939 0.062937 0.124094 0.160841 0.509336 -0.845403
0.192085 -0.165571 -0.08811 0.124403 0.591464 -0.796677
0.486093 0.0911624 0.152146 0.160019 0.57099 -0.805211
0.160652 0.0547262 0.072217 -0.171725 -0.571685 0.802301
0.0733526 0.202993 0.157675 0.239749 0.565942 -0.788816
-0.314601 0.0711042 -0.00688738 0.142466 0.589323 -0.795237
-0.474794 0.189688 0.0460091 0.196704 0.563303 -0.802495
0.0626451 0.202952 0.163497 -0.10751 -0.603616 0.789993
-0.463555 0.0577983 -0.0471415 0.0660494 0.609214 -0.79025
0.479359 0.0216365 0.101788 0.143052 0.586208 -0.797431
-0.242187 -0.186117 -0.175874 -0.169311 -0.547029 0.819813
0.243344 -0.0435588 0.0115856 0.106398 0.605341 -0.788823
-0.647232 0.113723 -0.0323489 -0.0690664 -0.623057 0.779121
-0.270121 -0.0455615 -0.07935 -0.143852 -0.589933 0.794535
0.535693 -0.00150118 0.100778 -0.117825 -0.599608 0.791572
-0.0383404 -0.0554781 -0.0438371 -0.111603 -0.638649 0.761362
-0.54075 0.212226 0.0596352 -0.159706 -0.572817 0.803974
0.204124 0.163253 0.153549 0.119718 0.587129 -0.800592
-0.143987 -0.038211 -0.0498056 -0.130778 -0.608282 0.782873
0.393113 -0.111276 -0.00434824 -0.140725 -0.58492 0.79879
-0.218545 0.00409346 -0.0320568 -0.132038 -0.592908 0.794372
-0.286085 -0.165088 -0.169691 -0.976134 0.213142 0.041625
0.10999 0.053479 0.0546084 0.142783 0.585152 -0.798255
-0.531945 0.115638 -0.0164201 0.109074 0.597727 -0.794245
0.0415734 0.246018 0.192697 -0.151189 -0.578981 0.801201
-0.155507 0.150076 0.0755342 0.185388 0.52896 -0.82815
-0.446018 0.113256 -0.00415958 0.120088 0.590377 -0.798144
0.119528 -0.0614523 -0.020102 -0.163348 -0.571119 0.804451
-0.0454824 -0.236676 -0.18454 0.187939 0.568766 -0.80074
0.221516 0.404403 0.339038 -0.201861 -0.501713 0.841152
-0.0800376 -0.180046 -0.14321 -0.0952768 -0.620114 0.778704
0.163405 0.313794 0.2605 -0.130205 -0.600556 0.78891
-0.177132 0.0906878 0.0335591 -0.137438 -0.587449 0.797505
0.25283 0.0765187 0.0991614 0.124143 0.591327 -0.796819
0.295844 0.210555 0.205135 0.971328 -0.232469 0.0498015
-0.277537 0.125994 0.0378414 0.131179 0.594506 -0.793319
0.287521 0.120101 0.145353 -0.148207 -0.579402 0.801453
-0.085433 -0.12672 -0.10307 -0.121953 -0.588905 0.798949
0.395877 0.0932886 0.136983 0.0826645 0.618603 -0.781343
-0.121602 -0.301769 -0.24423 0.128373 0.626836 -0.768503
-0.181183 0.228542 0.137957 -0.18167 -0.53173 0.8272
-0.373386 0.282708 0.133098 0.207039 0.550495 -0.808758
0.0076986 0.336926 0.242842 0.192896 0.529531 -0.826067
-0.427923 0.0246848 -0.0588114 -0.139201 -0.583135 0.80036
0.257014 0.0346592 0.069235 0.119508 0.59322 -0.79612
-0.2001 0.00935893 -0.0328731 0.124538 0.645775 -0.753303
-0.433877 0.277531 0.124783 -0.149033 -0.579436 0.801276
0.13561 0.0104558 0.0284842 0.14979 0.579431 -0.801138
0.022505 -0.130201 -0.0940075 0.195839 0.55988 -0.805097
0.244123 0.239262 0.224389 -0.112547 -0.614363 0.780955
-0.0323659 0.387245 0.272514 0.122832 0.645158 -0.754111
-0.0423322 0.208758 0.139042 0.119808 0.592005 -0.79698
-0.0685209 -0.416599 -0.318128 0.146467 0.582256 -0.799704
-0.116586 -0.206642 -0.174298 0.103359 0.597827 -0.794934
0.51074 -0.142376 -0.00682544 -0.0938723 -0.614887 0.783008
0.112244 -0.296653 -0.192603 -0.17858 -0.568227 0.803261
0.0390574 0.413173 0.309805 -0.130425 -0.584477 0.80086
-0.0997111 0.172565 0.112423 -0.112924 -0.605725 0.78762
0.153558 0.421915 0.337401 -0.190511 -0.57656 0.794534
-0.44803 0.0672724 -0.0383183 0.126365 0.604603 -0.786439
0.100802 0.161324 0.133008 0.152404 0.573451 -0.804939
-0.467277 0.231024 0.0863283 -0.155882 -0.570292 0.806516
0.189218 -0.275512 -0.16895 0.151401 0.579339 -0.800902
0.150885 0.14164 0.131964 -0.106798 -0.600704 0.792306
-0.555008 -0.00282339 -0.108582 0.152845 0.574802 -0.803891
-0.306332 -0.0855231 -0.115036 -0.110249 -0.588406 0.801014
0.453131 -0.224778 -0.0833494 0.141723 0.583474 -0.79967
0.0163514 0.456687 0.332898 0.152305 0.576848 -0.802527
-0.24373 -0.08932 -0.105363 -0.211262 -0.569251 0.794558
0.0169984 -0.0840175 -0.0544237 -0.182396 -0.571414 0.800136
-0.573909 0.0891001 -0.0456285 0.142026 0.585496 -0.798137
0.201684 0.35682 0.294538 0.153162 0.578511 -0.801166
