ply
format ascii 1.0
comment Created by Open3D
element vertex 400
property double x
property double y
property double z
property double nx
property double ny
property double nz
end_header
0.112989 -0.359826 -0.431646 0.252915 -0.745184 0.617037
-0.0861731 -0.292429 -0.416285 -0.252913 0.745186 -0.617036
0.0424905 0.416512 0.436376 -0.252911 0.745184 -0.617039
-0.0204779 0.214861 0.303747 0.62671 -0.359692 -0.691272
-0.443743 -0.193471 -0.0115227 -0.7359 -0.562204 -0.377331
0.0214997 -0.280548 -0.331782 0.126337 0.657748 0.742568
-0.253594 -0.282413 -0.249847 -0.7359 -0.562204 -0.377331
-0.014913 -0.36554 -0.336899 0.252914 -0.745184 0.617037
-0.0961493 -0.221878 -0.224797 -0.620067 -0.614415 -0.487863
0.0156229 0.386219 0.476214 -0.22581 -0.665623 -0.711306
0.0196051 0.296148 0.448062 0.252917 -0.745188 0.617032
0.0905 0.321164 0.370086 0.909917 -0.0335136 -0.413434
-0.175986 0.125834 0.209086 0.62671 -0.359692 -0.691272
-0.0746528 -0.35824 -0.377819 -0.965964 -0.158694 0.20428
0.0303717 -0.418079 -0.468134 0.25291 -0.745186 0.617037
-0.277371 -0.166445 -0.0381011 0.252913 -0.745185 0.617037
-0.335815 0.099555 0.257505 0.744128 -0.257764 -0.616304
0.0846457 -0.289274 -0.378365 0.802788 0.517587 0.296032
-0.493924 -0.141801 0.00935725 -0.7359 -0.562204 -0.377331
-0.370551 -0.105688 -0.0223663 -0.620067 -0.614415 -0.487863
-0.15571 0.143803 0.240087 -0.62671 0.359692 0.691272
-0.209986 0.100265 0.213534 -0.62671 0.359692 0.691272
-0.075049 0.200963 0.261504 0.62671 -0.359692 -0.691272
-0.0367877 0.363242 0.490585 -0.347798 0.525109 0.776722
-0.0731428 0.290709 0.479508 0.252913 -0.745186 0.617036
0.014576 0.386558 0.36242 -0.252913 0.745183 -0.617039
-0.360014 0.105983 0.226335 -0.252913 0.745185 -0.617037
-0.0554944 -0.320476 -0.341897 -0.737213 0.264581 0.621702
-0.326271 0.151095 0.272113 -0.744128 0.257764 0.616304
-0.20938 0.210425 0.363793 0.744129 -0.257764 -0.616304
0.00943412 0.434568 0.422509 -0.252915 0.745185 -0.617036
-0.020588 -0.288276 -0.438152 -0.252914 0.745183 -0.617039
0.0117932 -0.234571 -0.314878 0.620067 0.614415 0.487863
-0.084176 0.271783 0.447581 -0.963268 -0.25346 0.0887289
0.0905771 0.31184 0.417119 0.965964 0.158699 -0.204275
-0.00676018 0.335508 0.506403 0.252913 -0.745185 0.617037
-0.0741896 -0.368216 -0.412875 -0.926281 -0.370654 -0.0679648
-0.387627 -0.00742505 0.100693 -0.252913 0.745185 -0.617037
-0.427764 -0.00198506 0.188954 0.744128 -0.257764 -0.616304
-0.266088 0.0743503 0.176156 -0.62671 0.359692 0.691272
-0.399996 0.00922116 0.22431 0.252912 -0.745185 0.617037
-0.434699 -0.0977805 0.0993222 -0.949243 -0.0678478 0.30714
-0.450606 -0.162506 -0.00403006 0.7359 0.562204 0.377331
0.00957 0.270012 0.341811 0.162011 -0.596145 -0.786361
-0.0521702 -0.382842 -0.480896 -0.540319 -0.637836 -0.548836
-0.311771 0.0975689 0.287367 0.744129 -0.257764 -0.616304
-0.230882 0.0954992 0.175102 0.62671 -0.359692 -0.691272
0.0791672 -0.255449 -0.437512 0.926281 0.370654 0.0679658
-0.196132 0.224696 0.39846 -0.744128 0.257764 0.616304
-0.533322 -0.139472 0.0827438 -0.75136 -0.553069 -0.359961
-0.293747 0.05872 0.142095 -0.252913 0.745185 -0.617037
0.00728826 -0.300333 -0.464139 -0.252917 0.745183 -0.617038
-0.0840074 -0.325384 -0.397506 -0.962057 -0.126217 0.241902
-0.0413341 -0.35577 -0.314271 0.252914 -0.745184 0.617037
0.00932231 0.242658 0.3163 0.62671 -0.359692 -0.691272
-0.432172 -0.067606 0.0980428 -0.774708 0.226048 0.590534
0.0564216 -0.268805 -0.328486 0.620067 0.614415 0.487863
-0.302868 -0.234997 -0.208883 -0.252913 0.745185 -0.617037
-0.497425 -0.0313231 0.117115 0.744128 -0.257764 -0.616304
-0.437098 -0.179903 -0.0446971 -0.7359 -0.562204 -0.377331
-0.306894 -0.23872 -0.210998 -0.7359 -0.562204 -0.377331
-0.145922 -0.178141 -0.204549 -0.252913 0.745185 -0.617037
0.0300253 -0.279055 -0.300095 0.252913 -0.745186 0.617036
-0.488395 -0.145787 0.0876198 0.209349 -0.58051 -0.786881
-0.26817 -0.251499 -0.227235 0.7359 0.562204 0.377331
-0.384785 -0.0560558 0.0272857 0.737221 -0.264574 -0.621696
-0.170849 0.246846 0.417362 0.252913 -0.745185 0.617037
-0.335377 -0.220079 -0.177542 -0.252913 0.745185 -0.617037
0.0781356 -0.257767 -0.42051 0.893863 0.424009 0.145688
0.029627 -0.408787 -0.407385 0.252917 -0.745184 0.617036
-0.0249923 -0.325549 -0.48136 -0.252907 0.745185 -0.61704
-0.0959326 0.304444 0.399214 -0.939056 -0.342557 -0.0287962
-0.239922 0.174728 0.358578 0.252913 -0.745185 0.617037
-0.158478 0.312906 0.393627 -0.252913 0.745185 -0.617037
0.0491258 0.41372 0.447466 0.608941 0.618206 0.497002
-0.439737 -0.0831866 0.0402022 -0.79768 -0.521515 -0.302868
-0.0121751 -0.345792 -0.511061 -0.252912 0.745185 -0.617037
0.0300822 0.247068 0.384494 0.252914 -0.745185 0.617037
-0.354066 -0.240598 -0.0962177 0.252913 -0.745185 0.617036
-0.0233172 0.294444 0.319961 -0.0783678 -0.651455 -0.754629
-0.140436 -0.362204 -0.330643 0.252913 -0.745185 0.617037
-0.334385 -0.258527 -0.127872 -0.7359 -0.562204 -0.377331
-0.00295331 0.277671 0.287327 -0.252913 0.745185 -0.617037
-0.0221722 0.256606 0.353405 -0.173988 -0.662406 -0.728661
-0.17225 0.0965372 0.236411 0.252914 -0.745185 0.617036
-0.502776 -0.0583985 0.0913384 0.267887 0.666774 0.695449
0.030171 -0.368926 -0.359468 0.25291 -0.745185 0.617038
-0.430355 -0.0448575 0.0237775 -0.252913 0.745185 -0.617037
-0.0783445 0.340927 0.3454 -0.252915 0.745186 -0.617035
-0.297287 -0.00238372 0.16583 0.62671 -0.359692 -0.691272
-0.226229 -0.304057 -0.230724 0.7359 0.562204 0.377331
-0.494315 -0.0805323 0.141452 0.744128 -0.257764 -0.616304
-0.404334 -0.116507 0.12347 0.252915 -0.745184 0.617038
-0.137808 0.124416 0.255963 0.252914 -0.745185 0.617036
-0.394937 -0.219896 -0.067335 -0.7359 -0.562204 -0.377331
0.086182 0.311992 0.362802 0.872993 -0.0991371 -0.477552
-0.0810524 -0.374411 -0.449279 -0.7359 -0.562204 -0.377331
-0.426205 0.0326124 0.201007 -0.744128 0.257764 0.616304
-0.261266 -0.135815 -0.106155 -0.252913 0.745185 -0.617037
-0.0783813 -0.334676 -0.470499 -0.252914 0.745186 -0.617035
-0.397711 -0.183492 -0.107807 -0.252913 0.745185 -0.617037
-0.00577438 0.310611 0.47593 0.252918 -0.745183 0.617037
0.0545877 -0.287918 -0.468532 -0.252913 0.745185 -0.617036
-0.00681467 0.364203 0.34419 -0.252913 0.745185 -0.617037
-0.29186 0.166762 0.282468 0.744128 -0.257764 -0.616304
-0.348561 -0.200469 -0.146481 0.7359 0.562204 0.377331
-0.00792754 -0.413452 -0.47445 -0.189647 -0.663583 -0.723665
-0.371263 -0.104697 0.124178 0.252917 -0.745185 0.617035
-0.0603922 -0.410487 -0.435539 -0.72016 -0.570891 -0.394274
-0.0469 -0.211205 -0.269707 0.620067 0.614415 0.487863
0.0556988 0.286538 0.357618 -0.644747 0.345694 0.68176
-0.180093 -0.18012 -0.139569 0.620067 0.614415 0.487863
0.106295 -0.287402 -0.415814 0.946608 0.322385 0.00133933
-0.242938 -0.269379 -0.249805 0.7359 0.562204 0.377331
0.0818224 -0.330626 -0.464795 -0.85657 0.124044 0.5009
-0.070254 0.347375 0.349871 -0.252915 0.745186 -0.617035
-0.0829052 0.272505 0.407098 -0.874301 -0.449135 -0.184052
-0.345549 0.0166359 0.112504 -0.252913 0.745185 -0.617037
-0.337511 -0.11596 -0.0202958 0.620067 0.614415 0.487863
-0.0957453 0.382369 0.451803 -0.252913 0.745185 -0.617037
-0.102419 0.360254 0.419546 -0.922695 0.00603179 0.385483
0.0433759 -0.343431 -0.33409 0.25291 -0.745185 0.617038
-0.264726 0.149989 0.338868 0.252913 -0.745185 0.617037
-0.480508 -0.0830056 0.066796 0.947082 0.0603908 -0.315261
-0.404919 -0.069651 0.12522 -0.62671 0.359692 0.691272
-0.452917 -0.0297466 0.170196 0.744128 -0.257764 -0.616304
-0.142162 0.311244 0.427426 -0.744128 0.257764 0.616304
-0.25227 -0.177875 -0.0621928 0.252913 -0.745185 0.617037
-0.415829 -0.161805 -0.0728974 0.7359 0.562204 0.377331
-0.0628227 0.263197 0.374907 -0.644724 -0.605338 -0.466794
0.0167766 0.269794 0.417393 0.252916 -0.745184 0.617037
-0.0282892 -0.252347 -0.243938 0.252913 -0.745185 0.617037
-0.49177 -0.0454938 0.0603006 0.874304 0.449132 0.184047
-0.208629 0.0651298 0.213392 0.252914 -0.745185 0.617036
-0.143867 -0.178836 -0.206231 -0.252913 0.745185 -0.617037
-0.546092 -0.105811 0.0578013 -0.780883 -0.533758 -0.324539
-0.0164575 -0.264179 -0.410743 -0.252913 0.745185 -0.617037
-0.138743 -0.344592 -0.340949 0.7359 0.562204 0.377331
0.0860488 -0.292371 -0.339139 0.252913 -0.745184 0.617038
-0.0415443 0.259448 0.283416 -0.62671 0.359692 0.691272
0.0347535 -0.432455 -0.438069 0.252917 -0.745184 0.617036
-0.173941 -0.178758 -0.180231 -0.620067 -0.614415 -0.487863
-0.476955 -0.0653745 0.165767 0.252913 -0.745185 0.617037
-0.129404 0.34208 0.429934 -0.744128 0.257764 0.616304
0.1045 -0.302233 -0.451265 0.958331 0.105415 -0.265497
-0.0361908 -0.256414 -0.245611 0.252913 -0.745186 0.617036
-0.216142 -0.312725 -0.277725 -0.7359 -0.562204 -0.377331
-0.0709223 0.238026 0.267308 -0.252914 0.745185 -0.617036
-0.469736 -0.149663 -0.0261005 -0.7359 -0.562204 -0.377331
-0.0830167 -0.318106 -0.392248 -0.947081 -0.0603876 0.315264
-0.0465684 0.267108 0.440114 0.252914 -0.745187 0.617034
-0.0806722 0.379304 0.448276 -0.705063 0.294767 0.644979
0.0534845 0.290174 0.426961 0.252912 -0.745188 0.617033
-0.018961 0.23298 0.387583 0.252911 -0.745185 0.617037
-0.00607709 -0.335177 -0.303853 0.252909 -0.745187 0.617036
-0.391185 0.0839253 0.212474 -0.252913 0.745185 -0.617037
0.0877957 0.367571 0.436519 0.873357 0.450255 0.18579
-0.345203 0.0719791 0.277643 0.252913 -0.745185 0.617037
-0.104807 -0.186974 -0.226624 0.620067 0.614415 0.487863
0.0406165 0.422153 0.394735 -0.252911 0.745184 -0.617039
-0.134885 0.1721 0.222275 0.62671 -0.359692 -0.691272
0.0698315 -0.395615 -0.407956 0.252914 -0.745184 0.617037
0.0785929 0.27442 0.397643 0.252912 -0.745186 0.617035
-0.440044 0.0330482 0.171057 -0.252913 0.745185 -0.617037
-0.0560984 -0.298665 -0.436143 -0.252914 0.745186 -0.617035
0.0293588 -0.312683 -0.4881 -0.252911 0.745187 -0.617035
-0.384703 0.0673255 0.211958 0.744128 -0.257764 -0.616304
-0.409639 0.0558901 0.186633 0.744128 -0.257764 -0.616304
-0.234283 -0.280789 -0.289929 -0.7359 -0.562204 -0.377331
-0.499976 -0.159525 0.0475689 -0.7359 -0.562204 -0.377331
-0.181894 -0.33017 -0.278281 0.7359 0.562204 0.377331
-0.24162 -0.159857 -0.0868887 0.620067 0.614415 0.487863
-0.52003 -0.123889 0.0335849 -0.7359 -0.562204 -0.377331
-0.297939 0.0573519 0.142161 -0.252913 0.745185 -0.617037
0.0553064 0.373826 0.458555 0.644722 0.605338 0.466796
-0.204927 -0.151732 -0.143756 0.620067 0.614415 0.487863
0.10681 -0.324941 -0.386983 0.252914 -0.745184 0.617038
-0.0467054 -0.248529 -0.379445 -0.252915 0.745184 -0.617037
-0.00219867 -0.40973 -0.395479 0.252916 -0.745186 0.617035
-0.471059 -0.179303 0.0206416 -0.7359 -0.562204 -0.377331
-0.453417 -0.0347475 0.171684 0.744128 -0.257764 -0.616304
-0.323471 -0.127117 -0.0552171 -0.620067 -0.614415 -0.487863
-0.523081 -0.126637 0.0839196 -0.713362 -0.574466 -0.401377
-0.0166661 -0.237421 -0.275117 0.620067 0.614415 0.487863
0.0223588 -0.386511 -0.478564 -0.143193 0.601916 0.785616
-0.348044 -0.0382283 0.145712 0.252913 -0.745185 0.617037
0.0381516 0.417655 0.390313 -0.252914 0.745186 -0.617036
-0.342119 -0.00621638 0.149148 -0.62671 0.359692 0.691272
-0.28378 0.0302147 0.161114 0.62671 -0.359692 -0.691272
-0.230629 -0.163343 -0.127595 -0.620067 -0.614415 -0.487863
0.114129 -0.356361 -0.427929 0.252916 -0.745181 0.61704
-0.12058 -0.337422 -0.407297 -0.252913 0.745185 -0.617037
-0.0710071 0.319451 0.316456 -0.252912 0.745185 -0.617037
-0.464942 -0.129094 0.10473 0.947082 0.0603908 -0.315261
-0.491546 -0.120146 0.144273 -0.0180327 0.63403 0.773098
0.0463086 -0.231958 -0.397558 -0.252912 0.745185 -0.617038
-0.263049 0.18119 0.31122 0.744128 -0.257764 -0.616304
-0.440655 -0.150441 -0.0414132 0.7359 0.562204 0.377331
-0.046647 0.397041 0.46332 -0.347794 0.525111 0.776723
0.00696182 0.322662 0.303071 0.302359 -0.544947 -0.782056
-0.534319 -0.0902451 0.0948691 -0.889131 0.0724106 0.451889
-0.192779 -0.293347 -0.324476 -0.252913 0.745185 -0.617037
-0.528458 -0.0985815 0.132417 -0.744128 0.257764 0.616304
-0.102735 0.330996 0.46677 -0.744128 0.257764 0.616304
0.0376487 -0.253146 -0.363332 0.359122 0.664515 0.655325
-0.174137 -0.3365 -0.324224 -0.7359 -0.562204 -0.377331
-0.407902 -0.124087 0.0482773 -0.620067 -0.614415 -0.487863
-0.0838124 -0.197359 -0.253216 -0.252914 0.745184 -0.617037
0.0563733 -0.337431 -0.492986 0.635598 -0.352858 -0.686663
-0.49775 -0.0306203 0.117818 -0.252913 0.745185 -0.617037
-0.0244637 0.326793 0.306245 -0.252913 0.745185 -0.617037
-0.0549105 0.240319 0.411181 0.252914 -0.745185 0.617036
-0.0218555 -0.301315 -0.324341 -0.392359 0.503971 0.769459
-0.254616 0.217484 0.317793 -0.252913 0.745185 -0.617037
-0.0153831 -0.377533 -0.48445 0.236273 0.666034 0.707513
-0.377604 -0.130914 0.0761789 0.256168 -0.563431 -0.785445
-0.185824 -0.337302 -0.281966 0.252913 -0.745185 0.617037
0.0282066 0.352113 0.504057 0.267882 0.666774 0.695451
-0.365775 0.0797678 0.254249 -0.744128 0.257764 0.616304
-0.539072 -0.0579133 0.102593 -0.744128 0.257764 0.616304
-0.222274 0.236663 0.337251 0.744128 -0.257764 -0.616304
-0.261752 0.217422 0.322273 -0.744128 0.257764 0.616304
-0.486821 -0.00704941 0.144407 -0.744128 0.257764 0.616304
0.0255934 -0.353851 -0.501692 0.302366 -0.544944 -0.782055
-0.480434 -0.0964674 0.115555 0.607946 0.618537 0.49781
-0.1813 0.0906731 0.233038 0.252914 -0.745185 0.617036
-0.0193283 0.290329 0.456992 0.252914 -0.745184 0.617037
-0.239091 0.0506626 0.208406 0.252913 -0.745185 0.617037
-0.00947487 0.345895 0.512027 -0.162011 0.596145 0.786361
-0.425061 -0.0266652 0.061932 -0.478477 0.457977 0.749211
0.034618 0.289347 0.314939 0.62671 -0.359692 -0.691272
-0.012076 0.388137 0.498006 -0.0592201 0.624652 0.778655
0.0854176 -0.291971 -0.375733 -0.822789 -0.501182 -0.268021
-0.0481051 -0.421425 -0.40249 -0.774879 -0.5379 -0.332003
-0.0691201 -0.231362 -0.247207 -0.620067 -0.614415 -0.487863
0.0237748 -0.275284 -0.440645 -0.252913 0.745184 -0.617037
-0.0690402 -0.239251 -0.211419 0.252913 -0.745185 0.617037
-0.327323 -0.118229 -0.0578408 -0.252913 0.745185 -0.617037
0.0873937 0.367325 0.370867 0.966284 0.162744 -0.199521
-0.167295 0.308439 0.398254 -0.744128 0.257764 0.616304
0.0504755 0.393582 0.356189 -0.252913 0.745183 -0.617039
-0.0103178 -0.294739 -0.32391 -0.256174 0.563428 0.785445
-0.143641 -0.208909 -0.149642 0.620067 0.614415 0.487863
0.0374828 -0.253209 -0.355183 -0.620067 -0.614415 -0.487863
-0.13191 -0.211789 -0.192052 -0.620067 -0.614415 -0.487863
-0.348472 0.0154885 0.112316 -0.252913 0.745185 -0.617037
-0.46245 0.00726524 0.167846 -0.744128 0.257764 0.616304
-0.0587777 -0.286927 -0.360514 -0.671167 0.324214 0.666649
0.0858634 0.379994 0.378345 0.962799 0.256577 -0.0847716
-0.465792 -0.174232 0.0297257 0.252913 -0.745185 0.617036
-0.310861 -0.158403 -0.0318426 -0.620067 -0.614415 -0.487863
0.0818599 0.343346 0.402609 -0.966326 -0.225828 0.123353
-0.392448 -0.0463919 0.0146026 0.6356 -0.352857 -0.686662
-0.519774 -0.142191 0.130105 -0.955759 -0.0934294 0.278918
-0.0175968 -0.26082 -0.40622 -0.252913 0.745185 -0.617037
-0.175031 -0.335587 -0.323841 -0.7359 -0.562204 -0.377331
-0.376199 -0.211905 -0.115785 -0.7359 -0.562204 -0.377331
0.0286769 -0.321178 -0.301191 0.252913 -0.745185 0.617037
-0.228148 0.24518 0.340392 -0.252913 0.745185 -0.617037
-0.105665 0.332761 0.379728 -0.939056 -0.342557 -0.0287962
0.0719504 -0.360402 -0.366299 0.252914 -0.745186 0.617035
-0.119485 0.198179 0.244635 -0.62671 0.359692 0.691272
0.0294741 0.295028 0.30732 0.62671 -0.359692 -0.691272
-0.38006 -0.113858 0.0311354 0.620067 0.614415 0.487863
0.0542222 0.29943 0.437837 0.252913 -0.745183 0.617039
0.0986299 -0.341245 -0.354099 0.252913 -0.745185 0.617037
-0.132507 0.272687 0.430569 0.744129 -0.257764 -0.616304
0.0452046 0.31905 0.331208 -0.644747 0.345694 0.68176
-0.0727536 -0.351497 -0.367812 -0.947081 -0.0603881 0.315264
-0.22843 -0.304077 -0.2264 0.7359 0.562204 0.377331
0.09082 -0.395808 -0.429364 0.737213 -0.264581 -0.621702
-0.3764 -0.123272 0.0713526 0.347787 -0.525114 -0.776724
0.0796741 0.3242 0.457318 0.252913 -0.745185 0.617037
-0.00528873 0.406516 0.394666 -0.252912 0.745185 -0.617037
-0.0168865 -0.25926 -0.35163 -0.209349 0.58051 0.786881
-0.206955 -0.194693 -0.118202 -0.620067 -0.614415 -0.487863
-0.285021 -0.125251 -0.0753088 0.620067 0.614415 0.487863
-0.386996 -0.0101778 0.110524 -0.62671 0.359692 0.691272
-0.413456 -0.0899638 0.0123623 -0.620067 -0.614415 -0.487863
-0.0459583 -0.245356 -0.37592 -0.252913 0.745185 -0.617037
-0.378838 -0.0448964 0.114017 0.62671 -0.359692 -0.691272
-0.387214 -0.0217583 0.0467272 0.774867 0.537908 0.332017
-0.345286 0.134802 0.255103 -0.252913 0.745185 -0.617037
0.0932616 -0.336249 -0.473847 0.833311 -0.156251 -0.530263
0.0901896 0.364034 0.433067 0.89287 0.425383 0.147755
-0.0702424 0.374643 0.482647 -0.589255 0.38719 0.709128
-0.0840663 0.161937 0.279248 0.252914 -0.745185 0.617036
-0.232786 0.198575 0.34049 0.744129 -0.257764 -0.616304
-0.0697759 0.34093 0.489558 0.252911 -0.745186 0.617036
-0.168329 -0.309241 -0.353692 -0.252913 0.745185 -0.617037
-0.529113 -0.0432903 0.0661496 -0.252918 0.745182 -0.617038
-0.0932308 -0.36028 -0.446113 -0.252913 0.745185 -0.617037
-0.141399 -0.321286 -0.379277 -0.252913 0.745185 -0.617037
-0.445807 -0.0529901 0.0695117 -0.252914 0.745183 -0.617038
0.106788 -0.324793 -0.386796 0.252914 -0.745184 0.617038
-0.54782 -0.0571199 0.0571157 -0.252914 0.745185 -0.617037
-0.00184899 -0.272283 -0.281171 -0.620067 -0.614415 -0.487863
-0.0994972 -0.389158 -0.379975 0.252913 -0.745185 0.617037
-0.43437 -0.0481088 0.0214967 -0.252913 0.745185 -0.617037
-0.0871218 0.372056 0.386592 -0.252914 0.745183 -0.617039
0.0624375 0.351123 0.343135 0.889137 -0.0723987 -0.451878
-0.178338 -0.179905 -0.142071 0.620067 0.614415 0.487863
0.0596965 -0.306386 -0.321787 0.446782 0.655652 0.608691
-0.044613 -0.379844 -0.46417 -0.569702 -0.630183 -0.52755
-0.216196 -0.185599 -0.0867821 0.620067 0.614415 0.487863
-0.0622304 -0.404933 -0.369949 -0.949494 -0.313612 0.0104382
-0.268031 0.0318558 0.196506 -0.62671 0.359692 0.691272
0.0412346 0.258123 0.337185 0.62671 -0.359692 -0.691272
-0.299407 -0.275968 -0.170103 -0.7359 -0.562204 -0.377331
-0.0962279 0.327483 0.433454 -0.947081 -0.0603896 0.315262
-0.0831059 0.394679 0.412266 -0.252915 0.745183 -0.617038
-0.290653 0.13824 0.320495 -0.744128 0.257764 0.616304
-0.518939 -0.0667323 0.0336691 -0.252906 0.745187 -0.617038
-0.161997 0.156093 0.206024 0.62671 -0.359692 -0.691272
-0.389029 0.0396595 0.242946 -0.744128 0.257764 0.616304
-0.021937 -0.217505 -0.302907 -0.252914 0.745184 -0.617037
-0.315524 0.0145999 0.14046 0.62671 -0.359692 -0.691272
-0.378394 -0.0944922 0.00462914 0.620067 0.614415 0.487863
-0.435173 -0.0934281 0.0461843 -0.769482 -0.541527 -0.338595
0.0854211 -0.327132 -0.331641 0.252914 -0.745185 0.617037
-0.11786 0.300252 0.460141 0.252913 -0.745185 0.617037
-0.0253628 0.227261 0.3833 0.252914 -0.745185 0.617036
-0.475596 -0.11081 0.0794452 0.869021 -0.105352 -0.483429
-0.0487057 0.240664 0.409054 0.252911 -0.745184 0.617038
-0.390481 -0.224499 -0.0618491 0.252913 -0.745185 0.617037
0.047374 0.330634 0.478327 0.252915 -0.745185 0.617035
-0.153717 -0.21434 -0.161123 -0.620067 -0.614415 -0.487863
-0.0246519 0.431806 0.442389 -0.0180393 0.634028 0.773099
-0.128985 -0.365353 -0.369293 -0.7359 -0.562204 -0.377331
0.00941222 0.420017 0.467902 0.225807 0.665623 0.711307
-0.309447 -0.247772 -0.152286 0.7359 0.562204 0.377331
-0.337585 -0.155551 -0.00146774 -0.620067 -0.614415 -0.487863
-0.417657 -0.0339008 0.0950703 -0.62671 0.359692 0.691272
0.0610509 -0.290447 -0.474236 -0.252914 0.745184 -0.617037
-0.424812 -0.0169661 0.202856 0.252912 -0.745185 0.617037
-0.357473 0.0489736 0.252511 0.744129 -0.257764 -0.616304
-0.379369 -0.0474225 0.0699277 0.745039 0.556879 0.367154
-0.278882 -0.260954 -0.192255 0.7359 0.562204 0.377331
0.0663568 -0.419994 -0.438073 0.478466 -0.457983 -0.749214
-0.174255 0.279413 0.37735 0.744128 -0.257764 -0.616304
-0.404883 -0.189167 -0.0534771 0.7359 0.562204 0.377331
0.0206335 0.246575 0.387772 0.252914 -0.745185 0.617037
0.0719091 -0.371599 -0.48294 0.579796 -0.393821 -0.713261
-0.264109 -0.294434 -0.211428 -0.7359 -0.562204 -0.377331
-0.0578907 0.295443 0.478975 0.252914 -0.745184 0.617037
-0.0334848 0.240174 0.278784 0.62671 -0.359692 -0.691272
-0.06411 -0.287493 -0.366151 -0.737214 0.26458 0.621701
-0.015972 -0.390222 -0.366273 0.252913 -0.745184 0.617038
0.0433986 -0.388181 -0.388144 0.252911 -0.745187 0.617035
-0.0430041 0.374455 0.371406 -0.252913 0.745186 -0.617035
0.0563115 -0.397292 -0.458222 0.435957 -0.481574 -0.760281
-0.265576 0.1767 0.310047 0.744128 -0.257764 -0.616304
0.112924 -0.361232 -0.384643 0.96747 0.190783 -0.166145
-0.191835 -0.292514 -0.323856 -0.252913 0.745185 -0.617037
-0.0333445 0.210385 0.316379 -0.62671 0.359692 0.691272
0.0734267 0.400684 0.421104 0.827965 0.496644 0.260419
-0.0218037 -0.291107 -0.441073 -0.252914 0.745186 -0.617035
-0.416675 -0.2098 -0.0333612 0.252913 -0.745185 0.617037
-0.363006 -0.144153 0.0239218 0.252913 -0.745185 0.617037
0.068849 0.266699 0.392312 0.252911 -0.745187 0.617035
-0.363416 -0.0841858 0.0864121 0.926288 0.370639 0.0679442
-0.374601 -0.0894761 0.0535868 0.705057 -0.294772 -0.644983
0.0636838 0.354805 0.345098 0.907041 -0.0392697 -0.419207
-0.511262 -0.0960017 0.0454647 0.0180327 -0.63403 -0.773098
-0.352131 -0.23162 -0.133351 -0.7359 -0.562204 -0.377331
-0.0577335 -0.274884 -0.406753 -0.252916 0.745182 -0.617039
-0.0835274 0.304465 0.351322 -0.713345 -0.574474 -0.401395
-0.413963 -0.118145 0.0827153 -0.828712 -0.495979 -0.25931
-0.0510942 -0.349218 -0.49327 -0.489012 -0.648768 -0.583068
0.0380583 -0.262403 -0.430944 -0.252912 0.745184 -0.617038
-0.227677 -0.279281 -0.293185 -0.252913 0.745185 -0.617037
-0.520017 -0.146875 0.12587 -0.96657 -0.222403 0.127588
-0.220055 0.123943 0.190659 -0.252914 0.745185 -0.617036
0.0239529 0.356308 0.322045 -0.252914 0.745184 -0.617037
0.0767359 -0.250635 -0.37854 0.706842 0.577798 0.408074
-0.081688 0.162928 0.275276 0.62671 -0.359692 -0.691272
-0.486012 -0.127469 0.0128208 0.7359 0.562204 0.377331
-0.261553 -0.136236 -0.106545 -0.252913 0.745185 -0.617037
0.0659379 0.379188 0.469438 0.645378 0.605084 0.46622
-0.348539 -0.239481 -0.0971341 0.252913 -0.745185 0.617036
0.0836878 -0.368473 -0.449331 0.767529 -0.233738 -0.59688
-0.0773804 -0.402544 -0.405206 0.252913 -0.745185 0.617037
-0.0169546 -0.404618 -0.457743 0.327678 0.666055 0.670073
-0.272758 -0.245279 -0.227554 0.7359 0.562204 0.377331
0.0110352 -0.230625 -0.318883 0.620067 0.614415 0.487863
-0.0582203 -0.380352 -0.337036 0.252913 -0.745186 0.617036
-0.0916807 -0.317135 -0.443864 -0.252913 0.745184 -0.617038
-0.332386 -0.221621 -0.180631 -0.252913 0.745185 -0.617037
-0.544585 -0.0962438 0.0577626 -0.252913 0.745185 -0.617037
-0.0299939 0.268877 0.344379 -0.221216 -0.665417 -0.71294
-0.0160911 -0.4343 -0.427665 -0.446786 -0.655652 -0.60869
-0.154997 0.273547 0.403056 0.744129 -0.257764 -0.616304
-0.12024 0.163814 0.261831 -0.62671 0.359692 0.691272
0.0126989 -0.233173 -0.385248 -0.252915 0.745185 -0.617036
-0.275277 -0.159142 -0.0761389 -0.620067 -0.614415 -0.487863
-0.196303 0.223124 0.398912 -0.744128 0.257764 0.616304
-0.195165 0.24447 0.366718 0.744129 -0.257764 -0.616304
-0.0941185 -0.228155 -0.188346 0.620067 0.614415 0.487863
-0.0087293 -0.364924 -0.33869 0.252914 -0.745185 0.617037
-0.314196 0.132544 0.294451 -0.744128 0.257764 0.616304
