ply
format ascii 1.0
comment Created by Open3D
element vertex 400
property double x
property double y
property double z
property double nx
property double ny
property double nz
end_header
-0.398116 0.283181 0.156895 -0.835551 0.519769 -0.17803
0.282559 -0.159421 -0.109878 0.732435 -0.377503 -0.566595
-0.199592 0.168129 0.211154 -0.656921 0.527111 0.539082
-0.342064 -0.0783889 0.340422 -0.325768 -0.258772 0.909347
0.249442 0.195619 -0.126777 0.801424 0.564096 -0.198786
0.365042 0.17663 -0.0978425 0.303791 0.514816 -0.80167
0.432068 -0.201925 -0.101004 0.866298 -0.447492 0.221987
-0.0212366 0.443906 -0.0767 -0.511573 0.305146 -0.80323
-0.313687 -0.257936 0.26407 -0.448656 -0.438483 0.778743
0.131496 0.478104 0.00345858 0.523852 0.437556 0.730837
-0.477783 -0.130205 0.0846103 -0.35765 -0.39437 0.846498
-0.138003 -0.297858 -0.0773216 0.4511 0.873535 0.182879
-0.472952 0.0556014 0.0393855 -0.941569 0.210667 -0.262806
-0.0273352 -0.404715 0.118633 0.339571 -0.355091 0.870977
0.162373 -0.00590926 -0.193835 -0.406172 0.307366 -0.860552
0.230539 -0.426313 -0.0870851 0.586965 -0.782925 0.206155
-0.442599 0.160452 0.174725 -0.343523 -0.0010819 0.939144
-0.134103 -0.119968 -0.0979802 -0.447283 0.340192 -0.827168
0.00156952 -0.227037 -0.309796 -0.254267 0.844258 0.47178
0.213373 0.400817 -0.165786 0.156776 0.757127 -0.634177
-0.425945 -0.0261746 0.150071 -0.287136 -0.319815 0.902924
0.421971 0.180255 0.0880539 0.867919 0.174647 0.464989
0.18217 0.253348 -0.123233 -0.424852 0.308823 -0.850958
-0.207245 0.270579 0.220876 -0.468338 0.319261 -0.823852
0.231077 -0.15911 -0.387957 0.176339 -0.12175 -0.976771
-0.22407 -0.233443 0.282344 0.363047 -0.32969 0.871493
0.00353453 -0.177922 0.0548083 0.446373 -0.308886 0.839845
-0.157228 0.342179 0.289422 -0.640375 0.741457 -0.200404
0.312376 0.0871303 -0.347208 0.37468 0.218942 -0.900932
-0.156583 0.326641 0.0320827 0.285227 -0.842263 -0.457426
-0.159275 -0.0494735 0.171614 0.457671 -0.308373 0.833932
0.310235 0.224371 -0.0836684 0.823965 0.537077 -0.18064
-0.358634 0.0337629 0.224323 -0.912811 0.298083 -0.279145
0.248469 0.373315 0.0735901 0.00783278 0.84968 -0.527241
0.485474 0.132952 -0.03484 0.911714 0.054427 0.407205
0.354059 0.267618 -0.0299394 0.159368 0.703614 -0.69248
-0.111978 0.36209 -0.0188794 0.126093 -0.876534 -0.464531
0.0500174 0.236416 0.182987 -0.0261748 -0.94285 -0.332187
0.210717 0.382415 0.225762 0.532149 0.420867 0.734635
0.180589 -0.151754 -0.253611 0.635422 -0.508401 -0.581178
0.0193212 0.303889 0.141627 0.0209537 -0.918314 -0.395298
0.187737 0.105891 0.0518334 0.454216 -0.315052 0.833325
0.274386 0.0298525 -0.154186 -0.44442 0.322596 -0.835717
0.140189 0.359266 0.282553 0.381083 0.439248 0.813533
-0.303845 -0.168059 0.322386 -0.392658 -0.333438 0.857111
0.135209 -0.304441 -0.0861763 -0.28248 0.855012 0.434925
0.0832398 -0.297864 -0.365936 -0.0773981 -0.308602 -0.948037
-0.134981 -0.21344 0.0991699 0.446095 -0.310293 0.839474
0.282689 -0.241372 -0.0348687 -0.647603 0.599752 0.470009
0.0465435 0.0918979 0.0260504 -0.370263 -0.915626 -0.156633
-0.301773 0.0940279 0.376386 -0.254458 0.0183054 0.96691
-0.391731 0.0128941 0.322538 -0.941059 0.266637 -0.208115
0.171213 -0.187691 -0.181887 -0.428094 0.305637 -0.850483
-0.243896 -0.153668 -0.0379954 -0.432102 0.312067 -0.84611
-0.491469 0.0711185 0.123768 -0.921323 0.260317 -0.288788
-0.0883122 0.325494 0.355559 0.0335139 0.354394 0.934496
-0.203582 0.228205 0.380402 -0.0326242 0.158408 0.986835
0.174397 -0.269966 -0.373251 0.0697728 -0.266799 -0.961223
-0.450623 0.19024 0.163633 -0.791525 0.302841 0.530824
-0.343288 0.0890077 0.0574734 0.860001 -0.136507 -0.491696
-0.0723401 -0.4079 -0.171152 0.213954 -0.888493 0.40596
-0.318117 -0.349961 0.133947 -0.813925 -0.279305 -0.509425
-0.210227 -0.148751 0.299091 0.893606 0.247486 -0.374459
-0.151744 0.469386 0.0791511 -0.498004 0.827468 -0.2594
-0.380522 -0.337043 -0.0768294 -0.769777 -0.31808 -0.553416
-0.0502436 -0.41013 -0.29019 -0.330716 -0.401912 -0.85387
-0.127755 -0.0421201 -0.0732112 -0.411015 0.256398 -0.87483
0.390001 0.128659 -0.238681 0.945224 -0.0350494 0.324536
-0.206452 0.23291 0.380175 -0.122893 0.211451 0.969632
-0.0845738 -0.0416543 0.0510653 0.89787 0.304365 -0.318106
0.17917 -0.0939091 -0.0163588 0.473474 -0.293408 0.830502
0.013942 0.180019 -0.0630582 -0.481079 0.27914 -0.83105
0.258602 -0.372798 -0.0161659 0.423179 -0.314397 0.849749
0.153788 0.0225027 0.0521521 0.380269 -0.327887 0.864804
0.456714 -0.122508 -0.0572367 0.919514 -0.307736 0.244526
0.100707 0.175345 -0.0960765 -0.423051 0.305913 -0.852904
-0.114177 0.124245 -0.0181577 -0.424596 0.314405 -0.849039
-0.134891 0.224992 0.214921 0.499372 -0.674117 -0.544237
0.273476 0.341846 -0.212216 0.256969 0.641259 -0.723017
-0.137801 -0.311089 0.179243 0.585831 0.810122 -0.0224653
-0.0726472 -0.50416 -0.0272343 -0.250021 -0.943435 -0.21776
0.319193 -0.147393 -0.261173 0.812854 -0.521051 0.260335
-0.329213 -0.0943192 0.0360368 -0.851607 -0.405882 0.3317
-0.0134461 -0.327864 -0.3419 -0.19433 -0.373046 -0.907233
0.229092 0.246311 0.0478817 -0.600576 -0.7993 0.0207031
-0.249128 0.255969 0.290115 -0.712979 0.632392 -0.302889
-0.248955 -0.194066 0.128355 -0.811692 -0.541856 0.218056
-0.281206 -0.332399 0.217388 -0.215539 -0.672968 0.707571
0.135389 0.30792 0.00673449 -0.381205 -0.920477 -0.0860465
0.240954 0.290845 -0.269228 0.302443 0.56859 -0.765006
-0.404133 -0.214045 0.0554241 -0.284354 -0.571446 0.7698
-0.351067 -0.279503 0.165932 -0.871043 -0.168001 -0.461584
0.042828 0.366695 -0.111244 -0.371349 -0.916819 -0.146775
-0.248583 -0.00619661 0.242688 0.888975 -0.131028 -0.43881
-0.0925146 -0.341004 0.122742 0.507162 0.857074 0.0906101
0.104177 -0.436045 0.0384968 0.452631 -0.316535 0.833625
0.461834 0.0147269 0.0222158 0.943455 -0.0830986 0.320917
-0.0939329 0.440944 0.134445 0.191217 0.421517 0.886431
-0.119237 0.185992 0.284913 0.53685 -0.679459 -0.500127
-0.40619 0.242332 0.0925477 -0.823598 0.511957 -0.244103
-0.290891 0.223788 0.355753 -0.64703 0.566378 0.510458
-0.0802859 0.287608 0.0300983 0.108197 -0.91331 -0.392631
0.362278 0.108788 -0.16224 0.927352 -0.0399108 0.372056
-0.117194 0.189294 0.0215253 -0.47945 0.322661 -0.816099
-0.330312 -0.266968 -0.183508 -0.438943 0.320253 -0.839504
0.483055 0.0583666 -0.0345428 0.957543 -0.0300301 0.286724
0.167637 -0.292259 -0.204112 0.428489 -0.76185 -0.48578
0.164585 -0.405126 -0.159565 -0.121255 -0.356749 -0.926298
0.43116 -0.0676139 -0.16872 0.283349 0.207412 -0.936319
-0.0483908 -0.095144 0.00421082 0.575357 0.817856 0.00874845
-0.196035 0.414057 0.000261596 -0.436624 0.31805 -0.841548
0.250288 -0.0755006 -0.048608 0.406171 -0.273618 0.871871
0.473925 -0.129633 -0.146185 0.847754 -0.204483 -0.489388
-0.209545 0.149503 0.138797 -0.442145 0.361118 -0.821037
0.161125 0.242715 -0.018107 -0.418162 0.283454 -0.863015
0.251538 -0.21262 -0.213511 0.656037 -0.51964 -0.547348
0.0307888 0.107878 -0.100478 -0.418646 0.295421 -0.858756
0.250066 0.0399441 -0.238636 -0.533096 0.267972 -0.802496
-0.439571 -0.165114 -0.0593889 -0.914979 -0.167927 -0.366899
0.366802 0.232198 -0.182156 0.911061 0.11747 0.395182
-0.0551977 -0.281109 -0.0539823 0.218837 0.948329 0.229744
-0.350852 -0.145012 0.11511 0.431695 -0.299939 0.850691
0.322836 0.309916 -0.124147 0.840648 0.212198 0.49828
-0.418864 -0.0805547 -0.0672831 -0.428442 0.301949 -0.851624
0.0310988 -0.272435 -0.097893 -0.0488981 0.919032 0.391138
0.197208 -0.31284 -0.299567 0.64352 -0.722815 0.251834
-0.0622468 0.394621 0.274144 -0.505497 0.827304 -0.245033
-0.0681918 0.489967 0.0336176 -0.344376 0.876756 -0.335713
-0.197974 -0.125765 0.163581 0.408859 -0.266725 0.87275
-0.0821087 -0.257586 0.0539733 0.355285 -0.325066 0.876416
-0.252817 -0.12969 0.0597975 0.901567 0.375984 -0.214041
-0.172712 0.133096 0.278396 0.687537 -0.490637 -0.535321
-0.245503 -0.0504019 0.360238 0.371514 -0.292302 0.881213
-0.316476 0.343171 0.0516983 -0.677843 0.698856 -0.228319
0.0648397 -0.179286 -0.343927 -0.4229 0.717302 0.553745
-0.296791 0.265307 -0.00321679 -0.401815 0.275085 -0.873426
-0.0550198 -0.0440917 0.137537 0.448339 -0.326483 0.832107
-0.212678 0.0619235 0.279938 0.788247 -0.330496 -0.519076
-0.257196 -0.0180962 0.0158062 -0.405869 0.270331 -0.873036
0.404541 -0.154512 -0.0107901 0.455646 -0.328037 0.827513
0.212339 0.0168262 0.00581131 0.44959 -0.318343 0.834582
-0.451468 0.145197 0.075499 -0.882412 0.387953 -0.266161
0.0124136 0.39224 0.311517 0.225436 0.405459 0.885879
-0.0342924 0.360515 -0.0124486 -0.101724 -0.958381 -0.266754
0.19917 -0.307394 -0.0347609 -0.386712 0.808784 0.443084
-0.0779861 -0.26324 -0.247255 0.10679 0.93935 0.32591
0.0993599 0.0694276 -0.147634 -0.435912 0.315198 -0.842989
-0.248903 -0.376434 0.0509401 -0.686644 -0.312252 -0.65652
-0.355117 0.109236 0.195724 -0.27024 -0.066407 0.9605
-0.252942 -0.226887 -0.1863 0.490443 0.867981 0.0779421
0.305787 -0.0666536 -0.126591 0.859871 -0.147793 -0.488651
-0.151921 -0.39567 -0.112397 0.0771114 -0.876204 0.475731
0.199959 0.0841162 -0.179138 -0.406215 0.299384 -0.863342
-0.0171202 0.461688 0.0970867 0.345513 0.4113 0.843477
-0.233761 -0.369882 -0.0664145 -0.0836624 -0.816645 0.571044
0.0430474 0.406791 0.102559 0.430701 0.436166 0.790099
0.362812 0.197728 -0.285013 0.244203 0.510493 -0.824477
0.387587 0.0102606 -0.333531 0.888655 -0.0486682 -0.455986
-0.501897 -0.03736 0.0934997 -0.951148 0.116739 -0.285814
-0.214237 -0.257272 -0.0613111 -0.607534 -0.79379 -0.028278
0.245168 -0.276405 -0.340664 0.715547 -0.65793 0.234779
0.369292 -0.0819709 -0.344696 0.835894 -0.272588 -0.476421
0.0460466 0.501827 -0.00211097 -0.178969 0.897996 -0.401962
-0.280827 -0.0584226 0.181279 -0.905049 -0.0927282 0.415075
0.0585015 -0.278365 -0.187504 0.265379 -0.83728 -0.478055
-0.395649 -0.240896 -0.105951 -0.817169 -0.335662 -0.468579
-0.429968 0.0661388 0.168932 -0.32531 -0.152392 0.933247
0.0488007 -0.408014 -0.284341 0.419056 -0.840655 0.343061
-0.0195715 0.259103 0.360534 0.456647 -0.301906 0.836855
0.278576 0.213603 0.187195 0.441609 -0.32428 0.836555
-0.0054216 0.398946 0.210963 -0.302721 0.874967 -0.37788
-0.112778 0.35259 0.230778 -0.488019 0.827309 -0.278204
-0.0560456 -0.341467 0.00881186 0.26483 0.94062 0.212365
-0.0192755 -0.460643 -0.0821499 -0.407034 -0.438349 -0.801357
0.226521 0.191955 -0.205752 -0.83299 -0.485933 0.264568
0.121587 0.399231 0.125743 -0.106152 0.878137 -0.466484
-0.317824 -0.223146 0.0692694 0.470633 -0.310149 0.826022
0.00999989 0.0756335 0.0963786 0.151054 -0.892005 -0.426041
0.429853 0.00160637 -0.153248 0.338643 0.244493 -0.908594
-0.187479 0.00174291 0.34891 0.831169 -0.176787 -0.527166
0.0917764 -0.179937 -0.00600873 0.442135 -0.332144 0.833185
-0.293953 0.278996 0.194157 -0.113415 0.208541 0.971415
0.0684459 -0.275978 -0.026883 0.393216 -0.247987 0.885372
0.0551015 -0.489307 -0.0234569 0.291536 -0.887754 0.356229
0.293641 -0.210694 -0.362839 0.689731 -0.485041 -0.537594
-0.0897797 -0.454851 0.101945 0.0466097 -0.869492 0.491742
-0.123242 0.0654038 0.196943 0.368019 -0.301138 0.879703
0.121426 0.256186 0.284808 0.432112 -0.311056 0.846477
-0.371183 -0.0628639 0.153652 0.384407 -0.318104 0.866626
-0.455766 -0.239366 -0.00469196 -0.88431 -0.159118 -0.43895
0.301639 0.387117 -0.153475 0.744702 0.655594 -0.124958
0.217765 -0.119406 -0.152647 -0.728779 0.390856 0.56224
0.00661001 -0.466379 0.0590835 0.171299 -0.896807 0.407914
-0.00114045 0.278366 0.207916 -0.110265 0.911763 0.395639
-0.232229 -0.07426 0.277417 0.868566 0.104817 -0.484362
0.0745303 0.269876 -0.0495991 -0.437624 0.312529 -0.843096
-0.208909 -0.430267 -0.181535 -0.308585 -0.940142 -0.144599
0.0302375 -0.0716441 -0.0725148 -0.421923 0.744443 0.517481
-0.208385 -0.460659 0.0891513 -0.120125 -0.79886 0.5894
0.0438516 0.333755 -0.0218316 -0.391019 0.278434 -0.877256
0.3481 -0.33218 -0.174923 0.558961 -0.661887 -0.499468
0.310164 -0.365374 -0.101558 0.695513 -0.688313 0.206124
0.258492 0.376934 -0.0613649 0.738834 0.312793 0.596896
0.0553353 0.46408 0.062145 0.451878 0.444706 0.773332
-0.245089 0.0756401 0.178034 0.539018 -0.323119 0.777852
-0.152305 -0.318043 -0.290781 -0.429547 0.313602 -0.846843
-0.0500152 -0.0501862 0.132292 0.389894 -0.304329 0.869118
-0.185521 -0.276075 0.107366 -0.709595 -0.70325 0.0437512
0.185147 0.240215 -0.250608 -0.757132 -0.624957 0.190211
-0.144931 0.315927 0.178426 -0.339132 0.844711 0.414069
0.256477 -0.307082 -0.19407 0.0423594 -0.238394 -0.970244
0.147817 -0.176724 -0.395016 -0.482237 0.304314 -0.821487
-0.0154447 0.331366 0.067474 0.0217576 0.929099 0.369192
0.169962 0.159474 -0.137241 -0.402239 0.309859 -0.861505
-0.223985 -0.078082 -0.0259027 -0.460476 0.352479 -0.81469
0.250453 -0.0440926 -0.390315 0.28067 -0.033738 -0.959211
0.317419 -0.00200791 -0.362984 0.30461 0.122389 -0.944581
0.338845 -0.31381 -0.0426798 0.73116 -0.647761 0.214036
-0.279638 -0.209269 -0.0915896 0.660365 0.748478 -0.0608152
-0.0509051 0.0438971 0.0858245 0.659966 -0.546124 -0.51594
0.385197 0.0385387 0.0571174 -0.872084 -0.326005 0.364952
-0.363319 -0.201747 0.167856 -0.914252 -0.0840434 -0.396333
0.463689 -0.0630271 -0.0185758 0.92172 -0.244636 0.300974
0.44323 0.157582 -0.0831879 0.329073 0.473815 -0.81683
-0.194171 0.147069 0.0451777 -0.495725 0.312061 -0.810478
0.446444 0.100037 0.0603708 0.900983 0.0435242 0.431666
0.394863 -0.254782 -0.0801206 0.778559 -0.523866 0.345559
0.0990953 -0.0703808 -0.00364834 -0.686639 0.525944 0.501907
-0.0521874 -0.2353 -0.183412 0.0112839 0.941591 0.33657
-0.143627 -0.486547 0.0490126 -0.0287483 -0.850712 0.524845
0.275186 0.408055 0.15289 0.427407 0.894039 0.134229
0.352391 0.311954 -0.209047 0.778729 0.594046 -0.201717
0.0913235 -0.0271915 -0.180863 -0.414043 0.291698 -0.862253
0.157336 0.286038 0.073304 -0.363389 -0.920945 -0.140746
0.347642 0.18448 0.142177 0.45185 -0.314315 0.834888
0.113428 -0.240224 -0.121588 0.443072 -0.325805 0.835188
0.118156 -0.175829 -0.297933 -0.520903 0.686688 0.50707
0.291991 0.247742 -0.281322 0.303345 0.515225 -0.801577
0.0936893 -0.35488 -0.203625 0.435827 -0.843031 0.315205
-0.36757 0.219952 0.191956 -0.192568 0.0922125 0.976941
0.407524 -0.182789 -0.182705 0.273236 -0.0579367 -0.960201
0.497395 -0.0309244 -0.112966 0.952892 -0.18607 0.239531
-0.262992 -0.294275 0.0400362 -0.475067 0.325827 -0.817403
0.0024069 -0.468039 0.0547742 0.104975 -0.87541 0.471845
0.035275 0.232606 0.320959 0.216588 -0.853023 -0.474807
0.0058382 -0.335712 -0.0499364 -0.0699315 -0.942637 -0.326412
0.0538881 0.447985 -0.106906 -0.0708683 0.875789 -0.477463
0.211442 0.25484 0.129802 -0.513055 -0.857632 -0.0352402
0.0589515 -0.284851 -0.367914 -0.0789889 -0.283434 -0.955733
0.303831 0.179359 0.062342 -0.773571 -0.618826 0.136535
0.263186 0.088207 0.00709451 0.422694 -0.313782 0.850218
-0.168914 0.220201 0.0594211 -0.407112 0.267703 -0.873267
0.30206 0.16233 -0.325677 0.264259 0.406374 -0.874659
-0.134578 0.0395568 -0.0299506 0.872439 -0.0913839 -0.480104
-0.00987292 -0.13633 -0.154445 -0.46131 0.322049 -0.826727
0.224701 0.188873 -0.297998 -0.374782 0.330489 -0.866208
0.226771 0.177999 -0.0362191 -0.768744 -0.616863 0.168857
-0.250762 0.39719 0.166571 -0.0273181 0.303602 0.952407
-0.176425 0.319797 0.360174 -0.0861845 0.307503 0.947636
-0.33245 0.359792 0.149326 -0.674601 0.685659 -0.273468
-0.248991 0.344794 0.0010428 -0.4408 0.331172 -0.834278
0.0419298 0.311638 0.340985 0.249414 0.481168 0.840399
-0.20209 -0.368498 -0.236648 -0.452001 -0.450008 -0.770187
-0.390993 -0.00780567 -0.0456527 0.903675 0.186568 -0.385439
-0.147093 -0.416363 -0.0270409 -0.619055 -0.422249 -0.662176
-0.390093 -0.116944 0.237021 -0.953049 0.0761933 -0.293073
-0.479223 -0.108712 0.0127847 -0.937955 -0.021165 -0.34611
-0.0250216 -0.303353 -0.348881 -0.185285 -0.413754 -0.891334
0.0574951 0.414414 0.186754 -0.267451 0.89969 -0.345004
0.266131 -0.227993 -0.265938 0.761314 -0.603181 0.23785
0.172854 0.168789 0.0835557 0.501928 -0.352826 0.789672
0.254987 0.315977 0.228833 0.569822 0.439926 0.694095
0.133506 0.44232 0.220751 0.153836 0.943874 0.292294
-0.390035 -0.204521 0.260344 -0.900358 -0.299303 0.31587
-0.146776 -0.272646 -0.180943 0.253606 0.94547 0.204381
0.0841678 -0.147362 -0.205664 -0.386241 0.281357 -0.87844
0.214181 0.329387 0.0133435 0.510027 0.856727 0.0767576
-0.337547 0.19729 0.00562813 0.747938 -0.41574 -0.517444
-0.136547 -0.429561 -0.242527 -0.450251 -0.477008 -0.75481
0.401255 -0.0731716 0.0213187 0.462727 -0.341226 0.818199
0.383762 0.0305361 -0.251259 0.921688 -0.213414 0.323953
0.473687 0.0676569 -0.113614 0.366087 0.302207 -0.880143
0.109468 0.376883 -0.169109 -0.428983 0.310869 -0.848135
0.148749 -0.0913666 -0.219009 -0.439277 0.347048 -0.828609
-0.289822 -0.181642 0.318424 -0.274302 -0.478032 0.834412
0.332842 0.372957 0.0850008 0.189728 0.76252 -0.61852
0.126242 -0.368767 -0.333089 0.396398 -0.772384 -0.496278
-0.459138 0.0616187 0.00940261 -0.95738 0.18235 -0.223989
0.160731 -0.45205 -0.0381357 0.486747 -0.831237 0.268556
-0.19778 -0.246266 0.183845 0.748332 0.647753 -0.142885
-0.263783 -0.395477 -0.171901 -0.602472 -0.416772 -0.680683
-0.0386604 0.224046 -0.00438562 -0.437445 0.310472 -0.843948
-0.348197 -0.00670862 0.0521342 -0.884797 -0.149989 0.441178
-0.284079 0.0138027 0.378309 -0.30887 -0.0407166 0.950232
0.150627 -0.0975517 -0.367321 -0.538157 0.392847 -0.745693
-0.285231 0.177716 0.20055 -0.69356 0.422898 0.583209
0.117987 -0.489918 -0.0881212 0.406097 -0.873485 0.268532
0.0633841 0.281737 0.0449213 -0.366738 0.266251 -0.891411
-0.292381 0.125938 0.122973 0.788507 -0.304703 -0.534241
0.387887 0.267138 0.101322 0.796342 0.284174 0.533933
0.114833 0.46504 -0.0840699 -0.0572884 0.883928 -0.4641
0.0217557 -0.370064 0.0480114 0.155032 0.933934 0.322074
0.138213 0.307483 -0.203685 -0.745427 -0.658363 0.104386
-0.250827 -0.39908 0.160098 -0.173144 -0.742697 0.646856
0.374212 -0.251943 -0.187825 0.195228 -0.132001 -0.971834
-0.149606 0.207038 0.138348 0.481855 -0.697871 -0.529897
-0.386942 -0.203614 0.271266 -0.306151 -0.484253 0.819616
0.183633 -0.181158 -0.0511617 0.403698 -0.296809 0.865409
-0.305962 0.0147159 0.136246 -0.899026 0.0764091 0.431177
0.357542 -0.0430081 -0.185656 -0.441371 0.342653 -0.829325
-0.352683 -0.140757 -0.124907 -0.434507 0.312104 -0.844864
0.0107619 -0.244883 0.0125592 0.421147 -0.295096 0.857644
-0.206059 -0.26031 -0.243879 -0.44576 0.316728 -0.837246
0.0877939 -0.351087 -0.0109023 -0.00230766 0.961008 0.27651
0.463445 0.218867 -0.0203701 0.822372 0.522018 -0.226278
-0.21926 0.0941418 0.3976 -0.212111 0.0526876 0.975824
-0.385838 0.118274 -0.0124243 -0.432135 0.311911 -0.84615
0.416039 0.298365 0.0320541 0.721076 0.68286 -0.117268
-0.0582609 0.231163 0.270518 0.302467 -0.880882 -0.364089
0.324127 -0.129453 -0.246172 0.862076 -0.448647 0.235672
-0.0439491 0.154485 0.189004 0.381848 -0.257556 0.887613
-0.142402 0.398081 0.159454 0.107315 0.36668 0.924137
-0.0465742 0.129171 -0.0488127 0.0285363 -0.924951 -0.379013
0.226136 0.0613267 -0.348503 -0.463998 0.352641 -0.81262
-0.385913 0.120327 -0.0115279 -0.37191 0.314855 -0.873241
-0.343836 -0.00264299 0.0576842 -0.908751 -0.0822497 0.409154
-0.166848 -0.423679 0.144606 -0.134369 -0.781908 0.608741
-0.0643497 -0.07523 -0.119922 -0.433682 0.312207 -0.84525
0.0430903 -0.117819 0.0186158 -0.141016 0.948159 0.284797
-0.278969 -0.303091 -0.215499 -0.607435 -0.399053 -0.686862
-0.144143 0.0328168 0.193559 0.351491 -0.352508 0.86729
0.328354 0.30344 0.164274 0.705818 0.393067 0.589338
-0.114096 -0.216817 -0.130143 -0.436861 0.314278 -0.842842
-0.109027 0.248635 0.381366 -0.0586633 0.325287 0.943794
-0.227997 0.236922 0.104738 0.529371 -0.670723 -0.519516
0.256881 -0.0547027 -0.21371 0.829983 -0.235164 -0.505793
0.0118635 -0.218867 -0.210791 -0.453254 0.320681 -0.8317
-0.0312431 0.0727709 0.166154 0.449767 -0.321309 0.833349
-0.257352 -0.219855 -0.00128537 0.727767 0.678193 -0.102025
0.223543 -0.231668 -0.115804 -0.556506 0.594134 0.58078
0.251885 0.104354 -0.102385 -0.858209 -0.387926 0.336141
0.163457 -0.4042 -0.161084 -0.103803 -0.369703 -0.923333
-0.10943 0.450917 -0.0293666 -0.35573 0.875754 -0.326359
0.277737 -0.391136 -0.168435 0.0584539 -0.310118 -0.948899
-0.378725 -0.0310985 0.244055 -0.923917 0.189506 -0.332362
-0.274647 -0.0495451 0.0967837 -0.438474 0.315906 -0.841394
-0.049707 -0.38966 -0.10593 -0.395726 0.303161 -0.866888
0.19851 0.41781 0.148599 -0.0811678 0.881145 -0.465827
0.380843 0.0983892 -0.318202 0.370513 0.270997 -0.888415
-0.0930156 0.309478 0.101937 -0.222462 0.862699 0.454159
0.0194003 -0.388532 -0.192069 0.327191 -0.87224 0.363517
0.325195 -0.158628 -0.0514381 -0.791037 0.332581 0.513469
0.26128 -0.0447988 -0.209783 -0.837897 0.163415 0.520793
0.212666 0.242708 0.227462 -0.374445 -0.915984 -0.1441
0.379653 0.111996 0.0998427 0.471869 -0.310647 0.825129
-0.124426 -0.43572 -0.244123 -0.446775 -0.455126 -0.770229
0.116486 0.324831 -0.0689848 -0.491915 -0.867976 -0.0680973
0.0143 -0.0406165 -0.146443 -0.433087 0.28603 -0.854764
0.159798 -0.361619 0.0359427 -0.211416 0.891543 0.400568
0.307284 -0.131179 -0.374777 0.205181 0.0209225 -0.9785
0.322591 0.0385959 -0.0900051 0.904596 0.129006 -0.40628
0.0897015 -0.234904 -0.241434 -0.351598 0.838777 0.41573
0.347494 0.069852 -0.0165105 -0.894229 -0.301888 0.330481
-0.254202 -0.144006 0.0510995 -0.472444 0.330106 -0.817206
-0.0823927 0.250305 0.159733 0.38889 -0.276766 0.878729
0.0668151 0.00304959 -0.095988 -0.85347 0.202698 0.480107
-0.320175 -0.150293 -0.0324423 0.858438 0.489528 -0.153123
0.1747 0.426024 -0.139641 0.128982 0.771684 -0.622791
-0.192659 -0.308047 0.239812 0.431373 -0.309231 0.847522
0.0988239 0.0290564 -0.0187876 -0.870084 -0.379327 0.314746
-0.0485488 0.0951623 0.0227735 0.323432 -0.81732 -0.476843
-0.0318667 -0.307458 -0.128816 -0.0586498 -0.966381 -0.250334
-0.153198 -0.297803 0.00317178 -0.564745 -0.824592 -0.0333398
-0.192613 0.00223765 -0.0236636 -0.445534 0.313736 -0.838492
0.0686328 -0.419388 -0.135778 -0.277705 -0.450685 -0.848389
0.301296 0.145601 -0.0470715 -0.894382 -0.377037 0.240676
-0.287814 0.207839 0.0674864 0.694949 -0.495763 -0.520831
0.153502 0.274858 0.162835 -0.281741 -0.938281 -0.200627
0.207711 -0.0507038 -0.295874 -0.81047 0.282424 0.5132
-0.0509022 0.352919 0.161866 -0.146321 0.881531 0.448879
-0.32306 -0.372025 -0.126576 -0.679994 -0.408475 -0.608898
0.336225 0.376182 0.0914709 0.631194 0.775456 0.0162097
-0.11558 0.146428 0.366912 0.436735 -0.314276 0.842908
-0.189434 -0.219287 0.0410278 0.440447 -0.325552 0.836673
0.458921 0.231607 -0.00751648 0.836224 0.506805 -0.209472
0.165173 0.391461 0.0296114 0.5605 0.321324 0.763276
-0.0886234 -0.132535 0.120109 0.400921 -0.329206 0.854919
-0.251777 0.401813 0.0617808 -0.64281 0.73765 -0.206562
-0.36185 -0.156164 -0.126946 -0.424372 0.303096 -0.853253
-0.359573 0.0896022 0.307873 -0.898273 0.377548 -0.224861
-0.469714 -0.0399004 -0.0066543 -0.931785 0.0661276 -0.356937
0.232137 0.116894 -0.263743 -0.930031 -0.1793 0.320771
0.35526 -0.0372766 -0.0410982 -0.863048 -0.0383738 0.503662
-0.216725 0.0959288 0.397837 -0.214825 0.0597465 0.974823
0.0859186 0.0658052 0.102657 0.417464 -0.324267 0.848867
-0.391421 -0.298241 -0.00991288 -0.212902 -0.692544 0.689243
0.0537851 0.133793 0.143198 0.435526 -0.312531 0.844181
-0.342088 -0.0707331 0.341362 -0.356718 -0.202251 0.912057
0.218574 -0.240911 -0.108945 0.557259 -0.638453 -0.530887
0.210277 0.45113 -0.0520208 0.644523 0.476951 0.597585
