ply
format ascii 1.0
comment Created by Open3D
element vertex 400
property double x
property double y
property double z
property double nx
property double ny
property double nz
end_header
-0.119999 -0.198025 -0.0878143 -0.47184 -0.26629 -0.84051
-0.0599831 -0.329755 -0.0822782 -0.474659 -0.239351 -0.847001
0.259316 -0.22632 -0.248894 -0.216564 0.963728 -0.155975
-0.350461 0.293871 0.270377 0.587206 0.654702 -0.475978
0.060991 -0.507084 -0.0283729 -0.121901 -0.935869 0.330589
0.114853 -0.201687 0.203354 0.548301 0.207037 0.810248
-0.50738 0.0254613 0.0735737 -0.53591 -0.680618 0.499558
-0.461072 0.0873745 0.203724 -0.575263 -0.66044 0.482588
0.254458 -0.0937899 -0.0478612 0.463181 0.263915 0.846057
-0.138133 -0.3051 0.0349307 -0.557691 -0.66593 0.495497
-0.406057 0.130115 0.32582 -0.518042 -0.688926 0.506965
-0.368778 0.0794883 0.297992 -0.533366 -0.691454 0.487251
0.180367 -0.243313 -0.0100413 0.470264 0.733337 -0.490988
-0.349031 0.112038 0.360809 -0.594435 -0.615304 0.517733
0.159411 -0.377043 0.0562123 -0.670871 -0.522795 0.525944
0.307745 -0.203864 -0.171058 -0.306043 0.947641 -0.0911861
0.332494 -0.22974 0.0853895 0.476899 0.243521 0.84455
-0.225289 0.121175 0.304176 0.441984 0.324271 0.83636
-0.189371 0.035909 0.307786 0.459014 0.234551 0.856908
-0.400965 0.239622 0.300834 -0.683395 0.70574 0.186821
-0.346238 0.137118 0.0672371 0.619211 0.621753 -0.479584
0.327997 -0.047768 -0.0215818 -0.688516 0.695338 0.206039
0.140601 -0.431786 -0.148366 0.685345 -0.701972 -0.193748
0.179481 -0.40979 -0.0848573 0.693174 -0.690896 -0.205359
-0.290202 0.00683776 -0.0500022 0.574907 0.62806 -0.524426
-0.222477 -0.254126 -0.0153189 -0.383586 -0.186729 -0.90443
-0.373037 0.131974 0.0250383 0.554354 0.664856 -0.500658
-0.578478 0.119533 0.0978159 -0.665189 0.735279 0.129958
0.411509 -0.150008 -0.259975 -0.51091 -0.285281 -0.810917
-0.111234 -0.318649 -0.0574861 -0.472739 -0.215205 -0.85452
-0.41713 0.24479 0.225639 -0.681506 0.708372 0.183736
0.0502531 -0.351378 -0.141163 -0.380166 -0.321457 -0.86726
-0.378287 0.251055 0.179682 0.548321 0.671267 -0.498743
0.438572 -0.113712 -0.223554 0.811068 0.247867 -0.52984
-0.134961 0.0207683 0.283901 0.395522 0.285426 0.87298
-0.3264 0.168795 0.347947 0.520287 0.218786 0.82549
-0.208037 -0.0484871 -0.0276587 0.550168 0.672743 -0.494703
0.279825 -0.0396197 -0.0782404 0.467543 0.237023 0.851601
0.101773 -0.377296 0.0786322 0.792425 -0.538507 -0.286484
-0.0067333 -0.358243 -0.106435 -0.451759 -0.222123 -0.864046
0.103237 -0.390484 -0.161986 -0.438186 -0.234081 -0.867871
0.405302 -0.0982119 -0.131058 0.460754 0.258514 0.849044
0.232957 -0.057401 -0.187898 -0.47784 -0.236468 -0.846021
0.0856466 -0.262038 -0.101307 -0.682054 0.70326 0.200567
-0.244338 0.0601487 0.331743 0.495658 0.234252 0.836331
-0.178 -0.265014 0.0414018 -0.585875 -0.636713 0.501345
0.172876 -0.351921 -0.210489 -0.371723 -0.23058 -0.899252
0.235854 -0.157474 0.0518183 -0.675512 0.716018 0.176073
-0.447393 0.202267 0.267413 -0.674332 0.719555 0.165882
-0.21284 -0.170584 0.0996 0.610589 -0.104511 0.785021
0.105952 -0.460611 0.0943602 -0.532715 -0.694702 0.483326
0.459835 -0.224937 -0.132482 0.767105 -0.606308 -0.209619
-0.0834132 -0.0245803 0.137819 0.550576 0.669695 -0.498371
0.302754 -0.276697 0.118748 0.421866 0.26469 0.867161
-0.35129 -0.0595993 0.131609 -0.534628 -0.682857 0.497875
-0.161746 -0.110425 0.0555674 0.673539 -0.010788 0.739073
0.0458345 -0.167326 0.230141 0.481768 0.233342 0.84466
-0.423841 0.259877 0.143612 -0.681853 0.706786 0.188495
-0.179688 -0.0354441 0.0165702 0.535407 0.685158 -0.49386
0.133865 -0.396845 0.00265252 -0.714661 -0.452618 0.533289
-0.210042 0.0176958 0.0524475 0.542493 0.67629 -0.49833
-0.195276 -0.0744799 0.285362 -0.542709 -0.67914 0.494203
0.20191 -0.118525 -0.0244498 -0.875162 0.182761 0.447983
-0.437072 0.123683 0.277804 -0.589614 -0.614808 0.5238
-0.0120536 -0.162999 0.264058 0.461946 0.21444 0.860594
0.332243 -0.0885255 -0.0491143 0.640434 -0.754913 -0.141243
-0.48075 0.199249 0.00442522 -0.515242 -0.182186 -0.837457
-0.0177945 -0.0508213 0.17417 0.554431 0.667199 -0.497446
-0.134572 -0.0806668 0.00412589 0.586484 0.640259 -0.49609
-0.0138735 -0.0440718 0.230586 0.471416 0.243208 0.847713
0.457913 -0.170031 -0.194176 0.879674 -0.193704 -0.43434
-0.384185 0.12921 0.105776 0.58987 0.636791 -0.496539
-0.00919286 -0.378965 0.0799406 -0.502211 -0.723058 0.474311
0.248287 -0.062281 -0.265365 0.549555 0.670746 -0.498085
-0.0499948 -0.194485 0.28173 -0.516386 -0.687114 0.511096
-0.387114 0.106655 -0.0201107 -0.458877 -0.228629 -0.858581
0.221521 -0.0952492 -0.225512 -0.631397 0.757213 0.167231
-0.397492 -0.0447661 0.0961887 -0.526764 -0.690401 0.495849
-0.273681 0.17407 0.191732 0.56055 0.656062 -0.505337
-0.377326 -0.016337 0.156552 -0.543367 -0.701883 0.460557
-0.293132 -0.104755 0.134579 -0.484802 -0.702295 0.521296
-0.461769 -0.00614518 0.0513747 -0.436968 -0.259529 -0.861222
0.0396204 -0.287876 -0.146809 -0.465209 0.884865 0.0243954
0.124462 -0.477866 -0.0391441 0.671613 -0.725893 -0.148377
0.408732 -0.0684071 -0.233852 0.675148 0.516885 -0.526313
-0.310331 -0.0597525 0.175521 -0.539679 -0.676121 0.501605
0.397182 -0.252282 -0.224388 -0.484123 -0.229291 -0.844423
-0.00462752 -0.242226 0.268824 -0.54336 -0.67959 0.492868
0.176872 -0.125319 -0.271061 -0.680172 0.718663 0.144533
-0.282093 -0.138363 -0.0121767 -0.469566 -0.209567 -0.857665
-0.447217 0.00290289 0.107353 -0.551801 -0.668699 0.498355
0.391392 -0.0186165 -0.187658 0.456085 0.757814 -0.466587
-0.270796 0.0420471 0.0205537 0.521674 0.683463 -0.510622
-0.125314 -0.0929852 0.159863 -0.113823 -0.533817 -0.837904
-0.342078 -0.0783317 0.00447293 -0.472157 -0.234772 -0.849676
-0.0953543 -0.305222 0.0683165 0.506825 0.198481 0.838888
-0.292893 -0.0793682 -0.0250566 -0.517659 -0.226337 -0.825107
0.289822 -0.178719 -0.274406 -0.871662 -0.00475716 0.490084
-0.296179 0.0292758 0.312867 -0.56313 -0.656985 0.501254
-0.122076 -0.205633 0.0549146 0.461313 0.282476 0.84107
0.164638 -0.284252 -0.0993339 0.519855 0.231519 0.822284
0.0599073 -0.392541 0.134599 -0.583179 -0.659962 0.473659
-0.220441 -0.113609 -0.0550548 -0.499099 -0.218711 -0.83849
-0.291451 0.0709669 0.35602 0.455898 0.24755 0.854913
0.448509 -0.0659755 -0.0236374 0.479582 0.234966 0.845454
-0.513418 0.0945996 0.156185 -0.579781 -0.640106 0.5041
0.262493 -0.306625 -0.173349 0.691748 -0.689696 -0.214018
0.138938 -0.356064 0.130507 0.720372 -0.666904 -0.190532
0.283461 -0.138877 -0.324194 0.50687 0.700997 -0.501683
-0.177742 0.0809128 0.173206 0.532765 0.694022 -0.484247
0.0477706 -0.267423 -0.0492387 0.250995 0.884556 -0.393145
0.0401257 -0.406294 -0.0385889 0.738985 -0.609093 -0.287936
0.399654 -0.217067 -0.0139453 0.679941 -0.709333 -0.185817
-0.0408924 -0.385651 0.033046 -0.573864 -0.656236 0.489933
-0.511862 0.184334 0.112135 -0.678913 0.712704 0.176438
0.454948 -0.106478 -0.091564 0.550648 0.669658 -0.498342
-0.220268 0.0774289 0.123444 0.534432 0.687404 -0.491792
0.193102 -0.191221 0.0282622 -0.669364 0.724906 0.162677
-0.258773 -0.0955697 0.188865 -0.603325 -0.626106 0.493954
0.423169 -0.183871 -0.0532572 0.673367 -0.718155 -0.175585
0.274005 -0.1268 -0.236391 -0.172627 -0.917403 0.358568
-0.072113 -0.227511 -0.107483 -0.494464 -0.186218 -0.849016
0.130018 -0.19888 -0.183157 -0.694437 0.688787 0.208158
0.312922 -0.0288408 -0.240814 -0.493797 -0.238693 -0.836176
-0.108952 -0.191263 0.184515 -0.426925 -0.247874 -0.869651
0.16906 -0.138238 -0.082161 -0.881401 0.130979 0.453846
0.0425973 -0.299273 0.0716836 -0.751818 0.659329 0.00744252
0.281413 -0.346159 0.148375 0.515992 0.246414 0.820385
0.239697 -0.146502 -0.277077 -0.445903 -0.0658201 -0.892658
0.0225022 -0.466193 -0.00579119 -0.493773 -0.697757 0.518965
0.312663 -0.199714 -0.332855 -0.484928 -0.235819 -0.84216
0.13443 -0.451036 -0.0964172 0.704311 -0.672367 -0.227748
0.139985 -0.243594 -0.220125 -0.530936 -0.189106 -0.826042
0.363702 -0.256573 0.00592911 0.674961 -0.713574 -0.187724
0.103855 -0.475633 -0.122052 0.702297 -0.674074 -0.228916
-0.196441 -0.118591 0.100507 0.858188 -0.39512 0.32771
0.43405 -0.224405 -0.200365 0.825428 -0.476623 -0.302487
-0.446416 0.211433 0.05186 0.509428 0.695168 -0.507174
0.353451 -0.174509 -0.134475 -0.698241 0.675235 0.237734
0.225777 -0.40246 0.0471587 0.660417 -0.733171 -0.162201
0.427431 -0.0572839 -0.154472 0.47664 0.216363 0.852057
-0.444071 0.0398491 0.15813 -0.605116 -0.610341 0.511193
0.108073 -0.269754 -0.198225 -0.484016 -0.221432 -0.846579
0.14801 -0.170885 -0.246155 -0.564477 -0.248315 -0.787214
0.0313748 -0.254685 0.122215 -0.571459 -0.109986 -0.813226
0.26223 -0.258668 0.134881 0.47453 0.26832 0.838347
0.0304551 -0.289438 -0.114067 0.0196801 0.963966 -0.265297
-0.271968 -0.205203 -0.000775977 -0.563146 -0.252315 -0.786895
0.222677 -0.164066 -0.20405 0.87559 -0.19353 -0.442592
0.00599027 -0.119044 0.239601 0.478557 0.235456 0.845898
0.394167 -0.14729 -0.0868734 -0.851698 0.353115 0.387195
0.284801 -0.358258 0.0928348 0.686746 -0.709496 -0.158099
0.286219 -0.108405 -0.130437 -0.60454 0.789417 0.106548
-0.0109418 -0.464697 -0.0755168 -0.476309 -0.191935 -0.858074
-0.253029 -0.00445141 0.312106 -0.551755 -0.668606 0.498531
0.356446 -0.0910219 -0.249007 -0.47746 -0.234457 -0.846795
0.151428 -0.201915 -0.11551 0.47542 0.274249 0.835921
0.188427 -0.0712726 -0.0881126 -0.806837 0.497567 0.318499
-0.357901 0.0628085 -0.0264377 -0.447798 -0.229476 -0.864186
0.0117616 -0.418618 -0.095714 0.671049 -0.723486 -0.162056
0.464073 -0.147656 -0.0412316 0.709524 -0.662341 -0.240582
-0.249656 -0.0480634 0.254921 -0.5798 -0.64443 0.49854
-0.0544143 -0.282958 0.040348 0.466534 0.244328 0.850088
0.259769 -0.181844 -0.153396 -0.715457 -0.466596 0.52001
0.086968 -0.176044 0.124402 0.535278 0.679611 -0.501604
0.17025 -0.226519 0.0819352 -0.476365 0.87858 0.0342519
-0.0891835 0.037606 0.251994 0.516104 0.175333 0.838388
-0.119233 -0.258322 -0.0720687 -0.530429 -0.18054 -0.828282
0.284211 -0.195962 0.103801 0.479022 0.243621 0.843319
0.00957439 -0.19474 0.1192 -0.460998 -0.225796 -0.858194
0.334291 -0.0411967 -0.0932902 -0.507418 -0.258559 -0.821994
0.165398 -0.39821 -0.189049 0.642498 -0.755145 -0.130203
0.194033 -0.38612 -0.132461 0.697532 -0.676105 -0.237342
-0.271573 0.134466 0.328199 0.476925 0.24217 0.844924
-0.0954424 -0.150713 -0.0473337 0.585082 0.63596 -0.503224
0.345902 -0.103884 -0.139157 -0.363883 -0.823716 0.434835
-0.316006 -0.0152787 0.229714 -0.511979 -0.697859 0.50087
0.110992 -0.347017 0.179698 0.693393 -0.693472 -0.195712
0.350132 -0.281221 0.0462638 0.672585 -0.728383 -0.130721
-0.274824 -0.209349 0.00251792 -0.51103 -0.309144 -0.802046
0.0213108 -0.105241 0.147563 0.555041 0.664018 -0.501008
0.186035 -0.208247 -0.0734527 -0.784997 -0.33126 0.523494
-0.323069 0.0887213 0.0263219 0.527655 0.687329 -0.499157
0.020451 -0.265052 0.0074517 -0.0205497 0.57486 0.817993
-0.36904 -0.00239779 -0.00219985 -0.527701 -0.208191 -0.823521
0.29774 -0.0691648 -0.217613 -0.474065 -0.230978 -0.849654
0.185036 -0.423089 -0.0287336 0.679094 -0.699851 -0.221449
0.207435 -0.180938 -0.0283897 -0.804072 -0.256191 0.536501
-0.415188 0.205133 0.380752 -0.668245 0.730617 0.140167
0.0260652 -0.507447 -0.0842988 -0.459282 -0.233884 -0.856947
-0.00816983 -0.231149 -0.0589447 0.559651 0.664437 -0.495292
-0.348813 0.11011 0.362066 -0.581092 -0.64773 0.492726
0.420642 -0.205374 -0.251042 0.863972 -0.242289 -0.441417
-0.0417751 -0.161695 -0.00161129 0.533351 0.677354 -0.506684
-0.0922822 -0.125549 -0.00531545 0.60576 0.61959 -0.499162
-0.010952 -0.213239 -0.00314803 0.479232 0.235204 0.845586
-0.258775 -0.0456084 -0.0507418 -0.494469 -0.183121 -0.849687
0.362568 -0.0149409 -0.0126748 -0.686639 0.699974 0.196374
-0.370916 0.169696 0.177859 0.570669 0.658474 -0.490661
-0.0691337 -0.229922 0.174911 -0.481695 -0.235171 -0.844195
0.101253 -0.191708 0.206806 0.378917 0.218792 0.899195
-0.0152851 -0.24854 0.147695 -0.450026 -0.234922 -0.861561
0.226353 -0.0227993 -0.0990498 -0.610319 0.790055 0.0576598
-0.256485 0.210074 0.261107 0.543143 0.673235 -0.501747
0.395744 -0.278173 -0.154196 0.513061 -0.857651 -0.0346772
-0.187728 -0.115788 0.166856 0.436697 -0.737424 -0.515268
-0.276495 0.0873959 0.0750871 0.541956 0.675786 -0.499598
0.337326 -0.181311 0.0704348 0.473119 0.245535 0.846092
-0.124858 -0.146058 0.0442456 0.475554 0.280518 0.833761
-0.483832 0.150003 0.0209634 -0.527722 -0.22744 -0.818401
-0.0722978 -0.0960298 0.138752 -0.4273 -0.330074 -0.841704
0.227515 -0.324404 -0.0630636 0.602755 0.625121 -0.495894
0.235598 -0.252697 -0.0541491 -0.519785 -0.700077 0.489607
0.321758 -0.165138 -0.225553 0.878872 -0.0776204 -0.4707
-0.218774 -0.189153 -0.0350282 -0.508634 -0.156929 -0.846561
-0.141672 0.0720398 0.27121 0.461637 0.213119 0.861087
-0.470055 0.210089 0.165459 -0.713506 0.661511 0.230895
0.384662 -0.068782 -0.0331862 -0.0284663 -0.960446 0.277006
0.0984472 -0.328824 0.25076 0.476218 0.235814 0.847118
0.358529 0.00647904 -0.150744 0.0809493 0.941518 -0.327096
-0.23229 0.165874 0.229463 0.572223 0.652116 -0.497297
0.443069 -0.179287 0.000276899 0.625742 -0.773314 -0.102134
-0.255616 0.18647 0.305206 0.482811 0.277142 0.830714
0.320311 0.0113308 -0.116299 0.476076 0.240567 0.84586
-0.154854 -0.066179 0.117937 0.607183 -0.720371 -0.335252
0.279059 -0.0053954 -0.190927 -0.107851 0.973681 -0.200784
-0.156187 0.00148925 0.0933026 0.560109 0.657862 -0.503483
-0.318422 0.243641 0.239262 0.509474 0.708679 -0.488068
-0.545445 0.137887 0.154823 -0.68138 0.68134 0.267391
-0.505674 0.0558054 0.113784 -0.52285 -0.690109 0.500377
0.0358153 -0.290926 0.24502 -0.525707 -0.696627 0.488204
0.133427 -0.242675 0.020553 -0.474116 0.880462 0.000117965
0.277706 -0.111553 0.0324693 -0.682165 0.687898 0.247886
0.0841471 -0.180764 0.115758 0.572032 0.652377 -0.497175
0.183622 -0.139622 -0.199899 -0.67908 0.711543 0.180433
0.413467 -0.0235195 -0.0251083 0.543944 0.678727 -0.493412
-0.335754 -0.144215 0.0178235 -0.440232 -0.227831 -0.868498
-0.225756 -0.25697 0.000810829 -0.577422 -0.639708 0.507304
0.323659 -0.151512 -0.04167 -0.673308 -0.512698 0.532727
-0.0921178 -0.19292 0.235901 -0.576529 -0.632533 0.517219
0.180144 -0.224125 -0.249886 -0.48223 -0.230582 -0.845154
-0.521583 0.0773484 0.0630951 -0.452401 -0.248744 -0.856423
0.364063 -0.207444 -0.219559 -0.49227 -0.269859 -0.827555
0.364548 -0.0881796 -0.0955113 0.249238 0.88806 -0.386303
-0.415376 0.0785757 0.24512 -0.494606 -0.71793 0.489838
0.247555 -0.209244 -0.199114 -0.391628 -0.804295 0.44692
-0.0218254 -0.116303 0.115551 -0.434882 -0.274714 -0.857561
-0.52939 0.13667 0.0525001 -0.492787 -0.193989 -0.848251
0.307175 -0.209815 -0.0302752 -0.543076 -0.195746 -0.816549
-0.240375 -0.209508 0.0518524 -0.621966 -0.643628 0.445984
0.472664 -0.120655 -0.171763 0.833986 0.15037 -0.530901
-0.171703 -0.293418 -0.0337516 -0.47946 -0.224882 -0.848261
0.199152 -0.198316 -0.142619 0.501376 0.197799 0.842317
-0.160012 -0.0993844 -0.0485893 0.544248 0.675761 -0.497133
0.274363 -0.310526 0.00200548 0.588503 0.637461 -0.497301
-0.383723 0.163755 0.38654 0.454121 0.167623 0.875029
0.268645 -0.159568 -0.0367147 0.498419 0.18358 0.847276
0.285601 -0.163555 -0.100958 -0.759074 -0.390928 0.520559
0.383241 -0.15435 0.037168 0.473647 0.193296 0.859241
0.298558 -0.264965 -0.196667 0.683418 -0.704379 -0.19181
0.0320457 -0.151277 0.0960601 0.541897 0.677691 -0.497074
0.223278 -0.317476 -0.121867 0.498889 0.221958 0.837761
0.350475 -0.225469 -0.0649045 0.475898 0.252319 0.84253
-0.324082 -0.0394713 -0.0173242 -0.499967 -0.175272 -0.848123
-0.202112 -0.0187823 0.329613 0.463441 0.229121 0.855994
-0.0520269 -0.226684 0.238309 -0.533886 -0.68206 0.49976
0.0859635 -0.247524 -0.152124 -0.688645 0.695113 0.206365
0.228641 -0.407284 0.112362 0.48777 0.229325 0.842312
-0.3378 0.225589 0.339566 0.483551 0.233908 0.843484
-0.0520957 -0.112372 0.269819 0.526324 0.198956 0.82668
0.233565 -0.317271 -0.238626 0.693417 -0.689598 -0.208872
0.167298 -0.418064 0.104664 -0.43939 0.898166 0.0152956
0.085323 -0.379517 0.0169883 0.504166 -0.861687 -0.0575562
0.444664 -0.164454 -0.135192 0.510166 0.237226 0.826713
0.288351 -0.293381 -0.0909556 -0.144779 -0.927875 0.343638
0.34854 -0.171342 -0.299132 0.573947 0.654605 -0.492013
0.21356 -0.259336 -0.11839 -0.470318 -0.233838 -0.850953
-0.491566 0.175495 0.216285 -0.669514 0.721025 0.178533
-0.516671 0.197615 0.0399131 -0.693547 0.689235 0.209639
0.0674278 -0.468081 -0.0773204 -0.466255 0.884641 0.00416902
0.136181 -0.243053 -0.0536757 0.549359 0.671576 -0.497182
-0.165601 -0.158159 -0.0737264 -0.397452 -0.316479 -0.86132
0.112346 -0.418847 0.159579 -0.569151 -0.644702 0.510321
0.0570047 -0.411771 -0.128094 -0.412855 -0.253221 -0.874889
-0.472317 0.222325 0.104974 -0.698747 0.679601 0.223372
-0.226031 0.125621 0.1832 0.572867 0.629081 -0.525434
-0.14359 -0.0911321 0.3146 -0.53167 -0.686274 0.496342
0.165731 -0.466836 0.0790083 0.552664 -0.827212 -0.101406
-0.285219 -0.169232 0.0546625 -0.573372 -0.655117 0.492001
-0.421897 0.152641 0.00207742 0.558533 0.660498 -0.50178
-0.12732 -0.157603 0.244458 -0.475555 -0.710563 0.518602
-0.0327671 -0.290688 -0.112604 -0.482986 -0.253485 -0.838135
-0.3433 0.0336781 0.263939 -0.571277 -0.624297 0.532818
-0.359593 -0.107244 0.0606453 -0.575903 -0.622998 0.529348
-0.170967 0.117451 0.230991 0.510414 0.73203 -0.451231
0.215548 -0.184726 0.0909499 -0.714017 0.659461 0.23514
0.36453 -0.278397 -0.0590994 0.525767 0.23379 0.81787
-0.17873 -0.223952 -0.0497876 -0.494284 -0.216831 -0.841824
0.0707268 -0.263299 0.0390382 -0.714879 0.69305 0.0928996
0.164157 -0.454357 0.160942 0.57692 0.197438 0.792579
0.143448 -0.326 0.214246 0.634424 -0.757803 -0.152446
-0.148726 -0.146507 0.194869 -0.317905 -0.418906 -0.850561
-0.0160804 -0.331727 0.0544386 -0.178388 0.669451 0.721119
-0.169362 -0.12487 0.24212 -0.591132 -0.629258 0.504576
0.227336 -0.0477726 -0.0453565 0.483075 0.228361 0.845275
-0.306713 0.121521 0.180543 0.534792 0.675764 -0.507287
-0.445341 0.0435921 0.164601 -0.554698 -0.665127 0.499917
-0.0685792 -0.0223689 0.254683 0.454741 0.233941 0.85935
0.209158 -0.286237 0.169206 -0.214763 -0.898197 0.383562
0.200865 -0.140631 -0.14498 -0.499232 -0.212714 -0.839952
0.224093 -0.0200314 -0.151127 -0.513521 0.85602 0.0593762
0.0599224 -0.230287 0.240286 0.582456 0.19607 0.788861
-0.417468 0.172767 0.129438 0.578067 0.65002 -0.493268
-0.140129 -0.356425 -0.0342167 -0.449059 -0.254335 -0.856539
-0.127193 0.05842 0.200192 0.511895 0.702562 -0.494339
0.420611 -0.0673472 -0.0757098 0.540732 0.692438 -0.477638
0.388896 -0.22235 0.0541989 0.465079 0.231757 0.854394
-0.136397 -0.0429661 0.0549589 0.865548 -0.45099 0.217792
0.340512 -0.109725 0.00776647 -0.783687 0.0994703 0.613139
0.183502 -0.280927 -0.236553 -0.501008 -0.225259 -0.835613
-0.066406 0.00267861 0.194845 0.492181 0.736364 -0.464248
0.287862 -0.248288 -0.300556 0.681642 -0.708447 -0.182942
-0.284089 -0.14183 0.0928957 -0.616341 -0.614007 0.493071
-0.279566 0.246305 0.285185 0.490847 0.698664 -0.520518
0.0964013 -0.418168 -0.0640774 -0.771344 -0.328901 0.544841
0.0394326 -0.0851488 0.193212 0.577836 0.652582 -0.490145
0.382047 -0.164547 -0.0248389 0.197624 -0.969864 0.14251
0.255953 -0.126069 -0.177737 -0.69066 0.698459 0.187467
-0.0584564 -0.192388 -0.0620058 0.57465 0.65779 -0.486918
0.192572 -0.283178 -0.0499404 0.605998 0.66257 -0.440189
0.420152 -0.119723 -0.0203834 0.471477 0.219499 0.854125
-0.416375 0.0440612 0.00940108 -0.490251 -0.323426 -0.809351
-0.0372961 -0.176675 0.141943 -0.526223 -0.22424 -0.820247
0.0627519 -0.469524 0.033985 -0.59261 -0.640477 0.48847
0.407468 -0.224239 -0.0956097 0.483877 0.229588 0.844483
-0.193799 0.167901 0.274589 0.493602 0.226232 0.839747
0.0221239 -0.331639 0.179107 -0.531171 -0.683302 0.500955
0.307008 -0.112292 -0.186467 0.253989 0.883927 -0.392635
-0.0741538 -0.413784 -0.0409136 -0.583456 -0.646043 0.492146
-0.135288 0.0199482 0.13924 0.502677 0.71118 -0.491466
-0.044842 -0.398561 -0.0768802 -0.463548 -0.23837 -0.853407
0.161742 -0.455594 0.013302 0.68333 -0.704238 -0.192637
-0.333858 0.103983 0.128105 0.455994 0.735097 -0.501699
0.0151449 -0.321736 0.12104 -0.834394 0.419318 -0.357714
0.172727 -0.0839344 -0.145589 -0.492824 -0.219775 -0.841917
-0.128591 -0.0334981 0.295015 0.496297 0.269412 0.825292
0.354206 -0.294262 -0.11007 0.241264 -0.967826 0.0714467
0.21803 -0.346227 0.0968225 0.501493 0.22688 0.834883
0.231198 -0.295902 -0.0206629 0.53239 0.725422 -0.436261
0.324962 -0.293 -0.00685319 0.683491 -0.710353 -0.168044
-0.0217297 -0.430844 -0.00627815 -0.548625 -0.690593 0.471266
0.226577 -0.382646 -0.0202901 0.683254 -0.677179 -0.273118
0.143435 -0.303525 0.132745 0.567513 -0.819539 -0.07928
-0.484376 0.161691 0.279625 -0.474357 -0.69583 0.539264
0.370465 -0.0463815 -0.126918 0.472378 0.233977 0.849773
0.11101 -0.233116 0.0708459 0.437345 0.778456 -0.450262
0.0880134 -0.136764 0.177117 0.473742 0.742939 -0.472875
0.321056 -0.0727482 0.0423273 -0.683507 0.699342 0.209138
0.100166 -0.340023 -0.174215 -0.552993 -0.250556 -0.79462
0.228149 -0.266622 -0.265093 -0.498042 -0.191328 -0.845782
-0.0250739 -0.284327 0.185418 -0.528799 -0.677247 0.511573
-0.324731 0.183273 0.223467 -0.316152 -0.374951 -0.87147
0.284388 -0.136705 0.0854749 0.508943 0.28624 0.811815
-0.272516 0.119279 0.122752 0.496813 0.711276 -0.497256
0.130751 -0.485437 0.0435343 0.343553 -0.935161 0.0862836
0.21967 -0.345948 -0.188337 0.672163 -0.720533 -0.170375
0.212669 -0.18273 -0.252967 -0.473849 -0.234316 -0.84886
0.213985 -0.0928658 -0.306262 -0.465494 -0.24642 -0.850054
0.0958211 -0.427817 0.0557062 0.583373 0.625969 -0.517531
-0.121889 -0.255757 0.0675036 0.514134 0.238042 0.824016
-0.378828 0.0180986 0.202925 -0.534941 -0.687782 0.490707
0.143352 -0.30934 -0.20603 -0.465383 -0.237556 -0.852635
0.263522 -0.25943 -0.148905 -0.459912 -0.210461 -0.862663
0.334514 -0.00299133 -0.191552 0.0902862 0.947085 -0.308024
0.314771 -0.319186 0.0539117 0.685079 -0.680477 -0.260033
0.358082 -0.279794 -0.194716 -0.476739 -0.226585 -0.84934
0.222889 -0.217427 0.144592 0.414191 0.261236 0.871895
0.162605 -0.213092 0.146346 0.223591 0.898457 -0.377866
-0.388715 0.179499 0.0827186 0.669727 -0.0452203 0.741229
-0.209361 0.0187139 0.0551917 0.513578 0.695113 -0.503046
-0.0603909 -0.211719 0.0216986 0.454618 0.248644 0.855277
-0.459542 0.0868831 0.0228813 -0.512553 -0.242332 -0.82375
-0.232355 -0.0059782 -0.00289851 0.557634 0.656827 -0.507565
0.15825 -0.27089 0.195874 0.461244 0.248973 0.851626
-0.0800876 -0.145055 0.157312 -0.466494 -0.244838 -0.849964
0.252675 -0.23319 0.00484317 -0.481958 -0.22786 -0.846047
0.0278806 -0.426444 0.0562155 -0.487555 -0.718161 0.496522
0.315989 -0.232472 -0.246338 0.680431 -0.709821 -0.182119
0.0923665 -0.274617 0.236469 0.50358 0.212384 0.837437
0.491616 -0.105265 -0.049838 0.512159 0.68981 -0.511719
0.221086 -0.370954 -0.0825472 0.666916 -0.725265 -0.17092
-0.316399 0.272266 0.312888 0.504658 0.272587 0.819156
-0.4403 0.192031 0.335952 -0.689287 0.694188 0.207332
0.301131 -0.115067 -0.076554 0.819342 -0.40933 -0.401408
0.327098 -0.308048 -0.160102 0.228161 -0.9638 0.137955
-0.520972 0.138903 0.206286 -0.558799 -0.661502 0.500159
-0.0905597 -0.351276 0.0264 -0.587784 -0.639313 0.495771
-0.413495 -0.0497432 0.0340799 -0.438689 -0.250634 -0.86298
-0.213483 -0.0906094 0.240202 -0.557583 -0.663981 0.498227
-0.168329 -0.219383 0.0868686 0.535669 0.17591 0.825902
