ply
format ascii 1.0
comment Created by Open3D
element vertex 400
property double x
property double y
property double z
property double nx
property double ny
property double nz
end_header
0.166311 -0.432883 0.196102 0.374206 -0.781984 0.498469
-0.366482 -0.23763 0.224921 -0.874232 0.482021 0.0580916
-0.430546 0.253703 -0.071014 -0.821138 0.568468 -0.0507507
0.262264 -0.400665 0.143577 -0.745041 -0.225357 0.627796
0.351914 -0.197546 0.195729 0.387206 0.620178 0.682239
-0.131264 -0.111618 0.391846 0.387203 0.62018 0.682239
-0.21595 -0.017121 0.354009 0.387206 0.620179 0.682239
0.331887 -0.238116 0.243974 0.387206 0.620181 0.682237
-0.126698 -0.203516 0.0410279 -0.387209 -0.620177 -0.682239
0.0947274 0.145018 -0.185589 0.387206 0.620179 0.682239
0.177867 -0.311261 -0.0338838 -0.387206 -0.620179 -0.682239
0.327571 -0.00510559 -0.339795 0.886689 -0.453285 -0.0911897
0.183833 -0.241458 0.115159 0.387205 0.620178 0.682239
-0.0553577 -0.0758633 0.0500848 0.405372 0.550089 -0.73012
-0.0964794 -0.0214618 0.0742665 0.387206 0.620178 0.682239
0.406071 -0.169959 -0.269528 0.915191 -0.168664 -0.36603
-0.285267 -0.0550542 0.349965 -0.729401 -0.246563 0.638107
-0.182286 -0.0873299 0.269002 0.63145 0.360802 -0.686362
-0.292464 0.150624 0.244948 0.387206 0.620179 0.682239
-0.0487306 0.407094 -0.29031 -0.122075 0.767962 -0.628755
0.186964 -0.252057 0.338898 0.387206 0.620179 0.682239
-0.311329 -0.0774231 0.0311931 -0.387206 -0.620177 -0.68224
-0.025222 -0.171344 0.293879 0.188497 0.671083 -0.717019
-0.304342 0.185036 -0.211356 -0.387206 -0.620178 -0.682239
0.033961 0.383596 -0.32191 0.0399529 0.727947 -0.684469
0.0728148 0.354222 -0.276862 0.527429 0.457935 -0.715622
0.284161 -0.148893 0.132515 -0.745125 0.646293 -0.164605
-0.204762 -0.208552 0.406665 0.792054 -0.602506 0.0981675
-0.371976 0.251072 0.0551642 -0.921306 0.231687 0.312277
0.0545359 -0.0780866 0.0400314 0.387206 0.620179 0.682239
0.341026 0.0601668 -0.0787782 -0.355048 0.477602 0.80364
-0.287396 0.150125 0.0835868 0.906938 -0.389378 -0.160776
-0.00800278 0.28086 -0.398638 0.880178 -0.0282143 -0.473805
-0.116838 -0.268932 0.386407 -0.920911 0.295998 0.253592
-0.216733 -0.284853 0.166066 -0.387203 -0.620181 -0.682239
0.396602 -0.0780627 -0.312208 0.881726 -0.0328615 -0.470616
0.124692 -0.20515 0.24228 -0.266091 0.783643 -0.561338
-0.195175 -0.239914 0.112979 -0.387206 -0.620178 -0.682239
-0.0085969 -0.129635 0.0010289 -0.221757 0.780883 -0.583991
0.117099 -0.217608 0.347236 0.387205 0.620179 0.682239
0.30986 -0.415988 -0.0083341 0.72262 -0.663712 0.193149
-0.175911 0.221281 -0.317196 -0.387208 -0.620178 -0.682238
-0.0225438 -0.173214 0.386134 0.387206 0.620178 0.682239
-0.362246 -0.14783 0.230213 -0.522139 -0.462306 0.716689
0.103188 0.308137 -0.318055 -0.32283 0.784404 -0.529615
-0.164876 -0.152886 0.0166721 -0.387206 -0.620179 -0.682239
-0.497522 0.116629 -0.00876941 0.107241 0.704692 -0.701362
0.185991 0.113725 -0.20894 0.387206 0.620179 0.682239
0.233937 -0.282509 0.290006 0.883039 0.0801047 0.462413
-0.317525 0.107081 -0.13301 -0.387206 -0.620178 -0.682239
0.0257047 -0.0522678 -0.149156 -0.752047 -0.215629 0.622839
-0.0403979 0.20095 -0.159743 0.387207 0.620178 0.682239
-0.280032 -0.286631 0.203608 -0.387206 -0.620179 -0.682239
-0.0763761 -0.13883 0.38543 0.387205 0.620179 0.682239
0.0183243 -0.111359 0.0908294 0.387206 0.620178 0.682239
0.0332608 0.0687156 -0.297224 -0.387207 -0.620178 -0.682239
0.122445 -0.265971 -0.0435996 -0.387206 -0.620179 -0.682239
-0.0642108 -0.15452 0.176907 0.387206 0.620178 0.682239
0.0442167 -0.109723 -0.10527 -0.914082 0.354949 0.196128
0.0255837 0.168605 -0.167788 0.387206 0.620179 0.682239
0.114472 -0.100225 0.0261386 0.387206 0.620178 0.682239
-0.168051 0.38324 -0.0371182 0.387205 0.620178 0.682239
0.304919 -0.13453 0.0400841 -0.856075 0.516595 0.0162642
-0.0532097 -0.323338 0.108243 -0.387202 -0.62018 -0.68224
0.00938768 -0.237694 0.424105 0.193468 -0.0649022 0.978958
-0.197439 0.160192 -0.0335634 0.387206 0.620179 0.682239
0.31018 -0.328658 0.220652 0.581278 -0.73858 0.341489
0.412401 -0.279426 -0.054991 0.862099 -0.505883 -0.029454
-0.349607 0.15788 -0.16098 -0.387206 -0.620178 -0.682239
0.395097 -0.156089 -0.192154 0.642567 -0.712144 0.282769
-0.121612 -0.258756 0.088357 -0.387206 -0.620178 -0.682239
0.455833 -0.0869526 -0.00189185 0.810921 0.583356 0.0458715
-0.280536 0.00353033 0.177997 0.860408 0.0228466 -0.509094
-0.440054 0.177041 -0.067275 -0.786658 -0.163712 0.595288
0.138655 -0.151275 0.0588201 0.387206 0.620178 0.682239
-0.101054 0.080333 -0.015672 0.387206 0.620179 0.682239
0.305063 0.117336 -0.385076 0.655511 0.335136 -0.67675
0.0691554 -0.0654045 -0.0672268 -0.92154 0.28353 0.265283
-0.0839294 -0.185731 0.000587703 -0.387205 -0.620179 -0.682239
0.22896 0.355444 -0.275448 0.550892 0.83387 -0.0343517
0.127848 0.104868 -0.383771 -0.387206 -0.620178 -0.682239
0.365232 0.0489226 -0.314089 0.666022 -0.699806 0.258238
0.336248 0.171252 -0.32817 0.655511 0.335136 -0.67675
0.416705 -0.245299 -0.149658 0.123624 0.698357 -0.704993
0.00747628 -0.387862 0.232501 -0.166848 -0.680559 0.713443
0.0588527 -0.210949 0.255861 -0.0858993 0.761008 -0.64303
-0.183569 -0.0518174 0.151289 0.387206 0.620178 0.682239
-0.166218 -0.247491 0.329524 -0.33096 -0.597096 0.730714
-0.325533 0.269289 -0.161869 -0.552338 0.748547 -0.366878
0.236787 -0.215401 0.2773 0.387211 0.620179 0.682236
0.0467239 -0.363516 0.0880476 -0.387205 -0.620179 -0.682239
-0.126429 0.333107 -0.363543 -0.896174 0.0792736 0.436563
0.190718 -0.374173 0.152144 0.520206 -0.757849 0.393764
-0.203956 -0.0738415 0.398762 0.387206 0.620178 0.682239
-0.386892 0.295857 -0.132031 -0.73566 0.653856 -0.176853
0.177522 0.362956 -0.21528 -0.0347999 0.986685 0.158877
-0.0831527 0.247234 -0.393432 -0.387205 -0.620179 -0.682239
0.101929 -0.464678 0.190575 0.298739 -0.784433 0.543526
0.278079 0.201197 -0.29042 0.293419 0.618602 -0.72886
-0.226077 -0.0321123 0.248225 0.752047 0.215629 -0.62284
-0.277999 -0.0404342 -0.0213471 -0.387206 -0.620179 -0.682239
0.0798004 -0.254264 0.185844 0.387206 0.620179 0.682239
-0.268947 0.0667901 -0.123955 -0.387206 -0.620178 -0.682239
-0.337615 0.278211 0.115378 -0.352138 0.76176 0.543801
-0.108896 0.0108126 -0.00490027 0.918953 -0.319637 -0.230992
-0.129979 -0.14788 0.269158 0.446145 0.521529 -0.727298
0.00257397 -0.322595 0.328368 0.660011 -0.703064 0.264738
-0.406436 0.189669 0.0405802 -0.73089 0.657531 -0.1829
-0.223861 -0.0319346 -0.0598002 -0.387206 -0.620179 -0.682239
0.037995 -0.450977 0.230136 -0.90989 0.137529 0.391391
-0.209041 0.266655 -0.0243095 0.717131 -0.667652 0.199909
0.383697 0.176401 -0.276164 0.709492 0.272156 -0.65004
-0.0379374 -0.366889 0.336218 -0.0607508 -0.721224 0.690033
0.248709 0.256919 -0.304722 0.921871 -0.247167 -0.298432
0.155769 -0.0378641 -0.269869 -0.387206 -0.620179 -0.682239
0.210113 -0.325839 0.241758 0.844247 -0.535894 0.00799247
0.0126098 -0.154208 -0.0644724 -0.655871 0.705341 -0.268938
0.184381 -0.0812212 -0.0308128 0.387206 0.620178 0.682239
-0.255705 0.0808035 0.220601 0.889121 -0.0553415 -0.454314
0.191719 -0.429261 0.0784021 -0.0885184 -0.711488 0.697101
0.223123 -0.161773 -0.195459 -0.387206 -0.620181 -0.682237
0.0278717 -0.160698 0.130261 0.387205 0.620179 0.682239
-0.239747 0.126763 -0.195045 -0.38721 -0.62018 -0.682235
-0.329766 -0.0873607 0.293126 -0.444187 -0.522949 0.727477
-0.173274 0.349368 -0.252867 0.431443 0.532126 -0.728491
-0.156695 0.266421 -0.367628 -0.724732 0.662147 -0.190591
-0.167772 -0.130304 0.21367 0.387206 0.620178 0.682239
0.265221 0.280348 -0.189491 0.387206 0.620179 0.682239
0.426307 0.147162 -0.211355 0.717285 -0.071316 0.69312
0.178345 0.153587 -0.455307 0.838327 -0.544816 0.0195543
-0.0919286 0.0285598 -0.0822894 0.622755 -0.721577 0.302493
0.336241 -0.0148777 -0.0538675 -0.919839 0.209294 0.3318
-0.264968 -0.151978 0.403276 -0.58021 -0.411166 0.703063
0.340958 -0.114451 0.102259 -0.318856 0.824166 0.468061
0.0640373 -0.216968 -0.0549953 -0.387206 -0.620179 -0.682239
0.280025 0.0706081 -0.432312 0.683226 0.303834 -0.663994
-0.264018 -0.196555 0.112636 -0.387206 -0.620179 -0.682239
-0.241618 0.389514 -0.0593234 -0.822258 0.567022 -0.0487686
0.182899 -0.00900473 -0.0956188 0.387206 0.620178 0.682239
-0.0147626 0.011878 -0.135094 -0.188497 -0.671083 0.717019
-0.347514 -0.00433416 0.370996 -0.290759 0.326314 0.899432
-0.407829 0.255782 0.00116849 -0.620846 -0.371512 0.690311
0.287002 -0.197877 -0.198894 -0.387206 -0.620178 -0.682239
-0.188548 0.324259 0.00223343 0.759863 -0.0476418 0.648335
0.170938 0.230162 -0.417093 0.391662 0.559256 -0.730639
-0.0592905 0.152665 -0.32101 -0.387206 -0.620178 -0.682239
0.401443 -0.166714 0.112084 0.693015 -0.0806414 0.716398
-0.40916 0.044332 0.293401 -0.875459 0.0151221 0.483056
-0.148687 0.308453 -0.0539242 0.551964 -0.748633 0.367265
0.36224 -0.283123 0.217395 0.72734 -0.0655815 0.683137
0.246048 -0.0609031 -0.0842821 0.387206 0.620178 0.68224
0.241146 -0.216312 0.0620896 -0.717131 0.667652 -0.199909
-0.265255 -0.244892 0.157279 -0.387206 -0.620178 -0.682239
0.379005 -0.333868 -0.0978042 0.862383 -0.505368 -0.0299833
-0.0204815 0.263413 -0.202531 0.0858989 -0.761008 0.64303
-0.455175 -0.160706 0.18854 -0.387206 -0.620179 -0.682239
0.0140116 -0.298152 0.388907 0.880284 -0.468714 -0.07353
0.362738 -0.261415 0.101185 0.915443 -0.170555 -0.364521
-0.262389 0.085402 0.287168 0.387206 0.620179 0.682239
-0.333154 -0.250459 0.289356 -0.611342 -0.381231 0.693487
-0.148658 0.0513392 0.0377023 0.387206 0.620179 0.682239
-0.272633 0.0147109 0.354153 0.0017038 0.0394575 0.99922
0.0153559 0.0217242 -0.244345 -0.387206 -0.620178 -0.682239
0.136694 -0.358642 0.322335 0.220719 -0.780811 0.584481
-0.207157 0.0847596 0.0405226 0.387206 0.620179 0.682239
0.353586 -0.226539 -0.20312 0.917888 -0.189282 -0.348789
-0.303763 0.0839799 0.105752 0.921836 -0.24672 -0.298912
0.136688 -0.200693 -0.111022 -0.387206 -0.620178 -0.682239
-0.124686 0.136924 -0.269585 -0.387204 -0.620179 -0.68224
-0.155238 -0.017442 0.103961 0.387206 0.620178 0.682239
0.250942 -0.361476 -0.0297106 -0.387201 -0.620175 -0.682245
-0.173068 -0.076896 -0.0477561 -0.387206 -0.620178 -0.68224
0.0713306 0.428404 -0.267995 0.92479 0.22598 0.306099
-0.241627 -0.0978444 0.0101974 -0.387206 -0.620178 -0.68224
-0.379211 0.338044 0.0707948 -0.328347 0.822609 0.464223
-0.458769 0.0843267 0.14784 -0.0843129 -0.713043 0.696032
-0.465137 0.190202 -0.124793 -0.387206 -0.620179 -0.682239
-0.293629 0.215343 0.186777 0.387206 0.620178 0.682239
0.32493 0.241303 -0.230624 0.299838 0.953989 -0.00132584
0.205088 0.0853873 -0.4099 -0.387207 -0.620177 -0.68224
0.161975 0.363326 -0.313 0.278677 0.626627 -0.727789
-0.43949 -0.100854 0.229938 -0.811546 -0.121952 0.571421
0.151873 0.0430055 -0.341172 -0.387202 -0.620182 -0.682238
-0.291421 -0.339449 0.264364 -0.481334 -0.495188 0.723261
0.161161 0.299456 -0.367311 0.317265 0.605129 -0.730179
0.263713 -0.132612 -0.0291216 0.387206 0.620178 0.682239
-0.421261 -0.0263337 0.268971 -0.846743 -0.0536007 0.529295
-0.125212 0.386439 -0.203102 0.0929374 0.709938 -0.698105
0.0380386 0.426727 -0.193616 0.387206 0.620179 0.682239
-0.0697193 -0.247181 0.436162 0.117178 -0.026822 0.992749
-0.221351 0.271249 -0.336829 -0.387197 -0.620178 -0.682245
-0.0940082 0.20293 -0.346998 -0.387206 -0.620178 -0.682239
0.0398782 0.0811998 -0.0964464 0.387206 0.620179 0.682239
0.380405 -0.292957 -0.165473 -0.387206 -0.620178 -0.682239
0.272583 -0.280579 0.241822 0.0838884 -0.760589 0.643791
0.143494 0.167159 -0.233394 0.387205 0.620179 0.682239
-0.35804 0.253399 0.182957 0.044381 0.993125 0.108318
-0.0556381 -0.0918465 0.115069 0.387206 0.620179 0.682239
0.280468 -0.184642 0.224548 0.387206 0.620179 0.682239
-0.342462 -0.165625 0.129041 -0.387208 -0.620176 -0.682241
0.0912347 -0.0673524 -0.206437 -0.387206 -0.620179 -0.682239
0.310393 -0.27006 -0.146553 -0.387206 -0.620178 -0.682239
-0.208997 0.230397 -0.090822 0.387206 0.620179 0.682239
-0.0347648 0.207137 -0.384446 -0.387206 -0.620179 -0.682239
0.0922168 -0.0516321 -0.00540245 0.387206 0.620179 0.682239
-0.332657 0.274288 -0.253178 -0.866473 -0.00787664 0.499161
-0.486422 0.107991 0.0834633 -0.921506 0.284377 0.264493
0.446788 -0.0472716 -0.217478 0.901862 -0.100933 -0.420069
0.446566 -0.213294 -0.0608798 0.897607 -0.422612 -0.125302
-0.193207 0.412702 -0.212391 -0.429169 0.776171 -0.461923
0.256682 -0.0540484 -0.312431 -0.387205 -0.620179 -0.682239
0.0526233 -0.434383 0.14912 -0.387206 -0.620179 -0.682239
0.298413 -0.323242 -0.0914093 -0.387208 -0.620181 -0.682235
0.248162 -0.437513 0.0409873 -0.387205 -0.620178 -0.68224
0.205419 0.24594 -0.165498 -0.0698189 0.0907461 0.993424
-0.226176 0.0256841 0.279219 0.84053 0.537092 0.0710108
-0.258619 -0.218267 0.368016 -0.515234 -0.468111 0.717918
-0.402316 0.0434154 -0.0270134 -0.387206 -0.620179 -0.682239
-0.0555198 -0.412009 0.274149 0.909816 -0.376879 -0.173772
-0.278625 -0.272955 0.317999 -0.514606 -0.468565 0.718072
-0.0365948 -0.378947 0.149363 -0.387203 -0.620179 -0.68224
-0.000875882 -0.224445 0.243856 0.051878 0.724134 -0.687706
0.00336725 0.380465 -0.131884 0.387206 0.620178 0.682239
-0.45087 0.0266296 0.10778 -0.653145 -0.337761 0.67773
-0.222048 0.0150203 0.11237 0.387206 0.620179 0.682239
0.053059 -0.193633 0.361787 0.387206 0.620179 0.682239
0.432184 -0.106985 -0.232686 0.909415 -0.135034 -0.393356
0.396493 -0.245931 0.158097 0.739666 0.232986 -0.631357
0.106673 -0.190233 0.112386 0.387206 0.620179 0.682239
-0.089948 -0.114053 0.325209 0.560439 0.827497 -0.0340118
0.24976 -0.226733 -0.151526 -0.387206 -0.620179 -0.682239
0.0894914 0.070337 -0.330612 -0.387206 -0.620178 -0.682239
0.110926 0.37528 -0.188216 0.387209 0.620177 0.682239
-0.0228267 0.360713 -0.347765 -0.0410917 0.75085 -0.659193
-0.342967 0.349111 -0.071062 0.48953 0.488759 -0.722132
0.332758 -0.332042 0.0502442 0.827746 0.092083 -0.553495
0.270155 0.080404 -0.176711 -0.7777 -0.177764 0.602978
-0.240938 0.240514 0.0362124 0.817733 -0.572808 0.0565963
0.229708 -0.198028 0.144852 -0.622755 0.721577 -0.302493
0.20452 -0.00705272 -0.325546 -0.387206 -0.620179 -0.682239
-0.120188 -0.195957 0.394369 -0.522702 -0.461899 0.716542
0.0204627 0.126829 -0.342788 -0.387207 -0.620178 -0.682239
0.108046 0.254856 -0.427034 0.279121 0.626353 -0.727855
-0.0308134 0.423542 -0.168847 -0.227763 0.914705 0.333825
0.301993 -0.0173368 -0.133997 -0.900178 0.0942774 0.425196
-0.138178 -0.0915873 0.161679 0.387206 0.620179 0.682239
0.443537 -0.229806 0.00408697 0.862099 -0.505883 -0.029454
0.447786 -0.0633802 -0.0660617 0.834717 -0.550053 0.0262716
0.20301 -0.147397 0.0187704 0.387206 0.620179 0.682239
-0.24797 0.365185 -0.240102 -0.464229 0.77046 -0.4369
0.311198 0.217584 -0.15853 0.387206 0.620179 0.682239
0.339605 0.0492409 -0.375114 0.758344 0.206688 -0.618219
-0.112259 -0.433228 0.259064 -0.10089 -0.707034 0.699946
-0.28362 0.0126749 -0.0664351 -0.387206 -0.620179 -0.682239
0.185818 -0.392151 0.245357 0.374206 -0.781984 0.498469
-0.172423 -0.379301 0.293246 -0.258784 -0.637112 0.72603
-0.159921 0.0969073 -0.213211 -0.387206 -0.620179 -0.682239
0.0662442 0.156638 -0.395868 -0.387205 -0.620179 -0.682239
0.132548 0.0442271 -0.115432 0.387206 0.620179 0.682239
0.389372 -0.182237 -0.136622 0.879408 -0.0261365 -0.47535
-0.125373 0.416413 -0.0914963 0.387206 0.620179 0.682239
-0.186168 0.454501 -0.148264 -0.464229 0.77046 -0.4369
0.179138 -0.116264 -0.211864 -0.387206 -0.620179 -0.682239
-0.203297 -0.141628 0.432541 -0.092881 0.10939 0.98965
0.499129 -0.0349317 -0.0978055 0.919211 -0.202437 -0.337743
-0.364812 0.225974 -0.198024 -0.311113 0.784488 -0.536457
-0.31795 -0.154618 0.354266 -0.640388 -0.351444 0.682928
-0.411512 -0.130102 0.135939 -0.387206 -0.620178 -0.682239
-0.233869 0.181134 -0.247807 -0.387206 -0.620179 -0.682239
0.0294573 0.300598 -0.344186 0.642843 0.348909 -0.681921
0.416204 -0.122918 -0.0950348 0.921967 -0.254811 -0.291631
-0.136651 -0.385135 0.211775 -0.387206 -0.620178 -0.682239
0.146868 -0.296928 0.372709 0.419832 -0.112768 0.900569
0.0699447 0.338798 -0.153334 0.237064 -0.0736549 0.968698
0.479885 -0.151605 -0.0272124 0.906052 -0.392955 -0.157022
-0.333405 -0.184912 0.292577 -0.827225 0.560447 -0.0399729
-0.207562 0.0780085 -0.168992 -0.387206 -0.620179 -0.682239
0.0723226 -0.292811 0.338532 -0.222274 -0.655346 0.721884
0.0848826 0.0974509 -0.136761 0.387206 0.620178 0.682239
-0.244573 0.237572 -0.293036 -0.387206 -0.620179 -0.682239
0.188793 0.0642594 -0.165564 0.387206 0.620179 0.682239
-0.273212 -0.0912028 0.402524 -0.288942 0.862575 0.415303
-0.0686967 0.319931 -0.391342 -0.081314 0.760048 -0.64476
-0.016038 0.148599 -0.125979 0.387206 0.620179 0.682239
-0.302032 0.313752 -0.198849 -0.89002 0.0582454 0.452185
0.289969 0.00769559 -0.38745 -0.387206 -0.620178 -0.682239
-0.186661 0.442715 -0.0806213 0.387205 0.620179 0.682239
-0.358614 0.360314 -0.00106404 -0.78125 0.613642 -0.114422
-0.0341022 0.45549 -0.223797 0.160992 0.985901 0.0456071
-0.275852 0.185684 0.0333113 0.872077 -0.486525 -0.0526807
0.398818 -0.224793 0.054027 0.295725 -0.784405 0.545211
-0.378584 -0.0965143 0.0867187 -0.387206 -0.620178 -0.682239
0.472688 -0.182308 0.0438108 0.875721 -0.478857 -0.0617193
-0.0720885 0.128956 -0.0763115 0.387206 0.620178 0.682239
0.243175 0.141378 -0.355286 0.271622 0.630391 -0.727206
-0.459611 0.0505898 -0.00101704 -0.387206 -0.620179 -0.682239
-0.13054 0.154497 -0.066355 0.387206 0.620178 0.682239
-0.325582 0.0638074 -0.0891006 -0.387205 -0.620176 -0.682242
-0.511609 0.0457127 0.0604802 -0.921944 0.252142 0.294013
-0.124687 -0.346192 0.338747 -0.219845 -0.656477 0.7216
-0.118551 -0.311612 0.134668 -0.387206 -0.620178 -0.682239
-0.202105 -0.354509 0.221083 -0.387203 -0.62018 -0.682239
0.382493 -0.0663668 0.0556333 -0.361001 0.737503 0.57076
-0.063014 -0.311798 0.387472 -0.140837 -0.691492 0.708522
-0.0860128 0.0540946 -0.216239 -0.387206 -0.620178 -0.682239
0.045536 -0.351341 0.278122 -0.352418 -0.584217 0.731089
-0.210865 0.0266076 -0.120393 -0.387206 -0.620178 -0.682239
-0.393837 -0.0856967 0.296489 -0.79139 -0.156091 0.591047
0.359554 -0.0294804 -0.279079 0.582024 0.409472 -0.702553
-0.272866 -0.149256 0.0746618 -0.387205 -0.62018 -0.682239
0.0505451 -0.284927 0.0144394 -0.387202 -0.620178 -0.682242
0.332469 -0.071372 -0.00423879 -0.914082 0.354948 0.196129
-0.23816 -0.0644584 0.193763 0.387206 0.620178 0.682239
0.0308977 -0.207726 0.171294 0.387205 0.620179 0.682239
0.366342 -0.12952 -0.306062 -0.387206 -0.620179 -0.682239
0.482149 0.011603 -0.155707 0.901862 -0.100933 -0.420069
-0.447977 0.17423 0.145748 -0.919297 0.316244 0.234272
0.403565 0.0854138 -0.0908056 0.387206 0.620178 0.68224
-0.0779969 0.341834 -0.0910706 0.523162 -0.115509 0.844369
0.103891 -0.34022 0.0344255 -0.387207 -0.620179 -0.682238
-0.116117 0.296794 -0.113845 0.435731 -0.775202 0.457385
-0.0317931 0.00861381 -0.205668 -0.387206 -0.620178 -0.682239
-0.105971 0.205972 -0.127091 0.387206 0.620179 0.682239
0.463973 -0.0947428 -0.147345 0.060918 -0.755553 0.652249
-0.0285295 0.0887645 -0.28038 -0.387206 -0.620179 -0.682239
-0.154943 -0.0618721 0.338772 0.696086 0.717868 -0.0113424
-0.239169 0.374665 0.0006226 -0.0214558 0.988465 0.14992
0.208688 -0.277864 -0.0817354 -0.387208 -0.620181 -0.682235
-0.0817113 -0.209888 0.242011 0.233251 0.649999 -0.723253
0.0692635 -0.415084 0.271364 0.182105 -0.776827 0.602808
0.0875712 0.202536 -0.233813 0.387206 0.620179 0.682239
0.0285562 0.213769 -0.416542 -0.0674456 0.757078 -0.649834
-0.258419 0.299559 0.0902387 0.387206 0.620178 0.682239
-0.272658 0.339912 -0.112693 -0.822258 0.567022 -0.0487686
-0.0533263 -0.421369 0.197422 -0.387207 -0.620178 -0.682239
-0.417833 -0.0387165 0.0564543 -0.387205 -0.620181 -0.682237
-0.157503 0.303177 -0.296874 -0.235592 0.781991 -0.577049
0.292137 -0.106467 -0.284903 -0.387206 -0.620179 -0.682239
-0.330286 0.0657514 0.343566 0.387206 0.620179 0.682239
0.358972 0.151565 -0.125631 0.387206 0.620179 0.682239
-0.266396 0.152903 0.164101 0.921836 -0.24672 -0.298912
0.115102 0.199573 -0.462627 -0.387206 -0.620178 -0.682239
0.310371 -0.378345 0.104374 0.669877 -0.697669 0.254015
0.169867 -0.221032 0.184672 -0.43573 0.775202 -0.457385
0.400686 -0.0171844 0.00409346 0.387206 0.620179 0.682239
-0.0248233 0.319413 -0.132572 0.176874 -0.776183 0.605191
-0.373847 0.0958665 0.236092 -0.919353 0.203748 0.336566
0.223192 0.306076 -0.330974 0.391662 0.559256 -0.730639
-0.420098 0.208248 0.206731 -0.921505 0.284199 0.264688
0.380253 0.0196362 -0.234247 0.688861 0.2973 -0.661123
0.163452 0.314498 -0.168244 0.077556 -0.00517318 0.996975
-0.237877 -0.298144 0.271527 0.253724 -0.783065 0.567832
-0.0964407 -0.00893653 -0.153023 -0.387206 -0.620179 -0.682239
-0.0153356 -0.226371 -0.0013991 -0.387206 -0.620179 -0.682239
0.143576 -0.145571 -0.16504 -0.387206 -0.620177 -0.682241
0.339179 -0.175388 -0.24895 -0.387206 -0.620178 -0.682239
0.125848 -0.46017 0.131003 -0.387206 -0.620179 -0.682239
-0.212853 -0.176122 0.0650239 -0.387206 -0.620179 -0.682239
-0.335148 0.104789 0.289314 -0.342643 0.783258 0.518751
-0.107139 -0.0995556 -0.00347462 0.631448 0.360804 -0.686363
0.202185 -0.342149 0.310987 0.337266 -0.783924 0.521262
-0.464375 0.161491 0.0412024 0.0474914 0.725563 -0.686515
-0.396311 0.128972 -0.108195 -0.387206 -0.620178 -0.682239
-0.251895 0.217386 -0.0232648 0.771265 -0.623328 0.128893
-0.00576005 -0.297966 0.0582481 -0.387206 -0.620178 -0.682239
0.170808 -0.361028 0.0153626 -0.387206 -0.620178 -0.682239
0.141581 0.229597 -0.202183 -0.363592 -0.577282 0.731126
0.305764 -0.0924784 -0.0835798 -0.92154 0.28353 0.265283
0.390525 0.0922257 -0.261352 0.720219 -0.665441 0.196147
0.329169 -0.0710631 -0.328659 0.624641 0.36781 -0.688868
0.223431 0.250375 -0.371264 0.463442 0.50873 -0.725545
-0.415868 0.25291 -0.170281 -0.73566 0.653856 -0.176853
0.116837 -0.0111861 -0.0561428 0.387206 0.620179 0.682239
0.2007 0.181848 -0.199001 -0.56142 -0.428365 0.708033
-0.478066 -0.100222 0.170624 -0.846638 -0.0537923 0.529443
-0.10563 0.346197 -0.286869 -0.80134 0.592332 -0.0836482
0.449336 0.0694524 -0.128311 0.451446 0.891766 -0.0308063
-0.146263 0.0446842 -0.17349 -0.387206 -0.620179 -0.682239
-0.318068 0.360536 0.0686628 0.387206 0.620178 0.682239
0.450714 0.00428113 -0.0438129 0.387206 0.620178 0.682239
0.0557968 0.0143038 -0.0883753 -0.66415 -0.325636 0.672953
0.402557 0.0673836 -0.190193 0.766061 0.195353 -0.612362
-0.273659 0.312608 -0.305535 -0.464428 0.770436 -0.436732
0.326627 -0.309225 -0.0121616 0.712996 -0.670538 0.204976
-0.365922 -0.0277873 0.0170568 -0.387206 -0.620179 -0.682238
0.0386043 0.282791 -0.182508 -0.0518786 -0.724133 0.687706
-0.440687 0.135013 0.203112 -0.920577 0.219054 0.323347
-0.0176703 0.0838074 -0.066155 0.387205 0.620179 0.68224
0.235709 -0.0942669 -0.263967 -0.387206 -0.620179 -0.682239
0.114667 -0.399176 0.081903 -0.387209 -0.620179 -0.682237
-0.306331 0.390737 -0.011937 0.539548 0.841239 -0.0347173
-0.452411 -0.0294938 0.168188 -0.568827 0.743068 -0.352542
-0.262562 0.230041 0.125284 0.908508 0.139426 0.393921
-0.0762945 0.278351 -0.167804 0.266091 -0.783643 0.561337
-0.272005 0.381568 -0.178994 -0.564624 0.744457 -0.356347
0.0823404 -0.00907171 -0.254368 -0.387208 -0.620176 -0.68224
-0.405997 0.0331168 0.198446 -0.878128 0.473571 0.0679867
-0.434052 0.225857 0.110373 0.197576 0.667007 -0.718377
0.293701 0.119243 -0.134892 -0.7777 -0.177765 0.602979
0.251662 -0.33082 0.186488 -0.0758775 -0.716016 0.693948
