ply
format ascii 1.0
comment Created by Open3D
element vertex 400
property double x
property double y
property double z
property double nx
property double ny
property double nz
end_header
-0.455988 0.183307 0.451427 -1 0 0
0.096099 0.398445 -0.370224 0 1 0
0.352537 -0.264781 -0.00583091 0 0 1
0.0524751 0.105815 0.484792 0.788345 0 0.615233
0.172313 0.295734 -0.460155 -0 -0 -1
-0.0502621 0.139145 -0.5 -0 -0 -1
-0.223153 0.200145 -0.460155 0 0 -1
-0.220669 0.38752 0.447702 0 0.724236 0.689552
0.223445 0.366295 -0.459404 0 0.170951 -0.985279
0.406403 -0.348837 -0.154291 0.999493 0 0.031831
-0.155768 0.389721 -0.445178 0 0.788353 -0.615224
-0.455988 0.276015 0.305949 -1 0 0
0.0610193 0.084113 0.111578 1 0 0
-0.00906952 0.397269 0.372358 0.219105 0.975701 0
-0.453373 -0.372762 -0.280544 -0.932994 -0.359891 0
0.0795491 0.278925 -0.460155 -0 -0 -1
0.262055 -0.131302 -0.00583091 0 0 1
-0.455988 0.0708808 0.266121 -1 0 0
-0.455988 -0.279008 -0.151908 -1 0 0
-0.310864 -0.256906 0.460155 0 0 1
0.134334 -0.398445 -0.272033 0 -1 0
0.453853 0.0858619 -0.392475 0.999493 0 0.0318309
0.0484823 -0.0291089 -0.460155 0 0 -1
-0.453375 0.338867 0.434468 -0.932998 0 0.359881
-0.165489 -0.398445 0.173048 -0 -1 -0
-0.33701 0.398445 0.321921 0 1 0
-0.178925 -0.398445 0.315232 -0 -1 -0
0.412292 -0.181499 -0.339198 0.999493 0 0.031831
0.412126 -0.262362 -0.333988 0.999493 0 0.031831
0.00493606 0.256557 0.452408 0.585816 0 0.810444
-0.455988 0.117079 0.198669 -1 0 0
-0.138611 0.398445 0.303228 0 1 0
0.0628893 -0.11777 -0.460155 0 0 -1
-0.0518608 0.339021 -0.460155 -0 -0 -1
0.324234 0.398445 -0.126723 0 1 0
-0.455988 -0.333937 0.343046 -1 0 0
0.315371 0.397868 -0.427 0 0.985279 -0.170951
-0.152312 -0.202141 -0.460155 0 0 -1
-0.455988 0.0342198 0.192216 -1 0 0
-0.279695 0.398445 -0.228327 0 1 -0
0.184161 0.00769255 0.0176971 -1.22934e-05 -0.819524 0.573045
-0.0701246 0.398445 -0.398228 0 1 0
-0.455988 0.0662788 0.345556 -1 0 0
0.0211748 0.325367 0.402531 1 0 0
0.0373474 0.00343874 0.258343 0.400735 -0.916194 5.95994e-08
0.0939142 0.0592644 0.0340136 -0 0 1
-0.455988 0.172465 -0.371098 -1 0 0
-0.455988 0.13526 0.0589942 -1 0 0
0.0610193 0.0440426 0.396636 1 0 0
-0.455988 0.0835947 -0.114281 -1 0 0
0.438107 0.00660635 -0.460401 0.534994 -0.844842 -0.0049094
0.0294791 0.398445 -0.414413 0 1 0
0.215839 -0.398445 -0.17802 0 -1 0
0.0367716 0.00318688 0.102706 0.400735 -0.916194 5.95994e-08
-0.296373 0.186689 -0.489156 -3.501e-06 0.691129 -0.722731
-0.455988 -0.245022 -0.29255 -1 0 0
-0.455988 0.251203 -0.0844504 -1 0 0
0.443359 0.104535 -0.0629523 0.999493 0 0.0318309
-0.321111 -0.360938 -0.460079 -5.47533e-07 -0.0735427 -0.997292
0.413973 -0.359347 -0.392548 0.999193 -0.0245292 0.0318214
-0.455988 -0.213648 0.199751 -1 0 0
0.278957 0.0637269 -0.5 -0 -0 -1
0.232495 -0.398445 -0.349915 0 -1 0
0.198756 -0.0904011 -0.00583091 0 0 1
0.36388 0.370877 -0.00779819 0.0343915 0.313024 0.949122
-0.455988 -0.303707 0.253643 -1 0 0
-0.402466 -0.398445 0.35759 0 -1 0
-0.455988 -0.100899 -0.380044 -1 0 0
-0.197654 -0.321585 0.460155 0 0 1
-0.119297 -0.263145 0.460155 0 0 1
-0.455988 -0.318678 0.17295 -1 0 0
0.24043 -0.218263 -0.460155 0 -0 -1
-0.455988 0.00952349 -0.360074 -1 0 0
-0.192168 -0.0122549 -0.460155 0 0 -1
0.424288 0.17638 -0.495253 0.220713 0.438478 -0.871219
-0.329776 -0.398445 -0.132452 0 -1 0
0.0211748 -0.0796165 0.065333 1 0 -0
0.22752 0.132114 -0.5 -0 -0 -1
-0.140118 -0.398445 -0.271407 0 -1 -0
0.447341 0.158807 -0.187989 0.999493 0 0.0318309
0.0211748 -0.312116 0.242771 1 0 0
0.442151 0.173696 -0.108943 0.931696 0.362025 0.0296718
-0.288708 -0.398445 -0.292473 0 -1 0
-0.199692 -0.363091 -0.459892 -8.5084e-07 -0.122429 -0.992477
-0.272888 -0.0185586 -0.460155 0 0 -1
-0.314823 0.398445 0.222465 0 1 0
0.339871 2.20031e-05 -0.461256 -0 -0.9998 -0.0199783
0.407696 -0.155494 -0.194892 0.999493 0 0.031831
-0.455988 0.159212 -0.248121 -1 0 0
-0.304791 0.300504 0.460155 0 0 1
-0.169447 -0.398445 -0.34953 0 -1 0
-0.294904 -0.398445 0.349404 -0 -1 -0
0.195335 0.348635 -0.00583091 0 0 1
0.264684 0.397061 -0.035307 -0 0.963776 0.266712
-0.359505 0.398445 -0.381084 0 1 0
-0.265691 -0.398445 -0.196668 0 -1 0
-0.3244 -0.166376 0.460155 0 0 1
-0.248592 -0.165375 0.460155 0 0 1
-0.231954 0.13233 -0.5 0 0 -1
0.357749 -0.398445 -0.11067 0 -1 0
-0.455988 0.103901 0.43156 -1 0 0
0.360321 -0.0234676 -0.00583091 0 0 1
-0.0834133 -0.158184 0.460155 0 0 1
-0.0701417 0.297021 0.460155 0 -0 1
-0.220362 0.398445 0.260043 0 1 0
-0.455988 -0.112568 -0.02922 -1 0 0
-0.360944 -0.398445 0.253572 0 -1 0
-0.121961 0.398445 -0.328626 0 1 0
-0.0256521 0.105295 0.5 0 0 1
0.373439 0.398441 -0.363942 0.0199649 0.9998 0.000635823
0.301266 -0.398445 -0.31197 0 -1 0
0.0263075 0.207483 -0.00583091 0 0 1
0.10733 0.206312 -0.00583091 0 0 1
0.240753 -0.335549 -0.00583091 0 0 1
-0.242782 0.398445 0.349853 0 1 0
-0.41504 0.398445 -0.131375 0 1 0
-0.455582 0.364239 0.0641662 -0.992481 0.122399 0
-0.387545 0.183531 -0.491836 -3.14188e-06 0.616739 -0.787168
-0.327863 0.398445 -0.295722 0 1 -0
-0.374352 -0.186097 -0.460155 0 0 -1
-0.394515 0.398445 0.113944 0 1 0
-0.455988 -0.0133424 0.288026 -1 0 0
0.129211 0.28454 -0.00583091 0 0 1
0.291141 -0.292779 -0.460155 0 -0 -1
-0.455988 -0.121293 -0.189825 -1 0 0
-0.272325 0.398445 -0.355854 0 1 0
0.0575905 0.175522 0.258791 0.913614 0.406582 0
0.40621 0.33154 -0.148214 0.999493 -0 0.031831
-0.204484 -0.101824 -0.460155 0 0 -1
0.0211748 -0.0373398 0.393934 1 0 0
-0.446154 0.384793 0.182374 -0.757208 0.653174 0
-0.227236 0.398445 -0.00457722 0 1 0
0.0211748 0.302606 0.127709 1 0 0
-0.181801 0.085359 0.5 0 0 1
0.184761 -0.291139 -0.460155 0 -0 -1
-0.455988 0.300858 0.00876833 -1 0 0
0.0211748 0.242128 0.373398 1 0 0
-0.455988 -0.102805 -0.296167 -1 0 0
0.0211748 -0.205901 0.364713 1 0 0
0.0227916 -0.152595 0.0228046 0.963776 0 0.266713
-0.0600567 -0.398445 -0.351588 0 -1 0
-0.351379 -0.398445 0.412041 -0 -1 -0
-0.0752435 0.398304 0.423531 0 0.99729 0.0735742
-0.422492 0.360772 -0.459574 -0.162381 0.0536177 -0.98527
-0.185688 -0.277796 -0.460155 0 -0 -1
-0.455988 -0.178554 0.0415177 -1 0 0
0.40978 -0.323099 -0.260317 0.999493 0 0.031831
-0.455988 0.053124 -0.0290527 -1 0 0
-0.113808 -0.0547295 0.460155 0 0 1
-0.125241 0.234264 -0.460155 0 0 -1
0.414684 -0.214819 -0.414315 0.999493 0 0.031831
-0.241646 0.196708 0.474078 1.85419e-05 0.934258 0.356597
0.0254123 -0.0132201 0.0161337 0.898671 -0 0.438624
-0.455988 -0.0457256 0.160403 -1 0 0
0.448755 0.173533 -0.314349 0.931696 0.362025 0.0296718
-0.376772 0.398445 -0.225574 0 1 0
-0.255063 -0.398445 0.16247 0 -1 0
0.432936 0.0255906 0.0143273 0.798339 -0.353875 0.487266
0.404468 -0.0532372 -0.0935234 0.999493 0 0.031831
0.0275346 0.198702 0.0990007 0.165043 0.986286 1.91137e-05
0.0610193 0.123142 0.400878 1 0 0
-0.235697 0.0517802 -0.5 0 0 -1
0.00228099 0.392481 0.275689 0.534995 0.844855 0
0.206865 0.216787 -0.460155 0 0 -1
-0.381804 0.398445 0.0280528 0 1 0
0.0561104 0.398445 -0.181633 0 1 0
0.0270565 0.00407452 0.476648 0.156301 -0.900795 0.40514
-0.228238 0.398445 -0.105973 0 1 -0
0.410329 0.256279 -0.277556 0.999493 -0 0.031831
-0.0442146 -0.398445 -0.153246 0 -1 -0
0.380454 -0.397529 -0.325907 0.219007 -0.975698 0.00697453
-0.455988 0.0767911 -0.313565 -1 0 0
0.278095 0.398445 -0.330202 0 1 0
0.434569 0.101054 -0.49548 0.446334 0 -0.894866
-0.455988 -0.28947 0.0994725 -1 0 0
-0.146025 0.0664555 -0.5 0 0 -1
-0.160085 0.398445 0.39486 0 1 0
-0.331704 0.380196 -0.453783 0 0.534998 -0.844854
-0.130165 0.398445 -0.246211 0 1 0
-0.455988 0.17464 0.250946 -1 0 0
0.0116524 -0.270331 0.446142 0.757209 -0 0.653173
-0.455988 -0.0627687 0.069798 -1 0 0
-0.447749 -0.382845 -0.197784 -0.788345 -0.615233 0
-0.228476 0.398445 0.153361 0 1 0
-0.209538 -0.398445 -0.0313607 0 -1 0
0.0610193 0.0774804 0.283599 1 0 0
-0.377802 0.362564 0.459957 0 0.122429 0.992477
-0.316405 -0.250816 -0.460155 0 0 -1
0.0211748 -0.226892 0.237256 1 0 0
0.395648 -0.387885 -0.219842 0.689194 -0.724244 0.0219488
-0.113613 -0.377003 0.455642 0 -0.449614 0.893223
-0.455988 -0.190755 -0.0560463 -1 0 0
0.224437 0.0847659 0.0340136 0 0 1
-0.443974 -0.387102 0.276 -0.689536 -0.724251 -0
-0.0503975 -0.134137 -0.460155 0 0 -1
0.339515 -0.222694 -0.460155 0 -0 -1
-0.0473901 -0.249918 -0.460155 0 -0 -1
-0.376975 -0.398445 -0.415775 0 -1 0
-0.379335 -0.322247 0.460155 0 0 1
0.41362 -0.0180696 -0.380911 0.999493 0 0.031831
-0.0254178 0.251514 -0.460155 0 0 -1
0.145699 -0.358285 -0.00583091 0 0 1
0.305798 0.398445 -0.23623 0 1 0
0.129073 -0.203293 -0.460155 0 -0 -1
-0.242195 -0.398244 0.424294 0 -0.992479 0.122414
-0.413494 0.104042 -0.5 0 0 -1
9.73083e-05 -0.394196 -0.438193 -5.86902e-06 -0.893232 -0.449595
-0.127829 -0.398445 0.076185 0 -1 0
0.147727 -0.110981 -0.460155 0 -0 -1
-0.317991 0.398445 -0.0296084 0 1 0
0.413011 -0.101127 -0.361761 0.999493 0 0.031831
-0.391625 0.261143 -0.460155 0 0 -1
0.369024 0.311603 -0.460155 -0 -0 -1
-0.349052 -0.00113367 -0.460155 0 0 -1
-0.0417013 -0.398445 -0.259193 0 -1 0
0.442605 0.187674 -0.409771 0.702991 0.710847 0.0223882
-0.455988 -0.170981 0.354514 -1 0 0
0.336671 -0.371109 -0.458129 -0 -0.312902 -0.949785
0.403175 -0.200883 -0.0529354 0.999493 0 0.031831
0.0106344 -0.385591 0.288378 0.71968 -0.694306 3.11753e-05
-0.455988 0.188125 -0.167208 -1 0 0
0.0526275 -0.398445 -0.131465 0 -1 -0
-0.248121 0.385436 -0.44976 0 0.689552 -0.724236
-0.455988 -0.177247 -0.242931 -1 0 0
0.125898 -0.398445 -0.0903364 0 -1 -0
-0.260536 -0.398445 0.259959 -0 -1 -0
0.390388 0.205757 -0.0166652 0.686789 -0 0.726857
-0.0709978 -0.398445 -0.073874 0 -1 0
-0.12566 0.398445 0.12697 0 1 -0
-0.455988 0.340014 -0.271757 -1 0 0
-0.15929 -0.161766 0.460155 0 0 1
0.0121286 -0.38388 0.0613909 0.78835 -0.615226 -4.0937e-07
-0.318951 -0.0799208 0.460155 0 0 1
0.127101 -0.398445 -0.181648 0 -1 0
0.406441 0.248796 -0.155481 0.999493 -0 0.031831
-0.131004 -0.116421 -0.460155 0 0 -1
-0.243225 -0.398445 -0.379281 0 -1 0
-0.326668 0.398445 -0.150634 0 1 0
0.0587952 0.398445 -0.0863161 0 1 0
0.312849 -0.398445 -0.20105 0 -1 0
-0.455988 0.235451 -0.272358 -1 0 0
-0.0149593 0.398445 -0.123347 0 1 0
-0.455988 -0.290302 -0.230434 -1 0 0
0.206129 0.398445 -0.160632 0 1 0
0.178649 0.398445 -0.0827065 0 1 0
-0.105596 -0.0177869 -0.460155 0 0 -1
0.431116 0.0053827 -0.301988 0.507815 -0.861315 0.0161724
-0.27579 -0.398445 0.035808 0 -1 0
-0.428268 -0.396545 0.173903 -0.313694 -0.949524 -0
0.125319 0.364273 -0.459746 0 0.122429 -0.992477
-0.142865 0.398445 -0.17092 0 1 0
-0.455988 -0.036838 0.378702 -1 0 0
-0.119461 -0.397407 -0.429308 -6.93401e-06 -0.975698 -0.219119
-0.0389785 0.0450823 -0.5 0 0 -1
-0.449042 -0.186595 0.442782 -0.821529 -1.12417e-05 0.570167
-0.346534 -0.398445 -0.0310474 0 -1 0
0.0920949 -0.193603 -0.00583091 0 0 1
-0.455988 -0.286364 0.0147937 -1 0 0
-0.449036 -0.381073 0.0926755 -0.817594 -0.575795 0
0.159797 -0.272538 -0.00583091 0 0 1
-0.380761 -0.306915 -0.460155 0 0 -1
-0.455988 -0.123833 0.248334 -1 0 0
-0.455988 0.030766 0.0628116 -1 0 0
0.0254669 0.174142 -0.497155 -1.93505e-06 0.360831 -0.932631
0.32133 0.0854907 0.0340136 0 0 1
-0.0974363 0.0317452 0.499162 0 -0.219669 0.975575
-0.455988 -0.186482 -0.147862 -1 0 0
-0.455988 0.287119 -0.160942 -1 0 0
-0.425081 -0.397418 -0.345402 -0.219123 -0.975697 0
0.44862 0.074697 -0.228135 0.999493 0 0.0318309
0.398268 -0.374593 -0.0360649 0.882983 -0.391412 0.259111
0.268846 -0.00368751 -0.00583091 0 0 1
0.00191606 0.392712 0.114858 0.534995 0.844855 0
-0.083894 -0.398445 0.141486 -0 -1 -0
0.307379 -0.379959 -0.0120518 -9.42268e-06 -0.536357 0.843991
-0.140491 0.2149 0.460155 0 0 1
-0.12881 -0.398445 -0.172573 0 -1 -0
-0.101088 0.149725 0.5 -0 0 1
0.404164 -0.289691 -0.0839788 0.999493 0 0.031831
-0.0553192 -0.398445 0.229759 -0 -1 -0
-0.200754 0.296663 -0.460155 0 0 -1
-0.410422 -0.398445 -0.107345 0 -1 0
-0.414328 0.398445 0.301602 0 1 0
0.387077 -0.119643 -0.0138685 0.611383 0 0.791335
-0.455988 -0.143491 0.131612 -1 0 0
0.020541 0.398445 -0.321626 0 1 0
0.031289 -0.398445 -0.0483999 0 -1 -0
-0.455988 0.114738 -0.420481 -1 0 0
0.299275 0.188695 -0.487135 -3.64714e-06 0.725855 -0.687848
-0.272984 0.0968955 0.5 -0 0 1
0.0919178 -0.392199 -0.441711 -0 -0.843549 -0.537053
0.0211748 0.2397 0.295173 1 0 0
0.117719 0.392221 -0.0243139 0 0.844855 0.534995
0.405318 -0.127111 -0.120213 0.999493 0 0.031831
-0.0277389 -0.0593183 0.460155 0 0 1
0.289039 0.314537 -0.460155 -0 -0 -1
0.403282 0.290689 -0.0562792 0.999493 -0 0.031831
-0.455988 0.30396 0.138952 -1 0 0
-0.328773 0.148837 0.5 -0 0 1
-0.0193815 0.398445 -0.215233 0 1 0
0.0610193 0.118229 0.184073 1 0 0
-0.225214 0.398445 -0.290894 0 1 0
0.0211748 0.246692 0.213238 1 0 0
0.413109 0.255389 -0.364856 0.999493 -0 0.031831
0.316761 -0.198578 -0.00583091 0 0 1
-0.424678 -0.0909702 -0.459219 -0.219108 0 -0.975701
0.0211748 -0.145192 0.198218 1 0 -0
0.0211748 0.310731 0.0122828 1 0 0
-0.455988 -0.28265 -0.0748338 -1 0 0
-0.446873 -0.382805 0.427797 -0.776735 -0.606192 0.170918
-0.452326 0.217536 -0.436981 -0.908 0.000176852 -0.418969
0.274239 0.174577 0.0309992 -1.94758e-08 0.361074 0.932537
-0.0652513 0.398445 0.185057 0 1 -0
-0.298442 0.305249 -0.460155 0 0 -1
-0.455988 0.217399 -0.00117633 -1 0 0
-0.330568 -0.0939063 -0.460155 0 0 -1
-0.156363 -0.398445 0.397545 -0 -1 -0
0.435847 0.0162345 -0.070612 0.814876 -0.579055 0.0259515
-0.169613 -0.398445 -0.10163 0 -1 0
-0.455988 0.220113 0.125256 -1 0 0
-0.455956 0.359893 -0.382703 -0.999699 0.0245502 0
-0.0703821 -0.398445 0.0231861 -0 -1 -0
0.164464 0.156968 0.0340136 -0 0 1
-0.455988 0.342788 0.249327 -1 0 0
-0.445563 -0.259256 -0.447177 -0.724251 0 -0.689536
0.0994927 0.0309477 -0.498983 -1.27814e-06 -0.219119 -0.975698
0.445642 0.0751267 -0.134643 0.999493 0 0.0318309
0.412233 0.337777 -0.337356 0.999493 -0 0.031831
0.0355256 -0.194638 -0.460155 0 -0 -1
0.139572 0.398445 -0.23139 0 1 0
0.00472224 0.185233 0.49046 0 0.654731 0.755862
0.0610193 0.154693 0.0486916 1 0 0
0.192476 -0.175285 -0.00583091 0 0 1
0.318389 0.23523 -0.00583091 0 0 1
0.0211748 -0.193426 0.0957978 1 0 -0
0.264396 -0.092359 -0.460155 0 -0 -1
-0.455988 0.164498 0.342745 -1 0 0
-0.402531 0.271383 0.460155 0 0 1
-0.455988 -0.231785 -0.373106 -1 0 0
0.0211748 -0.343096 0.150435 1 0 0
0.126755 0.158438 -0.5 -0 -0 -1
0.0211748 -0.297648 0.334453 1 0 0
-0.211567 -0.0627728 0.460155 0 0 1
-0.448176 -0.382294 -0.0364739 -0.817594 -0.575795 -0
-0.455988 0.0790683 -0.231135 -1 0 0
-0.0337935 0.398445 -0.0229835 0 1 -0
0.0211748 -0.299456 0.0620249 1 0 -0
-0.455502 -0.364738 -0.420452 -0.98498 -0.170915 -0.024541
0.0211748 -0.140241 0.287372 1 0 0
-0.455988 0.276375 -0.354061 -1 0 0
-0.32756 -0.398445 0.117228 0 -1 0
0.0362714 -0.398445 -0.282504 0 -1 0
0.122508 0.398445 -0.135904 0 1 0
-0.455988 -0.0233001 -0.267805 -1 0 0
0.395597 -0.305788 -0.454422 0.531285 -2.52888e-05 -0.847193
-0.409039 -0.085926 0.460155 0 0 1
0.408027 -0.0400532 -0.205278 0.999493 0 0.031831
0.0211748 -0.0747455 0.239121 1 0 -0
-0.358994 -0.398445 -0.213959 0 -1 0
-0.00146325 -0.380328 0.448915 0.424287 -0.543702 0.724133
-0.30184 0.393383 0.439724 0 0.870084 0.492904
0.232643 -0.398445 -0.0758176 0 -1 -0
0.114396 -0.398445 -0.354288 0 -1 0
0.406167 -0.232518 -0.146863 0.999493 0 0.031831
-0.29206 0.398445 0.0891925 0 1 0
0.0676591 -0.0966516 -0.00583091 0 0 1
0.181752 -0.398402 -0.422106 0 -0.999602 -0.0282278
-0.204859 0.298437 0.460155 0 -0 1
0.186243 0.398445 -0.396517 0 1 0
0.293416 0.326011 -0.00583091 0 0 1
-0.016783 0.359228 0.460109 0.02455 0 0.999699
0.20426 -0.0172375 -0.460155 0 0 -1
0.376748 -0.0701097 -0.460113 0.0244211 -7.89065e-07 -0.999702
0.34319 0.110611 -0.5 -0 -0 -1
0.201115 0.223197 -0.00583091 0 0 1
-0.00304078 -0.167543 0.456959 0.39402 -0 0.919102
0.0374932 0.0811288 -0.5 0 0 -1
0.252037 -0.369165 -0.458718 -0 -0.266032 -0.963964
-0.318482 0.0969814 -0.5 0 0 -1
-0.425959 0.0530414 0.49877 -0.267423 1.37414e-07 0.963579
-0.131353 0.398445 0.0163185 0 1 -0
-0.317238 0.0223835 0.495963 0 -0.450801 0.892624
-0.455988 -0.278234 0.407766 -1 0 0
0.390457 0.391828 -0.214567 0.534727 0.844854 0.017016
-0.106268 -0.304768 -0.460155 0 -0 -1
0.39974 0.37691 -0.0853467 0.892169 0.450808 0.0284131
0.408715 0.311935 -0.226873 0.999493 -0 0.031831
0.0673021 -0.309784 -0.00583091 0 0 1
-0.455988 -0.252707 0.319115 -1 0 0
-0.0654045 -0.398445 0.355221 -0 -1 -0
-0.454481 0.00201644 -0.471001 -0.962016 8.68376e-05 -0.272992
-0.238467 -0.181844 -0.460155 0 0 -1
-0.128843 0.160417 -0.499974 0 0.0246762 -0.999695
0.0211748 0.355241 0.201277 1 0 0
0.0303475 -0.282414 -0.460155 0 -0 -1
-0.455988 0.347382 -0.0762344 -1 0 0
0.397624 0.121415 0.0340136 0 0 1
-0.154072 0.398445 -0.0585371 0 1 -0
-0.455988 -0.0292093 -0.0424244 -1 0 0
-0.222531 0.0159169 0.492013 0 -0.616742 0.787165
