ply
format ascii 1.0
comment Created by Open3D
element vertex 400
property double x
property double y
property double z
property double nx
property double ny
property double nz
end_header
0.222601 0.224515 -0.0899096 0.841334 0.539495 -0.0332108
0.48519 -0.367001 -0.000799954 0.884521 -0.46309 0.056301
0.0261326 -0.281289 0.102279 -0.0642448 0.0812672 0.99462
0.215999 0.198347 0.103168 -0.00410594 0.0280759 0.999597
-0.0365688 -0.240376 -0.0688303 -0.00935106 0.998662 0.0508673
-0.339489 -0.0896262 -0.103723 0.0191322 -0.0206935 -0.999603
-0.24534 -0.407947 0.103822 -0.00726118 0.00569467 0.999957
0.341757 0.017412 0.0232886 0.861376 0.507955 -0.00363245
-0.431205 -0.427988 0.0502515 -0.539541 -0.841958 0.00149354
0.352518 -0.225449 0.0376407 -0.103409 -0.994635 0.00259696
0.245835 -0.361602 -0.102285 0.00711496 -0.00175703 -0.999973
-0.0329509 0.39652 0.103435 0.035251 -0.0275547 0.998999
0.273012 -0.313125 -0.035849 0.966244 0.252841 -0.0494389
-0.143236 0.0185912 0.103632 0.00391954 -0.0535426 0.998558
-0.136031 0.373105 0.0327123 -0.871158 0.490742 0.0159791
0.188268 0.281926 0.0146386 0.838095 0.545486 0.00648666
-0.112099 -0.433487 0.102921 0.0180662 -0.0401672 0.99903
0.20831 -0.300092 0.105207 0.0079269 -0.00678702 0.999946
-0.180366 -0.0662615 -0.103315 -0.010023 0.00639653 -0.999929
-0.26441 -0.0825037 -0.103767 0.00180425 -0.00940646 -0.999954
0.236171 0.0793317 0.102607 0.0341154 -0.0655905 0.997263
-0.199439 0.0640671 0.103437 -0.0395514 0.0642015 0.997153
-0.182779 -0.334623 -0.103325 -0.00293755 0.0874159 -0.996168
0.161214 -0.381162 0.103868 0.00484698 -0.00642041 0.999968
0.278409 0.128202 0.0214142 0.880804 0.47348 0.00104738
-0.35415 -0.00709995 0.0401643 -0.859724 0.510458 -0.0175229
0.0373093 0.362075 -0.0721128 -0.512696 -0.858553 -0.00549332
-0.0780896 -0.0313656 0.00346615 0.726232 -0.684907 0.059069
0.113892 0.0380889 -0.102939 -0.000489688 0.000424099 -1
-0.0893419 -0.0503394 0.063438 0.863025 -0.505082 0.00888338
0.0932959 0.280168 -0.103156 -0.0322819 0.0062635 -0.999459
0.156086 0.189186 -0.101694 -0.0111868 0.0884705 -0.996016
-0.0297918 0.0412377 0.102919 -0.0967331 0.0805284 0.992047
0.0363057 0.234391 0.00584587 -0.466202 0.884676 -0.00183876
-0.221419 -0.250737 -0.102916 -0.038761 0.017752 -0.999091
0.392712 -0.446843 -0.0458415 0.286261 -0.956933 0.0483058
-0.220888 0.0659358 -0.104614 -0.0874212 0.00522111 -0.996158
-0.31932 0.0527953 -0.097006 -0.871118 0.491022 0.00716343
0.211448 -0.120414 -0.10322 0.00359404 -0.00630353 -0.999974
0.315012 -0.0604921 0.103894 0.000376907 -0.00371174 0.999993
0.315221 -0.454772 0.0542753 -0.0113622 -0.995885 0.0899064
-0.227696 0.147398 -0.104817 0.0685015 -0.00116604 -0.99765
-0.417642 -0.290382 -0.102279 0.995311 -0.0959717 -0.0120692
-0.18714 -0.0924053 0.101022 -0.0152292 0.0550325 0.998368
0.297294 -0.233725 -0.103891 -0.0946412 0.0355265 -0.994877
-0.016507 -0.454111 -0.0447723 -0.061582 -0.99538 0.0736638
0.24477 -0.0691464 -0.102631 0.00213844 -0.0715645 -0.997434
-0.112029 -0.220072 0.102259 -0.00898027 0.00245221 0.999957
0.033683 0.0621612 0.102371 -0.00403865 0.000750319 0.999992
-0.150927 -0.150137 0.104902 0.00132072 -0.00140278 0.999998
-0.438585 -0.149178 0.0824706 -0.87437 0.485172 0.00923663
0.123602 -0.0325071 -0.0333997 -0.872261 -0.486306 -0.0516374
0.178753 -0.454572 0.0584578 -0.0420068 -0.998055 0.0460551
0.132484 0.378206 0.00888473 0.880151 0.474376 0.0173527
-0.23197 -0.20245 0.104204 0.0369687 -0.0418174 0.998441
0.183401 -0.338525 -0.103571 -0.0159465 0.0810232 -0.996585
0.256403 0.164646 0.078611 0.867112 0.498112 0.000831938
0.209929 0.247046 0.0606492 0.874651 0.484713 0.0062825
-0.491421 -0.24959 -0.0973552 -0.96711 0.252557 0.0302064
-0.0216366 -0.201323 0.0157729 0.184737 0.982337 0.0297885
0.0825491 -0.392251 0.10102 0.0308166 -0.00176755 0.999523
0.0761682 -0.170365 0.0469233 -0.660158 0.750885 -0.0190865
-0.0810415 -0.36867 -0.105151 0.00763032 -0.0107225 -0.999913
-0.330788 -0.370227 -0.0508604 -0.155481 0.98783 -0.00415397
-0.289297 -0.253912 0.0581389 -0.839905 -0.542519 -0.0152533
0.19459 -0.00427904 0.104717 0.00507357 -0.0118876 0.999916
-0.410598 -0.354821 -0.103924 0.0332092 -0.028042 -0.999055
0.0632854 -0.453714 -0.0503611 -0.00607687 -0.996808 0.0796064
-0.0761019 0.29119 -0.103296 0.0224261 -0.011256 -0.999685
0.267745 -0.126999 -0.102969 0.0141063 -0.00252581 -0.999897
-0.499519 -0.279951 0.0593823 -0.989769 0.142488 0.00742727
0.0673139 0.439421 0.0996763 0.410735 0.911435 -0.0241343
0.247831 0.181655 -0.0303107 0.858251 0.51315 0.00907718
-0.0835523 0.357183 -0.102436 -0.0354264 0.0456643 -0.998328
0.374562 -0.450395 0.028751 0.266464 -0.961265 -0.0704748
-0.0676777 0.327559 0.0375014 0.928364 -0.371319 -0.0161864
0.313264 0.04878 0.102903 -0.0175121 0.042889 0.998926
-0.0212866 0.369648 0.0407823 0.262451 -0.957712 0.117928
-0.0677194 0.270234 0.0925196 0.91388 0.405964 0.00417797
-0.0275496 -0.410976 -0.103607 0.0131218 -0.0239965 -0.999626
0.216479 0.0648877 -0.103974 -0.0675294 0.0684825 -0.995364
0.0173649 0.430316 -0.101802 0.00557375 -0.0146228 -0.999878
0.262464 -0.00427059 0.102534 0.00467958 -0.00438007 0.999979
-0.424832 -0.229053 -0.1037 0.000523364 -0.0018709 -0.999998
0.0737966 0.295854 0.0161576 -0.998874 0.0218473 0.0421176
0.0311683 0.449925 -0.0292469 0.188834 0.98178 0.0212163
-0.00955507 -0.385467 0.103078 0.0127081 -0.0214114 0.99969
0.115669 -0.0286995 0.103659 -0.001778 0.00410011 0.99999
0.215984 -0.138556 0.103364 0.00148334 -0.00992445 0.99995
-0.237403 -0.453854 -0.0855867 0.0335944 -0.998223 -0.049214
0.177628 0.301785 0.0942003 0.896351 0.442152 0.0325185
0.343598 -0.191459 -0.102686 0.0312819 -0.0164006 -0.999376
0.156289 -0.231806 -0.103359 0.0536758 -0.039738 -0.997767
0.463767 -0.19581 -0.0128572 0.871077 0.491084 -0.00785609
-0.0602943 0.338891 0.0997231 0.842849 -0.538121 -0.00568596
-0.307309 -0.0687514 0.101495 -0.0116532 0.0425977 0.999024
-0.322747 0.0437365 0.0265269 -0.873956 0.484848 0.0335129
-0.0392089 -0.00428988 0.0482945 0.380879 -0.9238 0.0390451
0.437067 -0.22473 0.102417 -0.0216178 0.020156 0.999563
0.111631 -0.247141 0.103871 0.014818 -0.0365156 0.999223
0.155353 -0.0871043 -0.0956515 -0.84642 -0.53175 0.0285687
0.232079 -0.454739 0.0982516 0.0119056 -0.999925 -0.00286226
-0.491684 -0.349333 -0.00794531 -0.938537 -0.345163 0.00317564
-0.0816219 0.21539 0.103183 -0.0919545 0.0587411 0.994029
-0.0587362 -0.453217 -0.00226948 -0.00599131 -0.999982 0.000480707
-0.0749186 0.0415452 -0.0497467 -0.110178 -0.98866 0.102041
0.0751078 -0.249447 -0.103844 -0.0096373 0.00185836 -0.999952
-0.169073 0.155712 0.103905 0.0817786 -0.0468159 0.99555
0.101986 -0.117146 0.0518446 -0.964705 0.262849 -0.015991
0.138464 -0.0920349 0.104582 -0.0127634 0.00699247 0.999894
0.275377 -0.266291 0.101842 -0.0268913 0.0163951 0.999504
0.165603 -0.453411 -0.0711425 -0.0247449 -0.999691 0.00222919
-0.379459 -0.0466533 0.0974398 -0.843973 0.535574 -0.0295147
0.228859 -0.455093 0.000201086 0.016655 -0.999586 -0.0234434
0.338338 -0.37152 0.0374699 0.0949573 0.99548 0.00161901
0.0597085 -0.0147331 0.0599755 -0.566457 -0.824091 -0.000434092
0.0819123 0.373113 0.103734 0.0401353 -0.0195574 0.999003
-0.495041 -0.343269 0.0479419 -0.970878 -0.239105 0.0149774
-0.213385 0.238388 -0.0205643 -0.832454 0.553685 -0.0212861
-0.309443 0.0634083 0.103276 -0.00261064 0.0201512 0.999794
0.186241 0.269108 -0.105409 -0.00392413 0.00070056 -0.999992
0.0425486 0.12529 0.104288 0.0055808 -0.0129864 0.9999
-0.057852 -0.404836 0.102814 0.0145876 -0.00576816 0.999877
0.161758 0.32805 -0.0154878 0.883481 0.466785 0.0396696
-0.306889 -0.237711 -0.00741359 -0.472899 -0.879998 0.0443895
-0.0933666 0.0798795 0.103313 -0.0160146 0.0162151 0.99974
0.0736095 0.310879 0.0864673 -0.982001 -0.188715 0.00780593
0.11586 -0.452671 -0.0191907 0.000874442 -0.99999 -0.00449415
0.0200658 -0.202838 0.0575049 -0.209169 0.977411 0.0302683
-0.385135 -0.104339 0.103753 -0.0461877 0.0477443 0.997791
-0.0814817 0.00548458 0.104288 0.00499396 -0.0185157 0.999816
-0.0943368 0.021823 -0.10213 0.019882 -0.0394535 -0.999024
0.430261 -0.228235 -0.103373 -0.0114806 0.0184587 -0.999764
-0.360085 -0.212233 0.10369 -0.0494879 0.0237847 0.998491
0.415164 -0.350153 -0.103864 -0.00520334 0.00334079 -0.999981
0.151879 0.147959 0.102947 -0.0162282 0.0358322 0.999226
0.0394363 -0.358122 0.104001 -0.0413471 0.0209468 0.998925
0.447411 -0.411589 0.0222849 0.65497 -0.755015 0.0310821
-0.333285 0.00677746 0.102545 0.0491083 -0.00926208 0.998751
0.320446 -0.0205501 -0.103736 0.0171784 -0.0099245 -0.999803
0.495089 -0.26588 0.0693719 0.984004 0.177161 0.0187151
0.250529 0.0161314 -0.10356 0.022637 -0.00991499 -0.999695
-0.35059 -0.443372 -0.100934 -0.0291962 0.0287745 -0.999159
0.0880877 0.427335 -0.0366334 0.598797 0.800755 -0.015277
-0.30553 0.0813522 -0.0313888 -0.839199 0.543658 -0.0134777
-0.0737727 0.433851 0.0768303 -0.556591 0.828228 0.0651559
0.384693 -0.060364 0.0803214 0.860966 0.507557 -0.0335105
-0.0957314 -0.299075 0.103887 0.0561897 -0.0602127 0.996603
0.381095 -0.0557131 4.11006e-05 0.845087 0.534358 -0.017016
0.0469778 -0.303707 -0.102604 -0.0246845 0.0290514 -0.999273
-0.313878 -0.364199 0.0101161 -0.462756 0.886001 0.0293267
-0.0774541 -0.17014 0.0628752 0.754668 0.65574 0.0219296
-0.109433 0.408729 -0.0809781 -0.733454 0.679708 0.00645335
0.321461 -0.0814095 -0.101544 0.0017387 -0.0339809 -0.999421
-0.0793913 0.434273 -0.00465368 -0.498945 0.866599 -0.00779024
0.148912 -0.44884 0.103698 0.0209127 -0.00214574 0.999779
-0.0937113 -0.455108 -0.0495473 0.0996253 -0.993365 -0.0574601
-0.137626 -0.0506147 0.103703 -0.0152707 0.00217204 0.999881
-0.0221977 0.453229 -0.0419192 -0.178126 0.983987 0.0064223
0.214344 0.236819 -0.00462728 0.885962 0.46251 -0.0340002
-0.247593 -0.379562 -0.104446 0.033917 -0.0190562 -0.999243
-0.353763 -0.00757167 -0.102808 -0.00150499 0.000554792 -0.999999
-0.235803 0.199388 -0.0711412 -0.873588 0.486633 0.00558541
0.116884 0.275171 0.102558 0.0192031 -0.0523403 0.998445
0.194039 -0.282098 -0.103493 0.0227996 -0.0155735 -0.999619
-0.097994 -0.128715 0.0302257 0.944884 0.325477 -0.0354777
0.440915 -0.413769 0.104623 0.0109087 -0.00775699 0.99991
0.151653 -0.180048 0.102654 0.0483566 -0.00390172 0.998823
-0.189264 0.280056 0.00568464 -0.863357 0.504587 -0.00278531
-0.0755841 -0.240561 -0.000188128 0.0101596 0.999948 -0.000478607
-0.309522 -0.363387 -0.103545 -0.0167643 0.0347304 -0.999256
-0.0491884 0.0228378 -0.000867344 -0.0252355 0.0210677 -0.99946
0.482005 -0.342146 -0.102966 -0.0103668 0.0294397 -0.999513
0.0896873 0.204822 0.10348 -0.0217262 0.0402351 0.998954
0.27202 -0.297906 -0.0938009 0.991718 -0.108137 0.0692968
0.113972 -0.181089 -0.0797311 -0.847373 0.530302 -0.0271879
0.164082 0.0626242 0.10392 -0.0010459 0.0017894 0.999998
0.0909678 -0.204863 -0.000314761 0.0447434 -0.01337 -0.998909
0.082191 0.414726 -0.103751 -0.0918962 0.045511 -0.994728
-0.16641 0.119785 -0.105472 0.0182607 -0.0127411 -0.999752
0.0527927 0.349432 0.0309959 -0.738108 -0.673759 0.0353011
-0.152698 -0.453948 -0.0577947 -0.0470941 -0.995609 0.0808956
-0.255984 -0.0621523 0.104221 0.0395318 -0.03497 0.998606
-0.116184 -0.0187529 -0.064464 0.836091 -0.547783 0.0297677
-0.259898 -0.315301 -0.102175 -0.0098875 0.00344172 -0.999945
0.0222432 0.368032 0.0857228 -0.271832 -0.962343 -0.00197035
0.373519 -0.445442 0.103019 0.0182318 -0.0256992 0.999503
0.403671 -0.256907 0.0137056 -0.821704 -0.568905 0.0338981
0.127737 -0.0160029 -0.103163 -0.0323976 0.00508925 -0.999462
0.130957 0.378799 -0.0661066 0.880621 0.471713 0.0446459
-0.170252 -0.216134 0.105094 -0.0123698 0.0150079 0.999811
0.416779 -0.114278 0.0373749 0.880062 0.473533 0.0354466
0.307678 -0.453846 -0.0343205 0.0250498 -0.999655 -0.00793198
-0.466523 -0.396452 0.0167737 -0.712919 -0.701221 0.00606896
-0.13863 -0.140182 -0.00378753 0.826994 0.561532 0.0276168
-0.303169 -0.359011 0.0747128 -0.550673 0.834567 -0.0160545
0.0134171 0.369831 -0.0214854 -0.145667 -0.988726 -0.0346651
-0.179255 -0.453254 -0.00034564 -0.0615235 -0.996856 0.0499352
0.100543 -0.451906 -0.103587 -0.0073079 0.00699557 -0.999949
-0.243041 0.183664 0.104266 0.015547 -0.0168397 0.999737
-0.396613 -0.34975 -0.0392126 0.622192 0.774701 0.11276
-0.273348 -0.302193 0.0996602 -0.998104 0.0583786 0.0194888
-0.409693 -0.438311 -0.00141022 -0.446963 -0.89187 0.0692243
0.43744 -0.154558 0.0925706 0.857809 0.513899 -0.00848752
0.270021 -0.317857 0.104174 0.0593396 -0.077025 0.995262
0.11764 -0.320019 -0.103393 -0.0207457 0.036953 -0.999102
-0.439176 -0.154799 0.024338 -0.844927 0.53066 -0.0670689
0.00996173 0.226849 -0.041318 -0.159372 0.987109 0.0147056
-0.13675 0.369962 -0.0376195 -0.862724 0.505446 -0.0152112
0.251965 -0.369929 0.102939 0.0611701 -0.0252203 0.997809
-0.118971 -0.370959 0.102862 0.00875039 -0.0770885 0.996986
0.382069 -0.134344 -0.104385 -0.0116575 0.0202386 -0.999727
-0.160013 0.331222 0.104482 -0.00578422 0.0118926 0.999913
-0.117243 -0.177991 -0.0550041 0.89712 0.438846 -0.0508985
-0.145224 -0.384049 -0.103636 0.0571184 -0.030719 -0.997895
0.0931117 0.0397726 0.104605 0.0065693 -0.0152589 0.999862
-0.0239581 0.368295 -0.0826456 0.358257 -0.933355 -0.0223814
0.429417 -0.137248 -0.0310634 0.85406 0.518773 -0.0381587
0.31074 -0.362708 -0.0828379 0.508066 0.855889 -0.0965529
-0.282826 -0.241352 -0.102812 -0.00427086 0.0279349 -0.999601
-0.467234 -0.201229 0.0566336 -0.857301 0.512045 -0.0533296
-0.432611 -0.140651 -0.0908505 -0.883852 0.466958 0.0274976
-0.136538 -0.054819 -0.00935733 0.861694 -0.507397 0.0055545
-0.486171 -0.237284 -0.0346294 -0.927195 0.373441 0.0291895
-0.30877 -0.0440008 -0.104328 -0.000512922 0.00566859 -0.999984
0.283823 0.0954269 -0.103098 -0.0226102 0.0220374 -0.999501
-0.266391 0.00569776 -0.10508 -0.0184367 0.0564337 -0.998236
-0.202967 0.256583 -0.0761167 -0.895032 0.44355 0.0467003
-0.40044 -0.0858415 0.0264168 -0.879205 0.474058 0.0476285
0.335537 -0.453739 -0.0910396 -0.0310908 -0.999393 0.0157233
0.236559 -0.205528 -0.105788 -0.0720381 0.0394678 -0.996621
-0.484328 -0.238832 0.102249 0.040397 -0.000854165 0.999183
-0.309872 -0.421006 0.103255 0.0179603 -0.0163046 0.999706
0.0485577 -0.21051 0.10099 0.0456298 -0.0175162 0.998805
0.0951766 -0.0624515 0.0411691 -0.913358 -0.407129 0.00477638
-0.347009 -0.148821 0.103158 0.0129067 -0.00646235 0.999896
0.417985 -0.292102 -0.087829 -0.996484 -0.0837266 0.00292601
-0.000965087 0.0414632 -0.0457978 -0.0268709 -0.999421 0.0208613
-0.013671 0.0417283 -0.097322 -0.0192476 -0.99524 0.0955363
-0.0329876 -0.312589 0.104881 -0.0579835 0.0386675 0.997568
-0.11998 0.379812 0.103245 -0.0406999 0.0240284 0.998882
-0.314865 -0.18373 -0.10532 0.0172029 -0.0190276 -0.999671
0.372466 -0.230849 -0.0261757 -0.350636 -0.93646 0.009893
-0.122806 -0.453038 0.00592653 0.00952125 -0.999929 -0.00710397
-0.413945 -0.271419 0.0943358 0.937386 -0.343068 -0.0601012
0.0971315 0.417302 0.0395627 0.65173 0.758433 0.0052354
-0.15422 -0.278777 -0.101732 0.00501199 -0.00910164 -0.999946
-0.103855 0.154307 0.104192 0.00162342 -0.00430342 0.999989
0.305855 -0.238137 2.16163e-05 0.487119 -0.872801 0.0305692
0.459695 -0.405732 -0.0370353 0.717058 -0.696442 0.0282225
-0.111318 0.128853 -0.100811 -0.0055738 0.110449 -0.993866
-0.0384663 0.23697 -0.00613195 0.547733 0.835758 -0.0386994
-0.0515324 0.350763 -0.0327479 0.684012 -0.729462 -0.00365143
-0.177757 -0.432189 -0.103136 -0.0353834 0.04237 -0.998475
0.16031 0.236265 0.103076 -0.0452612 0.0523931 0.9976
0.0541351 0.0833379 -0.102872 6.24863e-05 -4.02315e-05 -1
0.376583 -0.365047 -0.0492081 -0.482198 0.875282 0.0369654
-0.25657 0.165815 0.0503412 -0.869422 0.493986 0.00910474
0.219127 0.126256 0.10402 -0.00926851 0.000889312 0.999957
0.0297115 -0.371311 -0.105241 -0.0124515 0.00673782 -0.9999
-0.0409789 0.416031 -0.103045 0.0228622 -0.0242534 -0.999444
-0.069576 0.278034 0.0118516 0.94087 0.338421 -0.0153221
-0.245495 -0.453673 -0.0198711 -0.0286164 -0.998993 0.0345442
0.0115607 -0.441364 0.101153 0.0298921 -0.0340528 0.998973
-0.13092 0.181411 -0.102181 -0.0145141 0.018266 -0.999728
-0.175193 0.309014 -0.0415907 -0.881762 0.471289 0.0195816
0.373019 -0.407833 -0.103638 -0.0171297 0.000814155 -0.999853
-0.103006 -0.104551 0.0831509 0.994573 0.10299 -0.014774
0.246867 -0.070568 0.104436 -0.0611497 0.00626472 0.998109
-0.130346 0.258631 -0.103245 -0.0117849 0.0172633 -0.999782
0.316374 -0.229925 0.103134 0.372595 -0.927365 0.0341674
0.386596 -0.111108 0.103389 -0.0366837 0.00497765 0.999315
0.460594 -0.312681 0.103375 -0.0179296 0.0158948 0.999713
0.0726131 0.207026 -0.103163 0.00141174 -0.00622276 -0.99998
-0.414517 -0.321952 0.0377116 0.958317 0.284046 -0.0307566
-0.408043 -0.440961 -0.0950235 -0.471474 -0.881361 0.0302601
-0.0552311 -0.240637 0.104968 -0.0707437 0.0715025 0.994929
-0.0271416 0.453279 0.0262935 -0.175115 0.984422 0.0157277
-0.363929 -0.38473 -0.105388 -0.000284358 0.00637725 -0.99998
-0.152754 0.0539126 -0.10308 0.00786647 -0.0177973 -0.999811
-0.145327 -0.126951 -0.0635032 0.865912 0.500194 -0.00163039
0.0119995 -0.240264 -0.0032751 -0.102733 0.99389 0.0403649
0.2722 -0.294183 0.0179725 0.995543 -0.0913129 0.0235685
0.253932 -0.454431 -0.0822779 -0.0249808 -0.999179 0.0318829
-0.280138 -0.333675 -0.0500475 -0.888817 0.456929 -0.034934
0.0895367 -0.452206 0.100301 -0.0486922 -0.997458 0.0520206
-0.289704 0.10862 0.0421239 -0.873378 0.48654 0.0221123
0.496587 -0.265212 -0.0944788 0.985166 0.167594 -0.0368896
-0.244414 -0.133711 0.101944 -0.00826918 0.0567364 0.998355
-0.346674 -0.225049 -0.0551209 0.0478468 -0.998831 0.00682814
-0.209371 -0.00518801 -0.102975 -0.000351366 0.0153445 -0.999882
-0.157523 -0.218999 -0.104444 -0.0436553 0.0504885 -0.99777
-0.344934 0.0094274 -0.0351064 -0.861353 0.507639 -0.0193246
0.0567808 0.252594 0.0773454 -0.754604 0.654999 -0.039356
0.0236607 0.00740896 0.102198 0.00243962 -0.00117769 0.999996
0.124932 -0.16479 -0.0179011 -0.874662 0.484635 0.00981893
0.0880272 0.139693 -0.103854 -0.0207436 0.0389124 -0.999027
0.353123 0.00136232 0.091136 0.876724 0.480964 -0.00530967
-0.260822 0.00240814 0.102019 -0.051975 0.0425213 0.997743
0.150621 0.353763 0.0806381 0.834861 0.550089 -0.0202078
-0.293856 -0.22002 0.103712 0.00406955 -0.00999536 0.999942
0.172715 -0.171263 -0.104074 0.00408941 -0.00280245 -0.999988
-0.412376 -0.276337 -0.0049949 0.961795 -0.273154 -0.0183606
-0.386519 -0.0614664 -0.0429517 -0.869351 0.494016 0.0132557
0.29695 -0.417755 -0.102258 0.00168093 -0.00356085 -0.999992
0.401978 -0.343307 0.0451285 -0.77811 0.627777 -0.0210065
-0.182961 0.201467 -0.102295 0.00449089 -0.00611261 -0.999971
0.314891 0.0643893 -0.0594861 0.864265 0.503024 -0.00357787
0.450959 -0.175604 0.0418976 0.872754 0.486492 0.040335
0.137298 -0.323264 0.103156 -0.0341675 0.011038 0.999355
0.159353 0.32946 -0.0968831 0.84603 0.528745 -0.0682786
0.0234506 -0.238923 -0.0690989 0.0526608 0.997947 -0.0364561
0.144107 -0.104801 -0.00082322 -0.00510044 0.0235686 -0.999709
0.070676 -0.0152206 -0.00016217 0.00134067 -0.00130855 -0.999998
-0.438908 -0.4209 -0.0511728 -0.593137 -0.804844 -0.0203646
-0.138545 -0.454914 0.0575703 0.0190101 -0.999818 -0.00189076
-0.0556612 0.0990133 -0.100379 -0.10744 0.0573892 -0.992554
-0.179416 0.299146 0.0582334 -0.858563 0.512047 -0.0260295
-0.286793 -0.13597 -0.10242 -0.0204306 0.029394 -0.999359
0.281388 0.120139 -0.0440555 0.858014 0.512574 -0.0328471
0.0497068 -0.454093 0.0217447 -0.0367916 -0.999304 0.00618461
0.291836 0.103767 0.0731804 0.872534 0.488544 0.00288275
-0.498593 -0.294526 -0.0208448 -0.99715 -0.035955 0.0663202
-0.0248173 -0.354557 -0.104041 0.0207437 -0.0208338 -0.999568
-0.107254 -0.240347 -0.101853 -0.0235646 0.0958733 -0.995115
-0.370051 -0.367636 0.0652964 0.310264 0.950608 0.00900519
0.0767677 -0.239721 -0.0414448 -0.0101703 0.999722 0.0212882
0.379984 -0.203067 0.10196 0.0191796 -0.00707333 0.999791
-0.196059 -0.0157691 0.103758 0.0455066 -0.0254974 0.998639
-0.379661 -0.419042 0.102801 0.0135926 -0.00812725 0.999875
-0.40581 -0.0975404 -0.101949 -0.0119644 0.00477997 -0.999917
0.0944293 0.151278 0.103904 -0.0366325 0.0162284 0.999197
-0.317438 -0.453819 0.0022719 0.0196201 -0.999266 -0.0328877
0.200498 -0.395798 -0.102656 0.0394411 -0.0183862 -0.999053
0.291999 -0.41453 0.103672 0.0077602 -0.00525976 0.999956
-0.225158 -0.198097 -0.103076 -0.0179279 0.0250698 -0.999525
0.425315 -0.361431 0.103535 -0.0668933 0.0752946 0.994915
-0.267656 0.14212 -0.0393562 -0.863926 0.502787 -0.0289478
0.444762 -0.41807 -0.0982731 0.586212 -0.809747 0.0257851
-0.460754 -0.383719 -0.102884 0.0393785 -0.0224305 -0.998973
5.2763e-05 0.113705 -0.104665 0.002194 -0.0117271 -0.999929
-0.086613 -0.304468 -0.104542 0.0109107 -0.0084196 -0.999905
-0.474281 -0.328899 0.10132 -0.00964886 0.00176567 0.999952
-0.0657303 0.271647 -0.0457562 0.944976 0.323914 0.0458159
0.244626 -0.198911 0.103852 0.00767664 -0.0129703 0.999886
-0.165061 -0.400431 0.103781 -0.0556651 0.0553588 0.996914
-0.196025 -0.454573 0.102122 0.0205301 -0.999064 -0.0380765
0.223343 0.121349 -0.10255 -0.00462596 0.0155078 -0.999869
-0.0221244 -0.289436 -0.102318 -0.0104715 0.00821064 -0.999911
-0.15396 -0.295238 0.102854 0.00141473 -0.00288635 0.999995
-0.0416609 -0.454235 0.0845112 0.020278 -0.999705 -0.0133715
-0.457999 -0.185079 -0.0297726 -0.877736 0.478945 0.0138125
-0.300535 -0.453731 -0.0712687 -0.0190986 -0.999727 0.013453
-0.0161826 0.227167 0.05285 0.22755 0.973589 0.0185727
-0.183668 -0.154479 -0.10318 -0.00809826 0.00328608 -0.999962
-0.271959 -0.307218 0.0187435 -0.991901 0.126103 -0.0151522
-0.239316 0.116629 0.103465 0.0155691 -0.00831394 0.999844
0.48891 -0.358765 0.0659138 0.887671 -0.459343 0.0323013
-0.3612 -0.453961 0.0521997 -0.117525 -0.99301 -0.0108948
0.419477 -0.305797 -0.0127016 -0.996955 0.0779665 -0.00157729
0.500143 -0.32048 -0.0484167 0.993538 -0.103864 -0.045772
-0.018502 0.168905 0.104749 0.103496 -0.081607 0.991276
0.00428946 0.450156 0.102662 0.122424 -0.0897019 0.988416
0.244246 0.1848 0.0276564 0.890547 0.448618 0.0752885
0.146356 -0.395225 -0.104097 -0.0686495 0.0660377 -0.995453
-0.14671 0.10015 0.104115 0.0189647 -0.0149355 0.999709
0.177913 -0.241303 0.103373 -0.00371664 0.0132076 0.999906
-0.025981 -0.201952 0.0927423 0.242895 0.969459 0.0339435
-0.255878 -0.453589 0.0463651 -0.0409403 -0.994823 0.0930154
-0.0394305 0.238351 -0.0993957 0.590242 0.807081 -0.015328
0.046588 0.447004 0.0516341 0.356046 0.934343 0.0153205
-0.443301 -0.418687 0.102235 -0.677065 -0.735543 0.0236292
-0.0790001 -0.445835 -0.101654 -0.00188647 0.00694117 -0.999974
0.495565 -0.26721 -0.000779438 0.970465 0.239897 -0.0254518
-0.418409 -0.119639 -0.0270424 -0.839663 0.541915 -0.0359652
0.396117 -0.24983 0.0734635 -0.785253 -0.619006 -0.014482
0.303354 -0.123552 0.103173 0.0223741 -0.0252307 0.999431
-0.498499 -0.328841 -0.0822707 -0.9872 -0.157414 -0.0256471
-0.15083 0.348807 -0.0933671 -0.869833 0.493185 0.0125704
-0.289872 0.107781 -0.103712 -0.864215 0.503076 -0.00689448
0.445106 -0.167157 -0.0881796 0.892656 0.450739 0.000411588
-0.00150038 0.191499 -0.102192 -0.00481567 0.00704223 -0.999964
-0.22372 0.223002 0.0595375 -0.876156 0.481909 0.0107095
0.121732 -0.452461 0.0509912 -0.023482 -0.999594 0.016121
0.0520286 0.040359 -0.0114839 -0.0655004 -0.995858 0.0630578
0.165302 0.128732 -0.103577 0.00127603 -0.00114409 -0.999999
-0.0726389 -0.177222 -0.000414651 -0.00446229 0.0084154 -0.999955
0.192849 -0.0592653 0.104325 -0.0113979 0.0307759 0.999461
0.304577 -0.362159 -0.0174449 0.624877 0.780211 -0.0282838
-0.399681 -0.249884 -0.0599553 0.805078 -0.592043 -0.0365435
0.390537 -0.0673027 -0.101478 0.871043 0.491187 -0.00446682
-0.353972 -0.225653 0.0234011 0.127195 -0.9917 0.0187874
0.47932 -0.222029 -0.0618047 0.878171 0.478336 -0.00326198
-0.178477 0.220193 0.102825 0.0389595 -0.0240751 0.998951
0.0887733 -0.153073 0.10218 -0.872592 0.487022 0.0373265
-0.20993 -0.267964 0.104018 -0.0400173 0.0527402 0.997806
-0.372902 -0.190413 -0.10417 0.0238711 -0.00191303 -0.999713
-0.41994 -0.336633 0.102504 -0.0435005 0.000793867 0.999053
0.192501 -0.0296593 -0.102628 -0.00382182 0.0197653 -0.999797
0.366348 -0.0244933 -0.0553431 0.833787 0.550592 -0.0405792
