ply
format ascii 1.0
comment Created by Open3D
element vertex 400
property double x
property double y
property double z
property double nx
property double ny
property double nz
end_header
-0.0431514 0.0158302 -0.07218 -0.643339 0.765582 0
0.280708 -0.5 -0.247566 0 -1 0
-0.129529 -0.0325207 -0.264303 0 1 -0
0.426809 -0.236208 -0.321511 1 0 0
0.0395282 -0.192567 0.214314 -0.443288 0.896379 0
0.426809 -0.262196 -0.159929 1 0 0
0.339676 0.5 0.0252666 0 1 -0
-0.235255 -0.0325207 -0.254689 0 1 -0
-0.405241 -0.493426 0.325203 0 0 1
-0.106449 -0.32203 0.325203 0 0 1
-0.170568 -0.387577 -0.195122 0 0 1
-0.0906563 -0.420862 0.325203 0 0 1
0.42593 -0.012849 0.0456951 0.975702 0.219103 0
0.345508 0.142547 -0.0393517 1 0 0
-0.0672199 -0.5 -0.0398527 0 -1 0
0.0341179 -0.5 0.133533 -0 -1 0
0.345508 0.237668 -0.0603549 1 0 0
0.320123 -0.201519 -0.246447 0.974913 -0.222586 0
0.320128 -0.107446 -0.0222084 0.974913 0.222586 -0
0.331363 0.5 -0.308471 0 1 0
-0.0398864 -0.214289 0.325105 -0.120564 0.992706 0
0.0076435 -0.287145 -0.0317266 0.56332 0.826239 0
-0.274771 -0.275936 -0.262932 -0.0760266 -0.997106 0
-0.191909 -0.191821 -0.02246 0.436032 0.899931 0
0.138989 -0.492898 -0.325203 0 0 -1
0.068568 0.0638105 -0.325203 0 0 -1
0.221451 0.142783 0.325203 0 0 1
0.115643 -0.136935 0.178475 -0.748643 0.662974 0
-0.167535 -0.2227 -0.195122 -0 0 1
0.118713 -0.140273 -0.195122 0 0 1
-0.390174 -0.234606 0.0922954 -0.771928 0.635709 0
0.324979 -0.146293 -0.119071 0.999689 0.0249399 0
0.426809 -0.459436 0.218921 1 0 0
0.345508 0.498599 0.0348992 1 0 -0
0.262344 -0.28048 0.0813008 0 0 1
0.345508 0.119949 -0.263311 1 0 0
0.345508 0.492607 -0.0807445 1 0 -0
-0.309489 -0.5 0.24449 -0 -1 0
0.22122 -0.354564 -0.325203 0 0 -1
-0.224536 -0.476881 -0.195122 0 0 1
-0.0161321 -0.483961 -0.113821 0 0 -1
0.0496834 -0.407854 -0.325203 0 0 -1
0.194715 -0.479615 0.325203 0 0 1
0.347323 0.0340195 -0.315649 0.94953 0.313675 0
0.426809 -0.363271 0.00703606 1 0 0
-0.210903 -0.0325207 -0.15275 0 1 0
0.345508 0.183768 -0.132888 1 0 0
0.345508 0.376916 -0.0654334 1 0 -0
0.125048 0.0678072 -0.204227 0.0991035 0.995077 -0
0.0776733 -0.253385 -0.325203 0 0 -1
0.345508 0.276425 -0.140389 1 0 0
0.345508 0.128724 0.183572 1 0 0
0.15293 -0.000194579 -0.0665376 -0.294756 -0.955573 0
0.0869821 -0.377526 0.065976 -0.0503582 -0.998731 0
-0.07368 -0.401404 -0.113821 0 0 -1
0.178864 -0.000677824 -0.248475 -0.985782 0.168031 0
0.426809 -0.244334 0.0322903 1 0 0
0.222589 0.25584 0.101383 -0.985782 0.168031 0
0.22807 0.287992 -0.0545738 -0.985782 0.168031 0
-0.328605 -0.14512 -0.322315 0.99224 -0.124337 0
-0.42679 -0.470616 0.129421 -1 0 0
-0.0174336 -0.343662 -0.266874 -0.522009 -0.85294 0
0.0278666 -0.320752 -0.325203 0 0 -1
0.426809 -0.408212 -0.09461 1 0 0
0.0109381 0.0033629 -0.325203 -0 0 -1
0.0960692 -0.316949 -0.106172 0.0498449 0.998757 0
0.150625 -0.218108 -0.195122 0 0 1
-0.150795 -0.121123 0.0813008 0 -0 1
-0.232164 -0.276423 0.00102859 -0 -1 -0
0.426809 -0.1138 -0.00983503 1 0 0
-0.247111 -0.350989 -0.325203 0 -0 -1
-0.148814 -0.215447 0.049511 0 1 0
-0.144147 -0.5 0.250796 -0 -1 0
-0.102415 -0.276429 -0.318315 -0.0242915 -0.999705 0
0.426809 -0.461945 -0.0204076 1 0 0
-0.14346 -0.296872 -0.195122 0 0 1
0.0115981 -0.5 -0.322256 0 -1 0
0.163063 -0.0614705 0.129293 -0.92628 0.376835 0
-0.183127 -0.0325207 -0.0718269 0 1 0
0.140029 -0.5 0.27133 -0 -1 0
0.150482 0.0636789 -0.118877 0.19772 0.980259 -0
-0.122866 -0.215447 -0.0838878 0 1 0
0.224642 0.267885 0.199995 -0.985782 0.168031 0
0.271698 -0.5 -0.0843665 0 -1 0
0.426809 -0.248433 0.0616952 1 0 0
0.254542 -0.209664 -0.0690706 -0.947928 0.318485 0
0.362838 -0.478476 -0.325203 0 0 -1
0.426809 -0.323696 -0.0783994 1 0 0
0.277562 -0.0869056 0.0813008 -0 0 1
0.15018 -0.0889229 0.00413042 -0.885576 0.464495 0
0.426809 -0.134617 0.0832165 1 0 0
0.161065 -0.0663806 0.1269 -0.92628 0.376835 0
0.189357 0.0608796 -0.304123 -0.985782 0.168031 0
0.426809 -0.347117 0.0960984 1 0 0
-0.335129 -0.337569 0.325203 -0 0 1
0.18234 -0.5 -0.096938 0 -1 0
0.134787 0.00538342 -0.325203 0 0 -1
0.115969 -0.423209 -0.113821 0 0 -1
0.426809 -0.450797 0.0631589 1 0 0
-0.315254 -0.0437344 -0.103997 -0.409306 0.912397 0
0.205829 -0.0994799 0.325203 0 0 1
0.246556 0.0156702 0.0712943 0.642577 0.766221 0
-0.356662 -0.203636 0.221997 -0.552732 0.833359 0
0.215893 0.216558 0.00424747 -0.985782 0.168031 0
-0.2143 -0.196123 -0.119251 -0.781832 0.623489 0
0.306723 -0.270374 0.325203 0 0 1
0.194937 0.0936173 -0.000913963 -0.985782 0.168031 0
0.345508 0.0617606 -0.116656 1 0 0
-0.329288 -0.0513516 -0.266369 -0.540763 0.841175 0
-0.315495 -0.5 -0.0579699 0 -1 0
0.426809 -0.23168 -0.227205 1 0 0
0.000709338 -0.353954 -0.0807999 -0.434461 -0.900691 0
-0.378612 -0.112236 -0.120121 -0.939039 0.343812 0
-0.381604 -0.121321 -0.23337 -0.968612 0.248579 0
-0.185327 -0.195286 0.220102 0.479916 0.877314 0
0.211795 -0.5 0.0425775 0 -1 0
0.208228 -0.292535 0.325203 0 0 1
0.360324 -0.365723 0.325203 0 0 1
-0.238774 -0.176854 0.0530928 0.154331 0.988019 0
-0.42679 -0.372712 0.181264 -1 0 0
0.0702741 0.0050339 -0.243571 0.198145 -0.980173 0
0.0314274 -0.413791 -0.113821 0 0 -1
0.240769 0.0205079 -0.01166 0.60357 0.79731 -0
0.236444 -0.245309 -0.275955 -0.840028 0.542544 0
0.0830628 0.0617162 0.0813008 -0 0 1
0.333866 0.0261193 0.325203 -0 0 1
-0.268057 -0.0803438 -0.325203 -0 0 -1
0.0810501 -0.5 0.204456 -0 -1 0
-0.278634 -0.491403 -0.325203 0 0 -1
-0.4124 -0.5 -0.226386 0 -1 0
0.0984017 -0.317023 0.0172168 0 1 0
0.347873 0.0325572 0.0865438 0.932985 0.359916 0
-0.426664 -0.33062 -0.301624 -0.998892 0.0470615 -0.000128296
-0.244688 -0.5 0.0981523 -0 -1 0
0.151239 0.000326975 0.030557 -0.294756 -0.955573 -0
0.311877 -0.187446 -0.325203 0 -0 -1
-0.174773 -0.410889 -0.325203 0 0 -1
-0.187473 -0.276423 -0.278171 0 -1 0
0.107471 -0.377962 -0.257944 0.0493641 -0.998781 0
-0.0396542 -0.242883 -0.113821 0 0 -1
0.420185 -0.000666049 0.24438 0.788356 0.61522 0
0.416867 -0.5 -0.240441 0 -1 0
0.31586 -0.381759 -0.325203 0 0 -1
0.15679 -0.386097 0.325203 0 0 1
0.0871 -0.163266 -0.318489 -0.607285 0.794484 0
0.289057 -0.102039 -0.325203 0 0 -1
-0.057696 -0.187024 -0.180858 0.974928 0.222521 0
0.345508 0.235162 -0.213505 1 0 0
0.345508 0.126776 0.28017 1 0 -0
0.345834 0.0401568 0.17682 0.992475 0.122444 0
0.232547 0.314257 -0.211613 -0.985782 0.168031 0
0.187054 -0.017593 0.325203 -0 0 1
-0.0469831 -0.0885526 -0.17193 0.911506 -0.411287 0
0.426809 -0.133907 -0.237541 1 0 0
0.295459 0.193468 0.325203 0 0 1
-0.35836 -0.29652 -0.113821 -0 0 -1
0.345508 0.401918 0.214052 1 0 -0
0.322362 0.286041 0.325203 0 0 1
0.420943 -0.41346 -0.325203 0 0 -1
-0.103024 -0.148445 -0.325203 0 0 -1
-0.199703 -0.146622 -0.312824 -0.99224 -0.124341 0
-0.42679 -0.39449 -0.0961939 -1 0 0
0.292769 -0.0385624 -0.0715956 0.865942 0.500145 0
0.264266 -0.150265 -0.161912 -1 0 0
0.157684 -0.223223 0.325203 0 0 1
0.264266 0.405702 -0.190118 -1 0 0
-0.409806 -0.275781 0.325203 0 0 1
-0.415838 -0.497759 0.325203 0 0 1
0.0531646 0.000694904 -0.0834025 0.294756 -0.955573 0
0.355975 0.0208237 0.00407471 0.689538 0.724249 0
-0.33532 -0.321939 -0.195122 -0 0 1
0.157196 -0.307221 -0.17237 -0.342022 0.939692 0
0.220346 0.242682 -0.290982 -0.985782 0.168031 0
0.259413 0.370744 -0.113821 0 -0 -1
0.152049 -0.5 0.110887 0 -1 0
0.345508 0.218484 0.166888 1 0 -0
0.426809 -0.169422 -0.142916 1 0 0
-0.0390183 -0.0729372 -0.0833191 0.866025 -0.500001 0
0.345508 0.119209 0.0828522 1 0 0
0.381826 -0.5 -0.0735782 0 -1 0
0.0751486 0.0675027 -0.145958 -0.100095 0.994978 0
-0.333289 -0.385376 -0.113821 0 0 -1
-0.00973532 -0.0360352 0.0211799 0.680173 -0.733051 0
0.183062 -0.295194 -0.0770243 -0.521435 0.853291 0
0.264266 -0.353371 -0.115505 -1 0 0
-0.249188 -0.319146 -0.195122 -0 0 1
0.422095 -0.00346848 -0.0344621 0.844842 0.535015 -0
0.426809 -0.198937 0.171647 1 0 0
0.16341 -0.0606162 -0.195767 -0.92628 0.376835 0
-0.377765 -0.199022 -0.157735 -0.92212 -0.386903 0
-0.301035 -0.0382257 0.0466549 -0.316398 0.948627 0
0.426809 -0.317981 0.194069 1 0 0
-0.0884513 -0.416982 0.325203 0 0 1
-0.0650675 -0.215447 0.236379 -0 1 0
0.345508 0.416467 0.318041 1 0 -0
0.325015 -0.161185 0.080221 0.999689 -0.0249399 0
0.321022 -0.37881 -0.325203 0 0 -1
0.345508 0.0551682 -0.0960765 1 0 0
0.31255 0.5 0.294047 0 1 -0
-0.219753 -0.181008 -0.229071 0.250983 0.967992 0
-0.249578 -0.472762 -0.113821 0 0 -1
-0.182642 -0.5 0.146602 -0 -1 0
0.378176 -0.5 0.115744 0 -1 0
0.322498 -0.120082 -0.223609 0.984798 0.173706 -0
-0.287416 -0.446675 0.325203 0 0 1
0.251083 0.423007 0.118688 -0.985782 0.168031 0
-0.11647 -0.0325207 0.0625803 0 1 0
-0.417998 -0.284593 0.220434 -0.941644 0.336611 0
-0.13854 -0.5 -0.0965612 0 -1 0
0.251376 0.230301 -0.113821 0 -0 -1
0.238939 0.351761 0.278707 -0.985782 0.168031 0
-0.310334 -0.181516 0.127056 -0.285378 0.958415 0
0.291563 -0.167732 0.325203 0 0 1
0.319699 -0.5 -0.159257 0 -1 0
0.149921 -0.372735 -0.0308054 0.197721 -0.980258 0
0.426809 -0.388336 0.29008 1 0 0
0.102512 -0.150049 0.301845 -0.681145 0.732148 0
0.180143 -0.347588 0.0813008 0 0 1
0.0542122 -0.35833 0.325203 0 0 1
-0.106383 -0.335232 -0.113821 0 0 -1
0.274195 -0.296529 -0.19668 0.781699 -0.623656 0
-0.247632 -0.0916074 0.0767771 -0.246756 -0.969078 -0
0.116952 -0.135457 0.0733491 -0.748643 0.662974 0
0.0741347 -0.260126 -0.195122 0 0 1
0.188878 0.0580713 0.227365 -0.985782 0.168031 0
0.0370953 -0.193646 0.0816082 -0.399453 0.916753 0
-0.059806 -0.318991 -0.195122 0 0 1
0.426809 -0.084407 0.1875 1 0 0
-0.426755 -0.332397 0.00355262 -0.998782 0.0493506 4.19022e-05
0.256398 0.454187 0.0384992 -0.985782 0.168031 0
0.261476 0.443931 0.325203 0 0 1
-0.337998 -0.251594 0.00316482 -0.584947 -0.811071 0
-0.104042 -0.5 0.168746 -0 -1 0
-0.42679 -0.380821 -0.0949075 -1 0 0
0.426809 -0.216796 -0.0720837 1 0 0
0.345508 0.242414 0.254082 1 0 -0
0.258431 -0.197254 0.0325772 -0.962624 0.270842 0
-0.280052 -0.275357 -0.074724 -0.125654 -0.992074 0
-0.107504 -0.215447 -0.257131 0 1 0
-0.0534087 -0.43409 -0.325203 0 0 -1
0.199867 0.122539 -0.224182 -0.985782 0.168031 0
-0.412619 -0.5 0.0525737 -0 -1 0
-0.313476 -0.436896 -0.195122 0 0 1
-0.0292897 -0.213002 -0.315435 -0.120564 0.992706 0
0.196992 -0.5 0.199227 0 -1 0
-0.01534 -0.309191 0.325203 0 0 1
-0.425744 -0.405272 -0.195122 -0 0 1
-0.178721 -0.283376 -0.113821 0 0 -1
-0.425826 -0.319489 0.0895535 -0.995352 0.0963063 0
-0.259636 -0.276207 0.325203 -0 0 1
0.221963 0.252165 0.304864 -0.985782 0.168031 0
0.232484 -0.217011 -0.195122 0 0 1
0.278818 0.0833649 -0.325203 0 -0 -1
0.221046 -0.343421 -0.242147 0.521159 -0.85346 0
0.30347 -0.285753 -0.325203 0 0 -1
0.0351594 -0.5 0.0164306 0 -1 0
0.257148 -0.494335 -0.325203 0 0 -1
0.264266 0.130643 -0.127848 -1 0 0
-0.294101 -0.413415 -0.325203 0 -0 -1
0.0404061 -0.347029 -0.195122 0 0 1
0.173303 -0.0292977 0.230284 -0.971017 0.239011 0
-0.0556933 -0.113372 0.0607931 0.962624 -0.27084 0
0.255135 0.446774 -0.321112 -0.985782 0.168031 0
-0.17978 -0.0622677 -0.325203 -0 0 -1
0.33338 0.367821 -0.325203 0 -0 -1
-0.0607453 -0.145718 -0.00999672 0.997204 -0.074731 0
-0.0351063 -0.5 0.257658 -0 -1 0
0.426809 -0.324523 -0.301976 1 0 0
-0.0663494 -0.00700304 -0.198235 -0.750289 0.66111 0
0.206507 0.161494 -0.0772705 -0.985782 0.168031 0
-0.0357901 -0.5 -0.235229 0 -1 0
0.242699 0.373818 -0.00957953 -0.985782 0.168031 0
0.345508 0.232531 -0.320815 1 0 0
0.00689963 -0.205021 -0.0165432 -0.309088 0.951033 0
-0.0609672 -0.155626 -0.0989763 0.999689 0.0249308 0
0.315513 -0.219436 -0.153457 0.962601 -0.270924 0
0.168039 -0.5 -0.208247 0 -1 0
0.345508 0.415007 -0.208521 1 0 0
0.267355 0.5 -0.128827 -0 1 0
0.0534262 -0.230363 -0.113821 0 0 -1
0.345508 0.348752 0.0330782 1 0 -0
-0.333854 -0.5 0.0368605 -0 -1 0
-0.0883238 -0.355583 -0.325203 0 0 -1
-0.0326591 -0.5 0.0755225 0 -1 0
0.262225 0.488369 -0.0403186 -0.985782 0.168031 0
-0.0318544 -0.06164 -0.25291 0.811938 -0.583744 0
-0.0835056 -0.5 -0.322986 0 -1 0
-0.0784343 -0.28726 -0.0281092 -0.751558 -0.659667 -0
-0.248696 -0.217607 -0.31146 -0.246756 0.969078 0
-0.144367 -0.5 0.0504829 -0 -1 0
0.204498 -0.0587428 -0.325203 0 0 -1
-0.42679 -0.422784 0.012676 -1 0 0
0.0352469 -0.194451 -0.255321 -0.399453 0.916753 0
0.390617 -0.036789 -0.325203 0 0 -1
-0.41676 -0.5 0.220597 -0 -1 0
0.165953 -0.155524 -0.325203 0 0 -1
-0.210794 -0.495388 0.325203 0 0 1
-0.238624 -0.5 0.0180016 -0 -1 0
-0.396714 -0.243124 -0.257667 -0.802365 0.596834 0
0.163284 -0.243162 -0.325203 0 0 -1
0.424263 -0.00772061 -0.162844 0.914212 0.405237 -0
-0.134033 -0.0325207 -0.154569 0 1 -0
-0.203205 -0.0325207 0.0454526 0 1 0
0.0274806 -0.365346 0.00804604 -0.342592 -0.939484 0
0.25935 0.471502 -0.22281 -0.985782 0.168031 0
-0.403031 -0.25276 -0.051567 -0.857294 0.514827 0
0.345508 0.401071 0.120313 1 0 -0
0.204969 0.15247 0.085656 -0.985782 0.168031 0
0.426809 -0.365382 -0.171491 1 0 0
-0.0444913 -0.214631 0.0530894 -0.0724521 0.997372 0
0.415201 -0.0549402 0.325203 0 0 1
-0.335567 -0.5 -0.254832 0 -1 0
0.183324 -0.179526 -0.113821 0 0 -1
-0.0259515 0.0290721 -0.25228 -0.563889 0.825851 0
0.361175 0.0169073 -0.213545 0.534992 0.844857 0
0.0263489 -0.497788 0.325203 0 0 1
-0.342297 -0.5 0.130082 -0 -1 0
-0.340373 -0.309649 -0.325203 0 0 -1
0.305536 -0.5 0.019652 0 -1 0
-0.182454 -0.384163 -0.113821 0 0 -1
-0.101999 -0.0325046 -0.0314255 -0.0242939 0.999705 0
0.264266 -0.0567903 -0.143914 -1 0 0
0.0583965 -0.495594 -0.113821 0 0 -1
0.265209 -0.378716 0.325203 0 0 1
0.0627467 -0.443903 -0.195122 0 0 1
-0.42679 -0.374138 0.318575 -1 0 0
-0.314517 -0.195721 -0.245508 0.78183 0.623492 0
0.407696 -0.5 -0.153646 0 -1 0
-0.209893 -0.387221 0.325203 0 0 1
0.140233 -0.336894 -0.325203 0 -0 -1
-0.397068 -0.466793 -0.325203 0 0 -1
0.232461 -0.33574 0.00717936 0.603572 -0.797309 0
0.241949 0.0512412 0.325203 0 0 1
-0.32759 -0.197972 0.325203 0 0 1
-0.027749 -0.32161 0.0813008 0 0 1
0.26108 -0.5 0.127632 0 -1 0
0.262712 0.170678 -0.325203 0 -0 -1
-0.153669 -0.236816 0.325203 -0 0 1
-0.38186 -0.122315 -0.0311398 -0.968612 0.248579 0
0.426809 -0.133568 0.286454 1 0 0
0.198115 -0.0949799 -0.113821 0 -0 -1
-0.33534 -0.0554318 -0.189342 -0.582033 0.813165 0
-0.0134934 0.0371304 0.0700843 -0.522008 0.85294 0
-0.424057 -0.494871 -0.113821 0 0 -1
-0.305566 -0.26121 0.0813008 0 -0 1
-0.366883 -0.094652 0.0813008 -0 0 1
-0.292432 -0.0958768 -0.0199531 0.433885 -0.900968 0
-0.233008 -0.0974475 -0.197756 -0.478254 -0.878221 0
0.345508 0.489827 0.190622 1 0 -0
0.240643 0.0206032 -0.111004 0.60357 0.79731 -0
0.426809 -0.0218406 0.125358 1 0 0
0.426809 -0.290676 0.297094 1 0 0
0.261194 0.200529 -0.195122 0 0 1
0.243163 0.0535712 -0.195122 0 0 1
-0.42679 -0.364754 0.287979 -1 0 0
0.083855 -0.5 -0.246841 0 -1 0
0.426809 -0.411827 -0.235038 1 0 0
0.382778 -0.472371 0.325203 0 0 1
0.171358 -0.406057 -0.195122 0 0 1
-0.0759571 -0.0570335 -0.325203 -0 0 -1
0.259913 0.474807 0.190708 -0.985782 0.168031 0
-0.407846 -0.5 -0.0281681 -0 -1 0
0.426809 -0.0267778 -0.262206 1 0 0
-0.381074 -0.189335 0.0179678 -0.956071 -0.293135 0
-0.0985218 -0.276696 0.0531837 -0.121174 -0.992631 -0
0.345508 0.134124 -0.0274603 1 0 0
-0.289196 -0.176759 -0.0520845 -0.140816 0.990036 0
-0.00581347 -0.250457 -0.195122 0 0 1
0.27269 -0.010547 -0.297757 0.749629 0.661859 -0
-0.264307 -0.350479 -0.113821 0 0 -1
0.238602 0.349782 0.170802 -0.985782 0.168031 0
0.23662 0.338155 -0.319208 -0.985782 0.168031 0
-0.0819605 -0.396192 -0.195122 0 0 1
0.335998 0.5 -0.197729 0 1 -0
0.235283 0.330313 0.058706 -0.985782 0.168031 0
0.20015 -0.411913 -0.113821 0 0 -1
0.345508 0.22246 0.0674847 1 0 0
0.284751 -0.28262 -0.0405785 0.811824 -0.583902 0
0.0589852 0.0649425 -0.0145561 -0.198696 0.980061 0
-0.111888 -0.215447 0.135103 -0 1 0
0.345508 0.376819 -0.314351 1 0 0
0.0924405 -0.158923 -0.0637228 -0.644969 0.764209 0
-0.237857 -0.176998 0.159787 0.154331 0.988019 0
0.242241 -0.0729579 -0.228455 -0.866024 -0.500003 0
-0.15091 -0.5 -0.271231 0 -1 0
-0.340687 -0.234082 -0.325203 0 0 -1
0.259221 -0.443122 -0.195122 0 0 1
0.121892 -0.297326 0.325203 0 0 1
0.204981 0.152538 0.190152 -0.985782 0.168031 0
0.006763 -0.022398 -0.159215 0.563319 -0.826239 0
0.386963 -0.183415 0.325203 0 0 1
0.345508 0.313142 0.167288 1 0 -0
0.286222 -0.5 0.296577 -0 -1 0
0.426809 -0.0725003 -0.112154 1 0 0
0.136825 -0.241568 -0.113821 0 0 -1
-0.229183 -0.178659 0.309999 0.202906 0.979198 0
-0.240367 -0.0939769 -0.110805 -0.388434 -0.921477 -0
0.328899 -0.5 0.191647 0 -1 0
-0.119381 -0.498232 -0.195122 0 0 1
0.241374 -0.0714545 -0.0119817 -0.866024 -0.500003 -0
