ply
format ascii 1.0
comment Created by Open3D
element vertex 400
property double x
property double y
property double z
property double nx
property double ny
property double nz
end_header
0.500377 0.172306 -0.0232788 0.998649 -0.0519027 -0.00254076
0.306726 0.0147062 -0.297563 -0.683214 -0.211722 0.698851
-0.334969 -0.0145396 -0.262266 0.77896 0.199528 0.594483
-0.386686 0.174598 0.0961524 0.0232214 0.999281 -0.0299739
0.270979 0.0258558 -0.0157114 0.962358 -0.250181 -0.106193
-0.496729 0.0697589 0.0331813 -0.997164 -0.00100628 0.0752574
-0.352735 -0.17459 0.150842 -0.0161664 -0.999843 0.00721811
0.309748 0.010662 0.305831 0.753509 -0.029977 0.656754
-0.0694971 0.174591 0.38482 0.016874 0.999641 -0.0208345
-0.49846 0.175212 0.0160907 0.00708615 0.999949 -0.00721275
0.2257 0.00683768 -0.371394 0.514053 0.00506242 -0.857744
0.0896149 0.17276 0.463922 -0.0257942 0.999303 0.0269981
0.218929 0.00818122 -0.14272 -0.874776 0.0445482 0.482475
-0.104212 -0.0937675 0.307768 0.268613 0.0341598 -0.962642
0.126841 0.217923 0.253265 0.0124181 0.999159 -0.0390683
0.0420392 -0.096873 0.322438 0.144317 0.00083025 0.989531
0.223341 -0.133008 0.136362 -0.830936 0.00900079 -0.556295
0.168443 -0.0533137 -0.399686 0.3892 -0.0112659 -0.921084
-0.220666 0.192549 -0.238798 -0.668278 0.00865089 -0.743861
0.269488 0.136312 -0.421465 0.505522 0.022663 -0.862516
0.345129 0.174728 -0.264494 -0.0257583 0.999593 0.0122816
-0.323819 -0.0809754 0.0225517 0.995581 0.0128097 -0.093026
-0.24417 0.174504 0.416174 0.0130031 0.999797 -0.0153876
0.240405 -0.133793 0.218779 -0.773516 -0.0292692 -0.6331
0.389036 -0.00131708 -0.17613 -0.922925 0.0388207 0.383018
-0.201793 0.039463 -0.188954 -0.60139 -0.514075 -0.611602
0.251656 0.174017 0.427736 0.0115968 0.999899 -0.0082149
0.210305 -0.164503 -0.256128 -0.0494475 -0.998479 0.0243831
0.0754559 -0.0604553 -0.249356 -0.296932 0.00238399 0.954896
0.300318 0.218155 0.0444858 -0.0113296 0.999183 0.0387834
0.309035 -0.170767 -0.287941 0.527817 -0.65115 -0.545357
0.0513295 0.140303 -0.256406 -0.190053 -0.0169177 0.981628
-0.279721 -0.0424524 -0.334018 -0.678784 -0.0174497 -0.73413
-0.379207 0.0496175 0.159524 0.725306 -0.640922 -0.251297
0.260509 0.129831 0.00423615 -0.999708 -0.00636305 -0.0232979
-0.232091 -0.217314 0.175656 0.000299858 -1 -6.48588e-06
-0.177903 -0.217563 -0.238974 -0.00855332 -0.999937 0.00731103
-0.141086 0.174922 -0.395589 -0.00222275 0.999901 0.0139186
-0.126052 0.148397 0.228459 0.481573 -0.00895145 -0.87636
-0.151376 0.100116 -0.339144 -0.369821 -0.0210954 -0.928864
0.458538 0.0635137 -0.132562 0.0832801 -0.995927 -0.0345619
0.342933 0.152331 0.365476 0.646647 -0.0324169 0.7621
-0.0877034 0.175287 0.405359 -0.0978343 0.994663 0.0327605
-0.362224 -0.0915661 -0.077882 0.972195 -0.0161081 0.233619
0.146442 0.174483 0.374537 0.00642074 0.999225 -0.038827
-0.137207 0.0622019 0.355418 0.00749117 -0.999935 -0.00857986
-0.241263 -0.0673048 0.0978379 0.93221 -0.00599342 -0.361867
0.43164 -0.136802 -0.0476006 0.989048 0.0225165 -0.145868
-0.210014 -0.160392 0.305749 0.528622 0.0467391 -0.84757
0.173805 -0.0361418 0.19466 -0.650622 0.00687522 -0.75937
0.232498 0.0498528 0.118503 -0.894966 0.00934917 -0.446035
-0.106287 0.126186 -0.488618 -0.217166 0.0538987 -0.974646
0.0693298 0.0249369 -0.261611 0.233918 -0.269932 -0.934034
-0.302708 -0.0811362 -0.183051 -0.00778201 0.999966 0.00257519
-0.0107786 0.0814036 -0.366989 0.00189834 -0.999997 -0.001489
-0.0562203 -0.0284013 0.432527 -0.157163 0.00723976 0.987546
-0.328336 -0.164726 -0.163263 -0.00480424 -0.999964 0.0070547
-0.358263 -0.137872 0.243518 -0.836597 -0.00800427 0.547761
-0.434631 -0.0262239 -0.0298299 -0.99828 0.000717387 -0.058618
-0.123702 0.0901353 0.348936 0.357528 -0.0157156 -0.93377
-0.0297829 0.0924595 -0.259464 0.0494613 0.0654976 0.996626
-0.486769 0.172052 0.00871893 -0.0175303 0.999117 0.0381913
0.180029 0.130167 0.190076 -0.712851 -0.0235825 -0.700919
-0.144582 0.0817505 -0.327343 -0.000677307 -0.999605 0.0280784
-0.203378 0.0206166 0.165579 0.795231 -0.043318 -0.604758
-0.0336509 0.0727294 0.311098 0.00535615 -0.914287 0.405031
-0.0492086 -0.018401 -0.256897 0.169535 -0.00182344 0.985522
0.247137 0.173364 0.374218 0.0112746 0.999543 -0.0280401
0.32447 0.174129 -0.24619 -0.0110794 0.999929 0.00447504
-0.247281 0.0246312 0.0853761 0.93907 0.0197088 -0.34316
-0.291659 -0.217447 0.0989022 -0.655057 -0.722811 0.220101
0.051739 0.0528402 -0.430639 0.126681 -0.0176812 -0.991786
-0.110352 0.0447535 0.236959 0.437286 -0.0199777 -0.899101
-0.137198 -0.0397517 -0.223524 0.527874 -0.00759754 0.849289
-0.441325 0.0621762 -0.18495 -0.0363699 -0.998708 0.0354832
0.318835 0.100129 0.0618222 0.995802 0.00699428 0.0912652
0.286998 -0.0719948 0.13408 0.368742 0.915161 0.16282
0.183499 0.174127 -0.45276 -0.0381307 0.998548 0.0380399
0.126542 0.214558 -0.242476 -0.32598 0.724322 0.607532
0.0299792 -0.210104 0.311471 0.0578653 -0.680274 0.73067
-0.395897 -0.112305 -0.180543 -0.871041 0.00888126 -0.49113
0.302869 0.0153662 0.313282 0.682389 0.00217689 0.730986
-0.123101 0.060988 0.455095 -0.0214888 -0.999681 0.0132371
-0.400804 -0.173883 -0.0998315 -0.0196173 -0.999157 0.0360502
-0.303608 0.107127 -0.211986 0.828786 -0.0147447 0.559372
-0.406882 0.0200097 0.156819 -0.934226 0.00403167 0.356658
0.320588 -0.151722 0.18715 -0.865593 -0.000196795 -0.500748
-0.16725 -0.126803 -0.282035 -0.506628 -0.0240682 -0.861829
0.0951466 -0.174694 0.401813 0.122382 -0.987235 -0.101929
-0.0805658 -0.10969 -0.362553 -0.163896 -0.0203254 -0.986268
-0.258481 0.195192 -0.029608 0.994004 0.0776604 0.0769717
-0.180644 0.218461 0.245916 0.00865477 0.999692 -0.0232785
-0.121594 0.0667224 -0.231524 0.477806 -0.0598275 0.876426
-0.215427 0.0724267 -0.45178 -0.444956 0.033061 -0.894942
-0.243794 -0.131306 -0.093563 0.934077 -0.0126418 0.356849
0.422166 0.0130608 0.10327 0.974854 1.77344e-05 0.222845
-0.0454346 -0.216972 0.275748 -0.00996834 -0.999946 0.00279676
-0.0287685 0.218737 0.300295 -0.0278464 0.999445 0.018291
0.12201 -0.0792559 -0.319354 0.00762351 0.99997 -0.00150316
-0.254174 0.133975 0.0635872 0.961119 0.00542678 -0.276082
0.300994 0.0189125 -0.301592 -0.68845 -0.275536 0.670908
-0.091672 0.137104 -0.492265 -0.186691 -0.0390299 -0.981643
0.239101 0.206563 -0.11838 -0.682792 0.649709 0.334177
0.145135 0.0606481 0.37377 -0.218336 -0.766051 -0.604562
0.348841 0.111629 -0.358775 0.67936 -0.0624445 -0.731143
-0.315284 0.062331 0.388125 -0.621474 -0.0307101 0.782832
-0.212727 0.217665 -0.179593 -0.00544576 0.999985 0.000586742
0.031325 -0.0400938 -0.434472 0.0609139 -0.00256001 -0.99814
0.256786 -0.109142 -0.048932 -0.98831 0.0228634 0.150736
-0.359184 -0.0409799 0.214649 0.722332 0.525219 -0.449868
-0.359679 0.173754 0.309517 0.00745655 0.999523 -0.0299548
-0.341978 0.173249 0.204969 0.0739475 0.997256 -0.00361386
-0.205412 0.0303686 0.163713 0.790366 -0.0161594 -0.612422
0.111511 0.0687856 0.485657 0.265062 -0.0188276 0.964048
0.00104256 0.174104 0.467002 -0.0123146 0.99982 0.0144524
-0.0626036 -0.160052 0.36561 0.142502 0.00980066 -0.989746
-0.380307 -0.0544654 0.208137 -0.882632 0.0484141 0.467565
-0.26616 -0.218658 -0.127221 0.0112353 -0.999921 -0.00562842
-0.259165 -0.050698 -0.0343093 0.990712 -0.00933459 0.135658
-0.398649 0.133532 -0.303958 -0.795106 0.0153487 -0.606277
0.238318 -0.0687397 -0.313243 -0.34476 0.821395 0.454369
0.403728 -0.111593 -0.160268 0.940305 -0.019787 -0.339758
0.321153 0.193671 -0.0569508 0.979357 0.026256 -0.200426
-0.0426629 0.172967 -0.395401 -0.023366 0.997978 0.0591082
0.206088 0.0894864 0.309002 0.554503 -0.012126 0.832093
-0.416358 0.0367516 0.0536494 0.885402 -0.450978 -0.11261
0.209207 -0.12385 -0.152029 -0.830383 0.0455226 0.55533
-0.153398 0.140295 -0.210098 0.600792 0.00801053 0.799365
-0.26105 0.068107 -0.0087579 0.998036 -0.0341252 0.0525355
0.284386 -0.216472 0.0606512 -0.0134113 -0.999788 0.0156502
-0.0330269 0.0868252 -0.370039 0.119019 -0.0244417 0.992591
-0.107054 -0.0928289 0.30626 0.281464 0.0408505 -0.958702
0.202088 -0.17511 -0.353647 -0.00444303 -0.997752 0.0668733
0.0731925 -0.0335597 0.265109 0.265088 0.388822 0.882353
0.342997 -0.0659886 0.266059 0.762272 0.00857964 0.6472
0.119641 0.0103582 -0.410987 -0.305537 -0.1137 0.945367
-0.0689864 0.00460283 -0.423486 0.145684 -0.00983587 0.989282
0.468425 0.161054 0.173735 0.921307 -0.0106617 0.388689
-0.149402 -0.175341 -0.387133 0.00486599 -0.999985 -0.00242001
-0.2614 -0.171094 0.00845165 0.987738 -0.155858 -0.00909335
0.433691 0.0619164 -0.235705 0.00101611 -0.999998 -0.00185692
-0.289818 0.093037 0.146829 -0.862458 -0.050236 0.50363
-0.0137974 0.173534 0.482242 -0.0559989 0.995699 0.0738147
0.366944 0.0242213 0.213903 -0.816152 -0.314364 -0.48484
-0.0442811 0.0690802 0.303724 -0.0687179 -0.850356 0.521702
0.420168 0.172042 -0.206172 -0.0436596 0.998515 0.0325873
0.168245 0.147683 0.470627 0.342544 -0.0231115 0.939217
-0.205582 0.171943 -0.456416 0.0043696 0.999884 -0.0145702
0.318314 0.203935 -0.0396396 0.681038 0.7265 -0.0915631
-0.356385 0.173071 0.349326 -0.756416 0.0593763 0.65139
-0.354228 -0.0809663 -0.0814207 -0.0111634 0.999932 0.00329559
0.116799 0.216764 0.282651 -0.0395687 0.999206 0.0047074
-0.270188 -0.0906065 0.180665 -0.865325 0.0557983 0.498096
0.268964 -0.210342 -0.0363649 -0.741842 -0.666009 0.0781183
-0.257095 -0.051907 -0.0502409 0.976095 -0.0331482 0.214801
0.348111 0.0741255 -0.128957 -0.926669 -0.0262902 0.374958
0.391278 -0.0690628 0.188572 0.885596 -0.00747323 0.464397
0.497794 0.173178 0.0210041 0.0580843 0.998173 -0.0166378
-0.233857 0.0377142 0.368095 -0.508478 -0.0470555 0.859789
-0.399476 0.11379 -0.300045 -0.824508 -0.0300161 -0.565053
-0.433708 0.159165 0.249466 -0.855634 -0.0283908 0.516802
-0.0112172 0.0627298 -0.495176 -0.0576282 -0.996863 0.054257
-0.449591 0.075859 0.218894 -0.905134 0.0574133 0.421232
-0.368353 0.0649844 -0.075842 -0.0250295 -0.999206 0.0309844
0.277631 0.126419 -0.169093 0.863391 0.0360922 -0.503243
0.0711914 0.0832615 0.251406 -0.248281 -0.00869317 -0.968649
0.101219 -0.135263 -0.423446 0.283558 -0.0257037 -0.958611
-0.159914 0.17477 0.468887 -0.0463226 0.998534 0.0279885
0.2166 0.217874 0.211566 -0.0212884 0.999258 0.0320948
0.158229 0.165201 -0.325501 -0.0296882 0.999246 0.0250049
0.00176887 -0.0806396 -0.336852 -0.0197591 0.99971 0.0137526
0.292681 -0.0889248 -0.142571 -0.888695 -0.00160523 0.458496
0.147058 -0.096628 -0.21565 -0.563361 4.50145e-05 0.826211
0.0922667 0.139402 -0.489318 0.177421 0.026245 -0.983785
-0.217668 0.0605109 0.448879 -0.0238288 -0.999712 0.00268199
-0.248812 -0.0819669 0.267342 -0.039697 0.99906 0.0174389
-0.235118 0.0977082 -0.286794 -0.649599 0.000444902 -0.760277
-0.0719154 -0.211928 -0.265139 0.167643 -0.705909 0.688177
-0.433234 -0.0486088 -0.0304958 -0.996893 0.00889679 -0.0782697
0.210074 -0.0336043 0.381569 0.480369 -0.00220303 0.877064
0.180886 -0.0461841 0.373169 -0.420076 0.58507 -0.693707
0.446958 0.0612452 0.177089 -0.00111257 -0.999911 0.0133306
-0.259615 0.0790216 -0.0170668 0.999569 0.0293316 0.00094413
-0.00761725 0.0805065 0.49876 -0.00670556 0.0535093 0.998545
0.0426957 0.0613445 0.257426 -0.1272 -0.0344312 -0.991279
0.277049 -0.0463841 0.0475627 0.827813 0.531491 0.179561
-0.204998 -0.164233 -0.162971 0.754253 -0.0347401 0.655664
-0.127527 0.216556 -0.267733 -0.0341262 0.998805 0.0349849
0.25047 0.0887732 -0.070331 -0.941585 -0.0394784 0.334453
-0.231569 -0.101666 0.369306 -0.515918 -0.0337066 0.855975
-0.322388 0.20246 0.00976906 -0.688595 0.72514 -0.00297438
0.339053 0.103616 0.152595 0.9342 0.0300361 0.355483
-0.431904 -0.152219 -0.0630116 -0.984809 0.0599716 -0.162955
-0.47468 0.13375 0.159655 -0.956313 0.0515126 0.287771
-0.0158963 -0.131494 0.260757 0.0786906 -0.00120833 -0.996898
-0.49105 0.0627472 0.00796988 -0.0370648 -0.999174 0.0166775
0.00392773 -0.174161 -0.419047 0.0666323 -0.708203 -0.702858
-0.357994 -0.0744749 0.114286 0.344265 0.931761 -0.115341
-0.265357 -0.172856 -0.325216 -0.442982 -0.711639 -0.545286
-0.220591 -0.0435654 -0.173768 -0.659203 0.537041 -0.526345
0.410528 0.175922 0.274857 -0.00900585 0.999901 0.0107712
0.0480151 0.190868 -0.322335 0.159207 -0.0161894 -0.987113
-0.410389 -0.0301985 -0.148111 -0.945783 0.00442934 -0.324768
0.101991 -0.122218 0.240534 -0.385133 -0.00128704 -0.92286
0.230098 0.0243208 -0.35805 -0.515405 -0.276779 0.811018
-0.245585 0.165103 0.221421 0.0515444 0.997736 -0.0432018
0.357903 0.173987 0.207207 0.0351473 0.995875 -0.083646
0.0333698 -0.00348163 0.435354 0.151519 -0.0757117 0.985551
0.257042 -0.038471 0.0438601 -0.981994 0.0160313 -0.188233
0.358132 -0.174385 -0.117788 -0.00159925 -0.999773 0.0212261
0.385445 -0.174427 0.014087 0.0260333 -0.999573 -0.0132781
0.434648 0.0383126 0.012304 0.999056 -0.0133758 0.0413214
-0.287935 0.154908 0.406608 -0.56375 0.00114667 0.825945
0.310335 -0.0616371 0.252448 -0.470587 0.788075 -0.396846
0.433852 -0.0673713 0.0310295 0.997758 0.0174947 0.0645929
0.472708 0.0776805 0.159394 0.954665 0.0328651 0.295862
-0.236236 0.0875204 0.285636 0.648342 -0.0190733 -0.761111
0.339981 0.0803362 0.0551497 -0.0372068 -0.999299 0.00415103
0.339245 0.0963832 0.150372 0.901687 -0.0148957 0.432132
-0.484685 0.136558 0.121873 -0.979129 0.0150449 0.202682
-0.1857 -0.219485 -0.230592 -0.0247272 -0.999642 0.0102423
-0.167354 -0.106391 -0.277224 0.454431 0.0268325 0.890378
-0.470491 0.0639724 -0.171927 -0.895064 -0.0140584 -0.445716
0.0694028 0.0274533 -0.263607 0.272436 -0.387418 -0.88073
-0.389773 0.0628876 -0.0777241 0.00417555 -0.999462 -0.0325402
-0.371529 -0.153409 0.0159906 -0.999523 -0.0028402 0.0307664
0.205194 -0.170093 -0.251585 0.650975 -0.0254223 -0.758673
-0.318459 0.0619318 -0.322705 -0.0080948 -0.993745 0.111375
0.423701 0.174027 -0.207311 -0.0109238 0.999843 0.0139501
-0.137444 -0.0628262 0.222212 0.526883 -0.0104313 -0.849874
0.342935 0.0797623 -0.0386207 -0.108087 -0.989493 0.0960259
0.432817 -0.138114 -0.0464487 0.984041 0.0458606 -0.171929
0.325423 -0.12445 -0.0074258 0.999805 -0.0149718 0.0128588
0.234611 0.201023 -0.223156 0.472528 0.732396 -0.490218
0.22644 -0.150035 0.370694 0.497408 -0.0543192 0.865814
0.280078 0.0779611 0.24619 -0.763253 -0.000116695 -0.6461
0.0504536 0.172377 0.375932 0.0149216 0.999887 -0.00200898
0.233121 0.165694 0.274944 0.0371442 0.999071 -0.0218394
0.360864 0.107824 -0.344635 0.738592 -0.0594979 -0.671522
-0.317746 -0.17654 -0.0644872 -0.984457 -0.0725807 -0.159928
-0.0579622 -0.00391385 -0.255189 0.251429 -0.00588932 0.967858
0.321806 -0.0792641 -0.29168 0.75994 -0.031097 -0.649249
0.429149 -0.00546102 -0.0657833 0.985779 -0.00842534 -0.167834
0.416749 0.0851363 0.275312 0.803839 -0.0378554 0.593642
-0.296098 0.0924625 0.131199 0.912728 -0.00583221 -0.408525
-0.0365174 0.203421 -0.261293 0.100335 0.72063 0.686021
-0.254684 0.030859 -0.102208 -0.849267 -0.418792 -0.321496
-0.129957 -0.190692 0.298488 -0.362461 -0.0368488 0.93127
0.299212 -0.163954 -0.202802 -0.0862564 -0.995468 0.0400289
-0.432071 -0.0693424 0.0587499 -0.991093 -0.00339339 0.133132
-0.233956 0.0929235 0.288299 -0.637561 -0.00975504 0.770338
-0.0946918 0.0173262 0.252778 -0.3218 -0.253008 0.912377
-0.368829 -0.157705 0.0475775 -0.993825 0.0142508 0.11004
0.406342 0.173878 0.0739401 -0.0643309 0.997862 0.011561
0.0871014 -0.0342902 0.24668 -0.315434 -0.0209976 -0.948715
0.313232 0.0649609 -0.208195 0.0279134 -0.996854 -0.0741885
-0.371458 0.122629 0.00341028 -0.997634 0.0573891 -0.0378613
0.172381 0.139758 -0.32787 -0.485182 0.00198217 0.874411
-0.183691 0.114775 0.184308 0.747444 -0.0887817 -0.658366
0.27758 0.193203 0.170343 0.879049 0.00921999 0.476642
0.00873689 0.17415 -0.468892 -0.0666472 0.997156 0.0351765
-0.343894 -0.0188388 -0.265916 -0.715798 -0.110694 -0.689478
-0.292259 0.00626141 0.314273 0.649894 -0.0228097 -0.759682
-0.365511 0.175164 -0.0831291 -0.0400672 0.998876 0.0253308
-0.223179 0.190936 0.136062 0.86045 0.0516588 -0.506909
-0.0485374 0.0626121 0.497754 -0.0902192 -0.0166257 0.995783
0.0872378 -0.188096 0.313289 0.129926 -0.00105885 0.991523
0.25136 -0.217321 -0.151808 -0.00252927 -0.999757 0.0219082
-0.371601 0.061694 0.31541 -0.0513853 -0.998361 0.0252145
0.128988 -0.113598 0.348542 -0.335867 -0.00414494 -0.9419
-0.289133 0.212986 -0.125503 -0.598369 0.740016 -0.307133
-0.280666 0.218677 -0.113787 -0.00467503 0.998751 0.049741
-0.260325 -0.172237 0.0396022 0.993304 -0.0222467 -0.11337
-0.260062 -0.0204929 -0.347658 -0.61425 0.0105259 -0.789041
0.187212 0.0947889 -0.182371 -0.715518 -0.00324263 0.698586
0.305071 -0.172719 0.278278 -0.0519345 -0.995581 0.0782399
-0.1617 -0.0412024 -0.38645 0.338599 0.471724 0.814142
-0.129115 0.217244 -0.249404 -0.0452431 0.998795 0.0190348
0.103176 -0.123058 -0.423394 0.245248 0.0438075 -0.96847
-0.035122 0.0642854 0.396143 0.0612692 -0.996618 -0.054768
0.298566 -0.173628 0.290122 -0.00926685 -0.999722 0.0216732
0.498828 0.0863654 -0.0288956 0.999066 -0.0288551 -0.0321551
-0.304857 -0.17292 -0.244768 0.014781 -0.999845 -0.00952792
-0.332679 0.172586 -0.374702 -0.706978 -0.008215 -0.707188
-0.233812 -0.216722 0.202935 0.0187632 -0.999652 -0.018546
0.156806 -0.0110985 -0.219539 0.555633 0.169838 -0.813896
-0.363464 0.173931 -0.18603 -0.00665082 0.99696 0.0776363
-0.492205 0.115685 -0.0861263 -0.997565 0.00579318 -0.0694991
0.420658 -0.161031 0.0937387 0.723159 -0.679405 0.124298
0.408874 0.173192 -0.0425326 0.0923278 0.993594 -0.0651619
0.38625 0.173135 0.183894 -0.00427103 0.999937 0.0104178
-0.0960628 0.0273094 -0.426168 -0.199708 0.0241539 -0.979558
0.0506221 0.0863773 0.367625 0.136612 0.0100878 0.990573
-0.256031 -0.0807285 -0.247544 0.0260055 0.998404 -0.0501315
0.242665 0.0933871 -0.27913 0.639646 0.00265838 -0.768665
-0.353336 0.166546 0.0972643 -0.000300128 0.999949 0.0100766
-0.373964 0.174601 -0.190564 0.0380962 0.998835 -0.0296339
0.027347 -0.128292 -0.258715 -0.10235 0.00622784 0.994729
0.407197 -0.0538251 0.00611563 -0.791712 0.608564 0.0533094
0.385232 0.17426 0.0670348 -0.0129963 0.999705 0.0205411
0.00455611 -0.186565 -0.32505 -0.0345514 0.0435769 -0.998452
-0.299732 0.175111 -0.389897 0.0412338 0.99862 -0.0325354
0.39805 0.0641883 -0.259305 0.0591256 -0.998231 -0.00618615
-0.101857 -0.21592 -0.293893 -0.26219 -0.631931 -0.729328
0.167158 0.0416983 0.220631 0.521435 -0.494139 0.695652
-0.150444 -0.171818 0.214326 0.520907 0.0528056 -0.851979
0.217752 -0.134996 0.377033 0.571969 -0.00314135 0.820269
-0.255507 0.173562 0.322064 0.00452306 0.999873 -0.0152906
-0.256793 0.0350442 -0.102814 -0.812024 -0.464801 -0.352955
0.36524 -0.0810698 -0.0676817 0.985047 -0.00780595 -0.172108
0.373426 -0.0694252 0.104248 -0.462295 0.87583 -0.13858
-0.0362184 0.052339 0.40796 0.0683398 -0.623045 -0.779194
0.155675 0.0717825 -0.274247 0.155586 -0.932425 -0.326153
0.355235 0.0288758 0.229517 -0.787671 -0.380716 -0.484386
-0.249709 0.020455 0.0789712 0.953233 -0.0169297 -0.301761
0.281501 -0.0945364 0.333541 0.666736 0.0383362 0.744307
-0.132942 -0.0622812 0.224115 0.493348 0.0360676 -0.869084
-0.0827859 0.152109 -0.313987 -0.256454 0.00229145 -0.966554
0.296133 -0.16019 -0.315798 0.471947 -0.761558 -0.44418
0.130294 -0.204199 -0.232644 -0.327971 -0.722728 0.608358
0.0381782 0.169166 0.258465 -0.150061 0.000692888 -0.988677
-0.149364 -0.0179202 0.408298 -0.378045 0.0450975 0.924688
0.0169049 -0.0416937 -0.435498 0.0536053 -0.00210819 -0.99856
-0.143803 -0.123988 0.411874 -0.349089 0.00834336 0.937052
0.293116 -0.0863514 -0.140893 -0.893007 0.0423176 0.448049
-0.227404 0.149871 -0.127521 0.857536 0.0179063 0.514112
-0.309976 0.0865459 -0.204636 0.84607 -0.00498441 0.533049
0.0404401 -0.0807776 0.357313 0.0158909 0.999874 -0.000199202
0.478327 0.0731123 -0.144647 0.948533 0.0828173 -0.305658
0.22731 -0.216957 0.189881 0.0284728 -0.998716 -0.0419049
-0.139929 0.147963 0.478626 -0.303201 0.0849945 0.949129
0.226437 -0.00199869 -0.130761 -0.853162 -0.0356989 0.520423
-0.217992 -0.1395 0.144885 0.817115 0.0215688 -0.576071
-0.150903 -0.0426134 -0.408092 -0.345299 0.00402172 -0.938484
0.221053 0.0625355 0.141122 -0.854749 0.00795499 -0.518981
0.222127 0.0797251 0.447586 0.414479 0.0166693 0.909906
0.177177 -0.094227 0.27075 -0.569138 0.0382647 -0.821351
0.0939122 -0.167087 -0.331772 -0.0291982 -0.999117 0.0302084
0.147303 0.17319 0.358819 -0.0354045 0.998859 0.0320608
-0.305538 0.113207 -0.108047 0.932238 -0.0375515 0.359891
-0.411555 -0.0275344 -0.145685 -0.948554 -0.00310854 -0.3166
-0.0817402 -0.128749 -0.248418 0.299755 -0.00901907 0.953974
0.0417574 0.161671 0.258346 -0.146161 -0.00177636 -0.989259
-0.494667 0.0985522 -0.0727559 -0.995055 -0.0323672 -0.0939076
-0.151332 -0.146013 0.408035 -0.373005 0.025268 0.927485
-0.214168 -0.114345 -0.379805 -0.47696 -0.000405886 -0.878925
0.00110962 -0.174336 -0.413396 -0.0354646 -0.99684 0.0710798
-0.411349 0.0437718 0.0656908 0.828562 -0.531057 -0.17738
-0.0587471 0.202343 0.256314 0.138732 0.707433 -0.693031
0.19701 0.15657 -0.460273 0.375989 0.0169578 -0.926469
0.0273537 -0.173821 0.394629 -0.00631834 -0.999859 0.0155837
0.360689 -0.0834968 0.0820665 0.966547 -0.0658631 0.247889
0.109549 -0.0713267 0.422121 0.206243 0.0286847 0.97808
0.211503 -0.217831 -0.178119 -0.548926 -0.708803 0.443034
0.336322 -0.166438 -0.117576 -0.055697 -0.998382 0.0114887
0.316933 0.0800213 0.384868 0.621647 -0.0106767 0.783225
-0.0680408 -0.164201 0.365396 0.191116 0.00578591 -0.98155
-0.00652182 -0.186976 -0.324904 -0.00024196 0.000489274 -1
-0.318707 0.173465 -0.272331 -0.0400821 0.998656 0.0328474
-0.214889 0.0890559 0.450893 -0.429518 -0.000734256 0.903058
-0.224314 0.194507 0.131247 0.856432 0.0176467 -0.515958
-0.232755 0.176966 -0.333572 0.00861227 0.999918 -0.00945407
0.0829697 0.174417 -0.411786 0.0182234 0.99983 -0.00283399
0.208861 0.214542 -0.228644 0.472744 0.712069 -0.519106
0.459638 0.173754 -0.117777 -0.0234834 0.998911 0.0403227
-0.400031 0.172799 -0.0924398 0.0712626 0.997148 -0.0248419
0.256486 -0.142416 0.0433087 -0.983417 0.0096572 -0.181102
-0.157943 0.173216 0.35838 -0.0116326 0.998621 0.0511998
0.271996 0.173441 -0.33505 0.0312812 0.999307 -0.0201818
0.283781 -0.219078 -0.0493189 -0.0185497 -0.999544 0.0238421
-0.250044 -0.0757154 0.277193 0.186969 0.958101 -0.216993
-0.206783 0.172106 -0.454945 -0.443187 0.00202829 -0.896427
-0.417833 -0.134775 0.119446 -0.97039 0.0102897 0.241323
0.35328 0.174192 -0.140646 0.0361829 0.998538 -0.040146
0.0440446 0.00738297 0.43307 0.104698 -0.0541476 0.993029
-0.255839 -0.173284 -0.332877 -0.428149 -0.696782 -0.575486
0.367446 -0.0756914 -0.231603 0.832114 0.0551914 -0.551851
-0.443178 0.139495 -0.227198 -0.895187 0.000689479 -0.445691
-0.0267203 -0.0500504 0.257821 0.0995375 3.31691e-05 -0.995034
-0.225156 0.0719333 -0.29412 0.633102 -0.0524682 0.772288
-0.253977 0.160703 0.0510111 0.981128 0.00353182 -0.193326
-0.353281 -0.0798592 0.107764 0.0509675 0.998531 -0.0183647
-0.316682 0.0626562 0.235496 0.0486655 -0.99781 -0.0447912
-0.333885 -0.108252 -0.279814 -0.765971 -0.00958527 -0.642803
0.291799 -0.0760334 0.135292 0.282568 0.951146 0.124408
0.220033 0.0630983 -0.443048 0.00230574 -0.999987 -0.00462536
0.397428 -0.15051 0.17094 0.934054 -0.0218448 0.356464
0.239912 -0.0802422 -0.264203 -0.0125734 0.999883 0.00867993
0.133509 0.0830922 -0.483476 0.177367 0.0499704 -0.982875
0.0844113 0.0791668 -0.330113 0.0205788 -0.999535 -0.0224866
0.419477 -0.00640801 -0.0851984 -0.982984 0.0511854 0.176417
-0.318196 0.0652434 -0.363384 0.0683571 -0.996392 -0.0503008
0.00518829 -0.0878146 0.435875 0.0152067 -0.0300099 0.999434
0.492133 0.127894 0.0905979 0.991589 0.00206475 0.129412
0.186159 -0.0795099 0.29058 -0.0143302 0.999125 0.0393
0.285989 0.0907786 0.235824 -0.786189 -0.0068711 -0.617948
0.200205 -0.158312 -0.385193 0.322342 -0.744544 -0.584593
0.149166 -0.213359 0.232782 -0.349231 -0.718982 -0.600918
0.390393 -0.0198451 -0.171462 -0.898084 0.294878 0.32633
0.106019 -0.17298 -0.239307 -0.437083 0.0359833 0.898701
