ply
format ascii 1.0
comment Created by Open3D
element vertex 400
property double x
property double y
property double z
property double nx
property double ny
property double nz
end_header
-0.496907 -0.0133655 0.192839 0.0140601 -0.0500294 0.998649
-0.176741 -0.362392 -0.150389 0.0851378 -0.103981 0.990929
-0.147309 -0.471386 -0.109684 -0.00412659 0.999963 0.00755775
-0.297613 -0.371534 -0.041562 0.705318 0.708891 -0.0001012
-0.172403 -0.14321 -0.151775 -0.622915 0.782069 -0.0185882
0.312281 -0.182455 -0.169594 -0.157251 0.986987 0.0335991
-0.0693506 0.470114 0.0126401 -0.0182751 -0.99955 0.023803
-0.147581 -0.468102 0.00662433 0.992728 -0.1125 -0.0428285
-0.372248 0.334199 0.0579304 -0.710532 0.703496 0.0154071
0.499724 -0.0376861 -0.0494882 0.998163 -0.0366032 0.0482824
-0.354143 -0.311715 -0.099494 0.735631 0.677001 -0.0227419
-0.200301 0.485791 -0.19168 0.0208531 -0.0126825 -0.999702
-0.305145 -0.388928 -0.191713 -0.07127 0.065161 -0.995326
-0.146105 0.472293 -0.0547998 -0.00170531 -0.999954 0.00942091
0.501042 -0.0994202 -0.0900317 0.999827 -0.0145279 0.0116228
-0.501484 -0.191709 -0.129897 -0.993434 0.0847569 -0.076843
0.358828 0.308724 -0.0216482 -0.688355 -0.72488 0.0267725
-0.0614472 0.462007 -0.192343 0.0101907 -0.00291256 -0.999944
-0.0437663 0.0579527 -0.149894 -0.0596494 0.038629 0.997472
0.499913 0.0310467 -0.124025 0.999757 -0.000639219 0.0220131
0.410942 0.253989 0.105118 -0.677044 -0.73543 0.0274587
0.491641 0.0108979 0.0044525 -0.00258952 -0.468413 -0.883506
-0.164889 0.206532 -0.165177 0.893895 0.448273 0.00159385
-0.270118 -0.398859 0.0690132 0.67968 0.73318 -0.0219642
-0.427631 0.174589 0.191833 0.00610959 -0.00274759 0.999978
0.0820597 -0.500724 -0.13365 0.0541518 -0.997328 -0.0490336
-0.194914 0.470892 -0.115295 0.680796 -0.730224 0.05735
0.0114974 0.501158 -0.0557712 -0.0130305 0.999915 0.000137878
0.298383 -0.36837 0.116016 -0.695313 0.717694 -0.0381481
0.188453 0.498953 0.17448 -0.0212851 0.999133 0.0357688
-0.420077 0.184905 -0.0135173 0.994435 -0.104176 -0.0157042
-0.429547 -0.277703 -0.05917 -0.674273 -0.737602 0.0360412
-0.33385 0.373002 0.180682 -0.696917 0.716408 -0.0326381
0.500195 0.145705 0.0133726 0.998869 -0.0444725 0.0168165
-0.118837 0.49978 -0.112308 -0.0105944 0.999944 0.000845353
-0.214828 0.494048 0.0527177 -0.706906 0.707307 -0.000347427
-0.303435 -0.40406 0.163861 -0.712656 -0.701509 0.00278495
0.501431 0.11744 0.170918 0.999943 0.0098697 -0.00396808
-0.120768 0.425445 -0.169141 0.693207 -0.719338 -0.0449024
0.305186 -0.361775 -0.0400758 -0.701944 0.71219 -0.00773212
0.342624 -0.326949 0.0249466 -0.707951 0.70616 0.011948
0.500218 -0.0476126 0.190052 0.998042 -0.0390723 0.0488336
-0.338443 -0.176793 -0.150625 0.295189 0.955439 -0.000227435
-0.472957 -0.146432 -0.0788259 0.999939 -0.00849492 0.00707718
0.0291237 -0.488229 0.192402 -0.00765876 0.00593069 0.999953
0.0169174 0.47078 0.0213701 -0.00803787 -0.999738 0.0214446
-0.366759 0.302268 -0.193294 0.00408228 -0.00360712 -0.999985
-0.499108 0.0335305 0.134248 -0.999467 0.0205585 -0.0253674
0.332173 0.335043 -0.188378 -0.736808 -0.674358 -0.0485311
-0.426012 0.280357 0.022705 -0.677777 0.733214 -0.0549057
0.229377 0.47748 0.115734 0.702388 0.711728 -0.00972698
-0.174664 -0.42388 0.0809634 0.423591 0.904284 -0.0532994
0.402987 0.266673 -0.104427 -0.714256 -0.699877 0.00324137
-0.0927102 -0.447285 -0.150167 0.0406543 -0.0285097 0.998766
0.209603 -0.496795 0.132003 0.757883 -0.651537 -0.0333665
-0.441505 -0.267634 0.0282881 -0.735671 -0.676239 -0.0385762
0.465054 -0.0747418 -0.193118 -0.00808868 0.011522 -0.999901
-0.19029 0.472708 0.0656322 0.00347401 -0.999994 -0.000826107
0.31035 -0.397358 -0.160365 0.721496 -0.691923 -0.0262044
-0.471372 0.0628284 -0.0675462 0.99994 0.0105679 -0.00294046
0.239246 0.451815 0.19231 -0.0574653 0.0640121 0.996293
-0.470283 -0.0141449 -0.0800792 0.999541 0.00347263 -0.0300937
0.48493 -0.223996 0.077962 0.707011 -0.707133 0.00994336
-0.071745 -0.500139 0.105066 0.0147042 -0.999632 -0.0227831
0.0801252 0.472869 -0.0249558 -0.020125 -0.99439 0.103842
-0.450712 0.254631 0.0872814 -0.706416 0.707796 -0.00096621
-0.150071 0.120753 -0.159449 -0.739197 -0.673489 -0.000212811
-0.017591 -0.500244 0.0572367 0.103765 -0.994602 -0.000689095
0.253232 0.215089 -0.151194 0.0329955 -0.0057767 0.999439
0.0767049 0.471613 -0.0353993 0.0501893 -0.99835 -0.0278994
0.220206 0.43757 -0.192719 -0.0436356 0.0294595 -0.998613
0.303135 0.364796 -0.0640068 -0.673731 -0.738708 -0.0199414
-0.472235 0.0707715 0.0762653 0.998504 0.0457188 -0.0299781
-0.47131 0.0862926 0.0939895 0.999191 0.0176298 -0.0361433
0.137688 -0.411049 -0.187331 -0.757761 0.652321 0.0166249
-0.0360628 -0.480678 -0.191687 0.009703 -0.00423753 -0.999944
-0.045401 -0.0824732 -0.148602 -0.000121221 0.00425504 0.999991
0.37774 -0.164171 -0.14828 -0.0488856 0.0859935 0.995096
-0.494658 -0.210969 -0.02867 -0.620435 -0.783754 -0.028097
0.246362 -0.361247 -0.148858 -0.007364 0.0302588 0.999515
-0.24774 0.457749 -0.0774238 -0.705137 0.708756 -0.0211422
-0.0170636 -0.472508 0.062208 -0.0834103 0.994584 0.0620104
0.487878 0.0221312 -0.191733 -0.0769821 0.010276 -0.99698
-0.498981 0.208033 -0.190432 -0.727547 0.682882 0.0659397
-0.134374 0.5005 0.00488509 0.0958027 0.995085 -0.0250691
0.499294 0.080122 -0.00299469 0.999693 -0.0219435 0.0115024
0.114189 -0.145127 -0.173863 -0.506476 -0.862169 0.012089
-0.3641 -0.342072 -0.192918 -0.0613666 0.00486315 -0.998103
-0.276472 0.425766 0.192275 -0.014139 0.00833228 0.999865
-0.473723 -0.022382 0.0241068 0.999308 -0.0331923 0.0168054
0.461522 0.207565 0.0253361 -0.680772 -0.732327 0.0156996
-0.500283 -0.0860261 -0.0579984 -0.99995 -0.00521227 0.00855492
0.473297 -0.0575339 0.047914 -0.99712 -0.0717397 0.0245916
-0.0726081 0.472823 -0.064142 -0.058905 -0.996556 0.0583581
-0.385965 -0.294899 0.193157 0.117914 -0.0122812 0.992948
0.494895 0.20245 -0.191762 -0.0237577 0.0284434 -0.999313
-0.295766 0.181537 -0.190827 0.0380486 -0.999202 0.0121629
0.186429 0.350285 -0.150618 0.00361931 -0.00573966 0.999977
-0.246242 -0.420349 0.00356737 0.783575 0.621116 -0.0149897
0.429359 0.277978 0.00771182 0.700564 0.713445 0.0143986
0.482159 0.223775 0.192566 0.701832 0.712343 0.000304215
-0.197355 -0.500645 0.043123 0.0193322 -0.999751 -0.011126
0.399526 -0.147845 -0.162222 -0.622281 0.782548 0.019624
0.498931 0.194982 0.108793 0.999499 0.0267497 -0.0169302
0.471308 -0.0145007 0.125783 -0.996307 -0.0796922 0.0319481
0.160977 -0.499927 0.0851826 0.0704988 -0.995488 -0.0635116
0.0228488 0.499481 0.043371 0.0803344 0.995 -0.0593476
-0.499315 0.178708 -0.0631208 -0.999665 -0.00784317 0.0246576
-0.375863 0.328545 -0.0798113 -0.705603 0.708558 -0.00838056
-0.312963 0.390538 0.0917303 -0.702526 0.711522 -0.0139437
-0.473403 0.0969619 0.191992 0.0510769 -0.0673782 0.996419
0.252823 0.416657 0.0417665 -0.665115 -0.746475 -0.0199305
-0.421469 0.173922 0.12833 0.909829 -0.414719 0.0148269
0.123276 -0.0778945 -0.187636 0.882122 0.46923 -0.0410394
-0.499199 -0.0216683 0.184832 -0.994145 0.0218791 -0.105812
0.499865 -0.156916 0.0184676 0.999619 0.0201341 -0.0188812
0.380855 0.244773 -0.190639 -2.03877e-05 0.000191925 -1
0.0230632 -0.473306 0.121508 0.00288769 0.999996 -0.000754183
0.422567 -0.170779 0.103318 -0.907151 0.417239 0.0546634
0.497432 -0.209462 0.179748 0.719998 -0.691285 -0.0610491
-0.159695 -0.433179 -0.192037 -0.00694282 0.0014604 -0.999975
-0.471921 0.0477207 -0.000106866 0.999997 -0.00215645 0.00118264
-0.500792 0.12086 -0.17577 -0.996973 0.0728366 -0.0272038
-0.421588 -0.127943 -0.167715 0.679418 0.73373 -0.00553813
-0.424917 -0.27965 0.116118 -0.693531 -0.720427 0.000414472
-0.471808 -0.0161087 -0.0880929 0.997118 -0.0351037 0.0672525
0.189373 -0.153466 -0.155366 0.5132 0.858269 -0.00016652
0.424712 -0.174491 0.0268957 -0.902823 0.428243 -0.0389612
0.103177 -0.00530491 -0.190472 0.00950522 -0.0042343 -0.999946
-0.359466 -0.309765 -0.0197825 0.77682 0.62344 -0.0887376
-0.111191 -0.500547 0.185242 -0.00690471 -0.999975 0.00172505
-0.500636 0.190778 0.047072 -0.995827 0.0641971 -0.0648612
0.309992 0.189478 -0.190872 -0.0144004 0.0207418 -0.999681
0.472857 -0.112793 0.139445 -0.999592 0.0271032 -0.0089953
0.293509 -0.376041 0.11632 -0.701789 0.71219 -0.0166666
-0.49901 -0.0540929 0.0248418 -0.996774 -0.080253 0.00134818
0.471791 -0.027464 -0.0638589 -0.999661 -0.0229202 0.0123376
0.339427 0.368092 0.0506473 0.71827 0.694489 0.0421203
-0.150611 0.121489 -0.192367 0.0706203 -0.0204072 -0.997295
0.13204 0.142625 -0.149846 0.00149433 -0.0166003 0.999861
-0.441899 0.264912 0.161291 -0.720354 0.693244 0.0224206
0.436364 0.154949 -0.192016 -0.00496063 0.0550319 -0.998472
0.00571978 0.103599 -0.187567 -0.0440103 0.999015 -0.0057452
0.311285 -0.355196 -0.0425833 -0.706183 0.702365 0.0893845
-0.463237 -0.242845 -0.107332 -0.704513 -0.709691 0.000805894
0.315514 0.352938 0.0310079 -0.681178 -0.73185 0.0197897
0.387786 0.318962 -0.159348 0.697944 0.716136 -0.00473951
0.148922 0.462204 -0.0236701 -0.99668 -0.020557 0.0787781
0.286506 0.380916 0.114649 -0.721449 -0.692359 -0.0122752
-0.465042 -0.0510237 -0.17924 0.961629 0.272112 -0.0349901
-0.457968 -0.206008 -0.0443767 0.661026 0.750096 -0.0200198
0.138952 -0.471751 -0.106012 -0.0780496 0.996338 0.0349028
0.421878 -0.175547 0.106617 -0.942955 0.332387 0.0188139
-0.228942 0.218901 -0.191284 -0.0649669 0.0363082 -0.997227
0.298912 0.398069 -0.193731 0.00060147 -0.00145833 -0.999999
-0.226606 -0.4389 0.186723 -0.801358 0.596749 -0.0414194
0.131688 -0.494153 -0.191146 0.00560274 -0.00741346 -0.999957
-0.0479929 0.499519 0.183269 -0.00135833 0.999999 0.000748588
-0.301269 -0.409439 0.175915 -0.713903 -0.700222 -0.00562914
-0.229565 0.235824 -0.165701 -0.734393 0.678629 -0.0113743
-0.498921 -0.0857128 -0.138688 -0.998267 0.0366351 -0.046045
0.485405 -0.201389 -0.192317 0.0408277 -0.046738 -0.998072
0.114938 -0.49839 0.193362 0.0159222 -0.999813 -0.0109793
-0.249044 0.418598 0.06129 0.704511 -0.709681 0.00410523
-0.24364 -0.423383 -0.077589 0.701348 0.712811 -0.00332731
-0.310718 0.392291 -0.193888 0.0014949 -0.00642868 -0.999978
0.472385 -0.121036 -0.0310577 -0.997784 -0.0658142 0.00973524
-0.30986 -0.398625 -0.114161 -0.665702 -0.745456 0.0337236
0.286598 0.419943 -0.0152538 0.704016 0.710182 -0.00148649
-0.283206 -0.191716 -0.189908 0.00120849 -2.41203e-05 -0.999999
-0.368429 0.298618 0.146364 0.669728 -0.740371 0.057587
-0.183672 -0.218371 -0.19224 -0.0740519 0.0331594 -0.996703
0.474625 0.0695041 -0.192431 0.0242259 -0.0261158 -0.999365
0.498829 -0.136842 0.177525 0.996261 -0.0232681 0.0831989
-0.378395 0.324122 -0.191264 0.042409 -0.115842 -0.992362
0.262616 0.404013 0.122166 -0.706362 -0.707823 -0.00620822
0.203572 -0.41897 -0.149863 -0.00610178 0.00184068 0.99998
0.253784 -0.453592 -0.182445 0.719586 -0.694334 -0.00976688
0.124329 -0.47343 0.0314681 0.0231061 0.996357 -0.0820885
0.104161 -0.0062415 -0.151983 0.999985 0.0024983 0.00490776
0.223883 -0.44458 0.0920314 -0.741903 0.66974 0.0320615
-0.490222 -0.21828 0.131225 -0.703341 -0.710849 -0.00218195
-0.499083 -0.140143 0.0123144 -0.999883 -0.00649633 0.0138231
0.392038 -0.312873 -0.0605278 0.70362 -0.710501 0.0103924
0.377572 -0.290695 0.181235 -0.700271 0.71378 -0.0118287
0.35257 0.354631 0.129743 0.746656 0.665018 -0.0160147
-0.406775 -0.259737 -0.144147 0.724149 0.689589 -0.00870704
-0.106436 0.017297 -0.18381 -0.99046 -0.137494 0.00920202
0.310098 -0.39786 -0.165678 0.696908 -0.717086 0.0103032
0.50054 -0.0814778 0.0584579 0.999483 -0.0204498 0.0248254
0.160869 0.431696 -0.117908 -0.63606 -0.771245 -0.0246626
-0.423676 0.241333 0.156838 0.70228 -0.711828 0.0101394
0.417659 -0.190898 -0.0638513 -0.996408 0.0829646 -0.0169816
-0.469183 -0.0129483 0.0929694 0.999999 -0.00110411 0.000880336
-0.382679 -0.323757 -0.107311 -0.69076 -0.723079 -0.00284121
-0.205007 0.478934 0.191672 0.0147649 -0.00379049 0.999884
-0.241972 0.462584 0.119036 -0.709533 0.704444 0.0179205
-0.199181 -0.295632 -0.190619 -0.047317 0.0693212 -0.996472
0.354927 -0.272895 -0.1582 -0.990986 -0.127737 -0.0403827
0.236757 0.454304 0.192558 0.0246925 -0.0246933 0.99939
-0.407206 0.239195 -0.150763 -0.0277097 0.00985912 0.999567
-0.433301 0.161255 -0.0870424 0.676921 -0.73444 0.0487513
0.496368 0.116063 0.191737 0.0184464 -0.0436751 0.998875
0.456213 0.250923 0.0859468 0.697753 0.716339 -7.54776e-05
0.13074 0.501257 -0.10501 0.0578781 0.996673 -0.0573874
0.198551 -0.466627 -0.0494481 -0.672693 0.739771 -0.0149127
-0.385453 0.154425 -0.186872 0.54224 -0.837068 -0.0727576
0.421184 0.287357 -0.0957772 0.677734 0.735037 -0.0199358
-0.104958 0.00978411 -0.160317 -0.999128 -0.0036525 -0.0415893
0.464503 0.242783 -0.13407 0.699753 0.713849 0.0276539
0.0510553 -0.110628 -0.150977 0.00944929 -0.00817934 0.999922
-0.243678 0.461976 0.122713 -0.679129 0.733807 -0.017626
-0.118713 0.47009 0.184548 0.00662866 -0.99997 -0.00408979
0.348407 0.320387 -0.100461 -0.705518 -0.708219 -0.0258958
0.36483 0.300265 0.0630162 -0.718967 -0.695042 -0.00190411
0.0501927 -0.462754 -0.188027 -0.28552 0.958362 -0.00453433
-0.0958458 -0.120046 -0.193461 0.0224717 -0.0213647 -0.999519
0.203393 -0.498724 -0.194036 -0.014374 0.0244414 -0.999598
0.01877 -0.471553 -0.117672 -0.0145124 0.998857 0.0455489
0.271131 -0.434749 0.163358 0.687571 -0.724914 0.0417838
0.362072 0.246732 -0.192395 -0.00219789 0.0136113 -0.999905
-0.480319 -0.153488 -0.191473 -0.0271499 0.0234332 -0.999357
-0.188867 -0.420282 -0.117382 0.087093 0.995961 -0.0218145
-0.350699 -0.316222 0.102043 0.759413 0.649424 0.0392607
0.0684413 0.47377 -0.129134 -0.00467216 -0.999924 0.0114326
0.49865 -0.183156 -0.0483259 0.977268 0.211994 -0.00253405
0.373903 -0.292516 0.0999567 -0.724439 0.688384 0.0362752
-0.0409812 -0.472827 0.183889 -0.00403207 0.999992 0.000192596
-0.470278 -0.0977984 0.0727251 0.99947 -0.00103698 0.0325222
0.443015 0.155191 -0.151475 -0.0120205 0.00167781 0.999926
0.0720966 0.119944 -0.156821 -0.367004 0.930077 -0.0162708
-0.479576 0.228768 -0.133413 -0.721514 0.692244 0.0146833
0.311961 -0.206035 -0.149663 0.00789723 -0.00770537 0.999939
0.277531 -0.39042 0.0493633 -0.701792 0.712312 -0.00992276
-0.254858 -0.453361 0.122907 -0.724507 -0.689253 0.0043761
0.185404 -0.471021 0.186883 0.00191313 0.999995 -0.00262196
0.152278 0.445556 0.189291 -0.934198 -0.356755 0.000196619
-0.0441587 0.50004 0.112482 -0.00388856 0.999992 0.00118455
0.473648 -0.142957 -0.131761 -0.999904 -0.0105012 0.00905749
-0.0276752 -0.498897 -0.0195154 0.00864333 -0.999873 -0.0133826
0.486119 0.0420827 0.194038 0.0313444 -0.036641 0.998837
-0.313203 0.395234 0.111004 -0.708337 0.705839 0.0070491
-0.499523 0.195115 0.136503 -0.999996 -0.00115325 0.00260422
0.015815 0.500893 -0.191497 0.0308029 0.997683 -0.0606683
0.470036 0.0919749 -0.126079 -0.998946 -0.0456981 0.00429602
-0.472906 -0.194987 0.0500946 0.999778 0.0203281 -0.00545332
0.238829 0.469963 0.100692 0.74404 0.668129 -0.00278609
-0.259432 0.420168 0.191375 -0.01778 0.0116232 0.999774
0.0627783 -0.500563 0.0520878 0.0130422 -0.999889 -0.00718465
0.251513 -0.45478 0.00484655 0.696761 -0.716714 0.0290659
0.0367138 -0.501044 0.189775 0.0368975 -0.997561 -0.0592522
-0.393864 -0.313897 0.0481064 -0.685442 -0.726648 0.0463956
-0.0705627 0.117794 -0.168132 0.392271 0.919028 -0.03887
-0.500111 0.166858 0.156052 -0.99973 0.0223996 -0.0062391
0.243419 -0.195357 -0.191476 0.0249303 -0.0268975 -0.999327
0.162112 0.501229 -0.17711 0.0175268 0.999724 -0.0156491
0.209418 0.423967 -0.0404034 0.477897 -0.878286 -0.015119
-0.500336 0.107402 0.023396 -0.998456 0.032836 -0.044814
0.122567 -0.471211 0.0277633 0.00333387 0.999994 -0.00120066
0.360698 0.317239 0.192081 -0.012394 0.0424683 0.999021
0.116141 -0.501505 0.187917 -0.0254874 -0.998307 0.0522914
0.417822 -0.189281 -0.0725523 -0.997002 0.0754475 -0.0171939
-0.26462 0.356377 -0.14969 0.00656781 -0.005204 0.999965
0.367245 0.17342 -0.150874 0.0405089 -0.0238524 0.998894
0.169208 -0.212509 -0.192488 0.00280302 -0.0147899 -0.999887
-0.0639355 0.471868 0.0206012 -0.105149 -0.994442 0.00541229
0.447563 -0.102212 -0.191047 -0.00503995 0.00555739 -0.999972
-0.212321 -0.493623 -0.166185 -0.726085 -0.687582 0.0056445
-0.412868 -0.136411 -0.182144 0.68975 0.723357 0.0316272
0.207855 0.497882 -0.11256 0.726312 0.68704 -0.0211724
-0.16211 0.491712 -0.192988 0.065395 -0.0151549 -0.997744
0.481158 -0.0575776 0.192093 -0.000671697 0.00018639 1
0.424158 -0.179708 0.192352 -0.00145093 0.00944395 0.999954
0.154767 0.500948 -0.189458 0.0449544 0.99884 -0.0172361
-0.15784 -0.435494 -0.0444655 0.789263 0.61405 -0.00251151
-0.418018 0.292077 -0.0420261 -0.722123 0.689951 0.0500558
-0.35681 0.22678 -0.189821 -0.00240685 0.00464431 -0.999986
0.0123509 0.471542 0.157442 -0.0593994 -0.991973 0.11163
0.497665 -0.164646 0.0937744 0.997599 -0.0530022 0.0445799
0.17685 -0.338761 -0.150238 -0.967024 0.252635 0.0322446
0.428607 0.27736 0.183734 0.782991 0.621495 0.0258731
0.0434852 -0.473044 -0.0182418 0.00548439 0.99997 -0.00551307
0.331608 0.376047 -0.126083 0.671793 0.740725 0.00463749
-0.465886 0.244149 0.0887957 -0.708757 0.70489 0.0281835
0.303828 -0.36969 0.193148 0.00454367 -0.00653257 0.999968
-0.438663 -0.269034 0.119714 -0.686623 -0.727004 0.00380739
-0.170538 -0.217894 -0.189433 0.934137 -0.35667 -0.0131814
-0.307107 0.361413 0.0217749 0.710059 -0.700835 -0.0681629
-0.304526 -0.363089 -0.0351802 0.699942 0.714199 -0.00110284
0.358335 -0.330113 -0.191101 -0.00072816 0.00619246 -0.999981
0.208999 -0.494416 0.0339801 0.735259 -0.676799 -0.0365637
0.278577 -0.428538 -0.0767213 0.720417 -0.693535 -0.00284147
0.364207 -0.343508 -0.124118 0.709182 -0.704847 -0.0158562
0.447808 0.219402 -0.0567884 -0.685066 -0.728478 0.00239308
0.461842 -0.202496 -0.191621 0.1104 -0.0288147 -0.993469
0.423132 -0.28416 0.0339838 0.677406 -0.734859 0.0332187
-0.20488 -0.500504 -0.0882543 0.020716 -0.999756 -0.0077026
0.167967 0.21706 -0.15205 -0.941993 0.333085 0.0412734
0.158541 0.436556 0.0723913 -0.789041 -0.614236 0.0113711
0.211951 0.49323 -0.0671997 0.649565 0.759664 -0.0312341
0.498659 0.0170435 0.0722729 0.998729 0.0432357 -0.0259084
-0.441968 0.264753 -0.0972312 -0.701843 0.709989 -0.0577338
-0.160864 -0.432462 0.186275 0.693587 0.719281 0.0396528
-0.296219 0.371052 -0.0771364 0.700659 -0.713408 0.0111879
0.426807 -0.264635 -0.192583 -0.0575854 0.0366713 -0.997667
0.208839 0.498088 0.0148602 0.673941 0.736949 0.0520605
-0.100925 -0.472397 -0.0563839 -0.00267338 0.997852 0.0654612
-0.0475714 -0.0279684 -0.192467 0.0044009 -0.0023407 -0.999988
-0.189587 -0.501806 0.1777 0.0116655 -0.999763 -0.0184074
0.127935 0.501173 0.0345623 0.0219435 0.99947 -0.0240571
0.0468015 0.044622 -0.150506 0.00117754 -0.00500927 0.999987
-0.425267 0.212281 -0.0220878 0.839487 0.543379 -0.000179128
0.0179412 0.492688 -0.191992 0.0016339 -0.000195497 -0.999999
0.405264 -0.260501 -0.10573 -0.712647 0.700561 0.036725
0.382885 -0.319303 0.191635 -0.0972594 0.0168262 0.995117
0.18135 0.41993 0.0872423 -0.237825 -0.971131 -0.0185415
0.15448 0.39903 -0.192219 -0.00225933 0.0768082 -0.997043
-0.215192 0.382884 -0.191951 0.00599067 -0.00130429 -0.999981
0.457708 0.210494 0.18651 -0.731281 -0.682077 -0.000242336
-0.256723 0.451353 -0.153605 -0.706597 0.707613 -0.00212762
-0.44659 0.153454 0.0599772 0.364908 -0.930766 -0.0227322
-0.0816276 -0.471608 0.0225157 -0.000861542 0.999817 0.0190914
0.0307999 0.0272112 -0.155783 -0.742107 -0.670239 0.00760766
0.477849 0.230249 -0.0475602 0.666382 0.745204 -0.0246114
-0.499206 -0.0861219 0.152157 -0.999917 0.00321015 -0.0124402
-0.174606 0.375322 -0.151275 -0.0186595 0.00884352 0.999787
-0.062779 0.470146 0.0922684 -0.0161204 -0.999709 0.0179451
-0.337083 -0.369681 0.0386738 -0.706413 -0.707662 0.01396
0.435118 -0.271912 -0.0384361 0.71147 -0.702694 -0.00568182
0.366431 -0.337861 0.0269324 0.706382 -0.707801 0.00650353
0.0737073 0.500837 0.11896 -0.00190638 0.99958 0.0289207
0.168273 0.210849 -0.150369 -0.00704056 0.0215293 0.999743
-0.471132 -0.151291 0.126589 0.999521 0.0127816 -0.0281896
-0.221781 -0.487211 -0.0263268 -0.681756 -0.728857 -0.0630599
0.471728 0.0432665 0.168687 -0.999855 -0.00972208 0.0139964
0.0915526 0.452816 -0.189922 -0.0339675 0.0261773 -0.99908
0.500028 0.110595 0.0931073 0.999187 0.0306063 -0.0262483
0.264463 0.442153 -0.111925 0.682874 0.730522 0.00451534
-0.442529 -0.225299 -0.18936 0.020415 -0.0202722 -0.999586
0.206094 -0.500376 -0.118683 0.032807 -0.999236 -0.0212612
-0.368953 -0.184747 -0.149518 0.0271833 -0.0318318 0.999124
-0.153165 -0.498607 -0.183195 -0.0329099 -0.999018 0.0296519
-0.197139 -0.420461 0.0521269 -0.10497 0.993599 -0.0417535
-0.219047 0.488755 -0.0205444 -0.699763 0.714263 -0.0126961
0.468483 -0.238219 0.00346803 0.70089 -0.713247 0.00561241
0.50104 -0.143484 -0.157815 0.999901 0.00185326 -0.0139283
0.0736665 0.497195 0.190837 -0.0421369 0.00135323 0.999111
0.499537 -0.0375241 -0.132688 0.996988 0.0771108 -0.00827514
-0.254272 -0.349102 -0.156274 -0.434431 0.900201 0.0301445
-0.283789 0.422847 -0.0182812 -0.618157 0.781476 -0.0847204
0.0969804 -0.470797 0.106973 -0.00333207 0.999993 0.00165446
-0.358075 0.309738 -0.00943082 0.692246 -0.71732 0.0790418
0.0378254 -0.47437 -0.191259 -0.004339 0.110949 -0.993817
-0.219347 0.31236 -0.188648 -0.923077 -0.384515 -0.00877
0.310163 0.356196 0.187344 -0.79968 -0.599314 -0.0365429
0.499251 0.16118 -0.086073 0.999986 0.00213365 -0.00485701
-0.346746 0.359066 -0.137461 -0.68585 0.726687 -0.0392025
0.460392 0.24496 -0.144308 0.689382 0.724218 -0.0161492
0.44633 -0.260734 0.139871 0.707287 -0.706926 -0.000226031
0.176558 -0.329973 -0.159388 -0.975675 0.219169 0.00480273
-0.499318 0.0113696 -0.153873 -0.999412 -0.0276833 0.020213
0.0808082 0.488906 0.191423 0.0294481 -0.0442956 0.998584
0.209341 -0.26424 -0.149898 0.0407126 -0.0357208 0.998532
-0.290808 0.184604 -0.174271 0.00609793 -0.999916 -0.0113936
-0.0445935 -0.500561 -0.115247 -0.0228243 -0.998536 0.0490363
0.17852 0.148849 -0.191539 -0.00140279 0.00238944 -0.999996
0.421583 -0.190299 0.191174 0.0500702 -0.0372319 0.998051
-0.203737 0.479678 0.192623 -0.0105808 0.0391738 0.999176
-0.464486 0.0532675 -0.190205 0.96204 -0.270362 -0.0372078
0.25598 0.3503 -0.176846 0.399732 -0.915989 -0.0343389
-0.498284 -0.202864 0.193099 -0.999742 0.0173156 -0.0147178
-0.101943 -0.12615 -0.190618 -0.00408337 0.00619434 -0.999972
0.38036 -0.327611 0.11102 0.707809 -0.705214 -0.0409738
0.149428 0.499498 0.11953 0.0638077 0.997844 -0.0153784
0.11278 0.0674299 -0.190193 0.00285718 -0.029345 -0.999565
0.499925 0.176875 -0.109304 0.998584 -0.0207326 0.0489936
-0.0424045 0.498514 -0.109167 0.0322838 0.998516 -0.0438665
0.466527 -0.240199 -0.12565 0.743363 -0.66633 -0.0584417
-0.0851581 -0.498849 0.108168 0.0407835 -0.998943 -0.0212104
-0.109573 -0.0591267 -0.148911 -0.043577 0.000357692 0.99905
0.250177 0.419354 -0.109022 -0.7091 -0.705108 -0.000331918
0.21284 0.281718 -0.180242 0.999834 0.0176695 0.00450937
-0.262119 -0.446483 -0.165005 -0.658165 -0.751604 -0.0437073
-0.153455 -0.500583 0.0995082 -0.00416629 -0.999964 0.00737704
0.472259 0.065333 -0.0535256 -0.999691 0.0232097 -0.00893414
-0.236203 -0.19424 -0.149594 -0.00247813 0.010354 0.999943
-0.385969 0.318948 0.138422 -0.690487 0.720254 -0.0668066
-0.433838 -0.232985 0.182536 0.718655 0.695366 0.000751085
-0.3682 -0.335633 -0.190365 -0.00272439 0.00356926 -0.99999
-0.335167 -0.330879 0.165622 0.674282 0.738408 -0.00991075
-0.34924 -0.254402 -0.192413 0.926972 -0.373808 -0.0314629
0.165674 0.426289 -0.113829 -0.659606 -0.751367 0.0191862
0.105861 -0.501324 -0.0522473 0.0243427 -0.998099 -0.0566121
-0.162392 0.500832 0.130054 -0.0175342 0.999739 0.0146603
0.0363408 -0.0400235 -0.192049 -0.0234968 0.0367542 -0.999048
0.226328 0.480704 0.0109838 0.724051 0.689636 -0.0123547
-0.472811 0.110481 -0.119531 0.998619 -0.0191434 0.0489245
-0.473745 -0.120004 0.00237753 0.999325 -0.0191842 0.0313288
-0.414132 0.160577 -0.191742 0.0393306 -0.0130188 -0.999141
0.212339 0.270389 -0.186965 0.981385 0.19042 -0.0249573
