ply
format ascii 1.0
comment Created by Open3D
element vertex 400
property double x
property double y
property double z
property double nx
property double ny
property double nz
end_header
-0.228656 0.195094 0.0431456 1 0 0
-0.339648 -0.0940274 -0.0150756 0.964371 0.264553 -0
0.234811 -0.0815082 0.045 0 0 1
-0.0577266 -0.181153 0.055 0 -0 1
0.374419 -0.0792641 0.0445247 1 -0 0
-0.114841 -0.0396242 0.0479213 0.114346 0.993441 -0
0.117015 -0.144742 -0.055 0 -0 -1
0.361008 0.150644 -0.0213812 0.749791 -0.661675 0
0.5 0.173603 0.0195118 1 0 0
0.310163 0.177627 -0.055 -0 0 -1
-0.362149 0.232389 -0.055 -0 0 -1
0.473636 0.0209964 -0.055 -0 0 -1
-0.37444 -0.0627723 0.0365061 -0.999699 -0.0245426 0
-0.00910583 -0.0363747 0.0410146 0 1 0
0.0550022 -0.0769879 -0.055 0 0 -1
0.41691 -0.00063456 -0.055 0 0 -1
0.358458 0.00198373 0.045 0 0 1
-0.395517 0.0642557 -0.055 0 0 -1
0.166857 -0.135533 0.0057371 -0.749785 0 -0.661681
0.476599 0.206546 0.045 0 0 1
0.2904 -0.126293 0.045 0 0 1
-0.14813 -0.189211 0.045 0 0 1
-0.235496 -0.147887 -0.055 0 0 -1
0.0107308 -0.234902 0.0430672 -0.0958916 0 0.995392
-0.253669 -0.0881211 -0.055 0 0 -1
0.305536 -0.19676 0.045 0 0 1
-0.383453 0.0377536 0.045 -0 0 1
-0.228656 0.141209 -0.0174386 1 0 0
0.0677541 -0.121487 0.045 0 0 1
0.248921 -0.128687 0.045 0 0 1
-0.5 0.0773105 -0.0244591 -1 0 0
-0.243101 0.0982979 0.045 0 -0 1
-0.10124 -0.210407 0.055 0 -0 1
-0.0167021 -0.0541572 -0.055 -0 0 -1
0.188744 -0.210935 0.045 0 0 1
0.406453 -0.0169804 -0.00256365 0.359892 -0.932994 0
-0.0803761 -0.136289 0.0528464 0.408789 0.912629 0
-0.140375 -0.236375 0.0437679 0 -1 0
0.136674 -0.0363747 0.0143898 0 1 0
-0.489555 0.122472 0.045 0 0 1
-0.0512077 -0.179454 -0.055 0 0 -1
-0.112524 -0.0363747 -0.0331002 0 1 0
0.0576695 -0.236375 -0.0436323 0 -1 0
0.253124 -0.0647634 -0.055 0 0 -1
-0.262735 0.149834 0.045 0 -0 1
0.5 0.055221 0.0393347 1 0 0
-0.24535 0.235016 0.045 -0 0 1
0.213873 -0.169924 0.045 0 0 1
-0.271569 0.00860419 -0.055 0 0 -1
0.075487 -0.141872 -0.055 0 0 -1
0.289819 0.236375 -0.054126 0 1 0
-0.228656 -0.00712999 -0.0234102 1 0 0
-0.210781 -0.147184 0.045 0 0 1
0.340527 -0.0897906 0.0177515 -0.98586 0.167571 0
-0.42172 0.192579 0.045 -0 0 1
-0.443273 0.216644 -0.055 -0 0 -1
-0.5 0.0910832 0.030273 -1 0 0
-0.24044 -0.236375 0.0175875 0 -1 0
0.00519524 -0.21908 -0.055 0 0 -1
-0.498433 0.236375 0.015664 -0 1 0
0.103505 -0.088013 -0.055 0 0 -1
-0.374882 -0.0569219 -0.00970922 -0.99248 -0.122409 0
-0.483742 0.236375 -0.0402057 -0 1 0
0.423079 0.135583 0.045 0 0 1
0.462651 0.078102 0.045 0 0 1
0.453036 0.236375 0.0362606 -0 1 0
0.33955 0.236375 0.0409041 -0 1 0
0.050026 -0.234325 0.045 0 0 1
0.29221 0.139043 0.045 0 0 1
-0.326386 -0.114992 0.0433484 0.649388 0.760457 0
-0.454144 0.133421 -0.055 0 0 -1
-0.260849 -0.0714591 0.0250844 -0.961369 -0.275261 0
0.5 0.230307 0.017928 1 0 0
-0.103023 -0.236375 0.0102639 0 -1 -0
0.324128 -0.0504855 0.00253917 -0.601974 -0.798516 0
0.334881 -0.0435887 -0.055 0 0 -1
-0.256474 0.19602 -0.055 0 0 -1
0.423253 0.191687 -0.055 -0 0 -1
0.0345285 -0.236375 0.000244085 0 -1 0
-0.346776 0.0910043 -0.055 0 0 -1
-0.430066 0.144066 0.045 0 0 1
0.374109 -0.193111 -0.055 0 0 -1
0.267464 -0.236375 -0.0194857 0 -1 -0
0.374419 -0.10774 -0.0440164 1 0 0
0.169168 -0.0740929 -0.055 0 0 -1
-0.201438 -0.0363747 -0.0325886 0 1 0
0.231376 0.0521066 -0.055 0 0 -1
0.140737 -0.204426 0.00223943 0.889877 0 -0.4562
-0.396347 0.0165143 -0.055 0 0 -1
0.0296519 -0.133019 0.045 0 0 1
0.462466 0.173929 -0.055 0 0 -1
0.384008 0.115654 -0.0457824 -0.294752 0.955574 0
-0.0919293 -0.0363747 0.00987022 -0 1 0
0.36255 -0.236375 -0.0323809 0 -1 0
-0.390449 -0.0226943 0.045 -0 0 1
0.228656 0.136957 -0.0299838 -1 0 -0
0.423531 0.106777 -0.055 0 0 -1
0.292256 0.236375 0.014493 -0 1 0
0.29071 -0.19601 -0.055 0 0 -1
0.102429 -0.0363747 0.0374077 -0 1 0
0.267906 0.185146 0.045 0 0 1
-0.0774073 -0.135027 -0.055 0 0 -1
-0.312313 0.220362 -0.055 -0 0 -1
-0.251441 -0.170789 0.045 0 0 1
-0.191138 -0.142924 -0.055 0 0 -1
0.00589411 -0.0363747 -0.016674 0 1 0
-0.0689594 -0.236375 -0.0072094 0 -1 0
-0.5 0.118413 -0.00610884 -1 0 0
0.440739 -0.0136253 -0.0215378 0 -1 0
0.448681 -0.0136253 0.0283648 -0 -1 -0
-0.139944 -0.139791 -0.055 0 0 -1
-0.0929322 -0.0925489 -0.055 -0 -0 -1
0.280374 -0.0476418 -0.00026482 0.476699 -0.879067 0
0.228656 0.191995 0.0186823 -1 0 -0
0.327173 0.0649543 0.045 0 0 1
-0.228656 0.0944942 -0.00221754 1 0 0
-0.366973 -0.140294 -0.055 0 0 -1
0.153693 -0.0938215 0.045 0 0 1
-0.346658 0.236375 0.041612 -0 1 0
0.458231 0.223221 -0.055 -0 0 -1
-0.00972959 -0.14485 -0.055 0 0 -1
0.160877 -0.176575 0.045 0 0 1
-0.221577 -0.193222 -0.055 0 0 -1
-0.186359 -0.086426 0.055 0 0 1
-0.382711 0.22493 0.045 -0 0 1
0.378089 0.0730648 -0.055 -0 0 -1
0.339518 -0.0727422 -0.026498 -0.961373 -0.275248 0
0.365526 0.199814 0.045 -0 0 1
0.339112 -0.0521694 0.045 0 0 1
0.228656 0.0521914 -0.0017374 -1 0 0
-0.0431483 -0.235766 -0.055 0 0 -1
-0.290048 0.00802466 0.045 0 0 1
-0.0192398 -0.16806 0.0442592 0.190896 0 0.98161
0.115555 -0.236375 -0.0112254 0 -1 0
-0.317118 0.15828 0.045 0 -0 1
-0.327298 0.170448 -0.055 0 0 -1
0.280492 0.133908 -0.055 0 0 -1
-0.326891 -0.204503 -0.055 0 0 -1
-0.465948 0.0554494 -0.055 0 0 -1
0.461623 0.119266 -0.055 0 0 -1
0.420232 0.0471217 -0.055 0 0 -1
0.5 0.184945 -0.0174702 1 0 0
-0.30845 -0.0435168 -0.0545198 0.197456 -0.980312 0
-0.330519 0.194624 0.045 -0 0 1
0.232928 0.174901 -0.055 0 0 -1
-0.445198 0.236375 0.022342 -0 1 0
0.409454 0.187783 0.045 -0 0 1
0.5 0.209512 -0.0520324 1 0 0
0.375118 -0.0211191 -0.055 -0 0 -1
0.100854 -0.184712 -0.055 0 0 -1
-0.10861 -0.107572 0.0484735 -0.819304 0.573359 0
0.459456 0.119618 0.045 0 0 1
0.141217 -0.0718637 0.0031178 0.866019 0 -0.500011
0.10359 -0.0363747 -0.0190135 0 1 0
-0.356257 0.141391 0.0225865 -0.974924 -0.222537 0
-0.305532 -0.155674 -0.030225 1 0 0
-0.137688 -0.0363747 -0.000636494 -0 1 0
0.129318 -0.236375 0.030694 0 -1 0
-0.270721 -0.182557 -0.0155067 0 0.222515 0.974929
0.172187 -0.236375 0.00621148 0 -1 0
-0.00871228 -0.117461 0.0428728 0.0958916 0 0.995392
-0.275237 -0.236375 -0.0086101 0 -1 0
-0.349688 0.236375 -0.00963612 0 1 0
0.360728 -0.155948 -0.055 0 0 -1
0.271479 0.0205993 0.045 0 0 1
0.323517 -0.00370379 -0.055 0 0 -1
-0.348044 0.129728 -0.055 0 0 -1
0.305532 -0.226606 0.00969364 -1 0 0
0.208556 -0.165822 -0.00595673 0 -0.955567 0.294773
0.26121 -0.096873 0.0113032 0.950044 0.312116 0
-0.469503 -0.00522577 0.045 -0 0 1
0.309144 0.0045086 0.045 0 0 1
0.0546698 -0.0384663 0.045 -0 0 1
-0.320709 -0.119007 -0.0419298 0.48645 0.873709 -0
0.228656 0.194511 -0.0201771 -1 0 -0
-0.291095 -0.16709 0.045 0 0 1
-0.0258966 -0.236375 0.0196558 0 -1 -0
-0.141738 -0.234768 -0.0139474 -0.840027 0 0.542545
-0.0595217 -0.0363747 0.034588 0 1 -0
0.30793 -0.163586 0.00474909 0 -0.921475 -0.388437
-0.195777 -0.0363747 0.037034 0 1 0
0.5 0.0548652 -0.00700417 1 0 0
0.338802 0.222814 -0.055 -0 0 -1
-0.107446 -0.178935 -0.055 0 0 -1
-0.5 0.159756 -0.0323212 -1 0 -0
0.374419 -0.147462 0.0412567 1 -0 0
0.404142 0.150038 -0.055 0 0 -1
-0.236928 -0.045337 -0.055 0 0 -1
-0.275743 -0.125302 -0.055 0 0 -1
-0.345737 -0.0185995 0.045 0 -0 1
0.342796 0.0436598 -0.055 0 0 -1
0.0387122 -0.0363747 0.00603299 0 1 0
-0.269465 0.236375 -0.0400518 0 1 0
-0.341765 0.0439585 -0.055 0 0 -1
0.145319 -0.132157 0.045 0 0 1
-0.185584 -0.0655098 -0.055 -0 0 -1
0.192205 -0.181425 -0.055 0 0 -1
-0.392952 0.236375 -0.00978078 -0 1 0
-0.433962 0.0249521 -0.055 0 0 -1
0.3752 -0.0549073 -0.00300711 0.985278 -0.17096 0
-0.172856 -0.148565 0.055 0 0 1
0.250159 0.136456 0.045 0 0 1
-0.271257 -0.163095 -0.055 0 0 -1
-0.142795 -0.218847 -0.055 0 0 -1
0.486399 0.00211565 -0.0130038 0.724243 -0.689544 0
0.0741001 -0.0796052 0.045 0 0 1
-0.151162 -0.0382776 -0.055 -0 0 -1
0.164533 -0.0363747 -0.0200657 -0 1 0
-0.305532 -0.147785 0.0128216 1 0 0
-0.3611 0.122001 -0.0206426 -0.749782 0.661685 0
0.374419 -0.140051 -0.0095415 1 0 0
-0.0443071 -0.0363747 -0.0114152 0 1 0
0.217731 -0.151172 -0.055 0 0 -1
0.37609 0.0215461 -0.055 -0 0 -1
-0.486681 0.168533 0.045 0 0 1
0.414152 0.0253914 0.045 0 -0 1
0.104445 -0.228353 -0.055 0 0 -1
0.251969 0.222928 0.045 0 -0 1
-0.268432 -0.109785 -0.0070597 -0.755127 0.655578 0
0.493434 0.0116366 0.0403823 0.870091 -0.492892 0
0.193896 -0.236375 -0.0327021 0 -1 0
-0.374419 -0.112965 0.0411878 -1 -0 0
0.172917 -0.143569 -0.055 0 0 -1
-0.170293 -0.202089 -0.000298936 0.962626 0 -0.270835
-0.103788 -0.170117 0.045 0 0 1
-0.427365 -0.0021099 0.045 0 -0 1
0.228656 -0.0161527 -0.00762972 -1 0 0
0.236466 -0.189461 -0.055 0 0 -1
0.343798 -0.227778 0.045 0 0 1
-0.155224 -0.114432 0.045 0 0 1
0.169923 -0.0954472 -0.0107571 -0.930872 0 0.365345
-0.234371 0.236375 -0.00294848 0 1 0
-0.194419 -0.172079 0.00942451 -1 0 -0
-0.340957 -0.0819986 0.0269294 0.999537 -0.0304156 0
0.105751 -0.194835 0.045 0 0 1
-0.274202 -0.0517692 -0.0278905 -0.640891 -0.767632 0
0.0645994 -0.0363747 -0.0495915 0 1 0
-0.219475 -0.101044 0.045 0 0 1
-0.43955 0.091391 0.045 0 0 1
-0.197281 -0.234112 -0.055 0 0 -1
-0.16423 -0.128796 -0.0180657 0.563323 0 0.826237
-0.0348046 -0.105492 -0.055 0 0 -1
0.412952 0.0866282 0.045 0 0 1
-0.488136 0.00405907 0.00473183 -0.757206 -0.653177 0
-0.373793 0.08996 0.045 -0 -0 1
0.285922 -0.0451314 0.0448818 0.340856 -0.940116 0
0.374419 -0.0658376 -0.0460819 1 0 0
-0.172907 -0.18815 -0.055 0 0 -1
0.286611 -0.129679 -0.055 0 0 -1
-0.228656 0.127479 0.0189143 1 0 0
0.0805831 -0.236375 0.022215 0 -1 -0
0.0244894 -0.0434861 -0.055 -0 0 -1
0.5 0.101063 0.0276662 1 0 0
0.144718 -0.107128 -0.055 0 0 -1
0.207682 -0.236375 0.021913 0 -1 0
0.252144 0.0569534 0.045 0 0 1
-0.278001 -0.207627 -0.055 0 0 -1
-0.0423084 -0.137168 0.045 0 -0 1
0.0131994 -0.103728 -0.055 0 0 -1
-0.299039 0.0523362 -0.055 0 0 -1
-0.230581 -0.165252 -0.0010275 -0 -0.998757 -0.0498445
-0.39696 0.126839 0.00909106 0.889875 0.456205 -0
-0.252612 0.0661996 -0.055 0 0 -1
0.245375 -0.0188117 0.045 0 0 1
-0.247395 -0.0284549 0.045 0 0 1
0.494875 0.143513 0.045 0 0 1
0.26052 0.236375 -0.0126951 -0 1 0
-0.411551 0.154975 -0.055 -0 0 -1
-0.28953 -0.236375 0.0436979 0 -1 0
-0.24393 -0.236375 -0.0445109 0 -1 0
0.0136615 -0.193517 0.0433879 -0.14356 0 0.989642
-0.274511 0.0667587 0.045 0 -0 1
0.243139 0.101677 -0.055 0 0 -1
0.133843 -0.0450089 -0.055 0 0 -1
-0.214115 -0.103869 -0.055 0 0 -1
0.325582 -0.165068 0.045 0 0 1
0.356336 0.141736 0.0308041 0.974924 -0.222537 0
-0.374419 -0.23579 -0.011034 -1 0 0
-0.384039 -0.0341512 -0.0441323 -0.81759 -0.5758 0
-0.186236 -0.206912 0.055 0 0 1
-0.497211 0.20032 -0.055 0 0 -1
-0.329663 -0.236375 0.0355871 0 -1 0
0.437234 0.236375 -0.0105251 0 1 0
0.30149 0.0942822 0.045 0 0 1
-0.459831 -0.0126474 -0.020313 -0.2191 -0.975702 0
0.267962 -0.109192 -0.025277 0.786764 0.617254 -0
-0.020947 -0.236375 -0.0224876 0 -1 0
-0.228656 0.177913 0.00794547 1 0 0
-0.428031 0.236375 -0.0180433 -0 1 0
-0.464033 0.2088 0.045 0 -0 1
-0.5 0.0380702 -0.0102231 -1 0 0
-0.431335 0.0479581 0.045 -0 0 1
-0.474539 0.0597924 0.045 0 0 1
0.373633 0.114956 -0.00284708 0.198134 0.980175 0
-0.374419 -0.222783 0.0409722 -1 -0 0
-0.146517 -0.0977074 -0.055 0 0 -1
-0.322001 -0.0490333 -0.00126701 0.519777 -0.854302 0
0.490844 0.236375 -0.0202497 0 1 0
0.198894 -0.106796 -0.055 0 0 -1
0.10251 -0.155914 0.045 0 0 1
0.343143 -0.122901 0.045 0 0 1
-0.193178 -0.236375 0.0229982 0 -1 0
0.459841 0.164476 0.045 0 0 1
-0.0634462 -0.0548853 -0.055 -0 0 -1
0.373571 -0.19464 -0.00906291 0 0.90097 0.433882
-0.236337 0.0312119 -0.055 0 0 -1
-0.349579 -0.0476406 -0.055 0 0 -1
0.169814 -0.178488 -0.0110368 -0.930872 0 0.365345
-0.425855 0.0978514 -0.055 0 -0 -1
0.400223 -0.0198834 0.0389468 0.492898 -0.870087 0
0.5 0.111213 -0.0230467 1 0 0
-0.374419 -0.184127 -0.0297581 -1 0 0
-0.237758 0.0206045 0.045 0 -0 1
-0.197666 -0.236375 -0.0170485 -0 -1 0
0.374419 -0.231546 0.0204196 1 0 0
0.236533 -0.236375 -0.0530122 0 -1 0
-0.403336 0.236375 -0.0529274 0 1 0
-0.228656 0.0307727 -0.0124998 1 0 0
-0.0695301 -0.226868 0.045 0 0 1
-0.37227 -0.0779399 -0.055 0 0 -1
0.255081 -0.187959 0.00902035 0 0.623498 -0.781825
-0.228656 0.0614317 0.0246036 1 0 0
0.165056 -0.0455254 0.045 -0 0 1
-0.384467 0.167869 0.045 -0 0 1
-0.312315 0.0816075 0.045 0 -0 1
0.0255472 -0.15164 -0.055 0 0 -1
0.228656 0.0240223 0.0380812 -1 0 0
-0.319901 -0.236375 -0.0257383 0 -1 0
-0.228656 0.19163 -0.0312542 1 0 0
0.318102 0.181878 0.045 0 -0 1
-0.229771 -0.0619472 0.045 0 0 1
-0.262793 0.108351 -0.055 0 0 -1
-0.280633 0.112475 0.045 0 -0 1
-0.230838 -0.205155 0.045 0 0 1
0.405207 0.233543 0.045 -0 0 1
-0.312585 0.00493469 -0.055 0 0 -1
0.189009 -0.133411 0.045 0 0 1
0.294468 -0.126988 0.00347078 1 0 0
-0.268951 0.151883 -0.055 0 0 -1
0.490315 0.0716714 -0.055 0 0 -1
0.457773 0.0355702 0.045 0 -0 1
-0.155229 -0.0412391 0.055 -0 0 1
-0.229211 0.227311 -0.055 0 0 -1
-0.142415 -0.168846 -0.0148735 -0.781827 0 0.623496
-0.5 0.193459 0.00962914 -1 0 -0
0.273314 0.177062 -0.055 0 0 -1
0.343648 0.236375 -0.0128326 0 1 0
-0.305125 0.112992 -0.055 0 0 -1
0.396571 0.146669 0.0131221 -0.889875 -0.456205 0
-0.464719 0.179783 -0.055 0 0 -1
-0.135637 -0.14885 0.055 0 0 1
0.241556 -0.0183162 -0.055 0 0 -1
-0.324018 -0.194963 -0.00831961 0 0.921475 0.388437
-0.372635 0.189533 -0.055 -0 0 -1
-0.374419 -0.132471 -0.00698225 -1 0 0
-0.0818778 -0.0629741 0.055 0 0 1
0.325903 -0.144475 -0.055 0 0 -1
0.397151 0.229482 -0.055 -0 0 -1
-0.370335 -0.174439 0.045 0 0 1
-0.419286 -0.0138946 -0.0233836 -0.122414 -0.992479 0
0.291041 -0.0369293 -0.055 0 0 -1
0.368555 0.0570523 0.045 0 0 1
0.145532 -0.178429 -0.055 0 0 -1
-0.27065 -0.123312 0.045 0 0 1
-0.0251624 -0.0778007 0.045 0 -0 1
0.228656 0.0882549 0.0321904 -1 0 0
0.191208 -0.0856083 0.045 0 0 1
0.0199148 -0.0816366 0.0443905 -0.190896 0 0.98161
0.374419 -0.194361 0.0389091 1 -0 0
0.0508625 -0.168846 0.045 0 0 1
0.26448 0.0196817 -0.055 0 0 -1
0.0412219 -0.191786 -0.055 0 0 -1
-0.362864 -0.229156 -0.055 0 0 -1
0.294468 -0.160292 -0.0320192 1 0 0
0.390153 0.236375 -0.000252682 0 1 0
0.228656 0.141982 0.0086145 -1 0 -0
-0.348891 -0.165242 0.00775228 -0 -0.826239 -0.563319
0.33188 0.131566 -0.055 0 0 -1
-0.492988 0.12099 -0.055 0 0 -1
-0.294468 -0.204638 0.0141496 -1 -0 0
0.231153 0.230765 -0.055 0 0 -1
-0.301724 -0.042673 0.0345625 0.0496684 -0.998766 0
0.497803 0.146117 -0.055 0 0 -1
0.346676 0.103235 0.045 0 0 1
0.202808 -0.0363747 0.0325389 0 1 -0
0.149872 -0.23355 -0.055 0 0 -1
-0.140812 -0.0778551 -0.0123864 -0.889877 0 0.4562
0.32478 -0.116275 -0.02003 -0.610818 0.791771 0
0.333527 -0.192749 -0.0121988 -0 0.797133 0.603804
0.450061 0.0786454 -0.055 0 0 -1
-0.102371 -0.236375 -0.0528121 0 -1 0
0.299552 0.064849 -0.055 0 0 -1
0.369742 0.183749 -0.055 -0 0 -1
-0.291007 0.236375 0.04221 -0 1 0
0.264936 -0.234657 0.045 0 0 1
-0.483695 0.00659804 -0.055 0 0 -1
-0.298127 0.236375 -0.00585231 0 1 0
0.309241 -0.236375 -0.0537171 0 -1 0
0.201376 -0.0496791 -0.055 0 0 -1
-0.373433 0.157753 -0.026159 -0.198134 -0.980175 0
