ply
format ascii 1.0
comment Created by Open3D
element vertex 400
property double x
property double y
property double z
property double nx
property double ny
property double nz
end_header
0.00322582 0.409006 0.100319 1 0 -0
0.108194 -0.394946 0.235604 0.492908 0 0.870081
0.107258 0.287354 0.113752 0 0.853287 0.521442
0.113557 -0.0914185 -0.231234 0.757236 0 -0.653142
-0.0242303 -0.276618 0.23817 -0.219116 0 0.975699
0.115325 0.237642 -0.228993 0.817589 0 -0.575802
0.119355 -0.280987 0.215807 1 0 -0
0.0955683 0.498373 0.188505 0 0.975703 0.219095
0.119355 0.0773979 0.0337806 1 -0 0
-0.0419355 0.227558 0.110094 -1 0 0
-0.0496698 -0.0438902 -0.0903226 -0 0 -1
0.0163984 0.419202 0.200689 0 -0.826237 -0.563323
-0.010231 0.5 -0.00732065 -0 1 0
0.119355 0.200248 -0.0341227 1 0 0
0.119355 0.43384 -0.10618 1 0 -0
0.0612903 0.142438 -0.181469 -1 0 0
-0.119355 -0.087417 -0.0126944 -1 0 -0
-0.115212 -0.17507 -0.080766 -0.817592 0 -0.575798
0.100938 -0.139045 -0.238318 0.170926 0 -0.985284
-0.0265348 0.435806 -0.0178514 0 -1 0
-0.0655648 0.461667 -0.0847502 -2.62066e-05 0.405244 -0.914208
0.0274713 -0.478888 0.221923 0 -0.689539 0.724248
0.0907822 -0.416769 -0.218522 0.000785618 -0.4929 -0.870085
0.0983885 -0.405945 0.094566 0 0.661683 0.749784
-0.0771609 -0.447984 0.0568398 0 -0.17139 0.985203
-0.119355 -0.365331 -0.0482156 -1 0 0
0.00640832 0.422104 0.0387097 0 0 -1
0.0617389 -0.460316 -0.152918 -0.975692 -0.185794 -0.11621
0.114431 0.485585 -0.119318 0.788232 0.593087 -0.164129
0.0612903 -0.383138 -0.129923 -1 0 0
0.119355 0.411676 -0.148485 1 0 0
-0.00138783 -0.5 0.0869053 0 -1 0
0.119355 0.391267 0.0785948 1 0 0
0.00900806 0.248038 -0.0903226 0 0 -1
-0.0317574 -0.436448 0.234971 -0.534906 -0.020737 0.844657
0.106457 0.3354 0.231442 -1.10432e-07 0.228791 -0.973476
-0.0688798 0.179394 0.0580645 0 -0 1
0.0195058 -0.23516 -0.0903226 0 0 -1
0.119355 -0.178874 -0.132702 1 0 0
0.0695451 0.200882 -0.233583 -0.653175 0 -0.757207
-0.00344923 -0.384333 -0.054035 -0.74978 0.661687 0
-0.052525 -0.435288 -0.0258065 0 0 1
0.119355 -0.198871 0.011731 1 -0 0
0.117884 0.485417 0.127587 0.932985 0.359916 0
-0.0419355 -0.255424 0.196675 -1 0 0
0.0326209 0.115835 0.23871 0 -0 1
0.050593 -0.137981 -0.093709 -0.534983 0 -0.844863
0.0572986 0.366913 0.0767413 0 -0.173641 0.984809
0.00384194 -0.481021 -0.071505 0 -0.691141 -0.72272
0.032468 -0.399078 -0.0216813 -0.866025 0.5 0
0.0511257 -0.420087 0.199391 0 0.826237 -0.563323
0.119355 0.114779 -0.189005 1 0 0
0.0640281 -0.5 -0.0404444 0 -1 0
0.108703 0.496585 0.0634397 0.535036 0.84483 0
0.0637282 0.276569 0.165654 0 0.98883 -0.149047
-0.0745994 -0.096932 -0.0903226 0 0 -1
-0.119355 -0.00221875 -0.0477392 -1 0 0
0.0490759 0.472749 0.226835 0 0.575808 0.817585
-0.0258551 -0.491824 0.203587 -0.266639 -0.860885 0.433337
-0.106362 -0.363249 0.055926 -0.405239 0 0.914211
0.0239398 -0.499965 0.175634 0 -0.999699 0.0245451
-0.0928512 -0.265849 0.0580645 0 0 1
0.119355 0.238892 0.187898 1 0 0
0.023643 -0.265725 0.23871 0 0 1
0.119355 -0.0789 -0.180304 1 0 0
0.119355 0.0293234 0.0996441 1 -0 0
-0.119355 0.0616874 -0.00602459 -1 0 -0
0.0385403 0.5 -0.00643751 -0 1 0
0.106431 0.306086 -0.236541 0.449603 0 -0.893229
-0.11795 -0.483087 0.00804165 -0.932959 -0.341813 0.112921
0.00355688 0.374114 -0.0424635 -0.889864 -0.456227 0
-0.10359 0.340782 0.0570059 -0.313674 0 0.949531
-0.103603 -0.47688 -0.0738716 -0.313592 -0.620227 -0.719012
0.0674468 0.430783 0.176679 0 -0.955568 -0.294769
0.071845 -0.248299 0.23871 0 -0 1
0.119355 -0.334411 -0.176911 1 -0 0
-0.0556293 0.316238 -0.0375017 0.478256 0.878221 0
-0.114523 -0.0592902 0.0494321 -0.788351 0 0.615225
0.119355 -0.335518 0.0252576 1 0 0
-0.0968913 0.499997 -0.0143199 -0.0245505 0.999699 0
-0.059733 -0.00592819 0.0585825 -0.217254 0 0.976115
0.0417718 -0.334648 -0.0258065 0 0 1
-0.00140652 0.453419 -0.0877647 0 0.267424 -0.963579
-0.0345091 -0.494159 0.145489 -0.653183 -0.7572 0
-0.113037 -0.157713 0.05114 -0.724241 0 0.689547
0.119355 0.18217 -0.094301 1 0 0
-0.0248758 -0.141243 -0.0903226 0 0 -1
0.0972679 -0.491618 0.20593 0.0245224 -0.869825 0.49275
0.119355 0.463693 0.0224034 1 0 0
0.119355 -0.433227 -0.103628 1 -0 0
-0.0726584 -0.208293 0.0580645 0 0 1
0.119355 0.0717854 -0.0522473 1 0 0
-0.0144362 0.5 0.158409 0 1 0
-0.0131076 -0.197634 -0.0903226 0 0 -1
-0.0419355 0.463067 0.180877 -1 0 -0
0.119355 -0.279948 -0.137169 1 -0 0
0.119355 -0.382802 -0.134278 1 -0 0
0.119355 -0.377604 -0.208154 1 -0 0
-0.0289617 0.0092224 0.236563 -0.405247 0 0.914207
-0.0985186 -0.273871 -0.0179833 0 -1 0
-0.0419355 -0.247544 0.142115 -1 0 0
0.119355 -0.430883 0.198178 1 0 0
0.0409307 0.256432 0.23871 0 -0 1
-0.0385278 0.397725 0.162404 0 -0.980177 -0.198122
0.0471148 0.348196 0.23871 0 -0 1
0.0993821 0.125486 0.238552 0.122415 0 0.992479
-0.11845 0.412115 -0.0258065 0 0 1
0.119355 -0.120506 -0.0839862 1 -0 0
-0.0416109 0.386679 0.0580645 0 0 -1
0.119355 0.329272 -0.0251271 1 0 0
0.0906102 0.331091 0.0794696 0 0.318491 0.947926
0.0649842 -0.0422725 -0.228498 -0.844841 0 -0.535018
0.115326 -0.2811 -0.228992 0.817589 0 -0.575802
0.0632709 -0.31251 0.221567 0.000184243 -0.542545 -0.840027
0.119355 -0.416643 0.0456257 1 0 0
0.0612903 -0.25572 -0.125632 -1 0 0
0.119355 0.373671 -0.0983519 1 0 0
0.119355 -0.00711045 -0.0714511 1 0 0
-0.0633895 0.233733 0.0580929 -0.0662143 0 0.997805
0.0512106 -0.29673 0.101307 0 -0.733053 0.680172
-0.0419355 -0.439767 0.137454 -1 0 0
0.0378662 0.0253487 0.23871 0 -0 1
0.119355 -0.299381 -0.017703 1 -0 0
0.0637133 -0.5 0.131168 0 -1 0
0.0991252 0.393249 0.223908 0 -0.484022 -0.875056
0.0162423 -0.351389 0.233788 0.000228388 -0.0249308 -0.999689
0.119355 0.462403 -0.0623638 1 0 0
0.0436796 0.171862 0.23871 0 -0 1
0.119355 -0.335352 -0.110698 1 -0 0
0.0319844 -0.356013 0.0758357 -0 0.0249459 0.999689
0.0120463 -0.11742 0.23871 0 0 1
0.119355 0.144171 0.138529 1 0 0
-0.0418718 -0.0379592 0.217731 -0.99729 0 0.0735682
-0.0142365 0.486976 0.213046 0 0.788346 0.615232
0.119355 0.119175 0.0943519 1 -0 0
-0.0197678 -0.5 0.0023358 0 -1 0
-0.119355 0.17731 -0.0274136 -1 -0 0
-0.119145 0.233334 -0.0707726 -0.992479 0 -0.122415
0.119355 0.304441 0.0278356 1 0 0
-0.0518961 -0.409572 -0.0903226 0 0 -1
-0.0609664 0.0772984 0.0583469 -0.177587 1.16288e-05 0.984105
0.119355 -0.260043 0.0425867 1 -0 0
0.0410983 0.5 0.169647 0 1 0
0.0571065 -0.474346 -0.0887807 -0.817507 -0.309759 -0.485522
-0.0769711 -0.379556 -0.0258065 0 0 1
-0.0402162 0.356581 0.224771 -0.914212 0 0.405236
0.0612903 0.244359 -0.202137 -1 0 0
-0.0552041 -0.49718 -0.0446639 0 -0.950674 -0.310193
-0.116509 -0.416653 -0.0258065 0 0 1
0.0317616 0.309376 -0.0233732 -0.866025 0.5 0
0.119355 -0.143456 -0.174545 1 0 0
0.0883004 0.0121216 -0.23871 0 0 -1
-0.0419355 0.06086 0.162475 -1 -0 0
-0.0419355 -0.0650175 0.0956039 -1 0 0
0.00712444 -0.424694 -0.0903226 0 0 -1
0.0634714 -0.275874 0.157673 0 -0.998757 -0.0498461
-0.049154 0.30409 -0.0903226 -0 -0 -1
0.0106951 0.401195 -0.0903226 0 0 -1
0.0612903 -0.0587718 -0.128386 -1 0 0
0.0499415 -0.162161 0.23871 0 0 1
-0.0610726 0.492446 0.0243752 -0.170913 0.860337 0.480217
0.108569 -0.30802 0.0911913 0 -0.583752 0.811932
-0.0501244 0.235663 -0.0903226 -0 0 -1
-0.044312 0.128683 0.0705725 -0.898655 2.17615e-05 0.438656
0.0785127 -0.439246 0.238588 0 -0.0735644 0.99729
-0.0419355 -0.00778829 0.124276 -1 0 0
0.102539 0.499246 -0.0305285 0.266726 0.963772 0
0.07161 0.116468 -0.235084 -0.535002 0 -0.844851
0.0375078 -0.355211 -0.0903226 0 0 -1
0.00322582 -0.396766 0.169852 1 0 0
-0.114392 0.41575 -0.0818578 -0.788331 0 -0.615251
0.118743 -0.0369215 -0.221328 0.975708 0 -0.219075
0.119355 -0.0107475 0.124908 1 -0 0
-0.0524864 -0.486236 0.0387908 -0.53487 -0.642626 0.548585
0.119355 -0.0201622 -0.176042 1 0 0
-0.117678 -0.312872 -0.0762742 -0.932989 0 -0.359906
-0.113902 0.315028 -0.0258065 0 0 1
0.0862756 0.00858205 0.23871 0 -0 1
0.119355 -0.399597 -0.024753 1 0 0
0.0327281 -0.5 0.00624273 0 -1 0
0.119355 -0.177313 0.14541 1 -0 0
-0.0694259 -0.327576 -0.0300038 0.78183 -0.623492 0
0.119355 -0.00964704 0.0539262 1 -0 0
-0.110082 0.14879 0.0537219 -0.575801 0 0.81759
-0.0388484 -0.273871 -0.0153655 0 -1 0
0.0612903 0.458703 -0.121936 -1 0 -0
0.119355 -0.20215 0.195267 1 0 0
-0.0419355 0.17107 0.184894 -1 -0 0
0.0547217 0.360534 -0.0111909 -0.866025 -0.5 0
-0.0923328 -0.354024 -0.0903226 0 0 -1
-0.021043 -0.315186 0.172837 0 -0.900969 -0.433884
0.00322582 -0.330213 0.108022 1 0 -0
0.0612903 0.381722 -0.200346 -1 -0 0
-0.119355 0.454703 -0.0445899 -1 0 0
0.0145283 0.282214 0.0387097 0 0 -1
0.101081 0.0744664 -0.238293 0.170926 0 -0.985284
-0.0233195 0.115121 0.238352 -0.170944 0 0.985281
-0.110901 0.284981 -0.0853519 -0.615222 0 -0.788354
0.119355 -0.215149 0.098908 1 -0 0
0.107253 0.257681 0.236127 0.449624 0 0.893218
-0.0437233 -0.258117 0.0718431 -0.919092 0 0.394042
-0.0419355 -0.420441 0.0882768 -1 0 0
0.119268 -0.189476 -0.218051 0.997295 0 -0.0735094
-0.119355 0.0868248 -0.064663 -1 0 0
0.0741471 0.434438 -0.204463 -0.44949 0.552159 -0.702196
0.0208578 -0.391517 0.0387097 0 0 -1
0.119355 0.0720264 0.213596 1 0 -0
0.119355 0.164922 -0.161561 1 0 0
-0.0712244 -0.307544 0.0387097 -0 0 -1
0.0612903 -0.289583 -0.164955 -1 0 0
-0.0705605 0.0699101 -0.0903226 0 -0 -1
0.0612903 -0.336655 -0.174113 -1 0 0
-0.0419355 0.126197 0.150184 -1 0 0
-0.044766 0.122477 -0.0903226 -0 -0 -1
0.119355 -0.164118 0.0585941 1 -0 0
0.0612903 -0.108675 -0.140295 -1 0 0
-0.0476149 -0.313022 -0.0883726 0.294745 -0.955576 0
-0.0419355 -0.114545 0.211135 -1 -0 0
0.00322582 0.286379 0.157826 1 0 0
-0.0102715 -0.319338 -0.0318946 -0.563326 -0.826235 -0
-0.0536643 0.298919 0.0387097 0 0 -1
-0.0419355 0.306352 0.138958 -1 0 0
0.00836168 0.312076 -0.0903226 0 0 -1
0.119355 0.0198221 -0.0109958 1 -0 0
0.119355 0.444041 0.17565 1 0 0
-0.0419355 0.00383082 0.175939 -1 0 0
0.119355 0.271908 -0.12872 1 0 0
0.119355 0.189615 0.16155 1 0 0
0.119355 -0.379754 -0.0705338 1 0 0
0.0666399 0.346767 -0.23049 -0.757108 0.0483232 -0.6515
0.11268 -0.0777262 0.232156 0.702487 0 0.711697
0.0099878 -0.287478 -0.0903226 0 0 -1
0.0530191 0.5 0.121105 -0 1 0
0.107551 0.462491 -0.176437 0.492788 0.685983 -0.535339
0.11821 0.165056 -0.223206 0.94953 0 -0.313678
-0.119062 0.346752 -0.071335 -0.985278 0 -0.17096
0.0926846 -0.350364 0.0759448 0 -0.0747277 0.997204
-0.0436568 -0.110321 0.0719982 -0.919092 0 0.394042
-0.013366 0.325767 0.187247 0 0.661698 -0.74977
-0.119355 0.220432 -0.00858492 -1 0 -0
-0.0419355 0.0778324 0.109538 -1 0 0
0.119355 0.194344 0.0330494 1 0 0
0.0612903 0.321802 -0.168562 -1 0 0
-0.119355 -0.219356 -0.0131405 -1 0 0
-0.1163 0.198215 0.0468136 -0.870091 0 0.492892
0.0167778 0.215898 0.23871 0 -0 1
-0.0734544 -0.238765 -0.0903226 0 0 -1
0.0612903 -0.30614 -0.113372 -1 0 0
0.119355 -0.082051 0.180623 1 0 0
0.119355 0.234702 0.071259 1 0 0
-0.119355 -0.129173 -0.0430233 -1 -0 0
0.116179 -0.328443 -0.227672 0.870079 0 -0.492913
0.0771523 -0.5 0.0350312 0 -1 0
-0.00380936 0.303145 0.23871 0 0 1
0.119355 0.0659332 -0.101305 1 0 0
0.00497634 0.12073 -0.0903226 0 0 -1
-0.0783269 0.435806 0.00344071 0 -1 0
-0.0419355 -0.186295 0.214846 -1 -0 0
0.0496337 0.285892 0.116247 0 0.878223 0.478252
0.0612903 -0.171681 -0.168977 -1 0 0
0.0104462 -0.202931 0.23871 0 0 1
0.119355 0.340238 -0.185404 1 0 -0
-0.0244599 0.442227 0.237752 -0.219048 0.119441 0.968376
0.0275853 0.407535 -0.0178623 -0.866025 -0.5 0
0.0619799 -0.314849 -0.221662 -0.96377 0 -0.266734
0.119355 -0.467949 -0.0366028 1 0 0
0.0785654 -0.118203 0.23871 0 -0 1
-0.0396678 0.00862954 -0.0903226 0 0 -1
0.0612903 -0.389562 -0.178858 -1 0 0
-0.092468 -0.110274 0.0580645 0 0 1
0.0300488 -0.433728 0.1505 -0 0.998757 0.0498461
0.119355 0.135416 -0.0470777 1 0 0
-0.0398582 -0.377901 0.117908 -0 0.542538 0.840031
0.078125 -0.244378 -0.237961 -0.266662 0 -0.96379
-0.0179426 0.273871 -0.0143584 0 1 -0
0.119355 -0.346326 -0.0365773 1 0 0
0.0809208 -0.367473 -0.235875 -0.122364 -0.170604 -0.977712
0.0612903 0.389847 -0.139002 -1 0 0
0.119355 -0.243949 -0.0214006 1 -0 0
-0.0907887 0.149978 -0.0903226 0 0 -1
-0.104402 0.453056 0.0542288 -0.359824 0.248857 0.89922
-0.115905 -0.419713 0.0387097 0 0 -1
0.119355 0.241923 -0.0727843 1 0 0
0.119355 -0.192955 -0.0716991 1 -0 0
0.119355 -0.472706 0.0334035 1 0 0
0.119355 0.0802061 -0.152502 1 0 0
-0.0698277 -0.172946 -0.0903226 0 0 -1
0.0612903 -0.0180748 -0.169855 -1 0 0
0.119355 0.0127172 -0.137423 1 0 0
0.119355 0.0369113 -0.191671 1 0 0
0.00322582 -0.282529 0.135991 1 0 -0
0.00322582 0.372501 0.199414 1 0 -0
0.0612903 -0.241915 -0.188853 -1 0 0
0.119355 0.367106 0.0279531 1 0 0
-0.0419355 -0.34562 0.0670691 -1 0 0
-0.0155544 0.0661698 -0.0903226 0 0 -1
-0.000734065 0.328594 0.0562499 -0.811934 0.583749 0
-0.119355 -0.165489 -0.0106925 -1 0 0
0.119355 -0.255876 -0.0790777 1 -0 0
-0.0419355 0.445859 0.12262 -1 0 0
0.119355 -0.0933352 0.0506418 1 -0 0
0.118608 0.383418 -0.214733 0.963751 0.0836895 -0.253338
-0.0419355 -0.0589935 0.159209 -1 0 0
0.119355 -0.0571886 -0.131169 1 0 0
0.0612903 -0.0821743 -0.179172 -1 0 0
-0.107938 -0.049787 -0.0873618 -0.492913 0 -0.870079
0.119355 0.0953015 0.166241 1 0 0
-0.0419355 -0.203701 0.105122 -1 0 0
0.0248574 -0.410013 0.23871 0 0 1
0.0612662 0.0153349 -0.111919 -0.999698 0 -0.0245573
0.109429 -0.464691 -0.171764 0.57568 -0.644611 -0.50306
0.119355 0.326309 -0.0896131 1 0 0
0.109631 0.448337 0.233286 0.575674 0.179155 0.797811
0.119355 0.291206 -0.190541 1 0 0
-0.0159069 -0.308303 0.0387097 0 0 -1
-0.04757 0.494363 -0.052141 -6.79975e-05 0.914209 -0.405243
-0.00038193 0.0598185 0.23871 0 0 1
-0.0993107 0.0294848 0.0579159 -0.122412 0 0.992479
0.0931754 -0.197966 0.23871 0 -0 1
0.115229 -0.490419 0.135377 0.817581 -0.575814 0
0.060031 -0.189985 -0.10548 -0.949532 0 -0.313671
0.119355 0.136026 -0.1092 1 0 0
0.0206031 0.492137 -0.0566553 0 0.871612 -0.490197
0.119355 0.22372 -0.17939 1 0 0
-0.0382588 0.197591 0.228471 -0.844866 0 0.534977
-0.0419202 0.256049 0.216753 -0.9997 0 0.0245034
0.119355 -0.0578211 0.0912596 1 -0 0
-0.0419157 0.0579373 0.216934 -0.9997 0 0.0245034
0.013693 -0.431597 0.00739396 -0.866025 0.5 0
-0.0245438 0.49939 0.0732192 -0.219103 0.975702 0
0.0426137 0.5 0.0570904 -0 1 0
0.0233358 0.433304 0.14548 0 -0.995031 0.0995647
0.11209 -0.33307 0.230798 6.63858e-05 -0.271872 -0.962333
-0.108173 0.405484 0.0387097 0 0 -1
-0.119355 -0.0413496 -0.00366311 -1 0 -0
0.0612219 0.330512 -0.111237 -0.99729 -0 -0.0735697
0.0864606 -0.433009 0.143361 0 0.98883 0.149047
0.0238243 -0.0604844 0.23871 0 0 1
-0.119355 0.123027 -0.00995138 -1 0 -0
0.0176643 -0.413115 0.101488 -0 0.733053 0.680172
-0.0419355 -0.412634 0.187306 -1 -0 0
0.0612903 -0.122115 -0.215104 -1 0 0
0.119355 0.136086 0.0168383 1 0 0
-0.0487398 0.44192 0.0641926 -0.689405 0.0535972 0.722391
-0.0419355 0.239852 0.162695 -1 0 0
0.119355 -0.473658 0.0900081 1 0 0
0.119355 -0.126354 -0.0285868 1 -0 0
-0.0419355 -0.303168 0.120634 -1 0 0
0.0736141 0.498989 -0.0821392 -0.273961 0.955402 -0.11024
0.0797819 0.418626 0.1082 0 -0.79713 0.603808
0.119355 0.28177 -0.0271255 1 0 0
0.119355 0.0136042 0.183736 1 0 0
0.119355 0.4423 0.0815037 1 0 0
-0.119355 -0.244744 -0.0656169 -1 0 0
-0.0977407 0.0252737 -0.0902988 -0.0245639 0 -0.999698
0.0403169 -0.0886527 -0.0903866 -0.0735624 0 -0.997291
0.0503565 -0.5 0.077284 0 -1 0
-0.00845794 0.175737 -0.0903226 0 0 -1
0.0571696 -0.422294 -0.0999105 -0.817592 0 -0.575798
-0.00110854 -0.0270033 -0.0903226 0 0 -1
0.00322582 0.358332 0.109315 1 -0 0
0.0543528 0.145654 -0.096628 -0.689548 -0 -0.72424
0.119355 -0.0688915 -0.0647586 1 -0 0
0.119355 0.235404 0.132895 1 0 0
0.112634 -0.491971 -0.0988497 0.689441 -0.718894 -0.0886695
-0.0180797 -0.0857495 -0.0903226 0 0 -1
0.0243743 0.369276 0.0387097 0 0 -1
0.0612903 0.21842 -0.147752 -1 0 0
0.0535201 0.207647 -0.0958669 -0.653172 -0 -0.75721
-0.0415902 -0.346955 0.220024 -0.985274 0 0.170985
0.0612903 0.0465854 -0.170727 -1 0 0
-0.119355 0.00935387 0.0145355 -1 0 0
0.0137445 -0.278169 -0.00507986 -0.866025 -0.5 0
-0.0419355 -0.475065 0.101217 -1 0 0
0.119355 0.412289 -0.0183825 1 0 0
-0.048301 -0.463081 -0.0841217 0 -0.449608 -0.893226
0.119355 -0.144341 0.214661 1 0 -0
0.119355 -0.229678 -0.174871 1 0 0
0.119355 0.185411 0.103946 1 -0 0
0.119355 -0.142683 0.107848 1 0 0
0.119355 0.222758 -0.121499 1 0 0
0.11471 0.197755 0.229838 0.789771 -4.70707e-06 0.613402
0.119355 -0.0440286 -0.000528345 1 -0 0
-0.115457 0.274273 0.0481595 -0.817592 0 0.575798
-0.063623 -0.388058 0.0458781 0.642788 0.766044 0
0.0577383 0.0843638 -0.100758 -0.844842 -0 -0.535016
0.062386 -0.193615 -0.223057 -0.949531 0 -0.313674
-0.0351575 -0.435806 0.031649 0 1 0
-0.0419355 -0.190701 0.159488 -1 0 0
0.0670246 0.0786774 0.23871 0 -0 1
-0.0419355 -0.110411 0.146986 -1 0 0
0.0583888 0.275124 -0.101844 -0.870101 -0 -0.492873
0.119355 0.140342 0.187436 1 0 -0
-0.0388542 0.40227 -0.0903226 -0 0 -1
-0.0419355 0.164635 0.111808 -1 0 0
-0.0419355 0.32509 0.0852328 -1 0 0
0.119355 -0.264131 0.151655 1 0 0
0.0544734 -0.348714 0.0331217 -0.866025 -0.5 0
-0.0778202 0.364995 -0.030312 0.97493 -0.22251 0
-0.112108 -0.414077 -0.0843118 -0.689547 0 -0.724241
