ply
format ascii 1.0
comment Created by Open3D
element vertex 400
property double x
property double y
property double z
property double nx
property double ny
property double nz
end_header
-0.42839 -0.249373 -0.0143315 -0.599474 -0.799399 -0.0398958
0.242427 0.355674 0.206516 -0 1 0
0.427896 -0.355674 0.0772519 0 -1 0
0.494474 -0.107434 -0.333996 0.876061 0 -0.482199
0.058882 -0.1137 0.203747 0.603804 0.797133 0
-0.0766698 -0.0977126 0.355674 0 0 1
0.5 -0.343988 0.037883 1 0 0
0.250434 -0.094709 -0.0476301 -0.74978 0.661687 0
0.5 -0.0153154 -0.199569 1 0 -0
0.5 -0.229164 -0.0963067 1 0 0
-0.244206 -0.305396 -0.0430994 -0.161533 -0.975845 -0.147085
-0.0874176 0.355674 -0.260794 0 1 0
0.5 0.059164 0.184129 1 0 0
0.171015 0.355674 0.143122 -0 1 0
-0.400507 -0.0633821 -0.258969 -0.446529 -0.199104 -0.872336
0.253007 -0.355674 -0.273691 0 -1 0
-0.436315 -0.165884 -0.178568 -0.635589 -0.539058 -0.552669
0.219349 -0.355674 0.0396252 0 -1 0
0.487321 -0.19097 0.325672 0.707107 -0 0.707107
0.329757 0.355674 0.0806617 -0 1 0
0.223343 -0.118263 -0.119065 -0.563321 0.826238 0
0.494056 0.355674 0.223246 -0 1 0
0.305179 0.355674 -0.081264 -0 1 0
0.143142 -0.142225 0.309241 0 1 0
-0.490579 -0.0599635 -0.144488 -0.961425 -0.100494 -0.256054
0.306463 0.331564 0.337103 -0 0.707107 0.707107
-0.0944815 -0.308409 0.355674 0 0 1
-0.39749 0.160721 0.214629 -0.44653 0.522315 0.726498
0.5 0.210964 -0.164485 1 0 -0
0.0788392 -0.355674 -0.308073 0 -1 0
0.269129 -0.068285 -0.168489 -0.866025 0.500001 0
0.276077 0.053598 0.169902 -0.930874 -0.365341 -0
-0.232133 0.138095 0.277685 -0.13309 0.452152 0.881955
0.424188 -0.354191 0.314476 0 -0.707107 0.707107
0.021027 -0.219343 -0.355674 0 -0 -1
0.0933305 0.146961 -0.343951 0.235875 -0.648059 -0.724143
0.233383 0.110935 -0.0421782 -0.642788 -0.766044 -0
-0.306515 -0.26023 -0.143717 -0.20471 -0.859624 -0.468125
0.121584 0.355674 -0.00901896 0 1 0
0.0359858 0.0921794 -0.071713 0.749781 -0.661686 0
-0.17225 -0.350214 0.318453 0 -0.707107 0.707107
0.457206 -0.0501121 0.355674 0 0 1
0.01866 0.355674 -0.021972 0 1 0
0.278046 -0.0485676 0.0253947 -0.947928 0.318485 0
0.00253448 0.0111091 0.263664 0.997204 -0.0747298 0
0.102633 0.355674 -0.254292 0 1 0
0.5 0.219733 -0.0245881 1 0 -0
-0.167889 -0.142833 0.355674 0 0 1
0.213236 0.355674 -0.203372 0 1 0
-0.261638 0.290998 -0.093249 -0.161534 0.943023 -0.290885
0.278865 0.355674 0.0208688 -0 1 0
0.341919 0.254461 0.355674 -0 0 1
-0.00473466 0.143507 0.355674 0 -0 1
-0.20366 0.119831 -0.337426 -0.824593 -0 -0.565727
-0.478541 -0.109857 0.154715 -0.912832 -0.238363 0.331544
-0.209624 0.355674 -0.139304 0 1 0
0.5 -0.178306 -0.0115601 1 0 0
0.216397 0.355674 -0.123208 0 1 0
0.5 0.159137 0.0245797 1 0 -0
-0.499802 -0.0852529 -0.00150403 -0.999945 -0.0104565 0
-0.205683 -0.355674 0.0157257 -0 -1 0
-0.211348 -0.203731 -0.272159 -1 0 0
0.0156654 0.060664 0.021424 0.911507 -0.411286 0
-0.211348 0.334453 0.0625082 -1 0 0
0.0174516 0.234957 0.355674 0 -0 1
-0.352139 -0.189128 0.21406 -0.28694 -0.633861 0.718252
0.00901853 -0.0438435 0.0641755 0.947927 0.318486 0
0.28545 -0.0637976 -0.343318 -0.628616 0.283644 -0.724147
0.5 0.0381553 -0.140662 1 0 -0
-0.0507444 0.0326106 0.355674 0 -0 1
-0.465469 0.210844 -0.0251974 -0.816444 0.574556 -0.0574936
-0.193493 0.317694 0.330848 -0.707107 0 0.707107
-0.389214 -0.227302 0.149318 -0.406846 -0.754766 0.514592
0.251094 -0.0939615 0.113721 -0.74978 0.661687 0
0.231175 0.355674 0.28422 -0 1 0
0.215453 -0.355674 -0.152504 0 -1 0
0.401294 -0.355674 0.190081 0 -1 0
0.247942 0.266463 0.355674 -0 0 1
-0.211348 -0.271491 0.285746 -1 -0 0
-0.149768 0.355674 -0.205765 0 1 0
-0.211348 0.33717 0.258986 -1 0 0
-0.421782 -0.159534 0.198087 -0.562384 -0.515549 0.646478
0.00208072 0.000969185 -0.288608 0.999689 -0.0249298 0
0.100637 -0.275037 0.355674 0 0 1
0.5 -0.230406 -0.241182 1 0 -0
-0.376038 0.00245129 0.27741 -0.366888 0.0231948 0.929976
0.414923 -0.346312 -0.339662 -0 -0.780738 -0.624858
-0.483032 -0.139774 -0.112397 -0.931997 -0.277665 -0.232989
0.161556 0.141212 -0.00951305 -0.0995684 -0.995031 0
-0.49793 0.0996038 -0.0562376 -0.995056 0.0872222 -0.0474987
0.141147 0.355674 -0.143422 0 1 0
0.272177 -0.327707 -0.35305 0 -0.359898 -0.932992
-0.0289905 -0.355674 0.195701 -0 -1 0
0.5 0.318554 -0.146496 1 0 -0
-0.225478 -0.16462 0.263902 -0.133089 -0.537718 0.832554
-0.0763057 0.107634 0.355674 0 0 1
-0.118713 -0.29575 -0.355674 0 0 -1
0.150996 -0.355674 -0.27651 0 -1 0
0.5 -0.118521 -0.222686 1 0 -0
-0.436478 0.222396 -0.0993466 -0.63559 0.711405 -0.299882
0.22152 -0.355674 0.125116 -0 -1 0
0.403967 -0.252004 -0.355674 0 0 -1
-0.28886 -0.249153 0.16883 -0.20471 -0.808741 0.551391
-0.217689 -0.288003 -0.120113 -0.13309 -0.913279 -0.384979
0.5 -0.0180529 0.15685 1 0 0
0.271019 -0.06463 -0.260206 -0.889871 0.456212 0
0.159647 -0.141402 0.0674393 -0.0995684 0.995031 0
0.147128 -0.355674 -0.0130587 0 -1 0
0.367168 0.28808 -0.355674 -0 0 -1
-0.3938 -0.237773 -0.127672 -0.406845 -0.802253 -0.436884
-0.118274 -0.355674 -0.290709 0 -1 0
-0.00167767 0.355674 -0.268578 0 1 0
0.139017 0.355674 0.261429 -0 1 0
-0.49869 0.0266292 0.0220801 -0.996733 -0.0618697 -0.0519151
0.5 0.27335 -0.217341 1 0 -0
0.176027 0.190084 0.355674 -0 0 1
0.5 0.0952018 -0.209959 1 0 -0
0.5 0.133735 -0.126427 1 0 -0
-0.211348 -0.349809 -0.247343 -1 0 0
0.5 -0.10351 0.189707 1 0 0
0.131135 -0.199475 0.355674 0 0 1
0.5 -0.185443 0.164413 1 0 0
0.5 -0.0120959 0.0186426 1 0 0
0.222254 0.119005 0.23566 -0.563321 -0.826238 -0
-0.439603 0.00523487 -0.240894 -0.635589 0.0192468 -0.771788
-0.0257891 0.212032 -0.355674 -0 0 -1
-0.362065 -0.0947179 0.266128 -0.326841 -0.300996 0.895866
0.144287 -0.355674 -0.0963587 0 -1 0
-0.339408 0.0812945 -0.277802 -0.247469 0.262417 -0.932682
0.0218517 0.355674 0.251203 -0 1 0
-0.259957 -0.301669 0.0505294 -0.161533 -0.975845 0.147084
-0.0208308 0.354879 0.313788 -0 0.707107 0.707107
0.476034 -0.355674 0.26155 0 -1 0
-0.0332969 -0.355674 0.090967 -0 -1 0
0.5 0.316399 0.127583 1 0 -0
0.318406 -0.355674 -0.0631214 0 -1 0
-0.424805 0.206395 0.145124 -0.562387 0.683195 0.465795
0.213431 -0.124585 -0.317438 -0.474661 0.871621 -0.122368
-0.254668 -0.104592 -0.288403 -0.161534 -0.314305 -0.935478
-0.162731 -0.022758 -0.355674 0 0 -1
0.018442 -0.355674 0.281856 -0 -1 0
-0.0792637 0.355674 0.220398 -0 1 0
0.145179 -0.142225 -0.0930833 0 1 0
0.244566 0.256193 -0.355674 -0 0 -1
0.43351 0.355674 -0.243574 -0 1 0
-0.0880818 -0.355674 -0.0840627 -0 -1 0
-0.0788352 0.202251 0.355674 0 0 1
0.5 0.0637043 0.0227522 1 0 -0
-0.126278 0.120328 -0.355674 0 0 -1
-0.211348 0.304457 -0.227334 -1 0 0
-0.483591 -0.177882 -0.00181134 -0.931997 -0.362466 0
0.0162867 0.0620036 -0.193143 0.889871 -0.456212 0
-0.211348 -0.346435 -0.169478 -1 0 0
-0.180297 0.341061 -0.34513 0 0.653172 -0.757209
0.5 -0.300986 -0.279139 1 0 -0
-0.178113 -0.355674 0.127909 -0 -1 0
0.192242 -0.133913 0.134587 -0.34202 0.939693 0
0.348452 -0.0148216 -0.355674 0 0 -1
0.0311124 -0.0861463 -0.262498 0.781832 0.623489 0
-0.470221 0.151933 -0.137754 -0.843292 0.393983 -0.365563
-0.286946 -0.0851532 0.289108 -0.204708 -0.265108 0.942238
0.124957 -0.354549 0.314118 0 -0.707107 0.707107
-0.339621 0.00681663 -0.289303 -0.247469 0.024155 -0.968595
0.0715812 0.122225 0.143147 0.521435 -0.853291 0
0.240139 0.349685 -0.334792 0 0.863978 -0.50353
-0.191896 -0.168834 -0.348787 -0.534987 0 -0.84486
0.047449 -0.355674 -0.0173201 -0 -1 0
0.00577817 -0.0321367 0.183617 0.974928 0.222521 0
0.237778 -0.217379 0.355674 0 0 1
0.0782544 -0.355674 -0.223144 0 -1 0
0.5 0.119861 -0.304188 1 0 -0
0.179801 -0.177475 -0.355489 -0.0145811 0.0721278 -0.997289
-0.144114 0.249308 0.355674 0 0 1
0.283879 -0.0276005 0.191371 -0.984808 0.173644 0
0.5 -0.277729 -0.00625963 1 0 0
0.5 0.0489807 0.304641 1 0 0
0.145775 0.142225 0.259473 0 -1 0
0.5 -0.16701 0.0806847 1 0 0
-0.330082 0.287252 -0.0517913 -0.24747 0.949685 -0.191982
0.387755 -0.093322 -0.355674 0 0 -1
0.461222 0.355674 -0.0925631 -0 1 0
0.0725505 0.142508 0.330311 0.306849 -0.637181 0.706997
0.441022 -0.164693 -0.355674 0 0 -1
0.48424 -0.355674 -0.0703068 0 -1 0
0.135578 0.2209 -0.355674 -0 0 -1
0.367884 -0.355674 -0.226278 0 -1 0
-0.161284 -0.2514 0.355674 0 0 1
0.332481 -0.0603668 0.355674 0 0 1
0.186774 0.135744 -0.293953 -0.294755 -0.955573 0
-0.0136263 -0.13767 0.355674 0 0 1
0.302695 0.178327 -0.355674 0 0 -1
0.109533 0.252603 0.355674 -0 0 1
-0.313988 0.264321 0.132674 -0.20471 0.881889 0.424695
0.444257 0.0150978 -0.355674 0 0 -1
-0.330466 -0.0988211 -0.274544 -0.24747 -0.30858 -0.918443
0.406298 -0.132955 0.355674 0 0 1
-0.313415 0.0689139 0.287708 -0.20471 0.217807 0.954282
0.340331 -0.205836 -0.355674 0 0 -1
0.5 -0.0726768 -0.142553 1 0 -0
-0.164133 0.355674 -0.057209 0 1 0
-0.211348 0.217732 0.309924 -1 0 0
-0.106222 0.355674 0.146017 0 1 0
-0.182582 0.355674 0.178724 0 1 0
0.355678 -0.355674 0.290299 -0 -1 0
-0.0960066 0.229397 -0.355674 -0 0 -1
0.322196 0.355174 -0.319491 0 0.987304 -0.158842
0.262007 0.0913371 0.319724 -0.552925 -0.440941 0.706997
0.286595 3.97297e-05 0.0931893 -0.999689 -0.0249299 1.38292e-18
-0.204933 -0.355674 0.225957 -0 -1 0
-0.211827 0.170937 -0.262004 -0.133089 0.53772 -0.832553
-0.00639653 -0.140343 -0.355674 0 -0 -1
0.102431 -0.135915 -0.0171663 0.294755 0.955573 0
0.311353 -0.355674 0.0180851 0 -1 0
0.0929381 0.314895 -0.355627 0 0.0245404 -0.999699
0.398085 -0.272096 0.355674 0 0 1
-0.0818065 -0.231463 -0.355674 0 0 -1
0.5 -0.279288 0.294513 1 0 0
-0.229085 -0.0352788 -0.308522 -0.13309 -0.123236 -0.983412
-0.193835 -0.350439 -0.333467 0 -0.876061 -0.482199
0.182145 -0.286244 0.355674 0 0 1
-0.216915 -0.246402 -0.191673 -0.13309 -0.790042 -0.598432
-0.436024 -0.047846 0.239222 -0.635589 -0.134061 0.760299
0.417156 0.355674 -0.169846 -0 1 0
0.380632 0.200433 -0.355674 0 0 -1
0.5 0.247743 0.0615856 1 0 -0
0.5 0.263844 -0.309587 1 0 -0
0.222421 -0.355674 0.218535 -0 -1 0
-0.0304811 -0.326841 -0.353354 0 -0.313674 -0.949531
0.0640474 -0.355674 0.196282 -0 -1 0
0.441267 0.267231 -0.355674 0 0 -1
0.468683 -0.289818 -0.35412 0.266715 0 -0.963775
0.5 0.148895 0.172815 1 0 0
0.00684625 0.0364934 0.126881 0.962624 -0.27084 0
-0.0954525 -0.175101 0.355674 0 0 1
0.330804 0.111208 -0.355674 0 0 -1
0.302049 0.355674 0.252774 -0 1 0
0.00272902 -0.355674 -0.28216 0 -1 0
0.451856 -0.355674 -0.147106 0 -1 0
-0.211348 -0.280189 -0.299886 -1 0 -0
0.5 -0.122769 -0.0729616 1 0 0
-0.220968 0.286389 0.122809 -0.13309 0.913279 0.384979
0.0252381 -0.0777599 -0.151403 0.840026 0.542547 0
-0.316607 0.258026 -0.14335 -0.204709 0.859624 -0.468125
0.248264 0.355674 0.109988 -0 1 0
0.197659 -0.355674 0.305387 -0 -1 0
-0.492307 0.148057 0.0189802 -0.972798 0.229067 0.0345257
0.5 -0.0989237 0.0398191 1 0 0
-0.145974 0.0340273 0.355674 0 0 1
0.0969315 -0.134103 0.125261 0.34202 0.939693 0
-0.0748615 0.313346 0.355321 -0 0.707107 0.707107
0.5 0.0680141 0.11244 1 0 0
-0.1889 0.0510697 -0.35057 -0.492904 0 -0.870084
0.326394 0.355674 -0.167939 0 1 0
0.380501 0.090243 0.355674 0 0 1
0.5 -0.25932 0.114216 1 0 0
0.432187 0.355674 -0.0158377 -0 1 0
0.0743897 -0.123862 -0.0911476 0.478254 0.878222 0
-0.0454263 -0.355674 -0.00939698 -0 -1 0
-0.0446697 0.355674 -0.0652389 0 1 0
-0.294124 0.149234 -0.260093 -0.204709 0.489412 -0.847685
-0.185143 -0.355674 -0.0721402 -0 -1 0
-0.0776662 0.320238 -0.355041 0 0.17097 -0.985276
-0.32879 -0.284944 -0.0648757 -0.24747 -0.949685 -0.191982
-0.28887 -0.00947458 0.30082 -0.20471 -0.0244043 0.978518
-0.335674 -0.289827 0.0185371 -0.247471 -0.967691 0.0482959
0.242143 -0.103257 0.186623 -0.680172 0.733053 0
0.5 0.178813 -0.246011 1 0 -0
0.438634 0.278541 0.355674 -0 0 1
0.0634789 0.355674 0.184359 -0 1 0
-0.0131969 -0.0491645 0.335753 0.67039 0.225239 0.706997
0.127639 0.355674 0.0856863 -0 1 0
-0.0700173 -0.355674 -0.162197 -0 -1 0
0.316168 0.0282979 0.344923 -0.696473 -0.122807 0.706997
0.281025 -0.0392691 0.284804 -0.962624 0.270843 0
0.118647 -0.139911 -0.307947 0.198148 0.980172 0
-0.112087 -0.355674 0.216875 -0 -1 0
0.261313 0.0809247 -0.243041 -0.811937 -0.583745 0
0.431121 0.355674 0.175844 -0 1 0
0.148328 -0.355674 0.147969 -0 -1 0
-0.469849 -0.191392 0.0754061 -0.843292 -0.495253 0.208766
0.143829 -0.355674 -0.172717 0 -1 0
0.286287 0.00885234 -0.228639 -0.997204 -0.074731 0
-0.179205 -0.0437144 0.345136 -0.707107 0 0.707107
0.298219 -0.300116 0.355674 0 0 1
0.143925 -0.355674 0.233634 -0 -1 0
0.5 -0.111993 0.279604 1 0 0
0.318579 -0.132741 0.355674 0 0 1
0.5 -0.00816728 -0.0573727 1 0 -0
0.018703 -0.0667168 -0.0599952 0.889871 0.456212 0
-0.211348 0.258985 -0.296222 -1 0 0
0.379419 0.355154 0.313513 -0 0.707107 0.707107
-0.460071 -0.0621226 -0.210631 -0.787911 -0.16678 -0.592774
0.5 0.307493 -0.0366104 1 0 -0
0.459663 0.355674 0.294893 -0 1 0
-0.0192323 -0.295007 0.355674 0 0 1
0.5 -0.347316 0.121592 1 0 0
-0.424011 0.0780926 -0.240474 -0.562386 0.263349 -0.783817
0.0952758 0.1335 0.0195336 0.34202 -0.939693 0
0.5 0.103533 -0.0460275 1 0 -0
-0.451476 0.0272434 0.227932 -0.726205 0.0854843 0.682143
0.0932488 0.132762 -0.202048 0.34202 -0.939693 0
0.104734 -0.136625 -0.193842 0.294755 0.955573 0
0.167146 -0.314314 -0.355641 0 -0.0245404 -0.999699
0.107675 0.137431 -0.128412 0.246758 -0.969077 0
0.407328 0.202556 0.355674 0 0 1
0.0693787 0.337054 0.331612 -0 0.707107 0.707107
-0.421195 0.164183 -0.194857 -0.562385 0.547131 -0.619976
0.310038 0.355674 0.158269 -0 1 0
0.174297 -0.139044 -0.0113973 -0.198148 0.980172 0
0.0485279 0.355674 -0.19328 0 1 0
0.013784 0.0714561 0.319551 0.612467 -0.353609 0.706997
0.00208264 -0.00104606 -0.14761 0.999689 0.0249298 0
0.0448029 -0.101656 0.292157 0.715867 0.698237 0
0.202762 0.355674 -0.0400161 -0 1 0
0.5 0.221484 0.211839 1 0 0
0.489564 0.355674 0.051106 -0 1 0
0.00729635 0.108842 -0.3545 0.171349 -0.136647 -0.975688
0.0597035 0.114322 0.228883 0.603804 -0.797133 0
0.274035 0.183759 0.355674 -0 0 1
-0.211348 0.25167 0.215949 -1 0 0
0.207253 0.127554 0.0587386 -0.433883 -0.900969 0
-0.128427 0.355674 0.302861 -0 1 0
0.28601 0.023086 -0.323496 -0.949154 -0.167359 -0.266643
0.39152 -0.355674 -0.0143004 0 -1 0
0.5 -0.244097 0.206801 1 0 0
0.0250691 -0.355674 -0.0971407 -0 -1 0
-0.080237 0.0225238 -0.355674 0 0 -1
0.282356 -0.0344047 -0.0827763 -0.974928 0.222521 0
0.268472 -0.245665 -0.355674 0 0 -1
-0.10889 -0.156981 -0.355674 0 0 -1
0.357136 0.355674 0.013026 -0 1 0
0.0330852 0.355674 0.0776325 0 1 0
0.266811 0.0723 0.06895 -0.866025 -0.500001 -0
-0.273084 0.30316 0.0180258 -0.161534 0.98564 0.0491922
0.447735 -0.355674 -0.258044 0 -1 0
0.0600484 -0.15612 0.348193 0.33823 0.621093 0.706997
0.5 -0.0419851 -0.279811 1 0 -0
-0.119003 0.355674 -0.127317 0 1 0
0.40437 0.355674 0.0827177 -0 1 0
0.395236 0.355534 -0.316413 0 0.996312 -0.0858046
-0.403809 0.263351 -0.0290193 -0.446529 0.890323 -0.08909
0.0512783 -0.355674 0.10188 -0 -1 0
0.177499 0.138317 -0.198024 -0.246757 -0.969077 0
0.0022032 0.00588063 -0.0681054 0.999689 -0.0249298 0
-0.399711 -0.257259 0.0716206 -0.446532 -0.867099 0.220791
0.0258271 0.355674 -0.102218 0 1 0
-0.215752 0.0550818 0.30741 -0.13309 0.172104 0.976047
-0.281778 -0.202821 -0.224138 -0.161534 -0.652997 -0.739934
-0.211348 -0.269562 0.196219 -1 -0 0
0.20085 0.130518 -0.116416 -0.388435 -0.921476 0
0.156232 0.141744 0.170955 -0.0995684 -0.995031 -0
-0.336066 0.209393 0.201117 -0.24747 0.71025 0.659017
0.0169457 0.315117 -0.35562 0 0.073563 -0.997291
0.225524 -0.116776 -0.225124 -0.563321 0.826238 0
-0.499926 -0.015455 -0.0717155 -0.999945 -0.00232679 -0.0101943
0.0508579 0.239573 -0.355674 -0 0 -1
-0.0679298 0.355674 0.0739158 0 1 0
-0.372717 0.108445 0.25682 -0.366884 0.382606 0.847944
0.46298 0.17635 -0.355286 0.122403 0 -0.992481
0.400893 0.0208095 0.355674 0 0 1
0.5 0.275108 0.281207 1 0 0
0.5 -0.033661 0.239803 1 0 0
0.5 0.134034 0.253031 1 0 0
0.261023 -0.169861 -0.355674 0 0 -1
0.255643 0.106436 -0.34242 -0.518544 -0.505773 -0.689424
0.31567 -0.355674 0.210323 -0 -1 0
-0.493229 0.0420696 -0.139082 -0.982202 0.0508717 -0.180808
0.0401125 -0.0968472 0.0127038 0.715867 0.698237 0
-0.326772 0.201783 -0.212012 -0.24747 0.676519 -0.6936
0.146883 -0.142225 0.225785 0 1 0
0.386217 0.355674 -0.102219 -0 1 0
0.343953 -0.355674 0.114496 0 -1 0
0.285839 0.355674 -0.240041 0 1 0
0.168119 0.300774 -0.355674 -0 0 -1
-0.412121 0.250398 0.0714636 -0.485782 0.835247 0.257638
0.00470792 -0.0532795 -0.336728 0.761146 0.298729 -0.575688
0.284603 0.0234936 -0.15573 -0.984808 -0.173644 0
-0.0259364 0.355674 0.169645 -0 1 0
-0.464116 0.0956854 0.191676 -0.816445 0.263427 0.513833
-0.497719 0.022549 0.1143 -0.995056 0.0172462 0.0978083
0.5 -0.294972 -0.204863 1 0 0
-0.498692 -0.0748474 0.0761012 -0.995056 -0.0693467 0.0710976
0.499773 0.355674 -0.286473 -0 1 0
0.281143 0.0388512 -0.0124999 -0.962624 -0.270843 -0
-0.485694 0.120533 0.123087 -0.948107 0.222005 0.227611
0.355374 -0.355674 -0.145881 0 -1 0
0.230578 -0.355674 -0.0570997 0 -1 0
0.329714 -0.209695 0.355674 0 0 1
0.5 -0.319982 0.194775 1 0 0
0.014264 -0.355674 -0.17441 0 -1 0
0.0402113 0.0969485 -0.271471 0.715867 -0.698237 0
0.5 0.234053 0.138944 1 0 -0
0.23994 -0.113919 0.319496 -0.454591 0.541759 0.706997
0.1984 0.355674 0.0540056 -0 1 0
0.34037 -0.355674 -0.299843 0 -1 0
-0.165702 -0.101718 -0.355674 0 0 -1
0.170113 0.324333 0.344333 -0 0.707107 0.707107
0.111559 -0.25732 -0.355674 0 0 -1
-0.112158 -0.355674 0.0684834 -0 -1 0
-0.255163 0.0479455 -0.302891 -0.161534 0.171368 -0.971874
