ply
format ascii 1.0
comment Created by Open3D
element vertex 400
property double x
property double y
property double z
property double nx
property double ny
property double nz
end_header
-0.343388 -0.00254995 0.149326 0.820518 0.0230371 0.571156
0.412142 0.0256735 -0.138388 0.00910604 0.165544 -0.98616
-0.498669 -0.144174 -0.00209923 -0.8617 -0.507239 -0.0134964
0.144733 0.0803793 0.114983 0.0656724 0.594463 0.801437
0.000784888 -0.0150356 0.140046 -0.050573 -0.0472562 0.997602
0.0744196 -0.135979 0.0402633 -0.0024268 -0.968236 0.250026
0.029448 -0.105646 0.0910034 0.130454 -0.784495 0.606259
-0.0641527 0.0308402 -0.138698 -0.00105873 0.223382 -0.97473
-0.347112 0.262289 -0.0147493 0.999174 0.0359519 -0.0189276
0.00606018 -0.0607502 0.126017 -0.00539768 -0.451244 0.892384
0.259645 -0.113757 0.0831944 -0.0571623 -0.757785 0.649995
0.402331 -0.128746 -0.0560474 -0.0324951 -0.93444 -0.354635
-0.344784 -0.234514 -0.103436 0.999911 -0.00493529 0.0123827
-0.486333 0.148804 0.0640786 -0.82805 0.511045 0.230579
-0.438256 -0.0571826 -0.0804268 -0.0242054 0.839989 0.542064
-0.408171 0.0834891 0.00426243 -0.999344 -0.0292772 0.0213066
-0.448317 0.157449 -0.133448 -0.671264 0.555612 -0.490611
0.380307 -0.136514 0.0382366 0.0357193 -0.974234 0.222691
0.0391285 0.0577913 0.127938 0.0429643 0.358993 0.932351
0.357009 -0.0510137 0.129605 0.0295358 -0.403016 0.914716
-0.240958 0.132369 0.0448851 0.0211376 0.952521 0.30374
-0.10046 -0.0138967 -0.141801 0.0581509 -0.130453 -0.989748
-0.285464 -0.047079 0.133672 0.0318167 -0.364595 0.930623
0.121499 -0.00751169 0.140746 -0.0219648 -0.0203596 0.999551
-0.344965 -0.138183 -0.0620362 0.943348 -0.322962 -0.0760906
-0.356427 -0.0917786 0.245536 -0.327638 -0.342098 0.880694
-0.0214161 -0.0366064 -0.136144 -0.0204365 -0.254064 -0.966971
0.498733 0.0965818 0.0373861 0.999177 0.0199404 -0.035313
-0.345673 0.0267444 -0.198512 0.999528 -0.026523 0.0155236
-0.382883 0.249373 -0.0442599 -0.425511 0.888239 -0.173122
0.0391644 0.0331957 -0.137528 -0.0390284 0.252519 -0.966805
-0.402775 -0.00771771 -0.0734269 -0.876145 0.0796327 0.475425
-0.0996165 0.0768665 0.118728 -0.0109974 0.55351 0.83277
-0.34982 -0.248847 0.088122 -0.269668 -0.9311 0.245627
-0.344165 -0.162908 0.0509652 0.999995 -0.00226161 0.00210473
-0.345486 0.0876177 0.194457 0.999931 0.00865765 -0.00797741
-0.467738 0.0758978 0.0437257 -0.00492592 -0.872945 -0.487794
0.109674 0.0632376 -0.128029 0.0196378 0.445339 -0.895147
0.347519 0.130839 0.0552187 0.00164351 0.917827 0.396978
-0.394786 -0.120884 0.214887 -0.453984 -0.424631 0.783318
-0.0914254 0.0945239 -0.105477 -0.0457231 0.696966 -0.715645
-0.404612 -0.226647 -0.0783787 -0.479734 -0.822961 -0.304287
-0.43978 0.167487 0.131094 -0.666952 0.588076 0.45754
0.327161 -0.13534 -0.0359034 0.00279774 -0.980546 -0.196267
0.201485 -0.13949 -0.00128263 -0.0521094 -0.998287 0.0266028
0.0475755 -0.136507 -0.0296246 0.00856027 -0.994191 -0.107289
-0.197332 -0.143217 0.00834412 -0.0177717 -0.996513 0.0815172
0.150579 -0.125987 0.0667704 0.029861 -0.881616 0.471021
-0.0108629 0.100851 -0.0986582 -0.00889601 0.702704 -0.711427
-0.304163 0.022308 0.138007 0.0178289 0.121599 0.992419
-0.345098 0.202636 0.0480734 0.998209 -0.0402226 0.0442872
-0.259039 0.0378351 0.135693 0.0501503 0.252846 0.966206
0.353318 -0.0910095 -0.105951 0.0615049 -0.693324 -0.717996
0.495024 -0.117114 -0.00553917 0.688701 -0.724968 -0.010574
-0.3064 -0.0855529 -0.110364 0.0169286 -0.644439 -0.764468
0.288652 -0.042709 -0.133744 0.000801948 -0.321863 -0.946786
-0.344871 0.0416047 0.173379 0.998146 0.0523823 -0.0309914
-0.432374 -0.0358776 0.217955 -0.620965 -0.125716 0.773691
-0.467798 -0.0433464 -0.180069 -0.738444 -0.153285 -0.656661
-0.498911 -0.129009 0.0653356 -0.83577 -0.494619 0.238414
-0.345825 -0.0576852 0.220412 0.997835 -0.0288681 0.0590905
-0.377228 -0.0173491 -0.0196921 -0.85268 0.322819 0.410762
-0.297636 0.141157 -0.0055808 0.0565202 0.987637 -0.146213
-0.499401 0.120957 -0.0321679 -0.99932 0.0320201 -0.0182687
-0.140007 0.0255966 -0.138385 0.0446721 0.108986 -0.993039
-0.48265 0.162695 0.0153312 -0.793318 0.607598 0.0383694
-0.344649 0.11632 -0.118325 0.998214 -0.0144034 0.0579799
0.0785892 -0.113129 0.0824959 -0.00141133 -0.795756 0.605616
0.146161 -0.0924372 -0.107119 0.0136275 -0.623299 -0.781865
0.446636 0.089925 -0.106271 0.00517997 0.66117 -0.750218
0.462259 0.0492089 -0.132406 0.0700711 0.350768 -0.933837
-0.463279 -0.173382 0.0775163 -0.715408 -0.644425 0.270015
-0.478793 -0.0298248 0.088645 -0.088868 0.0493588 -0.99482
0.36816 -0.00043632 -0.141551 0.0134425 0.0168322 -0.999768
-0.34355 0.0877347 -0.195665 0.992265 0.104586 -0.066871
-0.495501 0.0158929 0.148106 -0.820955 0.0375112 0.569759
-0.34446 -0.191652 -0.00939963 0.998881 -0.0421772 0.0213873
-0.3448 0.0026613 0.26773 0.996657 -0.0165395 0.0800135
-0.40571 0.126017 -0.204688 -0.516061 0.449772 -0.728963
0.291485 0.0663324 -0.124116 0.0457327 0.493581 -0.868497
0.231467 -0.130037 0.0483793 -0.0191571 -0.935413 0.353036
-0.396028 -0.054987 0.238472 -0.508999 -0.223902 0.831137
-0.223157 -0.0527616 -0.131799 0.0574657 -0.418074 -0.906593
-0.00739282 0.0425877 0.13418 0.0435253 0.229008 0.972451
0.472887 0.0992501 0.0966299 0.619524 0.600152 0.505972
0.429263 -0.111082 0.0876743 -0.0611289 -0.762804 0.643734
-0.343215 0.213275 -0.160497 0.999966 0.00352936 -0.00738928
-0.321053 0.0725103 -0.121945 -0.076792 0.534046 -0.841961
-0.456073 0.0578585 -0.0778365 0.0523082 -0.866626 0.496209
-0.276354 0.129642 -0.0542256 0.0445302 0.895663 -0.442498
0.430251 -0.140903 -0.0145223 0.00433868 -0.994677 -0.102951
-0.480915 -0.0809788 0.148878 -0.790599 -0.316915 0.523945
-0.393342 0.0442389 -0.0330998 -0.856512 -0.416736 0.304497
0.23706 0.139803 -0.0100311 0.00400685 0.995688 -0.0926784
0.499237 -0.0135328 0.0250386 0.99846 -0.0372823 0.0410794
-0.46149 0.0407729 -0.190648 -0.718346 0.142471 -0.680941
-0.343622 -0.254748 0.0313775 0.999996 -0.000136706 0.00282478
0.289054 -0.137488 0.0326102 0.0119438 -0.971188 0.238014
-0.484783 0.134953 -0.092452 -0.804199 0.49435 -0.329974
-0.34733 -0.106064 0.170199 0.999475 -0.0200433 0.025439
0.250778 0.0425633 -0.133897 -0.0337581 0.363548 -0.930964
0.469931 -0.00212363 -0.140127 0.731453 -0.0669418 -0.678598
-0.169263 0.0738621 -0.119365 0.0281599 0.542133 -0.83982
0.500648 -0.00758239 0.0771938 0.996824 0.0370513 -0.0704877
0.496012 0.0234898 0.111899 0.721763 0.160738 0.673218
-0.058132 -0.124103 0.0634869 0.0295669 -0.905843 0.42258
-0.168049 -0.0246542 0.139679 -0.0247898 -0.149658 0.988427
-0.231186 -0.090709 -0.107908 0.0310108 -0.692887 -0.720379
0.444009 -0.0831277 0.11456 -0.0675228 -0.550816 0.831891
0.18243 0.139788 -0.0282257 -0.0353151 0.992687 -0.115435
-0.45463 0.0626618 0.191326 -0.700319 0.200894 0.684978
-0.345702 0.166399 -0.102669 0.999183 -0.0117933 0.0386601
0.0644764 -0.085194 -0.111832 -0.00361104 -0.620487 -0.784209
0.176913 -0.0380358 -0.135453 0.000555189 -0.239895 -0.970799
-0.486183 0.0539199 -0.151054 -0.817453 0.203004 -0.539035
-0.345012 0.216967 -0.0126008 0.994927 -0.0663262 0.0756324
-0.417848 0.220934 -0.0715288 -0.58619 0.782028 -0.211692
-0.333765 -0.0451401 0.133073 0.145646 -0.277595 0.949594
-0.344069 -0.106398 -0.164252 0.999291 0.0191849 -0.0324095
-0.406784 0.0376441 -0.0797945 -0.999825 -0.018117 0.00471518
-0.302243 0.0929871 0.106232 0.0024797 0.682414 0.730961
-0.345445 -0.0263172 -0.175874 1 0.000270695 -0.000595007
-0.245959 0.106476 -0.0937957 -0.0395544 0.767984 -0.639247
-0.372064 0.0610206 -0.248646 -0.448104 0.239946 -0.861179
0.0466019 -0.0461337 -0.134507 0.00361632 -0.304339 -0.952557
-0.351888 0.107571 -0.241451 -0.317872 0.35261 -0.880127
0.192238 -0.114722 0.0807622 0.0538655 -0.833782 0.549459
0.0628019 -0.0341233 0.136894 -0.000406096 -0.222309 0.974976
-0.346237 0.151873 0.0189799 0.994132 0.099662 0.0420622
-0.34779 -0.203348 -0.0554972 0.99926 0.0345625 -0.0168836
-0.487076 0.0994845 0.1266 -0.831154 0.342464 0.438065
-0.398395 -0.24399 -0.0108203 -0.514627 -0.853003 -0.0868594
-0.404387 0.107371 0.213411 -0.529448 0.455557 0.715648
-0.12562 -0.0471205 -0.133233 -0.0032146 -0.315027 -0.949077
-0.174741 -0.0619676 -0.128998 -0.00404626 -0.409962 -0.912094
-0.34484 -0.183297 -0.0982146 0.995873 -0.0412402 0.0808409
0.465915 -0.130728 -0.0504706 -0.00626587 -0.93624 -0.351304
-0.229221 0.132728 -0.0453111 0.0760365 0.931249 -0.356362
-0.49174 -0.0557856 -0.0810061 -0.00118134 0.865895 0.500224
-0.0805824 0.141635 0.00552985 -0.00364755 0.998695 0.0509343
-0.382484 -0.197435 0.155703 -0.441939 -0.715153 0.541523
-0.270665 0.0518166 -0.131277 0.0277318 0.326418 -0.944819
0.473627 0.135128 0.0124134 0.716372 0.689542 0.106508
0.104119 -0.0679339 -0.12266 0.00160248 -0.448624 -0.893719
0.128052 0.111594 0.0834643 -0.033494 0.788909 0.613597
0.428938 0.120119 0.0742146 -0.0347669 0.828574 0.558799
-0.122667 -0.120651 0.0713851 0.024254 -0.854357 0.519119
-0.451802 -0.0983764 -0.00643761 0.0358214 0.890412 0.453743
-0.212989 0.0240093 -0.137296 -0.026979 0.209882 -0.977354
-0.415109 0.0549955 0.225488 -0.514414 0.185529 0.837232
0.154894 -0.045562 0.134661 0.0178663 -0.361995 0.932009
-0.445999 -0.0586465 0.07444 0.0825321 0.845303 -0.527875
0.321401 -0.00781851 -0.139918 -0.00419209 -0.0714934 -0.997432
0.14907 0.0719957 -0.122217 0.0246963 0.484475 -0.874457
-0.0555412 -0.139451 0.0116851 -0.0256503 -0.994174 0.104689
0.304483 -0.111961 -0.0861572 0.0443308 -0.773482 -0.632266
0.0824631 0.130188 0.0550333 -0.0942455 0.896967 0.431936
-0.345567 -0.206722 0.0343839 1 -0.000759687 0.000619058
0.121429 -0.138695 0.0287721 0.0222287 -0.983399 0.180089
-0.0977593 -0.101476 -0.0983352 -0.0209753 -0.742325 -0.669712
0.298893 0.13944 -0.022737 0.0072784 0.986212 -0.165325
-0.345454 -0.24795 -0.0166625 0.996169 0.00884466 -0.0870047
-0.345035 0.195213 0.102364 0.998943 -0.0448201 0.0101916
0.114763 -0.077115 0.118051 0.0214502 -0.546628 0.837101
0.0502186 0.140907 -0.000239865 0.00341715 0.999992 -0.00221691
0.274023 0.00159879 -0.138661 0.0175104 0.0050405 -0.999834
0.0798571 0.118512 -0.0751552 -0.00826678 0.857299 -0.514753
-0.218013 0.0750244 -0.117686 -0.0304107 0.557081 -0.829901
-0.474439 0.173919 -0.0322299 -0.801287 0.59578 -0.0546463
-0.35692 0.158754 0.210473 -0.351116 0.5353 0.768226
0.500399 0.0602216 -0.0442495 0.999999 -0.00105886 0.000162987
-0.167281 0.131214 -0.0532023 0.0455985 0.916613 -0.397167
-0.441203 0.1217 -0.174166 -0.690329 0.419059 -0.589775
-0.26773 -0.0177539 -0.136285 -0.00209696 -0.100008 -0.994984
-0.0222199 0.14143 0.0124449 0.0159543 0.996009 0.0878129
0.346595 0.059485 -0.128687 0.0392225 0.354541 -0.934217
-0.0992374 0.0173499 0.139383 -4.6676e-05 0.12455 0.992213
-0.499053 0.117556 0.0188342 -0.999641 0.014724 -0.0223657
-0.208141 -0.114696 0.0816347 -0.00997375 -0.823158 0.567725
0.500434 -0.0638952 0.019778 0.999952 -0.00370424 0.00912442
0.301132 -0.0637245 0.127483 -5.49681e-05 -0.45601 0.889975
-0.345271 -0.210172 0.105705 0.996621 -0.0211587 0.0793638
0.374108 -0.139928 -0.015353 0.0397063 -0.992361 -0.116801
-0.0435534 0.0712325 -0.121993 0.0333086 0.453597 -0.890584
0.30501 -0.12248 0.0693018 0.0172149 -0.879954 0.474747
0.500609 -0.0182316 -0.0973794 0.999696 0.0240765 -0.00529962
0.171247 0.130692 0.0505102 -0.0165701 0.92332 0.383675
0.340819 0.104252 0.0952961 -0.0322706 0.685451 0.727403
0.450555 0.127438 -0.0596459 -0.007286 0.902606 -0.430406
-0.420983 0.0721789 0.0531535 -0.00156182 -0.867378 -0.497647
-0.489002 -0.0808349 -0.0357111 -0.710512 0.641677 0.288831
-0.397496 -0.0429794 -0.239147 -0.542569 -0.218109 -0.811201
-0.347477 0.150507 0.163484 0.991386 -0.122742 0.045701
0.437624 -0.00055507 0.142285 -0.014331 0.0279253 0.999507
0.396585 0.132744 0.0466294 -0.0109092 0.931662 0.363163
-0.345458 -0.0435027 0.176968 0.997958 0.0634598 -0.00728767
-0.481276 -0.123982 0.115588 -0.834241 -0.382698 0.396969
-0.15779 0.141757 -0.00275122 0.0302855 0.999424 -0.0152933
0.46762 0.127813 0.0585681 0.0326482 0.923205 0.382919
-0.0451761 -0.113145 -0.0808467 0.00592564 -0.801457 -0.598022
0.132367 0.141058 0.00104752 -0.00339747 0.999966 0.00747465
0.485986 -0.0908362 -0.0817714 0.704257 -0.535197 -0.466462
-0.34577 0.0794629 0.128149 0.949637 0.170624 0.262824
0.489718 -0.0820908 0.0910292 0.697979 -0.488476 0.523656
-0.194967 0.0696531 0.123324 -0.0356053 0.458711 0.887872
0.381108 0.12671 -0.0652567 -0.0537079 0.916187 -0.397136
-0.345226 -0.0463014 -0.264124 -0.335808 -0.197544 -0.920983
0.500272 0.0548935 0.0103787 0.998381 0.0486695 -0.0294303
0.400228 -0.091457 -0.108793 0.0711054 -0.673987 -0.735313
-0.499189 0.0796364 -0.085831 -0.999951 0.00391199 -0.00907713
0.18629 0.022625 -0.139608 -0.0354043 0.177841 -0.983422
-0.406095 -0.210279 0.113575 -0.522145 -0.757232 0.392382
-0.112632 0.135012 -0.0305515 -0.0409578 0.974844 -0.219095
0.364195 0.00394918 0.140979 0.00359223 0.00924049 0.999951
-0.347967 -0.197712 -0.181473 -0.355701 -0.707358 -0.610837
0.48891 0.116296 -0.0285387 0.708203 0.684309 -0.173692
-0.427211 -0.179458 -0.132835 -0.537757 -0.70062 -0.468988
0.358208 -0.124187 -0.0644818 -0.0103589 -0.885044 -0.465392
-0.498903 0.0732866 0.0759691 -0.999986 -0.00217183 0.00483851
-0.300121 -0.0824509 0.113431 -0.00264749 -0.581502 0.81354
-0.350365 0.16201 -0.210824 -0.33273 0.566829 -0.753655
0.499421 0.0214392 -0.0724467 0.999847 0.0118865 -0.0128372
-0.441178 -0.168321 0.129149 -0.63854 -0.620188 0.455668
-0.00238442 -0.138372 -0.0216683 -0.00366249 -0.990894 -0.134598
-0.167073 -0.130053 0.0503288 0.0134578 -0.950568 0.310226
-0.344588 0.0048536 -0.25352 0.99962 -0.0267686 0.00659013
-0.199181 -0.135564 -0.0396786 0.00929824 -0.950156 -0.311637
-0.345146 0.156612 0.0676242 0.999641 0.0267634 -0.00145724
0.381436 -0.0970436 0.0995955 -0.0234415 -0.684938 0.728224
-0.173651 -0.00705566 -0.139539 -0.00263583 -0.0138055 -0.999901
-0.195775 0.141871 0.0198745 -0.000340585 0.989826 0.142282
-0.345161 -0.158021 0.0954464 0.998079 0.0246705 -0.0568262
0.281559 0.0987793 0.101195 -0.0179372 0.728464 0.684849
-0.344993 0.181249 -0.059365 0.999464 -0.0219279 0.0243146
-0.458319 0.127797 0.149917 -0.704852 0.439284 0.556968
0.357433 0.14013 0.000402215 -0.0227479 0.999707 0.00832199
-0.344455 -0.108206 -0.216463 0.998609 -0.0458699 0.0259918
0.271788 0.120487 -0.069739 0.00833256 0.876691 -0.480982
0.0346191 -0.138668 0.0228493 -0.0334486 -0.985596 0.165776
-0.498526 -0.0497261 0.121865 -0.999199 -0.0240741 0.0319566
-0.127321 0.071497 -0.119554 -0.0531873 0.520681 -0.852093
-0.0217102 -0.0875103 -0.110775 -0.00759546 -0.621955 -0.783016
-0.162557 0.0239135 0.138465 -0.0205184 0.291816 0.956254
0.310169 0.0337766 0.135777 -0.000396439 0.268015 0.963415
-0.403442 -0.132761 -0.199022 -0.512802 -0.47275 -0.716618
-0.34644 -0.258669 -0.0620307 -0.34793 -0.914168 -0.207946
-0.501289 -0.081551 0.0723187 -0.998007 0.0126637 -0.0618267
0.102875 0.053425 0.129339 -0.0428065 0.409615 0.911254
-0.40747 -0.162655 0.17424 -0.504069 -0.596359 0.624717
0.266824 -0.021125 0.138338 -0.0108076 -0.170067 0.985373
0.225542 0.128247 -0.0563689 0.0117001 0.916764 -0.399259
-0.345237 0.22805 -0.0633375 0.998903 -0.0359176 0.0300416
-0.253027 -0.0987729 0.0988971 -0.0230438 -0.691653 0.721862
0.303311 0.136629 0.0355875 0.01766 0.971469 0.236508
0.176446 0.0467951 0.131922 0.00755212 0.301589 0.953408
-0.338012 0.128628 -0.0629426 0.706006 0.609179 -0.361187
-0.039732 0.0125195 0.139757 -0.01388 0.093133 0.995557
0.0131616 0.134843 0.0381098 -0.0169069 0.939366 0.342498
0.486098 0.0989947 -0.0774077 0.772037 0.510381 -0.378774
-0.468132 -0.146212 -0.115464 -0.701428 -0.571469 -0.425937
-0.345284 -0.14017 0.213718 0.999737 -0.00958578 0.0208424
-0.386307 0.164721 -0.186442 -0.480263 0.566548 -0.669605
-0.0966656 0.111385 0.0844243 0.000626402 0.798419 0.602102
-0.297653 -0.140807 -0.0177989 0.019791 -0.984709 -0.173079
-0.0485542 0.0790178 0.117567 0.0200947 0.606415 0.794894
-0.405317 -0.0457925 0.0618194 -0.837729 0.314843 -0.446188
-0.44208 -0.210387 -0.0114838 -0.652263 -0.757206 -0.0345256
-0.354897 0.235734 0.121427 -0.323852 0.851962 0.411437
-0.486888 -0.08871 -0.136406 -0.831047 -0.344728 -0.436491
-0.256559 -0.126494 0.056857 -0.00884904 -0.920731 0.390099
-0.143561 -0.0905477 -0.105276 -0.00205515 -0.698452 -0.715654
-0.105504 -0.130405 -0.0544776 -0.0372823 -0.931585 -0.361607
0.352574 -0.123045 0.0723911 -0.124977 -0.82289 0.554286
-0.439148 -0.00608619 0.0884319 -0.00594817 0.00504625 -0.99997
0.403121 0.0305117 0.136927 -0.0129726 0.247662 0.96876
0.213845 -0.0772353 0.117555 0.0098095 -0.556026 0.831107
-0.473914 -0.176586 0.0285717 -0.765732 -0.633774 0.109474
-0.117819 -0.0708263 0.121257 0.0202903 -0.50778 0.861248
-0.126011 0.119657 -0.0758522 -0.054598 0.873539 -0.483682
0.4533 0.0490956 0.131091 -0.0151421 0.336914 0.941414
-0.405489 0.148019 0.188651 -0.519201 0.508178 0.687158
-0.344202 0.145101 -0.165953 0.994768 0.0876162 -0.0525322
-0.315571 -0.123164 0.0687743 0.00508908 -0.881927 0.471359
0.442666 -0.111073 -0.0876736 -0.0410231 -0.70675 -0.706273
0.20716 -0.0746255 -0.120324 0.000260799 -0.542613 -0.839983
-0.345067 -0.120655 -0.115446 0.999987 -0.000260528 0.00501266
0.232776 0.136151 0.0413029 -0.0774551 0.925452 0.370863
0.102114 0.137623 -0.0351602 -0.00728874 0.970774 -0.239884
0.494328 0.0614826 -0.0998609 0.689343 0.411865 -0.595964
-0.260804 -0.122543 -0.0693715 -0.0122521 -0.887029 -0.461552
-0.499155 -0.0964183 0.0205989 -0.71893 0.6838 -0.124728
-0.067831 -0.0754238 -0.119181 0.00109115 -0.563025 -0.826439
-0.34825 0.111704 0.242006 -0.369396 0.45672 0.809292
-0.453304 0.177374 -0.0915375 -0.693313 0.637035 -0.336902
-0.501203 -0.108096 -0.0859804 -0.998931 -0.0419819 0.0193593
-0.389016 -0.100742 -0.228105 -0.515332 -0.397168 -0.759402
-0.243594 0.094353 0.103704 0.00674914 0.667525 0.744557
0.241907 -0.0391808 -0.136186 0.0105199 -0.284786 -0.958533
-0.411113 0.233626 0.0371048 -0.552264 0.822181 0.137926
0.481618 -0.0289409 0.12661 0.712515 -0.188365 0.6759
0.198695 -0.131072 -0.050553 0.00982662 -0.936966 -0.349281
-0.333843 -0.140259 0.0122617 0.349205 -0.930258 0.112587
0.49811 -0.0237226 -0.0361021 0.999127 -0.0247223 0.0336807
-0.0514467 0.117611 -0.0763149 0.0514555 0.793381 -0.606547
0.193549 0.0931833 -0.104336 0.0214723 0.655185 -0.755163
-0.478991 0.0779107 -0.0429807 0.0316479 -0.874111 0.484693
0.0326894 0.128497 -0.0547812 -0.0507824 0.950765 -0.305723
-0.389775 -0.243045 0.0502071 -0.43349 -0.892632 0.123672
-0.49917 0.0430366 -0.108594 -0.997918 -0.0564945 0.0311162
0.48111 -0.123767 0.045695 0.760475 -0.617366 0.201337
-0.396271 0.192639 0.152511 -0.517224 0.655939 0.549749
-0.404712 -0.058242 -0.0477058 -0.882568 0.389198 0.263815
-0.344951 0.147107 0.11162 0.999069 0.0392968 -0.0178111
-0.422413 0.0823076 -0.212231 -0.61119 0.280784 -0.740004
-0.151164 -0.13893 -0.0246769 -0.0129851 -0.990971 -0.133446
-0.122036 0.133627 0.04279 -0.0237847 0.97341 0.227831
-0.342224 0.0111314 -0.148978 0.875233 0.0737976 -0.478038
-0.203438 0.0126316 0.139221 -0.016607 0.0891138 0.995883
-0.43995 -0.115733 0.181165 -0.694659 -0.366486 0.61898
-0.30039 0.104956 -0.0935084 -0.0232572 0.742125 -0.669858
0.427861 -0.13459 0.0338788 -0.0234454 -0.966289 0.25639
-0.346407 0.201596 0.164337 0.998889 -0.02209 0.0416375
-0.497009 -0.0360919 -0.143283 -0.863238 -0.160105 -0.478735
0.382117 -0.0455933 -0.131645 -0.0670137 -0.263232 -0.962402
-0.344349 -0.00222864 0.212038 0.996736 0.0366149 -0.0719546
0.40012 0.0807437 -0.115908 -0.0616629 0.63927 -0.766506
0.415739 0.139043 -0.0272851 0.0316427 0.979557 -0.198664
-0.053004 -0.1368 -0.0375165 0.00604762 -0.966671 -0.25595
0.498241 0.0595035 0.0732563 0.999808 -0.0102023 0.0167382
-0.247385 0.14007 0.00181241 -0.0265942 0.997775 0.061143
-0.232482 -0.0346513 0.137905 0.0614803 -0.29362 0.953943
-0.388249 0.0385995 0.0197838 -0.864542 -0.461457 -0.19906
-0.360915 0.239076 -0.104033 -0.364396 0.835712 -0.410854
0.13854 0.0215583 -0.138795 -0.00489007 0.173946 -0.984743
0.112729 -0.027742 -0.137221 0.0555375 -0.227983 -0.97208
-0.36307 -0.152677 -0.211661 -0.462961 -0.563406 -0.684281
0.016963 0.0714217 -0.122528 0.00451072 0.497968 -0.867183
-0.357107 0.253716 0.06981 -0.352032 0.899377 0.25922
0.129757 -0.136208 -0.0422954 -0.0250518 -0.963155 -0.267779
0.323062 0.114809 -0.0819489 -0.038113 0.857072 -0.513785
-0.442328 -0.0153426 -0.211749 -0.720817 -0.0859317 -0.687778
-0.0133725 0.131673 -0.0477392 0.0104769 0.930701 -0.365631
-0.398311 0.0211153 -0.241808 -0.568876 0.0774822 -0.818766
0.219588 0.0723641 0.120272 -0.00467117 0.57591 0.8175
-0.0509182 -0.0433464 0.13336 -0.00789186 -0.311899 0.950082
-0.482423 0.0986542 -0.132736 -0.791126 0.330494 -0.514679
0.416766 -0.0475254 0.130616 -0.00130009 -0.316595 0.94856
-0.454701 0.189884 0.0599465 -0.709243 0.662844 0.240027
-0.396415 -0.0109924 0.245476 -0.520433 -0.0337513 0.853235
0.469647 -0.0715778 -0.121495 0.652961 -0.281519 -0.703128
0.343175 0.064936 0.12558 -0.0276873 0.462164 0.886362
0.434133 -0.0352781 -0.136166 -0.0104946 -0.230225 -0.973081
0.22501 -0.11156 -0.0851534 0.0378906 -0.733937 -0.67816
0.240273 0.104757 -0.0965236 -0.0112929 0.746185 -0.665643
0.261073 0.0327377 0.136581 -0.0439311 0.223921 0.973617
-0.295024 0.12762 0.0630969 -0.0421052 0.883586 0.466371
-0.426066 0.20541 0.0977751 -0.604983 0.721741 0.336282
-0.466379 -0.176181 -0.0609325 -0.741102 -0.638793 -0.206669
-0.419557 -0.0823774 0.0342495 -0.0116787 0.88262 -0.469941
-0.191602 -0.0695809 0.12252 -0.0355226 -0.491679 0.870052
-0.0143686 0.119135 0.0772131 -0.00608796 0.844236 0.535937
-0.189422 -0.115772 -0.081671 -0.000669659 -0.832862 -0.55348
-0.346373 -0.113737 0.106697 0.99827 0.0220736 -0.0544888
-0.421904 0.227106 -0.0249159 -0.595772 0.797156 -0.097975
-0.443422 0.0498397 0.0886818 -0.121276 0.089666 -0.988561
0.315684 -0.0235342 0.137658 -0.0163377 -0.153055 0.988083
-0.375903 -0.0033155 0.024741 -0.855217 0.0507589 -0.515778
-0.112639 -0.139055 0.0252478 -0.0243872 -0.975272 0.219657
0.417778 0.079332 0.116232 0.00648845 0.603955 0.796992
-0.436062 -0.0817383 -0.202507 -0.6763 -0.312015 -0.667282
-0.38786 -0.21664 -0.124015 -0.545035 -0.719551 -0.430329
0.219009 0.00735927 0.142279 -0.0696538 0.119426 0.990397
-0.343779 0.0451078 0.231351 0.999901 0.00229659 -0.0138989
-0.451039 -0.124378 -0.159346 -0.696318 -0.435589 -0.570441
-0.476038 -0.0330101 0.172482 -0.768455 -0.128587 0.626851
-0.453965 0.00630407 0.20079 -0.712993 0.04464 0.699748
-0.39738 0.209519 -0.127339 -0.506758 0.723349 -0.469002
0.499627 -0.0682588 -0.0414676 0.998723 -0.0306655 0.0401489
0.00796605 0.0886307 0.10878 -0.0117738 0.640544 0.767831
0.270996 0.125432 0.0633524 -0.0160019 0.889389 0.45687
0.144645 0.111284 -0.0853328 -0.0465887 0.851674 -0.521997
-0.00894625 -0.130211 0.0557971 -0.0328148 -0.894559 0.445743
-0.203939 0.113862 0.0815 0.0116554 0.776548 0.62995
0.0892454 0.0128355 -0.13999 -0.0176014 0.150219 -0.988496
-0.446863 0.208229 0.00901571 -0.665576 0.746289 0.00787809
0.269255 -0.131755 -0.0515834 0.00984917 -0.937271 -0.348463
-0.240424 -0.139881 -0.0128535 -0.0117695 -0.999428 -0.0316911
-0.344999 -0.172959 0.147467 0.997726 -0.0473763 0.0479365
0.206958 0.108649 0.0906783 0.0351621 0.797772 0.601934
0.0664576 0.0994022 0.0986408 0.0702071 0.686814 0.723434
-0.461495 -0.00406692 -0.0891746 -0.0136921 0.0248041 0.999599
0.0674077 0.020711 0.138949 0.0767445 0.170754 0.98232
-0.0654176 -0.0871673 0.109544 -0.0638085 -0.612941 0.787548
-0.404988 -0.0758507 -0.00651315 -0.864982 0.501799 -0.00204785
-0.14749 0.111416 0.0861761 0.0208213 0.815643 0.578181
0.0914103 -0.115654 -0.0814612 0.00679401 -0.818375 -0.574644
-0.330112 -0.0396445 -0.136366 0.018357 -0.282536 -0.959081
-0.0590557 0.128539 0.0580756 -0.100031 0.890734 0.443382
0.329017 -0.138966 0.0126427 0.0600382 -0.997243 0.0436005
-0.398931 -0.171171 -0.170301 -0.504334 -0.626652 -0.5941
