ply
format ascii 1.0
comment Created by Open3D
element vertex 400
property double x
property double y
property double z
property double nx
property double ny
property double nz
end_header
-0.239611 -0.43881 0.10604 -0.471044 -0.88211 0.000578067
-0.13357 0.100004 -0.0363804 0.822161 -0.569198 -0.0079929
0.0107108 0.169556 0.144825 -0.0581632 -0.959572 0.275387
0.27552 -0.365486 0.167275 0.0250317 -0.0571592 0.998051
-0.0800234 0.289316 -0.165219 0.0141245 -0.0209972 -0.99968
0.0731003 0.2225 -0.168709 0.022574 -0.00234919 -0.999742
0.451289 0.216551 -0.107598 0.8207 0.571182 -0.0142063
0.151119 -0.0667288 -0.0313896 -0.902882 0.428545 -0.0339663
-0.369599 0.335919 -0.0699577 -0.743718 0.667268 -0.0404485
-0.0873583 -0.196324 -0.168025 0.00990871 -0.00560752 -0.999935
-0.28389 0.412275 0.0647558 -0.567995 0.822768 0.0208725
0.492223 0.0812616 -0.101848 0.984488 0.175426 -0.00305473
-0.200465 0.257729 0.16594 -0.00823883 0.00851865 0.99993
-0.130227 -0.324705 -0.167492 -0.000347854 0.0198177 -0.999804
0.10432 -0.160629 0.166647 -0.159843 0.246093 0.955975
0.153625 -0.475146 0.0547989 0.28369 -0.958251 0.0357056
0.116381 0.427732 0.16685 0.0147673 -0.0117175 0.999822
-0.378544 0.327683 -0.143356 -0.748886 0.604365 -0.271868
-0.0803349 0.258957 0.16702 -0.0315516 0.0892044 0.995513
-0.34077 0.202937 0.1668 0.0236043 -0.0474185 0.998596
0.364359 0.268395 -0.164734 -0.0385796 0.0343825 -0.998664
-0.217846 -0.183388 0.166419 0.00252579 -0.00930476 0.999954
-0.132958 -0.234398 0.165463 0.0163506 -0.0192866 0.99968
-0.441306 -0.223255 -0.149298 -0.753775 -0.388077 -0.530302
-0.290569 -0.120066 -0.165464 -0.0141117 0.0121881 -0.999826
-0.00495535 -0.497232 -0.0694117 0.0653304 -0.997714 -0.0172964
0.133633 0.471826 -0.155227 0.178768 0.705727 -0.685559
-0.319853 -0.294198 -0.168347 -0.0146798 0.018098 -0.999728
0.407151 0.11212 0.16707 -0.039011 0.0371115 0.998549
0.0288441 -0.255973 0.166987 -0.0753451 0.00100059 0.997157
0.256962 0.105985 -0.166452 -0.017822 0.0190073 -0.99966
-0.481338 0.0894637 0.155837 -0.65772 0.073317 0.749686
0.347727 -0.205551 0.167352 0.00700087 -0.0172208 0.999827
0.266999 -0.217038 0.167945 0.0131297 -0.00325314 0.999909
0.0987925 -0.188009 -0.165396 -0.0124072 0.0120343 -0.999851
0.181276 0.274262 0.166163 -0.00465021 0.0601624 0.998178
0.146335 0.0802795 0.0122916 -0.861884 -0.507102 -0.00160612
0.244457 0.206897 0.165481 -0.0222021 0.0341027 0.999172
-0.489033 -0.108169 0.0832798 -0.970546 -0.238565 0.0335713
-0.48537 0.116739 -0.0681593 -0.976962 0.213409 0.00135621
0.0384985 -0.162291 -0.125888 -0.176121 0.983968 -0.0280822
-0.330546 0.374758 -0.140463 -0.620597 0.748934 -0.232288
0.319395 -0.292896 -0.167513 -0.073144 0.0105162 -0.997266
-0.265626 -0.337463 0.167125 -0.000823186 0.0259678 0.999662
-0.190382 -0.0176703 0.166206 0.23619 0.0369474 0.971004
-0.151242 -0.307361 0.167821 0.0172352 -0.02023 0.999647
0.192096 -0.0616283 0.164832 0.0125834 -0.03528 0.999298
-0.419656 -0.273102 -0.0955528 -0.817175 -0.569895 0.0862835
0.0394323 0.354807 -0.168165 0.00287412 -0.0149158 -0.999885
0.117167 -0.118514 -0.135489 -0.698923 0.703769 -0.127341
0.109664 0.162737 -0.165367 -0.0721373 -0.0497215 -0.996155
-0.30643 -0.199898 -0.166205 0.0849385 -0.0999565 -0.99136
0.12502 -0.108503 0.0381619 -0.751075 0.660216 0.0015179
-0.463145 0.188798 -0.131972 -0.940872 0.330173 0.0757968
0.458396 -0.19532 0.0755673 0.93949 -0.342023 -0.019446
-0.207812 -0.411115 -0.167424 -0.00130507 0.00665729 -0.999977
-0.46624 -0.165165 0.150887 -0.794711 -0.343606 0.500369
0.0501287 0.218615 0.165882 0.0737755 -0.0249762 0.996962
-0.115718 0.486522 -0.00328188 -0.291708 0.956252 0.0220971
0.0904278 -0.140474 -0.0637708 -0.490567 0.869457 -0.0582052
-0.126626 0.387939 0.1679 -0.0125179 0.011155 0.999859
0.109284 -0.262815 -0.167903 -0.00649321 0.0173794 -0.999828
0.176529 0.467542 -0.0960424 0.335543 0.942007 0.00586692
-0.164976 0.00933342 -0.0699591 0.99538 -0.0960049 0.00161506
-0.263553 0.213218 0.166839 -0.0350302 0.0128465 0.999304
-0.190243 -0.441277 0.16253 -0.141536 -0.328692 0.933772
0.276326 -0.229753 -0.165708 -0.00457866 0.0448654 -0.998983
-0.422459 -0.118885 -0.166772 0.00357496 -0.0041668 -0.999985
-0.260334 -0.428013 0.0355085 -0.561877 -0.827195 0.00659848
-0.16634 -0.00845234 0.0748785 0.996912 0.0785185 -0.00130235
0.325757 0.382549 0.0739757 0.643552 0.765393 0.00374257
0.246031 -0.0224173 0.166308 0.0148307 -0.0108069 0.999832
0.080253 0.4106 -0.167161 -0.0226415 0.039041 -0.998981
-0.267753 -0.014701 0.166419 0.000912102 -0.0018813 0.999998
-0.000689907 0.233038 -0.167252 0.0103203 -0.0161286 -0.999817
-0.136021 0.363692 -0.167883 -0.0984717 0.123782 -0.987411
-0.19181 -0.203065 -0.164977 -0.0228385 0.0746129 -0.996951
-0.141783 -0.253095 -0.167285 -0.0211524 0.0246651 -0.999472
0.277661 -0.416865 0.094275 0.545774 -0.837149 0.036225
-0.49962 0.0361455 0.108929 -0.995831 0.090401 -0.0121647
-0.142374 0.132779 0.165617 0.219438 -0.201085 0.954679
0.236377 0.134234 0.166061 -0.0608952 0.0519276 0.996793
0.300698 0.249935 0.165442 -0.0660498 0.0707744 0.995303
-0.221249 0.146353 -0.167413 -0.00139893 0.00920476 -0.999957
-0.291521 0.0878644 -0.167824 -0.0230595 0.0350435 -0.99912
-0.0322011 0.164093 -0.132241 0.216162 -0.975717 -0.0353612
0.176947 -0.137338 -0.166837 0.0195516 -0.000157185 -0.999809
-0.245094 0.435703 0.00339614 -0.544953 0.836132 0.0625279
0.136749 -0.481232 0.138018 0.301057 -0.948606 0.0975291
0.396118 0.287813 0.158635 0.597813 0.341192 0.725402
-0.294136 0.0597413 0.166672 0.000347434 -0.000441079 1
-0.333879 -0.343097 0.163427 -0.270954 -0.299066 0.914955
0.469558 0.00769361 -0.166149 0.0254743 0.0380325 -0.998952
-0.456404 0.204934 0.0713904 -0.919474 0.392801 0.0166038
0.360178 -0.136748 -0.16709 0.0275878 -0.0320155 -0.999107
0.308658 0.392785 -0.000772251 0.586621 0.80986 -0.00139356
0.431263 0.250745 -0.0334517 0.859879 0.510381 -0.0109382
-0.286022 0.175139 -0.166238 0.0252465 -0.00603561 -0.999663
0.00456728 0.501362 0.110511 0.00244712 0.999593 -0.0284194
0.215879 -0.147609 0.167765 0.0262119 -0.033909 0.999081
0.0477949 -0.23498 -0.167698 -0.0395117 0.0497589 -0.997979
0.489599 -0.103863 0.126695 0.975341 -0.220418 -0.0111828
-0.014365 0.499724 0.0144898 -0.0190563 0.999646 -0.0185482
-0.319616 -0.384496 -0.115129 -0.572724 -0.819739 -0.00382628
0.139661 0.480146 0.130641 0.256634 0.965998 0.0314235
0.140217 0.478186 -0.0377733 0.31107 0.950373 -0.00508657
-0.0609767 -0.336209 -0.166022 -0.029261 0.0371733 -0.99888
0.249672 0.304616 0.167106 0.0222331 -0.0206938 0.999539
0.0734239 0.148321 0.0259335 -0.433217 -0.899333 0.0593544
0.0462525 0.315508 0.166782 -0.00906528 0.00695805 0.999935
-0.0654218 -0.153865 -0.116517 0.38828 0.921539 0.00187946
-0.404452 -0.293218 0.074629 -0.838043 -0.545542 0.00819752
-0.270154 0.363082 -0.166785 -0.0066687 0.0146634 -0.99987
-0.0699023 0.422129 -0.166684 0.00335727 -0.0860267 -0.996287
0.155427 0.404796 -0.166385 0.0180213 -0.0469316 -0.998736
0.165663 0.139884 0.166526 -0.032312 0.0253116 0.999157
-0.370185 -0.0374116 0.16543 0.0515463 -0.0366821 0.997997
0.195793 -0.373005 0.167211 0.0573381 -0.0230969 0.998088
-0.419967 0.273459 0.0745999 -0.850357 0.52583 0.0198808
-0.0836348 -0.419247 -0.165532 -0.000446982 0.000460626 -1
-0.0204859 -0.419355 0.166497 0.000100351 -0.0624646 0.998047
0.409012 -0.0371389 -0.16811 0.0194603 -0.0193061 -0.999624
-0.49434 -0.0745457 -0.0935 -0.98687 -0.160971 0.013284
0.248305 0.434707 0.0464471 0.478618 0.878023 -0.000201103
0.327123 0.112941 -0.165879 0.0113787 -0.00956573 -0.99989
-0.346688 0.362246 0.0339987 -0.68498 0.728546 0.00474354
-0.045226 0.349751 -0.167054 0.0109201 -0.0631729 -0.997943
-0.359131 0.0217231 -0.165788 -0.067422 0.0142452 -0.997623
0.106556 0.355751 0.168276 -0.0188784 0.00724006 0.999796
0.332097 -0.37232 -0.142183 0.664913 -0.69073 -0.284225
-0.186198 0.324149 0.166176 0.01539 -0.00736382 0.999854
-0.489036 -0.112242 -0.0373238 -0.974918 -0.222566 5.62635e-05
0.0802516 -0.49663 -0.115938 0.111305 -0.991042 0.0738003
0.461514 -0.0429106 0.167309 -0.076926 0.0264505 0.996686
-0.157485 0.0522567 0.0154807 0.927296 -0.362232 0.094396
0.299971 0.401229 -0.0744822 0.619503 0.784657 -0.0229885
-0.198301 0.231872 -0.164435 -0.00956221 0.00535252 -0.99994
0.343671 0.33579 -0.161914 0.330255 0.294865 -0.896653
0.31221 0.0682707 0.166354 -0.0631537 0.113264 0.991556
0.186423 -0.464956 -0.0246597 0.388212 -0.921552 0.00575309
-0.441163 0.236025 -0.00636985 -0.881291 0.471319 -0.0344135
-0.362781 -0.344831 -0.0262693 -0.706411 -0.707681 0.0130831
0.0890793 -0.489568 0.0838185 0.178464 -0.983874 0.0119739
0.500293 0.00931461 -0.0942558 0.999594 0.0284388 -0.00193839
0.466081 -0.185337 -0.0864415 0.92567 -0.374869 0.0510794
-0.221002 -0.0880039 -0.166151 0.00118122 -0.000824602 -0.999999
0.0158188 0.413337 -0.167456 -0.00713417 0.00726282 -0.999948
0.417576 -0.276319 -0.0882837 0.799344 -0.600596 0.0182608
0.12301 0.483356 0.040089 0.255013 0.966553 -0.0272537
0.0100473 -0.500748 0.00717991 -0.00801995 -0.999942 0.00722144
0.0723729 -0.434274 -0.165765 -0.0584795 0.0578842 -0.996609
-0.226783 0.444483 -0.0558384 -0.448805 0.891238 0.0653385
0.15149 0.0783812 0.150501 -0.791005 -0.359386 0.495128
-0.157926 0.474923 0.114291 -0.343057 0.938371 0.0420808
0.164273 0.0361181 -0.142901 -0.901903 -0.347888 -0.256018
-0.492373 0.0895683 0.074256 -0.990923 0.121171 0.0582089
0.3775 -0.328154 -0.0403407 0.706155 -0.707003 0.0386148
-0.203404 0.336009 -0.167228 0.00855932 -0.00677144 -0.99994
0.00292107 -0.166144 -0.0661738 -0.0121264 0.999887 0.0088326
0.0936146 -0.491676 -0.00244799 0.190002 -0.981508 0.0232513
0.482353 0.126376 -0.0394006 0.961123 0.276119 0.00119276
0.409213 -0.290046 0.0207579 0.804995 -0.592842 0.0228566
-0.498838 0.040046 -0.0628559 -0.997054 0.0766003 -0.00393403
0.33915 -0.365598 0.0857734 0.68049 -0.732757 -0.000631705
-0.441247 0.031416 0.164593 0.0356752 -0.0127356 0.999282
0.0197348 -0.394294 -0.166691 0.0112021 -0.0189082 -0.999758
0.470857 0.146602 -0.153981 0.754342 0.241981 -0.610257
0.412387 0.101628 -0.166137 0.0603652 -0.00964871 -0.99813
0.341128 -0.353751 0.154446 0.541053 -0.58723 0.602016
-0.20088 -0.458382 0.0470901 -0.396613 -0.917357 0.0339698
0.260909 0.398091 0.164483 0.146135 0.223017 0.963799
0.0589427 0.49547 -0.0273579 0.117252 0.992889 -0.02056
-0.0638262 0.494602 0.0693272 -0.151706 0.986496 0.061737
-0.118845 -0.48388 0.0626224 -0.252644 -0.967559 -0.000701754
-0.148371 0.132704 -0.166667 0.0465811 -0.0290943 -0.998491
0.392382 0.0334833 -0.165372 0.0154701 -0.0314367 -0.999386
0.0145961 0.166713 0.0684085 -0.155111 -0.98524 0.072403
-0.0680821 -0.368728 0.166969 -0.0209235 0.011176 0.999719
0.163161 -0.0362465 0.049579 -0.968499 0.248083 -0.0215445
-0.458909 0.198259 -0.0560962 -0.882496 0.467292 -0.0532912
0.438043 -0.236012 -0.146958 0.797377 -0.497663 -0.341353
0.500083 -0.028579 0.0382459 0.996107 -0.0641341 -0.0604798
-0.266211 0.419571 0.145124 -0.535392 0.747321 0.393531
0.165281 0.0273704 0.0584429 -0.987949 -0.130699 -0.082915
-0.431325 -0.222498 0.159015 -0.535308 -0.174194 0.8265
-0.0053517 0.498881 -0.0576229 -0.0204728 0.999778 0.0049812
0.493154 -0.0816157 -0.0933456 0.986442 -0.164104 -0.00122645
0.396644 -0.302637 0.139312 0.738018 -0.652726 0.171109
0.333511 0.12738 0.167143 -0.0271812 0.0676595 0.997338
-0.381922 -0.187193 -0.164913 -0.0251448 0.0486438 -0.9985
0.450163 -0.220238 -0.0275182 0.854333 -0.516252 0.0599959
0.150928 0.206131 0.164217 -0.000230718 0.00498555 0.999988
-0.475066 -0.0950192 0.160587 -0.530504 -0.0729001 0.844542
-0.307937 0.395251 -0.00832448 -0.653267 0.752599 0.0826808
0.273722 -0.394717 -0.161999 0.253229 -0.414533 -0.874092
0.103794 0.276315 0.16541 0.0306418 -0.0183421 0.999362
0.309646 -0.392241 0.00303941 0.595998 -0.802922 0.0101011
-0.480153 0.117692 -0.150061 -0.795029 0.158396 -0.585526
-0.498366 -0.0248111 -0.0428671 -0.999573 0.0251796 -0.014794
-0.318854 0.293023 -0.167293 -0.0604966 0.00715337 -0.998143
-0.1061 -0.130644 0.0131459 0.57716 0.816557 -0.0109966
-0.117822 -0.140996 0.162544 0.305881 0.307435 0.901066
0.26384 0.336336 -0.165632 0.0150787 -0.0144618 -0.999782
0.243976 -0.306923 0.166688 -0.00102375 0.001879 0.999998
0.0390928 -0.329775 0.167172 -0.0132016 0.0257009 0.999583
-0.0579091 -0.154748 0.0646634 0.276096 0.96102 -0.0145239
0.0740945 0.149723 0.101663 -0.433178 -0.901002 -0.0234964
-0.370745 0.0536328 0.16882 0.0248331 -0.024583 0.999389
0.263585 0.172187 -0.166178 0.0121006 -0.0526527 -0.99854
-0.306765 -0.395244 0.0963857 -0.603513 -0.797353 -0.000419116
-0.46702 0.0437817 -0.16651 -0.0422 -0.0424488 -0.998207
0.466838 0.177829 0.0175628 0.934473 0.356008 0.00417459
0.136319 -0.107882 0.154651 -0.631856 0.53126 0.564377
0.325766 0.212184 -0.167794 0.043378 -0.0284675 -0.998653
-0.16504 -0.0194167 0.000485589 0.985334 0.170182 -0.0124596
-0.221772 -0.449945 -0.0242327 -0.514316 -0.856885 -0.0350384
0.22726 0.0469136 -0.166829 -0.00865142 0.0068051 -0.999939
0.0326021 -0.487583 0.158157 0.0985168 -0.731296 0.674908
-0.119422 -0.404154 0.166417 0.013826 -0.0102319 0.999852
-0.271014 -0.402699 0.161055 -0.388459 -0.452362 0.802788
-0.0675143 -0.236053 0.166753 0.0501264 -0.04845 0.997567
0.0364895 -0.310306 -0.166457 -0.0116932 0.0094404 -0.999887
0.265132 -0.0186471 -0.165066 0.0241643 -0.0424203 -0.998808
0.360104 -0.344591 0.0226276 0.720399 -0.691517 -0.0531854
0.150557 -0.0677747 0.106715 -0.908691 0.417448 -0.00414131
0.107303 0.127467 -0.0338502 -0.598582 -0.801028 -0.00732792
0.226196 -0.444716 -0.0741524 0.378808 -0.921492 0.0857739
-0.287141 -0.0138527 -0.167064 0.00532151 -0.0176541 -0.99983
-0.468311 -0.0731475 -0.165433 -0.11586 -0.0375385 -0.992556
-0.0394493 -0.484941 0.159758 -0.0264704 -0.627415 0.778235
0.272881 -0.100542 0.169001 -0.00586257 0.00977831 0.999935
-0.159263 -0.47436 -0.00702712 -0.27801 -0.957228 -0.0801572
-0.267254 0.421767 -0.142198 -0.499896 0.823037 -0.269656
-0.023331 -0.278415 -0.167065 0.010308 -0.0224925 -0.999694
0.0916041 0.169523 0.167367 -0.0969477 -0.261074 0.960438
-0.24883 -0.241861 -0.166416 0.0269445 -0.0231017 -0.99937
0.167351 -0.311921 -0.167826 -0.00746065 0.0859297 -0.996273
-0.0727095 0.159261 0.154391 0.348552 -0.662346 0.663181
-0.500121 -0.00797481 -0.131572 -0.997282 -0.0392101 0.0623743
-0.238414 -0.112934 0.167929 0.00271496 -0.00532437 0.999982
0.374121 -0.330243 -0.109404 0.731821 -0.680941 0.0275132
0.0778112 0.494733 0.117335 0.121078 0.992346 0.0242871
0.383514 0.321539 -0.0692251 0.737643 0.675167 0.0056878
0.31382 -0.0157645 0.166101 0.0523583 -0.0707752 0.996117
0.240932 0.436414 -0.108472 0.47972 0.877421 -0.000496093
-0.0520292 -0.167884 0.156403 0.201541 0.65733 0.726153
0.237708 -0.298764 -0.165391 -0.00117819 0.067314 -0.997731
-0.153329 0.0691423 0.118567 0.928424 -0.366549 -0.0605941
-0.494846 -0.0251583 0.148117 -0.866422 -0.0984949 0.489502
0.0989416 -0.134898 0.10583 -0.629867 0.774413 0.0595945
0.0505772 0.157817 -0.0518849 -0.31101 -0.950406 -0.000122065
0.193968 -0.202795 -0.165731 -0.000854828 0.00257809 -0.999996
0.145705 -0.381016 -0.167132 -0.0170976 0.0596293 -0.998074
-0.214731 0.0432098 0.165611 -0.00846394 0.051672 0.998628
-0.250538 0.283656 -0.166304 -0.00239988 0.000344529 -0.999997
0.389397 -0.2949 -0.156959 0.532722 -0.389365 -0.7514
-0.0231995 -0.291415 0.167873 -0.0285735 0.0322498 0.999071
-0.381952 0.127713 0.166716 0.0306165 -0.0119012 0.99946
-0.415162 0.280401 -0.0482478 -0.853809 0.519311 0.0364161
0.313009 0.0519999 -0.167476 -0.00637804 0.0467876 -0.998884
0.334662 -0.267701 0.166001 0.0435547 -0.00863508 0.999014
-0.159932 0.295825 -0.165749 0.00491543 -0.0098024 -0.99994
-0.359651 -0.176495 0.166294 -0.0596571 0.0539926 0.996758
-0.391497 0.306975 0.0182512 -0.772206 0.635005 -0.0215764
-0.271684 0.136171 0.166798 0.000754138 -0.0341205 0.999417
-0.19879 -0.332157 -0.166982 0.015252 -0.0476936 -0.998746
0.150563 0.0713301 -0.0517727 -0.929575 -0.367602 -0.0275624
-0.146592 -0.0784989 -0.028643 0.889927 0.455977 0.0106672
-0.472747 -0.165006 0.050064 -0.931823 -0.35628 0.0690644
-0.0608655 0.496433 -0.111191 -0.229033 0.97108 0.067432
-0.366251 -0.340508 0.109341 -0.687934 -0.72577 0.0024081
0.417973 0.273249 0.0241295 0.851209 0.524827 -2.27239e-05
-0.140125 0.210166 -0.165414 -0.0237995 0.0250935 -0.999402
0.15553 -0.475896 -0.0877132 0.312106 -0.950033 -0.00512771
-0.133846 -0.481703 -0.0830045 -0.250375 -0.968107 0.00906413
-0.380757 -0.251807 -0.165765 -0.0156911 0.0103482 -0.999823
0.14117 -0.255412 0.166511 -0.0171162 0.0196122 0.999661
-0.335213 -0.101073 0.165707 0.0302848 -0.031069 0.999058
0.138246 0.0940968 0.0832051 -0.84211 -0.539225 -0.00934719
0.0496119 0.430062 0.1667 0.0248081 -0.0275563 0.999312
0.372545 0.33304 0.0986026 0.73556 0.677379 -0.0104407
0.288426 -0.408771 -0.0671369 0.549908 -0.835082 0.0154703
0.383341 -0.0333386 0.167806 -0.0297301 0.0314473 0.999063
-0.0148417 -0.491017 -0.15582 -0.0232258 -0.72916 -0.683949
0.436623 -0.232567 0.149989 0.751539 -0.385345 0.535442
-0.399124 -0.290248 0.152657 -0.698767 -0.482396 0.528222
0.464897 0.177179 0.109576 0.951669 0.302427 0.0535141
-0.109462 -0.127972 0.0906953 0.633452 0.773771 0.00417442
-0.161581 -0.100039 -0.165606 0.235178 0.196844 -0.951811
0.467039 -0.176685 0.140478 0.922362 -0.350916 0.161576
-0.498363 0.0373801 0.0105535 -0.997806 0.056982 0.0337143
-0.413847 -0.00963431 -0.166867 0.0198374 -0.0047731 -0.999792
-0.150821 -0.0662708 0.116075 0.872571 0.487486 0.0312552
-0.400492 0.297588 0.139756 -0.780844 0.599873 0.174457
-0.343315 -0.364149 0.0304273 -0.711319 -0.702662 -0.0170355
0.434915 0.219563 0.160074 0.522604 0.262391 0.811194
-0.441792 -0.233271 0.0354604 -0.876548 -0.481164 0.0120357
0.323727 0.370658 0.156287 0.431745 0.527367 0.731765
-0.264386 -0.353236 -0.166193 0.0180388 -0.0048653 -0.999825
0.202582 0.450566 0.152124 0.300171 0.746817 0.593432
-0.486959 0.1079 0.00650776 -0.980267 0.193984 0.0380354
0.305418 0.390485 -0.14745 0.603913 0.685002 -0.407506
-0.0445866 0.43055 0.165367 0.00671575 -0.0192415 0.999792
0.142733 -0.423617 0.167558 0.00814544 -0.00547918 0.999952
-0.133116 0.217313 0.167112 -0.0418321 0.0134651 0.999034
-0.109356 -0.485024 0.14887 -0.164324 -0.892116 0.420865
0.170796 0.254805 -0.165737 0.0633978 -0.0348547 -0.99738
0.468136 -0.0814134 -0.166988 0.224721 -0.0316537 -0.973909
0.0369899 0.162951 -0.129767 -0.202779 -0.97922 -0.00279329
-0.163332 0.430492 -0.167596 -0.0189814 0.0374865 -0.999117
-0.227143 0.446663 0.0953 -0.406884 0.910371 -0.075305
0.101613 0.283522 -0.166393 -0.0319525 0.0336109 -0.998924
-0.205599 -0.254021 0.167176 -0.0379213 0.0172547 0.999132
-0.0606176 0.364765 0.166159 -0.0157311 0.0415609 0.999012
0.224374 0.0582665 0.164936 0.0142835 -0.0861168 0.996183
0.00761816 0.366552 0.167723 0.057198 -0.0845053 0.99478
0.424271 0.04455 0.165417 0.0133839 -0.015985 0.999783
-0.197975 -0.351918 0.167086 0.00350186 -0.00415139 0.999985
0.499001 -0.0219085 0.110464 0.999981 0.00524148 -0.00315273
-0.336294 -0.241739 0.16772 -0.00450868 0.000508829 0.99999
-0.10966 0.124583 0.0936314 0.659991 -0.743644 -0.106798
0.483021 0.124789 0.0658665 0.948709 0.312038 -0.0508301
-0.0216427 0.307497 0.167639 -0.0347048 0.0551894 0.997873
-0.350018 -0.0608971 -0.167716 0.00932666 -0.00713068 -0.999931
-0.234091 -0.152655 -0.165955 -0.0251374 0.00126016 -0.999683
0.491595 0.0770034 0.0210234 0.986903 0.156897 0.0374829
-0.499717 -0.0444111 0.0669646 -0.99718 -0.0019895 -0.0750146
0.469542 -0.149912 -0.152676 0.763596 -0.22451 -0.605406
0.500108 -0.0187786 -0.0418548 0.999671 -0.0256348 0.000811827
-0.470907 0.167429 0.0159372 -0.954255 0.298411 0.0186484
-0.410785 0.131948 -0.16707 -0.00758454 0.00304326 -0.999967
0.251781 -0.43182 0.0251234 0.499165 -0.865345 0.0448652
-0.0255153 0.163665 -0.0585338 0.146551 -0.989193 0.00441996
-0.119473 -0.113709 -0.0972664 0.674969 0.737844 -0.00173856
0.158886 -0.0560972 -0.146719 -0.885139 0.29957 -0.356073
-0.328795 0.22834 -0.168161 0.0364065 -0.0170733 -0.999191
0.48726 -0.106852 -0.0246495 0.975268 -0.220914 -0.00709488
-0.416142 0.269183 -0.152438 -0.680524 0.47767 -0.555624
-0.376437 0.32816 0.0829164 -0.755417 0.654682 0.027147
-0.154211 0.0597169 -0.10802 0.941436 -0.333901 -0.0470019
0.360793 0.204329 0.166942 0.0189387 -0.0034046 0.999815
-0.0157518 -0.166432 0.0104381 0.108627 0.994078 -0.00316674
-0.122457 0.483131 -0.103019 -0.232516 0.972418 -0.0184535
0.0366091 -0.400742 0.1652 0.0257784 -0.00189507 0.999666
0.133471 -0.328677 0.167733 -0.00393149 0.00594494 0.999975
0.407414 -0.144412 0.167322 0.0437484 -0.0433266 0.998103
-0.191497 0.438399 0.163448 -0.109909 0.284252 0.952429
0.214863 -0.455521 0.119888 0.465752 -0.884225 -0.0349548
0.235859 0.395793 -0.166827 0.030115 -0.00342941 -0.999541
-0.108339 0.1272 0.0184635 0.620039 -0.783674 0.0375184
-0.163575 -0.0254992 -0.135524 0.98714 0.158352 -0.0218906
0.442643 0.230927 0.0747 0.88449 0.466554 -0.00202554
-0.167826 -0.470806 -0.139746 -0.256344 -0.952269 -0.165747
0.0501346 0.495019 0.0563841 0.158244 0.987107 -0.0240692
-0.067443 -0.495035 -0.0656507 -0.217814 -0.974624 0.0516354
-0.117381 0.119127 -0.107114 0.697772 -0.715098 0.0418155
0.499316 0.040412 0.084838 0.998013 0.0407288 0.0480825
0.255499 0.260294 -0.167324 0.0209329 -0.0300842 -0.999328
0.20406 0.457379 -0.0070012 0.378318 0.925189 0.0300009
0.20033 -0.227398 0.16741 -0.00517877 0.00388817 0.999979
0.0835282 -0.450373 0.166322 0.0367064 -0.0362736 0.998668
0.217095 -0.368064 -0.164892 -0.00108689 0.00311649 -0.999995
-0.470784 0.165612 0.143015 -0.913408 0.335302 0.230779
0.0975425 0.491175 -0.0988384 0.20423 0.978892 -0.00777064
-0.465493 -0.185698 -0.0171147 -0.929949 -0.367408 -0.0143375
0.344376 -0.118784 0.166392 -0.033581 0.0189397 0.999257
-0.309015 -0.393817 -0.025146 -0.661446 -0.749929 0.00980268
0.0303452 -0.163475 0.0536565 -0.243482 0.967184 0.0726028
0.179054 -0.45005 -0.162373 0.275846 -0.444318 -0.852344
-0.244624 0.348868 0.166081 -0.042054 0.0436963 0.998159
0.353271 -0.223653 -0.168433 -0.0734051 0.0142805 -0.9972
-0.403316 -0.295325 -0.00792462 -0.776975 -0.629407 0.0125282
0.131715 0.103581 -0.129187 -0.767802 -0.640685 -0.0019688
-0.265057 -0.234636 0.166317 0.0376351 -0.0803765 0.996054
0.365884 0.341292 0.0317282 0.739121 0.673568 -0.00274881
-0.32627 0.285427 0.16841 0.0478748 -0.0237096 0.998572
-0.378888 -0.326575 -0.136493 -0.716933 -0.695449 -0.0485668
-0.0133901 0.475032 -0.165443 -0.042509 0.282359 -0.958367
-0.207301 0.167147 0.166633 0.00807642 -0.0351385 0.99935
-0.197514 0.0800744 -0.166615 0.0123607 -0.0424299 -0.999023
-0.474792 -0.160112 -0.127019 -0.950168 -0.311405 -0.0144136
-0.0536076 -0.495065 0.0221 -0.0872251 -0.996186 -0.00235413
-0.0193378 -0.199111 -0.168373 0.027824 -0.0231696 -0.999344
-0.278454 -0.164733 0.164986 0.0658033 -0.0518797 0.996483
0.386518 0.175503 -0.167287 0.0116987 -0.0424853 -0.999029
-0.404735 0.203183 -0.167201 0.00876422 -0.0163089 -0.999829
0.19583 0.19603 -0.166686 0.00917172 -0.0123646 -0.999881
-0.415452 0.206753 0.166472 0.000456607 -0.000691829 1
0.180042 0.325613 -0.165743 -0.0109605 0.0190097 -0.999759
-0.166008 -0.101009 0.166764 0.130183 0.10563 0.985847
0.222585 -0.0922337 -0.165813 0.0115426 -0.00771494 -0.999904
0.0213773 -0.16368 0.128635 -0.149477 0.988765 0.00043269
-0.0702556 0.22409 -0.166622 -0.039087 0.0477983 -0.998092
-0.328507 0.354778 0.161987 -0.33694 0.364407 0.868147
-0.189604 0.463098 -0.11506 -0.401083 0.915959 0.0123165
-0.0501905 -0.495466 0.0919761 -0.0981692 -0.995167 -0.00214489
-0.0727988 -0.149936 -0.0543902 0.405983 0.913362 0.0307862
0.165892 -0.00225152 0.135041 -0.997221 -0.0217006 0.071268
-0.0832029 0.490113 0.145452 -0.176605 0.892444 0.415156
-0.206887 -0.454901 -0.0925826 -0.38119 -0.924031 -0.0293548
