ply
format ascii 1.0
comment Created by Open3D
element vertex 400
property double x
property double y
property double z
property double nx
property double ny
property double nz
end_header
-0.384643 0.278928 -0.0834828 -0.00131485 0.000558034 -0.999999
-0.363239 -0.0429469 0.000392333 0.0318794 -0.0190839 0.99931
0.187943 -0.122 0.00465116 0.832153 -0.551636 0.0567347
-0.145949 0.374375 -0.0825233 -0.0591272 0.047851 -0.997103
-0.4993 0.0394584 -0.0771523 -0.997176 0.0582986 0.0473445
0.392312 0.0909884 -0.0821939 -0.0526445 0.0435007 -0.997665
-0.0361916 -0.455064 -0.081678 0.0520956 -0.0507629 -0.997351
-0.0953749 0.210501 -0.0822759 -0.0437253 0.060414 -0.997215
0.279638 -0.188465 -0.0808918 0.0734346 -0.0229996 -0.997035
0.213714 0.356121 -0.000515819 -0.0127263 0.043194 0.998986
0.365505 0.228523 0.000934362 0.01858 -0.0224296 0.999576
-0.197518 0.109652 0.0784851 -0.867998 0.496134 0.0207371
0.0498184 0.228924 -0.0746471 -0.0541223 0.997021 0.0549553
0.443076 -0.0584699 -0.0813631 0.0208821 -0.100463 -0.994722
-0.0693159 0.100419 -0.0176397 0.549284 -0.835576 0.0099902
0.251082 -0.346031 -0.000500589 -0.0157008 0.0503424 0.998609
-0.261291 0.249641 -0.000229238 0.00742204 -0.0834122 0.996487
-0.219392 0.0453345 0.0530464 -0.971506 0.218825 0.0910621
-0.382612 -0.284192 0.00107612 -0.0122472 0.00611811 0.999906
0.221994 -0.0188852 0.0820197 0.0472445 -0.00473329 0.998872
-0.296969 0.390976 7.48274e-05 0.0261036 -0.056086 0.998085
0.134495 0.284828 -0.0789769 -0.493756 -0.869384 -0.0194074
-0.418073 0.0689456 -0.0013518 -0.00666971 0.101226 0.994841
-0.384874 0.146833 -0.0821515 -0.024189 0.0045393 -0.999697
-0.119502 -0.0243064 -0.0136789 0.962163 0.271509 -0.0229257
-0.47172 -0.143439 -0.081653 0.00525975 -0.00558536 -0.999971
-0.365884 0.0863732 -0.0828868 0.00358346 -5.80562e-05 -0.999994
0.341236 0.359935 -0.0115537 0.14657 0.0906594 -0.985037
0.0262614 -0.359804 -0.0795914 -0.929182 -0.369177 0.0181481
-0.098781 0.331236 -0.000998458 -0.0191739 0.00642732 0.999796
-0.433721 -0.177446 -0.0430543 -0.940898 -0.337851 -0.0238156
-0.285334 0.318191 0.00110286 -0.0253214 0.0433161 0.99874
-0.324801 -0.164506 -0.0827589 -0.0515656 0.0101488 -0.998618
0.11343 -0.471917 -0.000225864 -0.0278495 0.0605832 0.997775
-0.152998 -0.3329 -0.0422261 0.502863 -0.86286 0.0510152
0.355697 -0.044443 -0.0825298 0.0117687 -0.0270519 -0.999565
0.16573 -0.254977 -0.0177698 -0.352319 0.935376 -0.0307084
0.198435 0.294069 -0.0847177 -0.0137302 0.0256281 -0.999577
-0.13506 0.196498 -0.0364182 0.609754 -0.792355 0.0193551
0.172961 0.146336 0.0159769 0.733072 0.680082 -0.00969494
-0.414801 0.23982 -0.0218178 -0.613895 0.368951 -0.69786
-0.166226 -0.279063 -0.00165718 0.069546 -0.00324044 0.997573
-0.0565348 0.325163 -0.0810645 -0.00522177 0.00365667 -0.99998
0.191324 -0.315074 -0.00231212 -0.769621 -0.638501 -0.000271941
0.0913289 0.377647 -0.0823947 0.0812598 -0.0183395 -0.996524
-0.270391 -0.0786567 -0.000206305 -0.01554 0.0145058 0.999774
-0.00261355 -0.260641 0.000641813 0.0142742 -0.0717378 0.997321
0.417399 -0.10434 -0.000794898 0.0254798 -0.0376977 0.998964
0.205404 -0.231983 -0.0818235 -0.00505127 0.0303064 -0.999528
0.377458 -0.327168 -0.0741464 0.725695 -0.687549 0.0253508
0.198333 -0.386561 -0.0842354 -0.0162993 0.00238252 -0.999864
-0.261368 0.0510469 -0.0800773 -0.0725242 0.0642339 -0.995296
0.259225 -0.254856 -0.0643339 0.728384 -0.684569 0.0286691
0.184387 -0.46299 -0.00995574 -0.0207784 0.0543123 -0.998308
-0.0232875 -0.162088 0.0456404 0.134075 0.990804 0.0181884
-0.0308009 0.16279 0.0144193 0.197229 -0.980342 0.00541901
-0.115944 -0.233425 -0.00106309 0.0102092 -0.0117912 0.999878
0.026314 0.173152 0.0826887 -0.0544637 0.0904729 0.994409
0.0914032 -0.272911 -0.0824371 0.0231127 -0.027912 -0.999343
0.194463 -0.435022 -0.00109535 -0.00298736 0.0797639 0.996809
-0.22654 0.44683 -0.00543978 -0.451112 0.889238 0.0758585
0.495564 -0.0104237 -0.0118337 0.0782484 0.0827203 -0.993496
0.32262 -0.374962 -0.0101953 0.0144843 -0.0626416 -0.997931
-0.287543 0.118996 -0.0817619 0.0410756 -0.0587075 -0.99743
-0.222571 -0.43802 -0.0696651 -0.136593 -0.229085 0.963775
-0.0437967 -0.423677 -0.00901304 0.201212 0.979419 -0.0159081
-0.130235 -0.100812 0.00823331 0.769799 0.638254 0.00641625
0.205764 0.443254 0.00177429 0.0312931 -0.0270251 0.999145
-0.176872 -0.13783 -0.0831938 0.0119717 -0.00753642 -0.9999
0.402114 0.0182893 -0.0818272 -0.0530998 0.0763705 -0.995665
-0.186308 0.205117 0.000348065 0.0243122 -0.0116172 0.999637
-0.305145 0.0309176 -0.00113791 -0.040043 0.0519437 0.997847
-0.271313 -0.350666 0.000597421 -0.00979901 0.00585156 0.999935
-0.228669 -0.153889 -0.00137608 -0.0571366 0.0451796 0.997344
-0.490289 0.108437 -0.0042329 -0.975304 0.220859 0.00190616
0.120313 -0.0602752 -0.0833246 -0.0833197 0.0183785 -0.996353
0.482893 -0.130146 -0.000326933 0.987549 -0.148641 -0.0515023
-0.201798 0.318627 -0.0829014 0.020698 -0.135793 -0.990521
-0.389806 -0.110749 0.00120241 0.0064418 -0.00241728 0.999976
0.0664698 0.142385 -0.000233238 0.0032847 -0.00742997 0.999967
0.105844 -0.379818 -0.0834337 0.0387386 -0.0478136 -0.998105
0.389661 -0.160116 -0.000591191 -0.00833014 0.0114976 0.999899
0.390291 -0.288984 0.00226543 0.0153502 -0.0186928 0.999707
-0.405709 -0.259974 -0.0651156 -0.477277 -0.332146 0.813564
-0.0468219 -0.113324 -0.0262236 0.38039 0.924545 0.0228166
-0.0340213 0.229958 -0.0674267 -0.0164982 0.999863 0.00123722
-0.132919 -0.0365875 -0.0834249 -0.0974616 0.0500533 -0.99398
-0.180603 -0.136817 0.0676147 -0.750347 -0.661044 0.000533883
-0.321612 -0.354543 -0.0833537 0.0482088 -0.0116819 -0.998769
-0.475583 -0.0832991 -0.0824332 -0.0135596 0.00573347 -0.999892
0.252212 0.362847 -0.0827801 -0.000302265 0.000110007 -1
-0.0825017 -0.292749 -0.0157041 0.380229 0.924728 0.0174114
0.203149 0.14063 -0.0828932 0.0112068 -0.0405008 -0.999117
-0.0558528 0.229043 -0.0171205 -0.0766441 0.996131 0.0430063
0.083706 -0.140812 0.0815289 0.0120308 -0.0027612 0.999924
-0.100003 0.42521 -0.0828017 0.0645071 -0.0699303 -0.995464
0.229042 0.223867 -0.083298 -0.0574021 0.00420208 -0.998342
-0.0302624 -0.486281 -0.000438733 0.13182 -0.0223731 0.991021
0.322646 -0.155099 -0.000491793 0.0287848 -0.0737995 0.996858
0.154723 -0.314318 -0.0727763 0.999339 0.0239152 -0.027386
0.175436 0.116736 0.0840365 0.0474781 -0.00755176 0.998844
0.2312 -0.0650832 -0.0825882 -0.000148851 0.0228243 -0.999739
-0.178518 -0.0688964 -0.0826752 0.0227253 -0.0148184 -0.999632
-0.321031 -0.242603 0.000666279 0.00718948 -0.0366862 0.999301
0.428924 -0.218819 -0.0165546 0.568917 -0.3535 -0.742543
0.156853 -0.0289488 -0.000833638 -0.0435144 0.00886841 0.999013
0.234594 -0.251231 -0.00145566 -0.0121238 0.0130055 0.999842
-0.246115 -0.162525 -0.0822764 -7.03245e-05 0.000415339 -1
0.471489 -0.0653618 -3.01431e-05 0.0309178 -0.0236028 0.999243
-0.314328 0.173577 3.94528e-05 -0.0152114 0.0195084 0.999694
-0.00306952 0.425202 -0.00177488 -0.028372 0.0457256 0.998551
0.026232 0.498569 -0.00965158 0.0365288 0.0488477 -0.998138
-0.215632 0.305688 0.000340628 0.0341916 -0.0420223 0.998531
0.168064 0.149331 0.00268196 0.748816 0.662124 0.0294329
-0.201565 -0.357673 -0.0154031 0.569092 0.822266 -0.0035752
0.0800739 -0.264712 -4.50596e-05 -0.0790994 0.0709696 0.994337
0.451268 -0.213155 0.000420464 0.0469657 -0.0495525 0.997667
-0.172024 0.228615 -0.0793217 -0.00542738 0.00883895 -0.999946
0.0789243 0.210247 0.0583345 0.414648 0.904699 -0.0979133
0.160177 0.0359783 0.0711102 -0.983158 -0.180404 -0.0292362
0.382282 0.305157 0.00169739 -0.0852557 0.0113742 0.996294
-0.133581 0.293086 -0.0819544 -0.0188064 0.00654633 -0.999802
-0.400544 -0.137964 -0.082927 -0.0257388 0.0286292 -0.999259
0.0330741 0.377027 -0.000849393 -0.0339637 0.0470268 0.998316
-0.329598 -0.0375197 -0.080485 -0.0757371 0.00800811 -0.997096
-0.128619 -0.102592 0.0823963 -0.065907 0.00345438 0.99782
0.108792 0.202406 -0.0235383 0.581202 0.813732 -0.0066645
0.463223 -0.179402 -0.0818033 0.0273862 -0.0102217 -0.999573
-0.174638 0.262826 -0.0225458 0.471091 -0.880145 0.0584691
0.436194 0.191549 -0.0811628 -0.0217091 0.0269746 -0.9994
0.277206 0.170035 -0.0811412 -0.00441513 0.0611244 -0.99812
-0.120385 0.0290671 -0.0736537 0.97835 -0.206815 -0.00769511
-0.228609 0.418585 -0.0807752 0.0105716 -0.058448 -0.998234
-0.156988 0.161226 0.0386649 -0.714257 0.699466 -0.0241688
0.220968 -0.191039 -0.000572154 0.00409333 -0.000792912 0.999991
-0.339437 0.334987 -0.0618511 -0.551277 0.550005 0.627366
0.26462 -0.421547 -0.0833174 0.00756905 -0.00412463 -0.999963
0.276137 -0.344058 -0.0820135 0.00605642 -0.00896539 -0.999941
0.0135997 0.121837 -0.0455716 -0.120701 -0.992681 0.00393572
0.282074 -0.0644992 9.05868e-05 -0.0100198 0.067873 0.997644
0.105221 0.198676 0.0745132 0.477438 0.878662 0.00243932
-0.0854395 -0.143055 -0.0839497 -0.0547968 0.0242389 -0.998203
0.313606 0.102449 0.000605123 0.0226066 -0.00838401 0.999709
0.131704 0.267396 0.000485786 0.0152515 -0.0207984 0.999667
0.459971 -0.101488 -0.0501416 0.918853 -0.259108 0.29761
0.312191 0.34111 -0.0824873 -0.00359779 0.017146 -0.999847
0.29353 -0.213397 -0.027596 -0.15743 -0.987208 0.025208
-0.39417 0.146856 -0.000178242 -0.00015829 0.000342811 1
-0.333348 0.259825 0.0011271 0.0366909 -0.00543844 0.999312
0.224525 0.448108 -0.0818812 -0.0500286 0.000104384 -0.998748
-0.247443 0.18766 -0.00083512 0.0229265 -0.00179653 0.999736
-0.397596 -0.0166194 -0.0820291 3.06523e-05 -0.000357723 -1
0.186685 -0.0201243 -0.0816955 -0.0145406 0.0478021 -0.998751
0.492391 0.0725064 0.000671939 0.0219571 -0.0406013 0.998934
-0.47111 0.147032 -0.071958 -0.209344 0.0454907 0.976783
0.275529 0.299933 -0.0819818 -0.00639555 0.0263069 -0.999633
-0.133957 0.0937538 0.0501312 0.854705 -0.517575 -0.0399315
-0.309516 -0.294876 -0.0279505 0.999662 -0.0158107 0.0206486
-0.475962 -0.0327538 -0.0202022 -0.772972 -0.0571837 -0.631858
0.0729204 -0.464865 -0.0488027 0.147622 -0.945049 0.291701
-0.218065 0.44849 -0.00613777 -0.43147 0.901959 -0.0174249
0.269048 0.0468761 -0.000959691 -0.017311 0.0258232 0.999517
-0.0283894 -0.142174 -0.0803687 0.018035 -0.0238638 -0.999553
-0.445213 0.0862028 -0.0825137 0.0199598 -0.0184908 -0.99963
-0.455526 0.180458 -0.0129301 -0.326783 0.128494 -0.936324
-0.0717928 -0.147317 0.0760329 0.402115 0.915589 2.37539e-05
0.0209751 -0.424682 -0.0472153 0.440598 0.897693 -0.00460086
-0.223944 0.375881 -0.000434989 -0.0711208 0.0366436 0.996794
-0.491461 0.0391634 0.000520005 -0.0630303 0.0241682 0.997719
0.316695 -0.38732 -0.0782486 0.658436 -0.752289 -0.0228819
0.218643 -0.300136 -0.0850957 0.512023 0.857304 -0.0534912
-0.402425 -0.0738145 -0.0808914 -0.0345243 0.00134937 -0.999403
0.0591107 0.43742 -1.38506e-05 0.024888 -0.0214213 0.999461
0.11979 0.352163 -0.000653319 -0.0316303 0.0608246 0.997647
0.0842529 0.492848 -0.0808099 0.153252 0.988183 -0.00303575
-0.344704 0.326268 -0.000908956 -0.013485 0.00342307 0.999903
0.0409768 -0.117758 -0.0823329 -0.0115951 0.0417525 -0.999061
-0.337462 0.0253352 -0.0839878 0.128616 -0.0403908 -0.990872
0.0314616 0.318918 -0.0264359 0.0447402 -0.992128 -0.116965
-0.175504 -0.236105 -0.0442669 -0.54082 -0.838233 0.0698513
0.128592 0.36428 -0.000313751 0.0587917 -0.0339528 0.997693
0.0312625 -0.356966 -0.0819579 -0.0156822 0.0191309 -0.999694
0.346414 0.245413 -0.081905 0.0639193 -0.0677936 -0.99565
-0.307882 -0.393374 0.00255109 -0.644285 -0.764172 0.0306136
-0.381869 -0.189877 -5.05496e-05 -0.0153589 0.0239204 0.999596
0.227103 0.104082 -0.000604792 0.0198269 -0.0269959 0.999439
0.0276473 0.223395 0.00289393 0.110389 0.993881 -0.00393572
0.368392 0.317303 -0.0828967 0.0150557 -0.010235 -0.999834
0.208675 -0.0851115 0.0573374 0.930566 -0.366122 0.0007994
0.303405 0.247837 0.0018835 0.0134226 -0.0273025 0.999537
-0.0461473 -0.221404 0.0362373 -0.157943 -0.987443 -0.00334362
0.427767 0.192263 -0.0826331 0.043396 -0.0219888 -0.998816
0.326862 -0.374771 -0.0116664 0.0740745 -0.0903782 -0.993149
0.196676 0.0403322 -0.0823526 -0.00083917 0.00623796 -0.99998
0.18779 0.20634 -0.0471907 0.721498 -0.685192 -0.099762
-0.0962935 -0.348106 -0.06241 -0.965147 -0.261171 0.0167485
0.186472 0.25863 -0.0143182 -0.459421 -0.888184 -0.00786552
-0.301862 0.397905 -0.0748456 -0.604627 0.7942 0.0605995
0.324206 -0.232627 -0.0826319 -0.00900136 0.0421019 -0.999073
-0.306565 -0.0980701 -0.0816702 -0.0383053 0.0595931 -0.997488
-0.191959 -0.313185 -0.0833787 0.00260719 -0.00311108 -0.999992
0.119829 0.0206185 -0.0721209 -0.983153 -0.182574 0.00882264
-0.0411647 0.496241 2.38453e-05 -0.0385519 0.0179799 0.999095
-0.0889004 0.207431 0.0367078 -0.398595 0.916437 0.0355759
-0.186596 -0.0528337 0.0836185 -0.00919691 0.0335405 0.999395
-0.197148 0.122399 0.00129303 0.0206261 -0.0178454 0.999628
0.351699 -0.0596562 -0.0819457 0.0518296 -0.0240755 -0.998366
0.0166672 -0.260867 -0.0813833 -0.00905056 0.0261508 -0.999617
0.423262 0.0474782 -0.000487705 0.0107188 -0.00649141 0.999921
-0.103655 -0.454216 0.00123627 0.0367629 -0.0185294 0.999152
0.0455075 -0.22003 -0.000395659 0.0257636 -0.00512982 0.999655
0.415285 -0.0373046 -0.00063402 -0.0605369 0.0269282 0.997803
0.312072 -0.0206998 -5.15703e-05 -0.0238573 0.0106215 0.999659
0.114195 0.118704 0.0376756 -0.718563 -0.695389 -0.010109
-0.0894799 0.137387 0.0413718 0.537837 -0.842632 0.0265212
-0.0717234 0.268404 -0.0815453 0.00256426 -0.00201457 -0.999995
0.158152 -0.159097 0.0648121 0.724628 -0.686869 -0.0559045
-0.050057 0.159003 0.0824223 0.0037722 -0.0028113 0.999989
0.20309 0.373728 -0.000775788 0.0277769 -0.0677342 0.997317
0.293229 0.241123 -0.0807233 -0.0274375 0.00806116 -0.999591
-0.181906 0.235081 -0.0811583 -0.0247013 0.00157067 -0.999694
0.0973807 0.301392 -0.0374014 -0.285272 -0.958421 -0.00697293
0.192416 0.128165 -0.08355 -0.00069905 0.00682293 -0.999976
-0.104216 -0.279688 -0.0728516 -0.214509 -0.976679 0.00914074
0.399998 -0.196595 -0.082144 0.034543 -0.0248773 -0.999094
-0.150936 -0.457047 -0.0644468 -0.180675 -0.597868 0.780967
-0.228962 -0.278401 -0.0204666 0.939107 -0.343563 -0.00655906
-0.0300434 0.351199 0.000503629 0.0254564 -0.0371906 0.998984
0.113913 0.486081 0.00104468 0.0443928 -0.0190534 0.998832
0.0578757 0.272812 -0.000635885 -0.0115371 0.0469834 0.998829
-0.0383285 0.15644 -0.0818828 0.000162509 -4.67006e-05 -1
-0.280735 0.115028 0.000493181 -0.0128019 0.00948063 0.999873
-0.0256947 0.224167 0.0543956 -0.0736541 0.997118 -0.018193
-0.354778 -0.349672 -0.0014899 0.00158966 -0.00731546 0.999972
-0.12815 0.180027 0.0814876 0.00670536 -0.0252888 0.999658
-0.102943 -0.20029 0.0655851 -0.496279 -0.867968 0.018409
-0.0908114 0.406444 -4.48897e-05 0.0185267 -0.0308201 0.999353
-0.244105 -0.157605 -0.0819711 0.0723398 -0.000503034 -0.99738
-0.0296113 -0.319207 -0.0819724 -0.0571907 0.072193 -0.99575
0.168626 -0.378738 -0.0244785 -0.550524 0.834488 -0.0235331
-0.166708 -0.471451 -0.00370659 -0.38908 -0.92097 -0.020742
0.0290542 0.160378 0.0819327 -0.151145 -0.988512 -6.12513e-05
0.120897 0.193697 -0.0112858 0.639875 0.76844 0.00771978
0.41036 0.0154418 -0.0835864 0.00288508 -0.00169476 -0.999994
-0.450435 0.222206 -0.0754911 -0.89975 0.434283 0.0429866
0.0890406 -0.0861279 -0.0319686 -0.725518 0.687607 0.0286416
0.153851 0.446724 -0.0279388 0.239288 0.890877 -0.386108
0.165911 -0.243534 -0.0176502 0.523603 -0.851895 -0.0107158
-0.222958 -0.0109586 0.0668315 -0.998977 -0.0450721 0.00361935
-0.170464 -0.391223 -0.0802822 -0.000964071 0.0126815 -0.999919
0.0244282 -0.18857 0.0839573 -0.00738516 0.0035623 0.999966
-0.424514 0.0127885 0.000155574 0.0381194 -0.00554452 0.999258
0.336105 -0.253437 -0.000552233 -0.0422701 0.0401251 0.9983
-0.340236 0.226536 -0.0816728 0.0197729 -0.0151348 -0.99969
0.194002 0.112254 0.0795431 0.8602 0.509765 -0.0140126
0.266351 0.150729 -0.081545 -0.00551579 0.00626179 -0.999965
0.4732 0.0492794 -0.0810224 -0.0185667 0.0417496 -0.998956
0.302398 0.0086301 -0.080872 -0.00847082 0.00493118 -0.999952
-0.0901364 -0.0823905 -0.0661044 0.727433 0.686174 0.00252209
-0.158727 0.139566 -0.0817083 -0.0118465 0.0378732 -0.999212
-0.196206 0.109631 0.070779 -0.859087 0.511093 -0.027466
-0.108796 0.489463 -0.0765907 -0.237614 0.971188 0.0182755
-0.270561 0.300488 -0.0824086 0.0494455 -0.000365426 -0.998777
-0.455434 -0.0159253 -0.0828025 0.0663573 -0.0370811 -0.997107
-0.0352557 -0.385918 -0.0648798 0.749962 0.661478 -0.00165444
-0.379185 -0.286323 7.63755e-05 -0.0383225 0.0339353 0.998689
-0.316591 -0.162965 0.00017699 0.00585073 -0.0021535 0.999981
0.291656 0.00604988 -0.0836554 -0.0164981 0.0387648 -0.999112
0.223864 -0.0532068 0.000955728 -0.0339553 0.00951218 0.999378
0.0266997 0.408534 -0.0827542 0.000496459 -0.0162204 -0.999868
-0.0409702 -0.217611 -0.0836448 -0.00402469 0.00216144 -0.99999
0.426485 0.257865 -0.0100341 0.0891464 0.0186814 -0.995843
0.254625 0.0727138 -0.082415 -0.0184264 0.0701249 -0.997368
0.129452 0.0968587 -0.0822723 -0.0814315 0.0233923 -0.996404
-0.381498 -0.205591 -0.08293 -0.0250312 0.00560117 -0.999671
0.278162 0.329653 0.00134178 -0.000608388 0.0135564 0.999908
-0.247349 -0.411741 0.00142482 -0.00375875 0.0103657 0.999939
-0.0663445 0.465712 -0.0373146 -0.0819402 0.981955 -0.170439
0.132494 -0.0974767 0.0778491 -0.814391 0.580251 0.00867937
-0.112077 -0.23262 -0.000658588 0.110998 -0.0806463 0.990543
0.000111315 0.470429 -0.0835239 0.00866355 -0.0766861 -0.997018
-0.243431 0.178272 -0.083237 0.0156502 -0.0307553 -0.999404
0.112579 0.160901 -0.0816361 -0.0136528 0.0197755 -0.999711
-0.115218 0.0454069 -0.00228993 0.00586572 -0.00454106 0.999972
0.351737 -0.325386 -0.0822134 0.0302815 -0.00875639 -0.999503
-0.228962 -0.220041 -0.00340285 0.336573 0.941466 0.0189885
0.120805 -0.151308 -0.0821225 0.0017355 -0.00144465 -0.999997
-0.25534 0.351045 -0.0855348 -0.014197 0.0471243 -0.998788
-0.217966 0.0876363 -0.000873473 -0.0109762 0.0232531 0.999669
-0.160066 0.353711 0.000452108 -0.0141458 0.039442 0.999122
0.312768 0.178427 0.000913392 0.0709016 -0.0560939 0.995905
0.000752347 0.349683 -0.0803499 0.0281309 -0.010171 -0.999553
0.493932 -0.019247 -0.0823695 -0.0124223 0.0217356 -0.999687
0.161291 -0.0319159 0.0821344 -0.00300381 0.0133707 0.999906
-0.218596 -0.254036 -0.0804617 0.937464 -0.348029 -0.0060288
0.442869 0.113155 0.000524915 0.0383747 -0.0359203 0.998618
-0.189734 0.02026 -0.0820505 -0.0255462 0.0238734 -0.999389
0.270907 -0.409956 0.0010054 0.00798565 -0.00756975 0.999939
-0.136313 0.0919145 -0.0817975 0.00723265 -0.0101815 -0.999922
0.395426 -0.28192 -0.0142987 0.35598 -0.311444 -0.881068
-0.0774172 0.14256 -0.0838061 0.0113083 -0.00576639 -0.999919
0.411384 0.260048 -0.0810103 -0.0247158 0.0141759 -0.999594
-0.199966 0.0951606 -0.0816063 0.0385762 -0.0492555 -0.998041
-0.125996 0.0467514 0.00136885 0.000179826 -0.0281827 0.999603
-0.00981284 0.288667 0.00110295 -0.0213635 0.0035978 0.999765
0.00321532 -0.123567 -0.00164771 -0.0488904 0.997948 -0.0413364
-0.158961 0.413199 -0.00049709 -0.00933387 0.0152734 0.99984
-0.256301 -0.378115 -0.0815644 0.0364129 -0.0529828 -0.997931
0.0286005 -0.36997 -0.00453975 -0.941276 -0.337628 -0.00273944
-0.432981 -0.0614013 -0.00082956 0.0297979 -0.0118859 0.999485
0.171929 0.348755 -0.0838286 -0.0642959 0.00597232 -0.997913
0.261446 -0.145938 0.00186992 0.0026689 -0.00343671 0.999991
0.436793 0.245187 -0.0087493 0.822241 0.567015 -0.0491395
-0.332479 -0.246754 -0.0819207 0.0794642 -0.0184427 -0.996667
-0.0597438 -0.360433 0.000740126 -0.0107612 0.0056988 0.999926
-0.385845 -0.319561 -0.0737398 -0.766141 -0.642548 0.012604
0.350211 0.0429665 0.000740753 -0.000302083 0.0509952 0.998699
-0.174206 -0.41862 0.000171927 -0.0057087 0.00181728 0.999982
0.150129 -0.216699 -0.0824582 -0.00502038 0.0043685 -0.999978
0.0959722 -0.204001 0.054747 0.44007 -0.897962 -0.00156153
0.465569 0.164678 -0.0118546 0.121625 0.0832995 -0.989075
0.00798579 0.284329 -0.081617 0.0158715 -0.00994414 -0.999825
0.195731 -0.460435 -0.0749004 0.318894 -0.946294 0.0532307
0.400326 0.180049 -0.000917951 0.00152973 -0.00140034 0.999998
0.0650197 -0.207521 -0.0797991 -0.029671 0.0437735 -0.998601
-0.182799 -0.201168 -0.0808597 -0.0390559 0.0523723 -0.997864
-0.0345841 0.398581 -0.079858 0.0589506 -0.0839828 -0.994722
-0.273291 0.222362 -0.0823101 -0.039637 0.0748158 -0.996409
0.233151 0.441645 -0.077442 0.543792 0.838308 -0.0391088
-0.212192 -0.0711918 0.027974 -0.972084 -0.232493 -0.031611
-0.282053 -0.225831 -0.0492541 -0.0992067 0.994362 -0.0374384
-0.152503 -0.163627 0.00922824 -0.662817 -0.74876 0.00567226
-0.434529 -0.145312 0.000533566 -0.0235473 0.00624925 0.999703
0.02601 -0.491278 -0.000285663 0.0142429 -0.0439943 0.99893
0.330435 -0.134699 -0.0819936 -0.0232291 0.0514474 -0.998406
0.270878 0.414863 0.000528833 0.0116106 -0.0565471 0.998332
-0.122838 -0.385115 -0.026257 -0.314774 -0.949167 0.000140022
-0.163254 -0.00513908 0.025868 0.994598 0.0969806 -0.0369988
0.124742 -0.455872 -0.0816458 0.0298451 -0.0487932 -0.998363
0.136792 -0.187419 0.00285516 -0.0104585 0.0122095 0.999871
0.0879584 0.086088 -0.0362865 -0.727385 -0.68623 0.00040916
-0.233446 -0.0430441 -0.0801253 0.0399135 -0.127326 -0.991058
-0.093073 -0.490333 -0.0781841 -0.232578 -0.972565 0.00505823
-0.26133 -0.312647 -0.061543 0.999882 0.0152986 -0.00156422
-0.25721 0.0258262 -0.0818311 -0.0417723 0.0406925 -0.998298
-0.340891 0.0987903 0.000167947 0.00983851 -0.0686241 0.997594
0.132725 -0.0968251 0.0173019 -0.805462 0.59261 -0.00667989
0.154112 0.0592964 0.00110502 -0.944523 -0.328183 -0.0130913
0.00864432 -0.493278 -0.0705015 0.00644225 -0.131373 0.991312
0.250278 0.300124 -0.00309332 -0.027812 0.0374856 0.99891
-0.44714 -0.224073 -0.0714534 0.00725477 -0.0462993 0.998901
-0.17181 0.453472 -0.0841901 -0.00941714 0.0111568 -0.999893
0.128204 0.438513 -0.0814691 0.00647862 -0.039166 -0.999212
0.0966493 -0.396177 -0.0101453 0.401246 -0.915635 -0.0247898
0.0528883 0.316282 -0.0822748 0.0151155 -0.0117682 -0.999816
0.100096 0.180757 -0.0832021 -0.0191118 0.0130308 -0.999732
0.350097 -0.0910198 -0.00218421 -0.0408288 0.00454872 0.999156
-0.244848 -0.00970335 0.000837274 0.0367918 -0.0604462 0.997493
0.446332 0.125526 -0.0829699 0.00771025 -0.00923 -0.999928
-0.450661 0.18123 3.75985e-06 0.00938627 -0.00290528 0.999952
0.102642 -0.32707 -0.000845801 0.963618 -0.267249 0.00435031
-0.114454 0.479264 0.000954262 -0.00205382 0.00903047 0.999957
-0.0757857 0.0988353 -0.0160316 0.565968 -0.823841 0.0310903
0.00815906 0.122777 -0.0404431 -0.0218959 -0.998753 -0.0448742
0.224403 0.00658023 0.0330587 0.988174 0.0600975 -0.141072
0.377816 0.107769 6.87789e-05 -0.0373898 0.00562041 0.999285
-0.102683 -0.409441 -0.0804313 0.00190255 -0.000500335 -0.999998
0.410482 -0.255605 -0.0820345 -0.00979383 0.00896697 -0.999912
-0.488151 -0.0914742 -0.00960204 -0.096036 -0.0494148 -0.994151
-0.222522 -0.436798 -0.069382 -0.125102 -0.239812 0.962725
0.0512452 -0.300176 -0.034675 -0.0158912 0.999563 0.0249163
0.219812 0.0506066 0.0807662 0.0290823 -0.05357 0.998141
-0.393411 0.273473 -0.0834083 0.00335945 -0.00337791 -0.999989
0.0454819 0.229273 -0.0658081 -0.0513081 0.998601 0.0127791
-0.398834 0.302668 -0.00772811 -0.812553 0.582887 0.000393866
0.0986977 0.363042 -0.0816686 -0.00113289 0.00590548 -0.999982
-0.101118 0.253784 0.00104233 0.0239836 -0.0174909 0.999559
0.030259 -0.185648 0.0807507 -0.00548876 0.0236883 0.999704
-0.0361242 -0.318443 -0.0822286 0.014992 -0.00328637 -0.999882
0.354908 0.164371 -0.0815117 -0.0186533 0.0184999 -0.999655
0.403254 -0.137685 -0.0805984 0.0555709 -0.00855719 -0.998418
0.49459 0.0591779 -0.0816988 0.00766615 -0.00693052 -0.999947
-0.126182 -0.223258 -0.0832473 0.000352784 -0.00415061 -0.999991
0.195025 -0.156663 -0.082445 0.0200053 -0.0129422 -0.999716
0.289702 0.397973 0.000588328 0.00196288 -0.0163974 0.999864
0.147588 -0.0336929 -0.0013041 0.00170301 -0.00165984 0.999997
0.0760774 -0.207526 -0.08212 -0.0476044 0.0138202 -0.998771
0.0791044 -0.143258 -0.00032602 -0.462345 0.886174 -0.0305414
0.229436 0.197301 -0.00101202 -0.0141734 0.0434933 0.998953
0.310653 -0.282024 -0.0538785 -0.999252 0.00638626 -0.038143
0.298113 -0.31237 -0.00216283 0.523495 0.852024 -0.0027667
-0.162301 0.0376159 0.0825645 0.0017579 -0.00786132 0.999968
0.465156 -0.180829 -0.0723243 0.922043 -0.384269 0.0466308
0.100035 -0.394348 -0.0157187 0.344515 -0.937628 0.0465024
-0.398759 0.0418123 -0.0808822 -0.0257141 0.0240944 -0.999379
-0.336135 -0.102754 -0.000900407 -0.0093799 0.00654051 0.999935
-0.436233 -0.240666 0.0012384 -0.0947922 0.0168428 0.995355
0.262808 -0.12862 -0.0804417 -0.0258694 0.0262225 -0.999321
0.322587 0.0970008 -0.0822284 0.0330305 -0.0138366 -0.999359
-0.223782 -0.132207 -9.48483e-05 -0.000784613 0.00020849 1
