ply
format ascii 1.0
comment Created by Open3D
element vertex 400
property double x
property double y
property double z
property double nx
property double ny
property double nz
end_header
0.0612328 0.297377 0.00860009 -0.000337582 0.999993 0.00369829
0.10767 0.168916 0.300185 0.999449 0.0315283 -0.0103877
0.0608657 0.295803 0.123535 -0.997083 0.0293187 -0.0704724
-0.17683 0.196748 -0.337871 -0.998027 -0.000940472 0.0627748
-0.00761084 -0.0485095 0.22204 -0.00838197 0.625446 -0.780223
-0.0138742 0.24322 -0.0815073 0.240489 0.00751306 0.970623
-0.0202854 0.12614 0.238503 0.0682329 -0.805514 -0.588635
-0.112298 0.129105 -0.0161038 -0.00707183 -0.99699 0.0772082
0.180341 0.25562 -0.199284 0.99987 -0.0160871 0.00105391
0.155173 -0.0807983 0.262888 0.0174198 -0.0510771 -0.998543
0.174363 -0.126864 0.29885 0.0259198 -0.345365 0.93811
-0.172413 0.129975 -0.00304422 -0.00789159 -0.999693 0.0234891
0.0554922 0.265534 -0.501281 0.00202202 -0.0044004 -0.999988
0.0589452 -0.107001 0.28156 0.999878 -0.00803852 0.0133677
-0.167556 -0.127892 0.429071 -0.0236017 0.0213102 0.999494
-0.0699073 -0.0373387 0.316511 0.999904 0.00316447 -0.0134998
0.153021 0.297493 0.0530717 0.0215315 0.998961 -0.0401699
0.0721491 -0.090305 0.34177 -0.999838 0.00900018 -0.0155876
-0.010578 0.059144 0.265595 0.00215711 -0.999996 -0.00155969
-0.0511784 0.29739 0.260696 0.00820714 0.999764 -0.0201021
-0.0475718 -0.135018 0.298532 -0.0427828 -0.110084 0.993001
0.108239 0.297138 0.1649 -0.020608 0.999464 0.025437
0.107118 0.256661 0.332205 0.999891 0.00521147 -0.0138313
-0.0938058 0.131768 0.146011 -0.0127949 -0.999592 0.0255303
-0.167582 0.15535 0.427881 -0.01043 0.0112046 0.999883
0.106122 0.131859 -0.0739615 0.0626133 -0.997627 -0.0286419
0.0362305 0.177621 -0.311992 -0.481673 0.00119341 -0.87635
-0.0583187 0.295773 -0.00844865 0.999981 -0.00285599 0.00550279
0.0649137 0.298615 -0.211682 -0.0177577 0.999768 0.01218
-0.169471 0.297641 -0.0137804 -0.0133468 0.995981 0.0885702
-0.0258715 -0.168944 0.192956 -0.0102528 -0.163128 -0.986552
0.0606148 -0.240071 0.324772 0.999964 -0.00366825 0.00766413
0.0588629 -0.14749 0.257123 0.998977 0.0020161 -0.0451685
-0.066013 0.130638 0.0793925 -0.00917208 -0.999913 0.00951417
0.0453971 0.123461 0.428114 -0.0142398 0.0801364 0.996682
-0.16083 0.239867 -0.500579 -0.0182549 0.00857067 -0.999797
-0.149002 0.297558 -0.495936 0.0186762 0.999717 -0.0147685
-0.0788691 0.190805 0.363556 0.00741423 0.987876 -0.155067
0.174851 0.131113 -0.306587 0.00189993 -0.999399 -0.0346186
-0.177556 -0.18753 0.426426 -0.999778 -0.0209641 0.00213744
0.167269 0.29839 -0.160452 -0.00444196 0.998802 0.0487267
0.155655 0.130752 -0.0364358 0.0260147 -0.999447 -0.0207202
-0.00442377 0.132782 -0.0942832 -0.0226482 -0.999637 0.0145696
0.121041 0.298035 -0.295163 -0.0013634 0.999989 0.0045287
0.106164 0.129581 -0.303561 0.00410614 -0.999982 -0.00434043
0.139657 0.153545 0.352784 -0.0275787 0.999571 0.00986145
-0.0640472 0.296975 -0.0714265 0.0605675 0.99763 -0.0326403
0.0602945 0.247314 -0.00585304 -0.999574 0.0221168 -0.0190298
0.0272957 0.0584381 0.313772 0.00573545 -0.999976 -0.00381185
-0.0435592 0.132034 -0.234669 -0.0280306 -0.997197 0.0693688
-0.0543652 0.245572 -0.0507815 0.890154 0.00417297 0.45564
0.178255 0.0197103 0.33713 0.999831 -0.0182304 0.00246988
-0.129152 -0.166155 0.260989 0.00597857 -0.0392814 -0.99921
-0.125322 -0.12131 0.303414 -0.00848124 -0.402892 0.915208
0.135298 0.296188 -0.119435 -0.00346419 0.999797 0.0198453
-0.0141194 -0.296981 0.340551 0.0555194 -0.996326 -0.0652116
-0.0594269 0.182969 0.128246 0.99993 -0.0112343 0.00363143
-0.00763221 -0.256018 0.236553 -0.0452922 -0.670513 -0.740514
0.0709485 0.0179536 0.30612 -0.999894 -0.00101336 0.0145387
-0.0660352 0.135533 -0.340201 0.845009 0.0095757 -0.534666
-0.111814 0.00629767 0.259954 0.00144436 -0.00551673 -0.999984
0.0990288 0.158982 0.429972 -0.0196675 0.00822267 0.999773
-0.178423 -0.0595102 0.364079 -0.999228 0.00872382 -0.0383132
0.0291603 0.238754 0.324315 -0.0602951 -0.362788 0.929919
-0.0260579 0.179673 0.21959 0.473426 -0.0193505 -0.880621
-0.059708 -0.0956258 0.335183 0.0153552 -0.984981 0.171978
0.0859541 0.245291 0.428184 -0.0424308 0.0361087 0.998447
0.101598 0.128865 -0.00097405 -0.0208322 -0.998878 0.0425205
-0.178263 0.200844 -0.0620587 -0.997544 0.0246919 -0.0655453
0.0600947 0.19232 0.0794205 -0.999419 -0.0167718 0.0296578
-0.178868 0.220602 0.308087 -0.996848 -0.0666518 0.043026
-0.178774 0.253135 -0.0449674 -0.998111 0.0475091 -0.0389428
-0.0414082 -0.0988044 0.493059 0.0367469 0.23372 0.971609
0.158371 0.296785 0.127921 -0.0464109 0.998222 0.0374108
0.0577995 -0.105693 0.194755 0.99906 -0.0266161 0.0342191
0.0730859 0.129246 0.206984 0.00805314 -0.999834 -0.0163652
-0.0240003 0.175681 -0.0762773 0.419909 -0.0170429 0.907406
0.0602746 -0.169416 0.49549 0.999717 0.0135032 -0.019572
-0.0701183 -0.201596 0.366412 0.999635 -0.0231877 0.0138886
0.178023 0.227919 -0.364273 0.999159 0.0297766 -0.0281858
-0.00873999 0.242017 0.223035 0.169085 -0.0102122 -0.985549
-0.179627 0.204797 0.0205785 -0.998546 -0.0287005 0.0456376
0.177838 0.147043 -0.239772 0.998216 0.0526306 -0.028191
0.00393406 0.191051 0.349575 -0.0317199 0.969439 0.243272
0.0597283 0.262572 0.160191 -0.999248 0.00080881 -0.0387717
0.00582027 -0.165737 0.302637 -0.000358355 -0.5009 -0.865505
0.10427 -0.18475 0.320372 0.000657333 -0.853993 -0.520284
0.178089 0.222472 -0.0525519 0.997617 0.0680418 -0.0114706
-0.0680415 0.299467 -0.163656 0.0403343 0.998267 -0.0428449
0.153399 -0.170343 0.314375 0.869584 -0.348272 -0.350042
0.114829 0.297426 -0.443925 0.0345251 0.999085 -0.0252513
-0.105895 0.297996 0.318593 -0.00079541 0.999997 0.00217537
-0.017285 0.059591 0.396701 -0.0113233 -0.999918 0.00597501
0.178283 0.227319 -0.495145 0.999659 -0.0181639 0.0187482
-0.0650914 0.0603862 0.368244 0.0650108 -0.997871 -0.00510809
0.179944 0.236077 -0.114299 0.999127 -0.0195092 0.0369286
0.103836 0.234067 -0.499694 -0.00071878 0.00251316 -0.999997
0.122838 0.13132 -0.250269 0.0653658 -0.997364 -0.0314962
-0.0604681 -0.261588 0.294949 -0.99789 -0.0496036 0.0418884
0.0925642 -0.2273 0.410593 0.0182679 -0.995977 -0.0877272
-0.0574428 0.178739 -0.429965 0.746702 0.0166237 0.664951
-0.126539 0.00903915 0.429481 -0.00379547 0.0248216 0.999685
-0.179311 -0.169023 0.301021 -0.999656 -0.0204752 0.0164057
0.0725226 0.296951 0.334868 0.0414991 0.994934 -0.0915634
0.178075 0.134977 0.236579 0.9991 0.0406793 -0.012034
-0.17951 0.196622 -0.478534 -0.997494 -0.0707084 0.00253251
0.147823 0.298414 -0.226975 0.042707 0.998044 -0.0456457
0.105827 0.298182 -0.0204832 0.00461039 0.997524 -0.0701813
0.0594086 -0.105295 0.447861 0.999697 0.00133089 -0.0245775
0.101232 -0.159069 0.429046 0.0276336 -0.00589961 0.999601
0.0235891 0.201058 -0.0769273 -0.391774 0.00378099 0.920054
-0.132475 0.129395 -0.232241 -0.00500504 -0.999984 0.00275632
-0.0429968 0.297681 -0.475689 0.00324944 0.99993 -0.0113954
0.0732219 0.131998 -0.253124 -0.0518673 -0.998479 0.0187106
0.0554236 0.130331 -0.180547 -0.00928591 -0.999807 0.0173059
0.177403 -0.066182 0.370435 0.999993 0.00172897 -0.00316478
-0.138352 0.132332 0.0915423 0.013836 -0.999904 -0.000634173
0.0500217 -0.0224201 0.247541 0.0154261 0.75787 -0.652223
0.0434143 0.236891 0.391871 0.0176879 -0.285723 -0.958149
0.179329 0.232707 0.202494 0.999914 0.011759 -0.00576421
-0.152642 -0.127765 0.357265 -0.997953 -0.0182897 0.0612803
0.178066 0.238408 -0.44579 0.99896 0.0259805 -0.0374602
-0.0388143 -0.184017 0.324258 0.0262539 -0.890679 -0.453874
-0.00184652 0.263088 0.428033 -0.00330225 0.286177 0.958171
-0.108662 0.297323 -0.117397 -0.0264521 0.998944 0.0375531
0.00676788 0.297128 -0.419956 0.0547467 0.998484 -0.00565786
-0.178675 0.283235 0.321182 -0.999062 0.0250514 -0.0353226
-0.0936004 0.139007 0.427283 0.00540764 -0.0110095 0.999925
0.133432 0.229345 0.283828 0.00528847 -0.00286831 0.999982
0.151674 0.298778 -0.345003 0.00234689 0.999961 -0.00855597
-0.102769 0.132666 -0.176733 -0.000219011 -0.999643 0.0267045
0.0573868 -0.275017 0.423593 -0.00739094 -0.842335 0.538904
-0.153322 -0.0492955 0.4279 0.0695877 -0.032642 0.997042
0.0583604 -0.216162 0.216806 0.996151 -0.0864039 0.0147435
-0.147482 0.296041 0.368153 -0.00617087 0.999975 0.0034553
-0.146919 0.0521858 0.262389 0.00653009 -0.00412299 -0.99997
-0.0882426 0.156664 -0.500457 -0.0520679 0.0393973 -0.997866
0.117516 0.132064 0.115565 -0.0291131 -0.999535 0.00901897
-0.178007 0.154809 -0.269142 -0.999999 0.000724021 -0.0012582
-0.130655 0.225707 0.321366 0.0520856 -0.0133613 0.998553
0.153562 -0.20297 0.261177 0.0470236 -0.00112609 -0.998893
-0.123114 0.296789 0.113386 -0.0245997 0.999041 0.036229
-0.177727 0.140474 0.223393 -0.999462 -0.024179 0.0221416
0.178188 0.191036 0.260163 0.999009 0.0388412 -0.0217391
-0.0671997 -0.133819 0.392349 0.0235638 0.173435 0.984563
-0.05912 0.26194 0.142887 0.99813 -0.0593162 0.0147681
0.0613262 -0.0451369 0.30555 0.999723 0.0209323 -0.0107797
-0.179315 -0.012513 0.262236 -0.998244 0.0490742 -0.0331845
-0.0839571 -0.0914194 0.261912 -0.00729143 0.0257779 -0.999641
-0.178311 0.272112 0.040654 -0.99658 -0.055233 0.0614631
0.1228 0.109517 0.428786 0.0255188 -0.0239843 0.999387
0.171779 0.296436 0.28443 0.00870393 0.999896 -0.011496
-0.0923623 0.297967 -0.236728 0.000364743 1 -0.000391811
0.0596746 0.215937 0.128312 -0.999813 0.0139591 -0.0134177
0.0526053 0.132539 -0.111594 -0.031805 -0.999096 0.0282093
0.0591533 -0.0666156 0.40814 0.998584 0.0328747 -0.0418339
0.106093 0.295901 0.381793 0.998114 0.0180494 -0.0586755
0.0574801 0.171715 0.168017 -0.998058 0.0435827 -0.0445108
0.00474488 0.00611907 0.303878 -0.026234 0.975087 -0.220266
-0.178583 0.195118 0.207579 -0.999951 -0.00535186 0.00835061
-0.0656482 0.129213 -0.0626035 -0.0062658 -0.999949 0.00790604
0.163557 -0.225573 0.327352 0.020955 -0.999476 -0.0246854
0.145285 0.284558 -0.498892 -0.00278837 0.00644298 -0.999975
0.174002 0.298574 -0.399538 -0.0175328 0.998458 0.0526757
-0.161838 0.132268 -0.0963825 0.0366224 -0.997611 -0.0585692
0.179045 0.0219806 0.263119 0.998278 -0.0186155 0.0556334
-0.0601377 0.201567 -0.0310785 0.997973 0.00375083 0.0635327
-0.060777 -0.194429 0.274186 -0.999999 -0.000827264 0.000984071
-0.0547659 -0.246867 0.460909 -0.0195089 -0.647679 0.761663
-0.177945 0.283522 0.110881 -0.999995 -0.00309351 1.59195e-05
0.179152 0.181863 -0.0816991 0.999884 -0.015197 0.000536892
0.14038 -0.221541 0.427523 0.00784302 -0.0790482 0.99684
0.0768279 0.297215 -0.27005 -0.0731848 0.996838 0.0309595
-0.0407549 0.131147 -0.177902 -0.0299321 -0.999552 0.000412316
0.154005 -0.136251 0.38196 0.95231 0.0734722 0.296153
-0.180252 0.242465 -0.386496 -0.99199 -0.0584409 0.111984
0.00990991 -0.247756 0.458611 0.07183 -0.739537 0.669272
-0.0687824 0.299336 -0.286821 -0.0678494 0.9971 0.0344745
0.126683 0.129828 0.167162 -0.00296247 -0.999995 0.000936559
0.0645752 0.297547 0.265654 0.012631 0.999908 -0.00502324
0.098845 -0.13454 0.299313 -0.0562167 0.158274 -0.985794
-0.167539 -0.227133 0.391575 -0.0121916 -0.993285 0.115046
0.0832007 0.129581 -0.394853 -0.0393845 -0.999036 0.0193662
-0.0052134 -0.284245 0.279233 -0.0677586 -0.923173 -0.378367
0.178245 0.184252 0.141572 0.998814 0.0479702 -0.00834397
-0.0590094 -0.264687 0.344922 -0.997171 0.0653679 -0.037115
0.178729 0.2867 -0.29803 0.99986 0.0149145 -0.00753981
-0.116282 0.299753 0.0268139 0.00321056 0.999216 -0.0394561
-0.179081 -0.0187366 0.314856 -0.998529 -0.0437378 0.0320496
0.0457027 0.221589 0.204767 -0.775874 0.000658766 -0.630888
-0.180097 -0.0108014 0.379051 -0.99979 0.0135582 -0.0153589
-0.150921 0.298896 -0.383556 0.0186 0.999699 -0.0159922
-0.170155 0.194833 0.37685 0.0342153 0.863952 -0.502411
0.0643409 0.0605299 0.358809 0.0197701 -0.999801 -0.0027407
-0.000349889 -0.098211 0.19742 -0.0528395 0.327062 -0.943525
-0.0181608 0.248905 -0.499814 -0.0350685 0.0485526 -0.998205
0.0761034 -0.124196 0.390604 -0.00244974 -0.359031 -0.933322
0.171111 0.132146 0.113228 -0.044774 -0.998517 0.0309555
-0.00397981 -0.0108991 0.427342 0.0122583 0.880822 0.473289
0.0774868 0.172307 -0.372581 -0.996665 -0.0363906 -0.0730432
0.0564652 0.295519 0.396509 -0.02476 0.942709 0.332695
0.178079 0.136055 -0.497159 0.999287 0.00698405 -0.0371125
-0.153919 -0.0696366 0.261485 -0.0230773 0.0497592 -0.998495
0.172727 0.130705 -0.429949 -0.0360648 -0.998851 0.0315545
-0.177441 0.122603 0.289538 -0.993235 -0.0978969 0.0624519
-0.180459 0.272829 -0.100194 -0.995793 0.0316735 -0.0859832
-0.12049 0.297399 -0.16702 -0.0331329 0.999411 0.00889756
-0.132844 -0.170731 0.383688 0.0253762 0.55884 -0.828887
0.174619 0.13032 0.0529619 0.00345271 -0.999985 -0.00414825
0.0321555 0.164322 0.217269 -0.483217 -0.00697087 -0.875473
0.171976 0.295917 -0.453182 0.0683301 0.996563 -0.0468356
0.0464574 0.290824 -0.0582872 -0.770475 -0.0105573 0.637382
-0.0419389 -0.194979 0.491415 0.0666977 -0.383829 0.920992
0.106626 0.019464 0.426982 -0.00853176 0.0197404 0.999769
-0.123389 -0.199485 0.428381 0.0187318 -0.0115445 0.999758
0.000996487 -0.290577 0.389193 -0.024923 -0.942919 0.332089
0.0715326 0.0597159 0.420246 -0.999322 0.0294081 -0.02213
-0.178882 0.164514 0.328181 -0.998488 0.0429889 -0.0342692
0.142645 -0.130727 0.261861 -0.108236 0.0863682 -0.990366
-0.0573408 -0.280167 0.410801 -0.0345936 -0.875079 0.482742
-0.0587224 0.141796 -0.0023284 0.998951 0.0180949 -0.0420615
-0.177248 0.211462 0.0781103 -0.999961 -0.00877777 0.000141408
0.15232 -0.167408 0.428608 0.04007 -0.0452199 0.998173
-0.0608073 -0.113455 0.214745 -0.999849 0.0164501 -0.00555387
-0.081137 0.242522 0.324504 -0.0242233 -0.406819 0.913187
-0.0748964 0.258575 0.425544 -0.00640012 0.184133 0.982881
0.000759142 0.298406 -0.257274 0.0760821 0.997041 -0.0110212
-0.059449 0.223799 0.0513955 0.998872 -0.0446276 0.0162215
-0.0205147 0.297187 -0.334407 0.0234425 0.997115 -0.0721948
0.178104 0.246735 0.0730325 0.999868 -0.00784141 0.0142239
-0.0218005 0.122802 0.42914 0.0109838 -0.0400155 0.999139
-0.00917584 0.29679 -0.190765 0.0339876 0.999251 -0.0184799
0.0610247 -0.188828 0.29892 0.999869 -0.01161 0.0112993
0.0725752 0.299312 -0.41524 0.000622927 0.999993 -0.0037513
0.165255 0.15273 0.428105 -0.000758228 0.000934586 0.999999
0.0830885 0.29741 -0.335712 0.00263732 0.999996 -0.00105909
0.107484 0.197019 0.377926 -0.0257132 0.800891 -0.598257
-0.0396378 0.225847 0.392773 0.000819172 -0.0249386 -0.999689
0.115192 -0.179373 0.375254 0.10014 0.745464 -0.65898
0.0592711 -0.223396 0.464822 0.994444 -0.0746767 0.0741899
-0.0677816 0.29839 0.110693 0.0339055 0.998597 -0.0406739
0.178842 0.0968115 0.310965 0.999989 0.0039981 -0.00258082
0.0433675 0.150063 -0.0665314 -0.726671 0.0226839 0.686611
-0.0782175 0.020937 0.430022 -0.0853574 0.0829377 0.992892
-0.180225 0.204888 -0.213849 -0.999839 -0.012279 0.0131002
-0.108186 0.297857 -0.339736 -0.00996821 0.999779 0.0184893
-0.178763 0.297584 0.190693 0.051918 0.997412 -0.0497449
0.118303 0.29773 0.275281 0.0165399 0.998928 -0.0432362
0.108847 0.130714 0.055364 0.0634126 -0.997106 -0.0419396
0.17854 -0.0342499 0.421006 0.999727 0.0190877 -0.0134447
0.179564 0.193237 -0.179352 0.999958 -0.00796998 0.00458024
-0.16265 0.297236 -0.199517 0.0137979 0.999901 -0.00272711
-0.177393 0.177936 -0.119601 -0.999814 0.0156039 -0.0113392
0.178345 0.244682 -0.268678 0.999686 0.0249051 -0.00274755
0.100527 -0.0319828 0.429399 -0.0311925 0.0501969 0.998252
0.00331623 0.296624 0.370889 0.00946755 0.999953 -0.00212933
-0.126961 0.0750917 0.428972 -0.00371251 0.0368551 0.999314
-0.0778422 0.297729 0.172594 -0.0476577 0.998238 0.0353502
-0.0601911 -0.187756 0.427877 -0.999989 -0.00133485 0.00459197
0.147192 0.130468 -0.198924 0.053824 -0.996525 -0.0635719
-0.0310066 0.0588262 0.326276 0.00651252 -0.999931 -0.0097342
0.0311129 0.300598 -0.31322 0.0307811 0.999161 -0.027017
-0.0578632 0.221651 0.184759 0.945634 0.00549148 -0.325186
0.100964 0.297677 -0.0839932 0.0241988 0.999308 -0.0282337
-0.103355 0.216055 -0.500294 -0.00588176 0.00151199 -0.999982
-0.135892 -0.227828 0.351945 0.0261154 -0.999621 -0.00876471
-0.17725 0.181854 0.262125 -0.999621 -0.0266039 0.00712595
0.0578497 -0.177081 0.411035 0.998558 -0.0261094 0.0469021
0.179351 0.181566 0.206897 0.999949 -0.0076506 0.00659439
-0.14127 0.297322 -0.250278 -0.00239653 0.999996 0.0017091
0.126331 0.00157803 0.262988 -0.00497985 0.00171489 -0.999986
-0.12674 0.221266 0.392488 -0.0133353 0.183936 -0.982848
0.0636694 0.140315 -0.335697 -0.819303 0.0118184 -0.573239
-0.177917 0.243985 -0.151408 -0.999993 0.00246878 -0.00287337
-0.178027 0.267294 -0.323943 -0.999994 0.00324909 -0.00117398
-0.173259 0.0358997 0.429379 0.037378 -0.00537285 0.999287
0.00698367 0.297626 0.285583 0.0190367 0.999812 -0.00356558
0.176715 0.00638322 0.390331 0.999954 -0.00953033 0.00121357
-0.0532431 0.14419 0.190195 0.911504 0.000109357 -0.411291
-0.0112043 0.297823 -0.118728 0.0380524 0.998543 -0.0382579
-0.177746 -0.202044 0.348335 -0.999739 0.0191696 -0.0124454
-0.0285145 0.187024 -0.500166 -0.0609409 0.120516 -0.990839
-0.112433 0.131699 0.215544 -0.0467962 -0.998901 0.00278442
-0.178819 -0.0892675 0.315355 -0.999355 -0.0257282 0.0250636
0.0446908 -0.189161 0.354143 -0.00159404 -0.978099 0.208132
-0.117307 0.130414 -0.0784553 0.0335853 -0.99925 -0.0192534
-0.178313 0.176023 -0.436073 -0.999917 -0.00353735 0.0123633
-0.0411292 -0.0443856 0.466859 0.0192713 0.570304 0.821208
0.107406 -0.0851271 0.26204 0.00961823 -0.023736 -0.999672
-0.107408 0.129958 0.0334187 -0.0632851 -0.99537 0.0723419
0.128656 -0.0975719 0.332426 -0.0401767 -0.937583 0.345433
-0.0539721 0.131147 -0.286733 0.00265791 -0.999983 -0.00525652
-0.0541559 -0.212423 0.205877 -0.00649514 -0.435602 -0.900116
0.0544266 0.192054 0.430072 -0.0884895 0.017238 0.995928
-0.0678481 0.0921129 0.427731 -0.0102205 0.0390198 0.999186
0.0914187 0.295862 -0.150019 0.0056126 0.999963 -0.00658658
0.0527843 0.0968584 0.259574 -0.0206152 -0.281881 -0.959228
-0.178413 0.155981 0.0486426 -0.999663 0.0212255 -0.0149122
0.00799551 -0.0806585 0.486882 -0.0219043 0.549215 0.835394
-0.10926 0.0912986 0.261174 -0.0502069 -0.138142 -0.989139
-0.178773 0.234827 0.167738 -0.995327 0.0902365 -0.0343648
0.180128 -0.108849 0.425399 0.999997 -0.00135344 0.00179076
-0.109446 -0.225788 0.286383 0.0817046 -0.996461 -0.019719
-0.0572211 -0.00124221 0.368366 -0.999888 -0.00196678 0.0148353
-0.0628962 0.295646 0.0552025 -0.00718101 0.999929 0.00953305
-0.150166 0.13102 -0.431184 0.0108305 -0.999816 -0.015851
0.168525 0.297127 -0.026056 -0.0301857 0.999544 0.00124435
0.0420225 0.296101 -0.367856 -0.0225782 0.99969 0.0105176
-0.131526 0.29751 0.176404 -0.0164204 0.99953 0.0258789
0.178084 0.250225 0.138428 0.999567 -0.0252928 0.0150206
-0.017492 -0.105893 0.37736 0.0551969 -0.815179 -0.576574
0.179638 0.168144 -0.37315 0.999877 -0.0156619 0.000170307
0.178177 0.105899 0.418089 0.997279 0.0685645 -0.0270962
-0.110172 -0.100591 0.363123 0.0404775 -0.922927 -0.382841
0.11187 0.29871 0.0866172 0.0247134 0.998802 -0.0422294
0.178075 -0.0265902 0.297662 0.999876 -0.0153113 0.0035683
-0.0783596 0.175358 -0.380549 0.998666 0.0370472 -0.0359715
0.0417127 0.208466 -0.499008 -0.00768249 0.0112643 -0.999907
0.00850594 -0.102314 0.319438 0.00804994 0.850811 -0.52541
-0.0382566 0.176737 -0.340615 -0.061974 -0.997718 0.0268033
0.181522 -0.196625 0.389147 0.999757 0.0125757 -0.0180922
-0.137804 0.273526 0.421858 -0.00552694 0.543667 0.839283
-0.113794 0.131074 -0.372309 0.00437611 -0.999978 -0.00497815
-0.0585254 -0.05563 0.386203 -0.999999 0.000998245 -0.000905044
-0.0974461 0.29818 -0.424707 -0.0254074 0.999364 0.0250043
-0.143132 0.131391 0.163976 -0.0250225 -0.999301 0.0277597
-0.17806 0.139546 -0.186169 -0.999752 0.019251 -0.0112046
0.0538592 -0.296157 0.342289 -0.0233657 -0.999053 -0.0367121
-0.179059 0.173318 0.134119 -0.999915 -0.00142821 0.0129689
-0.173459 0.298372 -0.153511 -0.0268181 0.999584 0.0105774
0.017307 0.130719 -0.494654 0.038947 -0.99813 -0.0471105
0.0142525 0.13169 -0.235776 0.00651772 -0.999819 -0.0178792
0.0545759 -0.106785 0.494292 0.0183763 0.212575 0.976972
-0.0473904 0.129091 -0.118409 0.00505425 -0.999473 -0.0320733
0.0593537 0.178344 -0.429829 -0.742277 -0.0268814 0.669553
-0.177492 0.0495344 0.371322 -0.997782 0.0143667 -0.0649947
0.178798 0.0487628 0.426579 0.999613 0.0263836 -0.0088358
-0.0880429 0.272359 -0.499804 -0.0384998 0.0416321 -0.998391
-0.0388654 -0.00141548 0.278165 -0.0497106 0.909406 -0.412927
-0.117539 0.29705 0.251166 0.0101781 0.997814 -0.0652989
0.142376 0.131704 -0.354986 -0.00439542 -0.997307 0.0732107
0.178637 0.253794 0.00802047 0.999098 -0.0308894 0.029127
-0.0958998 -0.049263 0.429074 0.0580504 -0.0258419 0.997979
-0.0581067 -0.247518 0.238354 -0.999325 -0.0358463 0.00809104
0.110897 0.131946 -0.47543 -0.0426085 -0.998847 0.0221284
-0.0143971 -0.172135 0.38137 0.0452069 -0.656155 0.753271
0.180536 0.296186 0.212596 0.0624585 0.997703 -0.0262327
-0.17584 0.1125 0.397536 -0.999933 -0.0082868 0.00813458
-0.127286 0.29752 -0.297371 0.0255134 0.999295 -0.0275362
0.178675 0.198247 0.0188845 0.999745 0.0116775 -0.0193088
0.0292386 0.299023 0.217576 -0.504893 -0.00569029 -0.863163
0.140046 0.183934 -0.499452 -0.0103685 0.0406476 -0.99912
-0.0111934 -0.147705 0.499779 -0.00942754 -0.0135614 0.999864
0.101612 0.104709 0.25719 0.00469627 -0.409472 -0.912311
0.177013 0.27968 -0.0787548 0.999981 -0.00398549 0.0046728
-0.119721 -0.182356 0.316078 0.00264053 0.822299 0.569049
0.0167184 0.0121883 0.355872 -0.0287526 0.996589 0.077354
0.0299847 -0.16349 0.190823 -0.0316093 -0.102209 -0.994261
0.0136554 0.178349 -0.455717 0.0111473 -0.998424 -0.0550082
0.0591172 0.183998 0.0164534 -0.999321 0.0368503 -0.000654799
0.177256 0.0626696 0.378104 0.999909 -0.00146495 0.0134245
0.084962 0.297654 0.215751 -0.035441 0.997353 0.0634948
0.0526469 -0.273896 0.262784 0.00762789 -0.846489 -0.532351
0.0997792 -0.180534 0.263494 0.0406715 -0.0474813 -0.998044
0.179599 0.153794 0.296755 0.999305 0.0364813 -0.00767115
-0.160678 0.212186 0.429508 -0.0426095 0.0794568 0.995927
0.178475 0.136593 0.373828 0.999998 0.00149358 -0.00111
-0.179719 0.279121 0.258449 -0.999915 -0.0104529 0.00778321
-0.172259 0.298496 -0.437928 -0.0511631 0.998048 0.0358244
0.0616684 0.130961 0.0951021 -0.00350108 -0.999907 0.0131736
0.125367 -0.10291 0.427623 -0.0151175 0.024028 0.999597
0.178649 0.0710175 0.265442 0.998134 0.0412212 -0.0450411
-0.00413668 0.178338 -0.388362 0.0493587 -0.998351 -0.0293087
0.071658 0.00177039 0.386411 -0.995025 -0.00882969 0.0992376
-0.0654085 0.296679 -0.37802 -0.0767429 0.996027 0.0451686
-0.0580878 -0.0540604 0.226325 -0.998773 0.0404741 -0.0285483
0.0596689 0.277453 0.0539647 -0.999229 0.024647 -0.030576
-0.177971 0.0437121 0.315479 -0.999929 -0.0119101 0.000956963
-0.126852 0.132192 -0.308401 -0.0478244 -0.99567 0.0797158
-0.177243 -0.120276 0.268451 -0.995985 -0.0570842 0.0689632
0.178381 0.199206 -0.29948 0.99956 0.0296029 -0.00202959
0.177623 0.141354 -0.1488 0.999921 -0.00552401 0.0112603
-0.0704931 0.0587793 0.285305 -0.0672003 -0.996581 0.0480621
-0.178736 0.232491 -0.264763 -0.991959 0.123086 -0.0294636
0.042401 0.298425 -0.156034 -0.0229716 0.999735 0.00140124
-0.0593624 -0.0976392 0.433127 -0.999981 -0.00602551 0.000876113
-0.177165 0.131889 -0.362437 -0.999937 0.00759062 -0.00831489
0.00295149 0.297482 -0.498112 0.100302 0.994904 -0.0102515
-0.17646 0.25702 0.384039 -0.997316 0.0731834 -0.002345
-0.0721722 0.191898 0.428298 -0.00788933 0.0918452 0.995742
-0.0983385 0.132472 -0.441452 0.00515607 -0.999983 -0.00271204
-0.172648 -0.227495 0.295428 0.0292956 -0.998737 -0.0408129
0.162678 0.131431 -0.0973094 0.0185936 -0.998332 -0.0546626
-0.17998 0.0949686 0.335545 -0.998406 0.0326197 -0.0460531
-0.154484 0.144477 -0.500878 0.0188505 -0.0199473 -0.999623
-0.0407995 0.275496 0.210767 0.678992 0.0522952 -0.732281
0.05351 -0.0377532 0.459828 0.00492185 0.660134 0.751131
-0.00581193 0.182368 0.428707 0.0125513 -0.0388287 0.999167
-0.0542583 0.298645 0.368702 -0.0220633 0.998236 0.0551108
-0.038739 0.1316 -0.463479 0.0829622 -0.996142 -0.0286062
