ply
format ascii 1.0
comment Created by Open3D
element vertex 400
property double x
property double y
property double z
property double nx
property double ny
property double nz
end_header
0.145326 0.202834 -0.149431 0.550524 0.834318 -0.0289294
0.377018 -0.209295 -0.0510607 -0.898634 0.435375 0.0538997
0.33812 0.266206 -0.061397 0.777171 0.62926 0.00610461
0.223943 -0.417452 -0.158227 0.0231098 -0.0128744 -0.99965
0.462257 -0.0953601 0.16028 -0.0387669 0.0160287 0.99912
0.270377 0.338086 -0.0221094 0.561111 0.827714 0.00657661
0.410782 -0.284955 0.0509447 0.809195 -0.587538 0.00163742
-0.00305881 -0.183159 -0.134888 -0.0216284 0.998573 0.0488264
-0.499491 -0.0237551 0.0366818 -0.996156 -0.0700014 0.0526626
-0.429136 0.255941 -0.0868046 -0.865039 0.49861 0.0556285
0.332616 -0.277005 0.0926451 0.789814 -0.610345 -0.0606036
-0.181944 -0.00203852 0.0801891 0.998931 0.045497 -0.00812798
-0.185196 0.270896 -0.114139 -0.0224415 0.0374404 -0.999047
-0.0534759 0.173935 -0.0979736 0.307082 -0.951259 -0.0284006
0.363094 0.341431 -0.136328 0.515596 0.484776 -0.706508
-0.461352 -0.188715 -0.094427 -0.931207 -0.364287 -0.0122026
0.297635 -0.0720807 -0.113838 0.00063096 -0.000818991 -0.999999
0.500048 -0.0217322 0.0964001 0.998917 -0.0418862 0.0202436
0.431869 -0.0198926 -0.0348453 -0.998541 0.0384902 -0.0378736
-0.0622462 0.428869 -0.0305625 0.0962416 -0.99201 0.0815647
0.134593 -0.264868 -0.113765 0.0257151 -0.00719231 -0.999643
0.249684 -0.00247693 0.00813754 -0.997864 0.0644864 -0.0104172
-0.472431 -0.165251 0.0386217 -0.945044 -0.326944 -0.000241539
0.452527 0.212422 0.118368 0.9243 0.381516 -0.0106765
0.0808773 0.480231 0.149985 0.137776 0.63773 0.757838
0.0524921 -0.245442 0.156851 0.203902 -0.978938 -0.0101666
-0.464311 0.182808 0.12855 -0.932992 0.359702 0.0118377
0.497886 0.0459107 -0.133248 0.992601 0.117867 -0.0291621
0.0620178 -0.169696 -0.0423373 -0.336874 0.941533 -0.00570792
0.105255 -0.340794 0.11306 0.0177028 -0.000371545 0.999843
0.166012 0.469653 0.136164 0.257777 0.698937 0.667111
-0.289049 -0.407321 0.0269237 -0.55572 -0.831236 0.0149181
-0.13355 0.209679 0.15333 -0.518402 0.854917 -0.0194044
-0.162803 -0.0788304 0.0754691 0.871337 0.490616 -0.00827897
0.440255 0.196813 -0.155317 0.602778 0.322796 -0.729699
-0.148611 -0.477348 -0.13291 -0.357581 -0.933881 0.00134505
0.390399 0.268593 0.157119 0.00706362 -0.00279222 0.999971
-0.309299 -0.134829 0.114885 -0.00246942 0.0269931 0.999633
-0.0315262 -0.430841 -0.0533749 0.0241793 0.999214 0.0314117
0.382866 -0.202823 0.0625197 -0.891447 0.452084 0.0307016
-0.470289 -0.129131 -0.147127 -0.716185 -0.203356 -0.667626
-0.29194 -0.406598 0.121081 -0.615964 -0.787698 0.0110063
-0.034127 -0.482019 0.152147 0.0235281 -0.757365 0.652568
-0.178005 0.466802 0.0491695 -0.340752 0.940148 -0.00310477
0.0560626 -0.244407 -0.00618795 -0.23094 0.972676 -0.023845
0.395578 -0.1957 0.158755 -0.00972333 0.00313436 0.999948
-0.084499 -0.161365 -0.0909767 0.518826 0.854628 -0.0207488
-0.371138 -0.219394 -0.14362 0.910538 0.405018 -0.0829535
0.117094 0.486656 -0.0194086 0.219462 0.975514 0.0144719
-0.0118382 -0.24983 0.0419731 -0.0641112 -0.997528 0.0287698
-0.431888 0.25501 0.103339 -0.862238 0.506487 -0.00407205
-0.245745 -0.045863 -0.00057659 -0.984432 -0.175766 0.000391629
0.205197 -0.457104 0.0121671 0.394432 -0.917219 0.0559736
-0.0398972 -0.428532 0.0370086 0.0934898 0.995523 0.013921
-0.173771 -0.46999 -0.0473927 -0.352132 -0.935872 0.0121159
-0.38925 -0.31537 -0.0192331 -0.803685 -0.594466 -0.0264722
0.358899 -0.348864 0.0207703 0.718524 -0.695492 -0.00373794
0.202491 -0.284712 0.113363 0.0134897 -0.0140375 0.99981
0.233685 -0.0903712 -0.03768 0.915715 -0.401483 0.0166521
-0.103982 -0.487267 0.0500517 -0.195918 -0.980619 -0.00152572
0.400241 -0.288472 0.141179 0.55087 -0.358719 0.753567
0.366571 0.182504 0.114139 0.0383981 -0.0543942 0.997781
-0.31684 0.38714 -0.00665401 -0.664134 0.746524 0.0403501
0.176499 0.0974066 0.155372 -0.565174 -0.404379 0.719066
0.214636 -0.373349 -0.0160303 0.478815 -0.875997 -0.0580041
-0.0858997 -0.491884 -0.0501432 -0.149094 -0.988823 3.3966e-05
0.422164 -0.093391 -0.0160731 0.977813 -0.201386 -0.0576649
-0.148159 -0.107472 -0.126249 0.759062 0.650987 -0.00638998
0.0515703 0.404179 0.112508 -0.000328578 0.000374323 1
0.296396 0.181306 -0.113258 -0.025908 0.00445199 -0.999654
0.206444 -0.00197811 0.158634 -0.0152267 0.0191896 0.9997
-0.297506 -0.0177423 0.112603 0.0132522 -0.0175011 0.999759
0.144225 -0.111596 -0.0625333 -0.765326 0.642329 -0.0411108
-0.0101971 -0.499997 0.0421816 -0.0141248 -0.999451 0.0299582
-0.0435974 0.247031 0.0241713 0.202087 -0.97922 -0.0169764
-0.202186 0.0039865 0.157121 0.737309 -0.0568402 0.673161
0.462763 0.13218 0.154468 0.687792 0.154819 0.709206
-0.00849616 0.431673 -0.0943938 0.00876988 -0.999961 -0.00116053
-0.117583 -0.141082 0.0454176 0.679106 0.733701 0.0223169
0.266749 -0.194059 0.113724 0.0413664 -0.0346497 0.998543
0.414 0.115995 -0.0203639 0.969874 0.24276 0.0202831
-0.229243 0.365059 0.117766 0.486708 -0.871495 0.0601031
-0.115293 -0.221273 -0.153852 -0.461262 -0.886864 -0.0266403
0.231454 -0.152782 -0.112063 0.0294931 -0.0092598 -0.999522
-0.128235 0.148913 -0.15208 0.43536 -0.591222 -0.67891
0.301991 0.398475 0.110918 0.555473 0.827936 0.0772735
0.479285 0.141381 -0.0792559 0.963947 0.266093 0.000451889
-0.152362 -0.195986 0.157378 -0.030134 0.0299363 0.999097
-0.203435 0.0508056 -0.160011 0.00297592 -0.00202465 -0.999994
0.06359 0.193054 -0.158226 -0.215953 -0.670386 -0.709892
0.416864 0.273102 -0.0742733 0.783079 0.621922 0.000608619
0.318144 -0.330099 0.157175 -0.051431 0.0488226 0.997482
-0.210535 0.454299 -0.0701951 -0.476958 0.874353 0.0895461
0.427882 -0.066226 0.147358 -0.98554 0.169327 0.00632267
0.408985 0.287643 0.084334 0.806191 0.591096 0.0257052
-0.11732 -0.202304 -0.157757 -0.0240038 0.0244781 -0.999412
-0.0362819 -0.247166 -0.0569445 0.117356 0.991465 0.0567942
-0.143644 0.198877 -0.157887 -0.00650199 0.0271377 -0.999611
-0.00490528 0.355294 -0.115032 0.00333809 -0.0120019 -0.999922
-0.311067 0.391986 -0.11577 -0.639539 0.767397 0.0457307
0.271079 0.420615 -0.0870794 0.501288 0.865188 0.0126265
-0.318034 -0.270794 -0.114257 0.00677137 -0.022459 -0.999725
-0.186713 0.069327 -0.15297 0.658003 -0.339973 -0.671901
0.0420002 0.430298 0.0346321 -0.118448 -0.992927 0.00816058
0.0017756 0.439713 0.159652 0.0210386 -0.000534069 0.999779
0.00133859 0.500352 0.0932143 0.016061 0.999865 -0.00334395
-0.240518 0.43752 0.00910278 -0.479972 0.877281 0.00218709
-0.0460518 0.427097 0.0720036 -0.0672016 0.997665 -0.0122096
-0.443804 0.181453 -0.157565 -0.675357 0.249064 -0.694161
-0.111816 -0.457448 0.160239 -0.0216689 0.0580215 0.99808
0.148877 0.105549 -0.0352809 -0.796593 -0.60436 0.0137145
-0.0126551 0.495771 -0.140899 -0.0319921 0.702752 -0.710715
-0.205867 0.14137 0.0858959 0.818793 -0.573917 -0.0140328
-0.377321 0.0615422 0.113902 -0.0488009 0.0346036 0.998209
-0.14763 -0.194872 0.16032 0.0118672 -0.0251265 0.999614
0.472013 0.167753 0.00693927 0.948497 0.316709 0.00702558
-0.400891 0.162039 0.0717649 -0.940288 0.331009 0.0793253
0.21103 0.293989 0.112743 -0.000986053 0.0496137 0.998768
0.306598 0.0745101 -0.114167 -0.036974 0.01341 -0.999226
-0.0798871 0.295588 -0.115338 0.0359387 -0.00724101 -0.999328
0.330621 0.278964 0.0386141 0.762993 0.646389 -0.0047237
-0.430388 -0.00367848 -0.0814446 -0.999033 -0.028701 0.0333138
-0.36745 0.337541 -0.0707702 -0.738845 0.673581 -0.0199316
0.495487 0.0723106 -0.00417909 0.986025 0.163117 -0.0338902
0.146763 -0.406389 -0.0750743 -0.283899 0.958175 -0.0360767
0.427451 0.0593248 -0.100154 0.991654 0.128846 -0.00450948
0.212595 -0.128329 0.0891969 -0.857911 0.513505 -0.0173759
0.113618 0.140517 0.0365096 -0.665469 -0.744101 0.0588622
0.0706673 0.496759 -0.107697 0.148623 0.988861 0.00802854
-0.386009 -0.274279 0.157341 -0.00477898 0.0083933 0.999953
0.247187 -0.358682 0.160407 -0.00368109 0.0541903 0.998524
-0.215134 -0.376529 0.100413 0.463009 0.8862 0.0164939
0.10838 0.431243 -0.158743 -0.0185663 0.0749124 -0.997017
-0.421813 -0.086384 0.0259205 -0.981265 -0.192575 -0.00581765
-0.321163 -0.0728101 -0.114737 0.0586418 -0.0372614 -0.997583
0.170141 -0.0814337 0.143555 -0.643347 0.310705 0.699691
0.185507 0.463679 -0.0590569 0.39756 0.916462 0.0451966
-0.287824 -0.0420868 0.112107 0.0246795 -0.0973499 0.994944
0.30692 -0.227782 -0.11377 -0.00552105 0.000749444 -0.999984
-0.391136 -0.183416 0.0857155 0.918419 0.395552 -0.00677304
-0.376875 0.213125 0.154158 0.874561 -0.484449 -0.0212685
0.389221 0.13013 -0.113622 -0.0194687 0.0594823 -0.998039
0.369279 0.0756744 0.112743 0.0298093 -0.0145911 0.999449
0.17077 -0.0587976 0.0412216 -0.939246 0.34083 -0.0406466
0.244615 -0.356635 -0.100165 -0.567776 0.82316 0.00610457
-0.221596 0.371563 -0.0646526 0.52131 -0.853367 0.000246997
-0.242511 0.372325 -0.157944 -0.0291954 0.0161094 -0.999444
0.38936 0.190558 -0.0588329 -0.901652 -0.430579 -0.0403118
-0.197374 -0.345489 -0.112328 -0.0237901 0.0692119 -0.997318
0.0990076 -0.166714 0.150584 -0.392145 0.56999 0.722035
0.271705 0.249664 0.112354 0.0183874 -0.00844849 0.999795
0.276023 -0.221238 0.114023 -0.0231543 0.0125119 0.999654
0.172823 0.468664 0.116208 0.287386 0.957805 0.00428982
0.173331 -0.202331 0.114253 -0.0266797 0.0376016 0.998937
-0.161746 0.0856992 0.0467828 0.898463 -0.437993 -0.0304331
0.115683 -0.143727 0.0576773 -0.671023 0.740291 0.041212
0.259117 0.347182 0.0619819 -0.664467 -0.746802 0.0277693
0.163946 0.100779 0.146781 -0.568237 -0.406387 0.715511
0.0329437 0.311548 0.115333 0.0215178 -0.0281268 0.999373
-0.249502 0.352506 0.0292674 0.488679 -0.86998 0.065784
-0.353387 0.248994 -0.0352034 0.806287 -0.590572 0.0335615
-0.133668 0.189927 0.159346 -0.0138389 0.0381573 0.999176
0.22078 -0.238703 -0.113967 -0.00692065 0.000727427 -0.999976
0.408426 -0.288827 -0.0225938 0.812933 -0.582351 -0.00261265
-0.11577 -0.41623 -0.0142952 0.254904 0.966966 0.0010668
0.0720346 -0.437308 0.157892 -0.0162351 0.00132624 0.999867
0.0367206 -0.482208 -0.152587 0.0885509 -0.688638 -0.719678
0.000960411 -0.408211 0.112561 -0.00400375 0.00887859 0.999953
-0.222564 -0.446729 -0.103014 -0.491747 -0.870729 -0.00401936
-0.158659 -0.283405 -0.114261 0.00436939 -0.0165373 -0.999854
-0.201878 -0.146945 0.0432905 0.809268 0.587439 -0.000614659
0.275846 0.415993 -0.0877975 0.587334 0.809286 -0.00968879
-0.478502 -0.141192 0.0679509 -0.958136 -0.286302 0.00255149
0.0644777 0.166792 -0.0528896 -0.355965 -0.934249 -0.0216319
0.0807668 -0.177974 -0.149086 -0.31421 0.657995 -0.684335
-0.308409 0.0929093 0.114245 0.0106864 -0.16648 0.985987
0.366297 -0.162955 -0.114584 0.00764337 -0.0138529 -0.999875
-0.136025 0.300474 0.114434 -0.0721548 0.0257482 0.997061
0.377172 -0.278535 -0.159777 -0.0313039 0.0486905 -0.998323
0.301943 -0.309929 -0.0470224 -0.667557 0.74432 -0.018849
0.219308 0.37265 -0.159524 -0.00601371 0.0134092 -0.999892
0.0745083 0.431395 -0.158737 -0.00723166 0.0164134 -0.999839
-0.437682 0.0757728 -0.158425 0.00537824 -0.0275041 -0.999607
-0.0320999 0.360654 0.113104 -0.0874471 0.0398532 0.995372
-0.482552 0.130639 0.0533279 -0.96178 0.273819 -0.00173943
0.218385 0.371086 -0.146927 -0.559704 -0.828634 0.00986497
-0.294557 -0.406212 -0.0640908 -0.607465 -0.794346 0.000914166
0.436458 -0.240572 -0.0930759 0.865718 -0.499909 0.0249592
0.180723 -0.0155931 -0.122215 -0.983257 0.181862 -0.0114558
-0.243765 0.0585751 0.0408922 -0.973141 0.230048 -0.00858145
0.271229 0.168691 0.112926 0.0121147 -0.0024565 0.999924
-0.290557 0.1637 -0.115724 0.00882587 -0.00650526 -0.99994
-0.373445 0.331531 -0.067662 -0.749553 0.661891 -0.00839228
-0.269234 -0.335216 -0.157148 0.654481 0.754915 0.0419203
-0.0173031 -0.182208 -0.0168091 0.0309762 0.99785 0.0577582
-0.196462 -0.152533 -0.0622727 -0.786184 -0.617845 -0.0134794
0.475483 -0.150125 -0.0901901 0.945061 -0.324893 0.0361066
-0.0912689 0.421165 -0.15043 0.211929 -0.976662 -0.0348838
-0.124558 0.379059 0.112901 -0.0229081 0.0459859 0.998679
-0.175765 0.0463608 -0.0367942 0.952748 -0.303134 0.0194915
0.151951 -0.459061 -0.1525 0.218697 -0.693334 -0.686629
-0.333371 -0.118862 -0.113547 0.0540019 -0.00529954 -0.998527
-0.295019 0.322776 0.159068 -0.0120827 0.0241933 0.999634
-0.365488 0.233319 -0.157357 -0.00258269 0.00214343 -0.999994
-0.0826347 -0.305783 -0.1138 0.00120095 -0.0161027 -0.99987
0.277652 0.415769 -0.00265092 0.6204 0.783779 -0.0281931
-0.251311 -0.198843 -0.11408 0.00267573 -0.00273958 -0.999993
-0.154726 -0.272602 0.113404 0.0768973 -0.0746501 0.99424
0.500546 -0.0191723 0.0801666 0.999461 0.0193155 -0.0265399
-0.41061 -0.287114 0.0618198 -0.805334 -0.592821 0.000314246
-0.370672 0.231503 0.159861 -0.0307421 0.00707269 0.999502
-0.376335 -0.212226 -0.139253 0.860483 0.50948 -0.000360864
0.152782 -0.102185 -0.0609181 -0.845772 0.5321 0.0392347
0.0991001 -0.230286 0.0727095 -0.374614 0.926049 -0.045803
-0.392406 0.181491 -0.0365001 -0.880635 0.467722 -0.0756185
-0.165939 0.433288 0.158727 -0.0188581 0.0165478 0.999685
0.35501 0.347672 0.0637637 0.726594 0.687022 0.0077921
0.195777 0.154146 0.0237466 0.805864 0.590309 -0.0460298
-0.207643 -0.453441 0.0372709 -0.446902 -0.8942 0.0261616
-0.490527 -0.0861202 -0.0410773 -0.979547 -0.194311 0.052261
0.0273438 0.498515 0.0025259 0.0603959 0.998143 -0.00795105
0.13037 -0.467989 -0.151674 0.186612 -0.59021 -0.785384
-0.496082 0.0551914 -0.0406686 -0.987758 0.154022 -0.0247403
-0.228003 0.0936445 0.159037 0.0283251 -0.00433827 0.999589
0.344374 -0.260306 0.0126327 -0.803604 0.591134 -0.0691458
0.0971396 0.254984 0.113951 0.0128331 -0.0563325 0.99833
0.215202 0.45078 0.0403091 0.434048 0.900889 -0.000824691
-0.178386 0.458158 -0.143145 -0.289836 0.670197 -0.68325
-0.486274 -0.0746911 0.142338 -0.714385 -0.103745 0.69202
0.453176 0.136636 0.158659 0.0648911 -0.0423949 0.996991
-0.124943 -0.218313 -0.0245136 0.463157 0.886135 0.0158543
-0.38872 -0.187342 0.0716626 0.918934 0.394361 -0.00625034
-0.447419 -0.15857 0.158573 -0.0106694 0.026681 0.999587
-0.282399 -0.358733 -0.158822 -0.0774298 0.0940672 -0.99255
-0.454644 0.077314 -0.157507 -0.000952748 0.00185533 -0.999998
-0.49752 0.0573017 0.095395 -0.998403 0.0326781 0.04609
0.0321891 -0.288188 -0.114025 0.01296 -3.2511e-05 -0.999916
0.0102 -0.410936 0.113355 -0.140201 0.0832171 0.98662
0.181349 -0.0167967 -0.0270477 -0.997108 0.0747661 -0.0136185
-0.118581 -0.385033 -0.114368 0.0525381 -0.0263774 -0.99827
0.0555245 0.244595 0.0310257 -0.292196 -0.956085 0.0228575
0.500512 -0.0368429 -0.0923313 0.995593 -0.091831 0.0190307
-0.395067 -0.178197 -0.0418966 -0.930698 -0.365149 -0.0216402
-0.128674 0.131313 -0.00975354 0.682959 -0.730242 -0.0177094
-0.308632 -0.303561 0.0630562 0.699205 0.714702 0.0176774
-0.4205 0.099572 -0.059482 0.969374 -0.235582 0.0693953
0.171175 -0.0847275 0.144024 -0.599096 0.264639 0.755679
0.333957 -0.113545 0.114464 -0.0292282 0.00816121 0.999539
-0.224127 0.261943 0.113524 0.01057 -0.0108014 0.999886
0.00989651 -0.179835 0.0889988 -0.0110569 0.994928 -0.0999829
-0.399494 0.164792 0.0748242 0.934848 -0.355028 -0.00376043
0.125088 -0.484819 0.121444 0.269283 -0.962925 -0.0162025
0.0758778 -0.493525 0.0448665 0.132839 -0.99106 0.0124163
0.296739 -0.403539 -0.0305306 0.620813 -0.782006 -0.0552984
0.051943 -0.373367 -0.113238 0.0274332 -0.0238397 -0.999339
0.246465 0.0514966 0.0858242 -0.973458 -0.228746 0.00742393
-0.431583 0.109619 0.160459 0.0660401 -0.0510049 0.996513
-0.384443 0.319773 0.135607 -0.79284 0.608815 0.0273683
0.494792 0.0698574 0.0139017 0.991433 0.12975 -0.0150508
0.139924 -0.207073 -0.0483756 0.54418 -0.838728 0.0200715
-0.452067 -0.207714 0.139601 -0.637989 -0.30651 0.706415
-0.437703 -0.0467125 -0.15891 0.0306758 -0.0444446 -0.998541
-0.500873 -0.00994929 0.036761 -0.991392 -0.129063 0.0220258
0.00849761 0.18138 0.000203566 0.000106306 -0.999986 -0.00533189
-0.302293 -0.398703 0.0257446 -0.58618 -0.810179 0.00166291
-0.1325 -0.211734 -0.015112 -0.539373 -0.841927 0.0153712
0.133234 0.34324 -0.113877 0.0695158 -0.0599766 -0.995776
0.35541 0.0822253 0.113708 -0.0434658 0.00976379 0.999007
0.195507 0.383665 -0.00866806 0.41475 0.908992 0.0414342
-0.180275 0.012585 -0.00769938 0.999839 -0.0069764 -0.0165501
0.325519 -0.36152 -0.151397 0.517292 -0.596545 -0.613631
-0.387434 -0.188856 -0.0168001 -0.888823 -0.458243 -0.00275013
0.173071 0.0553858 0.0416747 -0.954203 -0.298539 -0.019253
0.3276 -0.0154323 0.11414 0.0876757 -0.036425 0.995483
-0.497081 0.0554333 0.105009 -0.992247 0.123903 0.00968123
0.190046 0.0851913 -0.159008 -0.0505071 0.00972797 -0.998676
0.210025 0.136122 0.0482311 -0.855658 -0.517535 0.00267459
-0.429987 0.04469 0.0425284 0.997895 -0.055959 -0.0327654
-0.17209 -0.0559945 -0.0670718 0.941937 0.325364 -0.0830197
-0.247946 -0.0375596 0.0268794 -0.997582 -0.0553739 -0.0420092
0.337978 0.342903 0.153423 0.470246 0.4941 0.731255
-0.412825 0.282294 0.0272063 -0.80258 0.596229 -0.0194128
0.21321 0.0758986 -0.158763 -0.0107075 0.00931408 -0.999899
-0.233359 -0.364124 -0.0408322 -0.56279 -0.825896 0.0341167
-0.143398 -0.406308 0.0752818 0.275039 0.961387 -0.0094456
-0.420408 -0.098538 -0.0868681 -0.973202 -0.229937 0.00245401
-0.000455347 0.251049 -0.0494235 0.0580658 -0.998302 -0.00460222
0.14583 0.203286 -0.0328768 0.568713 0.82201 -0.0294195
0.13392 -0.4824 -0.0206054 0.334427 -0.94232 -0.0137967
-0.296244 0.232602 0.113913 0.00924168 -0.00694445 0.999933
-0.351474 -0.351365 0.139881 -0.451029 -0.568828 0.687756
0.444111 -0.189834 -0.155429 0.636382 -0.369296 -0.677228
-0.0705791 0.479467 0.152909 -0.0955568 0.683059 0.724086
0.246316 -0.0504886 0.0938851 -0.976923 0.213283 0.0114564
-0.250166 -0.00598932 -0.0994995 0.999409 0.0341104 -0.00416549
0.385754 0.193351 0.0273672 -0.894053 -0.447886 -0.00817747
-0.113901 -0.476671 -0.146506 -0.180522 -0.699104 -0.691856
-0.268038 0.260001 -0.113986 -0.0378924 0.0668797 -0.997041
0.074193 0.483963 0.147056 0.0950543 0.732559 0.674034
0.229967 0.256392 -0.113424 -0.00344227 0.0823924 -0.996594
-0.327412 0.283856 0.0456785 -0.74826 0.663319 -0.0106702
0.382349 -0.0263695 -0.115217 -0.0177657 0.0197884 -0.999646
0.266893 -0.34105 0.0615125 0.611549 -0.790897 -0.0221305
0.468177 -0.174573 0.0946746 0.898079 -0.43886 0.0292718
-0.389564 -0.263024 0.160054 -0.0113116 0.0122346 0.999861
-0.317065 0.384354 0.1033 -0.639531 0.766866 -0.0539971
0.102757 -0.151916 0.0466322 -0.550396 0.834755 -0.0157785
0.341787 0.263023 -0.157946 -0.78423 -0.620462 0.00322207
-0.225171 -0.102937 -0.142863 -0.882888 -0.469533 -0.0069324
0.180682 -0.391296 0.0988703 -0.413507 0.910132 -0.0259283
0.163635 0.187511 0.141436 0.662043 0.74943 -0.00731207
0.0550453 -0.428689 -0.0391345 -0.174619 0.984478 0.0176432
-0.423192 -0.265666 -0.0709819 -0.833388 -0.552654 0.00622517
0.381855 -0.00837128 -0.112706 -0.0150978 0.0178172 -0.999727
-0.268541 0.0756466 -0.114466 0.00228239 -0.0114446 -0.999932
-0.0610285 0.260655 0.115417 -0.0151862 0.0232998 0.999613
-0.1453 0.202957 0.0701125 -0.58741 0.809284 0.00278195
0.054273 0.28698 -0.114353 -0.0249063 0.0152896 -0.999573
-0.0498255 -0.200218 0.15916 0.0201901 -0.0475352 0.998665
-0.241849 0.0620487 0.0609284 0.982605 -0.141704 -0.120029
-0.239466 0.438472 0.0932835 -0.463778 0.88584 -0.0140244
0.135382 0.210591 0.0608748 -0.505047 -0.862922 -0.0171249
0.123434 0.133158 -0.128832 -0.744273 -0.667045 0.0333075
-0.355815 0.105324 -0.112815 0.0454449 -0.0390328 -0.998204
-0.477652 0.146313 0.0320323 -0.973958 0.22435 0.0327572
-0.441031 0.198886 -0.152632 -0.692454 0.350252 -0.630738
0.392186 -0.184568 0.158261 -0.894234 0.443793 -0.0582529
0.345653 0.360568 -0.013319 0.663974 0.747752 -0.00221465
-0.324031 0.323206 -0.159921 0.0293472 -0.0663344 -0.997366
-0.183931 0.281793 -0.113725 -0.000378976 0.033978 -0.999423
0.218988 -0.253227 -0.113582 -0.00126822 0.00148769 -0.999998
-0.0833685 -0.328132 0.114726 -0.0792018 0.0598652 0.995059
-0.210713 0.133332 -0.0934308 -0.837719 0.546083 -0.00452905
-0.115923 0.219435 -0.0132333 -0.48841 0.8703 0.0635013
-0.146897 0.106702 0.13556 0.584216 -0.409097 0.700951
-0.0228196 0.190293 0.144653 0.0142229 -0.661466 0.749841
0.383667 -0.251032 -0.159971 0.105833 -0.0289155 -0.993963
0.421407 -0.0960363 0.0695396 0.982028 -0.188563 -0.00809143
-0.0799284 0.493511 0.0180308 -0.0877834 0.994148 -0.0629528
0.213753 -0.451525 -0.0736252 0.435097 -0.900345 -0.00827259
-0.163484 0.400056 0.00501148 0.377599 -0.925458 0.0307537
0.204933 0.145043 -0.100586 0.786097 0.617504 0.0272108
0.34233 -0.363927 -0.118878 0.672638 -0.739508 0.0261975
0.186513 -0.167417 0.0195809 0.761457 -0.646372 -0.0488518
0.437967 0.201237 -0.154734 0.665657 0.271704 -0.695038
0.430445 0.0213309 0.0486436 -0.997144 -0.0755283 0.000337284
-0.143099 0.479899 -0.0258516 -0.281615 0.959494 -0.00795287
-0.488682 -0.102828 -0.0352794 -0.972672 -0.231793 0.0134543
0.155793 -0.1175 -0.151302 -0.596693 0.420551 -0.683443
0.138358 -0.409047 0.0222127 -0.299189 0.954181 0.00499289
-0.400521 -0.051343 0.112982 -0.0222786 0.0461566 0.998686
0.114587 0.416228 -0.06363 -0.247022 -0.96901 0.000733523
-0.389029 -0.310169 -0.134494 -0.819843 -0.572538 0.00759937
0.122506 0.413394 0.0588608 -0.348462 -0.937206 0.0148258
-0.137359 0.409668 -0.0772228 0.295167 -0.955338 -0.0143223
-0.0321717 -0.430059 -0.136799 -0.0121048 0.999614 0.0250017
0.0954748 -0.172974 0.151084 -0.341042 0.634208 0.693881
0.0762758 0.164549 0.134166 -0.423244 -0.906014 -0.001472
-0.227977 -0.258573 0.112064 -0.0401093 0.0412093 0.998345
-0.0307678 -0.498439 0.120815 -0.120911 -0.99265 -0.00507825
0.492688 -0.0894356 0.0231246 0.988204 -0.153123 -0.00236267
-0.42426 -0.0801509 0.019339 0.982096 0.187459 -0.018599
0.281331 0.32446 -0.112333 -0.59505 -0.803671 -0.00530174
0.23312 0.0921834 -0.0433229 -0.953946 -0.298437 -0.0303827
-0.0899677 0.284191 -0.114206 0.00973348 -0.00486117 -0.999941
0.351648 -0.353678 0.0492828 0.713644 -0.700506 0.00192582
0.201226 0.456579 -0.136427 0.367404 0.589405 -0.719455
0.484005 0.0528286 0.148954 0.70573 0.112628 0.699471
0.250814 0.00386262 -0.0669208 0.998696 -0.0285589 0.0423164
-0.326817 0.00972221 -0.112513 -0.0640159 0.026461 -0.997598
-0.315455 -0.231876 0.113856 0.0104025 -0.00402324 0.999938
0.38809 -0.188229 0.0539677 -0.884433 0.465891 -0.0269134
-0.385191 -0.0859367 0.115489 -0.0585241 0.0350136 0.997672
0.42154 -0.100022 -0.159845 0.0538391 -0.0492122 -0.997336
-0.194829 -0.43221 0.158618 0.00383637 -0.0541835 0.998524
0.149266 0.318255 -0.111635 0.0260886 -0.0437359 -0.998702
-0.0609603 0.171064 -0.0707336 0.376163 -0.925894 -0.0349439
0.089055 -0.348767 0.114009 0.0111907 -0.012287 0.999862
0.142847 0.347883 0.112379 0.000424354 -0.00210766 0.999998
0.235286 0.376304 0.159145 0.018535 -0.0139181 0.999731
0.401569 0.296957 0.00806423 0.754397 0.656136 0.0192306
-0.157048 -0.0944823 -0.000619604 0.876308 0.481638 0.010395
0.00487455 -0.303396 0.11314 -0.0230409 0.0677421 0.997437
-0.214607 0.125724 -0.0052253 0.886336 -0.454838 -0.0867859
-0.448011 0.0151579 0.159384 0.0454139 -0.0108326 0.99891
0.05554 -0.496168 -0.0706447 0.133032 -0.989879 -0.0494166
-0.095 -0.232426 0.0677904 0.37532 0.926889 -0.00349938
0.47761 0.146733 -0.0732657 0.940964 0.33699 -0.0320093
-0.196182 -0.0992503 0.159954 0.050948 -0.0658572 0.996528
0.265388 0.157852 0.112153 -0.0212793 0.0725731 0.997136
0.283658 -0.410628 0.0703946 0.541809 -0.840134 0.0248388
-0.0761907 0.493538 -0.0953884 -0.144202 0.989543 -0.00310395
-0.272934 -0.335626 0.156832 0.59652 0.797617 -0.0892771
-0.308932 -0.298308 -0.0365081 0.733345 0.67984 0.00477456
0.454376 -0.208197 -0.0025087 0.899275 -0.436091 0.033598
-0.431326 0.00953304 -0.0755024 -0.989249 0.0575772 -0.134426
-0.214451 -0.128303 0.130603 -0.846261 -0.532733 -0.00620198
0.457172 0.110612 -0.158766 -0.0589803 0.059538 -0.996482
-0.0747209 0.165317 0.0519985 0.438772 -0.898585 -0.00491109
-0.00439747 0.245454 -0.159239 -0.000167097 7.96998e-05 -1
