ply
format ascii 1.0
comment Created by Open3D
element vertex 400
property double x
property double y
property double z
property double nx
property double ny
property double nz
end_header
0.102807 0.144172 -0.0654707 -0.0318795 0.00763955 -0.999463
0.216879 -0.32746 0.0528114 -0.0165469 -0.70619 0.707829
0.421786 -0.0872597 0.0453866 -0.851115 -0.000179966 0.524979
0.0287768 0.290371 -0.0528109 0.0641515 0.99786 -0.0126437
-0.134208 -0.035344 -0.0655962 -0.0552665 0.0470805 -0.997361
0.0377968 0.058387 0.056076 0.00209653 -0.57977 0.814777
0.10195 0.0613616 0.0609189 -0.0310575 -0.406416 0.91316
-0.413706 0.1333 0.0112561 0.999838 -0.0151992 0.00960186
0.413362 -0.0309865 -0.0377554 -0.999902 -0.0124451 0.00641694
0.499054 0.232793 0.00596039 0.997873 0.0419331 -0.0499135
0.0881249 -0.0784439 0.049023 -0.795041 -0.0163693 0.606334
0.426777 -0.28646 -0.0651439 0.0315589 -0.0311607 -0.999016
0.273605 0.3354 -0.064028 -0.00633481 0.000941662 -0.999979
0.214899 0.339506 0.0489429 -0.00257011 0.999991 0.00323018
0.287908 -0.213956 0.0644495 -0.0567972 0.0222865 0.998137
-0.345419 -0.165444 0.0577423 -0.080246 0.540091 0.837772
-0.361776 -0.339918 -0.0107873 0.00890979 -0.999704 -0.0226576
-0.125373 0.3216 0.0643115 -0.00686742 0.021433 0.999747
-0.49445 0.136424 0.0656266 0.00532019 -0.0458792 0.998933
-0.243609 -0.3392 -0.0422565 -0.0186756 -0.996973 0.0754667
0.0249876 -0.163397 -0.0639788 4.76564e-05 1 -1.61795e-05
0.286275 0.0960035 -0.0579755 -0.061033 0.986544 0.151676
0.343363 0.093981 -0.0373149 -0.048518 0.998694 0.0160023
-0.147803 0.301095 0.0263964 -0.981818 0.184644 0.0440514
-0.500498 0.135432 -0.00608305 -0.999305 0.0163457 -0.0335102
-0.326568 0.337215 0.0483175 0.0126297 0.999798 -0.0156469
0.47258 -0.147245 -0.0673193 -0.0071573 0.0162477 -0.999842
0.436576 -0.154689 0.0592561 -0.412027 -0.0467806 0.90997
0.179268 0.303624 0.0187552 0.943499 -0.329162 -0.0382275
-0.438205 0.337737 -0.0155783 -0.0753783 0.99406 0.0785018
0.00320065 -0.337495 -0.0225361 -0.0168621 -0.993739 0.110443
0.4902 -0.102464 0.0635145 0.0124852 -0.085538 0.996257
-0.191213 0.258195 -0.0644495 0.0286767 -0.0272951 -0.999216
0.412245 0.168157 -0.01207 -0.999076 0.0361135 -0.0232956
0.280148 0.0959254 0.00339011 0.000762322 0.999987 -0.00510361
-0.254162 0.0519344 0.0526395 0.0097111 -0.728122 0.685379
0.500374 -0.16342 -0.0161991 0.999984 0.00261715 -0.00499744
-0.375797 -0.147746 -0.0633966 0.00326147 0.999943 -0.0102076
-0.0980495 0.26181 -0.0646534 0.99911 -0.0017795 0.0421326
0.266424 0.339012 0.0249787 -0.0324823 0.999347 0.0158245
-0.218305 -0.0958404 0.0625561 -0.185876 0.0816832 0.979172
0.127503 0.129297 0.0641469 0.0854891 -0.0283875 0.995935
-0.25797 0.0718818 -0.0644151 -0.00927543 0.0300953 -0.999504
-0.252518 0.28403 -0.0120593 -0.00695338 -0.998902 0.0463197
-0.498884 -0.0601392 -0.0392817 -0.99574 0.0368674 -0.0845089
-0.0905917 0.174204 -0.0638832 0.00250354 -0.00814189 -0.999964
0.430472 -0.186077 -0.0637811 0.0347752 -0.0474616 -0.998268
0.421539 0.232005 -0.0638738 0.997005 -0.0654631 0.0411814
0.499513 -0.335669 -0.00989907 0.998763 -0.0373323 0.0328415
0.19982 0.000547768 0.0635761 0.00583086 -0.00262173 0.99998
-0.48784 0.0376496 0.0639483 0.00741722 -0.00376082 0.999965
-0.424212 0.149559 -0.0487056 -0.007784 0.00859506 -0.999933
-0.35297 -0.301949 -0.063542 0.0489667 -0.0110937 -0.998739
0.251575 0.173996 -0.0603324 0.998831 -0.0330836 0.0352519
-0.43782 -0.165492 -0.0633044 -0.0349899 0.0168751 -0.999245
-0.377272 0.0397239 -0.0551531 0.0645834 -0.996553 -0.0520721
-0.186635 -0.218445 0.0622704 -0.000975206 0.0115847 0.999932
0.0824505 0.221099 0.0102825 -0.99996 0.00891505 -0.0011378
0.499807 0.154924 0.0514839 0.996412 0.0070878 -0.0843394
0.500607 0.0889674 -0.00568878 0.999996 0.00176836 -0.00210018
0.0879878 -0.00685227 0.0460855 -0.857417 -0.0427583 0.512843
-0.34649 0.28351 0.0127122 0.0105681 -0.999905 -0.00890471
0.124132 -0.285001 -0.0639811 -0.0593634 0.0139886 -0.998138
0.36233 -0.294267 -0.0641346 -9.80681e-05 0.000241537 -1
-0.0815144 -0.101673 -0.0109417 0.998272 -0.0226856 0.0542147
-0.0426147 0.337507 -0.0231961 -0.00767101 0.999928 0.00923818
0.222001 -0.122702 0.0618752 0.218968 0.0169581 0.975585
-0.0849916 -0.2095 0.0660088 0.0457757 -0.0167305 0.998812
0.181176 -0.339588 -0.0518863 -0.0252434 -0.999442 0.0218865
0.0200569 0.0806411 -0.0616475 -0.00976316 0.999928 0.00698368
-0.0862795 0.155579 0.0479535 0.797872 0.0838578 0.596966
0.500833 -0.248104 0.0603371 0.999999 -0.000173176 0.00109387
-0.150304 -0.25575 0.0640706 0.0721732 -0.00707863 0.997367
-0.444578 0.114291 0.0635845 0.289461 -0.0630689 0.95511
-0.326786 0.0415804 -0.0106335 0.075955 -0.997108 -0.00242181
0.501944 -0.270973 0.0069123 0.999228 0.00889347 -0.0382756
-0.412792 0.272964 -0.00748091 0.999857 0.0138945 -0.00959459
-0.171541 -0.241202 -0.0648376 0.0399318 -0.0454997 -0.998166
0.243668 -0.00282076 -0.063862 -0.00879432 0.000140346 -0.999961
0.0824325 0.153363 -0.00349879 -0.999893 0.0109919 -0.00968817
0.0368001 0.0967078 -0.00218077 -0.0413528 0.995516 0.0850776
-0.295101 0.0883354 0.045922 -0.019918 0.839009 0.543753
0.284661 0.0712742 0.0612967 -0.00790944 0.343475 0.939128
-0.490253 -0.24376 -0.0634279 0.00492947 -0.0719351 -0.997397
-0.253232 0.117404 -0.0204185 -0.997537 0.0303954 -0.0632107
-0.429125 -0.335629 0.0443844 0.0315408 -0.74486 0.666475
-0.183638 -0.0464465 0.0642363 -0.00509585 0.0593069 0.998227
0.429035 -0.0972073 -0.0629529 -0.0408676 0.0263866 -0.998816
-0.100261 0.264684 0.0595276 0.570481 -0.00129809 0.82131
0.20723 -0.266655 0.0645057 -0.00849264 0.0280647 0.99957
0.0804639 0.0377632 0.0185689 -0.999185 -0.0313707 0.0253904
0.0516491 -0.146962 -0.0103694 0.0197019 0.999445 -0.0268463
-0.498099 0.339323 0.0174971 -0.0753506 0.996042 0.0471416
-0.500047 0.00107828 -0.0175341 -0.998172 0.0294565 -0.0527799
-0.0994673 -0.134656 -0.0635587 -0.0318394 0.000752819 -0.999493
0.495367 0.229025 -0.0655744 0.032836 -0.0746699 -0.996668
0.11133 -0.220999 -0.063125 0.0369787 -0.0170352 -0.999171
-0.0850542 -0.0605386 0.0418317 0.857239 -0.0390527 0.513436
0.500957 -0.0479749 0.0633284 0.0341762 -0.0288102 0.999
-0.179421 0.00437994 -0.0651122 -0.0186879 0.0116054 -0.999758
0.338204 0.045769 0.0434517 0.0993838 -0.888738 0.447512
-0.0707413 0.337698 0.0355262 -0.0158706 0.997713 0.065703
-0.497972 0.0548519 -0.027474 -0.998433 -0.0494154 0.0262445
0.158932 -0.216186 0.0635713 -0.00977237 0.0551189 0.998432
0.298885 0.284302 -0.0426491 -0.00385652 -0.999982 0.00460529
-0.0800601 0.0449205 -0.0651991 0.029751 -0.0199288 -0.999359
-0.101076 -0.131958 0.0596807 0.4526 -0.0201738 0.891486
-0.0720656 0.283765 0.00464261 0.0424896 -0.998918 -0.0189098
0.431703 0.107824 0.057038 -0.556409 -0.0261108 0.830498
0.0831674 0.337993 -0.0604346 0.0179247 0.99975 -0.0134002
-0.0173843 -0.233754 0.0637471 -0.11348 0.0219704 0.993297
-0.141999 -0.184512 -0.064769 -0.0948265 0.00315044 -0.995489
-0.453375 -0.107156 -0.0637971 0.0236912 -0.0465318 -0.998636
-0.253589 0.341428 -0.0528234 -0.0364246 0.998857 0.0309633
-0.310038 -0.250221 -0.0648589 0.0129193 -0.00776767 -0.999886
-0.238992 0.251613 0.0544954 -0.64289 -0.0155191 0.765801
-0.497053 -0.0521154 0.0627494 0.0258248 -0.0723465 0.997045
0.0892535 0.21777 -0.0532797 0.999853 -0.0140961 0.00971019
0.136533 0.338504 -0.00740587 -0.00746589 0.999936 0.00853156
-0.36015 0.335177 -0.0660873 -0.0372059 0.00395314 -0.9993
-0.445707 0.0554511 -0.0639291 -0.0288904 0.0347989 -0.998977
-0.0126521 0.28504 0.0152874 -0.00285817 -0.998853 0.0478066
0.441454 -0.219604 0.0647339 -0.0108477 0.0525572 0.998559
0.400887 0.094768 0.00723481 0.0147007 0.999756 -0.0164686
0.0901314 0.0388615 -0.0562812 0.999322 0.031229 -0.0194891
0.251178 0.194994 0.0125386 0.999903 -0.0133475 0.00392626
0.193823 -0.12435 -0.0641885 -0.000948379 0.000771344 -0.999999
0.339418 0.338721 -0.0623256 -0.0936242 0.995422 0.0192412
-0.344804 -0.28933 0.0654393 -0.0365249 0.0592809 0.997573
0.341315 -0.148742 -0.0358165 -0.0378083 0.999148 0.0165686
0.49735 0.107868 0.0636966 0.00984834 -0.0253311 0.999631
0.391888 0.286213 0.040682 0.0316035 -0.928302 0.370482
0.43304 0.138203 -0.0655735 0.0178883 -0.106949 -0.994104
0.366835 -0.339074 0.023155 -0.013432 -0.99968 0.0214466
-0.468138 -0.0168608 -0.0638061 0.0565 -0.00216932 -0.9984
0.145638 -0.103865 0.0640565 -0.000861635 0.000836199 0.999999
-0.145284 0.152107 0.0640584 -0.0124618 0.0155557 0.999801
-0.500797 -0.078724 0.0133549 -0.99461 -0.0631253 0.082254
-0.491905 0.108597 -0.0657792 0.0297084 -0.119636 -0.992373
-0.0688893 0.0505402 0.0501176 -0.0203573 -0.737319 0.675238
-0.315882 0.0433384 -0.0622443 0.00967826 -0.0145457 -0.999847
-0.499652 -0.320553 -0.0456035 -0.99953 -0.00358008 0.0304408
-0.412295 -0.2131 -0.0626253 -0.0228669 0.031686 -0.999236
-0.115314 0.338909 -0.016378 0.01153 0.998353 -0.0561968
-0.421779 0.237234 0.0515998 0.814356 -0.0944942 0.572622
-0.213746 -0.151061 -0.0650549 -0.0257638 0.00266585 -0.999665
-0.445448 0.0021005 0.0644179 0.279567 -0.0351226 0.959484
0.446238 -0.337885 -0.052561 0.0333067 -0.999397 -0.00977075
0.252358 -0.111766 -0.0160249 0.999907 -0.0108418 0.00821407
-0.227813 -0.178708 0.0636809 -0.0499039 0.281637 0.958222
-0.210696 -0.0426217 -0.0632326 0.00281546 -0.00383411 -0.999989
-0.488647 0.175591 -0.0642874 0.0403884 -0.0340214 -0.998605
0.212731 0.338202 -0.0660432 0.0291107 -0.0151712 -0.999461
-0.49934 -0.197696 0.00225454 -0.998219 -0.00673617 0.0592719
0.112381 -0.25816 0.0645153 0.0259868 -0.0393375 0.998888
-0.0500339 -0.300922 -0.0643016 -0.0192162 0.0199323 -0.999617
0.204772 -0.0599381 0.0663632 -0.0096767 0.0294598 0.999519
-0.325802 0.286087 -0.0439325 -0.043268 -0.998344 0.0379175
0.257173 0.292706 0.0469645 -0.0045576 -0.849996 0.526769
0.355852 0.041733 -0.0631468 -0.035525 -0.99931 0.0108379
0.0815666 -0.080339 -0.0417848 -0.999668 0.0222929 -0.012898
0.414041 0.228547 0.0202303 -0.999649 0.0186241 -0.0188502
0.261943 -0.278549 0.0644555 0.0992364 -0.0103642 0.99501
0.252335 0.278242 -0.0108235 0.997955 -0.0577027 0.0275168
-0.200101 0.0577472 -0.063134 -0.0233489 0.0096806 -0.999681
0.155209 0.339467 -0.064227 0.00050207 0.996863 -0.0791484
-0.0420683 -0.1704 0.0592545 -0.000897167 0.380907 0.924613
0.0427576 -0.337244 0.0259319 -0.00973456 -0.999945 0.00385795
0.361782 -0.297633 0.0646514 0.0165897 -0.0121004 0.999789
-0.136734 -0.0882875 0.0650486 0.00380951 -0.00459661 0.999982
-0.0805679 -0.00884944 -0.02657 0.999977 -0.00463162 0.00505279
-0.415765 0.209982 -0.0560591 0.999984 0.00557962 -0.00123843
0.187146 0.299935 -0.0423638 -0.994192 0.106681 -0.0142213
0.500143 -0.0559888 0.0136172 0.997517 -0.0454234 0.0538287
-0.164509 0.258586 0.0654549 -0.0248938 0.00436391 0.999681
-0.21457 0.122548 -0.0637789 0.0175462 -0.0843012 -0.996286
-0.129705 0.209493 -0.0646673 0.0149257 -0.00219137 -0.999886
0.312661 0.284118 0.0235928 0.0598008 -0.998167 -0.00925594
0.13057 -0.0294133 0.0646382 -0.026095 0.0295426 0.999223
0.348789 0.0953058 0.0260382 -0.00348007 0.999369 0.0353371
0.181412 0.118715 0.0648436 -0.0898812 0.0555199 0.994404
0.196996 0.186948 -0.0653613 -0.0709003 0.0411821 -0.996633
0.416423 0.0804763 -0.0522163 -0.00095603 0.999999 0.00118895
0.501389 0.314535 0.00972625 0.999697 0.0133824 -0.0206606
-0.284842 -0.175381 0.0630364 0.00802594 0.32951 0.944118
-0.349251 0.340373 -0.0137435 0.0167104 0.99986 -0.00054445
0.385086 -0.149892 0.0264065 -0.00685868 0.997836 0.0653928
-0.235099 -0.339521 0.0204326 0.0153092 -0.99959 -0.0242123
-0.236317 0.204977 -0.0644712 -0.999619 -0.0187571 0.0202371
-0.112788 -0.269878 -0.0650882 -0.0569844 0.0220181 -0.998132
0.254356 -0.312863 -0.0635943 0.00454481 -0.0127695 -0.999908
0.23022 -0.23977 -0.0642408 -0.000700171 0.0177212 -0.999843
0.461275 0.0554825 0.0643077 -0.0376766 0.0167889 0.999149
-0.164024 -0.115737 -0.0646504 -0.0599397 0.0386107 -0.997455
0.0396951 0.0406956 -0.0126358 0.0389874 -0.998886 -0.0265837
0.105095 0.183634 0.0609155 -0.512988 0.0356522 0.857655
-0.500967 0.0815165 0.0176939 -0.997825 -0.0289295 0.0592269
-0.326629 -0.234802 0.0638491 -0.00858574 0.0154248 0.999844
-0.42507 0.294728 0.0532036 0.697 0.00676299 0.71704
-0.250227 0.0405316 -0.00979323 -0.999128 -0.0114937 0.0401459
0.337408 -0.254447 0.0621111 0.0872637 -0.01743 0.996033
0.0708404 -0.337875 -0.0513562 0.00899884 -0.999052 -0.0425941
-0.181388 0.200011 0.0634909 -0.0182375 0.0153647 0.999716
-0.342497 -0.338791 0.0401818 -0.0598416 -0.997504 0.0374772
0.187054 0.249217 -0.0654998 -0.0286255 0.0233881 -0.999317
0.0956792 -0.137466 -0.0598644 -0.999416 0.0129685 -0.0316053
-0.199654 0.0521298 0.063908 -0.0142831 0.0166013 0.99976
-0.27642 -0.31151 0.064755 -0.0635625 0.00640436 0.997957
0.303526 -0.205271 -0.0635465 0.00911839 -0.00405046 -0.99995
-0.198201 0.337508 -0.0553872 0.00875511 0.999892 -0.0117699
0.500055 0.327951 -0.0443938 0.99958 0.0252445 -0.0142028
-0.401794 -0.261717 -0.0653164 -0.00913134 0.00776548 -0.999928
-0.0844141 -0.211544 -0.0665969 -0.0438404 0.0221909 -0.998792
0.171172 -0.215157 -0.0653594 0.0371117 -0.031485 -0.998815
0.257524 0.041937 0.0237318 -0.00147987 -0.999894 0.0144722
-0.181799 0.296983 -0.0160245 0.285541 0.956121 0.0655655
-0.1029 0.209008 0.0592476 0.461952 -0.010881 0.886838
-0.457695 -0.339695 -0.0119276 -0.0207228 -0.999715 0.0118618
0.0447046 -0.245486 0.0641867 -0.0158201 0.00919393 0.999833
0.496688 0.215907 0.0631231 0.0169407 -0.0289165 0.999438
0.313182 -0.339827 -0.0483641 0.0719998 -0.993652 -0.0864378
-0.262762 0.291648 -0.0668686 0.0317187 -0.0826772 -0.996071
-0.402133 -0.33971 -0.0538092 0.00766008 -0.999168 -0.0400484
-0.415885 -0.0042075 -0.0592598 0.998342 -0.05753 0.00213274
-0.243099 0.121379 0.0535566 -0.696015 -0.0326936 0.717282
-0.501227 0.1897 0.0581263 -0.99955 -0.0263799 0.0142831
-0.251131 0.232367 -0.0111192 -0.997546 -0.0384915 0.0584912
-0.374888 0.326366 0.0636702 -0.0269057 0.0130962 0.999552
-0.153925 0.0904747 0.0643541 0.0417467 -0.0435103 0.99818
0.312105 0.0415042 -0.0182125 -0.0176328 -0.999656 0.0194079
0.497166 -0.294704 -0.0635041 0.0446997 -0.0345873 -0.998402
0.488291 -0.315539 0.0652242 -0.0144517 0.0131036 0.99981
-0.500995 -0.151196 -0.0548342 -0.999958 0.00514024 -0.00758331
0.122199 -0.172013 0.0638406 0.00231824 -0.0321083 0.999482
0.305097 -0.27055 -0.0655183 0.0736912 -0.0361936 -0.996624
0.136571 -0.176199 -0.0633115 -0.0166985 0.0109635 -0.9998
-0.140219 0.100941 -0.0650323 0.0212717 -0.00261519 -0.99977
-0.312888 -0.148575 -0.0190349 0.0189924 0.999669 -0.0173459
-0.438943 0.0555743 0.0608528 0.391264 -0.0424593 0.919298
0.122624 -0.338561 -0.0133607 0.0849812 -0.994295 -0.0644673
0.162047 0.168612 0.0652918 -0.000183156 0.00172838 0.999998
-0.500506 -0.225654 0.063273 -0.0649261 0.0440411 0.996918
-0.364322 0.0431674 0.0335344 -0.00335287 -0.963201 0.26876
-0.079196 0.332116 -0.0646003 -0.00563716 0.0175942 -0.999829
-0.280378 -0.255764 0.0640036 -0.0342342 0.062688 0.997446
-0.501126 0.192138 -0.010417 -0.999601 0.0178937 -0.0218607
0.2437 -0.0745251 -0.0573237 -0.999876 -0.00886044 0.0129978
-0.192898 0.333376 0.0650725 0.0359243 -0.0160541 0.999226
0.434381 0.0204556 -0.0637143 0.0134825 -0.00129575 -0.999908
0.401841 0.339035 -0.0615142 0.00382405 0.999991 -0.00173742
0.229311 0.0819903 0.0613735 0.436213 -0.00942562 0.899794
-0.225751 -0.25235 0.0661713 0.0400337 -0.0430723 0.99827
0.119193 0.277444 -0.0656949 -0.0287553 0.0207341 -0.999371
0.413905 -0.0347642 0.0258594 -0.998649 0.041082 0.0318175
-0.136564 -0.318372 0.0613089 -0.00296076 -0.704364 0.709833
0.216703 0.337546 -0.00639004 -0.00980631 0.999805 0.0171151
-0.0735771 -0.149363 0.00162413 0.0314054 0.99947 -0.00858434
0.0573088 -0.217203 -0.0635459 0.0324462 -0.020299 -0.999267
0.158989 0.122083 -0.0638083 0.00650171 -0.0117155 -0.99991
-0.25113 -0.0205744 -0.031539 -0.997375 -0.0723803 0.00179534
-0.498603 0.335746 -0.0507111 -0.99896 0.0264612 -0.0371388
0.443239 0.263484 0.06571 -0.268979 0.00582744 0.963128
-0.253249 0.317424 0.0627599 0.0108837 -0.232071 0.972638
0.117171 0.260084 0.0649991 -0.122215 0.00357719 0.992497
-0.117087 -0.338532 -0.0537358 0.0280018 -0.999593 -0.00550376
0.31079 -0.338137 0.0222141 0.0163153 -0.999845 -0.00664964
-0.0197431 0.0943275 0.0272402 -0.057451 0.993526 0.0980039
-0.25444 0.337026 0.00687757 -0.0215054 0.999518 0.0223891
-0.081816 0.11495 -0.0560914 0.999372 0.00652359 -0.0348349
-0.414414 -0.0235638 0.0204173 0.999901 0.00125367 -0.0140435
0.483362 0.338275 0.0502608 -0.00814622 0.999964 0.00217223
-0.400344 0.0957531 -0.0439965 0.0278345 0.999255 -0.0267302
0.39643 -0.14935 -0.0472297 0.12179 0.992548 -0.00404843
0.499995 -0.200817 0.0247518 0.999863 -0.0146842 0.00763443
0.0401622 0.338464 0.0171661 0.0131805 0.999846 -0.0116133
0.057431 0.29248 0.0461034 -0.0174056 -0.823291 0.567352
0.47179 0.282779 -0.0660787 0.0448627 -0.0196265 -0.9988
-0.0166302 0.312578 0.0634746 0.0481074 -0.285958 0.957034
0.430538 0.179428 0.0550547 -0.560128 -0.064341 0.825904
-0.338634 0.0939774 0.0109475 0.000411144 0.999999 -0.000915151
-0.436641 -0.059328 0.0615513 0.3616 -0.000917756 0.932333
-0.0288958 0.0954826 -0.0254792 -0.0130907 0.999912 0.00222334
0.226635 -0.192761 0.0647368 0.0151281 -0.00968634 0.999839
-0.0950497 0.00311075 0.0547113 0.524098 -0.0606217 0.849498
0.0231708 -0.173626 0.060834 0.0333693 0.355779 0.933974
0.0921555 0.337635 0.0515023 -0.0179985 0.998543 0.0508679
-0.252297 -0.125153 0.00870105 -0.998056 0.0449988 -0.0431113
0.489155 -0.181696 0.0628688 -0.00741829 0.0114815 0.999907
-0.15595 0.0101868 0.0646008 -0.0402512 0.0590737 0.997442
-0.44396 0.292327 -0.0627897 -0.0473155 0.00550059 -0.998865
-0.312074 -0.19302 -0.0649571 0.00344353 -0.001843 -0.999992
0.414907 0.0337977 -0.00583551 -0.999966 -0.00464369 0.00684192
-0.458857 -0.339257 -0.0627835 -0.00861212 -0.999712 0.0224034
-0.117532 -0.340356 0.00712859 -0.000965225 -0.999998 0.00162879
-0.3057 0.287774 0.0395183 -0.0189504 -0.906321 0.422164
-0.410217 0.039558 -0.014607 0.026685 -0.998403 -0.0497971
0.238177 -0.339433 -0.00661755 0.0297028 -0.999237 -0.0253728
0.291931 -0.148312 -0.00839986 -0.0269713 0.995705 0.088568
0.250054 0.133589 0.0365091 0.899026 -0.0332345 0.436632
0.0977567 0.0879312 -0.0644925 0.0409126 -0.00956646 -0.999117
-0.36977 -0.148795 0.00959352 -0.00269813 0.999993 0.00261321
-0.185354 -0.339602 -0.00583623 -0.000213084 -0.999988 0.00496536
0.414493 -0.0834154 -0.0113972 -0.999857 -0.0151345 0.00760587
0.22579 0.110984 -0.0635088 0.00309137 -0.00212991 -0.999993
0.397876 -0.340863 -0.0440754 -0.0109348 -0.999921 0.00615638
0.37925 0.288915 -0.0643319 -0.0304914 0.0462893 -0.998463
0.443481 0.338457 0.00185224 0.00367745 0.999676 -0.0251753
-0.0807874 0.209651 0.0014562 0.998723 0.0390097 -0.0321023
0.147214 -0.336989 0.0455977 0.018682 -0.723501 0.69007
0.00898052 -0.308758 0.064966 -0.0144714 0.00539291 0.999881
0.188594 -0.308407 0.0110943 -0.623155 0.781592 -0.0281447
-0.433562 -0.273733 0.0672412 0.0173665 -0.00413614 0.999841
-0.0461074 0.0413026 -0.00954507 0.0520236 -0.998353 -0.0241819
0.441279 -0.339868 0.0288099 0.0237246 -0.998177 -0.0554958
0.220711 0.199995 0.063122 0.174402 -0.0057203 0.984658
0.251193 -0.0296338 -0.00388505 0.999791 -0.0135465 0.0153066
0.253431 -0.147694 0.0273905 0.000643186 0.996531 0.0832224
0.140473 -0.0630109 -0.0641153 0.031579 -0.0230917 -0.999234
-0.500331 -0.14635 0.0305343 -0.999303 0.0167351 -0.0333754
0.495253 -0.0548008 -0.0646617 0.0511694 -0.0164153 -0.998555
0.249006 0.0548074 -0.0487317 0.0502808 -0.997743 -0.0445115
-0.183618 -0.320656 -0.0640275 -0.0215208 0.0495346 -0.998541
-0.49578 -0.114279 0.0630065 -0.00335657 0.00319713 0.999989
0.0101597 0.339713 -0.0334532 -0.000841728 0.999996 0.00278354
0.302035 0.332705 0.0647608 0.0024704 -0.00214805 0.999995
-0.471289 -0.184172 0.0646991 -0.0712215 0.0532196 0.99604
-0.296974 -0.307209 -0.0648968 0.03111 -0.00408837 -0.999508
0.355043 0.336754 0.0644244 0.124955 -0.0452366 0.991131
0.502098 0.172142 -0.0140509 0.999686 0.023238 -0.00940461
0.454249 -0.00275833 0.0638445 0.00568446 -0.0059122 0.999966
0.38714 0.0523199 0.0525737 0.027619 -0.727801 0.685232
0.377119 -0.196693 0.063494 -0.0151471 0.0379258 0.999166
0.319061 0.339624 -0.00559284 -0.000105103 0.999957 0.00924219
-0.0105167 0.0479682 0.0517633 0.0260382 -0.794895 0.606188
-0.244096 -0.0222997 0.0462203 -0.805005 -0.0592716 0.590299
-0.0617495 -0.338017 0.0436568 -0.0826169 -0.650715 0.754814
0.419057 -0.281477 0.0649217 0.00405254 -0.125427 0.992095
-0.430874 0.173853 0.0584227 0.480158 0.0564966 0.875361
-0.251095 0.175914 -0.0135051 -0.997366 0.0629856 -0.0359758
0.412493 0.285205 -0.0229863 0.0258409 -0.999437 -0.0214139
0.0283969 -0.291729 -0.0642238 0.0798678 -0.0997575 -0.991801
0.247747 0.269839 -0.0632717 -0.02521 0.0512346 -0.998368
0.38812 0.338434 -0.00797858 -0.0289826 0.999393 0.0193438
-0.072164 -0.340264 -0.0235726 -0.0790767 -0.996502 0.0270381
0.0759689 -0.314296 0.0633507 0.077119 -0.00871573 0.996984
-0.500203 0.261073 -0.0593193 -0.997654 0.04235 -0.0537834
-0.500511 -0.00375022 0.0353306 -0.999769 -0.0190218 0.0100463
0.251786 0.133754 -0.0252285 0.998987 -0.0315291 0.0321038
-0.491708 -0.33458 0.0460311 -0.0843175 -0.653321 0.752371
0.475157 -0.228702 -0.0642364 0.00969315 -0.0440101 -0.998984
-0.294615 -0.338343 -0.00859747 0.0792743 -0.99611 -0.0384729
-0.491813 0.243217 0.0635789 -0.00305488 0.00853242 0.999959
-0.0826187 0.0999522 0.0342038 0.971991 0.00804138 0.234879
0.155824 -0.290147 0.0650668 0.00189915 -0.0156192 0.999876
0.0821405 -0.010195 -0.0149047 -0.999991 -0.00114802 0.00404875
-0.215228 -0.306505 0.0621508 -0.050064 0.0240097 0.998457
0.250455 -0.091851 0.0330783 0.990953 0.053795 0.122953
-0.265088 -0.151892 -0.0660455 0.00741379 -0.0425353 -0.999067
-0.421764 -0.0556974 -0.0593343 -0.999983 0.00166628 -0.00558939
-0.25434 -0.209995 -0.0651603 0.0155529 -0.0261685 -0.999537
0.0712195 0.286215 -0.0131082 0.025514 -0.999674 -0.000754516
0.0736334 0.0941199 0.0291113 -0.00920047 0.993714 0.111569
-0.0817786 -0.0682427 -0.054942 0.999898 -0.00543022 0.0131751
-0.0304739 0.298893 -0.0637308 -0.0787344 -0.996841 0.0104198
-0.459664 0.338591 0.0635917 -0.0148395 0.999529 0.0268767
0.500491 0.0195343 -0.0528448 0.997666 0.0594775 -0.0335522
0.101805 -0.019512 -0.0638206 0.0345011 -0.0116098 -0.999337
-0.388809 0.0823478 0.0546539 0.0013153 0.65781 0.753183
0.319223 -0.15045 0.0396674 0.0203004 0.951046 0.308382
0.241427 -0.164378 -0.0476143 -0.0553548 0.997859 0.0348415
-0.390278 0.285903 -0.0634343 0.0245364 -0.999615 -0.0129262
0.500122 0.0189203 0.0168836 0.999579 -0.0264691 0.0118528
0.168813 0.0579124 0.0640214 0.00396348 -0.0381038 0.999266
-0.00845782 -0.148245 -0.0030464 -0.029559 0.999448 0.0151441
-0.341113 0.0953317 -0.0619254 -0.0741903 0.997198 0.00962269
-0.0166651 -0.242657 -0.0644475 0.0101646 -0.0451909 -0.998927
0.188799 -0.030354 -0.0651539 -0.0234115 0.0258227 -0.999392
-0.0400905 -0.153658 -0.065116 -0.0168372 4.15294e-05 -0.999858
0.168499 0.0354163 -0.0637295 0.00716088 -0.00179071 -0.999973
-0.0172744 0.0415768 -0.0648429 -0.0583032 0.0986561 -0.993412
-0.412584 0.204724 0.00425849 0.99886 0.0164177 -0.0448174
-0.502211 0.301046 0.0625956 -0.999409 0.0327962 -0.010254
-0.498405 0.284693 0.00949072 -0.99876 -0.0190288 0.0460117
-0.499433 -0.268452 -0.00431911 -0.999702 -0.00188557 0.0243405
-0.24831 0.190306 0.0385699 -0.943363 -0.0154663 0.331401
-0.253063 -0.0881656 -0.0259403 -0.998242 -0.0256162 0.0534559
0.394748 -0.234939 -0.0655974 0.0101271 -0.0238395 -0.999665
-0.0631546 -0.276278 0.0654066 0.00488471 -0.016731 0.999848
-0.413735 -0.0915944 0.00930363 0.999675 0.0235097 -0.00982192
0.152513 0.322052 0.0635621 -0.0239328 0.0204668 0.999504
0.437303 0.319493 0.0628563 -0.000476523 -0.121431 0.9926
0.187355 0.2603 0.0644951 0.0204599 -0.0273482 0.999417
0.175013 -0.147598 0.0640212 0.0385769 -0.0408503 0.99842
-0.377164 -0.217604 0.0647219 0.00924074 -0.0172125 0.999809
0.0822383 -0.207602 0.0640907 -0.035956 0.0330193 0.998808
-0.145394 -0.301351 -0.0171071 -0.999823 0.00444074 0.0182672
0.36549 0.283987 -0.0068189 0.00191503 -0.999998 -0.000944469
0.494943 0.151852 -0.0624338 0.0270918 -0.021374 -0.999404
-0.134946 0.326545 -0.0635969 0.0339357 -0.047561 -0.998292
-0.417618 -0.159889 0.0560748 0.00282573 0.663243 0.748399
