ply
format ascii 1.0
comment Created by Open3D
element vertex 400
property double x
property double y
property double z
property double nx
property double ny
property double nz
end_header
0.0295197 0.303151 -0.147793 0.00330513 -0.00304528 -0.99999
0.0979758 0.198966 -0.133459 -0.0367681 0.0149389 0.999212
0.47501 0.33728 0.0667424 -0.800041 -0.599901 0.00737267
0.498769 0.293186 -0.0861406 0.999728 0.011499 -0.0203014
0.499526 -0.279136 0.0450496 0.998859 0.0475699 -0.00418994
0.499794 0.155983 0.136453 0.99735 0.0102798 -0.0720171
-0.489657 0.314927 0.146624 0.0129483 -0.0104546 0.999862
0.00360857 0.347992 0.0147676 -0.972556 -0.229633 0.0374618
-0.476439 -0.334487 0.119634 0.842776 0.538264 0.000941249
-0.204883 0.00505847 -0.135041 0.00683022 -0.078248 0.996911
-0.351432 0.112226 -0.148347 0.00537663 -0.000762812 -0.999985
-0.204511 -0.382878 -0.081937 0.0275337 -0.999401 -0.0209624
0.0889616 0.375051 0.0680859 0.0190184 -0.0414738 0.998959
0.488928 0.156414 0.0194342 -0.997652 0.0643612 -0.0234164
-0.0799852 -0.381752 -0.0703053 0.0265823 -0.999586 -0.0110179
-0.226419 -0.371305 0.0107042 -0.039506 0.998307 0.0426969
-0.209372 -0.0670744 -0.134124 -0.0597574 0.0408034 0.997379
-0.473824 0.304497 -0.137062 -0.0704768 0.0369047 0.996831
0.489493 0.2308 0.0641869 -0.996215 -0.0867231 0.0058603
0.166227 0.23895 -0.147013 0.0364237 -0.0361658 -0.998682
-0.500412 0.142579 0.00444791 -0.999385 0.0350789 -0.000181818
-0.500546 -0.0653046 0.0559055 -0.997499 0.035978 -0.0608311
0.304497 0.369983 0.0649838 0.00174989 -0.999972 -0.00721733
0.414186 -0.204208 -0.145883 0.0439246 -0.0363785 -0.998372
0.388022 0.337539 -0.0285492 -0.20789 -0.97815 -0.00215383
0.0631665 0.382657 -0.0152187 -0.00175327 0.999996 0.00214236
-0.467156 0.345675 0.145687 0.724276 -0.68951 -0.000219955
0.360891 0.38305 -0.0750072 0.0500529 0.998131 -0.0350476
0.485289 -0.315745 0.14034 -0.957409 0.287078 0.0308801
-0.487348 0.0811355 0.0559687 0.996635 0.0677324 -0.0461734
0.499165 -0.112176 -0.146233 0.00323083 -0.00250865 -0.999992
-0.271887 -0.385047 -0.130829 0.0142972 -0.998887 -0.0449491
0.389111 0.338958 -0.0111659 -0.30964 -0.950622 0.0210094
0.46988 -0.359501 -0.146437 0.0720878 -0.0615641 -0.995496
0.384336 0.0833931 0.0342626 -0.561342 -0.827544 -0.00808976
0.484729 0.345783 -0.134128 0.842706 0.538288 -0.00965679
0.384839 0.203814 -0.136679 0.0281415 -0.00334122 0.999598
0.284693 0.328629 -0.146897 -0.0221164 0.0121844 -0.999681
0.174563 0.370664 -0.0708791 0.0279146 -0.992457 -0.119371
0.278041 -0.372384 0.138756 -0.0222465 0.999423 0.0256757
-0.478292 -0.334069 0.127673 0.894933 0.445591 0.0233327
-0.500665 0.16192 -0.102814 -0.999712 -0.0173405 0.0165972
-0.434534 0.369094 -0.129569 0.291759 -0.95573 -0.038164
0.423909 0.0449221 -0.147963 -0.00663871 0.0235413 -0.999701
0.265264 0.313232 -0.136027 0.0289598 -0.043312 0.998642
-0.379008 0.0172647 -0.13635 0.00499517 -0.00422655 0.999979
0.00309678 -0.176365 -0.134694 -0.0195456 0.0468296 0.998712
-0.429241 -0.0319135 -0.146325 -0.00538186 0.032739 -0.999449
0.379767 -0.342351 -0.148129 0.0137694 -0.028125 -0.99951
0.497729 -0.0140644 0.0327267 0.999973 -0.00722079 0.00118386
0.393373 0.0796721 -0.082357 -0.0515236 -0.998672 0.000623112
-0.447076 -0.375833 -0.139282 -0.475411 -0.879434 -0.0240851
0.287961 -0.0985889 -0.148833 -0.0111381 0.00176712 -0.999936
-0.166577 -0.142112 -0.146893 0.00270849 -0.00284147 -0.999992
-0.439752 -0.260223 -0.147179 -0.0593742 0.10579 -0.992614
-0.021997 -0.383623 0.0581885 -0.0256353 -0.997405 0.0672746
0.498699 -0.145795 0.139279 0.999793 -0.0125669 0.0160183
0.499009 -0.147573 0.136903 0.998067 0.0621388 -0.000704766
-0.246516 -0.384473 0.0815975 0.0591915 -0.998114 -0.0162429
0.423777 -0.118732 -0.148085 -0.0860202 0.00141318 -0.996292
0.490629 0.33252 0.0725796 0.917219 0.397707 0.0231783
-0.323794 -0.369192 0.124323 -0.0624053 0.997184 0.0416005
-0.499648 -0.143499 -0.147881 -0.999043 0.0397595 -0.0182104
0.381532 -0.370195 0.0551169 0.0666561 0.991204 -0.114331
-0.499823 0.0027549 -0.0929422 -0.997344 0.0700881 -0.0198207
0.0359842 -0.38268 0.124 -0.00393432 -0.999969 0.00685107
0.1454 0.38231 0.0244299 -0.0186477 0.999571 0.0225852
-0.0487066 0.384762 0.0852443 9.07685e-05 0.998419 -0.0562147
-0.0972101 0.30603 -0.147344 -0.0251365 0.0229062 -0.999422
0.414026 -0.382804 -0.0609307 0.00274787 -0.998838 0.0481174
0.391181 0.353797 -0.133725 2.98878e-06 -2.24841e-07 1
-0.499439 0.0639903 -0.133407 -0.999964 0.0084563 -0.000751022
-0.386419 0.371469 0.100315 -0.0508223 -0.998702 0.00348449
0.475027 -0.354525 0.0824581 0.753399 -0.656849 -0.0306458
-0.23298 -0.161876 -0.135642 -0.0259241 0.0359368 0.999018
-0.154271 -0.382033 -0.134988 -0.00369204 -0.998298 0.0582005
-0.112673 -0.369007 0.0530203 -0.0621719 0.995657 0.0692975
-0.391834 -0.304029 -0.13706 -0.00391393 0.00417639 0.999984
-0.25266 0.381387 0.105119 -0.000366007 1 0.000537898
-0.315466 0.238757 -0.146589 -0.0664057 0.0538425 -0.996339
-0.047591 0.369698 -0.147691 0.0116802 -0.00680325 -0.999909
0.0846801 -0.308398 -0.145551 0.0294201 -0.0331425 -0.999018
-0.364404 -0.141124 -0.146751 -0.00380587 0.00782311 -0.999962
0.353478 -0.24936 -0.135606 0.0125911 -0.0115326 0.999854
-0.285563 -0.241982 -0.135423 0.00280078 -0.052231 0.998631
0.0115536 0.314542 -0.13631 0.0200617 -0.0239923 0.999511
-0.356454 -0.239865 -0.1464 0.0526198 -0.0567996 -0.996998
-0.18602 0.380349 0.141249 0.00863801 0.999947 -0.00554613
0.478416 -0.332851 -0.078484 -0.877982 0.475551 0.0547562
-0.499752 -0.196528 -0.0243265 -0.99988 -0.00976105 0.0120215
-0.248601 0.286499 -0.136019 -0.0251068 0.00146902 0.999684
0.431028 0.12527 -0.135005 0.0035137 -0.0026072 0.99999
0.0135478 0.0658686 -0.135583 0.0017714 -0.000467689 0.999998
-0.308964 0.383921 0.0623469 -0.0355347 0.999172 0.0197903
0.499903 -0.229589 0.0933178 0.99978 0.00897832 -0.0189484
0.0422617 0.145515 -0.147892 0.00801511 -0.0194818 -0.999778
0.244198 -0.15871 -0.147054 0.0171313 -0.1046 -0.994367
-0.501468 -0.209966 0.0607025 -0.995334 0.0731132 -0.0629693
0.488563 0.145209 -0.0520558 -0.999998 -0.00116139 0.00164666
-0.498922 0.228392 0.0671531 -0.997541 -0.0314341 0.0626371
0.260263 -0.256115 -0.146608 0.000258155 -0.0037208 -0.999993
0.449042 0.372335 -0.0629936 0.519796 0.854172 -0.0142525
0.236932 -0.382105 0.077382 0.0499099 -0.998368 -0.0277694
-0.40991 -0.370925 0.142588 0.0742592 0.993498 -0.0862986
-0.070517 -0.0204276 -0.135662 0.0175516 -0.0789248 0.996726
-0.486413 0.231224 0.0618016 0.999995 -0.00305267 0.00125807
-0.0787513 -0.381329 0.127982 -0.00828706 -0.999955 0.00463533
-0.488124 0.0178974 0.0650564 0.999904 -0.0124654 0.00607751
-0.487831 -0.20177 -0.0992533 0.999963 0.00704893 -0.0049239
0.489041 -0.181533 -0.134892 -0.999605 -0.0281051 0.000374829
-0.487554 -0.0760585 -0.0730153 0.997657 -0.0556183 0.0398402
-0.106143 -0.307135 -0.134808 0.0215484 -0.0269743 0.999404
-0.499738 -0.0394504 -0.00673849 -0.99674 -0.00244637 0.080641
-0.492059 -0.0553818 0.147326 0.00776561 -0.00923365 0.999927
0.499183 -0.0307963 0.138077 0.999974 0.00669063 -0.00256967
0.447987 -0.0416581 -0.133498 -0.0350849 0.04942 0.998162
-0.184797 0.371322 -0.0589277 0.0359072 -0.999316 -0.00880422
0.200324 0.369641 0.109302 -0.000762728 -0.999998 0.00176142
-0.436171 -0.0963786 -0.136701 0.0394074 -0.0600916 0.997415
0.495563 -0.318472 0.149308 -0.0203558 0.0067331 0.99977
0.500451 -0.21303 0.0281805 0.99999 0.00292885 -0.00349218
-0.116653 0.118649 -0.134001 -0.00446437 0.0650379 0.997873
-0.267451 -0.381875 -0.0517262 -0.0126889 -0.998028 0.0614786
-0.488476 0.049948 -0.00811268 0.999732 -0.0203935 0.0109603
0.309929 -0.383868 -0.0848124 0.0132997 -0.999877 -0.00836721
-0.317668 0.38231 0.132467 -0.0532368 0.998324 0.022694
-0.0478942 -0.224003 -0.134851 -0.0250081 0.0152598 0.999571
-0.499207 -0.280948 0.0396853 -0.999849 0.0125201 -0.0120735
0.134392 0.383365 -0.0627643 0.0180505 0.999828 -0.00417676
0.00806514 0.0611338 -0.148113 0.0054445 -0.00667102 -0.999963
-0.235522 0.371952 0.0152713 0.00781711 -0.999915 -0.0103906
-0.49965 -0.115877 -0.00328972 -0.999704 -0.0124648 0.020895
0.284925 0.0308746 -0.147226 -0.0287076 0.00865025 -0.99955
-0.290599 -0.3807 -0.0580718 -0.0976587 -0.994333 0.0420032
0.417724 -0.286078 -0.135195 -0.0086232 0.00823718 0.999929
-0.199225 0.109345 -0.135411 0.0222695 -0.0117922 0.999682
0.500097 -0.0885126 -0.00546794 0.997475 0.0204045 -0.0680197
0.488367 0.172318 0.110294 -0.999973 -0.00322663 0.00655121
0.0271367 0.106042 -0.0739121 0.609963 0.792425 0.0027454
0.219039 0.380876 0.0134671 -0.042752 0.998634 0.0300345
-0.501304 0.0569832 -0.138307 -0.998814 -0.0308982 0.0376398
0.388801 0.382194 0.0505609 0.0367005 0.99915 -0.0187575
-0.254878 0.196606 -0.134152 0.0156825 -0.0439551 0.99891
0.29605 -0.200284 -0.134863 -0.0166717 0.0542975 0.998386
0.266533 0.170756 -0.136406 -0.0442921 0.0429658 0.998094
0.495201 0.0622865 -0.146545 0.0199375 -0.0147869 -0.999692
-0.0555345 0.195853 -0.135297 -0.0165605 0.0427833 0.998947
-0.242481 -0.310305 -0.136238 -0.0381521 0.0268586 0.998911
0.488006 -0.100316 -0.0705552 -0.999964 -0.00596412 0.00601259
-0.0791409 0.381224 0.148023 0.0161028 -0.0545596 0.998381
0.487302 -0.253878 -0.133998 0.000428259 -0.000197055 1
0.466362 0.36432 0.14341 0.617788 0.786338 -0.00315929
-0.325812 -0.302469 -0.145261 0.00510669 -0.0044015 -0.999977
-0.404475 -0.382298 -0.0478988 0.0108584 -0.999928 -0.00504244
-0.496316 0.317668 -0.0366716 -0.966731 0.243438 0.0785372
-0.481981 -0.348145 -0.0598111 -0.799479 -0.597778 -0.0591177
-0.0403677 -0.116999 -0.13515 -0.0213183 0.00550815 0.999758
-0.312495 -0.368764 0.0439402 -0.0488944 0.997508 0.0508628
-0.500695 -0.0517878 -0.141932 -0.999297 0.0209292 -0.0310898
-0.432324 -0.379612 -0.118154 -0.158791 -0.986362 -0.0433005
0.0998011 0.377199 0.147436 0.0296167 -0.0235742 0.999283
0.487677 0.338318 -0.140371 0.869637 0.493691 -0.000512319
-0.305169 0.382309 0.143923 -0.0168204 0.999782 0.0123628
-0.479907 -0.34992 -0.0483206 -0.7654 -0.643555 8.07984e-05
0.489599 0.231556 0.144344 -0.998244 0.0461322 -0.0371516
0.500463 0.0687546 -0.0587102 0.997258 -0.00989678 0.0733325
-0.361571 0.358696 -0.146106 0.00373755 -0.00263668 -0.99999
-0.187142 0.199883 -0.135624 -0.150089 0.0430813 0.987733
-0.399908 -0.372402 0.0615107 0.0631972 0.997552 -0.0299477
-0.307969 -0.382415 0.0259458 0.0118502 -0.999887 -0.00930103
-0.252247 0.300384 -0.148224 -0.0417345 0.0348494 -0.998521
-0.00967695 -0.369341 -0.0916993 0.0121677 0.999859 -0.0116074
0.101386 0.376961 -0.147792 -0.0842769 0.0165716 -0.996305
0.015489 0.101672 0.0330464 0.488141 -0.872383 -0.0258264
-0.0191392 -0.38051 -0.0175881 -0.0193748 -0.99848 0.0516042
0.409554 -0.37668 0.146046 -0.0497987 0.0442241 0.99778
-0.0932901 -0.170306 -0.147125 0.0221123 -0.0324511 -0.999229
-0.399813 0.382934 0.123899 -0.0346869 0.999213 0.0192546
-0.497972 -0.14006 -0.131366 -0.999856 -0.0130635 0.010857
0.389535 0.220306 -0.147701 0.0413099 -0.0560728 -0.997572
-0.442194 0.111551 -0.148514 0.0547499 -0.0349716 -0.997887
-0.486112 -0.134147 0.136879 0.998908 0.00339757 -0.0465879
-0.244637 0.382224 -0.114964 0.00393046 0.999691 -0.0245496
0.0962113 -0.382522 -0.0558518 0.000171501 -1 -0.000144833
0.220515 -0.0549027 -0.135292 0.0816442 -0.0351802 0.99604
0.450746 0.123406 -0.134641 0.0163435 -0.0081588 0.999833
0.197197 0.133142 -0.147273 0.0134243 -0.0163114 -0.999777
-0.360964 -0.382298 -0.134163 -0.0396431 -0.999135 0.0125544
0.205548 -0.382078 0.138652 -0.0459216 -0.997838 0.047012
-0.0144736 -0.37197 -0.106107 0.00847434 0.999884 -0.0126364
-0.136693 0.38388 -0.129006 -0.00855006 0.999962 0.00193536
-0.0708193 -0.0464954 -0.145027 -0.0315979 0.0386977 -0.998751
0.408938 0.381629 0.04751 -0.00642206 0.999893 0.0131056
-0.175925 -0.292363 -0.147927 -0.000758166 0.000691635 -0.999999
-0.0110948 -0.311156 -0.145812 -0.0111221 0.00967334 -0.999891
-0.490111 0.149926 0.147551 -0.0465868 0.0249003 0.998604
-0.477307 0.305244 -0.146345 0.0896387 -0.0650153 -0.99385
0.0954734 -0.290448 -0.135595 0.0242835 -0.0272041 0.999335
0.380586 -0.382915 0.0566158 0.0313595 -0.999033 -0.0308106
-0.283386 0.366233 -0.136786 0.0680579 -0.0105488 0.997626
-0.49971 -0.275997 -0.071696 -0.999069 -0.0315407 0.029424
0.295701 -0.381608 0.131958 0.00430966 -0.999226 -0.0391067
0.459486 -0.039217 -0.146869 -0.024975 0.0525916 -0.998304
-0.124551 0.382587 -0.0215451 -0.0335305 0.998829 0.0348737
0.201521 0.116315 -0.13638 0.0259054 -0.00240441 0.999662
-0.302143 0.0505268 -0.135279 -0.0157977 0.0160058 0.999747
-0.0312565 0.126782 -0.135627 -0.0372274 0.0269029 0.998945
-0.220322 -0.369865 0.0109075 -0.00252319 0.999986 0.00469383
0.0579791 -0.228011 -0.146407 -0.00564957 0.00683898 -0.999961
0.0227463 0.382043 0.134012 3.84838e-05 1 -6.73135e-05
0.487691 -0.0658789 0.0775362 -0.998936 -0.0236239 0.0396106
0.320565 -0.383037 -0.0811396 0.0433057 -0.99815 -0.042665
-0.488604 0.239095 -0.075263 0.999571 0.00792068 -0.0281972
0.501458 0.144101 -0.0801942 0.999469 0.0240152 -0.0220343
0.486653 -0.254649 -0.126963 -0.999359 -0.00730708 0.0350491
-0.41499 0.383444 -0.0586371 -0.0505463 0.998613 0.0147498
0.0692717 -0.376142 -0.14731 -0.0295086 0.0189112 -0.999386
0.404724 0.103494 -0.0634568 0.83522 0.54876 0.03565
-0.024227 -0.381645 0.0518479 0.0140903 -0.999301 -0.03462
0.500803 -0.169901 -0.041475 0.99886 0.0192334 -0.0436913
-0.357186 0.324782 -0.146642 0.0965547 -0.0050192 -0.995315
0.0092971 -0.30444 -0.14725 0.0272265 -0.0555589 -0.998084
0.494806 0.180239 -0.146392 -0.0545619 0.0324279 -0.997984
-0.498971 -0.291721 -0.14373 -0.99999 -0.00227831 0.00381678
-0.500173 0.298483 0.0393621 -0.999207 0.0248682 -0.0311086
0.183295 -0.382891 -0.0596254 0.0897178 -0.995637 -0.0256369
0.487799 0.00512359 -0.0861926 -0.998795 0.0423548 -0.0247879
-0.366153 0.0147096 -0.147281 -0.0178662 0.0384884 -0.999099
-0.126109 0.228276 -0.135713 -0.0288766 0.028049 0.999189
-0.304275 -0.166288 -0.147218 5.92033e-05 -8.0973e-05 -1
-0.498942 0.0558755 0.140289 -0.997591 -0.0674992 0.0160049
0.0605697 -0.371484 0.0421334 0.00218372 0.999994 -0.00279073
-0.372515 0.100427 -0.146398 -0.00589175 0.131403 -0.991312
0.32762 -0.381212 -0.00521803 0.120889 -0.986842 -0.107374
-0.35532 -0.239919 -0.134335 -0.00665499 0.0103001 0.999925
-0.284346 0.382487 -0.0521063 0.03772 0.999288 -0.000478959
-0.129744 0.0225743 -0.132991 0.00807046 -0.00689237 0.999944
0.489264 -0.18452 -0.0554512 -0.998165 -0.0255028 0.0549231
0.347448 0.0493913 -0.146147 0.0179685 -0.0124183 -0.999761
0.489605 -0.143265 0.0600432 -0.999008 -0.00346853 0.044404
-0.436346 0.366226 -0.136237 0.350233 -0.936288 -0.0264821
-0.0138722 0.370418 -0.0593157 0.0127487 -0.991521 -0.129317
-0.0965814 0.317054 -0.147347 -0.0444829 0.0534008 -0.997582
0.115536 -0.383114 0.134989 0.0646418 -0.997897 -0.00476118
-0.12623 0.370544 0.0764443 0.0259928 -0.999404 -0.0227149
-0.451221 0.23047 -0.1486 0.00353274 -0.003167 -0.999989
-0.501985 -0.236871 0.132684 -0.99978 0.0150526 -0.0146298
-0.14351 -0.070673 -0.14672 0.0046815 -0.00721427 -0.999963
-0.284447 -0.0295097 -0.146663 0.00157884 -0.0064526 -0.999978
-0.401233 -0.3699 0.142313 -0.0274074 0.999471 0.0175018
-0.488193 0.152034 0.0790678 0.997516 -0.0599039 0.0370662
0.0830485 -0.221497 -0.134778 0.0107425 -0.0421166 0.999055
0.146373 -0.00644791 -0.149107 0.00409261 -0.0122833 -0.999916
-0.488709 -0.273624 -0.0524301 0.998961 -0.0325669 0.0318794
0.0104841 0.107416 0.0368857 -0.542673 0.839826 0.0140762
0.0828895 -0.0660558 -0.146451 -0.0451987 0.0259727 -0.99864
-0.0920344 -0.381905 -0.0417771 -0.0053908 -0.999617 0.0271331
-0.0726602 0.0653289 -0.133754 0.00524391 -0.0117506 0.999917
0.26806 0.370317 -0.0779298 -0.0116938 -0.999931 0.000853711
0.164742 -0.302028 -0.148086 0.0233103 -0.0124853 -0.99965
-0.160402 -0.381273 0.144187 -0.00803212 -0.999128 0.0409741
-0.106954 -0.309523 -0.146408 -0.00141156 0.0351102 -0.999382
0.00949184 -0.0754136 -0.134754 0.00561991 -0.0103715 0.99993
-0.188028 0.372153 0.0312833 0.0706862 -0.99742 -0.0125137
-0.150275 -0.383838 -0.144087 -0.0100292 -0.999732 0.0208595
0.130628 0.0615189 -0.133978 -0.0140645 0.0180034 0.999739
-0.329478 0.175142 -0.135336 0.00156069 -0.00392488 0.999991
-0.495721 -0.312309 -0.14837 -0.0170568 0.00928595 -0.999811
-0.0601902 0.383056 0.00528896 -0.00985211 0.999948 0.00268403
0.297126 0.112702 -0.147488 -0.0150385 0.00667119 -0.999865
0.296607 0.371739 -0.0136831 0.0392256 -0.998776 -0.0301144
0.0556336 -0.381887 -0.137872 0.0103218 -0.999816 -0.016158
-0.465387 0.233991 -0.146442 0.0224147 -0.0186438 -0.999575
-0.270946 -0.382975 -0.145491 0.00529317 -0.999975 -0.00472832
0.49532 0.226098 0.0590172 -0.0474797 0.00805244 -0.99884
-0.409477 0.172858 -0.133855 -0.032101 0.0347541 0.99888
0.486933 -0.0212226 -0.058994 -0.999832 0.00486483 -0.0176987
0.212913 0.0370165 -0.145935 0.0115217 -0.000353737 -0.999934
0.311454 0.230077 -0.146611 0.0613435 -0.02009 -0.997915
-0.269458 -0.237188 -0.14654 0.00490153 -0.00419587 -0.999979
-0.0146486 0.370952 -0.0602146 0.00413241 -0.99999 -0.0016427
0.498912 0.036483 0.141808 0.998162 -0.0429978 0.0427091
0.500844 0.274857 -0.00252149 0.999987 -0.00370974 0.00349493
-0.50021 -0.123864 -0.00396659 -1 -0.000591475 0.000644366
-0.274505 0.127991 -0.146645 0.0815601 -0.0476786 -0.995527
0.487611 -0.0799271 0.00909804 -0.999337 0.0361476 -0.00425042
-0.200942 0.0116926 -0.134913 0.00169553 -0.00851609 0.999962
-0.443525 0.364786 0.00786787 0.371605 -0.928146 0.0213313
0.500392 0.299435 0.136677 0.997948 0.062993 0.0115129
0.302278 -0.373286 0.0577525 0.0697106 0.997061 -0.0317784
0.0145529 0.100325 -0.0767856 0.774444 -0.632571 0.00957473
0.161869 -0.370022 -0.131591 0.035047 0.996314 -0.0782924
0.154441 -0.109666 -0.145752 -0.0016973 0.0108801 -0.999939
0.232863 0.254085 -0.135735 -0.00675513 0.0255923 0.99965
-0.387626 -0.369842 -0.0559149 -0.00305225 0.99918 0.0403611
-0.072901 0.382396 0.147067 0.00792988 -0.0359662 0.999322
-0.466251 -0.363058 0.0341395 -0.675117 -0.737482 0.0183626
0.457287 -0.356923 0.0896922 -0.576835 0.816859 0.0015852
0.29441 -0.382131 -0.0114581 -0.00679237 -0.999742 0.0216684
0.255535 -0.264772 -0.135127 -0.0312047 0.0226899 0.999255
-0.190894 0.350504 -0.145975 0.0224826 -0.033396 -0.999189
0.00633911 0.342669 0.0243091 -0.813267 -0.581839 0.00775898
-0.494382 0.324524 -0.0526145 -0.934939 0.354151 0.0215911
0.299931 -0.343197 -0.14732 0.0193086 -0.00223794 -0.999811
0.47144 0.35774 -0.0171885 0.678002 0.734422 0.0306405
0.171527 0.371774 0.0864437 0.00330845 -0.999777 -0.0208711
-0.499743 0.0301267 0.134289 -0.998462 -0.0302339 0.0464682
0.336793 -0.272799 -0.137265 -0.0113827 0.0129611 0.999851
-0.487985 0.0522713 -0.00880753 0.999346 0.00700081 -0.0354643
0.360992 0.137683 -0.146879 -0.028033 0.0298823 -0.99916
-0.35554 -0.0662734 -0.147008 -0.110883 0.0117915 -0.993764
-0.0841227 0.369703 -0.0821429 -0.0698792 -0.994928 0.0723602
0.214765 0.382111 -0.143987 -0.100814 0.994772 0.0163012
-0.434726 -0.188216 -0.146402 0.0164674 -0.0282809 -0.999464
0.112134 -0.383822 0.146616 -0.0188496 -0.998599 0.0494492
0.499193 0.0662399 -0.134355 0.998493 0.0548779 -0.000403205
0.498662 0.210807 -0.14327 0.999194 -0.0286819 0.0280901
-0.489465 0.105562 -0.0532329 0.999839 -0.0117796 0.0135526
-0.501862 0.16227 -0.117383 -0.998705 0.0461629 -0.0213961
0.0210399 -0.368719 -0.0247214 -0.00853233 0.999901 0.0111631
0.264326 0.370081 0.136166 -0.0101879 -0.999905 0.00928703
-0.114535 0.144658 -0.147018 0.0918058 -0.119386 -0.988594
0.319398 0.383383 -0.123376 0.0017215 0.999984 -0.00533435
0.233405 -0.382806 -0.11558 -0.043949 -0.998584 0.0299654
-0.301657 0.381587 0.0571586 -0.0626135 0.996635 0.0528991
-0.469704 0.361409 0.0724005 -0.656586 0.754214 0.00748037
-0.390008 0.261453 -0.136091 0.010244 -0.0191717 0.999764
0.396693 0.361421 -0.149034 -0.0317977 0.055677 -0.997942
0.245111 0.185311 -0.145712 0.0570828 -0.0580658 -0.996679
-0.487588 -0.0213441 -0.0030047 0.993183 0.00432406 -0.116483
0.154593 -0.193575 -0.134514 0.022317 -0.0229881 0.999487
0.167113 -0.101867 -0.147944 -0.0946499 0.0346688 -0.994907
0.206864 -0.371424 0.00740128 -0.0382898 0.999191 0.0122648
-0.374822 0.383411 -0.0730601 -0.0274444 0.998894 0.0381725
0.168061 -0.194614 -0.147445 -0.0116788 0.0672796 -0.997666
0.500501 0.0962107 0.104388 0.999996 -0.0013754 0.00242047
-0.487201 -0.250922 0.130134 0.9987 0.0445976 -0.0246668
0.359171 0.371849 0.147455 0.0189785 -0.00187222 0.999818
-0.122931 -0.230859 -0.147456 0.0404831 -0.029453 -0.998746
0.310182 0.382735 0.0609353 0.0183956 0.999795 -0.00840887
0.356647 -0.0862344 -0.146784 -0.0110786 0.0323661 -0.999415
0.098658 0.372549 0.146389 -0.042431 -0.998898 0.0200571
0.476478 -0.352606 0.00311763 0.738067 -0.674089 0.0293392
0.160993 -0.379267 -0.145521 -0.0545591 0.0373957 -0.99781
-0.487923 -0.092237 -0.0710352 0.996835 0.0271709 -0.074715
0.349923 0.279131 -0.146319 0.0361466 -0.0478952 -0.998198
0.0483978 -0.0064226 -0.148812 0.00895893 -0.00152876 -0.999959
-0.487862 0.221759 0.139623 0.99851 -0.0429519 0.0336703
0.167013 -0.288604 -0.135885 -0.0164747 0.0258872 0.999529
-0.0170181 0.383985 -0.144131 0.0136942 0.999749 -0.0177444
-0.488824 -0.0465881 0.132854 0.995127 0.0745989 -0.0644818
-0.274323 -0.0243765 -0.135348 -0.0153478 0.00715697 0.999857
0.387376 0.381693 0.128225 -0.00439242 0.999953 0.008628
-0.115605 0.370694 0.0713673 0.0375695 -0.999025 -0.0231655
0.383809 0.0864658 0.0413553 -0.00360568 0.00111864 0.999993
0.0336514 -0.371945 0.125009 -0.0134322 0.998925 0.0443585
0.200969 0.377924 -0.14716 0.00946556 -0.0382838 -0.999222
0.499881 0.0603984 0.0378038 0.999992 -0.00302404 0.00268584
0.48635 -0.180479 -0.136644 0.0146999 -0.00936091 0.999848
0.380369 -0.383932 0.136097 -0.0584072 -0.997912 0.027587
0.125476 -0.368088 0.00553636 -0.00617099 0.995027 0.0994143
0.488829 0.070721 0.0309135 -0.997343 -0.0375402 0.0624236
-0.500664 -0.197694 0.0642327 -0.998903 0.00320097 -0.0467215
0.395378 -0.380827 -0.0814194 0.000710501 -0.999996 -0.00268705
-0.180175 0.270867 -0.146879 0.0293053 -0.0177547 -0.999413
0.378714 -0.00299023 -0.110859 -0.969212 -0.245582 -0.0178324
-0.280993 -0.0991048 -0.135478 -0.0952167 0.0386454 0.994706
-0.287548 0.0415985 -0.136329 0.0255017 -0.011941 0.999603
0.131813 0.308795 -0.146729 0.0266182 -0.0237892 -0.999363
0.228503 -0.150997 -0.135212 -0.0244647 0.0231818 0.999432
-0.29436 0.381323 -0.0485027 -0.0449967 0.997482 0.0548214
0.502094 -0.273935 -0.0411149 0.99869 -0.0322995 0.0396973
-0.201854 -0.223341 -0.135493 0.0292599 -0.113972 0.993053
-0.0601239 -0.380396 0.146649 0.139594 -0.021245 0.989981
0.109055 0.299141 -0.134426 -0.0387073 0.0049878 0.999238
0.161196 -0.382122 0.076475 -0.0107341 -0.999894 0.00987797
-0.489667 -0.203075 -0.0195201 0.999569 0.0278472 -0.00928738
-0.0809926 -0.381948 -0.139414 0.0114174 -0.995719 -0.0917227
0.294041 -0.0346412 -0.147427 -0.00341378 0.0401214 -0.999189
0.430008 -0.11512 -0.135675 -0.0209937 0.00922258 0.999737
-0.0390197 0.261528 -0.146852 -0.0488728 0.0223917 -0.998554
0.324359 0.371232 -0.00877354 0.00196678 -0.999997 -0.00164382
-0.149867 -0.383083 -0.00329271 0.0020766 -0.999991 -0.00356347
-0.500444 -0.207207 -0.111277 -0.999767 -0.0108161 0.0187021
-0.499211 0.214631 -0.00457251 -0.997583 0.0497566 -0.04851
0.361454 -0.158832 -0.147706 0.0295357 -0.0240233 -0.999275
0.0758678 -0.136007 -0.134125 0.000703551 -0.000250397 1
-0.500321 -0.125043 0.103461 -0.997564 0.023571 -0.0656544
-0.166833 -0.382063 0.134582 0.0352699 -0.999309 -0.0117328
0.450214 0.271778 -0.135777 0.00373018 -0.0213754 0.999765
0.499211 -0.141617 0.0570482 0.999917 -0.00639927 0.0111704
0.131346 0.36934 0.0137988 -0.0283463 -0.998982 0.0350806
-0.196366 0.381765 -0.0544456 0.00428753 0.999769 -0.0210553
-0.502329 -0.281247 0.0605313 -0.998954 0.0104091 -0.044532
-0.315103 0.252983 -0.148839 -0.003708 0.00413979 -0.999985
-0.369457 0.370067 0.0185983 0.0276443 -0.999374 -0.0220703
0.0348267 0.229393 -0.147128 0.000140658 -0.00460764 -0.999989
-0.301119 -0.382395 0.137354 -0.0197871 -0.999646 0.0177815
0.491603 0.217812 -0.0597023 0.0025881 -0.00309613 0.999992
0.119467 0.129631 -0.1479 -0.0464978 0.0200419 -0.998717
